<svg width="1440" height="384" viewBox="0 0 1440 384" fill="none" xmlns="http://www.w3.org/2000/svg">
<g clip-path="url(#clip0_4505_50053)">
<rect width="1440" height="384" fill="#F9F9F9"/>
<g filter="url(#filter0_f_4505_50053)">
<path d="M132.543 343.954C-9.66169 297.5 -63.1349 447.305 -72.0958 528.013C-74.6561 544.63 -73.3028 579.397 -47.4075 585.532C-15.0383 593.201 -25.4622 697.83 -9.55195 783.834C6.35833 869.838 174.239 787.121 232.394 767.948C290.549 748.775 332.245 765.209 438.679 610.731C545.113 456.252 410.15 402.02 383.816 406.403C357.482 410.785 310.3 402.02 132.543 343.954Z" fill="#FFB1B8"/>
</g>
<g filter="url(#filter1_f_4505_50053)">
<path d="M520.64 831.407C536.4 945.167 657.899 931.567 716.678 910.547C729.02 906.713 752.586 894.061 748.111 874.129C742.517 849.213 818.315 821.141 872.384 781.178C926.452 741.215 812.804 653.277 779.986 619.62C747.169 585.962 744.492 551.658 601.941 530.297C459.39 508.936 467.338 620.322 479.228 637.012C491.118 653.702 500.94 689.206 520.64 831.407Z" fill="#FFB1B8"/>
</g>
<g filter="url(#filter2_f_4505_50053)">
<path d="M74.5387 238.688C90.2987 352.448 211.797 338.848 270.576 317.828C282.919 313.994 306.485 301.342 302.009 281.41C296.415 256.494 372.214 228.422 426.282 188.459C480.35 148.496 366.702 60.5583 333.885 26.9007C301.067 -6.75682 298.39 -41.0606 155.839 -62.4217C13.288 -83.7829 21.2364 27.603 33.1265 44.2933C45.0165 60.9836 54.8386 96.4875 74.5387 238.688Z" fill="white"/>
</g>
<g filter="url(#filter3_f_4505_50053)">
<path d="M456.655 62.9733C343.913 41.0863 364.062 -79.4992 388.228 -137.056C392.724 -149.173 406.631 -172.021 426.292 -166.474C450.869 -159.541 482.999 -233.712 525.826 -285.54C568.653 -337.369 650.319 -219.133 682.153 -184.544C713.987 -149.955 748.096 -145.427 761.719 -1.9299C775.343 141.567 664.549 127.609 648.526 114.834C632.503 102.059 597.582 90.332 456.655 62.9733Z" fill="#FFCFEC"/>
</g>
<g filter="url(#filter4_f_4505_50053)">
<path d="M397.733 76.6176C274.077 36.1738 227.578 166.599 219.786 236.867C217.56 251.334 218.737 281.603 241.254 286.945C269.402 293.622 260.337 384.716 274.172 459.594C288.007 534.472 433.991 462.456 484.56 445.763C535.13 429.07 571.387 443.378 663.938 308.884C756.49 174.389 639.131 127.173 616.231 130.988C593.332 134.804 552.304 127.172 397.733 76.6176Z" fill="#FFFBD8"/>
</g>
<g filter="url(#filter5_f_4505_50053)">
<path d="M15.292 177.005C-65.8564 150.494 -96.3705 235.989 -101.484 282.05C-102.945 291.534 -102.173 311.376 -87.3958 314.877C-68.9245 319.254 -74.8729 378.967 -65.7938 428.051C-56.7147 477.134 39.0856 429.927 72.2713 418.984C105.457 408.042 129.25 417.421 189.987 329.258C250.723 241.095 173.707 210.145 158.679 212.646C143.652 215.147 116.728 210.144 15.292 177.005Z" fill="#FFFBD8"/>
</g>
<path d="M609.47 178.836C609.422 178.836 609.373 178.831 609.324 178.821C608.957 178.741 608.723 178.378 608.803 178.01C610.356 170.842 609.278 163.013 605.844 156.531C602.412 150.051 596.541 144.761 589.738 142.017C583.453 139.484 576.46 139.029 569.697 138.589C568.018 138.48 566.342 138.371 564.676 138.231C556.954 137.588 547.238 136.017 540.6 129.53C539.956 128.901 539.365 128.241 538.832 127.56C538.076 127.679 537.355 127.766 536.689 127.836C527.667 128.776 518.971 127.537 511.545 124.248C503.29 120.594 496.729 114.463 493.069 106.983C492.904 106.645 493.044 106.237 493.382 106.071C493.721 105.903 494.129 106.045 494.294 106.383C497.813 113.574 504.135 119.477 512.097 123.002C519.306 126.192 527.761 127.397 536.547 126.48C536.988 126.434 537.453 126.38 537.938 126.314C536.601 124.275 535.764 122.086 535.515 119.914C535.058 115.926 536.668 111.995 539.617 109.898C542.913 107.553 547.665 107.918 550.21 110.71C553.428 114.241 552.102 120.128 548.9 123.201C546.473 125.531 543.279 126.674 540.363 127.282C540.734 127.718 541.131 128.143 541.553 128.556C547.881 134.739 557.295 136.249 564.79 136.874C566.448 137.012 568.116 137.12 569.787 137.228C576.657 137.676 583.761 138.137 590.248 140.753C597.345 143.614 603.468 149.133 607.05 155.892C610.631 162.653 611.756 170.819 610.137 178.298C610.067 178.617 609.784 178.836 609.47 178.836ZM544.528 109.73C543.085 109.73 541.615 110.149 540.407 111.009C537.857 112.823 536.467 116.257 536.869 119.758C537.115 121.901 538.002 124.073 539.425 126.076C542.319 125.545 545.579 124.499 547.956 122.218C550.705 119.579 551.892 114.582 549.201 111.628C548.061 110.375 546.317 109.73 544.528 109.73Z" fill="#22363F"/>
<g filter="url(#filter6_f_4505_50053)">
<path d="M96.171 343.954C-45.7764 297.501 -99.1527 447.305 -108.097 528.013C-110.653 544.63 -109.302 579.397 -83.4538 585.532C-51.1433 593.201 -61.5484 697.831 -45.6669 783.835C-29.7854 869.839 137.791 787.121 195.841 767.949C253.89 748.776 295.511 765.21 401.752 610.731C507.994 456.252 373.275 402.021 346.989 406.403C320.702 410.785 273.605 402.02 96.171 343.954Z" fill="#FFB1B8"/>
</g>
<g filter="url(#filter7_f_4505_50053)">
<path d="M494.64 819.406C510.4 933.166 631.899 919.566 690.678 898.546C703.02 894.712 726.586 882.061 722.111 862.129C716.517 837.213 792.315 809.14 846.384 769.178C900.452 729.215 786.804 641.277 753.986 607.619C721.169 573.962 718.492 539.658 575.941 518.297C433.39 496.936 441.338 608.322 453.228 625.012C465.118 641.702 474.94 677.206 494.64 819.406Z" fill="#FFB1B8"/>
</g>
<g filter="url(#filter8_f_4505_50053)">
<path d="M46.5387 238.885C62.2987 352.645 183.797 339.045 242.576 318.025C254.919 314.191 278.485 301.54 274.009 281.607C268.415 256.692 344.214 228.619 398.282 188.656C452.35 148.694 338.702 60.7558 305.885 27.0982C273.067 -6.55931 270.39 -40.8631 127.839 -62.2242C-14.712 -83.5853 -6.76357 27.8005 5.12647 44.4908C17.0165 61.1811 26.8386 96.685 46.5387 238.885Z" fill="white"/>
</g>
<g filter="url(#filter9_f_4505_50053)">
<path d="M428.655 63.1708C315.913 41.2838 336.062 -79.3017 360.228 -136.859C364.724 -148.976 378.631 -171.823 398.292 -166.277C422.869 -159.344 454.999 -233.514 497.826 -285.343C540.653 -337.171 622.319 -218.936 654.153 -184.347C685.987 -149.757 720.096 -145.23 733.719 -1.73239C747.343 141.765 636.549 127.807 620.526 115.032C604.503 102.257 569.582 90.5295 428.655 63.1708Z" fill="white"/>
</g>
<g filter="url(#filter10_f_4505_50053)">
<path d="M635.733 314.618C512.077 274.174 465.578 404.599 457.786 474.867C455.56 489.334 456.737 519.603 479.254 524.945C507.402 531.622 498.337 622.716 512.172 697.594C526.007 772.472 671.991 700.456 722.56 683.763C773.13 667.07 809.387 681.378 901.938 546.884C994.49 412.389 877.131 365.173 854.231 368.988C831.332 372.804 790.304 365.172 635.733 314.618Z" fill="#FFFBD8"/>
</g>
<g filter="url(#filter11_f_4505_50053)">
<path d="M637.733 136.618C514.077 96.1738 467.578 226.599 459.786 296.867C457.56 311.334 458.737 341.603 481.254 346.945C509.402 353.622 500.337 444.716 514.172 519.594C528.007 594.472 673.991 522.456 724.56 505.763C775.13 489.07 811.387 503.378 903.938 368.884C996.49 234.389 879.131 187.173 856.231 190.988C833.332 194.804 792.304 187.172 637.733 136.618Z" fill="#FFFFFD"/>
</g>
<g filter="url(#filter12_f_4505_50053)">
<path d="M-12.708 177.203C-93.8564 150.691 -124.371 236.186 -129.484 282.248C-130.945 291.731 -130.173 311.573 -115.396 315.075C-96.9245 319.451 -102.873 379.165 -93.7938 428.248C-84.7147 477.332 11.0856 430.124 44.2713 419.182C77.457 408.24 101.25 417.619 161.987 329.456C222.723 241.293 145.707 210.342 130.679 212.843C115.652 215.344 88.7276 210.342 -12.708 177.203Z" fill="#FFFBD8"/>
</g>
<path d="M292.351 290.968C292.349 290.966 292.346 290.964 292.344 290.963C292.153 290.804 292.127 290.521 292.285 290.331C295.748 286.157 301.674 282.929 307.032 282.299C309.517 282.007 311.898 282.314 313.968 283.168C317.235 277.459 322.097 272.379 328.231 268.305C334.79 263.949 343.092 261.165 352.238 260.256C356.084 259.873 359.982 259.873 363.822 260.256C364.069 260.282 364.249 260.501 364.224 260.747C364.199 260.993 363.979 261.173 363.733 261.149C359.951 260.772 356.114 260.771 352.327 261.148C343.326 262.044 335.165 264.777 328.727 269.052C322.735 273.032 317.984 277.984 314.787 283.543C315.377 283.841 315.938 284.188 316.462 284.581C319.113 286.581 320.923 289.722 321.301 293.015C321.632 295.904 320.51 299.292 317.724 300.178C316.592 300.538 315.328 300.392 314.165 299.766C312.719 298.991 311.543 297.525 311.097 295.947C310.271 293.026 310.982 289.575 311.922 287.318C312.397 286.181 312.931 285.062 313.524 283.966C311.61 283.205 309.392 282.925 307.137 283.19C302.073 283.786 296.249 286.957 292.976 290.903C292.819 291.092 292.542 291.12 292.351 290.968ZM314.346 284.333C313.754 285.421 313.222 286.533 312.751 287.663C311.868 289.78 311.197 293.004 311.96 295.702C312.343 297.055 313.35 298.31 314.59 298.977C315.26 299.337 316.3 299.689 317.453 299.323C319.777 298.584 320.699 295.642 320.41 293.118C320.06 290.065 318.392 287.146 315.924 285.299C315.435 284.933 314.907 284.61 314.346 284.333Z" fill="#22363F"/>
<g filter="url(#filter13_f_4505_50053)">
<g filter="url(#filter14_f_4505_50053)">
<path d="M125.81 328.211C-26.9572 291.01 -84.4021 410.976 -94.0287 475.609C-96.7791 488.916 -95.3253 516.759 -67.5066 521.672C-32.7331 527.813 -43.9314 611.603 -26.8393 680.477C-9.7473 749.35 170.603 683.109 233.077 667.755C295.552 652.401 340.345 665.561 454.684 541.851C569.024 418.142 424.037 374.712 395.746 378.221C367.456 381.731 316.769 374.711 125.81 328.211Z" fill="white"/>
</g>
<g filter="url(#filter15_f_4505_50053)">
<path d="M534.152 720.358C551.105 811.404 681.798 800.52 745.026 783.697C758.302 780.628 783.652 770.503 778.838 754.55C772.82 734.61 854.355 712.142 912.515 680.159C970.675 648.176 848.427 577.796 813.125 550.859C777.824 523.922 774.944 496.468 621.605 479.372C468.266 462.276 476.816 551.421 489.606 564.779C502.396 578.137 512.961 606.552 534.152 720.358Z" fill="#FBA0A8"/>
</g>
<g filter="url(#filter16_f_4505_50053)">
<path d="M62.902 237.342C79.8547 328.388 210.548 317.503 273.776 300.681C287.052 297.612 312.402 287.487 307.588 271.534C301.57 251.594 383.105 229.126 441.265 197.143C499.425 165.16 377.177 94.7804 341.875 67.8433C306.574 40.9062 303.694 13.4519 150.355 -3.64406C-2.98418 -20.74 5.56579 68.4053 18.3557 81.763C31.1456 95.1207 41.711 123.536 62.902 237.342Z" fill="white"/>
</g>
<g filter="url(#filter17_f_4505_50053)">
<path d="M473.929 96.7128C352.655 79.1961 374.328 -17.312 400.324 -63.3764C405.16 -73.0741 420.119 -91.3596 441.269 -86.9207C467.705 -81.372 502.266 -140.733 548.335 -182.213C594.403 -223.692 682.249 -129.065 716.492 -101.382C750.736 -73.6997 787.426 -70.0761 802.08 44.769C816.735 159.614 697.557 148.443 680.321 138.218C663.085 127.994 625.522 118.609 473.929 96.7128Z" fill="white"/>
</g>
<g filter="url(#filter18_f_4505_50053)">
<path d="M944.125 32.4915C846.488 8.64495 809.773 85.5464 803.621 126.978C801.863 135.508 802.792 153.356 820.572 156.505C842.796 160.442 835.639 214.153 846.563 258.303C857.487 302.453 972.753 259.99 1012.68 250.148C1052.61 240.306 1081.24 248.742 1154.32 169.441C1227.39 90.1396 1134.73 62.2999 1116.65 64.5496C1098.57 66.7992 1066.17 62.2998 944.125 32.4915Z" fill="white"/>
</g>
</g>
<g filter="url(#filter19_f_4505_50053)">
<path d="M1317.81 118.007C1165.04 80.8061 1107.6 200.772 1097.97 265.406C1095.22 278.713 1096.67 306.555 1124.49 311.468C1159.27 317.61 1148.07 401.399 1165.16 470.273C1182.25 539.147 1362.6 472.905 1425.08 457.551C1487.55 442.197 1532.34 455.357 1646.68 331.648C1761.02 207.938 1616.04 164.508 1587.75 168.017C1559.46 171.527 1508.77 164.508 1317.81 118.007Z" fill="white"/>
</g>
<g clip-path="url(#clip1_4505_50053)">
<path d="M1181.83 38.6037H804.764C794.439 38.6037 786.068 46.9704 786.068 57.2912V294.33C786.068 304.651 794.439 313.018 804.764 313.018H1181.83C1192.15 313.018 1200.52 304.651 1200.52 294.33V57.2912C1200.52 46.9704 1192.15 38.6037 1181.83 38.6037Z" fill="#FFE6CA"/>
<path d="M827.383 263.583C827.383 263.583 834.362 260.285 839.406 255.712C839.406 255.712 834.973 273.13 818.026 286.381C818.026 286.381 812.134 262.841 797.6 248.869C783.064 234.898 769.095 222.088 769.095 222.088L788.664 223.447C788.664 223.447 743.099 176.621 735.32 150.356L735.328 150.364C735.685 150.457 758.891 156.954 763.438 159.284L766.142 175.434L772.065 160.533L778.919 165.788L777.017 181.88L786.368 168.743C786.368 168.743 805.887 174.705 813.764 191.773L800.873 212.065L823.498 196.765C823.498 196.765 827.251 222.995 827.209 226.743L806.337 239.756C806.337 239.756 821.065 235.883 833.522 228.539L840.209 249.326L827.383 263.583Z" fill="#4B9BA2"/>
<path d="M845.557 328.517C845.557 328.517 817.564 306.443 833.529 270.248C833.529 270.248 846.088 279.141 852.331 286.992L842.657 258.669C842.657 258.669 848.837 238.424 869.812 222.958L886.804 249.656L875.916 221.077C875.916 221.077 876.188 218.405 882.575 212.877L891.372 232.19C891.372 232.19 884.639 213.387 887.777 204.42C887.777 204.42 911.041 191.048 942.635 183.847L892.469 243.393C892.469 243.393 890.816 250.066 900.968 245.188C911.121 240.31 924.277 227.68 924.277 227.68C924.277 227.68 911.749 249.804 902.341 253.474C892.931 257.143 887.661 260.614 887.661 260.614L896.141 264.111C896.141 264.111 881.274 277.453 866.498 282.281C866.498 282.281 874.681 290.883 894.731 282.098C894.731 282.098 877.566 328.012 845.557 328.519V328.517Z" fill="#88C1BA"/>
<path d="M899.471 271.2C899.471 271.2 872.807 317.864 845.557 328.517C845.557 328.517 872.21 328.195 890.081 307.103L900.473 291.16C900.473 291.16 902.215 276.218 899.471 271.202V271.2Z" fill="#4B9BA2"/>
<path d="M892.469 243.393L897.655 213.771C897.655 213.771 921.779 210.867 942.635 183.847C942.635 183.847 916.356 228.69 892.469 243.393Z" fill="#4B9BA2"/>
<path d="M926.315 219.188C926.315 219.188 912.624 247.623 902.341 253.473C902.341 253.473 916.508 248.638 923.919 238.379C923.919 238.379 928.982 231.5 926.315 219.186V219.188Z" fill="#4B9BA2"/>
<path d="M887.66 260.613C887.66 260.613 884.245 272.618 876.764 278.011C876.764 278.011 896.323 269.586 910.098 255.989C910.098 255.989 899.107 259.642 887.658 260.613H887.66Z" fill="#4B9BA2"/>
<path d="M735.811 249.673C735.811 249.673 793.514 326.655 799.588 336.046C799.588 336.046 809.285 334.914 816.635 322.222L810.431 324.216C810.431 324.216 825.226 308.926 809.544 291.661L798.28 304.311C798.28 304.311 815.01 281.627 787.127 268.351C759.243 255.074 735.811 249.673 735.811 249.673Z" fill="#449DA3"/>
<path d="M781.199 201.528C781.146 201.528 781.093 201.518 781.04 201.495C780.833 201.409 780.736 201.169 780.823 200.962L793.181 171.737C793.268 171.529 793.508 171.433 793.715 171.519C793.923 171.606 794.019 171.846 793.932 172.053L781.574 201.278C781.508 201.434 781.357 201.528 781.199 201.528Z" fill="#88C1BA"/>
<path d="M789.42 210.975C789.364 210.975 789.308 210.964 789.253 210.938C789.049 210.845 788.957 210.604 789.05 210.399L803.355 178.796C803.448 178.591 803.689 178.501 803.894 178.594C804.098 178.687 804.19 178.928 804.096 179.132L789.792 210.735C789.724 210.887 789.575 210.975 789.42 210.975Z" fill="#88C1BA"/>
<path d="M818.026 286.381C818.026 286.381 812.134 262.841 797.6 248.869C783.064 234.898 769.095 222.088 769.095 222.088L788.664 223.447C788.664 223.447 743.099 176.621 735.32 150.356L735.328 150.364C736.134 151.179 787.757 203.135 796.744 221.595C805.801 240.208 816.976 274.167 818.026 286.381Z" fill="#1E8484"/>
<path d="M872.699 272.06C872.432 272.06 872.17 271.929 872.014 271.687L852.93 242.083C852.686 241.705 852.795 241.2 853.173 240.957C853.551 240.713 854.056 240.822 854.299 241.2L873.383 270.805C873.627 271.183 873.518 271.687 873.14 271.93C873.003 272.019 872.85 272.06 872.699 272.06Z" fill="#4B9BA2"/>
<path d="M879.399 261.82C879.13 261.82 878.868 261.688 878.712 261.446L860.269 232.701C860.026 232.322 860.135 231.819 860.515 231.576C860.893 231.333 861.398 231.442 861.641 231.822L880.084 260.566C880.327 260.946 880.217 261.449 879.838 261.692C879.701 261.779 879.55 261.82 879.399 261.82Z" fill="#4B9BA2"/>
<path d="M839.04 370.053C838.996 370.053 838.953 370.05 838.909 370.043C838.465 369.973 838.163 369.555 838.234 369.111L844.753 328.388C844.808 328.03 846.225 319.266 855.253 300.843C860.537 290.061 867.351 278.191 875.506 265.565C885.693 249.792 898.014 232.783 912.128 215.011C912.408 214.659 912.921 214.599 913.274 214.879C913.626 215.159 913.685 215.671 913.405 216.024C899.358 233.713 887.092 250.64 876.949 266.337C868.834 278.895 862.051 290.697 856.789 301.416C847.83 319.666 846.378 328.556 846.365 328.642L839.845 369.368C839.781 369.769 839.435 370.055 839.041 370.055L839.04 370.053Z" fill="#4B9BA2"/>
<path d="M828.745 370.092C828.357 370.092 828.039 369.785 828.026 369.396C826.556 321.986 817.539 285.847 817.449 285.489C817.442 285.465 817.437 285.441 817.434 285.417C816.426 278.501 800.828 231.188 796.779 221.89C792.896 212.974 735.772 152.03 735.195 151.415C734.923 151.126 734.937 150.671 735.227 150.399C735.516 150.128 735.971 150.142 736.243 150.431C738.605 152.948 794.117 212.173 798.097 221.315C802.157 230.64 817.786 278.075 818.851 285.172C819.186 286.513 828.008 322.452 829.463 369.35C829.475 369.748 829.163 370.079 828.766 370.092C828.758 370.092 828.752 370.092 828.744 370.092H828.745Z" fill="#88C1BA"/>
<path d="M821.069 369.508C820.791 369.508 820.539 369.333 820.442 369.071C819.857 367.915 807.449 348.986 799.2 336.466L735.558 250.41C735.338 250.112 735.401 249.694 735.698 249.474C735.996 249.254 736.414 249.318 736.634 249.614L800.288 335.685C800.294 335.694 800.302 335.704 800.308 335.715C800.362 335.796 805.674 343.859 810.931 351.886C821.639 368.236 821.685 368.49 821.729 368.715C821.798 369.079 821.558 369.428 821.195 369.497C821.153 369.505 821.111 369.508 821.069 369.508ZM820.412 368.963C820.412 368.963 820.412 368.963 820.412 368.965C820.412 368.965 820.412 368.965 820.412 368.963Z" fill="#88C1BA"/>
<path d="M781.081 265.878L773.961 301.3L774.76 301.461L781.88 266.038L781.081 265.878Z" fill="#88C1BA"/>
<path d="M790.358 270.446L781.607 311.528L782.405 311.697L791.156 270.616L790.358 270.446Z" fill="#88C1BA"/>
<path d="M899.761 74.387L909.775 61.7078H1190.31L1173.87 75.7906C1173.87 75.7906 898.792 73.5574 899.761 74.3854V74.387Z" fill="white"/>
<path d="M899.761 96.869L909.775 84.1898H1190.31L1173.87 98.2726C1173.87 98.2726 898.792 96.0393 899.761 96.8674V96.869Z" fill="white"/>
<path d="M899.761 119.349L909.775 106.67H1190.31L1173.87 120.753C1173.87 120.753 898.792 118.52 899.761 119.348V119.349Z" fill="white"/>
<path d="M899.761 141.83L909.775 129.151H1190.31L1173.87 143.233C1173.87 143.233 898.792 141 899.761 141.828V141.83Z" fill="white"/>
<path d="M899.761 164.31L909.775 151.631H1190.31L1173.87 165.714C1173.87 165.714 898.792 163.48 899.761 164.308V164.31Z" fill="white"/>
<path d="M899.761 186.79L909.775 174.111H1190.31L1173.87 188.194C1173.87 188.194 898.792 185.961 899.761 186.789V186.79Z" fill="white"/>
<path d="M899.761 209.271L909.775 196.592H1190.31L1173.87 210.674C1173.87 210.674 898.792 208.441 899.761 209.269V209.271Z" fill="white"/>
<path d="M899.761 231.753L909.775 219.074H1190.31L1173.87 233.156C1173.87 233.156 898.792 230.923 899.761 231.751V231.753Z" fill="white"/>
<path d="M1134.95 41.9077H1127.49V275.099H1134.95V41.9077Z" fill="#FFE6CA"/>
<path d="M953.731 41.9077H946.224V236.185H953.731V41.9077Z" fill="#FFE6CA"/>
<path d="M877.374 104.924L883.361 117.05L896.749 118.994L887.062 128.434L889.348 141.761L877.374 135.469L865.401 141.761L867.688 128.434L858 118.994L871.388 117.05L877.374 104.924Z" fill="url(#paint0_linear_4505_50053)"/>
<path d="M934.097 63.6021L940.085 75.7281L953.473 77.672L943.785 87.1114L946.072 100.439L934.097 94.1472L922.123 100.439L924.41 87.1114L914.722 77.672L928.11 75.7281L934.097 63.6021Z" fill="url(#paint1_linear_4505_50053)"/>
<path d="M995.336 50L1001.32 62.1261L1014.71 64.0699L1005.02 73.5094L1007.31 86.8365L995.336 80.5435L983.36 86.8365L985.648 73.5094L975.96 64.0699L989.347 62.1261L995.336 50Z" fill="url(#paint2_linear_4505_50053)"/>
<path d="M1061.67 69.2197L1067.66 81.3458L1081.05 83.2896L1071.36 92.7291L1073.65 106.056L1061.67 99.7632L1049.7 106.056L1051.98 92.7291L1042.3 83.2896L1055.69 81.3458L1061.67 69.2197Z" fill="url(#paint3_linear_4505_50053)"/>
<path d="M1107.96 103.003L1113.95 115.129L1127.34 117.073L1117.65 126.512L1119.94 139.839L1107.96 133.546L1095.99 139.839L1098.28 126.512L1088.59 117.073L1101.98 115.129L1107.96 103.003Z" fill="url(#paint4_linear_4505_50053)"/>
<path d="M1187.28 203.505L1191.87 207.636L1196.47 211.766L1189.62 214.771L1182.76 217.774L1185.02 210.641L1187.28 203.505Z" fill="#FFC064"/>
<path d="M1197.09 219.873L1196.03 225.961L1194.97 232.05L1188.78 227.839L1182.6 223.627L1189.84 221.749L1197.09 219.873Z" fill="#FFC064"/>
<path d="M1192.72 238.387L1187.44 241.604L1182.16 244.819L1181.25 237.391L1180.34 229.965L1186.53 234.176L1192.72 238.387Z" fill="#FFC064"/>
<path d="M1071.91 219.577C1071.91 219.577 1087.22 224.445 1094.46 221.524C1094.46 221.524 1088.33 209.562 1087.22 200.939C1086.11 192.315 1088.89 176.181 1088.89 176.181L1093.9 153.647C1093.9 153.647 1091.67 150.448 1089.72 151.144L1084.71 167.834C1084.71 167.834 1086.52 142.659 1084.44 141.963C1082.35 141.267 1079.84 140.851 1079.98 142.519C1080.12 144.188 1078.59 162.548 1078.59 162.548C1078.59 162.548 1073.44 135.426 1072.19 135.286C1070.94 135.146 1068.3 134.73 1068.3 136.12C1068.3 137.511 1071.36 165.608 1071.36 165.608L1063.56 162.27L1057.16 164.773L1051.88 171.449C1051.88 171.449 1051.32 175.621 1054.38 175.343L1061.9 169.224L1065.24 171.171V177.012L1059.11 180.071C1059.11 180.071 1050.07 171.169 1048.82 172.56C1047.56 173.95 1045.76 176.037 1049.09 182.297C1052.43 188.556 1061.34 194.537 1061.34 194.537C1061.34 194.537 1067.74 200.934 1068.02 203.161C1068.3 205.386 1071.91 219.574 1071.91 219.574L1071.91 219.577Z" fill="#FFB199"/>
<path d="M1088.4 222.788C1081.05 222.788 1072.29 220.038 1071.81 219.886C1071.71 219.852 1071.63 219.765 1071.6 219.657C1071.45 219.077 1067.97 205.425 1067.7 203.205C1067.48 201.476 1062.9 196.568 1061.13 194.791C1060.87 194.612 1058.73 193.143 1056.26 191.013C1053.82 188.916 1050.55 185.729 1048.81 182.453C1045.33 175.944 1047.36 173.693 1048.57 172.348C1048.67 172.237 1048.86 172.103 1049.17 172.093C1049.72 172.079 1050.58 172.513 1051.59 173.185C1051.44 172.282 1051.55 171.465 1051.55 171.409C1051.56 171.351 1051.58 171.296 1051.62 171.251L1056.91 164.575C1056.94 164.53 1056.99 164.495 1057.04 164.476L1063.44 161.972C1063.52 161.942 1063.61 161.943 1063.69 161.976L1070.97 165.096C1070.53 161.046 1067.97 137.426 1067.97 136.125C1067.97 135.781 1068.1 135.484 1068.34 135.267C1069.09 134.601 1070.81 134.804 1071.94 134.937C1072.04 134.948 1072.14 134.96 1072.22 134.971C1072.63 135.016 1073.24 135.083 1076.18 148.909C1077.1 153.24 1077.96 157.601 1078.46 160.173C1078.87 155.166 1079.76 143.819 1079.66 142.552C1079.61 141.928 1079.87 141.579 1080.1 141.396C1081 140.693 1083.01 141.153 1084.54 141.661C1084.99 141.814 1086.07 142.172 1085.68 155.175C1085.57 158.879 1085.37 162.582 1085.22 165.022L1089.41 151.055C1089.44 150.957 1089.52 150.878 1089.61 150.843C1091.77 150.073 1094.06 153.329 1094.16 153.467C1094.21 153.541 1094.23 153.634 1094.21 153.723L1089.2 176.256C1089.18 176.402 1086.44 192.427 1087.54 200.902C1088.63 209.37 1094.68 221.262 1094.74 221.382C1094.78 221.463 1094.79 221.558 1094.75 221.643C1094.72 221.728 1094.66 221.796 1094.57 221.829C1092.85 222.526 1090.69 222.792 1088.4 222.792L1088.4 222.788ZM1072.18 219.321C1073.85 219.831 1087.25 223.773 1094.01 221.349C1093.03 219.374 1087.9 208.771 1086.9 200.979C1085.79 192.407 1088.54 176.287 1088.57 176.124L1093.55 153.718C1092.92 152.859 1091.3 151.104 1089.98 151.404L1085.02 167.928C1084.98 168.085 1084.82 168.183 1084.66 168.153C1084.49 168.122 1084.38 167.976 1084.39 167.812C1084.4 167.749 1084.84 161.517 1085.03 155.25C1085.39 143.375 1084.51 142.355 1084.33 142.27C1082.44 141.642 1081.01 141.502 1080.51 141.9C1080.41 141.981 1080.28 142.129 1080.31 142.494C1080.45 144.171 1078.98 161.826 1078.91 162.577C1078.9 162.738 1078.77 162.865 1078.61 162.873C1078.44 162.884 1078.3 162.768 1078.27 162.609C1076.39 152.702 1073.07 136.725 1072.09 135.601C1072.02 135.593 1071.94 135.585 1071.87 135.575C1070.97 135.471 1069.31 135.275 1068.77 135.746C1068.67 135.841 1068.62 135.96 1068.62 136.12C1068.62 137.477 1071.65 165.292 1071.68 165.572C1071.69 165.686 1071.64 165.799 1071.55 165.868C1071.46 165.937 1071.34 165.95 1071.23 165.905L1063.56 162.619L1057.36 165.042L1052.19 171.576C1052.16 171.873 1052.09 172.891 1052.39 173.746C1052.92 174.139 1053.47 174.576 1054.03 175.033C1054.1 175.034 1054.18 175.033 1054.25 175.028L1061.69 168.971C1061.79 168.886 1061.94 168.875 1062.06 168.942L1065.4 170.889C1065.5 170.947 1065.56 171.053 1065.56 171.169V177.01C1065.56 177.132 1065.49 177.245 1065.38 177.3L1059.26 180.359C1059.13 180.42 1058.98 180.398 1058.89 180.3C1057.43 178.87 1055.54 177.118 1053.78 175.661C1053.22 175.602 1052.76 175.38 1052.39 174.997C1052.15 174.751 1051.98 174.455 1051.85 174.142C1050.67 173.277 1049.69 172.711 1049.19 172.735C1049.12 172.737 1049.08 172.751 1049.06 172.775C1047.89 174.074 1046.12 176.036 1049.38 182.142C1052.64 188.26 1061.43 194.207 1061.52 194.267C1061.54 194.278 1061.55 194.292 1061.57 194.307C1061.83 194.571 1068.05 200.811 1068.34 203.119C1068.6 205.166 1071.77 217.678 1072.18 219.316L1072.18 219.321ZM1054.65 175.547C1056.64 177.24 1058.52 179.047 1059.17 179.682L1064.91 176.816V171.36L1061.93 169.619L1054.65 175.549V175.547Z" fill="#5D1314"/>
<path d="M1093.42 225.132L1068.4 223.789L1069.37 212.565H1094.76L1093.42 225.132Z" fill="white"/>
<path d="M1093.71 225.471L1093.4 225.455L1068.05 224.095L1069.08 212.242H1095.12L1093.71 225.471ZM1068.75 223.484L1093.13 224.791L1094.4 212.888H1069.67L1068.75 223.482V223.484Z" fill="black"/>
<path d="M906.279 338.04L880.924 354.017L892.396 357.53L918.714 353.932C918.714 353.932 916.689 351.711 918.714 338.913C920.749 326.055 906.28 338.038 906.28 338.038L906.279 338.04Z" fill="#FFB199"/>
<path d="M892.368 357.861L880.153 354.12L906.087 337.776C906.604 337.35 914.305 331.085 917.691 333.014C919.079 333.805 919.531 335.807 919.031 338.965C918.014 345.385 918.046 349.05 918.252 350.996C918.478 353.12 918.95 353.715 918.955 353.721L919.325 354.17L918.754 354.255L892.365 357.863L892.368 357.861ZM881.694 353.916L892.421 357.202L918.202 353.678C917.697 352.518 916.81 348.873 918.392 338.865C918.846 336.001 918.502 334.222 917.371 333.578C916.139 332.877 913.88 333.455 910.842 335.249C908.487 336.64 906.504 338.275 906.485 338.291L906.451 338.315L881.694 353.916Z" fill="#5D1314"/>
<path d="M948.511 213.218L905.888 222.127L917.125 285.648C917.125 285.648 924.099 338.325 914.413 356.916L1015.55 354.978L1040.35 224.063L991.137 212.443L948.513 213.218H948.511Z" fill="#F63D4F"/>
<path d="M1040.35 224.063L1061.62 261.166L1066.69 217.324L1096.54 220.964L1089.17 297.655C1089.17 297.655 1075.42 305.982 1071.35 305.789C1067.28 305.596 1053.14 301.141 1053.14 301.141L1031.41 280.021C1027.21 275.937 1025.4 269.99 1026.6 264.256C1028.86 253.473 1033.35 235.763 1040.35 224.063Z" fill="#F63D4F"/>
<path d="M950.062 220.577C950.062 220.577 970.987 228.323 1006.44 218.834L980.286 314.31L950.062 220.577Z" fill="white"/>
<path d="M972.771 332.98C970.3 332.98 968.29 330.971 968.29 328.501C968.29 326.031 970.3 324.022 972.771 324.022C975.242 324.022 977.252 326.031 977.252 328.501C977.252 330.971 975.242 332.98 972.771 332.98ZM972.771 324.67C970.657 324.67 968.936 326.388 968.936 328.503C968.936 330.617 970.656 332.336 972.771 332.336C974.886 332.336 976.606 330.617 976.606 328.503C976.606 326.388 974.886 324.67 972.771 324.67Z" fill="#231F20"/>
<path d="M905.888 222.127C890.509 239.477 875.083 256.921 860.821 275.205C857.243 279.791 852.514 284.601 853.04 290.803C853.537 296.663 856.105 302.118 860.887 305.657L918.564 349.328C918.564 349.328 928.109 336.527 926.826 318.999L892.018 288.558L916.346 273.252C916.346 273.252 922.164 240.047 905.889 222.127H905.888Z" fill="#F63D4F"/>
<path d="M916.509 268.453C916.501 268.453 916.491 268.453 916.483 268.453C916.304 268.438 916.171 268.282 916.185 268.104C916.998 257.957 914.077 246.04 911.484 237.829C908.67 228.918 905.624 222.328 905.593 222.263C905.518 222.101 905.588 221.908 905.751 221.834C905.913 221.759 906.106 221.829 906.18 221.992C906.211 222.058 909.272 228.679 912.098 237.628C914.71 245.897 917.651 257.905 916.83 268.157C916.817 268.326 916.674 268.454 916.509 268.454V268.453Z" fill="white"/>
<path d="M1032.99 250.444C1032.97 250.444 1032.96 250.444 1032.95 250.44C1032.77 250.418 1032.64 250.255 1032.67 250.079C1033.4 244.342 1035.37 237.541 1036.89 232.844C1038.54 227.762 1040.03 223.981 1040.05 223.944C1040.11 223.778 1040.3 223.696 1040.47 223.762C1040.63 223.828 1040.71 224.016 1040.65 224.182C1040.63 224.219 1039.15 227.984 1037.51 233.049C1035.99 237.716 1034.04 244.475 1033.31 250.161C1033.29 250.325 1033.15 250.444 1032.99 250.444Z" fill="white"/>
<path d="M1045.41 270.827C1045.22 270.827 1045.07 270.781 1044.95 270.686C1044.52 270.353 1044.73 269.676 1044.92 269.195C1045.84 266.853 1048.93 264.734 1054.11 262.899C1056.04 262.214 1057.92 261.7 1059.31 261.356C1060.45 260.798 1061.28 260.605 1061.78 260.883C1061.9 260.949 1061.96 261.082 1061.94 261.217C1061.92 261.352 1061.82 261.459 1061.68 261.484C1061.65 261.491 1060.79 261.658 1059.48 261.983C1057.58 262.96 1054.78 264.951 1052.54 266.549C1048.5 269.432 1046.42 270.827 1045.41 270.827H1045.41ZM1045.35 270.176C1045.43 270.199 1045.85 270.245 1047.65 269.128C1048.92 268.337 1050.5 267.211 1052.17 266.022C1054.06 264.673 1055.72 263.507 1057.12 262.619C1052.8 263.875 1046.81 266.165 1045.52 269.433C1045.31 269.961 1045.34 270.141 1045.35 270.178V270.176Z" fill="white"/>
<path d="M1051.81 276.935C1051.63 276.935 1051.49 276.799 1051.48 276.623C1051.37 273.551 1053.01 269.969 1056.37 265.977C1058.85 263.028 1061.39 260.936 1061.42 260.915C1061.56 260.803 1061.76 260.822 1061.87 260.96C1061.99 261.098 1061.97 261.303 1061.83 261.415C1061.73 261.497 1051.87 269.634 1052.13 276.599C1052.14 276.778 1052 276.927 1051.82 276.935C1051.81 276.935 1051.81 276.935 1051.81 276.935H1051.81Z" fill="white"/>
<path d="M1031.09 270.769L1027.86 290.816L1012.73 291.597L1031.09 270.769Z" fill="#D82540"/>
<path d="M902.922 298.102C902.5 298.031 902.267 298.012 902.267 298.012C914.223 308.921 918.563 349.327 918.563 349.327C920.356 341.519 919.621 318.926 919.615 312.841L902.922 298.104V298.102Z" fill="#D82540"/>
<path d="M930.61 254.955L946.959 265.661L937.657 269.887L974.301 315.248L962.743 280.874L942.449 243.967L930.61 254.955Z" fill="#D82540"/>
<path d="M956.441 209.288L986.099 326.705L942.312 269.38L952 264.732L933.787 252.337L956.441 209.288Z" fill="#FFC064"/>
<path d="M1018.02 244.218L1013.49 260.727L1004.1 261.375L1011.22 266.554L993.085 300.868L990.17 270.44C990.17 270.44 1006.85 241.144 1018.02 244.22L1018.02 244.218Z" fill="#D82540"/>
<path d="M995.399 213.605L980.287 314.31L1008.19 267.443L1000.05 260.859L1012.84 255.436L1026.12 220.334L995.399 213.605Z" fill="#FFC064"/>
<path d="M955.473 180.083C955.473 180.083 953.847 196.992 956.876 202.204C959.903 207.417 965.456 198.169 965.456 198.169C965.456 198.169 958.698 177.128 955.475 180.083H955.473Z" fill="#4B0503"/>
<path d="M998.838 180.848C998.838 180.848 990.463 191.718 991.833 198.769C993.205 205.819 998.544 209.247 998.544 209.247L998.838 180.848Z" fill="#4B0503"/>
<path d="M997.336 221.545C997.128 221.648 996.921 221.746 996.713 221.842C967.554 235.703 958.006 223.481 958.006 223.481L960.014 192.488L960.525 184.557C973.699 177.779 993.072 184.94 993.072 184.94L997.334 221.545H997.336Z" fill="#FFB199"/>
<path d="M997.336 221.545C997.128 221.648 996.921 221.746 996.713 221.842C983.701 214.469 964.563 208.399 960.015 192.488L960.527 184.557C973.701 177.779 993.073 184.94 993.073 184.94L997.336 221.545Z" fill="#FF8B6C"/>
<path d="M952.427 167.424C954.661 180.067 956.992 195.143 969.766 201.29C987.426 209.785 996.847 190.043 1000.22 176.235C1000.22 176.235 1003.91 126.639 974.952 128.826C945.993 131.012 952.427 167.421 952.427 167.424Z" fill="#FFB199"/>
<path d="M958.882 165.355C958.882 165.355 966.935 162.069 969.104 162.829C971.272 163.59 974.394 167.085 974.394 167.085L958.882 165.355Z" fill="#4B0503"/>
<path d="M998.813 165.759C998.813 165.759 990.278 161.694 987.876 162.387C985.475 163.078 981.872 166.678 981.872 166.678L998.813 165.76V165.759Z" fill="#4B0503"/>
<path d="M978.235 182.689C978.18 182.689 978.137 182.684 978.106 182.678C977.156 182.488 974.979 180.665 974.735 180.457C974.598 180.342 974.58 180.137 974.696 180.001C974.812 179.864 975.016 179.846 975.153 179.962C976.03 180.703 977.64 181.924 978.233 182.041C978.687 182.134 980.205 181.038 981.354 179.972C981.484 179.85 981.69 179.858 981.812 179.989C981.934 180.121 981.926 180.325 981.795 180.448C979.657 182.432 978.624 182.689 978.235 182.689Z" fill="#231F20"/>
<path d="M1000.35 141.931C1000.35 141.931 1017.01 156.204 1016.59 170.269C1016.18 184.334 1005.31 206.054 1010.28 212.673C1015.25 219.292 1026.94 230.875 1025.08 249.905C1023.21 268.935 1010.38 275.244 1003.86 277.829C1003.86 277.829 1028.08 258.592 1010.38 234.909C992.691 211.224 990.933 226.117 998.485 192.815C1006.04 159.512 1004.38 162.718 1000.35 141.929V141.931Z" fill="#4B0503"/>
<path d="M985.002 193.138C979.852 197.356 971.917 194.976 969.964 192.715C969.377 192.039 968.323 190.448 968.249 189.823C968.052 188.058 968.898 187.043 970.619 186.627C970.625 186.627 970.636 186.62 970.641 186.62C972.131 186.265 973.45 186.789 974.872 187.083C976.496 187.41 978.166 187.484 979.807 187.308C981.465 187.128 983.027 186.361 984.692 186.845C984.732 186.857 984.766 186.868 984.804 186.879C988.307 187.968 987.342 191.231 985.002 193.137V193.138Z" fill="#4B0503"/>
<path d="M984.828 187.122C984.828 188.881 981.631 190.313 977.677 190.313C973.723 190.313 970.53 188.881 970.53 187.122C970.53 186.953 970.558 186.789 970.62 186.625C970.627 186.625 970.638 186.618 970.643 186.618C972.132 186.263 973.451 186.787 974.873 187.081C976.498 187.408 978.167 187.482 979.808 187.307C981.466 187.126 983.028 186.36 984.693 186.843C984.733 186.855 984.767 186.866 984.806 186.877C984.823 186.956 984.828 187.041 984.828 187.12V187.122Z" fill="white"/>
<path d="M989.766 210.298C989.766 210.298 986.871 227.719 994.944 236.403C1003.02 245.086 997.672 258.499 997.672 258.499C997.672 258.499 1007.03 246.421 1003.35 226.217C999.676 206.013 989.765 210.298 989.765 210.298H989.766Z" fill="#4B0503"/>
<path d="M959.826 173.233C959.826 173.233 964.564 168.979 967.717 168.842C970.87 168.706 973.738 172.968 973.738 172.968C973.738 172.968 967.582 167.905 959.826 173.235V173.233Z" fill="#4B0503"/>
<path d="M997.177 173.541C997.177 173.541 992.438 169.286 989.286 169.15C986.133 169.013 983.265 173.275 983.265 173.275C983.265 173.275 989.421 168.212 997.177 173.542V173.541Z" fill="#4B0503"/>
<path d="M964.005 185.631C966.421 184.496 967.46 181.619 966.325 179.203C965.19 176.788 962.311 175.75 959.895 176.884C957.479 178.019 956.44 180.896 957.575 183.312C958.71 185.727 961.589 186.765 964.005 185.631Z" fill="#FF8B6C"/>
<path d="M993.926 186.508C996.461 185.67 997.837 182.938 996.999 180.404C996.161 177.871 993.427 176.496 990.893 177.333C988.358 178.17 986.982 180.903 987.82 183.437C988.658 185.97 991.392 187.345 993.926 186.508Z" fill="#FF8B6C"/>
<path d="M976.979 197.596C973.825 197.596 972.084 196.265 971.981 196.183C971.841 196.072 971.817 195.868 971.928 195.728C972.039 195.588 972.242 195.564 972.382 195.674C972.419 195.702 975.875 198.314 981.894 195.926C982.06 195.86 982.248 195.94 982.314 196.108C982.38 196.273 982.298 196.461 982.133 196.527C980.136 197.318 978.412 197.593 976.979 197.593V197.596Z" fill="#231F20"/>
<path d="M1002 191.988C1006.98 178.694 1006.91 164.762 1004.31 153.322C1012.01 159.463 1018.54 164.469 1020.58 169.027C1025.3 179.576 1006 195.989 1005.42 204.573C1004.84 213.157 1013.89 217.382 1013.89 217.382C1007.92 201.455 1038.49 164.167 1022.31 158.064C1019.08 156.843 1016.49 154.94 1014.34 152.641C1013.2 144.298 1010.12 131.686 1001.77 125.322C993.579 119.079 981.594 118.317 976.408 118.304C973.506 117.788 950.853 115.044 938.162 152.168C925.267 189.894 922.174 196.223 932.526 208.579C931.982 210.046 931.413 211.541 930.816 213.085C925.539 226.736 926.885 235.838 926.885 235.838C931.955 274.829 961.236 273.485 961.236 273.485C938.899 269.544 934.91 251.778 937.315 234.906C937.389 235.526 937.469 236.147 937.564 236.774C942.476 269.477 963.916 261.33 963.916 261.33C948.283 265.571 944.374 247.824 952.637 224.831C954.069 220.845 955.084 216.9 955.792 213.096C962.007 230.868 947.231 230.221 951.679 246.114C955.391 259.38 963.302 258.938 963.302 258.938C963.302 258.938 957.495 257.487 956.155 249.562C954.815 241.638 968.759 218.717 962.872 206.775C960.052 201.055 958.172 195.148 956.926 190.075C956.427 183.925 955.471 180.081 955.471 180.081C955.471 180.081 955.327 180.232 955.066 180.526C954.991 180.001 954.926 179.517 954.871 179.078C954.968 176.809 955.073 174.296 955.253 171.412C955.426 168.624 955.878 165.862 956.527 163.175C966.191 163.834 970.164 144.504 972.506 141.098C974.96 137.53 977.999 140.894 977.999 140.894C977.999 140.894 978.259 139.995 978.682 138.892C979.408 137.161 980.704 135.006 982.551 135.516C984.635 138.641 978.597 152.001 986.183 158.713C986.183 158.713 983.173 150.898 985.734 145.754C988.33 157.226 992.44 174.23 1001.8 174.299C1001.8 174.299 987.161 206.915 989.852 214.154C992.543 221.394 1009.66 236.663 1010.69 244.318C1011.73 251.971 1007.69 262.935 999.105 267.277C999.105 267.277 1017 260.658 1013.49 239.353C1009.97 218.048 986.895 232.32 1002 191.985L1002 191.988ZM931.394 184.673C932.761 181.708 934.881 178.649 937.553 175.261C937.572 175.615 937.599 175.954 937.646 176.269C939.197 187.032 937.085 195.936 933.29 206.491C930.448 200.438 928.011 192.013 931.395 184.673H931.394ZM977.999 140.897C977.999 140.897 978.018 140.733 978.068 140.473C978.045 140.614 978.021 140.751 977.999 140.897Z" fill="#4B0503"/>
<path d="M1001.61 167.489C998.84 171.159 997.629 176.685 997.629 176.685L997.788 182.424C997.788 182.424 1009.49 181.091 1011.02 172.147C1012.55 163.204 1004.84 163.202 1001.61 167.489H1001.61Z" fill="#FFB199"/>
<path d="M1000.08 179.02C1000.04 179.02 1000.01 179.015 999.972 179.005C999.787 178.949 999.683 178.753 999.739 178.568C1002.43 169.749 1008.74 168.54 1009.01 168.492C1009.2 168.457 1009.38 168.585 1009.42 168.775C1009.45 168.965 1009.32 169.146 1009.13 169.18C1009.07 169.191 1002.97 170.383 1000.41 178.771C1000.36 178.922 1000.22 179.018 1000.08 179.018V179.02Z" fill="#3F3F3F"/>
<path d="M1003.54 175.804C1003.44 175.804 1003.34 175.801 1003.24 175.796C1002.21 175.74 1001.4 175.417 1001.37 175.404C1001.19 175.332 1001.1 175.127 1001.17 174.949C1001.24 174.77 1001.45 174.684 1001.63 174.754C1001.66 174.766 1004.53 175.886 1005.95 174.032C1007.4 172.135 1006.5 170.007 1006.46 169.917C1006.38 169.74 1006.46 169.534 1006.64 169.457C1006.82 169.379 1007.02 169.46 1007.1 169.635C1007.15 169.74 1008.21 172.224 1006.51 174.457C1005.83 175.341 1004.81 175.804 1003.54 175.804Z" fill="#3F3F3F"/>
<path d="M956.525 165.953C954.207 161.112 946.65 159.586 946.374 168.654C946.097 177.722 956.782 182.327 956.782 182.327L958.602 175.754C958.602 175.754 958.511 170.098 956.525 165.952V165.953Z" fill="#FFB199"/>
<path d="M955.809 177.566C955.631 177.566 955.479 177.431 955.462 177.25C954.614 168.495 948.87 166.143 948.812 166.12C948.632 166.05 948.543 165.847 948.614 165.667C948.685 165.487 948.888 165.399 949.068 165.469C949.32 165.569 955.27 168.005 956.158 177.182C956.177 177.375 956.036 177.546 955.843 177.563C955.832 177.563 955.82 177.565 955.809 177.565V177.566Z" fill="#3F3F3F"/>
<path d="M954.186 173.836C953.913 173.836 953.602 173.82 953.274 173.772C951.881 173.568 950.866 172.891 950.342 171.814C949.113 169.288 950.649 167.064 950.715 166.971C950.826 166.813 951.045 166.776 951.202 166.887C951.36 166.998 951.399 167.217 951.286 167.375C951.23 167.453 949.925 169.362 950.971 171.508C951.992 173.606 955.034 173.077 955.064 173.071C955.254 173.037 955.436 173.163 955.471 173.352C955.507 173.542 955.381 173.724 955.192 173.759C955.167 173.764 954.762 173.836 954.186 173.836Z" fill="#3F3F3F"/>
<path d="M966.63 180.369C961.167 180.369 956.721 175.063 956.721 168.542C956.721 162.021 961.165 156.715 966.63 156.715C972.094 156.715 976.538 162.021 976.538 168.542C976.538 175.063 972.094 180.369 966.63 180.369ZM966.63 157.286C961.481 157.286 957.292 162.336 957.292 168.542C957.292 174.748 961.481 179.798 966.63 179.798C971.778 179.798 975.967 174.748 975.967 168.542C975.967 162.336 971.778 157.286 966.63 157.286Z" fill="white"/>
<path d="M989.556 181.038C984.093 181.038 979.647 175.732 979.647 169.211C979.647 162.689 984.092 157.384 989.556 157.384C995.02 157.384 999.464 162.689 999.464 169.211C999.464 175.732 995.02 181.038 989.556 181.038ZM989.556 157.954C984.407 157.954 980.218 163.005 980.218 169.211C980.218 175.417 984.407 180.467 989.556 180.467C994.704 180.467 998.893 175.417 998.893 169.211C998.893 163.005 994.704 157.954 989.556 157.954Z" fill="white"/>
<path d="M979.935 168.921L976.253 168.926L976.254 169.497L979.936 169.492L979.935 168.921Z" fill="white"/>
<path d="M892.016 288.881C891.966 288.881 891.915 288.87 891.868 288.844C889.148 287.436 883.991 286.849 879.441 286.331C873.652 285.672 870.082 285.195 869.696 283.72C869.529 283.082 869.976 282.391 871.062 281.608C873.88 279.574 878.312 280.095 884.234 283.158C888.587 285.408 892.183 288.277 892.219 288.306C892.349 288.41 892.378 288.595 892.288 288.735C892.227 288.83 892.122 288.881 892.016 288.881ZM875.178 281.05C873.78 281.05 872.502 281.368 871.442 282.132C870.633 282.715 870.235 283.222 870.324 283.556C870.617 284.675 875.344 285.214 879.515 285.688C883.073 286.093 886.999 286.54 889.904 287.397C886.724 285.159 880.2 281.05 875.18 281.05H875.178Z" fill="white"/>
<path d="M872.825 294.412C872.799 294.412 872.772 294.409 872.746 294.403C872.572 294.359 872.468 294.184 872.511 294.01C873.25 291.057 876.785 289.19 883.018 288.462C887.581 287.928 891.995 288.232 892.039 288.235C892.217 288.248 892.351 288.402 892.339 288.581C892.326 288.759 892.17 288.893 891.993 288.881C891.821 288.87 874.749 287.733 873.14 294.168C873.103 294.314 872.971 294.414 872.827 294.414L872.825 294.412Z" fill="white"/>
<path d="M1068.43 187.229C1068.29 187.229 1068.17 187.147 1068.12 187.014C1067.64 185.681 1065.92 184.113 1063.14 182.48C1061.01 181.227 1059 180.38 1058.98 180.372C1058.82 180.303 1058.74 180.113 1058.81 179.948C1058.88 179.784 1059.07 179.706 1059.24 179.774C1059.57 179.915 1067.47 183.266 1068.73 186.794C1068.79 186.962 1068.7 187.147 1068.53 187.207C1068.5 187.22 1068.46 187.226 1068.42 187.226L1068.43 187.229Z" fill="#5D1314"/>
<mask id="mask0_4505_50053" style="mask-type:luminance" maskUnits="userSpaceOnUse" x="795" y="-2" width="83" height="72">
<path d="M877.417 -2H795.132V69.2821H877.417V-2Z" fill="white"/>
</mask>
<g mask="url(#mask0_4505_50053)">
<path d="M869.735 54.6382H802.1L819.009 32.2527L831.254 16.0396V-15.5763C832.863 -14.8818 834.441 -14.155 835.987 -13.401C836.432 -13.1855 836.878 -12.9652 837.317 -12.7434C837.338 -12.7321 837.362 -12.7225 837.383 -12.7112C837.449 -12.6791 837.515 -12.6453 837.579 -12.6115C838.187 -12.3044 838.79 -11.9925 839.387 -11.6758V14.4607L852.825 32.2511L869.733 54.6366L869.735 54.6382Z" fill="#67A4C3"/>
<path d="M814.846 44.3965C818.385 39.5988 821.671 34.621 825.21 29.8233C825.658 29.2156 824.64 28.6303 824.196 29.2316C820.658 34.0293 817.371 39.0071 813.833 43.8048C813.384 44.4126 814.402 44.9978 814.846 44.3965Z" fill="white"/>
<path d="M827.42 26.3151C828.424 25.0562 829.427 23.7973 830.429 22.5384C830.896 21.9547 830.071 21.1187 829.599 21.7087L826.59 25.4855C826.123 26.0691 826.949 26.9052 827.42 26.3151Z" fill="white"/>
<path d="M869.735 54.6382L852.826 32.2527L839.389 14.4623V-11.6726C838.792 -11.9893 838.189 -12.3012 837.581 -12.6083C837.515 -12.6437 837.449 -12.6758 837.385 -12.708C837.364 -12.7192 837.34 -12.7289 837.319 -12.7402C836.878 -12.962 836.434 -13.1823 835.988 -13.3977V15.3595L847.684 31.7463C849.551 34.3622 849.566 37.8961 847.658 40.4831C845.342 43.6231 840.01 46.8339 828.279 48.125C828.279 48.125 851.107 47.5381 860.935 50.3132L863.421 53.7973L869.733 54.6366L869.735 54.6382Z" fill="#235E75"/>
<path d="M870.169 55.4727C870.169 56.1174 869.796 56.7444 869.095 57.3442C868.797 57.5966 868.44 57.8458 868.027 58.0902C863.182 60.9392 850.652 62.9715 835.955 62.9715C822.113 62.9715 810.194 61.1707 804.806 58.5806C803.049 57.7365 801.988 56.8104 801.777 55.8344C801.751 55.7154 801.739 55.5949 801.739 55.4727C801.739 52.4741 809.778 49.8871 821.391 48.6909C825.81 48.2327 830.748 47.9787 835.955 47.9787C840.476 47.9787 844.792 48.17 848.744 48.5189C861.305 49.6283 870.171 52.3246 870.171 55.4727H870.169Z" fill="white"/>
<path d="M870.169 55.4727C870.169 56.1174 869.796 56.7444 869.095 57.3442C862.106 54.0449 856.189 52.4387 834.631 50.9965C819.464 49.9804 808.431 53.0481 801.775 55.8344C801.75 55.7154 801.737 55.5949 801.737 55.4727C801.737 52.4741 809.776 49.8871 821.39 48.6909C825.808 48.2327 830.746 47.9787 835.953 47.9787C840.474 47.9787 844.79 48.17 848.742 48.5189C861.303 49.6283 870.169 52.3246 870.169 55.4727Z" fill="#C6C6C6"/>
<path d="M848.744 48.5173C848.493 50.7988 847.684 52.913 846.454 54.7186C845.937 55.4791 845.347 56.1865 844.691 56.8281C842.209 59.2575 838.81 60.7543 835.059 60.7543C828.03 60.7543 822.229 55.4888 821.393 48.6877C824.819 48.3324 828.557 48.1009 832.49 48.0141C833.629 47.9883 834.787 47.9755 835.956 47.9755C836.416 47.9755 836.873 47.9771 837.329 47.9819C841.351 48.0173 845.196 48.2022 848.746 48.5173H848.744Z" fill="#F99841"/>
<path d="M844.689 56.8294C842.207 59.2588 838.808 60.7557 835.057 60.7557C828.028 60.7557 822.228 55.4901 821.391 48.6891C824.817 48.3338 828.555 48.1023 832.488 48.0154C832.456 49.0605 832.306 61.4069 844.69 56.8294H844.689Z" fill="#FFAB66"/>
<path d="M823.489 49.691C823.78 51.9821 824.23 54.4855 826.424 55.7203C827.082 56.0917 827.674 55.0788 827.016 54.7074C825.226 53.6993 824.899 51.5496 824.663 49.6894C824.57 48.9514 823.395 48.9418 823.49 49.6894L823.489 49.691Z" fill="white"/>
<path d="M829.466 57.6963C830.058 58.497 830.95 58.9793 831.961 58.9311C832.712 58.8957 832.717 57.722 831.961 57.759C831.39 57.7863 830.828 57.5757 830.479 57.1046C830.289 56.8473 829.972 56.7252 829.676 56.894C829.424 57.0371 829.279 57.4422 829.466 57.6963Z" fill="white"/>
<path d="M848.744 48.5173C848.493 50.7988 847.684 52.913 846.453 54.7186C846.296 53.5931 845.858 52.0159 844.676 50.8856C843.233 49.5077 839.398 48.3501 837.327 47.9819C841.35 48.0173 845.194 48.2022 848.744 48.5173Z" fill="#D16C19"/>
</g>
<path d="M1183.88 384.171L741.493 380.543L741.379 394.41L1183.77 398.038L1183.88 384.171Z" fill="#FF9E73"/>
<path d="M1183.91 384.134L1215 350.298L1214.17 362.205L1183.8 397.974L1183.91 384.134Z" fill="#9B5129"/>
<path d="M1215 350.298L784.056 348.32L741.521 380.542L1183.91 384.134L1215 350.298Z" fill="#CC805E"/>
<path d="M1095.83 359.578L1084.62 366.194L1164.83 371.129L1174.54 365.487C1174.54 365.487 1105.9 353.954 1095.83 359.577L1095.83 359.578Z" fill="#B2694D"/>
<path d="M1100.42 344.756L1094.61 349.449L1174.13 353.681L1178.24 346.459L1100.42 344.756Z" fill="#489DA4"/>
<path d="M1094.49 349.441L1096.35 360.922L1174.31 365.699L1174.04 353.678L1094.49 349.441Z" fill="#2A8587"/>
<path d="M1178.24 346.459L1178.57 355.705L1174.31 365.699L1174.04 353.678L1178.24 346.459Z" fill="white"/>
<path d="M1099.12 332.98L1100.25 345.142L1174.43 349.127L1175.54 326.506L1099.12 332.98Z" fill="#FFC064"/>
<path d="M1175.26 329.372L1174.43 349.128L1181.14 341.334L1181.99 329.95L1175.26 329.372Z" fill="white"/>
<path d="M1074.1 317.113L1073.18 328.763L1130.3 338.315L1131.54 325.21L1074.1 317.113Z" fill="white"/>
<path d="M1131.54 325.21L1182.59 317.227L1181.99 329.95L1130.3 338.315L1131.54 325.21Z" fill="#D82540"/>
<path d="M1182.59 317.227L1140.17 312.592L1074.1 317.113L1131.54 325.21L1182.59 317.227Z" fill="#F63D4F"/>
<path d="M1130.3 338.696C1130.28 338.696 1130.26 338.694 1130.24 338.691L1073.12 329.139C1072.91 329.104 1072.77 328.908 1072.81 328.7C1072.84 328.493 1073.04 328.353 1073.25 328.388L1130.36 337.94C1130.57 337.976 1130.71 338.172 1130.68 338.379C1130.65 338.566 1130.48 338.698 1130.3 338.698L1130.3 338.696Z" fill="#C2423D"/>
<path d="M1128.43 335.424C1128.42 335.424 1128.41 335.424 1128.4 335.421L1074.53 326.404C1074.43 326.387 1074.36 326.289 1074.38 326.186C1074.39 326.083 1074.49 326.012 1074.59 326.03L1128.46 335.046C1128.56 335.064 1128.63 335.162 1128.62 335.265C1128.6 335.358 1128.52 335.424 1128.43 335.424H1128.43Z" fill="#C2423D"/>
<path d="M1128.84 332.474C1128.83 332.474 1128.82 332.474 1128.81 332.471L1074.94 323.454C1074.83 323.436 1074.77 323.338 1074.78 323.235C1074.8 323.132 1074.9 323.062 1075 323.079L1128.87 332.096C1128.97 332.114 1129.04 332.212 1129.02 332.315C1129.01 332.408 1128.93 332.474 1128.84 332.474H1128.84Z" fill="#C2423D"/>
<path d="M1129.23 328.874C1129.22 328.874 1129.21 328.874 1129.2 328.872L1075.2 320.746C1075.09 320.73 1075.02 320.634 1075.03 320.529C1075.05 320.425 1075.15 320.354 1075.25 320.369L1129.26 328.494C1129.36 328.511 1129.43 328.607 1129.42 328.712C1129.41 328.806 1129.32 328.874 1129.23 328.874Z" fill="#C2423D"/>
<path d="M1070.35 293.931L1069.4 303.625L1094.31 323.999L1095.18 312.076L1070.35 293.931Z" fill="white"/>
<path d="M1070.35 293.931L1095.18 312.076L1175.51 305.527L1152.31 290.486L1070.35 293.931Z" fill="#386E90"/>
<path d="M1175.51 305.529L1175.5 306.324L1175.27 317.91L1094.31 324.001L1094.32 323.795L1095.18 312.076L1175.51 305.529Z" fill="#255E7A"/>
<path d="M1094.31 324.19C1094.26 324.19 1094.22 324.176 1094.19 324.147L1094.08 324.062L1069.28 303.77C1069.19 303.704 1069.18 303.583 1069.25 303.501C1069.31 303.421 1069.44 303.408 1069.52 303.474L1094.43 323.851C1094.51 323.919 1094.52 324.038 1094.45 324.12C1094.42 324.165 1094.36 324.189 1094.31 324.189L1094.31 324.19Z" fill="#CE7024"/>
<path d="M1093.11 320.555C1093.07 320.555 1093.03 320.542 1092.99 320.515L1070.34 302.659C1070.26 302.593 1070.24 302.474 1070.31 302.392C1070.37 302.31 1070.49 302.295 1070.57 302.36L1093.23 320.216C1093.31 320.282 1093.32 320.401 1093.26 320.483C1093.22 320.531 1093.17 320.555 1093.11 320.555Z" fill="#CE7024"/>
<path d="M1093.73 317.814C1093.69 317.814 1093.64 317.801 1093.61 317.775L1071.09 300.565C1071.01 300.501 1070.99 300.382 1071.06 300.298C1071.12 300.215 1071.24 300.199 1071.33 300.263L1093.84 317.473C1093.92 317.537 1093.94 317.656 1093.88 317.74C1093.84 317.788 1093.78 317.814 1093.73 317.814Z" fill="#CE7024"/>
<path d="M1093.81 314.699C1093.77 314.699 1093.74 314.687 1093.7 314.663L1071.7 298.329C1071.62 298.266 1071.6 298.147 1071.66 298.062C1071.73 297.978 1071.85 297.959 1071.93 298.023L1093.93 314.357C1094.01 314.42 1094.03 314.539 1093.97 314.624C1093.93 314.674 1093.87 314.701 1093.81 314.701V314.699Z" fill="#CE7024"/>
<path d="M802.786 375.944C814.509 375.944 824.013 374.062 824.013 371.74C824.013 369.418 814.509 367.535 802.786 367.535C791.062 367.535 781.558 369.418 781.558 371.74C781.558 374.062 791.062 375.944 802.786 375.944Z" fill="#B2694D"/>
<path d="M788.397 338.143H816.916V361.389C816.916 367.749 811.751 372.912 805.388 372.912H799.926C793.562 372.912 788.397 367.749 788.397 361.389V338.143Z" fill="white"/>
<path d="M817.053 338.164C817.053 338.434 816.936 338.698 816.707 338.952L816.702 338.956C815.279 340.577 809.559 341.788 802.725 341.788C794.817 341.788 788.406 340.172 788.396 338.169V338.164C788.396 336.162 794.812 334.54 802.725 334.54C810.637 334.54 817.053 336.161 817.053 338.164Z" fill="#992E2E"/>
<path d="M800.128 354.203C800.128 360.019 795.631 364.733 790.082 364.733C784.532 364.733 780.035 360.019 780.035 354.203C780.035 348.388 784.532 343.674 790.082 343.674C795.631 343.674 800.128 348.388 800.128 354.203ZM789.879 346.561C785.871 346.561 782.621 349.967 782.621 354.168C782.621 358.369 785.871 361.775 789.879 361.775C793.887 361.775 797.137 358.369 797.137 354.168C797.137 349.967 793.887 346.561 789.879 346.561Z" fill="white"/>
<path d="M794.016 306.677C792.867 307.082 791.952 307.955 791.487 309.005C791.011 310.058 790.936 311.246 791.051 312.402C791.172 313.563 791.466 314.708 791.848 315.835C792.229 316.962 792.671 318.069 793.162 319.161C794.14 321.349 795.292 323.473 796.294 325.707C796.786 326.826 797.243 327.98 797.482 329.207C797.593 329.819 797.653 330.45 797.584 331.072C797.551 331.382 797.482 331.688 797.387 331.982C797.341 332.13 797.27 332.268 797.212 332.41C797.143 332.546 797.062 332.678 796.987 332.808C797.22 332.246 797.318 331.646 797.302 331.057C797.284 330.467 797.172 329.887 796.997 329.323C796.828 328.757 796.612 328.203 796.363 327.662C796.115 327.12 795.854 326.581 795.576 326.049L794.725 324.454L793.86 322.854C793.286 321.784 792.737 320.692 792.232 319.574C791.735 318.454 791.286 317.304 790.929 316.122C790.76 315.529 790.596 314.931 790.48 314.317C790.416 314.011 790.371 313.703 790.329 313.392C790.308 313.238 790.3 313.08 790.286 312.923C790.27 312.767 790.263 312.609 790.26 312.452C790.239 311.823 790.263 311.186 790.39 310.563C790.516 309.939 790.728 309.328 791.045 308.773C791.688 307.67 792.803 306.86 794.014 306.673L794.016 306.677Z" fill="#9B1D00"/>
<path d="M800.91 306.677C799.762 307.082 798.846 307.955 798.381 309.005C797.905 310.058 797.83 311.246 797.946 312.402C798.066 313.563 798.361 314.708 798.742 315.835C799.123 316.962 799.565 318.069 800.056 319.161C801.034 321.349 802.186 323.473 803.188 325.707C803.68 326.826 804.137 327.98 804.376 329.207C804.487 329.819 804.547 330.45 804.478 331.072C804.445 331.382 804.376 331.688 804.281 331.982C804.235 332.13 804.164 332.268 804.106 332.41C804.037 332.546 803.957 332.678 803.881 332.808C804.114 332.246 804.212 331.646 804.196 331.057C804.178 330.467 804.066 329.887 803.891 329.323C803.722 328.757 803.506 328.203 803.257 327.662C803.009 327.12 802.749 326.581 802.47 326.049L801.619 324.454L800.754 322.854C800.18 321.784 799.631 320.692 799.126 319.574C798.629 318.454 798.18 317.304 797.823 316.122C797.654 315.529 797.49 314.931 797.375 314.317C797.31 314.011 797.265 313.703 797.223 313.392C797.202 313.238 797.194 313.08 797.18 312.923C797.164 312.767 797.157 312.609 797.154 312.452C797.133 311.823 797.157 311.186 797.284 310.563C797.41 309.939 797.622 309.328 797.939 308.773C798.582 307.67 799.697 306.86 800.908 306.673L800.91 306.677Z" fill="#9B1D00"/>
<path d="M807.564 306.677C806.416 307.082 805.501 307.955 805.036 309.005C804.56 310.058 804.484 311.246 804.6 312.402C804.72 313.563 805.015 314.708 805.396 315.835C805.777 316.962 806.22 318.069 806.71 319.161C807.688 321.349 808.84 323.473 809.842 325.707C810.334 326.826 810.791 327.98 811.031 329.207C811.142 329.819 811.201 330.45 811.132 331.072C811.1 331.382 811.031 331.688 810.936 331.982C810.889 332.13 810.818 332.268 810.76 332.41C810.691 332.546 810.611 332.678 810.535 332.808C810.768 332.246 810.867 331.646 810.85 331.057C810.833 330.467 810.72 329.887 810.545 329.323C810.376 328.757 810.16 328.203 809.911 327.662C809.663 327.12 809.403 326.581 809.125 326.049L808.274 324.454L807.408 322.854C806.834 321.784 806.286 320.692 805.78 319.574C805.283 318.454 804.835 317.304 804.478 316.122C804.309 315.529 804.145 314.931 804.029 314.317C803.964 314.011 803.919 313.703 803.878 313.392C803.857 313.238 803.849 313.08 803.834 312.923C803.818 312.767 803.812 312.609 803.808 312.452C803.788 311.823 803.812 311.186 803.939 310.563C804.064 309.939 804.277 309.328 804.593 308.773C805.237 307.67 806.351 306.86 807.563 306.673L807.564 306.677Z" fill="#9B1D00"/>
<path d="M817.053 338.164C817.053 338.164 816.942 338.469 816.707 338.952L816.702 338.956C815.279 340.577 809.559 341.788 802.725 341.788C794.817 341.788 788.406 340.172 788.396 338.169V338.164C788.396 338.164 797.085 336.649 800.193 337.289C803.299 337.924 804.118 338.291 806.035 337.833C807.957 337.381 815.371 337.308 817.053 338.162V338.164Z" fill="#5B0F0F"/>
<path d="M788.396 338.164C788.396 338.164 788.188 363.578 788.57 364.722C788.951 365.863 792.083 375.082 806.345 373.028C806.345 373.028 789.678 373.41 788.396 338.164Z" fill="#DDDDDD"/>
<path d="M825.696 377.102L882.498 377.729L884.586 373.971L915.703 375.015L923.111 363.136L826.337 374.365L825.696 377.102Z" fill="#B2694D"/>
<path d="M840.782 361.21L826.337 374.365L880.583 375.007L893.742 360.569L840.782 361.21Z" fill="white"/>
<path d="M880.687 375.248H880.579L825.725 374.598L840.687 360.972L894.294 360.323L880.687 375.25V375.248ZM826.952 374.132L880.478 374.766L893.192 360.818L840.877 361.451L826.952 374.132Z" fill="#231F20"/>
<path d="M889.249 362.493L878.657 372.439H915.247L923.111 363.136L889.249 362.493Z" fill="white"/>
<path d="M915.36 372.68H878.049L889.156 362.25H889.254L923.623 362.903L915.36 372.679V372.68ZM879.265 372.2H915.136L922.601 363.366L889.342 362.736L879.265 372.2Z" fill="#231F20"/>
<path d="M874.465 370.966H836.146C836.013 370.966 835.905 370.859 835.905 370.725C835.905 370.592 836.013 370.484 836.146 370.484H874.465C874.599 370.484 874.707 370.592 874.707 370.725C874.707 370.859 874.599 370.966 874.465 370.966Z" fill="#231F20"/>
<path d="M876.368 366.349H839.952C839.818 366.349 839.71 366.241 839.71 366.108C839.71 365.974 839.818 365.866 839.952 365.866H876.368C876.502 365.866 876.61 365.974 876.61 366.108C876.61 366.241 876.502 366.349 876.368 366.349Z" fill="#231F20"/>
<path d="M916.045 366.077C916.045 366.077 916.04 366.077 916.039 366.077L890.636 365.341C890.502 365.337 890.398 365.226 890.403 365.093C890.406 364.96 890.513 364.853 890.65 364.86L916.053 365.596C916.187 365.599 916.291 365.71 916.287 365.844C916.283 365.974 916.176 366.077 916.047 366.077H916.045Z" fill="#231F20"/>
<path d="M913.748 369.625C913.748 369.625 913.744 369.625 913.742 369.625L888.339 368.889C888.205 368.886 888.101 368.775 888.106 368.641C888.109 368.508 888.217 368.397 888.353 368.408L913.756 369.145C913.89 369.148 913.995 369.259 913.99 369.392C913.986 369.523 913.879 369.625 913.75 369.625H913.748Z" fill="#231F20"/>
<path d="M909.375 352.788L944.477 378.454L1071.07 364.825L1058.55 356.218L909.375 352.788Z" fill="#B2694D"/>
<path d="M941.421 372.187L909.375 352.788L1061.52 349.96L941.421 372.187Z" fill="#428099"/>
<path d="M945.437 372.79L949.188 372.447L963.128 371.177L970.66 370.49L971.741 370.396L1012.23 366.712L1032.92 364.829L1056.8 362.656C1060.31 362.342 1063.11 359.588 1063.5 356.081L1066.13 331.974L1068.4 311.135L1070.54 291.552C1071.03 287.02 1067.34 283.114 1062.78 283.354L1058.52 283.579L1038.69 284.609L997.957 286.743H997.949L978.117 287.774L949.705 289.261C945.986 289.457 942.992 292.372 942.703 296.088L940.462 325.023L938.9 345.164L937.379 364.836C937.031 369.415 940.876 373.206 945.437 372.79Z" fill="#67A4C3"/>
<path d="M1014.84 335.242C1020.34 329.745 1020.34 320.832 1014.84 315.335C1009.34 309.838 1000.43 309.838 994.926 315.335C989.426 320.832 989.426 329.745 994.926 335.242C1000.43 340.739 1009.34 340.739 1014.84 335.242Z" fill="white"/>
<path d="M1004.86 344.428C1004.83 344.428 1004.79 344.428 1004.76 344.428C999.504 344.401 994.576 342.33 990.881 338.598C987.186 334.866 985.166 329.919 985.193 324.668C985.22 319.417 987.292 314.491 991.026 310.797C994.735 307.128 999.644 305.112 1004.86 305.112C1004.89 305.112 1004.93 305.112 1004.96 305.112C1010.22 305.139 1015.14 307.21 1018.84 310.942C1022.53 314.674 1024.55 319.621 1024.53 324.872C1024.47 335.677 1015.66 344.428 1004.86 344.428H1004.86ZM1004.86 305.882C999.848 305.882 995.132 307.82 991.568 311.346C987.981 314.894 985.991 319.627 985.964 324.673C985.938 329.718 987.878 334.471 991.428 338.056C994.978 341.642 999.713 343.632 1004.76 343.658C1004.79 343.658 1004.82 343.658 1004.86 343.658C1015.23 343.658 1023.7 335.25 1023.75 324.869C1023.78 319.824 1021.84 315.071 1018.29 311.486C1014.74 307.9 1010 305.91 1004.96 305.884C1004.92 305.884 1004.89 305.884 1004.85 305.884L1004.86 305.882Z" fill="white"/>
<g opacity="0.25">
<path d="M1012.23 366.712L1032.92 364.831L1066.13 331.975L1068.4 311.137L1012.23 366.712Z" fill="white"/>
</g>
<g opacity="0.25">
<path d="M949.188 372.446L963.128 371.177L970.66 370.49L971.741 370.397L998.991 343.132L1002.89 339.228L1018.82 323.295L1023.22 318.891L1058.52 283.579L1036.88 284.716L1013.87 307.73L1009.58 312.026L1006.21 315.402L991.614 330.007L987.823 333.797L985.885 335.739L981.828 339.797L949.188 372.446Z" fill="white"/>
</g>
<g opacity="0.25">
<path d="M938.9 345.164L997.95 286.743L978.117 287.774L940.462 325.023L938.9 345.164Z" fill="white"/>
</g>
<path d="M1062.76 282.973L952.475 288.75L952.515 289.521L1062.8 283.743L1062.76 282.973Z" fill="#27647C"/>
<path d="M939.713 339.418L938.944 339.358L942.322 296.036L942.325 296.015C943.654 288.947 949.632 288.873 949.706 288.873V289.645C949.484 289.645 944.302 289.725 943.087 296.137L939.713 339.418Z" fill="#27647C"/>
<path d="M1070.16 291.519L1063.13 356.049L1063.9 356.133L1070.93 291.603L1070.16 291.519Z" fill="#27647C"/>
</g>
<g filter="url(#filter20_f_4505_50053)">
<path d="M1254.9 179.292C1271.85 270.337 1402.55 259.453 1465.78 242.63C1479.05 239.561 1504.4 229.436 1499.59 213.484C1493.57 193.543 1575.11 171.076 1633.27 139.092C1691.43 107.109 1569.18 36.7297 1533.88 9.79263C1498.57 -17.1445 1495.69 -44.5988 1342.36 -61.6947C1189.02 -78.7906 1197.57 10.3546 1210.36 23.7124C1223.15 37.0701 1233.71 65.4849 1254.9 179.292Z" fill="white"/>
</g>
<g filter="url(#filter21_f_4505_50053)">
<path d="M1196.92 206.292C1213.87 297.337 1344.56 286.453 1407.79 269.63C1421.07 266.561 1446.42 256.436 1441.6 240.484C1435.59 220.543 1517.12 198.076 1575.28 166.092C1633.44 134.109 1511.19 63.7297 1475.89 36.7926C1440.59 9.85554 1437.71 -17.5988 1284.37 -34.6947C1131.03 -51.7906 1139.58 37.3546 1152.37 50.7124C1165.16 64.0701 1175.73 92.4849 1196.92 206.292Z" fill="white"/>
</g>
<g filter="url(#filter22_f_4505_50053)">
<path d="M1212.92 318.292C1229.87 409.337 1360.56 398.453 1423.79 381.63C1437.07 378.561 1462.42 368.436 1457.6 352.484C1451.59 332.543 1533.12 310.076 1591.28 278.092C1649.44 246.109 1527.19 175.73 1491.89 148.793C1456.59 121.856 1453.71 94.4012 1300.37 77.3053C1147.03 60.2094 1155.58 149.355 1168.37 162.712C1181.16 176.07 1191.73 204.485 1212.92 318.292Z" fill="white"/>
</g>
<path d="M135.642 144.242L140.076 146.402C141.523 147.106 143.104 147.597 144.794 147.834C154.485 149.196 164.099 141.724 166.264 131.143C168.053 122.405 164.205 114.287 157.358 110.953L152.923 108.793C159.77 112.127 163.618 120.245 161.829 128.983C159.664 139.565 150.05 147.037 140.359 145.675C138.669 145.437 137.088 144.946 135.642 144.242Z" fill="#22363F"/>
<path d="M147.078 148.301C146.305 148.301 145.529 148.248 144.751 148.138C143.064 147.901 141.446 147.41 139.942 146.678L135.517 144.523C135.514 144.521 135.51 144.52 135.508 144.518C135.355 144.444 135.292 144.26 135.366 144.108C135.44 143.956 135.623 143.891 135.776 143.966L135.779 143.967C137.222 144.67 138.778 145.142 140.402 145.37C149.923 146.714 159.399 139.33 161.529 128.922C163.238 120.571 159.644 112.407 152.789 109.069C152.636 108.995 152.573 108.811 152.648 108.659C152.721 108.507 152.905 108.442 153.058 108.517C153.058 108.517 153.058 108.517 153.059 108.518L157.493 110.677C164.6 114.138 168.331 122.579 166.566 131.205C164.545 141.077 156.084 148.301 147.078 148.301ZM139.712 145.882L140.211 146.125C141.657 146.829 143.213 147.302 144.837 147.529C154.356 148.872 163.834 141.489 165.964 131.081C167.672 122.73 164.078 114.567 157.223 111.229L156.709 110.978C161.378 115.172 163.562 122.048 162.13 129.045C159.936 139.764 150.151 147.361 140.316 145.979C140.114 145.95 139.912 145.918 139.712 145.882Z" fill="#22363F"/>
<path d="M148.2 107.359C138.513 105.997 128.904 113.466 126.738 124.051C124.572 134.633 130.672 144.313 140.359 145.675C150.05 147.037 159.664 139.565 161.83 128.983C163.996 118.397 157.891 108.721 148.2 107.359Z" fill="white"/>
<path d="M142.643 146.141C141.87 146.141 141.094 146.088 140.316 145.979C135.87 145.354 131.975 142.961 129.349 139.241C126.377 135.03 125.315 129.471 126.437 123.99C128.631 113.27 138.417 105.68 148.243 107.054C152.694 107.68 156.592 110.074 159.219 113.796C162.191 118.006 163.252 123.564 162.131 129.045C160.11 138.917 151.65 146.141 142.643 146.141ZM145.914 107.506C137.196 107.506 129.001 114.524 127.039 124.113C125.951 129.429 126.976 134.814 129.851 138.887C132.378 142.467 136.125 144.77 140.402 145.37C141.151 145.476 141.902 145.527 142.647 145.527C151.369 145.528 159.567 138.51 161.529 128.922C162.617 123.607 161.592 118.223 158.717 114.15C156.189 110.569 152.438 108.265 148.157 107.663C147.408 107.557 146.659 107.506 145.914 107.506Z" fill="#22363F"/>
<path d="M137.103 126.748L133.593 132.189C132.944 133.196 133.536 134.459 134.595 134.326L140.319 133.61C140.739 133.557 141.132 133.736 141.368 134.088L144.581 138.879C145.176 139.765 146.517 139.384 146.851 138.234L148.657 132.015C148.789 131.559 149.109 131.177 149.513 130.995L155.011 128.514C156.028 128.055 156.265 126.557 155.413 125.978L150.805 122.848C150.466 122.618 150.272 122.203 150.286 121.739L150.469 115.414C150.502 114.244 149.308 113.7 148.447 114.492L143.793 118.779C143.451 119.094 143.011 119.219 142.615 119.114L137.23 117.688C136.234 117.424 135.259 118.586 135.579 119.655L137.312 125.432C137.439 125.856 137.361 126.349 137.103 126.748Z" fill="url(#paint5_linear_4505_50053)"/>
<path d="M141.082 103.518C140.937 103.518 140.809 103.416 140.781 103.269L139.835 98.3657C139.803 98.1993 139.912 98.0381 140.079 98.0063C140.246 97.9718 140.406 98.0825 140.438 98.2497L141.383 103.153C141.416 103.32 141.307 103.481 141.14 103.513C141.121 103.517 141.101 103.518 141.082 103.518Z" fill="#22363F"/>
<path d="M136.256 105.84C136.197 105.84 136.137 105.823 136.085 105.787L131.949 102.989C131.808 102.893 131.772 102.703 131.867 102.562C131.961 102.422 132.153 102.385 132.293 102.48L136.429 105.279C136.569 105.374 136.606 105.564 136.511 105.705C136.451 105.793 136.355 105.84 136.256 105.84Z" fill="#22363F"/>
<path d="M146.424 103.883C146.365 103.883 146.305 103.866 146.252 103.83C146.112 103.735 146.075 103.544 146.17 103.404L148.969 99.2678C149.063 99.1274 149.254 99.0903 149.395 99.1855C149.536 99.2807 149.572 99.4713 149.477 99.6117L146.679 103.748C146.619 103.835 146.522 103.883 146.424 103.883Z" fill="#22363F"/>
</g>
<defs>
<filter id="filter0_f_4505_50053" x="-291.981" y="116.223" width="989.962" height="924.962" filterUnits="userSpaceOnUse" color-interpolation-filters="sRGB">
<feFlood flood-opacity="0" result="BackgroundImageFix"/>
<feBlend mode="normal" in="SourceGraphic" in2="BackgroundImageFix" result="shape"/>
<feGaussianBlur stdDeviation="109.49" result="effect1_foregroundBlur_4505_50053"/>
</filter>
<filter id="filter1_f_4505_50053" x="254.348" y="308.606" width="851.379" height="835.143" filterUnits="userSpaceOnUse" color-interpolation-filters="sRGB">
<feFlood flood-opacity="0" result="BackgroundImageFix"/>
<feBlend mode="normal" in="SourceGraphic" in2="BackgroundImageFix" result="shape"/>
<feGaussianBlur stdDeviation="109.49" result="effect1_foregroundBlur_4505_50053"/>
</filter>
<filter id="filter2_f_4505_50053" x="-191.753" y="-284.113" width="851.379" height="835.143" filterUnits="userSpaceOnUse" color-interpolation-filters="sRGB">
<feFlood flood-opacity="0" result="BackgroundImageFix"/>
<feBlend mode="normal" in="SourceGraphic" in2="BackgroundImageFix" result="shape"/>
<feGaussianBlur stdDeviation="109.49" result="effect1_foregroundBlur_4505_50053"/>
</filter>
<filter id="filter3_f_4505_50053" x="150.423" y="-517.466" width="831.435" height="858.825" filterUnits="userSpaceOnUse" color-interpolation-filters="sRGB">
<feFlood flood-opacity="0" result="BackgroundImageFix"/>
<feBlend mode="normal" in="SourceGraphic" in2="BackgroundImageFix" result="shape"/>
<feGaussianBlur stdDeviation="109.49" result="effect1_foregroundBlur_4505_50053"/>
</filter>
<filter id="filter4_f_4505_50053" x="0.0192108" y="-149.981" width="917.962" height="861.962" filterUnits="userSpaceOnUse" color-interpolation-filters="sRGB">
<feFlood flood-opacity="0" result="BackgroundImageFix"/>
<feBlend mode="normal" in="SourceGraphic" in2="BackgroundImageFix" result="shape"/>
<feGaussianBlur stdDeviation="109.49" result="effect1_foregroundBlur_4505_50053"/>
</filter>
<filter id="filter5_f_4505_50053" x="-320.981" y="-46.9691" width="752.957" height="715.899" filterUnits="userSpaceOnUse" color-interpolation-filters="sRGB">
<feFlood flood-opacity="0" result="BackgroundImageFix"/>
<feBlend mode="normal" in="SourceGraphic" in2="BackgroundImageFix" result="shape"/>
<feGaussianBlur stdDeviation="109.49" result="effect1_foregroundBlur_4505_50053"/>
</filter>
<filter id="filter6_f_4505_50053" x="-327.981" y="116.224" width="988.962" height="924.962" filterUnits="userSpaceOnUse" color-interpolation-filters="sRGB">
<feFlood flood-opacity="0" result="BackgroundImageFix"/>
<feBlend mode="normal" in="SourceGraphic" in2="BackgroundImageFix" result="shape"/>
<feGaussianBlur stdDeviation="109.49" result="effect1_foregroundBlur_4505_50053"/>
</filter>
<filter id="filter7_f_4505_50053" x="228.348" y="296.605" width="851.379" height="835.143" filterUnits="userSpaceOnUse" color-interpolation-filters="sRGB">
<feFlood flood-opacity="0" result="BackgroundImageFix"/>
<feBlend mode="normal" in="SourceGraphic" in2="BackgroundImageFix" result="shape"/>
<feGaussianBlur stdDeviation="109.49" result="effect1_foregroundBlur_4505_50053"/>
</filter>
<filter id="filter8_f_4505_50053" x="-219.753" y="-283.916" width="851.379" height="835.143" filterUnits="userSpaceOnUse" color-interpolation-filters="sRGB">
<feFlood flood-opacity="0" result="BackgroundImageFix"/>
<feBlend mode="normal" in="SourceGraphic" in2="BackgroundImageFix" result="shape"/>
<feGaussianBlur stdDeviation="109.49" result="effect1_foregroundBlur_4505_50053"/>
</filter>
<filter id="filter9_f_4505_50053" x="122.423" y="-517.269" width="831.435" height="858.825" filterUnits="userSpaceOnUse" color-interpolation-filters="sRGB">
<feFlood flood-opacity="0" result="BackgroundImageFix"/>
<feBlend mode="normal" in="SourceGraphic" in2="BackgroundImageFix" result="shape"/>
<feGaussianBlur stdDeviation="109.49" result="effect1_foregroundBlur_4505_50053"/>
</filter>
<filter id="filter10_f_4505_50053" x="238.019" y="88.0192" width="917.962" height="861.962" filterUnits="userSpaceOnUse" color-interpolation-filters="sRGB">
<feFlood flood-opacity="0" result="BackgroundImageFix"/>
<feBlend mode="normal" in="SourceGraphic" in2="BackgroundImageFix" result="shape"/>
<feGaussianBlur stdDeviation="109.49" result="effect1_foregroundBlur_4505_50053"/>
</filter>
<filter id="filter11_f_4505_50053" x="240.019" y="-89.9808" width="917.962" height="861.962" filterUnits="userSpaceOnUse" color-interpolation-filters="sRGB">
<feFlood flood-opacity="0" result="BackgroundImageFix"/>
<feBlend mode="normal" in="SourceGraphic" in2="BackgroundImageFix" result="shape"/>
<feGaussianBlur stdDeviation="109.49" result="effect1_foregroundBlur_4505_50053"/>
</filter>
<filter id="filter12_f_4505_50053" x="-348.981" y="-46.7716" width="752.957" height="715.899" filterUnits="userSpaceOnUse" color-interpolation-filters="sRGB">
<feFlood flood-opacity="0" result="BackgroundImageFix"/>
<feBlend mode="normal" in="SourceGraphic" in2="BackgroundImageFix" result="shape"/>
<feGaussianBlur stdDeviation="109.49" result="effect1_foregroundBlur_4505_50053"/>
</filter>
<filter id="filter13_f_4505_50053" x="-175" y="-272.573" width="1437" height="1147.65" filterUnits="userSpaceOnUse" color-interpolation-filters="sRGB">
<feFlood flood-opacity="0" result="BackgroundImageFix"/>
<feBlend mode="normal" in="SourceGraphic" in2="BackgroundImageFix" result="shape"/>
<feGaussianBlur stdDeviation="40" result="effect1_foregroundBlur_4505_50053"/>
</filter>
<filter id="filter14_f_4505_50053" x="-313.981" y="102.223" width="1030.96" height="827.962" filterUnits="userSpaceOnUse" color-interpolation-filters="sRGB">
<feFlood flood-opacity="0" result="BackgroundImageFix"/>
<feBlend mode="normal" in="SourceGraphic" in2="BackgroundImageFix" result="shape"/>
<feGaussianBlur stdDeviation="109.49" result="effect1_foregroundBlur_4505_50053"/>
</filter>
<filter id="filter15_f_4505_50053" x="264.279" y="258.222" width="882.666" height="755.837" filterUnits="userSpaceOnUse" color-interpolation-filters="sRGB">
<feFlood flood-opacity="0" result="BackgroundImageFix"/>
<feBlend mode="normal" in="SourceGraphic" in2="BackgroundImageFix" result="shape"/>
<feGaussianBlur stdDeviation="109.49" result="effect1_foregroundBlur_4505_50053"/>
</filter>
<filter id="filter16_f_4505_50053" x="-206.971" y="-224.794" width="882.667" height="755.837" filterUnits="userSpaceOnUse" color-interpolation-filters="sRGB">
<feFlood flood-opacity="0" result="BackgroundImageFix"/>
<feBlend mode="normal" in="SourceGraphic" in2="BackgroundImageFix" result="shape"/>
<feGaussianBlur stdDeviation="109.49" result="effect1_foregroundBlur_4505_50053"/>
</filter>
<filter id="filter17_f_4505_50053" x="161.093" y="-411.554" width="861.213" height="774.791" filterUnits="userSpaceOnUse" color-interpolation-filters="sRGB">
<feFlood flood-opacity="0" result="BackgroundImageFix"/>
<feBlend mode="normal" in="SourceGraphic" in2="BackgroundImageFix" result="shape"/>
<feGaussianBlur stdDeviation="109.49" result="effect1_foregroundBlur_4505_50053"/>
</filter>
<filter id="filter18_f_4505_50053" x="584.019" y="-190.981" width="816.962" height="687.962" filterUnits="userSpaceOnUse" color-interpolation-filters="sRGB">
<feFlood flood-opacity="0" result="BackgroundImageFix"/>
<feBlend mode="normal" in="SourceGraphic" in2="BackgroundImageFix" result="shape"/>
<feGaussianBlur stdDeviation="109.49" result="effect1_foregroundBlur_4505_50053"/>
</filter>
<filter id="filter19_f_4505_50053" x="878.019" y="-107.981" width="1030.96" height="827.962" filterUnits="userSpaceOnUse" color-interpolation-filters="sRGB">
<feFlood flood-opacity="0" result="BackgroundImageFix"/>
<feBlend mode="normal" in="SourceGraphic" in2="BackgroundImageFix" result="shape"/>
<feGaussianBlur stdDeviation="109.49" result="effect1_foregroundBlur_4505_50053"/>
</filter>
<filter id="filter20_f_4505_50053" x="985.029" y="-282.845" width="882.666" height="755.837" filterUnits="userSpaceOnUse" color-interpolation-filters="sRGB">
<feFlood flood-opacity="0" result="BackgroundImageFix"/>
<feBlend mode="normal" in="SourceGraphic" in2="BackgroundImageFix" result="shape"/>
<feGaussianBlur stdDeviation="109.49" result="effect1_foregroundBlur_4505_50053"/>
</filter>
<filter id="filter21_f_4505_50053" x="927.045" y="-255.845" width="882.666" height="755.837" filterUnits="userSpaceOnUse" color-interpolation-filters="sRGB">
<feFlood flood-opacity="0" result="BackgroundImageFix"/>
<feBlend mode="normal" in="SourceGraphic" in2="BackgroundImageFix" result="shape"/>
<feGaussianBlur stdDeviation="109.49" result="effect1_foregroundBlur_4505_50053"/>
</filter>
<filter id="filter22_f_4505_50053" x="943.045" y="-143.845" width="882.666" height="755.837" filterUnits="userSpaceOnUse" color-interpolation-filters="sRGB">
<feFlood flood-opacity="0" result="BackgroundImageFix"/>
<feBlend mode="normal" in="SourceGraphic" in2="BackgroundImageFix" result="shape"/>
<feGaussianBlur stdDeviation="109.49" result="effect1_foregroundBlur_4505_50053"/>
</filter>
<linearGradient id="paint0_linear_4505_50053" x1="877.374" y1="104.924" x2="897.136" y2="136.07" gradientUnits="userSpaceOnUse">
<stop stop-color="#FFD700"/>
<stop offset="1" stop-color="#E68D35"/>
</linearGradient>
<linearGradient id="paint1_linear_4505_50053" x1="934.097" y1="63.602" x2="953.858" y2="94.7481" gradientUnits="userSpaceOnUse">
<stop stop-color="#FFD700"/>
<stop offset="1" stop-color="#E68D35"/>
</linearGradient>
<linearGradient id="paint2_linear_4505_50053" x1="995.335" y1="50" x2="1015.1" y2="81.1461" gradientUnits="userSpaceOnUse">
<stop stop-color="#FFD700"/>
<stop offset="1" stop-color="#E68D35"/>
</linearGradient>
<linearGradient id="paint3_linear_4505_50053" x1="1061.67" y1="69.2197" x2="1081.43" y2="100.365" gradientUnits="userSpaceOnUse">
<stop stop-color="#FFD700"/>
<stop offset="1" stop-color="#E68D35"/>
</linearGradient>
<linearGradient id="paint4_linear_4505_50053" x1="1107.96" y1="103.003" x2="1127.73" y2="134.148" gradientUnits="userSpaceOnUse">
<stop stop-color="#FFD700"/>
<stop offset="1" stop-color="#E68D35"/>
</linearGradient>
<linearGradient id="paint5_linear_4505_50053" x1="144.628" y1="114.119" x2="158.975" y2="133.368" gradientUnits="userSpaceOnUse">
<stop stop-color="#FFD700"/>
<stop offset="1" stop-color="#E68D35"/>
</linearGradient>
<clipPath id="clip0_4505_50053">
<rect width="1440" height="384" fill="white"/>
</clipPath>
<clipPath id="clip1_4505_50053">
<rect width="480" height="401" fill="white" transform="translate(735 -3)"/>
</clipPath>
</defs>
</svg>
