<svg width="342" height="146" viewBox="0 0 342 146" fill="none" xmlns="http://www.w3.org/2000/svg">
<g clip-path="url(#clip0_2259_32194)">
<rect width="342" height="146" rx="10" fill="url(#paint0_linear_2259_32194)" fill-opacity="0.1"/>
<g opacity="0.4" filter="url(#filter0_f_2259_32194)">
<path d="M362.733 -119.382C239.077 -159.826 192.578 -29.4013 184.786 40.8666C182.56 55.3336 183.737 85.6031 206.254 90.9447C234.402 97.6217 225.337 188.716 239.172 263.594C253.007 338.472 398.991 266.456 449.56 249.763C500.13 233.07 536.387 247.378 628.938 112.884C721.49 -21.6112 604.131 -68.8274 581.231 -65.0119C558.332 -61.1965 517.304 -68.8276 362.733 -119.382Z" fill="#EEB50F"/>
</g>
<path d="M322 120.673H275.601V127.009H322V120.673Z" fill="#FCBD2C"/>
<path d="M292.87 120.672H275.601V127.009H292.87V120.672Z" fill="#EAA315"/>
<path d="M319.049 120.673H310.871V127.009H319.049V120.673Z" fill="#FEEF88"/>
<path d="M309.95 120.673H308.103V127.009H309.95V120.673Z" fill="#FEEF88"/>
<path d="M318.66 127.01H272.26V133.346H318.66V127.01Z" fill="#FCBD2C"/>
<path d="M289.53 127.009H272.26V133.345H289.53V127.009Z" fill="#EAA315"/>
<path d="M315.709 127.009H307.531V133.345H315.709V127.009Z" fill="#FEEF88"/>
<path d="M306.61 127.009H304.762V133.345H306.61V127.009Z" fill="#FEEF88"/>
<path d="M322 133.346H275.601V139.682H322V133.346Z" fill="#FCBD2C"/>
<path d="M292.87 133.345H275.601V139.682H292.87V133.345Z" fill="#EAA315"/>
<path d="M319.049 133.346H310.871V139.682H319.049V133.346Z" fill="#FEEF88"/>
<path d="M309.95 133.346H308.103V139.682H309.95V133.346Z" fill="#FEEF88"/>
<path d="M322 126.609H275.601V127.009H322V126.609Z" fill="#EAA315"/>
<path d="M318.66 132.946H272.26V133.345H318.66V132.946Z" fill="#EAA315"/>
<path d="M322 139.282H275.601V139.682H322V139.282Z" fill="#EAA315"/>
<path d="M313.399 108.001H267V114.337H313.399V108.001Z" fill="#FCBD2C"/>
<path d="M284.269 108H267V114.336H284.269V108Z" fill="#EAA315"/>
<path d="M310.448 108H302.27V114.336H310.448V108Z" fill="#FEEF88"/>
<path d="M301.349 108H299.502V114.336H301.349V108Z" fill="#FEEF88"/>
<path d="M316.739 114.337H270.34V120.673H316.739V114.337Z" fill="#FCBD2C"/>
<path d="M287.609 114.336H270.34V120.673H287.609V114.336Z" fill="#EAA315"/>
<path d="M313.788 114.337H305.61V120.673H313.788V114.337Z" fill="#FEEF88"/>
<path d="M304.689 114.337H302.842V120.673H304.689V114.337Z" fill="#FEEF88"/>
<path d="M313.399 113.937H267V114.337H313.399V113.937Z" fill="#EAA315"/>
<path d="M316.739 120.273H270.34V120.673H316.739V120.273Z" fill="#EAA315"/>
<g clip-path="url(#clip1_2259_32194)">
<path d="M253.092 58.1712L251.56 59.6244C251.56 59.6244 245 82.161 245.149 87.1405C245.957 92.4722 249.879 88.1126 251.952 85.7766C253.638 83.5101 259.062 65.3776 259.062 65.3776L253.092 58.1663V58.1712Z" fill="#E6B88F"/>
<path opacity="0.6" d="M247.4 75.0688C247.4 75.0688 251.461 76.145 254.942 74.5381L248.169 72.0334L247.405 75.0688H247.4Z" fill="#CFA28C"/>
<path d="M255.72 45.6928C255.72 45.6928 269.485 43.5899 280.676 45.6928L278.301 36.7257L257.074 37.6829L255.715 45.6928H255.72Z" fill="#434244"/>
<path d="M275.147 44.6414L275.077 52.8992C275.077 52.8992 274.79 57.6109 268.959 57.6109C263.128 57.6109 263.207 53.2613 263.207 53.2613L263.143 49.363L263.078 45.3854L263.063 44.4728L263.296 44.5075L268.964 45.4052L274.859 44.4728L275.152 44.6315L275.147 44.6414Z" fill="#E6B88F"/>
<path opacity="0.6" d="M275.147 45.7622C272.638 49.3678 269.713 52.0709 263.128 48.862L263.073 45.3952L263.291 44.5223L268.959 45.42L275.152 44.4875V45.7671L275.147 45.7622Z" fill="#CFA28C"/>
<path d="M277.929 35.9223C277.929 43.3469 272.484 49.363 268.865 49.363C265.245 49.363 259.801 43.3469 259.801 35.9223C259.801 28.4977 263.857 22.4817 268.865 22.4817C273.873 22.4817 277.929 28.4977 277.929 35.9223Z" fill="#E6B88F"/>
<path d="M262.637 28.7358C262.637 28.7358 265.756 31.3694 271.046 31.409C271.046 31.409 269.604 30.4965 268.865 29.3458C268.865 29.3458 272.326 31.9248 275.921 32.0588C275.921 32.0588 277.572 39.7214 276.04 48.8819C276.04 48.8819 282.872 46.4715 283.77 44.2496C284.667 42.0277 283.056 26.4544 276.377 21.6137C267.338 14.8686 263.014 23.3099 263.014 23.3099C263.014 23.3099 260.668 21.7476 257.55 24.3911C254.431 27.0346 253.39 40.3215 253.593 44.1058C253.796 47.89 262.096 48.8769 262.096 48.8769C262.096 48.8769 259.518 37.9459 260.108 35.3768C260.108 35.3768 262.553 33.5665 262.637 28.7308V28.7358Z" fill="#302E2F"/>
<path d="M263.009 39.2106C262.989 39.3594 262.597 39.4288 262.141 39.3643C261.685 39.2999 261.328 39.1263 261.353 38.9725C261.378 38.8188 261.764 38.7543 262.22 38.8188C262.677 38.8833 263.034 39.0568 263.009 39.2106Z" fill="#CFA28C"/>
<path d="M263.088 40.1133C263.068 39.9645 262.677 39.8951 262.221 39.9595C261.764 40.024 261.407 40.1976 261.432 40.3513C261.452 40.5001 261.844 40.5696 262.3 40.5051C262.756 40.4406 263.113 40.267 263.088 40.1133Z" fill="#CFA28C"/>
<path d="M274.716 40.1133C274.735 39.9645 275.127 39.8951 275.583 39.9595C276.039 40.024 276.396 40.1976 276.372 40.3513C276.352 40.5001 275.96 40.5696 275.504 40.5051C275.048 40.4406 274.691 40.267 274.716 40.1133Z" fill="#CFA28C"/>
<path d="M274.636 39.2106C274.656 39.3594 275.048 39.4288 275.504 39.3643C275.96 39.2999 276.317 39.1263 276.292 38.9725C276.268 38.8188 275.881 38.7543 275.425 38.8188C274.968 38.8833 274.611 39.0568 274.636 39.2106Z" fill="#CFA28C"/>
<path d="M268.949 41.3184C268.949 41.3184 268.909 41.3184 268.889 41.3184C268.651 41.2986 268.096 41.0952 268.036 39.6718C267.942 37.3408 268.319 36.0513 268.334 35.9967C268.359 35.9124 268.448 35.8678 268.532 35.8926C268.616 35.9174 268.661 36.0066 268.636 36.0909C268.636 36.1058 268.259 37.3904 268.354 39.6619C268.393 40.6241 268.671 40.9861 268.919 41.0109C269.281 41.0456 269.831 40.4257 270.059 39.3742C270.079 39.2899 270.163 39.2354 270.248 39.2552C270.332 39.275 270.387 39.3594 270.367 39.4437C270.124 40.5546 269.534 41.3333 268.949 41.3333V41.3184Z" fill="#CFA28C"/>
<path d="M269.028 43.8776C266.628 43.8776 265.19 42.0376 265.126 41.9582C265.071 41.8888 265.086 41.7896 265.155 41.735C265.225 41.6805 265.324 41.6953 265.379 41.7648C265.393 41.7846 266.792 43.5602 269.028 43.5602C271.264 43.5602 272.33 41.7995 272.345 41.7797C272.39 41.7053 272.489 41.6805 272.563 41.7251C272.638 41.7697 272.662 41.864 272.618 41.9433C272.573 42.0227 271.443 43.8776 269.033 43.8776H269.028Z" fill="#CFA28C"/>
<path d="M273.912 32.892C273.396 32.644 272.777 32.649 272.072 32.8969C271.825 32.9862 271.557 32.8573 271.468 32.6093C271.378 32.3613 271.507 32.0935 271.755 32.0042C272.712 31.662 273.58 31.6769 274.333 32.0439C275.519 32.6192 275.915 34.4344 275.667 34.5188C275.618 34.5336 274.73 33.2838 273.912 32.892Z" fill="#302E2F"/>
<path d="M261.838 34.5438C261.789 34.5438 261.838 32.6195 263.023 32.0442C263.777 31.6771 264.64 31.6672 265.602 32.0045C265.85 32.0938 265.979 32.3616 265.889 32.6096C265.8 32.8575 265.532 32.9865 265.284 32.8972C264.575 32.6443 263.956 32.6443 263.44 32.8972C262.622 33.294 262.042 34.5488 261.843 34.5488L261.838 34.5438Z" fill="#302E2F"/>
<path d="M265.24 34.5436L263.708 34.5981C263.708 34.5981 263.946 35.0643 264.843 35.1635C264.739 35.5603 264.675 36.1108 264.675 36.7258C264.675 37.931 264.928 38.9081 265.24 38.9081C265.553 38.9081 265.805 37.931 265.805 36.7258C265.805 35.5206 265.553 34.5436 265.24 34.5436Z" fill="#302E2F"/>
<path d="M274.017 34.603L272.484 34.5485C272.172 34.5485 271.919 35.5255 271.919 36.7307C271.919 37.9359 272.172 38.913 272.484 38.913C272.797 38.913 273.05 37.9359 273.05 36.7307C273.05 36.1207 272.985 35.5652 272.881 35.1684C273.784 35.0692 274.017 34.603 274.017 34.603Z" fill="#302E2F"/>
<path d="M287.3 58.7863C287.3 58.7863 295.729 82.91 298.149 108.165C298.149 108.165 296.072 109.434 293.597 108.512C293.597 108.512 289.06 85.5585 282.604 73.323C281.157 70.7142 281.067 67.059 281.514 64.9362C286.224 54.3722 287.305 58.7912 287.305 58.7912L287.3 58.7863Z" fill="#E6B88F"/>
<path opacity="0.6" d="M283.507 75.1234L284.251 76.7501C284.251 76.7501 285.734 73.7991 287.509 73.0155C289.284 72.2319 290.761 70.7886 290.851 70.4167C290.94 70.0397 286.145 69.7917 286.145 69.7917L283.244 74.3001L283.502 75.1333L283.507 75.1234Z" fill="#CFA28C"/>
<path d="M297.058 112.713C297.058 112.713 296.057 115.579 295.858 115.862C295.66 116.145 294.103 117.032 294.009 117.499C293.91 117.965 294.495 118.446 295.64 117.826C296.786 117.206 297.108 117.027 297.311 116.745C297.514 116.462 298.615 113.466 298.615 113.466L297.063 112.713H297.058Z" fill="#CFA28C"/>
<path d="M297.544 113.362C297.544 113.362 296.801 116.839 296.607 117.201C296.414 117.558 294.738 118.818 294.693 119.373C294.649 119.929 295.392 120.4 296.637 119.517C297.882 118.629 298.229 118.376 298.422 118.014C298.615 117.652 299.458 114.017 299.458 114.017L297.544 113.367V113.362Z" fill="#CFA28C"/>
<path d="M298.134 108.036C298.134 108.036 299.741 111.835 300.034 113.005C300.326 114.176 298.715 118.947 298.566 120.335C298.268 121.774 297.103 121.62 297.163 119.676C297.187 117.583 297.688 114.111 297.688 113.823C297.688 113.536 296.022 112.043 295.799 111.973C295.581 111.899 294.783 113.486 294.748 113.779C294.713 114.071 295.546 115.931 294.485 116.988C293.424 118.044 292.472 113.957 292.546 113.154C292.621 112.35 292.606 109.568 293.93 107.921L297.44 107.525L298.134 108.036Z" fill="#E6B88F"/>
<path d="M255.209 63.7658C255.209 63.7658 255.204 63.7807 255.204 63.7857H255.2C254.966 64.356 254.778 64.8966 254.624 65.4075C254.609 65.467 254.585 65.5265 254.57 65.586C252.666 72.2518 256.866 74.4489 256.866 74.4489C256.866 74.4489 257.173 75.3764 257.51 76.8097C257.808 78.0645 258.13 79.7061 258.284 81.4668C258.284 81.4668 258.289 81.5065 258.294 81.5858C258.338 82.2951 258.343 86.9522 254.833 93.5436C255.596 94.3074 263.708 94.1834 268.503 94.3817C273.803 94.6 279.104 94.595 284.409 94.5801C284.171 93.9007 283.919 93.2906 283.661 92.7649C280.334 86.5157 280.036 82.7315 280.016 81.7495C280.165 79.8847 280.502 78.129 280.815 76.8097C280.879 76.5419 280.939 76.2939 280.998 76.0658C281.097 75.6839 281.186 75.3664 281.261 75.1085C281.305 74.9548 281.34 74.8258 281.375 74.7267C281.42 74.5977 281.444 74.5084 281.454 74.4737C281.454 74.4737 281.459 74.4737 281.459 74.4687C281.464 74.4539 281.464 74.4489 281.464 74.4489C281.464 74.4489 283.15 73.5611 283.899 71.2152C284.052 70.744 284.162 70.2134 284.206 69.6133C284.315 68.4626 284.196 67.069 283.69 65.3975L286.978 58.1713C286.978 58.1713 280.19 51.5651 269.698 50.2954C259.206 51.5651 253.082 58.1713 253.082 58.1713L255.413 63.5972C255.274 63.7013 255.195 63.7658 255.195 63.7658H255.209Z" fill="#E6B88F"/>
<path opacity="0.6" d="M282.352 89.8039C282.352 89.8039 269.202 94.0196 256.102 90.9149L256.895 88.9012L281.276 88.9558L282.352 89.8039Z" fill="#CFA28C"/>
<path d="M255.775 55.7956L256.385 59.0045L258.814 59.4063L257.356 54.6698L255.775 55.7956Z" fill="white"/>
<path d="M293.007 66.6572C293.007 66.6572 292.621 69.9852 289.715 71.0019C286.809 72.0236 284.082 73.6652 283.254 75.6144L282.605 73.323C282.605 73.323 280.611 80.8369 282.099 83.8127C282.634 84.8889 283.086 85.9106 283.443 86.7835C284.072 88.3259 284.405 89.3824 284.405 89.3824C284.405 89.3824 269.207 93.117 255.239 88.9261C255.239 88.9261 257.966 80.703 257.555 76.4029C257.555 76.4029 257 74.8208 254.942 74.5381C254.615 74.4935 254.248 74.4786 253.836 74.5133C250.861 74.7514 246.488 73.199 245.66 71.5375C245.66 71.5375 250.281 61.3107 250.692 60.2196C251.109 59.1285 253.092 58.1713 253.092 58.1713C253.092 58.1713 269.748 63.8798 279.392 53.1521C279.392 53.1521 285.57 55.9741 287.385 58.1713C287.385 58.1713 292.343 65.5066 293.007 66.6572Z" fill="#EA3934"/>
<g style="mix-blend-mode:multiply">
<path d="M284.404 89.3824C284.404 89.3824 269.207 93.117 255.239 88.9261C255.239 88.9261 257.966 80.703 257.555 76.403C257.555 76.403 256.999 74.8208 254.942 74.5381L256.538 67.4756L256.975 73.9281C256.975 73.9281 261.561 89.9081 283.438 86.7835C284.067 88.326 284.4 89.3824 284.4 89.3824H284.404Z" fill="#CFD1D2"/>
</g>
<g style="mix-blend-mode:multiply">
<path d="M282.605 73.3231C282.605 73.3231 283.155 70.2432 282.605 68.3833C282.054 66.5234 281.023 64.4999 281.023 64.4999C281.023 64.4999 283.343 67.3715 283.626 69.2959C283.909 71.2202 283.101 75.0739 283.101 75.0739L282.605 73.3281V73.3231Z" fill="#CFD1D2"/>
</g>
<path d="M270.045 191.665C269.871 192.657 267.997 193.842 266.713 193.927C265.434 194.011 261.026 192.846 260.941 191.769C260.867 190.847 262.31 185.947 263.163 183.879C262.831 182.043 262.335 179.266 261.819 176.256C260.946 171.187 260.009 165.458 259.682 162.453C259.241 158.376 258.675 148.923 258.353 143.026C258.185 140.04 258.075 137.967 258.075 137.967H267.02C267.02 137.967 267.169 140.675 267.363 144.544C267.67 150.584 268.091 159.457 268.255 165.315C268.354 168.97 268.394 172.848 268.404 176.256C268.419 180.61 268.186 183.03 268.171 184.379C268.954 186.76 270.154 191.04 270.045 191.665Z" fill="#E6B88F"/>
<path d="M269.633 96.7871C269.053 99.4107 268.448 102.967 268.205 104.648C269.048 107.361 269.366 111.567 269.385 116.254C269.435 128.569 267.412 144.182 267.362 144.544L265.766 142.783C263.867 142.614 261.859 142.267 259.954 142.237C259.528 142.232 258.869 143.294 258.462 143.438C258.432 143.323 258.398 143.19 258.353 143.026C257.163 138.89 250.112 119.319 250.732 109.573C250.732 104.341 252.532 100.016 253.727 96.0332C253.875 95.5273 254.713 94.0345 254.837 93.5435C257.079 92.6557 258.001 92.9285 260.168 92.8392C263.197 92.7202 266.222 93.9402 269.242 94.2378C269.584 94.2775 269.926 94.3023 270.268 94.3073C270.075 94.8826 269.856 95.7654 269.633 96.7871Z" fill="#E6B88F"/>
<path d="M303.296 188.724C302.463 190.574 296.736 191.625 296.002 191.829C295.268 192.032 295.397 191.288 295.249 190.43C295.1 189.572 294.832 189.637 295.358 187.965C295.883 186.289 293.821 178.864 293.503 178.051C293.191 177.242 291.649 174.614 291.649 174.614V174.604C291.624 174.559 290.687 172.942 289.244 170.428C284.211 161.674 272.995 142.054 272.455 140.115C272.053 138.661 270.372 125.662 269.386 116.254C269.009 112.668 268.731 109.603 268.662 107.897C268.632 107.143 266.996 103.249 265.756 96.7523C265.602 95.9687 265.458 95.1503 265.325 94.2923C265.325 94.2725 265.325 94.2477 265.315 94.2278C266.619 94.2278 267.928 94.2328 269.242 94.2378C274.225 94.2626 279.253 94.3072 284.196 93.9948C284.464 94.5106 284.712 95.0561 284.94 95.6265C285.54 97.0797 286.041 98.6767 286.512 100.249C287.647 104.023 288.188 108.383 287.657 113.521C285.927 122.81 283.239 137.288 283.239 137.288C283.239 137.288 289.849 150.664 290.469 153.545C290.85 155.331 293.151 162.031 294.852 166.872C295.343 168.285 295.789 169.54 296.116 170.468C298.952 170.463 299.369 171.703 299.627 172.848C299.904 174.118 300.296 179.851 301.189 181.131C302.081 182.41 304.134 186.874 303.296 188.724Z" fill="#E6B88F"/>
<path d="M294.852 166.872L289.244 170.428C288.148 168.528 286.765 166.108 285.257 163.475C279.838 153.982 272.876 141.632 272.455 140.115C272.053 138.661 270.372 125.662 269.385 116.254C269.435 128.569 267.412 144.182 267.362 144.544C267.67 150.584 268.091 159.457 268.255 165.315C268.354 168.97 268.394 172.848 268.404 176.256H261.819C260.946 171.187 260.009 165.458 259.682 162.453C259.24 158.376 258.675 148.923 258.353 143.026C257.163 138.89 250.112 119.319 250.732 109.573C250.732 104.341 252.532 100.016 253.727 96.0333L253.861 96.0482C254.153 96.0779 254.922 96.1523 256.052 96.2465H256.107C258.264 96.4301 261.715 96.6632 265.756 96.7524C266.995 96.7822 268.295 96.7971 269.633 96.7871C274.602 96.7723 280.061 96.4846 284.94 95.6266C285.54 97.0798 286.041 98.6768 286.512 100.249C287.647 104.023 288.188 108.383 287.657 113.521C285.927 122.81 283.239 137.288 283.239 137.288C283.239 137.288 289.849 150.664 290.468 153.545C290.85 155.331 293.151 162.031 294.852 166.872Z" fill="#434244"/>
<g style="mix-blend-mode:multiply">
<path d="M261.819 176.256C260.946 171.187 260.009 165.458 259.682 162.453C259.24 158.376 258.675 148.923 258.353 143.026C257.163 138.89 250.112 119.319 250.732 109.573C250.732 104.341 252.532 100.016 253.727 96.0332L253.861 96.0481L256.052 96.2465H256.107C256.107 96.2465 251.917 108.983 254.942 121.213C257.966 133.439 259.588 141.488 259.954 142.237C260.321 142.986 261.819 176.256 261.819 176.256Z" fill="#CFD1D2"/>
</g>
<g style="mix-blend-mode:multiply">
<path d="M285.282 163.509L285.257 163.475C279.838 153.982 272.876 141.632 272.455 140.115C272.053 138.662 270.372 125.662 269.385 116.254L266.396 111.8L271.354 115.46L274.081 139.763L285.282 163.509Z" fill="#CFD1D2"/>
</g>
<path d="M274.403 55.5031H266.549C265.811 55.5031 265.216 56.118 265.216 56.8818V73.085C265.216 73.8438 265.816 74.4638 266.549 74.4638H274.403C275.142 74.4638 275.737 73.8488 275.737 73.085V56.8818C275.737 56.123 275.137 55.5031 274.403 55.5031Z" fill="#434244"/>
<path d="M266.837 56.5198C266.475 56.5198 266.177 56.8174 266.177 57.1794V58.5036C266.177 58.8657 266.475 59.1633 266.837 59.1633C267.199 59.1633 267.496 58.8657 267.496 58.5036V57.1794C267.496 56.8174 267.199 56.5198 266.837 56.5198Z" fill="#6D6E70"/>
<path d="M258.735 72.1625C258.735 72.1625 260.252 67.545 261.268 65.3727C262.166 63.8054 265.617 62.63 266.291 62.3622C266.966 62.0944 269.668 63.2103 270.01 63.8352C270.352 64.4601 269.975 64.6982 269.514 64.7626C268.309 64.9462 266.688 64.1278 266.554 64.1675C266.42 64.2072 264.02 66.0026 264.02 66.0026C264.02 66.0026 266.45 66.1018 267.095 66.1811C267.744 66.2605 270.397 67.7732 270.551 68.1749C270.704 68.5766 270.303 69.1073 269.222 68.8643C269.222 68.8643 270.437 69.39 270.665 69.7967C270.853 70.0893 270.932 71.3441 267.833 70.2083C267.833 70.2083 269.256 70.6002 269.088 71.2152C268.924 71.845 266.019 70.739 266.019 70.739C266.019 70.739 265.761 72.4947 263.718 72.5741L261.536 75.4011L258.73 72.1575L258.735 72.1625Z" fill="#E6B88F"/>
<path d="M263.113 70.6547L263.872 72.4203C263.872 72.4203 258.874 78.7687 255.814 85.5931C253.157 90.9644 248.615 93.0227 246.537 91.9018C244.464 90.7809 244.425 86.714 246.77 83.4555C248.689 80.4549 260.475 69.0626 260.475 69.0626L263.108 70.6547H263.113Z" fill="#E6B88F"/>
</g>
<path d="M297.005 39.7321L299.878 34.6629C298.605 32.5966 297.873 30.1634 297.873 27.5613C297.873 20.0685 303.937 14 311.414 14C318.89 14 324.955 20.0734 324.955 27.5613C324.955 35.0492 318.89 41.1225 311.414 41.1225C308.29 41.1225 305.417 40.0604 303.127 38.2838L297 39.7369L297.005 39.7321Z" fill="#FAFAFA"/>
<g clip-path="url(#clip2_2259_32194)">
<path d="M313.259 35.893C317.784 34.7748 320.547 30.1947 319.43 25.6631C318.314 21.1315 313.741 18.3643 309.216 19.4825C304.691 20.6007 301.928 25.1808 303.044 29.7124C304.161 34.244 308.734 37.0112 313.259 35.893Z" fill="url(#paint1_linear_2259_32194)"/>
<path d="M313.211 35.697C317.628 34.6056 320.325 30.135 319.235 25.7117C318.145 21.2884 313.681 18.5874 309.265 19.6789C304.848 20.7703 302.151 25.2409 303.241 29.6642C304.331 34.0875 308.795 36.7885 313.211 35.697Z" fill="url(#paint2_linear_2259_32194)"/>
<path d="M312.967 34.7164C311.092 35.1796 309.15 34.8842 307.497 33.8842C305.844 32.8843 304.68 31.2997 304.217 29.4223C303.754 27.5449 304.049 25.5996 305.048 23.9445C306.046 22.2894 307.629 21.1229 309.503 20.6596C311.378 20.1964 313.32 20.4918 314.973 21.4918C316.626 22.4918 317.79 24.0763 318.253 25.9537C318.715 27.8311 318.42 29.7764 317.422 31.4316C316.423 33.0867 314.841 34.2531 312.967 34.7164Z" fill="url(#paint3_linear_2259_32194)"/>
<path d="M315.254 21.6707C313.666 20.8052 311.84 20.5678 310.073 21.0044C308.198 21.4676 306.616 22.6341 305.618 24.2892C304.619 25.9443 304.324 27.8896 304.787 29.767C305.223 31.5362 306.282 33.0452 307.786 34.0501C307.689 33.9971 307.592 33.9418 307.497 33.8842C305.844 32.8843 304.68 31.2997 304.217 29.4223C303.754 27.5449 304.049 25.5996 305.048 23.9445C306.046 22.2894 307.629 21.1229 309.503 20.6596C311.378 20.1964 313.32 20.4918 314.973 21.4918C315.068 21.5494 315.162 21.6092 315.254 21.6707Z" fill="url(#paint4_linear_2259_32194)"/>
<path opacity="0.4" d="M319.426 25.6632C320.543 30.1947 317.78 34.7749 313.255 35.893C308.982 36.9489 304.667 34.5404 303.259 30.4531C303.331 30.4644 303.406 30.475 303.484 30.4849C304.893 34.4149 309.07 36.7191 313.207 35.6969C317.623 34.6054 320.32 30.1349 319.23 25.7116C318.354 22.1529 315.293 19.709 311.83 19.4581C311.798 19.3837 311.768 19.3139 311.739 19.2496C315.33 19.464 318.519 21.9813 319.426 25.6632Z" fill="url(#paint5_linear_2259_32194)"/>
<g style="mix-blend-mode:saturation">
<path d="M315.258 21.6692C314.34 21.1694 313.343 20.8794 312.324 20.8077C312.293 20.7066 312.263 20.6081 312.231 20.5128C313.192 20.6455 314.124 20.9745 314.979 21.4916C315.05 21.5346 315.121 21.5792 315.191 21.6248C315.213 21.6394 315.236 21.6543 315.258 21.6692Z" fill="url(#paint6_linear_2259_32194)"/>
</g>
<path opacity="0.3" d="M319.089 25.5643C320.179 29.9876 317.482 34.4582 313.065 35.5497C308.929 36.5718 304.751 34.2676 303.342 30.3377C303.667 30.379 304.038 30.4058 304.453 30.4072C305.043 31.7869 306.046 32.9451 307.354 33.7368C307.425 33.7799 307.498 33.822 307.57 33.8623C307.594 33.876 307.617 33.8888 307.641 33.9014L307.643 33.9026C309.231 34.7682 311.057 35.0055 312.824 34.569C314.698 34.1057 316.28 32.9392 317.279 31.2841C318.277 29.629 318.572 27.6837 318.11 25.8063C317.674 24.0371 316.614 22.5282 315.111 21.5233C315.11 21.5228 315.11 21.5225 315.109 21.522C315.087 21.507 315.064 21.4921 315.041 21.4776C314.972 21.432 314.901 21.3875 314.83 21.3444C313.975 20.8273 313.043 20.4983 312.082 20.3656C311.948 19.9541 311.809 19.5966 311.688 19.3109C315.152 19.5617 318.212 22.0057 319.089 25.5643Z" fill="url(#paint7_linear_2259_32194)"/>
<path opacity="0.6" d="M318.258 25.9536C318.721 27.831 318.426 29.7763 317.427 31.4315C316.429 33.0866 314.847 34.253 312.972 34.7163C311.206 35.1528 309.379 34.9155 307.791 34.05L307.789 34.0487C306.513 33.195 305.557 31.9782 305.031 30.5472C306.04 30.5096 307.281 30.3213 308.751 29.8522C309.94 29.3994 312.338 28.11 312.718 24.9934C312.945 23.4741 312.67 21.9654 312.323 20.8079C313.342 20.8795 314.34 21.1695 315.257 21.6694C315.258 21.6698 315.258 21.6701 315.259 21.6706C316.763 22.6755 317.822 24.1844 318.258 25.9536Z" fill="url(#paint8_linear_2259_32194)"/>
<g clip-path="url(#clip3_2259_32194)">
<path d="M311.015 26.1041L310.38 25.4892C309.936 25.9212 309.686 26.4684 309.647 27.0174C309.628 27.2928 309.663 27.5695 309.757 27.8307C309.851 28.0913 310.004 28.3362 310.216 28.541L311.234 29.5258L311.939 30.2084L312.694 30.939C312.905 31.1441 313.158 31.2926 313.428 31.3832C313.833 31.5195 314.272 31.5275 314.693 31.4229C315.113 31.3183 315.516 31.1002 315.852 30.7759C316.298 30.3432 316.55 29.7939 316.589 29.243C316.608 28.9675 316.573 28.691 316.479 28.4297C316.386 28.1691 316.232 27.9243 316.02 27.7196L313.543 25.3217C313.331 25.1166 313.078 24.9676 312.809 24.8771C312.404 24.7411 311.964 24.7329 311.544 24.8371C311.402 24.8723 311.263 24.9217 311.127 24.9822L311.832 25.6648C311.898 25.6516 311.964 25.6426 312.028 25.6386C312.2 25.6274 312.365 25.6486 312.513 25.6985C312.661 25.7488 312.794 25.8267 312.907 25.9362L315.385 28.3345C315.498 28.4443 315.579 28.572 315.631 28.7157C315.708 28.9305 315.718 29.183 315.65 29.4375C315.582 29.6919 315.438 29.9459 315.216 30.1608C314.92 30.4476 314.552 30.5996 314.208 30.6214C314.036 30.6326 313.871 30.6117 313.723 30.5618C313.575 30.5116 313.443 30.4336 313.329 30.3241L312.686 29.7015L312.05 29.0866L310.851 27.9259C310.738 27.8162 310.658 27.6883 310.606 27.5446C310.528 27.3298 310.519 27.0777 310.586 26.8229C310.653 26.5703 310.796 26.3182 311.015 26.1043L311.015 26.1041Z" fill="white"/>
<g filter="url(#filter1_d_2259_32194)">
<path d="M312.054 29.0858L312.689 29.7007C313.133 29.2686 313.384 28.7214 313.422 28.1725C313.441 27.897 313.406 27.6204 313.313 27.3592C313.219 27.0986 313.065 26.8536 312.853 26.6491L311.836 25.664L311.131 24.9814L310.376 24.2508C310.164 24.0457 309.911 23.8971 309.642 23.8066C309.237 23.6703 308.797 23.6624 308.377 23.7669C307.957 23.8713 307.553 24.0896 307.218 24.4138C306.771 24.8469 306.519 25.3958 306.48 25.947C306.461 26.2223 306.496 26.4992 306.59 26.76C306.684 27.0208 306.837 27.2656 307.049 27.4703L309.527 29.8685C309.739 30.0733 309.992 30.2221 310.261 30.3126C310.666 30.4487 311.106 30.4568 311.526 30.3526C311.667 30.3173 311.807 30.2683 311.942 30.2078L311.237 29.5252C311.171 29.5384 311.106 29.5471 311.041 29.5513C310.869 29.5624 310.704 29.5416 310.556 29.4917C310.408 29.4414 310.276 29.3631 310.163 29.254L307.685 26.8554C307.571 26.7455 307.49 26.6179 307.439 26.4741C307.361 26.2592 307.352 26.0068 307.419 25.7522C307.487 25.4981 307.631 25.2441 307.853 25.029C308.149 24.7421 308.518 24.5901 308.862 24.5681C309.034 24.5569 309.198 24.5781 309.346 24.628C309.495 24.6783 309.627 24.7566 309.741 24.8657L310.384 25.4884L311.019 26.1033L312.218 27.264C312.331 27.3737 312.412 27.5015 312.464 27.6452C312.541 27.86 312.551 28.1122 312.483 28.367C312.416 28.6195 312.274 28.8715 312.054 29.0856L312.054 29.0858Z" fill="white"/>
</g>
</g>
<g style="mix-blend-mode:saturation">
<path d="M307.641 33.9018C307.617 33.8889 307.594 33.876 307.57 33.8627C307.498 33.8224 307.425 33.7803 307.354 33.7372C306.046 32.9455 305.043 31.7873 304.453 30.4076C304.591 30.4081 304.734 30.406 304.883 30.4003C305.409 31.8312 306.365 33.0481 307.641 33.9018Z" fill="url(#paint9_linear_2259_32194)"/>
</g>
</g>
<g opacity="0.4" filter="url(#filter2_f_2259_32194)">
<path d="M-235.267 -114.382C-358.923 -154.826 -405.422 -24.4013 -413.214 45.8666C-415.44 60.3336 -414.263 90.6031 -391.746 95.9447C-363.598 102.622 -372.663 193.716 -358.828 268.594C-344.993 343.472 -199.009 271.456 -148.44 254.763C-97.8705 238.07 -61.6132 252.378 30.9384 117.884C123.49 -16.6112 6.13077 -63.8274 -16.7686 -60.0119C-39.6679 -56.1965 -80.696 -63.8276 -235.267 -114.382Z" fill="#EEB50F"/>
</g>
</g>
<defs>
<filter id="filter0_f_2259_32194" x="-34.9808" y="-345.981" width="917.962" height="861.962" filterUnits="userSpaceOnUse" color-interpolation-filters="sRGB">
<feFlood flood-opacity="0" result="BackgroundImageFix"/>
<feBlend mode="normal" in="SourceGraphic" in2="BackgroundImageFix" result="shape"/>
<feGaussianBlur stdDeviation="109.49" result="effect1_foregroundBlur_2259_32194"/>
</filter>
<filter id="filter1_d_2259_32194" x="306.475" y="23.6956" width="7.42" height="7.19613" filterUnits="userSpaceOnUse" color-interpolation-filters="sRGB">
<feFlood flood-opacity="0" result="BackgroundImageFix"/>
<feColorMatrix in="SourceAlpha" type="matrix" values="0 0 0 0 0 0 0 0 0 0 0 0 0 0 0 0 0 0 127 0" result="hardAlpha"/>
<feOffset dx="0.234049" dy="0.234049"/>
<feGaussianBlur stdDeviation="0.117024"/>
<feComposite in2="hardAlpha" operator="out"/>
<feColorMatrix type="matrix" values="0 0 0 0 0 0 0 0 0 0 0 0 0 0 0 0 0 0 0.1 0"/>
<feBlend mode="normal" in2="BackgroundImageFix" result="effect1_dropShadow_2259_32194"/>
<feBlend mode="normal" in="SourceGraphic" in2="effect1_dropShadow_2259_32194" result="shape"/>
</filter>
<filter id="filter2_f_2259_32194" x="-632.981" y="-340.981" width="917.962" height="861.962" filterUnits="userSpaceOnUse" color-interpolation-filters="sRGB">
<feFlood flood-opacity="0" result="BackgroundImageFix"/>
<feBlend mode="normal" in="SourceGraphic" in2="BackgroundImageFix" result="shape"/>
<feGaussianBlur stdDeviation="109.49" result="effect1_foregroundBlur_2259_32194"/>
</filter>
<linearGradient id="paint0_linear_2259_32194" x1="-7.5" y1="23.0061" x2="303.677" y2="183.2" gradientUnits="userSpaceOnUse">
<stop stop-color="#D2851E"/>
<stop offset="1" stop-color="#FCCF06"/>
</linearGradient>
<linearGradient id="paint1_linear_2259_32194" x1="309.216" y1="19.4825" x2="321.522" y2="30.7103" gradientUnits="userSpaceOnUse">
<stop stop-color="#FFD700"/>
<stop offset="1" stop-color="#E68D35"/>
</linearGradient>
<linearGradient id="paint2_linear_2259_32194" x1="309.265" y1="19.6789" x2="321.277" y2="30.6383" gradientUnits="userSpaceOnUse">
<stop stop-color="#EFCB0A"/>
<stop offset="1" stop-color="#AF661D"/>
</linearGradient>
<linearGradient id="paint3_linear_2259_32194" x1="309.503" y1="20.6596" x2="320.045" y2="30.2771" gradientUnits="userSpaceOnUse">
<stop stop-color="#FFD700"/>
<stop offset="1" stop-color="#E68D35"/>
</linearGradient>
<linearGradient id="paint4_linear_2259_32194" x1="308.587" y1="20.886" x2="317.752" y2="29.2481" gradientUnits="userSpaceOnUse">
<stop stop-color="#FFD700"/>
<stop offset="1" stop-color="#E68D35"/>
</linearGradient>
<linearGradient id="paint5_linear_2259_32194" x1="309.319" y1="19.8475" x2="321.319" y2="31.0069" gradientUnits="userSpaceOnUse">
<stop stop-color="#FFD700"/>
<stop offset="1" stop-color="#E68D35"/>
</linearGradient>
<linearGradient id="paint6_linear_2259_32194" x1="313.524" y1="20.1935" x2="314.768" y2="21.7445" gradientUnits="userSpaceOnUse">
<stop stop-color="#FFD700"/>
<stop offset="1" stop-color="#E68D35"/>
</linearGradient>
<linearGradient id="paint7_linear_2259_32194" x1="309.236" y1="19.9169" x2="320.925" y2="30.7999" gradientUnits="userSpaceOnUse">
<stop stop-color="#FFD700"/>
<stop offset="1" stop-color="#E68D35"/>
</linearGradient>
<linearGradient id="paint8_linear_2259_32194" x1="309.955" y1="21.393" x2="319.874" y2="30.6274" gradientUnits="userSpaceOnUse">
<stop stop-color="#EBC704"/>
<stop offset="1" stop-color="#D17315"/>
</linearGradient>
<linearGradient id="paint9_linear_2259_32194" x1="305.55" y1="30.1366" x2="308.363" y2="31.4665" gradientUnits="userSpaceOnUse">
<stop stop-color="#FFD700"/>
<stop offset="1" stop-color="#E68D35"/>
</linearGradient>
<clipPath id="clip0_2259_32194">
<rect width="342" height="146" rx="10" fill="white"/>
</clipPath>
<clipPath id="clip1_2259_32194">
<rect width="59" height="177" fill="white" transform="translate(245 19)"/>
</clipPath>
<clipPath id="clip2_2259_32194">
<rect width="16.8789" height="16.9012" fill="white" transform="matrix(0.970796 -0.239906 0.239231 0.970963 301.023 21.5072)"/>
</clipPath>
<clipPath id="clip3_2259_32194">
<rect width="10.1237" height="7.79657" fill="white" transform="translate(306.475 23.6962)"/>
</clipPath>
</defs>
</svg>
