<svg xmlns="http://www.w3.org/2000/svg" width="447" height="536" fill="none"><g clip-path="url(#a)"><path fill="#F9F9F9" d="M0 0h447v536H0z"/><g filter="url(#b)"><path fill="#fff" d="M299.375-3.194C165.979-35.6 115.818 68.9 107.413 125.202c-2.402 11.591-1.133 35.844 23.159 40.123 30.364 5.35 20.585 78.337 35.51 138.332s172.406 2.292 226.958-11.082 93.665-1.911 193.506-109.672-26.761-145.591-51.464-142.534-68.962-3.057-235.707-43.563"/></g><g filter="url(#c)"><path fill="#fff" d="M511.525.463C360.994-36.17 304.39 81.97 294.904 145.618c-2.71 13.104-1.277 40.523 26.134 45.361 34.265 6.048 23.23 88.562 40.072 156.387s194.552 2.592 256.112-12.528c61.559-15.12 105.696-2.16 218.362-123.986s-30.199-164.596-58.075-161.14S699.688 46.257 511.525.464"/></g><g filter="url(#d)"><path fill="#fff" d="M-99.845 426.857c-37.323-94.803 14.272-100.216 44.734-91.072 6.176 1.447 19.999 8.554 25.883 25.397 7.356 21.055 47.008 33.633 82.888 58.846s25.971 112.269 26.258 144.139c.288 31.87 12.335 60.176-33.982 96.924s-85.719-55.06-87.536-70.269-11.592-45.462-58.245-163.965"/></g><g filter="url(#e)"><path fill="#fff" d="M81.638 522.573c-96.79-12.613-93.85-48.991-80.28-65.604 2.361-3.528 11.354-9.9 28.433-7.164 21.348 3.421 39.659-17.936 69.49-31.808 29.832-13.872 111.748 27.034 142.354 39.411s59.647 15.543 87.587 60.775c27.939 45.232-66.307 35.18-81.177 30.389s-45.421-10.233-166.407-25.999"/></g><g filter="url(#f)"><path fill="#FFFBD8" d="M365.977 390.044c-103.497-20.368-142.414 45.317-148.936 80.705-1.863 7.286-.879 22.53 17.968 25.22 23.558 3.363 15.972 49.239 27.551 86.949 11.58 37.71 133.763 1.441 176.088-6.965s72.671-1.201 150.133-68.935-20.763-91.513-39.929-89.592-53.505-1.921-182.875-27.382"/></g><g filter="url(#g)"><path fill="#FFFBD8" d="M342.697 326.392c-103.496-20.369-142.414 45.316-148.935 80.704-1.864 7.286-.879 22.53 17.968 25.22 23.558 3.363 15.971 49.239 27.551 86.949s133.763 1.442 176.087-6.965c42.325-8.407 72.672-1.201 150.134-68.935 77.463-67.734-20.763-91.513-39.929-89.591-19.166 1.921-53.505-1.922-182.876-27.382"/></g><path fill="#EBEBEB" d="M515.742 374.561h-34.583v41.999h-8.897v-23.782h-43.98v37.651h-5.822v-88.354h-38.217v24.256h-19.595V396.5h-5.932v-18.974h-34.742v56.63h-10.168v-46.04H282.03v-34.964h-21.607v-19.913h-24.997v88.321h-8.399v-36.855h-41.172v52.759h-5.697v-43.065h-41.754v-38.795H115v180.693h400.742z"/><path fill="#fff" d="M303.077 400.554h5.851v-6.699h-5.851zM292.934 400.554h5.851v-6.699h-5.851zM282.794 400.554h5.851v-6.699h-5.851zM303.077 410.634h5.851v-6.699h-5.851zM292.934 410.634h5.851v-6.699h-5.851zM282.794 410.634h5.851v-6.699h-5.851zM303.077 420.713h5.851v-6.699h-5.851zM292.934 420.713h5.851v-6.699h-5.851zM282.794 420.713h5.851v-6.699h-5.851zM303.077 430.793h5.851v-6.699h-5.851zM292.934 430.793h5.851v-6.699h-5.851zM282.794 430.793h5.851v-6.699h-5.851zM303.077 441.121h5.851v-6.699h-5.851zM292.934 441.121h5.851v-6.699h-5.851zM282.794 441.121h5.851v-6.699h-5.851zM303.077 451.45h5.851v-6.699h-5.851zM292.934 451.45h5.851v-6.699h-5.851zM282.794 451.45h5.851v-6.699h-5.851zM303.077 461.779h5.851v-6.699h-5.851zM292.934 461.779h5.851v-6.699h-5.851zM282.794 461.779h5.851v-6.699h-5.851zM303.077 472.108h5.851v-6.699h-5.851zM292.934 472.108h5.851v-6.699h-5.851zM282.794 472.108h5.851v-6.699h-5.851zM433.58 402.954h33.684v-5.022H433.58zM433.58 412.697h33.684v-5.022H433.58zM433.58 422.442h33.684v-5.022H433.58zM433.58 432.185h33.684v-5.022H433.58zM433.58 441.929h33.684v-5.022H433.58zM433.58 451.673h33.684v-5.022H433.58zM433.58 461.416h33.684v-5.022H433.58zM433.58 471.161h33.684v-5.022H433.58zM191.08 394.41h30.969v-5.022H191.08zM191.08 404.153h30.969v-5.022H191.08zM191.08 413.897h30.969v-5.022H191.08zM191.08 423.642h30.969v-5.022H191.08zM191.08 433.385h30.969v-5.022H191.08zM191.08 443.129h30.969v-5.022H191.08zM191.08 452.873h30.969v-5.022H191.08zM191.08 462.616h30.969v-5.022H191.08zM191.08 471.875h30.969v-5.022H191.08zM191.08 481.133h30.969v-5.022H191.08zM191.08 490.392h30.969v-5.022H191.08zM191.08 499.65h30.969v-5.022H191.08zM191.08 508.909h30.969v-5.022H191.08zM141.006 406.179h32.713v-5.022h-32.713zM141.006 415.923h32.713v-5.022h-32.713zM141.006 425.667h32.713v-5.022h-32.713zM141.006 435.411h32.713v-5.022h-32.713zM141.006 445.154h32.713v-5.022h-32.713zM141.006 454.899h32.713v-5.022h-32.713zM141.006 464.642h32.713v-5.022h-32.713zM141.006 474.386h32.713v-5.022h-32.713zM141.006 483.107h32.713v-5.022h-32.713zM141.006 491.828h32.713v-5.022h-32.713zM141.006 500.549h32.713v-5.022h-32.713zM338.148 386.923h10.401v-4.85h-10.401zM338.148 396.332h10.401v-4.85h-10.401zM338.148 405.743h10.401v-4.85h-10.401zM338.148 415.152h10.401v-4.85h-10.401zM338.148 424.562h10.401v-4.849h-10.401zM338.148 433.972h10.401v-4.85h-10.401zM338.148 443.381h10.401v-4.85h-10.401zM338.148 452.791h10.401v-4.85h-10.401zM323.994 386.923h10.402v-4.85h-10.402zM323.994 396.332h10.402v-4.85h-10.402zM323.994 405.743h10.402v-4.85h-10.402zM323.994 415.152h10.402v-4.85h-10.402zM323.994 424.562h10.402v-4.849h-10.402zM323.994 433.972h10.402v-4.85h-10.402zM323.994 443.381h10.402v-4.85h-10.402zM323.994 452.791h10.402v-4.85h-10.402zM405.83 354.812h10.838v-7.648H405.83zM389.675 354.812h10.837v-7.648h-10.837zM405.83 366.046h10.838v-7.648H405.83zM389.675 366.046h10.837v-7.648h-10.837zM405.83 377.281h10.838v-7.648H405.83zM389.675 377.281h10.837v-7.648h-10.837zM405.83 388.516h10.838v-7.648H405.83zM389.675 388.516h10.837v-7.648h-10.837zM405.83 399.75h10.838v-7.648H405.83zM389.675 399.75h10.837v-7.648h-10.837zM405.83 410.984h10.838v-7.648H405.83zM389.675 410.984h10.837v-7.648h-10.837zM405.83 422.22h10.838v-7.648H405.83zM389.675 422.22h10.837v-7.648h-10.837zM405.83 433.454h10.838v-7.648H405.83zM389.675 433.454h10.837v-7.648h-10.837zM369.649 377.281h10.837v-7.648h-10.837zM369.649 388.516h10.837v-7.648h-10.837zM369.649 399.75h10.837v-7.648h-10.837zM369.649 410.985h10.837v-7.648h-10.837zM369.649 422.22h10.837v-7.648h-10.837zM369.649 433.454h10.837v-7.648h-10.837zM405.83 444.555h10.838v-7.648H405.83zM389.675 444.555h10.837v-7.648h-10.837zM369.649 444.555h10.837v-7.648h-10.837zM405.83 455.656h10.838v-7.648H405.83zM389.675 455.656h10.837v-7.648h-10.837zM369.649 455.656h10.837v-7.648h-10.837zM405.83 466.756h10.838v-7.648H405.83zM389.675 466.756h10.837v-7.648h-10.837zM369.649 466.756h10.837v-7.648h-10.837zM405.83 477.858h10.838v-7.648H405.83zM389.675 477.858h10.837v-7.648h-10.837zM369.649 477.858h10.837v-7.648h-10.837zM405.83 488.958h10.838v-7.648H405.83zM389.675 488.958h10.837v-7.648h-10.837zM369.649 488.958h10.837v-7.648h-10.837zM271.766 364.779h5.851v-6.699h-5.851zM261.626 364.779h5.851v-6.699h-5.851zM271.766 374.858h5.851v-6.699h-5.851zM261.626 374.858h5.851v-6.699h-5.851zM271.766 384.936h5.851v-6.699h-5.851zM261.626 384.936h5.851v-6.699h-5.851zM271.766 395.016h5.851v-6.699h-5.851zM261.626 395.016h5.851v-6.699h-5.851zM271.766 405.344h5.851v-6.699h-5.851zM261.626 405.344h5.851v-6.699h-5.851zM271.766 415.673h5.851v-6.699h-5.851zM261.626 415.673h5.851v-6.699h-5.851zM271.766 426.003h5.851v-6.699h-5.851zM261.626 426.003h5.851v-6.699h-5.851zM271.766 436.331h5.851v-6.699h-5.851zM261.626 436.331h5.851v-6.699h-5.851zM271.766 446.77h5.851v-6.699h-5.851zM261.626 446.77h5.851v-6.699h-5.851zM271.766 457.208h5.851v-6.699h-5.851zM261.626 457.208h5.851v-6.699h-5.851zM271.766 467.646h5.851v-6.699h-5.851zM261.626 467.646h5.851v-6.699h-5.851zM271.766 478.085h5.851v-6.699h-5.851zM261.626 478.085h5.851v-6.699h-5.851zM128.887 367.061h5.851v-7.892h-5.851zM118.747 367.061h5.851v-7.892h-5.851zM128.887 378.935h5.851v-7.892h-5.851zM118.747 378.935h5.851v-7.892h-5.851zM128.887 390.81h5.851v-7.892h-5.851zM118.747 390.81h5.851v-7.892h-5.851zM128.887 402.684h5.851v-7.892h-5.851zM118.747 402.684h5.851v-7.892h-5.851zM128.887 414.853h5.851v-7.892h-5.851zM118.747 414.853h5.851v-7.892h-5.851zM128.887 427.021h5.851v-7.892h-5.851zM118.747 427.021h5.851v-7.892h-5.851zM128.887 439.19h5.851v-7.892h-5.851zM118.747 439.19h5.851v-7.892h-5.851zM128.887 451.358h5.851v-7.892h-5.851zM118.747 451.358h5.851v-7.892h-5.851zM128.887 463.656h5.851v-7.892h-5.851zM118.747 463.656h5.851v-7.892h-5.851zM128.887 475.954h5.851v-7.892h-5.851zM118.747 475.954h5.851v-7.892h-5.851zM128.887 488.251h5.851v-7.892h-5.851zM118.747 488.251h5.851v-7.892h-5.851zM128.887 500.549h5.851v-7.892h-5.851zM118.747 500.549h5.851v-7.892h-5.851zM250.079 364.779h5.851v-6.699h-5.851zM239.938 364.779h5.851v-6.699h-5.851zM250.079 354.444h5.851v-6.699h-5.851zM239.938 354.444h5.851v-6.699h-5.851zM250.079 344.11h5.851v-6.699h-5.851zM239.938 344.11h5.851v-6.699h-5.851zM250.079 374.858h5.851v-6.699h-5.851zM239.938 374.858h5.851v-6.699h-5.851zM250.079 384.936h5.851v-6.699h-5.851zM239.938 384.936h5.851v-6.699h-5.851zM250.079 395.016h5.851v-6.699h-5.851zM239.938 395.016h5.851v-6.699h-5.851zM250.079 405.344h5.851v-6.699h-5.851zM239.938 405.344h5.851v-6.699h-5.851zM250.079 415.673h5.851v-6.699h-5.851zM239.938 415.673h5.851v-6.699h-5.851zM250.079 426.003h5.851v-6.699h-5.851zM239.938 426.003h5.851v-6.699h-5.851zM250.079 436.331h5.851v-6.699h-5.851zM239.938 436.331h5.851v-6.699h-5.851zM250.079 446.77h5.851v-6.699h-5.851zM239.938 446.77h5.851v-6.699h-5.851zM250.079 457.208h5.851v-6.699h-5.851zM239.938 457.208h5.851v-6.699h-5.851zM250.079 467.646h5.851v-6.699h-5.851zM239.938 467.646h5.851v-6.699h-5.851zM250.079 478.085h5.851v-6.699h-5.851zM239.938 478.085h5.851v-6.699h-5.851z"/><path fill="#EBEBEB" d="M511.486 318.844H403.812s10.676-29.16 27.106-29.16 21.577 20.127 21.577 20.127 11.086-10.935 20.191-10.935c9.106 0 17.024 14.451 17.024 14.451s12.869-7.771 21.776 5.517M451.218 261.175H400.9s11.244-16.29 20.102-16.29 11.476 10.86 11.476 10.86 6.251-5.068 12.043-4.163 6.697 9.593 6.697 9.593M217.268 310.158h-98.012s13.422-29.965 27.78-31.838 21.225 22.266 21.225 22.266 9.26-8.532 16.543-8.532 12.902 11.237 12.902 11.237 14.568-7.699 19.562 6.867M310.417 236.03h-66.208s11.373-21.71 23.711-22.026 18.823 16.43 18.823 16.43 19.193-15.402 23.674 5.596"/><g filter="url(#h)"><path fill="#fff" d="M349.135 230.555c-103.497-20.368-142.414 45.316-148.936 80.704-1.863 7.286-.878 22.53 17.968 25.22 23.558 3.363 15.972 49.24 27.551 86.95 11.58 37.71 133.763 1.441 176.088-6.966s72.671-1.201 150.134-68.935-20.764-91.513-39.93-89.591c-19.166 1.921-53.505-1.922-182.875-27.382"/></g><g filter="url(#i)"><path fill="#fff" d="M379.174 8.128C275.678-12.241 236.76 53.444 230.238 88.832c-1.863 7.286-.878 22.53 17.968 25.22 23.558 3.363 15.972 49.24 27.551 86.95 11.58 37.71 133.763 1.441 176.088-6.966s72.671-1.201 150.134-68.935-20.763-91.513-39.93-89.591c-19.165 1.921-53.505-1.922-182.875-27.382"/></g><g filter="url(#j)"><path fill="#fff" d="M-95.72 257.017c-103.497-20.368-142.415 45.316-148.936 80.705-1.864 7.285-.879 22.53 17.968 25.22 23.558 3.363 15.971 49.239 27.551 86.949s133.763 1.441 176.088-6.965 72.67-1.201 150.133-68.935-20.763-91.513-39.929-89.592-53.505-1.921-182.876-27.382"/></g><g filter="url(#k)"><path fill="#fff" d="M445.402-65.465c-41.517-85.451-93.291-49.508-113.988-20.855-4.521 5.564-11.546 20.346-3.484 34.961 10.078 18.269-16.321 55.972-29.145 98.418-12.825 42.447 65.926 87.344 91.156 106.756 25.23 19.411 36.795 45.611 108.782 32.55s34.777-98.29 24.282-108.83-25.708-36.186-77.603-143"/></g><g filter="url(#l)"><path fill="#fff" d="M394.996 414.316c-111.474-16.333-153.392 36.339-160.416 64.716-2.007 5.843-.946 18.067 19.353 20.224 25.374 2.696 17.203 39.484 29.675 69.723 12.472 30.24 144.073 1.156 189.661-5.585s78.273-.963 161.706-55.278c83.434-54.315-22.363-73.383-43.007-71.842s-57.629-1.541-196.972-21.958"/></g><g filter="url(#m)"><path fill="#fff" d="M-147.842 102.489c-111.474-16.333-153.392 36.339-160.416 64.716-2.007 5.842-.946 18.067 19.353 20.224 25.374 2.696 17.203 39.484 29.675 69.723s144.074 1.156 189.661-5.585c45.588-6.742 78.273-.963 161.707-55.278s-22.364-73.383-43.008-71.843c-20.643 1.541-57.629-1.541-196.972-21.957"/></g><g filter="url(#n)"><path fill="#fff" d="M-47.713-50.563c-111.474-16.334-153.392 36.338-160.416 64.715-2.007 5.843-.946 18.067 19.353 20.224 25.374 2.697 17.203 39.484 29.675 69.724 12.472 30.239 144.074 1.155 189.66-5.586 45.588-6.741 78.274-.963 161.707-55.278 83.434-54.315-22.363-73.383-43.007-71.842s-57.63-1.541-196.972-21.957"/></g><g filter="url(#o)"><path fill="#fff" d="M356.594 484.836c-103.497-20.368-142.414 45.317-148.936 80.705-1.863 7.286-.878 22.53 17.968 25.22 23.558 3.363 15.972 49.239 27.551 86.949 11.58 37.71 133.763 1.441 176.088-6.965s72.671-1.201 150.134-68.935-20.764-91.513-39.93-89.592-53.505-1.921-182.875-27.382"/></g><g filter="url(#p)"><path fill="#fff" d="M384.895-37.645C281.398-58.013 242.481 7.67 235.959 43.059c-1.864 7.286-.879 22.53 17.968 25.22 23.558 3.363 15.972 49.24 27.551 86.95 11.58 37.71 133.763 1.441 176.088-6.966s72.671-1.201 150.133-68.935-20.763-91.513-39.929-89.591c-19.166 1.921-53.505-1.922-182.875-27.382"/></g><g clip-path="url(#q)"><path fill="#EA3934" stroke="#EA3934" d="M187.539 145.923c-2.261-.196-4.522-.34-6.783-.507-.746-.057-1.496-.057-2.241-.086-1.62-.063-3.239-.121-4.858-.184-.901-.035-1.805-.075-2.706-.104a34 34 0 0 0-.784-.011c-.588 0-1.175.011-1.763.017-2.67 0-5.344.011-8.015.011-.638 0-1.271.023-1.909.035-1.577.029-3.15.063-4.723.092-1.778.035-3.552.046-5.329.115-2.876.104-5.747.213-8.623.317-1.665.063-3.327.097-4.993.195-2.868.173-5.731.34-8.599.507-1.565.092-3.134.167-4.7.299-2.964.247-5.928.489-8.892.737-1.585.132-3.169.23-4.75.431l-8.854 1.122-1.913.242c-1.276.161-2.543.414-3.815.627a3 3 0 0 1-.24.046.9.9 0 0 0-.398.346c-.166.247-.262.592-.262.943s.096.697.263.95c.15.224.413.431.637.391 1.534-.259 3.065-.529 4.603-.725 1.426-.178 2.848-.362 4.275-.541l4.66-.587c.626-.08 1.253-.184 1.883-.236q3.635-.3 7.269-.593c1.511-.126 3.022-.247 4.533-.374.623-.051 1.249-.115 1.875-.155 2.4-.144 4.804-.276 7.204-.409 1.457-.08 2.91-.166 4.367-.247.491-.029.978-.063 1.469-.081q3.89-.136 7.779-.264c1.45-.052 2.895-.098 4.344-.15.514-.017 1.032-.046 1.546-.052l8.024-.121c1.669-.028 3.334-.051 5.004-.046 2.841.012 5.682.018 8.518.029.561 0 1.121.035 1.681.064l4.704.207 3.528.155c.835.035 1.666.127 2.501.196q3.682.292 7.358.627c.623.058 1.244.127 1.867.196a34 34 0 0 1 2.002.253q.155.035.309.086c.263.081.514.058.75-.144.216-.19.379-.506.448-.869.139-.759-.17-1.571-.68-1.784-.449-.184-.912-.259-1.372-.328-.317-.046-.63-.097-.947-.143-.607-.093-1.217-.139-1.824-.208-1.14-.126-2.284-.201-3.428-.299z"/></g><path fill="#191919" d="M97.406 111 92.5 93.315h2.806l3.446 13.696h.164l3.583-13.696h2.781l3.584 13.704h.164l3.436-13.704h2.816L110.367 111h-2.685l-3.722-13.246h-.138L100.1 111zm24.511.268q-1.96 0-3.377-.838-1.407-.846-2.176-2.375-.76-1.537-.76-3.601 0-2.038.76-3.592.769-1.554 2.142-2.426 1.381-.872 3.229-.872 1.123 0 2.176.37a5.3 5.3 0 0 1 1.892 1.167q.837.794 1.321 2.063.483 1.261.483 3.066v.915h-10.543v-1.934h8.013q0-1.019-.414-1.805a3.14 3.14 0 0 0-1.166-1.252q-.743-.457-1.744-.457-1.089 0-1.9.535a3.6 3.6 0 0 0-1.244 1.382 4 4 0 0 0-.431 1.839v1.511q0 1.33.466 2.262.475.933 1.321 1.425.846.484 1.978.484a4.1 4.1 0 0 0 1.338-.207 2.9 2.9 0 0 0 1.045-.639 2.8 2.8 0 0 0 .674-1.045l2.443.44a4.4 4.4 0 0 1-1.053 1.891q-.751.804-1.891 1.252-1.131.441-2.582.441m17.365-4.767-.017-3.152h.449l5.285-5.613h3.091l-6.027 6.39h-.406zM136.908 111V93.315h2.581V111zm8.376 0-4.75-6.304 1.779-1.804 6.14 8.108zm10.33.268q-1.96 0-3.377-.838-1.407-.846-2.176-2.375-.76-1.537-.76-3.601 0-2.038.76-3.592.768-1.554 2.142-2.426 1.381-.872 3.229-.872 1.123 0 2.176.37a5.3 5.3 0 0 1 1.891 1.167q.838.794 1.322 2.063.483 1.261.483 3.066v.915h-10.543v-1.934h8.013q0-1.019-.414-1.805a3.14 3.14 0 0 0-1.166-1.252q-.743-.457-1.745-.457-1.088 0-1.899.535-.803.527-1.244 1.382a4 4 0 0 0-.431 1.839v1.511q0 1.33.466 2.262a3.37 3.37 0 0 0 1.321 1.425q.846.484 1.977.484.735 0 1.339-.207a2.9 2.9 0 0 0 1.045-.639q.44-.424.673-1.045l2.444.44a4.4 4.4 0 0 1-1.053 1.891q-.752.804-1.892 1.252-1.13.441-2.581.441m14.271 0q-1.96 0-3.376-.838-1.407-.846-2.176-2.375-.76-1.537-.76-3.601 0-2.038.76-3.592.768-1.554 2.142-2.426 1.381-.872 3.229-.872a6.5 6.5 0 0 1 2.176.37 5.3 5.3 0 0 1 1.891 1.167q.838.794 1.321 2.063.484 1.261.484 3.066v.915h-10.544v-1.934h8.014q0-1.019-.415-1.805a3.13 3.13 0 0 0-1.165-1.252q-.743-.457-1.745-.457-1.087 0-1.899.535-.803.527-1.244 1.382a4 4 0 0 0-.432 1.839v1.511q0 1.33.467 2.262a3.37 3.37 0 0 0 1.321 1.425q.846.484 1.977.484.735 0 1.339-.207a2.9 2.9 0 0 0 1.045-.639q.44-.424.673-1.045l2.444.44a4.4 4.4 0 0 1-1.054 1.891q-.75.804-1.891 1.252-1.13.441-2.582.441m8.556 4.706V97.736h2.521v2.15h.216q.225-.414.648-.958.423-.545 1.174-.95.752-.414 1.986-.414 1.607 0 2.867.811 1.261.812 1.978 2.34.725 1.529.725 3.679t-.717 3.687q-.717 1.528-1.969 2.358-1.251.82-2.858.82-1.209 0-1.977-.406-.76-.405-1.192-.95a7 7 0 0 1-.665-.967h-.155v7.038zm2.53-11.606q0 1.399.406 2.453t1.174 1.649q.769.587 1.883.587 1.157 0 1.934-.613.777-.622 1.174-1.684.406-1.062.406-2.392 0-1.313-.397-2.357-.389-1.046-1.174-1.65-.778-.604-1.943-.604-1.123 0-1.9.578-.768.579-1.166 1.615t-.397 2.418M199.884 111V97.736h2.582V111zm1.304-15.31a1.64 1.64 0 0 1-1.157-.45 1.46 1.46 0 0 1-.475-1.087q0-.64.475-1.088a1.62 1.62 0 0 1 1.157-.458q.674 0 1.149.458.483.449.483 1.088 0 .63-.483 1.088-.475.45-1.149.449m10.943 2.046v2.073h-7.245v-2.073zm-5.302-3.178h2.582v12.548q0 .75.225 1.131.224.37.578.509.363.13.786.13a3 3 0 0 0 .544-.043q.232-.043.363-.07l.466 2.133q-.225.087-.639.173a5 5 0 0 1-1.036.104 4.6 4.6 0 0 1-1.9-.363 3.26 3.26 0 0 1-1.425-1.174q-.544-.795-.544-1.995zm20.181 16.71q-1.926 0-3.316-.872-1.381-.881-2.125-2.427-.742-1.546-.742-3.54 0-2.021.76-3.567.76-1.554 2.141-2.426t3.256-.872q1.51 0 2.694.56a4.8 4.8 0 0 1 1.908 1.555q.735 1.002.872 2.34h-2.512a3.02 3.02 0 0 0-.95-1.606q-.735-.673-1.969-.673-1.08 0-1.891.57-.804.56-1.252 1.606-.45 1.036-.449 2.452 0 1.45.44 2.504t1.244 1.632q.811.579 1.908.579.733 0 1.33-.268a2.7 2.7 0 0 0 1.01-.786q.414-.509.579-1.226h2.512a4.9 4.9 0 0 1-.837 2.297q-.7 1.01-1.874 1.589-1.166.579-2.737.579m10.792-17.953V111h-2.582V93.315zm9.19 17.953q-1.96 0-3.377-.838-1.407-.846-2.176-2.375-.76-1.537-.76-3.601 0-2.038.76-3.592.768-1.554 2.142-2.426 1.381-.872 3.229-.872 1.123 0 2.176.37a5.3 5.3 0 0 1 1.891 1.167q.838.794 1.322 2.063.483 1.261.483 3.066v.915h-10.543v-1.934h8.013q0-1.019-.414-1.805a3.14 3.14 0 0 0-1.166-1.252q-.743-.457-1.745-.457-1.088 0-1.899.535-.804.527-1.244 1.382a4 4 0 0 0-.432 1.839v1.511q0 1.33.467 2.262a3.37 3.37 0 0 0 1.321 1.425q.846.484 1.977.484.735 0 1.339-.207a2.9 2.9 0 0 0 1.045-.639q.44-.424.673-1.045l2.444.44a4.4 4.4 0 0 1-1.053 1.891q-.752.804-1.892 1.252-1.13.441-2.581.441m12.415.026q-1.262 0-2.28-.467a3.84 3.84 0 0 1-1.615-1.373q-.587-.897-.587-2.202 0-1.122.432-1.848a3.2 3.2 0 0 1 1.166-1.148 6 6 0 0 1 1.64-.639 16 16 0 0 1 1.848-.328l1.935-.225q.742-.095 1.079-.302t.337-.674v-.06q0-1.13-.639-1.753-.63-.621-1.883-.622-1.304 0-2.055.579-.743.57-1.027 1.269l-2.427-.552q.432-1.21 1.261-1.952a5.1 5.1 0 0 1 1.925-1.088 7.5 7.5 0 0 1 2.289-.345q.794 0 1.684.19.898.18 1.675.673.786.492 1.287 1.408.5.906.5 2.357V111h-2.521v-1.813h-.104a3.7 3.7 0 0 1-.751.984q-.501.483-1.287.803t-1.882.32m.561-2.073q1.07 0 1.831-.423.768-.423 1.166-1.105.405-.691.405-1.477v-1.71q-.138.138-.535.259a8 8 0 0 1-.889.199q-.502.078-.976.147-.476.06-.795.103-.75.095-1.373.32-.612.224-.984.648-.363.414-.363 1.105 0 .958.708 1.451.708.483 1.805.483m12.005-6.096V111h-2.582V97.736h2.479v2.16h.164a3.8 3.8 0 0 1 1.433-1.693q.985-.64 2.478-.64 1.356 0 2.375.57 1.019.562 1.58 1.676t.562 2.754V111h-2.582v-8.126q0-1.441-.752-2.254-.75-.82-2.063-.82-.899 0-1.598.389a2.8 2.8 0 0 0-1.097 1.14q-.396.742-.397 1.796m-163.644 21.19V142H105.1l-7.694-11.131h-.13V142h-3.739v-17.685h3.281l7.634 11.122h.155v-11.122zm9.013 17.944q-2.011 0-3.48-.855a5.86 5.86 0 0 1-2.254-2.4q-.794-1.546-.794-3.584 0-2.055.794-3.592a5.8 5.8 0 0 1 2.254-2.401q1.469-.863 3.48-.863 2.013 0 3.472.863a5.77 5.77 0 0 1 2.262 2.401q.794 1.537.794 3.592 0 2.038-.794 3.584a5.84 5.84 0 0 1-2.262 2.4q-1.46.855-3.472.855m.018-2.85q.915 0 1.528-.518.613-.527.924-1.433.32-.907.319-2.064 0-1.156-.319-2.064-.31-.906-.924-1.433-.613-.527-1.528-.527-.925 0-1.555.527-.621.527-.941 1.433-.31.907-.311 2.064 0 1.156.311 2.064.32.906.941 1.433.63.519 1.555.518m25.566-6.89-3.367.207a1.74 1.74 0 0 0-.372-.777 2 2 0 0 0-.751-.562q-.458-.216-1.097-.216-.855 0-1.442.363-.587.354-.587.95 0 .475.38.803t1.304.527l2.4.483q1.935.397 2.885 1.278.95.882.949 2.315 0 1.304-.768 2.288-.76.985-2.09 1.537-1.322.544-3.048.544-2.634 0-4.197-1.097-1.554-1.104-1.822-3.005l3.618-.19q.165.803.795 1.227.63.414 1.615.414.967 0 1.554-.371.596-.38.604-.976a1.01 1.01 0 0 0-.423-.82q-.414-.328-1.278-.501l-2.297-.458q-1.942-.388-2.892-1.347-.942-.959-.942-2.444 0-1.278.691-2.202.7-.924 1.96-1.425 1.27-.5 2.971-.5 2.512 0 3.955 1.062 1.45 1.062 1.692 2.893m2.619 14.455v-18.238h3.627v2.228h.164a4.9 4.9 0 0 1 .699-1.088 3.7 3.7 0 0 1 1.209-.932q.752-.38 1.865-.38 1.451 0 2.677.759 1.227.751 1.96 2.272.735 1.511.734 3.79 0 2.22-.716 3.748-.708 1.52-1.935 2.306-1.217.777-2.728.777-1.07 0-1.822-.354a3.8 3.8 0 0 1-1.218-.89 4.5 4.5 0 0 1-.725-1.096h-.113v7.098zm3.601-11.606q0 1.183.328 2.064.328.88.95 1.373.621.484 1.511.484.898 0 1.52-.493.621-.5.941-1.381.328-.89.328-2.047 0-1.149-.319-2.02-.32-.873-.942-1.365t-1.528-.492q-.898 0-1.52.475-.613.475-.941 1.347-.328.871-.328 2.055m15.569 6.882q-1.269 0-2.262-.44a3.65 3.65 0 0 1-1.572-1.321q-.57-.88-.57-2.194 0-1.104.406-1.856a3.3 3.3 0 0 1 1.105-1.209 5.4 5.4 0 0 1 1.589-.691 12 12 0 0 1 1.883-.328 49 49 0 0 0 1.865-.224q.708-.113 1.027-.329.32-.216.32-.639v-.051q0-.82-.518-1.27-.51-.449-1.451-.449-.993 0-1.58.441-.588.43-.777 1.088l-3.403-.277a4.6 4.6 0 0 1 1.019-2.089q.76-.89 1.961-1.365 1.209-.483 2.797-.483 1.105 0 2.116.259 1.019.258 1.805.803.794.543 1.252 1.399.458.846.458 2.029V142h-3.489v-1.839h-.104q-.32.621-.855 1.096a3.9 3.9 0 0 1-1.286.734q-.752.26-1.736.259m1.054-2.538q.812 0 1.433-.32.622-.328.976-.881t.354-1.252v-1.407a2 2 0 0 1-.475.207 9 9 0 0 1-.665.164q-.371.069-.743.13l-.673.095a4.5 4.5 0 0 0-1.131.302 1.8 1.8 0 0 0-.752.561q-.267.345-.267.864 0 .75.544 1.148.552.389 1.399.389m9.27 2.288v-13.264h3.505v2.34h.156q.414-1.165 1.381-1.839t2.315-.673q1.364 0 2.323.682a3.2 3.2 0 0 1 1.278 1.83h.138q.406-1.139 1.468-1.822 1.07-.69 2.53-.69 1.856 0 3.014 1.183 1.165 1.175 1.165 3.333V142h-3.67v-8.195q0-1.105-.587-1.658t-1.468-.552q-1.002 0-1.563.639-.561.63-.561 1.666v8.1h-3.566v-8.273q0-.975-.562-1.554-.552-.579-1.459-.578-.613 0-1.105.31a2.14 2.14 0 0 0-.769.855q-.285.544-.285 1.278V142zm25.806-2.418-.13.941a15 15 0 0 1-.44 2.159 34 34 0 0 1-.63 2.099 59 59 0 0 1-.527 1.537h-1.831q.113-.536.311-1.451a45 45 0 0 0 .389-2.029q.189-1.124.285-2.289l.086-.967zm9.797-10.846h2.581v14.128q0 1.329-.483 2.245a3.16 3.16 0 0 1-1.416 1.39q-.933.475-2.306.475h-.259q-.13 0-.268-.009v-2.219h.415q.915 0 1.321-.492.415-.484.415-1.408zm1.278-2.046q-.674 0-1.158-.449a1.46 1.46 0 0 1-.474-1.088q0-.64.474-1.088a1.63 1.63 0 0 1 1.158-.458q.673 0 1.148.458.484.449.484 1.088 0 .63-.484 1.088a1.6 1.6 0 0 1-1.148.449m13.179 9.809v-7.763h2.591V142h-2.539v-2.297h-.138q-.458 1.062-1.468 1.77-1.002.7-2.496.7-1.278 0-2.262-.562-.976-.57-1.537-1.683-.553-1.114-.553-2.755v-8.437h2.582v8.126q0 1.356.751 2.159.752.803 1.952.803.725 0 1.442-.363a3.04 3.04 0 0 0 1.2-1.096q.484-.734.475-1.866m15.999-4.524-2.34.414a2.8 2.8 0 0 0-.466-.855 2.3 2.3 0 0 0-.847-.665q-.536-.26-1.338-.259-1.097 0-1.831.492-.734.484-.734 1.252 0 .666.492 1.071.493.406 1.589.665l2.107.484q1.831.423 2.729 1.304.898.88.898 2.288 0 1.191-.691 2.124-.683.924-1.908 1.451-1.218.527-2.824.527-2.228 0-3.635-.95-1.408-.959-1.727-2.72l2.495-.38q.233.975.959 1.476.725.493 1.891.493 1.27 0 2.029-.527.76-.536.76-1.304 0-.622-.466-1.045-.458-.423-1.408-.639l-2.245-.492q-1.857-.423-2.746-1.347-.88-.924-.881-2.34 0-1.174.657-2.056.656-.88 1.813-1.373 1.157-.5 2.651-.5 2.15 0 3.385.932 1.235.924 1.632 2.479m9.289-3.239v2.073h-7.245v-2.073zm-5.302-3.177h2.582v12.547q0 .75.225 1.131.224.37.578.509.363.13.786.13.311 0 .544-.043t.363-.07l.466 2.133q-.225.087-.639.173a5 5 0 0 1-1.036.104 4.6 4.6 0 0 1-1.9-.363 3.26 3.26 0 0 1-1.425-1.174q-.544-.795-.544-1.995zm22.996 10.94v-7.763h2.591V142h-2.539v-2.297h-.138q-.459 1.062-1.468 1.77-1.002.7-2.496.7-1.278 0-2.262-.562-.976-.57-1.537-1.683-.553-1.114-.553-2.755v-8.437h2.582v8.126q0 1.356.751 2.159t1.952.803q.725 0 1.442-.363a3.05 3.05 0 0 0 1.2-1.096q.483-.734.475-1.866m6.06 10.475v-18.238h2.521v2.15h.216q.225-.414.648-.958t1.174-.95q.751-.414 1.986-.414 1.607 0 2.867.811t1.978 2.34q.725 1.529.725 3.679t-.717 3.687q-.717 1.529-1.969 2.358-1.251.82-2.858.82-1.209 0-1.977-.406-.76-.405-1.192-.95a7 7 0 0 1-.665-.967h-.155v7.038zm2.53-11.606q0 1.399.406 2.453.405 1.053 1.174 1.649.768.587 1.883.587 1.157 0 1.934-.613.777-.622 1.174-1.684.406-1.062.406-2.392 0-1.313-.397-2.357-.389-1.046-1.175-1.65-.777-.604-1.942-.604-1.123 0-1.9.578-.769.579-1.166 1.615t-.397 2.418m17.443 6.891q-1.606 0-2.867-.82-1.252-.83-1.969-2.358-.708-1.537-.708-3.687t.717-3.679q.724-1.529 1.986-2.34 1.26-.811 2.858-.811 1.235 0 1.986.414.76.406 1.175.95.423.544.656.958h.155v-6.571h2.582V142h-2.521v-2.064h-.216q-.233.424-.674.967-.431.545-1.191.95-.76.406-1.969.406m.57-2.202q1.114 0 1.882-.587.777-.596 1.175-1.649.406-1.054.406-2.453 0-1.381-.398-2.418-.397-1.036-1.165-1.615-.77-.578-1.9-.578-1.166 0-1.943.604-.777.605-1.174 1.65-.389 1.044-.389 2.357 0 1.33.397 2.392t1.175 1.684q.785.613 1.934.613m13.546 2.237q-1.26 0-2.279-.467a3.83 3.83 0 0 1-1.615-1.373q-.587-.897-.587-2.202 0-1.122.432-1.848a3.2 3.2 0 0 1 1.165-1.148 6.1 6.1 0 0 1 1.641-.639q.906-.216 1.848-.328l1.934-.225q.743-.095 1.08-.302.336-.207.336-.674v-.06q0-1.13-.639-1.753-.63-.621-1.882-.622-1.303 0-2.055.579-.743.57-1.028 1.269l-2.426-.552q.431-1.21 1.26-1.952a5.1 5.1 0 0 1 1.926-1.088 7.5 7.5 0 0 1 2.288-.345q.795 0 1.684.19.898.18 1.675.673.786.492 1.287 1.408.501.906.501 2.357V142h-2.522v-1.813h-.103a3.7 3.7 0 0 1-.751.984q-.501.483-1.287.803t-1.883.32m.562-2.073q1.071 0 1.83-.423.769-.424 1.166-1.105.406-.691.406-1.477v-1.71q-.138.138-.535.259a8 8 0 0 1-.89.199q-.5.078-.976.147l-.794.103q-.752.095-1.373.32-.614.224-.984.648-.363.414-.363 1.105 0 .958.708 1.451.708.483 1.805.483m15.614-11.485v2.073h-7.245v-2.073zm-5.302-3.177h2.582v12.547q0 .75.225 1.131.224.37.578.509.363.13.786.13.311 0 .544-.043t.363-.07l.466 2.133q-.225.087-.639.173a5 5 0 0 1-1.036.104 4.6 4.6 0 0 1-1.9-.363 3.26 3.26 0 0 1-1.425-1.174q-.543-.795-.544-1.995zm13.732 16.709q-1.96 0-3.376-.838-1.407-.846-2.176-2.375-.76-1.536-.76-3.601 0-2.038.76-3.592.768-1.554 2.142-2.426 1.381-.873 3.229-.872 1.123 0 2.176.371a5.25 5.25 0 0 1 1.891 1.166q.838.794 1.322 2.063.483 1.262.483 3.066v.915h-10.544v-1.934h8.014q0-1.019-.415-1.805a3.13 3.13 0 0 0-1.165-1.252q-.743-.458-1.745-.458-1.088 0-1.899.536-.803.527-1.244 1.382a4 4 0 0 0-.432 1.839v1.511q0 1.33.467 2.262a3.37 3.37 0 0 0 1.321 1.425q.846.484 1.977.484.735 0 1.339-.207a2.9 2.9 0 0 0 1.045-.639q.44-.424.673-1.045l2.444.44a4.4 4.4 0 0 1-1.053 1.891q-.752.804-1.892 1.252-1.13.441-2.582.441m18.495-10.293-2.34.414a2.8 2.8 0 0 0-.466-.855 2.3 2.3 0 0 0-.847-.665q-.535-.26-1.338-.259-1.096 0-1.831.492-.734.484-.734 1.252 0 .666.492 1.071.493.406 1.589.665l2.107.484q1.831.423 2.729 1.304.898.88.898 2.288 0 1.191-.691 2.124-.683.924-1.908 1.451-1.218.527-2.824.527-2.228 0-3.635-.95-1.408-.959-1.727-2.72l2.495-.38q.233.975.959 1.476.725.493 1.891.493 1.27 0 2.029-.527.76-.536.76-1.304 0-.622-.466-1.045-.458-.423-1.408-.639l-2.245-.492q-1.857-.423-2.746-1.347-.88-.924-.881-2.34 0-1.174.657-2.056.656-.88 1.813-1.373 1.157-.5 2.651-.5 2.15 0 3.385.932 1.234.924 1.632 2.479m4.799 10.189q-.708 0-1.218-.501a1.67 1.67 0 0 1-.509-1.226q0-.708.509-1.209.51-.51 1.218-.509.708 0 1.218.509.509.501.509 1.209 0 .475-.242.872a1.8 1.8 0 0 1-.621.622q-.39.233-.864.233"/><g clip-path="url(#r)"><path fill="#414C5B" d="M85.69 542.9c1.52 1.54 3.08 3.03 4.68 4.48 8.5 7.78 17.92 14.46 27.99 19.76 1.51.79 3.02 1.55 4.56 2.27 2.2 1.05 4.42 2.03 6.67 2.95l5.25-29.7v-.05l.01-.01.85-5.21.25 5.21v.1l1.6 32.59c1.31.44 2.61.85 3.93 1.22.69.21 1.39.4 2.09.59 1.61.44 3.22.83 4.85 1.2 2.27.52 4.56.97 6.85 1.33 3.36.56 6.74.95 10.15 1.18.31.04.63.05.94.07.97.06 1.95.11 2.91.15 2.89.12 5.77.12 8.64.05-.8-12.78-1.68-26.36-2.49-38.46-.07-1.4-.17-2.78-.25-4.12-.54-8.24-1.04-15.62-1.43-21.32H85.75l.02 1.58.13 15.52-.21 8.33-.01.29z"/><path fill="#343C4B" d="m135.691 537.4.25 5.21v.1l1.6 32.59c1.31.44 2.61.85 3.93 1.22l-2.84-33.89-1.38-16.45-1.56 11.23zM85.69 542.9c1.52 1.54 3.08 3.03 4.68 4.48l.05-4.76.24-25.44h-4.91l.02 1.58.13 15.52-.21 8.33-.01.29z"/><path fill="#F69D98" d="M228.18 419s-2.33-5.51-5.29-5.72c-2.97-.21 1.27 13.99 1.27 13.99zM228.481 451.48l14.65-11.08 3.369-13.13h-22.339l-3.07 10.31-4.8 4.87z"/><path fill="#414C5B" d="m244.22 403.56 6.52 4.59-1.15 1.3-6.46-4.88z"/><path fill="#fff" d="M231.52 451.92 217.15 441l-29.53 26.99-.6-11.9-19.72 1.46-.24 38.28s3.25 10.63 17.01 8.17c10.77-1.93 47.45-52.08 47.45-52.08"/><path fill="#EA3934" d="M160.857 395.58s9.18 6.72 14.95 13.24 15.24 50.4 15.24 50.4l-23.79 4.45z"/><path fill="#EA3934" d="M79.106 401.63c.24 6.64 1.24 35.53 2.27 65.35.64 18.77 1.31 37.9 1.78 52.11.42 12.63.7 21.36.7 22.43v.12q.33.345.69.69h90.94c-.1-5.81-1.43-21.15-3.25-39.85-1.18-12.15-2.57-25.72-3.98-39-.1-.87-.18-1.74-.28-2.61-.12-1.23-.25-2.47-.39-3.69-.51-4.75-1-9.44-1.5-13.96-2.57-23.9-4.77-43.52-5.17-47.07-.04-.37-.06-.57-.06-.57-2.88-1.61-21.42-8.58-21.42-8.58l-5.52.08-16.67.25-11.31.17-.79.37-18.11 8.55h-.01c-.27.18-3.67 2.27-7.93 5.2z"/><path fill="#fff" d="m114.091 384.56-8.29 3.23s10.51 17.81 24.06 24.71l6.46-9.33 8.22 5.33-4.2-21.22-5.7-4.15-20.53 1.43z"/><path fill="#F69D98" d="M114.091 384.56c.48.48 21.35 15.92 21.35 15.92s-.48-9.52-.71-14.47c-.07-1.54-.11-2.63-.11-2.88 0-1.98 1.69-10.57 1.69-10.57l-21.07-9.63s-.33 4.34-.66 9.14c-.39 5.78-.76 12.23-.5 12.49z"/><path fill="#A04F39" d="M114.591 372.08c5.85 4.25 18.74 13.55 20.03 13.91.04 0 .08.02.11.02-.07-1.54-.11-2.63-.11-2.88 0-1.98 1.69-10.57 1.69-10.57l-21.07-9.63s-.33 4.34-.66 9.14z" opacity=".4"/><path fill="#F69D98" d="M112.36 363.67s.53 1.52 2.88 3.6c.48.43 1.04.88 1.69 1.35 2.47 1.77 25.61 11.69 29.17 11.21s6.92-12.73 7.11-14.01c1.15-7.9 4.3-32.33 4.3-32.33-8.79-26.62-40.16-12.83-43.73-10.22s-1.43 40.4-1.43 40.4z"/><path fill="#E1836C" d="M115.251 367.28c.48.43 1.04.88 1.69 1.35 2.47 1.77 25.61 11.69 29.17 11.21s6.92-12.73 7.11-14.01c-2.22 5.38-4.73 12.82-7.25 12.58-3.8-.36-27.91-9.65-30.72-11.13" opacity=".4"/><path fill="#343C4B" d="M153.711 340.78s-1.39-6.98-4.51-5.97-2.25 1.69-2.25 1.69zM121.51 334.01s9.28-7.59 11.91-3.88c1.53 2.17.03 3.21.03 3.21zM151.852 348.23c0 1.85-.94 3.36-2.09 3.36s-2.09-1.5-2.09-3.36.94-3.36 2.09-3.36 2.09 1.5 2.09 3.36M134.23 348.17c-1.1-1.73-3.09-3.01-5.31-3.42s-4.63.06-6.43 1.26c1.34-2.22 4.17-3.72 6.98-3.21s4.54 2.87 4.76 5.38z"/><path fill="#fff" d="M153.641 346.6s-.73.99-1.94 1.48c-1.2.49-2.42.29-2.42.29s.73-.99 1.94-1.48c1.2-.49 2.42-.29 2.42-.29"/><path fill="#A04F39" d="M131.01 367.34c2.1 1.06 4.67 1.13 6.83.2-.75 1.09-1.8 1.74-3.12 1.69s-2.81-.91-3.71-1.89" opacity=".4"/><path fill="#F9B1AD" d="M149.79 358.5c.36.97 2.47 1.09 4.7.25s3.75-2.3 3.38-3.28c-.36-.97-2.47-1.09-4.7-.25s-3.75 2.3-3.38 3.28M121.71 353.95c-.38 1.47 2.04 3.37 5.4 4.24 3.37.87 6.4.39 6.78-1.08s-2.04-3.37-5.4-4.24c-3.37-.87-6.4-.39-6.78 1.08"/><path fill="#A04F39" d="M126.071 360.74s.15.2.4.55c.25.36.67.83 1.25 1.38 1.14 1.08 3.03 2.33 5.41 2.93 2.38.59 4.64.39 6.15-.03.76-.21 1.36-.43 1.75-.62s.61-.29.61-.29-.24.04-.66.12c-.42.09-1.04.17-1.79.23-1.51.12-3.59.03-5.78-.52-2.19-.56-4.07-1.45-5.34-2.28-.64-.41-1.14-.77-1.47-1.05-.33-.27-.53-.42-.53-.42" opacity=".4"/><path fill="#F9B1AD" d="M143.711 355.05c-1.3.68-2.78 1.02-4.25.97-1.02-.03-2.13-.32-2.7-1.17-.41.87-.04 2.01.69 2.64.73.62 1.74.83 2.71.8.93-.03 1.87-.29 2.62-.85s.92-1.46.93-2.39"/><path fill="#A04F39" d="M141.67 344.02a7.55 7.55 0 0 0-1.75 4.77c0 1.73.6 3.45 1.7 4.79.5.61 1.13 1.2 1.27 1.98.19 1.12-.77 2.18-1.86 2.5s-2.26.1-3.38-.12c1.01.39 2.04.7 3.12.66s2.18-.42 2.93-1.21c.74-.79 1.07-2 .65-3-.34-.81-1.07-1.36-1.66-2.01-1.93-2.11-2.52-5.93-1.01-8.36z" opacity=".4"/><path fill="#343C4B" d="M104.08 333.67c.1 1.8.421 3.81.921 5.81.51 2.16 1.209 4.32 1.989 6.08a14.54 14.54 0 0 1 6.85 6.93c-1.26-7.71-.3-15.88 3.03-22.95 7.02-.6 14.21-2.77 20.49-5.92 9.3 2.88 17.27 9.84 21.39 18.66 1.41-3.37 2.56-6.92 3.11-10.52.25-1.62.36-3.23.33-4.86-.11-5.29-1.95-10.74-5.84-14.33-5.56-5.14-13.48-3.48-13.48-3.48s-6.02-4.34-14.5-4.34c-5.33 0-13.22 4.03-15.66 8.77-1.43-1.47-2-3.32-2.18-5.32-1.7.55-3.19 1.99-3.37 3.56-.45 3.89.77 5.62 1.95 6.81-2.56 1.22-4.3 2.16-4.99 4.92 1.41-.32 2.89-.3 4.3.05-3.11 2.04-4.539 6.41-4.33 10.13z"/><path fill="#414C5B" d="M104.08 333.67c.1 1.8.421 3.81.921 5.81.36.1.739.19 1.109.26-.04-2.01.73-4.03 2.1-5.52.29 1.49 1.15 2.88 2.37 3.78-1.23-3.23-.99-7 .66-10.04 1.64-3.06 4.66-5.33 8.04-6.08-1.07 1.29-2.14 2.56-3.21 3.85 9.14-.56 18.06-4.26 24.93-10.32 8.17 3.62 15.39 9.3 20.86 16.36.25-1.62.36-3.23.33-4.86-.04-1.71-.25-3.44-.66-5.11-.85-3.51-2.55-6.8-5.18-9.22-4.01-3.7-9.24-3.88-11.85-3.69-1.01.07-1.63.21-1.63.21s-1.45-1.04-3.95-2.11c-2.56-1.11-6.23-2.23-10.55-2.23-5.33 0-13.22 4.03-15.66 8.77-1.43-1.47-2-3.32-2.18-5.32-1.7.55-3.19 1.99-3.37 3.56-.45 3.89.77 5.62 1.95 6.81-2.56 1.22-4.3 2.16-4.99 4.92 1.41-.32 2.89-.3 4.3.05-2.01 1.33-3.32 3.63-3.93 6.1-.34 1.33-.469 2.73-.4 4.03z"/><path fill="#495969" d="M144.49 308.88c4.12 5.95 10.19 10.56 17.03 12.91-.85-3.51-2.55-6.8-5.18-9.22-4.01-3.7-9.24-3.88-11.85-3.69M104.47 329.64c.71-.4 1.44-.75 2.18-1.07.1.97.19 1.95.29 2.92 3.33-8.88 10.46-16.28 19.21-19.95-.14 2.44-.71 4.85-1.67 7.1 5.62-2.71 10.59-6.74 14.43-11.66-2.56-1.11-6.23-2.23-10.55-2.23-5.33 0-13.22 4.03-15.66 8.77-1.43-1.47-2-3.32-2.18-5.32-1.7.55-3.19 1.99-3.37 3.56-.45 3.89.77 5.62 1.95 6.81-2.56 1.22-4.3 2.16-4.99 4.92 1.41-.32 2.89-.3 4.3.05-2.01 1.33-3.32 3.63-3.93 6.1z"/><path fill="#E1836C" d="M115.77 364.61c-4.77-.38-8.23-3.2-10.09-5.57-.42-.53-.75-1.04-1-1.5-1.36-2.47-1.75-11.03 1.75-13.02 2.46-1.39 4.24.63 5.09 1.96.36.57.55 1.02.55 1.02l3.7 17.1z"/><path fill="#F69D98" d="M115.77 364.61c-4.77-.38-8.23-3.2-10.09-5.57q-.24-.36-.42-.69c-1.36-2.47-1.75-11.03 1.75-13.01 1.99-1.13 3.54-.02 4.51 1.15.36.57.55 1.02.55 1.02z"/><path fill="#F9B1AD" d="M105.319 351.33c-.18.68-.06 1.4.16 2.07.96 2.87 3.83 5.06 6.57 7.1a7.2 7.2 0 0 1-.96-4.5c.06-.53.17-1.06.18-1.6.02-2.15-4.91-7.12-5.95-3.08z"/><path fill="#A04F39" d="M113.429 361.32s-.05-.03-.16-.09c-.1-.06-.26-.14-.44-.26a6.2 6.2 0 0 1-1.35-1.22 5.4 5.4 0 0 1-1.11-2.28c-.19-.92-.15-1.99.35-3.02.05-.13.13-.25.2-.38l.05-.09v-.03l-.05-.08-.09-.16c-.06-.11-.13-.22-.19-.32-.26-.42-.54-.82-.83-1.18-.29-.37-.59-.71-.88-1.01-.3-.31-.58-.59-.87-.81-.28-.22-.6-.35-.89-.39-.29-.03-.57.03-.76.13-.19.09-.29.22-.34.31s-.04.15-.05.14c0 0-.01-.05 0-.15.02-.1.09-.25.28-.39s.48-.26.87-.27c.39 0 .8.13 1.18.34s.71.48 1.07.77a10.767 10.767 0 0 1 2.04 2.2c.08.11.15.22.22.33l.11.17.14.24.1.17c-.02.06-.06.11-.09.17l-.14.24c-.06.11-.13.21-.17.33-.43.89-.52 1.83-.44 2.67.1.84.38 1.59.73 2.18s.74 1.03 1.04 1.32c.15.15.28.25.36.32s.13.11.13.11z" opacity=".4"/><path fill="#191919" d="M158.7 406.14c-.27-1-1.8-.58-1.55.43 4.5 17.81 7.76 35.88 10.52 54.03.15.97 1.84.75 1.72-.23-2.12-18.36-5.92-36.38-10.7-54.22z" opacity=".18"/><path fill="#F69D98" d="m125.021 474.22 1.92 2.97 6.36 9.87 4.55-3.3 4.1.41c2.96-.1 27.28-13.58 26.87-15.39-.1-.49-.27-1.01-.45-1.52-.29-.77-.6-1.48-.82-1.96l-.29-.55s.11-1.03.08-2.23c0-.36-.01-.73-.05-1.08-.04-.37-.1-.73-.16-1.06-.15-.7-.42-1.27-.85-1.48-.42-.21-2.16.1-4.41.62-5.56 1.3-14.25 3.93-14.05 3.29.29-.89 17.43-11.28 17.43-11.28s.14-.62-.01-1.43c-.1-.48-.29-1.04-.67-1.59-1.01-1.45-26.91 9.67-27.68 9.99 1.99-4.14 2.54-8.99 1.48-13.48-.01-.04-.03-.08-.03-.12-.1-.29-.22-.6-.44-.78-.04-.03-.08-.05-.12-.08s-.1-.04-.14-.05c-.19-.04-.38-.01-.56.04-1.19.33-2.15 1.19-2.84 2.25-.23.34-.42.71-.6 1.08-.08.19-.16.37-.23.56 0 0 .01 0 0 .01-.16.38-.29.77-.4 1.15-.25.79-.44 1.59-.67 2.37-.05.21-.11.4-.18.59-.12.38-.26.74-.41 1.11-.47 1.08-1.06 2.08-1.71 3.04 0 0 .01 0 0 .01-.89 1.29-1.9 2.49-2.91 3.7-.32.38-.59.82-.79 1.29-.22.47-.4.96-.52 1.48-.48 1.88-.42 4.03-.21 5.89.04.27.07.53.11.79.04.34.1.67.16.97 0 .07.01.14.03.19.08.47.18.89.26 1.26.01.05.03.12.04.18.1.37.16.69.23.89.05.23.1.36.1.36s-.01 0-.03.01c-.14.1-.73.48-1.48 1z"/><path fill="#E89189" d="M167.332 462.52c-.48.21-.97.42-1.47.61a44.6 44.6 0 0 1-7.74 2.23c-1.91.36-3.16.48-3.31.49.13-.07 1.24-.67 2.97-1.5 1.86-.89 4.41-2.07 7.29-3.2.7-.27 1.38-.52 2.04-.77.15.65.21 1.42.21 2.13zM168.352 467.26c-4.62 1.92-8.65 2.65-8.91 2.69.21-.16 3.52-2.59 8.09-4.65.22.47.54 1.18.82 1.96"/><path fill="#D47E72" d="m125.02 474.22 1.92 2.97s.03-.01.04-.03c.37-.25.75-.51 1.1-.81.26-.26.51-.52.69-.85.47-.88.37-1.93.23-2.9-.41-3.19-1.11-6.45-.33-9.58.92-3.67 3.75-6.55 5.34-10 1.14-2.51 1.7-5.4 3.58-7.41.22-.23.48-.47.74-.71-.1-.29-.22-.6-.44-.78-.04-.03-.08-.05-.12-.08s-.1-.04-.14-.05c-.19-.04-.38-.01-.56.04-1.19.33-2.15 1.19-2.84 2.25-.22.34-.42.71-.59 1.08-.08.18-.16.37-.25.56 0 0 .01 0 0 .01-.14.37-.27.75-.4 1.15-.23.79-.44 1.59-.67 2.37-.05.21-.11.4-.18.59-.12.38-.26.74-.41 1.11-.45 1.07-1.04 2.07-1.71 3.04 0 0 .01 0 0 .01-.88 1.29-1.89 2.49-2.89 3.7-.32.38-.59.82-.81 1.29s-.38.96-.52 1.48c-.47 1.88-.42 4.03-.21 5.89.04.27.07.53.11.79.05.34.11.67.16.97 0 .07.01.14.03.19.1.47.18.89.26 1.26.01.05.03.12.04.18.1.37.16.69.23.89.05.23.1.36.1.36s-.01 0-.03.01c-.14.1-.73.48-1.48 1z" opacity=".4"/><path fill="#EA3934" d="m97.188 464.95-15.8 2.04-20.69 2.69s-2.1-45.88.99-52.82c1.77-3.99 10.66-10.62 17.43-15.22 4.25-2.92 7.66-5.02 7.92-5.18h.01l6 43.78 4.14 24.72z"/><path fill="#191919" d="M89.15 415.66c-.07-.21-.37-.12-.33.09 2.87 16.11 5.03 32.13 4.76 48.53-.02 1.34 2.05 1.34 2.08 0 .27-16.44-1.33-32.94-6.51-48.62" opacity=".18"/><path fill="#fff" d="m89.54 466.34-.72 22.49 35.401-17.99 12.09 19.36s-54.11 37.68-65.93 30.15c-7.57-5.31-6.27-50.71-6.27-50.71z"/><path fill="#476CA3" d="M285.909 377.778h-41.538l15.232 13.777v13.678h27.606v-27.455z"/><path fill="#fff" d="M247.904 377.778v3.196l.258.233v-3.429zM287.209 381.832v-.258h-3.786v-3.796h-.257v3.796h-3.658v-3.796h-.257v3.796h-3.664v-3.796h-.258v3.796h-3.657v-3.796h-.258v3.796h-3.657v-3.796h-.258v3.796h-3.664v-3.796h-.257v3.796h-3.664v-3.796h-.258v3.796h-3.657v-3.796h-.258v3.796h-3.657v-3.796h-.258v3.796h-3.258l.286.258h2.973v2.689l.257.233v-2.922h3.658v3.667h-2.834l.285.258h2.549v2.305l.257.233v-2.538h3.658v3.674h-2.402l.285.258h2.117v3.673h-.053v.258h.053v3.667h-.053v.258h.053v3.667h-.053v.259h.053v3.762h.257v-3.762h3.664v3.762h.258v-3.762h3.664v3.762h.257v-3.762h3.658v3.762h.257v-3.762h3.658v3.762h.257v-3.762h3.664v3.762h.258v-3.762h3.657v3.762h.258v-3.762h3.786v-.259h-3.786v-3.667h3.786v-.258h-3.786v-3.667h3.786v-.258h-3.786v-3.673h3.786v-.258h-3.786v-3.674h3.786v-.258h-3.786v-3.667zm-27.552 3.667h-3.658v-3.667h3.658zm3.921 15.713h-3.664v-3.667h3.664zm0-3.925h-3.664v-3.667h3.664zm0-3.925h-3.664v-3.673h3.664zm0-3.931h-3.664v-3.674h3.664zm0-3.932h-3.664v-3.667h3.664zm3.922 15.713h-3.664v-3.667h3.664zm0-3.925h-3.664v-3.667h3.664zm0-3.925h-3.664v-3.673h3.664zm0-3.931h-3.664v-3.674h3.664zm0-3.932h-3.664v-3.667h3.664zm3.914 15.713h-3.657v-3.667h3.657zm0-3.925h-3.657v-3.667h3.657zm0-3.925h-3.657v-3.673h3.657zm0-3.931h-3.657v-3.674h3.657zm0-3.932h-3.657v-3.667h3.657zm3.915 15.713h-3.657v-3.667h3.657zm0-3.925h-3.657v-3.667h3.657zm0-3.925h-3.657v-3.673h3.657zm0-3.931h-3.657v-3.674h3.657zm0-3.932h-3.657v-3.667h3.657zm3.922 15.713h-3.664v-3.667h3.664zm0-3.925h-3.664v-3.667h3.664zm0-3.925h-3.664v-3.673h3.664zm0-3.931h-3.664v-3.674h3.664zm0-3.932h-3.664v-3.667h3.664zm3.915 15.713h-3.658v-3.667h3.658zm0-3.925h-3.658v-3.667h3.658zm0-3.925h-3.658v-3.673h3.658zm0-3.931h-3.658v-3.674h3.658zm0-3.932h-3.658v-3.667h3.658z"/><path fill="#E6E7E8" d="m228.084 363.046-31.512 28.195v42.093h63.031v-41.779z"/><path fill="#fff" d="M221.227 376.645v16.89h13.33v-16.89z"/><path fill="#476CA3" d="M233.427 377.778h-11.07v14.623h11.07z"/><path fill="#36478A" d="M192.505 394.879 191 393.188 228.091 360l36.697 33.192-1.515 1.683-35.19-31.829z"/><path fill="#36478A" d="M223.488 391.268v-12.356h9.939v-1.134h-11.07v14.623h1.131z"/><path fill="#fff" d="M234.557 382.52h-13.33v1.134h13.33z"/><path fill="#36478A" d="M233.427 383.653h-11.07v1.134h11.07z"/><path fill="#D1D3D4" d="M259.603 414.793h-63.031v18.54h63.031zM228.084 363.046l-31.512 28.195v1.959l31.512-28.196 31.519 28.51v-1.959z"/><path fill="#fff" d="M205.857 405.233v16.89h13.331v-16.89z"/><path fill="#476CA3" d="M218.058 406.366h-11.07v14.624h11.07z"/><path fill="#36478A" d="M208.119 419.856V407.5h9.939v-1.134h-11.07v14.624h1.131z"/><path fill="#36478A" d="M218.058 412.242h-11.07v1.133h11.07z"/><path fill="#fff" d="M219.188 411.108h-13.331v1.134h13.331zM236.982 405.233v16.89h13.331v-16.89z"/><path fill="#476CA3" d="M249.183 406.366h-11.07v14.624h11.07z"/><path fill="#36478A" d="M239.244 419.856V407.5h9.939v-1.134h-11.07v14.624h1.131z"/><path fill="#36478A" d="M249.183 412.242h-11.07v1.133h11.07z"/><path fill="#fff" d="M250.313 411.108h-13.331v1.134h13.331z"/><path fill="#BCBEC0" d="M259.603 429.482h-63.031v3.852h63.031z"/><path fill="#D1D3D4" d="M273.278 405.233h-13.674v28.101h13.674zM283.927 405.233h-2.474v28.101h2.474z"/><path fill="#BCBEC0" d="M284.564 429.482h-24.96v3.852h24.96zM284.564 420.99h-24.96v1.133h24.96z"/><path fill="#BCBEC0" d="M260.855 425.326h-1.251v8.008h1.251zM265.597 425.326h-1.251v8.008h1.251zM270.339 425.326h-1.251v8.008h1.251zM275.079 425.326h-1.251v8.008h1.251zM279.822 425.326h-1.252v8.008h1.252zM284.562 425.326h-1.251v8.008h1.251z"/><path fill="#BCBEC0" d="M260.562 420.99h-.669v8.008h.669zM265.304 420.99h-.669v8.008h.669zM270.046 420.99h-.669v8.008h.669zM274.789 420.99h-.67v8.008h.67zM279.521 420.99h-.669v8.008h.669zM284.263 420.99h-.669v8.008h.669z"/><path fill="#79C89F" d="M204.714 433.334a6.8 6.8 0 0 0 1.365-4.1c0-3.77-3.048-6.826-6.808-6.826s-6.808 3.056-6.808 6.826c0 1.538.508 2.958 1.365 4.1z"/><path fill="#98D09E" d="M207.8 433.334c.571-.761.91-1.707.91-2.733a4.54 4.54 0 0 0-4.537-4.548 4.543 4.543 0 0 0-4.536 4.548c0 1.026.338 1.972.91 2.733zM286.2 433.334c.454-.606.724-1.36.724-2.176a3.62 3.62 0 0 0-3.613-3.623 3.62 3.62 0 0 0-3.614 3.623c0 .816.27 1.57.725 2.176zM265.972 433.334a9.26 9.26 0 0 0 1.855-5.572c0-5.124-4.142-9.277-9.252-9.277s-9.253 4.153-9.253 9.277a9.25 9.25 0 0 0 1.856 5.572z"/><path fill="#79C89F" d="M254.847 433.334a5.47 5.47 0 0 0 1.098-3.296 5.48 5.48 0 0 0-5.473-5.486c-3.022 0-5.472 2.456-5.472 5.486 0 1.237.409 2.378 1.097 3.296z"/><path fill="#36478A" d="M287.209 405.233h-27.605v1.291h27.605z"/><path fill="#F69D98" d="M240.43 442.07s4.301-1.303 3.07-4.516c-1.22-3.222-4.288-6.892-5.636-6.208s-1.303 10.157-1.303 10.157l3.868.577z"/><path fill="#F69D98" d="M243.616 439.635s5.22-2.183 3.999-5.394c-1.22-3.222-4.288-6.892-5.636-6.208s-1.303 10.157-1.303 10.157l2.938 1.455z"/><path fill="#F69D98" d="M247.493 435.505s5.22-2.183 3.999-5.395c-1.22-3.221-4.288-6.891-5.636-6.207s-1.303 10.156-1.303 10.156l2.938 1.456z"/><path fill="#F69D98" d="M249.191 433.482s5.659-4.032 5.408-6.323c-.24-2.289-3.478-5.578-4.516-4.955-1.036.613-.176 8.285-.176 8.285l-1.782 1.868z"/></g><path fill="#fff" d="M331.781 213H200.255a5.26 5.26 0 0 0-5.255 5.256v48.215a5.26 5.26 0 0 0 5.255 5.255h131.526a5.26 5.26 0 0 0 5.256-5.255v-48.215a5.26 5.26 0 0 0-5.256-5.256"/><path fill="#F67773" d="M241.265 255.642c7.824-7.823 7.824-20.508 0-28.332s-20.509-7.824-28.333 0-7.824 20.509 0 28.332 20.509 7.824 28.333 0"/><path fill="#fff" d="M227.097 239.959c-6.331 0-11.458 5.135-11.458 11.458h22.924c0-6.331-5.135-11.458-11.458-11.458z"/><path fill="#fff" d="M233.059 235.004a5.957 5.957 0 0 1-5.961 5.961 5.957 5.957 0 0 1-5.961-5.961 5.957 5.957 0 0 1 5.961-5.961 5.957 5.957 0 0 1 5.961 5.961"/><path fill="#0CC3BE" d="M262.455 235.202v2.469h-2.142v-2.486c-1.514-.207-2.985-.843-4.069-1.729l1.144-2.306c1.161.998 2.916 1.712 4.095 1.712.869 0 1.419-.327 1.419-.92 0-1.919-5.952-.757-5.952-4.757 0-1.789 1.29-3.037 3.354-3.372v-2.374h2.142v2.357c1.325.146 2.581.593 3.536 1.212l-1.11 2.34c-1.196-.679-2.71-1.213-3.647-1.213-.714 0-1.179.258-1.179.775 0 1.875 5.953.808 5.953 4.868 0 1.987-1.514 3.149-3.553 3.424zM277.017 235.202v2.469h-2.142v-2.486c-1.514-.207-2.984-.843-4.068-1.729l1.144-2.306c1.161.998 2.916 1.712 4.094 1.712.869 0 1.42-.327 1.42-.92 0-1.919-5.953-.757-5.953-4.757 0-1.789 1.29-3.037 3.355-3.372v-2.374h2.142v2.357c1.324.146 2.58.593 3.535 1.212l-1.109 2.34c-1.196-.679-2.71-1.213-3.648-1.213-.714 0-1.178.258-1.178.775 0 1.875 5.952.808 5.952 4.868 0 1.987-1.514 3.149-3.552 3.424zM291.59 235.202v2.469h-2.142v-2.486c-1.514-.207-2.985-.843-4.069-1.729l1.144-2.306c1.161.998 2.916 1.712 4.095 1.712.868 0 1.419-.327 1.419-.92 0-1.919-5.953-.757-5.953-4.757 0-1.789 1.291-3.037 3.355-3.372v-2.374h2.142v2.357c1.325.146 2.581.593 3.535 1.212l-1.109 2.34c-1.196-.679-2.71-1.213-3.647-1.213-.706 0-1.179.258-1.179.775 0 1.875 5.953.808 5.953 4.868 0 1.987-1.514 3.149-3.553 3.424z"/><path fill="#DFDEEE" d="M306.154 235.202v2.469h-2.142v-2.486c-1.514-.207-2.985-.843-4.069-1.729l1.144-2.306c1.162.998 2.917 1.712 4.095 1.712.869 0 1.419-.327 1.419-.92 0-1.919-5.952-.757-5.952-4.757 0-1.789 1.29-3.037 3.355-3.372v-2.374h2.141v2.357c1.325.146 2.581.593 3.536 1.212l-1.11 2.34c-1.195-.679-2.709-1.213-3.647-1.213-.705 0-1.179.258-1.179.775 0 1.875 5.953.808 5.953 4.868 0 1.987-1.514 3.149-3.553 3.424zM320.726 235.202v2.469h-2.142v-2.486c-1.514-.207-2.985-.843-4.068-1.729l1.144-2.306c1.161.998 2.916 1.712 4.094 1.712.869 0 1.42-.327 1.42-.92 0-1.919-5.953-.757-5.953-4.757 0-1.789 1.29-3.037 3.355-3.372v-2.374h2.142v2.357c1.324.146 2.58.593 3.535 1.212l-1.109 2.34c-1.196-.679-2.71-1.213-3.648-1.213-.705 0-1.178.258-1.178.775 0 1.875 5.952.808 5.952 4.868 0 1.987-1.514 3.149-3.552 3.424z"/><path fill="#343C4B" d="M306.721 244.312h-50.477v3.802h50.477zM284.923 257.714h-28.679v3.802h28.679zM324.278 251.013h-68.034v3.802h68.034z"/><path fill="#fff" d="M221.606 283.855h131.517a5.256 5.256 0 0 1 5.256 5.256v48.215a5.256 5.256 0 0 1-5.256 5.256H221.606a5.256 5.256 0 0 1-5.256-5.256v-48.215a5.256 5.256 0 0 1 5.256-5.256"/><path fill="#fff" d="m247.635 341.498-8.809 20.129-8.808-20.129z"/><path fill="#EA3934" d="M269.897 315.518c1.759-10.924-5.67-21.206-16.594-22.965-10.923-1.76-21.205 5.67-22.965 16.593-1.759 10.924 5.67 21.206 16.594 22.966 10.923 1.759 21.205-5.67 22.965-16.594"/><path fill="#fff" d="M250.114 310.814c-6.331 0-11.458 5.136-11.458 11.458h22.925c0-6.331-5.136-11.458-11.458-11.458z"/><path fill="#fff" d="M256.077 305.859a5.96 5.96 0 0 1-5.961 5.962 5.96 5.96 0 0 1-5.962-5.962 5.96 5.96 0 0 1 5.962-5.961 5.96 5.96 0 0 1 5.961 5.961"/><path fill="#0CC3BE" d="M285.463 306.057v2.469h-2.142v-2.486c-1.514-.207-2.985-.843-4.069-1.729l1.144-2.306c1.161.998 2.916 1.712 4.095 1.712.868 0 1.419-.327 1.419-.92 0-1.918-5.953-.757-5.953-4.757 0-1.789 1.291-3.037 3.355-3.372v-2.374h2.142v2.357c1.325.146 2.581.593 3.536 1.213l-1.11 2.339c-1.196-.679-2.71-1.213-3.647-1.213-.714 0-1.179.258-1.179.775 0 1.875 5.953.808 5.953 4.868 0 1.987-1.514 3.149-3.553 3.424zM300.035 306.057v2.469h-2.142v-2.486c-1.514-.207-2.985-.843-4.069-1.729l1.144-2.306c1.162.998 2.916 1.712 4.095 1.712.869 0 1.419-.327 1.419-.92 0-1.918-5.952-.757-5.952-4.757 0-1.789 1.29-3.037 3.354-3.372v-2.374h2.142v2.357c1.325.146 2.581.593 3.536 1.213l-1.11 2.339c-1.196-.679-2.71-1.213-3.647-1.213-.714 0-1.179.258-1.179.775 0 1.875 5.953.808 5.953 4.868 0 1.987-1.514 3.149-3.553 3.424zM314.607 306.057v2.469h-2.142v-2.486c-1.514-.207-2.985-.843-4.069-1.729l1.145-2.306c1.161.998 2.916 1.712 4.094 1.712.869 0 1.419-.327 1.419-.92 0-1.918-5.952-.757-5.952-4.757 0-1.789 1.29-3.037 3.355-3.372v-2.374h2.142v2.357c1.324.146 2.58.593 3.535 1.213l-1.11 2.339c-1.195-.679-2.709-1.213-3.647-1.213-.714 0-1.178.258-1.178.775 0 1.875 5.952.808 5.952 4.868 0 1.987-1.514 3.149-3.552 3.424zM329.17 306.057v2.469h-2.142v-2.486c-1.514-.207-2.985-.843-4.069-1.729l1.144-2.306c1.161.998 2.916 1.712 4.095 1.712.868 0 1.419-.327 1.419-.92 0-1.918-5.953-.757-5.953-4.757 0-1.789 1.291-3.037 3.355-3.372v-2.374h2.142v2.357c1.325.146 2.581.593 3.536 1.213l-1.11 2.339c-1.196-.679-2.71-1.213-3.647-1.213-.714 0-1.179.258-1.179.775 0 1.875 5.953.808 5.953 4.868 0 1.987-1.514 3.149-3.553 3.424zM343.742 306.057v2.469H341.6v-2.486c-1.514-.207-2.985-.843-4.069-1.729l1.144-2.306c1.162.998 2.916 1.712 4.095 1.712.869 0 1.419-.327 1.419-.92 0-1.918-5.952-.757-5.952-4.757 0-1.789 1.29-3.037 3.354-3.372v-2.374h2.142v2.357c1.325.146 2.581.593 3.536 1.213l-1.11 2.339c-1.196-.679-2.71-1.213-3.647-1.213-.714 0-1.179.258-1.179.775 0 1.875 5.953.808 5.953 4.868 0 1.987-1.514 3.149-3.553 3.424z"/><path fill="#343C4B" d="M302.685 315.167h-23.423v3.802h23.423zM347.296 328.56h-68.034v3.802h68.034zM335.373 321.868h-56.111v3.802h56.111z"/></g><defs><filter id="b" width="800.159" height="622.075" x="-34.613" y="-150.475" color-interpolation-filters="sRGB" filterUnits="userSpaceOnUse"><feFlood flood-opacity="0" result="BackgroundImageFix"/><feBlend in="SourceGraphic" in2="BackgroundImageFix" result="shape"/><feGaussianBlur result="effect1_foregroundBlur_1018_37443" stdDeviation="70.589"/></filter><filter id="c" width="866.673" height="666.417" x="152.77" y="-147.614" color-interpolation-filters="sRGB" filterUnits="userSpaceOnUse"><feFlood flood-opacity="0" result="BackgroundImageFix"/><feBlend in="SourceGraphic" in2="BackgroundImageFix" result="shape"/><feGaussianBlur result="effect1_foregroundBlur_1018_37443" stdDeviation="70.589"/></filter><filter id="d" width="417.788" height="560.431" x="-224.569" y="220.957" color-interpolation-filters="sRGB" filterUnits="userSpaceOnUse"><feFlood flood-opacity="0" result="BackgroundImageFix"/><feBlend in="SourceGraphic" in2="BackgroundImageFix" result="shape"/><feGaussianBlur result="effect1_foregroundBlur_1018_37443" stdDeviation="55.842"/></filter><filter id="e" width="563.327" height="361.197" x="-117.276" y="303.478" color-interpolation-filters="sRGB" filterUnits="userSpaceOnUse"><feFlood flood-opacity="0" result="BackgroundImageFix"/><feBlend in="SourceGraphic" in2="BackgroundImageFix" result="shape"/><feGaussianBlur result="effect1_foregroundBlur_1018_37443" stdDeviation="55.842"/></filter><filter id="f" width="625.112" height="436.902" x="104.699" y="274.524" color-interpolation-filters="sRGB" filterUnits="userSpaceOnUse"><feFlood flood-opacity="0" result="BackgroundImageFix"/><feBlend in="SourceGraphic" in2="BackgroundImageFix" result="shape"/><feGaussianBlur result="effect1_foregroundBlur_1018_37443" stdDeviation="55.842"/></filter><filter id="g" width="625.112" height="436.902" x="81.419" y="210.871" color-interpolation-filters="sRGB" filterUnits="userSpaceOnUse"><feFlood flood-opacity="0" result="BackgroundImageFix"/><feBlend in="SourceGraphic" in2="BackgroundImageFix" result="shape"/><feGaussianBlur result="effect1_foregroundBlur_1018_37443" stdDeviation="55.842"/></filter><filter id="h" width="625.112" height="436.902" x="87.857" y="115.034" color-interpolation-filters="sRGB" filterUnits="userSpaceOnUse"><feFlood flood-opacity="0" result="BackgroundImageFix"/><feBlend in="SourceGraphic" in2="BackgroundImageFix" result="shape"/><feGaussianBlur result="effect1_foregroundBlur_1018_37443" stdDeviation="55.842"/></filter><filter id="i" width="625.112" height="436.902" x="117.896" y="-107.393" color-interpolation-filters="sRGB" filterUnits="userSpaceOnUse"><feFlood flood-opacity="0" result="BackgroundImageFix"/><feBlend in="SourceGraphic" in2="BackgroundImageFix" result="shape"/><feGaussianBlur result="effect1_foregroundBlur_1018_37443" stdDeviation="55.842"/></filter><filter id="j" width="625.112" height="436.902" x="-356.999" y="141.497" color-interpolation-filters="sRGB" filterUnits="userSpaceOnUse"><feFlood flood-opacity="0" result="BackgroundImageFix"/><feBlend in="SourceGraphic" in2="BackgroundImageFix" result="shape"/><feGaussianBlur result="effect1_foregroundBlur_1018_37443" stdDeviation="55.842"/></filter><filter id="k" width="467.962" height="532.107" x="185.699" y="-230.548" color-interpolation-filters="sRGB" filterUnits="userSpaceOnUse"><feFlood flood-opacity="0" result="BackgroundImageFix"/><feBlend in="SourceGraphic" in2="BackgroundImageFix" result="shape"/><feGaussianBlur result="effect1_foregroundBlur_1018_37443" stdDeviation="55.842"/></filter><filter id="l" width="656.079" height="394.598" x="122.187" y="299.556" color-interpolation-filters="sRGB" filterUnits="userSpaceOnUse"><feFlood flood-opacity="0" result="BackgroundImageFix"/><feBlend in="SourceGraphic" in2="BackgroundImageFix" result="shape"/><feGaussianBlur result="effect1_foregroundBlur_1018_37443" stdDeviation="55.842"/></filter><filter id="m" width="656.079" height="394.598" x="-420.651" y="-12.271" color-interpolation-filters="sRGB" filterUnits="userSpaceOnUse"><feFlood flood-opacity="0" result="BackgroundImageFix"/><feBlend in="SourceGraphic" in2="BackgroundImageFix" result="shape"/><feGaussianBlur result="effect1_foregroundBlur_1018_37443" stdDeviation="55.842"/></filter><filter id="n" width="656.079" height="394.598" x="-320.522" y="-165.324" color-interpolation-filters="sRGB" filterUnits="userSpaceOnUse"><feFlood flood-opacity="0" result="BackgroundImageFix"/><feBlend in="SourceGraphic" in2="BackgroundImageFix" result="shape"/><feGaussianBlur result="effect1_foregroundBlur_1018_37443" stdDeviation="55.842"/></filter><filter id="o" width="625.112" height="436.902" x="95.316" y="369.316" color-interpolation-filters="sRGB" filterUnits="userSpaceOnUse"><feFlood flood-opacity="0" result="BackgroundImageFix"/><feBlend in="SourceGraphic" in2="BackgroundImageFix" result="shape"/><feGaussianBlur result="effect1_foregroundBlur_1018_37443" stdDeviation="55.842"/></filter><filter id="p" width="625.112" height="436.902" x="123.617" y="-153.166" color-interpolation-filters="sRGB" filterUnits="userSpaceOnUse"><feFlood flood-opacity="0" result="BackgroundImageFix"/><feBlend in="SourceGraphic" in2="BackgroundImageFix" result="shape"/><feGaussianBlur result="effect1_foregroundBlur_1018_37443" stdDeviation="55.842"/></filter><clipPath id="a"><path fill="#fff" d="M0 0h447v536H0z"/></clipPath><clipPath id="q"><path fill="#fff" d="M92.258 145h104v8h-104z"/></clipPath><clipPath id="r"><path fill="#fff" d="M364.551 235H57.001v346.13h307.55z"/></clipPath></defs></svg>
