<svg width="615" height="428" viewBox="0 0 615 428" fill="none" xmlns="http://www.w3.org/2000/svg">
<path d="M435.446 54.6395C413.357 53.9127 398.24 74.8493 412.057 92.1249C426.844 110.611 452.184 136.985 481.912 145.743C529.375 159.725 528.093 130.826 521.464 116.941C500.755 73.5616 463.526 55.5623 435.446 54.638V54.6395Z" fill="#F4F4F4"/>
<path opacity="0.4" d="M176.998 394.415C246.872 393.454 297.523 365.122 387.031 381.271C435.81 390.071 483.614 382.504 508.114 365.168C529.667 349.918 564.64 344.793 567.854 334.682H69.4023C69.4023 334.682 94.0616 395.556 177 394.416L176.998 394.415Z" fill="#CFCFCF"/>
<path d="M354.357 334.595L363.191 334.602L491.544 334.676L501.483 334.682L507.911 80.7451L332.164 84.6791L354.357 334.595Z" fill="#EA3934"/>
<path d="M363.191 334.602L491.544 334.676L495.386 93.5378L344.531 96.9139L363.191 334.602Z" fill="#F67773"/>
<g opacity="0.5">
<path d="M363.191 334.602L491.544 334.675L495.386 93.5377C495.386 93.5377 476.205 280.38 464.917 302.99C453.63 325.601 363.191 334.602 363.191 334.602Z" fill="#EA3934"/>
</g>
<path d="M375.102 194.985C370.525 194.985 366.814 198.702 366.814 203.286C366.814 206.513 368.654 209.307 371.338 210.68L369.828 225.331H380.376L378.866 210.68C381.55 209.307 383.389 206.513 383.389 203.286C383.389 198.702 379.679 194.985 375.102 194.985Z" fill="#EA3934"/>
<path d="M377.162 195.244C373.582 196.163 370.936 199.414 370.936 203.286C370.936 206.513 372.775 209.307 375.459 210.68L373.949 225.331H380.376L378.866 210.68C381.55 209.307 383.39 206.513 383.39 203.286C383.39 199.414 380.744 196.161 377.164 195.244H377.162Z" fill="#FAA9A7"/>
<path d="M316.549 94.7757C316.011 94.7757 315.487 94.836 314.983 94.9476C314.662 88.3764 309.241 83.1471 302.601 83.1471C295.96 83.1471 290.65 88.2738 290.232 94.7531C290.053 94.7335 289.871 94.7214 289.685 94.7214C286.938 94.7214 284.71 96.9531 284.71 99.7049C284.71 99.9703 284.737 100.228 284.776 100.481H323.626C322.915 97.22 320.017 94.7772 316.549 94.7772V94.7757Z" fill="#D7F2FF"/>
<path d="M556.663 295.538C556.125 295.538 555.602 295.599 555.097 295.71C554.777 289.139 549.355 283.91 542.715 283.91C536.074 283.91 530.765 289.036 530.346 295.516C530.167 295.496 529.985 295.484 529.8 295.484C527.052 295.484 524.824 297.716 524.824 300.468C524.824 300.733 524.851 300.991 524.89 301.244H563.74C563.029 297.983 560.131 295.54 556.663 295.54V295.538Z" fill="#D7F2FF"/>
<path d="M241.684 46.304C241.095 46.304 240.522 46.3704 239.969 46.4925C239.617 39.2955 233.681 33.5686 226.408 33.5686C219.135 33.5686 213.32 39.1824 212.862 46.2784C212.665 46.2573 212.466 46.2437 212.265 46.2437C209.255 46.2437 206.816 48.6864 206.816 51.7007C206.816 51.9902 206.845 52.2736 206.889 52.5511H249.434C248.657 48.979 245.482 46.304 241.683 46.304H241.684Z" fill="#D7F2FF"/>
<path d="M116.235 129.778C115.826 129.778 115.425 129.824 115.041 129.909C114.796 124.897 110.662 120.908 105.596 120.908C100.53 120.908 96.4806 124.818 96.1615 129.761C96.0245 129.746 95.886 129.737 95.7444 129.737C93.6489 129.737 91.9492 131.439 91.9492 133.538C91.9492 133.74 91.9688 133.936 92.0004 134.131H121.632C121.09 131.643 118.88 129.779 116.234 129.779L116.235 129.778Z" fill="#D7F2FF"/>
<path d="M100.739 235.527C84.708 226.543 79.7566 259.342 85.8491 280.234C91.9417 301.123 91.8107 311.641 91.8107 311.641C91.8107 311.641 94.7207 323.729 95.1618 334.609L109.64 334.599C108.738 321.703 110.185 309.275 110.185 309.275V309.266C110.277 308.363 116.66 244.446 100.741 235.527H100.739Z" fill="#40947E"/>
<path d="M158.916 254.998C154.955 252.613 149.053 252.816 142.631 256.016C137.766 258.439 132.602 262.581 127.76 268.617C120.478 277.691 113.919 291.045 110.183 309.275C110.183 309.275 108.736 321.703 109.638 334.599L126.086 334.589C126.086 334.589 131.875 312.583 146.231 294.861C160.587 277.139 170.386 261.912 158.914 254.999L158.916 254.998Z" fill="#2E6857"/>
<path d="M51.1602 264.62C51.1602 264.62 42.5973 268.499 50.4858 287.866C58.3743 307.235 75.0984 318.847 78.5624 334.619L95.1599 334.608C94.7188 323.729 91.8088 311.641 91.8088 311.641C91.8088 311.641 72.9832 257.409 51.1602 264.62Z" fill="#6FC183"/>
<path d="M136.102 280.092C130.867 287.799 126.443 296.321 122.955 305.419C117.014 320.914 115.829 332.884 115.817 333.003L116.502 333.067C116.513 332.95 117.693 321.056 123.605 305.646C129.058 291.432 139.768 271.235 159.825 255.722L159.405 255.176C150.488 262.071 142.647 270.455 136.102 280.09V280.092Z" fill="#6FC183"/>
<path d="M133.61 283.987L133.972 284.573C144.775 277.889 159.51 276.55 159.658 276.538L159.599 275.852C159.45 275.864 144.555 277.216 133.61 283.988V283.987Z" fill="#6FC183"/>
<path d="M120.541 280.259L119.853 280.252C119.846 280.899 119.725 296.187 124.072 302.992L124.651 302.621C120.416 295.989 120.54 280.416 120.541 280.259Z" fill="#6FC183"/>
<path d="M119.898 314.528L120.333 315.062C124.649 311.529 136.589 309.57 136.709 309.551L136.599 308.871C136.101 308.951 124.357 310.878 119.896 314.528H119.898Z" fill="#6FC183"/>
<path d="M66.6616 281.696C58.6647 270.197 51.4461 264.406 51.3738 264.35L50.9463 264.89C51.017 264.947 58.1574 270.674 66.0971 282.091C73.4301 292.637 82.9521 310.318 86.6675 334.667L87.348 334.563C85.6995 323.755 82.7835 313.339 78.6811 303.605C75.3993 295.817 71.3556 288.447 66.6616 281.698V281.696Z" fill="#2E6857"/>
<path d="M81.6739 289.698C81.6498 289.652 81.6437 289.614 81.6437 289.612C81.7386 290.306 81.0506 302.797 79.9531 308.527L80.6291 308.657C81.2734 305.294 81.7341 299.896 81.9524 296.977C82.0894 295.142 82.2038 293.307 82.2745 291.808C82.3814 289.558 82.3347 289.472 82.2821 289.373L81.6754 289.698H81.6739Z" fill="#2E6857"/>
<path d="M66.0326 311.968L65.8926 312.642C65.9618 312.656 72.792 314.082 75.0186 314.703C77.0073 315.257 82.9433 317.384 83.002 317.405L83.2338 316.757C82.9884 316.669 77.215 314.601 75.2023 314.04C72.9531 313.414 66.1003 311.983 66.0311 311.968H66.0326Z" fill="#2E6857"/>
<path d="M49.3658 285.304C49.4907 285.311 62.0175 285.948 72.2486 291.862L72.5918 291.265C62.2117 285.265 49.5238 284.621 49.3959 284.615L49.3643 285.303L49.3658 285.304Z" fill="#2E6857"/>
<path d="M64.3105 267.362C64.3196 267.46 65.1596 277.257 64.3407 279.365L64.982 279.615C65.8581 277.36 65.0317 267.712 64.9955 267.302L64.3105 267.362Z" fill="#2E6857"/>
<path d="M96.4019 233.927L95.7305 234.079C95.7651 234.233 99.2351 249.763 101.197 269.819C103.005 288.313 103.866 314.548 97.6891 334.504L98.3454 334.708C101.09 325.842 102.693 315.023 103.113 302.553C103.449 292.586 103.033 281.547 101.879 269.742C99.9126 249.645 96.435 234.081 96.4004 233.927H96.4019Z" fill="#2E6857"/>
<path d="M85.3176 246.245L84.7861 246.682C85.0842 247.046 92.1824 255.591 99.9746 257.475L100.136 256.806C92.5693 254.975 85.3883 246.331 85.3176 246.243V246.245Z" fill="#2E6857"/>
<path d="M108.717 251.254C108.863 251.948 107.279 258.887 101.128 268.362L101.705 268.738C108.067 258.938 109.578 251.999 109.39 251.111L108.717 251.254Z" fill="#2E6857"/>
<path d="M85.8221 279.187L85.4473 279.765C85.5376 279.823 94.647 285.793 102.438 295.461L102.974 295.029C95.1107 285.271 85.9155 279.246 85.8221 279.187Z" fill="#2E6857"/>
<path d="M102.173 307.824L102.859 307.867C102.859 307.867 102.859 307.886 102.855 307.901C103.023 307.114 106.448 297.2 111.51 292.774L111.058 292.256C105.726 296.917 102.198 307.414 102.173 307.823V307.824Z" fill="#2E6857"/>
<g opacity="0.8">
<path d="M147.991 73.4998C150.159 62.2934 144.074 54.5867 144.074 54.5867H144.071C143.953 54.4254 143.839 54.2625 143.716 54.1027C137.82 46.4518 126.849 45.0374 119.21 50.9422C111.571 56.847 110.159 67.8363 116.054 75.4872C116.178 75.647 116.306 75.8008 116.434 75.9546L116.422 75.9636C116.422 75.9636 122.323 83.8121 133.695 84.5494C133.695 84.5494 137.177 84.4378 141.061 89.4771L144.115 87.1173L147.833 84.2433L150.886 81.8835C147.002 76.8442 147.993 73.4983 147.993 73.4983L147.991 73.4998Z" fill="#F3CE90"/>
</g>
<path d="M140.55 72.2814C141.507 71.1973 141.062 69.4783 140.387 68.3369C139.854 67.4322 138.975 66.5335 138.111 66.728C137.695 66.8215 137.174 67.1969 137.057 68.4605C136.968 69.4075 137.442 70.8294 138.469 72.7097L135.353 75.1192C133.796 73.6476 132.544 72.8288 131.606 72.675C130.356 72.4699 129.861 72.8786 129.667 73.257C129.26 74.0456 129.906 75.1238 130.644 75.8702C131.576 76.8111 133.122 77.6796 134.412 77.0267L134.487 76.9784L135.282 76.3647C138.371 79.477 142.002 84.3911 143.616 86.7388L144.392 86.205C144.369 86.1734 142.167 82.9737 139.534 79.7393C138.246 78.1591 137.078 76.8397 136.033 75.7857L138.94 73.539C139.695 74.8192 140.673 76.2848 141.873 77.9329C144.33 81.303 146.862 84.2493 146.888 84.278L147.6 83.6613C145.74 81.5035 141.914 76.7402 139.692 72.9585L140.551 72.283L140.55 72.2814ZM133.953 76.2019C133.17 76.5638 132.068 75.9667 131.314 75.2052C130.641 74.5251 130.407 73.8768 130.504 73.6883C130.543 73.6114 130.793 73.4953 131.454 73.6038C132.259 73.7365 133.369 74.5372 134.602 75.6983L133.951 76.2004L133.953 76.2019ZM137.996 68.548C138.058 67.88 138.234 67.6674 138.319 67.6493C138.525 67.6026 139.092 67.9931 139.579 68.8179C140.124 69.7407 140.42 70.9591 139.872 71.627L139.222 72.1292C138.412 70.6394 137.921 69.3622 137.996 68.548Z" fill="white"/>
<path d="M152.28 92.5396L152.223 92.4657L151.615 92.9934L150.951 93.4488L151.008 93.5227L149.598 94.7486C149.598 94.7486 150.951 95.7332 151.3 95.4618C151.427 95.3653 151.725 95.1331 152.055 94.8783C152.055 94.8783 152.741 94.3475 153.327 93.8951C153.656 93.6403 153.954 93.4096 154.081 93.3116C154.43 93.0417 153.822 91.481 153.822 91.481L152.28 92.5366V92.5396Z" fill="#202020"/>
<path d="M154.515 89.073C154.398 88.4578 154.353 87.9722 154.353 87.9722L146.071 94.3746C146.071 94.3746 146.532 94.539 147.093 94.8119C147.523 95.02 148.016 95.2899 148.415 95.596C148.656 95.7799 148.992 95.7784 149.233 95.5915L154.729 91.3423C154.97 91.1553 155.054 90.8327 154.938 90.5537C154.743 90.0893 154.607 89.5434 154.515 89.073Z" fill="#93493A"/>
<g style="mix-blend-mode:multiply" opacity="0.5">
<path d="M148.402 92.5727L146.071 94.3746C146.071 94.3746 146.532 94.539 147.093 94.8119C147.523 95.02 148.016 95.2899 148.415 95.596C148.656 95.7799 148.992 95.7784 149.233 95.5915L151.333 93.969C150.508 93.2377 149.32 92.4431 149.32 92.4431L148.402 92.5727Z" fill="#A5A5A5"/>
</g>
<g opacity="0.3">
<path d="M146.071 94.3748C146.071 94.3748 146.532 94.5392 147.093 94.8121L154.515 89.0747C154.398 88.4595 154.353 87.9739 154.353 87.9739L146.071 94.3763V94.3748Z" fill="#535353"/>
</g>
<g opacity="0.25">
<path d="M137.537 81.6664C125.227 80.8672 118.84 72.3734 118.84 72.3734L118.853 72.3629C118.715 72.1955 118.576 72.0296 118.442 71.8562C114.7 66.9994 113.682 60.9001 115.145 55.3949C111.305 61.4384 111.433 69.4889 116.056 75.4872C116.18 75.647 116.308 75.8008 116.436 75.9546L116.424 75.9637C116.424 75.9637 122.325 83.8121 133.697 84.5494C133.697 84.5494 137.179 84.4378 141.063 89.4771L144.116 87.1173L145.038 86.4056C141.029 81.5548 137.539 81.6649 137.539 81.6649L137.537 81.6664Z" fill="#EF7C59"/>
</g>
<path d="M153.353 85.3214L143.766 92.7326C143.077 93.2648 142.949 94.2661 143.48 94.9552C144.012 95.6458 145.011 95.7739 145.699 95.2417L155.286 87.8305C155.975 87.2982 156.103 86.297 155.572 85.6079C155.041 84.9173 154.041 84.7892 153.353 85.3214Z" fill="#EF7C59"/>
<g opacity="0.3">
<path d="M147.649 91.7329C147.241 91.2036 147.166 90.5175 147.388 89.9325L143.766 92.7326C143.077 93.2648 142.949 94.2661 143.48 94.9551C144.012 95.6457 145.011 95.7739 145.699 95.2416L149.321 92.4415C148.7 92.5079 148.057 92.2621 147.649 91.7329Z" fill="#6E6E6E"/>
</g>
<g opacity="0.3">
<path d="M153.353 85.3214L143.765 92.7341C143.273 93.114 143.068 93.7338 143.186 94.3068L155.02 85.1586C154.865 85.0802 154.695 85.0289 154.523 85.0063C154.12 84.9565 153.698 85.0575 153.355 85.3214H153.353Z" fill="#535353"/>
</g>
<path d="M153.262 82.8772C153.107 82.7988 152.936 82.7475 152.765 82.7249C152.361 82.6751 151.94 82.7746 151.597 83.04L142.008 90.4527C141.516 90.8327 141.311 91.4524 141.429 92.0254C141.475 92.2561 141.572 92.4792 141.724 92.6753C141.989 93.0191 142.371 93.2226 142.775 93.2769C143.175 93.3282 143.598 93.2286 143.943 92.9618L153.531 85.5491C154.219 85.0168 154.349 84.0156 153.817 83.3265C153.665 83.1305 153.474 82.9797 153.265 82.8772H153.262Z" fill="#EF7C59"/>
<g opacity="0.3">
<path d="M145.891 89.453C145.483 88.9237 145.408 88.2376 145.631 87.6526L142.008 90.4527C141.319 90.985 141.191 91.9862 141.722 92.6753C142.254 93.3659 143.254 93.494 143.941 92.9618L147.564 90.1617C146.942 90.228 146.299 89.9822 145.891 89.453Z" fill="#6E6E6E"/>
</g>
<g opacity="0.3">
<path d="M151.597 83.0415L142.008 90.4542C141.516 90.8342 141.311 91.4539 141.429 92.0269L153.263 82.8787C153.108 82.8003 152.938 82.749 152.766 82.7264C152.363 82.6766 151.941 82.7762 151.598 83.0415H151.597Z" fill="#535353"/>
</g>
<path d="M149.836 80.7586L140.25 88.1698C139.56 88.7021 139.432 89.7033 139.964 90.3924C140.495 91.083 141.495 91.2111 142.183 90.6789L151.769 83.2677C152.459 82.7355 152.587 81.7342 152.055 81.0451C151.524 80.3545 150.524 80.2264 149.836 80.7586Z" fill="#EF7C59"/>
<g opacity="0.3">
<path d="M144.132 87.1716C143.724 86.6423 143.649 85.9562 143.872 85.3712L140.25 88.1713C139.56 88.7036 139.432 89.7048 139.964 90.3939C140.495 91.0845 141.495 91.2126 142.183 90.6804L145.805 87.8803C145.183 87.9466 144.54 87.7008 144.132 87.1716Z" fill="#6E6E6E"/>
</g>
<g opacity="0.25">
<path d="M133.268 50.2999C130.438 49.5791 127.754 50.5321 127.272 52.429C126.79 54.3258 128.694 56.4474 131.525 57.1682C134.355 57.8889 137.039 56.936 137.521 55.0391C138.003 53.1422 136.098 51.0206 133.268 50.2999Z" fill="white"/>
</g>
<g opacity="0.5">
<path d="M108.786 55.2652L101.599 52.928C101.093 52.7637 100.549 53.0411 100.385 53.5478C100.221 54.0544 100.498 54.5988 101.004 54.7631L108.191 57.1003C108.29 57.132 108.39 57.147 108.489 57.147C108.895 57.147 109.273 56.8877 109.404 56.4806C109.568 55.9739 109.291 55.4296 108.786 55.2652Z" fill="#EF7C59"/>
<path d="M107.694 66.8758L100.409 68.6777C99.8929 68.8058 99.5782 69.3275 99.7047 69.8447C99.8131 70.285 100.206 70.5791 100.64 70.5791C100.716 70.5791 100.793 70.57 100.871 70.5504L108.156 68.7485C108.673 68.6204 108.987 68.0986 108.861 67.5814C108.733 67.0642 108.212 66.7491 107.696 66.8758H107.694Z" fill="#EF7C59"/>
<path d="M114.139 79.5976L109.028 83.8151C108.617 84.1543 108.558 84.762 108.897 85.1737C109.088 85.4059 109.364 85.525 109.641 85.525C109.856 85.525 110.073 85.4526 110.252 85.3048L115.363 81.0874C115.774 80.7481 115.832 80.1404 115.494 79.7288C115.155 79.3171 114.548 79.2583 114.137 79.5976H114.139Z" fill="#EF7C59"/>
<path d="M127.21 34.502C127.18 33.9697 126.723 33.5626 126.192 33.5943C125.661 33.6244 125.256 34.0813 125.286 34.6136L125.724 42.1695C125.754 42.6821 126.178 43.0787 126.684 43.0787C126.702 43.0787 126.722 43.0787 126.742 43.0772C127.273 43.047 127.678 42.5902 127.648 42.0579L127.21 34.502Z" fill="#EF7C59"/>
<path d="M142.106 37.0654C141.64 36.8105 141.054 36.9839 140.799 37.4514L137.215 44.0528C136.961 44.5202 137.134 45.1068 137.6 45.3616C137.746 45.4415 137.904 45.4792 138.06 45.4792C138.401 45.4792 138.732 45.2968 138.907 44.9756L142.492 38.3742C142.746 37.9067 142.573 37.3202 142.106 37.0654Z" fill="#EF7C59"/>
<path d="M153.235 49.6364L147.867 53.5206C147.436 53.8328 147.338 54.4359 147.65 54.8672C147.838 55.128 148.133 55.2667 148.431 55.2667C148.627 55.2667 148.824 55.2079 148.994 55.0843L154.363 51.2C154.793 50.8879 154.891 50.2848 154.58 49.8535C154.268 49.4223 153.666 49.3243 153.235 49.6364Z" fill="#EF7C59"/>
<path d="M112.881 40.7777C112.556 40.3555 111.951 40.2786 111.531 40.6028C111.109 40.9285 111.033 41.5346 111.356 41.9553L115.779 47.6958C115.969 47.9416 116.254 48.0712 116.543 48.0712C116.747 48.0712 116.955 48.0064 117.13 47.8707C117.551 47.545 117.628 46.9388 117.304 46.5181L112.881 40.7777Z" fill="#EF7C59"/>
</g>
<path d="M267.893 361.911C267.369 361.503 250.387 352.805 250.387 352.805L251.071 323.334C244.396 322.926 242.333 320.444 237.254 320.323C236.2 326.385 233.969 356.118 233.991 357.501V357.612C234.052 363.478 234.979 367.022 235.19 367.145C236.956 368.249 268.349 367.759 269.947 367.201C271.558 366.661 269.687 363.33 267.894 361.913L267.893 361.911Z" fill="#F5B0A6"/>
<path d="M269.338 361.482C267.488 360.021 250.562 351.786 250.562 351.786L233.623 352.085C233.247 356.951 232.855 361.562 232.754 364.556C232.688 366.539 232.747 367.812 233.021 367.982C234.83 369.119 269.349 368.822 271.002 368.262C271.851 367.976 271.873 366.58 271.446 365.09C271.041 363.682 270.234 362.192 269.338 361.482Z" fill="#243354"/>
<path d="M264.31 366.397C260.352 366.721 236.73 365.971 234.732 365.612C234.009 365.482 233.343 365.033 232.752 364.556C232.686 366.539 232.745 367.812 233.019 367.982C234.828 369.119 269.347 368.822 271 368.262C271.849 367.976 271.871 366.58 271.444 365.09C269.994 365.476 267.11 366.167 264.308 366.396L264.31 366.397Z" fill="white"/>
<path d="M270.316 366.367C262.379 366.194 244.568 366.341 236.71 366.774C236.646 366.777 236.646 366.821 236.71 366.824C244.572 367.168 262.382 366.759 270.316 366.497C270.483 366.491 270.483 366.37 270.316 366.367Z" fill="#A7A7A7"/>
<path d="M266.285 359.784C264.404 359.711 262.565 360.612 261.543 361.738C260.56 362.819 259.72 364.339 259.78 365.987C259.782 366.034 259.869 366.035 259.877 365.987C260.322 362.875 263.139 360.135 266.287 359.885C266.35 359.88 266.35 359.788 266.287 359.785L266.285 359.784Z" fill="#243354"/>
<path d="M254.735 354.868C252.492 354.714 249.845 355.367 248.35 357.131C248.291 357.199 248.389 357.281 248.458 357.251C250.545 356.313 252.517 355.637 254.757 355.147C254.915 355.112 254.894 354.879 254.733 354.868H254.735Z" fill="white"/>
<path d="M256.431 355.639C254.188 355.485 251.541 356.138 250.047 357.902C249.989 357.97 250.087 358.051 250.155 358.021C252.241 357.083 254.214 356.408 256.455 355.918C256.613 355.883 256.592 355.649 256.431 355.639Z" fill="white"/>
<path d="M258.128 356.411C255.885 356.257 253.238 356.91 251.743 358.674C251.685 358.742 251.784 358.823 251.852 358.793C253.938 357.855 255.909 357.18 258.152 356.69C258.31 356.655 258.289 356.421 258.128 356.411Z" fill="white"/>
<path d="M259.824 357.181C257.581 357.027 254.934 357.68 253.439 359.445C253.382 359.512 253.478 359.594 253.548 359.564C255.634 358.626 257.606 357.95 259.848 357.46C260.006 357.426 259.985 357.192 259.824 357.181Z" fill="white"/>
<path d="M170.087 306.021C165.046 309.362 142.307 327.862 141.334 328.812L141.254 328.888C137.107 332.897 135.202 335.955 135.258 336.189C135.663 338.2 157.232 360.357 158.71 361.126C160.184 361.914 161.298 358.323 161.098 356.08C161.036 355.429 155.768 337.384 155.768 337.384L177.275 317.954C173.055 312.897 173.433 309.741 170.087 306.021Z" fill="#F5B0A6"/>
<path d="M156.614 336.822L144.952 324.889C141.662 327.552 138.508 330.073 136.295 331.97C134.338 333.647 133.119 334.836 133.193 335.203C133.604 337.268 157.147 361.794 158.663 362.6C159.433 363.009 160.428 362.11 161.198 360.826C161.947 359.577 162.478 357.962 162.382 356.825C162.175 354.512 156.616 336.824 156.616 336.824L156.614 336.822Z" fill="#243354"/>
<path d="M145.093 346.041C138.033 338.748 135.321 334.541 136.295 331.97C134.338 333.646 133.119 334.836 133.193 335.203C133.604 337.268 157.147 361.794 158.663 362.6C159.433 363.009 160.428 362.11 161.198 360.826C158.544 358.6 151.112 352.258 145.095 346.041H145.093Z" fill="white"/>
<path d="M136.55 337.03C136.505 336.986 136.473 337.017 136.514 337.063C141.583 342.929 153.911 355.411 159.461 360.918C159.579 361.034 159.665 360.951 159.553 360.829C154.313 355.025 142.168 342.368 136.548 337.03H136.55Z" fill="#243354"/>
<path d="M156.931 351.415C155.495 351.442 153.842 351.868 152.705 353.024C152.672 353.057 152.731 353.121 152.77 353.092C155.293 351.308 159.153 351.474 161.459 353.559C161.506 353.602 161.572 353.54 161.53 353.491C160.309 352.095 158.424 351.386 156.929 351.415H156.931Z" fill="white"/>
<path d="M151.303 338.85C151.216 338.855 151.224 338.98 151.291 339.008C153.372 339.869 155.186 340.824 157.051 342.1C157.182 342.19 157.336 342.017 157.235 341.895C155.827 340.183 153.574 338.73 151.303 338.85Z" fill="white"/>
<path d="M151.9 340.587C151.813 340.592 151.82 340.717 151.888 340.746C153.967 341.607 155.783 342.563 157.648 343.837C157.779 343.927 157.932 343.754 157.832 343.632C156.424 341.922 154.17 340.467 151.9 340.587Z" fill="white"/>
<path d="M152.496 342.323C152.409 342.327 152.416 342.452 152.484 342.481C154.563 343.342 156.378 344.297 158.244 345.572C158.375 345.663 158.528 345.489 158.427 345.367C157.02 343.656 154.766 342.202 152.496 342.323Z" fill="white"/>
<path d="M153.093 344.06C153.005 344.064 153.013 344.189 153.08 344.218C155.161 345.079 156.975 346.034 158.84 347.309C158.971 347.4 159.125 347.226 159.024 347.104C157.616 345.393 155.363 343.939 153.093 344.06Z" fill="white"/>
<path d="M245.774 210.498C243.282 207.653 241.727 205.996 241.727 205.996L183.618 213.161L175.094 214.213C173.428 242.578 197.083 254.924 196.416 261.215C195.749 267.506 150.772 315.195 150.772 315.195C151.503 318.229 152.79 320.935 154.383 323.319C160.776 332.903 172.097 337.348 172.097 337.348C172.097 337.348 219.406 289.629 225.069 280.618C230.733 271.609 231.654 259.215 231.654 259.215C231.654 259.215 231.655 259.216 231.657 259.219C231.899 259.43 247.394 272.969 247.725 276.102C248.057 279.261 228.734 341.018 228.734 341.018C232.523 342.633 236.24 343.76 239.701 344.538C250.543 346.982 259.958 345.595 259.958 345.595C259.958 345.595 287.371 284.288 278.708 260.224C272.075 241.798 253.918 219.795 245.772 210.495L245.774 210.498Z" fill="#2C4DA2"/>
<path d="M183.618 213.162L175.094 214.215C197.12 222.701 233.585 213.879 245.773 210.5C243.281 207.654 241.726 205.997 241.726 205.997L183.618 213.162Z" fill="#21438E"/>
<path d="M223.786 230.611C230.746 244.775 231.654 259.217 231.654 259.217C231.654 259.217 231.655 259.218 231.657 259.22C231.899 259.431 247.393 272.97 247.724 276.104C248.057 279.262 228.733 341.02 228.733 341.02C232.522 342.635 236.239 343.761 239.7 344.539C243.816 333.104 255.134 297.34 256.974 290.526C259.149 282.464 260.888 271.79 256.974 264.599C253.073 257.436 224.019 230.818 223.786 230.61V230.611Z" fill="#21438E"/>
<path d="M183.618 213.162L175.094 214.215C173.428 242.579 197.083 254.926 196.416 261.216C195.749 267.507 150.772 315.196 150.772 315.196C151.503 318.23 152.79 320.937 154.383 323.321C163.156 310.338 202.326 272.806 203.654 264.653C205.157 255.432 193.008 247.989 187.186 238.234C182.941 231.118 183.18 219.131 183.62 213.162H183.618Z" fill="#21438E"/>
<path d="M307.265 141.939C307.265 141.939 309.091 139.469 307.854 137.979C306.616 136.489 304.171 138.679 304.171 138.679C304.171 138.679 305.862 136.005 304.521 134.607C303.181 133.21 301.09 135.824 301.09 135.824C301.09 135.824 302.749 133.452 301.16 132.766C299.25 131.94 296.685 136.66 294.46 138.282C294.205 138.468 291.474 140.174 288.826 141.824C288.68 141.625 288.588 141.515 288.588 141.515C290.55 139.858 294.053 136.016 292.479 134.114C291.259 132.643 284.156 137.898 282.934 139.757C282.16 140.934 281.171 143.217 280.548 144.736C275.986 146.675 268.826 148.923 267.425 149.231C265.794 149.588 249.272 150.711 242.165 146.833C235.762 143.339 235.18 148.555 237.09 151.385C239.803 155.404 258.68 164.67 266.327 164.382C275.59 164.032 286.907 160.324 291.616 157.127C291.669 157.093 291.714 157.05 291.757 157.007C294.421 155.791 302.305 151.868 304.04 150.392C305.936 148.78 311.054 143.744 309.969 142.163C308.883 140.585 307.267 141.939 307.267 141.939H307.265Z" fill="#F5B0A6"/>
<path d="M275.677 141.572L273.276 136.753C273.276 136.753 254.702 144.004 251.525 144.368C251.36 144.387 251.236 144.387 251.16 144.365C249.607 143.946 237.087 127.539 227.313 121.445C226.997 121.246 226.664 121.061 226.317 120.884C223.723 119.559 220.331 118.805 216.938 118.665C215.639 118.609 214.339 118.645 213.084 118.773C211.426 117.158 203.387 116.012 198.049 118.332C196.885 117.998 195.455 117.974 193.882 118.228C191.878 118.55 189.638 119.322 187.41 120.476C183.265 122.623 179.165 126.096 176.702 130.467C175.138 133.246 172.867 138.078 170.523 143.724V143.727C165.027 156.96 159.129 174.658 160.964 180.828C161.358 182.158 162.487 183.714 164.116 185.398C165.745 187.082 167.875 188.892 170.279 190.733C171.994 204.709 175.094 214.213 175.094 214.213C197.338 217.372 241.726 205.996 241.726 205.996L237.889 196.087C236.46 188.592 233.421 170.326 232.028 158.611C232.028 158.607 232.028 158.603 232.028 158.603C236.128 165.929 238.899 168.899 243.452 171.449C255.896 178.415 287.862 166.021 287.862 166.021L285.284 160.844L275.679 141.571L275.677 141.572Z" fill="#6FC183"/>
<path d="M213.084 118.773C211.426 117.158 203.387 116.012 198.049 118.332C196.885 117.998 195.455 117.974 193.882 118.228C193.694 119.499 193.56 121.399 194.139 123.151C195.095 126.049 203.097 136.405 212.813 134.22C218.232 133 218.107 125.268 216.938 118.665C215.639 118.609 214.339 118.645 213.084 118.773Z" fill="white"/>
<path d="M301.272 135.604C299.378 139.069 297.949 140.257 294.554 142.145C294.488 142.181 294.527 142.288 294.601 142.257C298.094 140.711 300.099 139.481 301.445 135.687C301.511 135.502 301.362 135.44 301.273 135.604H301.272Z" fill="#F18A8B"/>
<path d="M304.316 138.401C302.034 141.829 300.499 143.13 297.087 145.369C297.039 145.401 297.087 145.487 297.138 145.458C300.667 143.541 302.639 142.267 304.471 138.543C304.554 138.374 304.422 138.244 304.316 138.401Z" fill="#F18A8B"/>
<path d="M307.088 142.047C304.64 145.206 303.016 146.706 299.427 148.454C299.342 148.495 299.394 148.623 299.482 148.59C303.317 147.163 305.357 145.307 307.175 142.132C307.299 141.914 307.242 141.848 307.088 142.047Z" fill="#F18A8B"/>
<path d="M292.765 134.776C292.76 134.76 292.737 134.761 292.737 134.779C292.926 137.551 290.211 139.559 288.427 141.31C288.292 141.443 288.351 141.599 288.473 141.682C289.879 143.626 291.298 146.777 290.466 149.17C290.442 149.24 290.538 149.285 290.571 149.217C291.812 146.773 290.67 143.563 288.993 141.531C290.85 139.766 293.484 137.631 292.763 134.775L292.765 134.776Z" fill="#F18A8B"/>
<path d="M213.599 119.019C213.489 118.681 213.411 118.324 213.36 117.935C212.803 113.274 213.814 107.479 213.814 107.479L196.603 105.307C196.905 107.982 197.026 110.922 197.078 113.564C197.148 117.917 197.035 121.495 197.253 121.809C200.467 126.376 207.886 131.62 211.707 130.244C215.4 128.911 214.221 121.245 213.644 119.197C213.632 119.128 213.611 119.067 213.599 119.018V119.019Z" fill="#F5B0A6"/>
<path d="M196.604 105.308C196.814 107.157 196.936 109.135 197.005 111.044C199.316 117.018 205.446 122.187 213.559 118.873C213.472 118.576 213.402 118.271 213.359 117.932C212.802 113.277 213.812 107.48 213.812 107.48L196.604 105.308Z" fill="#F18A8B"/>
<path d="M211.099 75.831C203.31 71.9754 191.908 77.7007 190.8 86.8806C190.05 93.0945 196.179 109.571 201.039 112.623C208.084 117.047 218.112 115.804 221.486 107.666C224.755 99.7788 216.388 78.4486 211.099 75.831Z" fill="#F5B0A6"/>
<path d="M215.109 68.6189C214.919 68.4651 214.653 68.5178 214.504 68.7214L214.123 69.2386C213.863 69.593 213.349 69.4105 213.318 68.9521C213.288 68.5178 212.812 68.3128 212.544 68.6279C211.496 69.8629 208.941 71.6723 203.017 71.5245C194.609 71.3149 188.576 73.7471 187.282 80.0017C187.201 80.3983 186.781 80.5295 186.516 80.2505C185.994 79.7017 185.072 79.287 183.572 80.1962C180.96 81.778 180.863 87.437 184.908 93.0538C185.101 93.3207 185.024 93.7263 184.738 93.8514C183.736 94.2917 182.134 95.5221 185.169 98.3675C188.273 101.278 190.381 101.531 191.203 101.489C191.424 101.477 191.605 101.296 191.636 101.05L196.898 100.112L195.501 95.587C195.501 95.587 195.612 89.0474 198.871 88.3643C202.131 87.6813 212.458 85.5989 215.901 81.4553C219.22 77.461 218.105 71.042 215.109 68.6189Z" fill="black"/>
<path d="M189.603 95.596C187.543 94.6295 186.499 91.8927 185.592 89.7003C185.008 88.2844 185.106 86.5006 185.785 85.0033C186.347 83.7638 186.575 83.4351 187.361 82.3992C187.391 82.36 187.364 82.2997 187.322 82.3208C184.935 83.5045 183.542 85.5883 184.391 88.5513C185.15 91.1976 187.078 94.8089 189.522 95.7981C189.641 95.8463 189.72 95.6503 189.603 95.596Z" fill="#484848"/>
<path d="M201.255 81.3573C200.196 81.3573 200.092 81.9031 200.255 82.449C200.454 83.117 201.029 83.5557 201.655 83.5482C213.313 83.405 214.423 72.2212 214.423 72.2212C212.187 80.0062 203.373 81.3573 201.255 81.3573Z" fill="#484848"/>
<path d="M189.766 97.2486C187.551 99.1108 192.007 106.49 195.14 106.998C198.273 107.507 198.8 104.61 198.8 104.61L196.897 100.111C196.897 100.111 191.98 95.3864 189.766 97.2486Z" fill="#F5B0A6"/>
<path d="M197.166 104.915C196.7 102.292 193.948 99.0385 191.095 99.3325C191.047 99.337 191.051 99.4049 191.095 99.4139C193.305 99.8376 194.759 101.523 195.903 103.343C195.145 102.706 194.234 102.455 193.364 103.383C193.319 103.431 193.386 103.505 193.44 103.481C194.243 103.134 194.877 103.159 195.575 103.719C196.071 104.115 196.463 104.663 196.859 105.154C196.992 105.319 197.302 105.154 197.191 104.958C197.183 104.943 197.172 104.928 197.165 104.915H197.166Z" fill="black"/>
<path d="M206.595 94.6853C204.553 95.4558 206.242 99.4938 208.134 98.7791C209.998 98.0764 208.309 94.0384 206.595 94.6853Z" fill="black"/>
<path d="M214.315 91.3876C212.684 92.2214 214.53 96.1901 216.304 95.2824C218.106 94.3596 216.26 90.3924 214.315 91.3876Z" fill="black"/>
<path d="M206.131 90.3562C205.302 90.0742 204.541 90.4934 203.909 91.0317C203.224 91.6168 202.845 92.2425 202.684 93.1276C202.526 93.9856 203.6 94.5134 204.248 94.0263C204.739 93.6569 205.13 93.2347 205.579 92.82C206.084 92.3511 206.535 92.0314 206.702 91.3303C206.79 90.9548 206.488 90.4753 206.133 90.3547L206.131 90.3562Z" fill="black"/>
<path d="M215.951 87.3194C215.166 86.8791 214.444 86.772 213.557 86.9273C212.739 87.0706 211.931 87.3887 211.619 88.209C211.485 88.5618 211.66 89.1002 212.006 89.2705C212.651 89.5887 213.185 89.4455 213.867 89.355C214.472 89.2751 215.046 89.2419 215.643 89.0986C216.431 88.9102 216.711 87.7461 215.951 87.3194Z" fill="black"/>
<path d="M209.876 103.752C209.876 103.752 209.81 104.434 209.932 105.141C210.077 106.002 210.486 106.908 211.593 106.751C212.132 106.677 212.57 106.421 212.935 106.086C213.929 105.18 214.299 103.671 214.299 103.671C211.904 104.506 209.878 103.752 209.878 103.752H209.876Z" fill="#292929"/>
<path d="M209.931 105.139C210.075 106 210.485 106.906 211.591 106.75C212.13 106.676 212.568 106.419 212.934 106.085C212.409 105.082 211.046 104.8 209.931 105.138V105.139Z" fill="#F18A8B"/>
<path d="M211.291 91.8731C211.198 91.7706 211.022 91.8972 211.093 92.0284C213.143 95.6729 213.923 96.264 216.036 99.8919C215.409 99.9779 214.386 100.18 213.89 100.322C212.592 100.691 212.613 101.477 213.28 101.388C213.947 101.3 217.533 100.691 217.245 100.233C214.966 96.5429 214.34 95.0879 211.293 91.8716L211.291 91.8731Z" fill="black"/>
<path d="M204.071 100.579C202.447 100.712 201.219 101.9 201.327 103.232C201.435 104.563 202.841 105.534 204.466 105.402C206.09 105.269 207.319 104.081 207.21 102.749C207.102 101.418 205.696 100.447 204.071 100.579Z" fill="#F18A8B"/>
<path d="M218.453 95.3442C217.738 95.492 217.377 96.6726 217.648 97.9814C217.919 99.2903 218.717 100.23 219.432 100.082C220.147 99.9341 220.508 98.7535 220.237 97.4446C219.966 96.1358 219.168 95.1964 218.453 95.3442Z" fill="#F18A8B"/>
<path d="M226.019 134.218C225.969 134.101 225.92 133.994 225.87 133.896C225.896 133.95 225.945 134.059 226.019 134.218Z" fill="#C3C3C3"/>
<path d="M275.679 141.572L273.278 136.753C273.278 136.753 254.702 144.006 251.527 144.368C251.361 144.386 251.238 144.386 251.16 144.365C249.608 143.946 237.087 127.537 227.313 121.444C226.996 121.246 226.665 121.059 226.317 120.883C223.098 126.423 226.019 134.218 226.019 134.218C227.063 138.709 232.028 158.603 232.028 158.603C236.128 165.927 238.899 168.899 243.453 171.447C255.897 178.415 287.864 166.021 287.864 166.021L285.284 160.843L275.679 141.569V141.572Z" fill="#6FC183"/>
<path d="M251.525 144.368C253.848 144.377 266.717 144.297 275.677 141.572L273.276 136.753C273.276 136.753 254.7 144.006 251.525 144.368Z" fill="#848484"/>
<path d="M251.525 167.23C237.669 166.927 227.723 137.881 226.024 134.232C228.039 138.924 232.027 158.605 232.027 158.605C236.126 165.929 238.897 168.901 243.451 171.449C255.895 178.417 287.862 166.022 287.862 166.022L285.282 160.844C285.282 160.844 262.087 167.461 251.525 167.23Z" fill="#5DAF6E"/>
<path d="M214.288 141.705C213.173 141.705 212.27 142.61 212.27 143.727C212.27 144.844 213.173 145.749 214.288 145.749C215.404 145.749 216.307 144.844 216.307 143.727C216.307 142.61 215.404 141.705 214.288 141.705Z" fill="white"/>
<path d="M216.307 155.926C217.422 155.926 218.326 155.02 218.326 153.903C218.326 152.787 217.422 151.881 216.307 151.881C215.192 151.881 214.288 152.787 214.288 153.903C214.288 155.02 215.192 155.926 216.307 155.926Z" fill="white"/>
<path d="M194.404 214.839C194.417 214.874 195.751 218.34 195.307 222.47C194.714 227.992 191.396 232.018 185.446 234.435L185.592 234.794C193.189 231.708 195.278 226.403 195.694 222.498C196.142 218.276 194.777 214.732 194.764 214.697L194.404 214.839Z" fill="white"/>
<path d="M236.031 207.42L235.841 207.407H235.838L236.031 207.42Z" fill="white"/>
<path d="M250.036 215.307C244.203 215.307 240.084 214.063 237.795 211.611C235.908 209.587 236.029 207.442 236.031 207.42L235.838 207.407H235.841L235.646 207.393C235.64 207.487 235.504 209.717 237.503 211.866C239.865 214.405 244.082 215.693 250.035 215.693H250.051V215.305H250.035L250.036 215.307Z" fill="white"/>
<path d="M220.731 211.549L228.114 224.676L223.81 230.262L213.374 211.801L213.038 211.991L223.76 230.96L228.576 224.71L221.068 211.359L220.731 211.549Z" fill="white"/>
<path d="M202.709 252.006C198.347 247.398 189.072 233.558 188.979 233.419L188.658 233.635C188.752 233.775 198.045 247.641 202.429 252.273C204.455 254.414 210.445 262.248 202.414 273.136C196.11 281.681 156.302 325.003 155.901 325.441L156.186 325.703C156.588 325.266 196.41 281.928 202.725 273.367C205.712 269.317 207.088 265.221 206.816 261.191C206.524 256.875 204.422 253.816 202.71 252.008L202.709 252.006Z" fill="white"/>
<path d="M294.855 219.036C294.855 219.52 295.247 219.912 295.73 219.912H328.29C328.773 219.912 329.165 219.52 329.165 219.036V202.597H294.855V219.036Z" fill="#F3CE90"/>
<path d="M294.855 238.378C294.855 238.769 295.172 239.087 295.563 239.087H305.711C306.101 239.087 306.419 238.77 306.419 238.378V233.915H317.604V238.378C317.604 238.769 317.92 239.087 318.312 239.087H328.46C328.85 239.087 329.168 238.77 329.168 238.378V230.577H294.858V238.378H294.855Z" fill="#F3CE90"/>
<path d="M323.628 219.912H300.396V230.577H323.628V219.912Z" fill="#F19A6D"/>
<path d="M340.061 186.38H166.743C161.159 186.38 158.054 181.03 156.794 178.178C156.584 177.607 156.364 177.042 156.136 176.485C156.127 176.457 156.121 176.435 156.121 176.435V176.444C150.824 163.614 140.225 154.852 128.003 154.852C110.487 154.852 96.2881 172.841 96.2881 195.03C96.2881 217.22 110.487 235.209 128.003 235.209C140.583 235.209 151.451 225.931 156.578 212.482L156.584 212.54C156.584 212.54 159.57 202.699 167.094 202.6H340.061C344.532 202.6 348.157 198.969 348.157 194.491C348.157 190.012 344.532 186.381 340.061 186.381V186.38ZM141.26 188.952C141.26 188.952 141.193 189.037 141.087 189.189C140.842 189.751 140.569 190.296 140.27 190.819C139.565 192.705 139.046 195.979 140.973 200.475L140.899 200.46C141.939 202.677 142.538 205.181 142.538 207.841C142.538 216.808 135.871 224.079 127.645 224.079C119.419 224.079 112.752 216.81 112.752 207.841C112.752 205.186 113.348 202.686 114.385 200.472L114.373 200.475C116.205 196.199 115.824 193.028 115.177 191.104C114.773 190.43 114.42 189.72 114.11 188.982C114.099 188.969 114.085 188.952 114.085 188.952L114.095 188.948C113.239 186.9 112.752 184.632 112.752 182.236C112.752 173.269 119.421 165.998 127.645 165.998C135.869 165.998 142.538 173.267 142.538 182.236C142.538 184.625 142.054 186.885 141.205 188.927L141.262 188.951L141.26 188.952Z" fill="#F3CE90"/>
<path d="M329.165 202.597H294.855V208.595H329.165V202.597Z" fill="#F19A6D"/>
<path d="M158.043 209.246C161.417 203.194 165.748 202.636 166.837 202.598H340.589C344.757 202.598 348.135 199.215 348.135 195.039H160.949C160.567 202.684 158.966 207.214 158.042 209.246H158.043Z" fill="#F19A6D"/>
<path d="M158.043 209.246C157.816 209.654 157.592 210.076 157.375 210.534C157.375 210.534 157.649 210.114 158.043 209.246Z" fill="#F5B0A6"/>
<path d="M273.474 182.217H285.962C286.587 182.217 287.093 182.725 287.093 183.349V205.778C287.093 206.404 286.585 206.911 285.962 206.911H273.474C272.85 206.911 272.344 206.403 272.344 205.778V183.349C272.344 182.723 272.851 182.217 273.474 182.217Z" fill="#F3CE90"/>
<path d="M229.193 188.31C227.448 187.548 223.403 187.26 221.047 187.304C218.998 187.342 216.43 187.459 214.326 187.571C209.836 184.231 202.459 179.092 202.524 178.557C202.617 177.774 182.72 170.326 185.344 162.733C188.6 153.309 184.54 155.037 181.389 157.848C173.84 164.584 182.157 178.319 184.865 183.373C189.264 191.586 202.307 200.846 206.747 203.385C206.798 203.416 206.849 203.444 206.899 203.471C206.969 203.511 207.054 203.529 207.148 203.529C210.095 204.549 214.227 205.065 219.689 201.577C219.689 201.577 227.306 208.03 229.464 206.08C230.358 205.272 229.257 203.676 227.803 202.185C230.046 203.915 232.609 205.496 233.623 204.655C234.587 203.857 233.986 202.487 232.849 201.075C234.808 202.512 236.755 203.453 237.653 202.432C239.026 200.873 235.937 197.856 233.542 195.891C236.029 197.659 239.624 199.839 240.493 198.39C241.997 195.882 231.806 189.448 229.196 188.31H229.193Z" fill="#F5B0A6"/>
<path d="M228.594 192.054C228.568 192.039 228.54 192.072 228.564 192.09C229.548 192.845 230.092 193.355 231.076 194.111C232.064 194.867 235.555 197.631 237.39 199.868C237.468 199.963 235.352 195.968 228.594 192.054Z" fill="#F18A8B"/>
<path d="M225.398 195.278C225.377 195.267 225.354 195.293 225.374 195.308C226.644 196.241 231.542 200.064 232.77 201.06C232.865 201.137 232.924 201.13 232.847 201.035C231.906 199.852 228.717 196.924 225.398 195.279V195.278Z" fill="#F18A8B"/>
<path d="M222.459 197.867C222.415 197.841 222.378 197.91 222.414 197.939C224.71 199.696 226.146 200.943 227.99 202.515C228.085 202.595 228.175 202.583 228.095 202.493C226.426 200.609 225.316 199.561 222.459 197.867Z" fill="#F18A8B"/>
<path d="M198.6 134.766L191.286 167.393L212.814 177.272L208.295 186.924L217.281 174.718L196.123 165.494L198.6 134.766Z" fill="#5DAF6E"/>
<path d="M198.433 135.509C198.085 127.186 192.888 122.793 187.411 120.476C183.267 122.623 179.164 126.095 176.703 130.467C175.139 133.246 172.869 138.078 170.525 143.724V143.727C165.03 156.961 159.128 174.659 160.965 180.828C163.571 189.587 197.928 208.165 198.264 208.346H198.267L203.556 197.049L212.814 177.271L191.286 167.391L198.433 135.508V135.509Z" fill="#6FC183"/>
<path d="M167.479 176.037C167.479 165.787 170.475 144.025 170.523 143.727C165.028 156.961 159.126 174.659 160.963 180.828C163.583 189.629 198.265 208.348 198.265 208.348L202.045 200.272C202.045 200.272 167.479 187.369 167.479 176.037Z" fill="#5DAF6E"/>
</svg>
