<svg width="153" height="120" viewBox="0 0 153 120" fill="none" xmlns="http://www.w3.org/2000/svg">
<g clip-path="url(#clip0_1068_103190)">
<path d="M64.7671 29.9645C53.7928 33.9117 34.8617 23.4806 21.9686 27.9053C2.88814 34.4533 -5.2705 62.3946 3.96513 88.9456C13.2008 115.497 32.6782 118.617 47.2608 118.387C61.8427 118.157 74.3113 107.88 81.5456 110.738C88.7805 113.596 118.865 131.573 139.731 104.553C159.126 79.4383 153.123 40.5178 140.039 18.9448C130.539 3.28149 109.835 -5.6281 92.7825 3.96352C80.6219 10.8035 75.7761 26.0043 64.7678 29.9632L64.7671 29.9645Z" fill="#FEF6F6"/>
<path d="M137.487 107.376C140.063 104.576 142.172 101.563 143.863 98.4053C128.857 101.173 106.644 114.528 106.644 114.528C106.644 114.528 75.96 91.634 54.3515 95.5132C36.6847 98.6843 20.9039 105.131 15.2891 107.762C24.9518 117.325 38.0172 118.689 48.4706 118.551C62.5081 118.365 74.5109 110.063 81.4753 112.371C88.4397 114.681 117.401 129.203 137.488 107.375L137.487 107.376Z" fill="#FDCCCB"/>
<path d="M116.99 68.1474H64.6076C64.6076 68.1474 61.7298 65.5643 63.1684 62.407C64.6076 59.2496 69.2123 57.3361 74.6811 61.3545C74.6811 61.3545 72.9543 58.9628 74.6811 55.7101C76.408 52.4573 81.109 54.2748 82.4519 57.2884C82.4519 57.2884 81.6842 55.0398 83.6993 53.7006C85.7137 52.3613 86.961 55.2077 86.961 55.2077C86.961 55.2077 86.1932 47.6733 91.7577 46.8122C97.3221 45.9512 105.956 51.0077 104.134 60.6777C104.134 60.6777 114.399 57.9104 116.99 68.1474H116.99Z" fill="white"/>
<path d="M144.433 62.7167H124.121C124.121 62.7167 123.004 61.7152 123.563 60.4909C124.121 59.2667 125.906 58.5245 128.027 60.0826C128.027 60.0826 127.358 59.1549 128.027 57.8934C128.697 56.6319 130.52 57.3368 131.041 58.5056C131.041 58.5056 130.743 57.6334 131.524 57.1141C132.306 56.5947 132.789 57.6981 132.789 57.6981C132.789 57.6981 132.492 54.7766 134.649 54.4428C136.807 54.1089 140.155 56.0694 139.448 59.8193C139.448 59.8193 143.428 58.746 144.433 62.716L144.433 62.7167Z" fill="white"/>
<path d="M36.4669 68.5257H8.46125C8.46125 68.5257 6.92241 67.1446 7.69216 65.4565C8.46125 63.7684 10.9238 62.7454 13.8468 64.8941C13.8468 64.8941 12.9238 63.6156 13.8468 61.8765C14.7699 60.1374 17.2835 61.1095 18.0015 62.7206C18.0015 62.7206 17.5914 61.5185 18.6684 60.8025C19.7454 60.0865 20.4123 61.608 20.4123 61.608C20.4123 61.608 20.0022 57.5798 22.977 57.1199C25.9518 56.6593 30.5683 59.3626 29.5935 64.5328C29.5935 64.5328 35.082 63.0531 36.4669 68.5264V68.5257Z" fill="white"/>
<path d="M35.3516 63.4151V63.8953L37.4996 72.5076L43.9177 74.493L46.0821 72.7872L45.4847 70.3929L43.1342 64.5264L37.6241 62.3313L35.3516 63.4151Z" fill="#FFD3CF"/>
<path d="M44.7208 68.486L43.1342 64.5264L37.6241 62.3313L35.3516 63.4158V63.8959C35.3516 63.8959 37.3332 68.5206 44.7208 68.4866V68.486Z" fill="#FAA9A7"/>
<path d="M44.6878 43.2799C44.6878 43.2799 48.8169 47.2735 49.8618 56.5515L47.7223 56.8991C47.7223 56.8991 49.5133 62.2077 45.3344 64.6386C41.1555 67.0695 33.7922 64.2414 31.6533 60.6699C29.5137 57.0977 31.0067 50.5987 31.0067 50.5987L36.7775 45.6873L44.6878 43.2812V43.2799Z" fill="#FFD3CF"/>
<path d="M39.1178 59.6769L46.7295 58.9674C46.7295 58.9674 47.1848 62.6173 44.5899 63.2831C40.8584 64.2408 39.1172 59.6769 39.1172 59.6769H39.1178Z" fill="white"/>
<path d="M57.488 76.8356C57.488 76.8356 65.9951 94.7659 62.4877 99.1998C58.9632 103.655 53.2344 102.855 53.2344 102.855L54.8695 89.987L55.406 82.9981L57.488 76.8356Z" fill="#FFD3CF"/>
<path d="M45.2263 69.7546C45.2263 69.7546 53.7688 70.1087 55.7839 71.3741C57.799 72.6395 60.4744 82.0084 60.4744 82.0084L55.4072 84.4569L50.5614 77.2668L44.8516 73.1961C46.0963 72.5814 45.7739 71.2219 45.2263 69.7546Z" fill="#B6231F"/>
<path d="M21.9688 82.3069L27.9387 97.0419L29.5221 100.688L49.506 98.9763L50.7742 72.9126L31.7448 73.8226L21.9688 82.3069Z" fill="#D92E29"/>
<path d="M49.9546 102.102L38.1392 100.689L31.8207 99.7962H29.9897L29.5233 103.889C29.5233 103.889 27.8358 108.232 27.0234 116.026C33.8751 118.213 41.0177 118.632 47.2622 118.552C49.6061 118.522 51.895 118.282 54.1171 117.911C53.7667 115.552 52.3019 106.466 49.9553 102.104L49.9546 102.102Z" fill="#383838"/>
<path d="M29.5234 100.688V103.888L49.9548 102.102L49.5073 98.9763L29.5234 100.688Z" fill="#D92E29"/>
<path d="M19.875 77.1054L20.2484 74.4922C20.2484 74.4922 22.785 72.7519 29.9989 71.54C37.2129 70.3282 28.0343 76.1202 28.0343 76.1202L26.8898 82.6767L22.6749 82.8237L20.6709 78.6805L19.875 77.1048V77.1054Z" fill="#B6231F"/>
<path d="M34.0853 112.372C34.0853 112.372 46.0364 107.474 51.6755 106.611C51.1999 105.1 50.6227 103.509 49.9526 102.102L40.1359 100.928L31.0673 102.73L29.5658 103.495L29.5206 103.888C29.5206 103.888 28.4148 106.734 27.5625 111.951L34.0847 112.372H34.0853Z" fill="#191919"/>
<path d="M68.8906 86.9596L69.002 90.377L69.8471 90.3168L69.8399 86.7675L69.0904 86.8472L68.8906 86.9596Z" fill="#EA3934"/>
<path d="M69.8748 93.0071L69.8604 92.5858L70.5299 92.5786L70.5286 92.2206L69.863 92.2271L69.8493 91.8057L70.5273 91.7979L70.5253 91.4157L69.8539 91.4222L69.8394 91.0009L70.524 90.993L70.5214 90.2117L68.3281 90.1797L68.4605 93.537L70.5332 93.518L70.5312 93.0006L69.8748 93.0071Z" fill="#EA3934"/>
<path d="M69.2624 84.0256C67.9246 83.9923 66.8476 84.6064 66.8208 85.5191C66.8005 86.2135 67.4241 87.085 69.3095 87.153C71.0888 87.217 71.8507 86.3069 71.888 85.6543C71.9286 84.9461 71.2702 84.0759 69.2617 84.0263L69.2624 84.0256ZM69.2958 86.0881C68.583 86.0626 68.3478 85.7334 68.355 85.4707C68.3649 85.1258 68.7723 84.8939 69.2781 84.9063C70.0367 84.9252 70.2856 85.2538 70.2706 85.5217C70.2561 85.7686 69.9686 86.1123 69.2958 86.0881Z" fill="#EA3934"/>
<path d="M69.3565 83.1875C69.3106 83.1875 69.2635 83.1862 69.2169 83.1836C68.5952 83.147 68.0253 82.8713 67.6119 82.4068C67.1986 81.9423 66.9909 81.3459 67.0276 80.7259C67.1029 79.4533 68.2002 78.4668 69.4921 78.5426C70.7748 78.6184 71.7574 79.7205 71.6814 81.0003C71.6087 82.2265 70.5874 83.1875 69.3571 83.1875H69.3565ZM69.3519 78.9744C68.3522 78.9744 67.5222 79.7551 67.4632 80.7514C67.4331 81.2551 67.6021 81.7398 67.9382 82.1174C68.2742 82.4944 68.7374 82.7184 69.2425 82.7485C70.2926 82.8099 71.1836 82.009 71.2445 80.9748C71.3061 79.9354 70.5081 79.0398 69.4659 78.9784C69.4279 78.9764 69.3899 78.9751 69.3519 78.9751V78.9744Z" fill="#191919"/>
<path d="M69.5463 82.7516L69.1094 82.7595L69.1519 85.1175L69.5888 85.1096L69.5463 82.7516Z" fill="#191919"/>
<path d="M78.9407 75.2997C78.9407 75.2997 74.4565 71.8993 73.4287 71.6661C72.4008 71.4329 68.1505 73.6227 67.1692 74.8803C66.1885 76.1379 66.6084 79.8179 66.8888 80.6103C67.1692 81.4028 68.1034 80.2379 68.1034 80.2379C68.1034 80.2379 68.2901 81.5354 69.5983 80.8867C70.9066 80.2379 73.8466 78.608 74.7808 76.0921L77.3986 76.5579L78.9401 75.3004L78.9407 75.2997Z" fill="#FFD3CF"/>
<path d="M102.648 70.8514L101.643 69.9067C101.643 69.9067 93.6086 78.6543 91.9276 87.7847C91.9276 87.7847 84.7804 78.6778 78.6146 74.6248L75.6719 76.7911C75.6719 76.7911 81.0673 92.6524 91.5771 100.549C91.5771 100.549 97.5241 96.4258 100.896 90.5331L101.489 79.3762L102.648 70.8514Z" fill="#383838"/>
<path d="M100.843 52.6213C99.8222 52.6213 98.9922 51.3598 98.9922 49.8082C98.9922 48.2566 99.8222 46.9951 100.843 46.9951C101.863 46.9951 102.694 48.2573 102.694 49.8082C102.694 51.3591 101.863 52.6213 100.843 52.6213ZM100.843 47.2336C99.9539 47.2336 99.2313 48.3886 99.2313 49.8082C99.2313 51.2278 99.9545 52.3828 100.843 52.3828C101.731 52.3828 102.454 51.2278 102.454 49.8082C102.454 48.3886 101.731 47.2336 100.843 47.2336Z" fill="#191919"/>
<path d="M75.8415 76.667L75.5703 76.2319L78.0774 74.3563L78.5058 74.7058L75.8415 76.667Z" fill="white"/>
<path d="M101.339 82.2109L100.213 75.1109C100.213 75.1109 96.0456 86.9851 97.002 95.7249C98.3758 94.2458 99.7777 92.4878 100.896 90.5332L101.339 82.2115V82.2109Z" fill="#191919"/>
<path d="M124.392 117.216C124.388 117.203 122.38 110.278 118.647 103.39L108.323 101.573L102.998 102.924C102.904 103.018 101.643 106.604 101.643 106.604C101.552 111.279 101.597 115.411 101.923 118.426C108.867 119.595 116.731 119.759 124.391 117.216H124.392Z" fill="#191919"/>
<path d="M105.572 68.9647L101.647 69.9068C101.647 69.9068 95.9016 83.9179 101.647 106.604L118.651 103.39C118.651 103.39 118.931 93.9799 124.397 84.2909L120.893 68.9654L115.895 71.0618L107.58 85.4094L105.665 90.5338L104.403 77.8632L106.319 70.8756L105.572 68.9654V68.9647Z" fill="#383838"/>
<path d="M110.569 68.0214L108.713 68.755C108.713 68.755 105.804 73.7742 105.664 90.5325C105.664 90.5325 109.623 77.594 115.999 67.078L112.947 67.3223L110.569 68.0214Z" fill="white"/>
<path d="M109.541 68.9647L108.781 69.3254L109.342 72.9472L114.507 68.1037L111.024 68.58L109.541 68.9647Z" fill="#EA3934"/>
<path d="M107.226 76.0686L109.843 71.6491L110.357 77.3961L108.711 83.4521L106.923 87.8233L105.662 90.5325L105.031 82.7531L106.373 78.5126L106.781 75.7145L107.226 76.0686Z" fill="#EA3934"/>
<path d="M115.366 58.9373L117.924 55.6879C117.924 55.6879 115.857 60.9632 115.997 67.0774C115.997 67.0774 110.848 71.0252 108.99 69.5925C108.097 68.9033 109.632 66.9839 109.632 66.9839L109.539 62.5585L114.91 59.2045L115.366 58.9367L115.366 58.9373Z" fill="#FFD3CF"/>
<path d="M115.366 58.9374L114.911 59.2052L109.539 62.5592L109.613 66.0661C109.979 66.3901 110.763 66.737 112.271 66.053C113.968 65.2841 115.668 62.6938 116.863 59.2816C117.204 57.8261 117.559 56.7207 117.759 56.1419C117.785 56.0282 117.81 55.9152 117.835 55.8009L115.367 58.9374H115.366Z" fill="#FAA9A7"/>
<path d="M109.627 66.9846C109.627 66.9846 104.827 68.6355 104.138 69.3064C104.138 69.3064 101.919 77.8155 105.656 90.5325C105.656 90.5325 106.983 75.951 109.627 66.9846Z" fill="#191919"/>
<path d="M106.594 41.9276C106.594 41.9276 101.021 47.2199 99.875 57.1186L102.929 56.5855C102.929 56.5855 102.17 63.0453 105.716 64.3904C109.228 65.7231 116.634 63.7815 118.887 55.0248L119.193 47.3343L112.779 45.9636L107.739 42.7272L106.594 41.9276H106.594Z" fill="#FFD3CF"/>
<path d="M107.016 41.1665L106.596 41.9282C106.596 41.9282 106.214 50.4942 116.254 51.6747L121.523 49.771L119.194 45.9257L108.619 40.4812L107.015 41.1665H107.016Z" fill="#0F3347"/>
<path d="M104.152 58.2605C104.152 58.2605 103.77 61.6492 105.527 62.3345C107.283 63.0198 110.91 60.5072 113.124 56.9285L104.152 58.2612V58.2605Z" fill="white"/>
<path d="M105.569 52.6213C104.549 52.6213 103.719 51.3598 103.719 49.8082C103.719 48.2566 104.549 46.9951 105.569 46.9951C106.59 46.9951 107.42 48.2573 107.42 49.8082C107.42 51.3591 106.59 52.6213 105.569 52.6213ZM105.569 47.2336C104.68 47.2336 103.958 48.3886 103.958 49.8082C103.958 51.2278 104.681 52.3828 105.569 52.3828C106.458 52.3828 107.181 51.2278 107.181 49.8082C107.181 48.3886 106.458 47.2336 105.569 47.2336Z" fill="#191919"/>
<path d="M107.331 49.6595L107.266 49.9569L115.845 51.8224L115.91 51.5249L107.331 49.6595Z" fill="#191919"/>
<path d="M103.016 46.9671C103.016 46.9671 99.0031 46.078 100.072 41.2429C101.14 36.4079 104.615 34.7329 105.531 34.9609C106.448 35.1896 107.783 38.2352 109.54 38.1588C111.296 38.0823 117.519 36.2172 119.199 38.654C120.878 41.0907 119.237 43.5654 122.405 45.5828C125.574 47.6008 125.116 50.342 123.36 51.9791C121.603 53.6163 121.26 54.0729 121.184 55.1012C121.107 56.1288 120.414 58.889 117.306 58.9942C117.306 58.9942 115.686 57.6902 116.908 53.807L117.175 48.6676L108.967 44.2892L106.6 41.9289C106.6 41.9289 104.777 43.6294 103.016 46.9677L103.016 46.9671Z" fill="#0F3347"/>
<path d="M115.704 51.9922C115.704 51.9922 116.902 49.5182 118.686 50.1577C120.47 50.7973 117.097 56.7455 115.704 55.1887C114.31 53.6319 114.923 52.75 114.923 52.75L115.704 51.9922Z" fill="#FFD3CF"/>
<path d="M103.917 49.6567H101.695V49.9612H103.917V49.6567Z" fill="#191919"/>
<path d="M118.352 37.9189C118.46 38.0026 118.559 38.0627 118.65 38.1051C118.556 38.0378 118.457 37.9751 118.352 37.9189Z" fill="#185375"/>
<path d="M103.616 45.893C103.616 45.893 101.077 44.5054 102.042 40.291C103.006 36.0767 104.927 34.6185 105.576 35.5704C106.225 36.5222 105.355 39.8344 109.54 39.5678C112.844 39.3575 115.426 37.4551 117.153 37.5257C114.612 37.0605 110.844 38.1025 109.54 38.1594C107.784 38.2358 106.448 35.1895 105.531 34.9615C104.615 34.7328 101.141 36.4085 100.072 41.2435C99.0026 46.0786 103.016 46.9677 103.016 46.9677C103.208 46.6051 103.4 46.2654 103.59 45.942L103.616 45.8937V45.893Z" fill="#185375"/>
<path d="M118.644 103.389L115.797 102.888L101.641 106.603L119.455 104.931C119.194 104.421 118.925 103.907 118.644 103.389Z" fill="#21404F"/>
<path d="M121.306 82.3807L124.389 84.291C124.389 84.291 128.593 84.7568 132.096 86.1541C132.096 86.1541 123.361 96.2625 119.671 99.8498L120.979 102.924C120.979 102.924 140.038 99.0109 144.428 83.2196C144.428 83.2196 135.787 71.4806 120.885 68.9654L117.102 71.248L118.597 78.2755L121.306 82.3814V82.3807Z" fill="#383838"/>
<path d="M119.947 100.489C119.947 100.489 115.739 99.7139 114.643 100.161C113.547 100.608 111.838 102.562 111.279 103.763C110.719 104.964 110.691 106.388 110.971 106.556C111.251 106.724 111.475 106.193 111.475 106.193C111.475 106.193 111.222 107.114 111.53 107.449C111.838 107.785 112.286 106.639 112.286 106.639C112.286 106.639 112.062 107.757 112.539 107.728C113.015 107.7 113.295 106.528 113.295 106.528C113.295 106.528 112.878 107.393 113.478 107.449C114.079 107.505 115.507 105.16 115.507 105.16C115.507 105.16 119.077 105.568 120.666 102.181L119.947 100.49V100.489Z" fill="#FFD3CF"/>
<path d="M115.997 65.6793L121.842 69.1405C121.842 69.1405 108.564 82.6133 105.656 90.5325C105.656 90.5325 108.925 76.4743 115.996 65.6793H115.997Z" fill="#191919"/>
<path d="M119.721 99.9621L119.297 100.303L120.43 102.923L120.907 102.75L119.721 99.9621Z" fill="white"/>
<path d="M120.102 84.2439L123.84 85.2996C124.018 84.9638 124.201 84.6274 124.391 84.2903C122.65 84.0303 120.102 84.2439 120.102 84.2439Z" fill="#191919"/>
<path d="M59.8364 82.3193L56.5 83.931L56.9324 85.1102L60.5164 84.1061C60.2885 83.4887 60.0598 82.8897 59.8358 82.3193H59.8364Z" fill="#FAA9A7"/>
<path d="M45.0799 43.7138L41.5692 48.6553L38.7641 51.4181L35.8672 52.9154C35.8672 52.9154 40.4667 53.2022 43.5548 50.3244C45.3721 48.6311 46.1595 46.8979 46.5001 45.7579C45.9263 44.7852 45.412 44.1097 45.0799 43.7131V43.7138Z" fill="#FAA9A7"/>
<path d="M35.6611 52.9206C35.6611 52.9206 42.8987 52.7925 45.5597 44.3278C45.5597 44.3278 46.4579 45.5776 46.9413 46.5445C46.9413 46.5445 48.9669 44.5696 47.4995 40.8236C46.032 37.0776 40.9078 38.2934 38.6189 38.8637C36.33 39.434 29.1913 37.4003 24.6639 40.2526C20.1365 43.1055 19.6642 46.4419 20.9698 50.1258C22.2754 53.8097 23.7684 53.2139 22.9849 57.6792C22.2014 62.1444 25.7835 65.0097 30.8579 64.3395C30.8579 64.3395 30.8592 65.9394 33.0787 65.2698C35.2982 64.6001 36.1564 63.4092 35.783 61.6231C35.4096 59.837 33.9919 59.6136 35.1488 57.2696C36.3057 54.9255 35.6618 52.9193 35.6618 52.9193L35.6611 52.9206Z" fill="#0F3347"/>
<path d="M35.7807 61.6243C35.4073 59.8382 33.9897 59.6147 35.1466 57.2707C36.219 55.0972 35.744 53.217 35.6693 52.9551C34.65 53.4091 33.9228 53.5816 33.9228 53.5816C33.9228 53.5816 34.726 59.1248 32.8956 60.9618C31.0653 62.7989 30.5504 60.5026 30.5504 60.5026C30.5504 60.5026 29.3555 63.1817 26.6217 62.4807C23.8873 61.7797 22.9826 57.681 22.9826 57.681C22.1991 62.1462 25.7812 65.0116 30.8557 64.3413C30.8557 64.3413 30.857 65.9412 33.0764 65.2716C35.2959 64.602 36.1541 63.411 35.7807 61.6249V61.6243Z" fill="#0B2433"/>
<path d="M47.2214 42.8644C45.9807 38.5481 43.3131 40.4831 41.7684 46.2876C40.7621 50.0669 37.7428 52.0157 35.7578 52.9159C36.6101 52.8656 43.0779 52.2273 45.5608 44.3277C45.5608 44.3277 46.3397 45.4116 46.8369 46.3418C47.3361 45.2241 47.5582 44.0331 47.2221 42.865L47.2214 42.8644Z" fill="#0B2433"/>
<path d="M36.2553 53.613C36.2553 53.613 35.1168 50.9914 33.4908 52.1131C31.8648 53.2348 33.6533 59.8304 36.5809 59.2353L37.8276 57.6674L37.1227 55.5533L36.2553 53.613Z" fill="#FFD3CF"/>
<path d="M36.3886 70.2198L34.0859 66.174L37.4676 64.0874L40.844 71.2383L39.3084 70.9907L37.2167 70.329L36.3886 70.2198Z" fill="#939598"/>
<path d="M34.7435 67.327L37.9424 65.0915L37.6882 64.5525L34.2109 66.3935L34.7435 67.327Z" fill="#76787A"/>
<path d="M32.75 64.8158L33.9901 66.6822L38.1245 64.5335L37.2846 62.5469L32.75 64.8158Z" fill="#939598"/>
<path d="M23.5156 93.5854L34.3733 110.974L61.9026 97.0916L54.2012 78.5577L23.5156 93.5854Z" fill="#E6E7E8"/>
<path d="M24.7996 95.6413L54.8675 80.1609L54.2012 78.5577L23.5156 93.5854L24.7996 95.6413Z" fill="#D1D3D4"/>
<path d="M32.4297 107.858L60.2021 92.9942L61.9047 97.0916L34.3753 110.974L32.4297 107.858Z" fill="#BCBEC0"/>
<path d="M49.7266 86.3241L53.6749 93.8807L56.634 92.3429L53.6264 84.2976L49.7266 86.3241Z" fill="#449BC9"/>
<path d="M57.0449 92.5003L53.5348 94.3243L49.2812 86.185L53.8047 83.8344L57.0449 92.5003ZM53.8152 93.4365L56.2234 92.1848L53.4477 84.7608L50.1715 86.4633L53.8152 93.4358V93.4365Z" fill="white"/>
<path d="M30 96.4338L34.3145 103.941L37.2736 102.404L34.0695 94.4602L30 96.4338Z" fill="#449BC9"/>
<path d="M37.6918 102.557L34.1864 104.379L29.5391 96.292L34.244 94.0101L37.6918 102.557ZM34.4438 103.503L36.8572 102.249L33.8968 94.9097L30.4628 96.5749L34.4438 103.502V103.503Z" fill="white"/>
<path d="M44.5451 105.82L42.2497 101.727L36 90.5175L47.4079 85.595L54.2007 100.979L44.5451 105.82Z" fill="#B8B8B8"/>
<path d="M22.6797 94.8234L56.3768 78.5774L27.9362 64.7714L22.6797 94.8234Z" fill="#EA3934"/>
<g style="mix-blend-mode:multiply">
<path d="M52.4922 97.1204L53.9033 96.3874L54.5545 97.6339L56.0225 97.189L56.6318 98.3558L58.3639 97.7384L59.074 98.5197L54.1961 100.979L52.4922 97.1204Z" fill="#D1D3D4"/>
</g>
<path d="M45.9215 100.029L46.7659 100.184L49.1741 98.8954L49.1158 97.6685L44.9382 88.1827L44.6545 88.0475L41.9535 89.4514L40.5234 90.5124L45.9215 100.029Z" fill="#EA3934"/>
<g style="mix-blend-mode:multiply">
<path d="M44.8001 88.6191L41.8888 90.9272L47.1833 99.9916L46.3625 100.418L40.3984 90.2621L42.1469 89.354L44.9442 88.1827L44.8001 88.6191Z" fill="#CC3F30"/>
</g>
<path d="M45.4396 100.896L39.4219 90.1256L45.2719 87.0851L50.2867 98.3766L49.177 98.8953L44.5238 88.5688L41.0609 90.6867L46.7688 100.184L45.4396 100.896Z" fill="#E6E7E8"/>
<path d="M51.8982 85.2087L51.4688 85.4017L54.9851 93.1826L55.4146 92.9896L51.8982 85.2087Z" fill="white"/>
<path d="M54.4441 86.5053L50.7422 88.2205L50.9407 88.6465L54.6425 86.9313L54.4441 86.5053Z" fill="white"/>
<path d="M55.3898 89.1304L52.1797 91.044L52.4214 91.4472L55.6315 89.5335L55.3898 89.1304Z" fill="white"/>
<path d="M32.253 95.3407L31.8281 95.5434L35.6006 103.41L36.0255 103.207L32.253 95.3407Z" fill="white"/>
<path d="M35.0333 96.7904L31.0781 98.201L31.2367 98.6433L35.1919 97.2327L35.0333 96.7904Z" fill="white"/>
<path d="M35.9946 99.3347L32.7109 101.163L32.9406 101.573L36.2242 99.7448L35.9946 99.3347Z" fill="white"/>
<path d="M42.2497 101.727L42.946 102.969L44.3584 101.804L37.2146 90.5221L47.539 85.8929L47.4079 85.595L36 90.5175L42.2497 101.727Z" fill="#9FA0A1"/>
<path d="M53.048 98.3773L50.6255 99.5349L48.7951 100.133L44.5029 102.257L43.3047 103.614L43.9035 104.682L47.3742 103.785L53.0146 100.854L53.6055 99.6395L53.048 98.3773Z" fill="#F0F0F0"/>
<path d="M43.9062 104.682L53.6083 99.6395L54.1999 100.979L44.5443 105.82L43.9062 104.682Z" fill="white"/>
<path d="M43.3043 103.614L53.0477 98.3773L52.4928 97.1204L42.625 102.402L43.3043 103.614Z" fill="#DBDBDB"/>
<path d="M52.8189 97.873L43.1797 103.395L43.3028 103.614L53.0462 98.3773L52.8241 97.8736L52.8189 97.873Z" fill="#D1D3D4"/>
<path d="M43.8047 104.508L43.9023 104.682L53.6044 99.6395L53.4995 99.4023L43.8047 104.508Z" fill="#D1D3D4"/>
<path d="M44.3594 105.495L44.5513 105.844L54.197 100.979L54.0306 100.602L44.3594 105.495Z" fill="#D1D3D4"/>
<path d="M44.1772 91.9025C44.1235 91.8 43.9971 91.7601 43.8942 91.8137C43.7914 91.8672 43.7514 91.9933 43.8051 92.0959C43.8589 92.1985 43.9853 92.2383 44.0881 92.1847C44.191 92.1312 44.231 92.0051 44.1772 91.9025Z" fill="white"/>
<path d="M33.5891 87.4687L29.1953 80.7776L31.7299 72.7742L39.8158 75.3945L43.0658 82.8597L33.5891 87.4687Z" fill="#E6E7E8"/>
<path d="M29.3359 80.9919L29.6275 81.4361L32.6842 73.9527L40.3587 76.6416L39.9578 75.7218L32.2374 73.0969L31.6006 73.4281L29.3359 80.9919Z" fill="#BCBEC0"/>
<path d="M28.6406 81.7034L29.5034 81.2546L32.2502 73.5124L40.2248 76.3451L41.6352 75.6121L31.4438 71.968L28.6406 81.7034Z" fill="#CC3F30"/>
<path d="M44.2214 82.4429L39.5486 83.9428L34.9675 86.3234L32.3359 87.9573L32.351 88.2141L36.1558 88.3049L47.4052 82.893C46.1868 82.7101 44.2221 82.4435 44.2221 82.4435L44.2214 82.4429Z" fill="#CC3F30"/>
<path d="M34.9745 86.3227L31.9531 80.1583L33.68 76.2313L38.2742 77.3628L41.4744 83.1039L34.9745 86.3227Z" fill="#449BC9"/>
<path d="M41.9274 83.2457L34.8208 86.765L31.5859 80.1668L33.4857 75.8466L38.4894 77.0787L41.9267 83.2464L41.9274 83.2457ZM35.1222 85.8811L41.0155 82.9629L38.0531 77.6477L33.8677 76.6174L32.3138 80.1511L35.1228 85.8811H35.1222Z" fill="white"/>
<path d="M33.8842 76.1243L33.4688 76.3456L38.0459 84.8905L38.4614 84.6692L33.8842 76.1243Z" fill="white"/>
<path d="M32.3578 88.2134L44.2283 82.4429L43.6839 81.4002L31.9766 87.4843L32.3578 88.2134Z" fill="#BCBEC0"/>
<path d="M32.5095 87.6032L31.9756 87.4843L30.5547 84.7653L31.1489 84.4563L32.6779 87.383L32.5095 87.6032Z" fill="#BCBEC0"/>
<path d="M34.2559 86.5377L34.1006 86.7886L33.5838 86.7402L32.1484 83.9494L32.742 83.6404L34.2559 86.5377Z" fill="#BCBEC0"/>
<path d="M35.8268 85.6917L35.684 85.9739L35.1841 85.9961L33.7344 83.1328L34.3286 82.8244L35.8268 85.6917Z" fill="#BCBEC0"/>
<path d="M37.4048 84.8457L37.2751 85.1592L36.7916 85.252L35.3281 82.3168L35.9216 82.0084L37.4048 84.8457Z" fill="#BCBEC0"/>
<path d="M38.9828 84.0003L38.8662 84.3439L38.3998 84.5079L36.9219 81.5008L37.5154 81.1924L38.9828 84.0003Z" fill="#BCBEC0"/>
<path d="M40.5615 83.1543L40.4573 83.5293L40.0079 83.7632L38.5156 80.6842L39.1091 80.3759L40.5615 83.1543Z" fill="#BCBEC0"/>
<path d="M42.1239 82.2776L42.0328 82.6833L41.6005 82.9877L40.0938 79.8369L40.6873 79.5285L42.1239 82.2776Z" fill="#BCBEC0"/>
<path d="M43.6792 81.4002L42.2582 78.6812L41.6641 78.9896L43.1852 82.2129L43.6012 81.8373L43.6792 81.4002Z" fill="#BCBEC0"/>
<path d="M30.2812 84.7144L30.4811 84.9946L42.5461 78.8975L42.2991 78.3226L30.2812 84.7144Z" fill="#939598"/>
<path d="M38.3435 77.3648L31.8359 80.1101L32.0195 80.5427L38.527 77.7974L38.3435 77.3648Z" fill="white"/>
<path d="M39.087 78.8341L32.9531 82.2724L33.1839 82.6819L39.3178 79.2436L39.087 78.8341Z" fill="white"/>
<path d="M22.2262 77.5438C22.2262 77.5438 22.6369 74.8039 20.5472 75.8459C18.4574 76.8879 2.4133 91.6091 12.1147 98.5301C21.8161 105.451 37.401 98.1329 43.0093 92.6511L41.2038 90.5978C41.2038 90.5978 21.106 98.6007 18.8308 93.3214C16.8904 88.8189 23.5161 84.2981 23.5161 84.2981L22.2262 77.5444V77.5438Z" fill="#FFD3CF"/>
<path d="M41.2238 90.865C41.2238 90.865 40.8504 85.0357 41.97 84.1178C43.0896 83.1999 42.8341 87.4692 42.8341 87.4692C42.8341 87.4692 47.0942 82.8531 48.3134 83.002C49.5325 83.151 45.577 87.1942 45.577 87.1942C45.577 87.1942 50.3036 83.4482 50.9501 84.2668C51.5967 85.0853 46.597 87.8886 46.597 87.8886C46.597 87.8886 51.6714 85.755 52.1195 86.4749C52.5669 87.1942 47.3648 89.1292 47.3648 89.1292C47.3648 89.1292 51.1251 88.1865 51.2738 88.9306C51.4231 89.6747 46.8459 92.2049 43.0156 92.6518C41.8128 92.3774 41.2166 91.7816 41.2245 90.8657L41.2238 90.865Z" fill="#FFD3CF"/>
<path d="M50.7734 101.156C52.0476 102.87 53.4351 103.312 55.1822 102.443C56.9301 101.573 56.0647 96.3265 55.3906 96.1926C54.5953 96.0352 54.9399 99.1416 54.9399 99.1416C54.9399 99.1416 53.9448 95.4465 53.3722 95.5125C52.7243 95.587 53.4973 99.4447 53.4973 99.4447C53.4973 99.4447 51.8183 95.6125 51.1468 96.1926C50.4753 96.7727 51.9677 100.172 51.9677 100.172C51.9677 100.172 49.8962 97.0504 49.3086 97.5253C48.721 98.0003 50.0692 100.208 50.7734 101.156Z" fill="#FFD3CF"/>
<path d="M12.3074 84.3988C11.725 85.2448 11.1852 86.1189 10.7188 87.0054L18.6815 90.2418C18.8302 89.7205 19.053 89.2149 19.3242 88.7327L18.7621 83.7638L12.3074 84.3994V84.3988Z" fill="#FAA9A7"/>
<path d="M23.8329 75.8322L23.4811 75.7009L20.2508 74.4929C20.2508 74.4929 15.4744 77.0231 10.7734 84.4654L20.1761 89.8237C20.1761 89.8237 21.6828 87.7835 23.5944 86.3234L25.3147 80.1217L23.8329 75.8322Z" fill="#B6231F"/>
</g>
<defs>
<clipPath id="clip0_1068_103190">
<rect width="152" height="119.241" fill="white" transform="translate(0.15625)"/>
</clipPath>
</defs>
</svg>
