<svg viewBox="0 0 100 70" fill="none" xmlns="http://www.w3.org/2000/svg">
<g clip-path="url(#clip0_1061_97480)">
<path d="M4.87623 36.7361C6.052 35.5841 7.16048 34.2837 8.16103 32.9425C8.6613 32.2719 9.37743 31.683 9.945 31.1607C10.5532 30.5309 11.1208 30.0086 11.729 29.3788C14.1884 27.1154 16.6073 24.9595 19.3499 22.926C24.4974 19.0998 30.0893 16.0557 36.2868 14.346C42.2546 12.9179 48.6121 12.7426 54.4135 14.6905C60.5387 16.7609 65.9858 21.277 67.9755 27.4334C68.8897 30.2355 69.2096 33.3042 68.5849 36.2613C67.9196 39.3259 66.3908 42.064 64.2958 44.3424C62.2007 46.6207 59.6066 48.5876 56.6761 49.8131C55.1905 50.4796 53.5703 50.8495 51.8968 50.708C50.264 50.4591 48.767 49.5245 47.9048 48.216C46.4637 45.8288 47.6014 42.82 49.1428 40.7007C50.7249 38.4741 52.8733 36.7072 55.1156 35.3443C59.7489 32.5518 65.5541 31.5535 70.7904 32.0596C76.6477 32.5549 82.0301 34.9585 86.709 38.57C91.5632 42.3706 95.4574 47.4049 98.1632 52.9724C98.4324 53.5654 98.7689 54.3068 98.9975 55.0073C99.0914 55.4113 99.226 55.7078 99.32 56.1118C99.4139 56.5158 99.5079 56.9198 99.6425 57.2163C99.871 57.9168 98.8311 58.3834 98.6026 57.6828C98.3334 57.0898 97.8483 56.4151 97.5792 55.822C97.2021 55.1882 96.8249 54.5543 96.4885 53.8129C95.8422 52.586 95.088 51.3183 94.2931 50.158C92.744 47.7299 91.0058 45.476 88.9704 43.3554C85.1422 39.4514 80.4086 36.3106 75.025 34.889C70.3295 33.6049 64.9979 33.6768 60.2987 35.3389C58.003 36.1904 55.7746 37.1901 53.856 38.6755C51.9375 40.1608 50.0456 41.9018 49.4082 44.2401C49.0425 45.2072 49.0412 46.1893 49.5529 47.1197C50.2398 48.2392 51.6835 48.6622 52.9253 48.6405C54.4236 48.5929 55.7606 47.9931 56.9897 47.3524C58.2188 46.7118 59.3806 45.9229 60.4345 45.0932C62.5829 43.3263 64.5294 41.1146 65.6125 38.5764C66.6956 36.0382 67.0904 33.3627 66.6486 30.6164C65.7382 24.868 61.5735 20.2227 56.3397 17.7525C51.2138 15.323 45.3565 14.8277 39.6999 15.7594C34.0026 16.7985 28.5466 19.157 23.6835 22.231C21.0628 23.9421 18.5093 25.8015 16.1311 27.85C14.8881 28.8538 13.7529 29.8984 12.4692 31.0097C11.3341 32.0544 10.1583 33.2065 8.95588 34.1028C7.71281 35.1066 6.51038 36.003 5.33461 37.1551C4.95623 37.5033 4.32263 36.8953 4.70101 36.5471L4.87623 36.7361Z" fill="currentColor"/>
<path d="M0.00236145 41.1559L2.39962 34.816L4.79688 28.476L5.36697 36.4293L13.2342 37.8073L6.56433 39.4612L0.00236145 41.1559Z" fill="currentColor"/>
</g>
<defs>
<clipPath id="clip0_1061_97480">
<rect width="44" height="99" fill="white" transform="matrix(-0.353679 0.935367 0.935367 0.353679 15.5625 0)"/>
</clipPath>
</defs>
</svg>
