<svg viewBox="0 0 52 52" fill="none" xmlns="http://www.w3.org/2000/svg">
<path d="M33.8385 29.3711C33.2529 29.8381 32.8191 30.4684 32.5921 31.1822C32.365 31.896 32.3549 32.6611 32.5631 33.3806C32.7713 34.1001 33.1883 34.7416 33.7614 35.2239C34.3344 35.7062 35.0378 36.0076 35.7822 36.0898C35.9239 36.1054 36.0663 36.1132 36.2088 36.1133C36.8129 36.112 37.4079 35.9661 37.9441 35.6878C38.4803 35.4094 38.942 35.0067 39.2907 34.5134C39.6393 34.0201 39.8648 33.4504 39.9482 32.8521C40.0316 32.2538 39.9705 31.6442 39.7701 31.0743C39.5697 30.5044 39.2357 29.9908 38.7961 29.5764C38.3565 29.1621 37.824 28.859 37.2433 28.6925C36.6626 28.5261 36.0504 28.5011 35.4581 28.6197C34.8657 28.7383 34.3104 28.997 33.8385 29.3742V29.3711ZM37.5885 34.0586C37.2456 34.3329 36.829 34.4993 36.3915 34.5368C35.954 34.5744 35.5152 34.4813 35.1305 34.2695C34.7459 34.0576 34.4327 33.7365 34.2306 33.3467C34.0285 32.9568 33.9465 32.5158 33.995 32.0794C34.0435 31.643 34.2203 31.2307 34.5031 30.8948C34.7859 30.5588 35.1619 30.3143 35.5837 30.1921C36.0055 30.0698 36.454 30.0754 36.8726 30.2081C37.2912 30.3408 37.661 30.5946 37.9354 30.9375C38.12 31.1643 38.2577 31.4255 38.3403 31.706C38.423 31.9865 38.449 32.2807 38.4167 32.5714C38.3845 32.862 38.2948 33.1433 38.1527 33.399C38.0106 33.6546 37.8191 33.8793 37.5893 34.0602L37.5885 34.0586Z" fill="currentColor"/>
<path d="M33.3516 3.3875C32.8182 2.86064 32.0987 2.5652 31.3489 2.5652C30.5992 2.5652 29.8796 2.86064 29.3462 3.3875L20.943 11.8047C20.6781 12.0639 20.4676 12.3733 20.3236 12.7148C20.1797 13.0563 20.1053 13.4231 20.1048 13.7938C20.1024 14.1689 20.1749 14.5407 20.3181 14.8875C20.4612 15.2343 20.6721 15.549 20.9384 15.8133L25.3485 20.2227C24.1487 20.517 23.0194 21.0468 22.0261 21.7814C21.0328 22.5159 20.1954 23.4406 19.5626 24.5016L10.329 24.1891C10.1223 24.1837 9.92166 24.2591 9.76961 24.3992L5.06805 28.7922C4.91674 28.9336 4.8278 29.1294 4.82076 29.3364C4.81373 29.5434 4.88919 29.7447 5.03055 29.8961L8.40711 33.5109C8.54763 33.6615 8.74193 33.7505 8.94774 33.7586L11.3313 33.8508C11.4345 33.8549 11.5374 33.8385 11.6341 33.8025C11.7309 33.7666 11.8195 33.7119 11.895 33.6415C11.9705 33.5711 12.0313 33.4864 12.0738 33.3924C12.1164 33.2984 12.1399 33.1969 12.143 33.0938L12.1852 31.6672L13.2946 31.7055L13.229 33.5859C13.2216 33.7928 13.2966 33.9941 13.4375 34.1457C13.5784 34.2973 13.7737 34.3868 13.9805 34.3945L16.8149 34.5C16.9175 34.5038 17.0198 34.4873 17.1159 34.4515C17.2121 34.4157 17.3003 34.3614 17.3755 34.2915C17.4506 34.2216 17.5113 34.1376 17.554 34.0443C17.5967 33.951 17.6206 33.8502 17.6243 33.7477L17.6884 32.0242L18.6384 32.057C19.2663 34.1087 20.58 35.8824 22.3595 37.0813L17.3282 41.1031C17.248 41.1671 17.1812 41.2463 17.1316 41.3361C17.082 41.4259 17.0506 41.5246 17.0391 41.6266L16.3274 48.0211C16.3055 48.2266 16.3659 48.4323 16.4953 48.5934C16.6247 48.7544 16.8127 48.8577 17.018 48.8805L21.9454 49.4273C22.151 49.45 22.3573 49.3901 22.5188 49.2609L24.3766 47.7766C24.4569 47.7125 24.5237 47.6333 24.5732 47.5434C24.6228 47.4535 24.6542 47.3548 24.6656 47.2528C24.677 47.1508 24.6681 47.0475 24.6396 46.9489C24.6111 46.8503 24.5634 46.7583 24.4993 46.6781L23.6063 45.5609L24.472 44.8688L25.6516 46.3445C25.781 46.5063 25.9692 46.6101 26.1751 46.6331C26.3809 46.6561 26.5874 46.5964 26.7493 46.4672L28.9688 44.7C29.049 44.636 29.1158 44.5567 29.1654 44.4669C29.215 44.377 29.2464 44.2782 29.2578 44.1762C29.2692 44.0742 29.2603 43.9709 29.2318 43.8723C29.2033 43.7737 29.1556 43.6817 29.0915 43.6016L28.0157 42.2563L28.7602 41.6602C30.633 42.8495 32.8668 43.3362 35.0645 43.0337C37.2623 42.7312 39.2815 41.6591 40.7633 40.0081C42.2451 38.357 43.0934 36.234 43.1573 34.0165C43.2213 31.7989 42.4968 29.6306 41.1126 27.8969C40.775 27.4796 40.4029 27.0915 40.0001 26.7367L46.3602 20.3906C46.885 19.8569 47.1787 19.1382 47.1778 18.3897C47.1769 17.6412 46.8816 16.9231 46.3555 16.3906L33.3516 3.3875ZM20.0001 31.1141C19.9602 30.9479 19.8669 30.7994 19.7346 30.6913C19.6022 30.5832 19.4381 30.5215 19.2673 30.5156L16.9634 30.4375C16.7565 30.4303 16.5553 30.5055 16.4038 30.6466C16.2524 30.7876 16.1631 30.983 16.1555 31.1898L16.0915 32.9086L14.818 32.8609L14.8837 30.9789C14.8873 30.8763 14.8707 30.774 14.8348 30.6778C14.7989 30.5816 14.7443 30.4934 14.6743 30.4183C14.6043 30.3432 14.5202 30.2827 14.4267 30.2401C14.3333 30.1976 14.2324 30.1738 14.1298 30.1703L11.4548 30.0773C11.2474 30.0717 11.0461 30.1474 10.8938 30.2883C10.8187 30.3587 10.7582 30.4432 10.7158 30.5371C10.6734 30.6309 10.65 30.7322 10.647 30.8352L10.604 32.2586L9.32977 32.2086L6.7032 29.4008L10.597 25.7586L19.9798 26.0789C20.1261 26.0852 20.2712 26.0496 20.3981 25.9764C20.5249 25.9033 20.6283 25.7954 20.6962 25.6656C21.2956 24.5256 22.1686 23.5522 23.2369 22.8326C24.3051 22.113 25.5353 21.6698 26.817 21.5428C28.0987 21.4157 29.392 21.6087 30.5807 22.1046C31.7695 22.6004 32.8166 23.3834 33.6282 24.3836C32.277 24.4041 30.9463 24.717 29.7276 25.3009C28.5089 25.8848 27.4311 26.7258 26.5685 27.766C25.7059 28.8062 25.0789 30.021 24.7306 31.3267C24.3822 32.6324 24.3209 33.998 24.5509 35.3297L23.6563 36.0469C22.745 35.5146 21.9511 34.8031 21.3226 33.9552C20.6942 33.1073 20.2443 32.1408 20.0001 31.1141ZM41.5555 34.6188C41.4041 35.9794 40.8977 37.2764 40.0871 38.3797C39.2766 39.4831 38.1903 40.354 36.9371 40.9053C35.684 41.4567 34.308 41.669 32.9469 41.5211C31.5858 41.3732 30.2876 40.8702 29.1821 40.0625C29.0438 39.9613 28.876 39.9083 28.7046 39.9118C28.5332 39.9154 28.3677 39.9752 28.2337 40.082L26.4282 41.5234C26.2664 41.6528 26.1626 41.841 26.1396 42.0469C26.1166 42.2527 26.1763 42.4592 26.3055 42.6211L27.3813 43.9688L26.3845 44.7648L25.2048 43.2891C25.0755 43.1284 24.888 43.0254 24.6832 43.0024C24.4783 42.9795 24.2726 43.0384 24.111 43.1664L22.0251 44.8344C21.9449 44.8984 21.8781 44.9777 21.8285 45.0675C21.7789 45.1574 21.7475 45.2562 21.7361 45.3582C21.7247 45.4602 21.7336 45.5634 21.7621 45.662C21.7906 45.7606 21.8383 45.8527 21.9024 45.9328L22.7962 47.05L21.797 47.8438L17.9688 47.4172L18.5587 42.1219L25.897 36.2539C26.0114 36.1626 26.0979 36.0409 26.1465 35.9027C26.1951 35.7646 26.2039 35.6156 26.172 35.4727C25.9216 34.3649 25.9157 33.2158 26.1549 32.1055C26.394 30.9952 26.8723 29.9504 27.5565 29.0439C28.2407 28.1374 29.1143 27.391 30.1165 26.8566C31.1187 26.3222 32.2253 26.0128 33.3593 25.9499C34.4933 25.8869 35.6274 26.072 36.6825 26.4921C37.7377 26.9123 38.6885 27.5575 39.4688 28.3827C40.2492 29.208 40.8402 30.1934 41.2007 31.2704C41.5612 32.3474 41.6818 33.4901 41.5555 34.6188ZM45.2516 19.2898L38.7345 25.793C37.7897 25.2028 36.7466 24.7873 35.6548 24.5664C34.8587 23.2094 33.7335 22.0749 32.383 21.2678C31.0325 20.4606 29.5004 20.0069 27.9282 19.9484C27.718 19.9422 27.5126 19.9633 27.3032 19.9703L22.0415 14.7086C21.9215 14.5899 21.8264 14.4485 21.7617 14.2926C21.6971 14.1368 21.6642 13.9695 21.6649 13.8008C21.6653 13.6351 21.6988 13.4712 21.7636 13.3188C21.8285 13.1663 21.9232 13.0285 22.0423 12.9133L30.447 4.49688C30.6862 4.25866 31.0099 4.12454 31.3476 4.12366C31.6852 4.12278 32.0095 4.25522 32.2501 4.49219L45.2509 17.4953C45.4861 17.7347 45.6181 18.0568 45.6182 18.3924C45.6183 18.728 45.4867 19.0503 45.2516 19.2898Z" fill="currentColor"/>
</svg>
