<svg viewBox="0 0 52 52" fill="none" xmlns="http://www.w3.org/2000/svg">
<path d="M26.1392 39.846C26.2773 39.524 26.3692 39.202 26.3692 38.834C26.3692 37.684 25.4953 36.718 24.3913 36.534C24.2533 33.544 23.0112 31.98 22.1372 30.83C21.4932 30.002 21.0793 29.496 21.1713 28.714C23.0112 29.358 24.1613 28.898 25.1733 28.3L26.3692 28.668C28.2092 29.22 29.3132 28.438 29.7272 27.518C30.3253 26.23 29.8653 24.16 27.7953 22.826L25.4492 21.308L29.8653 16.892L34.2812 21.308C34.5573 21.584 34.9713 21.584 35.2472 21.308L42.7913 13.764L44.0332 15.006C44.2173 15.19 44.4932 15.236 44.7232 15.19C44.9533 15.098 45.1372 14.914 45.1833 14.638L46.4253 6.77199C46.4713 6.54199 46.3792 6.31199 46.2412 6.17399C46.1033 6.03599 45.8732 5.94399 45.6432 5.98999L37.7772 7.18599C37.5012 7.23199 37.3173 7.41599 37.2253 7.64599C37.1333 7.87599 37.2253 8.15199 37.4093 8.33599L38.6512 9.57799L34.7873 13.442L30.3713 9.02599C30.0953 8.74999 29.6813 8.74999 29.4053 9.02599L21.6313 16.8C21.5392 16.432 21.4012 16.064 21.3092 15.604C21.2172 15.282 20.8952 15.052 20.5272 15.098C19.7452 15.19 19.1012 15.65 18.5492 16.248C8.42925 15.788 7.55525 22.826 6.81925 28.53C6.54325 30.6 6.26725 32.578 5.62325 33.958C5.53125 34.188 5.53125 34.418 5.66925 34.648C5.76125 34.832 5.99125 34.924 6.22125 34.924H9.76325C9.76325 35.522 9.76325 36.074 9.80925 36.534C8.70525 36.718 7.83125 37.638 7.83125 38.834C7.83125 39.202 7.92325 39.524 8.06125 39.846C6.63525 40.122 5.53125 41.41 5.53125 42.928V45.366C5.53125 45.734 5.85325 46.056 6.22125 46.056H27.9792C28.3472 46.056 28.6693 45.734 28.6693 45.366V42.928C28.6693 41.41 27.5653 40.122 26.1392 39.846ZM29.8653 10.498L34.2812 14.914C34.5573 15.19 34.9713 15.19 35.2472 14.914L40.0773 10.084C40.2152 9.94599 40.2612 9.76199 40.2612 9.57799C40.2612 9.39399 40.1693 9.20999 40.0773 9.07199L39.3413 8.33599L44.9533 7.46199L44.0793 13.074L43.3433 12.338C43.0672 12.062 42.6533 12.062 42.3773 12.338L34.7873 19.836L30.3713 15.42C30.0953 15.144 29.6813 15.144 29.4053 15.42L24.2533 20.526L23.1953 19.836C22.5513 19.422 22.3213 19.1 22.0453 18.318L29.8653 10.498ZM20.1593 16.662C20.2052 16.892 20.2513 17.076 20.3433 17.26C20.8953 19.238 21.1252 20.066 22.4592 20.986L27.0592 24.022C28.3932 24.896 28.8533 26.23 28.4853 26.966C28.1633 27.702 27.1973 27.518 26.7833 27.38L25.3113 26.92C25.1273 26.874 24.8972 26.874 24.7593 27.012C23.9312 27.564 23.0573 28.07 21.0793 27.196C20.3433 26.782 20.1133 26.138 19.9753 25.218C19.9293 24.85 19.5613 24.574 19.1933 24.666C18.8253 24.712 18.5493 25.08 18.6413 25.448C18.7793 26.368 19.0553 27.38 19.9753 28.116C19.6073 29.68 20.3433 30.692 21.1713 31.704C22.0452 32.808 22.9653 34.05 23.1493 36.534H11.1433C10.9133 32.164 11.3273 23.194 17.9053 20.342C18.1353 20.25 18.2732 20.066 18.3193 19.836C18.5033 18.732 19.1932 17.214 20.1593 16.662ZM8.15325 28.668C8.84325 23.194 9.57925 17.582 17.6292 17.582C17.3532 18.088 17.1693 18.64 17.0773 19.192C11.3733 21.906 9.99325 28.622 9.80925 33.544H7.27925C7.69325 32.164 7.92325 30.462 8.15325 28.668ZM10.1312 37.914H24.0693C24.5753 37.914 24.9893 38.328 24.9893 38.834C24.9893 39.34 24.5753 39.754 24.0693 39.754H10.1312C9.62525 39.754 9.21125 39.34 9.21125 38.834C9.16525 38.328 9.62525 37.914 10.1312 37.914ZM27.2892 44.722H6.91125V42.974C6.91125 42.008 7.69325 41.226 8.70525 41.226H10.1312H24.0693H25.4953C26.4613 41.226 27.2892 42.008 27.2892 42.974V44.722Z" fill="currentColor"/>
<path d="M37.6367 26.966C32.7607 26.966 28.8047 30.922 28.8047 35.752C28.8047 40.628 32.7607 44.538 37.6367 44.538C42.5127 44.538 46.4687 40.582 46.4687 35.752C46.4687 30.922 42.5127 26.966 37.6367 26.966ZM37.6367 43.204C33.5427 43.204 30.1847 39.892 30.1847 35.798C30.1847 31.704 33.5427 28.392 37.6367 28.392C41.7307 28.392 45.0887 31.704 45.0887 35.798C45.0887 39.892 41.7307 43.204 37.6367 43.204Z" fill="currentColor"/>
<path d="M37.8242 35.062H37.5022C36.9962 35.062 36.5822 34.648 36.5822 34.142C36.5822 33.912 36.6742 33.682 36.8582 33.498C37.0422 33.314 37.2722 33.222 37.5022 33.222H37.6862H39.3422C39.7102 33.222 40.0322 32.9 40.0322 32.532C40.0322 32.164 39.7102 31.842 39.3422 31.842H38.3762V30.968C38.3762 30.6 38.0542 30.278 37.6862 30.278C37.3182 30.278 36.9962 30.6 36.9962 30.968V31.888C36.5822 31.98 36.1682 32.21 35.8462 32.486C35.4322 32.9 35.1562 33.498 35.1562 34.096C35.1562 35.384 36.1682 36.396 37.4562 36.396H37.7782C38.0082 36.396 38.2382 36.488 38.4222 36.672C38.6062 36.856 38.6982 37.086 38.6982 37.316C38.6982 37.822 38.2842 38.236 37.7782 38.236H35.8462C35.4782 38.236 35.1562 38.558 35.1562 38.926C35.1562 39.294 35.4782 39.616 35.8462 39.616H36.9503V40.49C36.9503 40.858 37.2723 41.18 37.6403 41.18C38.0083 41.18 38.3303 40.858 38.3303 40.49V39.524C39.3423 39.248 40.0782 38.374 40.0782 37.316C40.0782 36.718 39.8482 36.12 39.3882 35.706C39.0202 35.338 38.4222 35.062 37.8242 35.062Z" fill="currentColor"/>
</svg>
