<svg viewBox="0 0 52 52" fill="none" xmlns="http://www.w3.org/2000/svg">
<path d="M16.7924 43.2771C16.6851 43.2766 16.5795 43.2505 16.4842 43.2011C16.3889 43.1517 16.3067 43.0804 16.2445 42.9929C16.1404 42.8482 16.0976 42.6683 16.1255 42.4922C16.1534 42.3161 16.2496 42.1581 16.3933 42.0526L19.7757 39.6376C19.8885 39.5524 20.0266 39.5071 20.168 39.5091H29.6386L45.7048 32.6023C46.0865 32.4388 46.394 32.1395 46.5677 31.7623C46.7415 31.3851 46.7692 30.9569 46.6455 30.5605C46.5218 30.1641 46.2554 29.8276 45.898 29.6162C45.5405 29.4049 45.1174 29.3336 44.7104 29.4162L28.3668 32.6903C28.1874 32.7253 28.0015 32.6876 27.8499 32.5854C27.6983 32.4833 27.5935 32.3251 27.5585 32.1457C27.5235 31.9663 27.5612 31.7804 27.6633 31.6288C27.7654 31.4772 27.9236 31.3723 28.103 31.3373L44.4466 28.0632C45.1795 27.9235 45.9383 28.0584 46.5782 28.4423C47.218 28.8262 47.6942 29.4322 47.9158 30.1447C48.1374 30.8573 48.089 31.6264 47.7798 32.3055C47.4705 32.9846 46.9221 33.5261 46.2392 33.8268L30.058 40.8079C29.9746 40.8435 29.8849 40.8619 29.7942 40.8621H20.3574L17.2051 43.1485C17.0853 43.2353 16.9403 43.2805 16.7924 43.2771Z" fill="currentColor"/>
<path d="M25.7736 33.9823H16.3031C16.1236 33.9823 15.9516 33.9111 15.8247 33.7842C15.6979 33.6573 15.6266 33.4853 15.6266 33.3059C15.6266 33.1265 15.6979 32.9544 15.8247 32.8275C15.9516 32.7007 16.1236 32.6294 16.3031 32.6294H25.7736C26.148 32.6335 26.5175 32.5449 26.8492 32.3714C27.1809 32.1978 27.4645 31.9449 27.6745 31.635C27.9463 31.2368 28.0881 30.7641 28.0804 30.2821C28.0804 29.22 27.3025 28.6788 25.7736 28.6788H17.2907C16.7238 28.6769 16.1608 28.773 15.6266 28.9629C12.9207 29.9168 11.0198 31.1547 9.70071 32.7647C9.64648 32.8395 9.57751 32.9024 9.49805 32.9495C9.41858 32.9966 9.33031 33.027 9.23867 33.0387C9.14703 33.0503 9.05397 33.0431 8.96522 33.0175C8.87647 32.9919 8.79391 32.9483 8.72264 32.8895C8.65137 32.8307 8.59289 32.758 8.55081 32.6757C8.50873 32.5935 8.48394 32.5035 8.47798 32.4113C8.47201 32.3191 8.48499 32.2267 8.51611 32.1397C8.54723 32.0527 8.59584 31.9731 8.65894 31.9056C10.1336 30.1062 12.2645 28.7262 15.1666 27.6912C15.85 27.4573 16.5685 27.3429 17.2907 27.3529H25.7736C28.0669 27.3529 29.4334 28.4556 29.4334 30.3091C29.4324 31.0586 29.2087 31.7908 28.7907 32.4129C28.452 32.8988 28.0006 33.2953 27.4751 33.5686C26.9497 33.8419 26.3659 33.9839 25.7736 33.9823Z" fill="currentColor"/>
<path d="M13.7807 47.9921H13.659C13.383 47.9742 13.1143 47.8966 12.8713 47.7646C12.6284 47.6326 12.417 47.4494 12.2519 47.2276L4.2966 36.4988C4.02761 36.1357 3.89628 35.6888 3.92601 35.2379C3.95574 34.7869 4.14461 34.3612 4.45895 34.0365L6.75895 31.6688C6.9497 31.4697 7.18189 31.315 7.43907 31.2157C7.69625 31.1163 7.97214 31.0747 8.24719 31.0938C8.52321 31.1112 8.79212 31.1886 9.03514 31.3206C9.27816 31.4527 9.48944 31.6361 9.65425 31.8582L17.6095 42.5668C17.8776 42.9286 18.009 43.3736 17.9806 43.823C17.9521 44.2724 17.7655 44.6972 17.454 45.0223L15.1742 47.4035C14.9954 47.5928 14.7791 47.7428 14.5393 47.8441C14.2994 47.9454 14.0411 47.9958 13.7807 47.9921ZM8.12542 32.4332C8.05083 32.4324 7.97688 32.447 7.90819 32.4761C7.83951 32.5052 7.77759 32.5482 7.72631 32.6023L5.43307 34.9768C5.35039 35.0678 5.30077 35.1841 5.29218 35.3068C5.28359 35.4295 5.31654 35.5515 5.38572 35.6532L13.341 46.4159C13.3872 46.481 13.4479 46.5345 13.5184 46.572C13.5888 46.6096 13.6671 46.6303 13.7469 46.6323C13.8264 46.6376 13.9062 46.6258 13.9809 46.5978C14.0555 46.5698 14.1233 46.5262 14.1798 46.47L16.4731 44.0821C16.5557 43.991 16.6054 43.8747 16.614 43.752C16.6226 43.6293 16.5896 43.5073 16.5204 43.4056L8.56513 32.6632C8.51725 32.5993 8.45628 32.5463 8.38628 32.5078C8.31629 32.4693 8.23889 32.4462 8.15925 32.44L8.12542 32.4332Z" fill="currentColor"/>
<path d="M44.8954 17.26C44.7454 17.2628 44.5993 17.2125 44.4828 17.118L29.5396 5.54354L14.5896 17.118C14.5195 17.1734 14.4392 17.2144 14.3532 17.2387C14.2673 17.2629 14.1774 17.2699 14.0887 17.2592C14 17.2485 13.9143 17.2203 13.8366 17.1764C13.7588 17.1324 13.6906 17.0735 13.6357 17.003C13.5807 16.9325 13.5401 16.8518 13.5164 16.7656C13.4927 16.6794 13.4863 16.5893 13.4976 16.5006C13.509 16.4119 13.5378 16.3264 13.5824 16.2489C13.627 16.1714 13.6865 16.1035 13.7575 16.0491L29.1201 4.15001C29.239 4.05731 29.3854 4.00696 29.5362 4.00696C29.6869 4.00696 29.8333 4.05731 29.9522 4.15001L45.3148 16.0491C45.4266 16.1358 45.5083 16.2554 45.5486 16.391C45.5889 16.5265 45.5856 16.6713 45.5393 16.805C45.493 16.9386 45.406 17.0544 45.2905 17.136C45.175 17.2176 45.0369 17.261 44.8954 17.26Z" fill="currentColor"/>
<path d="M16.8796 28.7059C16.7002 28.7059 16.5281 28.6346 16.4013 28.5077C16.2744 28.3809 16.2031 28.2088 16.2031 28.0294V14.5812C16.2031 14.4018 16.2744 14.2297 16.4013 14.1028C16.5281 13.976 16.7002 13.9047 16.8796 13.9047C17.059 13.9047 17.2311 13.976 17.3579 14.1028C17.4848 14.2297 17.5561 14.4018 17.5561 14.5812V28.0294C17.5561 28.2088 17.4848 28.3809 17.3579 28.5077C17.2311 28.6346 17.059 28.7059 16.8796 28.7059Z" fill="currentColor"/>
<path d="M42.239 29.9032C42.0596 29.9032 41.8875 29.832 41.7606 29.7051C41.6338 29.5782 41.5625 29.4062 41.5625 29.2268V14.5812C41.5625 14.4018 41.6338 14.2297 41.7606 14.1028C41.8875 13.976 42.0596 13.9047 42.239 13.9047C42.4184 13.9047 42.5904 13.976 42.7173 14.1028C42.8442 14.2297 42.9154 14.4018 42.9154 14.5812V29.2268C42.9154 29.4062 42.8442 29.5782 42.7173 29.7051C42.5904 29.832 42.4184 29.9032 42.239 29.9032Z" fill="currentColor"/>
<path d="M30.528 32.2371C30.3486 32.2371 30.1766 32.1658 30.0497 32.0389C29.9228 31.9121 29.8516 31.74 29.8516 31.5606V23.9706C29.8968 22.8015 30.393 21.6953 31.2362 20.8842C32.0793 20.073 33.2038 19.6199 34.3738 19.6199C35.5437 19.6199 36.6683 20.073 37.5114 20.8842C38.3545 21.6953 38.8508 22.8015 38.896 23.9706V29.9979C38.896 30.1774 38.8247 30.3494 38.6978 30.4763C38.571 30.6031 38.3989 30.6744 38.2195 30.6744C38.0401 30.6744 37.868 30.6031 37.7412 30.4763C37.6143 30.3494 37.543 30.1774 37.543 29.9979V23.9706C37.5412 23.1315 37.2071 22.3273 36.6138 21.7339C36.0205 21.1406 35.2162 20.8065 34.3772 20.8047C33.538 20.8082 32.7341 21.1427 32.1401 21.7355C31.546 22.3282 31.2098 23.1314 31.2045 23.9706V31.5606C31.2045 31.74 31.1332 31.9121 31.0064 32.0389C30.8795 32.1658 30.7074 32.2371 30.528 32.2371Z" fill="currentColor"/>
<path d="M29.5359 12.4706C29.0737 12.4719 28.6216 12.336 28.2367 12.0801C27.8519 11.8242 27.5517 11.4597 27.3743 11.033C27.1968 10.6063 27.15 10.1365 27.2398 9.68312C27.3297 9.22978 27.5521 8.81331 27.8789 8.48651C28.2057 8.15971 28.6221 7.9373 29.0755 7.84746C29.5288 7.75763 29.9986 7.80442 30.4254 7.9819C30.8521 8.15937 31.2165 8.45955 31.4725 8.84438C31.7284 9.22922 31.8643 9.68137 31.8629 10.1435C31.8612 10.7602 31.6154 11.351 31.1794 11.787C30.7434 12.2231 30.1525 12.4688 29.5359 12.4706ZM29.5359 9.16264C29.3416 9.16131 29.1513 9.21769 28.9891 9.32466C28.8269 9.43162 28.7001 9.58434 28.6249 9.76345C28.5496 9.94256 28.5292 10.14 28.5663 10.3307C28.6034 10.5214 28.6962 10.6968 28.8331 10.8347C28.97 10.9725 29.1448 11.0666 29.3353 11.105C29.5257 11.1434 29.7233 11.1244 29.9029 11.0504C30.0825 10.9763 30.2361 10.8506 30.3442 10.6892C30.4523 10.5277 30.51 10.3378 30.51 10.1435C30.5118 10.0141 30.488 9.8857 30.4399 9.76557C30.3918 9.64544 30.3205 9.536 30.2299 9.44357C30.1394 9.35114 30.0314 9.27754 29.9123 9.227C29.7932 9.17647 29.6653 9.15 29.5359 9.14912V9.16264Z" fill="currentColor"/>
<path d="M39.3177 12.9441C39.1659 12.9452 39.0182 12.8951 38.8983 12.8021L36.0841 10.6171C36.0023 10.554 35.9359 10.4731 35.8902 10.3805C35.8445 10.2878 35.8206 10.186 35.8203 10.0827V4.67089C35.8203 4.49147 35.8916 4.31941 36.0184 4.19255C36.1453 4.06569 36.3174 3.99442 36.4968 3.99442H39.3177C39.4971 3.99442 39.6691 4.06569 39.796 4.19255C39.9229 4.31941 39.9941 4.49147 39.9941 4.67089V12.2677C39.9941 12.4471 39.9229 12.6191 39.796 12.746C39.6691 12.8729 39.4971 12.9441 39.3177 12.9441ZM37.1733 9.76471L38.6412 10.9012V5.36089H37.1733V9.76471Z" fill="currentColor"/>
<path d="M40.6288 5.36088H35.1765C34.9971 5.36088 34.825 5.2896 34.6981 5.16274C34.5713 5.03588 34.5 4.86382 34.5 4.68441C34.5 4.50499 34.5713 4.33293 34.6981 4.20607C34.825 4.07921 34.9971 4.00793 35.1765 4.00793H40.6288C40.8082 4.00793 40.9803 4.07921 41.1072 4.20607C41.234 4.33293 41.3053 4.50499 41.3053 4.68441C41.3053 4.86382 41.234 5.03588 41.1072 5.16274C40.9803 5.2896 40.8082 5.36088 40.6288 5.36088Z" fill="currentColor"/>
</svg>
