<svg width="192" height="168" viewBox="0 0 192 168" fill="none" xmlns="http://www.w3.org/2000/svg">
<path opacity="0.7" d="M20.5796 88.2368C20.5796 88.2368 30.7184 44.7462 56.4319 31.2579C82.1454 17.7696 98.7887 28.5356 116.787 37.1284C134.786 45.7212 164.449 47.3301 173.673 66.786C182.898 86.2418 184.791 102.831 172.985 116.953C161.179 131.074 149.418 130.105 119.453 135.089C89.4877 140.074 89.9824 155.302 63.61 158.932C37.2376 162.562 24.8766 131.613 21.376 115.497C17.8754 99.381 20.5796 88.2368 20.5796 88.2368Z" fill="#FEF2F2"/>
<g clip-path="url(#clip0_1068_103321)">
<path d="M135.68 101.162C137.456 99.8063 143.549 103.364 146.679 99.815L146.09 95.1004C146.09 95.1004 141.02 98.2727 138.382 97.9281C135.745 97.5836 136.548 96.0772 138.089 95.5791C139.629 95.0809 144.29 95.4817 145.414 93.8448C145.414 93.8448 146.295 92.5417 144.395 91.761C142.495 90.9803 142.022 87.4417 142.572 85.9803C142.572 85.9803 141.767 86.4309 139.462 86.6002C137.157 86.7695 134.826 86.7767 134.817 88.8425C134.808 90.9083 135.851 93.5168 134.691 94.0643C133.531 94.6117 130.632 90.2555 133.311 87.1146C133.311 87.1146 129.624 87.1073 128.803 87.9057C127.981 88.7041 127.852 90.9495 129.891 93.3347C131.929 95.72 132.141 97.4168 131.271 97.8274C130.401 98.238 125.537 90.4455 127.895 88.0168C127.895 88.0168 121.574 90.6776 121.046 91.364C120.517 92.0505 122.392 95.5815 124.342 97.2627C126.292 98.9439 126.61 101.486 126.102 102.335C125.594 103.185 124.59 100.065 123.432 98.9903C122.274 97.916 119.787 91.9416 119.787 91.9416C119.787 91.9416 119.696 92.8505 117.698 94.063C115.699 95.2755 113.125 98.4285 114.081 99.5274C115.037 100.626 120.592 104.934 121.747 106.808C122.903 108.683 123.428 110.431 122.239 109.924C121.049 109.416 119.521 107.018 117.913 105.619C116.305 104.221 111.723 101.134 111.951 99.6869C111.951 99.6869 107.6 104.188 109.911 109.572C109.911 109.572 112.577 111.252 115.552 111.299C118.527 111.347 119.774 111.498 120.1 112.471C120.427 113.445 118.373 113.392 116.521 113.315C114.668 113.238 110.357 113.145 109.503 112.04C109.503 112.04 113.459 119.943 119.285 118.231C124.748 116.626 125.087 115.797 125.108 115.7C125.056 116.066 123.578 127.131 135.931 124.469C135.931 124.469 132.941 124.296 132.199 122.452C131.456 120.607 128.543 118.591 129.788 117.902C131.032 117.213 133.713 123.92 136.773 123.828C139.832 123.736 143.019 120.352 142.541 117.043C142.541 117.043 140.086 118.393 137.349 116.976C134.613 115.558 131.314 112.912 133.728 112.571C136.142 112.229 142.531 117.183 144.476 116.509C146.42 115.835 146.921 108.68 146.921 108.68C146.921 108.68 145.931 109.105 142.292 109.247C138.653 109.388 134.486 108.807 135.103 108.011C135.72 107.214 138.413 107.783 140.84 108.202C143.266 108.621 146.37 107.858 146.66 106.595C146.95 105.332 146.862 101.278 146.862 101.278C146.862 101.278 142.242 102.377 140.199 103.075C138.156 103.774 133.905 102.518 135.68 101.162ZM129.025 113.403C126.17 112.635 128.39 111.497 130.057 111.049C131.323 110.709 131.88 114.17 129.025 113.403ZM131.574 108.443C129.673 107.978 129.391 107.014 130.398 106.607C132.713 105.673 133.475 108.908 131.574 108.443ZM133.645 102.897C132.598 102.711 132.248 102.37 133.059 101.483C133.869 100.597 134.692 103.084 133.645 102.897Z" fill="#FEE3E2"/>
<path d="M93.4321 123.667C93.4321 123.667 77.9152 76.138 51.6035 51.566C49.8348 49.9142 46.9052 50.8255 46.4444 53.1782C43.3631 68.9105 38.8075 116.266 93.4321 123.667Z" fill="#FDCCCB"/>
<path opacity="0.5" d="M88.3659 116.989C88.4721 117.078 88.3533 117.241 88.2361 117.167C83.9174 114.447 66.9736 100.75 58.8392 71.4659C58.8131 71.3718 58.9508 71.3246 58.9849 71.416C61.5015 78.1551 71.5755 102.943 88.3659 116.989Z" fill="white"/>
<path d="M84.9243 137.852C84.9243 137.852 64.2282 103.972 39.8507 89.9466C38.2119 89.0038 36.1954 90.2693 36.3008 92.181C37.006 104.964 42.6578 142.542 84.9243 137.852Z" fill="#FEE3E2"/>
<path opacity="0.5" d="M82.2515 129.323C82.3501 129.371 82.2902 129.518 82.1861 129.484C78.3455 128.228 62.6952 120.975 50.8056 100.057C50.7674 99.9893 50.864 99.9265 50.9079 99.9901C54.139 104.68 66.6516 121.773 82.2515 129.323Z" fill="white"/>
<path d="M72.8017 57.8043L122.643 58.3531C125.398 58.3835 127.559 60.7606 127.557 63.7472L127.513 137.629C127.511 139.696 125.838 141.41 123.82 141.419L70.3851 141.655C68.4997 141.663 66.9531 140.086 66.9531 138.15V64.106C66.9531 60.5979 69.5713 57.7687 72.8017 57.8043Z" fill="#191919"/>
<path d="M120.249 61.7742H74.9251C73.0243 61.7742 71.6953 63.2565 71.6953 65.108V131.074C71.6953 132.926 73.0244 134.349 74.9251 134.349H120.249C122.15 134.349 123.662 132.926 123.662 131.074V65.108C123.662 63.2565 122.15 61.7742 120.249 61.7742Z" fill="#FAA9A7"/>
<path opacity="0.5" d="M118.529 64.5741H76.86C75.1125 64.5741 73.7109 65.9712 73.7109 67.6551V127.65C73.7109 129.334 75.1125 130.653 76.86 130.653H118.529C120.277 130.653 121.758 129.334 121.758 127.65V67.6551C121.758 65.9712 120.277 64.5741 118.529 64.5741Z" fill="white"/>
<path d="M90.7345 74.1639C90.7345 74.4346 90.5151 74.654 90.2444 74.654H74.537C74.2663 74.654 74.0469 74.4346 74.0469 74.1639V74.1361C74.0469 73.8654 74.2663 73.646 74.537 73.646H90.2444C90.5151 73.646 90.7345 73.8654 90.7345 74.1361V74.1639Z" fill="white"/>
<path d="M90.7345 76.9638C90.7345 77.2345 90.5151 77.4539 90.2444 77.4539H74.537C74.2663 77.4539 74.0469 77.2345 74.0469 76.9638V76.936C74.0469 76.6653 74.2663 76.4459 74.537 76.4459H90.2444C90.5151 76.4459 90.7345 76.6653 90.7345 76.936V76.9638Z" fill="white"/>
<path d="M90.7345 79.5397C90.7345 79.8104 90.5151 80.0299 90.2444 80.0299H74.537C74.2663 80.0299 74.0469 79.8104 74.0469 79.5397V79.512C74.0469 79.2413 74.2663 79.0219 74.537 79.0219H90.2444C90.5151 79.0219 90.7345 79.2413 90.7345 79.512V79.5397Z" fill="white"/>
<path d="M113.527 117.624C113.527 115.622 111.905 114 109.903 114H84.2721C82.2708 114 80.6484 115.622 80.6484 117.624V121.473C80.6484 123.474 82.2708 125.097 84.2721 125.097H109.903C111.905 125.097 113.527 123.474 113.527 121.473V117.624Z" fill="#EA3934"/>
<path d="M88.2088 120.107V122.24H86.625V116.378H88.5456C90.1388 116.378 90.9354 116.956 90.9354 118.111C90.9354 118.79 90.6039 119.315 89.941 119.686L91.6491 122.24H89.8528L88.6098 120.107H88.2088ZM88.2088 118.916H88.5055C89.0588 118.916 89.3355 118.672 89.3355 118.183C89.3355 117.779 89.0642 117.577 88.5215 117.577H88.2088V118.916Z" fill="white"/>
<path d="M95.66 122.24H92.1797V116.378H95.66V117.649H93.7635V118.572H95.5197V119.843H93.7635V120.949H95.66V122.24Z" fill="white"/>
<path d="M102.269 122.24H100.192L98.0508 118.111H98.0147C98.0655 118.76 98.0909 119.256 98.0909 119.598V122.24H96.6875V116.378H98.7565L100.89 120.452H100.914C100.876 119.861 100.858 119.387 100.858 119.029V116.378H102.269V122.24Z" fill="white"/>
<path d="M106.125 122.24H104.541V117.674H103.109V116.378H107.552V117.674H106.125V122.24Z" fill="white"/>
<path d="M105.009 89.6758H100.557C100.134 89.6758 99.7891 90.0212 99.7891 90.4433V93.211C99.8804 93.1898 99.9715 93.167 100.062 93.1393C100.727 92.9357 101.307 92.5758 101.786 92.1056C101.8 91.5244 102.275 91.0574 102.859 91.0574C103.453 91.0574 103.934 91.5385 103.934 92.1321C103.934 92.7256 103.453 93.2067 102.859 93.2067C102.68 93.2067 102.511 93.162 102.362 93.0841C101.806 93.599 101.146 93.9951 100.395 94.225C100.194 94.2865 99.9918 94.3343 99.7891 94.3696V104.413C99.7891 104.835 100.134 105.181 100.557 105.181H105.009C105.431 105.181 105.776 104.835 105.776 104.413V90.4434C105.776 90.0212 105.431 89.6758 105.009 89.6758Z" fill="#191919"/>
<path d="M98.48 92.8996C96.53 92.8996 94.8388 91.7745 94.0186 90.1399C93.8232 90.3737 93.5296 90.5227 93.2009 90.5227C93.1938 90.5227 93.1868 90.5218 93.1797 90.5216C94.1456 92.4742 96.1582 93.8207 98.48 93.8207C101.124 93.8207 103.368 92.075 104.121 89.6757H103.146C102.431 91.5579 100.61 92.8996 98.48 92.8996Z" fill="#191919"/>
<path d="M94.4664 86.4681C94.2358 87.0055 94.1071 87.5966 94.1071 88.2174C94.1071 88.4554 94.1289 88.6881 94.1656 88.9158C94.2311 89.0593 94.2685 89.2184 94.2685 89.3864C94.2685 89.3899 94.268 89.3932 94.268 89.3966C94.2688 89.3998 94.2695 89.4031 94.2703 89.4062C94.2692 89.4084 94.2682 89.4108 94.2671 89.413C94.2528 90.0283 93.7507 90.5228 93.1321 90.5228C92.5045 90.5228 91.9958 90.014 91.9958 89.3864C91.9958 88.7588 92.5045 88.25 93.1321 88.25C93.1506 88.25 93.1686 88.2519 93.1869 88.2528C93.1864 88.241 93.1859 88.2293 93.1859 88.2174C93.1859 87.5465 93.3117 86.9049 93.5377 86.3124C93.4214 86.3041 93.3043 86.2985 93.1859 86.2985C90.4729 86.2985 88.2734 88.4978 88.2734 91.211C88.2734 93.2723 89.5438 95.0361 91.3438 95.765V104.567L93.0324 106.716L94.8746 104.567V102.622L93.8 101.343L94.8746 100.368V99.7566L94.2606 98.8868L94.8746 98.1192V95.8256C96.7559 95.1369 98.0984 93.3307 98.0984 91.211C98.0985 88.9409 96.5585 87.0315 94.4664 86.4681Z" fill="#191919"/>
<path d="M98.4807 82C95.2217 82 92.5703 84.6514 92.5703 87.9104C92.5703 88.6277 92.7014 89.3144 92.9366 89.951C92.954 89.9519 92.9709 89.9546 92.9885 89.9546C93.304 89.9546 93.5894 89.8259 93.7953 89.6182C93.6001 89.0849 93.4914 88.5104 93.4914 87.9104C93.4914 85.1593 95.7295 82.921 98.4807 82.921C101.232 82.921 103.47 85.1592 103.47 87.9104C103.47 88.1982 103.444 88.48 103.397 88.7547H104.33C104.369 88.4787 104.391 88.197 104.391 87.9104C104.391 84.6514 101.74 82 98.4807 82Z" fill="#191919"/>
<path d="M121.75 65.7948C121.75 65.0753 121.167 64.4921 120.448 64.4921H75.0762C74.3567 64.4921 73.7734 65.0753 73.7734 65.7948V70.286C73.7734 71.0055 74.3567 71.5888 75.0762 71.5888H120.448C121.167 71.5888 121.75 71.0055 121.75 70.286V65.7948H121.75Z" fill="#EA3934"/>
<path d="M78.1048 66.3149C77.5257 65.7918 76.6254 65.8446 76.1023 66.4237C75.5792 67.0027 75.617 67.9046 76.196 68.4277C76.7061 68.8885 77.4887 68.8762 77.9825 68.5187L78.3726 68.8711C78.3771 68.9757 78.4067 69.1029 78.4955 69.1831L79.7955 70.3575C79.96 70.506 80.2075 70.4531 80.3561 70.2887L80.3647 70.2792C80.5132 70.1148 80.5096 69.8976 80.3452 69.7491L79.0451 68.5747C78.9563 68.4944 78.8268 68.4779 78.7723 68.4287L78.3822 68.0762C78.6879 67.5489 78.6148 66.7757 78.1048 66.3149ZM76.4604 68.233C76.0138 67.8296 75.9789 67.1405 76.3823 66.6939C76.7857 66.2474 77.4748 66.2124 77.9214 66.6158C78.3679 67.0192 78.4029 67.7083 77.9995 68.1549C77.596 68.6015 76.907 68.6364 76.4604 68.233Z" fill="white"/>
<path d="M76.7102 67.8831C76.7068 67.8868 76.7032 67.8903 76.6993 67.8936C76.6521 67.9335 76.5816 67.9276 76.5417 67.8804C76.2814 67.5726 76.2892 67.1145 76.5598 66.8149C76.6012 66.7691 76.6719 66.7655 76.7178 66.8069C76.7636 66.8483 76.7672 66.919 76.7258 66.9648C76.5299 67.1817 76.5241 67.5133 76.7125 67.7361C76.749 67.7793 76.7471 67.8422 76.7102 67.8831Z" fill="white"/>
<path d="M120.412 69.2466C120.412 69.6969 120.047 70.062 119.597 70.062H83.2607C82.8104 70.062 82.4453 69.6969 82.4453 69.2466V66.7335C82.4453 66.2832 82.8104 65.9181 83.2607 65.9181H119.597C120.047 65.9181 120.412 66.2832 120.412 66.7335V69.2466Z" fill="white"/>
<path d="M83.9712 69.1996C83.9712 69.2943 83.8945 69.371 83.7998 69.371H83.773C83.6783 69.371 83.6016 69.2943 83.6016 69.1996V66.8811C83.6016 66.7865 83.6783 66.7097 83.773 66.7097H83.7998C83.8945 66.7097 83.9712 66.7865 83.9712 66.8811V69.1996Z" fill="#91B3FA"/>
<g clip-path="url(#clip1_1068_103321)">
<path d="M73.6548 80.5589C80.1833 78.9479 84.1698 72.3496 82.5589 65.821C80.948 59.2924 74.3496 55.3059 67.821 56.9169C61.2924 58.5278 57.3059 65.1262 58.9169 71.6548C60.5278 78.1833 67.1262 82.1698 73.6548 80.5589Z" fill="url(#paint0_linear_1068_103321)"/>
<path d="M73.5843 80.2765C79.9568 78.704 83.848 72.2634 82.2756 65.8909C80.7031 59.5184 74.2625 55.6272 67.89 57.1996C61.5175 58.772 57.6263 65.2127 59.1987 71.5852C60.7712 77.9577 67.2118 81.8489 73.5843 80.2765Z" fill="url(#paint1_linear_1068_103321)"/>
<path d="M73.232 78.8637C70.5273 79.5311 67.7247 79.1055 65.3403 77.6648C62.9558 76.2242 61.2753 73.9414 60.6079 71.2367C59.9405 68.5319 60.3661 65.7294 61.8068 63.3449C63.2474 60.9604 65.5302 59.28 68.2349 58.6126C70.9396 57.9452 73.7422 58.3708 76.1267 59.8114C78.5112 61.2521 80.1916 63.5349 80.859 66.2396C81.5264 68.9443 81.1008 71.7469 79.6602 74.1313C78.2195 76.5158 75.9367 78.1963 73.232 78.8637Z" fill="url(#paint2_linear_1068_103321)"/>
<path opacity="0.3" d="M76.532 60.0691C74.2413 58.8222 71.6058 58.4803 69.057 59.1092C66.3523 59.7766 64.0694 61.4571 62.6288 63.8416C61.1882 66.2261 60.7625 69.0286 61.4299 71.7333C62.0589 74.2821 63.5876 76.456 65.7569 77.9038C65.6167 77.8274 65.4777 77.7478 65.3403 77.6648C62.9558 76.2242 61.2753 73.9414 60.6079 71.2366C59.9405 68.5319 60.3661 65.7294 61.8068 63.3449C63.2474 60.9604 65.5302 59.28 68.2349 58.6126C70.9396 57.9452 73.7422 58.3708 76.1267 59.8114C76.2641 59.8944 76.3992 59.9805 76.532 60.0691Z" fill="url(#paint3_linear_1068_103321)"/>
<path d="M82.5589 65.8211C84.1698 72.3495 80.1831 78.9481 73.6547 80.559C67.4899 82.0802 61.2632 78.6104 59.2316 72.7219C59.336 72.7381 59.4442 72.7534 59.5562 72.7677C61.5893 78.4295 67.6171 81.7491 73.585 80.2765C79.9575 78.704 83.8487 72.2634 82.2763 65.8909C81.0112 60.764 76.5951 57.2431 71.5985 56.8817C71.5531 56.7745 71.5092 56.6739 71.4674 56.5813C76.6484 56.8902 81.25 60.5168 82.5589 65.8211Z" fill="url(#paint4_linear_1068_103321)"/>
<path d="M76.5386 60.0672C75.2147 59.3472 73.7756 58.9293 72.3047 58.8261C72.2613 58.6805 72.2168 58.5386 72.1719 58.4012C73.5576 58.5924 74.9031 59.0663 76.1361 59.8113C76.2389 59.8734 76.3412 59.9376 76.4413 60.0033C76.474 60.0242 76.5063 60.0457 76.5386 60.0672Z" fill="url(#paint5_linear_1068_103321)"/>
<path d="M82.2786 65.8906C83.8511 72.2631 79.9598 78.7037 73.5873 80.2761C67.6194 81.7488 61.5916 78.4292 59.5585 72.7674C60.0279 72.827 60.562 72.8655 61.1611 72.8676C62.0128 74.8553 63.4592 76.5239 65.347 77.6644C65.4497 77.7265 65.5541 77.7872 65.6589 77.8452C65.6927 77.8649 65.7268 77.8835 65.7607 77.9016L65.7637 77.9033C68.0544 79.1503 70.6899 79.4922 73.2387 78.8633C75.9434 78.1959 78.2263 76.5154 79.6669 74.1309C81.1075 71.7464 81.5331 68.9439 80.8657 66.2392C80.2368 63.6904 78.7081 61.5165 76.5387 60.0687C76.5376 60.068 76.537 60.0677 76.5358 60.067C76.504 60.0453 76.4717 60.0238 76.4386 60.003C76.3384 59.9373 76.2361 59.8731 76.1334 59.811C74.9003 59.066 73.5548 58.5922 72.1691 58.401C71.9759 57.8081 71.7753 57.293 71.6008 56.8814C76.5974 57.2428 81.0136 60.7637 82.2786 65.8906Z" fill="url(#paint6_linear_1068_103321)"/>
<g style="mix-blend-mode:screen" opacity="0.3">
<path d="M80.8695 66.2397C81.5369 68.9444 81.1112 71.7469 79.6706 74.1314C78.23 76.5159 75.9471 78.1964 73.2424 78.8638C70.6936 79.4927 68.0581 79.1508 65.7674 77.9038L65.7645 77.9021C63.9231 76.6722 62.5437 74.9191 61.7847 72.8575C63.2413 72.8034 65.0314 72.532 67.1525 71.8563C68.8671 71.2038 72.3269 69.3464 72.8752 64.8563C73.203 62.6674 72.8066 60.4939 72.3057 58.8264C73.7766 58.9296 75.2157 59.3474 76.5395 60.0675C76.5407 60.0682 76.5413 60.0685 76.5425 60.0692C78.7118 61.517 80.2405 63.6909 80.8695 66.2397Z" fill="url(#paint7_linear_1068_103321)"/>
</g>
<g clip-path="url(#clip2_1068_103321)">
<path d="M72.1146 70.6691L72.9977 71.5937C73.6147 70.9441 73.963 70.1213 74.0164 69.2958C74.0428 68.8816 73.9942 68.4655 73.864 68.0728C73.734 67.6809 73.5205 67.3126 73.2257 67.005L71.8114 65.5237L70.8309 64.4973L69.7816 63.3987C69.487 63.0903 69.1355 62.8667 68.7614 62.7307C68.1986 62.5257 67.5869 62.5138 67.0026 62.6711C66.4186 62.828 65.8573 63.1563 65.3913 63.6437C64.7702 64.2949 64.4199 65.1204 64.3665 65.9493C64.3396 66.3633 64.3885 66.7796 64.5187 67.1718C64.6489 67.564 64.8627 67.932 65.1572 68.2399L68.6018 71.8462C68.8959 72.154 69.2474 72.3778 69.622 72.5139C70.1848 72.7186 70.796 72.7308 71.3803 72.5741C71.5768 72.521 71.7706 72.4473 71.9593 72.3564L70.9789 71.3299C70.8874 71.3498 70.7962 71.3628 70.7063 71.3691C70.4675 71.3858 70.2383 71.3546 70.0323 71.2795C69.8264 71.2039 69.6426 71.0862 69.485 70.9221L66.0404 67.3152C65.8829 67.15 65.7704 66.958 65.6985 66.7419C65.5908 66.4187 65.5774 66.0392 65.6714 65.6563C65.7656 65.2742 65.9654 64.8924 66.2749 64.5689C66.6863 64.1374 67.1984 63.9089 67.6766 63.8757C67.9157 63.859 68.1444 63.8908 68.3503 63.9659C68.5567 64.0414 68.7401 64.1592 68.8984 64.3233L69.7925 65.2596L70.6759 66.1843L72.3425 67.9296C72.5001 68.0946 72.612 68.2868 72.6842 68.5029C72.7918 68.8259 72.8053 69.2051 72.7113 69.5883C72.6178 69.968 72.42 70.3469 72.1146 70.6688L72.1146 70.6691Z" fill="white"/>
<path d="M70.6742 66.1851L69.7907 65.2604C69.1742 65.9101 68.8257 66.7329 68.7725 67.5584C68.7462 67.9726 68.7948 68.3886 68.9253 68.7813C69.0552 69.1732 69.2687 69.5416 69.5633 69.8494L70.9778 71.3304L71.9583 72.3569L73.0076 73.4555C73.3017 73.7639 73.6532 73.9871 74.0278 74.1234C74.5906 74.3284 75.2018 74.3403 75.7861 74.1831C76.3707 74.0258 76.9314 73.6978 77.3975 73.2102C78.0185 72.5595 78.3688 71.7335 78.422 70.9051C78.4483 70.4909 78.3997 70.0751 78.2695 69.6821C78.1396 69.2902 77.9258 68.9221 77.6315 68.6143L74.1874 65.0085C73.8928 64.7001 73.5418 64.476 73.1672 64.34C72.6044 64.1356 71.993 64.1231 71.4087 64.2798C71.2124 64.3328 71.0181 64.4071 70.8297 64.498L71.8101 65.5245C71.9013 65.5046 71.9927 65.4911 72.0826 65.485C72.3212 65.4683 72.5502 65.5001 72.7566 65.5752C72.9625 65.6507 73.1462 65.7679 73.3042 65.9326L76.7483 69.5389C76.9058 69.7041 77.0183 69.8961 77.0902 70.1122C77.1979 70.4352 77.2113 70.8149 77.1168 71.1975C77.0231 71.5802 76.823 71.962 76.5143 72.2853C76.1024 72.7164 75.5903 72.945 75.1126 72.9779C74.8735 72.9946 74.6443 72.9633 74.4386 72.8883C74.2322 72.8127 74.0486 72.6955 73.8906 72.5308L72.9962 71.5945L72.113 70.6699L70.4465 68.9245C70.2889 68.7596 70.177 68.5673 70.105 68.3512C69.9969 68.0282 69.984 67.6491 70.0779 67.2659C70.1709 66.8862 70.369 66.507 70.6744 66.1853L70.6742 66.1851Z" fill="white"/>
</g>
<g style="mix-blend-mode:color">
<path d="M65.7559 77.9018C65.7219 77.8832 65.6878 77.8646 65.6541 77.8455C65.5493 77.7874 65.4449 77.7267 65.3422 77.6646C63.4544 76.5241 62.008 74.8555 61.1562 72.8678C61.3558 72.8685 61.5624 72.8655 61.7762 72.8572C62.5352 74.9188 63.9146 76.6719 65.7559 77.9018Z" fill="url(#paint8_linear_1068_103321)"/>
</g>
</g>
<g clip-path="url(#clip3_1068_103321)">
<path d="M55.678 93.5765C60.736 92.3284 63.8246 87.2163 62.5765 82.1583C61.3284 77.1003 56.2163 74.0117 51.1583 75.2598C46.1003 76.5079 43.0118 81.62 44.2599 86.678C45.5079 91.736 50.62 94.8245 55.678 93.5765Z" fill="url(#paint9_linear_1068_103321)"/>
<path d="M55.6245 93.3577C60.5616 92.1394 63.5763 87.1495 62.3581 82.2124C61.1398 77.2753 56.1499 74.2606 51.2128 75.4789C46.2757 76.6971 43.261 81.687 44.4793 86.6241C45.6975 91.5612 50.6874 94.5759 55.6245 93.3577Z" fill="url(#paint10_linear_1068_103321)"/>
<path d="M55.3491 92.2631C53.2536 92.7802 51.0823 92.4504 49.2349 91.3343C47.3876 90.2182 46.0856 88.4495 45.5685 86.3541C45.0515 84.2586 45.3812 82.0873 46.4974 80.2399C47.6135 78.3926 49.3821 77.0906 51.4776 76.5735C53.5731 76.0565 55.7443 76.3862 57.5917 77.5024C59.4391 78.6185 60.741 80.3871 61.2581 82.4826C61.7752 84.5781 61.4454 86.7493 60.3293 88.5967C59.2132 90.4441 57.4445 91.7461 55.3491 92.2631Z" fill="url(#paint11_linear_1068_103321)"/>
<path opacity="0.3" d="M57.9058 77.702C56.131 76.736 54.0892 76.4711 52.1145 76.9583C50.019 77.4754 48.2504 78.7773 47.1342 80.6247C46.0181 82.4721 45.6883 84.6434 46.2054 86.7388C46.6927 88.7135 47.877 90.3978 49.5578 91.5194C49.4491 91.4603 49.3414 91.3986 49.2349 91.3343C47.3876 90.2182 46.0856 88.4495 45.5685 86.3541C45.0515 84.2586 45.3812 82.0873 46.4974 80.2399C47.6135 78.3926 49.3821 77.0906 51.4776 76.5735C53.5731 76.0565 55.7443 76.3862 57.5917 77.5024C57.6982 77.5667 57.8029 77.6334 57.9058 77.702Z" fill="url(#paint12_linear_1068_103321)"/>
<path d="M62.5779 82.1584C63.826 87.2163 60.7373 92.3286 55.6794 93.5766C50.9032 94.7552 46.0791 92.0669 44.5051 87.5048C44.586 87.5173 44.6698 87.5292 44.7566 87.5403C46.3317 91.9268 51.0017 94.4986 55.6254 93.3577C60.5625 92.1394 63.5772 87.1496 62.359 82.2125C61.3789 78.2404 57.9574 75.5126 54.0863 75.2326C54.0511 75.1496 54.0172 75.0716 53.9848 74.9999C57.9987 75.2392 61.5639 78.0489 62.5779 82.1584Z" fill="url(#paint13_linear_1068_103321)"/>
<path d="M57.9065 77.7005C56.8809 77.1426 55.7659 76.8189 54.6263 76.739C54.5927 76.6261 54.5582 76.5162 54.5234 76.4098C55.597 76.5579 56.6394 76.9251 57.5948 77.5022C57.6744 77.5503 57.7536 77.6001 57.8312 77.651C57.8565 77.6672 57.8815 77.6838 57.9065 77.7005Z" fill="url(#paint14_linear_1068_103321)"/>
<path d="M62.3593 82.2122C63.5776 87.1493 60.5628 92.1392 55.6257 93.3574C51.0021 94.4983 46.332 91.9265 44.7569 87.54C45.1205 87.5862 45.5343 87.616 45.9985 87.6176C46.6583 89.1576 47.779 90.4504 49.2415 91.334C49.3211 91.3821 49.402 91.4291 49.4832 91.4741C49.5094 91.4893 49.5358 91.5037 49.5621 91.5177L49.5643 91.5191C51.3391 92.4851 53.3809 92.7501 55.3556 92.2628C57.4511 91.7457 59.2197 90.4438 60.3359 88.5964C61.452 86.749 61.7817 84.5778 61.2647 82.4823C60.7774 80.5076 59.5931 78.8234 57.9123 77.7017C57.9114 77.7012 57.911 77.7009 57.9101 77.7003C57.8854 77.6836 57.8604 77.6669 57.8347 77.6508C57.7571 77.5999 57.6779 77.5502 57.5983 77.5021C56.643 76.9249 55.6005 76.5577 54.527 76.4096C54.3772 75.9503 54.2219 75.5512 54.0867 75.2324C57.9578 75.5124 61.3792 78.2402 62.3593 82.2122Z" fill="url(#paint15_linear_1068_103321)"/>
<g style="mix-blend-mode:screen" opacity="0.3">
<path d="M61.2684 82.4826C61.7855 84.5781 61.4557 86.7493 60.3396 88.5967C59.2235 90.4441 57.4548 91.7461 55.3594 92.2631C53.3847 92.7504 51.3428 92.4855 49.5681 91.5194L49.5658 91.518C48.1392 90.5652 47.0705 89.207 46.4825 87.6098C47.611 87.5678 48.9979 87.3576 50.6412 86.834C51.9696 86.3286 54.6501 84.8895 55.0749 81.4108C55.3288 79.715 55.0217 78.0311 54.6336 76.7391C55.7732 76.8191 56.8881 77.1428 57.9138 77.7007C57.9147 77.7012 57.9151 77.7015 57.916 77.702C59.5968 78.8237 60.7811 80.5079 61.2684 82.4826Z" fill="url(#paint16_linear_1068_103321)"/>
</g>
<g clip-path="url(#clip4_1068_103321)">
<path d="M54.4849 85.9143L55.1691 86.6307C55.6472 86.1273 55.917 85.4898 55.9584 84.8503C55.9788 84.5294 55.9411 84.2071 55.8402 83.9028C55.7396 83.5992 55.5742 83.3138 55.3457 83.0755L54.25 81.9279L53.4904 81.1327L52.6774 80.2815C52.4492 80.0426 52.1769 79.8694 51.887 79.764C51.451 79.6052 50.9771 79.596 50.5244 79.7178C50.0719 79.8394 49.6371 80.0938 49.276 80.4714C48.7949 80.9759 48.5235 81.6154 48.4821 82.2577C48.4613 82.5783 48.4991 82.9009 48.6 83.2047C48.7009 83.5086 48.8665 83.7937 49.0947 84.0322L51.7634 86.8262C51.9912 87.0647 52.2636 87.2381 52.5538 87.3435C52.9898 87.5021 53.4633 87.5116 53.916 87.3902C54.0683 87.3491 54.2184 87.292 54.3646 87.2215L53.605 86.4262C53.5342 86.4416 53.4635 86.4517 53.3939 86.4566C53.2088 86.4696 53.0312 86.4453 52.8717 86.3872C52.7122 86.3287 52.5697 86.2374 52.4476 86.1103L49.7789 83.3159C49.6569 83.1879 49.5698 83.0391 49.514 82.8717C49.4306 82.6213 49.4202 82.3273 49.493 82.0306C49.566 81.7346 49.7209 81.4388 49.9607 81.1881C50.2793 80.8539 50.6761 80.6768 51.0466 80.6511C51.2318 80.6382 51.409 80.6628 51.5685 80.721C51.7285 80.7795 51.8705 80.8707 51.9932 80.9979L52.6859 81.7233L53.3703 82.4397L54.6615 83.7919C54.7836 83.9197 54.8703 84.0686 54.9262 84.236C55.0096 84.4863 55.02 84.78 54.9472 85.0769C54.8748 85.3711 54.7215 85.6647 54.4849 85.9141L54.4849 85.9143Z" fill="white"/>
<path d="M53.3693 82.4404L52.6848 81.724C52.2072 82.2273 51.9372 82.8648 51.896 83.5043C51.8756 83.8252 51.9132 84.1476 52.0143 84.4518C52.115 84.7555 52.2804 85.0408 52.5086 85.2793L53.6045 86.4267L54.3641 87.222L55.1771 88.0731C55.4049 88.312 55.6773 88.485 55.9675 88.5906C56.4035 88.7494 56.877 88.7587 57.3297 88.6368C57.7826 88.515 58.2171 88.2609 58.5781 87.8831C59.0593 87.3789 59.3307 86.739 59.3719 86.0972C59.3923 85.7763 59.3546 85.4542 59.2538 85.1497C59.1531 84.8461 58.9875 84.5609 58.7595 84.3224L56.0911 81.5288C55.8629 81.2899 55.591 81.1163 55.3007 81.0109C54.8647 80.8525 54.391 80.8429 53.9383 80.9643C53.7862 81.0054 53.6357 81.0629 53.4897 81.1333L54.2493 81.9286C54.32 81.9132 54.3908 81.9027 54.4605 81.898C54.6453 81.885 54.8227 81.9097 54.9826 81.9678C55.1422 82.0264 55.2844 82.1172 55.4069 82.2448L58.0752 85.0388C58.1973 85.1667 58.2844 85.3155 58.3401 85.4829C58.4235 85.7331 58.4339 86.0273 58.3607 86.3238C58.2881 86.6202 58.1331 86.9161 57.8939 87.1665C57.5748 87.5005 57.1781 87.6776 56.808 87.7031C56.6227 87.7161 56.4451 87.6918 56.2858 87.6337C56.1259 87.5751 55.9836 87.4843 55.8612 87.3567L55.1683 86.6313L54.484 85.915L53.1928 84.5628C53.0708 84.435 52.9841 84.286 52.9283 84.1186C52.8445 83.8684 52.8345 83.5746 52.9073 83.2777C52.9794 82.9835 53.1328 82.6898 53.3695 82.4406L53.3693 82.4404Z" fill="white"/>
</g>
<path d="M49.5558 91.5179C49.5294 91.5035 49.503 91.4891 49.4769 91.4742C49.3957 91.4292 49.3148 91.3822 49.2352 91.3341C47.7727 90.4505 46.6521 89.1578 45.9922 87.6178C46.1468 87.6184 46.3068 87.616 46.4725 87.6096C47.0605 89.2068 48.1292 90.565 49.5558 91.5179Z" fill="url(#paint17_linear_1068_103321)"/>
</g>
<path d="M144.541 132.892C144.541 132.892 144.427 134.684 144.807 135.408C145.187 136.132 144.753 141.318 144.666 141.471C130.364 142.386 117.174 141.471 117.174 141.471C117.174 141.471 118.733 133.997 119.721 133.12C120.709 132.243 137.357 131.404 144.541 132.892Z" fill="#4D4D4D"/>
<path d="M125.374 138.337C125.74 138.391 126.15 138.49 126.523 138.486C126.957 138.481 126.882 138.233 126.909 137.838C126.957 137.147 127.027 136.458 127.119 135.772C127.294 134.461 127.554 133.164 127.885 131.884C127.922 131.741 128.142 131.802 128.105 131.945C127.66 133.664 127.348 135.414 127.189 137.184C127.154 137.57 127.186 138.008 127.104 138.384C127.079 138.497 127.086 138.61 126.978 138.687C126.808 138.809 126.5 138.712 126.326 138.692C125.988 138.653 125.651 138.607 125.314 138.558C125.169 138.537 125.231 138.317 125.374 138.337Z" fill="#383838"/>
<path d="M116.678 107.574C116.678 107.574 115.158 116.649 115.462 118.059C112.915 124.312 109.646 138.725 109.266 139.373C108.886 140.022 108.772 141.204 108.772 141.204L113.561 141.547L113.713 139.488C113.713 139.488 120.099 129.193 120.745 127.21C121.391 125.228 124.204 109.709 123.786 109.175C123.368 108.641 116.678 107.574 116.678 107.574Z" fill="#FFC2A1"/>
<path d="M138.95 92.227C138.95 92.227 145.606 94.9532 147.127 95.6395C148.647 96.3258 151.726 102.827 151.745 103.342C151.764 103.856 152.239 104.562 152.315 104.695C152.391 104.829 151.65 105.057 151.65 105.057C151.65 105.057 145.664 116.935 145.635 117.163C145.606 117.392 145.35 128.859 145.093 129.431C144.836 130.003 145.378 133.578 145.093 133.978C143.183 134.522 134.203 133.406 133.262 133.978C132.322 134.55 119.18 133.549 119.009 133.349C119.522 130.518 120.121 128.716 120.121 128.03C120.121 127.344 121.033 119.451 120.577 117.163C120.121 114.876 120.691 110.443 120.235 109.656C117.954 108.47 115.217 108.047 115.274 107.744C116.301 104.867 119.408 96.974 120.092 96.2305C120.776 95.487 128.416 92.7846 128.416 92.7846C128.416 92.7846 135.543 94.3431 138.95 92.227Z" fill="#EA3934"/>
<path d="M140.841 107.326C140.523 106.39 141.346 105.435 141.039 104.496C140.993 104.356 141.213 104.296 141.259 104.435C141.588 105.443 141.908 106.454 142.254 107.455C142.426 107.952 142.609 108.444 142.809 108.93L143.641 108.63L144.391 109.978C144.391 109.978 143.393 110.35 143.179 110.229C143.135 110.204 143.089 110.134 143.045 110.042C142.786 110.139 141.306 110.044 141.317 109.909C141.355 109.429 140.51 108.863 140.338 108.422C140.168 107.989 140.991 107.766 140.841 107.326Z" fill="#B6231F"/>
<path d="M119.185 132.445C122.377 133.085 125.684 133.532 128.916 133.432C132.613 133.317 136.222 132.209 139.939 132.608C141.689 132.797 143.424 132.936 145.175 133.017C145.178 133.101 145.179 133.18 145.18 133.256C143.675 133.199 142.176 133.108 140.677 132.924C138.797 132.693 136.967 132.721 135.087 132.952C133.212 133.182 131.348 133.529 129.46 133.637C127.525 133.747 125.576 133.574 123.655 133.355C122.142 133.183 120.637 132.949 119.142 132.661C119.156 132.588 119.171 132.516 119.185 132.445Z" fill="#B6231F"/>
<path d="M139.578 92.4868C137.64 94.2691 135.171 95.5066 132.557 95.8435C131.095 96.032 129.675 95.804 128.554 94.7874C128.046 94.3262 127.614 93.7906 127.253 93.2089C127.329 93.1813 127.403 93.1543 127.473 93.129C127.819 93.6795 128.231 94.1872 128.716 94.6257C129.967 95.7578 131.596 95.8219 133.176 95.5107C135.479 95.0574 137.61 93.9582 139.345 92.3909C139.415 92.4199 139.491 92.4511 139.578 92.4868Z" fill="#B6231F"/>
<path d="M115.653 106.718C116.028 106.832 116.4 106.954 116.767 107.094C117.241 107.275 117.707 107.481 118.155 107.719C118.756 108.039 119.309 108.44 119.981 108.599C120.124 108.632 120.063 108.853 119.92 108.819C119.388 108.693 118.943 108.432 118.473 108.16C117.905 107.831 117.319 107.549 116.706 107.315C116.333 107.172 115.955 107.048 115.573 106.932C115.599 106.862 115.626 106.791 115.653 106.718Z" fill="#B6231F"/>
<path d="M142.238 107.812L148.307 105.422C149.499 104.923 150.687 104.39 151.891 103.907C151.92 103.978 151.951 104.047 151.984 104.114C150.769 104.601 149.571 105.139 148.368 105.642C146.501 106.424 144.223 107.378 142.357 108.16C142.222 108.217 142.104 107.868 142.238 107.812Z" fill="#B6231F"/>
<path d="M137.907 86.9366C137.907 86.9366 137.821 91.4978 137.907 91.698C137.992 91.8982 138.947 92.227 138.947 92.227C138.947 92.227 135.484 95.2583 132.177 94.8294C128.87 94.4004 128.414 92.7847 128.414 92.7847C128.414 92.7847 129.269 92.3557 129.312 92.1555C129.355 91.9553 129.469 89.8392 129.469 89.8392C129.469 89.8392 127.454 89.8631 126.808 88.6429C126.162 87.4228 124.47 80.96 126.143 74.0967C130.21 71.6946 139.712 75.355 139.902 77.0327C140.092 78.7103 137.907 86.9366 137.907 86.9366Z" fill="#FFC2A1"/>
<path d="M137.904 86.9366C137.904 86.9366 143.264 76.2128 140.071 75.0975C140.185 72.0663 131.12 70.0073 127.556 71.237C127.357 71.3227 127.556 71.5801 127.556 71.5801C127.556 71.5801 125.504 72.0519 125.133 73.2101C125.261 73.4532 126.102 73.4532 126.102 73.4532C126.102 73.4532 125.646 74.1967 125.66 74.3111C126.615 74.9259 128.639 74.6829 128.639 74.6829C128.639 74.6829 128.126 75.2262 128.34 75.4264C128.554 75.6265 131.747 75.698 133.357 75.3692C134.654 75.1547 135.524 75.169 135.524 75.3406C135.524 75.5122 135.139 80.0948 135.538 80.6453C135.816 80.7954 136.229 80.295 136.229 80.295C136.229 80.295 136.322 81.732 136.75 81.7177C137.42 81.2458 137.477 80.2307 137.477 80.2307C137.477 80.2307 138.731 79.5014 138.902 80.9885C139.073 82.4755 138.033 84.6203 136.721 84.4487C136.536 86.1216 137.904 86.9366 137.904 86.9366Z" fill="#191919"/>
<path d="M133.769 78.906C133.769 78.906 130.078 78.9296 129.764 78.4577C129.507 77.9287 129.75 77.371 129.864 77.2996C129.978 77.2281 133.712 77.5712 134.183 77.9287C134.525 78.2575 134.254 78.9084 133.769 78.906Z" fill="#191919"/>
<path d="M127.295 77.0134C127.308 77.0426 127.388 78.0214 127.238 78.193C127.074 78.336 125.592 78.1358 125.471 78.0572C125.35 77.9785 125.3 76.9705 125.435 76.8418C125.571 76.7132 127.231 76.8704 127.295 77.0134Z" fill="#191919"/>
<path d="M132.316 81.5476C132.316 81.8042 132.493 82.118 132.713 82.118C132.932 82.118 133.109 81.8042 133.109 81.5476C133.109 81.291 132.932 81.083 132.713 81.083C132.493 81.083 132.316 81.291 132.316 81.5476Z" fill="#4D4D4D"/>
<path d="M125.494 80.6182C126.277 80.5216 126.846 80.8472 127.493 81.243C127.618 81.3195 127.503 81.5175 127.378 81.4405C126.768 81.0673 126.236 80.7554 125.494 80.847C125.349 80.8649 125.35 80.636 125.494 80.6182Z" fill="#4D4D4D"/>
<path d="M127.978 82.5564C128.246 81.3076 128.342 80.034 128.295 78.7587C128.289 78.6114 128.517 78.6116 128.523 78.7587C128.555 79.6206 128.525 80.4807 128.415 81.3367C128.365 81.731 128.3 82.1232 128.219 82.5124C128.165 82.7764 128.079 82.9839 128.153 83.2507C128.256 83.6253 128.588 83.7555 128.938 83.8827C129.075 83.9325 129.016 84.1536 128.877 84.1033C128.55 83.9844 128.1 83.7987 127.902 83.4913C127.721 83.2093 127.912 82.8626 127.978 82.5564Z" fill="#D48F86"/>
<path d="M127.17 85.2064C127.17 85.2064 130.292 86.0071 130.434 86.2216C130.577 86.4361 129.308 87.1367 128.339 86.865C127.37 86.5934 127.17 85.2064 127.17 85.2064Z" fill="white"/>
<path d="M129.423 90.6539C129.451 90.2609 129.457 90.0625 129.469 89.8391C131.008 89.8414 132.691 89.3309 134.025 88.5629C135.373 87.7861 135.633 86.0622 136.063 84.6883C136.107 84.5483 136.327 84.6081 136.283 84.7491C135.858 86.1085 135.345 88.7068 134.045 89.5246C133.15 90.0874 132.142 90.3964 131.102 90.5434C131.209 90.9861 131.348 91.418 131.522 91.8404C131.579 91.9762 131.358 92.0355 131.302 91.9012C131.124 91.4691 130.983 91.0268 130.875 90.5733C130.394 90.6302 129.907 90.6546 129.423 90.6539Z" fill="#D48F86"/>
<path d="M137.248 83.4571C137.573 83.24 137.741 82.9215 137.546 82.5583C137.471 82.4189 137.365 82.325 137.327 82.1643C137.263 81.8918 137.367 81.5986 137.526 81.3797C137.788 81.0182 138.373 80.7702 138.613 81.2843C138.675 81.4168 138.479 81.5331 138.416 81.3998C138.188 80.9119 137.72 81.4609 137.634 81.6329C137.517 81.8652 137.53 82.1059 137.657 82.3298C137.757 82.5065 137.919 82.6271 137.925 82.8477C137.933 83.1863 137.62 83.4833 137.363 83.6547C137.24 83.7364 137.126 83.5384 137.248 83.4571Z" fill="#D48F86"/>
<path d="M143.967 109.595L134.123 105.401C134.123 105.401 131.947 100.234 131.234 99.8337C130.493 99.2904 130.835 96.3163 130.978 96.0733C130.45 95.6586 128.227 96.1304 129.196 99.3333C127.186 98.9043 126.317 98.9615 126.046 99.2618C125.775 99.5621 124.834 101.993 125.077 102.45C125.319 102.908 126.844 108.203 127.452 108.661C128.06 109.118 129.011 108.584 129.524 108.927C130.037 109.271 131.291 109.156 131.291 109.156C131.291 109.156 146.704 121.605 149.175 122.711C151.645 123.817 154.306 123.321 154.952 122.711C155.598 122.101 155.788 117.602 154.762 113.827C153.736 110.052 151.645 105.057 151.645 105.057C151.645 105.057 143.777 108.279 143.549 108.718C143.739 109.175 143.967 109.595 143.967 109.595Z" fill="#FFC2A1"/>
<path d="M126.784 101.291C126.977 100.625 127.608 100.406 128.232 100.568C128.373 100.605 128.313 100.826 128.171 100.789C127.667 100.657 127.162 100.805 127.004 101.352C126.963 101.493 126.743 101.433 126.784 101.291Z" fill="#D48F86"/>
<path d="M126.281 106.003C126.245 105.9 126.209 105.796 126.173 105.692C126.359 105.287 126.549 104.884 126.75 104.487C126.817 104.355 127.014 104.471 126.947 104.602C126.713 105.064 126.494 105.532 126.281 106.003Z" fill="#D48F86"/>
<path d="M129.517 108.922C129.448 108.877 129.371 108.848 129.288 108.829C129.282 108.734 129.17 108.66 129.061 108.608C128.929 108.544 129.045 108.346 129.177 108.41C129.376 108.507 129.588 108.685 129.517 108.922Z" fill="#D48F86"/>
<path d="M126.509 102.05C126.116 102.576 125.789 103.136 125.523 103.726C125.487 103.617 125.453 103.512 125.42 103.412C125.669 102.895 125.964 102.401 126.312 101.935C126.399 101.818 126.597 101.932 126.509 102.05Z" fill="#D48F86"/>
<path d="M127.416 106.638C127.177 106.974 127.048 107.355 126.934 107.744C126.889 107.64 126.844 107.528 126.798 107.413C126.9 107.1 127.024 106.797 127.22 106.523C127.304 106.404 127.502 106.518 127.416 106.638Z" fill="#D48F86"/>
<path d="M143.544 108.718C144.769 108.835 147.62 109.8 148.903 110.7C150.214 111.621 151.551 112.636 152.596 113.88C152.691 113.992 152.53 114.155 152.435 114.042C151.402 112.813 150.004 112.035 148.573 111.361C147.752 110.974 144.308 109.716 143.962 109.595C143.842 109.442 143.624 108.849 143.544 108.718Z" fill="#D48F86"/>
<path d="M116.43 119.404C116.734 119.939 117.37 121.252 118.132 120.821C118.434 120.65 118.641 120.439 119.004 120.521C119.147 120.553 119.087 120.774 118.944 120.742C118.387 120.616 118.084 121.385 117.472 121.099C116.913 120.838 116.519 120.022 116.233 119.52C116.16 119.392 116.357 119.276 116.43 119.404Z" fill="#D48F86"/>
<path d="M120.474 103.781C120.488 103.636 120.716 103.634 120.703 103.781C120.515 105.778 120.224 107.807 120.301 109.811C119.995 109.571 119.553 109.414 118.742 108.993C118.666 106.989 120.287 105.778 120.474 103.781Z" fill="#B6231F"/>
<path d="M124.833 114.656C128.158 117.374 131.735 119.766 135.514 121.802C135.643 121.872 135.528 122.069 135.399 122C131.602 119.954 128.012 117.549 124.672 114.818C124.558 114.725 124.72 114.564 124.833 114.656Z" fill="#B6231F"/>
<path d="M126.224 118.768C127.38 119.457 128.606 119.991 129.896 120.367C130.037 120.408 129.977 120.629 129.836 120.588C128.526 120.206 127.282 119.664 126.109 118.966C125.983 118.891 126.098 118.693 126.224 118.768Z" fill="#B6231F"/>
<path d="M129.661 141.873C129.661 141.873 129.804 141.299 129.562 141.099C129.319 140.899 125.756 140.427 124.117 140.169C122.478 139.912 124.445 140.999 124.544 141.17C124.644 141.342 123.69 141.403 123.718 141.766C125.799 141.819 129.661 141.873 129.661 141.873Z" fill="#383838"/>
</g>
<defs>
<linearGradient id="paint0_linear_1068_103321" x1="67.821" y1="56.9169" x2="85.5528" y2="73.1188" gradientUnits="userSpaceOnUse">
<stop stop-color="#FFD700"/>
<stop offset="1" stop-color="#E68D35"/>
</linearGradient>
<linearGradient id="paint1_linear_1068_103321" x1="67.89" y1="57.1996" x2="85.1979" y2="73.0142" gradientUnits="userSpaceOnUse">
<stop stop-color="#FFD700"/>
<stop offset="1" stop-color="#E68D35"/>
</linearGradient>
<linearGradient id="paint2_linear_1068_103321" x1="68.2349" y1="58.6126" x2="83.4235" y2="72.4907" gradientUnits="userSpaceOnUse">
<stop stop-color="#FFD700"/>
<stop offset="1" stop-color="#E68D35"/>
</linearGradient>
<linearGradient id="paint3_linear_1068_103321" x1="66.9132" y1="58.9387" x2="80.1192" y2="71.0053" gradientUnits="userSpaceOnUse">
<stop stop-color="#FFD700"/>
<stop offset="1" stop-color="#E68D35"/>
</linearGradient>
<linearGradient id="paint4_linear_1068_103321" x1="67.9764" y1="57.4427" x2="85.2663" y2="73.5454" gradientUnits="userSpaceOnUse">
<stop stop-color="#FFD700"/>
<stop offset="1" stop-color="#E68D35"/>
</linearGradient>
<linearGradient id="paint5_linear_1068_103321" x1="74.0362" y1="57.9412" x2="75.8284" y2="60.1783" gradientUnits="userSpaceOnUse">
<stop stop-color="#FFD700"/>
<stop offset="1" stop-color="#E68D35"/>
</linearGradient>
<linearGradient id="paint6_linear_1068_103321" x1="68.0625" y1="57.7545" x2="84.9034" y2="73.4584" gradientUnits="userSpaceOnUse">
<stop stop-color="#FFD700"/>
<stop offset="1" stop-color="#E68D35"/>
</linearGradient>
<linearGradient id="paint7_linear_1068_103321" x1="68.8893" y1="59.6693" x2="83.1806" y2="72.9944" gradientUnits="userSpaceOnUse">
<stop stop-color="#FFD700"/>
<stop offset="1" stop-color="#E68D35"/>
</linearGradient>
<linearGradient id="paint8_linear_1068_103321" x1="62.7387" y1="72.4773" x2="66.7956" y2="74.3981" gradientUnits="userSpaceOnUse">
<stop stop-color="#FFD700"/>
<stop offset="1" stop-color="#E68D35"/>
</linearGradient>
<linearGradient id="paint9_linear_1068_103321" x1="51.1583" y1="75.2598" x2="64.896" y2="87.8123" gradientUnits="userSpaceOnUse">
<stop stop-color="#FFD700"/>
<stop offset="1" stop-color="#E68D35"/>
</linearGradient>
<linearGradient id="paint10_linear_1068_103321" x1="51.2128" y1="75.4789" x2="64.6222" y2="87.7313" gradientUnits="userSpaceOnUse">
<stop stop-color="#FFD700"/>
<stop offset="1" stop-color="#E68D35"/>
</linearGradient>
<linearGradient id="paint11_linear_1068_103321" x1="51.4776" y1="76.5735" x2="63.245" y2="87.3257" gradientUnits="userSpaceOnUse">
<stop stop-color="#FFD700"/>
<stop offset="1" stop-color="#E68D35"/>
</linearGradient>
<linearGradient id="paint12_linear_1068_103321" x1="50.4536" y1="76.8262" x2="60.6849" y2="86.1748" gradientUnits="userSpaceOnUse">
<stop stop-color="#FFD700"/>
<stop offset="1" stop-color="#E68D35"/>
</linearGradient>
<linearGradient id="paint13_linear_1068_103321" x1="51.2802" y1="75.6673" x2="64.6755" y2="88.1428" gradientUnits="userSpaceOnUse">
<stop stop-color="#FFD700"/>
<stop offset="1" stop-color="#E68D35"/>
</linearGradient>
<linearGradient id="paint14_linear_1068_103321" x1="55.9678" y1="76.0534" x2="57.3564" y2="77.7866" gradientUnits="userSpaceOnUse">
<stop stop-color="#FFD700"/>
<stop offset="1" stop-color="#E68D35"/>
</linearGradient>
<linearGradient id="paint15_linear_1068_103321" x1="51.3454" y1="75.9088" x2="64.3929" y2="88.0754" gradientUnits="userSpaceOnUse">
<stop stop-color="#FFD700"/>
<stop offset="1" stop-color="#E68D35"/>
</linearGradient>
<linearGradient id="paint16_linear_1068_103321" x1="51.9868" y1="77.3922" x2="63.059" y2="87.7158" gradientUnits="userSpaceOnUse">
<stop stop-color="#FFD700"/>
<stop offset="1" stop-color="#E68D35"/>
</linearGradient>
<linearGradient id="paint17_linear_1068_103321" x1="47.2182" y1="87.3153" x2="50.3613" y2="88.8034" gradientUnits="userSpaceOnUse">
<stop stop-color="#FFD700"/>
<stop offset="1" stop-color="#E68D35"/>
</linearGradient>
<clipPath id="clip0_1068_103321">
<rect width="124" height="124" fill="white" transform="translate(29 41)"/>
</clipPath>
<clipPath id="clip1_1068_103321">
<rect width="24.3511" height="24.3511" fill="white" transform="translate(56 59.8337) rotate(-13.8611)"/>
</clipPath>
<clipPath id="clip2_1068_103321">
<rect width="14.071" height="11.7258" fill="white" transform="translate(64.3594 62.5642)"/>
</clipPath>
<clipPath id="clip3_1068_103321">
<rect width="18.866" height="18.866" fill="white" transform="translate(42 77.5197) rotate(-13.8611)"/>
</clipPath>
<clipPath id="clip4_1068_103321">
<rect width="10.9015" height="9.08456" fill="white" transform="translate(48.4766 79.6351)"/>
</clipPath>
</defs>
</svg>
