<svg xmlns="http://www.w3.org/2000/svg" width="28" height="28" fill="none" viewBox="0 0 28 28">
    <g fill="#a97010" clip-path="url(#a)">
        <path d="M8.75 15.75c-.724 0-1.312.589-1.312 1.313h.875a.438.438 0 0 1 .874 0h.876c0-.724-.59-1.313-1.313-1.313M12.25 15.75c-.724 0-1.312.589-1.312 1.313h.874a.438.438 0 0 1 .876 0h.874c0-.724-.588-1.313-1.312-1.313"/>
        <path d="M14.438 21h-.477a5.24 5.24 0 0 0 1.716-3.1 1.97 1.97 0 0 0 1.604-1.931 1.97 1.97 0 0 0-1.604-1.932c-.404-2.497-2.568-4.412-5.177-4.412s-4.773 1.915-5.176 4.412a1.97 1.97 0 0 0-1.605 1.932c0 .96.693 1.76 1.605 1.932A5.24 5.24 0 0 0 7.039 21h-.476A6.57 6.57 0 0 0 0 27.563c0 .241.196.437.438.437h20.125a.437.437 0 0 0 .437-.437A6.57 6.57 0 0 0 14.438 21m1.312-6.034a1.096 1.096 0 0 1 0 2.005zm-10.5 2.005a1.096 1.096 0 0 1 0-2.005zM10.5 10.5a4.38 4.38 0 0 1 4.375 4.364c-3.158-.111-5.25-1.402-5.25-2.614a.437.437 0 1 0-.875 0c0 1.093-1.13 2-2.6 2.16a4.38 4.38 0 0 1 4.35-3.91m-4.375 6.563v-1.775c1.366-.119 2.526-.777 3.105-1.7.914 1.213 3.054 2.066 5.645 2.153v1.322a4.377 4.377 0 0 1-6.176 3.982 4.38 4.38 0 0 1-2.574-3.983m7 4.812v.875a2.63 2.63 0 0 1-2.625 2.625 2.63 2.63 0 0 1-2.625-2.625v-.875h.533a5.22 5.22 0 0 0 4.184 0zM.892 27.125a5.695 5.695 0 0 1 5.67-5.25H7v.875c0 1.93 1.57 3.5 3.5 3.5s3.5-1.57 3.5-3.5v-.875h.438a5.695 5.695 0 0 1 5.67 5.25zM25.228 6.236l-.728-.648V3.063a.437.437 0 0 0-.437-.438h-1.75a.437.437 0 0 0-.438.438v.192l-.584-.52a.436.436 0 0 0-.582 0l-3.937 3.5a.44.44 0 0 0-.147.328v3.5c0 .242.196.437.438.437h7.875a.437.437 0 0 0 .437-.437v-3.5a.44.44 0 0 0-.147-.327m-3.79 3.389h-.875V7.438h.875zm3.062 0h-2.187V7a.437.437 0 0 0-.438-.437h-1.75a.437.437 0 0 0-.437.437v2.625H17.5V6.76L21 3.648l1.022.908a.437.437 0 0 0 .728-.327V3.5h.875v2.285c0 .125.053.244.147.327l.728.647z"/>
        <path d="M21 0c-3.86 0-7 3.14-7 7s3.14 7 7 7 7-3.14 7-7-3.14-7-7-7m0 13.125A6.13 6.13 0 0 1 14.875 7 6.13 6.13 0 0 1 21 .875 6.13 6.13 0 0 1 27.125 7 6.13 6.13 0 0 1 21 13.125M18.375 17.5c-.965 0-1.75.785-1.75 1.75S17.41 21 18.375 21s1.75-.785 1.75-1.75-.785-1.75-1.75-1.75m0 2.625a.876.876 0 1 1 .002-1.752.876.876 0 0 1-.002 1.752M22.75 14.438a2.19 2.19 0 0 0-2.187 2.187 2.19 2.19 0 0 0 2.187 2.188 2.19 2.19 0 0 0 2.188-2.188 2.19 2.19 0 0 0-2.188-2.187m0 3.5a1.314 1.314 0 0 1-1.312-1.313c0-.724.588-1.312 1.312-1.312s1.313.588 1.313 1.312-.59 1.313-1.313 1.313M11.375 18.375a.876.876 0 0 1-1.75 0H8.75c0 .965.785 1.75 1.75 1.75s1.75-.785 1.75-1.75z"/>
    </g>
    <defs>
        <clipPath id="a">
            <path fill="#fff" d="M0 0h28v28H0z"/>
        </clipPath>
    </defs>
</svg>
