<svg xmlns="http://www.w3.org/2000/svg" width="64" height="59" fill="none" viewBox="0 0 64 59">
    <path fill="#fff" d="M2.606 17.33c5.578-5.576 10.302-.898 12.29-8.386 3.05-11.478 16.21-11.478 22.062-2.464 8.338 12.846 27.185 5.658 27.041 21.186-.153 16.577-12.343 29.489-34.207 30.779C10.19 59.6-6.637 26.568 2.606 17.329" opacity=".7"/>
    <g clip-path="url(#a)">
        <path fill="url(#b)" d="M36.236 46.153c9.31-2.297 14.995-11.707 12.698-21.016-2.298-9.31-11.707-14.995-21.017-12.698S12.923 24.146 15.22 33.456 26.927 48.45 36.236 46.153"/>
        <path fill="url(#c)" d="M36.136 45.75c9.088-2.242 14.636-11.427 12.394-20.514S37.103 10.6 28.016 12.842C18.93 15.085 13.38 24.27 15.623 33.356S27.049 47.992 36.136 45.75"/>
        <path fill="url(#d)" d="M35.637 43.736a14.77 14.77 0 0 1-11.253-1.71 14.77 14.77 0 0 1-6.749-9.167 14.78 14.78 0 0 1 1.71-11.253 14.78 14.78 0 0 1 9.166-6.749 14.77 14.77 0 0 1 11.254 1.71 14.77 14.77 0 0 1 6.748 9.167 14.78 14.78 0 0 1-1.71 11.253 14.77 14.77 0 0 1-9.166 6.749"/>
        <path fill="url(#e)" d="M40.343 16.935a14.77 14.77 0 0 0-10.66-1.37 14.77 14.77 0 0 0-9.166 6.749 14.77 14.77 0 0 0-1.71 11.254 14.76 14.76 0 0 0 6.17 8.799q-.3-.164-.593-.341a14.77 14.77 0 0 1-6.749-9.167 14.78 14.78 0 0 1 1.71-11.253 14.78 14.78 0 0 1 9.166-6.749 14.77 14.77 0 0 1 11.832 2.078"/>
        <path fill="url(#f)" d="M48.93 25.137c2.296 9.31-3.389 18.719-12.698 21.016-8.791 2.17-17.67-2.779-20.567-11.176q.223.035.462.066c2.9 8.073 11.495 12.807 20.006 10.707 9.087-2.242 14.636-11.426 12.393-20.514-1.804-7.31-8.101-12.331-15.226-12.847a20 20 0 0 0-.187-.428c7.388.44 13.95 5.612 15.816 13.176" opacity=".4"/>
        <path fill="url(#g)" d="M40.346 16.932a14.8 14.8 0 0 0-6.037-1.77 24 24 0 0 0-.19-.606 14.84 14.84 0 0 1 6.227 2.376" style="mix-blend-mode:saturation"/>
        <path fill="url(#h)" d="M48.231 24.934c2.242 9.087-3.306 18.271-12.394 20.514-8.51 2.1-17.106-2.634-20.005-10.708.67.085 1.431.14 2.285.143a14.76 14.76 0 0 0 6.56 7.178l.004.003a14.76 14.76 0 0 0 10.66 1.369 14.77 14.77 0 0 0 9.166-6.748 14.77 14.77 0 0 0 1.71-11.254 14.76 14.76 0 0 0-6.17-8.8q-.003 0-.005-.002l-.139-.09a14.841 14.841 0 0 0-6.088-2.284 27 27 0 0 0-.81-2.168c7.125.515 13.422 5.536 15.226 12.847" opacity=".3"/>
        <path fill="url(#i)" d="M46.521 25.733a14.78 14.78 0 0 1-1.71 11.254 14.78 14.78 0 0 1-9.166 6.748c-3.635.897-7.393.41-10.66-1.368l-.003-.003a14.74 14.74 0 0 1-5.676-7.193c2.078-.078 4.63-.465 7.655-1.428 2.445-.93 7.379-3.58 8.16-9.982.468-3.122-.097-6.221-.812-8.599a14.8 14.8 0 0 1 6.038 1.77l.004.002a14.77 14.77 0 0 1 6.17 8.8" opacity=".6"/>
        <g clip-path="url(#j)">
            <path fill="#fff" d="m31.622 26.042-1.308-1.263c-.912.888-1.428 2.012-1.507 3.14a4.1 4.1 0 0 0 .226 1.67c.192.536.508 1.039.944 1.46l2.094 2.023 1.451 1.402 1.553 1.501c.435.422.956.727 1.51.913.833.28 1.738.296 2.603.081a5.27 5.27 0 0 0 2.384-1.329c.92-.889 1.438-2.017 1.517-3.15a4.1 4.1 0 0 0-.226-1.67 3.8 3.8 0 0 0-.944-1.459l-5.098-4.926a4 4 0 0 0-1.51-.913 4.67 4.67 0 0 0-2.602-.083q-.437.11-.857.299l1.45 1.402a3 3 0 0 1 .404-.054c.353-.023.692.02.998.123q.458.153.81.488l5.098 4.927q.348.34.506.784c.16.44.179.96.04 1.482a3.24 3.24 0 0 1-.893 1.486c-.61.59-1.367.902-2.074.947a2.6 2.6 0 0 1-.998-.123 2.14 2.14 0 0 1-.81-.488l-1.325-1.28-1.307-1.263-2.466-2.384a2 2 0 0 1-.506-.783c-.16-.441-.179-.96-.04-1.483.138-.519.43-1.037.883-1.476"/>
            <g filter="url(#k)">
                <path fill="#fff" d="m33.756 32.168 1.307 1.264c.913-.888 1.428-2.012 1.507-3.14a4.1 4.1 0 0 0-.225-1.67 3.8 3.8 0 0 0-.945-1.46l-2.093-2.023-1.451-1.403-1.554-1.5a4 4 0 0 0-1.51-.913 4.65 4.65 0 0 0-2.603-.082 5.27 5.27 0 0 0-2.384 1.33c-.92.889-1.438 2.017-1.517 3.15-.04.565.032 1.133.225 1.67.193.535.51 1.038.945 1.458l5.098 4.927c.436.421.956.727 1.51.913.833.28 1.738.296 2.603.082a5 5 0 0 0 .857-.298l-1.452-1.402a3 3 0 0 1-.403.054 2.6 2.6 0 0 1-.997-.123 2.15 2.15 0 0 1-.81-.488l-5.099-4.928a2.04 2.04 0 0 1-.506-.783c-.159-.442-.179-.96-.04-1.483a3.24 3.24 0 0 1 .893-1.486c.61-.59 1.367-.902 2.075-.947.354-.023.692.02.997.123q.46.153.811.489l1.324 1.279 1.307 1.263 2.467 2.384q.348.34.505.784c.16.441.18.96.04 1.483a3.24 3.24 0 0 1-.883 1.476"/>
            </g>
        </g>
        <path fill="url(#l)" d="m24.676 42.062-.145-.08q-.225-.125-.445-.258a14.76 14.76 0 0 1-5.969-6.84q.428 0 .884-.015a14.74 14.74 0 0 0 5.675 7.193" style="mix-blend-mode:saturation"/>
    </g>
    <defs>
        <linearGradient id="b" x1="27.917" x2="53.203" y1="12.439" y2="35.543" gradientUnits="userSpaceOnUse">
            <stop stop-color="gold"/>
            <stop offset="1" stop-color="#e68d35"/>
        </linearGradient>
        <linearGradient id="c" x1="28.016" x2="52.697" y1="12.842" y2="35.394" gradientUnits="userSpaceOnUse">
            <stop stop-color="#efcb0a"/>
            <stop offset="1" stop-color="#af661d"/>
        </linearGradient>
        <linearGradient id="d" x1="28.511" x2="50.17" y1="14.857" y2="34.648" gradientUnits="userSpaceOnUse">
            <stop stop-color="gold"/>
            <stop offset="1" stop-color="#e68d35"/>
        </linearGradient>
        <linearGradient id="e" x1="26.627" x2="45.458" y1="15.322" y2="32.529" gradientUnits="userSpaceOnUse">
            <stop stop-color="gold"/>
            <stop offset="1" stop-color="#e68d35"/>
        </linearGradient>
        <linearGradient id="f" x1="28.135" x2="52.79" y1="13.189" y2="36.152" gradientUnits="userSpaceOnUse">
            <stop stop-color="gold"/>
            <stop offset="1" stop-color="#e68d35"/>
        </linearGradient>
        <linearGradient id="g" x1="36.778" x2="39.333" y1="13.9" y2="17.09" gradientUnits="userSpaceOnUse">
            <stop stop-color="gold"/>
            <stop offset="1" stop-color="#e68d35"/>
        </linearGradient>
        <linearGradient id="h" x1="27.959" x2="51.974" y1="13.332" y2="35.725" gradientUnits="userSpaceOnUse">
            <stop stop-color="gold"/>
            <stop offset="1" stop-color="#e68d35"/>
        </linearGradient>
        <linearGradient id="i" x1="29.438" x2="49.817" y1="16.364" y2="35.366" gradientUnits="userSpaceOnUse">
            <stop stop-color="#ebc704"/>
            <stop offset="1" stop-color="#d17315"/>
        </linearGradient>
        <linearGradient id="l" x1="20.374" x2="26.159" y1="34.327" y2="37.066" gradientUnits="userSpaceOnUse">
            <stop stop-color="gold"/>
            <stop offset="1" stop-color="#e68d35"/>
        </linearGradient>
        <clipPath id="a">
            <path fill="#fff" d="m11.06 16.599 33.714-8.32 8.32 33.715-33.714 8.319z"/>
        </clipPath>
        <clipPath id="j">
            <path fill="#fff" d="M22.277 21.096h20.826v16.02H22.277z"/>
        </clipPath>
        <filter id="k" width="16.043" height="15.562" x="22.277" y="21.095" color-interpolation-filters="sRGB" filterUnits="userSpaceOnUse">
            <feFlood flood-opacity="0" result="BackgroundImageFix"/>
            <feColorMatrix in="SourceAlpha" result="hardAlpha" values="0 0 0 0 0 0 0 0 0 0 0 0 0 0 0 0 0 0 127 0"/>
            <feOffset dx=".87" dy=".87"/>
            <feGaussianBlur stdDeviation=".435"/>
            <feComposite in2="hardAlpha" operator="out"/>
            <feColorMatrix values="0 0 0 0 0 0 0 0 0 0 0 0 0 0 0 0 0 0 0.1 0"/>
            <feBlend in2="BackgroundImageFix" result="effect1_dropShadow_978_293442"/>
            <feBlend in="SourceGraphic" in2="effect1_dropShadow_978_293442" result="shape"/>
        </filter>
    </defs>
</svg>
