<svg xmlns="http://www.w3.org/2000/svg" fill="none" viewBox="17.77 22.78 152.84 127.04">
    <path fill="#fef2f2" d="M18.715 82.698s9.587-41.124 33.901-53.878c24.314-12.755 40.052-2.575 57.071 5.55s45.067 9.647 53.79 28.044 10.513 34.084-.651 47.437-22.284 12.436-50.619 17.149c-28.334 4.713-27.866 19.113-52.803 22.546-24.938 3.432-36.626-25.832-39.936-41.071-3.31-15.24-.753-25.777-.753-25.777" opacity=".7"/>
    <g clip-path="url(#a)">
        <path fill="#fff" stroke="#e6e6e6" stroke-miterlimit="10" stroke-width=".167" d="m94.832 60.266.001 3.324v58.964a2.86 2.86 0 0 1-2.861 2.861H43.943a2.86 2.86 0 0 1-2.861-2.861V47.181a2.86 2.86 0 0 1 2.861-2.862h48.028a2.86 2.86 0 0 1 2.861 2.862v13.085Z"/>
        <path fill="#ea3934" d="M70.825 114h17.26a3.826 3.826 0 0 1 3.825 3.824 3.826 3.826 0 0 1-3.824 3.825H70.825A3.826 3.826 0 0 1 67 117.824 3.826 3.826 0 0 1 70.825 114"/>
        <path fill="#191919" d="M47 89h38v1H47zM47 94h38v1H47zM47 99h38v1H47zM47 104h38v1H47zM47 109h38v1H47z" opacity=".1"/>
        <g clip-path="url(#b)">
            <mask id="c" width="45" height="38" x="45" y="47" maskUnits="userSpaceOnUse" style="mask-type:luminance">
                <path fill="#fff" d="m89.303 48.08-43.608-.248-.213 35.934 43.608.25z"/>
            </mask>
            <g mask="url(#c)">
                <path fill="#d4efff" d="m89.303 48.084-43.608-.25-.212 35.935 43.607.25z"/>
                <path fill="#b6cedb" d="M96.122 65.443c-1.891-1.527-4.647-1.891-6.869-.909-1.79.791-3.26 2.379-5.198 2.642-.917.124-1.858-.065-2.772.08-2.839.454-4.317 3.818-7.004 4.842-1.638.624-3.561.305-5.103 1.138-1.64.884-2.801 3.011-4.654 2.825-1.779-.18-2.54-2.348-3.968-3.427-1.278-.966-3.113-1.039-4.256-2.165-.763-.75-1.273-1.978-2.338-2.058-.338-.025-.672.081-1.012.09-1.587.044-2.403-1.82-3.53-2.941-2.081-2.068-6.195-1.205-7.276 1.526l1.304 16.866c1.319.823 2.982.753 4.533.67 11.028-.605 22.092-.6 33.115.093 4.488.283 9.05.697 13.225 2.375 1.412-7.116.068-14.603 1.805-21.647z"/>
            </g>
            <path fill="#fff" d="M86.828 53.338c-.882-.672-2.098-1.012-3.114-.573-.467.203-.872.558-1.371.66-.677.14-1.348-.211-2.022-.365-.676-.154-1.576.04-1.715.721-.317-.656-.647-1.331-1.192-1.815s-1.363-.733-2.016-.41c-.721.36-1.32 1.363-2.052 1.027-.234-.108-.401-.342-.647-.417-.82-.25-1.07 1.287-1.897 1.51-.285.077-.58-.023-.872-.058-1.013-.121-1.882.535-2.61 1.311 7.026.33 14.063.398 21.095.203-.452-.668-.95-1.306-1.587-1.792z"/>
            <path fill="#efe9ca" d="m79.721 56.442-1.92-.011-.008 1.47 1.92.012z"/>
            <path fill="#efe9ca" d="m81.198 57.682-27.64-.158-.115 19.414 27.64.158z"/>
            <path stroke="#bcbec0" stroke-miterlimit="10" stroke-width=".113" d="m53.448 76.372 27.64.157M53.452 75.49l27.642.159M53.459 74.61l27.639.157M53.463 73.73l27.641.157M53.469 72.848l27.64.157M53.474 71.968l27.641.157M53.48 71.085l27.64.157M53.484 70.205l27.642.157M53.49 69.325l27.64.157M53.494 68.443l27.642.157M53.5 67.563l27.64.157M53.504 66.68l27.642.158M53.512 65.8l27.639.158M53.514 64.92l27.64.157M53.52 64.039l27.64.156" style="mix-blend-mode:multiply"/>
            <path fill="#bcbec0" d="m57.983 64.221-1.87 2.332.382.308 3.496-4.36 3.444 4.398.387-.303-1.841-2.35 4.549.025 1.804.01 4.566.026-1.87 2.33.382.307 3.495-4.357 3.445 4.397.385-.303-1.842-2.352 4.264.024.037-6.14-12.826-.072-1.804-.01-13.01-.075-.036 6.14z" style="mix-blend-mode:multiply"/>
            <path fill="#96d9d1" d="m60.966 64.767-.962-.006-.387.459c-.408.487-.821.971-1.248 1.443l-.004.79a24.6 24.6 0 0 0 2.6-2.686"/>
            <path fill="#a0e8e1" d="m60.003 64.76-.723-.004c-.315.451-.602.923-.909 1.38l-.004.526c.427-.471.838-.956 1.249-1.443q.194-.228.386-.458"/>
            <path fill="#96d9d1" d="m58.381 64.753-.007 1.385c.307-.456.593-.928.908-1.38z"/>
            <path fill="#a0e8e1" d="M60.965 64.767a24.6 24.6 0 0 1-2.6 2.686l-.004.37.447.001q.7-.525 1.403-1.049c.4-.296.804-.594 1.221-.862l.006-1.142-.477-.002z"/>
            <path fill="#96d9d1" d="m58.81 67.824 2.614.015.012-1.926c-.42.27-.821.566-1.22.862q-.706.521-1.404 1.05z"/>
            <path fill="#5e5c50" d="m61.322 64.84-.016 2.892-2.885-.015.016-2.892zm.165-.162-3.214-.019-.02 3.222 3.215.019z"/>
            <path fill="#5e5c50" d="m59.795 64.757-.017 3.012c0 .105.162.112.163.007l.017-3.011c.001-.106-.162-.113-.163-.008"/>
            <path fill="#5e5c50" d="m58.363 66.34 3.004.017c.105 0 .113-.163.008-.164l-3.004-.017c-.105 0-.113.163-.008.164"/>
            <path fill="#6e6c5d" d="m61.91 64.263-3.959-.023-.002.28 3.96.022z"/>
            <path fill="#6e6c5d" d="m61.828 64.403-3.781-.022-.002.28 3.78.02zM61.888 67.981l-3.959-.022-.002.279 3.96.022z"/>
            <path fill="#6e6c5d" d="m61.81 67.843-3.78-.022-.003.28 3.781.021z"/>
            <path fill="#96d9d1" d="m75.926 64.85-.962-.006-.386.459c-.41.487-.822.971-1.249 1.443l-.004.79a24.5 24.5 0 0 0 2.6-2.686"/>
            <path fill="#a0e8e1" d="m74.963 64.844-.723-.005c-.315.452-.602.923-.908 1.38l-.004.527c.426-.472.837-.956 1.248-1.443z"/>
            <path fill="#96d9d1" d="m73.342 64.834-.007 1.385c.306-.456.593-.928.908-1.38z"/>
            <path fill="#a0e8e1" d="M75.925 64.85a24.6 24.6 0 0 1-2.6 2.685l-.003.37.446.002q.7-.527 1.404-1.049c.4-.296.803-.594 1.22-.862l.007-1.142-.478-.002z"/>
            <path fill="#96d9d1" d="m73.77 67.907 2.615.016.011-1.927c-.419.27-.82.567-1.22.863q-.707.52-1.404 1.049z"/>
            <path fill="#5e5c50" d="m76.29 64.926-.017 2.892-2.885-.015.016-2.892zm.164-.165-3.214-.018-.02 3.222 3.215.019z"/>
            <path fill="#5e5c50" d="m74.763 64.84-.018 3.013c0 .105.163.112.163.007l.018-3.012c0-.105-.162-.112-.163-.007"/>
            <path fill="#5e5c50" d="m73.33 66.424 3.005.017c.105 0 .113-.163.008-.164l-3.005-.017c-.105 0-.112.163-.008.164"/>
            <path fill="#6e6c5d" d="m76.875 64.347-3.959-.022-.001.279 3.959.022z"/>
            <path fill="#6e6c5d" d="m76.795 64.487-3.781-.022-.002.28 3.781.021zM76.861 68.069l-3.959-.023-.001.28 3.959.022z"/>
            <path fill="#6e6c5d" d="M76.78 67.928 73 67.906l-.002.28 3.78.021z"/>
            <path fill="#96d9d1" d="m60.923 70.996-.962-.006-.387.459c-.408.487-.821.971-1.248 1.443l-.004.79a24.6 24.6 0 0 0 2.6-2.686"/>
            <path fill="#a0e8e1" d="m59.96 70.99-.723-.005c-.315.452-.602.924-.908 1.38l-.005.527c.427-.472.838-.956 1.25-1.443q.192-.23.386-.459"/>
            <path fill="#96d9d1" d="m58.339 70.98-.007 1.385c.306-.456.593-.928.908-1.38z"/>
            <path fill="#a0e8e1" d="M60.922 70.996a24.6 24.6 0 0 1-2.6 2.685l-.004.37.447.002c.467-.352.934-.699 1.403-1.049.4-.296.804-.594 1.221-.862L61.395 71l-.477-.002z"/>
            <path fill="#96d9d1" d="m58.766 74.054 2.615.015.012-1.926c-.42.27-.821.566-1.22.862q-.706.52-1.405 1.049z"/>
            <path fill="#5e5c50" d="m61.285 71.072-.016 2.892-2.886-.015.016-2.892zm.165-.165-3.215-.018-.019 3.222 3.214.018z"/>
            <path fill="#5e5c50" d="M59.756 70.988 59.74 74c-.001.106.162.113.163.008l.017-3.012c.001-.105-.162-.113-.163-.008"/>
            <path fill="#5e5c50" d="m58.326 72.57 3.004.017c.105 0 .113-.163.008-.164l-3.005-.017c-.104 0-.112.163-.007.164"/>
            <path fill="#6e6c5d" d="m61.872 70.493-3.959-.022-.001.279 3.959.022z"/>
            <path fill="#6e6c5d" d="m61.79 70.633-3.781-.021-.002.279 3.781.021zM61.85 74.214l-3.96-.023-.001.28 3.958.022z"/>
            <path fill="#6e6c5d" d="m61.772 74.075-3.781-.021-.002.279 3.78.022z"/>
            <path fill="#96d9d1" d="m75.89 71.082-.962-.006q-.194.23-.386.459c-.41.487-.822.972-1.25 1.443l-.003.79a24.6 24.6 0 0 0 2.6-2.686"/>
            <path fill="#a0e8e1" d="m74.927 71.077-.723-.005c-.315.451-.602.923-.908 1.379l-.005.527c.427-.471.838-.956 1.25-1.443z"/>
            <path fill="#96d9d1" d="m73.306 71.067-.007 1.384c.306-.456.593-.928.908-1.38z"/>
            <path fill="#a0e8e1" d="M75.889 71.082a24.6 24.6 0 0 1-2.6 2.686l-.004.37.447.001q.7-.525 1.403-1.048c.4-.296.804-.595 1.221-.863l.007-1.142-.478-.002z"/>
            <path fill="#96d9d1" d="m73.734 74.138 2.615.015.012-1.926c-.42.27-.822.566-1.221.862q-.706.52-1.404 1.049z"/>
            <path fill="#5e5c50" d="m76.251 71.156-.016 2.892-2.885-.016.016-2.892zm.165-.163-3.214-.018-.02 3.222 3.215.018z"/>
            <path fill="#5e5c50" d="m74.723 71.072-.017 3.012c0 .105.162.113.163.008l.017-3.012c.001-.105-.162-.113-.163-.008"/>
            <path fill="#5e5c50" d="m73.292 72.655 3.005.017c.105.001.112-.162.008-.163l-3.005-.017c-.105 0-.113.163-.008.163"/>
            <path fill="#6e6c5d" d="m76.84 70.58-3.96-.023-.001.28 3.959.022z"/>
            <path fill="#6e6c5d" d="m76.757 70.717-3.78-.021-.003.279 3.781.021zM76.822 74.302l-3.959-.023-.001.279 3.958.023z"/>
            <path fill="#6e6c5d" d="m76.744 74.16-3.78-.02-.002.278 3.78.022z"/>
            <path fill="#362b1f" d="m69.79 76.98-5.051-.03-.002.267 5.052.029z"/>
            <path fill="#0a2831" d="m69.282 76.952-4.09-.022.04-6.948 4.09.022zm-3.596-.51 3.108.017.034-5.966-3.107-.017z"/>
            <path fill="#6e6c5d" d="m69.077 70.253-3.599-.02-.038 6.457 3.599.02z"/>
            <path fill="#efe9ca" d="m67.688 71.59.001-.069-.84-.004.001.068h-.07v.145l.07.002-.002.067.838.004.001-.067h.067l.001-.146z"/>
            <path fill="#604d38" d="m68.864 73.093-.363-.002-.004.817.362.002z"/>
            <path fill="#edc984" d="M68.674 73.608a.098.098 0 1 0 .01-.196.098.098 0 0 0-.01.196"/>
            <path fill="#604d38" d="m69.388 76.709-4.243-.025-.002.267 4.244.024z"/>
            <path fill="#0a2831" d="m76.812 63.793 6.504.036-1.931-6.151-13.012-.073-1.802-.01-13.012-.075-2.36 6.128 7.1.04 1.698-2.117 1.674 2.136 4.863.028 1.804.01 4.625.027 1.938-2.419z"/>
            <path stroke="#0a2831" stroke-miterlimit="10" stroke-width="1.324" d="m63.631 66.213-3.633-4.642-3.69 4.6M78.548 66.296l-3.634-4.64-3.69 4.598"/>
            <path fill="#6e6c5d" d="m80.1 55.577-2.632-.015-.005.867 2.631.015z"/>
            <path fill="#3c7b73" d="m89.412 77.225-44.904-.257-.05 8.43 44.904.257z"/>
        </g>
    </g>
    <g clip-path="url(#d)">
        <path fill="#ffd15c" d="m138.514 48.642-5.646.535-2.244-4.961.616 5.505-4.88 2.106 5.285-.559 2.163 5.1-.476-5.424zM93.17 54.029l.33 2.157-2.124.91 2.186-.218.882 2.012-.108-2.215 2.012-.881-2.296.247z"/>
        <path fill="#cdd6e0" d="m91.953 61.55-1.537-3.612.432 3.901-3.501 1.508 3.82-.292 1.536 3.611-.432-3.9 3.694-1.677z"/>
        <path fill="#84dbff" d="m124.65 69.63-10.098-11.05-2.762.724-4.155 14.785z"/>
        <path fill="#54c0eb" d="m129.909 54.557-15.357 4.023 10.098 11.05z"/>
        <path fill="#84dbff" d="M142.548 64.941 130.02 54.528l-.111.029-5.259 15.074z"/>
        <path fill="#42b0dc" d="m124.3 102.545.35-32.914-17.015 4.458z"/>
        <path fill="#54c0eb" d="m111.79 59.304-15.91 4.168 11.755 10.617z"/>
        <path fill="#84dbff" d="m95.88 63.472-.11.03-5.812 15.218 17.677-4.632z"/>
        <path fill="#54c0eb" d="M142.548 64.941 124.3 102.545 89.958 78.72l17.677-4.632 16.665 28.457.35-32.914z"/>
        <path fill="#fff" d="m123.752 66.206.311 2.988-2.867 1.224 3.099-.34 1.252 2.978-.368-3.21 2.867-1.223-3.099.34zM100.419 65.471l.31 2.989-2.867 1.223 2.988-.31 1.363 2.948-.339-3.099 2.838-1.334-3.099.34z"/>
    </g>
    <defs>
        <clipPath id="a">
            <path fill="#fff" d="M41 44.235h111.566v81.263H41z"/>
        </clipPath>
        <clipPath id="b">
            <path fill="#fff" d="M46 48h43.062v36.91H46z"/>
        </clipPath>
        <clipPath id="d">
            <path fill="#fff" d="m84 56.431 53.032-13.894 13.895 53.032-53.032 13.894z"/>
        </clipPath>
    </defs>
</svg>