<svg xmlns="http://www.w3.org/2000/svg" width="164" height="144" fill="none" viewBox="0 0 164 144">
    <path fill="#361500" d="M86.668 7.875S71.22 1.63 65.748 11.748c-5.478 10.118 1.07 27.318-.967 32.714-2.037 5.397-4.402 6.47-4.402 6.47S65.96 66.54 80.984 65.68c15.023-.86 26.611-7.965 21.358-15.93-5.26-7.965 1.933-27.56.754-31.22-1.18-3.659-5.582-15.393-16.422-10.654z"/>
    <path fill="#f8a061" d="m87.97 43.643-5.966.427-5.967-.427s1.939 10.631-6.514 12.196c0 0 7.532 14.02 12.475 13.829 4.942.19 12.474-13.83 12.474-13.83-8.452-1.564-6.513-12.195-6.513-12.195z"/>
    <path fill="#ea3934" d="M120.891 99.38c-3.689-14.002-11.002-40.771-12.337-41.013l-15.54-2.88-.099.15c-4.833 7.295-15.69 7.734-21.134.848l-.794-1.004s-13.205 2.453-15.54 2.88c-1.336.248-8.27 27.012-11.79 41.014a7 7 0 0 0-.11.537c-.483 2.937 1.893 5.575 4.862 5.575h67.723c3.142 0 5.541-2.938 4.787-5.997-.011-.04-.017-.08-.028-.115z"/>
    <path fill="#ffb87f" d="M82.27 11.16s-16.715-1.184-16.502 7.428 3.325 17.136 4.827 21.886c1.502 4.756 9.603 9.812 11.669 9.812s10.167-5.062 11.669-9.812S98.547 27.2 98.76 18.588c.213-8.612-16.502-7.429-16.502-7.429z"/>
    <path fill="#fff" d="M78.985 30.23s-1.358-1.952-4.034-2.096c-2.675-.138-4.24 1.328-4.24 1.328s1.91 2.608 4.137 2.614c2.82.006 4.137-1.847 4.137-1.847"/>
    <path fill="#4d2700" d="M75.016 31.932a2.01 2.01 0 0 0 2.008-2.014c0-1.113-.9-2.015-2.008-2.015a2.01 2.01 0 0 0-2.008 2.015c0 1.112.899 2.014 2.008 2.014"/>
    <path fill="#34283b" d="M78.985 30.23s-1.91-1.64-4.137-1.57-4.137.802-4.137.802.8-2.038 4.137-1.963c3.337.07 4.137 2.73 4.137 2.73"/>
    <path fill="#34283b" d="M76.325 31.649c-2.348.45-3.758-.635-5.61-2.199l-.012.012s1.91 2.608 4.137 2.614c2.06 0 3.309-.981 3.838-1.512-.368.237-1.904.999-2.36 1.085z"/>
    <path fill="#fff" d="M85.555 30.23s1.358-1.952 4.033-2.096c2.676-.138 4.24 1.328 4.24 1.328s-1.91 2.608-4.136 2.614c-2.82.006-4.137-1.847-4.137-1.847"/>
    <path fill="#4d2700" d="M87.508 29.918a2.01 2.01 0 0 0 2.008 2.014c1.11 0 2.008-.9 2.008-2.014a2.01 2.01 0 0 0-2.008-2.015c-1.11 0-2.008.9-2.008 2.015"/>
    <path fill="#34283b" d="M85.555 30.23s1.91-1.64 4.137-1.57a14.2 14.2 0 0 1 4.137.802s-.8-2.038-4.137-1.963c-3.337.07-4.137 2.73-4.137 2.73"/>
    <path fill="#34283b" d="M88.213 31.649c2.347.45 3.757-.635 5.61-2.199l.011.012s-1.91 2.608-4.137 2.614c-2.06 0-3.308-.981-3.838-1.512.369.237 1.905.999 2.36 1.085z"/>
    <path fill="#d6774f" d="M81.586 37.478c-.753 0-1.622-.15-1.99-.761-.173-.29-.288-.791.15-1.524 1.133-1.91 1.927-5.172 1.932-5.2a.45.45 0 0 1 .541-.335.45.45 0 0 1 .334.542c-.034.139-.829 3.429-2.037 5.454-.161.272-.213.485-.15.595.11.185.587.34 1.439.317.247 0 .46.185.472.433a.456.456 0 0 1-.432.474h-.259z"/>
    <path fill="#753512" d="M72.633 22.945c-1.007.08-2.98 3.232-2.98 3.232.42.162 2.767-1.13 3.653-1.01.88.121 4.114.566 4.741.687s1.3-1.576 1.387-2.424c.086-.849-5.794-.566-6.801-.485M91.737 22.945c-1.03-.08-7.025-.364-6.94.485.087.848.772 2.545 1.416 2.424.645-.121 3.942-.566 4.84-.687.897-.12 3.296 1.172 3.728 1.01 0 0-2.014-3.151-3.044-3.232"/>
    <path fill="#fff" d="M77.32 39.914s4.799 2.124 9.909 0c0 0-2.411 4.548-4.857 4.548-2.445 0-5.052-4.548-5.052-4.548"/>
    <path fill="#f14543" d="M82.384 43.453c-1.94 0-3.965-2.17-5.03-3.51-.01-.005-.034-.023-.034-.023s2.492 4.548 5.052 4.548c2.175 0 4.385-3.469 4.856-4.548-1.024 1.345-2.968 3.532-4.844 3.532"/>
    <path fill="#f14543" d="M84.03 40.318c-.691 0-1.1-.346-1.756 0-.656-.346-1.064 0-1.755 0s-3.199-.404-3.199-.404c2.509 1.64 4.954 1.61 4.954 1.61s2.446.03 4.954-1.61c0 0-2.508.404-3.199.404"/>
    <path fill="#753512" d="M90.142 4.43s-2.94 8.663-.299 11.653 7.446 5.564 6.266 15.312c-1.18 9.749-5.34 22.718 4.534 25.973s13.533-11.647 6.652-13.725c0 0 .966 3.798-2.9 3.446-3.861-.353-3.435-7.47-.754-14.407s6.444-15.976-1.824-24.374c-6.991-7.105-11.439-4.646-11.68-3.873z"/>
    <path fill="#753512" d="M92.058 4.949S82.772-3.75 69.705 2.063c-13.062 5.812-13.171 15.44-10.703 25.43s7.244 17.622 1.393 19.601c-3.545 1.2-3.493-3.226-2.566-3.988 0 0-7.043.704-3.821 9.477 2.837 7.723 15.685 5.57 16.692-1.293 2.089-14.25-8.32-26.642 1.496-30.278 9.822-3.63 15.697.404 19.857-16.063z"/>
    <path fill="#34283b" d="M82.038 1.798c-24.765 0-21.681 24.674-21.681 24.674h2.549s-.3-9.235 3.55-15.186c1.26-1.95 3.263-3.676 5.472-4.675 4.672-2.106 10.11-2.095 10.11-2.095s5.437-.017 10.11 2.095c2.209.999 4.21 2.725 5.471 4.675 3.849 5.957 3.55 15.186 3.55 15.186h2.549s3.084-24.674-21.68-24.674"/>
    <path fill="#5d5463" d="M60.761 24.527s-4.436-.271-3.29 6.655c1.144 6.932 3.55 7.393 5.206 7.162 1.652-.23 2.204-3.428 1.669-7.295-.967-6.96-3.585-6.528-3.585-6.528z"/>
    <path fill="#34283b" d="M60.761 24.527s-1.462-.081-2.492 1.154c.42.79.973 2.465 1.462 6.014.34 2.459.455 4.612.3 5.887.908.82 1.858.878 2.646.768 1.651-.23 2.204-3.428 1.669-7.295-.967-6.961-3.585-6.528-3.585-6.528"/>
    <path fill="#5d5463" d="M103.226 24.527s4.436-.329 3.371 6.62c-1.064 6.944-3.463 7.44-5.121 7.227-1.657-.208-2.244-3.406-1.754-7.273.88-6.972 3.504-6.568 3.504-6.568z"/>
    <path fill="#34283b" d="M103.228 24.527s1.461-.098 2.508 1.125c-.408.797-.938 2.476-1.386 6.032-.311 2.459-.397 4.617-.23 5.887-.898.831-1.853.9-2.636.797-1.657-.208-2.244-3.406-1.755-7.273.881-6.972 3.504-6.568 3.504-6.568zM60.46 36.896s-.022 8.16 1.963 9.402c2.152 1.344 13.337.83 13.337.83v-1.09s-11.916.63-12.934-1.38c-.944-1.852-1.145-7.763-1.145-7.763z"/>
    <path fill="#34283b" d="M80.045 46.385c0 1.004-1.318 1.812-2.94 1.812-1.623 0-2.94-.814-2.94-1.812s1.317-1.813 2.94-1.813 2.94.814 2.94 1.813"/>
    <path fill="#3b6f9c" d="M64.653 69.258c-.921 2.395-1.45 7.647-2.86 9.714h10.915c-.23-.122-.46-.237-.673-.364-4.586-2.672-6.888-5.662-7.377-9.35zM99.347 69.258c-.49 3.694-2.791 6.678-7.377 9.35-.213.127-.443.242-.673.364h10.915c-1.415-2.067-1.945-7.32-2.86-9.714z" opacity=".32" style="mix-blend-mode:multiply"/>
    <path fill="#173d63" d="m65.714 78.972-.438-5.247-1.018 5.247zM99.749 78.972l-1.019-5.247-.437 5.247z"/>
    <path fill="url(#a)" d="M120.917 99.502c-.011-.04-.017-.081-.029-.116-3.688-14.002-11.001-40.771-12.336-41.014l-3.728-.692c6.576-1.426 8.262-12.283 2.468-14.032 0 0 .967 3.798-2.9 3.446-2.779-.254-3.331-4.017-2.422-8.686 1.611.023 3.665-.976 4.626-7.261.403-2.62.017-4.208-.61-5.166 1.513-5.575 1.634-11.78-4.166-17.673-4.54-4.617-8.01-5.195-9.948-4.82a22 22 0 0 0-3.66-1.09C84.317.395 77.723-1.504 69.696 2.063 57.544 7.471 56.606 16.181 58.522 25.41c-.086.086-.178.173-.259.277-.76.918-1.288 2.557-.8 5.5.691 4.185 1.842 6.003 3.01 6.742.063 2.095.357 6.753 1.669 8.126-.426.433-1.002.78-1.75 1.034-3.544 1.2-3.492-3.227-2.566-3.989 0 0-7.043.704-3.82 9.477 1.104 3.013 3.734 4.514 6.588 4.831l-5.156.953c-1.335.248-8.268 27.012-11.79 41.014q-.067.276-.109.537c-.483 2.937 1.893 5.575 4.862 5.575h67.723c3.142 0 5.536-2.938 4.787-5.997zm-58.09-54.843c-.64-1.259-.939-4.404-1.065-6.28.19.017.38.023.558.011.77 2.65 1.162 4.837.604 6.413-.035-.046-.075-.092-.098-.139z" opacity=".32" style="mix-blend-mode:overlay"/>
    <path fill="#313131" d="m115.316 64.473-66.624-.918c-.978.023-1.019.854-.967 1.334l3.752 36.743c.029.305.38.542.794.542l60.588.023c.696 0 1.329-.358 1.352-.779l2.043-36.264c.023-.398-.357-.675-.932-.687z"/>
    <path fill="#333339" d="m112.168 100.269.351-6.222a834 834 0 0 1-11.352-2.885c-10.558-2.77-21.1-5.715-31.41-9.172-4.707-1.581-9.38-3.243-13.977-5.067-1.668-.658-3.354-1.45-5.057-2.228l2.612 25.569h58.839z" opacity=".5" style="mix-blend-mode:multiply"/>
    <path fill="#313131" d="M115.264 105.499H50.458c-.506 0-.955-.364-1.001-.808l-.207-2.142c-.046-.456.334-.819.852-.819h65.524c.513 0 .892.369.852.819l-.207 2.142c-.046.444-.489.808-1.001.808z"/>
    <path fill="#dddde1" d="M114.58 102.295h-7.981c-1.105.699-2.232 1.38-3.343 2.078q-.441.276-.944.56h11.928c.484 0 .904-.254.944-.566l.196-1.494c.04-.318-.317-.578-.806-.578zM86.807 104.835c-.035.035-.081.063-.116.092h4.592c.817-.946 1.835-1.812 2.963-2.637h-4.92c-.805.888-1.61 1.771-2.514 2.539z" opacity=".55" style="mix-blend-mode:screen"/>
    <path fill="#fff" d="M84.521 76.669c0 1.547-1.318 2.799-2.94 2.799-1.623 0-2.94-1.252-2.94-2.8 0-1.546 1.317-2.799 2.94-2.799s2.94 1.253 2.94 2.8"/>
    <path fill="#484848" d="M151.895 108.535H12.301v34.653h139.594z"/>
    <path fill="#333339" d="M151.895 122.312v-13.777H12.301v34.653h18.683z" opacity=".5" style="mix-blend-mode:multiply"/>
    <path fill="#00a8cb" d="M161.531 111.571H2.471c-.863 0-1.565-.63-1.565-1.403v-3.261c0-.773.702-1.403 1.565-1.403h159.066c.863 0 1.565.63 1.565 1.403v3.261c0 .773-.702 1.403-1.565 1.403z"/>
    <defs>
        <radialGradient id="a" cx="0" cy="0" r="1" gradientTransform="matrix(46.1863 0 0 46.3299 82.269 52.78)" gradientUnits="userSpaceOnUse">
            <stop stop-color="#ffc9bd"/>
            <stop offset=".15" stop-color="#e5b2ad"/>
            <stop offset=".55" stop-color="#a77b86"/>
            <stop offset=".85" stop-color="#81596f"/>
            <stop offset="1" stop-color="#734c66"/>
        </radialGradient>
    </defs>
</svg>
