<svg xmlns="http://www.w3.org/2000/svg" width="75" height="68" fill="none" viewBox="0 0 75 68">
    <g clip-path="url(#a)">
        <path fill="#140f0e" d="M41.009 24.414c1.523.264 3.448.172 4.84 1.082 1.546 1.011 1.86 3.834 2.215 5.48.792 3.672 1.323 7.459 1.828 11.179.341 2.511 1.121 6.177-.184 8.508-1.909 3.406-8.254 3.795-11.575 2.857-4.318-1.22-4.7-6.08-4.67-9.836-.04-.106-.035.068-.084.091z"/>
        <path fill="#176e82" d="m43.341 53.87-.015.345c-.27 6.24-.864 16.222-.697 24.19a94 94 0 0 1-.658 12.969l-3.329.116c-.545-2.94-1.468-8.212-1.154-12.931.42-6.34-.793-13.343-1.446-19.954a101 101 0 0 1-.201-2.281l-.025-.335.007-.192v-.036l.011-.31.181-5.53.024-.712 7.38-.379c.07.866.022 2.66-.078 5.04"/>
        <path fill="#176e82" d="m23.57 91.125 3.172.242q.21-.532.45-1.177c1.111-2.96 2.651-7.566 3.163-11.668.89-7.126 3.505-14.644 5.413-21.761l.015-.056.06-.381.085-.533.056-.35.003-.02.773-4.862.089-.558-.83-.08-6.596-.631c-.203.734-.401 2.124-.619 3.966l-.04.346c-.675 5.826-1.545 15.792-3.296 23.96-.508 2.373-.83 4.873-1.077 7.11-.25 2.26-.427 4.253-.644 5.576q-.083.508-.177.876"/>
        <path fill="#bacae0" d="m31.828 49.556-.016.162c-.097.99-.243 2.486-1.085 3.225-.57.5-1.237.66-1.919.66h-.046l.04-.347c.61 0 1.198-.14 1.686-.57.74-.648.878-2.063.97-3l.016-.163z"/>
        <path fill="#125a66" d="M23.742 90.249c.636-.053 1.335-.022 1.94-.083.297-.03.91.014 1.506.025 1.11-2.961 2.65-7.567 3.162-11.669.89-7.126 3.505-14.644 5.413-21.76l.015-.057.06-.38v-.001l.086-.533.055-.35.003-.02h-1.42c-.797 1.026-1.063 3.33-1.343 4.729-.336 1.673-.843 3.267-1.44 4.965-1.17 3.333-2.155 6.494-2.503 9.981-.284 2.835-.81 10.776-4.89 9.575-.25 2.261-.427 4.254-.644 5.578"/>
        <path fill="#bacae0" d="m43.343 53.87-.015.346c-.78-.002-1.54-.161-2.19-.652-.977-.739-1.147-2.238-1.26-3.23l-.019-.163.354-.038.019.163c.106.935.266 2.347 1.125 2.996.576.435 1.269.577 1.986.578"/>
        <path fill="#1c92a5" d="m34.614 55.834-.044-.114c-.418-1.08.092-4.043.502-4.93l.325.142c-.38.82-.836 3.486-.532 4.552.55-.011.935-.026 1.145-.044l.03.343c-.236.02-.662.036-1.3.049z"/>
        <path fill="#1c92a5" d="M36.91 50.593c-.63 2.67-.765 5.208-.866 8.013h-.002a101 101 0 0 1-.2-2.282l-.061.381-.015.056q.024-.485.056-.963l.002-.036.022-.31c.121-1.655.323-3.268.717-4.936l.195.043z"/>
        <path fill="#3f2935" d="M45.62 34.024c-.45 3.05-1.622 7.578-1.687 8.96l-.003.078c-.1 2.253 0 5.503-.1 7.645-.432 1.396-8.005.97-12.124.271q-.038-.005-.074-.012l-.072-.013-.118-.02c-1.284-.23-2.181-.485-2.332-.711l-.014-.026-.007-.024c-.143-.833.542-3.216.708-4.054.426-2.144.02-7.348-.033-8.398a9 9 0 0 0-.085-.852 13 13 0 0 0-.447-1.953q-.075-.249-.158-.486c-.35-1.02-.951-2.202-1.054-3.248-.101-1.026.766-4.966.93-6.029.157-1.012 3.444-.936 4.132-1.72l1.758.8c.632-.176 1.524.101 2.226-.026.554-.101 1.108-.357 1.642-.515.48-.142.991-.555 1.444-.626.898-.142 4.745.65 5.577.943l.017.006c.173.063.304.241.402.508.646 1.785-.238 7.543-.527 9.502"/>
        <path fill="#ffb278" d="M32.43 23.811c.273 1.072 1.474 2.922 3.074 2.986 1.538.061 4.268-1.774 5.232-3.643-.542-.12-1.123.142-1.386-.602-.156-.442-.288-.622-.354-1.091l-.002-.01-.047-.346c-.07-.497-.077-1.043-.069-1.587.009-.61.037-1.215.02-1.74l-.01-.23-3.984 1.97-1.743.863q0 .085.008.181c.017.216.067.47.125.745.085.403.129.781.1 1.122-.05.592-.316 1.073-.964 1.382"/>
        <path fill="#e5804e" d="M33.164 20.381q0 .085.008.181c.017.216.067.47.125.745.085.403.129.781.1 1.122.942.945 1.79 1 2.474.836 1.702-.409 3.002-3.203 3.01-3.746h-3.973z"/>
        <path fill="#23161e" d="M45.622 34.024c-.45 3.05-1.623 7.578-1.688 8.959l-.003.079c-.1 2.252.001 5.503-.1 7.645-.069 1.469-7.907.997-12.124.271l-.074-.012-.072-.013-.117-.021c-1.283-.233-2.18-.488-2.333-.71v-.001a.2.2 0 0 1-.021-.05c-.143-.832.542-3.215.708-4.053.426-2.144.02-7.348-.032-8.399a9 9 0 0 0-.086-.851 13 13 0 0 0-.447-1.953c1.012.58 5.01 1.585 6.525 1.769 5.44.658 8.092-2.822 8.529-4.221.723-2.314 1.278-5.378 1.862-7.941.646 1.785-.238 7.542-.527 9.502"/>
        <path fill="#d8250e" d="M44.455 32.723c1.06 1.796 1.407 2.455 1.756 3.145.686 1.356 1.383 2.836 1.87 4.056l.025.066c.37.934.66 2.72 1.662 3.323.344.206.772.274 1.316.12q.042-.01.084-.025c1.35-.427 1.807-1.707 1.749-3.337-.145-4.116-5.014-14.837-6.983-15.986 0 0-3.147 4.174-3.117 5.825.014.814 1.638 2.813 1.638 2.813"/>
        <path fill="#d8250e" d="M36.906 56.41c1.314.456 3.515.052 4.945-.078.72-.065 1.37-.277 2.11-.25.639.023 1.73.448 2.298.328.041-.517-1.028-15.846-.902-17.229.366-4.008 1.476-9.106 1.392-13.862-.008-.474-.75-1.34-1.228-1.48-.715-.208-1.657-.384-2.567-.524a56 56 0 0 0-2.829-.353l-.265-.025c.006.061-.004.286-.026.651-.1 1.61-.462 5.944-.9 10.96-.796 9.146-1.845 20.558-2.028 21.862M33.362 56.663c-1.094.396-2.872-.09-4.033-.274-.584-.093-1.105-.328-1.711-.331-.522-.002-1.433.372-1.891.231-.009-.51 1.979-31.28 3.306-31.97.548-.286 3.532-.708 3.532-.708-.008.06-.011.281-.01.642.004 1.587.09 5.866.206 10.82.209 9.03.515 20.3.601 21.59"/>
        <path fill="#e25b00" d="M22.292 55.837a.63.63 0 0 1-.536-.715l1.042-7.252a.63.63 0 0 1 .715-.535l10.67 1.531c.345.05.585.37.535.715l-1.04 7.253a.63.63 0 0 1-.716.535z"/>
        <path fill="#e59e00" d="M22.366 55.314a.63.63 0 0 1-.535-.715l1.04-7.252a.63.63 0 0 1 .716-.536l10.67 1.532c.345.05.585.37.535.715l-1.04 7.252a.63.63 0 0 1-.716.536z"/>
        <path fill="#69999e" d="M32.905 48.87a.24.24 0 1 1 .067-.474.24.24 0 0 1-.067.474M31.737 48.702a.24.24 0 1 1 .068-.474.24.24 0 0 1-.068.474M30.569 48.535a.24.24 0 1 1 .068-.475.24.24 0 0 1-.068.475M29.405 48.367a.24.24 0 1 1 .068-.474.24.24 0 0 1-.068.474M28.237 48.2a.24.24 0 1 1 .068-.475.24.24 0 0 1-.068.474M27.069 48.032a.24.24 0 1 1 .068-.474.24.24 0 0 1-.068.474M25.9 47.864a.24.24 0 1 1 .069-.474.24.24 0 0 1-.068.474M24.737 47.697a.24.24 0 1 1 .068-.474.24.24 0 0 1-.068.474"/>
        <path fill="#fff" d="M32.935 48.642a.147.147 0 0 1-.125-.166l.132-.917a.147.147 0 0 1 .291.041l-.131.917a.147.147 0 0 1-.167.125M31.771 48.475a.147.147 0 0 1-.125-.166l.132-.917a.147.147 0 0 1 .291.041l-.131.917a.147.147 0 0 1-.167.125M30.603 48.308a.147.147 0 0 1-.125-.167l.132-.917a.147.147 0 1 1 .292.042l-.132.917a.147.147 0 0 1-.167.125M29.435 48.14a.147.147 0 0 1-.125-.167l.132-.917a.147.147 0 0 1 .291.042l-.131.917a.147.147 0 0 1-.167.125M28.267 47.973a.147.147 0 0 1-.125-.167l.132-.917a.147.147 0 1 1 .292.042l-.132.917a.15.15 0 0 1-.167.125M27.103 47.805a.147.147 0 0 1-.125-.167l.132-.917a.148.148 0 0 1 .291.042l-.131.917a.15.15 0 0 1-.167.125M25.935 47.638a.147.147 0 0 1-.125-.167l.132-.917a.147.147 0 1 1 .291.042l-.131.917a.147.147 0 0 1-.167.125M24.767 47.47a.147.147 0 0 1-.125-.167l.132-.917a.148.148 0 0 1 .291.042l-.131.917a.147.147 0 0 1-.167.125"/>
        <path fill="#ba562f" d="m44.293 31.835.023.065a.2.2 0 0 1-.023-.066"/>
        <path fill="#1e1714" d="m31.263 11.697 1.518.862c-.297.727-.646 1.365-.738 2.174-.088.77-.12 1.551 0 2.303a6.5 6.5 0 0 1-.82-1.729c-.28-.931-.368-2.71.04-3.61"/>
        <path fill="#ffb278" d="M39.376 16.775c-.011.235.09.835.078 1.152-.029.784-.124 2.037-.492 2.494-1.43 1.77-3.076 2.362-4.185 2.188-1.468-.232-2.215-1.662-2.434-2.051-.229-.41-.31-1.079-.385-1.988-.191-2.34-.011-5.97.13-7.049l.989-.512c.904-.277 1.523-.457 2.473-.359 1.472.152 3.34.494 3.74 2.155.2.832.127 3.117.086 3.97"/>
        <path fill="#ffb278" d="M31.192 15.732c.51.034.756.8.832 1.196l.039 1.608c-.89 1.04-1.463-1.018-1.542-1.651-.056-.448.046-1.195.67-1.153"/>
        <path fill="#e5804e" d="M31.613 16.845c-.45.161-.294.837.06.995.024-.024-.482.052-.585-.304a.96.96 0 0 1 .226-.957c-.116-.217-.416-.366-.51-.098.168-.842.83-.268.81.364M36.563 16.743c.062.038.138-.201.199-.171.456.22.87.206 1.168.14.293-.066.46.09.46.09-.2-.24-.307-.667-.49-.748a1 1 0 0 0-.415-.07c-.327 0-.518.059-.715.253-.063.063-.14.412-.208.506"/>
        <path fill="#fff" d="M36.563 16.743q.094.058.186.102c.456.22.87.206 1.168.14.293-.066.474-.183.474-.183-.201-.24-.32-.394-.504-.475a1 1 0 0 0-.415-.07c-.326 0-.518.059-.714.253a2 2 0 0 0-.196.233"/>
        <path fill="#2d221e" d="M36.742 16.71q0 .069.007.135c.456.22.87.206 1.168.14a1.25 1.25 0 0 0-.03-.658 1 1 0 0 0-.415-.07c-.326 0-.518.059-.714.253q-.015.097-.016.2"/>
        <path fill="#fff" d="M37.031 16.652c0 .083.035.15.077.15s.076-.067.076-.15c0-.084-.034-.152-.076-.152s-.077.068-.077.151"/>
        <path fill="#e5804e" d="M32.207 16.8c.062.035.12-.21.18-.184a1.6 1.6 0 0 0 1.12.058c.275-.086.443.057.443.057-.204-.224-.33-.643-.508-.712a.9.9 0 0 0-.399-.04c-.31.022-.49.095-.666.302-.056.068-.11.421-.17.52"/>
        <path fill="#fff" d="M32.207 16.8q.093.051.183.089c.446.187.84.145 1.12.058.274-.086.44-.216.44-.216-.204-.224-.327-.37-.506-.439a.9.9 0 0 0-.398-.04c-.31.022-.49.095-.666.302a2 2 0 0 0-.173.246"/>
        <path fill="#2d221e" d="M32.377 16.756q.004.068.014.133c.446.187.84.145 1.12.058a1.3 1.3 0 0 0-.066-.655.9.9 0 0 0-.398-.04c-.31.022-.49.095-.666.302a1.3 1.3 0 0 0-.004.202"/>
        <path fill="#fff" d="M32.657 16.659c.004.083.04.148.08.145.041-.003.07-.073.065-.156-.004-.084-.04-.149-.08-.146s-.07.073-.065.157"/>
        <path fill="#2d221e" d="M33.11 15.493c.268.053.564.064.841.128.373.087.148.56.148.56-.06.06-.877-.025-1.112-.037-.325-.017-.851-.208-1.143-.046.368-.575.571-.742 1.267-.605M37.354 15.425c-.297.048-.626.053-.934.113-.415.08-.167.558-.167.558.068.06.974-.01 1.236-.018.361-.01.946-.191 1.27-.024-.407-.582-.632-.753-1.405-.629"/>
        <path fill="#e5804e" d="m36.524 19.772-.028.012q-.027.012-.076.038t-.117.056l-.07.033-.08.034q-.082.037-.179.073l-.098.035c-.034.01-.067.025-.102.035l-.108.031-.054.015-.056.013q-.055.015-.112.025t-.114.02c-.076.01-.153.022-.228.025-.076.008-.15.003-.223.006-.072-.007-.143-.005-.209-.017l-.097-.011-.09-.018c-.06-.009-.112-.025-.16-.037l-.067-.016-.056-.019-.08-.024-.03-.009q0 .001.022.02.022.021.064.057l.048.039.06.04.071.043c.025.017.053.027.082.041l.092.042.103.034c.07.025.148.036.228.052q.06.007.123.012.03.003.063.004h.064l.064-.001.032-.001.033-.004.129-.014c.084-.017.17-.031.25-.059.082-.022.16-.055.233-.086q.055-.025.106-.052.052-.026.099-.055.045-.03.09-.058.041-.029.08-.059.037-.029.07-.056l.062-.056q.057-.053.092-.095l.055-.065zM34.572 17.18c-.077.664-.118 1.388.16 1.748.463.014 1-.007 1-.007-.394.293-1.205.529-1.51.119.007.001.118-1.34.35-1.86"/>
        <path fill="#fff" d="M35.664 17.18c0-.607.694-1.1 1.548-1.1s1.548.493 1.548 1.1-.694 1.101-1.548 1.101-1.548-.494-1.548-1.1m.194 0c0 .494.608.896 1.354.896s1.354-.402 1.354-.896-.608-.895-1.354-.895-1.354.401-1.354.895M31.492 17.153c0-.607.677-1.1 1.51-1.1.832 0 1.508.493 1.508 1.1s-.676 1.1-1.509 1.1-1.509-.493-1.509-1.1m.194 0c0 .494.59.896 1.316.896.724 0 1.314-.402 1.314-.896s-.59-.896-1.315-.896-1.314.402-1.314.896"/>
        <path fill="#fff" d="m35.683 17.063.156-.121a.86.86 0 0 0-.601-.373c-.31-.043-.67.072-.937.299l.122.16c.227-.194.53-.292.79-.256a.66.66 0 0 1 .47.291"/>
        <path fill="#2d221e" d="M31.905 12.846c1.107.738 4.758.823 5.496.492 1.19-.533 1.949.627 2.01 1.272.045.471-.469 3.501.37 3.158 0 0 1.517-2.707 1.6-5.414.021-.72-.379-1.319-1.015-1.803-1.568-1.194-4.568-1.684-6.205-1.52-1.083.108-2.72.637-3.292 1.754l-.006.013c-.333.685.537 1.711 1.041 2.048"/>
        <path fill="#1e1714" d="M31.904 12.845c1.108.739 4.759.824 5.497.493 1.19-.534 1.949.627 2.01 1.271.045.472-.469 3.502.37 3.159 0 0 1.517-2.707 1.6-5.415.02-.719-.379-1.318-1.015-1.802l-.012.128c-.082.773-.583 1.467-1.36 1.64-.248.056-.375-.041-.608-.076-.31-.046-.684.003-.992.034-.648.067-1.273.267-1.928.321-1.608.132-3.506-.574-4.603-1.8-.334.685.537 1.711 1.041 2.047"/>
        <path fill="#ffb278" d="M40.638 16.23c-.624-.063-.958.737-1.125 1.146l-.462 1.691c.877 1.288 1.962-.805 2.178-1.47.153-.469.172-1.29-.591-1.367"/>
        <path fill="#e5804e" d="M39.922 17.342c.514.26.196.955-.261 1.055-.026-.03.572.15.765-.212.198-.372.149-.743-.091-1.07.181-.21.572-.31.634-.006-.042-.936-.953-.45-1.047.233"/>
        <path fill="#140f0e" d="M38.516 30.33v.079l.002.082.004.164.007.329.016.323.016.324.025.326c.066.861.182 1.732.348 2.591l.005.024a23 23 0 0 0 .753 2.85q.051.154.105.304l.106.302.113.297q.056.148.113.294l.118.29.06.143.029.072.007.018.007.017.004.009.015.034.06.136.03.068.033.074a13 13 0 0 0 .414.835l.071.134.074.13q.294.523.607.995a17.7 17.7 0 0 0 1.892 2.386q.305.322.589.598a18 18 0 0 0 1.698 1.455l.25.184 1.566 1.188-.976-1.985s-.348-.296-.425-.364a16 16 0 0 1-1.3-1.294 19 19 0 0 1-.515-.596 18 18 0 0 1-.537-.688 16 16 0 0 1-1.07-1.636 15 15 0 0 1-.493-.94q-.03-.06-.059-.122l-.057-.124-.11-.25a11 11 0 0 1-.206-.509l-.024-.062-.026-.07-.05-.141-.014-.035-.001-.006-.001-.003-.006-.018-.023-.068-.046-.138-.093-.277q-.044-.139-.087-.28l-.087-.282-.08-.286q-.04-.142-.08-.287l-.073-.29a21 21 0 0 1-.45-2.373 21 21 0 0 1-.166-2.401l-.003-.297q0-.148.004-.296l.005-.293.012-.285.005-.142.003-.07.002-.035.003-.038.02-.303q.004-.075.01-.15l.004-.075v-.01.005l.002-.017.003-.033q.01-.135.026-.27c.079-.721.216-1.43.381-2.086.166-.657.362-1.265.572-1.803.21-.54.435-1.01.655-1.396a6.4 6.4 0 0 1 .65-.95 56 56 0 0 0-2.828-.354l-.045.091q-.126.256-.246.535-.249.574-.463 1.236a18 18 0 0 0-.542 2.128 18 18 0 0 0-.31 2.755l-.002.094v.529"/>
        <path fill="#ffb278" d="M45.042 38.365c-.42.117-4.445-2.822-4.892-2.87-.264-.029-.907-.203-1.447-.475-.655-.327-1.16-.796-.662-1.32-.585-.385-.556-1.2.038-1.358-.59-.485-.406-.81.181-1.167-.828-1.1.188-.968 1.068-.82.378.063.732.13.903.103.675-.105.09-.397.108-1.204.012-.521.22-.923.762-.774.265.54.344 1.324 1.137 2.337.393.502 1.264 3.472 1.264 3.472-.619.315 2.205 3.89 1.54 4.075"/>
        <path fill="#e5804e" d="M38.703 35.02c-.655-.327-1.16-.796-.662-1.32-.585-.385-.556-1.2.038-1.358-.59-.485-.406-.81.181-1.167-.828-1.1.188-.968 1.068-.82.121.263-.132.614-.45.787.465.324.404 1.08-.16 1.292.314.241.305.744-.077.92.487.425.421 1.217.062 1.666"/>
        <path fill="#d8250e" d="M42.582 37.503c.159.138 2.038 4.056 6.402 5.555.29.1.548.187.783.254.515.148.922.206 1.316.121h.001l.083-.025c1.35-.427 1.807-1.708 1.75-3.338a8 8 0 0 0-.343-.367c-1.623-1.646-8.278-4.427-9.07-5.707z"/>
        <path fill="#ffb278" d="m25.496 51.532 2.724.111c.278.89 1.326 1.444 1.636 1.801.763.877 1.444 1.082 1.879 1.41.038.506-.354.621-.818.543-.72-.122-.878-.692-1.087-.11-.053.146-.055.471-.063.818-.02.806-.078 1.73-.912.806-.416.46-.736.567-1.065-.04-.243.5-.97.387-1.212-.199-.55.353-.88-.176-1.058-.813-.148-.526-.192-1.127-.172-1.366.016-.19.572-1.922.148-2.961"/>
        <path fill="#e5804e" d="M25.52 55.859c.178.637.507 1.166 1.057.813.242.586.97.7 1.212.2.329.606.65.5 1.066.039.833.923.891 0 .91-.806-.212-.153-.567.012-.774.265-.208-.47-.89-.545-1.174-.08-.16-.32-.608-.4-.83-.091-.293-.505-1.007-.582-1.467-.34"/>
        <path fill="#d8250e" d="m25.508 52.255 2.322-.315.658-.09c-.238-.788-.025-3.046.2-5.44.212-2.238.433-4.593.307-5.981a5 5 0 0 0-.078-.54 8 8 0 0 0-.126-.515l-.005-.002a5 5 0 0 0-.625-.303c-1.119-.444-2.198-.332-3.106.702l-.065.076c-.282.376-.449.825-.6 1.426a23 23 0 0 0-.203.927c-.093.457-.267-.282-.311.163-.462 4.624 1.604 9.687 1.632 9.892"/>
        <path fill="#d8250e" d="M26.409 28.516c.37-1.127.485-1.893 1.067-2.872.597-1.004.956-1.062 2.002-1.493l.123 13.844c.056 1.042-.637 2.592-1.106 3.51-.401.785-.944 1.745-1.677 2.277-.79.573-2.368.82-2.816-.188-.746-1.675 1.928-13.62 2.407-15.078"/>
        <path fill="#aa160b" d="M46.918 35.736c-.655-1.109-1.646-3.64-1.804-4.759 1.115 2.71 2.2 4.23 2.625 5.66-1.805-.737-3.105-.93-4.02-2.706 1.186.556 2.215 1.476 3.2 1.805M27.719 50.421c-.001.36.073.992.11 1.52l.659-.09c-.238-.79.297-17.1.835-20.23-1.358 3.13-1.604 14.388-1.604 16.093q.002 1.354 0 2.707"/>
    </g>
    <defs>
        <clipPath id="a">
            <path fill="#fff" d="M.375 6h74v51h-74z"/>
        </clipPath>
    </defs>
</svg>
