<svg xmlns="http://www.w3.org/2000/svg" fill="none" viewBox="0 0 40 40">
    <rect width="40" height="40" fill="#fff" rx="20"/>
    <path fill="currentColor" d="m13.168 19.603 1.357.38q.113.03.226-.006l7.366-2.4a3.94 3.94 0 0 0 2.154 1.235c.364 1.603 1.368 2.28 2.322 2.28.22 0 .438-.037.642-.113 1.026-.383 1.41-1.808.875-3.245a4 4 0 0 0-.094-.224 3.9 3.9 0 0 0 .735-3.738 3.9 3.9 0 0 0-3.713-2.697 3.914 3.914 0 0 0-3.89 3.531l-.309.1a.4.4 0 0 0-.185.13l-.711.902-1.106-.31a.39.39 0 0 0-.412.134l-.71.902-1.106-.31a.39.39 0 0 0-.412.135l-.674.854-.7-.356a.4.4 0 0 0-.298-.023l-.742.242a.39.39 0 0 0-.25.246l-.63 1.848a.39.39 0 0 0 .265.502m13.794.644c-.308.115-.68.075-.993-.105-.29-.166-.652-.517-.87-1.254a3.92 3.92 0 0 0 2.308-.798c.33.965.134 1.94-.445 2.157M14.21 17.689l.403-.132.841.428a.39.39 0 0 0 .484-.107l.71-.901 1.106.31a.39.39 0 0 0 .412-.135l.711-.901 1.106.31a.39.39 0 0 0 .412-.135l.799-1.013.45-.147a.39.39 0 0 0 .269-.361 3.13 3.13 0 0 1 3.125-3.049c1.356 0 2.55.867 2.97 2.158.321.984.13 2.004-.431 2.79a2.96 2.96 0 0 0-1.29-.885 1.562 1.562 0 1 0-2.735-.453 1.56 1.56 0 0 0 1.831 1.04c.543.064 1.2.278 1.656.877a3.14 3.14 0 0 1-2.002.725 3.15 3.15 0 0 1-2.479-1.222.39.39 0 0 0-.43-.134l-7.507 2.446-.845-.236zm10.827-1.925a.782.782 0 1 1 .743-1.024c.134.41-.212 1.024-.743 1.024M29.065 25.807c-.046-.504-.504-.889-.932-1.009-.348-.097-.585-.009-.892.02-.074-.005-.098.004-.378.077-3.483.908-4.79 1.099-5.272 1.099a.7.7 0 0 1-.148-.011c-.667-.215-1.6-.411-1.912-.66.234-.03.543.026.773.097.395.12.837.18 1.316.18 1.19 0 2.343-.384 2.87-.956.252-.274.371-.592.344-.92-.021-.263-.165-.605-.724-.74-.894-.216-2.658.152-3.687-.748-1.086-.95-2.34-1.432-3.73-1.432-.98 0-1.803.245-2.305.44a1.15 1.15 0 0 0-1.095-.794h-1.211c-.635 0-1.152.517-1.152 1.152v5.118c0 .635.517 1.152 1.152 1.152h1.211c.51 0 .943-.333 1.094-.792l3.02 1.32c.73.349 1.66.525 2.764.525 3.357 0 7.437-1.629 7.936-1.874.848-.418.99-.907.958-1.244m-15.4.913a.37.37 0 0 1-.372.37h-1.21a.37.37 0 0 1-.372-.37v-5.118c0-.204.166-.37.371-.37h1.211c.205 0 .371.166.371.37v5.118m14.097-.37c-.478.235-4.382 1.794-7.591 1.794-.99 0-1.808-.152-2.432-.45-.013-.007.215.094-3.294-1.441v-4.186a5.7 5.7 0 0 1 2.249-.481c1.194 0 2.276.417 3.215 1.238.916.802 2.188.831 3.117.852.364.009.91.021 1.03.113.003.04.012.16-.14.326-.377.408-1.342.705-2.297.705a3.8 3.8 0 0 1-1.087-.148 3 3 0 0 0-.86-.138c-.556 0-.797.21-.902.385-.072.121-.165.375.02.721.328.608 1.42.766 2.413 1.086.102.033.225.049.388.049 1.196 0 4.508-.878 5.666-1.175.258-.02.436-.065.554-.065q.055 0 .11.015c.156.044.355.203.366.328.009.094-.123.274-.525.472"/>
</svg>
