<svg xmlns="http://www.w3.org/2000/svg" width="40" height="40" fill="none" viewBox="0 0 40 40">
    <g fill="#000" clip-path="url(#a)">
        <path d="M9.906 34.25H2.781a1.781 1.781 0 0 1 0-3.562h7.125v1.187H2.781a.594.594 0 0 0 0 1.188h7.125z"/>
        <path d="M5.156 13.469h1.188V31.28H5.156zM33.656 13.469h1.188V24.75h-1.188z"/>
        <path d="M37.219 15.844a.6.6 0 0 1-.287-.075L20 6.428 3.068 15.769a.593.593 0 0 1-.88-.52v-2.968a.59.59 0 0 1 .306-.52l17.22-9.5a.59.59 0 0 1 .573 0l17.219 9.5a.59.59 0 0 1 .306.52v2.969a.594.594 0 0 1-.593.594M20 5.156c.1 0 .199.026.287.074l16.338 9.014v-1.612L20 3.459 3.375 12.632v1.612L19.713 5.23A.6.6 0 0 1 20 5.156"/>
        <path d="M8.719 31.281H7.53V15.844a.594.594 0 0 1 .594-.594h8.313a.594.594 0 0 1 .593.594v8.906h-1.187v-8.312H8.719zM30.688 23.563H20a1.78 1.78 0 0 1-1.781-1.782v-4.75A1.78 1.78 0 0 1 20 15.25h10.688a1.78 1.78 0 0 1 1.78 1.781v4.75a1.78 1.78 0 0 1-1.78 1.782M20 16.438a.594.594 0 0 0-.594.593v4.75a.594.594 0 0 0 .594.594h10.688a.594.594 0 0 0 .593-.594v-4.75a.594.594 0 0 0-.593-.593zM8.125 9.663H6.938V3.969a.594.594 0 0 1 .593-.594h4.75a.594.594 0 0 1 .594.594v3.07h-1.187V4.562H8.124z"/>
        <path d="M12.875 4.563H6.938a.594.594 0 0 1-.594-.594V1.594A.594.594 0 0 1 6.937 1h5.938a.594.594 0 0 1 .594.594v2.375a.594.594 0 0 1-.594.594M7.531 3.375h4.75V2.188h-4.75zM36.03 39H15.25a.6.6 0 0 1-.487-.254l-4.156-5.937a.59.59 0 0 1 0-.68l4.156-5.938a.6.6 0 0 1 .487-.253h20.78A2.97 2.97 0 0 1 39 28.906v7.125A2.973 2.973 0 0 1 36.03 39M15.56 37.813h20.472a1.78 1.78 0 0 0 1.781-1.782v-7.125a1.78 1.78 0 0 0-1.781-1.781H15.559l-3.74 5.344z"/>
        <path d="M20 33.063h-2.375a.594.594 0 0 1-.594-.594v-2.375a.594.594 0 0 1 .594-.594H20a1.781 1.781 0 0 1 0 3.563m-1.781-1.188H20a.594.594 0 0 0 0-1.187h-1.781z"/>
        <path d="m20.636 35.658-1.038-2.596h-1.38v2.376h-1.187v-2.97a.594.594 0 0 1 .594-.593H20a.59.59 0 0 1 .552.373l1.187 2.969zM25.938 33.063h-2.97a.594.594 0 0 1-.593-.594v-1.782a1.19 1.19 0 0 1 1.188-1.187h2.968v1.188h-2.968v1.187h2.375z"/>
        <path d="M26.531 35.438h-2.968a1.19 1.19 0 0 1-1.188-1.188v-1.781h1.188v1.781h2.968zM31.281 35.438a.6.6 0 0 1-.503-.28l-1.872-2.994v3.273H27.72v-5.343a.593.593 0 0 1 1.097-.315l1.872 2.994V29.5h1.187v5.344a.594.594 0 0 1-.594.593M33.063 29.5h3.562v1.188h-3.562z"/>
        <path d="M34.25 30.094h1.188v5.343H34.25zM23.563 15.844h1.187v7.125h-1.187zM25.938 15.844h1.187v7.125h-1.187z"/>
        <path d="M18.813 18.813h5.343V20h-5.343zM26.531 18.813h5.344V20h-5.344z"/>
    </g>
    <defs>
        <clipPath id="a">
            <path fill="#fff" d="M1 1h38v38H1z"/>
        </clipPath>
    </defs>
</svg>
