<svg xmlns="http://www.w3.org/2000/svg" fill="none" viewBox="0 0 126 126"><rect width="118.588" height="118.588" x="3.706" y="3.706" fill="#FFF0D7" rx="59.294"/><rect width="118.588" height="118.588" x="3.706" y="3.706" stroke="#FFF8E9" stroke-width="6.588" rx="59.294"/><g clip-path="url(#a)"><path fill="#FFD3A3" d="M52.681 37.092v2.973l-.012 9.115a4.6 4.6 0 0 0 1.142 3.043l2.89 3.302L45.77 52.07V34.8a2.32 2.32 0 0 1 2.326-2.315 4.603 4.603 0 0 1 4.586 4.608"/><path fill="#CBB292" d="m61.656 41.228-4.562 4.378-.622.553-5.692 5.127a1.1 1.1 0 0 0-.299.91q.076.481.069.968v.057h-.438a4.62 4.62 0 0 0-4.366 3.065l-2.154 6.037-.657 4.723-.334-2.984a76 76 0 0 1-.864-11.762 3.43 3.43 0 0 1 .91-2.385l3.11-3.376h.012v-.011l6.889-6.44.023-.023 5.715-5.357a2.294 2.294 0 0 1 3.387.138q.34.379.599.818a4.635 4.635 0 0 1-.726 5.564"/><path fill="#FFD3A3" d="M62.969 37.542a4.61 4.61 0 0 1-1.313 3.686l-4.563 4.378-.621.553-5.692 5.127a1.1 1.1 0 0 0-.3.91q.077.48.07.968v.057h-.438a4.62 4.62 0 0 0-4.366 3.065l-2.155 6.037c-.288-3.008-.38-6.637-.403-8.572a3.43 3.43 0 0 1 .91-2.384l3.11-3.376h.012v-.012l6.89-6.44.023-.023 5.714-5.357a2.3 2.3 0 0 1 1.636-.68c.305-.002.608.06.887.185h.011l.035.069c0 .011.012.011.012.023q.08.123.126.265.053.094.092.196.093.198.139.415.024.043.034.092.063.203.092.414.048.2.058.404"/><path fill="#CBB292" d="M68.165 59.523q0 .158-.035.311a1.8 1.8 0 0 1-.253.738 4.6 4.6 0 0 1-.76.932l-.173.243-2.743-1.97a4.64 4.64 0 0 0-2.672-.853h-9.067a4.58 4.58 0 0 0-4.332 3.064l-4.654 13.203-1.383-.944a3 3 0 0 1-.288-.22 3.4 3.4 0 0 1-1.025-3.767l2.154-6.083.657-1.854 2.154-6.037a4.62 4.62 0 0 1 4.367-3.065h9.885c.478.002.945.15 1.336.426l5.968 4.228c.537.377.86.991.864 1.648"/><path fill="#FFD3A3" d="M66.022 58.982c1.152 1.152 1.382 2.246 1.095 2.523l-.173.242-2.742-1.97a4.64 4.64 0 0 0-2.673-.853h-9.067a4.58 4.58 0 0 0-4.331 3.064l-4.655 13.203-1.382-.944a3 3 0 0 1-.289-.22 3.4 3.4 0 0 1 .185-1.543l2.154-6.083 2.812-7.892a4.62 4.62 0 0 1 4.365-3.064h8.837c.479.001.945.15 1.337.426 0 0 4.337 2.92 4.527 3.11"/><path fill="#FFD3A3" d="M83.2 97H66.447a2.305 2.305 0 0 1-2.293-2.304 2.31 2.31 0 0 0-1.002-1.901L44.501 80.007a3.476 3.476 0 0 1-1.313-4.01l.288-.806 4.654-13.203a4.58 4.58 0 0 1 4.332-3.064h9.067c.957.002 1.891.3 2.672.853l2.743 1.97.172-.242c.294-.276.55-.59.76-.933a2.02 2.02 0 0 0-.576-2.697l-5.967-4.228a2.33 2.33 0 0 0-1.336-.426h-3.595v-.057c-.44-2.31-.408-4.685.092-6.982l-.023-.023.622-.553 4.563-4.378a4.634 4.634 0 0 0 .126-6.382l.07-.058s3.444-2.304 5.748 1.152c2.304 3.457-4.596 6.855-1.152 13.767 1.901 3.803 7.017 7.58 8.053 8.353a26.61 26.61 0 0 1 8.71 21.233 28.2 28.2 0 0 0 .541 8.629l1.694 6.256A2.303 2.303 0 0 1 83.199 97"/><path fill="#CBB292" d="m63.349 35.618-.07.057a4.633 4.633 0 0 1-.126 6.383l-4.562 4.377-.622.554.023.023a17.4 17.4 0 0 0-.22 6.21h-1.37v-.058c-.44-2.31-.408-4.685.092-6.982l-.023-.023.622-.553 4.563-4.378a4.61 4.61 0 0 0 1.313-3.686 3 3 0 0 0-.058-.404 1.8 1.8 0 0 0-.092-.414.3.3 0 0 0-.034-.092 3 3 0 0 0-.231-.611 2 2 0 0 0-.127-.265c0-.012-.011-.012-.011-.023l-.035-.07h-.011a4.5 4.5 0 0 0-.588-.817l.07-.058s2.718-1.82 4.942.196a4.72 4.72 0 0 0-3.445.634M71.048 88.872a1.15 1.15 0 0 1-1.152-1.152c0-4.032-6.9-7.231-9.562-8.123a1.153 1.153 0 0 1 .734-2.182c.455.152 11.133 3.794 11.133 10.309a1.15 1.15 0 0 1-1.153 1.148M75.646 79.656c-3.948 0-6.872-2.753-8.63-5.063a1.152 1.152 0 1 1 1.834-1.395c1.443 1.894 3.791 4.148 6.797 4.148a1.152 1.152 0 1 1 0 2.304z"/><path fill="#4482C3" d="M69.374 32.484a1.151 1.151 0 0 1-.834-1.946l1.098-1.152a1.151 1.151 0 1 1 1.668 1.588l-1.098 1.152a1.15 1.15 0 0 1-.834.358M72.485 36.445a1.152 1.152 0 0 1-.31-2.262l1.498-.421a1.152 1.152 0 1 1 .624 2.219l-1.497.42q-.155.044-.315.044M73.073 41.931q-.16 0-.314-.042l-1.497-.422a1.153 1.153 0 0 1 .623-2.22l1.498.422a1.152 1.152 0 0 1-.31 2.262"/><path fill="#CBB292" d="M70.4 67.83a5.76 5.76 0 0 1-8.11 1.831l-2.316-1.555a1.17 1.17 0 0 0-.634-.184h-3.548a1.15 1.15 0 0 0-1.095.783c-.069.242-.184.542-.31.888-.98 2.718-1.89 5.437.322 8.237h-.012a.366.366 0 0 1-.265.633.6.6 0 0 1-.15-.023.24.24 0 0 1-.092-.058c-.184-.092-.3-.16-.334-.172-4.377-1.763-2.453-7.108-1.636-9.401.116-.311.208-.576.277-.806a3.445 3.445 0 0 1 3.295-2.385h3.548a3.53 3.53 0 0 1 1.924.576l2.304 1.543a3.435 3.435 0 0 0 4.85-1.094.87.87 0 0 0-.23-1.175l-.403-.288-2.177-1.555-.058-.047-2.327-1.647a4.5 4.5 0 0 0-2.673-.853l-6.797.035a4.56 4.56 0 0 0-4.332 3.064l-5.093 14.448-.287.795a1 1 0 0 0-.046.161 3.46 3.46 0 0 1-.807-3.584l.288-.806 4.655-13.203a4.58 4.58 0 0 1 4.331-3.064h9.067c.958.002 1.891.3 2.673.853l2.742 1.97 2.04 1.463.54.38a3.196 3.196 0 0 1 .876 4.24M52.335 35.341a4.63 4.63 0 0 0-2.545-.772 2.31 2.31 0 0 0-2.305 2.304v8.053l-1.716 1.602v-11.74a2.31 2.31 0 0 1 2.304-2.304 4.64 4.64 0 0 1 3.26 1.348c.427.435.767.947 1.002 1.51"/></g><defs><clipPath id="a"><path fill="#fff" d="M29 29h68v68H29z"/></clipPath></defs></svg>