<svg xmlns="http://www.w3.org/2000/svg" width="28" height="29" fill="none" viewBox="0 0 28 29">
    <g fill="#000" clip-path="url(#a)">
        <path d="M14.51 2.094a.53.53 0 0 1-.495-.363.56.56 0 0 1 .154-.601.52.52 0 0 1 .62-.047.56.56 0 0 1 .239.57.54.54 0 0 1-.518.44"/>
        <path d="M23.249 1H16.88a.537.537 0 0 0-.527.547c0 .302.236.547.527.547h5.84v.588c0 .65-.509 1.178-1.135 1.178H7.409c-.626 0-1.136-.529-1.136-1.178v-.588h5.84a.537.537 0 0 0 .528-.547.537.537 0 0 0-.527-.547H5.746a.537.537 0 0 0-.527.547v1.135c0 1.252.982 2.271 2.19 2.271h.437v.555c0 1.368 1.073 2.48 2.392 2.48h8.52c1.318 0 2.391-1.112 2.391-2.48v-.555h.437c1.208 0 2.19-1.019 2.19-2.271V1.547A.537.537 0 0 0 23.25 1m-3.154 4.508c0 .765-.6 1.387-1.337 1.387h-8.52C9.5 6.895 8.9 6.273 8.9 5.508v-.555h11.195zM14.5 13.996c-1.036 0-1.879-.874-1.879-1.948 0-.903 1.128-2.374 1.474-2.804a.52.52 0 0 1 .405-.196.52.52 0 0 1 .405.196c.346.43 1.474 1.901 1.474 2.804 0 1.074-.843 1.948-1.879 1.948m0-3.513c-.446.63-.824 1.3-.824 1.565 0 .471.37.855.824.855.455 0 .825-.384.825-.855 0-.265-.38-.934-.825-1.565M20.389 22.23c-.055-.5-.424-1.516-.64-2.076-.142-.37-.287-.724-.407-.995-.189-.425-.337-.761-.738-.728-.289.023-.505.283-.492.591.012.3-.082.713-.209 1.096-.165-1.513-.809-1.898-1.515-2.172-.282-.11-.378-.156-.44-.288-.084-.183-.148-.615.027-1.64a.56.56 0 0 0-.115-.446.52.52 0 0 0-.404-.196c-2.74 0-3.123 2.18-3.377 3.624-.118.672-.216 1.156-.396 1.33-.117-.29-.242-.977-.23-1.835.003-.305-.21-.556-.496-.584-.333-.033-.557.235-.76.513a8 8 0 0 0-.546.895c-.341.647-.792 1.672-.998 2.876-.278 1.624.152 3.24 1.213 4.552 1.127 1.396 2.841 2.235 4.595 2.253h.057a5.84 5.84 0 0 0 4.42-2.054 6.2 6.2 0 0 0 1.451-4.717m-7.325 4.188c0-.254.197-.906.636-1.792.158-.318.308-.589.44-.808.23.568.65.863.986 1.099.47.33.809.568.809 1.5 0 .819-.64 1.485-1.429 1.49l-.03-.001c-.78-.013-1.412-.676-1.412-1.488m5.088-.2c-.377.439-.822.8-1.31 1.076.095-.274.147-.569.147-.876 0-1.513-.735-2.03-1.272-2.407-.445-.312-.69-.485-.69-1.155 0-.505-.318-.735-.614-.735-.336 0-.594.269-.879.672-.206.293-.442.691-.666 1.123-.258.499-.859 1.74-.859 2.502 0 .304.051.596.145.867a5 5 0 0 1-1.48-1.24c-.856-1.06-1.205-2.36-.983-3.658a8.7 8.7 0 0 1 .815-2.404c.09.517.253 1.022.543 1.29a.78.78 0 0 0 .642.211c1.05-.146 1.25-1.284 1.426-2.288.259-1.472.524-2.443 1.724-2.673-.072.715-.02 1.225.156 1.607.25.541.696.714 1.022.84.278.108.442.179.574.373.196.29.296.828.296 1.599 0 .443.05.924.418 1.137.207.12.46.11.678-.03.304-.193.611-.742.836-1.355.25.658.487 1.36.52 1.66a5.09 5.09 0 0 1-1.189 3.864M4.88 26.656a.52.52 0 0 1-.372-.16 5.1 5.1 0 0 1-1.422-3.565c0-1.347.505-2.613 1.421-3.564a.514.514 0 0 1 .746 0 .56.56 0 0 1 0 .774 4 4 0 0 0-1.112 2.79c0 1.056.395 2.047 1.112 2.791a.56.56 0 0 1 0 .773.52.52 0 0 1-.373.16M6.871 25.388a.52.52 0 0 1-.373-.16 3.3 3.3 0 0 1-.916-2.297c0-.868.325-1.684.916-2.297a.514.514 0 0 1 .746 0 .56.56 0 0 1 0 .774 2.18 2.18 0 0 0-.607 1.523c0 .577.215 1.118.607 1.524a.56.56 0 0 1 0 .773.52.52 0 0 1-.373.16M24.121 26.656a.52.52 0 0 1-.373-.16.56.56 0 0 1 0-.774c1.484-1.539 1.484-4.043 0-5.581a.56.56 0 0 1 0-.774.514.514 0 0 1 .746 0c1.895 1.965 1.895 5.163 0 7.128a.52.52 0 0 1-.373.16M22.133 25.389a.52.52 0 0 1-.373-.16.56.56 0 0 1 0-.774 2.18 2.18 0 0 0 .607-1.524c0-.576-.215-1.117-.607-1.523a.56.56 0 0 1 0-.773.514.514 0 0 1 .746 0c.59.612.916 1.428.916 2.296 0 .869-.325 1.685-.916 2.297a.52.52 0 0 1-.373.16"/>
    </g>
    <defs>
        <clipPath id="a">
            <path fill="#fff" d="M0 .5h28v28H0z"/>
        </clipPath>
    </defs>
</svg>
