<svg xmlns="http://www.w3.org/2000/svg" width="135" height="133" fill="none" viewBox="0 0 135 133">
    <g clip-path="url(#a)">
        <path fill="#fef2f2" d="M5.49 45.656c11.757-11.749 21.71-1.892 25.902-17.67 6.426-24.187 34.159-24.187 46.49-5.191 17.57 27.068 57.285 11.922 56.983 44.644-.322 34.932-26.011 62.141-72.085 64.86-41.305 2.436-76.765-67.173-57.29-86.643" opacity=".7"/>
        <g clip-path="url(#b)">
            <path fill="#ea3934" d="m26.784 61.12 1.269-.716c2.67-1.509 4.44-4.596 4.433-8.407-.01-5.916-4.298-11.337-9.576-12.108-1.88-.274-3.63.078-5.107.911l-1.268.717z"/>
            <path fill="#f67773" d="M31.218 52.713c.01 5.916-4.26 10.088-9.539 9.318s-9.567-6.191-9.577-12.108c-.011-5.916 4.26-10.088 9.539-9.318s9.567 6.191 9.577 12.108"/>
            <path fill="#faa9a7" d="M13.473 50.124c.004 2.45.86 4.88 2.41 6.838 1.549 1.959 3.606 3.213 5.793 3.532 1.827.267 3.56-.145 4.98-1.167q.423-.302.804-.675c1.544-1.508 2.391-3.688 2.387-6.139s-.86-4.88-2.41-6.838c-1.549-1.96-3.607-3.214-5.793-3.533-1.315-.192-2.581-.032-3.717.454a6.7 6.7 0 0 0-2.068 1.389c-1.543 1.508-2.39 3.687-2.386 6.139"/>
            <g clip-path="url(#c)">
                <path fill="#d92e29" d="M24.095 54.637c.715.62 1.78.56 2.379-.134s.504-1.76-.211-2.38a1.72 1.72 0 0 0-1.757-.311l-2.138-3.197.056-.06c.518-.601.436-1.523-.183-2.06s-1.54-.485-2.058.115-.436 1.523.183 2.06q.084.073.176.131l-.777 2.4a1.06 1.06 0 0 0-.855.364c-.389.45-.327 1.142.137 1.544s1.155.364 1.543-.087q.09-.104.148-.223l2.754.61c.023.454.227.902.603 1.228m-4.866-1.975a.693.693 0 0 1-.042-.98.693.693 0 0 1 .98-.01.693.693 0 0 1 .042.98.693.693 0 0 1-.98.01m1.588-.583a1.13 1.13 0 0 0-.364-.6l-.006-.006.79-2.437c.17.013.342-.003.506-.05l2.167 3.24-.027.03a1.6 1.6 0 0 0-.271.443zm5.164.493c.529.502.564 1.323.078 1.835s-1.308.52-1.837.019c-.529-.502-.564-1.323-.078-1.835s1.308-.52 1.837-.02"/>
                <path fill="#ea3934" d="M19.187 51.683a.693.693 0 0 0 .042.98.694.694 0 0 0 .98-.01.693.693 0 0 0-.041-.98.693.693 0 0 0-.98.01M24.144 52.59c-.485.512-.45 1.334.079 1.836s1.351.493 1.837-.019c.485-.512.45-1.333-.079-1.835s-1.351-.494-1.837.018M21.03 48.15c.37.334.93.314 1.252-.044s.283-.918-.086-1.251c-.37-.333-.93-.313-1.251.045-.322.358-.284.918.085 1.25"/>
            </g>
            <path fill="#fdcccb" d="M13.473 50.123c.004 2.451.86 4.88 2.41 6.839 1.549 1.958 3.606 3.213 5.793 3.532 1.827.267 3.56-.146 4.98-1.167-1.135.483-2.399.642-3.712.45-2.156-.314-4.186-1.538-5.728-3.45l-.066-.082-.06-.078c-1.511-1.945-2.345-4.342-2.349-6.76v-.02c0-2.137.648-4.067 1.84-5.523q.257-.313.546-.596.38-.372.8-.673a6.7 6.7 0 0 0-2.068 1.389c-1.543 1.508-2.39 3.687-2.386 6.139"/>
        </g>
        <path fill="#d18080" d="M44.921 123.117s-4.097 2.787-5.746 2.603c-.206-.022-.365-.085-.486-.206-1.079-1.112-1.94-3.06-1.94-3.06s.511-.71 2.094 1.175l1.005-.924-2.076-2.088s1.167-.927 3.151.254c-.066-.143-1.347-2.926-.383-6.718l-4.837-4.661 4.282-3.729.331-.287s.269.265.707.677c.423.401 1.001.935 1.634 1.487 1.51 1.326 3.336 2.765 4.127 2.75 1.465-.029-1.863 12.723-1.863 12.723z"/>
        <mask id="d" width="13" height="21" x="35" y="105" maskUnits="userSpaceOnUse" style="mask-type:luminance">
            <path fill="#fff" d="M44.906 123.115s-4.098 2.787-5.747 2.603c-.206-.022-.364-.085-.486-.206-1.079-1.112-1.94-3.06-1.94-3.06s.512-.71 2.095 1.175l1.005-.924-2.076-2.088s1.166-.927 3.15.254c-.065-.143-1.347-2.926-.382-6.718l-4.837-4.661 4.281-3.729.331-.287s.27.265.707.677c.424.401 1.002.935 1.635 1.487 1.51 1.326 3.335 2.765 4.127 2.75 1.465-.029-1.863 12.723-1.863 12.723z"/>
        </mask>
        <g mask="url(#d)">
            <path fill="#ea3934" d="M41.74 121.289s-2.334 2.408-2.58 4.429c-.207-.022-.365-.085-.487-.206-1.079-1.112-1.94-3.059-1.94-3.059s.512-.711 2.095 1.174l1.005-.924-2.076-2.087s1.166-.928 3.15.254c-.065-.144-1.347-2.927-.382-6.719l-4.837-4.661 4.281-3.729 1.035.39c.423.401 1 .935 1.634 1.488-.906 1.329-2.846 4.075-2.846 4.075l1.675 2.275s-1.016 5.736.27 7.297z" opacity=".4"/>
        </g>
        <path stroke="#263238" stroke-linecap="round" stroke-linejoin="round" stroke-width=".368" d="M44.921 123.117s-4.097 2.787-5.746 2.603c-.206-.022-.365-.085-.486-.206-1.079-1.112-1.94-3.06-1.94-3.06s.511-.71 2.094 1.175l1.005-.924-2.076-2.088s1.167-.927 3.151.254c-.066-.143-1.347-2.926-.383-6.718l-4.837-4.661 4.282-3.729.331-.287s.269.265.707.677c.423.401 1.001.935 1.634 1.487 1.51 1.326 3.336 2.765 4.127 2.75 1.465-.029-1.863 12.723-1.863 12.723z"/>
        <path stroke="#263238" stroke-linecap="round" stroke-linejoin="round" stroke-width=".368" d="M39.844 122.709s.357-1.12 1.078-1.83"/>
        <path fill="#ea3934" d="M116.311 90.655c-.582.883-1.373 1.716-2.319 2.5h-.004c-7.536 6.24-24.909 9.321-24.909 9.321s-.581.873-1.476 2.113c-1.605 2.231-4.237 5.655-6.384 7.37-.905.729-1.726 1.149-2.345 1.035l3.258 12.038 1.458 5.228s-14.98 6.534-40.606-.939c0 0-.29-3.343-.074-4.057l.034-.103c.239-.574 1.005-1.263 1.005-1.263s-.144-2.15-.218-4.34c-.059-1.701-.073-3.424.052-4.19.18-1.104.99-3.773 1.395-5.084.144-.464.24-.758.24-.758l-1.274-11.943-.368-3.438s-.008-.063-.019-.18q.002-.037-.007-.085l-.203-1.844-6.59 2.013s.35.77.822 1.856c.865 1.98 2.138 4.999 2.422 6.192.022.099.051.191.084.287.612 1.741 2.935 3.321 2.935 3.321l-6.24 7.293-1.845-1.289s-.268.21-.743.468c-1.215.659-3.76 1.627-6.539.147-1.016-.541-2.061-1.406-3.085-2.728-4.918-6.369-7.031-11.556-6.34-17.66.693-6.107 28.109-24.886 33.546-24.691l8.092 1.789c.173-.144.648-.52 1.012-.5 1.473.073 1.51 1.785 1.51 1.785l18.13 2.945s1.878-.943 2.206-.924c.802.04 1.145.729 1.145.729s4.697-2.813 6.21-2.158c4.967 2.143 29.702 14.163 26.032 19.74z"/>
        <path fill="#000" d="M53.308 120.458s-2.816 3.457-7.849 4.256c-.953.15-1.793.305-2.525.456.239-.574 1.005-1.263 1.005-1.263s-.144-2.15-.218-4.34c2.128 1.391 5.836 3.011 9.587.891M45.175 110.297c.143-.464.24-.758.24-.758L44.14 97.596c1.907 2.732 8.703 12.046 13.39 13.051 4.896 1.049-8.199 2.901-12.352-.35zM82.125 125.045c-5.117-.581-12.355-1.87-13.08-4.55-1.126-4.182 4.359-6.693 12.164-8.526-.906.729-1.727 1.148-2.346 1.034l3.259 12.039zM113.981 93.16c-7.536 6.24-24.909 9.321-24.909 9.321s-.581.873-1.476 2.113c-1.469-3.431-3.586-10.529-1.108-19.254 0 0 1.34 7.25 6.895 8.972 0 0-4.252-3.166-2.768-10.794 0 0 1.45 8.975 10.893 11.453 4.595 1.204 9.079-.129 12.477-1.815zM43.745 93.977l-.21-1.93-6.59 2.014s.35.77.82 1.856c-2.52-.261-7.3 2.08-8.135-.468-1.005-3.077 5.183-2.017 5.183-2.017l5.84-3.398c-1.105-4.723 1.704-8.272 1.704-8.272l.533 3.295c.258-6.262 2.706-9.69 2.706-9.69-2.035 4.952-1.98 17.14-1.851 18.61M43.214 105.714l-6.24 7.293-1.844-1.289s-.27.21-.744.468c-1.215.659-3.759 1.627-6.538.147 2.02-2.798 6.2-6.918 11.17-8.508 0 0-2.048 2.993-3.318 5.666l1.281 1.263s3.2-3.649 6.233-5.044zM58.37 73.59c0 .64-.406 7.94 4.903 9.87C68.58 85.387 73.3 82.115 73.3 82.115s-8.143 7.852-13.095 3.655C55.255 81.574 58.37 73.59 58.37 73.59" opacity=".2"/>
        <path stroke="#263238" stroke-linecap="round" stroke-linejoin="round" stroke-width=".368" d="M42.984 129.328s-.287-3.343-.074-4.057c.18-.596 1.038-1.366 1.038-1.366s-.449-6.777-.162-8.526c.247-1.498 1.635-5.846 1.635-5.846l-1.87-17.487-6.59 2.014s2.805 6.199 3.24 8.047c.434 1.849 3.018 3.612 3.018 3.612l-6.243 7.293-1.845-1.285s-5.445 4.259-10.367-2.113c-4.918-6.373-7.031-11.556-6.34-17.664.693-6.107 28.109-24.886 33.55-24.691l8.092 1.79c.176-.144.648-.52 1.012-.502 1.473.074 1.51 1.786 1.51 1.786l18.13 2.941s1.882-.938 2.21-.924c.802.04 1.144.726 1.144.726s4.698-2.813 6.21-2.158c4.967 2.143 29.699 14.163 26.029 19.74-5.21 7.919-27.232 11.825-27.232 11.825s-7.326 11.048-10.209 10.521l4.72 17.27"/>
        <path fill="#ea3934" d="M97.15 91.862c8.32 5.496 15.027 4.48 20.277-2.592 0 0 4.37-5.633 4.061-11.714s-1.76-25.907-20.705-20.837c-3.118.835-10.392 10.58-11.007 13.257-.28 1.222-3.203 7.454-6.038 13.9"/>
        <path stroke="#263238" stroke-linecap="round" stroke-linejoin="round" stroke-width=".368" d="M97.15 91.862c8.32 5.496 15.027 4.48 20.277-2.592 0 0 4.37-5.633 4.061-11.714s-1.76-25.907-20.705-20.837c-3.118.835-10.392 10.58-11.007 13.257-.28 1.222-3.203 7.454-6.038 13.9"/>
        <path fill="#263238" d="M74.633 33.633s5.297-.803 8.983 2.492c4.657 4.168 9.884 15.403 2.437 34.024 0 0-10.997-7.304-29.768-2.419 0 0 1.616-4.37-1.223-18.116-1.28-6.218 1.944-20.55 19.57-15.981"/>
        <path fill="#d18080" stroke="#263238" stroke-linecap="round" stroke-linejoin="round" stroke-width=".368" d="M66.6 80.36c7.845 1.27 16.184-7.414 16.184-7.414s-4.267-.526-4.646-2.53c-1.222-6.316 3.7-14.121 3.7-14.121s-19.048.526-15.72 4.837c.7.906 1.178 1.771 1.506 2.585 1.156 2.838.353 4.977-.262 5.5a.8.8 0 0 1-.14.092c-1.152.526-5.886-.258-5.886-.258S59.444 79.197 66.6 80.357z"/>
        <path stroke="#263238" stroke-linecap="round" stroke-linejoin="round" stroke-width=".368" d="M80.083 75.35s-3.619 1.447-8.916 1.016l-2.386 1.17M66.403 77.346l-.176-1.569s-3.906-1.222-5.118-3.549"/>
        <path fill="#263238" d="M67.367 69.22c5.835 1.525 8.574-5.956 8.574-5.956s-4.668-1.392-8.312.456c1.155 2.839.353 4.978-.262 5.5"/>
        <path fill="#d18080" d="M82.17 52.36c1.422-7.966-.158-17.526-12.28-16.735-8.663.567-8.593 10.065-8.019 12.9.965 4.767-.416 6.645 1.068 10.65 1.068 2.88 3.549 6.097 6.468 7.304 1.797.744 9.068-4.359 9.605-6.693"/>
        <path stroke="#263238" stroke-linecap="round" stroke-linejoin="round" stroke-width=".368" d="M82.17 52.36c1.422-7.966-.158-17.526-12.28-16.735-8.663.567-8.593 10.065-8.019 12.9.965 4.767-.416 6.645 1.068 10.65 1.068 2.88 3.549 6.097 6.468 7.304 1.797.744 9.068-4.359 9.605-6.693"/>
        <path stroke="#263238" stroke-linecap="round" stroke-linejoin="round" stroke-width=".368" d="M66.929 50.012c-.074.895-.177 3.111-2.073 4.746-1.226 1.056 1.587 2.139 1.587 2.139M64.914 46.853s-2.677-1.303-4.484.847M69.406 46.684s2.585-.927 5.721.225"/>
        <path fill="#263238" d="M72.184 50.447c.084.77.6 1.343 1.156 1.28.555-.058.938-.732.854-1.501-.085-.77-.6-1.344-1.156-1.281-.556.059-.94.732-.854 1.502"/>
        <path stroke="#263238" stroke-linecap="round" stroke-linejoin="round" stroke-width=".368" d="M66.582 59.415c3.365-.409 5.982-2.187 5.982-2.187s.25 3.343-2.547 4.039c-2.146.533-2.978-1.919-2.978-1.919"/>
        <path fill="#263238" d="M74.45 38.662s-.767 9.44 7.564 12.87l3.903-9.074-5.905-6.542-8.898-2.57c-13.294.829-19.019 9.09-11.637 31.101 0 0-2.066-26.212 14.972-25.781z"/>
        <path fill="#d18080" d="M80.195 51.933c-.114-1.06 2.57-3.762 3.475-2.028 1.546 2.956.42 5.533-1.181 6.542-.718.453-1.628 1.3-2.265.5"/>
        <path stroke="#263238" stroke-linecap="round" stroke-linejoin="round" stroke-width=".368" d="M80.195 51.933c-.114-1.06 2.57-3.762 3.475-2.028 1.546 2.956.42 5.533-1.181 6.542-.718.453-1.628 1.3-2.265.5"/>
        <path fill="#263238" d="M64.074 50.796c.085.77.6 1.343 1.156 1.28.556-.058.939-.732.854-1.501-.084-.77-.6-1.344-1.156-1.281-.556.059-.938.732-.854 1.502"/>
        <g stroke="#fff" stroke-linecap="round" stroke-linejoin="round" stroke-width=".368" opacity=".2">
            <path d="M58.296 49.246q-.151.96-.206 1.933M73.057 36.947c-6.733-.177-12.992 4.115-14.483 10.856M71.864 35.021s-9.711-2.282-13.352 4.157M79.738 46.246c.593.825 1.285 1.587 2.095 2.209M75.89 36.28c.52 3.038 1.521 6.119 3.082 8.777M85.647 65.497a33 33 0 0 1-.604 2.297M85.082 52.663c1.576 3.497 1.469 7.849.821 11.53M83.923 58.755s.482 3.903-2.74 7.198M79.45 37.407c1.652 2.234 2.878 4.631 4.792 6.67 2.018 2.15 4.032 4.61 4.41 7.636M77.125 35.085c.475.309.906.677 1.296 1.085"/>
        </g>
        <path fill="#263238" stroke="#263238" stroke-linecap="round" stroke-linejoin="round" stroke-width=".368" d="M110.356 86.922a6 6 0 0 1-.585.103c-5.213.744-11.06-3.575-13.032-8.77-1.558-4.097-.196-8.746.548-10.738.236-.622.405-.987.405-.987 3.144-4.491 21.422 4.293 21.632 9.134.214 4.837-3.615 10.08-8.971 11.254z"/>
        <path fill="#b06666" d="M116.066 76.323s-1.038 7.69-6.303 10.702c-5.213.743-11.059-3.575-13.032-8.77-1.557-4.097-.195-8.747.548-10.738 0-.004.004 0 .004 0 6.159-3.516 18.783 8.806 18.783 8.806"/>
        <mask id="e" width="21" height="22" x="96" y="66" maskUnits="userSpaceOnUse" style="mask-type:luminance">
            <path fill="#fff" d="M116.058 76.324s-1.038 7.69-6.303 10.702c-5.213.743-11.059-3.575-13.032-8.77-1.557-4.097-.195-8.747.549-10.738 0-.004.003 0 .003 0 6.159-3.516 18.783 8.806 18.783 8.806"/>
        </mask>
        <g mask="url(#e)">
            <path fill="#d18080" d="M116.058 76.324s-1.038 7.69-6.303 10.702c-5.213.743-11.059-3.575-13.032-8.77-1.557-4.097-.195-8.747.549-10.738 0-.004.003 0 .003 0 6.159-3.516 18.783 8.806 18.783 8.806" opacity=".4"/>
        </g>
        <path stroke="#263238" stroke-linecap="round" stroke-linejoin="round" stroke-width=".368" d="M116.066 76.323s-1.038 7.69-6.303 10.702c-5.213.743-11.059-3.575-13.032-8.77-1.557-4.097-.195-8.747.548-10.738 0-.004.004 0 .004 0 6.159-3.516 18.783 8.806 18.783 8.806"/>
        <path stroke="#263238" stroke-linecap="round" stroke-linejoin="round" stroke-width=".368" d="M94.52 80.372s5.934 8.519 12.866 9.23c6.929.71 11.361-5.129 11.652-9.532"/>
        <path fill="#d18080" stroke="#263238" stroke-linecap="round" stroke-linejoin="round" stroke-width=".368" d="M91.175 41.92c.523-1.462 4.267-.973 5.453 3.581s5.871 15.61 5.871 15.61 18.603-27.375 21.938-28.428c3.335-1.057 2.014 3.688-2.441 10.27 0 0 4.175-.736 5.268 0 1.098.737.564 5.158 1.145 6.708.98 2.596-1.196 3.144-1.196 3.144s1.712-.014 2.905 1.105c1.196 1.119.596 5.75.935 7.06.342 1.311-1.94 2.416-1.94 2.416s5.485 2.993 4.244 3.74c-2.087 1.263-3.28-.03-3.28-.03s-8.427 10.585-14.781 12.94c-6.354 2.357-18.731-7.008-20.06-12.111-1.329-5.102.258-4.786-.751-13.279-1.009-8.49-3.317-12.73-3.317-12.73z"/>
        <path fill="#fff" stroke="#263238" stroke-linecap="round" stroke-linejoin="round" stroke-width=".368" d="m118.318 25.104-24.51 6.389a1.627 1.627 0 0 0-1.163 1.985l11.586 44.448a1.627 1.627 0 0 0 1.985 1.164l24.509-6.39a1.627 1.627 0 0 0 1.164-1.984l-11.586-44.448a1.627 1.627 0 0 0-1.985-1.164"/>
        <path fill="#ea3934" stroke="#263238" stroke-linecap="round" stroke-linejoin="round" stroke-width=".368" d="M104.274 30.21a.4.4 0 0 1-.283.485.4.4 0 0 1-.486-.283.4.4 0 0 1 .283-.486.4.4 0 0 1 .486.283M109.33 28.89a.253.253 0 0 1-.181.306.251.251 0 0 1-.125-.486.253.253 0 0 1 .306.18M107.932 29.105l-2.939.766a.117.117 0 0 0-.084.144l.012.046c.016.063.08.1.143.084l2.939-.766a.12.12 0 0 0 .085-.143l-.012-.047a.12.12 0 0 0-.144-.084"/>
        <path fill="#fee3e2" stroke="#263238" stroke-linecap="round" stroke-linejoin="round" stroke-width=".368" d="m119.561 26.724 11.49 44.081a.963.963 0 0 1-.689 1.174l-24.194 6.307a.96.96 0 0 1-1.175-.689l-11.49-44.081a.96.96 0 0 1 .689-1.175l4.966-1.296a.805.805 0 0 1 .865.317l.357.512a.81.81 0 0 0 .866.316l10.904-2.842a.8.8 0 0 0 .6-.7l.063-.621a.8.8 0 0 1 .6-.7l4.966-1.296a.96.96 0 0 1 1.174.689z"/>
        <path fill="#263238" d="m123.751 69.59-13.791 3.594a3.092 3.092 0 1 1-1.561-5.986l13.791-3.593a3.092 3.092 0 1 1 1.561 5.986"/>
        <path stroke="#263238" stroke-linecap="round" stroke-linejoin="round" stroke-width=".368" d="M89.079 102.479s-4.186-9.737-2.05-21.547M78.869 113.001s-8.46 2.588-9.318 4.532c-.858 1.947 3.795.309 3.795.309M84.077 73.072s-7.79 7.72-13.003 9.782M58.547 70.996s-1.417 10.422 3.877 12.392M43.55 92.042s-.043-13.665 2.674-17.892M42.537 78.123s-.762 8.486.946 11.254M36.961 94.06s-5.923-2.04-7.153.489 3.534.287 3.534.287M40.525 102.921s-5.817 3.277-6.119 5.154M50.031 93.854s11.137 16.831 17.285 15.285M57.636 117.463s-8.733 6.402-10.003 5.861"/>
        <path fill="#000" d="M118.801 90.147c.589-.482.979-.803 1.104-.906-.132.114-.512.446-1.104.906" opacity=".2"/>
        <g clip-path="url(#f)">
            <path fill="#f67773" d="M114.361 60.346c5.568-1.374 8.968-7 7.594-12.569-1.374-5.567-7.001-8.967-12.569-7.593s-8.968 7-7.594 12.569c1.374 5.567 7.001 8.967 12.569 7.593"/>
            <path fill="#faa9a7" d="M114.302 60.105c5.435-1.34 8.753-6.833 7.412-12.268s-6.834-8.753-12.268-7.412c-5.435 1.34-8.753 6.834-7.412 12.268s6.833 8.753 12.268 7.412"/>
            <path fill="#f67773" d="M114.002 58.9a8.84 8.84 0 0 1-6.73-1.022 8.84 8.84 0 0 1-4.036-5.482 8.84 8.84 0 0 1 1.023-6.73 8.83 8.83 0 0 1 5.482-4.036 8.84 8.84 0 0 1 6.73 1.022 8.83 8.83 0 0 1 4.036 5.483 8.84 8.84 0 0 1-1.023 6.73 8.83 8.83 0 0 1-5.482 4.035"/>
            <path fill="#ea3934" d="M116.817 42.872a8.83 8.83 0 0 0-6.375-.819 8.83 8.83 0 0 0-5.482 4.036 8.84 8.84 0 0 0-1.023 6.73 8.83 8.83 0 0 0 3.69 5.263 8.837 8.837 0 0 1-4.391-5.686 8.84 8.84 0 0 1 1.023-6.73 8.83 8.83 0 0 1 5.482-4.036 8.84 8.84 0 0 1 7.076 1.242" opacity=".3"/>
            <path fill="#d92e29" d="M121.954 47.778c1.374 5.567-2.026 11.194-7.594 12.568-5.257 1.298-10.568-1.661-12.3-6.683q.133.021.277.039c1.733 4.828 6.874 7.66 11.964 6.403 5.434-1.34 8.753-6.833 7.412-12.268-1.079-4.372-4.845-7.375-9.106-7.683l-.112-.256c4.418.263 8.343 3.356 9.459 7.88"/>
            <path fill="#ea3934" d="M116.818 42.87a8.8 8.8 0 0 0-3.611-1.058 16 16 0 0 0-.113-.362 8.9 8.9 0 0 1 3.641 1.366z"/>
            <path fill="#f67773" d="M121.715 47.837c1.341 5.434-1.977 10.927-7.412 12.268-5.089 1.256-10.23-1.575-11.964-6.403.4.05.856.083 1.367.085a8.82 8.82 0 0 0 3.922 4.293l.003.002a8.83 8.83 0 0 0 6.375.818 8.84 8.84 0 0 0 5.482-4.036 8.84 8.84 0 0 0 1.022-6.73 8.83 8.83 0 0 0-3.69-5.262l-.002-.002-.083-.054a8.872 8.872 0 0 0-3.641-1.366 16 16 0 0 0-.485-1.296c4.261.308 8.027 3.31 9.106 7.683"/>
            <path fill="#ea3934" d="M120.513 48.135a8.84 8.84 0 0 1-1.023 6.73 8.83 8.83 0 0 1-5.482 4.036 8.83 8.83 0 0 1-6.374-.82h-.003a8.8 8.8 0 0 1-3.394-4.303c1.242-.046 2.769-.277 4.578-.854 1.462-.556 4.413-2.14 4.88-5.97.28-1.866-.058-3.72-.486-5.142a8.8 8.8 0 0 1 3.611 1.059l.003.001a8.83 8.83 0 0 1 3.69 5.263" opacity=".3"/>
            <g clip-path="url(#g)">
                <path fill="#faa9a7" d="m113.047 51.912.754.788a3.15 3.15 0 0 0 .868-1.96 2.8 2.8 0 0 0-.13-1.042 2.4 2.4 0 0 0-.544-.91l-1.206-1.264-.836-.876-.895-.936a2.3 2.3 0 0 0-.87-.57 2.5 2.5 0 0 0-1.5-.051 3 3 0 0 0-1.374.83 3.15 3.15 0 0 0-.874 1.966c-.023.353.018.708.129 1.042s.294.649.545.911l2.938 3.076c.25.262.55.453.87.57.48.174 1.001.184 1.499.05q.252-.068.494-.185l-.836-.876a2 2 0 0 1-.233.034 1.4 1.4 0 0 1-.574-.077 1.2 1.2 0 0 1-.467-.304l-2.938-3.076a1.3 1.3 0 0 1-.291-.49 1.7 1.7 0 0 1-.024-.925c.081-.326.251-.652.515-.928a1.86 1.86 0 0 1 1.196-.59 1.4 1.4 0 0 1 .574.076q.265.096.468.305l.762.799.753.788 1.422 1.489q.2.21.291.489c.092.275.103.598.023.925a2.05 2.05 0 0 1-.509.922"/>
                <path fill="#fdcccb" d="m111.819 48.088-.753-.789a3.16 3.16 0 0 0-.869 1.96 2.8 2.8 0 0 0 .131 1.043c.11.334.292.648.544.911l1.206 1.263.836.875.895.937c.251.263.551.454.87.57.48.175 1.001.185 1.5.05a3 3 0 0 0 1.374-.829c.529-.555.828-1.26.874-1.966a2.8 2.8 0 0 0-.13-1.043 2.4 2.4 0 0 0-.545-.91l-2.937-3.075a2.3 2.3 0 0 0-.87-.57 2.5 2.5 0 0 0-1.5-.052 3 3 0 0 0-.493.186l.836.876a2 2 0 0 1 .232-.034c.204-.014.399.013.575.077q.264.095.467.305l2.937 3.075q.2.212.292.49c.092.274.103.598.022.925-.079.326-.25.652-.513.927-.352.368-.788.563-1.196.591a1.4 1.4 0 0 1-.575-.076 1.2 1.2 0 0 1-.467-.305l-.763-.799-.753-.788-1.421-1.489a1.3 1.3 0 0 1-.291-.489 1.66 1.66 0 0 1-.023-.925c.079-.324.248-.648.508-.922"/>
            </g>
            <path fill="#ea3934" d="m107.626 58.08-.087-.048a8.825 8.825 0 0 1-3.836-4.245q.255 0 .529-.009a8.8 8.8 0 0 0 3.394 4.302"/>
        </g>
    </g>
    <defs>
        <clipPath id="a">
            <path fill="#fff" d="M0 0h134.867v132.362H0z"/>
        </clipPath>
        <clipPath id="b">
            <path fill="#fff" d="M12.102 39.798h20.384v22.325H12.102z"/>
        </clipPath>
        <clipPath id="c">
            <path fill="#fff" d="M21.215 45.52 28.47 52.4l-4.817 5.08-7.255-6.882z"/>
        </clipPath>
        <clipPath id="f">
            <path fill="#fff" d="m99.305 42.671 20.162-4.975 4.975 20.163-20.162 4.975z"/>
        </clipPath>
        <clipPath id="g">
            <path fill="#fff" d="M106.434 45h12v10h-12z"/>
        </clipPath>
    </defs>
</svg>
