<svg xmlns="http://www.w3.org/2000/svg" width="24" height="20" fill="none" viewBox="0 0 24 20">
    <path fill="#440d0b" d="M12.102 9.938q0 1.59-.255 2.785-.256 1.195-.816 1.994-.56.8-1.459 1.212-.898.403-2.2.403-1.293 0-2.191-.403A3.6 3.6 0 0 1 3.714 14.7q-.561-.808-.816-1.986-.255-1.186-.255-2.768 0-1.632.247-2.785.255-1.154.84-1.986a3.5 3.5 0 0 1 1.483-1.212q.907-.403 2.16-.403 1.326 0 2.208.42.89.412 1.458 1.236.56.807.808 1.994.255 1.186.255 2.727m-3.09 0q0-2.274-.379-3.188-.37-.923-1.26-.923-.882 0-1.261.923-.38.915-.38 3.205 0 2.241.38 3.18.379.931 1.26.931.882 0 1.261-.93.38-.94.379-3.198"/>
    <mask id="a" width="13" height="10" x="11" y="6" fill="#000" maskUnits="userSpaceOnUse">
        <path fill="#fff" d="M11 6h13v10H11z"/>
        <path d="M16.26 9.468q0 1.085-.485 1.614-.48.525-1.4.525-.945 0-1.426-.525-.48-.525-.481-1.596 0-1.072.49-1.597.49-.53 1.417-.529.945 0 1.413.53.473.525.473 1.578m3.386-1.981L16.234 14H15.08l3.412-6.513zm2.616 4.51q0 1.084-.486 1.614-.48.525-1.4.525-.945 0-1.425-.525-.482-.525-.482-1.597 0-1.071.49-1.596.49-.53 1.418-.53.944 0 1.412.53.473.525.473 1.579M15.014 9.48q0-.274-.026-.503a1.2 1.2 0 0 0-.092-.38.5.5 0 0 0-.197-.228.6.6 0 0 0-.324-.078q-.21 0-.328.078a.53.53 0 0 0-.192.232q-.066.14-.092.38a6.02 6.02 0 0 0-.009 1.02q.018.188.096.363.066.152.193.236a.64.64 0 0 0 .332.079q.197 0 .324-.079a.5.5 0 0 0 .197-.236q.06-.14.087-.359.03-.218.03-.525m6.001 2.529q0-.276-.026-.503a1.2 1.2 0 0 0-.092-.38.5.5 0 0 0-.197-.228.6.6 0 0 0-.323-.079q-.21 0-.328.079a.53.53 0 0 0-.193.232q-.066.14-.092.38a6.013 6.013 0 0 0-.009 1.02q.018.188.097.362.065.153.192.236a.64.64 0 0 0 .333.08q.196 0 .323-.08a.5.5 0 0 0 .197-.236q.06-.14.088-.358.03-.219.03-.525"/>
    </mask>
    <path fill="#440d0b" d="M16.26 9.468q0 1.085-.485 1.614-.48.525-1.4.525-.945 0-1.426-.525-.48-.525-.481-1.596 0-1.072.49-1.597.49-.53 1.417-.529.945 0 1.413.53.473.525.473 1.578m3.386-1.981L16.234 14H15.08l3.412-6.513zm2.616 4.51q0 1.084-.486 1.614-.48.525-1.4.525-.945 0-1.425-.525-.482-.525-.482-1.597 0-1.071.49-1.596.49-.53 1.418-.53.944 0 1.412.53.473.525.473 1.579M15.014 9.48q0-.274-.026-.503a1.2 1.2 0 0 0-.092-.38.5.5 0 0 0-.197-.228.6.6 0 0 0-.324-.078q-.21 0-.328.078a.53.53 0 0 0-.192.232q-.066.14-.092.38a6.02 6.02 0 0 0-.009 1.02q.018.188.096.363.066.152.193.236a.64.64 0 0 0 .332.079q.197 0 .324-.079a.5.5 0 0 0 .197-.236q.06-.14.087-.359.03-.218.03-.525m6.001 2.529q0-.276-.026-.503a1.2 1.2 0 0 0-.092-.38.5.5 0 0 0-.197-.228.6.6 0 0 0-.323-.079q-.21 0-.328.079a.53.53 0 0 0-.193.232q-.066.14-.092.38a6.013 6.013 0 0 0-.009 1.02q.018.188.097.362.065.153.192.236a.64.64 0 0 0 .333.08q.196 0 .323-.08a.5.5 0 0 0 .197-.236q.06-.14.088-.358.03-.219.03-.525"/>
    <path fill="#f9e2aa" d="m15.775 11.082-.825-.757zM12.958 7.89l.819.764.003-.003zm2.83 0-.839.742.007.007zm3.858-.402.992.52.859-1.64h-1.85zM16.234 14v1.12h.678l.314-.6zm-1.155 0-.992-.52-.858 1.64h1.85zm3.412-6.513v-1.12h-.677l-.315.6zm3.285 6.124-.825-.757zm-2.817-3.193.819.764.003-.004zm2.83 0-.838.741.006.008zm-6.801-1.44-1.115.108v.01l.002.01zm-.29-.608-.59.952.012.007.013.007zm-.65 0 .596.948.012-.008.012-.008zm-.193.232-1.013-.478-.001.003zm-.101 1.4-1.115.101v.003zm.096.363 1.03-.441-.004-.01-.005-.008zm.193.236-.614.937.019.012.019.011zm.853-.236 1.023.455.003-.006zm.087-.359-1.109-.155-.001.011-.002.01zm6.006 1.5-1.115.108.001.01.002.011zM20.7 10.9l-.59.951.012.008.012.007zm-.651 0 .596.947.012-.008.013-.008zm-.193.232-1.013-.479v.003zm-.1 1.4-1.116.1v.003zm.096.362 1.029-.44-.004-.01-.004-.01zm.192.236-.614.937.019.012.019.012zm.853-.236 1.023.455.003-.006zm.088-.358-1.11-.156v.011l-.002.011zM15.14 9.468c0 .582-.134.795-.191.857l1.65 1.514c.59-.643.78-1.506.78-2.37zm-.191.858c-.052.056-.18.162-.575.162v2.24c.83 0 1.635-.245 2.225-.889zm-.575.162c-.424 0-.555-.113-.6-.162l-1.651 1.513c.596.65 1.415.888 2.251.888zm-.6-.162c-.056-.06-.187-.268-.187-.84h-2.24c0 .857.19 1.714.776 2.353zm-.187-.84c0-.568.132-.772.189-.833l-1.638-1.528c-.596.64-.79 1.5-.79 2.36zm.192-.836c.058-.063.195-.17.595-.17V6.24c-.836 0-1.644.246-2.239.889zm.595-.17c.423 0 .54.112.574.151l1.678-1.484c-.59-.667-1.415-.907-2.252-.907zm.58.158c.058.064.186.271.186.83h2.24c0-.846-.188-1.691-.76-2.328zm3.7-1.67-3.413 6.512 1.984 1.04 3.412-6.514zm-2.42 5.912h-1.156v2.24h1.155zm-.164 1.64 3.412-6.514L17.5 6.967l-3.411 6.513zm2.42-5.913h1.155v-2.24h-1.155zm2.651 3.39c0 .582-.133.794-.19.857l1.65 1.514c.59-.643.78-1.507.78-2.371zm-.191.857c-.051.056-.18.162-.574.162v2.24c.83 0 1.635-.245 2.225-.889zm-.574.162c-.424 0-.555-.112-.601-.162l-1.65 1.513c.595.65 1.415.888 2.25.888zm-.601-.162c-.055-.06-.187-.268-.187-.84h-2.24c0 .857.19 1.714.776 2.353zm-.187-.84c0-.568.133-.772.189-.832l-1.637-1.529c-.597.64-.791 1.5-.791 2.361zm.192-.836c.058-.062.195-.17.596-.17v-2.24c-.836 0-1.644.246-2.24.889zm.596-.17c.422 0 .54.113.574.151l1.677-1.483c-.59-.667-1.415-.908-2.251-.908zm.58.159c.057.063.185.27.185.83h2.24c0-.847-.187-1.692-.76-2.329zM16.134 9.48q.001-.328-.034-.63l-2.225.256q.019.151.019.374zm-.032-.61a2.3 2.3 0 0 0-.188-.739l-2.037.931-.012-.03.008.053zm-.188-.739a1.6 1.6 0 0 0-.649-.728l-1.132 1.932a.63.63 0 0 1-.256-.273zm-.625-.713a1.7 1.7 0 0 0-.914-.247v2.24a.54.54 0 0 1-.267-.09zm-.914-.247c-.26 0-.618.046-.949.267l1.242 1.863a.7.7 0 0 1-.218.098c-.05.012-.077.011-.075.011zm-.925.25c-.299.19-.49.452-.608.702l2.025.956a.6.6 0 0 1-.223.238zm-.61.705c-.116.25-.166.513-.19.734l2.226.243.011-.074-.002.007-.016.04zm-.19.734a6 6 0 0 0-.033.625h2.24q0-.207.019-.382zm-.033.625c0 .23.006.44.022.617l2.23-.202a5 5 0 0 1-.013-.415zm.022.62q.036.376.19.719l2.042-.92-.002-.007zm.182.7c.122.284.321.544.608.732l1.227-1.873c.118.077.19.18.223.259zm.646.756c.308.184.633.238.908.238V9.56c.007 0 .11.001.244.081zm.908.238c.275 0 .604-.055.914-.247L14.11 9.65a.54.54 0 0 1 .266-.09zm.914-.247c.304-.189.507-.456.63-.733l-2.047-.91a.6.6 0 0 1 .236-.26zm.633-.74c.099-.226.148-.462.173-.673l-2.224-.267-.01.067.009-.024zm.17-.651c.03-.213.042-.443.042-.68h-2.24c0 .17-.009.29-.02.37zm6.043 1.848q.001-.329-.034-.632l-2.224.257q.017.152.018.375zm-.031-.61a2.3 2.3 0 0 0-.188-.74l-2.037.932q-.015-.037-.013-.031l.008.053zm-.188-.74a1.6 1.6 0 0 0-.65-.727l-1.132 1.932a.63.63 0 0 1-.255-.273zm-.625-.713a1.7 1.7 0 0 0-.914-.247v2.24a.54.54 0 0 1-.267-.09zm-.914-.247c-.261 0-.618.046-.95.267l1.243 1.863a.7.7 0 0 1-.22.098c-.048.012-.076.012-.073.012zm-.925.251c-.3.188-.49.451-.609.701l2.026.957a.6.6 0 0 1-.224.237zm-.61.704c-.117.25-.167.513-.191.735l2.226.242.012-.074-.002.007-.017.04zm-.191.735a6 6 0 0 0-.033.624h2.24q0-.207.02-.381zm-.033.624c0 .23.006.44.022.618l2.23-.203a5 5 0 0 1-.012-.415zm.023.62q.035.376.19.719l2.042-.92-.003-.006zm.181.7c.122.284.322.544.608.732l1.228-1.873c.117.077.189.18.223.26zm.646.756c.308.185.634.238.909.238v-2.24c.006 0 .11.001.243.081zm.909.238c.275 0 .604-.055.914-.247l-1.181-1.903a.54.54 0 0 1 .267-.09zm.914-.247c.303-.188.506-.455.63-.733l-2.047-.91a.6.6 0 0 1 .236-.26zm.632-.739c.1-.227.148-.463.173-.674l-2.223-.267-.011.067q-.006.014.01-.024zm.17-.652q.044-.321.042-.68h-2.24c0 .17-.008.29-.02.37z" mask="url(#a)"/>
</svg>
