<svg width="68" height="69" viewBox="0 0 68 69" fill="none" xmlns="http://www.w3.org/2000/svg">
<g clip-path="url(#clip0_2370_36161)">
<path d="M46.9068 57.1617H55.0918C54.7333 53.7939 54.1417 50.636 53.1705 48.855C53.1705 48.855 45.1566 48.4593 46.3617 53.8902C46.3617 53.8902 46.5208 55.2066 46.9068 57.1617Z" fill="#E59375"/>
<path d="M52.4465 24.4378C52.6089 26.455 52.9921 28.4354 54.097 30.1822C54.4036 30.6668 54.7157 31.182 55.1419 31.5736C53.4933 31.9233 49.1539 31.9114 48.4923 29.4473C48.0596 27.8357 47.9654 26.1492 48.0232 24.4882C48.0747 22.9862 48.1088 21.3084 48.746 19.9201C49.3259 18.6577 51.3727 18.6745 52.1333 19.8308C52.5023 20.392 52.2956 21.082 52.3163 21.7182C52.3452 22.6204 52.3737 23.5327 52.4465 24.4378Z" fill="#5C1B1B"/>
<path d="M52.8138 30.2933C54.1639 30.2558 54.9047 31.4563 55.3267 32.6696C55.7704 33.9453 54.6288 37.503 53.6002 36.6271C51.5789 34.9058 50.5704 33.8701 50.5323 32.52C50.4946 31.1696 51.4636 30.3309 52.8138 30.2933Z" fill="#E59375"/>
<path d="M50.1193 42.6188C50.429 42.5626 51.7066 43.2223 51.7066 43.2223C51.7066 43.2223 53.3025 48.3505 53.3709 49.1306C53.4397 49.9098 48.0768 53.9468 42.0859 51.6481C42.0859 51.6481 44.8594 44.4262 45.0293 42.6478C45.1987 40.869 50.1193 42.6188 50.1193 42.6188Z" fill="#E79675"/>
<path d="M51.704 43.2225C51.704 43.2225 53.2334 47.8474 53.3682 49.1307C53.8457 53.6744 47.6978 55.5796 41.707 53.2811C41.707 53.2811 41.3183 47.0346 45.0267 42.6479C45.0267 42.6479 46.012 43.5465 51.704 43.2225Z" fill="#09111C"/>
<path d="M49.4481 57.1622C49.6052 56.0065 49.6866 55.291 49.6866 55.291L46.0436 56.652L41.7109 54.2734C41.7109 54.2734 41.7702 55.4291 41.8678 57.1622H49.4481Z" fill="#F7A483"/>
<path d="M43.5644 57.1621H48.1727C48.9798 56.716 49.5856 55.9927 49.7558 54.9765C50.4511 50.8256 47.0832 48.6258 43.4184 50.2622C43.4184 50.2622 41.3392 50.8621 41.7696 54.7143C41.8959 55.8456 42.6102 56.6686 43.5644 57.1621Z" fill="#F7A483"/>
<path d="M46.3376 30.0235H50.5077C50.3182 29.4161 49.9254 27.8445 50.5332 26.7751L46.3203 24.0088C46.3203 24.0088 47.0695 28.651 46.3376 30.0235Z" fill="#F7A483"/>
<path d="M50.2088 28.2002C50.1967 27.7354 50.2731 27.2327 50.5332 26.7751L46.3203 24.0088C46.3203 24.0088 46.6256 25.9005 46.6568 27.6261C48.1777 28.1097 48.8039 28.2972 50.2088 28.2002Z" fill="#E1876F"/>
<path d="M43.544 30.4166C41.5926 31.35 42.6402 33.5067 42.6402 33.5067L45.1771 42.7389C45.1771 42.7389 47.5471 43.7078 51.7061 43.2227C52.2838 42.396 53.4707 38.9325 53.8687 36.2881C54.1962 34.11 55.2136 31.9639 54.1056 30.7496C53.6803 30.284 50.4441 29.8194 50.4276 29.7431L46.6066 29.7275L43.544 30.4166Z" fill="#F7A483"/>
<path d="M51.1814 27.1535L51.4342 26.5385L52.0671 24.7233C52.1565 24.4345 52.2122 24.036 52.1262 23.7454C52.0234 23.3958 51.9582 22.8313 52.118 22.2116C52.5466 20.5524 51.8469 19.639 51.8469 19.639C50.9463 18.0473 48.6363 17.9375 48.6363 17.9375C45.7727 17.9407 45.3994 20.6942 45.3994 20.6942C44.8468 22.5108 46.2364 24.1124 46.239 24.1153C46.4151 24.3177 46.4189 24.6325 46.4963 24.8759C46.5791 25.1362 46.7113 25.3818 46.8798 25.596C47.258 26.0769 47.7592 26.5443 48.2837 26.8458C48.7811 27.1318 49.7566 27.4486 50.4591 27.4768C50.7507 27.4887 51.0366 27.5064 51.1814 27.1535Z" fill="#F7A483"/>
<path d="M46.5047 25.1978C46.5562 23.893 46.5849 23.9745 46.5849 23.9745C46.6349 23.5948 47.3404 24.4546 47.3505 23.9574C47.3951 21.6816 48.2756 20.642 48.6074 20.4833C49.508 20.0539 50.4401 19.9642 51.1664 20.1316C52.3056 20.394 52.1837 21.9215 52.1837 21.9215C53.447 16.3712 47.111 17.8434 47.111 17.8434C44.0286 18.4875 44.1966 21.3699 44.1966 21.3699C43.6672 24.4284 46.6076 26.3549 46.6076 26.3549L46.5047 25.1978Z" fill="#5C1B1B"/>
<path d="M46.7269 24.7641C46.6208 24.8375 46.4875 24.8759 46.3244 24.8642C45.8823 24.8358 45.536 24.403 45.5513 23.8991C45.567 23.3963 45.9364 23.0109 46.3781 23.0396C46.5878 23.0536 46.7751 23.1581 46.9132 23.3176C47.1144 23.5506 47.1002 23.9611 47.0357 24.2406C46.9844 24.4641 46.8857 24.6538 46.7269 24.7641Z" fill="#F8A07D"/>
<path d="M46.534 23.5173C46.5214 23.2516 45.9739 23.477 46.047 23.63C46.0897 23.7182 46.1804 23.7855 46.2506 23.8494C46.3472 23.9365 46.393 24.0144 46.4002 24.1465C46.4013 24.1614 46.4022 24.2076 46.3861 24.2174C46.3147 24.262 46.1007 23.9925 46.0541 23.9356C45.9619 23.8232 45.9576 23.6402 46.0115 23.5099C46.0681 23.3717 46.1642 23.31 46.3142 23.327C46.4343 23.3399 46.5563 23.3546 46.5416 23.5034C46.5409 23.5062 46.5344 23.5307 46.534 23.5173Z" fill="#E98B6F"/>
<path d="M46.3474 23.7825C46.4065 23.73 46.4572 23.779 46.5116 23.8226C46.5626 23.8639 46.5889 23.9202 46.5997 23.9829C46.6233 24.1222 46.5956 24.3049 46.5107 24.4209C46.4423 24.5142 46.3321 24.5679 46.2162 24.5587C46.0553 24.5462 46.0147 24.4015 46.0156 24.2648C46.0156 24.2289 46.0173 24.1423 46.0536 24.1214C46.0939 24.0989 46.1179 24.1603 46.1424 24.1872C46.1765 24.2229 46.2287 24.2391 46.2762 24.2456C46.3673 24.2578 46.4596 24.216 46.5206 24.1511C46.5315 24.1394 46.5417 24.1255 46.5474 24.1107C46.5426 24.2 46.5372 24.2192 46.5303 24.1698C46.5246 24.1469 46.5149 24.1255 46.5031 24.1052C46.4689 24.0419 46.4081 23.9966 46.3694 23.9354C46.3509 23.9076 46.3182 23.8098 46.3474 23.7825Z" fill="#E98B6F"/>
<path d="M49.3596 22.9477C49.3675 23.1069 49.2854 23.2396 49.1774 23.2445C49.0699 23.2493 48.9764 23.1247 48.9692 22.9657C48.9619 22.8065 49.0433 22.6739 49.1513 22.6691C49.2594 22.6641 49.3525 22.7889 49.3596 22.9477Z" fill="#3C2415"/>
<path d="M51.5703 22.7627C51.5685 22.9223 51.4792 23.0497 51.371 23.0484C51.263 23.0469 51.1771 22.9166 51.1797 22.7574C51.1816 22.5984 51.2708 22.4706 51.379 22.4722C51.4873 22.4737 51.573 22.6038 51.5703 22.7627Z" fill="#3C2415"/>
<path d="M48.4219 22.6859C48.8469 22.1307 49.9639 22.3482 49.9639 22.3482C49.9639 22.3482 50.0289 22.3478 50.0213 22.1491C50.0213 22.1491 50.0256 21.974 49.8844 21.9837C49.8844 21.9837 48.5153 21.7509 48.4219 22.6859Z" fill="#5C1B1B"/>
<path d="M52.1413 22.1351C52.1435 21.5207 50.9594 21.8477 50.9594 21.8477C50.8184 21.846 50.8324 22.021 50.8324 22.021C50.8364 22.2196 50.9016 22.2159 50.9016 22.2159C50.9016 22.2159 51.9748 21.9241 52.1255 22.1802C52.171 22.0529 52.1136 22.2032 52.1413 22.1351Z" fill="#5C1B1B"/>
<path d="M50.0781 24.5014C50.9007 24.4838 50.9564 24.2709 50.9564 24.2709L50.5707 23.3853C50.5707 23.3853 50.6253 24.2542 50.0781 24.5014Z" fill="#E98B6F"/>
<path d="M49.7106 24.969L51.2859 24.8664C51.3686 24.8622 51.4128 24.922 51.3829 25.0004C51.3829 25.0004 51.0765 25.8055 50.5659 25.8372C50.0549 25.8685 49.6519 25.1066 49.6519 25.1066C49.6168 25.0404 49.6451 24.9846 49.7106 24.969Z" fill="#9F4541"/>
<path d="M51.1378 25.4488C50.9988 25.6398 50.8061 25.8224 50.5683 25.8373C50.3293 25.8518 50.1146 25.6928 49.9531 25.5193C50.2374 25.1643 50.7918 25.1389 51.1378 25.4488Z" fill="#D45F5A"/>
<path d="M49.6943 24.9762C49.6995 24.9738 49.7038 24.9706 49.7097 24.9688L51.285 24.8662C51.3011 24.8658 51.3146 24.869 51.3277 24.8724C51.3749 24.9407 51.3294 25.0673 51.2049 25.1514C50.9663 25.2131 50.4185 25.3214 49.8381 25.2382C49.6943 25.1143 49.6359 25.0124 49.6943 24.9762Z" fill="white"/>
<path d="M46.745 24.8573C46.7372 25.0067 46.61 25.1218 46.4602 25.1141C46.3105 25.1068 46.1962 24.9793 46.2035 24.8297C46.2113 24.6801 46.338 24.5652 46.4877 24.5726C46.6375 24.5802 46.7523 24.7079 46.745 24.8573Z" fill="white"/>
<path d="M53.8712 30.4995C53.8712 30.4995 54.8947 30.4995 55.4747 33.0912C55.4747 33.0912 58.3136 41.7105 56.4928 42.2088C56.4928 42.2088 53.7742 41.6729 51.2155 34.8091C51.2155 34.8091 50.9813 30.6637 53.8712 30.4995Z" fill="#9698BC"/>
<path d="M51.5703 29.9697L53.3698 30.2929C53.3698 30.2929 54.6811 30.58 54.7248 31.7026C54.7248 31.7026 54.7982 33.829 53.6406 37.6748C53.6406 37.6748 51.7262 31.7739 51.5703 29.9697Z" fill="#9698BC"/>
<path d="M51.1128 29.8987L51.9241 30.0234C51.9241 30.0234 53.4975 33.0653 53.8691 36.2877C53.4711 38.932 52.6738 42.9361 51.7065 43.2223C48.4279 44.192 45.0054 42.6677 45.0054 42.6677L43.4375 36.4072C47.6488 34.7681 45.5206 29.9546 45.5206 29.9546L46.4052 29.7427L50.1269 33.5053L51.1128 29.8987Z" fill="#9698BC"/>
<path d="M52.7746 31.9756C52.7746 31.9756 54.42 34.2547 54.7065 35.4288C54.8954 36.2003 53.55 37.9384 52.4639 38.2448C51.8705 38.4123 51.8564 32.1291 52.7746 31.9756Z" fill="#4FA6C9"/>
<path d="M52.7746 31.9756C52.7746 31.9756 54.42 34.2547 54.7065 35.4288C54.8954 36.2003 53.55 37.9384 52.4639 38.2448C51.8705 38.4123 51.8564 32.1291 52.7746 31.9756Z" fill="#09111C"/>
<path d="M52.0484 30.0234C52.0484 30.0234 53.5475 33.0843 53.9191 36.3066C53.5212 38.951 52.6738 42.9361 51.7065 43.2223C48.4279 44.192 45.0054 42.6677 45.0054 42.6677L43.4375 36.4072C47.6488 34.7681 45.5206 29.9546 45.5206 29.9546L46.4052 29.7427L50.3427 35.3718L51.1128 29.8988L52.0484 30.0234Z" fill="#09111C"/>
<path d="M46.4043 29.7427L50.3421 35.3718L47.5097 34.6053C47.5097 34.6053 47.0987 34.2566 47.3599 33.8759L47.7496 33.1159L47.2306 32.9617C47.2306 32.9617 46.5493 32.881 46.4368 32.3262L46.0117 29.8368L46.4043 29.7427Z" fill="#222B35"/>
<path d="M51.1 29.9072L50.3438 35.372L51.8822 33.9427C51.8822 33.9427 52.5154 33.4282 51.9226 33.171L51.1897 32.9437L52.0495 32.1711C52.0495 32.1711 52.2284 31.9346 52.0495 31.4894L51.5329 29.9548L51.1 29.9072Z" fill="#222B35"/>
<path d="M49.5668 30.791L49.5198 32.9024L48.7422 32.1422L49.5668 30.791Z" fill="#7081AB"/>
<path d="M49.5659 30.7435C49.5659 30.7435 47.2072 29.7777 46.6221 28.8159L45.5195 29.9546L48.381 32.73L49.5659 30.7909" fill="#CDC5DA"/>
<path d="M51.6657 30.8508C51.6657 30.8508 51.4372 29.9665 50.3164 29.2192L50.4628 32.2676C50.4628 32.2676 51.0851 30.7085 51.6657 30.8508Z" fill="#CDC5DA"/>
<path d="M51.769 32.2673L51.667 30.8505C51.3249 30.7666 51.0187 31.2456 50.7695 31.6384L51.769 32.2673Z" fill="#7081AB"/>
<path d="M55.3465 57.1617C54.8718 53.7549 54.1695 50.3379 53.1477 48.4528C53.1477 48.4528 42.2514 47.4448 41.7436 51.5175L41.5039 57.1617H55.3465Z" fill="#09111C"/>
<path d="M42.6893 31.0541C42.6893 31.0541 42.2518 31.5107 41.8989 32.8189C41.8989 32.8189 40.1727 39.1297 41.4433 42.3367C41.4433 42.3367 41.8586 42.9878 42.9272 43.2776L46.3214 35.1116C46.3214 35.1116 47.7692 31.6928 45.4699 29.9248L43.5442 30.4164C43.5442 30.4164 42.9853 30.6285 42.6893 31.0541Z" fill="#9698BC"/>
<path d="M45.6746 37.876L44.4622 36.9185C44.4622 36.9185 42.6377 36.6509 41.7265 36.7661C41.7265 36.7661 41.4248 37.1848 43.7266 37.2491C43.7266 37.2491 42.1123 37.7645 41.5946 38.1482C41.5946 38.1482 41.5112 38.6259 42.9871 37.9321L43.6589 37.8827L42.0974 38.6623C42.0974 38.6623 42.1584 38.9595 43.5802 38.5733L45.0059 38.7294L45.6746 37.876Z" fill="#F7A483"/>
<path d="M53.4384 38.053L45.6284 37.1191C45.238 37.5961 44.8617 38.4618 45.0292 39.3683L55.0053 42.5323C55.0053 42.5323 57.6413 42.9999 56.946 39.8257C56.946 39.8257 55.8325 38.2074 53.4384 38.053Z" fill="#9698BC"/>
<path d="M53.4375 38.0531C53.4375 38.0531 52.0348 38.8095 51.5079 38.8698L50.6914 37.4605L51.807 36.7372L52.572 36.5609C52.572 36.5609 53.8302 36.2361 54.1615 37.9627L53.4375 38.0531Z" fill="#F7A483"/>
<path d="M43.0763 43.3204C43.0763 43.3204 40.9366 43.5162 41.473 41.1877C41.9358 39.8774 43.6385 39.3426 43.6385 39.3426L50.6918 37.2139C50.6918 37.2139 51.3628 37.4703 51.6614 39.1105C51.6614 39.1105 45.4931 43.3829 43.0763 43.3204Z" fill="#A1A3C1"/>
<path d="M47.4371 24.3751C47.1773 26.3823 47.1412 28.3989 47.8596 30.3373C48.0584 30.8749 48.2568 31.4437 48.5926 31.9152C46.9075 31.9152 42.6651 31.0027 42.5292 28.4546C42.4406 26.7884 42.6983 25.1192 43.0996 23.5062C43.4623 22.0477 43.8436 20.4135 44.7551 19.188C45.5844 18.0733 47.5831 18.5147 48.0871 19.8038C48.332 20.4294 47.9863 21.0613 47.8743 21.688C47.7154 22.5763 47.5539 23.475 47.4371 24.3751Z" fill="#5C1B1B"/>
<path d="M11.4273 57.1617L11.3644 57.0051L11.574 55.8515L10.9627 55.7056L10.8359 57.009L10.9026 57.1617H11.4273Z" fill="#CA8268"/>
<path d="M11.0305 57.1616L11.2529 56.2331L10.6513 56.0537L10.4805 57.1616H11.0305Z" fill="#CA8268"/>
<path d="M10.7855 57.1616L10.7277 56.872L11.2114 55.9492L11.4401 57.1509C11.4414 57.1547 11.4427 57.1578 11.4442 57.1616H11.9551L11.8979 56.0353L11.8405 55.1064L11.5376 53.3311L10.4867 53.4419L10.2014 55.1074L9.94821 56.4484L9.89453 56.7159L10.0452 57.1616H10.7855Z" fill="#E59375"/>
<path d="M14.44 42.1655C14.44 42.1655 11.8288 51.2183 11.5377 53.3312C11.5377 53.3312 10.6042 54.3702 10.4867 53.4421C10.252 51.5899 10.9817 41.9544 11.4776 41.2057C11.9732 40.4575 14.44 42.1655 14.44 42.1655Z" fill="#E59375"/>
<path d="M11.1102 42.8355C11.1102 42.8355 10.4424 47.9112 10.375 54.1008C10.375 54.1008 11.4977 54.3922 12.0459 54.153C12.0459 54.153 15.1166 45.776 14.7047 41.8679C14.7047 41.8679 11.886 40.3552 11.1102 42.8355Z" fill="#4B9EBF"/>
<path d="M23.3549 23.9256C23.2001 25.7263 22.5955 26.2246 23.2507 28.0609C23.8558 29.7572 25.3454 30.9487 25.6299 32.7964C25.8322 34.1085 25.6003 36.2732 24.7797 37.3802C23.5884 38.9868 20.6508 38.2666 18.986 38.0834C17.0928 37.8749 12.8967 37.9564 11.6455 36.1628C10.696 34.8023 11.683 32.2515 11.9694 30.7973C12.3334 28.9517 12.7183 27.1091 13.0467 25.2569C13.3455 23.5731 13.7618 20.8337 14.9382 19.4643C15.9371 18.3007 17.3162 18.1996 18.9691 18.4149C22.0947 18.8216 23.5481 21.6775 23.3549 23.9256Z" fill="#3F1901"/>
<path d="M13.9246 31.0415C12.5743 31.0039 11.4487 32.0672 11.4115 33.4178C11.3738 34.7679 12.1097 38.2513 13.1381 37.3753C15.1593 35.6539 16.1679 34.6183 16.2058 33.2683C16.2435 31.9178 15.2749 31.0791 13.9246 31.0415Z" fill="#E59375"/>
<path d="M12.0292 32.928L14.4736 32.5947L15.9549 34.6505C15.9549 34.6505 14.0935 42.5411 12.9721 44.064C11.7776 45.6859 11.4905 44.0142 11.2991 43.3595C11.2991 43.3595 11.2178 34.2777 12.0292 32.928Z" fill="#E59375"/>
<path d="M19.8895 57.1617C20.0983 56.2632 20.3224 55.283 20.5641 54.2095L13.8899 50.1123C13.8899 50.1123 12.9063 53.5765 12.4661 55.7692C12.3851 56.1729 12.3095 56.6436 12.2383 57.1617H19.8895Z" fill="#F7A483"/>
<path d="M19.9779 57.1615C20.261 55.6264 20.3804 54.6383 20.3804 54.6383C21.5854 49.2073 13.5713 49.6031 13.5713 49.6031C12.6727 51.2514 12.0993 54.0795 11.7344 57.1615H19.9779Z" fill="#010814"/>
<path d="M16.6236 43.3668C16.3139 43.3108 15.0359 43.9704 15.0359 43.9704C15.0359 43.9704 13.4401 49.0987 13.3718 49.8787C13.3029 50.6579 18.6658 54.6948 24.6568 52.3962C24.6568 52.3962 21.8832 45.1743 21.7133 43.3958C21.5439 41.617 16.6236 43.3668 16.6236 43.3668Z" fill="#E79675"/>
<path d="M15.034 43.9706C15.034 43.9706 13.5044 48.5955 13.3699 49.8789C12.8924 54.4223 19.0404 56.3277 25.031 54.0291C25.031 54.0291 25.4199 47.7828 21.7114 43.396C21.7114 43.396 20.7264 44.2944 15.034 43.9706Z" fill="#09111C"/>
<path d="M24.9166 57.162C24.9891 55.8528 25.0316 55.0215 25.0316 55.0215L21.1328 57.162H24.9166Z" fill="#09111C"/>
<path d="M20.0604 57.1619L17.0547 56.0391C17.0547 56.0391 17.1021 56.4544 17.1937 57.1619H20.0604Z" fill="#09111C"/>
<path d="M17.6482 57.162H24.1877C24.6121 56.7095 24.9006 56.1418 24.9765 55.4624C25.4068 51.6102 23.3277 51.0102 23.3277 51.0102C19.6627 49.3738 16.2951 51.5736 16.9901 55.7246C17.0858 56.2953 17.3196 56.7731 17.6482 57.162Z" fill="#09111C"/>
<path d="M20.4024 30.7715H16.2327C16.4221 30.1641 16.8148 28.5926 16.207 27.523L20.42 24.7568C20.42 24.7568 19.671 29.399 20.4024 30.7715Z" fill="#F7A483"/>
<path d="M16.5318 28.9481C16.5438 28.4833 16.4671 27.9806 16.207 27.523L20.42 24.7568C20.42 24.7568 20.1148 26.6484 20.0837 28.3741C18.5626 28.8578 17.9363 29.0452 16.5318 28.9481Z" fill="#E1876F"/>
<path d="M23.268 31.1319C25.1451 32.0496 24.1019 34.2549 24.1019 34.2549L21.5654 43.487C21.5654 43.487 19.1951 44.456 15.036 43.971C14.4587 43.1441 13.2714 39.6807 12.8737 37.0361C12.546 34.8582 11.5285 32.7122 12.6369 31.4978C13.0616 31.0322 16.298 30.5676 16.3147 30.4912H20.2101L23.268 31.1319Z" fill="#F7A483"/>
<path d="M15.5601 27.9016L15.3074 27.2865L14.6743 25.4714C14.5848 25.1824 14.5293 24.7841 14.615 24.4934C14.718 24.1437 14.7835 23.5792 14.6233 22.9597C14.1947 21.3003 14.8945 20.387 14.8945 20.387C15.7951 18.7954 18.1049 18.6855 18.1049 18.6855C20.9684 18.6888 21.3419 21.4423 21.3419 21.4423C21.8946 23.2587 20.505 24.8604 20.5024 24.8631C20.3265 25.0658 20.3222 25.3805 20.2454 25.6239C20.1623 25.8843 20.0299 26.1298 19.8616 26.344C19.4836 26.825 18.9821 27.2922 18.4574 27.5938C17.9603 27.8798 16.9845 28.1966 16.2823 28.2248C15.991 28.2367 15.7047 28.2544 15.5601 27.9016Z" fill="#F7A483"/>
<path d="M20.2365 25.9459C20.185 24.6409 20.1563 24.7225 20.1563 24.7225C20.1063 24.3428 19.4004 25.2025 19.3907 24.7054C19.3459 22.4296 18.4653 21.39 18.1335 21.2312C17.2329 20.802 16.301 20.7123 15.5746 20.8795C14.4356 21.142 14.5573 22.6695 14.5573 22.6695C13.2936 17.1192 19.6299 18.5914 19.6299 18.5914C22.7121 19.2355 22.5443 22.118 22.5443 22.118C23.0738 25.1765 20.1332 27.1029 20.1332 27.1029L20.2365 25.9459Z" fill="#3F1901"/>
<path d="M20.0156 25.5121C20.1212 25.5854 20.2549 25.6239 20.4181 25.6123C20.86 25.5838 21.2064 25.151 21.1908 24.6472C21.1754 24.1442 20.8058 23.759 20.3643 23.7876C20.1547 23.8015 19.9674 23.906 19.8291 24.0656C19.6279 24.2986 19.6424 24.709 19.7069 24.9887C19.7579 25.2121 19.8567 25.4018 20.0156 25.5121Z" fill="#F8A07D"/>
<path d="M20.2082 24.2654C20.2208 23.9997 20.7682 24.225 20.6947 24.3779C20.6525 24.4661 20.5616 24.5336 20.4916 24.5974C20.3945 24.6846 20.3492 24.7625 20.3418 24.8946C20.3409 24.9095 20.3399 24.9558 20.3561 24.9656C20.4275 25.0102 20.6413 24.7406 20.688 24.6836C20.7803 24.5714 20.7846 24.3882 20.7305 24.2579C20.6738 24.1198 20.5776 24.0581 20.428 24.075C20.3078 24.088 20.1859 24.1027 20.2004 24.2515C20.2011 24.2542 20.2075 24.2788 20.2082 24.2654Z" fill="#E98B6F"/>
<path d="M20.3928 24.5306C20.334 24.4781 20.2832 24.527 20.2289 24.5705C20.1781 24.612 20.1515 24.6682 20.1408 24.7309C20.1173 24.87 20.1451 25.053 20.2301 25.169C20.2982 25.2622 20.4083 25.3159 20.5243 25.3066C20.6852 25.2942 20.7256 25.1495 20.7246 25.0128C20.7246 24.9769 20.7234 24.8902 20.6869 24.8694C20.6468 24.8469 20.6225 24.9084 20.5981 24.9353C20.5637 24.9709 20.512 24.9872 20.464 24.9936C20.3729 25.0059 20.2808 24.9639 20.2199 24.8991C20.2092 24.8875 20.1987 24.8735 20.1933 24.8588C20.1978 24.9481 20.2035 24.9673 20.2102 24.9179C20.2161 24.8948 20.2256 24.8735 20.2375 24.8531C20.2714 24.7899 20.3323 24.7447 20.3711 24.6834C20.3895 24.6557 20.422 24.5578 20.3928 24.5306Z" fill="#E98B6F"/>
<path d="M17.3794 23.6959C17.3716 23.8548 17.4537 23.9878 17.5617 23.9926C17.669 23.9975 17.7625 23.8727 17.7698 23.7136C17.777 23.5547 17.6956 23.422 17.5875 23.4171C17.4796 23.4122 17.3863 23.5371 17.3794 23.6959Z" fill="#3C2415"/>
<path d="M15.168 23.5108C15.1704 23.6703 15.2594 23.7979 15.3676 23.7964C15.4756 23.795 15.5613 23.6648 15.5591 23.5056C15.557 23.3464 15.4677 23.2187 15.3596 23.2202C15.2516 23.2219 15.1659 23.3519 15.168 23.5108Z" fill="#3C2415"/>
<path d="M18.3151 23.434C17.8899 22.8788 16.7728 23.0963 16.7728 23.0963C16.7728 23.0963 16.708 23.096 16.7154 22.8972C16.7154 22.8972 16.7112 22.7221 16.8524 22.7318C16.8524 22.7318 18.2214 22.499 18.3151 23.434Z" fill="#3F1901"/>
<path d="M14.5547 22.6696C14.7498 22.2956 15.792 22.6532 15.792 22.6532C15.9325 22.6666 15.9002 22.8391 15.9002 22.8391C15.8751 23.0361 15.8107 23.0255 15.8107 23.0255C15.8107 23.0255 14.7742 22.6221 14.5974 22.8606C14.5655 22.7294 14.5748 22.7403 14.5547 22.6696Z" fill="#3F1901"/>
<path d="M15.5212 25.6138L17.0664 25.819C17.147 25.8302 17.1801 25.8892 17.1366 25.9499C17.1366 25.9499 16.6972 26.575 16.1959 26.5067C15.6952 26.4391 15.4401 25.7191 15.4401 25.7191C15.4178 25.6564 15.4551 25.6147 15.5212 25.6138Z" fill="white"/>
<path d="M16.6599 25.25C15.8372 25.2324 15.7812 25.0196 15.7812 25.0196L16.167 24.1338C16.167 24.1338 16.1124 25.0028 16.6599 25.25Z" fill="#E98B6F"/>
<path d="M20.0004 25.6053C20.008 25.7547 20.1352 25.8699 20.2849 25.8621C20.4346 25.8549 20.5493 25.7273 20.5416 25.5776C20.534 25.4281 20.4069 25.3132 20.2574 25.3207C20.1079 25.3283 19.9926 25.4558 20.0004 25.6053Z" fill="white"/>
<path d="M20.788 33.0947C20.7042 34.4427 21.4089 35.7666 22.7573 35.8497C24.1055 35.9336 27.6114 35.3171 26.7709 34.2596C25.1195 32.1805 24.1193 31.137 22.7713 31.0535C21.4225 30.9697 20.8712 31.7464 20.788 33.0947Z" fill="#F7A483"/>
<path d="M21.8164 35.0551L22.6743 32.7419L25.1852 32.4043C25.1852 32.4043 31.2674 37.7645 32.0826 39.4712C32.9499 41.2896 31.3401 40.755 30.6727 40.6148C30.6727 40.6148 22.6242 36.4067 21.8164 35.0551Z" fill="#F7A483"/>
<path d="M32.22 40.6417C32.22 40.6417 29.1895 44.9044 26.3673 47.3328C26.3673 47.3328 25.151 47.2118 25.5364 46.5483C26.1919 45.422 28.8884 40.1467 29.5512 39.0159C29.9242 38.3806 32.22 40.6417 32.22 40.6417Z" fill="#F7A483"/>
<path d="M25.5392 46.5484L24.1137 46.9119L23.504 46.1177C23.5116 46.9974 23.2252 47.6006 23.2252 47.6006C22.4298 48.4464 21.9504 49.1086 21.9504 49.1086C21.6383 49.3963 21.9857 49.556 21.9857 49.556C22.5699 49.3823 23.674 48.5223 23.674 48.5223C23.1218 49.093 22.0697 49.9074 22.0697 49.9074C21.8559 50.1899 22.2119 50.2747 22.2119 50.2747C23.0532 50.2536 24.0252 49.0056 24.0252 49.0056C23.673 49.4882 22.6711 50.324 22.6711 50.324C22.627 50.5758 22.7689 50.5608 22.7689 50.5608C23.4383 50.6464 24.37 49.4426 24.37 49.4426L24.0097 49.8842C23.4618 50.445 23.9661 50.5036 23.9661 50.5036L24.2985 50.2548C25.299 49.4793 25.6794 48.4917 25.6794 48.4917L26.37 47.3329L25.5392 46.5484Z" fill="#F7A483"/>
<path d="M32.3307 40.1019C32.3307 40.1019 32.5773 40.4581 31.7068 41.6452C31.7068 41.6452 28.4436 46.3535 26.3361 47.5013C26.3361 47.5013 25.4078 47.1302 25.2891 46.4381C25.2891 46.4381 28.0862 39.9999 29.8274 38.9033C29.8274 38.9033 31.2132 37.8859 32.3307 40.1019Z" fill="#4FA6C9"/>
<path d="M12.5043 31.4335C12.5043 31.4335 11.2408 31.749 11.2408 34.57C11.2408 34.57 10.2342 44.2932 11.9869 44.7668C11.9869 44.7668 14.1711 45.4604 15.7601 35.3477C15.7601 35.3477 15.3984 31.3891 12.5043 31.4335Z" fill="#4B9EBF"/>
<path d="M15.1706 30.7178L13.3716 31.0409C13.3716 31.0409 12.0602 31.3278 12.0166 32.4506C12.0166 32.4506 11.9428 34.577 13.1009 38.4228C13.1009 38.4228 15.0151 32.522 15.1706 30.7178Z" fill="#4FA6C9"/>
<path d="M15.6272 30.6468L14.8158 30.7716C14.8158 30.7716 13.2425 33.8135 12.8711 37.0356C13.2688 39.6802 14.0662 43.6843 15.0334 43.9705C18.3121 44.9401 21.7345 43.4159 21.7345 43.4159L23.3024 37.1553C19.091 35.5162 21.2191 30.7027 21.2191 30.7027L20.3348 30.4907L16.6129 34.2535L15.6272 30.6468Z" fill="#4FA6C9"/>
<path d="M21.2187 30.7031L23.302 31.0476C23.302 31.0476 24.3001 31.4012 24.8865 32.1162C24.8865 32.1162 33.2229 38.3411 32.3021 40.5835C32.3021 40.5835 32.0314 41.3403 31.1707 41.107L23.0987 37.2991C23.0987 37.2991 18.5969 35.2226 21.2187 30.7031Z" fill="#4FA6C9"/>
<path d="M13.9656 32.7236C13.9656 32.7236 12.3203 35.0027 12.0334 36.1768C11.845 36.9484 13.1903 38.6863 14.2763 38.9928C14.8698 39.1602 14.8837 32.8771 13.9656 32.7236Z" fill="#4FA6C9"/>
<path d="M13.9656 32.7236C13.9656 32.7236 12.3203 35.0027 12.0334 36.1768C11.845 36.9484 13.1903 38.6863 14.2763 38.9928C14.8698 39.1602 14.8837 32.8771 13.9656 32.7236Z" fill="#111924"/>
<path d="M14.6908 30.7721C14.6908 30.7721 13.1917 33.8329 12.8203 37.0552C13.2181 39.6997 14.0655 43.6848 15.0327 43.971C18.3114 44.9405 21.7339 43.4163 21.7339 43.4163L23.3017 37.1558C19.0903 35.5167 21.2184 30.7032 21.2184 30.7032L20.3342 30.4912L16.3964 36.1204L15.6265 30.6473L14.6908 30.7721Z" fill="#111924"/>
<path d="M20.3368 30.4912L16.3984 36.1204L19.2312 35.3539C19.2312 35.3539 19.6422 35.0053 19.381 34.6246L18.991 33.8646L19.5103 33.7103C19.5103 33.7103 20.1913 33.6297 20.3041 33.0749L20.7291 30.5855L20.3368 30.4912Z" fill="#222B35"/>
<path d="M15.642 30.6558L16.3983 36.1205L14.86 34.6911C14.86 34.6911 14.2269 34.1768 14.82 33.9195L15.5525 33.6922L14.6927 32.9195C14.6927 32.9195 14.5138 32.6831 14.6927 32.2379L15.2091 30.7032L15.642 30.6558Z" fill="#222B35"/>
<path d="M21.8793 42.8359L24.3879 46.9934C24.3879 46.9934 22.1579 49.1937 17.7704 49.5843C17.7704 49.5843 14.6977 49.6613 12.8203 47.9402L14.3878 42.8359H21.8793Z" fill="#111924"/>
<path d="M17.1719 31.5391L17.2194 33.6507L17.997 32.8904L17.1719 31.5391Z" fill="#4592B1"/>
<path d="M17.1719 31.4921C17.1719 31.4921 19.5309 30.5262 20.1162 29.5645L21.2182 30.7031L18.3573 33.4785L17.1719 31.5393" fill="#7AD0E2"/>
<path d="M15.0781 31.5987C15.0781 31.5987 15.307 30.7145 16.4278 29.9673L16.2808 33.0157C16.2808 33.0157 15.6589 31.4565 15.0781 31.5987Z" fill="#7AD0E2"/>
<path d="M14.9766 33.0155L15.0784 31.5985C15.4208 31.5147 15.7265 31.9937 15.976 32.3863L14.9766 33.0155Z" fill="#4592B1"/>
<path d="M15.9336 20.3703C17.8734 21.3088 18.9864 22.2053 18.6131 24.5266C18.2764 26.6197 18.1841 27.761 19.419 29.5504C20.5789 31.2304 20.7256 32.2159 19.8972 34.1223C19.2315 35.6531 18.5758 37.1231 20.4786 37.9258C24.0695 39.4408 27.1865 36.4958 25.6799 32.768C25.0043 31.0968 23.5139 30.0104 22.7499 28.4101C21.9753 26.7888 22.5688 25.3437 22.6307 23.6615C22.7345 20.8487 18.7045 16.9758 16.4332 19.8121C16.2429 20.05 16.0863 20.3441 15.946 20.6161L15.9336 20.3703Z" fill="#3F1901"/>
<path d="M41.5081 34.2646L42.2898 34.435C42.2898 34.435 44.428 43.6351 43.6235 45.8191C42.8193 48.0034 41.5261 45.8408 41.122 45.6433C40.7186 45.4458 37.1445 35.3217 37.1445 35.3217L41.5081 34.2646Z" fill="#E59375"/>
<path d="M44.2002 44.6677L42.7946 33.9828C41.9577 31.1717 38.8689 32.2098 38.8689 32.2098C36.5513 33.069 36.9199 34.8923 36.9199 34.8923L40.0933 45.8707C40.0933 45.8707 40.6944 47.5376 42.8957 47.3159C42.8957 47.3159 44.4983 46.9328 44.2002 44.6677Z" fill="#001940"/>
<path d="M39.9878 48.3134L42.1333 35.1988C42.1333 35.1988 42.8728 33.2274 41.3941 32.2419L35.7583 29.5928H31.7834L25.0078 33.5973L29.4488 48.3134H39.9878Z" fill="#F7A483"/>
<path d="M39.9708 57.162L39.9864 48.3135H29.4474C29.4474 48.3135 28.2718 51.0017 27.9531 57.162H39.9708Z" fill="#00264E"/>
<path d="M35.4414 57.1619C35.2824 55.1557 33.6495 53.5846 31.6692 53.5992C29.7066 53.6139 28.1081 55.1794 27.9531 57.1619H35.4414Z" fill="#00264E"/>
<path d="M34.0188 57.162C33.0856 56.2575 31.5347 55.6826 29.1094 57.162H34.0188Z" fill="#00264E"/>
<path d="M39.9119 57.1624C39.6167 55.1937 38.5137 53.7366 36.5566 53.9363C34.828 54.1126 33.4982 55.4727 33.2383 57.1624H39.9119Z" fill="#00264E"/>
<path d="M39.065 57.1622C38.2846 56.934 37.1187 56.74 36.1016 57.1622H39.065Z" fill="#00264E"/>
<path d="M25.597 35.2095L24.8245 35.4159C24.8245 35.4159 23.6195 44.6635 24.5242 46.8079C25.4278 48.9525 26.278 46.8253 26.672 46.6095C27.0664 46.3932 30.005 36.0644 30.005 36.0644L25.597 35.2095Z" fill="#F7A483"/>
<path d="M27.6739 46.5264L30.2056 35.6353C29.6833 32.6897 26.8794 32.8972 26.8794 32.8972C24.4181 33.1208 24.2973 34.9768 24.2973 34.9768L24.1345 46.0537C24.1345 46.0537 23.9719 47.9469 25.3987 47.8463C25.3987 47.8463 27.4414 47.5273 27.6739 46.5264Z" fill="#001940"/>
<path d="M31.7617 26.6963V30.9447H36.2545C36.2545 30.9447 35.1497 29.2605 35.7025 26.6963H31.7617Z" fill="#F7A483"/>
<path d="M34.041 30.3042C34.4459 30.5645 35.3064 31.119 35.7976 30.7947C35.9296 30.7074 35.9905 30.5928 36.0107 30.4653C35.7217 29.7924 35.3242 28.4505 35.7025 26.6963H31.7617V27.0815C32.2537 28.325 32.8842 29.5583 34.041 30.3042Z" fill="#E1876F"/>
<path d="M31.6548 26.7557C31.6548 26.7557 30.8902 26.4237 30.0245 24.5313C30.0245 24.5313 28.1451 22.2934 29.4773 19.7529C29.4773 19.7529 30.2646 17.6046 34.0789 18.2058C34.0789 18.2058 34.4218 23.9638 31.6548 26.7557Z" fill="#F8A07D"/>
<path d="M36.3545 27.9046L36.6089 27.2387C36.6089 27.2387 37.311 24.7602 37.311 24.7597C37.3989 24.4481 37.4043 24.031 37.3476 23.7106C37.2859 23.3621 37.2467 22.998 37.3374 22.6304C37.7804 20.8479 36.8668 19.8361 36.8668 19.8361C35.8601 18.155 33.3821 18.0991 33.3821 18.0991C30.3143 18.1788 29.9878 21.1381 29.9878 21.1381C29.4443 23.0987 30.9754 24.7778 30.9783 24.7812C31.1008 24.915 31.0215 25.5629 31.0545 25.7484C31.198 26.5389 31.9401 27.0404 32.5995 27.3894C33.3243 27.7725 34.2021 28.1823 35.0203 28.2765C35.3312 28.3122 36.2088 28.2866 36.3545 27.9046Z" fill="#F7A483"/>
<path d="M35.7524 24.1601L34.8984 24.4197C34.8984 24.4197 36.0134 24.5713 36.08 24.2495C36.08 24.2495 35.9571 23.6022 35.8183 22.9873C35.8183 22.9873 35.8788 24.1217 35.7524 24.1601Z" fill="#E98B6F"/>
<path d="M34.3894 22.8605C34.3944 23.0362 34.3006 23.1809 34.1815 23.1844C34.0629 23.1878 33.9618 23.0482 33.9572 22.8726C33.9525 22.6967 34.0451 22.5521 34.164 22.5484C34.2831 22.5451 34.3846 22.6851 34.3894 22.8605Z" fill="#3C2415"/>
<path d="M36.8033 22.7627C36.8152 22.9385 36.7276 23.0863 36.6082 23.0944C36.4896 23.1022 36.3835 22.9667 36.3721 22.7911C36.3605 22.6154 36.4478 22.4669 36.5669 22.4593C36.6856 22.4516 36.7921 22.5875 36.8033 22.7627Z" fill="#3C2415"/>
<path d="M34.6604 22.283C34.7363 22.3051 34.7634 22.2022 34.7634 22.2022C34.7952 22.1032 34.7717 22.0157 34.7717 22.0157C34.7454 21.942 34.6863 21.9154 34.6863 21.9154C34.4886 21.8727 34.0966 21.8939 33.7608 21.9676C33.5748 22.0082 33.2693 22.1219 33.2379 22.2883C33.229 22.338 33.2175 22.4242 33.2736 22.4437C33.2736 22.4437 33.9143 22.2958 34.6604 22.283Z" fill="#602A05"/>
<path d="M37.4005 22.2107C37.1827 22.1982 36.7975 22.1903 36.3224 22.244C36.249 22.2752 36.2102 22.1768 36.2102 22.1768C36.1656 22.0827 36.1771 21.9931 36.1771 21.9931C36.1935 21.9168 36.249 21.8825 36.249 21.8825C36.4396 21.8145 36.7087 21.7869 37.0514 21.8165C37.1539 21.8257 37.3304 21.8526 37.4462 21.8998C37.4462 21.8998 37.4645 21.9654 37.4005 22.2107Z" fill="#602A05"/>
<path d="M36.325 25.1157C36.3929 25.1241 36.4285 25.176 36.3996 25.2447C36.3996 25.2447 36.0713 26.0377 35.5438 26.0626C35.0163 26.0877 34.6131 25.3305 34.6131 25.3305C34.5737 25.2571 34.6126 25.1937 34.6978 25.1886C34.6978 25.1886 35.6083 25.1356 36.325 25.1157Z" fill="white"/>
<path d="M28.7193 47.9573C28.7286 48.3942 28.0651 52.9655 28.3436 53.0238C28.3455 53.0243 35.9275 54.7716 39.9715 53.0238L39.9878 48.3135L42.1333 35.1989C42.1333 35.1989 42.8728 33.2274 41.3942 32.242L35.7583 29.5928L36.1388 30.7355L35.3239 33.0527L31.7835 29.5928L25.0078 33.5973C25.3863 34.852 25.7627 36.1074 26.1412 37.3623C26.84 39.6752 27.5197 41.9951 28.2392 44.3018C28.2392 44.3018 28.8347 46.8038 28.7193 47.9573Z" fill="#95D7E3"/>
<path d="M34.8328 30.4175L34.7857 32.5289L34.0078 31.7685L34.8328 30.4175Z" fill="#3EAEC6"/>
<path d="M35.8218 33.8223C35.8218 33.9888 35.6868 34.1237 35.5205 34.1237C35.3538 34.1237 35.2188 33.9888 35.2188 33.8223C35.2188 33.6562 35.3538 33.5215 35.5205 33.5215C35.6868 33.5215 35.8218 33.6562 35.8218 33.8223Z" fill="#CFEAE6"/>
<path d="M35.8218 39.2937C35.8218 39.4597 35.6868 39.5946 35.5205 39.5946C35.3538 39.5946 35.2188 39.4597 35.2188 39.2937C35.2188 39.1267 35.3538 38.9922 35.5205 38.9922C35.6868 38.9922 35.8218 39.1267 35.8218 39.2937Z" fill="#CFEAE6"/>
<path d="M35.8218 44.7637C35.8218 44.9307 35.6868 45.0654 35.5205 45.0654C35.3538 45.0654 35.2188 44.9307 35.2188 44.7637C35.2188 44.5978 35.3538 44.4629 35.5205 44.4629C35.6868 44.4629 35.8218 44.5978 35.8218 44.7637Z" fill="#CFEAE6"/>
<path d="M35.8218 50.235C35.8218 50.401 35.6868 50.5363 35.5205 50.5363C35.3538 50.5363 35.2188 50.401 35.2188 50.235C35.2188 50.0685 35.3538 49.9336 35.5205 49.9336C35.6868 49.9336 35.8218 50.0684 35.8218 50.235Z" fill="#CFEAE6"/>
<path d="M34.8359 32.7695V53.5324" stroke="#74CEE2" stroke-width="0.163073" stroke-miterlimit="10"/>
<path d="M39.9245 53.4568C39.9245 53.4568 36.0516 55.2712 28.126 53.4169C27.9957 53.3858 28.0505 53.0479 28.0505 53.0479L28.126 52.2847C28.1607 52.0402 28.2971 52.0518 28.2971 52.0518C28.2989 52.0522 35.8804 53.7994 39.9245 52.0518C39.9245 52.0518 40.0877 52.0233 40.0945 52.2681V53.2194C40.0945 53.2194 40.0945 53.4093 39.9245 53.4568Z" fill="#471F08"/>
<path d="M35.9933 54.0326C35.9933 54.1534 35.8979 54.2515 35.7793 54.2515H34.2368C34.1191 54.2515 34.0234 54.1534 34.0234 54.0326V52.9217C34.0234 52.8009 34.1191 52.7026 34.2368 52.7026H35.7793C35.8979 52.7026 35.9933 52.8009 35.9933 52.9217V54.0326Z" stroke="#BCBEC0" stroke-width="0.266787" stroke-miterlimit="10"/>
<path d="M34.0234 53.4072H34.8397" stroke="#BCBEC0" stroke-width="0.266787" stroke-miterlimit="10"/>
<path d="M34.8336 30.37C34.8336 30.37 32.3473 29.4044 31.762 28.4429L31.0273 29.843L33.6484 32.3565L34.8336 30.4176" fill="#7AD0E2"/>
<path d="M28.4351 21.9597C29.437 24.9809 30.923 26.0679 30.923 26.0679C30.923 26.0679 30.5144 23.7684 31.7299 24.0832L31.9397 24.0716C31.9397 24.0716 31.5212 22.7236 32.3875 22.0582C31.9768 21.5301 32.3105 20.4753 32.3938 20.3244C32.8139 19.5655 34.0265 19.889 34.7358 19.6883C35.2844 19.5327 36.6488 19.301 36.9632 19.9641C39.3448 19.8956 38.1419 17.0089 38.1419 17.0089C38.079 17.863 37.3697 18.0559 37.3697 18.0559C38.125 17.1453 37.1118 15.4858 37.1118 15.4858C36.0815 16.3115 33.3775 16.4803 33.3775 16.4803C31.433 16.4194 30.9517 17.6653 30.9517 17.6653C30.9517 17.6653 27.3339 18.3769 28.4351 21.9597Z" fill="#602A05"/>
<path d="M31.4345 25.0702C31.3259 25.1621 31.1837 25.219 31.0029 25.2246C30.5136 25.2399 30.0869 24.8016 30.0495 24.2456C30.0124 23.6908 30.3774 23.2279 30.866 23.2123C31.0976 23.2052 31.3157 23.2996 31.4845 23.4605C31.7303 23.6953 31.7587 24.1474 31.7182 24.4622C31.6852 24.7137 31.5974 24.9325 31.4345 25.0702Z" fill="#F7A483"/>
<path d="M31.0886 23.7207C31.0461 23.43 30.4695 23.7365 30.5658 23.8965C30.6223 23.9892 30.7286 24.0532 30.8131 24.1157C30.9289 24.2023 30.9868 24.2823 31.0093 24.4265C31.0125 24.4432 31.0177 24.4937 31.0013 24.5066C30.9275 24.5632 30.6641 24.2891 30.6061 24.2322C30.4927 24.1191 30.4686 23.9173 30.5134 23.7685C30.5615 23.6103 30.6605 23.5319 30.8278 23.5347C30.9604 23.536 31.0957 23.5389 31.0957 23.704C31.0953 23.7079 31.0907 23.7355 31.0886 23.7207Z" fill="#E98B6F"/>
<path d="M30.9147 24.0324C30.9732 23.9679 31.034 24.016 31.0993 24.0587C31.1596 24.0983 31.1954 24.1574 31.2133 24.2262C31.2543 24.3761 31.2427 24.5799 31.162 24.7163C31.0969 24.8267 30.9821 24.8976 30.8532 24.9001C30.675 24.9026 30.6148 24.7484 30.601 24.598C30.5972 24.5581 30.5893 24.4627 30.6278 24.4362C30.6691 24.4079 30.7025 24.4719 30.7322 24.4989C30.7733 24.5353 30.8324 24.5467 30.885 24.549C30.987 24.553 31.0842 24.497 31.1446 24.4185C31.1548 24.4047 31.1639 24.388 31.1693 24.3715C31.1736 24.4699 31.1693 24.4926 31.1563 24.4385C31.147 24.4136 31.1351 24.3912 31.1195 24.3709C31.0756 24.3044 31.0035 24.2607 30.955 24.1983C30.9312 24.1691 30.8855 24.0654 30.9147 24.0324Z" fill="#E98B6F"/>
<path d="M26.5952 57.1621H33.292L33.6712 40.8451L30.6577 30.2583L25.0078 33.5974L27.9381 46.7065L26.5952 57.1621Z" fill="#001940"/>
<path d="M30.6584 30.2583L33.672 40.8451L33.6592 41.348L29.8637 37.4628C29.8637 37.4628 29.4648 36.7885 30.0049 36.3894L30.9014 35.5316L30.2619 35.0731C30.2619 35.0731 29.365 34.6381 29.474 33.8224L29.7307 30.757L30.6584 30.2583Z" fill="#002952"/>
<path d="M41.7348 57.1622L41.1895 45.6967L42.3181 34.4854C42.7173 32.4616 40.7643 31.946 40.7643 31.946L37.3321 30.333L36.8516 40.5598L38.0913 57.1623H41.7348V57.1622Z" fill="#001940"/>
<path d="M36.9357 30.4773C36.9357 30.4773 36.7067 29.5928 35.5859 28.8457L35.7328 31.8942C35.7328 31.8942 36.3545 30.3349 36.9357 30.4773Z" fill="#7AD0E2"/>
<path d="M37.0344 31.8943L36.9328 30.4774C36.5904 30.3936 36.2845 30.8727 36.0352 31.2656L37.0344 31.8943Z" fill="#3EAEC6"/>
<path d="M34.5919 31.1811L34.4999 31.0098L33.875 31.9691L34.412 32.1607L34.5919 31.1811Z" fill="#004788"/>
<path d="M36.0391 31.2656L36.2143 30.9971C36.2143 30.9971 36.8824 31.5581 36.1809 32.1606C36.1809 32.1606 36.1812 31.6641 36.0391 31.2656Z" fill="#004788"/>
<path d="M34.59 31.1812C34.59 31.1812 35.1199 31.652 36.0365 31.2658C36.237 31.5207 36.2363 31.8454 36.1783 32.1607L35.7035 33.14H35.0402L34.4102 32.1607C34.4102 32.1607 34.3451 31.9445 34.59 31.1812Z" fill="#0059A5"/>
<path d="M35.0437 33.1396L34.5078 47.1528L35.6265 49.3295L36.5394 47.1639L35.707 33.1396H35.0437Z" fill="#004788"/>
<path d="M37.3317 30.333L38.2161 30.7492L38.8554 33.7007C38.8554 33.7007 39.1755 34.4648 38.7118 34.6648L37.8781 35.1511L39.0535 35.8949C39.0535 35.8949 39.6722 36.2826 39.2916 36.8534L36.9337 41.4566L36.8594 40.6697L37.3317 30.333Z" fill="#002952"/>
<path d="M31.3346 42.0209L29.9563 40.9326C29.9563 40.9326 27.8823 40.6284 26.8465 40.7592C26.8465 40.7592 26.5038 41.2355 29.1198 41.3085C29.1198 41.3085 27.285 41.8943 26.6963 42.3306C26.6963 42.3306 26.6016 42.8735 28.2796 42.085L29.0432 42.0289L27.2679 42.9149C27.2679 42.9149 27.3372 43.2528 28.9537 42.8137L30.5745 42.9916L31.3346 42.0209Z" fill="#F7A483"/>
<path d="M40.1575 42.2232L31.2784 41.1611C30.8344 41.7032 30.4068 42.6877 30.5973 43.7184L41.9388 47.3154C41.9388 47.3154 44.9351 47.8468 44.1449 44.2383C44.1449 44.2383 42.8792 42.3983 40.1575 42.2232Z" fill="#00153B"/>
<path d="M40.1571 42.2229C40.1571 42.2229 38.562 43.0828 37.9635 43.151L37.0352 41.5491L38.3033 40.7264L39.1733 40.5261C39.1733 40.5261 40.6033 40.1571 40.9801 42.1198L40.1571 42.2229Z" fill="#F7A483"/>
<path d="M24.2834 45.3297C23.7469 48.5739 26.3649 48.429 26.3649 48.429L38.1374 43.4246C37.7983 41.5603 37.0354 41.2686 37.0354 41.2686L26.7454 43.2319C26.7454 43.2319 24.8095 43.8403 24.2834 45.3297Z" fill="#002952"/>
</g>
<defs>
<clipPath id="clip0_2370_36161">
<rect width="62" height="51.6756" fill="white" transform="translate(2.5 5.5)"/>
</clipPath>
</defs>
</svg>
