<svg width="75" height="68" viewBox="0 0 75 68" fill="none" xmlns="http://www.w3.org/2000/svg">
<g clip-path="url(#clip0_2370_34669)">
<path d="M32.2153 28.9884C31.7517 25.7893 33.201 17.2297 33.6526 15.2652C34.5799 11.2316 35.5534 11.927 36.898 11.5562L41.6732 14.6161C42.4202 15.6982 42.412 17.3573 42.4151 18.6032C42.4187 20.083 43.7378 18.8473 43.6205 20.3186C43.5225 21.5475 43.888 29.5194 44.4086 29.7765C43.8501 30.1656 32.5208 31.0966 32.2153 28.9884Z" fill="#301F23"/>
<path d="M30.8711 30.6571C31.3201 29.138 30.931 27.1974 32.4768 26.9724C33.074 26.8855 34.15 26.7128 35.0091 26.4157C35.0047 26.4035 35 26.3912 34.9957 26.379C35.0278 26.3838 35.0586 26.3864 35.0891 26.3875C35.2916 26.3144 35.4799 26.2339 35.6457 26.1453C36.3715 25.3775 36.3602 23.0127 36.4344 22.3452C36.4456 22.2466 36.4567 22.1399 36.4675 22.0273C36.5474 21.1507 36.5869 19.9046 36.2014 19.2466L40.5019 21.2983L41.026 21.5479C41.0021 21.6083 40.979 21.6706 40.9579 21.7356C40.7499 22.3595 40.6513 23.1812 40.6784 23.869C40.679 23.8759 40.679 23.8829 40.68 23.8898C40.68 23.8956 40.6805 23.9015 40.6815 23.9079C40.6815 23.9095 40.6815 23.9105 40.6821 23.9116C40.6955 24.0401 40.7472 24.3131 40.8314 24.6501C40.8987 24.9167 40.9861 25.2234 41.0912 25.53L41.1103 25.5283C41.6535 26.5603 43.1939 26.76 44.388 27.4496C44.9524 27.7755 44.6116 29.5551 44.6873 30.2862C44.9653 32.9752 32.6787 32.388 30.8711 30.6571Z" fill="#FFB278"/>
<path d="M40.6837 23.9117C40.6971 24.0402 40.7487 24.3132 40.833 24.6502C39.8206 26.4846 36.9497 24.9353 36.3436 22.5437C36.287 22.3204 36.5641 22.2469 36.4692 22.0273C36.5491 21.1507 36.5886 19.9046 36.2031 19.2466L40.5036 21.2983L40.9596 21.7356C40.7516 22.3595 40.653 23.1812 40.6801 23.869C40.6807 23.8759 40.6807 23.8829 40.6817 23.8898C40.6817 23.8961 40.6822 23.9021 40.6832 23.9079C40.6831 23.9096 40.6831 23.9106 40.6837 23.9117Z" fill="#E5804E"/>
<path d="M24.4007 35.6715C24.7661 35.6938 25.0585 36.9696 24.957 38.3837C24.5273 44.3658 26.2607 50.6558 28.5125 50.7804C30.0667 50.8661 31.4987 50.4313 32.9948 50.2858C33.5938 50.2278 34.1807 50.2126 34.7627 50.1916C35.5574 50.1629 36.3422 50.1225 37.137 49.9464C37.2552 49.92 37.4374 49.8693 37.5542 49.8374L35.3283 27.4426C34.3653 26.7388 34.3264 26.3786 33.0237 26.3531C31.9304 26.3313 30.2822 26.5483 29.1992 26.8399C28.4745 27.0351 27.7851 27.2599 27.1899 27.5579C26.3003 28.0035 25.6202 28.6122 25.3443 29.5288C24.8652 31.1188 24.3312 33.0985 24.4007 35.6715Z" fill="#601E13"/>
<path d="M24.4007 35.6715C24.7661 35.6938 25.0585 36.9697 24.957 38.3838C24.5273 44.3659 26.2607 50.6558 28.5125 50.7804C30.0667 50.8662 31.4987 50.4314 32.9948 50.2858C33.5938 50.2279 34.1807 50.2126 34.7627 50.1917C35.059 49.537 35.122 48.8908 34.7887 48.3423C34.4405 47.7702 33.5387 47.4456 33.0245 47.046C32.4243 46.5802 31.8804 46.0275 31.3393 45.4952C28.9906 43.184 28.9239 39.7352 28.9239 36.5704C28.9239 34.3196 28.9066 31.8772 28.3676 29.7043C28.1496 28.8266 27.921 28.0454 27.1899 27.5581C26.3003 28.0037 25.6202 28.6124 25.3443 29.529C24.8652 31.1188 24.3312 33.0985 24.4007 35.6715Z" fill="#822316"/>
<path d="M44.4506 58.5248C44.5277 57.8501 44.3052 57.0605 44.1382 56.4015C43.0897 56.5809 43.875 54.6364 44.091 54.238C44.0618 54.1111 44.0141 54.2197 43.9435 54.1699L45.1256 53.6831C45.548 54.5446 46.0753 55.7313 46.1533 56.6733C46.2051 57.2991 45.6863 59.3478 45.2646 59.7399C44.8835 59.5834 44.2678 59.8263 43.9229 59.6146C43.6798 59.4654 43.3934 58.7435 43.3281 58.495C43.6927 58.3485 44.092 58.4165 44.4506 58.5248Z" fill="#FFB278"/>
<path d="M41.912 27.3049C42.9261 26.3268 45.3951 26.8537 45.5305 31.7446C45.5472 32.3496 45.0886 42.2618 45.0823 43.0129C45.05 46.7958 45.4108 53.76 45.542 55.0734C44.8497 54.9878 44.5567 55.167 43.8618 55.1069C43.3925 52.8011 39.66 29.477 41.912 27.3049Z" fill="#FFB278"/>
<path d="M30.2194 31.8625C30.285 32.1421 30.4913 34.484 30.6543 37.4505C30.7877 39.8745 30.8924 42.7158 30.8686 45.1911C30.8551 46.6029 30.7991 47.8959 30.683 48.9237L43.0154 48.7383C42.591 48.173 42.503 46.9532 42.5814 44.802C42.6119 43.9711 42.667 43.0017 42.7372 41.877C42.8584 39.9369 43.2238 38.6911 43.6371 37.6455C43.7154 37.4473 43.7956 37.2563 43.8759 37.0695C44.2338 36.2361 44.5992 35.478 44.855 34.4993C44.9347 34.1949 45.0036 33.8687 45.0583 33.5126C45.4263 31.1207 45.5191 27.69 44.7771 27.319L41.5318 26.021C41.4217 27.3148 40.0974 28.3959 39.2136 28.3392C37.452 28.2257 36.6172 27.0408 35.6432 26.1455C35.3985 25.9207 33.0062 26.2997 30.2336 27.5925C29.9238 27.7368 29.2924 28.5245 30.2194 31.8625Z" fill="#F5DFD4"/>
<path d="M42.2188 37.8142C42.716 37.7959 43.2067 37.7569 43.637 37.6452C44.2973 37.4736 44.8157 37.1311 44.9969 36.4294C45.0828 36.0982 45.0939 35.6875 45.0091 35.1767C44.9841 35.0255 44.9288 34.7905 44.8551 34.4992C44.5459 33.2749 43.9132 31.0562 43.8485 29.8984L42.3591 37.1325L42.2188 37.8142Z" fill="#F5DFD4"/>
<path d="M43.9981 29.1753L43.8492 29.8987C43.828 29.5203 43.867 29.2549 43.9981 29.1753Z" fill="#F5DFD4"/>
<path d="M30.3762 45.1708C30.5409 45.1742 30.7057 45.1815 30.8708 45.1915C32.1307 45.2686 33.3914 45.5198 34.6576 45.6074C37.0685 45.7738 39.0148 45.6145 41.3736 45.0755C41.8064 44.9764 42.2186 44.9053 42.5836 44.8023C42.6141 43.9714 42.6692 43.002 42.7394 41.8773C42.8606 39.9372 43.226 38.6914 43.6393 37.6458C44.2996 37.4742 44.8179 37.1317 44.9992 36.43C44.8108 36.6151 44.6113 36.8014 44.4275 36.8831C44.2496 36.9619 44.0658 37.0237 43.8783 37.0699C43.3917 37.1906 33.835 39.0294 31.0182 35.5576C30.8734 36.1839 30.7535 36.8149 30.6565 37.4511C30.2754 39.9505 30.2424 42.5265 30.3762 45.1708Z" fill="#E2C5B7"/>
<path d="M43.7759 26.0108C44.8796 26.643 45.338 27.3543 45.4148 27.8155C45.7525 29.842 45.5467 32.0519 45.3274 33.9642C45.1147 35.8182 44.6861 37.6686 44.1204 39.1746C43.8334 39.939 43.3063 40.8002 42.8025 41.4135C42.8348 40.4029 42.968 39.6427 42.9881 38.6318C43.5552 37.1296 43.9434 35.0459 44.0837 33.8221C44.2929 31.9991 44.8573 29.7984 44.1805 28.0407C43.5783 26.477 41.5345 26.3767 41.2741 25.8434C41.2595 25.8132 41.1236 25.4482 41.1172 25.4151C42.1857 25.1626 43.0368 25.5874 43.7759 26.0108Z" fill="#822316"/>
<path d="M25.2378 89.0779C31.543 90.5615 41.3519 91.0204 48.3411 89.0497C48.4963 85.9916 47.6817 78.1324 46.62 69.7663C45.1397 58.103 43.1787 45.4549 42.6928 43.46C42.6928 43.46 40.7001 44.371 38.3812 44.4336C36.5193 44.4841 33.3725 44.288 31.7755 44.1753C31.1653 44.1327 30.7814 44.102 30.7814 44.102C26.1453 55.9707 25.1025 82.462 25.2378 89.0779Z" fill="#617695"/>
<path d="M30.149 44.5441C31.0029 44.5441 31.7759 44.2688 32.4565 43.7205C33.4817 42.8946 34.2506 41.4728 34.7415 39.4947C35.1192 37.9733 35.3188 36.1353 35.3037 34.3194C35.2881 32.4465 35.2228 30.2879 34.6404 28.3708C34.5077 27.9343 34.0727 26.8673 32.9001 26.3877C31.8499 25.9582 30.568 26.1493 29.0898 26.9555L29.6894 28.0545C30.8048 27.446 31.7513 27.2701 32.4261 27.5463C33.1207 27.8304 33.3798 28.5278 33.4427 28.7347C33.9767 30.4922 34.0373 32.5443 34.052 34.3298C34.0768 37.3073 33.4682 41.298 31.6711 42.7457C31.0395 43.2545 30.307 43.4053 29.432 43.2071L29.1554 44.4278C29.4975 44.5055 29.8288 44.5441 30.149 44.5441Z" fill="#822316"/>
<path d="M25.2378 89.0779C31.543 90.5615 41.3519 91.0204 48.3411 89.0496C48.4963 85.9916 47.6817 78.1323 46.62 69.7662C46.2987 70.0593 45.9664 70.3397 45.5964 70.5335C44.4568 71.1301 43.0109 71.5891 41.7205 71.6434C37.968 71.8011 35.4645 68.0318 34.3978 64.8741C32.8113 60.1781 32.1413 55.2299 31.7114 50.3151C31.5544 48.519 31.5333 46.6368 31.6878 44.8466C31.6998 44.7085 31.7329 44.4646 31.7755 44.1754C31.1653 44.1328 30.7814 44.1021 30.7814 44.1021C26.1453 55.9707 25.1025 82.4619 25.2378 89.0779Z" fill="#4F6177"/>
<path d="M44.5799 19.921C44.5911 19.3144 44.2319 18.7534 43.8079 18.9234C42.5643 19.4216 42.8232 21.0127 42.8232 21.0127C42.8515 21.623 43.5147 21.6723 43.8137 21.4803C44.1924 21.2365 44.5687 20.5064 44.5799 19.921Z" fill="#FFB278"/>
<path d="M43.5829 19.5113C43.4368 19.7773 43.1692 20.3826 43.1692 20.3826C43.0974 20.8605 43.8056 20.831 43.8699 20.2615C43.8989 20.0068 43.7164 19.7673 43.9477 19.6165C44.107 19.513 44.2523 19.6891 44.3183 19.8863C44.3848 19.3419 43.8125 19.0929 43.5829 19.5113Z" fill="#E5804E"/>
<path d="M41.8629 13.0804C38.9579 10.4294 35.5897 12.9172 35.0443 16.3537C35.0443 16.3537 34.6338 19.5518 35.2706 21.0864C35.7528 22.2488 37.9356 24.8283 39.9149 24.7229C40.8557 24.6729 42.6451 22.6962 43.1211 21.3507C43.9229 19.0848 44.1703 15.1858 41.8629 13.0804Z" fill="#FFB278"/>
<path d="M40.9012 17.8118C40.9513 17.5172 41.5062 17.416 41.981 17.4288C42.428 17.4409 42.7313 17.6711 42.7968 17.9228C42.5784 17.7168 42.1713 17.6898 41.8952 17.7369C41.6086 17.7857 40.8466 18.0483 40.9012 17.8118Z" fill="#301F23"/>
<path d="M38.5249 18.0131C38.5867 17.7306 38.1357 17.5186 37.714 17.4289C37.3169 17.3445 36.9682 17.492 36.8203 17.7101C37.0859 17.5668 37.4533 17.6289 37.6787 17.7313C37.9131 17.8377 38.4881 18.2431 38.5249 18.0131Z" fill="#301F23"/>
<path d="M40.2652 22.3974C39.9241 22.5574 39.5246 22.561 39.1668 22.3901C39.0621 22.6864 39.4228 22.922 39.8157 22.9077C40.309 22.8897 40.4102 22.4057 40.2652 22.3974Z" fill="#F72828"/>
<path d="M40.1202 22.3145C39.969 22.2976 39.9553 22.4203 39.7888 22.4235C39.6033 22.4138 39.5895 22.2511 39.3985 22.3448C39.1867 22.4402 38.9404 22.3058 38.9454 22.3037C39.326 22.7169 40.0873 22.8378 40.5743 22.3105C40.3367 22.4182 40.2137 22.3175 40.1202 22.3145Z" fill="#E52323"/>
<path d="M39.3516 21.1417C39.3516 21.1417 39.3709 21.1439 39.4031 21.1511C39.4191 21.1555 39.4389 21.1573 39.4598 21.1624C39.4806 21.1672 39.5053 21.1708 39.5312 21.1763C39.5568 21.1823 39.5853 21.1862 39.6142 21.1925C39.6429 21.1976 39.6735 21.2031 39.7048 21.2086C39.7362 21.2129 39.768 21.2191 39.8003 21.2225C39.8327 21.2274 39.8648 21.2293 39.8971 21.2324C39.9131 21.2336 39.9287 21.2336 39.9446 21.2344C39.9606 21.2354 39.9761 21.2356 39.9913 21.2345C40.0063 21.2334 40.0222 21.2346 40.0367 21.2329C40.0512 21.2311 40.0655 21.2292 40.0802 21.2283C40.0949 21.2275 40.1072 21.2223 40.1212 21.2205C40.1348 21.2183 40.1483 21.2157 40.1602 21.2107C40.1728 21.2067 40.1852 21.2029 40.197 21.1991C40.2087 21.1946 40.2189 21.1884 40.2299 21.1836C40.2527 21.1745 40.2709 21.1617 40.2884 21.1503C40.2972 21.1443 40.3056 21.1389 40.3133 21.1338C40.3203 21.1277 40.3268 21.122 40.3326 21.1171C40.3564 21.0964 40.3727 21.084 40.3727 21.084C40.3727 21.084 40.3709 21.1026 40.3629 21.136C40.3607 21.1444 40.3584 21.1537 40.3558 21.1639C40.3524 21.1738 40.3466 21.1831 40.3413 21.1941C40.3355 21.2051 40.3294 21.2169 40.3228 21.2292C40.3165 21.242 40.3055 21.2515 40.2961 21.264C40.2858 21.2756 40.2753 21.2884 40.2629 21.2998C40.2499 21.3103 40.2356 21.3206 40.2211 21.3315C40.2068 21.3431 40.1903 21.351 40.1732 21.3592C40.1562 21.3673 40.1386 21.3767 40.1202 21.3824C40.0833 21.3939 40.0442 21.4051 40.0045 21.408C39.9645 21.415 39.9248 21.4116 39.8851 21.4112C39.8458 21.4067 39.8064 21.4033 39.7696 21.3933C39.7321 21.3859 39.6968 21.3733 39.6631 21.3613C39.6295 21.3486 39.5981 21.334 39.5691 21.319C39.5406 21.3027 39.5136 21.2881 39.4905 21.271C39.4673 21.2548 39.4464 21.2389 39.429 21.223C39.4113 21.208 39.3963 21.194 39.3856 21.1817C39.3631 21.1573 39.3516 21.1417 39.3516 21.1417Z" fill="#E5804E"/>
<path d="M42.4992 18.8178C42.348 18.7832 42.1294 18.7467 41.796 18.7909C41.5108 18.8265 41.2272 18.9444 41.0562 19.0703C40.9952 19.1148 40.9373 19.1756 40.8976 19.2228C40.8278 19.3046 40.8304 19.4484 40.8281 19.4677C40.9351 19.4744 41.022 19.3651 41.1351 19.3645C41.3541 19.365 41.6066 19.3342 41.7735 19.2933C41.9822 19.2424 42.1347 19.1875 42.305 19.1157C42.44 19.0603 42.6182 19.1034 42.8564 19.0285C42.8269 18.9151 42.6495 18.855 42.4992 18.8178Z" fill="#E5804E"/>
<path d="M42.8562 19.0291C42.6182 19.1041 42.4672 19.1744 42.332 19.2298C42.1618 19.3016 42.0095 19.3565 41.8006 19.4074C41.6338 19.4483 41.3813 19.4791 41.1622 19.4786C41.0492 19.4793 40.9351 19.4751 40.8281 19.4684C40.8291 19.4673 40.8549 19.4187 40.9249 19.3371C40.9646 19.2897 41.0223 19.2289 41.0835 19.1846C41.2545 19.0586 41.538 18.9408 41.8233 18.9051C42.1567 18.8609 42.3752 18.8975 42.5264 18.932C42.6766 18.9691 42.7684 19.0063 42.8562 19.0291Z" fill="white"/>
<path d="M42.3315 19.2294C42.1614 19.3013 42.009 19.3561 41.8001 19.4071C41.6333 19.4479 41.3809 19.4788 41.1617 19.4783C41.1119 19.4524 41.0219 19.2284 41.0831 19.1841C41.254 19.0581 41.5375 18.9403 41.8228 18.9046C42.1563 18.8604 42.3748 18.897 42.5259 18.9315C42.5273 18.9905 42.3719 19.1892 42.3315 19.2294Z" fill="#3F1411"/>
<path d="M42.1524 19.1159C42.1515 19.166 42.1133 19.2139 42.0669 19.2232C42.0204 19.2325 41.9834 19.1993 41.9844 19.1494C41.9853 19.0993 42.0234 19.0513 42.0699 19.0421C42.1163 19.0328 42.1531 19.0659 42.1524 19.1159Z" fill="white"/>
<path d="M38.0733 19.1181C37.9478 19.0272 37.7611 18.9079 37.4368 18.818C37.1603 18.7392 36.8533 18.7366 36.6467 18.7855C36.5731 18.8024 36.496 18.8358 36.441 18.8638C36.3447 18.9116 36.291 19.045 36.2812 19.0619C36.377 19.11 36.4998 19.0434 36.6042 19.087C36.8055 19.1732 37.05 19.2438 37.2193 19.2714C37.4315 19.3064 37.5931 19.3155 37.778 19.316C37.924 19.318 38.0709 19.4274 38.3195 19.4517C38.3366 19.336 38.1968 19.2111 38.0733 19.1181Z" fill="#E5804E"/>
<path d="M38.3195 19.4521C38.0709 19.4278 37.9046 19.4335 37.7585 19.4315C37.5738 19.4309 37.4121 19.4218 37.2 19.3868C37.0305 19.3592 36.786 19.2887 36.5846 19.2023C36.4803 19.1586 36.377 19.1102 36.2812 19.062C36.2826 19.0614 36.3255 19.0267 36.4217 18.979C36.4768 18.9511 36.5539 18.9177 36.6275 18.9007C36.8341 18.8518 37.1411 18.8544 37.4176 18.9333C37.7418 19.0231 37.9286 19.1424 38.0542 19.2333C38.1777 19.3265 38.2475 19.3968 38.3195 19.4521Z" fill="white"/>
<path d="M37.758 19.4319C37.5734 19.4313 37.4116 19.4222 37.1995 19.3872C37.0301 19.3595 36.7855 19.2891 36.5841 19.2027C36.5483 19.1595 36.5533 18.9181 36.6269 18.9012C36.8335 18.8523 37.1406 18.8549 37.417 18.9338C37.7412 19.0236 37.928 19.1429 38.0536 19.2338C38.0315 19.2886 37.8109 19.4107 37.758 19.4319Z" fill="#3F1411"/>
<path d="M37.6363 19.2575C37.616 19.3033 37.562 19.3324 37.5156 19.3227C37.4693 19.3131 37.4484 19.2681 37.4687 19.2224C37.489 19.1767 37.5431 19.1475 37.5893 19.1571C37.6358 19.1668 37.6567 19.2117 37.6363 19.2575Z" fill="white"/>
<path d="M33.7854 20.0014C33.7382 19.3965 34.0972 18.8095 34.569 18.9476C35.952 19.3526 35.7618 20.9609 35.7618 20.9609C35.766 21.5725 35.0464 21.6711 34.7099 21.5017C34.2831 21.2863 33.8313 20.5853 33.7854 20.0014Z" fill="#FFB278"/>
<path d="M34.8498 19.5182C35.0242 19.773 35.3504 20.3576 35.3504 20.3576C35.456 20.8296 34.6832 20.8529 34.5802 20.2888C34.534 20.0367 34.7189 19.7839 34.4585 19.6505C34.279 19.5591 34.1308 19.7458 34.0704 19.9475C33.9666 19.4088 34.5755 19.1175 34.8498 19.5182Z" fill="#E5804E"/>
<path d="M38.7969 13.2799L39.7705 11.611C41.7421 11.1238 43.4522 12.0308 44.3175 13.8277C45.1284 15.5119 44.1937 18.5412 43.3903 20.1794C43.5373 18.9725 43.5822 15.7662 42.6041 14.8965C41.3503 13.7814 38.8468 16.7022 38.7969 13.2799Z" fill="#1E1316"/>
<path d="M35.2296 20.5505C35.5495 19.5769 35.3775 18.8384 35.6834 17.8003C35.9463 16.9106 36.5588 16.0071 38.2895 15.976C39.1962 15.9598 40.5741 15.9677 41.3258 14.1192C41.3337 14.0998 41.3415 14.0798 41.3494 14.0599C41.7996 12.9078 41.6601 11.4719 40.1441 11.0927C39.3096 10.8841 37.3623 11.0927 37.3623 11.0927C36.0104 11.2105 35.1629 11.7705 34.6279 12.5457C34.3191 12.9931 34.1147 13.5129 33.978 14.0599C33.5011 15.9672 34.8819 18.658 35.2296 20.5505Z" fill="#301F23"/>
<path d="M35.2295 20.5502C35.5494 19.5766 35.3774 18.8381 35.6833 17.8001C35.9462 16.9103 36.5587 16.0068 38.2894 15.9757C39.1961 15.9595 40.5741 15.9674 41.3257 14.1189L41.1175 13.4568C40.8917 13.9223 40.8269 14.2868 40.283 14.4754C39.7721 14.6525 39.1377 14.5775 38.6047 14.5232C37.9928 14.461 37.4202 14.4634 36.8545 14.7087C36.3794 14.915 36.2249 15.2905 35.8415 15.5849C35.6733 15.1115 35.9467 14.6395 36.0558 14.2046C35.4838 14.5004 35.2453 15.1913 35.1277 15.7712C34.6385 15.2474 34.5682 14.2097 34.5343 13.5148C34.5171 13.1648 34.5589 12.8495 34.628 12.5454C34.3192 12.9928 34.1148 13.5126 33.978 14.0596C33.501 15.9669 34.8818 18.6577 35.2295 20.5502Z" fill="#1E1316"/>
<path d="M40.5469 19.3934C40.5469 18.5785 41.2099 17.9155 42.0249 17.9155C42.8398 17.9155 43.5028 18.5785 43.5028 19.3934C43.5028 20.2083 42.8398 20.8713 42.0249 20.8713C41.2099 20.8713 40.5469 20.2083 40.5469 19.3934ZM40.7708 19.3934C40.7708 20.0848 41.3333 20.6475 42.0249 20.6475C42.7163 20.6475 43.2789 20.085 43.2789 19.3934C43.2789 18.702 42.7163 18.1394 42.0249 18.1394C41.3333 18.1395 40.7708 18.702 40.7708 19.3934Z" fill="white"/>
<path d="M36.3594 19.3709C36.3594 18.556 37.0223 17.8931 37.8374 17.8931C38.6523 17.8931 39.3153 18.556 39.3153 19.3709C39.3153 20.1859 38.6523 20.8488 37.8374 20.8488C37.0224 20.8488 36.3594 20.1859 36.3594 19.3709ZM36.5833 19.3709C36.5833 20.0624 37.1458 20.625 37.8374 20.625C38.5288 20.625 39.0914 20.0625 39.0914 19.3709C39.0914 18.6795 38.5288 18.1169 37.8374 18.1169C37.1458 18.1169 36.5833 18.6794 36.5833 19.3709Z" fill="white"/>
<path d="M39.2743 19.409C39.4257 19.1736 39.6113 19.0431 39.8259 19.0212C40.0693 18.9963 40.3432 19.1197 40.5781 19.3596L40.738 19.2029C40.451 18.9098 40.1191 18.7663 39.8031 18.7984C39.5213 18.8271 39.2732 18.9964 39.0859 19.2879L39.2743 19.409Z" fill="white"/>
<path d="M36.7606 52.3415L25.869 50.2686L25.8359 54.9009L36.4091 53.8259L36.7606 52.3415Z" fill="#2F4C1C"/>
<path d="M26.1327 50.499L36.5731 52.3544L36.6562 52.444L35.9923 53.5701L26.0664 51.2668L26.1327 50.499Z" fill="#E8E2DD"/>
<path d="M35.1882 52.3414L25.1033 50.5244L25.0859 60.8089L35.8994 63.1859L35.1882 52.3414Z" fill="#47722B"/>
<path d="M35.1867 52.3418C35.21 52.3643 35.235 52.3859 35.263 52.4058C35.42 52.5187 35.6464 52.5893 35.898 52.5893C36.1354 52.5893 36.3496 52.5267 36.5053 52.4254C36.5432 52.4004 36.5775 52.3736 36.6075 52.3444C36.6084 52.3437 36.6092 52.3427 36.61 52.3418H36.7569V62.6253C36.7569 62.7804 36.6609 62.9209 36.5054 63.0223C36.3496 63.1236 36.1354 63.1861 35.8981 63.1861C35.4239 63.1861 35.0391 62.9356 35.0391 62.6253V52.3418H35.1867Z" fill="#6BAA43"/>
<path d="M35.2656 52.4057V62.3948C35.2656 62.7085 35.5669 62.9623 35.9379 62.9623C36.1235 62.9623 36.2914 62.8989 36.4134 62.7964C36.5349 62.6936 36.6101 62.5515 36.6101 62.3948V52.3442C36.5801 52.3735 36.5458 52.4002 36.5079 52.4252C36.3521 52.5266 36.1379 52.5891 35.9006 52.5891C35.649 52.5891 35.4224 52.5185 35.2656 52.4057Z" fill="#FFFBF8"/>
<path d="M29.0374 52.4159V60.3452L27.0941 59.8918L27.0898 59.7476V52.0425L29.0374 52.4159Z" fill="#F72E1E"/>
<path d="M27.6536 57.9768C27.7487 57.6129 27.8269 57.196 27.8765 56.8286L29.6716 57.5082C29.9256 58.3601 31.0502 59.0658 31.1395 60.0897C31.1949 60.7224 31.5018 61.3351 31.2671 61.4255C30.6459 61.6649 30.6508 60.3428 30.427 60.1317C30.465 60.4867 30.7518 62.3991 30.6537 62.4904C30.4499 62.6798 30.0641 62.6073 29.8816 62.3782C29.7732 62.4737 29.6022 62.5305 29.4478 62.5234C29.3107 62.5168 29.1732 62.3875 29.055 62.3903C28.8925 62.3943 28.759 62.5169 28.5364 62.4513C28.3881 62.4075 28.2703 62.2941 28.1404 62.219C27.6828 62.425 27.6935 61.8105 27.5921 61.511C27.4812 61.1832 27.4372 58.8038 27.6536 57.9768Z" fill="#FFB278"/>
<path d="M29.0324 49.8159C29.3769 49.8923 29.9526 49.9568 30.442 49.8923C30.1546 52.7898 29.7372 57.1867 29.8654 58.7907C29.3507 58.8366 28.5187 58.7677 27.7188 58.7526C27.7188 57.5305 27.8035 52.5757 27.7188 49.2812C28.2955 49.5104 28.4014 49.6759 29.0324 49.8159Z" fill="#FFB278"/>
<path d="M30.0135 27.9288C31.1626 27.1133 33.525 28.0035 32.9273 32.8597C32.8534 33.4604 32 37.1984 31.8814 37.94C31.2837 41.6755 29.9197 54.7668 29.853 56.085C29.1814 55.8969 28.4617 55.8731 27.7837 55.7097C27.6645 53.3597 27.462 29.7396 30.0135 27.9288Z" fill="#FFB278"/>
</g>
<defs>
<clipPath id="clip0_2370_34669">
<rect width="74" height="51" fill="white" transform="translate(0.125 6)"/>
</clipPath>
</defs>
</svg>
