<svg xmlns="http://www.w3.org/2000/svg" width="69" height="68" fill="none" viewBox="0 0 69 68">
    <g clip-path="url(#a)">
        <path fill="#f4f4f4" d="M58.625 34c0 13.255-10.745 24-23.999 24S10.625 47.255 10.625 34s10.744-24 24.001-24 23.999 10.745 23.999 24"/>
        <path fill="#006ec3" d="M34.628 11.63a22.304 22.304 0 0 1 15.815 6.552 22.28 22.28 0 0 1 6.552 15.816 22.278 22.278 0 0 1-6.551 15.815 22.3 22.3 0 0 1-15.816 6.551 22.301 22.301 0 0 1-15.815-6.552 22.3 22.3 0 0 1-4.794-7.109 22.2 22.2 0 0 1-1.757-8.705 22.29 22.29 0 0 1 6.551-15.815 22.3 22.3 0 0 1 15.815-6.552m0-.554c-12.66 0-22.925 10.263-22.925 22.924s10.264 22.924 22.925 22.924S57.554 46.661 57.554 34 47.287 11.076 34.628 11.076"/>
        <path fill="#006ec3" d="M34.625 12.41c2.914 0 5.74.572 8.402 1.697a21.5 21.5 0 0 1 6.862 4.628 21.55 21.55 0 0 1 4.627 6.862A21.5 21.5 0 0 1 56.212 34a21.5 21.5 0 0 1-1.696 8.403 21.55 21.55 0 0 1-4.627 6.862 21.6 21.6 0 0 1-6.862 4.628 21.5 21.5 0 0 1-8.402 1.696c-2.911 0-5.742-.57-8.404-1.696a21.6 21.6 0 0 1-6.862-4.628 21.6 21.6 0 0 1-4.628-6.862A21.4 21.4 0 0 1 13.037 34c0-2.914.568-5.743 1.696-8.403a21.5 21.5 0 0 1 4.627-6.862 21.53 21.53 0 0 1 15.266-6.324m0-.222c-12.046 0-21.812 9.764-21.812 21.812s9.766 21.812 21.812 21.812S56.435 46.045 56.435 34s-9.766-21.812-21.81-21.812"/>
        <path fill="#dadada" d="M51.112 34c0 9.104-7.382 16.487-16.487 16.487S18.141 43.104 18.141 34s7.382-16.487 16.487-16.487S51.114 24.893 51.114 34z"/>
        <path fill="#f4f4f4" d="M50.84 34.086c0 8.913-7.226 16.135-16.137 16.135s-16.137-7.224-16.137-16.135 7.228-16.138 16.137-16.138 16.136 7.224 16.136 16.138"/>
        <g fill="#ebeaea" style="mix-blend-mode:multiply">
            <path d="M49.599 32.284c.247.19.284.496.956.21.669-.286.688-.88.497-1.416s-.498-.518-.172-.995c.326-.476.343-.65-.21-.975q.01-.032.02-.069v-.014q.004-.033.004-.066v-.025q.001-.026-.005-.05c0-.016-.005-.03-.007-.047l-.007-.032a1 1 0 0 0-.03-.093c-.12-.328-.45-.653-.706-.692-.362-.059-.612-.345-.536-.594.075-.25.151-.746-.976-.65-.671.056-1.066.244-1.41.613a1.6 1.6 0 0 0-.163-.22c-.312-.352-.356-.62.22-.863.576-.244.775-.42.775-1.041s-.133-1.02-.775-1.33-.532-.775-.532-1.151c0-.377.023-.421-.531-.82q-.046-.032-.091-.06-.013-.008-.025-.015l-.073-.04c-.008-.002-.012-.007-.02-.01q-.045-.02-.085-.036a.1.1 0 0 1-.025-.01l-.064-.02q-.015-.001-.03-.007a1 1 0 0 0-.078-.014q-.014.001-.027-.005c-.017 0-.036-.005-.056-.005h-.083q-.026 0-.057.002c-.017 0-.029 0-.046.005q-.023.002-.044.008l-.03.005a1 1 0 0 0-.159.046q-.006 0-.012.005-.03.011-.054.022c-.13.056-.248.132-.358.217-.377.289-.62-.178-1.152-.51-.532-.333-.84-.243-1.242.799-.199.843-.216 1.917-.081 2.85a13 13 0 0 1-.062-.464c-.059-.506-.098-.7-.367-.951-.272-.252-.04-.425-.04-.775s-.409-.777-1.088-.817-.563-.486-.35-.794a.3.3 0 0 0 .034-.059q.007-.01.01-.022a.2.2 0 0 0 .02-.041q.006-.015.012-.032l.015-.037c.002-.012.01-.024.012-.036q.004-.016.01-.032.004-.023.01-.044v-.017c.044-.257-.03-.558-.344-.729a1 1 0 0 0-.323-.112c-.816-.157-1.571 1.784-1.571 1.784s-.214-.35-.797-.484c-.426-.1-.698.093-.911.365.024-.36-.209-.553-.474-.783-.387-.337-.926-.374-1.414-.122l-.1.051-.044.022-.032.015q-.031.014-.056.027l-.035.015-.027.01-.037.012q-.006-.001-.017.005l-.068.017q-.01-.001-.017.005-.02-.001-.037.004h-.012q-.04.001-.079-.005h-.005a.1.1 0 0 1-.039-.01q-.006 0-.012-.002a.5.5 0 0 1-.128-.058q-.006-.002-.012-.008l-.044-.03c-.113-.082-.238-.22-.395-.422-.335-.438-.987-.313-1.431.235-.441.545-.78.623-1.299.596-.181-.01-.426.096-.625.298a.56.56 0 0 0-.446-.178c-.458.024-.314-.267-.12-.675a.2.2 0 0 0 .017-.054q0-.005.003-.012.006-.026.005-.049v-.007a.2.2 0 0 0-.005-.042q0-.004-.003-.01-.007-.022-.017-.043-.001-.007-.005-.01-.011-.021-.027-.042a.1.1 0 0 0-.04-.036q-.001-.004-.007-.008a.592.592 0 0 0-.105-.064h-.005a.91.91 0 0 0-.21-.056.79.79 0 0 0-.711.291c-.41.53-.096.65-.628.773-.532.12-1.762.12-1.35 1.907.02.083.034.161.051.237-.431-.413-1.152-.447-1.392-.29-.245.158-.318-.05-.845-.343q-.028-.016-.057-.027-.01-.002-.017-.007L24 23.008q-.01-.004-.02-.005l-.034-.01q-.01 0-.017-.002l-.044-.005h-.068q-.02.002-.037.008-.008 0-.015.002a.1.1 0 0 0-.032.01q-.008 0-.014.005l-.04.015s-.005 0-.007.004q-.024.011-.046.025s-.005.002-.005.005l-.037.022-.012.01q-.017.01-.032.024-.007.002-.01.007l-.037.03a2.578 2.578 0 0 0-.088.086l-.003.006-.036.04q.001 0-.005.005c-.15.17-.282.378-.412.528-.306.354-.919.024-1.483.528-.563.503-.282 1.017-.282 1.017-2.127.43-1.799 2.193-1.284 2.418.515.224.532.063.74.628.209.562 1.142-.017 1.142.498v.018a4 4 0 0 0-.825-.025c-1.005.071-1.005.453-.885 1.147l.01.073v.091q-.002.024-.008.049c0 .002 0 .01-.002.012a.2.2 0 0 1-.017.051q-.002.008-.008.015l-.02.036q-.004.008-.01.015a.2.2 0 0 1-.024.032l-.01.012q-.018.02-.036.037-.002.003-.008.007a.2.2 0 0 1-.051.04l-.032.019q-.008.003-.015.01a1 1 0 0 1-.103.046q-.008-.001-.012.005l-.044.014q-.006 0-.012.003l-.054.015-.059.014q-.027.006-.054.01h-.007q-.027.002-.054.007c-.164.017-.292.01-.292.01-.287 0-.5.142-.595.621-.096.477.169.787.669.692s.5-.07.404.572c-.061.516.034.892.34 1.049l.043.017q.035.016.075.027.023.008.044.012a.3.3 0 0 0 .052.01h.02c-.174.462-.366.922-.586.963-.275.051-.571-.027-1.054.89s.387 1.45.29 2.342c-.074.797-.314 1.4 1.325 2.873.35.369.67.672.951.926l-.044.047c-.319.35-.762.936-.762 1.489 0 .87.87.073.82.579-.026.281.013.714.207 1.01q.002.006.007.01l.022.031.012.015q.012.016.022.027l.015.017.022.024.04.037.019.017a.1.1 0 0 0 .024.017l.023.017.024.015.022.015c.01.005.017.007.027.014l.024.012.027.01q.015.006.03.01.015.007.03.01l.031.007q.015.002.03.008l.031.004q.015.002.032.003h.14q.024-.002.049-.008.013 0 .027-.002l.08-.017c.893-.218.677.098.966.58.29.483.79 1.087 1.665.87.387-.098.634-.87.426-1.127-.206-.257-.267-.35-.113-.465.069-.051.12-.183.15-.367.88 1.274 2.416 1.885 3.674 1.382h.005c-.35.809.178 1.327.708 1.112.652-.266.7-.144.82.433.106.51.476.91 1.008.929h.108q.058 0 .115-.013c.652-.097.17-.94.723-.99.557-.049.628.604 1.037.46.41-.144.676-.337 1.015-.12.232.15.48-.083.656-.34.108.426.31.744.951.768.902.032.709-1.093 1.353-.58q.082.066.16.113c.274.169.502.176.666.103h.003l.051-.027c.002 0 .005-.005.01-.005q.023-.015.042-.03.008-.004.014-.01a.2.2 0 0 0 .032-.03q.008-.008.015-.018.014-.014.027-.032l.014-.022q.012-.015.02-.03l.017-.029.015-.026.015-.037.007-.022a.3.3 0 0 0 .015-.059c.061-.298.01-.596.517-.586q.023.064.054.13c.434.94 1.375.483 1.713.456.336-.024.772.291 1.23.53q.148.078.307.091.143.013.282-.014h.004q.033-.007.066-.018h.008a1 1 0 0 0 .179-.07q.01-.006.02-.01a.2.2 0 0 0 .041-.025q.015-.008.03-.017.018-.01.036-.024.02-.014.037-.027l.027-.022a.5.5 0 0 0 .076-.069l.037-.039a.464.464 0 0 0 .049-.063c.005-.008.01-.012.014-.02a1 1 0 0 0 .042-.063c.218-.387.652-.338 1.206-.338s1.157-.049 1.664-.699c.507-.653.507-.821.41-1.352-.096-.53.122-.482.676-1.088.411-.445.358-1.105-.02-1.562.417-.264.508-.59.456-.807-.054-.237.235-.2.363-.706.044-.171.061-.362.041-.59.14-.019.314-.07.55-.16.916-.358.661-.636.713-1.35s.382-.893.916-1.171a1 1 0 0 0 .13-.083q.02-.014.034-.027.025-.021.044-.042l.02-.017a.4.4 0 0 0 .042-.049q.004-.006.01-.01.02-.03.036-.058s0-.005.003-.005q.016-.03.03-.064v-.002a1 1 0 0 0 .019-.071c.049-.232-.05-.516-.194-.868-.255-.611-.865-.408-.686-1.07.255-.815-.33-.967-1.299-.967-.194 0-.33-.017-.431-.05.03-.453.188-.942.559-1.448a2 2 0 0 0-.096-.108c.164-.09.287-.178.355-.247.211-.21.478-.46.728-.266z"/>
            <path d="M49.272 33.607c.067 0 .138-.167.064-.167-.066 0-.135.167-.064.167M48.274 34.081c.017.064.091.005.11-.047.008-.022.018-.063-.009-.08-.032-.018-.066.024-.081.046-.022.027-.04.066-.02.081"/>
        </g>
        <path fill="#58991f" d="M30.343 41.76s-5.84-.917-7.19-4.633c-1.35-3.719.578-9.075 1.497-10.332.917-1.254 2.654-1.689 5.213-2.315 2.559-.628 5.502-1.159 8.157-.386 2.656.77 6.13 1.882 7.141 4.198 1.015 2.317 1.449 8.544 2.125 9.893.677 1.352.758 2.012.63 2.521-.127.508-.419.472-.363.706.054.238-.056.6-.563.873-.508.274-7.765 1.404-10.708.922s-5.936-1.447-5.936-1.447z"/>
        <path fill="#97c740" d="M35.426 41.356s3.314-.773 4.375-.58c.9.225.9.58.966.903.063.322.612.354.642.997.032.643-.963 3.797-2.38 3.863-.645-.064-.58.257-.645.58-.063.322-.482.674-1.124.16-.645-.515-.451.612-1.353.58-.9-.032-.934-.643-1.061-1.32-.13-.675-.483-3.154-1.385-3.895-.9-.738-.451-.9 1.963-1.285z"/>
        <path fill="#97c740" d="M41.41 42.676c-.032-.643-.578-.675-.642-.997-.064-.32-.064-.675-.966-.902-1.06-.194-4.374.579-4.374.579-.866.14-1.476.25-1.865.367.134.142.284.269.423.379.454.352.954.618 1.53.67.598.056 1.21-.027 1.806.073.267.046.542.122.762.283.142.103.385.252.424.445.025.12-.032.223-.103.316-.157.212-.284.445-.306.716-.03.33.047.668-.002.998a8 8 0 0 1-.199.911c-.096.343-.26.634-.478.876.554.342.91.022.966-.272.063-.32 0-.643.644-.58 1.417-.065 2.412-3.216 2.38-3.862" opacity=".5" style="mix-blend-mode:multiply"/>
        <path fill="#97c740" d="M34.08 42.17c.588.002 1.159-.159 1.74-.34.4-.127.801-.178 1.215-.234.449-.061.834-.186 1.255-.348.542-.207 1.113-.29 1.67-.427q-.074-.023-.158-.044c-1.06-.194-4.374.579-4.374.579-.866.14-1.476.25-1.865.367.134.142.284.269.423.379q.048.035.094.07z" opacity=".5" style="mix-blend-mode:multiply"/>
        <path fill="#68b42e" d="M35.15 46.754c-.136.306-.508.892-.846.675-.339-.218-.603-.025-1.013.12-.409.144-.482-.509-1.036-.46-.557.049-.074.895-.726.99s-1.11-.337-1.23-.917-.17-.699-.821-.435c-.652.267-1.304-.58-.314-1.714 1.353-1.52.701-3.307.507-4.249-.193-.938 1.28-.264 1.28-.264 2.196.99 2.654 1.208 3.017 1.834.362.628.556.049.916.457.363.41.17.797-.024 1.306-.194.506-.29 1.471.024 1.784s.459.435.265.87z"/>
        <path fill="#3e9f32" d="M34.88 45.886c-.313-.313-.217-1.279-.024-1.785.194-.508.387-.895.025-1.305-.363-.411-.554.17-.917-.457-.363-.629-.82-.846-3.017-1.834 0 0-.946-.435-1.22-.12.171.16.34.32.497.494.22.24.434.504.561.807.14.335.23.682.324 1.032.09.34.206.65.382.955.128.22.338.48.358.741.02.281-.105.67.042.927.103.183.306.256.497.32.309.1.681.21.586.611-.074.298-.441.298-.681.303-.243.005-.574-.014-.765.164-.245.225-.14.724-.248 1.02-.041.11-.103.212-.176.307.13.03.272.04.426.018.652-.096.17-.942.726-.99.554-.05.627.603 1.037.46.409-.145.676-.338 1.012-.12.338.217.708-.37.845-.675.194-.436.05-.555-.264-.87z"/>
        <g fill="#68b42e" style="mix-blend-mode:multiply">
            <path d="M30.122 40.574s.05.053.128.154c.076.102.188.252.303.437q.087.142.182.306.093.166.184.352c.06.122.12.254.178.386.062.132.11.27.167.406.052.137.096.279.142.416q.062.21.12.408c.037.134.064.264.094.386s.046.242.068.35c.02.11.04.208.05.296q.014.133.029.23c.012.127.022.2.022.2l-.042-.198q-.02-.096-.047-.228c-.014-.087-.044-.185-.066-.29-.027-.108-.049-.223-.085-.345q-.052-.18-.106-.379c-.042-.13-.08-.267-.125-.401-.049-.134-.096-.274-.147-.408-.054-.135-.1-.274-.16-.406-.056-.132-.11-.262-.17-.384a10 10 0 0 0-.339-.665 7 7 0 0 0-.272-.455c-.069-.107-.113-.166-.113-.166z"/>
            <path d="M30.945 41.953s.032.007.086.024c.054.02.132.044.223.086q.136.06.297.156c.051.034.108.066.159.105l.157.12q.075.066.147.132.068.068.13.14.062.067.11.139.051.068.09.132.039.062.07.115.025.055.044.093l.039.083s-.022-.027-.054-.074a1 1 0 0 0-.059-.083 7 7 0 0 0-.181-.222 1.4 1.4 0 0 0-.118-.127q-.063-.065-.132-.13a4.932 4.932 0 0 0-.441-.355c-.052-.031-.099-.068-.145-.095q-.07-.046-.133-.083a3 3 0 0 0-.203-.117l-.078-.042z"/>
        </g>
        <path fill="#97c740" d="M39.8 33.252s-.718-.785-.066-1.11c.652-.328.652-.817.424-1.179-.228-.36-.161-.227.165-.586.325-.36-.133-.817-.393-1.34s-1.436-2.513-2.84-2.122c-.949.425-1.275.523-1.275 1.437 0 .915-.193 2.059-.75 2.677-.556.621.13 1.372.915 2.122.782.75 4.44 1.895 3.82.098z"/>
        <path fill="#97c740" d="M40.323 30.377c.326-.36-.132-.817-.392-1.34s-1.436-2.513-2.84-2.122c-.454.203-.765.332-.966.513q.048.087.088.181c.137.33.201.682.26 1.034.069.42.14.854.333 1.237.233.462.618.792 1 1.13.714.63 1.29 1.47 1.424 2.432.037.257.032.506 0 .753.495-.063.777-.335.569-.943 0 0-.718-.785-.066-1.11.652-.328.652-.817.424-1.179-.228-.36-.162-.227.164-.586z" opacity=".5" style="mix-blend-mode:multiply"/>
        <path fill="#97c740" d="M36.608 27.707c-.024.348-.098.753.162 1.034.223.243.534.372.784.58.28.232.373.499.503.826.115.289.282.68.598.797.556.206.863-.376 1.132-.75.14-.198.314-.38.495-.553-.105-.19-.245-.393-.353-.606-.26-.523-1.436-2.513-2.84-2.122-.248.112-.454.2-.62.288a.72.72 0 0 1 .14.504z" opacity=".5" style="mix-blend-mode:multiply"/>
        <path fill="#68b42e" d="M29.959 21.705s-.145-.46-.603-.435c-.459.024-.314-.267-.123-.675.194-.41-.698-.674-1.11-.144-.41.53-.096.65-.628.773-.529.12-1.762.12-1.35 1.906.338 1.497.194 1.81-.194 2.536-.387.723.363 1.254.797 1.158.434-.095.483.025.652.482s1.135.193 2.316-1.254c1.184-1.45.603-3.572.24-4.344z"/>
        <path fill="#3e9f32" d="M26.4 26.612c.152-.484.377-.949.436-1.457.059-.506.115-1.098-.154-1.558a2 2 0 0 0-.564-.6q.011.064.027.134c.338 1.496.193 1.809-.194 2.535-.282.528.04.953.405 1.107a2 2 0 0 1 .044-.159z"/>
        <path fill="#3e9f32" d="M29.96 21.705s-.145-.46-.603-.435c-.458.024-.313-.267-.122-.675.154-.325-.375-.56-.807-.376a2.7 2.7 0 0 0-.316 1.026c-.041.45.015.898.086 1.343.078.486.171.975.194 1.469.017.381-.008.753-.211 1.088-.218.357-.542.62-.858.885-.311.256-.598.552-.956.745.133.054.27.074.383.047.433-.095.482.024.651.482s1.135.193 2.317-1.255c1.183-1.45.602-3.572.24-4.344z"/>
        <path fill="#68b42e" d="M28.23 22.93v.12c0 .076.002.186.011.315a6 6 0 0 0 .079.69c.012.085.03.17.046.254.015.086.037.169.057.252.017.083.044.164.064.242s.049.151.068.225q.032.106.066.198c.025.06.04.117.062.166q.032.075.051.127c.03.071.044.113.044.113l-.061-.103-.066-.122q-.04-.072-.079-.162c-.027-.06-.058-.124-.083-.195-.027-.071-.059-.145-.083-.223-.022-.078-.054-.159-.071-.244-.02-.086-.045-.169-.062-.257a4 4 0 0 1-.073-.51c-.01-.084-.01-.165-.012-.238v-.213c0-.132.017-.24.024-.317.01-.076.02-.12.02-.12z" style="mix-blend-mode:multiply"/>
        <path fill="#97c740" d="M30.268 25.595s.623-.753-.39-2.156.027-2.313.547-2.286c.52.024.858-.052 1.299-.597.441-.547 1.093-.672 1.429-.235.527.69.708.604 1.196.355.488-.25 1.027-.215 1.414.122.387.338.708.594.25 1.416-.458.819.074 1.207-.603 1.809-.676.604-.385.457-.627.892-.243.435-.434.362-.966.628-.532.264-.676.58-.892 1.16-.216.579.797 4.39-.103 4.874-.902.482-1.255.548-.902.997.355.453.032.516-.385.612-.419.097-.578.484-.355.836.225.354.257.45-.804-.352-1.061-.805-3.911-3.274-.105-8.073z"/>
        <path fill="#97c740" d="M35.763 20.796c-.385-.338-.927-.372-1.415-.122-.343.176-.534.268-.801.068a3 3 0 0 1-.336.66c-.174.262-.39.509-.517.797-.184.423-.152.873-.216 1.32-.036.264-.093.614-.33.78-.219.154-.471.098-.667-.059-.59-.479-1.105-1.11-1.554-1.72-.174-.235-.319-.51-.338-.8-.216.4-.238.992.284 1.714 1.015 1.403.39 2.156.39 2.156-3.806 4.799-.956 7.268.105 8.073 1.062.804 1.03.708.804.352-.225-.352-.064-.739.355-.837.417-.095.74-.158.385-.61-.353-.45 0-.517.902-.998.9-.484-.112-4.296.103-4.875.218-.58.363-.895.892-1.159.532-.266.723-.193.966-.628.242-.435-.05-.291.627-.893s.145-.99.603-1.809c.459-.821.137-1.078-.25-1.415z" opacity=".5" style="mix-blend-mode:multiply"/>
        <path fill="#97c740" d="M33.198 21.73s-.032.004-.081.031a.6.6 0 0 0-.181.166 1.3 1.3 0 0 0-.18.335q-.078.21-.132.48a6 6 0 0 0-.076.581c-.017.208-.024.43-.041.66-.015.228-.032.465-.064.707q-.024.18-.069.364c-.034.12-.08.24-.15.35-.144.215-.352.362-.548.501a4 4 0 0 0-.544.44c-.16.16-.297.33-.4.511q-.155.273-.225.538c-.027.088-.042.174-.059.254-.012.083-.027.16-.034.233q-.012.112-.02.207 0 .098-.005.179c-.002.107.003.19 0 .25v.087q-.002 0-.007-.088c-.003-.056-.015-.142-.015-.25v-.178q.001-.098.01-.21c.005-.076.017-.154.024-.237q.02-.125.052-.262c.044-.178.115-.369.218-.555.1-.188.235-.371.402-.535a4.4 4.4 0 0 1 .552-.455c.193-.14.392-.283.52-.479.063-.1.104-.208.139-.323q.044-.172.068-.352c.035-.237.054-.471.072-.701.017-.228.031-.45.056-.658.02-.21.054-.408.09-.59a3 3 0 0 1 .152-.48q.091-.21.199-.336a.6.6 0 0 1 .191-.159.3.3 0 0 1 .084-.029z" style="mix-blend-mode:multiply"/>
        <path fill="#68b42e" d="M21.242 41.06s-1.086.94-1.086 1.81.87.073.821.579.12 1.52 1.015 1.303c.892-.218.674.098.966.58.289.48.791 1.087 1.664.867.387-.095.634-.868.429-1.127s-.267-.35-.113-.464c.154-.113.216-.629.145-1.208-.074-.58.482-2.873 1.134-3.91.65-1.036.191-1.134-.098-1.447-.289-.315-.215-1.354-1.255-1.063-1.036.289-1.568.748-1.497 1.907.07 1.156-1.012 1.205-2.123 2.17z"/>
        <path fill="#3e9f32" d="M21.29 41.823c.322.413.792.758 1.331.79.152.01.314.005.454-.062.301-.139.382-.437.272-.718-.088-.223-.199-.435-.25-.673a.96.96 0 0 1 .247-.84c.331-.362.9-.568 1.042-1.074.162-.574-.127-1.149.01-1.714.044-.183.132-.344.25-.486-.895.293-1.348.765-1.282 1.843.071 1.157-1.012 1.205-2.123 2.171 0 0-.142.122-.323.32.142.13.26.299.373.443"/>
        <path fill="#3e9f32" d="M26.116 38.044c-.226-.245-.23-.922-.706-1.081q.025.133.022.274c-.03.902-.703 1.665-1.23 2.342-.339.432-.716.882-.878 1.418-.228.748-.203 1.54-.189 2.315.003.215.062.545-.154.684-.167.108-.375.157-.561.208a6 6 0 0 1-1.26.215c.152.262.412.433.833.33.893-.217.674.098.966.58.29.481.792 1.088 1.664.868.387-.096.635-.868.43-1.127-.207-.26-.268-.35-.114-.465.155-.112.216-.628.145-1.208-.074-.579.483-2.872 1.135-3.909.65-1.036.19-1.134-.098-1.447z"/>
        <path fill="#68b42e" d="M23.318 43.134s-.007-.084-.01-.228c0-.07 0-.161.006-.261q.001-.076.007-.16.008-.083.017-.178c.012-.124.034-.257.054-.398.03-.14.049-.291.09-.44q.03-.114.057-.23.035-.118.071-.232c.044-.157.105-.313.16-.47.058-.156.132-.305.195-.457.069-.147.148-.29.216-.428.071-.137.157-.264.228-.386s.154-.23.223-.332c.071-.1.135-.198.201-.274q.096-.119.167-.2l.147-.174s-.047.068-.133.185q-.062.09-.152.21-.043.062-.088.135-.047.071-.095.15c-.067.104-.145.212-.209.34-.066.124-.144.25-.215.388-.066.14-.142.278-.209.425-.061.15-.132.298-.188.455-.057.154-.118.308-.165.462l-.073.23-.061.227c-.042.147-.069.293-.103.433-.027.14-.054.271-.071.393q-.029.185-.045.335-.016.152-.022.26c-.01.144-.01.227-.01.227z" style="mix-blend-mode:multiply"/>
        <path fill="#68b42e" d="M18.985 30.34s1.05.072.93-.62c-.117-.692-.117-1.074.883-1.144 1.003-.074 2.054.215 2.579.953.524.74 1.073-.67 2.244-.523 1.17.142.978 1.335 2.147 2.958 1.17 1.623 1.194 2.173.954 2.601-.238.428-.86.117-1.814-.144-.953-.262-1.122-.096-1.693.12-.574.215-1.027.12-1.838-.477s-1.91-.978-2.817-.765c-.906.215-1.193-.262-1.098-1.074.096-.645.096-.667-.406-.572-.5.096-.765-.215-.67-.691.096-.477.312-.621.599-.621"/>
        <path fill="#3e9f32" d="M23.34 34.037a.8.8 0 0 0 .193-.54c-.007-.1-.007-.35-.13-.392-.21-.073-.458.015-.632-.176-.179-.198-.189-.518-.4-.692-.276-.224-.722-.327-1.073-.286-.549.066-.936.374-1.203.849-.093.164-.184.325-.294.474.176.09.424.105.757.027.895-.21 1.97.156 2.78.738zM27.766 31.961c-1.17-1.623-.98-2.816-2.147-2.958-1.17-.144-1.718 1.264-2.245.523-.525-.74-1.576-1.027-2.579-.953-1.002.07-1.002.452-.882 1.144.076.45-.338.577-.64.611.01.005.023.005.032.01.885.256 1.645.809 2.459 1.22.443.225.89.39 1.392.418.728.039 1.5-.125 2.21.083.99.288 1.91.834 2.449 1.738q.274.466.409.973c.23.022.397-.027.495-.205.238-.43.216-.978-.953-2.601z"/>
        <path fill="#68b42e" d="M21.445 31.3s.098.006.267.028c.172.024.414.058.7.13a4 4 0 0 1 .46.139c.159.056.325.136.48.23.15.08.343.087.529.085.191-.005.387-.02.583-.03.392-.014.794 0 1.155.093a2.7 2.7 0 0 1 .916.423 3 3 0 0 1 .53.477c.06.064.098.118.13.152l.044.054-.05-.052c-.031-.032-.075-.083-.139-.142a3.853 3.853 0 0 0-.547-.445 2.9 2.9 0 0 0-.906-.386c-.353-.085-.743-.098-1.133-.078-.196.005-.39.02-.585.022-.194 0-.398-.007-.574-.103a3 3 0 0 0-.466-.24 5 5 0 0 0-.446-.15 8 8 0 0 0-.688-.167c-.17-.032-.267-.046-.267-.046z" style="mix-blend-mode:multiply"/>
        <path fill="#97c740" d="M40.945 34.584s.89-.983 2.392-1.044c.637-.024.737-.381 1.884-.84 1.145-.458 2.395-.688 2.468.153.079.839-.33 1.247.638 1.247s1.553.154 1.298.968c-.178.663.434.457.687 1.069.255.61.355 1.019-.18 1.298-.533.278-.864.457-.916 1.17-.051.712.203.993-.713 1.35-.917.357-.941.1-1.324-.227-.382-.33-.458-.179-.968.103-.51.278-1.144.151-1.223-.306-.076-.46-.051-.714-.482-.611-.434.1-.814 0-1.3-.611-.355-.382-.713-.306-.813-.839-.103-.535-.33-.79-.84-.941-.508-.152-1.579-.917-.611-1.934z"/>
        <path fill="#97c740" d="M48.79 37.55c-1.142.005-2.015-.648-2.902-1.289a7 7 0 0 0-1.706-.892c-.566-.21-1.13-.435-1.671-.71a9 9 0 0 1-.959-.561c-.397.249-.61.486-.61.486-.968 1.02.103 1.782.61 1.934.51.154.738.408.84.941.104.536.46.46.815.839.483.61.865.714 1.299.61.433-.102.406.152.482.612.076.457.714.584 1.223.306.51-.279.586-.433.968-.103.383.33.407.584 1.324.227.916-.357.662-.635.713-1.35.052-.713.383-.892.917-1.17.26-.137.367-.3.384-.506a2.74 2.74 0 0 1-1.727.618z" opacity=".5" style="mix-blend-mode:multiply"/>
        <g fill="#97c740" style="mix-blend-mode:multiply">
            <path d="M42.648 34.84s.329.074.807.235q.179.062.385.137c.134.052.276.105.421.17.147.058.294.131.446.197q.226.108.451.223c.147.085.297.161.439.249.14.09.284.169.412.262.13.09.257.173.37.266s.223.171.316.257q.141.127.252.234c.074.071.133.14.184.194.098.11.154.17.154.17s-.06-.058-.169-.158c-.054-.05-.115-.115-.193-.181l-.263-.218c-.095-.08-.208-.156-.323-.244-.113-.088-.245-.164-.373-.254-.127-.09-.272-.17-.409-.255-.14-.085-.291-.159-.436-.242-.15-.075-.297-.154-.444-.227-.15-.069-.294-.142-.438-.2q-.217-.096-.415-.181c-.132-.06-.26-.106-.377-.152-.235-.09-.431-.164-.571-.21l-.218-.074z"/>
            <path d="M45.703 36.137q0-.002.069-.032c.044-.017.108-.044.186-.069a2 2 0 0 1 .277-.06c.051-.008.105-.018.16-.02q.078-.006.166-.008c.059 0 .11 0 .164.008.054 0 .108.012.16.02q.076.012.147.03.07.016.13.04c.078.025.14.056.183.078l.069.034-.074-.017-.083-.022-.108-.022c-.04-.01-.083-.014-.127-.022a1 1 0 0 0-.145-.017q-.074-.01-.152-.012-.077-.006-.16-.005c-.107 0-.215.008-.315.012-.05.008-.098.01-.145.015q-.07.008-.13.017c-.08.012-.147.022-.193.032l-.074.015z"/>
        </g>
        <path fill="#68b42e" d="M42.648 33.797s-.132-1.281.728-2.66c.86-1.376 2.162-1.97 2.794-3.041.63-1.071.975-1.53 2.103-1.626 1.127-.095 1.051.4.975.65s.172.536.537.594c.363.057.88.69.728 1.09.554.326.534.5.21.976-.325.48-.02.46.172.995.191.538.174 1.13-.497 1.416-.67.286-.709-.02-.956-.21-.248-.191-.517.056-.728.268-.211.21-.936.612-1.723.631-.784.02-.633.594-1.282.132-.458-.325-.689-.154-1.071.154-.382.306-.995 1.012-1.416 1.012-.422 0-.557-.173-.574-.384z"/>
        <path fill="#3e9f32" d="M42.98 32.186c.154-.142.289-.316.47-.423.186-.11.387-.181.593-.237.522-.142.978-.352 1.397-.7.493-.405.821-.884.92-1.52.048-.323.026-.626.3-.844.256-.197.783-.27.645-.708-.095-.301-.323-.516-.299-.817-.294.262-.534.636-.84 1.156-.633 1.074-1.934 1.665-2.794 3.042-.255.406-.42.801-.532 1.16q.067-.05.132-.11zM50.724 29.778c.324-.477.346-.65-.21-.976a.6.6 0 0 0-.02-.396q-.31 0-.615.05a4.8 4.8 0 0 0-1.826.696c-.52.332-.993.733-1.498 1.09-.49.347-.968.717-1.402 1.137-.468.457-.914.954-1.358 1.438-.31.34-.642.664-1.031.914l-.116.068c.022.208.157.377.574.377s1.034-.707 1.416-1.012c.383-.308.613-.48 1.072-.154.649.46.497-.115 1.281-.132.785-.02 1.51-.42 1.723-.631.211-.21.478-.46.728-.269.248.19.287.496.956.21.67-.288.689-.88.498-1.415-.192-.536-.498-.516-.172-.995"/>
        <g fill="#68b42e" style="mix-blend-mode:multiply">
            <path d="M43.277 33.289s.06-.076.165-.2c.11-.125.262-.301.46-.504q.145-.154.319-.325c.113-.115.24-.233.368-.355q.198-.177.406-.362c.143-.12.285-.244.434-.362.147-.114.297-.232.446-.34l.223-.163q.114-.076.223-.152.11-.075.216-.146l.213-.13c.14-.083.267-.166.392-.232l.339-.186q.154-.075.267-.127l.235-.11-.225.127-.26.144q-.146.09-.329.198c-.122.071-.247.157-.382.245l-.206.136q-.104.074-.21.147-.108.078-.219.154l-.22.166q-.22.164-.442.345c-.149.113-.291.235-.433.352s-.277.24-.41.355c-.127.12-.257.23-.375.342q-.18.166-.33.313c-.201.195-.37.362-.483.481l-.18.186z"/>
            <path d="M45.253 31.382s.107-.064.281-.137q.065-.03.14-.054.076-.031.16-.056c.112-.032.23-.071.355-.093q.09-.02.184-.034c.058-.015.12-.02.178-.025l.17-.015q.079-.01.152-.007c.093 0 .171.007.225.007l.086.008-.086.012c-.054.007-.13.02-.223.03-.093.007-.199.034-.314.048-.112.015-.233.047-.353.071-.061.01-.12.027-.179.042l-.174.041c-.11.03-.215.056-.306.083-.088.025-.164.042-.216.061q-.082.024-.083.025zM46.413 30.536s.01-.083.049-.206c.017-.06.044-.13.073-.2.03-.076.071-.147.108-.223q.032-.053.069-.107c.022-.037.041-.071.068-.103q.04-.047.074-.088c.022-.027.044-.056.068-.076.098-.083.165-.132.165-.132s-.047.074-.123.17c-.02.023-.034.053-.054.082l-.061.093q-.031.05-.061.103l-.064.105-.059.107c-.017.037-.042.071-.056.106l-.199.369z"/>
        </g>
        <path fill="#97c740" d="M43.93 29.299s-.73-1.795-1.373-2.658c-.642-.865-.865-3.102-.51-4.61.4-1.042.709-1.13 1.24-.8.533.332.778.8 1.153.511.377-.289.865-.487 1.416-.088.554.398.532.442.532.821 0 .38-.11.841.532 1.152s.777.709.777 1.33c0 .62-.201.797-.777 1.041-.578.245-.532.511-.223.863.311.355.51.866.2 1.064-.31.2-.377 0-.465.489-.088.486-1.02 2.747-2.505.885z"/>
        <path fill="#97c740" d="M46.92 25.998c.576-.244.777-.42.777-1.041s-.135-1.02-.777-1.33-.532-.775-.532-1.152.022-.423-.532-.821c-.392-.281-.75-.264-1.058-.127-.412.938-.787 1.919-.829 2.938-.012.3-.027.636.084.922.088.225.134 1.022.291 1.203.162.183.439-.25.54-.025.1.223.159.457.196.697.134.868.049 1.794-.358 2.584l-.052.09c1.047.47 1.689-1.124 1.76-1.523.088-.489.154-.288.466-.489.31-.197.11-.709-.201-1.063-.31-.354-.356-.62.223-.863z" opacity=".5" style="mix-blend-mode:multiply"/>
        <g fill="#97c740" style="mix-blend-mode:multiply">
            <path d="M44.197 23.47s-.05.198-.09.494a7 7 0 0 0-.065.797v.15l.005.148c0 .1.008.198.015.296.005.098.02.193.027.286s.027.181.037.267c.012.085.03.166.044.24.017.073.027.141.041.2l.04.151.034.135s-.02-.047-.051-.13q-.025-.061-.057-.149-.031-.088-.061-.198a3 3 0 0 1-.061-.237c-.018-.086-.042-.174-.052-.27-.012-.094-.032-.19-.037-.29-.007-.1-.017-.2-.017-.303v-.152q0-.075.003-.151c0-.1.012-.198.02-.294a4.701 4.701 0 0 1 .083-.513 3 3 0 0 1 .144-.484z"/>
            <path d="M43.441 24s.037.074.089.186c.049.11.115.257.184.406l.05.11c.018.037.03.071.05.105l.049.098q.021.047.042.09c.058.106.093.184.093.184s-.06-.056-.14-.154a.5.5 0 0 1-.056-.08q-.031-.045-.062-.096c-.041-.066-.076-.142-.112-.215a3 3 0 0 1-.089-.225 2 2 0 0 1-.058-.203c-.032-.12-.037-.203-.037-.203zM44.397 25.199l-.061.122c-.02.034-.037.076-.059.117q-.016.035-.032.069c-.01.022-.024.044-.032.07l-.03.072q-.015.035-.024.068l-.022.066c-.007.022-.017.042-.02.061-.014.076-.034.13-.034.13s-.014-.052-.02-.137c-.004-.042.006-.088.013-.142.005-.054.03-.105.047-.157q.016-.037.036-.073t.042-.068q.046-.064.088-.11a.5.5 0 0 1 .106-.088z"/>
        </g>
        <path fill="#68b42e" d="M36.816 28.24s.485-1.01-.272-1.261c-.757-.252-1.088-.563-.855-1.69.174-.99.02-1.203-.155-2.02-.174-.816.233-.97.486-1.378.252-.408.541-.814 1.127-.68.583.137.794.485.794.485s.757-1.942 1.573-1.785c.816.156.758.853.544 1.166-.213.31-.33.755.35.794s1.087.465 1.087.815-.233.523.039.777c.272.252.311.445.37.951.059.504.154 1.147.35 1.494.194.35.096.369-.409.62-.505.253-.407.37-.367.759.039.388-.273.62-.758.99-.485.369-.718.699-.796 1.437s-.331 1.049-.99 1.086c-.66.039-.777-.524-.912-1.086s-.525-.777-.873-.892c-.348-.117-.446-.291-.33-.582z"/>
        <path fill="#3e9f32" d="M42.255 25.91c-.194-.35-.292-.99-.35-1.493-.06-.504-.099-.7-.371-.951-.272-.252-.04-.428-.04-.778s-.408-.775-1.085-.814c-.681-.039-.564-.486-.35-.794.178-.262.247-.797-.221-1.054-.132.584-.547 1.142-.875 1.626-.267.39-.718.948-.419 1.425.135.213.287.415.395.648.078.168.205.4.176.596-.027.171-.083.303-.223.413-.12.093-.238.115-.297.291a1.4 1.4 0 0 0-.095.538c.022.538.336.851.823 1.003.28.085.701.144.9.38.154.187-.142.407-.277.487-.157.093-.331.172-.517.177-.123.004-.243-.023-.365-.025-.243 0-.258.337-.282.52a9 9 0 0 0-.069.795 8.3 8.3 0 0 0 .096 1.726l.032.181c.029 0 .06.003.09 0 .66-.039.914-.35.99-1.085.079-.739.312-1.069.797-1.438s.796-.601.757-.99-.135-.506.368-.758c.505-.254.6-.271.41-.62z"/>
        <g fill="#68b42e" style="mix-blend-mode:multiply">
            <path d="m37.414 25.71.13.151c.08.098.199.233.33.406q.101.129.216.28.116.145.236.312.057.084.117.169c.037.058.076.122.113.183.069.13.133.269.155.418.012.073.014.15.02.223q.002.11-.006.217c-.01.144-.022.281-.022.416a6 6 0 0 0 .037.733c.024.215.049.394.078.516q.022.092.04.14c.012.034.032.039.032.036 0 0-.005.003-.013-.005a.1.1 0 0 1-.022-.032 1 1 0 0 1-.054-.137 4.996 4.996 0 0 1-.176-1.254c0-.14.01-.278.014-.418.003-.07 0-.14 0-.21-.004-.07-.007-.14-.02-.208a1.2 1.2 0 0 0-.136-.389 7 7 0 0 0-.22-.35c-.158-.217-.302-.424-.427-.603l-.17-.242-.132-.186-.115-.161z"/>
            <path d="M38.575 25.06s0 .046-.003.122c-.002.078 0 .19 0 .323q-.001.102.005.215.005.114.017.237c.01.083.018.168.035.252l.044.261c.017.088.022.179.032.267.012.088.01.176.017.259.005.083.002.166.002.242q0 .117-.002.217c0 .135-.012.245-.015.323l-.012.122-.027-.445c-.005-.134-.02-.288-.032-.454q-.009-.125-.022-.255c-.01-.085-.017-.173-.034-.261l-.044-.264c-.017-.088-.017-.176-.025-.262-.007-.085 0-.166-.002-.244 0-.078.007-.152.01-.218.01-.134.026-.247.036-.323.013-.078.022-.122.022-.122z"/>
            <path d="m40.022 25.3-.015.026c-.01.017-.02.042-.042.071q-.03.045-.07.108c-.028.044-.062.085-.101.134q-.057.073-.125.157-.07.077-.15.163-.158.17-.328.348c-.047.063-.1.122-.142.185-.04.066-.089.13-.116.198q-.022.05-.049.1l-.036.098c-.027.064-.04.13-.054.186-.017.059-.022.115-.035.161-.01.05-.014.091-.02.128l-.016.112v-.112q0-.055.002-.13c.005-.049.003-.108.017-.169.013-.06.02-.13.042-.195q.014-.053.032-.105c.012-.037.03-.071.044-.108.027-.073.071-.142.113-.212.044-.071.1-.135.152-.201q.087-.092.171-.176.085-.086.167-.164.083-.077.16-.151l.134-.145c.042-.046.083-.083.115-.122q.049-.055.083-.095l.074-.086z"/>
        </g>
        <path fill="#97c740" d="M36.179 41.296s-1.672 1.75-5.593-.663c-1.932-1.388-2.557-3.5-1.75-4.867.642-.865 1.267-.785 1.448-.2.584-.543 1.167.141 2.213.403.885.2 1.248.965.804 1.589-.262.284.181.303.343.684.16.382-.402 1.108-.402 1.108s.581-.103.665.604c.764-.14 1.568.824 2.272 1.347z"/>
        <path fill="#97c740" d="M33.904 39.948c-.08-.704-.664-.604-.664-.604s.561-.726.402-1.107c-.162-.382-.603-.401-.343-.685.443-.623.08-1.388-.804-1.589-1.047-.261-1.63-.946-2.213-.403-.13-.416-.483-.575-.907-.32.03.024.059.048.088.08.383.42.29 1.12.27 1.633-.012.323-.022.665.083.973.093.27.238.53.39.773.296.47.669.873 1.122 1.195.23.167.47.31.716.455.287.169.554.367.838.538.258.156.503.257.794.325.213.051.449.095.642.205a.86.86 0 0 1 .402.465c1-.11 1.456-.592 1.456-.592-.703-.523-1.51-1.486-2.272-1.347z" opacity=".5" style="mix-blend-mode:multiply"/>
        <g fill="#97c740" style="mix-blend-mode:multiply">
            <path d="M34.146 41.415s-.09-.022-.25-.073a7.845 7.845 0 0 1-1.522-.675 8 8 0 0 1-.466-.296 5.745 5.745 0 0 1-.875-.728l-.098-.1-.093-.106q-.094-.104-.176-.21a3.5 3.5 0 0 1-.294-.425c-.047-.069-.081-.14-.12-.208-.04-.064-.072-.135-.101-.198-.064-.127-.105-.252-.147-.362a6 6 0 0 1-.088-.288l-.057-.255.074.25q.04.117.103.278c.046.105.095.225.162.35.032.063.066.13.107.193.04.066.076.135.125.2a5 5 0 0 0 .476.614q.046.052.093.1l.098.098c.13.132.272.257.417.374a6.6 6.6 0 0 0 .902.64c.152.091.299.18.443.252.142.079.282.145.41.206a10 10 0 0 0 .875.362z"/>
            <path d="M32.195 40.491s-.066-.061-.137-.173a2 2 0 0 1-.11-.201c-.015-.04-.034-.078-.047-.12a1.364 1.364 0 0 1-.076-.616.7.7 0 0 1 .03-.159l.017-.058.002.06v.07q.001.039.005.087c.003.064.012.14.025.218.005.039.015.08.022.122a1 1 0 0 0 .03.122c.019.083.046.164.07.24q.021.057.04.11.019.05.039.098c.049.12.088.198.088.198zM30.305 39.464l.044.015c.027.01.068.022.115.04q.072.024.154.065a4 4 0 0 1 .268.115q.042.024.085.04.086.035.155.068c.088.044.147.08.147.08s-.069-.007-.164-.027a2 2 0 0 1-.167-.041c-.032-.01-.061-.017-.09-.032q-.046-.017-.091-.04-.095-.041-.177-.085a2 2 0 0 1-.24-.166l-.034-.03z"/>
        </g>
        <path fill="#68b42e" d="M37.803 32.222c-.426 0-.595.023-.512-.276.086-.298.108-.68-.617-.809-.724-.127-1.106.298-1.36.746-.256.447-.64.85-.895.701s-1.042 0-1.17 1 .297 1.936.682 2.533c.382.597.936.97.743 2.208-.3 1.466.723 1.481.723 1.481h.063c2.745-1.283 3.022-5.12 3.042-5.992.022-.873-.277-1.589-.701-1.589z"/>
        <path fill="#3e9f32" d="M37.803 32.223c-.427 0-.596.022-.513-.277.086-.298.108-.68-.617-.809a1.3 1.3 0 0 0-.27-.022c.517.712.878 1.543.86 2.428a3.5 3.5 0 0 1-.431 1.62c-.297.543-.703 1.025-.97 1.585-.373.775-.444 1.68-.898 2.423q-.07.114-.151.217c.23.281.583.26.583.26h.063c2.746-1.108 3.022-5.044 3.042-5.915.022-.872-.277-1.51-.7-1.51z"/>
        <g fill="#68b42e" style="mix-blend-mode:multiply">
            <path d="M36.594 33.794s.003.076 0 .206c-.005.13-.007.315-.03.54-.007.113-.024.232-.038.36-.018.127-.032.261-.057.398a10 10 0 0 1-.08.423q-.044.215-.096.435c-.035.144-.079.286-.118.428-.04.142-.086.279-.127.41-.04.135-.093.257-.138.38q-.067.18-.134.334-.066.157-.123.28-.059.12-.105.21c-.057.117-.091.183-.091.183s.03-.069.074-.19q.038-.09.088-.219c.034-.083.066-.18.105-.283q.061-.157.118-.34c.039-.122.086-.247.122-.381.04-.135.086-.27.123-.411.037-.142.078-.284.108-.428.036-.144.073-.286.103-.43q.047-.215.083-.418l.071-.394c.02-.127.04-.244.052-.354.029-.22.051-.406.066-.533.012-.13.017-.203.017-.203z"/>
            <path d="M35.625 34.232a2.6 2.6 0 0 0 .336.552q.08.163.144.348.032.092.06.18.024.093.043.181.016.088.03.172l.014.156v.132c0 .04-.007.073-.01.1l-.012.086q.001-.002-.005-.088.002-.041-.007-.1a2 2 0 0 1-.017-.127l-.03-.15q-.017-.078-.041-.163a4 4 0 0 0-.113-.35l-.064-.176-.066-.169c-.044-.107-.09-.21-.127-.296l-.093-.21c-.022-.051-.037-.08-.037-.08zM36.898 35.919s-.037.103-.11.247a4.5 4.5 0 0 1-.307.51c-.064.086-.125.177-.191.253-.066.075-.125.149-.184.207q-.09.089-.142.135l-.054.049.042-.061.113-.157c.024-.03.049-.068.076-.105q.04-.055.083-.117.046-.061.088-.125l.093-.13c.032-.041.062-.087.09-.13q.046-.065.09-.126.086-.126.156-.225l.113-.159.044-.059z"/>
        </g>
        <path fill="#97c740" d="M22.838 42.532s-.892-.095-2.823-2.124c-1.64-1.472-1.4-2.074-1.326-2.87.095-.893-.775-1.426-.292-2.343.483-.916.78-.838 1.054-.89s.505-.75.708-1.293c.206-.543.809-1.039 1.507-.858.701.181.892.76.966 1.015.071.254.23.205.421.132.194-.074.356.093.451.51.096.419.5.517.885.886.387.371.74.821.451 1.303-.289.484-.098.772-.532 1.11-.433.337-.482.53-.338 1.24.145.708.321 1.014-.289 1.463-.613.45-1.015.692-.806 1.35.21.66.45 1.063.387 1.222-.064.162-.275.21-.427.145z"/>
        <path fill="#97c740" d="M24.39 34.697c-.387-.37-.789-.467-.884-.885-.096-.418-.258-.582-.451-.511-.194.073-.35.12-.422-.132-.07-.25-.26-.81-.926-1.002.005.102 0 .207-.005.31-.044.726-.248 1.445-.478 2.132-.218.645-.581 1.313-.65 1.997-.066.672.155 1.357.388 1.98.127.343.218.697.326 1.047.102.335.242.64.384.96.228.514.397 1.052.442 1.614.49.298.725.325.725.325.154.064.363.017.427-.144.063-.161-.177-.562-.388-1.222-.208-.66.194-.9.806-1.35.61-.452.434-.755.29-1.464-.145-.707-.096-.9.338-1.24.436-.337.243-.628.532-1.11.289-.481-.064-.931-.451-1.303z" opacity=".5" style="mix-blend-mode:multiply"/>
        <g fill="#97c740" style="mix-blend-mode:multiply">
            <path d="M22.62 42.234s-.079-.095-.201-.276c-.061-.09-.13-.203-.21-.33a8 8 0 0 1-.248-.445 7.5 7.5 0 0 1-.5-1.169q-.113-.33-.221-.682a8 8 0 0 1-.103-.355c-.037-.12-.066-.24-.096-.359-.034-.12-.056-.242-.085-.362-.025-.122-.044-.244-.066-.364q-.027-.183-.05-.362-.02-.18-.034-.354-.012-.177-.017-.343v-.33q.008-.16.012-.31c.008-.1.02-.198.027-.291q.013-.138.032-.266.018-.127.037-.238c.032-.149.054-.278.08-.383l.091-.33h.01l-.061.337q-.028.163-.059.384c-.01.073-.014.156-.024.237a3 3 0 0 0-.022.264q-.009.139-.018.288-.002.148-.01.309 0 .159.006.325l.014.34c.005.114.017.232.025.352q.024.176.041.359c.035.24.072.484.12.726.094.486.24.96.417 1.389.086.215.181.418.267.61q.133.291.255.541c.081.166.162.315.233.45q.107.197.189.34c.108.188.174.29.174.29l-.008.005z"/>
            <path d="M21.459 39.613q-.001 0-.02-.03l-.042-.094c-.022-.042-.03-.096-.046-.157q-.011-.045-.025-.098-.006-.05-.012-.11c-.007-.076-.017-.159-.017-.25.005-.087.017-.178.027-.273l.014-.144a2 2 0 0 0 .025-.147c.015-.098.022-.2.03-.3.002-.103.026-.203.044-.301l.06-.289c.02-.093.038-.186.072-.266l.083-.233c.052-.144.1-.261.135-.344.037-.08.056-.127.056-.127h.01s-.01.053-.03.142a6 6 0 0 1-.09.354q-.029.11-.069.235c-.027.083-.044.17-.068.264q-.038.136-.074.28-.023.073-.041.145-.021.072-.035.147-.03.148-.054.296a2 2 0 0 0-.017.146q-.001.075 0 .144c0 .096.008.186.005.272q.009.129.015.242a.8.8 0 0 0 .02.203c.01.06.01.115.022.156a1 1 0 0 0 .031.135l-.01.005zM19.971 35.073s.01.037.03.098q.025.097.07.26l.042.173.037.195c.024.137.073.279.14.411q.05.1.1.196c.032.063.064.13.098.188l.096.173c.032.054.056.108.088.154q.044.07.076.13c.022.04.046.07.061.1l.052.088-.005.005s-.03-.024-.076-.07q-.037-.035-.084-.086l-.098-.123q-.05-.066-.103-.151c-.036-.054-.066-.115-.098-.179a3 3 0 0 1-.088-.2c-.03-.069-.049-.142-.07-.213-.023-.07-.04-.144-.067-.212a2 2 0 0 0-.076-.2c-.024-.067-.052-.13-.069-.192a2 2 0 0 1-.039-.176c-.041-.222-.03-.374-.03-.374h.01z"/>
        </g>
        <path fill="#97c740" d="M21.026 25.037s-.282-.515.282-1.017c.564-.5 1.176-.17 1.483-.528.306-.357.637-1.053 1.164-.76s.6.504.845.345c.245-.162.98-.123 1.41.305.429.43.784 1.853-.199 3.254-.98 1.399-.45 2.638-.113 3.347.339.707.273 1.802-1.433 1.658s-1.706-1.739-1.706-2.125-.29-.435-.547-.386c-.257.046-.595-.032-.595-.548s-.931.064-1.142-.498c-.209-.563-.226-.404-.74-.629-.515-.225-.844-1.99 1.284-2.42z"/>
        <path fill="#97c740" d="M26.02 26.636c.98-1.398.627-2.823.198-3.254-.429-.428-1.164-.467-1.409-.305-.245.159-.319-.052-.846-.345-.326-.18-.575.017-.791.276q.15.162.27.374c.396.72.504 1.59.512 2.401.01 1.235-.517 2.657.054 3.831.335.692.801 1.32 1.088 2.017 1.095-.144 1.103-1.042.814-1.648-.339-.709-.87-1.948.112-3.347z" opacity=".5" style="mix-blend-mode:multiply"/>
        <g fill="#97c740" style="mix-blend-mode:multiply">
            <path d="M23.48 24.48s-.006.1 0 .279c0 .176.009.427.029.73.007.152.024.314.041.487.02.171.042.355.066.54.027.186.054.382.093.575l.054.293q.032.147.069.294c.04.198.093.39.142.584.047.193.113.377.167.557.051.181.12.352.179.514q.043.121.085.237l.091.218c.062.136.11.268.162.378q.077.167.137.287c.076.158.118.251.118.251s-.05-.088-.135-.244l-.152-.281c-.056-.108-.113-.237-.179-.374q-.049-.105-.098-.215-.046-.112-.095-.235c-.062-.162-.138-.33-.192-.514-.056-.18-.125-.366-.174-.56-.051-.193-.107-.388-.15-.584q-.028-.15-.063-.296l-.051-.298c-.037-.195-.06-.391-.088-.58a10 10 0 0 1-.052-.544c-.01-.174-.022-.338-.025-.49a6 6 0 0 1-.004-.415 6 6 0 0 1 .032-.597z"/>
            <path d="M24.364 27.6s-.008.024-.015.068q-.016.063-.037.176c-.01.034-.012.075-.02.117-.004.042-.017.086-.022.13q-.009.068-.017.141a.7.7 0 0 0-.012.145q-.004.071-.01.144c-.005.049 0 .095-.002.142v.132q-.003.061.002.117c.005.073.005.137.008.178v.069q-.001 0-.02-.066-.017-.065-.044-.176a.5.5 0 0 1-.02-.12 2 2 0 0 1-.012-.134c0-.047-.01-.096-.005-.147l.007-.15c.005-.048.008-.1.018-.148q.011-.074.027-.142c.007-.047.024-.09.034-.132q.016-.062.037-.117a1.4 1.4 0 0 1 .07-.167q.032-.06.033-.06M22.32 25.976l.062.054c.036.037.093.085.156.146l.219.21c.078.079.164.16.247.243s.17.164.248.242q.121.11.218.208c.066.056.12.107.16.142l.058.056s-.103-.059-.255-.157a11 11 0 0 1-.24-.188 11 11 0 0 1-.258-.235c-.083-.085-.169-.168-.24-.252a6 6 0 0 1-.196-.232c-.11-.14-.176-.24-.176-.24z"/>
        </g>
        <g fill="#e1ccbb" style="mix-blend-mode:multiply">
            <path d="m32.498 36.672-.37-2.026-.885.048-.321.917.448 1.995.775-.064zM26.485 34.425c-1.093 1.352-1.118 3.611-1.118 3.611l.424.648 1-.15h.025l.669-3.273-.189-.635zM35.398 25.314s.1.12.395.252l.032.014c1.875-1.029 3.906.022 3.906.022l.41-.885-.035-.225s-.352-.956-2.271-1.039-2.437 1.118-2.437 1.118zM37.219 42.858l.032.723.598.484 1.982-.528.113-.52-.24-.959s-1.593.064-2.485.8M34.911 43.965c-1.98-.9-3.196.337-3.196.337l-.012.81s.034.033.235.527c2.5-.956 4.133 1.262 4.133 1.262l.482-.394.43-.89s-.091-.755-2.072-1.655zM38.644 26.676l-.19.848.25.567 1.97.162.203-.72-.164-.508zM22.062 30.027c-.05.423-.037.64-.037.64l.338.539s1.309.137 1.497 1.268q.003.022.01.047c.12 1.066-.14 1.873-1.166 2.582l.02.758.448.278s1.412-.364 1.63-2.271a4.3 4.3 0 0 0-.093-1.484c-.322-1.313-1.273-2.361-2.647-2.352zM43.87 34.294c-.58 1.185-.49 2.884-.49 2.884l.397.668.85-.1.498-2.245-.345-.75-.91-.46zM48.455 32.602a8 8 0 0 0-.34-.377 6 6 0 0 0-.292-.293s-1.186.67-1.154 2.359 1.593 2.462 1.593 2.462l.343-.22.235-.152s-1.85-1.77-.387-3.78z"/>
        </g>
        <path fill="#68b42e" d="M42.1 38.533s-.66.188-.466 1.19c.194 1 .436 1.966-.456 2.69-.892.723-.725.772-.556 1.183.169.41-.022.797-.772 1.134-.748.338-1.326.988-.892 1.931.434.942 1.375.482 1.713.458.338-.025.77.288 1.23.532.458.243 1.037 0 1.255-.386.216-.386.652-.337 1.206-.337s1.16-.047 1.664-.7c.507-.65.507-.82.41-1.351-.096-.53.122-.482.676-1.086.556-.604.267-1.594-.532-1.955-.797-.362-.917-.724-1.061-1.206-.145-.484-.339-.508-.797-.555-.458-.049-.603-.337-.867-.821-.265-.482-1.532-1.049-1.755-.716z"/>
        <path fill="#3e9f32" d="M46.582 41.83c-.797-.361-.917-.723-1.061-1.205-.145-.484-.339-.508-.797-.555-.458-.049-.603-.337-.867-.821-.204-.37-.988-.785-1.449-.814q.174.308.392.584c.356.45.811.878 1.061 1.403.12.254.214.545.152.829-.061.281-.2.523-.306.787-.127.313-.17.655-.042.976.091.234.226.447.312.684.12.325.1.714-.248.89-.35.176-.809-.19-1.137.024-.204.132-.218.401-.022.524.07.046.152.08.218.132.135.11.196.295.213.464.005.051-.007.127-.069.142-.227.059-.313.4-.39.611-.065.184-.136.377-.132.575.003.095.018.2-.002.295a.8.8 0 0 1-.201.382c.385.039.78-.174.949-.477.215-.386.651-.337 1.205-.337s1.16-.047 1.665-.7c.507-.65.507-.82.409-1.351-.096-.53.122-.482.676-1.086.556-.604.267-1.594-.532-1.956z"/>
        <g fill="#68b42e" style="mix-blend-mode:multiply">
            <path d="M42.099 38.532q-.002.001.012.035c.007.019.02.053.04.092.016.042.046.086.075.142.017.027.04.056.059.086q.029.048.071.093c.1.132.255.261.439.398.188.135.387.31.585.514.199.205.4.442.576.72.089.14.167.292.226.455s.096.348.073.533a.8.8 0 0 1-.088.27c-.024.038-.049.08-.08.117l-.047.053-.044.05q-.05.051-.091.102l-.08.105c-.026.037-.047.078-.072.115-.022.04-.037.08-.056.122a.72.72 0 0 0 .005.521c.06.174.156.335.232.511q.03.066.057.134l.027.071.02.069c.014.044.021.097.031.144.003.051.01.1 0 .154a.43.43 0 0 1-.132.276.7.7 0 0 1-.258.152c-.183.066-.37.09-.553.112q-.137.015-.265.044-.13.03-.245.083a.5.5 0 0 0-.187.15.33.33 0 0 0-.053.22.4.4 0 0 0 .08.215.8.8 0 0 0 .17.163c.125.098.27.189.352.333.042.07.064.154.06.232v.032l-.006.027c-.002.017-.002.034-.01.054l-.019.058-.027.052c-.078.13-.198.21-.299.286a.7.7 0 0 0-.135.122.14.14 0 0 0-.017.15c.052.097.115.19.145.29q.023.077.01.147a.3.3 0 0 1-.06.12.6.6 0 0 1-.17.141c-.055.035-.106.057-.146.076l-.125.054.123-.059c.04-.02.088-.044.142-.08a.6.6 0 0 0 .162-.145.25.25 0 0 0 .051-.112.4.4 0 0 0-.012-.137c-.03-.095-.09-.178-.152-.284a.15.15 0 0 1-.02-.092c0-.035.018-.067.037-.093a.7.7 0 0 1 .14-.135c.1-.08.213-.159.28-.279q.012-.021.022-.044l.014-.046c.008-.015.008-.034.01-.054v-.027l.005-.007v-.015c0-.07-.02-.14-.054-.2-.074-.125-.21-.208-.34-.308a1 1 0 0 1-.19-.176.516.516 0 0 1-.1-.252.38.38 0 0 1 .064-.274.55.55 0 0 1 .218-.178 1.6 1.6 0 0 1 .534-.14c.18-.022.363-.049.532-.11a.6.6 0 0 0 .223-.132.34.34 0 0 0 .103-.222c.008-.044 0-.088-.002-.132-.008-.044-.013-.086-.03-.132l-.02-.069-.024-.06q-.027-.066-.054-.13c-.076-.172-.171-.338-.235-.521a.84.84 0 0 1 0-.582c.071-.18.194-.34.319-.47.066-.07.12-.129.161-.205a.7.7 0 0 0 .079-.24 1.1 1.1 0 0 0-.064-.496 2.3 2.3 0 0 0-.213-.442 4.938 4.938 0 0 0-1.122-1.244 2 2 0 0 1-.432-.416 1.5 1.5 0 0 1-.196-.33.5.5 0 0 1-.034-.095q-.011-.034-.01-.035z"/>
            <path d="M42.524 39.212s.044.076.1.217c.028.071.065.157.096.257l.054.161c.018.057.032.118.05.181.036.128.06.267.093.414l.036.227q.019.116.03.24.01.12.02.249c.004.083.002.171.007.257.007.173-.005.347-.015.52 0 .088-.015.174-.027.262l-.037.257c-.027.17-.07.335-.103.493-.036.16-.093.308-.137.45-.042.145-.105.272-.154.394-.052.12-.091.232-.147.325q-.076.141-.13.242l-.115.21.098-.217q.045-.103.115-.25.033-.07.064-.156l.066-.174c.041-.122.1-.252.135-.393q.03-.107.06-.22c.02-.076.05-.15.062-.23.03-.159.071-.32.096-.487q.016-.128.031-.254l.018-.127q.006-.063.007-.13c.012-.17.027-.342.022-.513q0-.128-.002-.252-.009-.125-.018-.247a4 4 0 0 0-.024-.237q-.014-.117-.027-.227c-.027-.147-.044-.284-.076-.41a7 7 0 0 0-.083-.346 4 4 0 0 0-.14-.425q-.024-.06-.025-.059z"/>
            <path d="M41.674 43.642s.089-.084.216-.208l.22-.21c.079-.079.165-.162.246-.25q.06-.06.12-.13l.113-.127c.036-.041.066-.085.098-.124q.045-.061.08-.115c.027-.04.044-.073.062-.103a.4.4 0 0 0 .041-.085l.032-.076q.002.002-.014.083a.3.3 0 0 1-.027.093c-.013.034-.025.076-.047.115-.022.041-.042.088-.071.13-.027.043-.056.092-.09.136a3 3 0 0 1-.231.274 3.8 3.8 0 0 1-.679.557l-.071.042zM42.2 38.56s.092.038.244.121a6 6 0 0 1 .995.673 5 5 0 0 1 .593.574c.032.037.067.074.096.11q.046.056.093.115l.093.117.086.123.086.124.076.127q.037.064.076.128l.066.134c.022.044.047.088.066.135l.061.136q.06.135.11.272.05.132.094.269.044.135.08.264.038.132.064.256.034.125.054.245.026.117.045.23.04.219.058.403.022.18.032.313c.012.174.015.274.015.274s-.01-.1-.034-.272q-.016-.126-.047-.308-.033-.181-.076-.398a4 4 0 0 0-.051-.225q-.028-.117-.062-.237-.031-.124-.073-.252c-.027-.086-.052-.174-.084-.26a3 3 0 0 0-.095-.263q-.05-.133-.11-.267l-.06-.134-.065-.132-.067-.13-.076-.127-.076-.13-.08-.122-.084-.122-.088-.115-.088-.115-.093-.107a3 3 0 0 0-.191-.208c-.062-.068-.13-.13-.192-.19a7.053 7.053 0 0 0-1.387-1.022z"/>
            <path d="M45.02 41.796s.122.1.286.269c.081.085.18.186.275.296.095.112.193.237.286.364.047.063.089.13.135.195.044.064.081.133.12.196q.055.096.1.188l.08.176c.024.054.038.105.056.152.017.046.024.086.034.12l.022.105-.042-.098q-.017-.048-.049-.112t-.07-.142l-.091-.164q-.052-.085-.11-.178a10 10 0 0 0-.535-.744c-.088-.115-.174-.222-.248-.315l-.247-.306z"/>
        </g>
        <path fill="#68b42e" d="M42.1 40.44a5.7 5.7 0 0 1-.103-1.338c.002-.07-.078.003-.083.04-.074.415-.128.622-.086 1.053.051.498.181.953.117 1.462-.041.327-.2.726-.477.921-.145.103-.336.12-.483.216a.83.83 0 0 0-.4.591c-.056.316.172.68.191 1.003.015.237-.88.618-1.031.74-.53.435-.866.924-.645 1.621.042.135.198-.085.184-.171-.15-.81.438-1.254 1.054-1.599.206-.117.397-.198.544-.389.108-.136.113-.34.088-.503a3 3 0 0 0-.135-.543c-.174-.491.272-.528.508-.648.541-.28.757-.887.828-1.462.042-.332-.005-.67-.069-.997z" style="mix-blend-mode:screen"/>
        <g fill="#68b42e" style="mix-blend-mode:screen">
            <path d="M34.605 36.538c-.27-.577-.539-1.161-.826-1.731-.348-.692-.45-1.489.204-2.012.036-.03.066-.16-.013-.115-.617.347-.651.875-.63 1.54.015.394.24.765.4 1.117.216.477.382.998.684 1.428.076.108.218-.142.176-.227zM34.792 37.134c-.044-.056-.128.078-.098.125.193.318.063.709.08 1.056.008.142.155-.027.16-.1.024-.35.083-.783-.145-1.08z"/>
        </g>
        <g fill="#97c740" style="mix-blend-mode:screen">
            <path d="M30.174 39.574c-.973-.995-1.573-2.252-1.194-3.663.027-.097-.083-.039-.102.015-.5 1.303-.052 3.085 1.134 3.89.086.058.226-.174.162-.24zM30.55 40.014a.8.8 0 0 0-.162-.137c-.049-.034-.137.11-.08.144.056.034.11.076.161.117.042.032.113-.088.08-.122z"/>
        </g>
        <g fill="#97c740" style="mix-blend-mode:screen">
            <path d="M20.38 33.012c-.013-.076-.108.042-.108.083.007.24-.186 1.013-.36 1.188-.238.238-.66.23-.954.374-.412.206-.605.695-.625 1.125-.032.702.662 1.264.55 1.949-.106.642-.114 1.149.41 1.618.084.073.187-.164.155-.23-.23-.472-.463-.772-.345-1.332a1.8 1.8 0 0 0 .039-.609c-.03-.247-.223-.501-.336-.714-.274-.528-.434-1.156.15-1.584.357-.262.862-.135 1.127-.57.108-.178.147-.35.181-.555.044-.273.162-.46.118-.738zM20.177 39.774a3 3 0 0 1-.46-.48c-.047-.06-.142.087-.108.138.132.195.274.384.475.51.062.04.15-.121.093-.168"/>
        </g>
        <g fill="#97c740" style="mix-blend-mode:screen">
            <path d="M42.735 25.705c-.49-1.381-.8-3.004-.04-4.342.04-.07-.01-.144-.068-.066-.44.572-.616 1.27-.623 1.98-.005.477.074.937.164 1.404.081.42.155.863.375 1.234.064.108.223-.132.194-.212zM42.882 26.263c-.02-.032-.041-.06-.058-.093l-.067-.128c-.02-.039-.076.008-.09.027-.027.035-.044.084-.027.123.036.075.063.178.142.22.064.034.127-.103.1-.152z"/>
        </g>
        <path fill="#ef7e8a" d="m31.192 34.36-.32.916.45 1.995.292-.829z"/>
        <path fill="#f5aca2" d="m31.32 37.27.772-.063.353-.87-.833.105z"/>
        <path fill="#f39b99" d="m31.191 34.36.422 2.082.833-.105-.37-2.027z"/>
        <path fill="#ef7e8a" d="m26.744 38.2.022-.004.671-3.271-.188-.636s-.905 1.518-.917 3.389l.412.52z"/>
        <path fill="#f39b99" d="m27.25 34.291-.812-.2c-1.096 1.352-1.118 3.613-1.118 3.613l1.012-.024c.013-1.87.917-3.389.917-3.389"/>
        <path fill="#f5aca2" d="m25.316 37.702.424.648 1-.15-.411-.52-1.013.024z"/>
        <path fill="#f39b99" d="M39.605 24.85c.377-.629.448-.695.448-.695s-.353-.953-2.272-1.039-2.433 1.117-2.433 1.117v.04l.394.513s1.963-1.152 3.863.063"/>
        <path fill="#f5aca2" d="M40.054 24.155s-.071.069-.449.695l.076.415.41-.885-.035-.225zM35.352 24.273v.706s.1.12.394.252v-.445z"/>
        <path fill="#ef7e8a" d="m39.68 25.265-.075-.416c-1.9-1.215-3.863-.063-3.863-.063v.445l.032.014c1.875-1.029 3.904.022 3.904.022z"/>
        <path fill="#f39b99" d="m37.172 42.52.694.724s.958-.428 2.034-.567l-.24-.959s-1.594.064-2.488.8z"/>
        <path fill="#f5aca2" d="m37.172 42.52.032.726.598.484.063-.484z"/>
        <path fill="#ef7e8a" d="m37.865 43.246-.064.484 1.982-.528.113-.523c-1.076.137-2.034.567-2.034.567z"/>
        <path fill="#f39b99" d="M34.866 43.628c-1.98-.9-3.198.337-3.198.337l.282.733s1.037-.72 2.5-.034c1.463.687 1.688 1.474 1.688 1.474l.8-.855s-.091-.753-2.072-1.655"/>
        <path fill="#ef7e8a" d="M34.447 44.664c-1.463-.687-2.5.035-2.5.035l-.056.608c2.5-.956 4.132 1.262 4.132 1.262l.112-.428s-.225-.787-1.688-1.474z"/>
        <path fill="#f5aca2" d="m31.669 43.965-.013.812s.035.034.238.528l.056-.609-.281-.733zM36.136 46.139l-.113.428.483-.394.43-.89z"/>
        <path fill="#f39b99" d="m40.664 26.688-2.067-.345-.19.846 2.122.27z"/>
        <path fill="#ef7e8a" d="m38.406 27.189.248.565 1.97.166-.095-.462z"/>
        <path fill="#f5aca2" d="m40.666 26.688-.135.77.096.462.203-.724z"/>
        <path fill="#ef7e8a" d="m21.98 30.333.339.538s1.308.135 1.495 1.269q.006-.001.012-.01c-.157-1.858-1.846-1.797-1.846-1.797"/>
        <path fill="#f5aca2" d="m22.656 34.765.02.758.448.279-.022-.511z"/>
        <path fill="#f39b99" d="M22.014 29.693c-.046.422-.037.64-.037.64s1.69-.061 1.846 1.797q-.006.004-.012.01.004.025.01.046c.12 1.066-.14 1.873-1.167 2.58l.446.525s1.853-1.394 1.561-3.247c-.321-1.312-1.272-2.361-2.647-2.351"/>
        <path fill="#ef7e8a" d="m23.104 35.291.022.511s1.414-.367 1.63-2.274a4.2 4.2 0 0 0-.093-1.484c.291 1.854-1.561 3.247-1.561 3.247z"/>
        <path fill="#f5aca2" d="m43.336 36.843.4.665.847-.098-.22-.535z"/>
        <path fill="#ef7e8a" d="m44.584 37.41.497-2.241-.345-.751c-.284.79-.373 2.46-.373 2.46z"/>
        <path fill="#f39b99" d="m43.336 36.843 1.027.032s.088-1.667.372-2.46l-.912-.459c-.58 1.188-.49 2.887-.49 2.887z"/>
        <path fill="#ef7e8a" d="M48.407 32.267a10 10 0 0 0-.338-.376c-.341.513-1.35 2.393.487 4.31l.236-.152s-1.85-1.77-.385-3.782"/>
        <path fill="#f39b99" d="M48.07 31.89c-.188-.2-.294-.293-.294-.293s-1.186.67-1.154 2.36 1.593 2.461 1.593 2.461l.343-.22c-1.838-1.916-.828-3.794-.488-4.31z"/>
        <path fill="#fffbdc" d="M42.666 26.492c-.037 0-.076.091-.035.091.037 0 .074-.09.035-.09M25.534 25.069c-.015-.02-.052-.04-.076-.03l-.03.015a.05.05 0 0 0-.03.02c-.033.037-.068.12-.016.159.01.02.027.041.049.039.044-.002.083-.04.095-.08 0 0 .01-.018.013-.028.012-.029.014-.07-.003-.097zM31.272 22.61c-.012-.022-.05-.037-.074-.03q-.017.006-.029.015c-.01.005-.022.008-.032.02-.034.036-.069.12-.017.159.01.02.027.039.049.039.044 0 .083-.04.096-.08 0 0 .01-.018.012-.028.01-.03.012-.07-.005-.095M33.65 24.353c-.015-.022-.052-.037-.077-.03q-.015.008-.029.018a.1.1 0 0 0-.032.02c-.034.036-.069.12-.017.158.01.02.027.042.049.04.044-.003.083-.04.096-.081l.012-.025c.01-.03.012-.07-.005-.095zM34.46 22.488c-.015-.02-.051-.037-.076-.03q-.015.007-.03.017a.06.06 0 0 0-.029.02c-.034.037-.068.12-.02.159.013.02.03.041.05.039.044 0 .083-.04.095-.08.003-.008.01-.018.012-.025.01-.03.015-.069-.004-.098zM31.416 23.14c-.06 0-.12.148-.057.148.06 0 .12-.148.057-.148M28.988 23.673c-.04 0-.084.101-.04.101.042 0 .084-.1.04-.1M29.604 28.199c-.01-.02-.032-.022-.054-.015q-.02.002-.046.022l-.008.007c-.056.044-.11.137-.066.208.047.076.142.044.184-.017.042-.059.059-.164-.01-.205M37.152 26.83v-.008q0-.001-.003-.005v-.01a.04.04 0 0 0-.014-.02.1.1 0 0 0-.025-.019c-.046-.022-.086.054-.093.088a.14.14 0 0 0 .02.12c.044.066.12-.078.122-.115v-.034zM38.11 23.813s-.01-.008-.016-.015a.05.05 0 0 0-.02-.032c-.04-.026-.087 0-.114.032-.032.04-.06.11-.015.152.022.024.074.034.105.022.052-.017.113-.118.062-.162zM42.749 24.199s-.023-.002-.032 0c-.042-.012-.079.066-.086.095a1 1 0 0 0-.01.064c0 .012.002.037.017.041.06.02.103-.01.133-.06.024-.045.034-.115-.023-.137zM43.302 22.79c-.063-.06-.14.025-.161.086-.018.051-.01.147.066.135.02-.005.039-.02.056-.037.056-.037.093-.132.04-.183M45.996 24.927s-.008-.017-.013-.024v-.005c-.004-.03-.036-.03-.056-.017q-.007.008-.017.014c-.056.037-.1.14-.03.179.042.024.086-.037.101-.086.012-.024.017-.049.012-.06zM45.335 25.879c-.032.022-.09.115-.044.142v.003c.024.041.078-.032.083-.052.023-.037.025-.13-.041-.09zM49.132 30.501v-.005a.08.08 0 0 0-.037-.078c-.017-.017-.036-.027-.061-.022a.2.2 0 0 0-.044.015.04.04 0 0 0-.017.01l-.008.005a.1.1 0 0 0-.02.017l-.009.01-.002.004a.2.2 0 0 0-.054.152c.005.046.024.08.056.093a.2.2 0 0 0 .059.034c.046.015.088-.049.108-.083a.2.2 0 0 0 .029-.13v-.022M45.675 32.1a.1.1 0 0 0-.083-.014.1.1 0 0 1-.037-.008c-.039-.005-.068.05-.078.076-.032.071.005.113.054.122.044.008.1-.01.13-.053.022-.035.053-.093.014-.125zM49.181 33.134c-.066 0-.138.167-.064.167.067 0 .138-.167.064-.167M48.22 33.65c-.032-.017-.066.025-.081.047-.022.027-.042.064-.02.081.017.062.089.003.108-.046.008-.023.018-.067-.01-.079zM38.615 31.279c.036-.049.053-.112.022-.164q-.002-.018-.018-.03-.004 0-.005-.002a.13.13 0 0 0-.058-.039h-.025q-.029-.007-.068.015c-.067.046-.123.161-.062.232q.002.003.008.005c.014.049.063.069.11.064.017 0 .04-.017.056-.034a.2.2 0 0 0 .037-.05zM36.946 32.931q-.006-.015-.01-.029c-.017-.034-.044-.034-.071-.022q-.012-.002-.022-.003c-.079 0-.137.091-.14.164q0 .033.015.064-.001.032.02.059c.029.034.07.031.11.017.098-.015.164-.164.103-.242zM35.526 33.164c-.05-.115-.206-.137-.28-.035-.037.054-.061.113-.046.176q.007.032.03.054c.006.015.019.03.038.032a.15.15 0 0 0 .096.041c.117 0 .203-.17.162-.27zM40.245 34.86c-.11-.014-.19.123-.194.213-.005.078.066.16.145.161.051 0 .093-.034.125-.07l.014-.022q-.015.026.01-.015a.1.1 0 0 0 .017-.042q.012-.036.008-.073c.02-.083-.044-.14-.125-.15zM40.388 36.755c-.014-.01-.034-.01-.051-.005-.008 0-.015-.005-.02-.007-.049-.012-.086.08-.088.115v.027l-.002.017q-.001.024.01.041c.012.052.039.096.097.086.062-.015.113-.098.11-.157a.14.14 0 0 0-.053-.117zM37.076 38.892a.1.1 0 0 0-.013-.049.05.05 0 0 0-.037-.046c-.002-.015-.014-.03-.031-.02-.025.01-.05-.002-.074.015-.032.017-.051.056-.059.09a.12.12 0 0 0 .044.125c.005.005.01.005.018.01a.06.06 0 0 0 .029.014q.012.001.024-.005c.015 0 .03-.01.045-.022.029-.026.056-.073.053-.112M48.626 37.33l-.022-.03a.2.2 0 0 0-.015-.066c-.032-.051-.085-.073-.142-.08-.147-.02-.309.144-.274.29 0 .008.007.015.01.022.01.054.039.1.098.123.107.044.22-.03.276-.123.044-.005.093-.1.069-.139zM46.156 38.423c0-.022-.005-.037-.027-.042a.05.05 0 0 0-.035-.002q-.011.004-.02.01c-.03.014-.054.053-.066.083-.007.017-.017.066.01.074.02.005.034.007.054.005.051 0 .1-.084.086-.13zM24.792 29.55v-.026a.1.1 0 0 0-.059-.088c-.012-.008-.024-.005-.039 0-.042-.005-.083.032-.105.058-.035.044-.069.115-.047.172.017.049.052.066.088.066q.033.009.064-.015.022-.009.037-.022a.18.18 0 0 0 .061-.14zM30.199 31.795c-.02-.034-.064-.047-.101-.037q-.006.001-.012.005c-.037-.005-.071.03-.086.059-.024.051-.04.112.005.159.04.044.098.034.137-.005.042-.042.09-.12.059-.181zM22.392 34.02a.12.12 0 0 0-.118.031q-.011 0-.022.002c-.054.013-.105.074-.12.125-.022.071-.024.137.027.198.024.03.061.047.1.052.054.02.099-.005.133-.044a.3.3 0 0 0 .056-.069c.05-.078.059-.261-.054-.296zM22.333 36.264c-.017-.017-.034-.02-.051-.022-.03-.012-.052-.012-.081.014a.24.24 0 0 0-.064.135c-.005.034-.012.083.024.107.035.022.072.01.106-.01.068-.036.137-.163.066-.227zM23.868 37.806a.13.13 0 0 0-.191-.01c-.05.05-.096.138-.057.203v.015c.005.044.02.069.059.088.076.047.157-.007.199-.073a.195.195 0 0 0-.01-.225zM22.338 39.76c-.059-.015-.125.039-.157.08a.2.2 0 0 0-.027.05.3.3 0 0 0-.051.08.204.204 0 0 0 .135.281c.137.032.237-.115.264-.227.025-.103-.066-.24-.164-.264M24.043 43.106h-.007c-.113-.046-.253.074-.238.198.005.057.056.096.108.106.076.017.144-.032.181-.096.037-.066.04-.176-.044-.205zM23.768 44.434c-.03-.022-.066.012-.085.054a.1.1 0 0 0-.045.034c-.034.047-.066.147.01.179.064.026.125-.025.157-.074.047-.07.03-.144-.037-.19zM24.195 45.686c-.039 0-.078.095-.037.095.04 0 .08-.096.037-.096M30.839 46.074a.12.12 0 0 0-.064-.05c-.041-.047-.093-.045-.135-.02h-.034c-.152.007-.208.198-.14.315a.2.2 0 0 0 .285.061c.09-.064.154-.2.09-.303zM32.6 46.304a.04.04 0 0 0-.029-.039c-.01 0-.02-.005-.03-.007-.053-.008-.092.08-.095.124q-.004.02-.005.035 0 .018.008.036c.007.054.03.103.093.108.056.005.1-.086.1-.13 0-.056-.005-.1-.039-.127zM40.296 46.143c-.04-.069-.133-.12-.206-.076a.2.2 0 0 0-.044.042.2.2 0 0 0-.064.073.2.2 0 0 0-.017.174c.02.058.059.073.098.063.034.03.076.04.12 0a.3.3 0 0 0 .076-.093q.01-.009.022-.022a.14.14 0 0 0 .012-.161zM41.309 44.864a.07.07 0 0 0-.08-.01l-.038-.007c-.051-.007-.088.076-.09.117v.03a.2.2 0 0 0-.015.073c0 .059.04.113.1.115q.015 0 .03-.007c.041.014.088-.047.1-.103a.3.3 0 0 0 .035-.054c.024-.059 0-.115-.047-.151zM44.788 44.278c-.046-.012-.093.007-.132.029a.3.3 0 0 0-.059.051l-.007.005c.01-.01.01-.007 0 0a.2.2 0 0 0-.044.042.3.3 0 0 0-.05.1q-.027.053-.017.11.007.021.018.032c.02.08.073.151.161.161.13.017.216-.144.243-.247.024-.093-.007-.256-.115-.283zM27.918 38.354l-.027-.015c.027-.029.044-.08.015-.093-.083-.039-.14.05-.16.12-.019.071.028.174.113.145.042-.015.116-.12.06-.155zM29.774 36.895c-.068 0-.142.172-.066.172.069 0 .14-.172.066-.172"/>
    </g>
    <defs>
        <clipPath id="a">
            <path fill="#fff" d="M10.625 10h48v48h-48z"/>
        </clipPath>
    </defs>
</svg>
