<svg width="21" height="21" viewBox="0 0 21 21" fill="none" xmlns="http://www.w3.org/2000/svg">
<path d="M19.2692 18.5385H19.0256V14.1538H19.2692C19.6726 14.1538 20 13.8265 20 13.4231C20 13.0197 19.6726 12.6923 19.2692 12.6923H17.0769V3.67949C17.0769 2.20138 15.8755 1 14.3974 1H6.60256C5.12446 1 3.92308 2.20138 3.92308 3.67949V12.6923H1.73077C1.32738 12.6923 1 13.0197 1 13.4231C1 13.8265 1.32738 14.1538 1.73077 14.1538H1.97436V18.5385H1.73077C1.32738 18.5385 1 18.8658 1 19.2692C1 19.6726 1.32738 20 1.73077 20H19.2692C19.6726 20 20 19.6726 20 19.2692C20 18.8658 19.6726 18.5385 19.2692 18.5385ZM5.38462 3.67949C5.38462 3.00815 5.93123 2.46154 6.60256 2.46154H14.3974C15.0688 2.46154 15.6154 3.00815 15.6154 3.67949V12.6923H5.38462V3.67949ZM5.87179 18.5385H3.4359V14.1538H5.87179V18.5385ZM9.76923 18.5385H7.33333V14.1538H9.76923V18.5385ZM13.6667 18.5385H11.2308V14.1538H13.6667V18.5385ZM17.5641 18.5385H15.1282V14.1538H17.5641V18.5385Z" fill="#878787" stroke="#878787" stroke-width="0.35"/>
</svg>
