<svg width="23" height="19" viewBox="0 0 23 19" fill="none" xmlns="http://www.w3.org/2000/svg">
<path d="M7.69281 0.439453C6.09362 0.439453 4.78193 1.75114 4.78193 3.35056C4.78193 4.10496 5.08139 4.7899 5.55795 5.30947L3.16986 10.1305C3.08338 10.1227 2.99966 10.1043 2.91111 10.1043C1.31169 10.1043 0 11.416 0 13.0154C0 14.6148 1.31169 15.9265 2.91111 15.9265C3.91299 15.9265 4.79734 15.4072 5.32151 14.6293L17.2866 16.3858C17.6168 17.6301 18.7452 18.5621 20.0889 18.5621C21.6883 18.5621 23 17.2504 23 15.651C23 14.1015 21.7661 12.8298 20.2352 12.7511L18.6679 7.86247C19.3386 7.32772 19.7795 6.51421 19.7795 5.59628C19.7795 3.99686 18.4679 2.68333 16.8684 2.68333C15.8553 2.68333 14.9599 3.21164 14.4373 4.00468L10.5646 2.94576C10.364 1.53724 9.154 0.439453 7.69281 0.439453ZM7.69281 1.91467C8.49551 1.91467 9.13054 2.54809 9.13054 3.35056C9.13195 3.53974 9.09573 3.72731 9.02399 3.90237C8.95225 4.07742 8.84642 4.23646 8.71266 4.37025C8.57889 4.50403 8.41987 4.60989 8.24483 4.68165C8.06978 4.75342 7.88222 4.78967 7.69304 4.78829C6.89034 4.78829 6.25715 4.15303 6.25715 3.35056C6.25715 2.54809 6.89057 1.91467 7.69281 1.91467ZM16.8684 4.15855C17.6711 4.15855 18.3043 4.79381 18.3043 5.59605C18.3043 6.39875 17.6709 7.03194 16.8684 7.03194C16.0662 7.03194 15.4309 6.39852 15.4309 5.59628C15.4295 5.4071 15.4657 5.21953 15.5375 5.04448C15.6092 4.86943 15.7151 4.71038 15.8488 4.5766C15.9826 4.44282 16.1416 4.33696 16.3166 4.26519C16.4917 4.19343 16.6793 4.15718 16.8684 4.15855ZM10.1844 4.8313L13.984 5.87182C14.1259 7.33853 15.3585 8.50049 16.8595 8.50532L18.3926 13.2985C17.9977 13.5853 17.6856 13.9713 17.4724 14.4138V14.4363L17.4667 14.4906L17.043 14.4287L17.3993 11.9995L16.4581 11.8626L16.1021 14.2901L14.6662 14.0801L15.0225 11.6508L14.0813 11.5121L13.7253 13.9414L12.2875 13.7298L12.7823 10.3557L11.8432 10.2168L11.3464 13.5909L9.90886 13.3809L10.2649 10.9516L9.32397 10.8148L8.9677 13.2422L7.53204 13.0306L7.88808 10.6029L6.94715 10.4642L6.59088 12.8935L5.79991 12.7773L5.80911 12.7343L5.79232 12.7323C5.72148 12.0269 5.40799 11.3898 4.92062 10.9217L7.24891 6.21843C7.39473 6.24143 7.54124 6.26351 7.69304 6.26351C8.75104 6.26351 9.67403 5.68345 10.1844 4.8313ZM2.91111 11.5777C3.10029 11.5763 3.28785 11.6125 3.4629 11.6843C3.63794 11.7561 3.79697 11.8619 3.93073 11.9957C4.06449 12.1295 4.17032 12.2885 4.24206 12.4636C4.3138 12.6386 4.35002 12.8262 4.34861 13.0154C4.35002 13.2046 4.3138 13.3921 4.24206 13.5672C4.17032 13.7423 4.06449 13.9013 3.93073 14.0351C3.79697 14.1689 3.63794 14.2747 3.4629 14.3465C3.28785 14.4183 3.10029 14.4545 2.91111 14.4531C2.72193 14.4545 2.53436 14.4183 2.35931 14.3466C2.18425 14.2748 2.02521 14.169 1.89143 14.0352C1.75764 13.9015 1.65179 13.7425 1.58002 13.5674C1.50825 13.3924 1.472 13.2048 1.47338 13.0156C1.47194 12.8264 1.50814 12.6388 1.57986 12.4637C1.65159 12.2887 1.75741 12.1296 1.89118 11.9958C2.02495 11.862 2.18398 11.7561 2.35904 11.6843C2.5341 11.6125 2.72191 11.5763 2.91111 11.5777ZM20.0889 14.2135C20.2781 14.2121 20.4657 14.2483 20.6407 14.32C20.8158 14.3918 20.9749 14.4976 21.1087 14.6314C21.2424 14.7652 21.3483 14.9243 21.42 15.0993C21.4918 15.2744 21.528 15.462 21.5266 15.6512C21.5266 16.4537 20.8914 17.0852 20.0891 17.0852C19.2864 17.0852 18.6512 16.4537 18.6512 15.6512C18.6498 15.462 18.686 15.2744 18.7577 15.0993C18.8295 14.9243 18.9353 14.7652 19.0691 14.6314C19.2029 14.4976 19.362 14.3918 19.537 14.32C19.7121 14.2483 19.8997 14.2121 20.0889 14.2135Z" fill="#878787"/>
</svg>
