<svg viewBox="0 0 31 31" fill="none" xmlns="http://www.w3.org/2000/svg">
<rect width="31" height="31" rx="4.50167" fill="#ED1E26"/>
<path d="M16.9775 20.1528H19.5618" stroke="white" stroke-width="1.12542" stroke-linecap="round" stroke-linejoin="round"/>
<path d="M12.5469 20.1528H14.762" stroke="white" stroke-width="1.12542" stroke-linecap="round" stroke-linejoin="round"/>
<rect x="17.7148" y="13.6648" width="2.21511" height="2.16279" rx="1.0814" fill="white"/>
<rect x="11.8105" y="13.6648" width="2.21511" height="2.16279" rx="1.0814" fill="white"/>
<path d="M12.5472 17.4806V24.8243C12.5472 25.0315 12.3792 25.1995 12.172 25.1995H6.27944C6.07225 25.1995 5.9043 25.0315 5.9043 24.8243V13.3027C5.9043 13.1861 5.95853 13.0761 6.05104 13.0051L15.3043 5.90374C15.4354 5.80315 15.6168 5.80015 15.7511 5.89636L25.6762 13.0055C25.7745 13.0759 25.8329 13.1895 25.8329 13.3104V24.8243C25.8329 25.0315 25.6649 25.1995 25.4577 25.1995H19.5651C19.358 25.1995 19.19 25.0315 19.19 24.8243V17.4806" stroke="white" stroke-width="1.8757" stroke-linecap="round" stroke-linejoin="round"/>
</svg>
