<svg viewBox="0 0 20 21" fill="none" xmlns="http://www.w3.org/2000/svg">
<path d="M10.8584 2.4668C11.7959 2.4693 12.2718 2.4743 12.6826 2.48596L12.8443 2.4918C13.0309 2.49846 13.2151 2.5068 13.4376 2.5168C14.3243 2.55846 14.9293 2.69846 15.4601 2.9043C16.0101 3.11596 16.4734 3.40263 16.9368 3.86513C17.3607 4.28157 17.6886 4.78552 17.8976 5.3418C18.1034 5.87263 18.2434 6.47763 18.2851 7.36513C18.2951 7.5868 18.3034 7.77096 18.3101 7.95846L18.3151 8.12013C18.3276 8.53013 18.3326 9.00596 18.3343 9.94346L18.3351 10.5651V11.6568C18.3371 12.2646 18.3307 12.8725 18.3159 13.4801L18.3109 13.6418C18.3043 13.8293 18.2959 14.0135 18.2859 14.2351C18.2443 15.1226 18.1026 15.7268 17.8976 16.2585C17.6886 16.8147 17.3607 17.3187 16.9368 17.7351C16.5203 18.159 16.0164 18.4869 15.4601 18.696C14.9293 18.9018 14.3243 19.0418 13.4376 19.0835L12.8443 19.1085L12.6826 19.1135C12.2718 19.1251 11.7959 19.131 10.8584 19.1326L10.2368 19.1335H9.14594C8.53783 19.1356 7.92971 19.1292 7.32178 19.1143L7.16011 19.1093C6.96228 19.1018 6.7645 19.0932 6.56678 19.0835C5.68011 19.0418 5.07511 18.9018 4.54344 18.696C3.98747 18.4868 3.48381 18.1589 3.06761 17.7351C2.6434 17.3188 2.3152 16.8148 2.10594 16.2585C1.90011 15.7276 1.76011 15.1226 1.71844 14.2351L1.69344 13.6418L1.68928 13.4801C1.67391 12.8725 1.66697 12.2646 1.66844 11.6568V9.94346C1.66614 9.33563 1.67225 8.72779 1.68678 8.12013L1.69261 7.95846C1.69928 7.77096 1.70761 7.5868 1.71761 7.36513C1.75928 6.47763 1.89928 5.87346 2.10511 5.3418C2.31485 4.7853 2.64363 4.28133 3.06844 3.86513C3.4844 3.44142 3.98777 3.11352 4.54344 2.9043C5.07511 2.69846 5.67928 2.55846 6.56678 2.5168C6.78844 2.5068 6.97344 2.49846 7.16011 2.4918L7.32178 2.4868C7.92944 2.47199 8.53727 2.4656 9.14511 2.46763L10.8584 2.4668ZM10.0018 6.63346C8.89671 6.63346 7.8369 7.07245 7.0555 7.85385C6.2741 8.63525 5.83511 9.69506 5.83511 10.8001C5.83511 11.9052 6.2741 12.965 7.0555 13.7464C7.8369 14.5278 8.89671 14.9668 10.0018 14.9668C11.1068 14.9668 12.1667 14.5278 12.9481 13.7464C13.7295 12.965 14.1684 11.9052 14.1684 10.8001C14.1684 9.69506 13.7295 8.63525 12.9481 7.85385C12.1667 7.07245 11.1068 6.63346 10.0018 6.63346ZM10.0018 8.30013C10.3301 8.30008 10.6552 8.36469 10.9585 8.49027C11.2619 8.61586 11.5375 8.79996 11.7697 9.03207C12.0018 9.26418 12.186 9.53974 12.3117 9.84304C12.4374 10.1463 12.5021 10.4714 12.5022 10.7997C12.5022 11.128 12.4376 11.4531 12.3121 11.7565C12.1865 12.0598 12.0024 12.3354 11.7703 12.5676C11.5381 12.7998 11.2626 12.984 10.9593 13.1097C10.656 13.2354 10.3309 13.3001 10.0026 13.3001C9.33957 13.3001 8.70368 13.0367 8.23484 12.5679C7.766 12.0991 7.50261 11.4632 7.50261 10.8001C7.50261 10.1371 7.766 9.5012 8.23484 9.03236C8.70368 8.56352 9.33957 8.30013 10.0026 8.30013M14.3776 5.38346C14.1013 5.38346 13.8364 5.49321 13.641 5.68856C13.4457 5.88391 13.3359 6.14886 13.3359 6.42513C13.3359 6.7014 13.4457 6.96635 13.641 7.1617C13.8364 7.35705 14.1013 7.4668 14.3776 7.4668C14.6539 7.4668 14.9188 7.35705 15.1142 7.1617C15.3095 6.96635 15.4193 6.7014 15.4193 6.42513C15.4193 6.14886 15.3095 5.88391 15.1142 5.68856C14.9188 5.49321 14.6539 5.38346 14.3776 5.38346Z" fill="currentColor"/>
</svg>
