<svg viewBox="0 0 126 126" fill="none" xmlns="http://www.w3.org/2000/svg">
<rect x="3.70588" y="3.70588" width="118.588" height="118.588" rx="59.2941" fill="#FFF0D7"/>
<rect x="3.70588" y="3.70588" width="118.588" height="118.588" rx="59.2941" stroke="#FFF8E9" stroke-width="6.58824"/>
<g clip-path="url(#clip0_4625_79298)">
<path d="M52.6813 37.0921V40.0646L52.6694 49.1798C52.6678 50.2994 53.0739 51.3812 53.8113 52.2234L56.7019 55.5252L45.7686 52.0694V34.7983C45.7701 34.1833 46.0159 33.5937 46.4526 33.1596C46.8887 32.7256 47.4794 32.4823 48.0949 32.4839C50.6324 32.4927 52.6844 34.5546 52.6813 37.0921Z" fill="#FFD3A3"/>
<path d="M61.6561 41.2283L57.0935 45.6062L56.4717 46.159L50.7802 51.2858C50.5474 51.5279 50.4369 51.863 50.481 52.1959C50.5313 52.5159 50.5547 52.8395 50.55 53.1636V53.2211H50.1123C48.1541 53.2144 46.4049 54.4424 45.7458 56.286L43.5916 62.3229L42.9345 67.0462L42.6006 64.0622C42.0078 60.1697 41.719 56.2367 41.7366 52.2996C41.7216 51.417 42.0478 50.5629 42.6467 49.9146L45.7572 46.5391H45.7686V46.5277L52.658 40.0874L52.6814 40.0646L58.3957 34.7076C58.8266 34.2725 59.4132 34.0277 60.0256 34.0277C60.6381 34.0277 61.2251 34.2725 61.6561 34.7076C61.7012 34.7506 61.7437 34.7968 61.7826 34.8455C62.0087 35.0981 62.2094 35.3719 62.3816 35.6639C63.4177 37.4711 63.1205 39.7472 61.6561 41.2283Z" fill="#CBB292"/>
<path d="M62.969 37.5416C63.1007 38.9044 62.6194 40.2554 61.6559 41.2282L57.0934 45.6061L56.4716 46.159L50.7801 51.2857C50.5472 51.5279 50.4368 51.8629 50.4809 52.1958C50.5312 52.5158 50.5545 52.8394 50.5498 53.1635V53.2211H50.1121C48.154 53.2143 46.4048 54.4424 45.7456 56.2859L43.5914 62.3228C43.3031 59.3155 43.2108 55.6864 43.188 53.7511C43.1734 52.869 43.4991 52.0148 44.0981 51.3666L47.2086 47.9906H47.22V47.9792L54.1094 41.5394L54.1327 41.516L59.8471 36.159C60.2801 35.7234 60.8687 35.4787 61.4827 35.4792C61.7881 35.4771 62.091 35.5399 62.37 35.6638H62.3814L62.4161 35.7328C62.4161 35.7442 62.4275 35.7442 62.4275 35.7556C62.4815 35.838 62.524 35.9272 62.5541 36.0206C62.5899 36.0838 62.6205 36.1492 62.6464 36.2166C62.7081 36.3494 62.7543 36.4883 62.7849 36.6315C62.8014 36.66 62.8129 36.6911 62.8191 36.7238C62.8611 36.8591 62.8917 36.9976 62.9114 37.1381C62.9425 37.2709 62.9622 37.4057 62.969 37.5416Z" fill="#FFD3A3"/>
<path d="M68.1645 59.523C68.1645 59.6277 68.153 59.732 68.1302 59.8341C68.1017 60.0955 68.0151 60.3475 67.8766 60.5716C67.6656 60.9149 67.4099 61.2286 67.1164 61.5045L66.9437 61.7467L64.2014 59.7766C63.4199 59.2232 62.4864 58.9256 61.5286 58.924H52.4622C50.5133 58.9204 48.7755 60.1499 48.1304 61.9883L43.4756 75.191L42.0935 74.2467C41.9924 74.1803 41.8965 74.1072 41.8052 74.0278C40.7032 73.1136 40.2935 71.6066 40.7799 70.2603L42.9342 64.1773L43.5912 62.3228L45.7454 56.2859C46.4045 54.4424 48.1537 53.2144 50.1119 53.2211H59.9967C60.4754 53.2227 60.9416 53.3715 61.3331 53.6474L67.3005 57.8754C67.8383 58.2524 68.1603 58.8664 68.1645 59.523Z" fill="#CBB292"/>
<path d="M66.0218 58.9816C67.1741 60.1339 67.4044 61.2281 67.1166 61.5045L66.9439 61.7467L64.2016 59.7766C63.4201 59.2233 62.4866 58.9256 61.5288 58.9241H52.4623C50.5135 58.9204 48.7757 60.15 48.1306 61.9884L43.4758 75.1911L42.0937 74.2467C41.9926 74.1804 41.8967 74.1072 41.8054 74.0279C41.7468 73.5057 41.8101 72.9772 41.99 72.4841L44.1442 66.401L46.9555 58.5092C47.6141 56.6656 49.3638 55.4381 51.3215 55.4449H60.1582C60.6368 55.4464 61.103 55.5952 61.4946 55.8711C61.4946 55.8711 65.832 58.7913 66.0218 58.9816Z" fill="#FFD3A3"/>
<path d="M83.1994 97.0003H66.448C65.18 96.9935 64.1553 95.9641 64.1553 94.6957C64.1543 93.9359 63.7793 93.2255 63.1534 92.795L44.5014 80.0072C43.2096 79.1194 42.6718 77.4775 43.1878 75.9975L43.4756 75.1911L48.1305 61.9884C48.7756 60.15 50.5134 58.9204 52.4622 58.924H61.5287C62.4865 58.9256 63.42 59.2233 64.2015 59.7766L66.9438 61.7467L67.1164 61.5045C67.41 61.2286 67.6656 60.9149 67.8767 60.5716C68.4233 59.6609 68.1712 58.4832 67.3005 57.8755L61.3332 53.6474C60.9416 53.3715 60.4754 53.2227 59.9968 53.2211H56.4019V53.1636C55.9627 50.8538 55.9943 48.4792 56.4942 46.1823L56.4714 46.159L57.0932 45.6062L61.6557 41.2283C63.3904 39.4739 63.4459 36.6678 61.7823 34.8455L61.8512 34.7879C61.8512 34.7879 65.2962 32.4839 67.6003 35.9403C69.9044 39.3966 63.0035 42.7949 66.448 49.7072C68.3491 53.5095 73.4645 57.2879 74.5011 58.0601C80.4638 63.458 83.6651 71.2628 83.2108 79.2926C82.9468 82.1796 83.1294 85.0904 83.7522 87.9219L85.4459 94.1776C85.6041 94.8621 85.4412 95.5809 85.0036 96.1306C84.5659 96.6803 83.9016 97.0003 83.1994 97.0003Z" fill="#FFD3A3"/>
<path d="M63.3488 35.6177L63.2798 35.6753C64.9435 37.4971 64.888 40.3031 63.1533 42.0575L58.5908 46.4354L57.969 46.9888L57.9918 47.0116C57.5463 49.0517 57.4722 51.1551 57.7729 53.2211H56.4018V53.1636C55.9626 50.8538 55.9942 48.4792 56.4941 46.1824L56.4713 46.159L57.0931 45.6062L61.6556 41.2283C62.6191 40.2554 63.1004 38.9045 62.9687 37.5417C62.9599 37.4058 62.9407 37.271 62.9111 37.1382C62.8971 36.9971 62.866 36.8576 62.8188 36.7238C62.8126 36.6912 62.8012 36.6601 62.7846 36.6315C62.7488 36.49 62.7026 36.3515 62.6461 36.2167C62.6202 36.1492 62.5896 36.0839 62.5538 36.0206C62.5185 35.9294 62.4765 35.8407 62.4273 35.7556C62.4273 35.7442 62.4159 35.7442 62.4159 35.7328L62.3811 35.6638H62.3697C62.2053 35.3698 62.0082 35.0955 61.7821 34.8455L61.8511 34.788C61.8511 34.788 64.5701 32.9677 66.7938 34.984C65.6067 34.7454 64.3735 34.9721 63.3488 35.6177Z" fill="#CBB292"/>
<path d="M71.0483 88.872C70.412 88.872 69.896 88.3565 69.896 87.7202C69.896 83.6877 62.9967 80.4885 60.3343 79.597C59.7576 79.3756 59.4579 78.7393 59.6544 78.1538C59.8515 77.5688 60.4748 77.2427 61.0681 77.4148C61.5229 77.5668 72.2006 81.2088 72.2006 87.7238C72.1985 88.3586 71.6831 88.872 71.0483 88.872Z" fill="#CBB292"/>
<path d="M75.6459 79.6555C71.6979 79.6555 68.7741 76.9034 67.0161 74.5931C66.7667 74.2659 66.7112 73.8297 66.8704 73.4501C67.0296 73.0705 67.3791 72.805 67.7873 72.7526C68.1959 72.7008 68.6009 72.8703 68.8498 73.1981C70.2925 75.092 72.6412 77.3457 75.647 77.3457C76.2833 77.3457 76.7993 77.8612 76.7993 78.4975C76.7993 79.1338 76.2833 79.6498 75.647 79.6498L75.6459 79.6555Z" fill="#CBB292"/>
<path d="M69.3743 32.4839C68.9138 32.4839 68.4979 32.209 68.3164 31.7858C68.1349 31.3627 68.223 30.8721 68.5404 30.5381L69.6383 29.3858C69.9178 29.0715 70.3466 28.9352 70.7568 29.0295C71.1665 29.1234 71.4927 29.434 71.6073 29.8385C71.7219 30.2436 71.6063 30.6786 71.3065 30.9737L70.2082 32.1255C69.9914 32.3542 69.6896 32.4839 69.3743 32.4839Z" fill="#4482C3"/>
<path d="M72.4851 36.4448C71.9094 36.4443 71.4225 36.0195 71.3442 35.4491C71.2664 34.8786 71.6211 34.3383 72.1755 34.1832L73.6731 33.7616C74.2856 33.5889 74.9224 33.9462 75.0946 34.5587C75.2673 35.1716 74.91 35.808 74.2975 35.9806L72.7998 36.4007C72.6977 36.4303 72.5914 36.4448 72.4851 36.4448Z" fill="#4482C3"/>
<path d="M73.0726 41.931C72.9668 41.9315 72.8615 41.917 72.7594 41.8885L71.2617 41.4669C70.8655 41.3554 70.5585 41.0411 70.4568 40.6423C70.3547 40.243 70.4739 39.8204 70.7685 39.5325C71.0631 39.2452 71.4888 39.1363 71.885 39.2478L73.3827 39.6695C73.9371 39.8245 74.2918 40.3649 74.2135 40.9353C74.1352 41.5058 73.6482 41.9305 73.0726 41.931Z" fill="#4482C3"/>
<path d="M70.3999 67.8298C69.5899 69.174 68.2665 70.1292 66.7356 70.4751C65.2042 70.821 63.5987 70.5269 62.2892 69.6614L59.9737 68.1062C59.7844 67.9848 59.5646 67.921 59.34 67.9216H55.7918C55.2966 67.9205 54.8558 68.2358 54.6971 68.7052C54.6281 68.9473 54.513 69.2466 54.3865 69.5925C53.4069 72.3109 52.4967 75.0298 54.709 77.8297H54.6971C54.8091 77.9339 54.8444 78.0973 54.7853 78.2383C54.7261 78.3799 54.5851 78.4691 54.4321 78.4634C54.3818 78.4618 54.3315 78.4541 54.2828 78.4401C54.248 78.4281 54.2164 78.4084 54.1904 78.3825C54.0058 78.2902 53.8907 78.2212 53.8565 78.2098C49.4786 76.4471 51.4025 71.1015 52.2203 68.8089C52.3355 68.4977 52.4278 68.2327 52.4967 68.0025C52.9583 66.5748 54.2911 65.6102 55.7918 65.6175H59.34C60.024 65.619 60.6925 65.8192 61.264 66.1936L63.5681 67.7375C64.3501 68.2581 65.3115 68.436 66.2279 68.2291C67.1442 68.0222 67.9361 67.4491 68.4184 66.6427C68.6663 66.2522 68.5652 65.7357 68.1881 65.4676L67.7847 65.1798L65.6077 63.6246L65.5501 63.5784L63.2227 61.9308C62.4453 61.3697 61.5087 61.071 60.5499 61.0783L53.7528 61.113C51.8018 61.1027 50.0604 62.3343 49.421 64.1774L44.3285 78.6247L44.0407 79.4197C44.0199 79.4715 44.0044 79.5255 43.9945 79.581C43.061 78.6397 42.7478 77.2478 43.1881 75.9975L43.4759 75.1911L48.1308 61.9884C48.7759 60.15 50.5137 58.9205 52.4625 58.9241H61.529C62.4868 58.9256 63.4203 59.2233 64.2018 59.7766L66.9441 61.7467L68.9831 63.2097L69.5245 63.5898C70.8749 64.5601 71.2556 66.4037 70.3999 67.8298Z" fill="#CBB292"/>
<path d="M52.3354 35.3413C51.5804 34.8403 50.6951 34.5722 49.7897 34.5691C48.5186 34.5733 47.4892 35.6022 47.4851 36.8732V44.9263L45.7686 46.5277V34.788C45.7727 33.5169 46.8021 32.488 48.0726 32.4839C49.2949 32.486 50.4664 32.9703 51.333 33.8317C51.7603 34.2668 52.1005 34.7792 52.3354 35.3413Z" fill="#CBB292"/>
</g>
<defs>
<clipPath id="clip0_4625_79298">
<rect width="68" height="68" fill="white" transform="translate(29 29)"/>
</clipPath>
</defs>
</svg>
