<svg viewBox="0 0 126 126" fill="none" xmlns="http://www.w3.org/2000/svg">
<rect x="3.70588" y="3.70588" width="118.588" height="118.588" rx="59.2941" fill="#CFE8DA"/>
<rect x="3.70588" y="3.70588" width="118.588" height="118.588" rx="59.2941" stroke="#E6F3ED" stroke-width="6.58824"/>
<path d="M72.5009 63.9911C69.3286 63.9911 66.3388 65.6066 64.5057 68.3108C64.3396 68.5552 64.3396 68.8758 64.5057 69.1191C66.3388 71.8244 69.3285 73.439 72.5009 73.439C75.6711 73.439 78.6599 71.8245 80.4971 69.1202C80.662 68.8759 80.662 68.5553 80.4971 68.3109C78.6599 65.6056 75.6711 63.9911 72.5009 63.9911ZM72.5009 71.9986C70.9184 71.9986 69.6296 70.5254 69.6296 68.7149C69.6296 66.9046 70.9183 65.4323 72.5009 65.4323C74.0824 65.4323 75.369 66.9045 75.369 68.7149C75.369 70.5254 74.0824 71.9986 72.5009 71.9986ZM87.9376 87.1023L87.2314 87.6972C86.7758 88.0807 86.0942 88.0229 85.7118 87.5704L79.6239 80.3567C80.2074 79.9979 80.7673 79.5938 81.3003 79.1433C81.5622 78.9227 81.8138 78.6937 82.0539 78.4587L88.0645 85.5827C88.4469 86.0374 88.3901 86.7198 87.9376 87.1023ZM81.828 60.8446C80.2331 58.9538 78.1516 57.6208 75.8216 56.9672C75.7999 56.9631 75.7783 56.9569 75.7566 56.9497C75.036 56.7518 74.2927 56.6178 73.5318 56.5538C73.1803 56.5239 72.8298 56.5095 72.4803 56.5095C71.206 56.5095 69.9555 56.7063 68.7646 57.0899C68.7255 57.1064 68.6853 57.1198 68.643 57.1302C67.1935 57.6137 65.8336 58.3725 64.6304 59.388C61.7726 61.7994 60.3014 65.2521 60.3014 68.7266C60.3014 71.2215 61.0602 73.7288 62.6107 75.8691C62.6252 75.8877 62.6396 75.9062 62.653 75.9258C62.817 76.1495 62.9892 76.3701 63.1706 76.5856C65.2728 79.0774 68.2203 80.6023 71.4688 80.8775C72.9328 81.0013 74.3782 80.8642 75.7535 80.4848C75.7772 80.4775 75.801 80.4703 75.8257 80.4651C76.635 80.2362 77.4186 79.9239 78.166 79.5301C78.1701 79.528 78.1743 79.526 78.1784 79.5229C78.9517 79.1145 79.6867 78.6208 80.3713 78.0424C85.5147 73.7039 86.1685 65.9892 81.828 60.8446ZM78.4517 75.7688C76.5671 77.3597 74.1783 78.1215 71.7204 77.9122C69.2636 77.705 67.0347 76.5523 65.4449 74.6687C63.9871 72.9388 63.2747 70.8253 63.2747 68.7231C63.2747 66.0952 64.3871 63.4838 66.548 61.662C68.2285 60.2434 70.3121 59.4846 72.4864 59.4846C72.7493 59.4846 73.0143 59.4949 73.2803 59.5176C75.737 59.7259 77.966 60.8774 79.5548 62.762C81.1456 64.6477 81.9064 67.0385 81.6981 69.4953C81.4898 71.9522 80.3373 74.1802 78.4517 75.7688ZM71.3472 82.3125C67.715 82.0042 64.42 80.3011 62.0694 77.5144C61.9396 77.3607 61.8147 77.204 61.6921 77.0452H46.0039C45.606 77.0452 45.2833 76.7235 45.2833 76.3256C45.2833 75.9276 45.6061 75.605 46.0039 75.605H60.7199C60.2437 74.7905 59.8591 73.941 59.5663 73.0687H46.0039C45.606 73.0687 45.2833 72.7461 45.2833 72.3481C45.2833 71.9502 45.6061 71.6275 46.0039 71.6275H59.1715C58.99 70.7894 58.889 69.9389 58.8663 69.0883H46.0039C45.606 69.0883 45.2833 68.7655 45.2833 68.3677C45.2833 67.9697 45.6061 67.6471 46.0039 67.6471H58.9034C58.9715 66.7903 59.1188 65.9397 59.3467 65.1078H46.0039C45.606 65.1078 45.2833 64.7852 45.2833 64.3872C45.2833 63.9893 45.6061 63.6666 46.0039 63.6666H59.8262C60.1767 62.7852 60.62 61.9335 61.1571 61.1305H46.0039C45.606 61.1305 45.2833 60.8077 45.2833 60.4098C45.2833 60.0118 45.6061 59.6892 46.0039 59.6892H62.2675C62.7046 59.1942 63.1819 58.7252 63.7016 58.287C64.1975 57.8685 64.7171 57.49 65.2573 57.1498H46.0039C45.606 57.1498 45.2833 56.827 45.2833 56.4292C45.2833 56.0322 45.6061 55.7096 46.0039 55.7096H68.3481C70.0379 55.1693 71.8328 54.9642 73.6535 55.1178C74.1979 55.1642 74.734 55.2425 75.2618 55.3508V40.5107C75.2618 39.1529 74.1556 38.0488 72.7957 38.0488H44.1451C42.7873 38.0488 41.6821 39.153 41.6821 40.5107V82.4269C41.6821 83.7867 42.7873 84.8919 44.1451 84.8919H72.7958C74.1557 84.8919 75.2619 83.7867 75.2619 82.4269V82.0846C74.367 82.2681 73.4505 82.3629 72.5227 82.3629C72.1328 82.363 71.741 82.3465 71.3472 82.3125ZM46.0039 43.7707H60.0633C60.4612 43.7707 60.7839 44.0935 60.7839 44.4913C60.7839 44.8892 60.4612 45.2119 60.0633 45.2119H46.0039C45.606 45.2119 45.2833 44.8892 45.2833 44.4913C45.2833 44.0935 45.606 43.7707 46.0039 43.7707ZM46.0039 47.7513H70.9399C71.3379 47.7513 71.6605 48.0739 71.6605 48.4719C71.6605 48.8698 71.3379 49.1915 70.9399 49.1915H46.0039C45.606 49.1915 45.2833 48.8698 45.2833 48.4719C45.2833 48.0739 45.606 47.7513 46.0039 47.7513ZM46.0039 51.7287H70.9399C71.3379 51.7287 71.6605 52.0515 71.6605 52.4493C71.6605 52.8473 71.3379 53.1689 70.9399 53.1689H46.0039C45.606 53.1689 45.2833 52.8473 45.2833 52.4493C45.2833 52.0515 45.606 51.7287 46.0039 51.7287Z" fill="#4FA775"/>
</svg>
