<svg xmlns="http://www.w3.org/2000/svg" width="28" height="29" fill="none" viewBox="0 0 28 29">
    <path fill="#222" stroke="#fff" stroke-width=".25" d="M15.682 23.74h-12.6a.84.84 0 0 1-.84-.84V3.58a.84.84 0 0 1 .84-.84h12.6a.84.84 0 0 1 .84.84V22.9a.84.84 0 0 1-.84.84Zm-11.76-1.68h10.92V4.42H3.922z"/>
    <path fill="#222" stroke="#fff" stroke-width=".25" d="M9.381 9.46c-1.158 0-2.1-.942-2.1-2.1s.942-2.1 2.1-2.1 2.1.942 2.1 2.1-.941 2.1-2.1 2.1Zm0-2.52a.42.42 0 0 0 0 .84.42.42 0 0 0 0-.84ZM6.442 22.06h-.84a.84.84 0 1 1 0-1.68h.84a.84.84 0 1 1 0 1.68ZM13.164 22.06h-.84a.84.84 0 1 1 0-1.68h.84a.84.84 0 1 1 0 1.68ZM9.805 22.06h-.84a.84.84 0 1 1 0-1.68h.84a.84.84 0 1 1 0 1.68ZM24.083 9.46h-1.68a.84.84 0 0 1-.84-.84V6.94a.84.84 0 0 1 .84-.84h1.68a.84.84 0 0 1 .84.84v1.68a.84.84 0 0 1-.84.84Z"/>
    <path fill="#222" stroke="#fff" stroke-width=".25" d="M24.083 14.5h-1.68a.84.84 0 0 1-.752-.464l-.84-1.68a.84.84 0 0 1-.088-.376V9.46a.84.84 0 0 1 .84-.84h3.36a.84.84 0 0 1 .84.84v2.52c0 .13-.03.26-.089.376l-.84 1.68a.84.84 0 0 1-.751.464Zm-1.161-1.68h.642l.519-1.039V10.3h-1.68v1.481z"/>
    <path fill="#222" stroke="#fff" stroke-width=".25" d="M21.564 26.26h-6.72c-1.39 0-2.52-1.13-2.52-2.52a.84.84 0 1 1 1.68 0c0 .463.377.84.84.84h6.72a.84.84 0 0 0 .84-.84V14.5a.84.84 0 1 1 1.68 0v9.24c0 1.39-1.13 2.52-2.52 2.52ZM8.121 18.7a.84.84 0 0 1-.594-1.434l1.559-1.559-1.23-.41a.84.84 0 0 1-.329-1.391l2.52-2.52a.84.84 0 1 1 1.188 1.188l-1.558 1.558 1.23.411a.84.84 0 0 1 .328 1.39l-2.52 2.52a.84.84 0 0 1-.594.247Z"/>
</svg>
