<svg xmlns="http://www.w3.org/2000/svg" width="21" height="21" fill="none" viewBox="0 0 21 21">
    <path fill="#878787" stroke="#878787" stroke-width=".35" d="M19.27 18.539h-.244v-4.385h.243a.731.731 0 0 0 0-1.462h-2.192V3.68A2.68 2.68 0 0 0 14.397 1H6.603a2.68 2.68 0 0 0-2.68 2.68v9.012H1.731a.731.731 0 0 0 0 1.462h.243v4.384h-.243a.731.731 0 0 0 0 1.462h17.538a.731.731 0 0 0 0-1.462ZM5.384 3.678a1.22 1.22 0 0 1 1.218-1.217h7.794a1.22 1.22 0 0 1 1.218 1.217v9.013H5.385zm.487 14.86H3.436v-4.385h2.436zm3.897 0H7.333v-4.385H9.77zm3.898 0H11.23v-4.385h2.436zm3.897 0h-2.436v-4.385h2.436z"/>
</svg>
