<svg xmlns="http://www.w3.org/2000/svg" width="23" height="19" fill="none" viewBox="0 0 23 19">
    <path fill="#878787" d="M7.693.44c-1.6 0-2.911 1.311-2.911 2.91 0 .755.3 1.44.776 1.96L3.17 10.13c-.087-.007-.17-.026-.259-.026A2.92 2.92 0 0 0 0 13.015c0 1.6 1.312 2.912 2.911 2.912a2.91 2.91 0 0 0 2.41-1.298l11.966 1.757c.33 1.244 1.458 2.176 2.802 2.176 1.6 0 2.911-1.312 2.911-2.911 0-1.55-1.234-2.821-2.765-2.9l-1.567-4.889a2.9 2.9 0 0 0 1.111-2.266c0-1.6-1.311-2.913-2.91-2.913a2.92 2.92 0 0 0-2.432 1.322l-3.872-1.06C10.364 1.538 9.154.44 7.693.44m0 1.475c.803 0 1.438.633 1.438 1.436a1.427 1.427 0 0 1-1.438 1.437 1.425 1.425 0 0 1-1.436-1.437c0-.803.634-1.436 1.436-1.436m9.175 2.244c.803 0 1.436.635 1.436 1.437 0 .803-.633 1.436-1.436 1.436a1.425 1.425 0 0 1-1.437-1.436 1.426 1.426 0 0 1 1.437-1.437m-6.684.672 3.8 1.04c.142 1.468 1.374 2.63 2.876 2.634l1.533 4.794a2.96 2.96 0 0 0-.92 1.115v.022l-.006.055-.424-.062.356-2.43-.94-.136-.357 2.427-1.436-.21.357-2.43-.942-.138-.356 2.43-1.437-.212.494-3.374-.939-.14-.497 3.375-1.437-.21.356-2.43-.941-.136-.356 2.427-1.436-.211.356-2.428-.94-.139-.357 2.43-.791-.117.01-.043-.018-.002a2.9 2.9 0 0 0-.871-1.81l2.328-4.704c.146.023.292.046.444.046a2.91 2.91 0 0 0 2.491-1.433m-7.273 6.747a1.426 1.426 0 0 1 1.438 1.437 1.427 1.427 0 0 1-1.438 1.438 1.43 1.43 0 0 1-1.438-1.437 1.427 1.427 0 0 1 1.438-1.438m17.178 2.636a1.43 1.43 0 0 1 1.438 1.437c0 .803-.636 1.434-1.438 1.434a1.424 1.424 0 0 1-1.438-1.434 1.43 1.43 0 0 1 1.438-1.437"/>
</svg>
