<svg xmlns="http://www.w3.org/2000/svg" fill="none" viewBox="0 0 40 40">
    <g clip-path="url(#a)">
        <rect width="40" height="40" fill="#fff" rx="20"/>
        <g fill="currentColor" stroke="#fff" stroke-width=".78" clip-path="url(#b)">
            <path d="m19.567 16.763-1.308-1.264c-.912.888-1.428 2.012-1.507 3.14a4.1 4.1 0 0 0 .227 1.67c.192.536.508 1.04.944 1.46l2.093 2.023 1.452 1.403 1.553 1.5c.435.422.955.727 1.51.913.832.28 1.737.297 2.602.082a5.27 5.27 0 0 0 2.385-1.33c.919-.889 1.437-2.017 1.516-3.149a4.1 4.1 0 0 0-.226-1.67 3.8 3.8 0 0 0-.944-1.46l-5.097-4.926a4 4 0 0 0-1.51-.913 4.67 4.67 0 0 0-2.603-.082c-.29.072-.578.174-.857.298l1.451 1.402q.203-.04.404-.054c.353-.022.692.021.997.124q.459.153.81.488l5.098 4.927q.348.34.506.783c.16.441.18.96.04 1.483a3.24 3.24 0 0 1-.892 1.486c-.61.589-1.368.901-2.075.946a2.6 2.6 0 0 1-.997-.122 2.14 2.14 0 0 1-.812-.489l-1.323-1.279-1.308-1.263-2.466-2.384a2 2 0 0 1-.505-.784c-.16-.441-.18-.96-.04-1.483.137-.518.43-1.036.882-1.476Z"/>
            <path d="m21.697 22.889 1.307 1.263c.913-.888 1.429-2.012 1.508-3.14a4.1 4.1 0 0 0-.226-1.67 3.8 3.8 0 0 0-.945-1.46l-2.093-2.023-1.451-1.402-1.553-1.501a4 4 0 0 0-1.51-.913 4.66 4.66 0 0 0-2.603-.081 5.3 5.3 0 0 0-2.385 1.329c-.92.89-1.438 2.017-1.517 3.15-.04.565.033 1.134.226 1.67.192.535.509 1.038.945 1.459l5.098 4.927a4 4 0 0 0 1.51.912c.833.28 1.737.296 2.602.082q.438-.11.857-.297l-1.451-1.402a3 3 0 0 1-.403.053 2.6 2.6 0 0 1-.998-.122 2.15 2.15 0 0 1-.81-.489l-5.098-4.927a2.04 2.04 0 0 1-.506-.784c-.16-.441-.18-.96-.04-1.483a3.24 3.24 0 0 1 .893-1.485c.609-.59 1.367-.902 2.074-.947.354-.023.693.02.998.123q.458.153.81.488l1.324 1.28 1.308 1.263 2.466 2.384q.348.339.506.783c.16.442.18.96.04 1.483a3.24 3.24 0 0 1-.883 1.476Z"/>
        </g>
    </g>
    <defs>
        <clipPath id="a">
            <rect width="40" height="40" fill="#fff" rx="20"/>
        </clipPath>
        <clipPath id="b">
            <path fill="#fff" d="M10.219 11.816h20.826v16.02H10.219z"/>
        </clipPath>
    </defs>
</svg>
