<svg xmlns="http://www.w3.org/2000/svg" width="21" height="20" fill="none" viewBox="0 0 21 20">
    <path fill="#440d0b" d="M11.5 3.034c.307 0 .557-.249.557-.556V.639a.557.557 0 1 0-1.114 0v1.839c0 .307.25.556.557.556M14.098 3.98a.56.56 0 0 0 .393-.164l1.485-1.484a.557.557 0 1 0-.788-.788L13.704 3.03a.557.557 0 0 0 .394.95M8.509 3.816a.555.555 0 0 0 .787 0 .557.557 0 0 0 0-.787L7.812 1.544a.557.557 0 0 0-.788.788zM16.5 7.95l-2.161-2.16a2.23 2.23 0 0 0-1.575-.653h-3.38c-.842 0-1.634.328-2.23.924l-.178.178-.011.011H2.557A.557.557 0 0 0 2 6.807v5.937c0 .308.25.557.557.557h2.775l1.321 1.321a.56.56 0 0 0 .394.163h.504a2.3 2.3 0 0 1-.354-.949 2.368 2.368 0 0 1-.787-4.062L8.525 8h4.225c.147 0 .289.059.393.163l1.555 1.555c.499.499 1.326.51 1.817.002A1.263 1.263 0 0 0 16.5 7.95"/>
    <path fill="#440d0b" d="M21 7.957a.557.557 0 0 0-.556-.556h-2.95c.712.93.644 2.27-.207 3.12a2.36 2.36 0 0 1-1.68.696 2.36 2.36 0 0 1-1.679-.695l-1.409-1.41H8.827l-.438.367-1.412 1.186a1.252 1.252 0 1 0 1.61 1.918 1.252 1.252 0 0 0 1.61 1.92 1.252 1.252 0 1 0 1.61 1.918l.986-.827-.133.111a1.252 1.252 0 0 0 1.61 1.92l3.782-3.174h2.392c.307 0 .556-.249.556-.556z"/>
</svg>
