<svg xmlns="http://www.w3.org/2000/svg" width="40" height="40" fill="none" viewBox="0 0 40 40">
    <g stroke="#000" stroke-linecap="round" stroke-linejoin="round" stroke-miterlimit="10" stroke-width="1.091" clip-path="url(#a)">
        <path d="M34.078 17.818 21.04 7.891c-.6-.49-1.473-.49-2.127 0L5.932 17.764c-.327.218-.654.382-1.036.382-1.637 0-2.4-2.073-1.091-3.11L17.714 4.127a3.606 3.606 0 0 1 4.473 0l14.018 10.91c1.309 1.036.6 3.109-1.091 3.109-.382 0-.71-.11-1.036-.328"/>
        <path d="M11.222 9.2V6.146H7.785v5.782M6.695 3.582h5.618v2.564H6.695zM19.946 18.909a2.836 2.836 0 1 0 0-5.673 2.836 2.836 0 0 0 0 5.673M23 28.509c1.31 0 2.455-.927 2.673-2.236.055-.437.11-.819.11-1.255 0-3.218-2.62-4.09-5.837-4.09-3.218 0-5.837.872-5.837 4.09 0 .382.055.818.11 1.255.218 1.309 1.363 2.236 2.672 2.236zM11.817 24.2a2.817 2.817 0 0 1-2.836 2.836A2.817 2.817 0 0 1 6.145 24.2a2.817 2.817 0 0 1 2.836-2.836 2.817 2.817 0 0 1 2.836 2.836M12.035 36.636c1.31 0 2.455-.927 2.673-2.236.055-.436.11-.818.11-1.255 0-3.218-2.62-4.09-5.837-4.09-3.218 0-5.891.872-5.891 4.145 0 .382.054.818.109 1.254.218 1.31 1.364 2.237 2.673 2.237zM33.907 24.2a2.817 2.817 0 0 1-2.836 2.836c-1.582 0-2.891-1.254-2.891-2.836a2.817 2.817 0 0 1 2.836-2.837c1.582 0 2.891 1.255 2.891 2.837M34.125 36.636c1.31 0 2.455-.927 2.673-2.236.055-.436.11-.818.11-1.255 0-3.218-2.62-4.09-5.837-4.09-3.218 0-5.837.872-5.837 4.09 0 .382.055.819.11 1.255.218 1.309 1.363 2.236 2.672 2.236z"/>
        <path d="m17.055 21.31 2.89 2.89 2.837-2.89M19.945 24.2v4.309M21.906 25.29h1.473M6.094 29.764l2.836 2.89 2.891-2.89M8.93 32.655v3.818M10.945 33.254h1.473M28.18 29.764l2.89 2.89 2.837-2.89M31.07 32.655v3.818M33.04 33.254h1.472"/>
    </g>
    <defs>
        <clipPath id="a">
            <path fill="#fff" d="M2 2h36v36H2z"/>
        </clipPath>
    </defs>
</svg>
