<svg xmlns="http://www.w3.org/2000/svg" width="24" height="24" fill="none" viewBox="0 0 20 20">
    <path stroke="currentColor" stroke-linecap="round" stroke-linejoin="round" stroke-width=".818" d="M11 14.333h2.333M7 14.333h2"/>
    <rect width="2" height="2" x="11.667" y="8.333" fill="currentColor" rx="1"/>
    <rect width="2" height="2" x="6.334" y="8.333" fill="currentColor" rx="1"/>
    <path stroke="currentColor" stroke-linecap="round" stroke-linejoin="round" stroke-width="1.5" d="M7 11.862V18.7a.3.3 0 0 1-.3.3H1.3a.3.3 0 0 1-.3-.3V7.973a.3.3 0 0 1 .115-.235L9.51 1.14a.3.3 0 0 1 .362-.006l9.005 6.603A.3.3 0 0 1 19 7.98V18.7a.3.3 0 0 1-.3.3h-5.4a.3.3 0 0 1-.3-.3v-6.838"/>
</svg>
