<svg xmlns="http://www.w3.org/2000/svg" fill="none" viewBox="0 0 20 21"><path fill="currentColor" d="M10.858 2.467c.938.002 1.414.007 1.825.019l.161.006c.187.006.371.015.594.025.886.041 1.491.181 2.022.387.55.212 1.013.499 1.477.961.424.417.752.92.96 1.477.206.53.346 1.136.388 2.023l.025.593.005.162c.013.41.018.886.02 1.823v1.714q.003.912-.02 1.823l-.004.162-.025.593c-.042.888-.183 1.492-.388 2.024a4.1 4.1 0 0 1-.961 1.476c-.417.424-.92.752-1.477.961-.53.206-1.136.346-2.022.387l-.594.026-.161.004c-.411.012-.887.018-1.825.02H9.146a65 65 0 0 1-1.824-.019l-.162-.005-.593-.026c-.887-.041-1.492-.181-2.024-.387a4.1 4.1 0 0 1-1.475-.96 4.1 4.1 0 0 1-.962-1.477c-.206-.531-.346-1.136-.388-2.024l-.025-.593-.004-.162a66 66 0 0 1-.02-1.823V9.943q-.005-.91.018-1.823l.006-.162c.006-.187.015-.371.025-.593.041-.887.181-1.492.387-2.023.21-.557.539-1.06.963-1.477.416-.424.92-.751 1.475-.96.532-.207 1.136-.347 2.024-.388.221-.01.406-.019.593-.025l.162-.005a66 66 0 0 1 1.823-.02zm-.856 4.166a4.167 4.167 0 1 0 0 8.334 4.167 4.167 0 0 0 0-8.334m0 1.667a2.5 2.5 0 1 1-.001 5 2.5 2.5 0 0 1 .002-5m4.375-2.917a1.042 1.042 0 1 0 0 2.084 1.042 1.042 0 0 0 0-2.084"/></svg>