<svg xmlns="http://www.w3.org/2000/svg" fill="none" viewBox="0 0 52 52">
    <path fill="#EA3934" d="M33.839 29.371a3.783 3.783 0 0 0 2.37 6.742 3.785 3.785 0 1 0-2.37-6.739zm3.75 4.688a2.22 2.22 0 1 1 .346-3.121 2.204 2.204 0 0 1-.346 3.122z"/>
    <path fill="#EA3934" d="M33.352 3.388a2.85 2.85 0 0 0-4.006 0l-8.403 8.417a2.8 2.8 0 0 0-.838 1.989 2.82 2.82 0 0 0 .833 2.02l4.41 4.409a9.32 9.32 0 0 0-5.785 4.279l-9.234-.313a.8.8 0 0 0-.56.21l-4.7 4.393a.78.78 0 0 0-.038 1.104l3.376 3.615c.14.15.335.24.54.248l2.384.092a.78.78 0 0 0 .812-.757l.042-1.427 1.11.038-.066 1.88a.78.78 0 0 0 .752.81l2.834.105a.78.78 0 0 0 .81-.752l.063-1.724.95.033a9.36 9.36 0 0 0 3.721 5.024l-5.03 4.022a.78.78 0 0 0-.29.524l-.712 6.394a.78.78 0 0 0 .691.86l4.927.546a.78.78 0 0 0 .574-.166l1.858-1.484a.78.78 0 0 0 .122-1.099l-.893-1.117.866-.692 1.18 1.475a.78.78 0 0 0 1.097.123l2.22-1.767a.78.78 0 0 0 .122-1.098l-1.075-1.346.744-.596a9.375 9.375 0 0 0 12.353-13.763A9.6 9.6 0 0 0 40 26.737l6.36-6.346a2.85 2.85 0 0 0-.005-4zM20 31.114a.78.78 0 0 0-.733-.598l-2.304-.078a.78.78 0 0 0-.808.752l-.064 1.719-1.273-.048.066-1.882a.783.783 0 0 0-.754-.809l-2.675-.093a.782.782 0 0 0-.808.758l-.043 1.424-1.274-.05L6.703 29.4l3.894-3.642 9.383.32a.77.77 0 0 0 .716-.413 7.783 7.783 0 0 1 12.932-1.282 9.356 9.356 0 0 0-9.077 10.946l-.895.717A7.8 7.8 0 0 1 20 31.114m21.556 3.505a7.81 7.81 0 0 1-12.374 5.444.78.78 0 0 0-.948.019l-1.806 1.441a.78.78 0 0 0-.123 1.098l1.076 1.348-.997.796-1.18-1.476a.78.78 0 0 0-1.093-.123l-2.086 1.668a.78.78 0 0 0-.123 1.099l.894 1.117-.999.794-3.828-.427.59-5.295 7.338-5.868a.78.78 0 0 0 .275-.781 7.811 7.811 0 0 1 13.297-7.09 7.81 7.81 0 0 1 2.087 6.236m3.696-15.33-6.518 6.504a9.3 9.3 0 0 0-3.08-1.227 9.36 9.36 0 0 0-7.726-4.618c-.21-.006-.415.015-.625.022l-5.262-5.261a1.27 1.27 0 0 1-.277-1.39c.064-.153.16-.29.278-.406l8.405-8.416a1.28 1.28 0 0 1 1.803-.005l13 13.003a1.28 1.28 0 0 1 .002 1.795"/>
</svg>
