<svg xmlns="http://www.w3.org/2000/svg" width="28" height="29" fill="none" viewBox="0 0 28 29">
    <path fill="#191919" stroke="#191919" stroke-width=".25" d="M26.277 1.667H1.726a.56.56 0 0 0-.558.558v24.55c0 .308.25.558.558.558H6.19c.308 0 .558-.25.558-.558v-.558h14.507v.558c0 .308.25.558.558.558h4.464c.308 0 .558-.25.558-.558V2.225a.56.56 0 0 0-.558-.558Zm-.558 24.55H22.37v-.558a.56.56 0 0 0-.558-.558H6.19a.56.56 0 0 0-.558.558v.558H2.284V2.783h23.435z"/>
    <path fill="#191919" stroke="#191919" stroke-width=".25" d="M21.81 7.246H6.187a.56.56 0 0 0-.558.558V25.66c0 .308.25.558.558.558H21.81c.308 0 .558-.25.558-.558V7.804a.56.56 0 0 0-.558-.558Zm-.558 17.856H6.745V8.362h14.507z"/>
    <path fill="#191919" stroke="#191919" stroke-width=".25" d="M14.003 7.246a.56.56 0 0 0-.558.558V25.66a.558.558 0 0 0 1.116 0V7.804a.56.56 0 0 0-.558-.558ZM24.042 13.942a.558.558 0 1 0 0-1.116.558.558 0 0 0 0 1.116ZM24.042 16.174a.558.558 0 1 0 0-1.116.558.558 0 0 0 0 1.116ZM12.16 5.178l-1.115-1.115a.56.56 0 0 0-.79 0L9.14 5.178a.558.558 0 0 0 .789.79l.72-.723.722.722a.56.56 0 0 0 .79 0 .56.56 0 0 0 0-.789ZM18.86 4.063a.56.56 0 0 0-.79 0l-.72.72-.722-.72a.558.558 0 0 0-.789.788l1.116 1.116a.56.56 0 0 0 .789 0l1.116-1.116a.56.56 0 0 0 0-.788Z"/>
</svg>
