<svg xmlns="http://www.w3.org/2000/svg" fill="none" viewBox="0 0 40 40">
    <rect width="40" height="40" fill="#fff" rx="20"/>
    <path fill="currentColor" stroke="currentColor" stroke-width=".25" d="m28.926 18.384-8.704-6.375a.37.37 0 0 0-.443 0l-8.703 6.375a.377.377 0 0 0-.083.525.377.377 0 0 0 .525.082l1.733-1.271v9.968c0 .206.168.375.375.375h12.75a.376.376 0 0 0 .375-.375V17.72l1.732 1.268a.374.374 0 1 0 .443-.604Zm-6.3 8.929h-5.25v-6.75h5.25zM26 17.188v10.125h-2.625v-7.125a.376.376 0 0 0-.375-.375h-6a.376.376 0 0 0-.375.375v7.125H14V17.188h-.023l6.023-4.41 6.022 4.41z"/>
    <path fill="currentColor" stroke="currentColor" stroke-width=".25" d="M18.125 16.438a1.876 1.876 0 1 0 3.751-.002 1.876 1.876 0 0 0-3.751.002Zm3 0c0 .618-.506 1.125-1.125 1.125a1.13 1.13 0 0 1-1.125-1.125c0-.62.506-1.125 1.125-1.125s1.125.506 1.125 1.124ZM20.75 24.313h.75a.376.376 0 0 0 .375-.375.376.376 0 0 0-.375-.375h-.75a.376.376 0 0 0-.375.375c0 .206.169.375.375.375Z"/>
</svg>
