<svg xmlns="http://www.w3.org/2000/svg" fill="none" viewBox="0 0 40 40">
    <rect width="40" height="40" fill="#fff" rx="20"/>
    <path fill="currentColor" d="M19.867 19.67a4.2 4.2 0 0 0 3.065-1.27 4.2 4.2 0 0 0 1.27-3.065c0-1.19-.427-2.222-1.27-3.065A4.2 4.2 0 0 0 19.867 11a4.2 4.2 0 0 0-3.066 1.27 4.2 4.2 0 0 0-1.27 3.065c0 1.191.428 2.223 1.27 3.066a4.2 4.2 0 0 0 3.066 1.27m-2.32-6.654c.647-.647 1.406-.961 2.32-.961s1.672.314 2.32.96c.646.648.96 1.406.96 2.32s-.314 1.673-.96 2.32c-.648.646-1.406.96-2.32.96s-1.673-.314-2.32-.96c-.646-.647-.96-1.406-.96-2.32s.314-1.672.96-2.32M27.458 24.841c-.025-.35-.074-.733-.146-1.137a9 9 0 0 0-.28-1.144 5.7 5.7 0 0 0-.47-1.066 4 4 0 0 0-.709-.924 3.1 3.1 0 0 0-1.018-.64 3.5 3.5 0 0 0-1.3-.235c-.184 0-.362.075-.705.299q-.318.207-.734.473-.356.225-.95.418a3.8 3.8 0 0 1-1.161.188c-.386 0-.777-.063-1.162-.188a4.2 4.2 0 0 1-.949-.418q-.411-.263-.735-.474c-.343-.223-.52-.298-.704-.298-.468 0-.905.079-1.3.235a3.1 3.1 0 0 0-1.018.64 4 4 0 0 0-.709.924 5.7 5.7 0 0 0-.47 1.066 9 9 0 0 0-.28 1.144c-.072.403-.121.786-.146 1.137a15 15 0 0 0-.035 1.063c0 .94.298 1.7.887 2.262.582.553 1.352.834 2.288.834h8.667c.936 0 1.705-.28 2.287-.834.59-.561.888-1.322.888-2.262q0-.547-.036-1.063m-1.58 2.56c-.384.366-.894.544-1.56.544h-8.666c-.666 0-1.176-.178-1.56-.544-.377-.358-.56-.848-.56-1.497 0-.337.01-.67.033-.99.021-.313.066-.658.132-1.024.065-.362.147-.701.246-1.008q.142-.444.382-.867.23-.404.521-.683c.18-.173.409-.315.678-.421q.374-.148.83-.16c.037.02.103.057.21.126q.326.213.743.48a5.2 5.2 0 0 0 1.192.532c.49.158.99.239 1.486.239s.996-.08 1.486-.239q.722-.233 1.193-.533c.282-.18.525-.337.742-.479a3 3 0 0 1 .21-.127q.456.013.83.16.406.162.678.422c.193.185.369.415.52.683.16.28.29.572.384.867.098.307.18.646.246 1.008q.098.553.131 1.024.034.482.034.99c0 .649-.183 1.139-.56 1.497"/>
</svg>
