<svg xmlns="http://www.w3.org/2000/svg" width="28" height="29" fill="none" viewBox="0 0 28 29">
    <g fill="#000" clip-path="url(#a)">
        <path d="M25.096 2.185h-7.624c-1.18 0-2.139.96-2.139 2.14v8.349c0 1.18.96 2.14 2.14 2.14h2.257v4.227l-1.645-2.286a3 3 0 0 0-2.43-1.243h-4.161A3.01 3.01 0 0 0 9.12 16.68l-2.623 3.413H5.86a3.46 3.46 0 0 0-3.454 3.454v2.074a.5.5 0 0 0 .5.5h2.438a2.205 2.205 0 0 0 4.29 0h4.16a2.205 2.205 0 0 0 4.289 0h1.647v1.194a.5.5 0 0 0 .5.5h2.107a.5.5 0 0 0 .5-.5V14.812h2.26c1.179 0 2.138-.96 2.138-2.14V4.325c0-1.18-.96-2.139-2.139-2.139M9.914 17.29a2 2 0 0 1 1.58-.776h4.162c.64 0 1.244.308 1.617.826l1.981 2.753H7.76zm-6.507 6.257c0-1.352 1.1-2.452 2.453-2.452h5.672v4.025H9.633a2.205 2.205 0 0 0-4.29 0H3.408zm4.081 3.267a1.2 1.2 0 0 1-1.202-1.193 1.2 1.2 0 0 1 1.202-1.194 1.2 1.2 0 0 1 1.203 1.194c0 .658-.54 1.193-1.203 1.193m8.45 0a1.2 1.2 0 0 1-1.202-1.193c0-.658.54-1.194 1.202-1.194a1.2 1.2 0 0 1 1.202 1.194 1.2 1.2 0 0 1-1.202 1.193m2.145-1.694a2.205 2.205 0 0 0-4.29 0h-1.26v-4.026h7.197v4.026zm3.754 1.694H20.73v-12h1.106zm4.397-14.14a1.14 1.14 0 0 1-1.138 1.138h-7.624a1.14 1.14 0 0 1-1.138-1.138v-8.35c0-.627.51-1.138 1.138-1.138h7.624c.628 0 1.138.51 1.138 1.138z"/>
        <path d="M21.816 5.153H20.23a.495.495 0 0 0-.5.493v5.682c0 .267.2.5.467.517a.5.5 0 0 0 .534-.5V9.371c.362-.002.836-.005 1.084-.005 1.179 0 2.138-.945 2.138-2.107 0-1.161-.96-2.106-2.138-2.106m0 3.212-1.076.004c-.002-.372-.005-.858-.005-1.11 0-.212 0-.718-.002-1.105h1.083c.616 0 1.137.506 1.137 1.105 0 .6-.52 1.106-1.137 1.106"/>
    </g>
    <defs>
        <clipPath id="a">
            <path fill="#fff" d="M2 2h26v26H2z"/>
        </clipPath>
    </defs>
</svg>
