<svg xmlns="http://www.w3.org/2000/svg" width="28" height="29" fill="none" viewBox="0 0 28 29">
    <path fill="#000" d="M22.291 0a4.235 4.235 0 0 0-4.235 4.235v2.243H8.007V4.235a3.1 3.1 0 0 1 3.097-3.097 3.1 3.1 0 0 1 3.097 3.097c0 .316.253.568.569.568a.566.566 0 0 0 .569-.568 4.235 4.235 0 0 0-8.47 0v14.378c-.031.316.253.6.57.6a.566.566 0 0 0 .568-.568v-1.422h10.081v1.422c0 .316.253.569.569.569a.567.567 0 0 0 .569-.57V4.235a3.1 3.1 0 0 1 3.097-3.096c1.706 0 3.065 1.39 3.065 3.097 0 .316.253.568.569.568a.566.566 0 0 0 .569-.568A4.235 4.235 0 0 0 22.29 0m-4.203 16.022H8.008v-2.023h10.08zm0-3.16H8.008v-2.023h10.08zm0-3.224H8.008V7.616h10.08zM25.103 21.426c-.127-.285-.475-.443-.759-.285-2.844 1.233-4.235.632-5.72 0-1.517-.632-3.065-1.295-5.814 0-2.845 1.233-4.235.632-5.72 0-1.517-.632-3.097-1.295-5.846 0-.285.127-.411.474-.285.759a.58.58 0 0 0 .759.284c2.306-1.075 3.507-.569 4.898.032.916.379 1.896.79 3.191.79.948 0 2.055-.222 3.445-.822 2.307-1.075 3.508-.569 4.898.032.917.379 1.896.79 3.192.79.948 0 2.054-.222 3.444-.822.285-.126.443-.474.316-.759M25.071 25.787c-.126-.285-.474-.443-.758-.285-2.844 1.233-4.235.632-5.72 0-1.517-.632-3.065-1.296-5.815 0-2.844 1.233-4.234.632-5.72 0-1.516-.632-3.065-1.296-5.846 0-.284.127-.41.474-.284.759.158.284.506.41.79.284 2.307-1.075 3.508-.569 4.898.031.917.38 1.896.79 3.192.79.948 0 2.054-.22 3.444-.821 2.307-1.075 3.508-.569 4.899.031.916.38 1.896.79 3.191.79.948 0 2.054-.22 3.445-.821.284-.127.442-.474.284-.759"/>
</svg>
