<svg xmlns="http://www.w3.org/2000/svg" width="28" height="29" fill="none" viewBox="0 0 28 29">
    <path fill="#000" stroke="#fff" stroke-width=".25" d="M14.001 27.167a.8.8 0 0 1-.331-.073L11.299 26a14.47 14.47 0 0 1-8.381-13.098V5c0-.402.302-.741.702-.787a46.174 46.174 0 0 0 10.117-2.335c.171-.06.358-.06.528 0a46 46 0 0 0 5.448 1.557c1.535.338 3.106.6 4.67.778.4.046.702.385.702.787v7.902c0 5.607-3.29 10.748-8.38 13.098l-2.372 1.094a.8.8 0 0 1-.332.073ZM4.501 5.7v7.2a12.88 12.88 0 0 0 7.46 11.66l2.04.942 2.04-.941a12.88 12.88 0 0 0 7.46-11.66v-7.2a47.766 47.766 0 0 1-9.5-2.237 47.8 47.8 0 0 1-9.5 2.236Z"/>
    <path fill="#000" stroke="#fff" stroke-width=".25" d="M17.167 20.042h-6.334c-.873 0-1.583-.71-1.583-1.584v-5.541c0-.874.71-1.584 1.583-1.584h6.334c.873 0 1.583.71 1.583 1.584v5.541c0 .874-.71 1.584-1.583 1.584Zm-6.334-7.125v5.541h6.335l-.001-5.541z"/>
    <path fill="#000" stroke="#fff" stroke-width=".25" d="M16.378 12.917h-4.75a.79.79 0 0 1-.792-.792v-1.583a3.17 3.17 0 0 1 3.167-3.167 3.17 3.17 0 0 1 3.166 3.167v1.583a.79.79 0 0 1-.791.792Zm-3.959-1.584h3.167v-.791c0-.874-.71-1.584-1.583-1.584-.874 0-1.584.71-1.584 1.584z"/>
</svg>
