<svg xmlns="http://www.w3.org/2000/svg" fill="none" viewBox="0 0 40 40">
    <rect width="40" height="40" fill="#fff" rx="20"/>
    <path fill="currentColor" d="M20 27.999c-.256 0-.503-.093-.696-.262a209 209 0 0 0-2.047-1.76l-.003-.003c-1.813-1.545-3.38-2.88-4.469-4.195C11.567 20.31 11 18.916 11 17.394c0-1.48.507-2.844 1.428-3.842a4.84 4.84 0 0 1 3.6-1.568c1.04 0 1.991.329 2.829.977q.635.492 1.143 1.194.508-.702 1.143-1.194a4.53 4.53 0 0 1 2.829-.977 4.84 4.84 0 0 1 3.6 1.568c.92.998 1.428 2.363 1.428 3.842 0 1.522-.567 2.916-1.785 4.385-1.09 1.315-2.656 2.65-4.469 4.195-.62.528-1.322 1.126-2.05 1.763-.193.169-.44.262-.696.262m-3.972-14.96a3.8 3.8 0 0 0-2.825 1.227c-.74.804-1.149 1.914-1.149 3.128 0 1.28.476 2.425 1.543 3.713 1.031 1.244 2.565 2.551 4.341 4.065l.003.002c.621.53 1.325 1.13 2.058 1.77a244 244 0 0 1 2.063-1.773c1.776-1.513 3.31-2.82 4.341-4.064 1.067-1.288 1.543-2.433 1.543-3.713 0-1.213-.408-2.324-1.15-3.128a3.8 3.8 0 0 0-2.824-1.227c-.8 0-1.535.254-2.184.756-.578.447-.98 1.012-1.216 1.408a.66.66 0 0 1-.572.324.66.66 0 0 1-.572-.324c-.236-.396-.638-.961-1.216-1.408a3.5 3.5 0 0 0-2.184-.756"/>
</svg>
