<svg xmlns="http://www.w3.org/2000/svg" width="20" height="20" fill="none" viewBox="0 0 20 20">
    <path fill="#ea3934" fill-rule="evenodd" stroke="#ea3934" d="M9.09 2.57a2.97 2.97 0 1 0 0 5.94 2.97 2.97 0 0 0 0-5.94ZM6.97 5.54a2.121 2.121 0 1 1 4.242 0 2.121 2.121 0 0 1-4.242 0Z" clip-rule="evenodd"/>
    <path fill="#ea3934" stroke="#ea3934" d="M7.718 10.49A3.72 3.72 0 0 0 4 14.208c0 1.227.994 2.221 2.221 2.221h.678a.424.424 0 0 0 0-.848h-.678a1.373 1.373 0 0 1-1.373-1.373 2.87 2.87 0 0 1 2.87-2.87h2.745a2.87 2.87 0 0 1 2.87 2.87c0 .758-.614 1.373-1.372 1.373h-.678a.424.424 0 1 0 0 .848h.678a2.22 2.22 0 0 0 2.22-2.22 3.72 3.72 0 0 0-3.718-3.72z"/>
    <path fill="#ea3934" stroke="#fff" stroke-width="1.81" d="M14.273 14.786a1.47 1.47 0 0 1-1.085-.384l-1.697-1.555a1.47 1.47 0 1 1 1.988-2.168l.572.524 2.264-2.657a1.47 1.47 0 0 1 2.073-.166zm0 0a1.47 1.47 0 0 0 1.028-.514m-1.028.514 1.028-.514m0 0 3.253-3.818M15.3 14.272l3.253-3.818m0 0a1.47 1.47 0 0 0-.166-2.074z"/>
    <path fill="#ea3934" stroke="#ea3934" stroke-width=".24" d="M14.224 14.003a.69.69 0 0 1-.505-.18l-1.697-1.555a.686.686 0 0 1 .927-1.01l1.172 1.074 2.791-3.277a.686.686 0 0 1 .967-.077l-.078.091c.238.203.267.56.064.798zm0 0a.69.69 0 0 0 .48-.24m-.48.24.48-.24m0 0 3.252-3.818z"/>
</svg>
