<svg xmlns="http://www.w3.org/2000/svg" width="38" height="38" fill="none" viewBox="0 0 38 38">
    <path fill="#f6c874" d="M13.294 7.558c.012-.035.018-.07.03-.106H9.447a3.1 3.1 0 0 0-2.44 1.205l-4.003 5.26c-.293.384-.49.832-.576 1.307h8.699zM11.133 16.411H2.446c.098.473.307.915.612 1.289l13.425 16.625-.066-.22zM21.583 34.1c-.584 1.105 13.478-16.667 13.36-16.4.303-.375.515-.817.617-1.289h-8.693zM30.994 8.657a3.09 3.09 0 0 0-2.44-1.205H24.67q.025.054.042.112l2.161 7.66h8.699a3 3 0 0 0-.576-1.306zM12.374 16.411l5.183 17.35.422 1.4c.132.45.633.456 1.021.464.388-.008.89-.014 1.021-.463l.422-1.401 5.183-17.35zM25.632 15.224c-.122-.441-1.999-7.105-2.066-7.339a.59.59 0 0 0-.57-.433h-7.992c-.6-.024-.643.78-.784 1.187l-1.852 6.585zM10.213 30.887a3.95 3.95 0 0 1-3.1-3.1.594.594 0 0 0-1.164 0 3.95 3.95 0 0 1-3.099 3.1.596.596 0 0 0 0 1.164 3.95 3.95 0 0 1 3.1 3.099.594.594 0 0 0 1.163 0 3.95 3.95 0 0 1 3.1-3.1.597.597 0 0 0 0-1.163M30.163 5.926a2.44 2.44 0 0 1 1.911 1.911.594.594 0 0 0 1.164 0 2.44 2.44 0 0 1 1.912-1.911.596.596 0 0 0 0-1.164 2.44 2.44 0 0 1-1.912-1.912.594.594 0 0 0-1.164 0 2.44 2.44 0 0 1-1.911 1.912.596.596 0 0 0 0 1.164"/>
</svg>
