<svg viewBox="6.468 5.675999999999999 20.856 20.922" fill="none" xmlns="http://www.w3.org/2000/svg" style="max-height: 500px" width="20.856" height="20.922">
    <path d="M21.809 17.908a83 83 0 0 0-1.76-.832c-.224-.096-.416-.128-.576.128s-.672.832-.8.992c-.16.16-.288.192-.544.064s-1.088-.384-2.08-1.248c-.768-.672-1.28-1.504-1.44-1.76s0-.384.128-.512.256-.288.384-.448.16-.256.256-.416.032-.32-.032-.448-.576-1.376-.8-1.888c-.224-.48-.416-.416-.576-.448h-.48a.92.92 0 0 0-.672.32c-.224.256-.896.864-.896 2.112s.928 2.432 1.056 2.624c.128.16 1.824 2.72 4.384 3.808.608.256 1.088.416 1.472.544.608.192 1.184.16 1.632.096.48-.064 1.536-.608 1.728-1.184.224-.576.224-1.088.16-1.184-.128-.128-.288-.192-.544-.32M16.913 24.5a8.5 8.5 0 0 1-4.32-1.184l-.32-.192-3.2.832.864-3.104-.192-.32a8.5 8.5 0 0 1-1.28-4.48c0-4.64 3.808-8.416 8.48-8.416 2.208 0 4.352.864 5.952 2.464a8.35 8.35 0 0 1 2.464 5.952c0 4.64-3.808 8.448-8.448 8.448m7.2-15.616a10.12 10.12 0 0 0-7.2-2.976c-5.6 0-10.176 4.544-10.176 10.144 0 1.792.48 3.52 1.344 5.056l-1.44 5.248 5.376-1.408c1.472.8 3.168 1.248 4.864 1.248 5.6 0 10.176-4.544 10.176-10.144.032-2.688-1.024-5.248-2.944-7.168" fill="currentColor"/>
</svg>