<svg xmlns="http://www.w3.org/2000/svg" width="28" height="29" fill="none" viewBox="0 0 28 29">
    <path fill="#222" d="M14 18.289a3.21 3.21 0 1 1 .001 6.422 3.21 3.21 0 0 1 0-6.422m0 1.75a1.461 1.461 0 1 0 .001 2.922 1.461 1.461 0 0 0 0-2.922m0-6.414a7.88 7.88 0 0 1 7.036 4.34l-1.321 1.321a6.125 6.125 0 0 0-11.428 0l-1.321-1.32A7.88 7.88 0 0 1 14 13.625m0-4.664a12.53 12.53 0 0 1 10.448 5.6l-1.268 1.26a10.79 10.79 0 0 0-18.358 0l-1.269-1.268a12.53 12.53 0 0 1 10.448-5.6zm0-4.672A17.16 17.16 0 0 1 27.79 11.2l-1.25 1.26a15.436 15.436 0 0 0-25.078 0l-1.251-1.25A17.15 17.15 0 0 1 14 4.297z"/>
</svg>
