<svg width="192" height="167" viewBox="0 0 192 167" fill="none" xmlns="http://www.w3.org/2000/svg">
<path opacity="0.7" d="M20.5796 87.4572C20.5796 87.4572 30.7184 43.9667 56.4319 30.4783C82.1454 16.99 98.7887 27.756 116.787 36.3488C134.786 44.9416 164.449 46.5505 173.673 66.0064C182.898 85.4623 184.791 102.052 172.985 116.173C161.179 130.295 149.418 129.325 119.453 134.31C89.4877 139.294 89.9824 154.522 63.61 158.152C37.2376 161.783 24.8766 130.834 21.376 114.718C17.8754 98.6015 20.5796 87.4572 20.5796 87.4572Z" fill="#FEF2F2"/>
<path d="M152.797 114.382V88.2506" stroke="#191919" stroke-width="1.31757" stroke-miterlimit="10"/>
<path d="M149.508 114.911V78.8211" stroke="#191919" stroke-width="1.31757" stroke-miterlimit="10"/>
<path d="M156.969 115.086V102.411" stroke="#191919" stroke-width="1.31757" stroke-miterlimit="10"/>
<path d="M148.231 82.3776C148.231 82.3776 147.572 81.1816 145.371 78.5718C143.172 75.962 134.043 68.895 134.043 68.895C134.043 68.895 139.212 71.6138 140.863 73.0277C142.513 74.4415 144.712 76.1798 144.712 76.1798C144.712 76.1798 138.553 69.5463 137.892 69.1129C137.234 68.6772 144.161 74.3326 144.161 74.3326C144.161 74.3326 141.521 69.1129 140.202 67.3746C138.882 65.6363 136.352 61.5037 136.352 61.5037C136.352 61.5037 143.5 70.9625 143.831 71.5072C144.161 72.0519 145.591 74.4439 145.591 74.4439L143.062 67.9193L146.142 73.2479C146.142 73.2479 141.744 64.2224 141.524 63.789C141.303 63.3533 144.604 68.0306 144.604 68.0306L141.744 59.5498L148.343 72.9235L147.903 67.7038L149.112 73.1413L149.443 59.7677L150.212 73.0324C150.212 73.0324 151.422 64.5516 151.642 62.811C151.862 61.0703 151.972 59.223 151.972 59.223C151.972 59.223 151.752 70.7494 151.752 71.0738C151.752 71.3983 151.532 74.0105 151.532 74.0105C151.532 74.0105 153.182 69.1177 153.62 67.8127C154.059 66.5078 154.5 62.0507 154.72 61.3971C154.94 60.7458 153.62 71.4007 153.51 71.8364C153.4 72.2722 153.07 73.2503 152.741 73.9016C152.411 74.5528 155.161 69.9868 156.15 68.0306C157.139 66.0744 159.01 62.3776 159.01 62.3776C159.01 62.3776 157.36 67.8151 156.921 68.7932C156.481 69.7713 153.623 74.991 153.623 74.991C153.623 74.991 157.913 69.9892 159.781 68.6843C161.65 67.3793 165.061 64.8785 165.061 64.8785C165.061 64.8785 159.561 70.7494 158.462 71.8364C157.362 72.9235 154.171 76.7293 154.171 76.7293C154.171 76.7293 159.671 73.2503 159.999 72.9235C160.33 72.5966 164.29 70.0957 164.29 70.0957C164.29 70.0957 156.306 76.3314 155.932 76.7293C152.744 80.0993 151.642 81.7311 150.983 82.3823C150.324 83.0336 149.223 83.3604 148.233 82.3823L148.231 82.3776Z" fill="#EA3934"/>
<path d="M152.026 91.9098C152.026 91.9098 151.559 91.0643 150.005 89.217C148.448 87.3722 141.992 82.3727 141.992 82.3727C141.992 82.3727 145.648 84.2958 146.814 85.2952C147.981 86.2946 149.538 87.5261 149.538 87.5261C149.538 87.5261 145.18 82.8346 144.716 82.5267C144.249 82.2188 149.15 86.2188 149.15 86.2188C149.15 86.2188 147.284 82.5267 146.349 81.2975C145.415 80.066 143.626 77.1436 143.626 77.1436C143.626 77.1436 148.683 83.834 148.915 84.22C149.147 84.6037 150.16 86.297 150.16 86.297L148.371 81.6812L150.549 85.4491C150.549 85.4491 147.437 79.0666 147.281 78.7588C147.126 78.4509 149.459 81.7594 149.459 81.7594L147.437 75.7605L152.106 85.2194L151.794 81.5273L152.649 85.3733L152.882 75.9145L153.425 85.2976C153.425 85.2976 154.281 79.2987 154.436 78.0672C154.592 76.8357 154.669 75.5284 154.669 75.5284C154.669 75.5284 154.513 83.68 154.513 83.9121C154.513 84.1442 154.357 85.9891 154.357 85.9891C154.357 85.9891 155.524 82.529 155.835 81.6054C156.147 80.6818 156.458 77.5296 156.614 77.0678C156.769 76.606 155.835 84.1442 155.758 84.4521C155.682 84.76 155.447 85.4515 155.215 85.9133C154.982 86.3751 156.925 83.1448 157.627 81.7594C158.329 80.3739 159.649 77.7594 159.649 77.7594C159.649 77.7594 158.482 81.6054 158.171 82.297C157.859 82.9885 155.838 86.6806 155.838 86.6806C155.838 86.6806 158.872 83.1424 160.195 82.2188C161.517 81.2952 163.929 79.5261 163.929 79.5261C163.929 79.5261 160.039 83.68 159.261 84.4473C158.482 85.217 156.226 87.9074 156.226 87.9074C156.226 87.9074 160.116 85.4468 160.348 85.2147C160.58 84.9826 163.383 83.2158 163.383 83.2158C163.383 83.2158 157.737 87.6256 157.471 87.9074C155.215 90.2922 154.436 91.4456 153.972 91.9074C153.504 92.3692 152.726 92.5989 152.026 91.9074V91.9098Z" fill="#EA3934"/>
<path d="M155.984 102.891C155.984 102.891 155.516 102.046 153.962 100.199C152.405 98.3538 145.949 93.3543 145.949 93.3543C145.949 93.3543 149.605 95.2774 150.771 96.2768C151.938 97.2762 153.495 98.5077 153.495 98.5077C153.495 98.5077 149.137 93.8162 148.673 93.5083C148.206 93.2004 153.107 97.2004 153.107 97.2004C153.107 97.2004 151.241 93.5083 150.306 92.2791C149.372 91.0476 147.583 88.1252 147.583 88.1252C147.583 88.1252 152.64 94.8156 152.872 95.2016C153.104 95.5852 154.117 97.2786 154.117 97.2786L152.328 92.6628L154.506 96.4307C154.506 96.4307 151.394 90.0482 151.238 89.7404C151.083 89.4325 153.416 92.741 153.416 92.741L151.394 86.7421L156.063 96.201L155.751 92.5089L156.606 96.3549L156.839 86.8961L157.382 96.2792C157.382 96.2792 158.238 90.2803 158.393 89.0488C158.549 87.8173 158.626 86.51 158.626 86.51C158.626 86.51 158.47 94.6616 158.47 94.8937C158.47 95.1258 158.314 96.9707 158.314 96.9707C158.314 96.9707 159.481 93.5106 159.792 92.587C160.104 91.6634 160.415 88.5112 160.571 88.0494C160.726 87.5876 159.792 95.1258 159.716 95.4337C159.639 95.7416 159.404 96.4331 159.172 96.8949C158.939 97.3567 160.882 94.1264 161.584 92.741C162.286 91.3555 163.606 88.7409 163.606 88.7409C163.606 88.7409 162.439 92.587 162.128 93.2786C161.816 93.9701 159.795 97.6622 159.795 97.6622C159.795 97.6622 162.83 94.124 164.152 93.2004C165.474 92.2768 167.886 90.5077 167.886 90.5077C167.886 90.5077 163.996 94.6616 163.218 95.4289C162.439 96.1986 160.183 98.889 160.183 98.889C160.183 98.889 164.073 96.4284 164.305 96.1963C164.537 95.9665 167.34 94.1974 167.34 94.1974C167.34 94.1974 161.694 98.6072 161.428 98.889C159.172 101.274 158.393 102.427 157.929 102.889C157.464 103.351 156.683 103.581 155.984 102.889V102.891Z" fill="#EA3934"/>
<path d="M160.905 123.543C160.905 128.677 159.54 133.21 157.454 135.948H148.198C146.111 133.21 144.746 128.677 144.746 123.543C144.746 123.095 144.756 122.65 144.777 122.212C144.83 121.065 144.952 119.955 145.134 118.896C145.204 118.493 145.28 118.098 145.366 117.712C145.438 117.39 145.515 117.075 145.599 116.765C145.992 115.299 146.507 113.968 147.122 112.821H158.529C159.145 113.968 159.66 115.299 160.053 116.765C160.136 117.075 160.213 117.39 160.285 117.712C160.371 118.098 160.448 118.493 160.517 118.896C160.699 119.955 160.822 121.065 160.874 122.212C160.896 122.65 160.905 123.095 160.905 123.543Z" fill="white" stroke="#191919" stroke-width="0.329394" stroke-miterlimit="10"/>
<path d="M160.057 116.765H145.603C145.519 117.075 145.442 117.39 145.371 117.712H160.289C160.217 117.39 160.14 117.075 160.057 116.765ZM160.521 118.896H145.138C144.956 119.955 144.834 121.066 144.781 122.212H160.878C160.826 121.066 160.703 119.955 160.521 118.896Z" fill="#191919" stroke="#191919" stroke-width="0.329394" stroke-miterlimit="10"/>
<g clip-path="url(#clip0_666_32645)">
<path d="M31.0508 127.139V128.225C31.0508 130.862 33.1958 133 35.8422 133H138.26C140.906 133 143.051 130.863 143.051 128.225V127.139C143.051 126.324 142.389 125.664 141.572 125.664H32.5305C31.7133 125.664 31.0508 126.324 31.0508 127.139Z" fill="#FAA9A7"/>
<path d="M136.983 63.1958V125.664H37.1211V63.1986C37.1211 61.1921 38.754 59.5673 40.7648 59.5673H133.341C135.352 59.5673 136.983 61.1921 136.983 63.1958Z" fill="#FAA9A7"/>
<path d="M135.411 125.663V63.1944C135.411 62.054 134.483 61.1292 133.338 61.1292H40.7601C39.6156 61.1292 38.6875 62.054 38.6875 63.1944V125.663H135.411H135.411Z" fill="white"/>
<path d="M98.6113 125.663L97.1321 128.16C96.9213 128.516 96.5368 128.735 96.1222 128.735H77.9812C77.5661 128.735 77.1822 128.516 76.9714 128.16L75.4922 125.663H98.6113Z" fill="#F67773"/>
<path d="M128.706 39H45.3916C44.2175 39 43.2656 39.9485 43.2656 41.1185V120.813C43.2656 121.983 44.2175 122.932 45.3916 122.932H128.706C129.88 122.932 130.832 121.983 130.832 120.813V41.1185C130.832 39.9485 129.88 39 128.706 39Z" fill="#FEE3E2"/>
<path d="M130.09 120.691V41.2401C130.09 40.411 129.415 39.7388 128.583 39.7388L45.5133 39.7388C44.6812 39.7388 44.0067 40.411 44.0067 41.2401V120.691C44.0067 121.52 44.6812 122.192 45.5133 122.192H128.583C129.415 122.192 130.09 121.52 130.09 120.691Z" fill="white"/>
<path d="M47.5787 42.4607C47.5787 42.8863 47.2328 43.231 46.8057 43.231C46.3785 43.231 46.0312 42.8863 46.0312 42.4607C46.0312 42.035 46.3771 41.689 46.8057 41.689C47.2342 41.689 47.5787 42.035 47.5787 42.4607Z" fill="#FFC837"/>
<path d="M49.6295 42.4607C49.6295 42.8863 49.2836 43.231 48.8565 43.231C48.4293 43.231 48.082 42.8863 48.082 42.4607C48.082 42.035 48.4279 41.689 48.8565 41.689C49.285 41.689 49.6295 42.035 49.6295 42.4607Z" fill="#3CD278"/>
<path d="M51.6803 42.4607C51.6803 42.8863 51.3344 43.231 50.9072 43.231C50.4801 43.231 50.1328 42.8863 50.1328 42.4607C50.1328 42.035 50.4787 41.689 50.9072 41.689C51.3358 41.689 51.6803 42.035 51.6803 42.4607Z" fill="#FF5252"/>
<path d="M106.99 45.8376V52.668C106.99 53.399 106.395 53.9908 105.661 53.9908H68.4382C67.7046 53.9908 67.1094 53.3995 67.1094 52.668V45.8376C67.1094 45.1066 67.7046 44.513 68.4382 44.513H105.661C106.395 44.513 106.99 45.1061 106.99 45.8376Z" fill="#FEE3E2"/>
<path d="M50.0508 69.9995C50.0508 73.3133 52.7375 76 56.0513 76C59.3651 76 62.0508 73.3133 62.0508 69.9995C62.0508 66.6857 59.3641 64 56.0513 64C52.7385 64 50.0508 66.6867 50.0508 69.9995Z" fill="#D250DC"/>
<g clip-path="url(#clip1_666_32645)">
<path d="M56.0508 66.5C54.1209 66.5 52.5508 68.0701 52.5508 70C52.5508 71.9299 54.1209 73.5 56.0508 73.5C57.9807 73.5 59.5508 71.9299 59.5508 70C59.5508 68.0701 57.9807 66.5 56.0508 66.5ZM57.8168 69.6082L57.1253 70.2824L57.2885 71.2342C57.3055 71.3332 57.2648 71.4333 57.1835 71.4923C57.1375 71.5257 57.0831 71.5427 57.0284 71.5427C56.9864 71.5427 56.9442 71.5327 56.9056 71.5124L56.0508 71.063L55.196 71.5124C55.107 71.5592 54.9993 71.5514 54.9181 71.4923C54.8368 71.4333 54.7961 71.3332 54.8131 71.2343L54.9763 70.2824L54.2847 69.6082C54.2128 69.5381 54.187 69.4333 54.218 69.3377C54.249 69.2422 54.3316 69.1726 54.431 69.1581L55.3867 69.0192L55.8141 68.1532C55.8586 68.0631 55.9503 68.0061 56.0508 68.0061C56.1512 68.0061 56.243 68.0631 56.2875 68.1532L56.7148 69.0192L57.6705 69.1581C57.7699 69.1726 57.8525 69.2422 57.8836 69.3377C57.9146 69.4333 57.8887 69.5381 57.8168 69.6082Z" fill="white"/>
</g>
<path d="M84.1007 63.8135H68.0508C67.5762 63.8135 67.1914 64.1969 67.1914 64.6698V67.7668C67.1914 68.2398 67.5762 68.6232 68.0508 68.6232H84.1007C84.5753 68.6232 84.9601 68.2398 84.9601 67.7668V64.6698C84.9601 64.1969 84.5753 63.8135 84.1007 63.8135Z" fill="#191919" fill-opacity="0.1"/>
<path d="M124.674 72.7792C124.674 72.9994 124.495 73.1752 124.276 73.1752H67.5888C67.3697 73.1752 67.1914 72.999 67.1914 72.7792C67.1914 72.6709 67.2355 72.5719 67.3075 72.4988C67.3794 72.4271 67.4788 72.3832 67.5888 72.3832H124.276C124.495 72.3832 124.673 72.5608 124.673 72.7792H124.674Z" fill="#191919" fill-opacity="0.1"/>
<path d="M103.172 74.6881C103.244 74.7617 103.288 74.8607 103.288 74.9685C103.288 75.1887 103.109 75.3645 102.891 75.3645H67.5888C67.4783 75.3645 67.379 75.3206 67.3075 75.2488C67.2355 75.1771 67.1914 75.0781 67.1914 74.9685C67.1914 74.7501 67.3697 74.5724 67.5888 74.5724H102.891C102.999 74.5724 103.099 74.6164 103.172 74.6881Z" fill="#191919" fill-opacity="0.1"/>
<path d="M67.1914 70.5895C67.1914 70.4813 67.2355 70.3822 67.3075 70.3091C67.3794 70.2374 67.4788 70.1935 67.5888 70.1935H124.276C124.495 70.1935 124.673 70.3716 124.673 70.5895C124.673 70.8074 124.495 70.9855 124.276 70.9855H67.5888C67.3697 70.9855 67.1914 70.8079 67.1914 70.5895Z" fill="#191919" fill-opacity="0.1"/>
<path d="M50.0508 88.9995C50.0508 92.3133 52.7375 95 56.0513 95C59.3651 95 62.0508 92.3133 62.0508 88.9995C62.0508 85.6857 59.3641 83 56.0513 83C52.7385 83 50.0508 85.6867 50.0508 88.9995Z" fill="#1258FF"/>
<path d="M84.1007 83.368H68.0508C67.5762 83.368 67.1914 83.7514 67.1914 84.2244V87.3213C67.1914 87.7943 67.5762 88.1777 68.0508 88.1777H84.1007C84.5753 88.1777 84.9601 87.7943 84.9601 87.3213V84.2244C84.9601 83.7514 84.5753 83.368 84.1007 83.368Z" fill="#191919" fill-opacity="0.1"/>
<path d="M124.674 92.3337C124.674 92.554 124.495 92.7298 124.276 92.7298H67.5888C67.3697 92.7298 67.1914 92.5535 67.1914 92.3337C67.1914 92.2255 67.2355 92.1265 67.3075 92.0534C67.3794 91.9817 67.4788 91.9377 67.5888 91.9377H124.276C124.495 91.9377 124.673 92.1154 124.673 92.3337H124.674Z" fill="#191919" fill-opacity="0.1"/>
<path d="M103.172 94.2426C103.244 94.3162 103.288 94.4152 103.288 94.523C103.288 94.7432 103.109 94.919 102.891 94.919H67.5888C67.4783 94.919 67.379 94.8751 67.3075 94.8034C67.2355 94.7316 67.1914 94.6326 67.1914 94.523C67.1914 94.3046 67.3697 94.127 67.5888 94.127H102.891C102.999 94.127 103.099 94.1709 103.172 94.2426Z" fill="#191919" fill-opacity="0.1"/>
<path d="M67.1914 90.144C67.1914 90.0357 67.2355 89.9367 67.3075 89.8636C67.3794 89.7919 67.4788 89.748 67.5888 89.748H124.276C124.495 89.748 124.673 89.9261 124.673 90.144C124.673 90.3619 124.495 90.54 124.276 90.54H67.5888C67.3697 90.54 67.1914 90.3624 67.1914 90.144Z" fill="#191919" fill-opacity="0.1"/>
<path d="M50.0508 108.999C50.0508 112.313 52.7375 115 56.0513 115C59.3651 115 62.0508 112.313 62.0508 108.999C62.0508 105.686 59.3641 103 56.0513 103C52.7385 103 50.0508 105.687 50.0508 108.999Z" fill="#3CD278"/>
<g clip-path="url(#clip2_666_32645)">
<path d="M53.4258 108.356V110.882C53.4258 111.457 53.8914 111.922 54.4659 111.922H57.6357C58.2102 111.922 58.6758 111.457 58.6758 110.882V108.356H53.4258ZM57.3187 109.475L55.922 110.862C55.8725 110.912 55.813 110.932 55.7437 110.932C55.6744 110.932 55.6149 110.902 55.5654 110.862L54.773 110.08C54.6739 109.981 54.6739 109.822 54.773 109.733C54.872 109.634 55.0305 109.634 55.1197 109.733L55.7338 110.347L56.9522 109.129L56.9621 109.139C57.0612 109.05 57.2097 109.05 57.3088 109.139C57.4078 109.218 57.4178 109.376 57.3187 109.475ZM57.6357 106.771H57.5366V106.325C57.5366 106.187 57.4277 106.078 57.289 106.078C57.1503 106.078 57.0413 106.187 57.0413 106.325V106.771H55.0602V106.325C55.0602 106.187 54.9513 106.078 54.8126 106.078C54.6739 106.078 54.5649 106.187 54.5649 106.325V106.771H54.4659C53.8914 106.771 53.4258 107.237 53.4258 107.811V107.861H58.6758V107.811C58.6758 107.237 58.2102 106.771 57.6357 106.771Z" fill="white"/>
</g>
<path d="M84.1007 102.922H68.0508C67.5762 102.922 67.1914 103.306 67.1914 103.779V106.876C67.1914 107.349 67.5762 107.732 68.0508 107.732H84.1007C84.5753 107.732 84.9601 107.349 84.9601 106.876V103.779C84.9601 103.306 84.5753 102.922 84.1007 102.922Z" fill="#191919" fill-opacity="0.1"/>
<path d="M124.674 111.888C124.674 112.108 124.495 112.284 124.276 112.284H67.5888C67.3697 112.284 67.1914 112.108 67.1914 111.888C67.1914 111.78 67.2355 111.681 67.3075 111.608C67.3794 111.536 67.4788 111.492 67.5888 111.492H124.276C124.495 111.492 124.673 111.67 124.673 111.888H124.674Z" fill="#191919" fill-opacity="0.1"/>
<path d="M103.172 113.797C103.244 113.871 103.288 113.97 103.288 114.077C103.288 114.298 103.109 114.474 102.891 114.474H67.5888C67.4783 114.474 67.379 114.43 67.3075 114.358C67.2355 114.286 67.1914 114.187 67.1914 114.077C67.1914 113.859 67.3697 113.681 67.5888 113.681H102.891C102.999 113.681 103.099 113.725 103.172 113.797Z" fill="#191919" fill-opacity="0.1"/>
<path d="M67.1914 109.698C67.1914 109.59 67.2355 109.491 67.3075 109.418C67.3794 109.346 67.4788 109.302 67.5888 109.302H124.276C124.495 109.302 124.673 109.481 124.673 109.698C124.673 109.916 124.495 110.095 124.276 110.095H67.5888C67.3697 110.095 67.1914 109.917 67.1914 109.698Z" fill="#191919" fill-opacity="0.1"/>
</g>
<defs>
<clipPath id="clip0_666_32645">
<rect width="112" height="94" fill="white" transform="translate(31.0508 39)"/>
</clipPath>
<clipPath id="clip1_666_32645">
<rect width="8" height="8" fill="white" transform="translate(52.0508 66)"/>
</clipPath>
<clipPath id="clip2_666_32645">
<rect width="6" height="6" fill="white" transform="translate(53.0508 106)"/>
</clipPath>
</defs>
</svg>
