<svg width="28" height="28" viewBox="0 0 28 28" fill="none" xmlns="http://www.w3.org/2000/svg">
<g clip-path="url(#clip0_670_32867)">
<path d="M8.75 15.75C8.02637 15.75 7.4375 16.3389 7.4375 17.0625H8.3125C8.3125 16.821 8.50894 16.625 8.75 16.625C8.99106 16.625 9.1875 16.821 9.1875 17.0625H10.0625C10.0625 16.3389 9.47362 15.75 8.75 15.75Z" fill="#A97010"/>
<path d="M12.25 15.75C11.5264 15.75 10.9375 16.3389 10.9375 17.0625H11.8125C11.8125 16.821 12.0089 16.625 12.25 16.625C12.4911 16.625 12.6875 16.821 12.6875 17.0625H13.5625C13.5625 16.3389 12.9736 15.75 12.25 15.75Z" fill="#A97010"/>
<path d="M14.4375 21H13.9611C14.8558 20.2125 15.4783 19.1284 15.6765 17.9008C16.5883 17.7292 17.2812 16.9299 17.2812 15.9688C17.2812 15.0076 16.5883 14.2083 15.6765 14.0367C15.2731 11.5399 13.1088 9.625 10.5 9.625C7.89119 9.625 5.72688 11.5399 5.3235 14.0367C4.41175 14.2083 3.71875 15.008 3.71875 15.9688C3.71875 16.9295 4.41175 17.7292 5.3235 17.9008C5.52169 19.1284 6.14469 20.2129 7.03894 21H6.5625C2.94394 21 0 23.9439 0 27.5625C0 27.8044 0.196 28 0.4375 28H20.5625C20.804 28 21 27.8044 21 27.5625C21 23.9439 18.0561 21 14.4375 21ZM15.75 14.9664C16.1359 15.1357 16.4062 15.5212 16.4062 15.9688C16.4062 16.4163 16.1359 16.8018 15.75 16.9711V14.9664ZM5.25 16.9711C4.86412 16.8018 4.59375 16.4163 4.59375 15.9688C4.59375 15.5212 4.86412 15.1357 5.25 14.9664V16.9711ZM10.5 10.5C12.9089 10.5 14.8684 12.4569 14.8746 14.8641C11.7171 14.7529 9.625 13.4619 9.625 12.25C9.625 12.0081 9.429 11.8125 9.1875 11.8125C8.946 11.8125 8.75 12.0081 8.75 12.25C8.75 13.3433 7.6195 14.2494 6.15037 14.4099C6.38356 12.2154 8.24469 10.5 10.5 10.5ZM6.125 17.0625V15.288C7.49131 15.1694 8.65069 14.5106 9.2295 13.5879C10.1443 14.8006 12.2837 15.6542 14.875 15.7413V17.0625C14.875 18.8326 13.8167 20.3569 12.3007 21.0451C11.1528 21.5648 9.84725 21.5648 8.69925 21.0451C7.18331 20.3569 6.125 18.8326 6.125 17.0625ZM13.125 21.875V22.75C13.125 24.1977 11.9477 25.375 10.5 25.375C9.05231 25.375 7.875 24.1977 7.875 22.75V21.875H8.40788C9.04925 22.155 9.75625 22.3125 10.5 22.3125C11.2437 22.3125 11.9503 22.155 12.5921 21.875H13.125ZM0.891625 27.125C1.11563 24.1924 3.5735 21.875 6.5625 21.875H7V22.75C7 24.6798 8.57019 26.25 10.5 26.25C12.4298 26.25 14 24.6798 14 22.75V21.875H14.4375C17.4265 21.875 19.8844 24.1924 20.1084 27.125H0.891625Z" fill="#A97010"/>
<path d="M25.228 6.23573L24.5 5.58823V3.06255C24.5 2.82061 24.304 2.62505 24.0625 2.62505H22.3125C22.071 2.62505 21.875 2.82061 21.875 3.06255V3.25505L21.2909 2.7353C21.1251 2.58742 20.8753 2.58742 20.7095 2.7353L16.772 6.2353C16.6784 6.31842 16.625 6.43786 16.625 6.56255V10.0625C16.625 10.3045 16.821 10.5 17.0625 10.5H20.125H21.875H24.9375C25.179 10.5 25.375 10.3045 25.375 10.0625V6.56255C25.375 6.43742 25.3216 6.31842 25.228 6.23573ZM21.4375 9.62505H20.5625V7.43755H21.4375V9.62505ZM24.5 9.62505H22.3125V7.00005C22.3125 6.75811 22.1165 6.56255 21.875 6.56255H20.125C19.8835 6.56255 19.6875 6.75811 19.6875 7.00005V9.62505H17.5V6.75898L21 3.64792L22.0216 4.55617C22.1506 4.6708 22.3348 4.69923 22.4914 4.62836C22.6489 4.55792 22.75 4.40173 22.75 4.22936V3.50005H23.625V5.78511C23.625 5.91023 23.6784 6.02923 23.772 6.11192L24.5 6.75898V9.62505Z" fill="#A97010"/>
<path d="M21 0C17.1404 0 14 3.14038 14 7C14 10.8596 17.1404 14 21 14C24.8596 14 28 10.8596 28 7C28 3.14038 24.8596 0 21 0ZM21 13.125C17.6225 13.125 14.875 10.3775 14.875 7C14.875 3.6225 17.6225 0.875 21 0.875C24.3775 0.875 27.125 3.6225 27.125 7C27.125 10.3775 24.3775 13.125 21 13.125Z" fill="#A97010"/>
<path d="M18.375 17.5C17.4099 17.5 16.625 18.2849 16.625 19.25C16.625 20.2151 17.4099 21 18.375 21C19.3401 21 20.125 20.2151 20.125 19.25C20.125 18.2849 19.3401 17.5 18.375 17.5ZM18.375 20.125C17.8924 20.125 17.5 19.7326 17.5 19.25C17.5 18.7674 17.8924 18.375 18.375 18.375C18.8576 18.375 19.25 18.7674 19.25 19.25C19.25 19.7326 18.8576 20.125 18.375 20.125Z" fill="#A97010"/>
<path d="M22.75 14.4375C21.5438 14.4375 20.5625 15.4188 20.5625 16.625C20.5625 17.8312 21.5438 18.8125 22.75 18.8125C23.9562 18.8125 24.9375 17.8312 24.9375 16.625C24.9375 15.4188 23.9562 14.4375 22.75 14.4375ZM22.75 17.9375C22.0264 17.9375 21.4375 17.3486 21.4375 16.625C21.4375 15.9014 22.0264 15.3125 22.75 15.3125C23.4736 15.3125 24.0625 15.9014 24.0625 16.625C24.0625 17.3486 23.4736 17.9375 22.75 17.9375Z" fill="#A97010"/>
<path d="M11.375 18.375C11.375 18.8576 10.9826 19.25 10.5 19.25C10.0174 19.25 9.625 18.8576 9.625 18.375H8.75C8.75 19.3401 9.53487 20.125 10.5 20.125C11.4651 20.125 12.25 19.3401 12.25 18.375H11.375Z" fill="#A97010"/>
</g>
<defs>
<clipPath id="clip0_670_32867">
<rect width="28" height="28" fill="white"/>
</clipPath>
</defs>
</svg>
