<svg width="29" height="29" viewBox="0 0 29 29" fill="none" xmlns="http://www.w3.org/2000/svg">
<path fill-rule="evenodd" clip-rule="evenodd" d="M16.8281 8.80383C17.6848 8.80383 18.5512 9.12888 19.2097 9.78742C19.8683 10.446 20.1933 11.3123 20.1933 12.169C20.1933 12.6693 20.5993 13.0753 21.0996 13.0753C21.5998 13.0753 22.0058 12.6693 22.0058 12.169C22.0058 10.8508 21.5056 9.51917 20.4918 8.50538C19.478 7.49279 18.1464 6.99133 16.8281 6.99133C16.3279 6.99133 15.9219 7.39733 15.9219 7.89758C15.9219 8.39783 16.3279 8.80383 16.8281 8.80383Z" fill="#066C33"/>
<path fill-rule="evenodd" clip-rule="evenodd" d="M16.8318 4.53122C18.7856 4.52276 20.7383 5.27072 22.233 6.76422C23.7265 8.25893 24.4745 10.2116 24.466 12.1655C24.4636 12.6657 24.8684 13.0729 25.3674 13.0753C25.8677 13.0778 26.2761 12.6742 26.2785 12.1739C26.2894 9.75364 25.365 7.33335 23.5138 5.48339C21.6639 3.63222 19.2436 2.70785 16.8233 2.71872C16.3231 2.72114 15.9195 3.12956 15.9219 3.62981C15.9243 4.12885 16.3315 4.53364 16.8318 4.53122Z" fill="#066C33"/>
<path fill-rule="evenodd" clip-rule="evenodd" d="M15.6199 20.0378C12.8879 18.3473 10.6501 16.1095 8.9584 13.3786C9.52631 12.6971 10.5449 11.4743 11.1274 10.7735C11.5998 10.2068 11.7412 9.431 11.4995 8.73138C10.9147 7.02279 10.586 5.31058 10.5546 3.59717C10.5449 2.44683 9.60123 1.51158 8.44123 1.51038H3.69127C2.56752 1.51038 1.64073 2.38763 1.5791 3.50896L1.50781 4.83329C1.50781 17.3371 11.6602 27.4895 24.1641 27.4895L25.4884 27.4183C26.6097 27.3566 27.487 26.4298 27.487 25.3061C27.487 24.018 27.487 21.9312 27.4797 20.5948C27.4797 20.0329 27.2514 19.4892 26.8466 19.0928C26.4442 18.7001 25.9016 18.4838 25.3386 18.4923C23.6626 18.5056 21.9866 18.1854 20.3119 17.5425C19.599 17.2658 18.7882 17.3988 18.1973 17.8893L15.6199 20.0378ZM14.8659 21.7016L14.8684 21.704C15.4194 22.0339 16.119 21.9795 16.612 21.5687C17.2331 21.0528 18.59 19.9218 19.3561 19.2838C19.4407 19.2137 19.5567 19.1943 19.6594 19.2342L19.663 19.2354C21.5589 19.9628 23.456 20.3193 25.3531 20.3048H25.3664C25.4449 20.3024 25.5222 20.3338 25.579 20.3882C25.6346 20.4438 25.6672 20.5199 25.6672 20.5996V20.6045C25.6745 21.9385 25.6745 24.0204 25.6745 25.3061C25.6745 25.4668 25.5488 25.5997 25.3893 25.6082L24.1399 25.677C12.6607 25.6638 3.34206 16.3511 3.32031 4.87317L3.38919 3.60804C3.39765 3.44854 3.53056 3.32288 3.69127 3.32288H8.44002C8.60556 3.32288 8.7409 3.457 8.7421 3.62254V3.631C8.77715 5.52808 9.13723 7.42396 9.7849 9.32104L9.7861 9.32467C9.82115 9.42375 9.8006 9.53371 9.73294 9.61467L9.73173 9.61588C9.09977 10.3783 7.95065 11.757 7.42744 12.3842C7.0166 12.8772 6.96102 13.5768 7.2921 14.129L7.29452 14.1326C9.18919 17.2622 11.7351 19.8082 14.8659 21.7016Z" fill="#066C33"/>
</svg>
