<svg viewBox="0 0 21 21" fill="none" xmlns="http://www.w3.org/2000/svg">
<path fill-rule="evenodd" clip-rule="evenodd" d="M10.5001 1.31238C15.5734 1.31238 19.6877 5.4267 19.6877 10.5C19.6877 15.5733 15.5734 19.6876 10.5001 19.6876C5.42682 19.6876 1.3125 15.5733 1.3125 10.5C1.3125 5.4267 5.42682 1.31238 10.5001 1.31238ZM9.5158 11.2906V6.56184C9.5158 6.01973 9.958 5.57754 10.5001 5.57754C11.0422 5.57754 11.4844 6.02384 11.4844 6.56184V11.2906C11.4844 11.8286 11.0422 12.2749 10.5001 12.2749C9.95799 12.2749 9.5158 11.8327 9.5158 11.2906ZM10.4958 13.3306C11.1119 13.3306 11.6115 13.8302 11.6115 14.4462C11.6115 15.0622 11.1119 15.5619 10.4958 15.5619C9.87987 15.5619 9.38024 15.0622 9.38024 14.4462C9.38024 13.8302 9.87987 13.3306 10.4958 13.3306Z" fill="currentColor"/>
</svg>
