<svg viewBox="0 0 16 16" fill="none" xmlns="http://www.w3.org/2000/svg">
<g clip-path="url(#clip0_2348_78647)">
<path d="M8 0C6.41775 0 4.87103 0.469192 3.55544 1.34824C2.23985 2.22729 1.21447 3.47672 0.608967 4.93853C0.00346625 6.40034 -0.15496 8.00887 0.153721 9.56072C0.462403 11.1126 1.22433 12.538 2.34315 13.6568C3.46197 14.7757 4.88743 15.5376 6.43928 15.8463C7.99113 16.155 9.59966 15.9965 11.0615 15.391C12.5233 14.7855 13.7727 13.7601 14.6518 12.4446C15.5308 11.129 16 9.58225 16 8C15.9972 5.87913 15.1534 3.84593 13.6537 2.34625C12.1541 0.846568 10.1209 0.00281074 8 0Z" fill="currentColor"/>
<path fill-rule="evenodd" clip-rule="evenodd" d="M4.64639 4.64655C4.74016 4.55281 4.86732 4.50015 4.9999 4.50015C5.13248 4.50015 5.25963 4.55281 5.3534 4.64655L7.99988 7.29304L10.6464 4.64655C10.6925 4.59879 10.7477 4.5607 10.8087 4.53449C10.8697 4.50829 10.9353 4.4945 11.0017 4.49392C11.0681 4.49334 11.1339 4.50599 11.1954 4.53113C11.2568 4.55627 11.3126 4.5934 11.3596 4.64035C11.4065 4.68729 11.4437 4.74312 11.4688 4.80457C11.4939 4.86602 11.5066 4.93186 11.506 4.99825C11.5054 5.06464 11.4916 5.13025 11.4654 5.19125C11.4392 5.25225 11.4011 5.30742 11.3534 5.35354L8.70688 8.00004L11.3534 10.6465C11.4445 10.7408 11.4949 10.8671 11.4937 10.9982C11.4926 11.1293 11.44 11.2547 11.3473 11.3474C11.2546 11.4401 11.1292 11.4927 10.9981 11.4939C10.867 11.495 10.7407 11.4446 10.6464 11.3535L7.99988 8.70704L5.3534 11.3535C5.2591 11.4446 5.1328 11.495 5.0017 11.4939C4.8706 11.4927 4.74519 11.4401 4.65249 11.3474C4.55978 11.2547 4.5072 11.1293 4.50606 10.9982C4.50492 10.8671 4.55531 10.7408 4.64639 10.6465L7.29288 8.00004L4.64639 5.35354C4.55266 5.25978 4.5 5.13263 4.5 5.00004C4.5 4.86746 4.55266 4.74031 4.64639 4.64655Z" fill="white"/>
</g>
<defs>
<clipPath id="clip0_2348_78647">
<rect width="16" height="16" fill="white"/>
</clipPath>
</defs>
</svg>
