<svg viewBox="0 0 34 34" fill="none" xmlns="http://www.w3.org/2000/svg">
<rect x="0.425" y="0.425" width="33.15" height="33.15" rx="16.575" stroke="#E6E6E6" stroke-width="0.85"/>
<path d="M19.1752 23.444C19.3656 23.4482 19.5527 23.393 19.7103 23.2859C19.868 23.1789 19.9883 23.0253 20.0547 22.8467C20.121 22.6681 20.1301 22.4733 20.0806 22.2893C20.0311 22.1053 19.9255 21.9414 19.7785 21.8202L14.1693 17.0149L19.7785 12.2112C19.8802 12.1365 19.9654 12.0416 20.0287 11.9324C20.092 11.8232 20.1321 11.7021 20.1464 11.5767C20.1607 11.4513 20.149 11.3244 20.112 11.2037C20.075 11.0831 20.0135 10.9713 19.9313 10.8755C19.8491 10.7797 19.7481 10.7021 19.6344 10.6471C19.5208 10.5922 19.397 10.5614 19.2709 10.5565C19.1448 10.5517 19.0191 10.5728 18.9015 10.6188C18.784 10.6648 18.6772 10.7346 18.5879 10.8237L12.1659 16.3184C12.065 16.4045 11.984 16.5113 11.9285 16.6317C11.873 16.7521 11.8442 16.8831 11.8442 17.0157C11.8442 17.1483 11.873 17.2793 11.9285 17.3997C11.984 17.5201 12.065 17.627 12.1659 17.7131L18.5879 23.2131C18.7501 23.3572 18.9582 23.4389 19.1752 23.444Z" fill="currentColor"/>
</svg>
