<svg viewBox="0 0 21 21" fill="none" xmlns="http://www.w3.org/2000/svg">
<path fill-rule="evenodd" clip-rule="evenodd" d="M10.5001 1.31775C15.5734 1.31775 19.6877 5.43207 19.6877 10.5053C19.6877 15.5786 15.5734 19.6929 10.5001 19.6929C5.42682 19.6929 1.3125 15.5786 1.3125 10.5053C1.3125 5.43207 5.42682 1.31775 10.5001 1.31775ZM8.59218 13.4895L6.34283 11.2383C5.95962 10.8549 5.95954 10.2296 6.34283 9.84626C6.7262 9.46297 7.35426 9.46537 7.73484 9.84626L9.32062 11.4333L13.2655 7.4884C13.6489 7.10503 14.2742 7.10503 14.6575 7.4884C15.0409 7.87169 15.0403 8.49758 14.6575 8.88041L10.0155 13.5224C9.63268 13.9052 9.00678 13.9058 8.62349 13.5224C8.61272 13.5116 8.60233 13.5007 8.59218 13.4895Z" fill="currentColor"/>
</svg>
