<svg viewBox="0 0 25 26" fill="none" xmlns="http://www.w3.org/2000/svg">
<g clip-path="url(#clip0_1154_32095)">
<path d="M14.4664 22.6863C19.8159 21.3663 23.0824 15.9596 21.7624 10.6101C20.4424 5.26055 15.0357 1.99399 9.68616 3.314C4.33664 4.63402 1.07008 10.0407 2.3901 15.3903C3.71011 20.7398 9.11684 24.0063 14.4664 22.6863Z" fill="url(#paint0_linear_1154_32095)"/>
<path d="M14.4096 22.4549C19.6313 21.1665 22.8197 15.889 21.5313 10.6674C20.2428 5.44571 14.9653 2.25724 9.74368 3.5457C4.52204 4.83416 1.33357 10.1116 2.62203 15.3333C3.91049 20.5549 9.18797 23.7434 14.4096 22.4549Z" fill="url(#paint1_linear_1154_32095)"/>
<path d="M14.122 21.2973C11.9057 21.8441 9.60933 21.4954 7.65547 20.3149C5.70162 19.1345 4.32463 17.2639 3.77776 15.0476C3.2309 12.8314 3.57967 10.535 4.76012 8.58114C5.94057 6.62729 7.81114 5.2503 10.0274 4.70344C12.2436 4.15657 14.54 4.50534 16.4939 5.68579C18.4477 6.86624 19.8247 8.73681 20.3716 10.9531C20.9185 13.1693 20.5697 15.4657 19.3892 17.4196C18.2088 19.3734 16.3382 20.7504 14.122 21.2973Z" fill="url(#paint2_linear_1154_32095)"/>
<path d="M16.826 5.89697C14.949 4.87524 12.7895 4.59504 10.701 5.11039C8.48472 5.65725 6.61415 7.03424 5.4337 8.9881C4.25324 10.9419 3.90447 13.2384 4.45134 15.4546C4.96669 17.5431 6.2193 19.3244 7.99691 20.5107C7.882 20.4482 7.76805 20.3829 7.65547 20.3149C5.70162 19.1345 4.32463 17.2639 3.77776 15.0476C3.2309 12.8314 3.57967 10.535 4.76012 8.58114C5.94057 6.62729 7.81114 5.2503 10.0274 4.70344C12.2436 4.15657 14.54 4.50534 16.4939 5.68579C16.6065 5.75381 16.7172 5.82433 16.826 5.89697Z" fill="url(#paint3_linear_1154_32095)"/>
<path opacity="0.4" d="M21.7597 10.6102C23.0797 15.9596 19.813 21.3665 14.4636 22.6865C9.41217 23.933 4.30996 21.0898 2.64528 16.2647C2.73084 16.278 2.8195 16.2905 2.91124 16.3023C4.57716 20.9415 9.51634 23.6616 14.4065 22.4549C19.6282 21.1665 22.8166 15.889 21.5282 10.6674C20.4916 6.46641 16.8729 3.58138 12.7787 3.28525C12.7415 3.19741 12.7056 3.11497 12.6713 3.03909C16.9166 3.29221 20.6872 6.26379 21.7597 10.6102Z" fill="url(#paint4_linear_1154_32095)"/>
<g style="mix-blend-mode:saturation">
<path d="M16.8281 5.89539C15.7433 5.30536 14.5641 4.963 13.3588 4.87843C13.3232 4.75907 13.2868 4.64279 13.25 4.53027C14.3854 4.68693 15.488 5.07524 16.4983 5.68567C16.5825 5.73653 16.6663 5.78914 16.7484 5.84299C16.7752 5.86013 16.8016 5.87776 16.8281 5.89539Z" fill="url(#paint5_linear_1154_32095)"/>
</g>
<path opacity="0.3" d="M21.3595 10.4935C22.648 15.7151 19.4595 20.9926 14.2378 22.2811C9.34768 23.4877 4.4085 20.7677 2.74257 16.1284C3.12717 16.1772 3.56484 16.2088 4.05572 16.2105C4.75361 17.8392 5.93885 19.2065 7.48567 20.141C7.56987 20.1919 7.65542 20.2416 7.74126 20.2892C7.76898 20.3053 7.79689 20.3205 7.8247 20.3353L7.82711 20.3368C9.70413 21.3585 11.8637 21.6387 13.9522 21.1234C16.1684 20.5765 18.039 19.1995 19.2194 17.2457C20.3999 15.2918 20.7487 12.9954 20.2018 10.7792C19.6864 8.69065 18.4338 6.90934 16.6562 5.72306C16.6553 5.72248 16.6548 5.72219 16.6538 5.72161C16.6277 5.70389 16.6013 5.68626 16.5742 5.66921C16.4921 5.61536 16.4083 5.56276 16.3241 5.51189C15.3137 4.90146 14.2112 4.51315 13.0758 4.3565C12.9174 3.87072 12.7531 3.44865 12.6101 3.11138C16.7043 3.40751 20.3229 6.29254 21.3595 10.4935Z" fill="url(#paint6_linear_1154_32095)"/>
<path opacity="0.6" d="M20.3761 10.953C20.9229 13.1692 20.5742 15.4656 19.3937 17.4195C18.2133 19.3733 16.3427 20.7503 14.1264 21.2972C12.0379 21.8125 9.87841 21.5323 8.00138 20.5106L7.99898 20.5091C6.49017 19.5013 5.3599 18.0649 4.73796 16.3756C5.93147 16.3313 7.39834 16.1089 9.13635 15.5552C10.5413 15.0206 13.3763 13.4986 13.8256 9.81937C14.0941 8.02584 13.7693 6.24487 13.3589 4.87845C14.5641 4.96302 15.7433 5.30538 16.8281 5.89541C16.8291 5.89599 16.8295 5.89628 16.8305 5.89686C18.6081 7.08314 19.8607 8.86444 20.3761 10.953Z" fill="url(#paint7_linear_1154_32095)"/>
<g clip-path="url(#clip1_1154_32095)">
<path d="M11.8145 11.1305L11.0632 10.4046C10.5389 10.9146 10.2425 11.5606 10.1973 12.2086C10.1749 12.5338 10.2162 12.8604 10.3272 13.1687C10.4377 13.4764 10.6193 13.7655 10.8698 14.0072L12.0728 15.1698L12.9066 15.9756L13.7991 16.8381C14.0492 17.0802 14.3481 17.2555 14.6667 17.3625C15.1453 17.5234 15.6651 17.5327 16.1621 17.4093C16.6592 17.2859 17.1361 17.0284 17.5325 16.6455C18.0606 16.1347 18.3585 15.4862 18.4038 14.8359C18.4262 14.5108 18.3848 14.1843 18.2741 13.8758C18.1636 13.5682 17.9818 13.2792 17.7315 13.0375L14.8024 10.2068C14.5519 9.96475 14.2534 9.78884 13.9348 9.68205C13.4561 9.52155 12.9362 9.51177 12.4392 9.6348C12.2723 9.67643 12.1071 9.73472 11.9468 9.80612L12.7806 10.6119C12.8582 10.5963 12.9359 10.5857 13.0124 10.5809C13.2153 10.5678 13.41 10.5928 13.5856 10.6517C13.7607 10.711 13.9169 10.803 14.0513 10.9323L16.9804 13.7634C17.1144 13.8931 17.21 14.0438 17.2712 14.2135C17.3627 14.467 17.3741 14.7651 17.2938 15.0655C17.2141 15.3659 17.0439 15.6657 16.7813 15.9194C16.4311 16.2579 15.9956 16.4374 15.5893 16.4632C15.386 16.4763 15.191 16.4517 15.0161 16.3928C14.8405 16.3335 14.6844 16.2415 14.55 16.1122L13.7894 15.3772L13.0383 14.6513L11.6209 13.2811C11.4869 13.1516 11.3917 13.0007 11.3305 12.831C11.2385 12.5775 11.2276 12.2798 11.3075 11.979C11.3865 11.6809 11.555 11.3832 11.8148 11.1307L11.8145 11.1305Z" fill="white"/>
<g filter="url(#filter0_d_1154_32095)">
<path d="M13.0408 14.6507L13.7919 15.3765C14.3167 14.8665 14.6128 14.2206 14.6583 13.5726C14.6807 13.2474 14.6393 12.9208 14.5286 12.6125C14.4181 12.3048 14.2365 12.0157 13.9858 11.7742L12.783 10.6113L11.9491 9.80552L11.0567 8.94307C10.8062 8.70097 10.5072 8.52549 10.1891 8.4187C9.71044 8.25778 9.19023 8.24841 8.69329 8.37186C8.19657 8.49509 7.71923 8.75281 7.32289 9.13542C6.79471 9.64669 6.49681 10.2947 6.45136 10.9455C6.42852 11.2704 6.4701 11.5972 6.58082 11.9051C6.69153 12.213 6.87334 12.5019 7.12385 12.7436L10.0534 15.5747C10.3034 15.8164 10.6024 15.9921 10.921 16.0989C11.3996 16.2596 11.9194 16.2692 12.4164 16.1462C12.5835 16.1045 12.7483 16.0466 12.9088 15.9752L12.0749 15.1694C11.9972 15.185 11.9196 15.1952 11.8432 15.2002C11.64 15.2133 11.4451 15.1888 11.27 15.1299C11.0948 15.0705 10.9385 14.9781 10.8045 14.8493L7.87497 12.0177C7.74099 11.888 7.64535 11.7373 7.58417 11.5677C7.49263 11.3139 7.48121 11.016 7.56112 10.7154C7.64125 10.4155 7.81121 10.1157 8.07443 9.86173C8.42425 9.52303 8.8598 9.34359 9.26649 9.31757C9.46983 9.30446 9.66434 9.32944 9.83946 9.38835C10.015 9.44768 10.171 9.5401 10.3056 9.66896L11.066 10.404L11.8173 11.1299L13.2347 12.5001C13.3687 12.6295 13.4639 12.7805 13.5253 12.9501C13.6168 13.2037 13.6282 13.5014 13.5483 13.8022C13.4688 14.1003 13.3006 14.3977 13.0408 14.6505L13.0408 14.6507Z" fill="white"/>
</g>
</g>
<g style="mix-blend-mode:saturation">
<path d="M7.82367 20.3358C7.79576 20.3206 7.76785 20.3053 7.74023 20.2896C7.65439 20.242 7.56884 20.1923 7.48464 20.1415C5.93782 19.2069 4.75258 17.8397 4.05469 16.2109C4.21819 16.2115 4.38748 16.2091 4.56266 16.2023C5.1846 17.8915 6.31487 19.328 7.82367 20.3358Z" fill="url(#paint8_linear_1154_32095)"/>
</g>
</g>
<defs>
<filter id="filter0_d_1154_32095" x="6.44531" y="8.2876" width="9.21875" height="8.94238" filterUnits="userSpaceOnUse" color-interpolation-filters="sRGB">
<feFlood flood-opacity="0" result="BackgroundImageFix"/>
<feColorMatrix in="SourceAlpha" type="matrix" values="0 0 0 0 0 0 0 0 0 0 0 0 0 0 0 0 0 0 127 0" result="hardAlpha"/>
<feOffset dx="0.5" dy="0.5"/>
<feGaussianBlur stdDeviation="0.25"/>
<feComposite in2="hardAlpha" operator="out"/>
<feColorMatrix type="matrix" values="0 0 0 0 0 0 0 0 0 0 0 0 0 0 0 0 0 0 0.1 0"/>
<feBlend mode="normal" in2="BackgroundImageFix" result="effect1_dropShadow_1154_32095"/>
<feBlend mode="normal" in="SourceGraphic" in2="effect1_dropShadow_1154_32095" result="shape"/>
</filter>
<linearGradient id="paint0_linear_1154_32095" x1="9.68617" y1="3.314" x2="24.2156" y2="16.5899" gradientUnits="userSpaceOnUse">
<stop stop-color="#FFD700"/>
<stop offset="1" stop-color="#E68D35"/>
</linearGradient>
<linearGradient id="paint1_linear_1154_32095" x1="9.74368" y1="3.5457" x2="23.9258" y2="16.5043" gradientUnits="userSpaceOnUse">
<stop stop-color="#EFCB0A"/>
<stop offset="1" stop-color="#AF661D"/>
</linearGradient>
<linearGradient id="paint2_linear_1154_32095" x1="10.0274" y1="4.70344" x2="22.473" y2="16.0752" gradientUnits="userSpaceOnUse">
<stop stop-color="#FFD700"/>
<stop offset="1" stop-color="#E68D35"/>
</linearGradient>
<linearGradient id="paint3_linear_1154_32095" x1="8.94435" y1="4.97068" x2="19.7653" y2="14.8581" gradientUnits="userSpaceOnUse">
<stop stop-color="#FFD700"/>
<stop offset="1" stop-color="#E68D35"/>
</linearGradient>
<linearGradient id="paint4_linear_1154_32095" x1="9.81082" y1="3.74493" x2="23.9782" y2="16.9395" gradientUnits="userSpaceOnUse">
<stop stop-color="#FFD700"/>
<stop offset="1" stop-color="#E68D35"/>
</linearGradient>
<linearGradient id="paint5_linear_1154_32095" x1="14.7776" y1="4.15333" x2="16.2462" y2="5.98638" gradientUnits="userSpaceOnUse">
<stop stop-color="#FFD700"/>
<stop offset="1" stop-color="#E68D35"/>
</linearGradient>
<linearGradient id="paint6_linear_1154_32095" x1="9.71079" y1="3.82679" x2="23.5103" y2="16.6946" gradientUnits="userSpaceOnUse">
<stop stop-color="#FFD700"/>
<stop offset="1" stop-color="#E68D35"/>
</linearGradient>
<linearGradient id="paint7_linear_1154_32095" x1="10.5595" y1="5.5692" x2="22.2698" y2="16.4877" gradientUnits="userSpaceOnUse">
<stop stop-color="#EBC704"/>
<stop offset="1" stop-color="#D17315"/>
</linearGradient>
<linearGradient id="paint8_linear_1154_32095" x1="5.35132" y1="15.891" x2="8.67561" y2="17.4648" gradientUnits="userSpaceOnUse">
<stop stop-color="#FFD700"/>
<stop offset="1" stop-color="#E68D35"/>
</linearGradient>
<clipPath id="clip0_1154_32095">
<rect width="19.9534" height="19.9534" fill="white" transform="translate(0 5.7041) rotate(-13.8611)"/>
</clipPath>
<clipPath id="clip1_1154_32095">
<rect width="11.9668" height="9.20525" fill="white" transform="translate(6.44531 8.28809)"/>
</clipPath>
</defs>
</svg>
