<svg width="64" height="59" viewBox="0 0 64 59" fill="none" xmlns="http://www.w3.org/2000/svg">
<path opacity="0.7" d="M2.60556 17.3293C8.18422 11.7538 12.9077 16.4316 14.8969 8.94399C17.9461 -2.53372 31.1066 -2.53368 36.9579 6.48049C45.296 19.3257 64.1425 12.1381 63.9992 27.666C63.8464 44.243 51.6559 57.1548 29.7917 58.4448C10.1908 59.6008 -6.63656 26.5683 2.60556 17.3293Z" fill="white"/>
<g clip-path="url(#clip0_978_293442)">
<path d="M36.2363 46.1528C45.546 43.8556 51.2308 34.4463 48.9336 25.1366C46.6363 15.8268 37.2271 10.1421 27.9173 12.4393C18.6076 14.7365 12.9228 24.1458 15.22 33.4555C17.5172 42.7653 26.9265 48.45 36.2363 46.1528Z" fill="url(#paint0_linear_978_293442)"/>
<path d="M36.1364 45.7501C45.2236 43.5078 50.7725 34.3234 48.5302 25.2362C46.2879 16.149 37.1035 10.6001 28.0163 12.8424C18.9291 15.0847 13.3802 24.2691 15.6225 33.3563C17.8648 42.4435 27.0492 47.9924 36.1364 45.7501Z" fill="url(#paint1_linear_978_293442)"/>
<path d="M35.6371 43.7355C31.7802 44.6872 27.7838 44.0803 24.3835 42.0259C20.9832 39.9716 18.5869 36.7163 17.6352 32.8594C16.6835 29.0024 17.2904 25.006 19.3447 21.6057C21.3991 18.2055 24.6544 15.8091 28.5113 14.8574C32.3682 13.9057 36.3647 14.5126 39.7649 16.567C43.1652 18.6213 45.5616 21.8767 46.5133 25.7336C47.465 29.5905 46.858 33.5869 44.8037 36.9872C42.7494 40.3875 39.494 42.7838 35.6371 43.7355Z" fill="url(#paint2_linear_978_293442)"/>
<path d="M40.343 16.9345C37.0764 15.1564 33.3182 14.6688 29.6836 15.5656C25.8266 16.5173 22.5713 18.9137 20.517 22.314C18.4626 25.7142 17.8557 29.7107 18.8074 33.5676C19.7042 37.2022 21.8841 40.3022 24.9777 42.3666C24.7777 42.2578 24.5794 42.1443 24.3835 42.0259C20.9832 39.9716 18.5869 36.7163 17.6352 32.8594C16.6835 29.0024 17.2904 25.006 19.3447 21.6057C21.3991 18.2055 24.6544 15.8091 28.5113 14.8574C32.3682 13.9057 36.3647 14.5126 39.7649 16.567C39.9609 16.6854 40.1536 16.8081 40.343 16.9345Z" fill="url(#paint3_linear_978_293442)"/>
<path opacity="0.4" d="M48.9292 25.1369C51.2264 34.4464 45.5414 43.856 36.2319 46.1531C27.4409 48.3224 18.5616 43.3744 15.6645 34.9774C15.8134 35.0005 15.9677 35.0222 16.1274 35.0427C19.0266 43.1164 27.6222 47.8501 36.1325 45.7502C45.2197 43.5079 50.7686 34.3235 48.5263 25.2363C46.7223 17.9254 40.4248 12.9046 33.2997 12.3893C33.2349 12.2364 33.1725 12.093 33.1128 11.9609C40.5009 12.4014 47.0628 17.5728 48.9292 25.1369Z" fill="url(#paint4_linear_978_293442)"/>
<g style="mix-blend-mode:saturation">
<path d="M40.346 16.9317C38.4582 15.9048 36.4061 15.309 34.3085 15.1619C34.2466 14.9541 34.1831 14.7518 34.1191 14.556C36.0951 14.8286 38.0139 15.5044 39.7722 16.5667C39.9187 16.6552 40.0646 16.7468 40.2074 16.8405C40.2539 16.8703 40.3 16.901 40.346 16.9317Z" fill="url(#paint5_linear_978_293442)"/>
</g>
<path opacity="0.3" d="M48.2312 24.9337C50.4735 34.0209 44.9246 43.2053 35.8374 45.4476C27.3271 47.5475 18.7315 42.8138 15.8323 34.7401C16.5016 34.825 17.2632 34.88 18.1175 34.883C19.3321 37.7175 21.3947 40.0969 24.0866 41.7232C24.2332 41.8118 24.382 41.8983 24.5314 41.9811C24.5797 42.0091 24.6282 42.0356 24.6767 42.0614L24.6808 42.0639C27.9474 43.8421 31.7056 44.3297 35.3402 43.4328C39.1972 42.4811 42.4525 40.0847 44.5068 36.6845C46.5612 33.2842 47.1681 29.2878 46.2164 25.4309C45.3196 21.7962 43.1396 18.6962 40.0461 16.6318C40.0444 16.6308 40.0436 16.6303 40.0419 16.6293C39.9965 16.5984 39.9505 16.5677 39.9033 16.5381C39.7604 16.4443 39.6146 16.3528 39.4681 16.2643C37.7097 15.202 35.791 14.5262 33.815 14.2536C33.5394 13.4082 33.2535 12.6736 33.0046 12.0867C40.1297 12.602 46.4272 17.6228 48.2312 24.9337Z" fill="url(#paint6_linear_978_293442)"/>
<path opacity="0.6" d="M46.5213 25.7334C47.473 29.5904 46.866 33.5868 44.8117 36.9871C42.7574 40.3873 39.502 42.7837 35.6451 43.7354C32.0105 44.6323 28.2523 44.1446 24.9857 42.3665L24.9815 42.364C22.3558 40.6102 20.3888 38.1103 19.3064 35.1705C21.3835 35.0933 23.9363 34.7063 26.9609 33.7427C29.406 32.8123 34.3396 30.1636 35.1215 23.7607C35.5889 20.6394 35.0236 17.54 34.3093 15.162C36.4068 15.3092 38.459 15.905 40.3468 16.9318C40.3485 16.9328 40.3493 16.9334 40.351 16.9344C43.4445 18.9988 45.6244 22.0988 46.5213 25.7334Z" fill="url(#paint7_linear_978_293442)"/>
<g clip-path="url(#clip1_978_293442)">
<path d="M31.6216 26.0423L30.3141 24.7791C29.4016 25.6666 28.8858 26.7908 28.8071 27.9185C28.7681 28.4844 28.8401 29.0528 29.0331 29.5894C29.2254 30.1248 29.5415 30.628 29.9774 31.0486L32.0711 33.0719L33.5222 34.4743L35.0753 35.9752C35.5105 36.3965 36.0308 36.7016 36.5852 36.8878C37.4182 37.1678 38.3227 37.1841 39.1876 36.9693C40.0528 36.7545 40.8827 36.3063 41.5725 35.6401C42.4917 34.7511 43.0101 33.6226 43.0888 32.4908C43.1278 31.925 43.0558 31.3569 42.8631 30.82C42.6708 30.2846 42.3544 29.7817 41.9189 29.3611L36.8214 24.4349C36.3854 24.0136 35.8659 23.7075 35.3114 23.5216C34.4785 23.2423 33.5735 23.2253 32.7087 23.4394C32.4182 23.5118 32.1307 23.6133 31.8518 23.7375L33.3029 25.1399C33.4378 25.1127 33.5732 25.0942 33.7062 25.0859C34.0594 25.0631 34.3983 25.1066 34.7038 25.2091C35.0085 25.3123 35.2803 25.4725 35.5142 25.6974L40.6117 30.6244C40.8449 30.8501 41.0113 31.1124 41.1178 31.4076C41.2771 31.8489 41.2969 32.3677 41.1571 32.8904C41.0184 33.4132 40.7223 33.9349 40.2653 34.3765C39.6558 34.9655 38.8978 35.2778 38.1908 35.3227C37.8369 35.3456 37.4977 35.3028 37.1933 35.2003C36.8877 35.097 36.616 34.9369 36.3821 34.7119L35.0584 33.4327L33.7512 32.1695L31.2846 29.785C31.0514 29.5597 30.8857 29.297 30.7793 29.0018C30.6192 28.5605 30.6001 28.0424 30.7392 27.519C30.8767 27.0002 31.1699 26.4821 31.622 26.0427L31.6216 26.0423Z" fill="white"/>
<g filter="url(#filter0_d_978_293442)">
<path d="M33.7555 32.1682L35.0626 33.4315C35.9758 32.5439 36.4912 31.4197 36.5703 30.292C36.6093 29.7261 36.5373 29.1577 36.3447 28.6212C36.1524 28.0857 35.8363 27.5825 35.4 27.1623L33.3067 25.1386L31.8556 23.7362L30.3025 22.2353C29.8666 21.814 29.3463 21.5086 28.7926 21.3228C27.9596 21.0427 27.0543 21.0264 26.1895 21.2412C25.325 21.4557 24.4943 21.9042 23.8046 22.5701C22.8854 23.4598 22.367 24.5876 22.2879 25.7201C22.2481 26.2856 22.3205 26.8543 22.5132 27.3902C22.7058 27.926 23.0222 28.4288 23.4582 28.8494L28.5564 33.7763C28.9916 34.197 29.5119 34.5027 30.0664 34.6886C30.8993 34.9682 31.8039 34.9849 32.6687 34.7708C32.9596 34.6983 33.2464 34.5976 33.5257 34.4734L32.0745 33.071C31.9392 33.0982 31.8043 33.1159 31.6712 33.1246C31.3177 33.1474 30.9784 33.1047 30.6737 33.0022C30.3689 32.8989 30.0967 32.7381 29.8636 32.5138L24.7654 27.5861C24.5322 27.3604 24.3658 27.0982 24.2593 26.8029C24.1 26.3613 24.0801 25.8429 24.2192 25.3197C24.3586 24.7977 24.6544 24.276 25.1125 23.834C25.7213 23.2446 26.4793 22.9323 27.187 22.8871C27.5409 22.8642 27.8794 22.9077 28.1842 23.0102C28.4897 23.1135 28.7611 23.2743 28.9954 23.4986L30.3187 24.7778L31.6262 26.041L34.0928 28.4255C34.326 28.6509 34.4917 28.9135 34.5985 29.2088C34.7578 29.65 34.7777 30.1681 34.6386 30.6916C34.5003 31.2103 34.2075 31.728 33.7555 32.1678L33.7555 32.1682Z" fill="white"/>
</g>
</g>
<g style="mix-blend-mode:saturation">
<path d="M24.6763 42.0621C24.6278 42.0356 24.5792 42.0091 24.5311 41.9818C24.3817 41.899 24.2328 41.8125 24.0863 41.7239C21.3944 40.0976 19.3317 37.7182 18.1172 34.8837C18.4017 34.8847 18.6963 34.8804 19.0012 34.8686C20.0836 37.8084 22.0506 40.3083 24.6763 42.0621Z" fill="url(#paint8_linear_978_293442)"/>
</g>
</g>
<defs>
<filter id="filter0_d_978_293442" x="22.2773" y="21.0946" width="16.043" height="15.5624" filterUnits="userSpaceOnUse" color-interpolation-filters="sRGB">
<feFlood flood-opacity="0" result="BackgroundImageFix"/>
<feColorMatrix in="SourceAlpha" type="matrix" values="0 0 0 0 0 0 0 0 0 0 0 0 0 0 0 0 0 0 127 0" result="hardAlpha"/>
<feOffset dx="0.870147" dy="0.870147"/>
<feGaussianBlur stdDeviation="0.435073"/>
<feComposite in2="hardAlpha" operator="out"/>
<feColorMatrix type="matrix" values="0 0 0 0 0 0 0 0 0 0 0 0 0 0 0 0 0 0 0.1 0"/>
<feBlend mode="normal" in2="BackgroundImageFix" result="effect1_dropShadow_978_293442"/>
<feBlend mode="normal" in="SourceGraphic" in2="effect1_dropShadow_978_293442" result="shape"/>
</filter>
<linearGradient id="paint0_linear_978_293442" x1="27.9173" y1="12.4393" x2="53.2029" y2="35.5433" gradientUnits="userSpaceOnUse">
<stop stop-color="#FFD700"/>
<stop offset="1" stop-color="#E68D35"/>
</linearGradient>
<linearGradient id="paint1_linear_978_293442" x1="28.0163" y1="12.8424" x2="52.6974" y2="35.3941" gradientUnits="userSpaceOnUse">
<stop stop-color="#EFCB0A"/>
<stop offset="1" stop-color="#AF661D"/>
</linearGradient>
<linearGradient id="paint2_linear_978_293442" x1="28.5113" y1="14.8574" x2="50.1703" y2="34.6477" gradientUnits="userSpaceOnUse">
<stop stop-color="#FFD700"/>
<stop offset="1" stop-color="#E68D35"/>
</linearGradient>
<linearGradient id="paint3_linear_978_293442" x1="26.6265" y1="15.3225" x2="45.4582" y2="32.5294" gradientUnits="userSpaceOnUse">
<stop stop-color="#FFD700"/>
<stop offset="1" stop-color="#E68D35"/>
</linearGradient>
<linearGradient id="paint4_linear_978_293442" x1="28.1347" y1="13.1893" x2="52.79" y2="36.1517" gradientUnits="userSpaceOnUse">
<stop stop-color="#FFD700"/>
<stop offset="1" stop-color="#E68D35"/>
</linearGradient>
<linearGradient id="paint5_linear_978_293442" x1="36.7776" y1="13.9" x2="39.3334" y2="17.09" gradientUnits="userSpaceOnUse">
<stop stop-color="#FFD700"/>
<stop offset="1" stop-color="#E68D35"/>
</linearGradient>
<linearGradient id="paint6_linear_978_293442" x1="27.959" y1="13.3317" x2="51.9741" y2="35.7255" gradientUnits="userSpaceOnUse">
<stop stop-color="#FFD700"/>
<stop offset="1" stop-color="#E68D35"/>
</linearGradient>
<linearGradient id="paint7_linear_978_293442" x1="29.4376" y1="16.3641" x2="49.817" y2="35.3656" gradientUnits="userSpaceOnUse">
<stop stop-color="#EBC704"/>
<stop offset="1" stop-color="#D17315"/>
</linearGradient>
<linearGradient id="paint8_linear_978_293442" x1="20.3737" y1="34.3269" x2="26.1589" y2="37.0658" gradientUnits="userSpaceOnUse">
<stop stop-color="#FFD700"/>
<stop offset="1" stop-color="#E68D35"/>
</linearGradient>
<clipPath id="clip0_978_293442">
<rect width="34.7247" height="34.7247" fill="white" transform="translate(11.0605 16.5988) rotate(-13.8611)"/>
</clipPath>
<clipPath id="clip1_978_293442">
<rect width="20.8258" height="16.0198" fill="white" transform="translate(22.2773 21.0956)"/>
</clipPath>
</defs>
</svg>
