<svg width="63" height="43" viewBox="0 0 63 43" fill="none" xmlns="http://www.w3.org/2000/svg">
<path d="M25.2801 33.2284H1.375V37.8642H25.2801V33.2284Z" fill="url(#paint0_linear_2005_123197)"/>
<path d="M23.7444 33.3063C23.6892 33.3063 23.6406 34.313 23.6406 35.5564C23.6406 36.7995 23.6892 37.8032 23.7444 37.8032C23.7995 37.8032 23.8511 36.7965 23.8511 35.5564C23.8511 34.3162 23.8028 33.3063 23.7444 33.3063Z" fill="#263238"/>
<path d="M21.5295 33.3063C21.4711 33.3063 21.4258 34.313 21.4258 35.5564C21.4258 36.7995 21.4711 37.8032 21.5295 37.8032C21.5876 37.8032 21.633 36.7965 21.633 35.5564C21.633 34.3162 21.5847 33.3063 21.5295 33.3063Z" fill="#263238"/>
<path d="M19.3456 33.3063C19.2875 33.3063 19.2422 34.313 19.2422 35.5564C19.2422 36.7995 19.2875 37.8032 19.3456 37.8032C19.4041 37.8032 19.4494 36.7965 19.4494 35.5564C19.4494 34.3162 19.4004 33.3063 19.3456 33.3063Z" fill="#263238"/>
<path d="M17.1584 33.3063C17.1003 33.3063 17.0547 34.313 17.0547 35.5564C17.0547 36.7995 17.1 37.8032 17.1584 37.8032C17.2166 37.8032 17.2622 36.7965 17.2622 35.5564C17.2622 34.3162 17.2166 33.3063 17.1584 33.3063Z" fill="#263238"/>
<path d="M14.9788 33.3062C14.9203 33.3062 14.875 34.3128 14.875 35.5563C14.875 36.7994 14.9203 37.8031 14.9788 37.8031C15.0369 37.8031 15.0822 36.7964 15.0822 35.5563C15.0822 34.3161 15.0372 33.3062 14.9788 33.3062Z" fill="#263238"/>
<path d="M12.7987 33.3063C12.7406 33.3063 12.6953 34.313 12.6953 35.5564C12.6953 36.7995 12.7406 37.8032 12.7987 37.8032C12.8572 37.8032 12.9025 36.7965 12.9025 35.5564C12.9025 34.3162 12.8638 33.3063 12.7987 33.3063Z" fill="#263238"/>
<path d="M10.6269 33.3063C10.5687 33.3063 10.5234 34.313 10.5234 35.5564C10.5234 36.7995 10.5687 37.8032 10.6269 37.8032C10.6853 37.8032 10.7306 36.7965 10.7306 35.5564C10.7306 34.3162 10.685 33.3063 10.6269 33.3063Z" fill="#263238"/>
<path d="M8.44359 33.3063C8.38548 33.3063 8.33984 34.313 8.33984 35.5564C8.33984 36.7995 8.38515 37.8032 8.44359 37.8032C8.50171 37.8032 8.54702 36.7965 8.54702 35.5564C8.54702 34.3162 8.50171 33.3063 8.44359 33.3063Z" fill="#263238"/>
<path d="M6.26001 33.3063C6.20189 33.3063 6.15625 34.313 6.15625 35.5564C6.15625 36.7995 6.20156 37.8032 6.26001 37.8032C6.31845 37.8032 6.36377 36.7965 6.36377 35.5564C6.36377 34.3162 6.31845 33.3063 6.26001 33.3063Z" fill="#263238"/>
<path d="M4.0839 33.3063C4.02578 33.3063 3.98047 34.313 3.98047 35.5564C3.98047 36.7995 4.02578 37.8032 4.0839 37.8032C4.14234 37.8032 4.18764 36.7965 4.18764 35.5564C4.18764 34.3162 4.14234 33.3063 4.0839 33.3063Z" fill="#263238"/>
<path d="M1.90845 33.3063C1.85 33.3063 1.80469 34.313 1.80469 35.5564C1.80469 36.7995 1.85 37.8032 1.90845 37.8032C1.96656 37.8032 2.0122 36.7965 2.0122 35.5564C2.0122 34.3162 1.96328 33.3063 1.90845 33.3063Z" fill="#263238"/>
<g opacity="0.3">
<path d="M24.8877 33.235C17.247 34.7227 9.39079 34.7227 1.75 33.235H24.8877Z" fill="black"/>
</g>
<path d="M23.9168 37.8029H0.0117188V42.4387H23.9168V37.8029Z" fill="url(#paint1_linear_2005_123197)"/>
<path d="M22.3769 37.8934C22.3187 37.8934 22.2734 38.9001 22.2734 40.1403C22.2734 41.3804 22.3187 42.4065 22.3769 42.4065C22.4353 42.4065 22.4806 41.3998 22.4806 40.1403C22.4806 38.8807 22.432 37.8934 22.3769 37.8934Z" fill="#263238"/>
<path d="M20.1584 37.8934C20.1003 37.8934 20.0547 38.9001 20.0547 40.1403C20.0547 41.3804 20.1 42.4065 20.1584 42.4065C20.2166 42.4065 20.2622 41.3998 20.2622 40.1403C20.2622 38.8807 20.2169 37.8934 20.1584 37.8934Z" fill="#263238"/>
<path d="M17.9706 37.8934C17.9155 37.8934 17.8672 38.9001 17.8672 40.1403C17.8672 41.3804 17.9158 42.4065 17.9706 42.4065C18.0258 42.4065 18.074 41.3998 18.074 40.1403C18.074 38.8807 18.0451 37.8934 17.9706 37.8934Z" fill="#263238"/>
<path d="M15.7834 37.8934C15.7253 37.8934 15.6797 38.9001 15.6797 40.1403C15.6797 41.3804 15.725 42.4065 15.7834 42.4065C15.8416 42.4065 15.8869 41.3998 15.8869 40.1403C15.8869 38.8807 15.8547 37.8934 15.7834 37.8934Z" fill="#263238"/>
<path d="M13.6112 37.8934C13.5531 37.8934 13.5078 38.9001 13.5078 40.1403C13.5078 41.3804 13.5531 42.4065 13.6112 42.4065C13.6697 42.4065 13.715 41.3998 13.715 40.1403C13.715 38.8807 13.6697 37.8934 13.6112 37.8934Z" fill="#263238"/>
<path d="M11.4355 37.8934C11.3773 37.8934 11.332 38.9001 11.332 40.1403C11.332 41.3804 11.3773 42.4065 11.4355 42.4065C11.4936 42.4065 11.5392 41.3998 11.5392 40.1403C11.5392 38.8807 11.4936 37.8934 11.4355 37.8934Z" fill="#263238"/>
<path d="M9.25577 37.8934C9.19766 37.8934 9.15234 38.9001 9.15234 40.1403C9.15234 41.3804 9.19766 42.4065 9.25577 42.4065C9.31422 42.4065 9.35953 41.3998 9.35953 40.1403C9.35953 38.8807 9.30437 37.8934 9.25577 37.8934Z" fill="#263238"/>
<path d="M7.08032 37.8934C7.02188 37.8934 6.97656 38.9001 6.97656 40.1403C6.97656 41.3804 7.02188 42.4065 7.08032 42.4065C7.13844 42.4065 7.18375 41.3998 7.18375 40.1403C7.18375 38.8807 7.13844 37.8934 7.08032 37.8934Z" fill="#263238"/>
<path d="M4.89249 37.8934C4.83437 37.8934 4.78906 38.9001 4.78906 40.1403C4.78906 41.3804 4.83437 42.4065 4.89249 42.4065C4.95093 42.4065 4.99625 41.3998 4.99625 40.1403C4.99625 38.8807 4.95093 37.8934 4.89249 37.8934Z" fill="#263238"/>
<path d="M2.72062 37.8934C2.6625 37.8934 2.61719 38.9001 2.61719 40.1403C2.61719 41.3804 2.6625 42.4065 2.72062 42.4065C2.77873 42.4065 2.82437 41.3998 2.82437 40.1403C2.82437 38.8807 2.77906 37.8934 2.72062 37.8934Z" fill="#263238"/>
<path d="M0.541253 37.8934C0.483137 37.8934 0.4375 38.9001 0.4375 40.1403C0.4375 41.3804 0.482809 42.4065 0.541253 42.4065C0.599369 42.4065 0.645012 41.3998 0.645012 40.1403C0.645012 38.8807 0.599369 37.8934 0.541253 37.8934Z" fill="#263238"/>
<g opacity="0.3">
<path d="M23.5515 37.8093C15.8937 39.1237 8.06802 39.1237 0.410156 37.8093H23.5515Z" fill="black"/>
</g>
<path d="M0 37.8191C0 37.8743 5.34175 37.9226 11.9332 37.9226C18.5246 37.9226 23.8631 37.874 23.8631 37.8191C23.8631 37.764 18.5213 37.7157 11.9332 37.7157C5.34503 37.7154 0 37.7607 0 37.8191Z" fill="#263238"/>
<path d="M43.7527 23.8041H19.8477V28.6247H43.7527V23.8041Z" fill="url(#paint2_linear_2005_123197)"/>
<path d="M42.2089 23.885C42.1508 23.885 42.1055 24.9341 42.1055 26.2225C42.1055 27.5109 42.1508 28.5599 42.2089 28.5599C42.2673 28.5599 42.3126 27.5141 42.3126 26.2225C42.3123 24.9308 42.2637 23.885 42.2089 23.885Z" fill="#263238"/>
<path d="M39.9941 23.8849C39.9359 23.8849 39.8906 24.9339 39.8906 26.2223C39.8906 27.5107 39.9359 28.5598 39.9941 28.5598C40.0525 28.5598 40.0978 27.514 40.0978 26.2223C40.0975 24.9306 40.0522 23.8849 39.9941 23.8849Z" fill="#263238"/>
<path d="M37.7991 23.885C37.7439 23.885 37.6953 24.9341 37.6953 26.2225C37.6953 27.5109 37.7439 28.5599 37.7991 28.5599C37.8542 28.5599 37.9025 27.5141 37.9025 26.2225C37.9025 24.9308 37.8572 23.885 37.7991 23.885Z" fill="#263238"/>
<path d="M35.6194 23.8849C35.5642 23.8849 35.5156 24.9339 35.5156 26.2223C35.5156 27.5107 35.5642 28.5598 35.6194 28.5598C35.6745 28.5598 35.7231 27.514 35.7231 26.2223C35.7228 24.9306 35.6775 23.8849 35.6194 23.8849Z" fill="#263238"/>
<path d="M33.4433 23.8849C33.3881 23.8849 33.3398 24.9339 33.3398 26.2223C33.3398 27.5107 33.3884 28.5598 33.4433 28.5598C33.4984 28.5598 33.547 27.514 33.547 26.2223C33.5467 24.9306 33.5014 23.8849 33.4433 23.8849Z" fill="#263238"/>
<path d="M31.2675 23.8849C31.2123 23.8849 31.1641 24.9339 31.1641 26.2223C31.1641 27.5107 31.2127 28.5598 31.2675 28.5598C31.3227 28.5598 31.3709 27.514 31.3709 26.2223C31.3712 24.9306 31.3259 23.8849 31.2675 23.8849Z" fill="#263238"/>
<path d="M29.0956 23.8849C29.0375 23.8849 28.9922 24.9339 28.9922 26.2223C28.9922 27.5107 29.0375 28.5598 29.0956 28.5598C29.1541 28.5598 29.1994 27.514 29.1994 26.2223C29.1994 24.9306 29.1442 23.8849 29.0956 23.8849Z" fill="#263238"/>
<path d="M26.9081 23.8849C26.85 23.8849 26.8047 24.9339 26.8047 26.2223C26.8047 27.5107 26.85 28.5598 26.9081 28.5598C26.9662 28.5598 27.0119 27.514 27.0119 26.2223C27.0115 24.9306 26.9662 23.8849 26.9081 23.8849Z" fill="#263238"/>
<path d="M24.7284 23.885C24.6703 23.885 24.625 24.9341 24.625 26.2225C24.625 27.5109 24.6703 28.5599 24.7284 28.5599C24.7865 28.5599 24.8322 27.5141 24.8322 26.2225C24.8319 24.9308 24.7865 23.885 24.7284 23.885Z" fill="#263238"/>
<path d="M22.5491 23.8849C22.4906 23.8849 22.4453 24.9339 22.4453 26.2223C22.4453 27.5107 22.4906 28.5598 22.5491 28.5598C22.6072 28.5598 22.6525 27.514 22.6525 26.2223C22.6525 24.9306 22.6203 23.8849 22.5491 23.8849Z" fill="#263238"/>
<path d="M20.3694 23.8849C20.3109 23.8849 20.2656 24.9339 20.2656 26.2223C20.2656 27.5107 20.3109 28.5598 20.3694 28.5598C20.4278 28.5598 20.4731 27.514 20.4731 26.2223C20.4731 24.9306 20.4278 23.8849 20.3694 23.8849Z" fill="#263238"/>
<path d="M40.952 28.589H17.0469V33.2251H40.952V28.589Z" fill="url(#paint3_linear_2005_123197)"/>
<path d="M39.4123 28.6697C39.3542 28.6697 39.3086 29.6731 39.3086 30.9165C39.3086 32.1596 39.3539 33.1633 39.4123 33.1633C39.4708 33.1633 39.5158 32.1566 39.5158 30.9165C39.5158 29.6764 39.4577 28.6697 39.4123 28.6697Z" fill="#263238"/>
<path d="M37.1897 28.6698C37.1316 28.6698 37.0859 29.6732 37.0859 30.9166C37.0859 32.1597 37.1313 33.1635 37.1897 33.1635C37.2478 33.1635 37.2934 32.1568 37.2934 30.9166C37.2934 29.6765 37.2511 28.6698 37.1897 28.6698Z" fill="#263238"/>
<path d="M35.0022 28.6697C34.947 28.6697 34.8984 29.6731 34.8984 30.9165C34.8984 32.1596 34.947 33.1633 35.0022 33.1633C35.0574 33.1633 35.1056 32.1566 35.1056 30.9165C35.1056 29.6764 35.0603 28.6697 35.0022 28.6697Z" fill="#263238"/>
<path d="M32.8264 28.6697C32.7713 28.6697 32.7227 29.6731 32.7227 30.9165C32.7227 32.1596 32.7713 33.1633 32.8264 33.1633C32.8816 33.1633 32.9298 32.1566 32.9298 30.9165C32.9298 29.6764 32.8845 28.6697 32.8264 28.6697Z" fill="#263238"/>
<path d="M30.6464 28.6699C30.5912 28.6699 30.543 29.6733 30.543 30.9167C30.543 32.1598 30.5916 33.1636 30.6464 33.1636C30.7012 33.1636 30.7502 32.1569 30.7502 30.9167C30.7502 29.6766 30.7176 28.6699 30.6464 28.6699Z" fill="#263238"/>
<path d="M28.4592 28.6698C28.4011 28.6698 28.3555 29.6732 28.3555 30.9166C28.3555 32.1597 28.4008 33.1635 28.4592 33.1635C28.5173 33.1635 28.5627 32.1568 28.5627 30.9166C28.5627 29.6765 28.5177 28.6698 28.4592 28.6698Z" fill="#263238"/>
<path d="M26.2873 28.6698C26.2292 28.6698 26.1836 29.6732 26.1836 30.9166C26.1836 32.1597 26.2289 33.1635 26.2873 33.1635C26.3458 33.1635 26.3911 32.1568 26.3911 30.9166C26.3911 29.6765 26.3458 28.6698 26.2873 28.6698Z" fill="#263238"/>
<path d="M24.1073 28.6698C24.0492 28.6698 24.0039 29.6732 24.0039 30.9166C24.0039 32.1597 24.0492 33.1635 24.1073 33.1635C24.1658 33.1635 24.2111 32.1568 24.2111 30.9166C24.2111 29.6765 24.1655 28.6698 24.1073 28.6698Z" fill="#263238"/>
<path d="M21.928 28.6699C21.8695 28.6699 21.8242 29.6733 21.8242 30.9167C21.8242 32.1598 21.8695 33.1636 21.928 33.1636C21.9861 33.1636 22.0314 32.1569 22.0314 30.9167C22.0314 29.6766 21.9733 28.6699 21.928 28.6699Z" fill="#263238"/>
<path d="M19.7522 28.6697C19.6941 28.6697 19.6484 29.6731 19.6484 30.9165C19.6484 32.1596 19.6938 33.1633 19.7522 33.1633C19.8103 33.1633 19.8556 32.1566 19.8556 30.9165C19.8556 29.6764 19.8106 28.6697 19.7522 28.6697Z" fill="#263238"/>
<path d="M17.5722 28.6698C17.5141 28.6698 17.4688 29.6732 17.4688 30.9166C17.4688 32.1597 17.5141 33.1635 17.5722 33.1635C17.6303 33.1635 17.6756 32.1568 17.6756 30.9166C17.6756 29.6765 17.6306 28.6698 17.5722 28.6698Z" fill="#263238"/>
<g opacity="0.3">
<path d="M40.5629 28.5957C32.905 29.91 25.0794 29.91 17.4219 28.5957H40.5629Z" fill="black"/>
</g>
<path d="M17.0352 28.6052C17.0352 28.6633 22.3769 28.7087 28.9683 28.7087C35.5597 28.7087 40.8982 28.6633 40.8982 28.6052C40.8982 28.5468 35.5725 28.5048 28.9683 28.5048C22.3638 28.5048 17.0352 28.5468 17.0352 28.6052Z" fill="#263238"/>
<path d="M42.4832 33.2281H18.5781V37.864H42.4832V33.2281Z" fill="url(#paint4_linear_2005_123197)"/>
<path d="M40.9475 33.306C40.8923 33.306 40.8438 34.3127 40.8438 35.5561C40.8438 36.7992 40.8923 37.803 40.9475 37.803C41.0027 37.803 41.0542 36.7963 41.0542 35.5561C41.0542 34.316 41.0056 33.306 40.9475 33.306Z" fill="#263238"/>
<path d="M38.7288 33.306C38.6703 33.306 38.625 34.3127 38.625 35.5561C38.625 36.7992 38.6703 37.803 38.7288 37.803C38.7869 37.803 38.8322 36.7963 38.8322 35.5561C38.8322 34.316 38.7839 33.306 38.7288 33.306Z" fill="#263238"/>
<path d="M36.5412 33.306C36.4828 33.306 36.4375 34.3127 36.4375 35.5561C36.4375 36.7992 36.4828 37.803 36.5412 37.803C36.5994 37.803 36.6447 36.7963 36.6447 35.5561C36.6447 34.316 36.5964 33.306 36.5412 33.306Z" fill="#263238"/>
<path d="M34.3616 33.306C34.3031 33.306 34.2578 34.3127 34.2578 35.5561C34.2578 36.7992 34.3031 37.803 34.3616 37.803C34.4197 37.803 34.465 36.7963 34.465 35.5561C34.465 34.316 34.42 33.306 34.3616 33.306Z" fill="#263238"/>
<path d="M32.1819 33.3059C32.1238 33.3059 32.0781 34.3126 32.0781 35.556C32.0781 36.7991 32.1234 37.8028 32.1819 37.8028C32.2403 37.8028 32.2856 36.7962 32.2856 35.556C32.2856 34.3159 32.2403 33.3059 32.1819 33.3059Z" fill="#263238"/>
<path d="M30.0019 33.306C29.9437 33.306 29.8984 34.3127 29.8984 35.5561C29.8984 36.7992 29.9437 37.803 30.0019 37.803C30.06 37.803 30.1053 36.7963 30.1053 35.5561C30.1053 34.316 30.0665 33.306 30.0019 33.306Z" fill="#263238"/>
<path d="M27.8225 33.306C27.7644 33.306 27.7188 34.3127 27.7188 35.5561C27.7188 36.7992 27.7641 37.803 27.8225 37.803C27.8806 37.803 27.9259 36.7963 27.9259 35.5561C27.9259 34.316 27.881 33.306 27.8225 33.306Z" fill="#263238"/>
<path d="M25.6467 33.306C25.5883 33.306 25.543 34.3127 25.543 35.5561C25.543 36.7992 25.5883 37.803 25.6467 37.803C25.7048 37.803 25.7502 36.7963 25.7502 35.5561C25.7502 34.316 25.7052 33.306 25.6467 33.306Z" fill="#263238"/>
<path d="M23.467 33.306C23.4089 33.306 23.3633 34.3127 23.3633 35.5561C23.3633 36.7992 23.4086 37.803 23.467 37.803C23.5255 37.803 23.5708 36.7963 23.5708 35.5561C23.5708 34.316 23.5255 33.306 23.467 33.306Z" fill="#263238"/>
<path d="M21.2834 33.3059C21.2253 33.3059 21.1797 34.3126 21.1797 35.556C21.1797 36.7991 21.225 37.8028 21.2834 37.8028C21.3416 37.8028 21.3869 36.7962 21.3869 35.556C21.3869 34.3159 21.3416 33.3059 21.2834 33.3059Z" fill="#263238"/>
<path d="M19.1116 33.3059C19.0531 33.3059 19.0078 34.3126 19.0078 35.556C19.0078 36.7991 19.0531 37.8028 19.1116 37.8028C19.1697 37.8028 19.215 36.7962 19.215 35.556C19.215 34.3159 19.1664 33.3059 19.1116 33.3059Z" fill="#263238"/>
<g opacity="0.3">
<path d="M42.0987 33.2346C34.4579 34.7223 26.6017 34.7223 18.9609 33.2346H42.0987Z" fill="black"/>
</g>
<path d="M18.5703 33.2441C18.5703 33.3026 23.9121 33.3479 30.5002 33.3479C37.0883 33.3479 42.4334 33.3026 42.4334 33.2441C42.4334 33.186 37.0916 33.1404 30.5002 33.1404C23.9088 33.1404 18.5703 33.186 18.5703 33.2441Z" fill="#263238"/>
<path d="M41.116 37.8027H17.2109V42.4386H41.116V37.8027Z" fill="url(#paint5_linear_2005_123197)"/>
<path d="M39.58 37.8932C39.5219 37.8932 39.4766 38.8999 39.4766 40.14C39.4766 41.3801 39.5219 42.4062 39.58 42.4062C39.6384 42.4062 39.6837 41.3995 39.6837 40.14C39.6837 38.8805 39.6352 37.8932 39.58 37.8932Z" fill="#263238"/>
<path d="M37.3616 37.8932C37.3031 37.8932 37.2578 38.8999 37.2578 40.14C37.2578 41.3801 37.3031 42.4062 37.3616 42.4062C37.4197 42.4062 37.4653 41.3995 37.4653 40.14C37.4653 38.8805 37.42 37.8932 37.3616 37.8932Z" fill="#263238"/>
<path d="M35.1702 37.8932C35.115 37.8932 35.0664 38.8999 35.0664 40.14C35.0664 41.3801 35.115 42.4062 35.1702 42.4062C35.225 42.4062 35.2736 41.3995 35.2736 40.14C35.2736 38.8805 35.2447 37.8932 35.1702 37.8932Z" fill="#263238"/>
<path d="M32.9866 37.8932C32.9281 37.8932 32.8828 38.8999 32.8828 40.14C32.8828 41.3801 32.9281 42.4062 32.9866 42.4062C33.0447 42.4062 33.09 41.3995 33.09 40.14C33.09 38.8805 33.0578 37.8932 32.9866 37.8932Z" fill="#263238"/>
<path d="M30.8105 37.8932C30.7523 37.8932 30.707 38.8999 30.707 40.14C30.707 41.3801 30.7523 42.4062 30.8105 42.4062C30.8689 42.4062 30.9142 41.3995 30.9142 40.14C30.9142 38.8805 30.8686 37.8932 30.8105 37.8932Z" fill="#263238"/>
<path d="M28.635 37.8932C28.5766 37.8932 28.5312 38.8999 28.5312 40.14C28.5312 41.3801 28.5766 42.4062 28.635 42.4062C28.6931 42.4062 28.7384 41.3995 28.7384 40.14C28.7384 38.8805 28.6931 37.8932 28.635 37.8932Z" fill="#263238"/>
<path d="M26.4589 37.8932C26.4008 37.8932 26.3555 38.8999 26.3555 40.14C26.3555 41.3801 26.4008 42.4062 26.4589 42.4062C26.5173 42.4062 26.5627 41.3995 26.5627 40.14C26.5627 38.8805 26.5075 37.8932 26.4589 37.8932Z" fill="#263238"/>
<path d="M24.2756 37.8932C24.2175 37.8932 24.1719 38.8999 24.1719 40.14C24.1719 41.3801 24.2172 42.4062 24.2756 42.4062C24.3337 42.4062 24.3791 41.3995 24.3791 40.14C24.3791 38.8805 24.3341 37.8932 24.2756 37.8932Z" fill="#263238"/>
<path d="M22.0995 37.8932C22.0414 37.8932 21.9961 38.8999 21.9961 40.14C21.9961 41.3801 22.0414 42.4062 22.0995 42.4062C22.158 42.4062 22.2033 41.3995 22.2033 40.14C22.2033 38.8805 22.158 37.8932 22.0995 37.8932Z" fill="#263238"/>
<path d="M19.9202 37.8932C19.8617 37.8932 19.8164 38.8999 19.8164 40.14C19.8164 41.3801 19.8617 42.4062 19.9202 42.4062C19.9783 42.4062 20.0236 41.3995 20.0236 40.14C20.0236 38.8805 19.9783 37.8932 19.9202 37.8932Z" fill="#263238"/>
<path d="M17.7401 37.8932C17.682 37.8932 17.6367 38.8999 17.6367 40.14C17.6367 41.3801 17.682 42.4062 17.7401 42.4062C17.7983 42.4062 17.8439 41.3995 17.8439 40.14C17.8439 38.8805 17.7983 37.8932 17.7401 37.8932Z" fill="#263238"/>
<g opacity="0.3">
<path d="M40.7543 37.809C33.0964 39.1233 25.2708 39.1233 17.6133 37.809H40.7543Z" fill="black"/>
</g>
<path d="M17.2031 37.819C17.2031 37.8742 22.5449 37.9224 29.1363 37.9224C35.7277 37.9224 41.0662 37.8738 41.0662 37.819C41.0662 37.7638 35.7244 37.7156 29.1363 37.7156C22.5482 37.7156 17.2031 37.7606 17.2031 37.819Z" fill="#263238"/>
<g opacity="0.3">
<path d="M19.8473 23.8042V28.5891H17.0469V33.2249H40.952V28.6245H43.7524V23.8042H19.8473Z" fill="black"/>
<path d="M18.5772 37.8026H17.2109V42.4387H41.116V37.8643H42.4822V33.2281H18.5772V37.8026Z" fill="black"/>
</g>
<path d="M61.0811 9.53137H37.9844V14.1889H61.0811V9.53137Z" fill="url(#paint6_linear_2005_123197)"/>
<path d="M59.5923 9.6095C59.5391 9.6095 59.4922 10.6231 59.4922 11.8678C59.4922 13.1129 59.5391 14.1261 59.5923 14.1261C59.6455 14.1261 59.6925 13.1158 59.6925 11.8678C59.6925 10.6201 59.6488 9.6095 59.5923 9.6095Z" fill="#263238"/>
<path d="M57.4595 9.6095C57.403 9.6095 57.3594 10.6231 57.3594 11.8678C57.3594 13.1129 57.403 14.1261 57.4595 14.1261C57.516 14.1261 57.5597 13.1158 57.5597 11.8678C57.5597 10.6201 57.5127 9.6095 57.4595 9.6095Z" fill="#263238"/>
<path d="M55.3423 9.6095C55.2862 9.6095 55.2422 10.6231 55.2422 11.8678C55.2422 13.1129 55.2859 14.1261 55.3423 14.1261C55.3985 14.1261 55.4425 13.1158 55.4425 11.8678C55.4425 10.6201 55.3985 9.6095 55.3423 9.6095Z" fill="#263238"/>
<path d="M53.2408 9.6095C53.1846 9.6095 53.1406 10.6231 53.1406 11.8678C53.1406 13.1129 53.1846 14.1261 53.2408 14.1261C53.2972 14.1261 53.3409 13.1158 53.3409 11.8678C53.3409 10.6201 53.3002 9.6095 53.2408 9.6095Z" fill="#263238"/>
<path d="M51.1314 9.60962C51.0749 9.60962 51.0312 10.6232 51.0312 11.8679C51.0312 13.113 51.0749 14.1262 51.1314 14.1262C51.1875 14.1262 51.2315 13.116 51.2315 11.8679C51.2315 10.6202 51.1879 9.60962 51.1314 9.60962Z" fill="#263238"/>
<path d="M49.0259 9.6095C48.9694 9.6095 48.9258 10.6231 48.9258 11.8678C48.9258 13.1129 48.9694 14.1261 49.0259 14.1261C49.0824 14.1261 49.1261 13.1158 49.1261 11.8678C49.1261 10.6201 49.0821 9.6095 49.0259 9.6095Z" fill="#263238"/>
<path d="M46.9205 9.60962C46.8643 9.60962 46.8203 10.6232 46.8203 11.8679C46.8203 13.113 46.8643 14.1262 46.9205 14.1262C46.9769 14.1262 47.0206 13.116 47.0206 11.8679C47.0206 10.6202 46.9769 9.60962 46.9205 9.60962Z" fill="#263238"/>
<path d="M44.8189 9.6095C44.7624 9.6095 44.7188 10.6231 44.7188 11.8678C44.7188 13.1129 44.7624 14.1261 44.8189 14.1261C44.875 14.1261 44.919 13.1158 44.919 11.8678C44.919 10.6201 44.875 9.6095 44.8189 9.6095Z" fill="#263238"/>
<path d="M42.7095 9.60962C42.653 9.60962 42.6094 10.6232 42.6094 11.8679C42.6094 13.113 42.653 14.1262 42.7095 14.1262C42.7657 14.1262 42.8097 13.116 42.8097 11.8679C42.8097 10.6202 42.7657 9.60962 42.7095 9.60962Z" fill="#263238"/>
<path d="M40.608 9.6095C40.5515 9.6095 40.5078 10.6231 40.5078 11.8678C40.5078 13.1129 40.5515 14.1261 40.608 14.1261C40.6641 14.1261 40.7081 13.1158 40.7081 11.8678C40.7081 10.6201 40.6644 9.6095 40.608 9.6095Z" fill="#263238"/>
<path d="M38.4986 9.6095C38.4424 9.6095 38.3984 10.6231 38.3984 11.8678C38.3984 13.1129 38.4421 14.1261 38.4986 14.1261C38.5551 14.1261 38.5987 13.1158 38.5987 11.8678C38.5987 10.6201 38.5518 9.6095 38.4986 9.6095Z" fill="#263238"/>
<path d="M60.991 14.2766H37.0859V19.0973H60.991V14.2766Z" fill="url(#paint7_linear_2005_123197)"/>
<path d="M59.4511 14.3573C59.3959 14.3573 59.3477 15.4063 59.3477 16.6947C59.3477 17.9831 59.3963 19.0322 59.4511 19.0322C59.5062 19.0322 59.5548 17.9864 59.5548 16.6947C59.5548 15.4031 59.5095 14.3573 59.4511 14.3573Z" fill="#263238"/>
<path d="M57.2366 14.3574C57.1784 14.3574 57.1328 15.4065 57.1328 16.6949C57.1328 17.9833 57.1781 19.0323 57.2366 19.0323C57.295 19.0323 57.3403 17.9866 57.3403 16.6949C57.34 15.4032 57.2917 14.3574 57.2366 14.3574Z" fill="#263238"/>
<path d="M55.0452 14.3574C54.987 14.3574 54.9414 15.4065 54.9414 16.6949C54.9414 17.9833 54.9867 19.0323 55.0452 19.0323C55.1036 19.0323 55.1489 17.9866 55.1489 16.6949C55.1486 15.4032 55.1033 14.3574 55.0452 14.3574Z" fill="#263238"/>
<path d="M52.869 14.3574C52.8109 14.3574 52.7656 15.4065 52.7656 16.6949C52.7656 17.9833 52.8109 19.0323 52.869 19.0323C52.9272 19.0323 52.9725 17.9866 52.9725 16.6949C52.9725 15.4032 52.9304 14.3574 52.869 14.3574Z" fill="#263238"/>
<path d="M50.6897 14.3574C50.6316 14.3574 50.5859 15.4065 50.5859 16.6949C50.5859 17.9833 50.6313 19.0323 50.6897 19.0323C50.7478 19.0323 50.7935 17.9866 50.7935 16.6949C50.7935 15.4032 50.7481 14.3574 50.6897 14.3574Z" fill="#263238"/>
<path d="M48.51 14.3574C48.4519 14.3574 48.4062 15.4065 48.4062 16.6949C48.4062 17.9833 48.4516 19.0323 48.51 19.0323C48.5681 19.0323 48.6134 17.9866 48.6134 16.6949C48.6134 15.4032 48.5681 14.3574 48.51 14.3574Z" fill="#263238"/>
<path d="M46.3339 14.3574C46.2758 14.3574 46.2305 15.4065 46.2305 16.6949C46.2305 17.9833 46.2758 19.0323 46.3339 19.0323C46.3923 19.0323 46.4377 17.9866 46.4377 16.6949C46.4373 15.4032 46.392 14.3574 46.3339 14.3574Z" fill="#263238"/>
<path d="M44.1506 14.3574C44.0922 14.3574 44.0469 15.4065 44.0469 16.6949C44.0469 17.9833 44.0922 19.0323 44.1506 19.0323C44.2087 19.0323 44.2541 17.9866 44.2541 16.6949C44.2541 15.4032 44.2087 14.3574 44.1506 14.3574Z" fill="#263238"/>
<path d="M41.9709 14.3574C41.9128 14.3574 41.8672 15.4065 41.8672 16.6949C41.8672 17.9833 41.9125 19.0323 41.9709 19.0323C42.0291 19.0323 42.0747 17.9866 42.0747 16.6949C42.0747 15.4032 42.0294 14.3574 41.9709 14.3574Z" fill="#263238"/>
<path d="M39.7913 14.3573C39.7331 14.3573 39.6875 15.4063 39.6875 16.6947C39.6875 17.9831 39.7328 19.0322 39.7913 19.0322C39.8494 19.0322 39.8947 17.9864 39.8947 16.6947C39.895 15.4031 39.8497 14.3573 39.7913 14.3573Z" fill="#263238"/>
<path d="M37.6155 14.3574C37.557 14.3574 37.5117 15.4065 37.5117 16.6949C37.5117 17.9833 37.557 19.0323 37.6155 19.0323C37.6736 19.0323 37.7189 17.9866 37.7189 16.6949C37.7189 15.4032 37.6703 14.3574 37.6155 14.3574Z" fill="#263238"/>
<g opacity="0.3">
<path d="M60.6065 14.2828C52.9283 15.3105 45.147 15.3105 37.4688 14.2828H60.6065Z" fill="black"/>
</g>
<path d="M37.0664 14.2928C37.0664 14.3512 42.4082 14.3965 48.9963 14.3965C55.5844 14.3965 60.9295 14.3512 60.9295 14.2928C60.9295 14.2346 55.5877 14.1893 48.9963 14.1893C42.4049 14.189 37.0664 14.2343 37.0664 14.2928Z" fill="#263238"/>
<path d="M60.2139 0H37.1172V4.6575H60.2139V0Z" fill="url(#paint8_linear_2005_123197)"/>
<path d="M58.7251 0.0787354C58.672 0.0787354 58.625 1.09232 58.625 2.33705C58.625 3.58211 58.672 4.59538 58.7251 4.59538C58.7783 4.59538 58.8253 3.58507 58.8253 2.33705C58.8253 1.08903 58.7816 0.0787354 58.7251 0.0787354Z" fill="#263238"/>
<path d="M56.5845 0.0786133C56.5284 0.0786133 56.4844 1.09219 56.4844 2.33693C56.4844 3.58199 56.5281 4.59525 56.5845 4.59525C56.641 4.59525 56.6847 3.58495 56.6847 2.33693C56.6847 1.08891 56.6377 0.0786133 56.5845 0.0786133Z" fill="#263238"/>
<path d="M54.4712 0.0783691C54.4148 0.0783691 54.3711 1.09195 54.3711 2.33668C54.3711 3.58175 54.4148 4.59501 54.4712 4.59501C54.5274 4.59501 54.5714 3.5847 54.5714 2.33668C54.5714 1.08867 54.5274 0.0783691 54.4712 0.0783691Z" fill="#263238"/>
<path d="M52.3658 0.0787354C52.3096 0.0787354 52.2656 1.09232 52.2656 2.33705C52.2656 3.58211 52.3093 4.59538 52.3658 4.59538C52.4222 4.59538 52.4659 3.58507 52.4659 2.33705C52.4659 1.08903 52.4252 0.0787354 52.3658 0.0787354Z" fill="#263238"/>
<path d="M50.2642 0.0787354C50.2077 0.0787354 50.1641 1.09232 50.1641 2.33705C50.1641 3.58211 50.2077 4.59538 50.2642 4.59538C50.3203 4.59538 50.3643 3.58507 50.3643 2.33705C50.3643 1.08903 50.3203 0.0787354 50.2642 0.0787354Z" fill="#263238"/>
<path d="M48.1548 0.0787354C48.0984 0.0787354 48.0547 1.09232 48.0547 2.33705C48.0547 3.58211 48.0984 4.59538 48.1548 4.59538C48.211 4.59538 48.255 3.58507 48.255 2.33705C48.2546 1.08903 48.211 0.0787354 48.1548 0.0787354Z" fill="#263238"/>
<path d="M46.0533 0.0787354C45.9971 0.0787354 45.9531 1.09232 45.9531 2.33705C45.9531 3.58211 45.9968 4.59538 46.0533 4.59538C46.1097 4.59538 46.1534 3.58507 46.1534 2.33705C46.1534 1.08903 46.1097 0.0787354 46.0533 0.0787354Z" fill="#263238"/>
<path d="M43.9439 0.0783691C43.8877 0.0783691 43.8438 1.09195 43.8438 2.33668C43.8438 3.58175 43.8874 4.59501 43.9439 4.59501C44.0004 4.59501 44.044 3.5847 44.044 2.33668C44.044 1.08867 44 0.0783691 43.9439 0.0783691Z" fill="#263238"/>
<path d="M41.8423 0.0787354C41.7859 0.0787354 41.7422 1.09232 41.7422 2.33705C41.7422 3.58211 41.7859 4.59538 41.8423 4.59538C41.8988 4.59538 41.9425 3.58507 41.9425 2.33705C41.9425 1.08903 41.8988 0.0787354 41.8423 0.0787354Z" fill="#263238"/>
<path d="M39.733 0.0787354C39.6765 0.0787354 39.6328 1.09232 39.6328 2.33705C39.6328 3.58211 39.6765 4.59538 39.733 4.59538C39.7891 4.59538 39.8331 3.58507 39.8331 2.33705C39.8331 1.08903 39.7894 0.0787354 39.733 0.0787354Z" fill="#263238"/>
<path d="M37.6314 0.0787354C37.5749 0.0787354 37.5312 1.09232 37.5312 2.33705C37.5312 3.58211 37.5749 4.59538 37.6314 4.59538C37.6875 4.59538 37.7315 3.58507 37.7315 2.33705C37.7315 1.08903 37.6846 0.0787354 37.6314 0.0787354Z" fill="#263238"/>
<path d="M60.116 4.74536H36.2109V9.56603H60.116V4.74536Z" fill="url(#paint9_linear_2005_123197)"/>
<path d="M58.58 4.82593C58.5248 4.82593 58.4766 5.87497 58.4766 7.16337C58.4766 8.45178 58.5252 9.50082 58.58 9.50082C58.6352 9.50082 58.6837 8.45506 58.6837 7.16337C58.6837 5.87168 58.6384 4.82593 58.58 4.82593Z" fill="#263238"/>
<path d="M56.3694 4.82593C56.3113 4.82593 56.2656 5.87497 56.2656 7.16337C56.2656 8.45178 56.3109 9.50082 56.3694 9.50082C56.4275 9.50082 56.4728 8.45506 56.4728 7.16337C56.4728 5.87168 56.4242 4.82593 56.3694 4.82593Z" fill="#263238"/>
<path d="M54.1741 4.82593C54.1156 4.82593 54.0703 5.87497 54.0703 7.16337C54.0703 8.45178 54.1156 9.50082 54.1741 9.50082C54.2322 9.50082 54.2775 8.45506 54.2775 7.16337C54.2775 5.87168 54.2322 4.82593 54.1741 4.82593Z" fill="#263238"/>
<path d="M51.998 4.82593C51.9398 4.82593 51.8945 5.87497 51.8945 7.16337C51.8945 8.45178 51.9398 9.50082 51.998 9.50082C52.0564 9.50082 52.1017 8.45506 52.1017 7.16337C52.1014 5.87168 52.0594 4.82593 51.998 4.82593Z" fill="#263238"/>
<path d="M49.8225 4.82593C49.7644 4.82593 49.7188 5.87497 49.7188 7.16337C49.7188 8.45178 49.7641 9.50082 49.8225 9.50082C49.8806 9.50082 49.9263 8.45506 49.9263 7.16337C49.9263 5.87168 49.8806 4.82593 49.8225 4.82593Z" fill="#263238"/>
<path d="M47.6389 4.82593C47.5808 4.82593 47.5352 5.87497 47.5352 7.16337C47.5352 8.45178 47.5805 9.50082 47.6389 9.50082C47.697 9.50082 47.7423 8.45506 47.7423 7.16337C47.7427 5.87168 47.6974 4.82593 47.6389 4.82593Z" fill="#263238"/>
<path d="M45.4631 4.82593C45.4047 4.82593 45.3594 5.87497 45.3594 7.16337C45.3594 8.45178 45.4047 9.50082 45.4631 9.50082C45.5216 9.50082 45.5669 8.45506 45.5669 7.16337C45.5669 5.87168 45.5216 4.82593 45.4631 4.82593Z" fill="#263238"/>
<path d="M43.2795 4.82593C43.2211 4.82593 43.1758 5.87497 43.1758 7.16337C43.1758 8.45178 43.2211 9.50082 43.2795 9.50082C43.3377 9.50082 43.383 8.45506 43.383 7.16337C43.383 5.87168 43.3377 4.82593 43.2795 4.82593Z" fill="#263238"/>
<path d="M41.1034 4.82593C41.0453 4.82593 41 5.87497 41 7.16337C41 8.45178 41.0453 9.50082 41.1034 9.50082C41.1615 9.50082 41.2072 8.45506 41.2072 7.16337C41.2069 5.87168 41.1615 4.82593 41.1034 4.82593Z" fill="#263238"/>
<path d="M38.9241 4.82593C38.866 4.82593 38.8203 5.87497 38.8203 7.16337C38.8203 8.45178 38.8656 9.50082 38.9241 9.50082C38.9822 9.50082 39.0275 8.45506 39.0275 7.16337C39.0278 5.87168 38.9825 4.82593 38.9241 4.82593Z" fill="#263238"/>
<path d="M36.7483 4.82593C36.6898 4.82593 36.6445 5.87497 36.6445 7.16337C36.6445 8.45178 36.6898 9.50082 36.7483 9.50082C36.8064 9.50082 36.8517 8.45506 36.8517 7.16337C36.852 5.87168 36.8034 4.82593 36.7483 4.82593Z" fill="#263238"/>
<g opacity="0.3">
<path d="M59.7318 4.75171C52.0533 5.77941 44.2723 5.77941 36.5938 4.75171H59.7318Z" fill="black"/>
</g>
<g opacity="0.3">
<path d="M61.224 9.55359C53.5455 10.5813 45.7645 10.5813 38.0859 9.55359H61.224Z" fill="black"/>
</g>
<path d="M36.1953 4.76151C36.1953 4.81995 41.5371 4.86527 48.1252 4.86527C54.7133 4.86527 60.0584 4.81995 60.0584 4.76151C60.0584 4.70339 54.7166 4.65808 48.1252 4.65808C41.5338 4.65808 36.1953 4.70306 36.1953 4.76151Z" fill="#263238"/>
<path d="M38.0078 9.55338C38.0078 9.61182 43.2048 9.65714 49.6139 9.65714C56.0235 9.65714 61.2234 9.61182 61.2234 9.55338C61.2234 9.49526 56.0264 9.44995 49.6139 9.44995C43.2015 9.44995 38.0078 9.49526 38.0078 9.55338Z" fill="#263238"/>
<path d="M60.452 19.0161H36.5469V23.8368H60.452V19.0161Z" fill="url(#paint10_linear_2005_123197)"/>
<path d="M58.9202 19.1001C58.8617 19.1001 58.8164 20.1459 58.8164 21.4343C58.8164 22.7227 58.8617 23.7717 58.9202 23.7717C58.9783 23.7717 59.0236 22.7259 59.0236 21.4343C59.0239 20.1426 58.9753 19.1001 58.9202 19.1001Z" fill="#263238"/>
<path d="M56.6972 19.1001C56.6391 19.1001 56.5938 20.1459 56.5938 21.4343C56.5938 22.7227 56.6391 23.7717 56.6972 23.7717C56.7556 23.7717 56.8009 22.7259 56.8009 21.4343C56.8009 20.1426 56.7556 19.1001 56.6972 19.1001Z" fill="#263238"/>
<path d="M54.51 19.1001C54.4548 19.1001 54.4062 20.1459 54.4062 21.4343C54.4062 22.7227 54.4548 23.7717 54.51 23.7717C54.5652 23.7717 54.6134 22.7259 54.6134 21.4343C54.6138 20.1426 54.5685 19.1001 54.51 19.1001Z" fill="#263238"/>
<path d="M52.3303 19.1001C52.2719 19.1001 52.2266 20.1459 52.2266 21.4343C52.2266 22.7227 52.2719 23.7717 52.3303 23.7717C52.3884 23.7717 52.4337 22.7259 52.4337 21.4343C52.4341 20.1426 52.3888 19.1001 52.3303 19.1001Z" fill="#263238"/>
<path d="M50.1506 19.1001C50.0922 19.1001 50.0469 20.1459 50.0469 21.4343C50.0469 22.7227 50.0922 23.7717 50.1506 23.7717C50.2087 23.7717 50.2541 22.7259 50.2541 21.4343C50.2541 20.1426 50.2087 19.1001 50.1506 19.1001Z" fill="#263238"/>
<path d="M47.9709 19.1001C47.9128 19.1001 47.8672 20.1459 47.8672 21.4343C47.8672 22.7227 47.9125 23.7717 47.9709 23.7717C48.0291 23.7717 48.0747 22.7259 48.0747 21.4343C48.0744 20.1426 48.0291 19.1001 47.9709 19.1001Z" fill="#263238"/>
<path d="M45.8066 19.1002C45.7484 19.1002 45.7031 20.146 45.7031 21.4344C45.7031 22.7228 45.7484 23.7718 45.8066 23.7718C45.865 23.7718 45.9103 22.7261 45.9103 21.4344C45.9103 20.1427 45.8519 19.1002 45.8066 19.1002Z" fill="#263238"/>
<path d="M43.6151 19.1001C43.557 19.1001 43.5117 20.1459 43.5117 21.4343C43.5117 22.7227 43.557 23.7717 43.6151 23.7717C43.6736 23.7717 43.7189 22.7259 43.7189 21.4343C43.7189 20.1426 43.6736 19.1001 43.6151 19.1001Z" fill="#263238"/>
<path d="M41.4355 19.1001C41.3773 19.1001 41.332 20.1459 41.332 21.4343C41.332 22.7227 41.3773 23.7717 41.4355 23.7717C41.4936 23.7717 41.5392 22.7259 41.5392 21.4343C41.5392 20.1426 41.4939 19.1001 41.4355 19.1001Z" fill="#263238"/>
<path d="M39.2558 19.1002C39.1977 19.1002 39.1523 20.146 39.1523 21.4344C39.1523 22.7228 39.1977 23.7718 39.2558 23.7718C39.3142 23.7718 39.3595 22.7261 39.3595 21.4344C39.3595 20.1427 39.3303 19.1002 39.2558 19.1002Z" fill="#263238"/>
<path d="M37.0683 19.1001C37.0102 19.1001 36.9648 20.1459 36.9648 21.4343C36.9648 22.7227 37.0102 23.7717 37.0683 23.7717C37.1267 23.7717 37.172 22.7259 37.172 21.4343C37.172 20.1426 37.1395 19.1001 37.0683 19.1001Z" fill="#263238"/>
<g opacity="0.3">
<path d="M60.0707 19.0223C52.3912 20.0504 44.6089 20.0504 36.9297 19.0223H60.0707Z" fill="black"/>
</g>
<path d="M36.543 19.0323C36.543 19.0907 41.8847 19.136 48.4761 19.136C55.0676 19.136 60.406 19.0907 60.406 19.0323C60.406 18.9741 55.0676 18.9288 48.4761 18.9288C41.8847 18.9288 36.543 18.9935 36.543 19.0323Z" fill="#263238"/>
<path d="M62.7254 23.681H38.8203V28.5017H62.7254V23.681Z" fill="url(#paint11_linear_2005_123197)"/>
<path d="M61.1894 23.7621C61.1312 23.7621 61.0859 24.8108 61.0859 26.0995C61.0859 27.3879 61.1312 28.437 61.1894 28.437C61.2478 28.437 61.2931 27.3912 61.2931 26.0995C61.2931 24.8078 61.2445 23.7621 61.1894 23.7621Z" fill="#263238"/>
<path d="M58.9709 23.762C58.9128 23.762 58.8672 24.8107 58.8672 26.0994C58.8672 27.3878 58.9125 28.4369 58.9709 28.4369C59.0294 28.4369 59.0747 27.3911 59.0747 26.0994C59.0747 24.8077 59.0294 23.762 58.9709 23.762Z" fill="#263238"/>
<path d="M56.7756 23.7621C56.7205 23.7621 56.6719 24.8108 56.6719 26.0995C56.6719 27.3879 56.7205 28.437 56.7756 28.437C56.8308 28.437 56.8794 27.3912 56.8794 26.0995C56.8791 24.8078 56.8337 23.7621 56.7756 23.7621Z" fill="#263238"/>
<path d="M54.5959 23.762C54.5408 23.762 54.4922 24.8107 54.4922 26.0994C54.4922 27.3878 54.5408 28.4369 54.5959 28.4369C54.6511 28.4369 54.6997 27.3911 54.6997 26.0994C54.6997 24.8077 54.6544 23.762 54.5959 23.762Z" fill="#263238"/>
<path d="M52.4198 23.7621C52.365 23.7621 52.3164 24.8108 52.3164 26.0995C52.3164 27.3879 52.365 28.437 52.4198 28.437C52.475 28.437 52.5236 27.3912 52.5236 26.0995C52.5236 24.8078 52.4783 23.7621 52.4198 23.7621Z" fill="#263238"/>
<path d="M50.2441 23.7621C50.1889 23.7621 50.1406 24.8108 50.1406 26.0995C50.1406 27.3879 50.1892 28.437 50.2441 28.437C50.2989 28.437 50.3478 27.3912 50.3478 26.0995C50.3478 24.8078 50.3025 23.7621 50.2441 23.7621Z" fill="#263238"/>
<path d="M48.0722 23.7621C48.0141 23.7621 47.9688 24.8108 47.9688 26.0995C47.9688 27.3879 48.0141 28.437 48.0722 28.437C48.1306 28.437 48.1759 27.3912 48.1759 26.0995C48.1759 24.8078 48.1208 23.7621 48.0722 23.7621Z" fill="#263238"/>
<path d="M45.8847 23.7621C45.8266 23.7621 45.7812 24.8108 45.7812 26.0995C45.7812 27.3879 45.8266 28.437 45.8847 28.437C45.9431 28.437 45.9884 27.3912 45.9884 26.0995C45.9884 24.8078 45.9431 23.7621 45.8847 23.7621Z" fill="#263238"/>
<path d="M43.705 23.762C43.6469 23.762 43.6016 24.8107 43.6016 26.0994C43.6016 27.3878 43.6469 28.4369 43.705 28.4369C43.7631 28.4369 43.8087 27.3911 43.8087 26.0994C43.8087 24.8077 43.7634 23.762 43.705 23.762Z" fill="#263238"/>
<path d="M41.5256 23.762C41.4675 23.762 41.4219 24.8107 41.4219 26.0994C41.4219 27.3878 41.4672 28.4369 41.5256 28.4369C41.5837 28.4369 41.6294 27.3911 41.6294 26.0994C41.6294 24.8077 41.5969 23.762 41.5256 23.762Z" fill="#263238"/>
<path d="M39.3499 23.7621C39.2917 23.7621 39.2461 24.8108 39.2461 26.0995C39.2461 27.3879 39.2914 28.437 39.3499 28.437C39.408 28.437 39.4533 27.3912 39.4533 26.0995C39.4533 24.8078 39.408 23.7621 39.3499 23.7621Z" fill="#263238"/>
<g opacity="0.3">
<path d="M62.3442 23.688C54.6646 24.7157 46.8823 24.7157 39.2031 23.688H62.3442Z" fill="black"/>
</g>
<path d="M38.8125 23.6973C38.8125 23.7554 44.1543 23.8011 50.7457 23.8011C57.3371 23.8011 62.6756 23.7557 62.6756 23.6973C62.6756 23.6392 57.3371 23.5939 50.7457 23.5939C44.1543 23.5939 38.8125 23.6425 38.8125 23.6973Z" fill="#263238"/>
<path d="M59.9246 28.4662H36.0195V33.1023H59.9246V28.4662Z" fill="url(#paint12_linear_2005_123197)"/>
<path d="M58.3889 28.547C58.3308 28.547 58.2852 29.5504 58.2852 30.7938C58.2852 32.0369 58.3305 33.0407 58.3889 33.0407C58.447 33.0407 58.4927 32.034 58.4927 30.7938C58.4927 29.554 58.4342 28.547 58.3889 28.547Z" fill="#263238"/>
<path d="M56.1659 28.547C56.1078 28.547 56.0625 29.5504 56.0625 30.7938C56.0625 32.0369 56.1078 33.0407 56.1659 33.0407C56.2244 33.0407 56.2697 32.034 56.2697 30.7938C56.2697 29.554 56.2277 28.547 56.1659 28.547Z" fill="#263238"/>
<path d="M53.9784 28.547C53.9236 28.547 53.875 29.5504 53.875 30.7938C53.875 32.0369 53.9236 33.0407 53.9784 33.0407C54.0336 33.0407 54.0822 32.034 54.0822 30.7938C54.0818 29.554 54.0365 28.547 53.9784 28.547Z" fill="#263238"/>
<path d="M51.7991 28.547C51.7439 28.547 51.6953 29.5504 51.6953 30.7938C51.6953 32.0369 51.7439 33.0407 51.7991 33.0407C51.8542 33.0407 51.9028 32.034 51.9028 30.7938C51.9028 29.554 51.8575 28.547 51.7991 28.547Z" fill="#263238"/>
<path d="M49.6191 28.547C49.5642 28.547 49.5156 29.5504 49.5156 30.7938C49.5156 32.0369 49.5642 33.0407 49.6191 33.0407C49.6742 33.0407 49.7228 32.034 49.7228 30.7938C49.7228 29.554 49.6903 28.547 49.6191 28.547Z" fill="#263238"/>
<path d="M47.4397 28.5469C47.3812 28.5469 47.3359 29.5503 47.3359 30.7937C47.3359 32.0368 47.3812 33.0405 47.4397 33.0405C47.4978 33.0405 47.5431 32.0338 47.5431 30.7937C47.5431 29.5539 47.4978 28.5469 47.4397 28.5469Z" fill="#263238"/>
<path d="M45.2597 28.547C45.2016 28.547 45.1562 29.5504 45.1562 30.7938C45.1562 32.0369 45.2016 33.0407 45.2597 33.0407C45.3178 33.0407 45.3631 32.034 45.3631 30.7938C45.3631 29.554 45.3178 28.547 45.2597 28.547Z" fill="#263238"/>
<path d="M43.0803 28.547C43.0222 28.547 42.9766 29.5504 42.9766 30.7938C42.9766 32.0369 43.0219 33.0407 43.0803 33.0407C43.1388 33.0407 43.1841 32.034 43.1841 30.7938C43.1841 29.554 43.1384 28.547 43.0803 28.547Z" fill="#263238"/>
<path d="M40.9003 28.5469C40.8422 28.5469 40.7969 29.5503 40.7969 30.7937C40.7969 32.0368 40.8422 33.0405 40.9003 33.0405C40.9587 33.0405 41.0041 32.0338 41.0041 30.7937C41.0041 29.5539 40.9456 28.5469 40.9003 28.5469Z" fill="#263238"/>
<path d="M38.7284 28.5469C38.6703 28.5469 38.625 29.5503 38.625 30.7937C38.625 32.0368 38.6703 33.0405 38.7284 33.0405C38.7865 33.0405 38.8322 32.0338 38.8322 30.7937C38.8322 29.5539 38.7869 28.5469 38.7284 28.5469Z" fill="#263238"/>
<path d="M36.5487 28.547C36.4906 28.547 36.4453 29.5504 36.4453 30.7938C36.4453 32.0369 36.4906 33.0407 36.5487 33.0407C36.6069 33.0407 36.6525 32.034 36.6525 30.7938C36.6522 29.554 36.6069 28.547 36.5487 28.547Z" fill="#263238"/>
<g opacity="0.3">
<path d="M59.5395 28.4725C51.8816 29.7869 44.056 29.7869 36.3984 28.4725H59.5395Z" fill="black"/>
</g>
<path d="M36.0078 28.4823C36.0078 28.5404 41.3496 28.5857 47.941 28.5857C54.5324 28.5857 59.8709 28.5404 59.8709 28.4823C59.8709 28.4242 54.5452 28.3818 47.941 28.3818C41.3368 28.3822 36.0078 28.4242 36.0078 28.4823Z" fill="#263238"/>
<path d="M61.4598 33.1051H37.5547V37.7413H61.4598V33.1051Z" fill="url(#paint13_linear_2005_123197)"/>
<path d="M59.9202 33.183C59.865 33.183 59.8164 34.1897 59.8164 35.4331C59.8164 36.6762 59.865 37.6799 59.9202 37.6799C59.975 37.6799 60.0269 36.6732 60.0269 35.4331C60.0269 34.193 59.9783 33.183 59.9202 33.183Z" fill="#263238"/>
<path d="M57.7053 33.183C57.6472 33.183 57.6016 34.1897 57.6016 35.4331C57.6016 36.6762 57.6469 37.6799 57.7053 37.6799C57.7638 37.6799 57.8091 36.6732 57.8091 35.4331C57.8091 34.193 57.7602 33.183 57.7053 33.183Z" fill="#263238"/>
<path d="M55.5178 33.183C55.4597 33.183 55.4141 34.1897 55.4141 35.4331C55.4141 36.6762 55.4594 37.6799 55.5178 37.6799C55.5763 37.6799 55.6216 36.6732 55.6216 35.4331C55.6216 34.193 55.573 33.183 55.5178 33.183Z" fill="#263238"/>
<path d="M53.3342 33.183C53.2761 33.183 53.2305 34.1897 53.2305 35.4331C53.2305 36.6762 53.2758 37.6799 53.3342 37.6799C53.3927 37.6799 53.438 36.6732 53.438 35.4331C53.438 34.193 53.3923 33.183 53.3342 33.183Z" fill="#263238"/>
<path d="M51.1581 33.183C51.1 33.183 51.0547 34.1897 51.0547 35.4331C51.0547 36.6762 51.1 37.6799 51.1581 37.6799C51.2166 37.6799 51.2619 36.6732 51.2619 35.4331C51.2619 34.193 51.2162 33.183 51.1581 33.183Z" fill="#263238"/>
<path d="M48.9788 33.183C48.9203 33.183 48.875 34.1897 48.875 35.4331C48.875 36.6762 48.9203 37.6799 48.9788 37.6799C49.0369 37.6799 49.0825 36.6732 49.0825 35.4331C49.0825 34.193 49.0434 33.183 48.9788 33.183Z" fill="#263238"/>
<path d="M46.7987 33.183C46.7406 33.183 46.6953 34.1897 46.6953 35.4331C46.6953 36.6762 46.7406 37.6799 46.7987 37.6799C46.8569 37.6799 46.9025 36.6732 46.9025 35.4331C46.9025 34.193 46.8572 33.183 46.7987 33.183Z" fill="#263238"/>
<path d="M44.6233 33.183C44.5648 33.183 44.5195 34.1897 44.5195 35.4331C44.5195 36.6762 44.5648 37.6799 44.6233 37.6799C44.6814 37.6799 44.7267 36.6732 44.7267 35.4331C44.7267 34.193 44.6814 33.183 44.6233 33.183Z" fill="#263238"/>
<path d="M42.4394 33.183C42.3812 33.183 42.3359 34.1897 42.3359 35.4331C42.3359 36.6762 42.3812 37.6799 42.4394 37.6799C42.4978 37.6799 42.5431 36.6732 42.5431 35.4331C42.5431 34.193 42.4975 33.183 42.4394 33.183Z" fill="#263238"/>
<path d="M40.26 33.183C40.2016 33.183 40.1562 34.1897 40.1562 35.4331C40.1562 36.6762 40.2016 37.6799 40.26 37.6799C40.3185 37.6799 40.3638 36.6732 40.3638 35.4331C40.3638 34.193 40.3185 33.183 40.26 33.183Z" fill="#263238"/>
<path d="M38.0839 33.183C38.0258 33.183 37.9805 34.1897 37.9805 35.4331C37.9805 36.6762 38.0258 37.6799 38.0839 37.6799C38.142 37.6799 38.1877 36.6732 38.1877 35.4331C38.1877 34.193 38.1391 33.183 38.0839 33.183Z" fill="#263238"/>
<g opacity="0.3">
<path d="M61.0753 33.1117C53.4345 34.5994 45.5783 34.5994 37.9375 33.1117H61.0753Z" fill="black"/>
</g>
<path d="M37.5469 33.1216C37.5469 33.18 42.8886 33.2253 49.4768 33.2253C56.0649 33.2253 61.4099 33.18 61.4099 33.1216C61.4099 33.0635 56.0682 33.0178 49.4768 33.0178C42.8857 33.0178 37.5469 33.0631 37.5469 33.1216Z" fill="#263238"/>
<path d="M60.0926 37.6796H36.1875V42.3157H60.0926V37.6796Z" fill="url(#paint14_linear_2005_123197)"/>
<path d="M58.5566 37.7704C58.4984 37.7704 58.4531 38.7771 58.4531 40.0172C58.4531 41.257 58.4984 42.2834 58.5566 42.2834C58.615 42.2834 58.6603 41.2767 58.6603 40.0172C58.66 38.7577 58.6114 37.7704 58.5566 37.7704Z" fill="#263238"/>
<path d="M56.342 37.7708C56.2839 37.7708 56.2383 38.7774 56.2383 40.0176C56.2383 41.2574 56.2836 42.2838 56.342 42.2838C56.4002 42.2838 56.4458 41.2771 56.4458 40.0176C56.4455 38.7581 56.4002 37.7708 56.342 37.7708Z" fill="#263238"/>
<path d="M54.1506 37.7704C54.0955 37.7704 54.0469 38.7771 54.0469 40.0172C54.0469 41.257 54.0955 42.2834 54.1506 42.2834C54.2058 42.2834 54.2541 41.2767 54.2541 40.0172C54.2541 38.7577 54.2248 37.7704 54.1506 37.7704Z" fill="#263238"/>
<path d="M51.9553 37.7708C51.8969 37.7708 51.8516 38.7774 51.8516 40.0176C51.8516 41.2574 51.8969 42.2838 51.9553 42.2838C52.0134 42.2838 52.0587 41.2771 52.0587 40.0176C52.0591 38.7581 52.0266 37.7708 51.9553 37.7708Z" fill="#263238"/>
<path d="M49.7913 37.7708C49.7328 37.7708 49.6875 38.7774 49.6875 40.0176C49.6875 41.2574 49.7328 42.2838 49.7913 42.2838C49.8494 42.2838 49.895 41.2771 49.895 40.0176C49.895 38.7581 49.8494 37.7708 49.7913 37.7708Z" fill="#263238"/>
<path d="M47.6116 37.7708C47.5535 37.7708 47.5078 38.7774 47.5078 40.0176C47.5078 41.2574 47.5531 42.2838 47.6116 42.2838C47.6697 42.2838 47.7153 41.2771 47.7153 40.0176C47.7153 38.7581 47.67 37.7708 47.6116 37.7708Z" fill="#263238"/>
<path d="M45.4316 37.7705C45.3734 37.7705 45.3281 38.7772 45.3281 40.0173C45.3281 41.2571 45.3734 42.2835 45.4316 42.2835C45.49 42.2835 45.5353 41.2768 45.5353 40.0173C45.5353 38.7578 45.4801 37.7705 45.4316 37.7705Z" fill="#263238"/>
<path d="M43.2522 37.7708C43.1938 37.7708 43.1484 38.7774 43.1484 40.0176C43.1484 41.2574 43.1938 42.2838 43.2522 42.2838C43.3103 42.2838 43.3556 41.2771 43.3556 40.0176C43.3556 38.7581 43.3103 37.7708 43.2522 37.7708Z" fill="#263238"/>
<path d="M41.08 37.7708C41.0219 37.7708 40.9766 38.7774 40.9766 40.0176C40.9766 41.2574 41.0219 42.2838 41.08 42.2838C41.1381 42.2838 41.1834 41.2771 41.1834 40.0176C41.1834 38.7581 41.1381 37.7708 41.08 37.7708Z" fill="#263238"/>
<path d="M38.9006 37.7704C38.8425 37.7704 38.7969 38.7771 38.7969 40.0172C38.7969 41.257 38.8422 42.2834 38.9006 42.2834C38.9587 42.2834 39.0044 41.2767 39.0044 40.0172C39.0044 38.7577 38.9591 37.7704 38.9006 37.7704Z" fill="#263238"/>
<path d="M36.7206 37.7708C36.6625 37.7708 36.6172 38.7774 36.6172 40.0176C36.6172 41.2574 36.6625 42.2838 36.7206 42.2838C36.7787 42.2838 36.824 41.2771 36.824 40.0176C36.8244 38.7581 36.7791 37.7708 36.7206 37.7708Z" fill="#263238"/>
<g opacity="0.3">
<path d="M59.727 37.6863C52.0691 39.0006 44.2435 39.0006 36.5859 37.6863H59.727Z" fill="black"/>
</g>
<path d="M36.1797 37.696C36.1797 37.7511 41.5214 37.7997 48.1129 37.7997C54.7043 37.7997 60.0427 37.7511 60.0427 37.696C60.0427 37.6408 54.701 37.5925 48.1129 37.5925C41.5247 37.5922 36.1797 37.6375 36.1797 37.696Z" fill="#263238"/>
<path d="M60.0911 42.3032C60.0911 42.3032 60.0911 42.2773 60.0911 42.2254C60.0911 42.1735 60.0911 42.0862 60.0911 41.9923C60.0911 41.7752 60.0911 41.4741 60.0911 41.089C60.0911 40.2924 60.075 39.1465 60.0651 37.7317V37.6798H60.117H61.4346L61.3795 37.7383C61.3795 36.3819 61.3795 34.8246 61.3795 33.0992L61.4507 33.1704H59.832V33.0959C59.832 31.6617 59.832 30.1077 59.832 28.4955V28.4177H62.7103L62.6324 28.4955C62.6324 26.7796 62.6324 25.1317 62.6324 23.5842L62.7037 23.6588H60.3662V23.5875C60.3662 21.9107 60.3662 20.3954 60.3662 19.0939V19.0357H61.0137L60.9619 19.0909C60.9619 17.5953 60.9619 16.3972 60.9619 15.5622C60.9619 15.1574 60.9619 14.8402 60.9619 14.6137C60.9619 14.5102 60.9619 14.4324 60.9619 14.3678C60.9592 14.3398 60.9592 14.3116 60.9619 14.2837C60.9658 14.3116 60.9658 14.3398 60.9619 14.3678C60.9619 14.4291 60.9619 14.5102 60.9619 14.6137C60.9619 14.8402 60.9619 15.1544 60.9845 15.559C60.9845 16.3975 61.0203 17.5953 61.0462 19.0876V19.1428H60.3987L60.4539 19.0876C60.4539 20.3826 60.4539 21.9041 60.47 23.5813L60.3987 23.5133H62.6649H62.7395V23.5878C62.7395 25.1353 62.7395 26.7832 62.7395 28.4991V28.577H59.8583L59.9391 28.4991C59.9391 30.1179 59.9391 31.6653 59.9391 33.0995L59.8645 33.025H61.4832V33.0962C61.4832 34.8121 61.4832 36.379 61.4832 37.7353V37.7938H60.1072L60.1591 37.7419C60.1591 39.163 60.143 40.3026 60.1364 41.0992C60.1364 41.4843 60.1364 41.7854 60.1364 42.0024C60.1364 42.0963 60.1364 42.1742 60.1364 42.2356C60.1252 42.2602 60.1101 42.2832 60.0911 42.3032Z" fill="#263238"/>
<defs>
<linearGradient id="paint0_linear_2005_123197" x1="13.3275" y1="33.2284" x2="14.0274" y2="38.6354" gradientUnits="userSpaceOnUse">
<stop stop-color="#FFD700"/>
<stop offset="1" stop-color="#E68D35"/>
</linearGradient>
<linearGradient id="paint1_linear_2005_123197" x1="11.9643" y1="37.8029" x2="12.6641" y2="43.2098" gradientUnits="userSpaceOnUse">
<stop stop-color="#FFD700"/>
<stop offset="1" stop-color="#E68D35"/>
</linearGradient>
<linearGradient id="paint2_linear_2005_123197" x1="31.8002" y1="23.8041" x2="32.5559" y2="29.4191" gradientUnits="userSpaceOnUse">
<stop stop-color="#FFD700"/>
<stop offset="1" stop-color="#E68D35"/>
</linearGradient>
<linearGradient id="paint3_linear_2005_123197" x1="28.9994" y1="28.589" x2="29.6993" y2="33.9963" gradientUnits="userSpaceOnUse">
<stop stop-color="#FFD700"/>
<stop offset="1" stop-color="#E68D35"/>
</linearGradient>
<linearGradient id="paint4_linear_2005_123197" x1="30.5307" y1="33.2281" x2="31.2305" y2="38.6351" gradientUnits="userSpaceOnUse">
<stop stop-color="#FFD700"/>
<stop offset="1" stop-color="#E68D35"/>
</linearGradient>
<linearGradient id="paint5_linear_2005_123197" x1="29.1635" y1="37.8027" x2="29.8633" y2="43.2097" gradientUnits="userSpaceOnUse">
<stop stop-color="#FFD700"/>
<stop offset="1" stop-color="#E68D35"/>
</linearGradient>
<linearGradient id="paint6_linear_2005_123197" x1="49.5327" y1="9.53137" x2="50.2629" y2="14.9563" gradientUnits="userSpaceOnUse">
<stop stop-color="#FFD700"/>
<stop offset="1" stop-color="#E68D35"/>
</linearGradient>
<linearGradient id="paint7_linear_2005_123197" x1="49.0385" y1="14.2766" x2="49.7942" y2="19.8917" gradientUnits="userSpaceOnUse">
<stop stop-color="#FFD700"/>
<stop offset="1" stop-color="#E68D35"/>
</linearGradient>
<linearGradient id="paint8_linear_2005_123197" x1="48.6655" y1="-1.00169e-07" x2="49.3957" y2="5.42498" gradientUnits="userSpaceOnUse">
<stop stop-color="#FFD700"/>
<stop offset="1" stop-color="#E68D35"/>
</linearGradient>
<linearGradient id="paint9_linear_2005_123197" x1="48.1635" y1="4.74536" x2="48.9192" y2="10.3604" gradientUnits="userSpaceOnUse">
<stop stop-color="#FFD700"/>
<stop offset="1" stop-color="#E68D35"/>
</linearGradient>
<linearGradient id="paint10_linear_2005_123197" x1="48.4994" y1="19.0161" x2="49.2552" y2="24.6312" gradientUnits="userSpaceOnUse">
<stop stop-color="#FFD700"/>
<stop offset="1" stop-color="#E68D35"/>
</linearGradient>
<linearGradient id="paint11_linear_2005_123197" x1="50.7729" y1="23.681" x2="51.5286" y2="29.2961" gradientUnits="userSpaceOnUse">
<stop stop-color="#FFD700"/>
<stop offset="1" stop-color="#E68D35"/>
</linearGradient>
<linearGradient id="paint12_linear_2005_123197" x1="47.9721" y1="28.4662" x2="48.672" y2="33.8735" gradientUnits="userSpaceOnUse">
<stop stop-color="#FFD700"/>
<stop offset="1" stop-color="#E68D35"/>
</linearGradient>
<linearGradient id="paint13_linear_2005_123197" x1="49.5072" y1="33.1051" x2="50.2072" y2="38.5124" gradientUnits="userSpaceOnUse">
<stop stop-color="#FFD700"/>
<stop offset="1" stop-color="#E68D35"/>
</linearGradient>
<linearGradient id="paint14_linear_2005_123197" x1="48.14" y1="37.6796" x2="48.84" y2="43.0869" gradientUnits="userSpaceOnUse">
<stop stop-color="#FFD700"/>
<stop offset="1" stop-color="#E68D35"/>
</linearGradient>
</defs>
</svg>
