<svg viewBox="0 0 40 40" fill="none" xmlns="http://www.w3.org/2000/svg">
<g clip-path="url(#clip0_1232_49030)">
<rect width="40" height="40" rx="20" fill="white"/>
<g clip-path="url(#clip1_1232_49030)">
<path d="M19.5669 16.7628L18.2594 15.4995C17.3469 16.3871 16.8311 17.5112 16.7524 18.639C16.7134 19.2049 16.7854 19.7733 16.9785 20.3098C17.1708 20.8453 17.4868 21.3485 17.9227 21.7691L20.0164 23.7924L21.4675 25.1948L23.0206 26.6957C23.4558 27.117 23.9761 27.422 24.5305 27.6082C25.3635 27.8883 26.2681 27.9046 27.1329 27.6897C27.9981 27.4749 28.828 27.0268 29.5178 26.3606C30.437 25.4715 30.9554 24.343 31.0341 23.2113C31.0731 22.6454 31.0011 22.0774 30.8085 21.5405C30.6161 21.005 30.2998 20.5022 29.8642 20.0816L24.7667 15.1554C24.3307 14.734 23.8112 14.4279 23.2567 14.2421C22.4238 13.9628 21.5189 13.9457 20.654 14.1598C20.3635 14.2323 20.076 14.3337 19.7971 14.458L21.2482 15.8604C21.3832 15.8332 21.5185 15.8147 21.6516 15.8064C22.0047 15.7835 22.3436 15.827 22.6491 15.9295C22.9538 16.0328 23.2256 16.1929 23.4595 16.4179L28.557 21.3448C28.7902 21.5705 28.9566 21.8328 29.0631 22.1281C29.2224 22.5693 29.2423 23.0881 29.1024 23.6109C28.9637 24.1336 28.6676 24.6553 28.2106 25.0969C27.6011 25.686 26.8431 25.9983 26.1361 26.0432C25.7822 26.066 25.443 26.0233 25.1386 25.9208C24.8331 25.8175 24.5613 25.6574 24.3274 25.4324L23.0037 24.1532L21.6965 22.89L19.2299 20.5055C18.9967 20.2801 18.831 20.0175 18.7246 19.7222C18.5645 19.281 18.5454 18.7629 18.6845 18.2394C18.8221 17.7206 19.1152 17.2026 19.5673 16.7631L19.5669 16.7628Z" fill="currentColor" stroke="white" stroke-width="0.78"/>
<path d="M21.6969 22.8887L23.004 24.1519C23.9172 23.2643 24.4326 22.1402 24.5117 21.0124C24.5507 20.4466 24.4788 19.8782 24.2861 19.3416C24.0938 18.8062 23.7778 18.303 23.3414 17.8827L21.2481 15.8591L19.797 14.4567L18.2439 12.9558C17.808 12.5345 17.2877 12.2291 16.734 12.0432C15.901 11.7632 14.9957 11.7469 14.1309 11.9617C13.2665 12.1762 12.4357 12.6247 11.746 13.2905C10.8268 14.1803 10.3084 15.308 10.2293 16.4405C10.1895 17.006 10.2619 17.5748 10.4546 18.1106C10.6472 18.6464 10.9636 19.1493 11.3996 19.5699L16.4978 24.4968C16.933 24.9174 17.4534 25.2232 18.0078 25.409C18.8407 25.6887 19.7453 25.7054 20.6101 25.4913C20.901 25.4188 21.1878 25.3181 21.4671 25.1938L20.016 23.7915C19.8806 23.8186 19.7457 23.8364 19.6126 23.8451C19.2591 23.8679 18.9198 23.8251 18.6151 23.7226C18.3103 23.6194 18.0381 23.4585 17.805 23.2343L12.7068 18.3066C12.4736 18.0809 12.3072 17.8186 12.2007 17.5234C12.0414 17.0817 12.0215 16.5633 12.1606 16.0402C12.3 15.5182 12.5958 14.9965 13.0539 14.5545C13.6627 13.9651 14.4207 13.6528 15.1284 13.6075C15.4823 13.5847 15.8208 13.6282 16.1256 13.7307C16.4311 13.8339 16.7025 13.9948 16.9368 14.219L18.2601 15.4982L19.5676 16.7615L22.0342 19.146C22.2674 19.3713 22.4331 19.634 22.5399 19.9292C22.6993 20.3705 22.7191 20.8885 22.58 21.412C22.4417 21.9308 22.1489 22.4485 21.6969 22.8883L21.6969 22.8887Z" fill="currentColor" stroke="white" stroke-width="0.78"/>
</g>
</g>
<defs>
<clipPath id="clip0_1232_49030">
<rect width="40" height="40" rx="20" fill="white"/>
</clipPath>
<clipPath id="clip1_1232_49030">
<rect width="20.8258" height="16.0198" fill="white" transform="translate(10.2188 11.8159)"/>
</clipPath>
</defs>
</svg>
