<svg width="28" height="28" viewBox="0 0 28 28" fill="none" xmlns="http://www.w3.org/2000/svg">
<g clip-path="url(#clip0_736_10626)">
<path d="M27.6156 21.1645C27.7304 21.0336 27.7887 20.8626 27.7775 20.6888C27.7663 20.5151 27.6867 20.3529 27.5561 20.2378L26.7161 19.5002V16.2548C26.7158 15.736 26.522 15.236 26.1727 14.8525C25.8233 14.4689 25.3435 14.2295 24.8269 14.1809C24.3104 14.1323 23.7944 14.2782 23.3796 14.5898C22.9649 14.9015 22.6813 15.3567 22.5843 15.8663L21.8659 15.2346C21.4624 14.8819 20.9446 14.6875 20.4086 14.6875C19.8727 14.6875 19.3549 14.8819 18.9513 15.2346L13.2638 20.2378C13.1379 20.3509 13.0607 20.5085 13.0486 20.6774C13.0364 20.8462 13.0903 21.0132 13.1988 21.1431C13.3073 21.2731 13.462 21.3559 13.6303 21.374C13.7986 21.3922 13.9674 21.3444 14.1012 21.2406V25.9C14.1019 26.3987 14.3003 26.8768 14.653 27.2294C15.0056 27.5821 15.4837 27.7805 15.9824 27.7812H24.8366C25.0836 27.7812 25.3282 27.7325 25.5564 27.638C25.7846 27.5434 25.9919 27.4049 26.1665 27.2302C26.3411 27.0555 26.4796 26.8481 26.5741 26.6198C26.6685 26.3916 26.7171 26.147 26.7169 25.9V21.2397C26.8473 21.3465 27.014 21.3984 27.1819 21.3843C27.3498 21.3703 27.5048 21.2914 27.6156 21.1645ZM23.8531 16.2548C23.8496 16.1511 23.867 16.0478 23.9043 15.9509C23.9416 15.8541 23.9979 15.7658 24.0701 15.6912C24.1422 15.6166 24.2286 15.5572 24.3241 15.5167C24.4197 15.4762 24.5224 15.4553 24.6261 15.4553C24.7299 15.4553 24.8326 15.4762 24.9281 15.5167C25.0237 15.5572 25.1101 15.6166 25.1822 15.6912C25.2543 15.7658 25.3107 15.8541 25.348 15.9509C25.3853 16.0478 25.4027 16.1511 25.3992 16.2548V18.3452L23.8531 16.9863V16.2548ZM21.5606 26.467H19.3731V24.9375C19.3733 24.6799 19.4757 24.433 19.6578 24.2509C19.8399 24.0688 20.0868 23.9664 20.3443 23.9662H20.5937C20.8512 23.9664 21.0981 24.0688 21.2802 24.2509C21.4623 24.433 21.5647 24.6799 21.5649 24.9375L21.5606 26.467ZM25.2356 26.2998C25.1831 26.353 25.1206 26.3952 25.0516 26.4239C24.9826 26.4526 24.9086 26.4672 24.8339 26.467H22.8731V24.9375C22.8724 24.332 22.6315 23.7515 22.2034 23.3234C21.7753 22.8952 21.1948 22.6544 20.5893 22.6537H20.3399C19.7345 22.6544 19.154 22.8952 18.7259 23.3234C18.2977 23.7515 18.0569 24.332 18.0562 24.9375V26.4652H15.9798C15.829 26.465 15.6845 26.405 15.5779 26.2984C15.4713 26.1918 15.4113 26.0472 15.4111 25.8965V20.0952L19.8176 16.2207C19.9812 16.0776 20.1912 15.9987 20.4086 15.9987C20.626 15.9987 20.8361 16.0776 20.9997 16.2207L25.4036 20.0935V25.9C25.4037 25.9742 25.3892 26.0478 25.3608 26.1164C25.3324 26.185 25.2908 26.2474 25.2382 26.2998H25.2356Z" fill="#154E8D"/>
<path d="M20.4112 17.5875C20.0272 17.5874 19.6516 17.7011 19.3322 17.9144C19.0128 18.1277 18.7638 18.4309 18.6167 18.7857C18.4697 19.1405 18.4311 19.531 18.506 19.9077C18.5809 20.2844 18.7658 20.6305 19.0374 20.9021C19.309 21.1737 19.6551 21.3586 20.0318 21.4335C20.4085 21.5084 20.799 21.4699 21.1538 21.3228C21.5086 21.1757 21.8119 20.9267 22.0251 20.6073C22.2384 20.2879 22.3522 19.9124 22.352 19.5283C22.3513 19.0138 22.1466 18.5205 21.7828 18.1567C21.419 17.7929 20.9258 17.5882 20.4112 17.5875ZM20.4112 20.1574C20.2868 20.1576 20.1651 20.1208 20.0615 20.0518C19.9579 19.9828 19.8771 19.8846 19.8294 19.7696C19.7816 19.6547 19.7691 19.5282 19.7932 19.4061C19.8174 19.284 19.8773 19.1718 19.9652 19.0837C20.0532 18.9957 20.1653 18.9356 20.2873 18.9113C20.4094 18.887 20.5359 18.8994 20.6509 18.947C20.7659 18.9945 20.8642 19.0752 20.9334 19.1787C21.0026 19.2821 21.0395 19.4038 21.0395 19.5283C21.0388 19.6946 20.9724 19.8539 20.8547 19.9714C20.737 20.089 20.5776 20.1552 20.4112 20.1556V20.1574Z" fill="#154E8D"/>
<path d="M3.30575 27.7777H11.3601C11.5342 27.7777 11.7011 27.7086 11.8242 27.5855C11.9472 27.4624 12.0164 27.2955 12.0164 27.1215C12.0164 26.9474 11.9472 26.7805 11.8242 26.6574C11.7011 26.5343 11.5342 26.4652 11.3601 26.4652H3.30575C2.83658 26.4659 2.38628 26.2805 2.05362 25.9496C1.72096 25.6188 1.5331 25.1695 1.53125 24.7003V5.98146C1.53426 5.51353 1.72279 5.0659 2.05548 4.73683C2.38816 4.40775 2.83781 4.22411 3.30575 4.22621H6.18538V5.08983C6.18538 5.26388 6.25452 5.4308 6.37759 5.55387C6.50066 5.67694 6.66758 5.74608 6.84163 5.74608H15.0028C15.1768 5.74608 15.3437 5.67694 15.4668 5.55387C15.5899 5.4308 15.659 5.26388 15.659 5.08983V4.22621H18.5386C19.0066 4.22388 19.4564 4.40745 19.7892 4.73657C20.1219 5.0657 20.3103 5.51346 20.3131 5.98146V11.9752C20.3131 12.1493 20.3823 12.3162 20.5053 12.4392C20.6284 12.5623 20.7953 12.6315 20.9694 12.6315C21.1434 12.6315 21.3103 12.5623 21.4334 12.4392C21.5565 12.3162 21.6256 12.1493 21.6256 11.9752V5.98146C21.6224 5.1655 21.2955 4.38418 20.7167 3.80901C20.1379 3.23385 19.3546 2.91185 18.5386 2.91371H15.6511C15.6327 2.19418 15.3343 1.51023 14.8194 1.00728C14.3045 0.504324 13.6138 0.222045 12.894 0.220459H8.95037C8.23053 0.222039 7.53967 0.504289 7.02465 1.00722C6.50963 1.51015 6.21105 2.1941 6.19238 2.91371H3.30575C2.48986 2.91208 1.70664 3.23415 1.12791 3.80927C0.549189 4.38438 0.222224 5.16557 0.21875 5.98146V24.7003C0.221067 25.5175 0.547354 26.3003 1.12605 26.8772C1.70475 27.4541 2.48862 27.7779 3.30575 27.7777ZM7.49788 2.98633C7.49834 2.60117 7.65149 2.2319 7.92376 1.95946C8.19603 1.68703 8.56521 1.53365 8.95037 1.53296H12.894C13.2795 1.53296 13.6493 1.68605 13.922 1.95859C14.1947 2.23113 14.348 2.60079 14.3482 2.98633V4.43358H7.49788V2.98633Z" fill="#154E8D"/>
<path d="M17.3556 10.2086C17.3556 10.0346 17.2864 9.86765 17.1634 9.74458C17.0403 9.62151 16.8734 9.55237 16.6993 9.55237H5.14844C4.97439 9.55237 4.80747 9.62151 4.6844 9.74458C4.56133 9.86765 4.49219 10.0346 4.49219 10.2086C4.49219 10.3827 4.56133 10.5496 4.6844 10.6727C4.80747 10.7957 4.97439 10.8649 5.14844 10.8649H16.6984C16.7847 10.865 16.8701 10.8481 16.9498 10.8152C17.0296 10.7822 17.102 10.7339 17.163 10.673C17.2241 10.612 17.2725 10.5396 17.3055 10.46C17.3386 10.3803 17.3556 10.2949 17.3556 10.2086Z" fill="#154E8D"/>
<path d="M6.97656 14.4673H14.8761C15.0501 14.4673 15.217 14.3981 15.3401 14.2751C15.4632 14.152 15.5323 13.9851 15.5323 13.811C15.5323 13.637 15.4632 13.4701 15.3401 13.347C15.217 13.2239 15.0501 13.1548 14.8761 13.1548H6.97656C6.80251 13.1548 6.63559 13.2239 6.51252 13.347C6.38945 13.4701 6.32031 13.637 6.32031 13.811C6.32031 13.9851 6.38945 14.152 6.51252 14.2751C6.63559 14.3981 6.80251 14.4673 6.97656 14.4673Z" fill="#154E8D"/>
</g>
<defs>
<clipPath id="clip0_736_10626">
<rect width="28" height="28" fill="white"/>
</clipPath>
</defs>
</svg>
