<svg width="14" height="14" viewBox="0 0 14 14" fill="none" xmlns="http://www.w3.org/2000/svg">
<path d="M6.9974 3.57292C7.56119 3.57292 8.01823 3.11587 8.01823 2.55208C8.01823 1.98829 7.56119 1.53125 6.9974 1.53125C6.43361 1.53125 5.97656 1.98829 5.97656 2.55208C5.97656 3.11587 6.43361 3.57292 6.9974 3.57292Z" fill="url(#paint0_linear_2348_74501)"/>
<path d="M12.2474 5.32292C12.8112 5.32292 13.2682 4.86587 13.2682 4.30208C13.2682 3.73829 12.8112 3.28125 12.2474 3.28125C11.6836 3.28125 11.2266 3.73829 11.2266 4.30208C11.2266 4.86587 11.6836 5.32292 12.2474 5.32292Z" fill="url(#paint1_linear_2348_74501)"/>
<path d="M1.7474 5.32292C2.31119 5.32292 2.76823 4.86587 2.76823 4.30208C2.76823 3.73829 2.31119 3.28125 1.7474 3.28125C1.18361 3.28125 0.726562 3.73829 0.726562 4.30208C0.726562 4.86587 1.18361 5.32292 1.7474 5.32292Z" fill="url(#paint2_linear_2348_74501)"/>
<path fill-rule="evenodd" clip-rule="evenodd" d="M12.3843 4.97113C12.4217 4.78563 12.3353 4.59779 12.1714 4.50446C12.0069 4.41171 11.801 4.43446 11.661 4.56163C11.661 4.56163 11.0508 5.11638 10.3625 5.74229C10.0405 6.03513 9.59426 6.14888 9.17135 6.04679C8.74843 5.94471 8.40368 5.63963 8.25085 5.23188L7.40676 2.98196C7.3426 2.81104 7.17985 2.69788 6.99726 2.69788C6.81468 2.69788 6.65193 2.81104 6.58776 2.98196L5.74368 5.23188C5.59085 5.63963 5.2461 5.94471 4.82318 6.04679C4.40026 6.14888 3.95401 6.03513 3.63201 5.74229C2.94368 5.11638 2.33351 4.56163 2.33351 4.56163C2.19351 4.43446 1.9876 4.41171 1.8231 4.50446C1.65918 4.59779 1.57285 4.78563 1.61018 4.97113C1.61018 4.97113 2.25943 8.21738 2.58901 9.86646C2.73893 10.6166 3.39751 11.1562 4.16226 11.1562H9.83226C10.597 11.1562 11.2556 10.6166 11.4055 9.86646C11.7351 8.21738 12.3843 4.97113 12.3843 4.97113Z" fill="url(#paint3_linear_2348_74501)"/>
<path fill-rule="evenodd" clip-rule="evenodd" d="M10.5 12.0312H3.5C3.2585 12.0312 3.0625 12.2272 3.0625 12.4688C3.0625 12.7102 3.2585 12.9062 3.5 12.9062H10.5C10.7415 12.9062 10.9375 12.7102 10.9375 12.4688C10.9375 12.2272 10.7415 12.0312 10.5 12.0312Z" fill="url(#paint4_linear_2348_74501)"/>
<defs>
<linearGradient id="paint0_linear_2348_74501" x1="6.9974" y1="1.53125" x2="8.11535" y2="3.20627" gradientUnits="userSpaceOnUse">
<stop stop-color="#FFD700"/>
<stop offset="1" stop-color="#E68D35"/>
</linearGradient>
<linearGradient id="paint1_linear_2348_74501" x1="12.2474" y1="3.28125" x2="13.3654" y2="4.95627" gradientUnits="userSpaceOnUse">
<stop stop-color="#FFD700"/>
<stop offset="1" stop-color="#E68D35"/>
</linearGradient>
<linearGradient id="paint2_linear_2348_74501" x1="1.7474" y1="3.28125" x2="2.86535" y2="4.95627" gradientUnits="userSpaceOnUse">
<stop stop-color="#FFD700"/>
<stop offset="1" stop-color="#E68D35"/>
</linearGradient>
<linearGradient id="paint3_linear_2348_74501" x1="6.99726" y1="2.69788" x2="11.1171" y2="10.5732" gradientUnits="userSpaceOnUse">
<stop stop-color="#FFD700"/>
<stop offset="1" stop-color="#E68D35"/>
</linearGradient>
<linearGradient id="paint4_linear_2348_74501" x1="7" y1="12.0312" x2="7.07653" y2="13.0632" gradientUnits="userSpaceOnUse">
<stop stop-color="#FFD700"/>
<stop offset="1" stop-color="#E68D35"/>
</linearGradient>
</defs>
</svg>
