<svg width="21" height="20" viewBox="0 0 21 20" fill="none" xmlns="http://www.w3.org/2000/svg">
<path d="M11.5 3.03436C11.8074 3.03436 12.0566 2.78513 12.0566 2.47772V0.639282C12.0566 0.331868 11.8074 0.0826416 11.5 0.0826416C11.1926 0.0826416 10.9434 0.331868 10.9434 0.639282V2.47772C10.9434 2.78513 11.1926 3.03436 11.5 3.03436Z" fill="#440D0B"/>
<path d="M14.0977 3.97912C14.2401 3.97912 14.3826 3.92475 14.4913 3.81606L15.9756 2.33168C16.193 2.11433 16.193 1.76187 15.9756 1.54448C15.7583 1.32713 15.4058 1.32713 15.1884 1.54448L13.7041 3.02886C13.4867 3.24621 13.4867 3.59867 13.7041 3.81606C13.8127 3.92475 13.9552 3.97912 14.0977 3.97912Z" fill="#440D0B"/>
<path d="M8.50878 3.81606C8.61747 3.92475 8.75994 3.97912 8.90236 3.97912C9.04479 3.97912 9.18729 3.92475 9.29594 3.81606C9.51333 3.59871 9.51333 3.24624 9.29594 3.02886L7.81157 1.54448C7.59422 1.32713 7.24175 1.32713 7.02437 1.54448C6.80698 1.76183 6.80698 2.1143 7.02437 2.33168L8.50878 3.81606Z" fill="#440D0B"/>
<path d="M16.4997 7.95003L14.3389 5.78918C13.9214 5.37159 13.355 5.13702 12.7645 5.13702H9.38458C8.54201 5.13702 7.74991 5.46514 7.15416 6.0609L6.97626 6.23876L6.96475 6.25027H2.55664C2.24923 6.25027 2 6.49949 2 6.80691V12.7444C2 13.0518 2.24923 13.3011 2.55664 13.3011H5.33194L6.65329 14.6224C6.75768 14.7268 6.89925 14.7854 7.04688 14.7854H7.5509C7.36435 14.4967 7.24426 14.1741 7.19724 13.8365C6.7811 13.7011 6.40663 13.4512 6.11821 13.1074C5.27976 12.1081 5.41057 10.613 6.40982 9.77451L8.5255 7.99927H12.7498C12.8974 7.99927 13.039 8.0579 13.1434 8.16233L14.6976 9.71651C15.1968 10.2157 16.0244 10.2264 16.515 9.71873C16.9916 9.22566 16.9865 8.43679 16.4997 7.95003Z" fill="#440D0B"/>
<path d="M21.0001 7.95734C21.0001 7.64985 20.7509 7.40066 20.4435 7.4007H17.4946C18.2063 8.33106 18.1376 9.67105 17.2871 10.5216C16.8389 10.9698 16.2424 11.2166 15.6077 11.2166C14.973 11.2166 14.3766 10.9698 13.9284 10.5216L12.5194 9.11259H8.82666L8.3894 9.47949L6.9772 10.6645C6.44732 11.1091 6.37822 11.8991 6.82283 12.4289C7.26743 12.9588 8.05742 13.0279 8.5873 12.5833C8.05742 13.0279 7.98832 13.8179 8.43293 14.3478C8.87754 14.8777 9.66752 14.9468 10.1974 14.5022C9.66752 14.9468 9.59842 15.7368 10.043 16.2666C10.4876 16.7965 11.2776 16.8656 11.8075 16.421L12.7933 15.5938L12.6604 15.7054C12.1305 16.15 12.0614 16.94 12.506 17.4699C12.9506 17.9998 13.7406 18.0689 14.2705 17.6243L18.0517 14.4514H20.4436C20.751 14.4514 21.0002 14.2022 21.0002 13.8948L21.0001 7.95734Z" fill="#440D0B"/>
</svg>
