<svg width="189" height="187" viewBox="0 0 189 187" fill="none" xmlns="http://www.w3.org/2000/svg">
<path opacity="0.7" d="M30.5516 116.657C30.5516 116.657 23.9669 77.9902 40.2009 58.3201C56.4348 38.65 73.5748 41.7063 91.0732 42.5417C108.572 43.3771 133.139 34.5892 147.228 47.2063C161.316 59.8235 164.807 69.4688 160.051 84.9204C155.294 100.372 159.587 117.586 139.615 136.938C117.046 151.169 97.0351 134.781 76.914 146.692C56.7929 158.604 48.7874 150.322 40.4702 138.462C32.1529 126.602 30.5516 116.657 30.5516 116.657Z" fill="#FEF2F2"/>
<g clip-path="url(#clip0_402_14924)">
<path d="M133.923 136.865H102.371V142.977H133.923V136.865Z" fill="black"/>
<path d="M127.411 80.0546C129.233 77.0255 131.061 72.4551 130.974 70.5287C130.888 68.5989 129.32 66.3137 125.643 64.3341C126.754 63.6964 127.111 63.2148 126.16 62.7863C125.209 62.3546 122.53 61.5375 118.727 61.5806C119.461 60.3152 119.117 59.9033 117.085 60.375C115.053 60.8499 108.774 61.5308 109.669 68.0243C110.303 72.6146 116.742 79.304 121.279 80.2108C125.816 81.1175 127.411 80.0546 127.411 80.0546Z" fill="#191919"/>
<path d="M112.011 69.197C111.484 69.1339 111.264 68.1142 111.264 67.7488C111.264 67.3303 111.257 66.656 111.304 66.3704C110.72 66.842 109.572 67.5661 108.832 70.8012C108.044 74.2556 107.47 80.1611 108.184 82.5327C109.089 85.5386 113.91 86.08 116.078 86.2926C115.881 88.395 116.051 90.0325 114.627 90.0923C114.684 92.2712 112.979 95.4664 116.081 96.3466C119.184 97.2235 126.281 93.8688 127.201 90.2418C125.657 89.6937 124.666 89.2852 124.666 86.7908C124.666 85.3559 124.923 83.6719 124.923 83.6719C124.923 83.6719 125.673 83.4062 126.484 82.247C127.952 80.1412 127.925 77.0556 125.8 76.2916C124.145 75.7004 122.974 76.6503 122.41 77.9789C122.19 78.4971 121.523 78.7894 121.083 78.3376C120.739 77.9856 120.802 77.4475 120.799 76.9991C120.792 76.4544 120.525 76.1886 120.142 75.8233C118.627 74.3718 118.093 71.9936 118.844 70.0406C119.088 69.4062 119.451 68.8216 119.748 68.2105C119.918 67.8617 120.062 67.4399 119.872 67.1044C119.775 66.935 119.608 66.8188 119.438 66.7225C117.049 65.3507 113.96 67.0413 112.378 68.9113C112.268 69.0409 112.171 69.2269 112.004 69.2036L112.011 69.197Z" fill="#FBC8C7"/>
<path d="M116.081 86.2955C117.855 86.2623 119.293 85.8804 121.335 83.6782C120.978 86.3055 118.926 87.7038 115.98 87.6507L116.081 86.2922V86.2955Z" fill="url(#paint0_linear_402_14924)"/>
<path d="M115.316 74.1427C115.249 74.5712 114.916 74.8768 114.575 74.8236C114.232 74.7705 114.012 74.3786 114.078 73.9501C114.145 73.5216 114.479 73.216 114.819 73.2692C115.163 73.3223 115.383 73.7143 115.316 74.1427Z" fill="#18185E"/>
<path d="M110.12 73.5978C110.056 74.003 109.743 74.292 109.419 74.2421C109.096 74.1923 108.885 73.8203 108.949 73.4151C109.012 73.0099 109.326 72.7209 109.649 72.7707C109.973 72.8205 110.183 73.1925 110.12 73.5978Z" fill="#18185E"/>
<path d="M116.161 72.7175C116.127 72.6643 116.104 72.6045 116.064 72.5514C116.007 72.475 115.944 72.3953 115.88 72.3222C115.73 72.1395 115.507 71.9967 115.277 71.927C115.136 71.8838 114.996 71.8605 114.85 71.8605C114.699 71.8605 114.566 71.8904 114.419 71.917C114.309 71.9369 114.196 71.8904 114.159 71.7775C114.122 71.6646 114.186 71.5616 114.292 71.5217C114.189 71.5915 114.172 71.5981 114.242 71.5417C114.259 71.535 114.276 71.5284 114.292 71.5217C114.316 71.5118 114.339 71.5051 114.362 71.4985C114.409 71.4852 114.456 71.4752 114.503 71.4686C114.606 71.452 114.713 71.442 114.816 71.442C115.026 71.442 115.25 71.4786 115.443 71.5616C115.704 71.6778 115.937 71.8838 116.074 72.1329C116.114 72.2093 116.151 72.2823 116.157 72.3687C116.167 72.4783 116.187 72.6079 116.174 72.7175C116.174 72.7307 116.157 72.7241 116.154 72.7175H116.161Z" fill="#18185E"/>
<path d="M108.653 71.8837C108.683 71.701 108.777 71.515 108.9 71.3821C109.067 71.2028 109.277 71.0865 109.517 71.0367C109.911 70.9537 110.335 71.0666 110.668 71.2758C110.758 71.3323 110.775 71.4718 110.718 71.5549C110.652 71.6479 110.535 71.6545 110.445 71.598C110.431 71.5881 110.415 71.5814 110.401 71.5715C110.375 71.5582 110.345 71.5449 110.318 71.5316C110.245 71.4984 110.165 71.4685 110.088 71.4486C109.944 71.4087 109.788 71.3921 109.637 71.4054C109.457 71.4187 109.26 71.4785 109.097 71.5549C109.014 71.5947 108.933 71.6478 108.86 71.701C108.78 71.7575 108.733 71.8372 108.667 71.9036C108.657 71.9136 108.65 71.8903 108.653 71.8837Z" fill="#18185E"/>
<path d="M124.928 83.6686C123.467 84.1236 122.459 83.4693 122.189 82.6987C121.999 83.5523 123.43 84.7514 124.928 83.6686Z" fill="#FB929C"/>
<path d="M126.437 78.3409C126.19 77.8991 125.553 77.8393 125.109 77.9489C124.659 78.0619 124.255 78.3276 123.951 78.673C123.671 78.9919 123.474 79.3805 123.377 79.7924C123.284 80.1776 123.231 80.7224 123.494 81.0545C123.531 81.101 123.624 81.1209 123.641 81.0445C123.681 80.8652 123.641 80.6659 123.641 80.4832C123.641 80.2972 123.661 80.1145 123.701 79.9352C123.781 79.5765 123.945 79.231 124.175 78.9421C124.195 78.9188 124.215 78.8989 124.235 78.8756C124.235 78.8756 124.235 78.8756 124.238 78.879C124.535 79.1115 124.792 79.3905 124.962 79.7292C125.136 80.0813 125.186 80.4766 125.176 80.8652C125.176 80.8918 125.212 80.9515 125.239 80.9117C125.486 80.5364 125.406 80.0182 125.229 79.6296C125.056 79.2476 124.775 78.9221 124.455 78.6564C124.645 78.4937 124.862 78.3575 125.102 78.2778C125.539 78.1283 125.953 78.2279 126.35 78.4372C126.42 78.4737 126.48 78.404 126.44 78.3376L126.437 78.3409Z" fill="#FB929C"/>
<path d="M120.588 75.9992C120.578 77.7529 119.794 78.8888 118.379 79.8122C117.265 80.5396 115.757 80.2639 114.305 79.5C113.258 78.9486 112.2 78.7958 110.912 78.6929C109.835 78.6065 108.447 78.8623 107.836 79.4004C107.539 80.4732 107.533 83.8412 108.68 84.9505C109.828 86.0599 112.093 86.6312 114.899 86.5648C117.705 86.4983 120.107 85.658 121.015 84.2397C122.593 81.7752 122.056 78.7759 122.483 77.826L120.588 75.9958V75.9992Z" fill="#191919"/>
<path d="M111.655 72.837C111.611 73.1725 111.471 73.498 111.364 73.8169C111.258 74.1457 111.148 74.4712 111.041 74.8C110.834 75.441 110.647 76.0921 110.477 76.7431C110.397 77.052 110.3 77.3642 110.25 77.6797C110.197 78.0085 110.277 78.2709 110.587 78.4271C110.867 78.5666 111.194 78.633 111.501 78.6728C111.665 78.6961 111.832 78.7061 111.998 78.7027C112.115 78.7027 112.252 78.6728 112.362 78.7193C112.405 78.7359 112.389 78.809 112.352 78.8289C112.165 78.9186 111.935 78.9053 111.735 78.902C111.441 78.8954 111.151 78.8555 110.871 78.7758C110.424 78.6529 109.973 78.4437 109.977 77.9155C109.977 77.6731 110.05 77.4339 110.11 77.2014C110.183 76.9058 110.264 76.6069 110.344 76.3146C110.5 75.7499 110.674 75.1853 110.857 74.6273C111.058 74.0161 111.254 73.3618 111.588 72.8105C111.611 72.7706 111.658 72.8005 111.651 72.837H111.655Z" fill="#FB929C"/>
<path d="M113.909 80.4997C113.796 80.5329 113.699 80.6059 113.589 80.6491C113.462 80.6989 113.328 80.7355 113.198 80.772C112.991 80.8285 112.775 80.8617 112.561 80.8717C112.364 80.8816 112.167 80.8683 111.977 80.8351C111.87 80.8185 111.77 80.8185 111.69 80.8949C111.607 80.9746 111.66 81.0909 111.744 81.1473C111.83 81.2038 111.964 81.2071 112.067 81.2204C112.161 81.2304 112.254 81.237 112.348 81.2403C112.548 81.2437 112.751 81.2337 112.948 81.1938C113.152 81.154 113.348 81.0975 113.535 81.0078C113.652 80.9547 113.766 80.8883 113.866 80.8052C113.926 80.7554 114.029 80.6757 114.019 80.586C114.012 80.5362 113.969 80.483 113.916 80.4963L113.909 80.4997Z" fill="#FB929C"/>
<path opacity="0.56" d="M129.114 68.469C128.627 68.0705 128.056 67.7649 127.489 67.4892C126.935 67.2235 126.365 66.9976 125.777 66.8116C124.63 66.4496 123.419 66.237 122.214 66.2204C121.53 66.2104 120.79 66.2138 120.126 66.3964C120.089 66.4064 120.096 66.4828 120.136 66.4828C120.72 66.4695 121.3 66.4031 121.887 66.4097C122.488 66.4164 123.085 66.4562 123.679 66.5426C124.89 66.7153 126.074 67.0574 127.185 67.5623C127.846 67.8612 128.45 68.2432 129.084 68.5919C129.164 68.6351 129.16 68.5122 129.114 68.4724V68.469Z" fill="white"/>
<path opacity="0.56" d="M129.746 70.6213C128.045 68.7181 125.522 67.5888 123 67.3198C122.653 67.2832 122.303 67.2666 121.952 67.2666C121.595 67.2666 121.212 67.2633 120.862 67.353C120.825 67.3629 120.828 67.4493 120.868 67.4493C121.195 67.4692 121.522 67.4393 121.849 67.4427C122.166 67.446 122.483 67.4659 122.8 67.4925C123.427 67.5523 124.048 67.6585 124.658 67.8213C125.856 68.1402 127.004 68.6583 128.031 69.3459C128.632 69.7478 129.189 70.1895 129.719 70.6811C129.746 70.7077 129.763 70.6379 129.746 70.618V70.6213Z" fill="white"/>
<path opacity="0.56" d="M127.994 72.6179C127.437 71.658 126.623 70.8276 125.749 70.15C124.838 69.4459 123.804 68.8912 122.709 68.5225C122.122 68.3265 121.498 68.1472 120.878 68.1206C120.821 68.1206 120.834 68.2169 120.878 68.2269C121.438 68.3564 121.999 68.4627 122.549 68.6388C123.08 68.8115 123.597 69.0274 124.09 69.2798C125.075 69.7847 125.972 70.449 126.753 71.2328C127.197 71.6779 127.58 72.1628 127.954 72.6644C127.981 72.7009 128.004 72.6378 127.991 72.6146L127.994 72.6179Z" fill="white"/>
<path d="M72.3513 117.757C71.9142 118.318 71.5806 119.314 71.5072 120.404C71.4038 121.948 71.6574 123.088 72.1511 124.556C72.1511 124.556 72.6583 124.572 73.3422 124.572C74.0261 124.572 74.4065 124.712 74.7268 124.811C75.5742 125.077 75.8144 125.333 76.5451 125.838C77.2023 126.293 82.4571 128.88 83.4446 129.053C84.3354 129.209 84.7925 129.339 85.2796 129.285C86.0036 129.206 87.0679 128.854 86.4306 127.801C87.6284 128.512 88.9762 128.093 88.8828 126.954C89.5234 127.492 90.6277 127.558 91.1982 126.937C91.4418 126.665 91.3117 126.137 91.1816 125.808C89.3065 120.995 88.2189 121.035 83.0276 118.683C81.316 117.906 80.0816 117.494 78.3033 117.464C76.8153 117.438 73.1787 117.581 72.3546 117.757H72.3513Z" fill="#D18080"/>
<path d="M82.5109 129.199C82.7411 129.089 82.9747 128.973 83.1515 128.794C83.3283 128.611 83.4418 128.345 83.375 128.103C83.1715 127.349 82.0505 127.458 81.4733 127.531C81.5801 127.425 81.6902 127.316 81.7969 127.209C81.9938 127.013 82.2006 126.787 82.204 126.512C82.204 126.299 82.0772 126.103 81.907 125.977C81.7369 125.851 81.5267 125.791 81.3165 125.754C81.0963 125.715 80.8694 125.705 80.6459 125.715C80.6025 125.715 80.2355 125.721 80.2289 125.731C80.4057 125.542 80.5692 125.336 80.6526 125.09C80.8728 124.436 80.2622 123.934 79.635 123.971C79.3047 123.991 78.9944 124.127 78.7008 124.27C77.76 124.731 76.659 125.293 76.1052 126.21C75.9517 126.462 75.8349 126.804 76.0218 127.06C76.2286 127.345 76.5889 127.512 76.9326 127.565C77.3763 127.634 77.8234 127.545 78.2638 127.458C78.0603 127.681 78.0302 128.03 78.1503 128.305C78.4539 129.006 79.3447 128.94 79.9853 128.85C79.9253 129.043 80.0487 129.255 80.2222 129.362C80.9595 129.813 81.7969 129.541 82.5143 129.196L82.5109 129.199Z" fill="#FBC8C7"/>
<path d="M88.6378 117.354C87.3099 116.959 85.9987 116.461 84.6208 116.298C84.2105 116.248 83.7901 116.232 83.3964 116.351C82.966 116.481 82.6024 116.76 82.2554 117.046C81.101 117.995 80.0467 119.065 79.1092 120.231C79.0558 120.301 78.9991 120.37 78.9691 120.45C78.9024 120.636 78.9824 120.852 79.1292 120.988C79.276 121.121 79.4729 121.187 79.6697 121.217C80.5005 121.35 81.3312 120.965 82.0118 120.473C82.4055 120.188 82.7859 119.855 83.2563 119.723C83.8101 119.57 84.404 119.723 84.9478 119.909C86.319 120.377 87.5401 120.932 88.3409 121.53C88.7245 121.815 89.3317 122.735 89.9556 123.742C90.356 124.389 91.1801 125.804 91.1801 125.804L94.5097 124.562C94.3095 122.974 94.106 121.38 93.7524 119.819C93.6256 119.261 93.2786 117.7 93.2786 117.7C93.2786 117.7 92.2444 117.819 91.6338 117.776C90.763 117.716 89.4719 117.604 88.6378 117.354Z" fill="#FBC8C7"/>
<path d="M95.0897 116.312L92.5508 117.335L94.3991 125.778L97.3718 124.834L95.0897 116.312Z" fill="url(#paint1_linear_402_14924)"/>
<path d="M103.807 111.539L94.2852 116.298L96.7107 125.881L103.357 123.605L103.807 111.539Z" fill="#7F2222"/>
<path d="M114.631 90.092L108.656 92.7193C108.656 92.7193 105.469 104.301 104.949 116.361C104.428 128.422 104.742 136.865 104.742 136.865C110.2 138.961 121.08 137.914 131.967 136.865V93.5862L126.025 89.2417C126.025 89.2417 117.3 92.8853 115.832 92.7193C114.367 92.5532 114.628 90.092 114.628 90.092H114.631Z" fill="url(#paint2_linear_402_14924)"/>
<path opacity="0.6" d="M131.968 104.627L118.148 107.693C116.374 118.73 115.966 130.548 114.695 132.477C112.63 135.62 109.474 136.207 104.68 134.002C104.706 135.842 104.743 136.865 104.743 136.865C110.201 138.961 121.081 137.915 131.968 136.865V104.627Z" fill="#F3DBE0"/>
<path d="M114.632 90.0922C112.697 92.5401 110.709 95.4099 109.114 101.943C107.519 108.477 106.625 118.859 106.625 124.234C106.625 129.608 106.448 138.589 106.448 138.589L102.371 136.865C102.638 126.004 103.275 109.37 105.988 97.8013C107.039 93.3173 108.023 92.0519 110.759 90.71C113.494 89.3681 115.439 88.6938 115.439 88.6938L114.632 90.0922Z" fill="url(#paint3_linear_402_14924)"/>
<path d="M115.836 91.3643L115.259 91.1152C115.259 91.1152 113.778 91.6201 113.527 93.148C113.277 94.6758 113.774 96.4894 113.774 96.4894L115.422 96.7783C115.422 96.7783 116.6 95.0013 116.994 94.3968C117.388 93.7923 115.84 91.3677 115.84 91.3677L115.836 91.3643Z" fill="url(#paint4_linear_402_14924)"/>
<path d="M113.771 96.486C112.143 101.01 108.076 116.88 108.223 119.364C108.369 121.852 109.31 130.186 110.491 130.405C111.672 130.624 114.295 122.214 114.565 120.387C114.832 118.56 115.416 96.7716 115.416 96.7716L113.768 96.4827L113.771 96.486Z" fill="url(#paint5_linear_402_14924)"/>
<path d="M115.26 91.1154C115.394 90.119 115.617 89.7736 115.838 88.9897C115.838 88.518 115.958 87.9866 115.958 87.9866C115.958 87.9866 115.751 87.9135 115.444 88.2357C114.68 89.0362 112.788 90.9892 112.394 92.2547C111.524 95.0281 111.994 96.7121 111.994 96.7121C111.994 96.7121 113.242 93.4305 115.267 91.1154H115.26Z" fill="#F5EAEA"/>
<path d="M115.836 91.3644C115.836 91.3644 121.041 90.9027 124.707 85.8009L124.751 85.213C124.751 85.213 125.258 84.8942 125.435 85.6681C125.611 86.442 128.534 89.2453 128.534 89.2453C128.534 89.2453 125.121 95.8982 117.18 97.5822C117.074 94.4235 115.836 91.3644 115.836 91.3644Z" fill="#F5EAEA"/>
<path d="M126.62 87.89C126.17 89.8397 122.664 93.3372 120.281 100.282C117.899 107.228 117.222 111.007 116.865 120.374C116.531 129.116 117.028 138.984 117.028 138.984L133.924 136.868C133.924 136.868 132.029 123.064 132.459 117.046C132.889 111.027 133.797 91.3643 133.797 91.3643C133.797 91.3643 129.413 90.3313 126.624 87.89H126.62Z" fill="url(#paint6_linear_402_14924)"/>
<path opacity="0.4" d="M126.986 90.3313C127.013 91.5669 127.06 94.0381 127.076 95.2737C125.648 96.7849 124.08 98.2464 122.589 99.7244L122.632 99.6248C122.572 102.747 122.412 109.028 122.315 112.147C120.731 114.937 118.942 117.674 117.691 120.646C118.769 117.75 120.61 114.578 122.042 112.14C122.102 108.988 122.255 102.71 122.349 99.5584C123.803 98.1866 125.578 96.4163 126.899 95.2703C126.916 94.0447 126.963 91.5569 126.99 90.328L126.986 90.3313Z" fill="white"/>
<path d="M133.795 91.3613C136.121 92.4242 137.779 94.6031 138.793 97.5791C139.807 100.555 145.012 117.913 145.619 120.135C146.226 122.357 146.767 124.241 144.065 128.21C141.362 132.179 135.564 142.977 135.564 142.977H124.891C124.891 142.977 130.262 129.787 131.413 127.366C132.561 124.945 132.811 122.138 131.019 116.761C129.418 111.954 128.561 108.972 128.214 106.617C127.867 104.262 129.034 94.8323 133.792 91.3613H133.795Z" fill="#7F2222"/>
<path d="M63.5234 94.576C66.5462 95.4496 67.487 97.2731 68.1676 99.7708C68.8482 102.269 69.5355 107.025 69.5355 107.025L63.5268 94.576H63.5234Z" fill="#FC5555"/>
<path d="M38.838 81.9544C38.2041 82.5058 37.717 83.1734 37.4968 83.9373C37.2332 84.8541 37.2799 85.8306 37.41 86.7772C37.5368 87.7039 37.7303 88.6937 37.3166 89.5307C36.7628 90.6567 35.3649 91.042 34.374 91.8159C33.2196 92.716 32.609 94.2605 32.8359 95.702C33.0761 97.2332 34.1604 98.5684 34.2205 100.113C34.2805 101.701 33.8802 103.365 34.8077 104.806C35.7252 106.234 37.1898 107.022 38.858 107.357C41.8073 107.948 43.6857 105.477 46.2713 104.733C48.9938 103.949 52.0632 105.563 54.6488 104.119C55.5964 103.587 56.307 102.65 56.5539 101.594C56.7641 100.711 56.664 99.7641 56.9809 98.9138C57.5114 97.4989 59.0228 96.7283 59.987 95.5625C61.3582 93.9051 61.5117 91.4571 60.7076 89.4643C59.9036 87.4714 58.2654 85.9003 56.4204 84.7876C54.5754 83.6716 52.5169 82.9675 50.4784 82.2666C48.1397 81.4662 45.7609 80.2771 43.2386 80.2804C41.804 80.2804 40.0491 80.8982 38.8346 81.9544H38.838Z" fill="#191919"/>
<path opacity="0.3" d="M36.8972 100.82C36.9639 100.339 37.0273 99.8471 36.9572 99.3588C36.9038 98.9968 36.7771 98.6547 36.6169 98.3258C36.2633 97.6051 35.7428 96.9541 35.5126 96.1769C35.259 95.3266 35.4292 94.3799 35.9463 93.6625C36.747 92.5498 38.1249 92.0549 39.0958 91.1249C39.5862 90.6533 39.9466 90.0753 40.0533 89.3944C40.1701 88.6504 40.03 87.8964 39.8798 87.169C39.7063 86.3187 39.4895 85.4386 39.6663 84.5717C39.8832 83.5154 40.7673 82.8445 41.7315 82.4824C41.7649 82.4692 41.7482 82.3828 41.7115 82.3928C40.9375 82.612 40.1868 83.0637 39.7597 83.7612C39.3494 84.4255 39.3193 85.1994 39.4128 85.9567C39.5996 87.4813 40.3002 89.1752 39.2359 90.5403C38.3585 91.6597 36.9038 92.128 35.9496 93.1742C35.3958 93.7821 35.0755 94.5626 35.1122 95.3897C35.1489 96.2566 35.606 96.984 36.0497 97.7014C36.3 98.1033 36.5435 98.5185 36.6803 98.9735C36.8538 99.5481 36.7937 100.143 36.717 100.727C36.5936 101.654 36.4668 102.684 37.1274 103.451C37.1908 103.524 37.2208 103.404 37.1807 103.351C36.6303 102.63 36.7804 101.654 36.8972 100.824V100.82ZM41.7182 88.0094C41.4045 86.9731 41.1476 85.6877 41.8616 84.7543C41.8716 84.741 41.8616 84.7012 41.8449 84.7211C41.2144 85.4319 41.2411 86.4018 41.4179 87.282C41.6381 88.378 42.1953 89.4941 41.9684 90.6333C41.6114 92.4203 39.4561 92.7856 38.5954 94.2272C37.9514 95.31 38.3251 96.612 38.8256 97.6682C38.8422 97.7014 38.8689 97.6649 38.8589 97.6383C38.4786 96.6651 38.2217 95.4727 38.7221 94.4929C39.0958 93.7621 39.8265 93.3038 40.477 92.8421C41.1109 92.3937 41.7615 91.8888 42.0318 91.1315C42.3954 90.1119 42.0184 88.9958 41.7215 88.0094H41.7182Z" fill="#9DC4FC"/>
<path d="M62.7033 76.1652C64.1479 74.1789 65.2789 68.9111 62.7033 66.2174C60.1276 63.5237 57.2484 64.6065 57.2484 64.6065C57.2484 64.6065 54.259 63.145 50.5657 63.4705C46.8724 63.796 42.7821 66.2473 41.651 68.7749C40.54 71.256 40.0596 79.3106 47.593 83.7248L62.7033 76.1685V76.1652Z" fill="#191919"/>
<path d="M58.3172 69.1667C58.7809 68.7648 59.1779 68.2832 59.5082 67.765C60.4758 68.5987 61.4466 70.648 62.0505 73.1059C62.8746 76.4473 63.3617 80.0843 63.365 82.1138C63.365 83.7346 63.2549 84.2461 63.0748 84.9171C62.3808 87.468 59.8085 88.1588 57.7667 88.1522C57.8568 90.6699 57.8935 93.5927 59.3181 93.5562C60.676 96.2964 65.587 103.318 62.551 104.404C59.5149 105.49 47.5909 96.8112 46.4232 93.254C47.9078 91.7726 48.5651 91.0219 48.2748 88.5441C48.0446 86.5778 47.5975 83.7247 47.5975 83.7247C47.5975 83.7247 45.7325 84.3292 44.1578 82.4525C42.5063 80.4862 42.1994 77.849 44.2645 76.9422C45.8727 76.2381 47.3673 77.5235 48.0213 78.8155C48.2748 79.3171 48.9654 79.5629 49.3725 79.0813C49.6894 78.7059 49.5893 78.1745 49.5626 77.7261C49.5326 77.1814 49.7795 76.8991 50.1365 76.5071C50.9405 75.6236 51.2575 74.4677 50.8405 73.3252C50.5869 72.631 49.7762 71.5681 50.0931 70.7942C50.3066 70.276 50.9873 70.1598 51.5444 70.1997C53.4028 70.3325 55.3345 70.7543 57.1094 69.9539C57.5532 69.7546 57.9568 69.4855 58.3238 69.1667H58.3172Z" fill="#D18080"/>
<path d="M57.7673 88.149C55.9957 88.2387 52.4558 87.6574 50.3906 84.8275C51.3582 88.7834 54.9147 90.3976 57.8507 90.1452L57.7639 88.149H57.7673Z" fill="url(#paint7_linear_402_14924)"/>
<path d="M54.8215 76.9524C54.9183 77.3742 55.2686 77.6566 55.6089 77.5802C55.9459 77.5038 56.1427 77.0986 56.046 76.6767C55.9492 76.2549 55.5989 75.9726 55.2586 76.049C54.9216 76.1254 54.7248 76.5306 54.8215 76.9524Z" fill="#18185E"/>
<path d="M60.5112 75.926C60.6013 76.3279 60.9349 76.5936 61.2552 76.5206C61.5755 76.4475 61.759 76.0655 61.6689 75.6636C61.5788 75.2617 61.2452 74.996 60.9249 75.0691C60.6046 75.1422 60.4211 75.5241 60.5112 75.926Z" fill="#18185E"/>
<path d="M53.8748 75.5905C53.9048 75.5341 53.9248 75.4743 53.9615 75.4178C54.0149 75.3348 54.0716 75.2551 54.1284 75.1753C54.2651 74.9827 54.4787 74.8266 54.7022 74.7402C54.839 74.6871 54.9758 74.6539 55.1226 74.6439C55.2727 74.6339 55.4062 74.6539 55.5563 74.6705C55.6697 74.6838 55.7798 74.6306 55.8065 74.511C55.8366 74.3981 55.7632 74.2985 55.6564 74.2653C55.7632 74.3284 55.7798 74.335 55.7064 74.2819L55.6564 74.2653C55.633 74.2586 55.6097 74.252 55.583 74.2487C55.5363 74.2387 55.4896 74.232 55.4395 74.2287C55.3361 74.2188 55.2293 74.2154 55.1226 74.2221C54.9124 74.2387 54.6922 74.2885 54.5054 74.3848C54.2518 74.5177 54.0349 74.7402 53.9148 74.9993C53.8781 75.079 53.8481 75.1521 53.8481 75.2418C53.8481 75.3514 53.8348 75.4809 53.8548 75.5905C53.8548 75.6038 53.8715 75.5938 53.8748 75.5905Z" fill="#18185E"/>
<path d="M61.8539 73.7036C61.8139 73.5243 61.7071 73.3449 61.5703 73.2187C61.3902 73.0493 61.1733 72.9496 60.9297 72.9164C60.5327 72.8633 60.119 73.0028 59.7987 73.2353C59.712 73.2984 59.7053 73.4379 59.7687 73.5176C59.8388 73.6073 59.9589 73.604 60.0456 73.5442C60.059 73.5342 60.0723 73.5243 60.089 73.5143C60.1157 73.4977 60.1424 73.4844 60.1691 73.4678C60.2425 73.4279 60.3159 73.3947 60.3959 73.3681C60.536 73.3183 60.6929 73.2917 60.843 73.2951C61.0232 73.2951 61.2233 73.3416 61.3902 73.408C61.4736 73.4412 61.5603 73.4877 61.637 73.5375C61.7204 73.5874 61.7738 73.6638 61.8439 73.7269C61.8539 73.7368 61.8572 73.7136 61.8572 73.7069L61.8539 73.7036Z" fill="#18185E"/>
<path d="M46.707 83.8143C48.2284 83.6483 48.889 82.6452 48.8256 81.8314C49.3461 82.5389 48.5187 84.2063 46.707 83.8143Z" fill="#B55D5D"/>
<path d="M44.036 78.8288C44.2528 78.3704 44.8834 78.2674 45.3338 78.3472C45.7909 78.4302 46.2112 78.666 46.5382 78.9915C46.8418 79.2905 47.062 79.6658 47.1888 80.0677C47.3089 80.4463 47.399 80.9877 47.1588 81.3365C47.1254 81.3863 47.032 81.4096 47.012 81.3365C46.9586 81.1604 46.9886 80.9578 46.9753 80.7751C46.9619 80.5925 46.9286 80.4065 46.8752 80.2304C46.7717 79.8784 46.5849 79.5429 46.3313 79.2738C46.3113 79.2506 46.288 79.234 46.268 79.2107C46.268 79.2107 46.268 79.2141 46.2646 79.2174C45.9877 79.4698 45.7442 79.7654 45.6007 80.1142C45.4506 80.4795 45.4272 80.8748 45.4639 81.2601C45.4639 81.2867 45.4339 81.3498 45.4038 81.3132C45.1303 80.9545 45.177 80.433 45.3271 80.0345C45.4739 79.6392 45.7308 79.3004 46.0344 79.0081C45.8342 78.8587 45.6074 78.7391 45.3638 78.6727C44.9167 78.5564 44.513 78.6793 44.1294 78.9185C44.0626 78.9616 43.9993 78.8952 44.0326 78.8255L44.036 78.8288Z" fill="#B55D5D"/>
<path d="M58.7699 75.2054C58.8566 75.5343 59.0368 75.8365 59.1802 76.1421C59.3304 76.4543 59.4805 76.7665 59.6273 77.0788C59.9142 77.6899 60.1811 78.3077 60.4347 78.9355C60.5548 79.2311 60.6883 79.53 60.7783 79.8356C60.8751 80.1544 60.825 80.4268 60.5381 80.6194C60.2779 80.7922 59.9609 80.8984 59.6607 80.9782C59.5005 81.0213 59.337 81.0512 59.1736 81.0712C59.0601 81.0844 58.9167 81.0745 58.8132 81.1343C58.7732 81.1575 58.7966 81.2273 58.8366 81.2406C59.0334 81.3037 59.2603 81.2638 59.4605 81.2339C59.7507 81.1907 60.0343 81.1143 60.3012 81.0014C60.7283 80.8221 61.1487 80.5597 61.0786 80.0349C61.0452 79.7957 60.9452 79.5665 60.8551 79.3407C60.745 79.055 60.6282 78.7727 60.5081 78.4904C60.2779 77.949 60.0377 77.4142 59.7808 76.8828C59.5039 76.3015 59.2269 75.6804 58.8232 75.1722C58.7966 75.1357 58.7532 75.1722 58.7632 75.2088L58.7699 75.2054Z" fill="#B55D5D"/>
<path d="M55.9765 82.1769C55.9465 82.2765 56.0099 82.3629 56.0566 82.4526C56.1167 82.5688 56.2101 82.6585 56.3068 82.7415C56.477 82.891 56.6738 83.0006 56.8807 83.0936C57.2677 83.2696 57.6814 83.3759 58.1018 83.4125C58.3086 83.4291 58.5288 83.4424 58.7323 83.4191C58.8458 83.4058 58.9859 83.3261 59.0259 83.2098C59.0826 83.0537 58.8958 82.9076 58.7557 82.901C58.5522 82.891 58.352 82.9109 58.1485 82.8877C57.935 82.8644 57.7248 82.8212 57.5146 82.7648C57.3044 82.7083 57.1009 82.6286 56.9007 82.5389C56.7506 82.4725 56.6004 82.406 56.457 82.3263C56.4002 82.2931 56.3402 82.2732 56.2835 82.2433C56.2067 82.2068 56.15 82.1569 56.0699 82.1237C56.0299 82.1071 55.9899 82.137 55.9765 82.1735V82.1769Z" fill="#B55D5D"/>
<path d="M38.4667 136.865C37.4391 139.506 37.1055 142.977 37.1055 142.977H72.1236V136.865H38.4667Z" fill="black"/>
<path d="M47.7207 91.9286L62.2938 102.67L58.9474 93.3601L62.4973 94.3068C62.4973 94.3068 67.9622 103.962 69.19 109.061C70.4177 114.159 71.2385 136.865 71.2385 136.865C67.7954 139.881 53.0722 138.134 39.48 136.865C39.48 136.865 43.1099 128.093 43.5203 124.828C43.9306 121.563 40.1039 106.606 39.49 103.614C38.8761 100.621 38.6692 98.7874 39.49 97.6315C40.3107 96.4757 47.7174 91.9286 47.7174 91.9286H47.7207Z" fill="url(#paint8_linear_402_14924)"/>
<path opacity="0.4" d="M71.1723 135.081C67.7826 136.314 63.2418 136.214 62.6346 135.154C61.8572 133.799 62.6346 130.415 62.6346 130.415L70.7786 126.665C70.7052 125.3 70.6251 123.878 70.535 122.456L53.1694 124.223L43.5208 123.469C43.5608 124.027 43.5641 124.496 43.5208 124.831C43.1104 128.096 39.4805 136.868 39.4805 136.868C53.0693 138.137 67.7959 139.884 71.239 136.868C71.239 136.868 71.2156 136.207 71.1689 135.085L71.1723 135.081Z" fill="#FEB2B2"/>
<path d="M47.7217 91.9286C47.7217 91.9286 53.3401 98.0168 56.5396 104.494C59.2988 110.084 59.8593 111.465 60.5799 121.476C61.2972 131.491 60.9302 139.92 60.9302 139.92C52.3926 140.538 44.7557 139.754 38.4701 136.865C38.4701 136.865 40.8088 128.78 41.6863 125.442C42.5637 122.104 41.5261 117.883 40.0114 112.007C38.4934 106.131 37.696 100.133 37.8562 98.7011C38.0163 97.2695 41.733 95.9143 47.725 91.9286H47.7217Z" fill="url(#paint9_linear_402_14924)"/>
<path d="M58.9486 93.3636C62.5452 97.4491 66.362 104.351 67.2194 109.393C68.0768 114.435 68.7775 139.173 68.7775 139.173C70.5324 138.655 71.8536 137.968 72.1272 136.868C72.1272 136.868 71.1296 116.916 70.5057 111.024C69.8818 105.132 63.5228 94.5793 63.5228 94.5793L58.9453 93.3636H58.9486Z" fill="url(#paint10_linear_402_14924)"/>
<path d="M69.0778 118.022L72.4642 117.746C72.4642 117.746 71.7669 119.37 71.8636 121.486C71.9604 123.602 72.4642 124.9 72.4642 124.9L69.1812 125.535C69.1812 125.535 68.6741 124.396 68.554 122.017C68.4339 119.636 69.0778 118.025 69.0778 118.025V118.022Z" fill="url(#paint11_linear_402_14924)"/>
<path d="M38.43 97.8274C37.0387 99.239 36.9053 101.395 38.43 108.994C39.9547 116.594 44.9058 126.399 45.7766 128.355C46.6474 130.308 47.9586 131.467 52.0289 130.597C56.0992 129.73 69.6914 126.1 69.6914 126.1C68.8673 123.658 68.6204 120.543 69.1109 117.859L54.718 119.739C54.718 119.739 52.3492 110.306 51.5017 107.446C49.8469 101.866 44.5989 94.28 38.43 97.824V97.8274Z" fill="url(#paint12_linear_402_14924)"/>
<path opacity="0.46" d="M54.8787 119.583C54.0213 116.305 53.2072 113.01 52.2664 109.755C51.4223 106.832 50.3513 103.872 48.3995 101.484C47.3653 100.219 46.1275 99.1028 44.6829 98.3223C44.6662 98.3123 44.6629 98.3522 44.6762 98.3621C47.1217 99.8535 48.8366 102.212 50.0644 104.753C51.5057 107.735 52.2563 110.994 53.1004 114.179C53.5709 115.963 54.048 117.743 54.5217 119.527C54.5284 119.546 54.515 119.57 54.4917 119.573C52.9436 119.862 51.4022 120.171 49.8976 120.629C49.8675 120.639 49.8742 120.709 49.9109 120.706C51.1453 120.51 52.3664 120.264 53.5942 120.025C54.0213 119.942 54.485 119.859 54.9254 119.772C54.9254 119.772 54.8987 119.636 54.8854 119.583H54.8787Z" fill="#EA3934"/>
<path opacity="0.46" d="M60.3864 119.002C60.1429 119.002 55.3352 119.467 54.4911 119.573C54.4144 119.583 54.7847 119.799 54.8448 119.789C55.1684 119.736 60.3898 119.002 60.3864 119.002Z" fill="#EA3934"/>
<path opacity="0.46" d="M65.9332 124.828C65.8331 124.339 65.7564 123.851 65.6997 123.356C65.643 122.878 65.6096 122.396 65.5963 121.915C65.5829 121.403 65.6396 120.882 65.5829 120.373C65.5762 120.32 65.4962 120.264 65.4761 120.337C65.346 120.802 65.3761 121.327 65.3827 121.808C65.3894 122.307 65.4194 122.805 65.4728 123.3C65.5262 123.805 65.6096 124.309 65.713 124.808C65.8198 125.316 65.9399 125.811 66.1668 126.279C66.1935 126.332 66.2368 126.306 66.2302 126.252C66.1768 125.768 66.0366 125.303 65.9366 124.828H65.9332Z" fill="#EA3934"/>
<path d="M89.029 43.0269C89.029 35.64 82.0494 29.6514 73.4383 29.6514C64.8273 29.6514 57.8477 35.64 57.8477 43.0269C57.8477 48.7631 62.0548 53.6523 67.9634 55.5555C67.8767 57.3125 66.5888 59.1493 64.5604 59.9465C64.4069 60.0062 64.4503 60.2155 64.6137 60.2255C67.9501 60.4214 70.5324 60.0992 73.9021 56.3958C82.2929 56.1832 89.0223 50.281 89.0223 43.0302L89.029 43.0269Z" fill="#F67773"/>
<path d="M79.4727 50.4405C79.4727 43.0535 86.4523 37.0649 95.0633 37.0649C103.674 37.0649 110.654 43.0535 110.654 50.4405C110.654 56.1767 106.447 61.0659 100.538 62.9691C100.625 64.7261 101.913 66.5629 103.941 67.36C104.095 67.4198 104.051 67.6291 103.888 67.639C100.552 67.835 97.9693 67.5128 94.5996 63.8094C86.2087 63.5968 79.4793 57.6946 79.4793 50.4438L79.4727 50.4405Z" fill="#EA3934"/>
<path d="M89.0279 43.0267C89.0279 48.268 85.5147 52.8018 80.4002 54.9972C79.7963 53.5757 79.4727 52.0411 79.4727 50.4402C79.4727 45.1956 82.9858 40.6585 88.1004 38.4663C88.7009 39.8912 89.0279 41.4257 89.0279 43.0267Z" fill="#FAA9A7"/>
</g>
<path d="M43.9414 142.976L47.657 141.119H72.0843L72.2727 149.014C71.4986 149.943 68.0927 151.987 60.6615 152.73C53.2304 153.473 46.4185 146.537 43.9414 142.976Z" fill="black"/>
<path d="M38.3655 134.616L30.9343 141.583L27.2188 155.516C33.5662 156.445 46.354 158.303 46.7255 158.303C47.19 158.303 57.4078 154.123 49.9767 149.014C45.9846 146.27 40.2233 138.022 38.3655 134.616Z" fill="white"/>
<path d="M101.996 142.512L96.8867 151.336L169.805 154.123V125.327C164.696 121.457 152.992 116.596 147.047 128.114C141.102 139.632 114.536 142.512 101.996 142.512Z" fill="white"/>
<defs>
<linearGradient id="paint0_linear_402_14924" x1="119.767" y1="87.0329" x2="118.181" y2="85.0563" gradientUnits="userSpaceOnUse">
<stop stop-color="#FBC8C7"/>
<stop offset="0.99" stop-color="#FB929C"/>
</linearGradient>
<linearGradient id="paint1_linear_402_14924" x1="95.2599" y1="124.917" x2="94.6481" y2="117.039" gradientUnits="userSpaceOnUse">
<stop stop-color="#EBF7FF"/>
<stop offset="0.98" stop-color="white"/>
</linearGradient>
<linearGradient id="paint2_linear_402_14924" x1="120.8" y1="93.8951" x2="117.774" y2="136.203" gradientUnits="userSpaceOnUse">
<stop offset="0.02" stop-color="white"/>
<stop offset="1" stop-color="#EBF7FF"/>
</linearGradient>
<linearGradient id="paint3_linear_402_14924" x1="108.67" y1="88.7603" x2="109.229" y2="146.873" gradientUnits="userSpaceOnUse">
<stop stop-color="#AA4848"/>
<stop offset="0.31" stop-color="#A64444"/>
<stop offset="0.6" stop-color="#9B3A3A"/>
<stop offset="0.88" stop-color="#882A2A"/>
<stop offset="0.99" stop-color="#7F2222"/>
</linearGradient>
<linearGradient id="paint4_linear_402_14924" x1="113.454" y1="93.9451" x2="117.054" y2="93.9451" gradientUnits="userSpaceOnUse">
<stop stop-color="#FD8181"/>
<stop offset="0.32" stop-color="#FC7D7D"/>
<stop offset="0.61" stop-color="#FC7272"/>
<stop offset="0.89" stop-color="#FC5F5F"/>
<stop offset="1" stop-color="#FC5656"/>
</linearGradient>
<linearGradient id="paint5_linear_402_14924" x1="108.219" y1="113.449" x2="115.419" y2="113.449" gradientUnits="userSpaceOnUse">
<stop stop-color="#FD8181"/>
<stop offset="0.32" stop-color="#FC7D7D"/>
<stop offset="0.61" stop-color="#FC7272"/>
<stop offset="0.89" stop-color="#FC5F5F"/>
<stop offset="1" stop-color="#FC5656"/>
</linearGradient>
<linearGradient id="paint6_linear_402_14924" x1="125.069" y1="88.6772" x2="125.631" y2="147.012" gradientUnits="userSpaceOnUse">
<stop stop-color="#AA4848"/>
<stop offset="0.31" stop-color="#A64444"/>
<stop offset="0.6" stop-color="#9B3A3A"/>
<stop offset="0.88" stop-color="#882A2A"/>
<stop offset="0.99" stop-color="#7F2222"/>
</linearGradient>
<linearGradient id="paint7_linear_402_14924" x1="53.4868" y1="89.7353" x2="54.3512" y2="86.6404" gradientUnits="userSpaceOnUse">
<stop stop-color="#D18080"/>
<stop offset="0.99" stop-color="#B55D5D"/>
</linearGradient>
<linearGradient id="paint8_linear_402_14924" x1="55.2308" y1="94.9412" x2="55.0125" y2="132.69" gradientUnits="userSpaceOnUse">
<stop offset="0.02" stop-color="white"/>
<stop offset="1" stop-color="#EBF7FF"/>
</linearGradient>
<linearGradient id="paint9_linear_402_14924" x1="51.4917" y1="92.2176" x2="47.8377" y2="139.69" gradientUnits="userSpaceOnUse">
<stop stop-color="#FD8181"/>
<stop offset="0.32" stop-color="#FC7D7D"/>
<stop offset="0.61" stop-color="#FC7272"/>
<stop offset="0.89" stop-color="#FC5F5F"/>
<stop offset="1" stop-color="#FC5E56"/>
</linearGradient>
<linearGradient id="paint10_linear_402_14924" x1="58.9486" y1="116.268" x2="72.1272" y2="116.268" gradientUnits="userSpaceOnUse">
<stop stop-color="#FD8181"/>
<stop offset="0.32" stop-color="#FC7D7D"/>
<stop offset="0.61" stop-color="#FC7272"/>
<stop offset="0.89" stop-color="#FC5F5F"/>
<stop offset="1" stop-color="#FC5656"/>
</linearGradient>
<linearGradient id="paint11_linear_402_14924" x1="68.5406" y1="121.639" x2="72.4642" y2="121.639" gradientUnits="userSpaceOnUse">
<stop stop-color="#EBF7FF"/>
<stop offset="0.98" stop-color="white"/>
</linearGradient>
<linearGradient id="paint12_linear_402_14924" x1="37.3357" y1="113.903" x2="69.6914" y2="113.903" gradientUnits="userSpaceOnUse">
<stop stop-color="#FD8181"/>
<stop offset="0.32" stop-color="#FC7D7D"/>
<stop offset="0.61" stop-color="#FC7272"/>
<stop offset="0.89" stop-color="#FC5F5F"/>
<stop offset="1" stop-color="#FC5656"/>
</linearGradient>
<clipPath id="clip0_402_14924">
<rect width="113.325" height="113.325" fill="white" transform="translate(32.793 29.6514)"/>
</clipPath>
</defs>
</svg>
