<svg width="166" height="166" viewBox="0 0 166 166" fill="none" xmlns="http://www.w3.org/2000/svg">
<path d="M166 126.956H0V127.039H166V126.956Z" fill="#EBEBEB"/>
<path d="M78.6914 112.15H14.5826C13.5378 112.15 12.6875 111.299 12.6875 110.255V20.1391C12.6875 19.0943 13.5378 18.2441 14.5826 18.2441H78.6914C79.7359 18.2441 80.5861 19.0943 80.5861 20.1391V110.255C80.5861 111.299 79.7359 112.15 78.6914 112.15ZM14.5826 18.3274C13.5832 18.3274 12.7705 19.1401 12.7705 20.1395V110.255C12.7705 111.254 13.5832 112.067 14.5826 112.067H78.6914C79.6904 112.067 80.5031 111.254 80.5031 110.255V20.1391C80.5031 19.1401 79.6904 18.3271 78.6914 18.3271L14.5826 18.3274Z" fill="#EBEBEB"/>
<path d="M150.503 112.15H86.3947C85.3499 112.15 84.5 111.299 84.5 110.255V20.1391C84.5 19.0943 85.3503 18.2441 86.3947 18.2441H150.503C151.548 18.2441 152.398 19.0943 152.398 20.1391V110.255C152.399 111.299 151.548 112.15 150.503 112.15ZM86.3947 18.3274C85.3957 18.3274 84.583 19.1401 84.583 20.1395V110.255C84.583 111.254 85.3957 112.067 86.3947 112.067H150.503C151.503 112.067 152.315 111.254 152.315 110.255V20.1391C152.315 19.1401 151.503 18.3271 150.503 18.3271L86.3947 18.3274Z" fill="#EBEBEB"/>
<path d="M149.365 132.3H140.734V132.383H149.365V132.3Z" fill="#EBEBEB"/>
<path d="M118.199 133.201H103.25V133.284H118.199V133.201Z" fill="#EBEBEB"/>
<path d="M140.402 129.217H120.219V129.3H140.402V129.217Z" fill="#EBEBEB"/>
<path d="M23.8001 129.775H17.4141V129.858H23.8001V129.775Z" fill="#EBEBEB"/>
<path d="M45.1148 129.775H26.7578V129.858H45.1148V129.775Z" fill="#EBEBEB"/>
<path d="M81.0512 131.177H56.3281V131.26H81.0512V131.177Z" fill="#EBEBEB"/>
<path d="M125.697 125.256H128.352V76.1021H125.697V125.256Z" fill="#F0F0F0"/>
<path d="M112.944 126.951H127.648V125.255H112.944V126.951Z" fill="#F0F0F0"/>
<path d="M125.693 76.1017H112.242V125.255H125.693V76.1017Z" fill="#F5F5F5"/>
<path d="M124.255 101.697H113.672V110.474H124.255V101.697Z" fill="#F0F0F0"/>
<path d="M124.255 113.185H113.672V121.962H124.255V113.185Z" fill="#F0F0F0"/>
<path d="M117.555 106.687H120.375C120.59 106.687 120.766 106.511 120.766 106.296V105.875C120.766 105.66 120.59 105.484 120.375 105.484H117.555C117.34 105.484 117.164 105.66 117.164 105.875V106.296C117.164 106.511 117.34 106.687 117.555 106.687Z" fill="#F5F5F5"/>
<path d="M117.555 118.175H120.375C120.59 118.175 120.766 117.999 120.766 117.784V117.362C120.766 117.147 120.59 116.971 120.375 116.971H117.555C117.34 116.971 117.164 117.147 117.164 117.362V117.784C117.164 117.999 117.34 118.175 117.555 118.175Z" fill="#F5F5F5"/>
<path d="M124.255 78.8125H113.672V87.5896H124.255V78.8125Z" fill="#F0F0F0"/>
<path d="M124.255 90.2094H113.672V98.9865H124.255V90.2094Z" fill="#F0F0F0"/>
<path d="M117.555 83.8028H120.375C120.59 83.8028 120.766 83.6268 120.766 83.4117V82.9904C120.766 82.7753 120.59 82.5993 120.375 82.5993H117.555C117.34 82.5993 117.164 82.7753 117.164 82.9904V83.4117C117.164 83.6268 117.34 83.8028 117.555 83.8028Z" fill="#F5F5F5"/>
<path d="M117.555 95.1997H120.375C120.59 95.1997 120.766 95.0237 120.766 94.8086V94.3876C120.766 94.1725 120.59 93.9965 120.375 93.9965H117.555C117.34 93.9965 117.164 94.1725 117.164 94.3876V94.8086C117.164 95.0234 117.34 95.1997 117.555 95.1997Z" fill="#F5F5F5"/>
<path d="M140.416 125.256H148.383V76.1021H140.416V125.256Z" fill="#F0F0F0"/>
<path d="M127.66 126.951H147.562V125.255H127.66V126.951Z" fill="#F0F0F0"/>
<path d="M140.412 76.1017H126.961V125.255H140.412V76.1017Z" fill="#F5F5F5"/>
<path d="M138.973 101.697H128.391V110.474H138.973V101.697Z" fill="#F0F0F0"/>
<path d="M138.973 113.185H128.391V121.962H138.973V113.185Z" fill="#F0F0F0"/>
<path d="M132.282 106.687H135.101C135.317 106.687 135.492 106.511 135.492 106.296V105.875C135.492 105.66 135.317 105.484 135.101 105.484H132.282C132.067 105.484 131.891 105.66 131.891 105.875V106.296C131.89 106.511 132.067 106.687 132.282 106.687Z" fill="#F5F5F5"/>
<path d="M132.282 118.175H135.101C135.317 118.175 135.492 117.999 135.492 117.784V117.362C135.492 117.147 135.317 116.971 135.101 116.971H132.282C132.067 116.971 131.891 117.147 131.891 117.362V117.784C131.89 117.999 132.067 118.175 132.282 118.175Z" fill="#F5F5F5"/>
<path d="M138.973 78.8125H128.391V87.5896H138.973V78.8125Z" fill="#F0F0F0"/>
<path d="M138.973 90.2094H128.391V98.9865H138.973V90.2094Z" fill="#F0F0F0"/>
<path d="M132.282 83.8028H135.101C135.317 83.8028 135.492 83.6268 135.492 83.4117V82.9904C135.492 82.7753 135.317 82.5993 135.101 82.5993H132.282C132.067 82.5993 131.891 82.7753 131.891 82.9904V83.4117C131.89 83.6268 132.067 83.8028 132.282 83.8028Z" fill="#F5F5F5"/>
<path d="M132.282 95.1997H135.101C135.317 95.1997 135.492 95.0237 135.492 94.8086V94.3876C135.492 94.1725 135.317 93.9965 135.101 93.9965H132.282C132.067 93.9965 131.891 94.1725 131.891 94.3876V94.8086C131.89 95.0234 132.067 95.1997 132.282 95.1997Z" fill="#F5F5F5"/>
<path d="M97.1584 65.8425H141.883V26.5798L97.1584 26.5798V65.8425Z" fill="#E6E6E6"/>
<path d="M92.3658 25.0525H144.778C145.023 25.0525 145.222 25.2514 145.222 25.4964C145.222 25.7417 145.023 25.9403 144.778 25.9403H92.3658C92.1204 25.9403 91.9219 25.7414 91.9219 25.4964C91.9219 25.251 92.1204 25.0525 92.3658 25.0525Z" fill="#E6E6E6"/>
<path d="M95.2569 65.8425H140.992V26.5798L95.2569 26.5798V65.8425Z" fill="#F0F0F0"/>
<path d="M97.1512 65.8423H141.876V67.1003H95.8438L97.1512 65.8423Z" fill="#E6E6E6"/>
<path d="M92.0965 65.8423H137.832L136.524 67.1003H90.7891L92.0965 65.8423Z" fill="#F0F0F0"/>
<path d="M138.336 63.1857V29.2368L97.9143 29.2368V63.1857L138.336 63.1857Z" fill="#FAFAFA"/>
<path d="M129.158 63.1857L113.564 29.2367H106.203L121.797 63.1857H129.158Z" fill="white"/>
<path d="M120.214 63.1857L104.62 29.2367H101.75L117.344 63.1857H120.214Z" fill="white"/>
<path d="M98.25 63.1857V29.2367H97.9127V63.1857H98.25Z" fill="#E6E6E6"/>
<g opacity="0.4">
<path d="M138.302 56.6584H142.875V24.2578H138.302V56.6584Z" fill="#F0F0F0"/>
<path d="M136.524 56.6584H140.086V24.2578H136.524V56.6584Z" fill="#E6E6E6"/>
<path d="M133.732 56.6584H138.305V24.2578H133.732V56.6584Z" fill="#F0F0F0"/>
<path d="M131.945 56.6584H135.508V24.2578H131.945V56.6584Z" fill="#E6E6E6"/>
<path d="M129.154 56.6584H133.727V24.2578H129.154V56.6584Z" fill="#F0F0F0"/>
</g>
<g opacity="0.4">
<path d="M99.6149 56.6584H102.25V24.2578H99.6149V56.6584Z" fill="#F0F0F0"/>
<path d="M98.5879 56.6584H100.641V24.2578H98.5879V56.6584Z" fill="#E6E6E6"/>
<path d="M96.9821 56.6584H99.6172V24.2578H96.9821V56.6584Z" fill="#F0F0F0"/>
<path d="M95.9551 56.6584H98.0078V24.2578H95.9551V56.6584Z" fill="#E6E6E6"/>
<path d="M94.3415 56.6584H96.9766V24.2578H94.3415V56.6584Z" fill="#F0F0F0"/>
</g>
<path d="M54.5156 50.3631H60.8462L60.0985 34.3143H54.5156V50.3631Z" fill="#F5F5F5"/>
<path d="M64.4247 51.2314L65.7903 58.3605H64.4247L56.0547 51.2314H64.4247Z" fill="#F5F5F5"/>
<path d="M65.7919 51.2314V58.3605L57.4219 51.2314H65.7919Z" fill="#E6E6E6"/>
<path d="M31.5966 51.2314L32.9621 58.3605H31.5966L23.2266 51.2314H31.5966Z" fill="#F5F5F5"/>
<path d="M32.9638 51.2314V58.3605L24.5938 51.2314H32.9638Z" fill="#E6E6E6"/>
<path d="M71.9312 50.3879H62.8281V51.4161H71.9312V50.3879Z" fill="#E6E6E6"/>
<path d="M17.5699 51.416L62.8281 51.416V50.3878L17.5699 50.3878V51.416Z" fill="#F5F5F5"/>
<path d="M45.2188 50.3632H58.8059L60.4858 30.9156H46.8987L45.2188 50.3632Z" fill="#E6E6E6"/>
<path d="M44.5156 50.3632H58.1027L59.7826 30.9156H46.1955L44.5156 50.3632Z" fill="#F0F0F0"/>
<path d="M56.9655 48.2102L58.502 33.0683H47.3412L45.8047 48.2102H56.9655Z" fill="white"/>
<path d="M39.1406 50.3631H43.4991L42.9849 39.3128H39.1406V50.3631Z" fill="#E0E0E0"/>
<path d="M32.7344 50.363H42.0898L43.2465 36.9725H33.8911L32.7344 50.363Z" fill="#F0F0F0"/>
<path d="M32.25 50.363H41.6054L42.7621 36.9725H33.407L32.25 50.363Z" fill="#F5F5F5"/>
<path d="M40.8176 48.8806L41.8757 38.4548H34.1906L33.1328 48.8806H40.8176Z" fill="#E0E0E0"/>
<path d="M87.108 78.4979C87.1933 79.5334 86.4227 80.4418 85.3872 80.5271C84.3517 80.6124 83.443 79.8418 83.358 78.8063C83.2727 77.7708 84.0433 76.8621 85.0788 76.7771C86.1143 76.6918 87.0226 77.4624 87.108 78.4979Z" fill="#E0E0E0"/>
<path d="M90.6001 79.482C90.6855 80.5175 89.9149 81.4258 88.8794 81.5112C87.8439 81.5965 86.9355 80.8259 86.8502 79.7904C86.7649 78.7549 87.5355 77.8462 88.571 77.7612C89.6065 77.6759 90.5152 78.4465 90.6001 79.482Z" fill="#E0E0E0"/>
<path d="M93.1314 78.3581C93.2167 79.3936 92.4461 80.3023 91.4106 80.3873C90.3751 80.4726 89.4664 79.7021 89.3815 78.6666C89.2961 77.6311 90.0667 76.7227 91.1022 76.6374C92.1377 76.5521 93.0461 77.3223 93.1314 78.3581Z" fill="#E0E0E0"/>
<path d="M95.7955 79.0547C95.8808 80.0902 95.1102 80.9989 94.0747 81.0839C93.0392 81.1692 92.1308 80.3986 92.0455 79.3631C91.9602 78.3276 92.7308 77.4192 93.7663 77.3339C94.8018 77.2489 95.7105 78.0192 95.7955 79.0547Z" fill="#E0E0E0"/>
<path d="M98.1897 79.3585C98.1897 79.3585 97.9706 84.5838 89.5753 84.5838C81.1801 84.5838 80.9609 79.3585 80.9609 79.3585H98.1897Z" fill="#F0F0F0"/>
<path d="M19.8799 126.956H22.9297L22.9297 84.5838H19.8799L19.8799 126.956Z" fill="#E6E6E6"/>
<path d="M19.0629 126.956H20.8594L20.8594 84.5838H19.0629L19.0629 126.956Z" fill="#F0F0F0"/>
<path d="M61.8195 84.5838H18.5078V87.762H61.8195V84.5838Z" fill="#F0F0F0"/>
<path d="M102.841 126.956H105.891V84.5838H102.841V126.956Z" fill="#E6E6E6"/>
<path d="M102.266 126.956H104.062V84.5838H102.266V126.956Z" fill="#F0F0F0"/>
<path d="M106.437 84.5838H63.125V87.762H106.437V84.5838Z" fill="#E6E6E6"/>
<path d="M62.0831 126.956H65.1328V84.5839H62.0831L62.0831 126.956Z" fill="#E6E6E6"/>
<path d="M61.266 126.956H63.0625L63.0625 84.5838H61.266L61.266 126.956Z" fill="#F0F0F0"/>
<path d="M72.0961 70.4904H49.4809L45.4531 83.8448H68.0683L72.0961 70.4904Z" fill="#E6E6E6"/>
<path d="M68.0672 83.8448L67.9755 84.5832H45.3594L45.4507 83.8448H68.0672Z" fill="#E6E6E6"/>
<path d="M71.4008 70.4904H48.7856L44.7578 83.8448H67.373L71.4008 70.4904Z" fill="#F0F0F0"/>
<path d="M66.9295 83.2349L70.5892 71.1006H49.2303L45.5703 83.2349H66.9295Z" fill="white"/>
<path d="M61.4797 83.8448L61.3884 84.5832H36.4844L36.5757 83.8448H61.4797Z" fill="#F0F0F0"/>
<path d="M82.9962 141.95C118.547 141.95 147.367 140.267 147.367 138.191C147.367 136.115 118.547 134.432 82.9962 134.432C47.4449 134.432 18.625 136.115 18.625 138.191C18.625 140.267 47.4449 141.95 82.9962 141.95Z" fill="#F5F5F5"/>
<path d="M46.6442 72.0832L116.056 71.5791L117.99 118.77L46.1172 118.104L46.6442 72.0832Z" fill="#EA3934"/>
<path d="M46.6484 72.0835L81.8875 43.5693L116.06 71.5794" fill="#EA3934"/>
<g opacity="0.3">
<path d="M46.6484 72.0835L81.8875 43.5693L116.06 71.5794" fill="black"/>
</g>
<path d="M46.001 117.999C45.9183 117.923 51.2237 112.266 57.85 105.363C64.4782 98.4588 69.9164 92.9249 69.999 93.0008C70.0817 93.0766 64.7773 98.7334 58.1491 105.638C51.5233 112.54 46.0841 118.075 46.001 117.999Z" fill="#263238"/>
<path d="M117.993 118.77C117.904 118.849 112.492 112.905 105.907 105.494C99.3195 98.0813 94.0531 92.0101 94.1417 91.9314C94.2303 91.8527 99.6411 97.7962 106.228 105.209C112.814 112.619 118.082 118.692 117.993 118.77Z" fill="#263238"/>
<g opacity="0.5">
<path d="M116.06 71.579L81.2052 99.4229L46.6484 72.083" fill="black"/>
</g>
<path d="M50.1402 74.6617L50.0391 54.47L110.832 52.9828L111.496 75.074L81.1977 99.0584L50.1402 74.6617Z" fill="#EBEBEB"/>
<path d="M82.046 91.8045C81.4715 91.8045 80.8929 91.7716 80.3133 91.7059C76.299 91.2514 72.7023 89.2607 70.1861 86.1003C67.6695 82.9409 66.5342 78.9897 66.9887 74.9759C67.9275 66.6894 75.4332 60.71 83.7192 61.6514C87.733 62.1059 91.3297 64.0966 93.8464 67.2565C96.363 70.4164 97.4983 74.3671 97.0438 78.3814C96.5893 82.3951 94.5986 85.9918 91.4381 88.5085C88.7343 90.6619 85.4519 91.8045 82.046 91.8045ZM82.0058 62.0757C74.6836 62.0757 68.3508 67.5902 67.5068 75.0349C67.0679 78.9105 68.1642 82.7251 70.5943 85.7766C73.0244 88.827 76.4966 90.7494 80.3722 91.1883C84.2467 91.6299 88.0624 90.531 91.1139 88.1014C94.1643 85.6713 96.0868 82.1991 96.5257 78.323C96.9651 74.4474 95.8689 70.6328 93.4387 67.5818C91.0091 64.5308 87.5365 62.6089 83.6603 62.1695C83.1052 62.1064 82.5521 62.0757 82.0058 62.0757Z" fill="#EA3934"/>
<path d="M71.7344 78.779L74.2615 75.6816L80.1742 79.9529L89.7821 68.6284L92.6788 71.1758L80.3222 85.4173L71.7344 78.779Z" fill="#EA3934"/>
</svg>
