<svg width="181" height="158" viewBox="0 0 181 158" fill="none" xmlns="http://www.w3.org/2000/svg">
<path opacity="0.7" d="M18.7149 82.6976C18.7149 82.6976 28.302 41.5739 52.6161 28.8196C76.9302 16.0654 92.6677 26.2455 109.687 34.3707C126.706 42.4958 154.754 44.0172 163.477 62.4142C172.199 80.8113 173.99 96.498 162.826 109.851C151.663 123.204 140.542 122.287 112.207 127C83.873 131.713 84.3407 146.113 59.4035 149.546C34.4663 152.978 22.7781 123.714 19.468 108.475C16.1579 93.2354 18.7149 82.6976 18.7149 82.6976Z" fill="#FEF2F2"/>
<g clip-path="url(#clip0_402_15002)">
<path d="M94.8321 60.2656C94.8321 62.101 94.833 61 94.833 63.5897V122.554C94.833 124.135 93.5515 125.415 91.9717 125.415H43.9433C42.3627 125.415 41.082 124.135 41.082 122.554V63.5897C41.082 60.2656 41.082 62.101 41.082 60.2656C41.082 58.4302 41.082 59.5 41.082 56.9423V47.1806C41.082 45.6009 42.3635 44.3193 43.9433 44.3193H91.9709C93.5515 44.3193 94.8321 45.6009 94.8321 47.1806V56.9423C94.8321 60 94.8321 58.4294 94.8321 60.2656Z" fill="white" stroke="#E6E6E6" stroke-width="0.167081" stroke-miterlimit="10"/>
<path d="M70.8245 114H88.0857C90.1959 114 91.9102 115.713 91.9102 117.824C91.9102 119.935 90.1968 121.649 88.0857 121.649H70.8245C68.7143 121.649 67 119.936 67 117.824C67 115.714 68.7134 114 70.8245 114Z" fill="#EA3934"/>
<rect opacity="0.1" x="47" y="89" width="38" height="1" fill="#191919"/>
<rect opacity="0.1" x="47" y="94" width="38" height="1" fill="#191919"/>
<rect opacity="0.1" x="47" y="99" width="38" height="1" fill="#191919"/>
<rect opacity="0.1" x="47" y="104" width="38" height="1" fill="#191919"/>
<rect opacity="0.1" x="47" y="109" width="38" height="1" fill="#191919"/>
<g clip-path="url(#clip1_402_15002)">
<mask id="mask0_402_15002" style="mask-type:luminance" maskUnits="userSpaceOnUse" x="45" y="47" width="45" height="38">
<path d="M89.3025 48.0809L45.6951 47.8317L45.4824 83.7661L89.0899 84.0153L89.3025 48.0809Z" fill="white"/>
</mask>
<g mask="url(#mask0_402_15002)">
<path d="M89.3028 48.0837L45.6953 47.8345L45.4826 83.7689L89.0901 84.0181L89.3028 48.0837Z" fill="#D4EFFF"/>
<path d="M96.122 65.4429C94.2308 63.9158 91.4753 63.5516 89.253 64.5342C87.4632 65.3252 85.9939 66.913 84.0553 67.1759C83.1377 67.3003 82.1973 67.1106 81.2828 67.2562C78.4444 67.7095 76.966 71.0743 74.2786 72.0978C72.6414 72.7217 70.7178 72.4033 69.1755 73.2355C67.5364 74.1198 66.3747 76.2475 64.5224 76.0606C62.7431 75.8815 61.9828 73.7128 60.5544 72.6342C59.2758 71.6679 57.4411 71.5953 56.2979 70.4694C55.5351 69.7188 55.0255 68.4906 53.9604 68.4106C53.6221 68.3861 53.288 68.492 52.948 68.5011C51.3614 68.5454 50.5447 66.6807 49.418 65.5598C47.3366 63.4922 43.2233 64.3554 42.1419 67.0857L43.446 83.9517C44.765 84.7751 46.4282 84.705 47.979 84.6212C59.0069 84.0175 70.0708 84.0227 81.0937 84.7151C85.5822 84.9979 90.1441 85.4124 94.3189 87.0901C95.7305 79.9739 94.3869 72.487 96.1241 65.443L96.122 65.4429Z" fill="#B6CEDB"/>
</g>
<path d="M86.8281 53.338C85.9462 52.6657 84.73 52.3263 83.7136 52.7654C83.247 52.9681 82.8424 53.3228 82.3429 53.4251C81.6656 53.5652 80.9948 53.2139 80.321 53.06C79.6451 52.906 78.7451 53.1006 78.6058 53.781C78.2891 53.1251 77.9586 52.4497 77.4137 51.9657C76.8687 51.4818 76.0506 51.2328 75.398 51.5568C74.6767 51.9154 74.0778 52.9185 73.3455 52.5832C73.1117 52.4755 72.9447 52.2406 72.6989 52.1659C71.8787 51.9168 71.6295 53.4534 70.8015 53.6766C70.517 53.7534 70.222 53.6532 69.9303 53.6184C68.9175 53.4966 68.0479 54.1528 67.3193 54.9292C74.3458 55.2592 81.3827 55.3271 88.4153 55.1321C87.9629 54.4635 87.4651 53.8263 86.828 53.3401L86.8281 53.338Z" fill="white"/>
<path d="M79.7212 56.4418L77.8015 56.4308L77.7928 57.9019L79.7125 57.9129L79.7212 56.4418Z" fill="#EFE9CA"/>
<path d="M81.198 57.682L53.5576 57.524L53.4427 76.9382L81.0831 77.0962L81.198 57.682Z" fill="#EFE9CA"/>
<g style="mix-blend-mode:multiply">
<path d="M53.4477 76.3721L81.0871 76.5291" stroke="#BCBEC0" stroke-width="0.113139" stroke-miterlimit="10"/>
</g>
<g style="mix-blend-mode:multiply">
<path d="M53.4522 75.4897L81.0936 75.649" stroke="#BCBEC0" stroke-width="0.113139" stroke-miterlimit="10"/>
</g>
<g style="mix-blend-mode:multiply">
<path d="M53.4585 74.6098L81.0978 74.7668" stroke="#BCBEC0" stroke-width="0.113139" stroke-miterlimit="10"/>
</g>
<g style="mix-blend-mode:multiply">
<path d="M53.4629 73.7296L81.1043 73.8868" stroke="#BCBEC0" stroke-width="0.113139" stroke-miterlimit="10"/>
</g>
<g style="mix-blend-mode:multiply">
<path d="M53.469 72.8477L81.1083 73.0047" stroke="#BCBEC0" stroke-width="0.113139" stroke-miterlimit="10"/>
</g>
<g style="mix-blend-mode:multiply">
<path d="M53.4736 71.9676L81.1151 72.1247" stroke="#BCBEC0" stroke-width="0.113139" stroke-miterlimit="10"/>
</g>
<g style="mix-blend-mode:multiply">
<path d="M53.4797 71.0854L81.1191 71.2424" stroke="#BCBEC0" stroke-width="0.113139" stroke-miterlimit="10"/>
</g>
<g style="mix-blend-mode:multiply">
<path d="M53.4841 70.2052L81.1256 70.3624" stroke="#BCBEC0" stroke-width="0.113139" stroke-miterlimit="10"/>
</g>
<g style="mix-blend-mode:multiply">
<path d="M53.49 69.325L81.1293 69.482" stroke="#BCBEC0" stroke-width="0.113139" stroke-miterlimit="10"/>
</g>
<g style="mix-blend-mode:multiply">
<path d="M53.4941 68.4431L81.1356 68.6003" stroke="#BCBEC0" stroke-width="0.113139" stroke-miterlimit="10"/>
</g>
<g style="mix-blend-mode:multiply">
<path d="M53.5 67.5629L81.1394 67.7199" stroke="#BCBEC0" stroke-width="0.113139" stroke-miterlimit="10"/>
</g>
<g style="mix-blend-mode:multiply">
<path d="M53.5041 66.6807L81.1456 66.8378" stroke="#BCBEC0" stroke-width="0.113139" stroke-miterlimit="10"/>
</g>
<g style="mix-blend-mode:multiply">
<path d="M53.5115 65.8007L81.1508 65.9577" stroke="#BCBEC0" stroke-width="0.113139" stroke-miterlimit="10"/>
</g>
<g style="mix-blend-mode:multiply">
<path d="M53.5144 64.9203L81.1538 65.0773" stroke="#BCBEC0" stroke-width="0.113139" stroke-miterlimit="10"/>
</g>
<g style="mix-blend-mode:multiply">
<path d="M53.5205 64.0385L81.1599 64.1955" stroke="#BCBEC0" stroke-width="0.113139" stroke-miterlimit="10"/>
</g>
<g style="mix-blend-mode:multiply">
<path d="M57.9831 64.2213L56.1137 66.5527L56.4952 66.8608L59.991 62.5015L63.435 66.8989L63.8225 66.5959L61.9809 64.2455L66.5299 64.2706L68.3339 64.2808L72.8996 64.3068L71.0304 66.6362L71.4118 66.9442L74.9075 62.587L78.3515 66.9844L78.7369 66.6813L76.8954 64.3288L81.1594 64.353L81.1957 58.2134L68.3703 58.1413L66.5662 58.1311L53.5564 58.0564L53.5201 64.196L57.9831 64.2213Z" fill="#BCBEC0"/>
</g>
<path d="M60.9656 64.7672L60.0039 64.7613C59.875 64.9149 59.7463 65.0663 59.6174 65.2199C59.2086 65.7068 58.7957 66.1914 58.3688 66.6627L58.3647 67.4525C59.299 66.625 60.1675 65.7272 60.9656 64.7672Z" fill="#96D9D1"/>
<path d="M60.0025 64.7609L59.2797 64.756C58.9648 65.2074 58.6783 65.6791 58.3715 66.1352L58.3674 66.6623C58.7943 66.191 59.2051 65.7063 59.616 65.2195C59.7449 65.0659 59.8737 64.9145 60.0025 64.7609Z" fill="#A0E8E1"/>
<path d="M58.3813 64.7534L58.3741 66.1377C58.6808 65.6816 58.9674 65.2099 59.2823 64.7585L58.3813 64.7534Z" fill="#96D9D1"/>
<path d="M60.965 64.7671C60.1669 65.7271 59.2984 66.625 58.3641 67.4525L58.3612 67.8221L58.8075 67.8244C59.2748 67.4727 59.742 67.1251 60.2113 66.7755C60.611 66.4794 61.0151 66.1814 61.4323 65.9134L61.4385 64.7707L60.9607 64.769L60.965 64.7671Z" fill="#A0E8E1"/>
<path d="M58.8094 67.8243L61.4243 67.8394L61.4363 65.9133C61.0169 66.1833 60.615 66.4794 60.2153 66.7755C59.7461 67.123 59.2767 67.4725 58.8115 67.8244L58.8094 67.8243Z" fill="#96D9D1"/>
<path d="M61.322 64.8399L61.306 67.7323L58.4206 67.7169L58.4367 64.8246L61.322 64.8399ZM61.4869 64.6776L58.2727 64.6592L58.2536 67.8812L61.4678 67.8997L61.4869 64.6776Z" fill="#5E5C50"/>
<path d="M59.7954 64.7567C59.7896 65.7607 59.7837 66.7647 59.7779 67.7688C59.7771 67.8738 59.9402 67.8815 59.941 67.7765C59.9468 66.7725 59.9527 65.7685 59.9585 64.7645C59.9593 64.6595 59.7962 64.6517 59.7954 64.7567Z" fill="#5E5C50"/>
<path d="M58.3628 66.3398L61.3674 66.3567C61.4722 66.3575 61.48 66.194 61.3752 66.1932L58.3705 66.1763C58.2658 66.1756 58.258 66.3391 58.3628 66.3398Z" fill="#5E5C50"/>
<path d="M61.91 64.263L57.9512 64.2404L57.9495 64.5195L61.9083 64.5421L61.91 64.263Z" fill="#6E6C5D"/>
<path d="M61.8275 64.4028L58.0466 64.3812L58.045 64.6603L61.8258 64.6819L61.8275 64.4028Z" fill="#6E6C5D"/>
<path d="M61.8878 67.9814L57.929 67.9587L57.9273 68.2379L61.8861 68.2605L61.8878 67.9814Z" fill="#6E6C5D"/>
<path d="M61.8099 67.8429L58.0291 67.8213L58.0274 68.1004L61.8082 68.122L61.8099 67.8429Z" fill="#6E6C5D"/>
<path d="M75.9258 64.8499L74.9641 64.8441C74.8352 64.9976 74.7065 65.1491 74.5776 65.3026C74.1688 65.7895 73.7559 66.2742 73.329 66.7455L73.3249 67.5353C74.2593 66.7078 75.1277 65.8099 75.9258 64.8499Z" fill="#96D9D1"/>
<path d="M74.9627 64.8442L74.2399 64.8392C73.925 65.2907 73.6385 65.7624 73.3317 66.2184L73.3276 66.7456C73.7545 66.2743 74.1653 65.7895 74.5762 65.3027C74.7051 65.1492 74.8339 64.9977 74.9627 64.8442Z" fill="#A0E8E1"/>
<path d="M73.342 64.8344L73.3348 66.2186C73.6415 65.7626 73.928 65.2909 74.2429 64.8394L73.342 64.8344Z" fill="#96D9D1"/>
<path d="M75.9254 64.8499C75.1273 65.8099 74.2588 66.7077 73.3245 67.5352L73.3216 67.9049L73.7679 67.9072C74.2353 67.5554 74.7024 67.2079 75.1718 66.8583C75.5715 66.5622 75.9755 66.2641 76.3928 65.9961L76.3989 64.8535L75.9211 64.8518L75.9254 64.8499Z" fill="#A0E8E1"/>
<path d="M73.7696 67.9074L76.3845 67.9225L76.3965 65.9965C75.9771 66.2664 75.5752 66.5625 75.1755 66.8586C74.7063 67.2061 74.2369 67.5556 73.7717 67.9075L73.7696 67.9074Z" fill="#96D9D1"/>
<path d="M76.2892 64.9259L76.2731 67.8183L73.3878 67.8029L73.4039 64.9105L76.2892 64.9259ZM76.4542 64.7615L73.24 64.7431L73.2208 67.9651L76.435 67.9835L76.4542 64.7615Z" fill="#5E5C50"/>
<path d="M74.7629 64.8406L74.7454 67.8526C74.7446 67.9576 74.9077 67.9654 74.9085 67.8604L74.9261 64.8483C74.9269 64.7433 74.7637 64.7356 74.7629 64.8406Z" fill="#5E5C50"/>
<path d="M73.3303 66.4237L76.335 66.4406C76.4397 66.4414 76.4475 66.2778 76.3428 66.2771L73.3381 66.2602C73.2333 66.2594 73.2255 66.4229 73.3303 66.4237Z" fill="#5E5C50"/>
<path d="M76.8753 64.3472L72.9165 64.3246L72.9149 64.6037L76.8736 64.6263L76.8753 64.3472Z" fill="#6E6C5D"/>
<path d="M76.7948 64.4869L73.0139 64.4653L73.0123 64.7444L76.7931 64.7661L76.7948 64.4869Z" fill="#6E6C5D"/>
<path d="M76.8611 68.0686L72.9023 68.046L72.9007 68.3251L76.8595 68.3478L76.8611 68.0686Z" fill="#6E6C5D"/>
<path d="M76.7804 67.9279L72.9995 67.9062L72.9979 68.1854L76.7787 68.207L76.7804 67.9279Z" fill="#6E6C5D"/>
<path d="M60.9227 70.9962L59.9609 70.9903C59.8321 71.1439 59.7033 71.2953 59.5744 71.4489C59.1656 71.9358 58.7527 72.4204 58.3258 72.8917L58.3218 73.6815C59.2561 72.854 60.1246 71.9562 60.9227 70.9962Z" fill="#96D9D1"/>
<path d="M59.9596 70.9903L59.2367 70.9853C58.9218 71.4368 58.6353 71.9085 58.3286 72.3645L58.3244 72.8917C58.7514 72.4204 59.1622 71.9357 59.5731 71.4489C59.7019 71.2953 59.8307 71.1439 59.9596 70.9903Z" fill="#A0E8E1"/>
<path d="M58.3388 70.9805L58.3316 72.3647C58.6384 71.9087 58.9249 71.437 59.2398 70.9855L58.3388 70.9805Z" fill="#96D9D1"/>
<path d="M60.922 70.996C60.1239 71.956 59.2554 72.8538 58.3211 73.6813L58.3182 74.051L58.7645 74.0533C59.2319 73.7015 59.699 73.354 60.1683 73.0044C60.5681 72.7083 60.9721 72.4103 61.3893 72.1423L61.3955 70.9996L60.9177 70.9979L60.922 70.996Z" fill="#A0E8E1"/>
<path d="M58.7662 74.0536L61.3811 74.0688L61.3931 72.1427C60.9736 72.4127 60.5718 72.7087 60.1721 73.0049C59.7029 73.3523 59.2335 73.7019 58.7683 74.0537L58.7662 74.0536Z" fill="#96D9D1"/>
<path d="M61.2845 71.0719L61.2685 73.9642L58.3832 73.9489L58.3992 71.0565L61.2845 71.0719ZM61.4495 70.9075L58.2353 70.889L58.2162 74.1111L61.4304 74.1295L61.4495 70.9075Z" fill="#5E5C50"/>
<path d="M59.7561 70.9884C59.7503 71.9924 59.7444 72.9964 59.7386 74.0004C59.7378 74.1055 59.9009 74.1132 59.9017 74.0082C59.9075 73.0042 59.9134 72.0002 59.9192 70.9962C59.92 70.8912 59.7569 70.8834 59.7561 70.9884Z" fill="#5E5C50"/>
<path d="M58.3256 72.5697L61.3303 72.5866C61.4351 72.5873 61.4429 72.4238 61.3381 72.4231L58.3334 72.4062C58.2287 72.4054 58.2209 72.5689 58.3256 72.5697Z" fill="#5E5C50"/>
<path d="M61.8721 70.4933L57.9133 70.4707L57.9117 70.7498L61.8705 70.7724L61.8721 70.4933Z" fill="#6E6C5D"/>
<path d="M61.7896 70.6332L58.0088 70.6116L58.0071 70.8907L61.788 70.9123L61.7896 70.6332Z" fill="#6E6C5D"/>
<path d="M61.8492 74.214L57.8904 74.1914L57.8887 74.4705L61.8475 74.4931L61.8492 74.214Z" fill="#6E6C5D"/>
<path d="M61.7716 74.0754L57.9907 74.0538L57.9891 74.3329L61.7699 74.3546L61.7716 74.0754Z" fill="#6E6C5D"/>
<path d="M75.8897 71.0822L74.928 71.0764C74.7991 71.2299 74.6703 71.3814 74.5415 71.5349C74.1327 72.0218 73.7198 72.5065 73.2928 72.9778L73.2888 73.7676C74.2231 72.9401 75.0916 72.0422 75.8897 71.0822Z" fill="#96D9D1"/>
<path d="M74.9266 71.0765L74.2037 71.0715C73.8889 71.523 73.6023 71.9947 73.2956 72.4507L73.2915 72.9779C73.7184 72.5066 74.1292 72.0218 74.5401 71.535C74.669 71.3815 74.7977 71.23 74.9266 71.0765Z" fill="#A0E8E1"/>
<path d="M73.3058 71.0667L73.2987 72.4509C73.6054 71.9949 73.8919 71.5232 74.2068 71.0717L73.3058 71.0667Z" fill="#96D9D1"/>
<path d="M75.889 71.0822C75.0909 72.0422 74.2225 72.94 73.2882 73.7675L73.2852 74.1372L73.7316 74.1395C74.1989 73.7877 74.666 73.4402 75.1354 73.0906C75.5351 72.7945 75.9391 72.4964 76.3564 72.2284L76.3625 71.0858L75.8847 71.0841L75.889 71.0822Z" fill="#A0E8E1"/>
<path d="M73.7337 74.1377L76.3486 74.1529L76.3606 72.2268C75.9412 72.4968 75.5394 72.7928 75.1396 73.089C74.6704 73.4364 74.201 73.786 73.7358 74.1378L73.7337 74.1377Z" fill="#96D9D1"/>
<path d="M76.2512 71.1555L76.2351 74.0478L73.3498 74.0325L73.3659 71.1401L76.2512 71.1555ZM76.4161 70.9932L73.2019 70.9747L73.1827 74.1968L76.397 74.2152L76.4161 70.9932Z" fill="#5E5C50"/>
<path d="M74.7234 71.0724L74.7059 74.0844C74.7051 74.1894 74.8682 74.1972 74.869 74.0922L74.8865 71.0801C74.8873 70.9751 74.7242 70.9674 74.7234 71.0724Z" fill="#5E5C50"/>
<path d="M73.2922 72.6554L76.2969 72.6723C76.4016 72.673 76.4094 72.5095 76.3047 72.5088L73.3 72.4919C73.1952 72.4911 73.1874 72.6546 73.2922 72.6554Z" fill="#5E5C50"/>
<path d="M76.8392 70.5798L72.8804 70.5571L72.8787 70.8362L76.8375 70.8589L76.8392 70.5798Z" fill="#6E6C5D"/>
<path d="M76.7569 70.7173L72.9761 70.6957L72.9744 70.9748L76.7553 70.9964L76.7569 70.7173Z" fill="#6E6C5D"/>
<path d="M76.8221 74.3016L72.8633 74.2789L72.8616 74.558L76.8204 74.5807L76.8221 74.3016Z" fill="#6E6C5D"/>
<path d="M76.744 74.1609L72.9631 74.1393L72.9615 74.4184L76.7423 74.44L76.744 74.1609Z" fill="#6E6C5D"/>
<path d="M69.7906 76.9791L64.739 76.9502L64.7374 77.2167L69.789 77.2456L69.7906 76.9791Z" fill="#362B1F"/>
<path d="M69.2816 76.9524L65.1915 76.9302L65.2328 69.982L69.3229 70.0042L69.2816 76.9524ZM65.6864 76.4411L68.7937 76.4586L68.8281 70.4933L65.7207 70.4758L65.6864 76.4411Z" fill="#0A2831"/>
<path d="M69.0772 70.2532L65.4785 70.2327L65.4403 76.6901L69.039 76.7106L69.0772 70.2532Z" fill="#6E6C5D"/>
<path d="M67.6881 71.5908L67.6893 71.5215L66.849 71.5172L66.85 71.5845L66.7808 71.5854L66.7802 71.7304L66.8493 71.7316L66.8482 71.7987L67.6864 71.8029L67.6875 71.7357L67.7545 71.7368L67.7552 71.5898L67.6881 71.5908Z" fill="#EFE9CA"/>
<path d="M68.8636 73.0934L68.5015 73.0913L68.4966 73.9077L68.8588 73.9097L68.8636 73.0934Z" fill="#604D38"/>
<path d="M68.6741 73.6083C68.7284 73.6109 68.7745 73.5689 68.7771 73.5145C68.7797 73.4601 68.7378 73.4139 68.6835 73.4113C68.6292 73.4087 68.5831 73.4507 68.5805 73.5051C68.5779 73.5596 68.6198 73.6058 68.6741 73.6083Z" fill="#EDC984"/>
<path d="M69.3883 76.7087L65.1448 76.6844L65.1432 76.951L69.3867 76.9752L69.3883 76.7087Z" fill="#604D38"/>
<path d="M76.8118 63.793L83.3157 63.8292L81.3845 57.678L68.3726 57.6054L66.5706 57.5953L53.5587 57.5205L51.1986 63.6483L58.2996 63.6877L59.9974 61.5708L61.671 63.7073L66.5342 63.7348L68.3383 63.745L72.9627 63.7717L74.9011 61.3532L76.8118 63.793Z" fill="#0A2831"/>
<path d="M63.6314 66.2126L59.9979 61.5708L56.3083 66.171" stroke="#0A2831" stroke-width="1.32373" stroke-miterlimit="10"/>
<path d="M78.548 66.296L74.9144 61.6564L71.2249 66.2544" stroke="#0A2831" stroke-width="1.32373" stroke-miterlimit="10"/>
<path d="M80.0993 55.5769L77.4678 55.5619L77.4626 56.4286L80.0942 56.4437L80.0993 55.5769Z" fill="#6E6C5D"/>
<path d="M89.4116 77.2246L44.5083 76.968L44.4584 85.3981L89.3617 85.6547L89.4116 77.2246Z" fill="#3C7B73"/>
</g>
</g>
<g clip-path="url(#clip2_402_15002)">
<path d="M138.514 48.6423L132.868 49.1768L130.624 44.2157L131.24 49.7215L126.36 51.8265L131.645 51.2682L133.808 56.3688L133.332 50.9445L138.514 48.6423Z" fill="#FFD15C"/>
<path d="M93.1701 54.0288L93.4991 56.1859L91.3764 57.0963L93.5623 56.8778L94.4437 58.8901L94.3357 56.6751L96.3481 55.7937L94.0515 56.0412L93.1701 54.0288Z" fill="#FFD15C"/>
<path d="M91.953 61.5498L90.4164 57.9381L90.8482 61.8393L87.347 63.3469L91.1666 63.0546L92.7032 66.6663L92.2714 62.7651L95.9647 61.089L91.953 61.5498Z" fill="#CDD6E0"/>
<path d="M124.65 69.6307L114.552 58.5804L111.79 59.304L107.635 74.0886L124.65 69.6307Z" fill="#84DBFF"/>
<path d="M129.909 54.5566L114.552 58.5803L124.65 69.6307L129.909 54.5566Z" fill="#54C0EB"/>
<path d="M142.548 64.9413L130.02 54.5277L129.909 54.5567L124.65 69.6307L142.548 64.9413Z" fill="#84DBFF"/>
<path d="M124.3 102.545L124.65 69.6307L107.635 74.0886L124.3 102.545Z" fill="#42B0DC"/>
<path d="M111.79 59.304L95.8806 63.4724L107.635 74.0886L111.79 59.304Z" fill="#54C0EB"/>
<path d="M95.8807 63.4724L95.7702 63.5013L89.958 78.7201L107.635 74.0885L95.8807 63.4724Z" fill="#84DBFF"/>
<path d="M142.548 64.9411L124.3 102.545L89.958 78.7201L107.635 74.0885L124.3 102.545L124.65 69.6306L142.548 64.9411Z" fill="#54C0EB"/>
<path d="M123.752 66.2056L124.063 69.194L121.196 70.4175L124.295 70.0779L125.547 73.0556L125.179 69.8463L128.046 68.6228L124.947 68.9624L123.752 66.2056Z" fill="white"/>
<path d="M100.419 65.4713L100.729 68.4597L97.8621 69.6832L100.85 69.3725L102.213 72.3213L101.874 69.2225L104.712 67.8884L101.613 68.2281L100.419 65.4713Z" fill="white"/>
</g>
<defs>
<clipPath id="clip0_402_15002">
<rect width="111.566" height="81.2626" fill="white" transform="translate(41 44.2354)"/>
</clipPath>
<clipPath id="clip1_402_15002">
<rect width="43.0623" height="36.9105" fill="white" transform="translate(46 48)"/>
</clipPath>
<clipPath id="clip2_402_15002">
<rect width="54.8221" height="54.8221" fill="white" transform="translate(84 56.4314) rotate(-14.6818)"/>
</clipPath>
</defs>
</svg>
