<svg viewBox="0 0 126 126" fill="none" xmlns="http://www.w3.org/2000/svg">
<rect x="3.70588" y="3.70588" width="118.588" height="118.588" rx="59.2941" fill="#D0E4FA"/>
<rect x="3.70588" y="3.70588" width="118.588" height="118.588" rx="59.2941" stroke="#E8F1FD" stroke-width="6.58824"/>
<path fill-rule="evenodd" clip-rule="evenodd" d="M45.3401 72.691V60.9546C45.3401 60.5911 45.6347 60.2964 45.9983 60.2964C46.3618 60.2964 46.6565 60.5911 46.6565 60.9546V72.691C46.6565 72.7524 46.6066 72.8023 46.5453 72.8023H45.4514C45.3901 72.8022 45.3401 72.7522 45.3401 72.691ZM49.9298 86.7298C48.5427 87.2793 47.4598 88.4329 47.0023 89.8516C46.991 89.8866 46.9966 89.9216 47.0182 89.9512C47.0398 89.9809 47.0714 89.997 47.1081 89.997H78.8901C78.9268 89.997 78.9584 89.9809 78.98 89.9512C79.0016 89.9216 79.0072 89.8866 78.9959 89.8516C78.3389 87.813 76.4228 86.383 74.248 86.383H70.0934C70.0545 86.383 70.021 86.3648 69.9999 86.332L64.8067 78.264C64.7782 78.2198 64.784 78.1634 64.8208 78.1258C65.0973 77.8441 65.3078 77.5008 65.4311 77.1163L65.4349 77.1048L65.4421 77.0816L65.449 77.0584L65.459 77.0235L65.4652 77.0008C65.4653 77.0004 65.4655 76.9999 65.4656 76.9993L65.4773 76.9538C65.4775 76.9532 65.4776 76.9527 65.4778 76.952L65.4857 76.919C65.486 76.9178 65.4862 76.9167 65.4865 76.9155L65.5107 76.7988C65.5109 76.7978 65.5111 76.797 65.5112 76.796L65.513 76.7863C65.5131 76.7856 65.5132 76.7851 65.5133 76.7844L65.5249 76.7134C65.525 76.7126 65.5251 76.7119 65.5252 76.7112L65.53 76.6767C65.5301 76.6759 65.5303 76.6752 65.5303 76.6743L65.5387 76.6026C65.5388 76.6018 65.5388 76.6011 65.5389 76.6004L65.5407 76.582C65.5411 76.5782 65.5412 76.575 65.5412 76.5712V76.104C65.5412 76.1001 65.5411 76.0969 65.5406 76.093L65.5388 76.0747C65.5387 76.074 65.5387 76.0732 65.5385 76.0725L65.5301 76.0008C65.53 75.9999 65.5299 75.9992 65.5298 75.9984L65.525 75.964C65.5249 75.9632 65.5247 75.9625 65.5246 75.9616L65.5131 75.8907C65.513 75.89 65.5129 75.8895 65.5127 75.8888L65.5107 75.8776L65.5017 75.8304C65.5016 75.8298 65.5015 75.8292 65.5013 75.8284L65.4941 75.7942C65.494 75.7936 65.4939 75.7933 65.4938 75.7927L65.486 75.7578C65.0362 73.8242 62.6163 73.1116 61.1951 74.5328C60.8585 74.8694 60.6226 75.291 60.5138 75.7578L60.5059 75.7927C60.5057 75.7933 60.5056 75.7938 60.5055 75.7944L60.4983 75.8286C60.4982 75.8292 60.4981 75.8298 60.4979 75.8305L60.4889 75.8778L60.4869 75.8889C60.4868 75.8895 60.4867 75.8901 60.4865 75.8908L60.475 75.9618C60.4749 75.9626 60.4748 75.9633 60.4747 75.964L60.4699 75.9985C60.4697 75.9993 60.4696 76 60.4696 76.0009L60.4612 76.0726C60.4611 76.0734 60.4611 76.0741 60.461 76.0748L60.4592 76.0932C60.4588 76.097 60.4587 76.1002 60.4587 76.104V76.5712C60.4587 76.5751 60.4588 76.5783 60.4592 76.5822L60.461 76.6005C60.461 76.6012 60.4611 76.602 60.4612 76.6027L60.4696 76.6744C60.4697 76.6753 60.4699 76.676 60.47 76.677L60.4748 76.7113C60.4749 76.7121 60.475 76.7128 60.4751 76.7137L60.4867 76.7845C60.4868 76.7852 60.4869 76.7857 60.487 76.7864L60.4887 76.7961C60.4889 76.7971 60.4891 76.798 60.4892 76.799L60.5134 76.9158C60.5137 76.917 60.5139 76.918 60.5141 76.9192L60.5221 76.9522C60.5222 76.9528 60.5223 76.9534 60.5225 76.954L60.5343 76.9994C60.5344 77 60.5345 77.0005 60.5347 77.001L60.5408 77.0236L60.5505 77.0577C60.5507 77.0583 60.5509 77.0589 60.551 77.0595L60.5648 77.1049L60.5685 77.1164C60.6913 77.5002 60.9025 77.8448 61.1787 78.126C61.2155 78.1635 61.2214 78.2199 61.1929 78.2641L55.9996 86.332C55.9785 86.3648 55.945 86.383 55.9061 86.383H51.7502C51.1088 86.383 50.4945 86.506 49.9298 86.7298ZM67.9805 86.383H58.0192C57.9775 86.383 57.9416 86.3618 57.9215 86.3251C57.9015 86.2884 57.9031 86.2467 57.9256 86.2116L62.6207 78.9175C62.6419 78.8847 62.6753 78.8665 62.7142 78.8665H63.2854C63.3243 78.8665 63.3578 78.8847 63.3789 78.9175L68.074 86.2116C68.0966 86.2467 68.0981 86.2884 68.0781 86.3251C68.0582 86.3617 68.0223 86.383 67.9805 86.383ZM57.7257 61.9599C57.3878 61.9599 57.1138 61.686 57.1138 61.348C57.1138 61.0101 57.3878 60.7362 57.7257 60.7362H68.2738C68.6117 60.7362 68.8857 61.0101 68.8857 61.348C68.8857 61.686 68.6117 61.9599 68.2738 61.9599H57.7257ZM57.7257 57.5187C57.3878 57.5187 57.1138 57.2448 57.1138 56.9068C57.1138 56.5689 57.3878 56.295 57.7257 56.295H68.2738C68.6117 56.295 68.8857 56.5689 68.8857 56.9068C68.8857 57.2448 68.6117 57.5187 68.2738 57.5187H57.7257ZM54.431 75.5588C54.3879 75.5588 54.3509 75.5361 54.3316 75.4976C54.3123 75.4591 54.316 75.4159 54.3417 75.3813C54.6509 74.9646 54.979 74.4559 55.2698 74.0799C55.7119 73.5085 55.2836 72.8023 54.6719 72.8023H49.3456C49.2843 72.8023 49.2344 72.7524 49.2344 72.691V50.3917H49.2356C49.2355 50.2423 49.2859 50.0919 49.3893 49.9684L60.0585 37.2301C60.0592 37.2291 60.0599 37.2284 60.0607 37.2274C60.2273 37.0156 60.2192 36.7628 60.0489 36.617L59.4387 36.105C59.3093 35.9966 59.1555 35.9743 59.0001 36.0393L56.4157 37.1325C56.3987 37.1397 56.3857 37.1493 56.3738 37.1635L49.7117 45.1023C48.8818 46.0932 47.7388 46.6273 46.448 46.6273H42.1018C40.4852 46.6273 39.1652 47.9473 39.1652 49.5639V56.456V56.4594C39.2355 58.8135 41.4881 58.5192 41.4434 56.402C41.4434 56.4012 41.4434 56.4004 41.4434 56.3996V51.6582C41.4434 51.2947 41.7381 51 42.1016 51C42.4651 51 42.7598 51.2947 42.7598 51.6582L42.7624 72.6909C42.7624 72.7521 42.7124 72.8022 42.6512 72.8022H37.0923V72.8043C36.4798 72.8038 36.0893 73.5121 36.4595 74.0311L37.4344 75.3943C38.2267 76.502 39.4186 77.1163 40.7768 77.1163H58.8314C58.8651 77.1163 58.894 77.103 58.916 77.0773C58.9378 77.0516 58.9466 77.0209 58.9412 76.9876C58.873 76.5582 58.873 76.1169 58.9412 75.6876C58.9465 75.6543 58.9378 75.6236 58.916 75.5979C58.8941 75.5722 58.8651 75.5589 58.8314 75.5589L54.431 75.5588ZM67.1681 75.5588H71.5687C71.6117 75.5588 71.6487 75.5361 71.668 75.4976C71.6873 75.4591 71.6836 75.4159 71.6579 75.3813C71.3487 74.9646 71.0206 74.4558 70.7299 74.0799C70.2878 73.5085 70.7161 72.8023 71.3277 72.8023H76.7846C76.8459 72.8023 76.8958 72.7524 76.8958 72.691V66.5227C76.8958 66.4614 76.9457 66.4114 77.0071 66.4114H79.3625C79.4239 66.4114 79.4738 66.4614 79.4738 66.5227V72.691C79.4738 72.7524 79.5237 72.8023 79.585 72.8023H80.6789C80.7403 72.8023 80.7902 72.7524 80.7902 72.691V66.5227C80.7902 66.4614 80.8401 66.4114 80.9014 66.4114H83.2569C83.3182 66.4114 83.3681 66.4614 83.3681 66.5227V72.691C83.3681 72.7524 83.4181 72.8023 83.4794 72.8023H88.9075V72.8044C89.5199 72.804 89.9104 73.5122 89.5402 74.0312L88.5653 75.3944C87.7731 76.5021 86.5811 77.1164 85.223 77.1164C79.2047 77.1164 73.1866 77.1164 67.1684 77.1164C67.1347 77.1164 67.1057 77.1031 67.0838 77.0774C67.0619 77.0517 67.0532 77.021 67.0585 76.9878C67.1266 76.5583 67.1266 76.117 67.0585 75.6877C67.0532 75.6544 67.0618 75.6237 67.0838 75.598C67.1055 75.5721 67.1344 75.5588 67.1681 75.5588ZM80.4897 40.0183C78.9824 40.0183 77.7604 41.2402 77.7604 42.7477C77.7604 44.2551 78.9824 45.4771 80.4897 45.4771C81.997 45.4771 83.2191 44.2551 83.2191 42.7477C83.2191 41.2402 81.997 40.0183 80.4897 40.0183ZM45.5099 40.0183C47.0173 40.0183 48.2393 41.2402 48.2393 42.7477C48.2393 44.2551 47.0174 45.4771 45.5099 45.4771C44.0025 45.4771 42.7805 44.2549 42.7805 42.7476C42.7805 41.2402 44.0025 40.0183 45.5099 40.0183ZM86.5907 64.9374L83.417 57.0031L83.4176 57.0028C83.3872 56.9271 83.3705 56.8444 83.3705 56.7579V51.6583C83.3705 51.2948 83.6651 51.0001 84.0287 51.0001C84.3922 51.0001 84.6869 51.2948 84.6869 51.6583V56.3998C84.6869 56.402 84.6869 56.4039 84.6871 56.4061C84.7995 58.4077 86.965 58.0039 86.965 56.458V49.564C86.965 47.9474 85.645 46.6274 84.0284 46.6274H79.6823C78.3916 46.6274 77.2521 46.0952 76.4186 45.1024L69.8188 37.2226C69.8129 37.2156 69.8071 37.2102 69.7997 37.2046L69.6615 37.1024C69.6539 37.0968 69.647 37.0928 69.6383 37.0892L67.1302 36.0393C66.9761 35.9749 66.8217 35.996 66.6916 36.105L66.0814 36.617C65.9129 36.7614 65.9023 37.0149 66.0697 37.2274C66.0704 37.2284 66.071 37.2291 66.0718 37.2301L76.741 49.9684C76.8445 50.092 76.8949 50.2423 76.8947 50.3917H76.8959V56.7578C76.8959 56.8608 76.8723 56.9582 76.8303 57.0451C76.8291 57.0475 76.8281 57.0496 76.8272 57.0522L73.6732 64.9372C73.6591 64.9725 73.663 65.0094 73.6844 65.0409C73.7057 65.0725 73.7384 65.0898 73.7764 65.0898H86.4877C86.5257 65.0898 86.5585 65.0724 86.5798 65.0409C86.6009 65.0095 86.6049 64.9726 86.5907 64.9374Z" fill="#4285CF"/>
</svg>
