<svg width="140" height="133" viewBox="0 0 140 133" fill="none" xmlns="http://www.w3.org/2000/svg">
<g clip-path="url(#clip0_735_2618)">
<path d="M50 88.0874H16.5C18 96.0874 21.1 112.587 21.5 114.587C21.9 116.587 32.6667 119.754 38 121.087L51.5 119.087C52.3333 118.087 54 115.787 54 114.587C54 113.087 55 107.587 55 105.087V94.0874C55 92.4874 54.3333 89.4207 54 88.0874H50Z" fill="white"/>
<g clip-path="url(#clip1_735_2618)">
<path d="M81.7535 30.9516L81.5781 30.7355C82.8028 29.752 84.0887 28.8239 85.3913 27.9789L85.5444 28.2116C84.2473 29.0511 82.9726 29.9736 81.7535 30.9516Z" fill="#263238"/>
<path d="M79.7021 32.6998L79.5156 32.4948C79.8886 32.1596 80.2699 31.8243 80.654 31.5002L80.8349 31.7107C80.4536 32.0321 80.0751 32.3646 79.7049 32.6998H79.7021Z" fill="#263238"/>
<path d="M123.046 47.378C119.041 62.239 103.521 75.2742 88.3855 76.496C73.2498 77.7151 64.2263 66.658 68.2315 51.7969C72.2367 36.9359 87.7564 23.8979 102.892 22.6789C118.028 21.4599 127.051 32.517 123.046 47.378Z" fill="#263238"/>
<path d="M119.414 47.6716C115.938 60.5628 102.478 71.872 89.3462 72.9304C76.2145 73.9887 68.3879 64.3944 71.8642 51.5033C75.3406 38.6121 88.8007 27.3029 101.932 26.2445C115.064 25.1862 122.891 34.7805 119.414 47.6716Z" fill="white"/>
<path d="M101.411 28.1673C89.3624 29.137 77.01 39.5153 73.8203 51.3454L117.454 47.8296C120.644 35.9995 113.46 27.1976 101.411 28.1673Z" fill="#D92E29"/>
<path opacity="0.7" d="M73.8231 51.3453L95.6387 49.5861L84.2939 35.6837C79.3007 39.8782 75.4152 45.4303 73.8203 51.3453H73.8231Z" fill="white"/>
<path opacity="0.4" d="M101.414 28.1673C95.3884 28.6521 89.2901 31.4891 84.2969 35.6837L95.6417 49.5861L101.414 28.1673Z" fill="white"/>
<path opacity="0.1" d="M101.413 28.1673L95.6406 49.5861L115.149 33.1985C112.246 29.6412 107.439 27.6825 101.413 28.1673Z" fill="white"/>
<path d="M105.337 48.8048C103.92 54.0632 98.4262 58.6789 93.0711 59.1083C87.716 59.5378 84.5207 55.6258 85.9374 50.3674C87.3541 45.109 92.8484 40.4933 98.2035 40.0639C103.561 39.6317 106.754 43.5464 105.337 48.8048Z" fill="white"/>
<path d="M97.9376 53.6892C94.9623 55.7754 91.5221 55.6313 90.2529 53.365C88.9837 51.0987 90.3642 47.5719 93.3368 45.4857C96.3094 43.3995 99.7523 43.5436 101.022 45.8098C102.291 48.0761 100.91 51.603 97.9376 53.6892Z" fill="#263238"/>
<path d="M111.969 38.1328C111.969 38.1328 104.844 40.582 97.3203 45.8598L99.3716 49.5169C106.895 44.239 111.969 38.1301 111.969 38.1301V38.1328Z" fill="#263238"/>
<path d="M76.3343 59.5211C76.0476 59.5211 75.8584 59.3023 75.9057 59.0114C75.9558 58.7066 76.248 58.4379 76.5625 58.4157L100.532 56.5207C100.847 56.4957 101.059 56.7229 101.008 57.0277C100.958 57.3324 100.666 57.6012 100.352 57.6233L76.3816 59.5184C76.3649 59.5184 76.351 59.5184 76.3343 59.5184V59.5211Z" fill="#D92E29"/>
<path d="M97.0687 61.7929C96.782 61.7929 96.5927 61.574 96.6401 61.2831C96.6902 60.9783 96.9824 60.7096 97.2969 60.6874L105.099 60.0696C105.413 60.0447 105.625 60.2719 105.575 60.5766C105.524 60.8814 105.232 61.1501 104.918 61.1723L97.116 61.7901C97.0993 61.7901 97.0854 61.7901 97.0687 61.7901V61.7929Z" fill="#D92E29"/>
<path d="M57.4359 71.7169C57.1492 71.7169 56.9599 71.498 57.0072 71.2071C57.0573 70.9024 57.3496 70.6336 57.6641 70.6115L65.4657 69.9936C65.7775 69.9687 65.9918 70.1959 65.9417 70.5006C65.8916 70.8054 65.5993 71.0741 65.2848 71.0963L57.4832 71.7141C57.4665 71.7141 57.4526 71.7141 57.4359 71.7141V71.7169Z" fill="#D92E29"/>
<path d="M64.3812 67.1816C64.0945 67.1816 63.9052 66.9627 63.9526 66.6718C64.0027 66.367 64.2949 66.0983 64.6094 66.0761L87.9865 64.2282C88.2982 64.2033 88.5125 64.4304 88.4624 64.7352C88.4123 65.0399 88.1201 65.3087 87.8056 65.3309L64.4285 67.1788C64.4118 67.1788 64.3979 67.1788 64.3812 67.1788V67.1816Z" fill="#D92E29"/>
</g>
<path d="M34.2695 29.745C33.8161 28.0555 32.8499 26.3957 31.244 25.578C29.6139 24.744 27.6788 24.4768 25.8651 24.6279C23.1663 24.852 20.7831 26.0179 19.4364 27.6804C17.8171 28.5629 16.4083 30.2875 16.6727 33.8932C16.8779 36.6758 18.1787 40.2356 24.0974 41.0992C26.297 41.4204 28.448 41.5662 30.2104 40.2113C31.7109 39.0616 32.9929 37.3316 33.7567 35.4181C34.4935 33.5775 34.7526 31.5668 34.2641 29.745H34.2695Z" fill="#191919"/>
<path d="M8.99662 34.9591C7.5824 36.036 6.97246 37.0373 4.98608 37.3881C3.27228 37.6904 1.90665 37.0858 1.50181 35.9901C0.360185 38.2221 3.42342 39.4906 4.78636 39.4717C2.90254 39.9251 1.01332 39.4339 0.0633073 38.8644C-0.211979 41.1963 0.379077 42.6537 2.45722 44.4808C3.7068 45.0692 6.20327 45.088 7.96025 44.4133C7.49064 44.9882 6.24646 45.9976 4.95099 46.0785C5.76605 46.8261 8.93455 47.9246 12.13 46.1028C13.8573 45.1177 15.2418 42.9127 16.4725 41.7036C18.6586 39.5526 20.2996 39.1073 21.7192 38.7754C22.8473 38.5109 22.5504 35.2209 21.7138 34.9564C19.6518 34.306 17.5359 33.3965 15.3741 33.1374C13.0503 32.8621 10.8481 33.5476 8.99392 34.9591H8.99662Z" fill="#191919"/>
<path d="M17.5803 33.4613C16.7058 32.657 15.5048 32.3224 14.3443 32.2306C13.1838 32.1389 11.864 32.2873 10.7197 32.7245C9.38646 33.2319 8.22864 34.0928 7.21926 35.0887C6.70647 35.5907 6.23956 36.1332 5.76726 36.673C5.27066 37.2397 4.74168 37.7984 4.07775 38.1763C3.34366 38.5919 2.43413 38.797 1.61637 38.5217C0.965937 38.3031 0.291216 37.7417 0.277721 37.0049C0.275022 36.8322 0.00513372 36.8322 0.00783261 37.0049C0.0186282 37.6284 0.423461 38.152 0.928153 38.4839C1.51651 38.8753 2.22902 38.9805 2.92263 38.8753C4.48528 38.6324 5.48117 37.399 6.46627 36.287C7.45136 35.1751 8.49313 34.1819 9.767 33.4721C10.9221 32.8298 12.2068 32.5032 13.5266 32.4816C14.8463 32.46 16.3739 32.7164 17.3941 33.6583C17.5209 33.7771 17.7125 33.5855 17.5857 33.4667L17.5803 33.4613Z" fill="#191919"/>
<path d="M26.4733 26.4063C28.4273 26.4792 30.4676 26.6357 32.2084 27.61C33.6577 28.4224 34.8317 29.8042 34.8992 31.5234C34.9343 32.4275 34.6671 33.3425 34.0437 34.0145C33.9249 34.1413 34.1165 34.3329 34.2353 34.2061C35.4093 32.943 35.4228 30.9539 34.5861 29.5073C33.6523 27.888 31.89 26.9515 30.1222 26.5386C28.9266 26.2579 27.6959 26.1823 26.4733 26.1364C26.3006 26.131 26.3006 26.4009 26.4733 26.4063Z" fill="#191919"/>
<path d="M36.1651 31.0646C35.9465 29.8987 35.2907 28.8515 34.4135 28.0634C33.4446 27.189 32.2274 26.6465 30.9617 26.3685C30.1952 26.2012 29.4071 26.123 28.6217 26.1095C28.449 26.1068 28.449 26.3766 28.6217 26.3793C31.0966 26.4225 33.7604 27.189 35.1854 29.367C35.539 29.9068 35.7846 30.5005 35.9033 31.1348C35.9357 31.3048 36.1948 31.2319 36.1624 31.0619L36.1651 31.0646Z" fill="#191919"/>
<path d="M21.1885 28.1796C21.7823 30.9891 19.5071 34.6002 19.5071 34.6002C19.8741 35.3046 20.1548 36.0495 20.3384 36.8133C19.7338 36.0225 18.827 35.391 17.8041 35.3127C16.7812 35.2345 15.6801 35.8282 15.421 36.7755C15.1646 37.7121 15.7934 38.7295 16.6976 39.1694C17.6017 39.6067 18.8405 39.6337 19.9551 39.0588C20.3761 39.9899 21.2668 40.9237 22.5379 41.5364L22.3463 45.6333L20.9402 45.9302C24.4919 48.9097 27.8224 51.973 30.7345 55.19C30.9612 53.1605 31.0664 49.0555 29.9437 45.8681L28.5673 45.7142L28.2002 42.4729C29.914 42.2948 34.888 40.724 34.0325 34.2062C33.8598 32.8972 33.4226 31.6962 32.8126 30.6626C31.3309 28.5466 29.1988 26.1878 21.1831 28.1796H21.1885Z" fill="#FFC4B0"/>
<path d="M20.8751 27.7452C21.9304 29.5723 21.871 32.2064 20.3812 33.7961C19.9872 34.2171 19.4771 34.5491 18.8942 34.6165C18.7241 34.6354 18.7214 34.9053 18.8942 34.8864C20.0115 34.7542 20.8401 33.8662 21.3097 32.8973C21.8225 31.8367 21.9736 30.6249 21.7766 29.4644C21.6659 28.8112 21.4392 28.1797 21.1072 27.6075C21.0209 27.4564 20.7861 27.594 20.8751 27.7425V27.7452Z" fill="#191919"/>
<path d="M16.6758 36.8619C16.9133 36.7026 17.4935 36.5893 18.0738 36.7593C18.6514 36.9293 19.1237 37.3936 19.2829 37.9522" stroke="#191919" stroke-width="0.404833" stroke-linecap="round" stroke-linejoin="round"/>
<path d="M17.6562 37.515C17.8317 37.399 18.447 37.1075 19.0327 37.4422" stroke="#191919" stroke-width="0.404833" stroke-linecap="round" stroke-linejoin="round"/>
<path d="M24.6133 42.1464C24.6133 42.1464 25.9708 42.7024 28.2055 42.473L28.3135 43.4284C28.3135 43.4284 26.1435 43.5633 24.6133 42.1464Z" fill="#191919"/>
<path d="M26.7617 31.448C26.8049 32.1902 27.0019 33.0889 27.8629 34.4681C27.9627 34.6273 28.0707 34.7892 28.1112 34.9727C28.1732 35.248 28.0707 35.5422 27.9033 35.7689C27.736 35.9956 27.5039 36.1684 27.2745 36.333" stroke="#191919" stroke-width="0.404833" stroke-linecap="round" stroke-linejoin="round"/>
<path d="M31.8384 33.4371C31.5928 32.838 30.9558 32.4224 30.2838 32.4224C29.6118 32.4224 28.6807 32.8137 28.5781 33.761C28.902 34.6786 31.0395 34.792 31.8384 33.4371Z" fill="white"/>
<path d="M30.9707 34.0849C30.7791 34.5437 30.2312 34.7569 29.7481 34.5572C29.265 34.3602 29.0302 33.8258 29.2245 33.367C29.4161 32.9082 29.964 32.695 30.4471 32.8947C30.9302 33.0917 31.165 33.6261 30.9707 34.0849Z" fill="#191919"/>
<path d="M29.1597 33.3454L30.0989 33.7259L29.0625 33.8555L29.1597 33.3454Z" fill="white"/>
<path d="M28.582 33.761C28.9599 32.9514 29.5806 32.7166 30.1717 32.6194C30.8194 32.5114 31.3133 32.6572 31.8504 33.2105" stroke="#191919" stroke-width="0.404833" stroke-linecap="round" stroke-linejoin="round"/>
<path d="M32.4615 32.7706C32.359 33.0108 32.1107 33.1835 31.8516 33.1943" stroke="#191919" stroke-width="0.404833" stroke-linecap="round" stroke-linejoin="round"/>
<path d="M29.1836 30.5278C30.0742 30.131 31.0377 30.1607 31.8663 30.5224" stroke="#191919" stroke-width="0.404833" stroke-linecap="round" stroke-linejoin="round"/>
<path d="M22.25 34.0956C22.4173 33.4694 22.9949 32.9755 23.6615 32.8919C24.3281 32.8055 25.3024 33.0754 25.5238 34.0011C25.3213 34.9538 23.2162 35.3397 22.25 34.0956Z" fill="white"/>
<path d="M24.4935 34.2332C24.3882 34.719 23.8862 35.0267 23.3761 34.9187C22.866 34.8108 22.5395 34.3277 22.6447 33.8419C22.7527 33.3561 23.252 33.0484 23.7621 33.1563C24.2721 33.2643 24.5987 33.7474 24.4935 34.2332Z" fill="#191919"/>
<path d="M22.5796 33.8311L23.5728 34.0362L22.5742 34.3519L22.5796 33.8311Z" fill="white"/>
<path d="M25.5252 33.9984C25.0475 33.2427 24.3997 33.0915 23.8006 33.0699C23.1448 33.0456 22.6724 33.2535 22.2109 33.8688" stroke="#191919" stroke-width="0.404833" stroke-linecap="round" stroke-linejoin="round"/>
<path d="M21.5508 33.5126C21.683 33.7366 21.9502 33.877 22.2093 33.8554" stroke="#191919" stroke-width="0.404833" stroke-linecap="round" stroke-linejoin="round"/>
<path d="M24.7019 30.7193C23.5225 30.6113 22.559 30.7706 21.8438 31.3751" stroke="#191919" stroke-width="0.404833" stroke-linecap="round" stroke-linejoin="round"/>
<path d="M26.625 37.8309C27.1567 37.8309 27.8071 37.8957 28.023 38.3437C28.2551 37.7715 28.6627 37.5826 28.6627 37.5826C28.6627 37.5826 28.1418 37.3343 27.5993 37.4261C27.0568 37.5178 26.625 37.8282 26.625 37.8282V37.8309Z" fill="#191919"/>
<path d="M25.7617 38.1331C25.9452 38.376 26.6631 38.9374 27.7265 38.7134C27.9586 38.6567 27.9586 38.511 28.0234 38.3436C27.9721 38.125 27.5808 37.7283 26.6254 37.8308C26.3852 38.0117 26.0181 38.1088 25.7617 38.1331Z" fill="white"/>
<path d="M29.1769 37.5716C28.6507 37.6283 28.1244 37.3584 27.6008 37.4286C27.1906 37.4826 26.8397 37.7336 26.4673 37.9144C26.0948 38.0925 25.6252 38.1924 25.2852 37.9576" stroke="#191919" stroke-width="0.404833" stroke-linecap="round" stroke-linejoin="round"/>
<path d="M28.7137 37.5961C28.379 37.8039 28.1145 38.0738 27.9877 38.4463C27.9661 38.5057 27.9391 38.6514 27.7313 38.7135C27.348 38.8268 26.2658 38.7917 25.7422 38.1035" stroke="#191919" stroke-width="0.404833" stroke-linecap="round" stroke-linejoin="round"/>
<path d="M20.5791 39.9198C20.6088 40.4487 20.2067 40.9022 19.6777 40.9318C19.1487 40.9615 18.6953 40.5594 18.6656 40.0304C18.6359 39.5014 19.0381 39.048 19.567 39.0183C20.096 38.9886 20.5494 39.3908 20.5791 39.9198Z" fill="white" stroke="#191919" stroke-width="0.404833" stroke-linecap="round" stroke-linejoin="round"/>
<path d="M26.412 34.9326C26.7427 33.5313 25.8748 32.1271 24.4735 31.7963C23.0721 31.4656 21.6679 32.3335 21.3372 33.7349C21.0064 35.1362 21.8743 36.5404 23.2757 36.8712C24.6771 37.2019 26.0812 36.334 26.412 34.9326Z" stroke="#191919" stroke-width="0.404833" stroke-linecap="round" stroke-linejoin="round"/>
<path d="M32.2727 35.5526C33.2909 34.5344 33.2909 32.8837 32.2727 31.8655C31.2546 30.8474 29.6038 30.8474 28.5857 31.8655C27.5676 32.8837 27.5676 34.5344 28.5857 35.5526C29.6038 36.5707 31.2546 36.5707 32.2727 35.5526Z" stroke="#191919" stroke-width="0.404833" stroke-linecap="round" stroke-linejoin="round"/>
<path d="M26.418 33.7609C26.9038 33.3588 27.708 33.2562 27.8268 33.5801" stroke="#191919" stroke-width="0.404833" stroke-linecap="round" stroke-linejoin="round"/>
<path d="M21.2665 34.3358L17.9766 34.9997" stroke="#191919" stroke-width="0.404833" stroke-linecap="round" stroke-linejoin="round"/>
<path d="M33.918 46.1057C37.2727 46.3782 39.0486 49.2768 40.9648 51.6977C43.0888 54.3804 44.0199 55.7353 44.0199 55.7353C44.0199 55.7353 41.4425 61.9076 34.0421 64.1315L33.918 46.1057Z" fill="#FAA9A7"/>
<path d="M52.5769 64.5956C57.6886 63.7131 60.7303 68.4577 62.7598 74.487C64.1578 78.6352 68.5462 93.4791 69.086 95.344C69.3505 96.259 69.92 96.8824 70.7755 97.2306C71.847 97.6651 72.8402 98.3047 73.9251 98.7338C76.0788 99.5867 78.3513 100.14 80.6561 100.364C81.5414 100.45 82.4671 100.499 83.239 100.944C83.7706 101.249 84.2241 101.856 84.0486 102.442C83.8813 102.995 83.2606 103.254 82.7073 103.422C80.1056 104.213 77.4013 104.604 74.7483 105.2C72.7781 105.643 70.8349 106.196 68.8755 106.69C67.2804 107.092 64.8865 108.104 63.4183 106.922C62.7922 106.418 62.6087 105.557 62.498 104.76C62.3469 103.692 62.0068 99.9645 61.5291 98.8013C60.7896 97.0066 59.9746 95.2415 59.2135 93.4548C58.2743 91.2444 56.0774 87.5038 55.2542 84.365C54.4311 81.2262 54.4176 79.8389 54.3744 79.0832L52.5742 64.5956H52.5769Z" fill="#FFC4B0"/>
<path d="M61.4782 70.4307C60.7954 68.7412 59.1194 64.6335 54.3747 63.9777L53.8403 80.1953C53.8053 83.7119 55.6405 86.929 57.778 91.7708L67.8044 88.1003C67.8044 88.1003 62.1583 72.1202 61.4782 70.4334V70.4307Z" fill="#191919"/>
<path d="M56.5591 88.9693C55.9708 89.3229 56.2272 90.0975 56.6536 90.6723C57.08 91.2472 57.358 91.8301 57.5928 92.6209C57.8303 93.4117 58.8424 95.0337 63.8137 93.2417C68.7824 91.4523 68.6879 90.1973 68.5503 89.3742C68.3883 88.4053 68.0267 87.7521 67.9565 87.0801C67.827 85.8359 67.6057 85.5282 66.9174 85.5984L67.2224 86.4621C67.2224 86.4621 67.2278 87.8358 62.9339 89.223C58.64 90.6103 56.9235 89.8276 56.9235 89.8276L56.5591 88.972V88.9693Z" fill="#191919"/>
<path d="M67.2286 86.4594C67.2286 86.4594 67.234 87.8331 62.9401 89.2203C58.6462 90.6075 56.9297 89.8249 56.9297 89.8249" stroke="#434343" stroke-width="0.404833" stroke-linecap="round" stroke-linejoin="round"/>
<path d="M60.1636 95.6464C59.8263 95.9406 59.8074 96.1673 60.2527 96.95C60.8464 97.9971 61.3295 99.1361 61.6507 100.294C62.069 101.8 61.8747 103.465 61.8882 105.025C61.8936 105.565 61.899 106.11 62.0421 106.628C62.1851 107.146 62.4847 107.646 62.9516 107.913C63.4806 108.215 64.1283 108.183 64.7328 108.121C70.2413 107.562 75.442 105.4 80.7912 103.97C81.8168 103.694 82.8613 103.443 83.8005 102.95C84.0704 102.807 84.3429 102.631 84.4779 102.359C84.5778 102.153 84.5912 101.913 84.54 101.692C84.4077 101.104 83.8787 100.674 83.3093 100.48C82.7398 100.286 82.1272 100.28 81.5253 100.251C78.9938 100.129 76.4892 99.5274 74.1735 98.5045C73.0697 98.016 72.063 97.2306 70.9484 96.8069C70.5948 96.672 70.2952 96.6207 70.0496 96.3076C69.6907 95.8488 69.5423 95.1903 69.4316 94.6343C69.3992 94.4778 69.3749 94.3239 69.3506 94.1674C69.1698 92.9745 68.8082 92.1594 68.1739 92.2404L68.4708 93.2444C68.4708 93.2444 68.46 94.467 64.8597 96.1106C62.0555 97.3899 60.5658 96.5694 60.5658 96.5694L60.1609 95.6491L60.1636 95.6464Z" fill="#191919"/>
<path d="M60.9815 98.4451L61.3459 99.3628C61.3459 99.3628 61.8236 100.391 62.9814 100.391C64.2256 100.391 64.6412 99.4707 65.0541 98.9282C65.2754 98.6368 65.5129 98.3318 65.8476 98.1779C66.1985 98.016 66.5979 98.0511 66.9838 98.124C67.6262 96.4129 69.68 95.7813 70.6894 96.2698C71.4667 96.645 74.8484 98.1995 76.6593 98.7204C78.222 99.1711 79.2179 99.2926 80.902 99.3142C83.671 99.3493 84.5914 99.9349 85.1284 101.684C85.2499 102.081 84.5833 103.244 83.4227 103.533C82.2649 103.824 79.2934 104.566 77.3745 105.047C77.3745 105.047 68.3333 107.311 65.6587 107.98C63.5778 108.501 62.1717 108.593 61.64 107.303C60.7251 103.646 60.9086 103.481 60.8385 102.359C60.7413 100.809 60.601 100.464 60.4147 99.8C60.1934 99.0173 60.269 98.7204 60.9842 98.4451H60.9815Z" fill="#EA3934"/>
<path d="M75.2365 105.578C76.5076 105.263 77.374 105.044 77.374 105.044C79.2956 104.564 82.2644 103.821 83.4249 103.53C84.5854 103.238 85.2493 102.078 85.1279 101.681C84.5935 99.9322 83.6705 99.3493 80.9041 99.3115C80.0243 99.3007 79.3307 99.2629 78.6506 99.1658C77.0528 99.0443 74.6589 101.53 75.2365 105.581V105.578Z" fill="white" stroke="#191919" stroke-width="0.404833" stroke-linecap="round" stroke-linejoin="round"/>
<path d="M76.1177 98.4452C75.2055 98.6314 74.1205 99.4303 73.0977 100.95" stroke="#191919" stroke-width="0.404833" stroke-linecap="round" stroke-linejoin="round"/>
<path d="M74.1192 97.7893C73.207 97.9755 71.8899 98.9444 71.0938 100.1" stroke="#191919" stroke-width="0.404833" stroke-linecap="round" stroke-linejoin="round"/>
<path d="M71.9764 96.7233C70.9887 97.1794 70.2734 97.6301 69.2344 99.1604" stroke="#191919" stroke-width="0.404833" stroke-linecap="round" stroke-linejoin="round"/>
<path d="M84.9971 104.561C84.0363 105.095 78.3362 106.482 78.3362 106.482C78.3362 106.482 68.8712 108.852 66.7067 109.394C64.5422 109.937 63.3709 110.156 62.6287 109.529C62.1915 109.16 61.8298 108.482 61.6328 107.3C62.7313 107.87 62.5585 108.15 66.256 107.225C69.9562 106.299 78.9893 104.067 80.9433 103.546C82.3036 103.184 84.4735 102.836 85.1185 101.678C85.5503 102.029 86.4599 103.743 84.9944 104.561H84.9971Z" fill="white" stroke="#191919" stroke-width="0.404833" stroke-linecap="round" stroke-linejoin="round"/>
<path d="M55.6292 117.996C55.2514 117.183 54.8925 116.236 54.8898 115.326C54.8871 114.468 55.6185 111.823 55.7399 111.286C56.0665 109.826 56.3984 108.369 56.7007 106.906C57.5158 102.957 59.5345 95.2198 60.0554 90.3024C60.7544 83.7171 59.6209 81.3799 54.7278 79.2558C49.9778 77.1966 44.4586 76.1008 31.8332 73.1591H17.2295C14.2364 80.8941 15.37 86.0489 20.9702 89.32C27.8928 93.3656 40.7746 92.5587 43.1118 92.618C46.5367 92.7044 46.9901 92.7125 48.3827 92.7125C46.8012 97.0199 47.2762 105.357 47.1655 107.753C47.1655 107.753 47.2897 110.892 47.0333 113.405C46.8282 115.429 44.7123 117.189 43.9458 118.992C43.7973 119.342 43.6813 119.723 43.7488 120.098C43.8729 120.784 44.5449 121.21 45.1522 121.553C46.6231 122.376 48.0967 123.199 49.5675 124.022C53.2677 126.092 56.9787 128.165 60.9029 129.763C61.2969 129.922 61.7395 130.079 62.1336 129.919C62.4304 129.801 62.6383 129.515 62.7381 129.212C63.0377 128.297 62.4844 127.331 61.8799 126.581C60.8084 125.245 59.6128 124.424 58.7815 123.42C58.1716 122.681 56.1663 119.153 55.6266 117.996H55.6292Z" fill="#FFC4B0"/>
<path d="M41.271 92.9878C37.6194 92.9878 28.7616 93.2523 23.8038 91.9757C18.1361 90.5156 13.44 86.4295 15.618 75.2292L16.3251 72.3224H31.8006C31.8006 72.3224 45.8833 75.8769 47.2571 76.2547C52.1151 77.5907 58.3522 79.1695 59.9095 82.5C61.4694 85.8304 60.514 89.1986 59.9095 93.2415C59.3049 97.2871 57.4346 105.179 57.4346 105.179C57.4346 105.179 55.6236 106.005 52.1744 105.797C48.7253 105.589 46.7389 104.536 46.7389 104.536C46.7389 104.536 46.8037 96.3965 47.9345 93.0175C47.9345 93.0175 45.8024 92.9878 41.2736 92.9878H41.271Z" fill="#191919"/>
<path d="M47.2539 76.252C52.1119 77.588 58.349 79.1668 59.9063 82.4973C61.4662 85.8277 60.5108 89.1959 59.9063 93.2388L59.5284 95.4411" stroke="#434343" stroke-width="0.404833" stroke-linecap="round" stroke-linejoin="round"/>
<path d="M50.1392 87.9651C49.0002 89.6034 48.1879 91.471 47.7695 93.425" stroke="#434343" stroke-width="0.404833" stroke-linecap="round" stroke-linejoin="round"/>
<path d="M47.2012 109.559C46.5696 109.559 46.4752 110.101 46.3915 111.294C46.3105 112.449 46.1891 113.327 45.6115 114.274L43.4983 117.742C43.1097 118.379 42.7183 119.024 42.4673 119.728C42.3648 120.014 42.2865 120.322 42.3351 120.622C42.4026 121.051 42.7129 121.402 43.053 121.672C43.4848 122.014 43.9814 122.268 44.4726 122.516C49.7813 125.215 55.0954 127.914 60.5769 130.24C61.2678 130.535 62.0585 130.823 62.7495 130.527C63.408 130.246 63.7642 129.479 63.7346 128.764C63.7049 128.049 63.0274 127.436 62.5093 126.94C61.1166 125.606 60.6524 125.099 59.7294 123.939C59.2301 123.307 58.6687 122.452 58.2612 121.758C57.4192 120.322 56.6986 118.768 56.0319 117.24C55.7566 116.611 55.3518 115.559 55.4949 114.878C55.5974 114.395 55.6946 114.085 55.9321 113.308C56.2856 112.153 56.3072 111.675 55.7027 111.472L55.503 112.355C55.503 112.355 54.4234 113.405 51.1119 112.587C48.1215 111.848 47.1931 110.598 47.1931 110.598L47.2012 109.554V109.559Z" fill="#191919"/>
<path d="M44.2969 115.237C44.8097 114.366 45.112 113.567 45.3063 112.906C45.471 112.352 45.6059 111.713 46.3319 111.88C46.3373 112.722 46.3427 113.265 46.3427 113.265C46.3427 113.265 46.537 114.625 47.3683 115.032C48.4856 115.578 49.5733 115.159 50.2426 115.019C50.6015 114.943 50.9794 114.87 51.3329 114.973C51.7027 115.084 51.9807 115.37 52.2263 115.677C53.8348 114.806 55.7969 115.677 56.2395 116.711C56.5796 117.505 58.1098 120.897 59.1327 122.479C60.0153 123.844 60.6873 124.589 61.945 125.712C64.0096 127.555 64.3227 128.602 63.5778 130.273C63.4078 130.651 62.142 131.091 61.0786 130.548C60.0153 130.006 57.284 128.619 55.5216 127.72C55.5216 127.72 47.2144 123.493 44.7558 122.241C42.8449 121.269 41.7222 120.414 42.1675 119.091C42.8935 117.175 43.7221 116.206 44.2942 115.235L44.2969 115.237Z" fill="#EA3934"/>
<path d="M53.6511 126.767C54.8198 127.364 55.6132 127.766 55.6132 127.766C57.381 128.664 60.1069 130.049 61.1729 130.589C62.239 131.131 63.5021 130.691 63.6721 130.311C64.4143 128.64 64.1012 127.596 62.0366 125.752C61.3807 125.169 60.8815 124.684 60.4307 124.165C59.3053 123.026 55.8669 123.334 53.6484 126.77L53.6511 126.767Z" fill="white" stroke="#191919" stroke-width="0.404833" stroke-linecap="round" stroke-linejoin="round"/>
<path d="M58.9996 121.963C58.1872 121.504 56.8459 121.396 55.0781 121.874" stroke="#191919" stroke-width="0.404833" stroke-linecap="round" stroke-linejoin="round"/>
<path d="M57.9223 120.158C57.11 119.699 55.4825 119.566 54.125 119.917" stroke="#191919" stroke-width="0.404833" stroke-linecap="round" stroke-linejoin="round"/>
<path d="M56.9986 117.944C55.9541 117.642 55.1202 117.513 53.3281 117.985" stroke="#191919" stroke-width="0.404833" stroke-linecap="round" stroke-linejoin="round"/>
<path d="M61.5995 132.365C60.5226 132.138 55.3138 129.442 55.3138 129.442C55.3138 129.442 46.618 125.016 44.6289 124.004C42.6398 122.991 41.6142 122.39 41.4631 121.429C41.374 120.862 41.5494 120.114 42.1756 119.094C42.6317 120.244 42.3132 120.344 45.7138 122.074C49.1117 123.804 57.3946 128.049 59.2083 128.94C60.4713 129.561 62.3363 130.721 63.5859 130.273C63.6803 130.821 63.2431 132.71 61.6022 132.365H61.5995Z" fill="white" stroke="#191919" stroke-width="0.404833" stroke-linecap="round" stroke-linejoin="round"/>
<path d="M15.8364 75.6665L36.4316 70.0366C47.999 65.7885 49.3052 65.3001 52.5736 64.5956L54.3738 79.0833C53.1161 79.6878 47.4889 82.7591 43.6835 84.7563C40.0859 86.6455 34.3129 89.9166 29.4333 91.2094C21.3691 93.3469 13.688 89.6386 15.8391 75.6665H15.8364Z" fill="#D48983"/>
<path d="M56.56 76.2521C56.2901 77.2426 55.4723 78.5057 54.3388 79.0752C53.2053 79.6446 47.489 82.7538 43.6836 84.7536" stroke="#191919" stroke-width="0.404833" stroke-linecap="round" stroke-linejoin="round"/>
<path d="M43.4522 66.6548C42.3699 67.0165 40.111 67.8019 34.8508 69.3753C25.8797 72.0607 15.2866 74.8918 15.2866 74.8918C12.7389 88.7587 19.7074 92.7126 24.3009 92.7126C28.8944 92.7126 31.5528 91.2471 36.7562 88.9072C39.9976 87.4498 55.4433 78.8943 55.4433 78.8943L54.3746 63.9775C51.0334 63.6132 45.6194 65.9315 43.4522 66.6548Z" fill="#191919"/>
<path d="M25.5938 92.888C30.19 92.888 32.6324 91.7869 37.6524 89.0745C42.0165 86.7157 57.2706 77.6663 57.2706 77.6663" stroke="#434343" stroke-width="0.404833" stroke-linecap="round" stroke-linejoin="round"/>
<path d="M46.8702 100.834C46.1415 100.95 46.0363 101.681 46.1631 102.545C46.2684 103.252 46.4114 103.908 46.2171 104.712C46.0228 105.516 46.0849 107.427 51.2802 108.377C56.4756 109.33 57.0828 108.353 57.2124 107.527C57.3392 106.701 57.6415 105.899 57.9599 105.303C58.408 104.464 58.7588 103.376 57.9411 103.012L57.7575 103.816C57.7575 103.816 56.5619 104.974 52.546 104.461C48.0712 103.889 46.9404 101.967 46.9404 101.967L46.8702 100.834Z" fill="#191919"/>
<path d="M57.7507 103.816C57.7507 103.816 56.5551 104.974 52.5392 104.461C48.0644 103.889 46.9336 101.967 46.9336 101.967" stroke="#434343" stroke-width="0.404833" stroke-linecap="round" stroke-linejoin="round"/>
<path d="M29.2344 45.6389L33.9197 46.1058C33.9197 46.1058 35.6443 46.9992 37.9653 51.0367C40.2324 54.9798 39.9058 60.0564 39.9058 67.3676C39.9058 67.3676 30.8672 71.4834 28.1576 72.6764C25.4452 73.8693 18.5549 77.0135 15.9505 76.1687C14.1746 75.5911 14.7225 73.6803 14.9411 71.9908C15.7643 65.6134 15.1975 63.0683 14.1099 59.9484C11.6269 52.8314 11.9723 49.1772 15.6536 47.1827L21.7126 45.6119C21.7882 44.8967 21.8692 44.3542 21.9177 43.9413C21.9555 43.612 22.4548 43.5527 22.4548 43.5527L22.4305 44.0763C22.4305 44.0763 23.5641 44.9102 25.4479 44.9561C27.3317 45.002 28.4193 44.3354 28.4193 44.3354L28.3519 43.7416C28.3519 43.7416 28.8026 43.6444 28.9186 44.1059C29.0347 44.5648 29.2398 45.6416 29.2398 45.6416L29.2344 45.6389Z" fill="#FAA9A7"/>
<path d="M21.9766 46.6618C23.2073 47.9842 27.5875 48.6346 29.0288 46.5727" stroke="#191919" stroke-width="0.404833" stroke-linecap="round" stroke-linejoin="round"/>
<path d="M39.9997 69.022C39.9997 61.7108 40.2291 54.977 37.962 51.034C37.5707 50.3539 37.2009 49.7682 36.8555 49.2608" stroke="#191919" stroke-width="0.404833" stroke-linecap="round" stroke-linejoin="round"/>
<path d="M21.2582 57.5516C20.5996 51.9272 19.2151 48.9368 15.0804 47.9544C10.5787 49.2418 11.0186 54.0809 12.6568 67.3C12.8862 69.1515 13.7094 71.2647 14.3706 72.0366L20.3351 71.8018L22.6481 67.1408L21.2582 57.5516Z" fill="#FFC4B0"/>
<path d="M18.5469 68.5686C19.0516 67.9047 20.8706 66.9304 22.6438 67.1409" stroke="#191919" stroke-width="0.404833" stroke-linecap="round" stroke-linejoin="round"/>
<path d="M15.6506 47.1799C12.2581 48.2837 10.9086 49.7924 11.0355 55.0471C11.1596 60.3019 11.5456 64.3853 11.5456 64.3853C11.5456 64.3853 12.3606 65.1464 15.3672 65.0357C18.3737 64.9278 21.7932 63.527 22.4275 62.6148C21.8769 56.7474 21.302 52.3536 19.7367 50.3727C17.583 47.6522 15.6533 47.1772 15.6533 47.1772L15.6506 47.1799Z" fill="#FAA9A7"/>
<path d="M11.5469 64.3853C11.5469 64.3853 12.3619 65.1464 15.3685 65.0357C18.3751 64.9278 21.7945 63.5271 22.4288 62.6148C21.8782 56.7475 21.7595 53.5196 20.4046 51.4819" stroke="#191919" stroke-width="0.404833" stroke-linecap="round" stroke-linejoin="round"/>
<path d="M15.3176 66.5308C16.972 64.0694 19.787 63.276 24.0593 60.4016C28.4855 57.4248 31.9832 55.074 32.998 54.2968C33.859 53.6382 34.5202 53.6517 35.8642 54.4992C36.9627 55.1928 37.5915 55.6138 38.7116 56.4694C39.7182 57.2385 40.787 58.0266 40.2526 58.4854C39.9369 58.758 38.968 58.5286 38.2204 58.1616C37.4728 57.7945 35.8966 56.7959 35.8966 56.7959C35.8966 56.7959 36.126 57.7324 36.2853 58.6069C36.4445 59.4813 35.8669 60.0967 35.2975 59.9131C35.0654 60.99 34.2773 60.8874 33.9426 60.6068C33.5054 61.4218 33.0736 61.4596 32.5743 61.5325C31.322 61.7133 31.2761 61.2599 31.2761 61.2599C31.2761 61.2599 31.0683 61.6782 30.5771 62.2288C30.0859 62.7794 29.6514 63.0466 29.001 63.1356C27.9619 63.2787 27.3843 63.724 26.4046 65.1598C24.8879 67.381 23.7408 69.0624 21.9434 70.8679C20.3618 72.4603 16.0436 74.2901 14.373 72.0284C13.2503 70.5117 14.1706 68.2284 15.3176 66.5254V66.5308Z" fill="#FFC4B0"/>
<path d="M15.3125 66.5308C16.9669 64.0694 20.2002 62.9953 24.4725 60.121" stroke="#191919" stroke-width="0.404833" stroke-linecap="round" stroke-linejoin="round"/>
<path d="M34.3359 56.9983C34.6463 57.8215 35.0862 59.0602 35.2967 59.9158" stroke="#191919" stroke-width="0.404833" stroke-linecap="round" stroke-linejoin="round"/>
<path d="M33.0547 57.638C33.3651 58.4612 33.7888 59.8592 33.9399 60.6122" stroke="#191919" stroke-width="0.404833" stroke-linecap="round" stroke-linejoin="round"/>
<path d="M32.4216 60.5474C31.9088 60.5825 31.6255 60.7957 31.28 61.268C30.8401 61.8672 30.4973 62.4097 30.2544 62.5878C29.6634 63.0142 29.0048 63.1437 28.2734 63.2895" stroke="#191919" stroke-width="0.404833" stroke-linecap="round" stroke-linejoin="round"/>
<path d="M35.2266 55.5815C35.4668 55.8865 35.6692 56.2049 35.8959 56.7987" stroke="#191919" stroke-width="0.404833" stroke-linecap="round" stroke-linejoin="round"/>
<path d="M35.1215 68.6304L39.3102 54.8742C39.375 54.6664 39.545 54.5072 39.7582 54.4586L60.0916 49.9272C60.2859 49.884 60.4695 49.938 60.6044 50.0486C60.7609 50.1755 61.2602 50.5992 61.3979 50.7152C61.5733 50.8637 61.6651 51.1066 61.5895 51.3576L57.4008 65.1111C57.3361 65.3189 57.166 65.4781 56.9528 65.5267L51.7764 66.6792L36.6194 70.0555C36.4197 70.1013 36.2308 70.042 36.0931 69.9259C35.9393 69.7964 35.4508 69.3834 35.3131 69.2701C35.1377 69.1216 35.0433 68.8787 35.1215 68.6277V68.6304Z" fill="white" stroke="#191919" stroke-width="0.404833" stroke-linecap="round" stroke-linejoin="round"/>
<path d="M36.4826 69.8719C36.3558 69.8719 36.2343 69.8098 36.156 69.7046C36.0832 69.6047 36.0589 69.4806 36.094 69.3645L40.2826 55.6083C40.3285 55.4572 40.4419 55.3492 40.5849 55.3168L60.9183 50.7854C60.948 50.78 60.9804 50.7746 61.0101 50.7746C61.1342 50.7746 61.2557 50.8367 61.3339 50.9392C61.4095 51.0418 61.4338 51.174 61.396 51.2955L57.2073 65.049C57.1642 65.1893 57.0508 65.2946 56.9078 65.3243L36.5744 69.8557C36.5447 69.8611 36.5123 69.8665 36.4826 69.8665V69.8719Z" fill="#EA3934"/>
<path d="M61.0112 50.9797C61.1003 50.9797 61.1516 51.039 61.1705 51.0633C61.1975 51.1011 61.2245 51.1605 61.2002 51.2415L57.0115 64.9977C56.9899 65.0678 56.9332 65.1191 56.8631 65.1353L51.6866 66.2877L36.5297 69.6641C36.5135 69.6667 36.4973 69.6694 36.4838 69.6694C36.4217 69.6694 36.3596 69.6371 36.3191 69.5831C36.2949 69.548 36.2679 69.4913 36.2895 69.4211L40.4781 55.6676C40.5024 55.5867 40.5591 55.53 40.632 55.5138L60.9654 50.9824C60.9816 50.9797 60.9978 50.977 61.0112 50.977M61.0112 50.5748C60.9681 50.5748 60.9222 50.5802 60.8763 50.591L40.5429 55.1225C40.3297 55.171 40.157 55.3276 40.0895 55.5516L35.9008 69.3051C35.7821 69.691 36.0897 70.0743 36.4811 70.0743C36.5243 70.0743 36.5701 70.0689 36.616 70.0581L51.773 66.6818L56.9494 65.5294C57.1626 65.4808 57.3354 65.3242 57.3974 65.1137L61.5861 51.3602C61.7076 50.9608 61.4026 50.5775 61.0086 50.5775L61.0112 50.5748Z" fill="#191919"/>
<path d="M48.2803 61.8292H48.2884C49.4813 61.562 50.6499 60.6741 50.9036 59.8429C51.1573 59.0116 50.3962 58.5555 49.2033 58.82H49.1952C48.0023 59.0872 46.8337 59.9751 46.58 60.8064C46.3263 61.6376 47.0874 62.0937 48.2803 61.8292Z" fill="white"/>
<path d="M59.6166 57.7998L59.0391 59.7268L60.3264 59.3193L60.5909 57.6757L59.6166 57.7998Z" fill="#AD6163"/>
<path d="M60.739 56.4396C62.1262 56.4288 62.0371 57.9051 61.4434 58.5339C61.8914 58.9495 61.743 60.2207 60.9981 60.7308C61.662 61.1059 61.0385 62.3447 60.156 62.6497C60.5015 63.3838 60.1425 64.0369 58.9496 64.3581C57.754 64.6793 56.7797 64.709 56.2858 64.4984C55.7919 64.2852 55.8459 63.5592 56.1104 63.3595C55.3979 63.1895 55.2548 62.2233 56.1266 61.67C55.7055 60.89 56.0051 60.5392 57.0307 60.0318C57.9213 59.5919 59.5353 59.0359 59.9428 58.8983C60.0049 58.8767 60.0481 58.8281 60.067 58.7687C60.1047 58.6392 60.0022 58.5096 59.8672 58.5177C59.4165 58.5474 58.5205 58.5879 57.9429 58.4799C57.1441 58.3315 56.8121 57.449 57.5975 57.1035C58.3828 56.758 60.2964 56.445 60.7444 56.4423L60.739 56.4396Z" fill="#FFC4B0"/>
<path d="M59.8388 60.4906C58.6135 60.9306 57.3531 61.2598 56.0685 61.473C55.8121 61.5162 55.92 61.9049 56.1764 61.8644C57.4611 61.6512 58.7215 61.3219 59.9468 60.882C60.1897 60.7956 60.0844 60.4043 59.8388 60.4906Z" fill="#191919"/>
<path d="M59.3841 62.2801C58.3423 62.7335 57.2304 63.025 56.0996 63.141C55.8432 63.168 55.8405 63.5728 56.0996 63.5458C57.306 63.4217 58.4773 63.1113 59.5892 62.6282C59.8267 62.5257 59.6216 62.1748 59.3841 62.2774V62.2801Z" fill="#191919"/>
</g>
<defs>
<clipPath id="clip0_735_2618">
<rect width="140" height="132" fill="white" transform="translate(0 0.587402)"/>
</clipPath>
<clipPath id="clip1_735_2618">
<rect width="67" height="54" fill="white" transform="translate(57 22.5874)"/>
</clipPath>
</defs>
</svg>
