<svg width="29" height="29" viewBox="0 0 29 29" fill="none" xmlns="http://www.w3.org/2000/svg">
<path d="M25.71 12.1767C27.4825 10.6252 27.7361 7.87994 26.0237 6.16956C24.4525 4.6004 21.8959 4.6004 20.3247 6.16956L20.2812 6.21306C19.2385 5.64911 18.1042 5.23301 16.907 4.99252V3.66175H17.5024C17.8446 3.66175 18.1221 3.38432 18.1221 3.04209V0.619658C18.1221 0.277421 17.8446 0 17.5024 0H11.7871C11.4448 0 11.1674 0.277421 11.1674 0.619658V3.04209C11.1674 3.38432 11.4448 3.66175 11.7871 3.66175H12.3826V4.93837C11.0794 5.16758 9.84717 5.60419 8.7215 6.213L8.67794 6.1695C7.10667 4.60028 4.55015 4.60034 2.97901 6.1695C1.2664 7.87994 1.52027 10.625 3.29255 12.1766C2.68015 13.6228 2.34125 15.2111 2.34125 16.8768C2.34132 23.5616 7.79629 29 14.5014 29C21.1237 29 26.6614 23.5078 26.6614 16.8769C26.6614 15.2111 26.3225 13.6227 25.71 12.1767ZM24.4583 17.4653H25.406C25.2707 19.984 24.2719 22.2777 22.7004 24.0577L22.0202 23.4143C21.7715 23.1792 21.3794 23.1901 21.1442 23.4388C20.909 23.6874 20.92 24.0795 21.1686 24.3148L21.8293 24.9397C20.0577 26.5403 17.7582 27.57 15.2258 27.7361V26.8026C15.2258 26.4604 14.9483 26.183 14.6061 26.183C14.2639 26.183 13.9865 26.4604 13.9865 26.8026V27.7483C11.4442 27.6301 9.12632 26.6416 7.32678 25.0755L8.02538 24.3769C8.26735 24.1349 8.26735 23.7425 8.02538 23.5005C7.7834 23.2586 7.39103 23.2586 7.14906 23.5005L6.43912 24.2105C4.81096 22.4342 3.76504 20.1199 3.60337 17.5701H4.64917C4.99141 17.5701 5.26883 17.2927 5.26883 16.9504C5.26883 16.6082 4.99141 16.3308 4.64917 16.3308H3.59439C3.72198 13.7706 4.74175 11.4409 6.34895 9.64362L7.07501 10.3697C7.36712 10.6116 7.65922 10.6116 7.95139 10.3697C8.19337 10.1277 8.19337 9.73532 7.95139 9.49329L7.22583 8.76773C9.01479 7.1718 11.3327 6.15376 13.8818 6.01093V6.9934C13.8818 7.33564 14.1592 7.61306 14.5014 7.61306C14.8436 7.61306 15.1211 7.33564 15.1211 6.9934V6.01106C17.6498 6.15271 19.951 7.15581 21.734 8.7298L21.0702 9.43163C20.8349 9.68024 20.8459 10.0724 21.0945 10.3076C21.3899 10.5414 21.6819 10.5333 21.9705 10.2832L22.6158 9.60098C24.223 11.3795 25.251 13.6869 25.4021 16.2259H24.4584C24.1162 16.2259 23.8387 16.5034 23.8387 16.8456C23.8387 17.1878 24.1162 17.4653 24.4583 17.4653ZM25.1479 7.04644C26.2679 8.16505 26.1177 9.87747 25.134 11.0004C24.2162 9.35653 22.9264 7.94662 21.3783 6.8844C22.4738 5.96328 24.1168 6.01669 25.1479 7.04644ZM12.4067 1.23932H16.8828V2.42243H12.4067V1.23932ZM13.6219 3.66175H15.6677V4.80985C14.9861 4.74429 14.3041 4.7363 13.6219 4.78574V3.66175ZM3.85483 10.9865C2.77861 9.91174 2.77861 8.12124 3.85483 7.04644C4.88582 6.01676 6.52884 5.96316 7.6244 6.8844C6.07637 7.94662 4.78649 9.35659 3.86877 11.0004L3.85483 10.9865Z" fill="#154E8D"/>
<path d="M19.6229 11.1358L15.6892 15.0645C15.3472 14.8395 14.9382 14.708 14.4989 14.708C13.302 14.708 12.3281 15.6809 12.3281 16.8768C12.3281 18.0727 13.3019 19.0456 14.4989 19.0456C15.6959 19.0456 16.6697 18.0727 16.6697 16.8768C16.6697 16.5709 16.6056 16.2797 16.4907 16.0155L20.4986 12.0126C20.7408 11.7708 20.741 11.3784 20.4992 11.1363C20.2574 10.8943 19.8651 10.8939 19.6229 11.1358ZM14.4989 17.8063C13.9853 17.8063 13.5674 17.3894 13.5674 16.8768C13.5674 16.3643 13.9853 15.9474 14.4989 15.9474C15.0125 15.9474 15.4304 16.3643 15.4304 16.8768C15.4304 17.3894 15.0125 17.8063 14.4989 17.8063Z" fill="#154E8D"/>
</svg>
