<svg width="41" height="41" viewBox="0 0 41 41" fill="none" xmlns="http://www.w3.org/2000/svg">
<path d="M36.7943 21.9798L35.513 20.9004V13.5204H36.7943V21.9798ZM40.3081 11.3455L38.2229 6.47352C38.1729 6.35867 38.0905 6.26086 37.9859 6.19204C37.8812 6.12321 37.7588 6.08635 37.6335 6.08594H34.6738C34.5489 6.08599 34.4267 6.12275 34.3225 6.19166C34.2183 6.26056 34.1366 6.35858 34.0877 6.47352L32.0024 11.3455C31.9608 11.443 31.9439 11.5493 31.9534 11.655C31.9629 11.7606 31.9984 11.8622 32.0568 11.9508C32.1152 12.0393 32.1946 12.112 32.288 12.1623C32.3814 12.2126 32.4857 12.239 32.5918 12.2391H39.7188C39.8248 12.239 39.9292 12.2126 40.0226 12.1623C40.1159 12.112 40.1953 12.0393 40.2537 11.9508C40.3121 11.8622 40.3477 11.7606 40.3571 11.655C40.3666 11.5493 40.3498 11.443 40.3081 11.3455ZM10.3461 18.7703V18.0848C10.3472 17.6298 10.5284 17.1938 10.8502 16.872C11.1719 16.5503 11.608 16.3691 12.063 16.368H16.1277C16.5829 16.3686 17.0192 16.5496 17.3411 16.8715C17.6629 17.1933 17.844 17.6297 17.8446 18.0848V18.7703H20.5929V18.0848C20.5935 17.6297 20.7746 17.1933 21.0964 16.8715C21.4183 16.5496 21.8546 16.3686 22.3098 16.368H26.3745C26.8295 16.3691 27.2656 16.5503 27.5873 16.872C27.9091 17.1938 28.0903 17.6298 28.0914 18.0848V18.7703H31.3906V15.4198C31.3894 14.4832 31.0167 13.5853 30.3544 12.923C29.6921 12.2607 28.7942 11.8881 27.8576 11.8868H10.5799C9.64329 11.8881 8.74538 12.2607 8.08308 12.923C7.42078 13.5853 7.04815 14.4832 7.04688 15.4198V18.7703H10.3461ZM35.3977 24.1516H37.3901L36.7943 23.6519L35.513 22.5756L32.5085 20.0516H5.92898L1.04742 24.1516H35.3977ZM3.52344 32.7648H2.24219V34.2734C2.24269 34.4432 2.31035 34.6058 2.43038 34.7259C2.55041 34.8459 2.71306 34.9136 2.88281 34.9141H6.00266C6.1724 34.9136 6.33506 34.8459 6.45509 34.7259C6.57512 34.6058 6.64277 34.4432 6.64328 34.2734V32.7648H3.52344ZM33.0755 32.7648H31.7942V34.2734C31.7947 34.4432 31.8624 34.6058 31.9824 34.7259C32.1024 34.8459 32.2651 34.9136 32.4348 34.9141H35.5547C35.7244 34.9136 35.8871 34.8459 36.0071 34.7259C36.1271 34.6058 36.1948 34.4432 36.1953 34.2734V32.7648H33.0755ZM1.92188 25.4328H0.640625V30.8429C0.641132 31.0126 0.708789 31.1753 0.82882 31.2953C0.948851 31.4154 1.1115 31.483 1.28125 31.4835H37.1562C37.326 31.483 37.4887 31.4154 37.6087 31.2953C37.7287 31.1753 37.7964 31.0126 37.7969 30.8429V25.4328H1.92188Z" fill="#95BAEE"/>
</svg>
