<svg width="42" height="42" viewBox="0 0 42 42" fill="none" xmlns="http://www.w3.org/2000/svg">
<path d="M26.5683 19.1247C26.531 20.798 21.0004 24.927 21.0004 24.927C21.0004 24.927 15.4694 20.798 15.4316 19.1247C10.7612 19.5514 7.10303 23.4776 7.10303 28.2597C7.10303 32.8289 10.4416 33.0523 14.8117 33.0523C14.9133 33.0523 15.0209 33.0519 15.1229 33.0519V33.0498C15.1233 31.4798 15.7349 30.004 16.8445 28.8956C17.9541 27.7859 19.4296 27.1744 20.9991 27.1744C22.5683 27.1744 24.0437 27.7859 25.1534 28.8956C26.2638 30.0061 26.8749 31.4815 26.8749 33.0498V33.0519C26.977 33.0519 27.0849 33.0523 27.1862 33.0523C31.5571 33.0523 34.8969 32.8289 34.8969 28.2597C34.8969 23.4772 31.2392 19.551 26.5683 19.1247Z" fill="#FDBF9A"/>
<path d="M21.0024 20.325C25.2272 20.325 28.6515 13.9725 28.6515 9.74818C28.6519 5.52424 25.2272 2.09998 21.0024 2.09998C16.7785 2.09998 13.3542 5.52424 13.3542 9.74818C13.3542 13.9725 16.7785 20.325 21.0024 20.325Z" fill="#FDBF9A"/>
<path d="M24.656 35.028C24.9811 34.4278 25.155 33.7529 25.155 33.0502C25.1554 31.9397 24.7224 30.8964 23.9378 30.1115C23.1529 29.3269 22.1096 28.8947 20.9991 28.8947C19.8886 28.8947 18.8453 29.3269 18.0604 30.1115C17.275 30.8964 16.8432 31.9401 16.8428 33.0502C16.8428 35.3421 18.7072 37.2065 20.9991 37.2065C21.7009 37.2065 22.3767 37.0331 22.9769 36.7076L25.8211 39.5514C26.0525 39.7845 26.3566 39.9 26.6603 39.9C26.9648 39.9 27.2684 39.7841 27.5003 39.5522C27.9644 39.0885 27.9644 38.3359 27.5007 37.8726L24.656 35.028ZM22.5938 34.6462C22.168 35.0725 21.6018 35.3064 20.9987 35.3064C19.7546 35.3064 18.7429 34.2947 18.7424 33.0502C18.7429 32.4475 18.9772 31.8813 19.4039 31.455C19.8294 31.0292 20.3964 30.794 20.9991 30.794C21.6018 30.7944 22.168 31.0296 22.5938 31.455C23.0206 31.8809 23.2549 32.4475 23.2549 33.0502C23.2549 33.6533 23.0201 34.2203 22.5938 34.6462Z" fill="#FDBF9A"/>
</svg>
