<svg width="32" height="32" viewBox="0 0 32 32" fill="none" xmlns="http://www.w3.org/2000/svg">
<path d="M2.12357 24.5729L3.50514 25.3237C4.17151 25.6864 5.00357 25.4394 5.36551 24.7735L5.40245 24.7055L6.28745 25.1961C6.30282 25.5286 6.43264 25.857 6.68601 26.1104C6.96745 26.3919 7.36176 26.5536 7.82489 26.4999C7.77789 26.9057 7.90364 27.3281 8.21432 27.6387C8.49576 27.9202 8.89007 28.0819 9.3532 28.0282C9.3062 28.4341 9.43195 28.8564 9.74264 29.1671C10.0246 29.449 10.4188 29.6099 10.881 29.5564C10.8277 30.0181 10.9849 30.4095 11.2709 30.6953C11.8107 31.2351 12.6884 31.235 13.2281 30.6953L13.2716 30.6519L13.6273 31.0222C14.2394 31.6593 15.2611 31.6178 15.8236 30.9522L15.8962 30.8663C16.0894 30.6377 16.2012 30.3697 16.2361 30.0959L16.5747 30.4221C17.2494 31.0299 18.3018 30.8998 18.8114 30.1561C19.0512 29.8066 19.1165 29.3874 19.0343 28.9986C19.0487 28.9973 19.0631 28.9977 19.0775 28.996C19.5059 28.945 19.8916 28.7116 20.1355 28.3559C20.5154 27.8017 20.4684 27.0712 20.0587 26.5656C20.1483 26.5441 20.1804 26.523 26.1639 24.3167L26.5865 25.164C26.9246 25.8419 27.7501 26.1165 28.4266 25.7795L29.8336 25.0777C30.5123 24.7392 30.7874 23.9166 30.4491 23.2379L26.3121 14.9422C25.9738 14.2642 25.1506 13.9881 24.4722 14.3269L23.0651 15.0285C22.4293 15.3457 22.1541 16.0922 22.4021 16.7429C21.3646 17.2584 20.1313 17.4349 19.1159 17.1949C17.5207 16.8181 16.2122 16.6819 14.6121 17.5527L13.3153 18.2584L9.62357 16.9378L9.79164 16.6286C10.1529 15.964 9.90601 15.1295 9.24145 14.7682L7.85989 14.0172C7.19564 13.6567 6.36064 13.9031 5.99951 14.5677L1.57307 22.7125C1.21132 23.3787 1.45726 24.2111 2.12357 24.5729ZM7.11514 25.6814C6.81076 25.3767 6.8122 24.8856 7.11514 24.5824L7.54526 24.1521C7.84876 23.8489 8.33995 23.8479 8.64445 24.1521C8.94764 24.4556 8.94857 24.9467 8.64445 25.2512L8.21432 25.6814C7.92064 25.9747 7.40882 25.9747 7.11514 25.6814ZM8.64345 27.2096C8.34045 26.9066 8.34045 26.4135 8.64345 26.1104C8.67532 26.0786 9.67201 25.0819 9.61889 25.135C9.92182 24.8324 10.4143 24.8315 10.7181 25.135C11.0211 25.438 11.0211 25.9311 10.7181 26.2342L9.74264 27.2096C9.43945 27.5125 8.94657 27.5125 8.64345 27.2096ZM10.1717 28.7379C9.8687 28.4349 9.8687 27.9418 10.1717 27.6387C10.2453 27.5652 11.6962 26.1142 11.6265 26.1839C11.9294 25.8813 12.4219 25.8804 12.7257 26.1839C13.0287 26.4869 13.0287 26.9799 12.7257 27.2829L11.2709 28.7379C10.9677 29.0408 10.4746 29.0408 10.1717 28.7379ZM11.7 30.2662C11.3961 29.9623 11.3961 29.4709 11.7 29.1671L13.3052 27.5617C13.6081 27.2591 14.1006 27.2582 14.4044 27.5617C14.7074 27.8647 14.7074 28.3579 14.4044 28.6609L12.7991 30.2662C12.4958 30.5691 12.0029 30.5691 11.7 30.2662ZM15.4327 30.4746L15.3601 30.5605C15.0306 30.9504 14.4303 30.9819 14.065 30.6017L13.7008 30.2226C14.9061 29.0026 14.8128 29.1375 14.9681 28.925L15.3449 29.2589C15.7025 29.5757 15.7411 30.1097 15.4327 30.4746ZM23.3359 15.5718L24.743 14.8702C25.1226 14.6806 25.581 14.8363 25.7688 15.2132L29.9059 23.5088C30.0946 23.8869 29.9412 24.346 29.5627 24.5346L28.1556 25.2364C27.7783 25.4249 27.318 25.2707 27.1297 24.8932L22.9928 16.5977C22.8046 16.2204 22.9585 15.76 23.3359 15.5718ZM14.9022 18.0859C16.3449 17.3004 17.5313 17.4444 18.9763 17.7855C20.1363 18.0596 21.4908 17.8774 22.6593 17.2983C23.2911 18.5972 25.2654 22.6552 25.8206 23.7966L21.1275 25.5294C21.3012 24.9194 21.08 24.3497 20.6717 24.0017L16.1642 20.1604L16.1598 20.1566C16.1595 20.1568 16.1593 20.1571 16.159 20.1573C16.0653 20.0806 15.9347 20.0808 15.8655 20.1055L12.9066 21.1609C12.4638 21.318 11.9779 21.1024 11.7988 20.6686C11.6271 20.2525 11.7957 19.7764 12.1912 19.5612L14.9022 18.0859ZM12.6007 18.6474L11.9011 19.0281C11.2326 19.3919 10.9474 20.1968 11.2379 20.9003C11.5408 21.6336 12.3633 21.9995 13.1105 21.7326L15.9042 20.7361C17.5823 22.1662 19.0859 23.4476 20.2782 24.4636C20.6639 24.7923 20.6917 25.3816 20.3292 25.7442C20.0179 26.0552 19.5184 26.0872 19.1663 25.8074C18.8581 25.5698 20.2825 26.6679 16.1527 23.4841C16.0202 23.3817 15.8293 23.4061 15.7271 23.5392C15.6248 23.6718 15.6495 23.8624 15.7823 23.9647C15.8131 23.9887 19.0711 26.5146 19.4549 26.8122C19.819 27.1018 19.8981 27.629 19.635 28.0127C19.3896 28.3707 19.0139 28.5393 18.5123 28.1405L14.6354 24.9526C14.5026 24.8435 14.3074 24.8812 14.2144 24.987C14.2134 24.9882 14.2134 24.9897 14.2124 24.9909C14.2038 25.0214 14.0253 25.2367 14.2499 25.4215L18.1308 28.6124C18.4949 28.902 18.5741 29.4293 18.3109 29.8129C18.0012 30.2647 17.3707 30.322 16.9883 29.978C15.7199 28.7862 18.0177 30.9115 15.2169 28.3344C15.2858 27.9097 15.1603 27.4593 14.8336 27.1326C14.4874 26.7864 14.0028 26.6652 13.5568 26.7631C13.5646 26.3988 13.4323 26.0322 13.1549 25.7548C12.7168 25.3167 12.0581 25.2406 11.536 25.5138C11.4984 25.2092 11.3676 24.9262 11.1473 24.7059C10.7091 24.2677 10.0235 24.1619 9.45951 24.501C9.41695 24.2078 9.28689 23.9361 9.0737 23.7229C8.5327 23.1819 7.6572 23.182 7.11632 23.7229L6.6862 24.1532C6.56345 24.2759 6.47232 24.4176 6.40545 24.5674L5.71832 24.1866C10.6684 14.9924 8.96114 18.1635 9.33051 17.4775L12.6007 18.6474ZM2.10639 23.0024L6.5327 14.8576C6.73382 14.4876 7.19926 14.349 7.57007 14.5506L8.95164 15.3014C9.3222 15.5029 9.46076 15.9663 9.25851 16.3388C9.14645 16.3513 6.4237 21.5062 4.83232 24.4837C4.63114 24.8537 4.16826 24.9931 3.79495 24.7906L2.41339 24.0397C2.04282 23.8384 1.90514 23.3729 2.10639 23.0024Z" fill="#066C33" stroke="#066C33" stroke-width="0.25"/>
<path d="M15.136 14.7561C17.083 14.7561 16.5185 14.7553 16.8603 14.7561C20.7978 14.7561 23.9767 11.5433 23.9767 7.63963C23.9767 3.71944 20.7797 0.523315 16.8603 0.523315C16.5453 0.52419 17.2038 0.523315 15.136 0.523315C11.212 0.523315 8.01953 3.71563 8.01953 7.63963C8.01953 11.5636 11.212 14.7561 15.136 14.7561ZM18.4103 13.9549C19.662 13.3032 20.6973 12.2916 21.3763 11.0566H22.3905C21.5048 12.4846 20.0856 13.5434 18.4103 13.9549ZM23.2288 6.29657H22.1236C22.0257 5.78638 21.8739 5.29525 21.6731 4.82975H22.7231C22.9457 5.29225 23.1203 5.78169 23.2288 6.29657ZM22.2144 6.9035H23.3252C23.3526 7.1455 23.3698 7.39044 23.3698 7.63963C23.3698 7.88888 23.3526 8.13388 23.3252 8.37594H22.2144C22.2394 8.13381 22.2525 7.88825 22.2525 7.63963C22.2524 7.39113 22.2393 7.14557 22.2144 6.9035ZM22.1235 8.98288H23.2288C23.1203 9.49775 22.9456 9.98719 22.723 10.4497H21.673C21.8738 9.98419 22.0257 9.49306 22.1235 8.98288ZM22.3905 4.22288H21.3764C21.0818 3.68707 20.7194 3.194 20.3022 2.75313H21.1466C21.6306 3.17813 22.0495 3.673 22.3905 4.22288ZM20.3373 2.14619H19.6547C19.2717 1.8305 18.8542 1.55563 18.4104 1.32457C19.1028 1.49469 19.7513 1.77394 20.3373 2.14619ZM15.136 1.13032C18.7254 1.13032 21.6455 4.05044 21.6455 7.63969C21.6455 11.2291 18.7253 14.1492 15.136 14.1492C11.5466 14.1492 8.62647 11.2291 8.62647 7.63969C8.62647 4.05038 11.5466 1.13032 15.136 1.13032Z" fill="#066C33" stroke="#066C33" stroke-width="0.25"/>
<path d="M15.1385 12.7275C17.944 12.7275 20.2263 10.4451 20.2263 7.63975C20.2263 4.8345 17.9439 2.55212 15.1385 2.55212C12.3332 2.55212 10.0508 4.8345 10.0508 7.63975C10.0508 10.4451 12.3331 12.7275 15.1385 12.7275ZM15.1385 3.159C17.6092 3.159 19.6193 5.169 19.6193 7.63969C19.6193 10.1104 17.6092 12.1205 15.1385 12.1205C12.6678 12.1205 10.6577 10.1104 10.6577 7.63969C10.6577 5.169 12.6678 3.159 15.1385 3.159Z" fill="#066C33" stroke="#066C33" stroke-width="0.25"/>
<path d="M24.5172 16.7637L24.7123 16.6663L25.7621 18.7716C25.8153 18.8782 25.9226 18.9396 26.034 18.9396C26.0795 18.9396 26.1256 18.9294 26.1691 18.9078C26.3191 18.833 26.3801 18.6507 26.3053 18.5007L25.1201 16.1238C25.0841 16.0518 25.0211 15.997 24.9448 15.9715C24.8686 15.9462 24.7855 15.9518 24.713 15.9876L24.2463 16.2205C24.0963 16.2953 24.0353 16.4775 24.1101 16.6275C24.1851 16.7775 24.3676 16.8383 24.5172 16.7637Z" fill="#066C33" stroke="#066C33" stroke-width="0.25"/>
<path d="M15.137 9.72971C14.6445 9.72971 14.2437 9.32902 14.2437 8.83652C14.2437 8.66896 14.1078 8.53309 13.9402 8.53309C13.7727 8.53309 13.6368 8.66896 13.6368 8.83652C13.6368 9.55971 14.1513 10.165 14.8336 10.3056V10.649C14.8336 10.8166 14.9695 10.9525 15.137 10.9525C15.3046 10.9525 15.4405 10.8166 15.4405 10.649V10.3056C16.1226 10.1649 16.6372 9.55971 16.6372 8.83652C16.6372 8.00927 15.9642 7.33627 15.137 7.33627C14.6445 7.33627 14.2437 6.93559 14.2437 6.44309C14.2437 5.95059 14.6445 5.5499 15.137 5.5499C15.6296 5.5499 16.0302 5.95059 16.0302 6.44309C16.0302 6.61065 16.1661 6.74652 16.3337 6.74652C16.5012 6.74652 16.6371 6.61065 16.6371 6.44309C16.6371 5.7199 16.1226 5.11471 15.4404 4.97396V4.63059C15.4404 4.46302 15.3045 4.32715 15.137 4.32715C14.9694 4.32715 14.8335 4.46302 14.8335 4.63059V4.97396C14.1513 5.11465 13.6367 5.7199 13.6367 6.44309C13.6367 7.27021 14.3097 7.94321 15.137 7.94321C15.6295 7.94321 16.0302 8.34402 16.0302 8.83659C16.0302 9.32902 15.6296 9.72971 15.137 9.72971Z" fill="#066C33" stroke="#066C33" stroke-width="0.25"/>
</svg>
