<svg width="161" height="161" viewBox="0 0 161 161" fill="none" xmlns="http://www.w3.org/2000/svg">
<g clip-path="url(#clip0_2348_92832)">
<path d="M135.216 34.6349C134.99 34.3461 134.573 34.3322 134.213 34.3555C132.653 34.4577 131.109 34.8045 129.649 35.379L133.634 32.2544C133.94 32.0142 134.256 31.7626 134.433 31.412C135.468 29.3613 130.016 31.4693 129.287 31.8773C128.885 32.1031 128.485 32.3358 128.091 32.5754L131.326 28.737C131.458 28.5813 131.596 28.4104 131.613 28.2048C131.642 27.8586 131.295 27.5774 130.957 27.554C130.619 27.5307 130.297 27.6909 129.994 27.846C127.54 29.1059 124.996 30.2422 122.651 31.6957C122.854 30.4465 122.909 29.1721 122.815 27.9091C122.798 27.6795 122.77 27.4348 122.622 27.2614C122.194 26.7576 121.423 27.3384 121.057 27.892C120.582 28.6115 117.124 35.5001 114.774 39.9747C113.685 41.869 112.411 44.0218 111.14 45.8171C109.039 48.784 106.153 51.237 103.547 53.7146C103.496 53.7625 103.446 53.8098 103.396 53.8577C102.522 54.6926 101.548 55.5528 100.506 56.4085C97.0255 59.2669 92.7669 62.085 88.7922 63.8078C88.6816 63.7882 88.5715 63.7693 88.4621 63.7517L87.344 58.8564L86.5818 55.5212C87.8185 54.6428 88.8162 53.4352 89.4745 51.8884C90.2632 50.042 90.5681 47.712 90.2208 44.8832C90.0456 43.4593 89.7235 42.0531 89.2803 40.7112C88.4062 38.0634 87.0624 35.671 85.4599 33.8927C85.1286 33.5244 84.7856 33.1833 84.434 32.8711C84.5219 32.5142 84.5864 32.1504 84.6221 31.7809C84.6553 31.4403 84.6627 31.0891 84.56 30.7637C84.4377 30.3759 84.1684 30.0543 83.8715 29.7838C82.9513 28.9451 81.6445 28.4696 80.4139 28.5989C76.7521 28.9836 73.1647 30.1048 69.916 31.8799C69.0591 32.3484 68.2176 32.8674 67.5119 33.5522C66.8062 34.2364 66.2389 35.1015 66.0323 36.0752C65.8959 36.7184 65.9198 37.3862 65.9911 38.0401C66.1528 39.5156 66.5573 40.9628 67.1775 42.3041C67.4504 42.8943 67.7566 43.6277 68.1487 44.136C68.252 44.2696 68.3743 44.3756 68.509 44.4626C67.2482 44.9589 66.4313 46.2882 66.6071 47.724C66.8142 49.4127 68.3172 50.6089 69.9627 50.3958C70.6358 50.3088 71.2284 49.9998 71.6796 49.5496C72.1129 51.2767 72.775 52.6949 73.6097 53.8237C74.1636 54.5734 74.7943 55.1952 75.4852 55.6959L75.0322 58.2662L74.1703 63.1545C73.5747 63.4357 73.0092 63.8412 72.4732 64.3551C69.9117 64.1212 67.3386 64.0234 64.8165 63.3575C64.5632 63.2907 64.313 63.2157 64.0653 63.1349C62.7 62.6879 61.4245 62.0333 60.2117 61.2545C57.839 59.7304 55.7072 57.7295 53.6203 55.8674C52.1174 54.5268 50.5204 51.8651 49.2584 49.4405C48.4513 47.8899 47.7807 46.4357 47.3602 45.4867C45.8327 40.9855 43.4378 33.3939 43.0862 32.6139C42.8274 32.0394 42.1943 31.3767 41.7191 31.7796C41.5556 31.9183 41.4929 32.1428 41.4425 32.3541C41.1665 33.5181 41.0288 34.7169 41.0325 35.915C39.0587 34.1903 36.8538 32.7312 34.7496 31.1711C34.4896 30.9781 34.213 30.7789 33.894 30.7473C33.5749 30.7158 33.2092 30.9239 33.1846 31.2518C33.1699 31.446 33.2731 31.627 33.3727 31.7928L35.8223 35.8828C35.4891 35.5972 35.151 35.3178 34.8086 35.0435C34.189 34.5485 29.4128 31.7266 30.0742 33.8032C30.1873 34.1582 30.4443 34.4426 30.6945 34.715C31.7794 35.8954 32.8643 37.0753 33.9493 38.2557C32.6726 37.4908 31.2827 36.9252 29.8413 36.5853C29.5087 36.5071 29.1171 36.4548 28.8639 36.6887C28.65 36.8867 28.6192 37.2329 28.7176 37.511C28.8159 37.7891 29.0176 38.0136 29.2204 38.2242C30.4006 39.4507 31.7714 40.4849 33.2645 41.275C33.0168 41.1438 29.6095 40.8727 29.3341 41.0871C28.8934 41.4301 29.4257 42.1074 29.9101 42.3817C31.536 43.3023 33.1625 44.223 34.7884 45.1436C36.7345 46.2453 38.1354 47.8249 38.6782 49.8775C38.9081 51.4602 39.2074 53.171 39.5861 54.8982C40.3526 58.3942 41.4437 61.9545 42.9454 64.649C45.3145 68.9004 48.6474 72.8744 52.8771 75.6357C53.1495 75.8135 53.4255 75.9869 53.7051 76.154C54.8061 76.813 55.9371 77.414 57.0909 77.9657C56.8592 78.8397 56.6741 79.6872 56.5444 80.4919C58.8022 81.5191 62.5052 82.8988 65.8264 83.9632C65.3709 87.9612 65.2025 92.0745 65.323 95.8669C65.3365 96.295 65.3537 96.7194 65.3746 97.1387C65.4115 97.8778 65.4545 98.6137 65.5018 99.3433C65.5953 100.787 65.7072 102.207 65.8289 103.571C66.4602 110.643 67.3582 116.241 67.3582 116.241H121.168C121.168 116.241 119.02 110.466 116.272 103.252C115.79 101.985 115.289 100.674 114.778 99.3433C114.337 98.195 113.889 97.0309 113.439 95.8669C111.038 89.66 108.576 83.4405 106.866 79.4905C106.611 78.8996 106.296 78.2268 105.925 77.5016C107.952 76.231 112.189 71.7784 113.744 70.4126C113.365 69.7227 112.916 69.0227 112.41 68.319C113.216 67.5598 113.986 66.7614 114.715 65.9234C115.114 65.4637 115.502 64.9939 115.874 64.5103C117.96 61.8019 119.56 58.7492 120.708 55.5029C121.818 52.3645 122.818 49.1851 123.706 45.9735C123.81 45.597 123.912 45.2199 124.014 44.8422C123.977 44.8447 123.94 44.846 123.903 44.8466C124.722 43.7198 125.928 43.0387 127.63 42.4164C129.48 41.7404 131.329 41.0644 133.179 40.3884C133.73 40.1866 134.399 39.5737 133.995 39.1386C133.744 38.8668 130.144 38.5534 129.863 38.6467C131.553 38.0836 133.155 37.2449 134.59 36.1716C134.836 35.9875 135.084 35.7889 135.233 35.5158C135.382 35.2428 135.407 34.8764 135.217 34.6324L135.216 34.6349Z" fill="#EF7D5F"/>
<path d="M116.268 103.253C115.785 101.987 115.284 100.676 114.773 99.3449C114.333 98.1966 113.884 97.0325 113.434 95.8685C111.033 89.6616 108.571 83.4421 106.861 79.4921C106.606 78.9013 106.291 78.2284 105.92 77.5032C107.948 76.2326 112.184 71.78 113.739 70.4142C113.36 69.7243 112.911 69.0244 112.405 68.3206C109.306 64.003 104.12 59.5504 100.501 56.4095C97.0207 59.2679 92.7621 62.086 88.7875 63.8088C88.6768 63.7892 88.5668 63.7703 88.4574 63.7526L88.4801 63.8529C88.4801 63.8529 88.4881 67.4258 81.762 67.4258C78.2779 67.4258 76.3588 66.5903 75.3052 65.7276C74.1797 64.8064 74.0426 63.8529 74.0426 63.8529L74.1656 63.1549C73.5699 63.4361 73.0044 63.8416 72.4684 64.3555C69.9069 64.1215 67.3338 64.0238 64.8117 63.3579C64.5584 63.2911 64.3083 63.216 64.0605 63.1353C64.0193 63.1921 63.9788 63.2501 63.9376 63.3081C63.9044 63.3554 63.8706 63.4027 63.8368 63.4506C63.8362 63.4519 63.8356 63.4525 63.8343 63.4537C63.4673 63.979 63.0979 64.5415 62.7303 65.1343C60.4332 68.8396 58.2104 73.7197 57.0855 77.9661C56.8538 78.8401 56.6688 79.6876 56.5391 80.4922C58.7969 81.5195 62.4998 82.8992 65.821 83.9636C65.3655 87.9615 65.1971 92.0749 65.3176 95.8672C65.3311 96.2954 65.3483 96.7198 65.3692 97.1391C65.4061 97.8782 65.4491 98.6141 65.4965 99.3436C65.5899 100.788 65.7018 102.207 65.8235 103.572C66.4548 110.644 67.3529 116.241 67.3529 116.241H121.162C121.162 116.241 119.015 110.466 116.267 103.252L116.268 103.253Z" fill="#F7AA4B"/>
<path d="M103.549 53.7162C103.498 53.7642 103.448 53.8115 103.398 53.8594C102.524 54.6943 101.55 55.5544 100.508 56.4101C104.127 59.5511 109.313 64.0037 112.412 68.3213C113.218 67.5621 113.988 66.7637 114.717 65.9257C111.854 61.1629 107.97 57.0577 103.549 53.7162Z" fill="#E06850"/>
<path d="M100.502 56.41C97.0214 59.2685 92.7627 62.0866 88.7881 63.8094C88.6774 63.7898 88.5674 63.7709 88.458 63.7532L88.4807 63.8535C91.5481 69.0325 93.4936 82.3871 93.4936 82.3871C84.7563 78.1445 77.9933 69.5294 75.3052 65.7282C74.1797 64.8069 74.0427 63.8535 74.0427 63.8535L74.1656 63.1554C73.5699 63.4367 73.0044 63.8421 72.4684 64.3561C69.9069 64.1221 67.3338 64.0244 64.8117 63.3585C64.5584 63.2916 64.3083 63.2166 64.0605 63.1359C64.0193 63.1926 63.9788 63.2507 63.9376 63.3087C63.9044 63.356 63.8706 63.4033 63.8368 63.4512C63.8362 63.4524 63.8356 63.4531 63.8343 63.4543C63.4673 63.9796 63.0979 64.5421 62.7303 65.1349C60.4332 68.8402 58.2104 73.7203 57.0855 77.9667C56.8538 78.8407 56.6688 79.6882 56.5391 80.4928C58.7969 81.52 62.4998 82.8998 65.821 83.9642C65.3655 87.9621 65.1971 92.0755 65.3176 95.8678H113.433C111.032 89.6609 108.57 83.4414 106.861 79.4914C106.605 78.9006 106.29 78.2277 105.919 77.5026C107.947 76.2319 112.184 71.7794 113.738 70.4135C113.359 69.7236 112.91 69.0237 112.405 68.32C109.306 64.0023 104.119 59.5497 100.501 56.4088L100.502 56.41Z" fill="#91862B"/>
<path d="M63.8369 63.4544C63.8369 63.4544 63.8382 63.4519 63.8394 63.4512C63.8726 63.4033 63.9064 63.356 63.9402 63.3087C63.9814 63.2507 64.0226 63.1933 64.0632 63.1359C62.6979 62.6889 61.4224 62.0343 60.2096 61.2555C57.1539 65.6356 54.2894 70.4419 52.875 75.6373C53.1473 75.8152 53.4233 75.9886 53.703 76.1557C54.8039 76.8146 55.935 77.4156 57.0888 77.9674C58.2137 73.721 60.4364 68.8409 62.7336 65.1355C63.0852 64.5642 63.4534 64.0036 63.8376 63.455L63.8369 63.4544Z" fill="#E06850"/>
<path d="M65.8192 103.573L116.263 103.253C115.78 101.987 115.279 100.676 114.768 99.3449H65.4922C65.5856 100.789 65.6975 102.208 65.8192 103.573Z" fill="#91862B"/>
<path d="M81.7693 67.4258C78.2852 67.4258 76.3661 66.5903 75.3125 65.7277C78.0006 69.5295 84.7629 78.1439 93.5009 82.3865C93.5009 82.3865 91.5547 69.032 88.488 63.8529C88.488 63.8529 88.496 67.4258 81.7699 67.4258H81.7693Z" fill="#F7EFEC"/>
<path d="M87.3268 58.8579L86.5646 55.5227C85.291 56.4276 83.764 56.9832 82.0921 57.1988C79.6548 57.5141 77.3398 57.0519 75.4687 55.6968L75.0156 58.2671C78.8643 59.9917 83.3436 60.3537 87.3268 58.8579Z" fill="#E06850"/>
<path d="M71.2687 47.334C71.1771 46.588 71.1261 45.8357 71.1132 45.0859C71.0664 45.6459 70.0454 45.021 69.6502 44.8999C69.2666 44.7832 68.8461 44.6849 68.5038 44.4635C67.243 44.9598 66.4261 46.2891 66.6019 47.7249C66.809 49.4136 68.312 50.6099 69.9575 50.3967C70.6306 50.3097 71.2232 50.0007 71.6744 49.5505C71.5016 48.8613 71.3646 48.1228 71.2674 47.334H71.2687Z" fill="#E06850"/>
<path d="M69.3973 46.4304C69.2916 46.3326 69.2018 46.25 69.1354 46.1901C69.1022 46.1598 69.0752 46.1359 69.0549 46.1182L69.01 46.081L68.9375 46.1977C68.9658 46.2198 69.1238 46.3642 69.3364 46.5609C69.5331 46.7425 69.779 46.972 70.0255 47.2028L69.069 47.8618L69.144 47.9766L70.1276 47.2987C70.248 47.4116 70.3679 47.5232 70.4798 47.6279C70.8517 47.9759 71.1424 48.2496 71.143 48.2496L71.234 48.1481C71.234 48.1481 70.6986 47.6455 70.154 47.1366C69.8817 46.8825 69.6069 46.6265 69.3955 46.431L69.3973 46.4304Z" fill="#853F40"/>
<path d="M73.5485 40.7444C73.4514 40.7615 73.3531 40.7779 73.2541 40.793C72.9025 41.5112 72.4421 42.1734 71.8931 42.7466C71.7247 42.9219 71.5907 43.0883 71.4844 43.2529C71.9417 43.0057 72.4408 42.8216 72.9701 42.7144C73.1951 42.1847 73.4428 41.6714 73.72 41.1796C73.6463 41.0471 73.5903 40.8983 73.5492 40.7444H73.5485Z" fill="#E06850"/>
<path d="M84.4015 34.9599C84.8189 34.6749 85.1588 34.3098 85.4453 33.8942C85.1139 33.526 84.7709 33.1848 84.4193 32.8727C84.1845 33.828 83.7806 34.7386 83.2969 35.6082C83.6743 35.4329 84.0437 35.2216 84.4015 34.9593V34.9599Z" fill="#E06850"/>
<path d="M73.4303 40.4146C73.448 40.4064 73.4658 40.3976 73.4835 40.3887C73.4797 40.3629 73.4772 40.337 73.474 40.3118C73.4594 40.3458 73.4449 40.3805 73.4297 40.414L73.4303 40.4146Z" fill="#E06850"/>
<path d="M71.1072 45.0866C71.0979 44.5405 71.1084 43.9951 71.1385 43.454C71.2498 43.3828 71.3635 43.3159 71.4803 43.2529C71.5866 43.0877 71.7206 42.9218 71.8891 42.7465C72.438 42.1733 72.8984 41.5112 73.25 40.793C73.3496 40.7778 73.4473 40.7614 73.5444 40.7444C73.5856 40.8983 73.6416 41.0471 73.7153 41.1795C73.8463 41.4153 74.0331 41.5982 74.2913 41.6619C74.4917 41.7111 74.7032 41.6751 74.9011 41.6171C75.6025 41.4109 76.1975 40.9386 76.7409 40.4392C77.4478 39.7903 78.0994 39.0784 78.687 38.3141C79.0847 37.797 79.4554 37.2509 79.7062 36.6456C79.7117 36.6317 79.7173 36.6185 79.7228 36.6046C79.7173 36.6178 79.7117 36.6317 79.7062 36.6456C79.2913 37.6678 79.2618 38.8495 79.6275 39.8912C80.635 39.4227 81.3849 38.5418 82.0359 37.6123L82.0328 38.5884C82.0328 38.5884 84.676 39.4586 87.8583 38.8955C87.8583 38.8955 84.2697 38.3286 82.2498 37.2995C82.272 37.2661 82.2947 37.2333 82.3168 37.1999C82.6611 36.6853 82.9961 36.155 83.2997 35.6089C83.7829 34.7393 84.1874 33.8287 84.4222 32.8734C84.5101 32.5165 84.5746 32.1526 84.6103 31.7831C84.6435 31.4426 84.6508 31.0914 84.5482 30.766C84.4259 30.3782 84.1566 30.0566 83.8597 29.786C82.9395 28.9474 81.6327 28.4719 80.402 28.6012C76.7403 28.9858 73.1529 30.107 69.9042 31.8821C69.0473 32.3506 68.2058 32.8696 67.5001 33.5544C66.7944 34.2386 66.2271 35.1038 66.0205 36.0774C65.8841 36.7206 65.908 37.3884 65.9793 38.0423C66.141 39.5179 66.5455 40.9651 67.1657 42.3064C67.4386 42.8966 67.7447 43.63 68.1369 44.1382C68.2402 44.2719 68.3625 44.3778 68.4971 44.4649C68.8395 44.6868 69.26 44.7846 69.6436 44.9012C70.0388 45.0217 71.0592 45.6472 71.1065 45.0873L71.1072 45.0866ZM73.4233 40.4146C73.4375 40.3805 73.4522 40.3465 73.4664 40.3124C73.4688 40.3377 73.4719 40.3635 73.4756 40.3894C73.4584 40.3982 73.4406 40.4064 73.424 40.4152L73.4233 40.4146Z" fill="#442B14"/>
<path d="M79.4425 49.1892C79.5335 48.652 79.5494 48.092 79.4794 47.5226C79.4745 47.4841 79.4695 47.4463 79.464 47.4085C79.4591 47.375 79.4542 47.3416 79.4486 47.3082C79.448 47.3044 79.4474 47.3 79.4468 47.2962C79.44 47.2533 79.4327 47.2098 79.4247 47.1669C79.4228 47.1575 79.421 47.148 79.4191 47.1392C79.4161 47.1222 79.413 47.1058 79.4093 47.0887C79.3976 47.0307 79.3853 46.9734 79.3718 46.9166C79.3693 46.9071 79.3675 46.8977 79.365 46.8882C79.3632 46.88 79.3607 46.8718 79.3589 46.8636C79.3552 46.8491 79.3521 46.834 79.3484 46.8195C79.3448 46.8037 79.3405 46.7886 79.3368 46.7728C79.3349 46.7659 79.3331 46.7589 79.3312 46.752C79.3263 46.7344 79.3214 46.7167 79.3171 46.6984C79.3159 46.6934 79.3146 46.6883 79.3134 46.6839C79.3091 46.6688 79.3048 46.6536 79.3005 46.6385C79.2987 46.6309 79.2962 46.6234 79.2943 46.6164C79.2888 46.5975 79.2833 46.5786 79.2778 46.5597C79.2765 46.5565 79.2759 46.5534 79.2747 46.5496C79.2698 46.5338 79.2648 46.5181 79.2599 46.5029C79.2575 46.496 79.2556 46.4891 79.2538 46.4821C79.2495 46.4682 79.2452 46.4544 79.2403 46.4405C79.2378 46.4323 79.2347 46.4241 79.2323 46.4153C79.2273 46.4008 79.2224 46.3869 79.2175 46.3724C79.2151 46.3648 79.2126 46.3573 79.2095 46.3497C79.204 46.3339 79.1985 46.3175 79.1929 46.3018C79.1911 46.2961 79.1892 46.2904 79.1868 46.2847C79.1806 46.2677 79.1745 46.2507 79.1683 46.2343C79.1665 46.2293 79.1646 46.2248 79.1628 46.2198C79.1548 46.199 79.1474 46.1782 79.1388 46.1574C79.1388 46.1574 79.1388 46.1567 79.1388 46.1561C79.1228 46.1145 79.1063 46.0729 79.089 46.0319C79.089 46.0306 79.0878 46.0294 79.0872 46.0281C79.0712 45.989 79.054 45.9499 79.0374 45.9114C79.0362 45.9083 79.0343 45.9051 79.0331 45.9014C79.0263 45.8862 79.0196 45.8705 79.0122 45.8553C79.0097 45.8496 79.0073 45.844 79.0048 45.8383C78.9975 45.8219 78.9901 45.8061 78.9827 45.7904C78.9809 45.786 78.9784 45.7815 78.9766 45.7771C78.9673 45.7582 78.9581 45.7387 78.9489 45.7197C78.9489 45.7185 78.9477 45.7178 78.947 45.7166C78.9372 45.6964 78.9274 45.6762 78.9175 45.6567C78.9175 45.6567 78.9175 45.6567 78.9175 45.6561C78.8973 45.6157 78.877 45.576 78.8561 45.5362C78.8561 45.5362 78.8561 45.535 78.8555 45.535C77.808 43.5669 75.6621 42.3556 73.3619 42.6526C73.2328 42.669 73.1055 42.6904 72.9795 42.7163C72.4503 42.8235 71.9518 43.0076 71.4938 43.2548C71.377 43.3178 71.2633 43.3847 71.152 43.4559C71.1219 43.997 71.1108 44.5424 71.1207 45.0885C71.1336 45.8383 71.1846 46.59 71.2762 47.3366C71.3733 48.1254 71.5098 48.8639 71.6831 49.5531C72.1165 51.2803 72.7785 52.6985 73.6133 53.8272C73.9797 53.8575 74.3534 53.8486 74.7308 53.8001C77.0323 53.5025 78.8192 51.7803 79.357 49.6054C79.2667 49.4888 79.1745 49.3664 79.0817 49.2391H79.086L79.4431 49.1911L79.4425 49.1892Z" fill="#E1625C"/>
<path d="M90.2184 44.8848C90.0432 43.4609 89.7211 42.0547 89.2779 40.7128C88.906 40.6813 88.5267 40.6895 88.1425 40.7393C85.7593 41.047 83.9282 42.8827 83.4641 45.1673C83.4641 45.1673 83.4641 45.1679 83.4641 45.1685C83.4604 45.1881 83.4561 45.2076 83.4524 45.2278L83.4505 45.2379C83.4468 45.2562 83.4438 45.2751 83.4401 45.2934C83.4395 45.2972 83.4388 45.301 83.4382 45.3041C83.4352 45.3218 83.4321 45.3394 83.429 45.3571C83.4284 45.3621 83.4272 45.3672 83.4266 45.3722C83.4235 45.3892 83.421 45.4069 83.4186 45.4239C83.418 45.429 83.4167 45.434 83.4161 45.4391C83.4136 45.4555 83.4112 45.4718 83.4087 45.4882C83.4075 45.4952 83.4069 45.5021 83.4057 45.5097C83.4032 45.5254 83.4014 45.5406 83.3995 45.5563C83.3989 45.5627 83.3977 45.5696 83.397 45.5759C83.3952 45.5917 83.3934 45.6074 83.3909 45.6232C83.3903 45.6308 83.3891 45.6383 83.3884 45.6459C83.3866 45.6604 83.3854 45.6743 83.3835 45.6888C83.3823 45.6982 83.3817 45.7071 83.3805 45.7165C83.3792 45.7304 83.3774 45.7436 83.3762 45.7575L83.3737 45.784C83.3725 45.7979 83.3712 45.8124 83.37 45.8269C83.3694 45.8357 83.3688 45.8445 83.3682 45.8534C83.3669 45.8666 83.3663 45.8805 83.3651 45.8937C83.3645 45.9038 83.3639 45.9145 83.3632 45.9246C83.3626 45.9372 83.3614 45.9505 83.3608 45.9631C83.3608 45.9732 83.3596 45.9826 83.3589 45.9927C83.3583 46.006 83.3577 46.0198 83.3571 46.0331C83.3571 46.0425 83.3565 46.0526 83.3559 46.0621C83.3559 46.0753 83.3546 46.0886 83.354 46.1012C83.354 46.1113 83.3534 46.1214 83.3528 46.1314C83.3528 46.1447 83.3522 46.1579 83.3516 46.1718C83.3516 46.1825 83.3516 46.1926 83.3516 46.2033C83.3516 46.2153 83.3516 46.2273 83.3516 46.2393C83.3516 46.2525 83.3516 46.2651 83.3516 46.2784C83.3516 46.2885 83.3516 46.2985 83.3516 46.3086C83.3516 46.3212 83.3516 46.3332 83.3516 46.3458C83.3516 46.3572 83.3516 46.3692 83.3516 46.3805C83.3516 46.3919 83.3516 46.4032 83.3522 46.4146C83.3522 46.4259 83.3522 46.4379 83.3528 46.4493C83.3528 46.4619 83.3534 46.4751 83.354 46.4877C83.354 46.4984 83.3546 46.5092 83.3553 46.5205C83.3553 46.5319 83.3565 46.5426 83.3565 46.5539C83.3565 46.5665 83.3577 46.5792 83.3583 46.5924C83.3583 46.6038 83.3596 46.6157 83.3602 46.6271C83.3608 46.6384 83.3614 46.6498 83.362 46.6611C83.3632 46.6763 83.3639 46.6914 83.3651 46.7065C83.3651 46.7147 83.3663 46.7236 83.3669 46.7318C83.3682 46.7456 83.3694 46.7601 83.37 46.774C83.3706 46.7835 83.3712 46.7936 83.3725 46.803C83.3737 46.8182 83.3755 46.8333 83.3768 46.8491C83.3774 46.8573 83.378 46.8654 83.3792 46.8736C83.3811 46.8932 83.3835 46.9134 83.3854 46.9329C83.3854 46.9367 83.386 46.9405 83.3866 46.9443C83.3891 46.9682 83.3921 46.9922 83.3952 47.0162C83.4647 47.5799 83.6128 48.114 83.828 48.6071L85.6671 48.3631C85.6671 48.3631 85.57 48.7534 85.3647 49.2743C85.2485 49.5688 85.0979 49.9049 84.9098 50.2372C86.0581 51.4423 87.7202 52.105 89.4746 51.8906C90.2632 50.0442 90.5681 47.7142 90.2208 44.8854L90.2184 44.8848Z" fill="#E1625C"/>
<path d="M83.8285 48.6072L79.4396 49.1892L79.0824 49.2365H79.0781C79.1709 49.3645 79.2625 49.4868 79.3535 49.6035C79.5779 49.8929 79.7961 50.1508 80.0069 50.3797C82.1516 52.7072 83.6078 52.0231 84.5053 50.8533C84.6559 50.6572 84.7899 50.4479 84.9098 50.2372C85.0979 49.9049 85.2491 49.5688 85.3647 49.2743C85.57 48.7535 85.6671 48.3631 85.6671 48.3631L83.8279 48.6072H83.8285Z" fill="#33180E"/>
<path d="M80.0078 50.3798C82.1525 52.7073 83.6087 52.0231 84.5062 50.8533C83.1526 50.1074 81.5009 49.939 80.0078 50.3798Z" fill="#AC3A3B"/>
<path d="M85.3766 49.2737C85.5819 48.7529 85.679 48.3625 85.679 48.3625L83.8398 48.6066L79.4509 49.1886L79.0938 49.2359C80.971 50.1427 83.4317 50.2089 85.376 49.2731L85.3766 49.2737Z" fill="#F7EFEC"/>
<path d="M81.3073 47.0484C81.4376 47.1865 82.8606 46.9444 82.9793 46.8321C83.0973 46.7199 80.4375 40.7274 80.4375 40.7274C80.4375 40.7274 81.177 46.9097 81.3073 47.0478V47.0484Z" fill="#E1625C"/>
<path d="M84.1172 43.6696C84.1172 43.6696 85.4806 42.1411 87.9953 43.0611L88.449 42.6664L87.964 42.3914C87.964 42.3914 85.5175 41.1731 84.1172 43.6696Z" fill="#33180E"/>
<path d="M77.8356 44.8022C76.0776 42.5567 73.8431 44.1464 73.8431 44.1464L73.6016 44.2857L73.9126 44.8135C76.2589 43.5076 77.8356 44.8022 77.8356 44.8022Z" fill="#33180E"/>
</g>
<path opacity="0.46" d="M91.0027 152.983C118.562 152.983 140.904 150.892 140.904 148.313C140.904 145.734 118.562 143.643 91.0027 143.643C63.4431 143.643 41.1016 145.734 41.1016 148.313C41.1016 150.892 63.4431 152.983 91.0027 152.983Z" fill="#CACACA"/>
<path d="M148.774 70.0638L111.34 80.6026L120.39 89.762C110.352 99.9687 97.8011 112.784 97.4664 113.39C96.9067 114.402 87.1665 94.4897 87.1665 94.4897L60.8687 123.548L51.2677 110.847L30.2734 134.307L49.8735 120.955L60.464 134.766L84.1028 110.753L94.1819 131.353L129.323 98.8036L139.05 108.648L148.774 70.0638Z" fill="#D03240"/>
<path d="M94.5547 131.409L130.014 99.5077L127.998 97.0927L94.5547 131.409Z" fill="#AE2436"/>
<path d="M60.4531 134.766L85.4406 113.457L84.1058 110.757L60.4531 134.766Z" fill="#AE2436"/>
<path d="M49.8738 120.956L30.2734 134.307L51.1976 122.682L49.8738 120.956Z" fill="#AE2436"/>
<path d="M112.217 111.694C107.822 104.143 96.0747 107.521 96.0315 107.534C92.6507 111.865 88.2265 118.574 86.1757 126.132C82.6188 139.242 86.9887 145.848 86.9887 145.848C86.9887 145.848 89.4277 150.93 103.656 149.507C108.509 149.022 112.922 149.194 116.649 149.114C122.957 136.268 116.62 119.258 112.217 111.694Z" fill="#404799"/>
<path d="M128.766 139.141C129.071 127.657 118.488 107.503 110.981 102.453H100.443C100.443 102.453 98.5219 104.353 96.0391 107.534C96.0823 107.521 107.829 104.143 112.225 111.693C116.628 119.258 122.965 136.268 116.657 149.113C123.89 148.958 128.534 147.853 128.766 139.141Z" fill="#3B448E"/>
<path d="M100.431 102.453C100.431 102.453 91.6061 89.519 97.8151 89.733C104.024 89.9472 102.874 92.1951 106.768 91.767C110.661 91.3388 111.411 88.5555 115.907 90.2683C120.403 91.9812 110.019 103.65 110.019 103.65L100.431 102.453Z" fill="#404799"/>
<path d="M109.688 119.946C110.517 119.946 111.195 119.268 111.195 118.439C111.195 117.611 110.517 116.933 109.688 116.933H101.177H97.7584C96.93 116.933 96.2521 117.611 96.2521 118.439C96.2521 119.268 96.93 119.946 97.7584 119.946H101.178C102.639 119.946 103.889 120.804 104.461 122.055H97.7733C96.9449 122.055 96.267 122.733 96.267 123.561C96.267 124.389 96.9449 125.067 97.7733 125.067H104.461C103.889 126.303 102.639 127.176 101.178 127.176H97.7584C97.1409 127.176 96.5835 127.553 96.3574 128.125C96.1313 128.698 96.267 129.36 96.7188 129.782L105.245 137.841C105.531 138.112 105.907 138.248 106.284 138.248C106.691 138.248 107.082 138.082 107.384 137.781C107.956 137.178 107.926 136.229 107.323 135.657L101.539 130.189C104.506 130.023 106.962 127.899 107.624 125.082H109.688C110.517 125.082 111.194 124.404 111.194 123.576C111.194 122.747 110.517 122.07 109.688 122.07H107.624C107.444 121.316 107.142 120.593 106.721 119.961H109.688V119.946H109.688Z" fill="#E9F4F9"/>
<path d="M105.778 149.335C105.778 149.335 96.7463 149.335 94.4 144.4C94.4 144.4 93.96 148.283 97.5342 149.731C97.5342 149.731 103.882 149.917 105.778 149.335Z" fill="#3B448E"/>
<path d="M109.039 99.5006C109.039 99.5006 111.997 95.0475 112.794 89.7163C112.794 89.7163 118.896 89.1495 116.64 93.8425C116.64 93.8425 115.666 96.9304 111.909 101.371L109.039 99.5006Z" fill="#3B448E"/>
<path d="M100.513 102.939C100.183 102.945 99.8572 102.787 99.6634 102.491C99.3632 102.033 99.488 101.42 99.9449 101.118C100.151 100.981 105.092 97.7953 111.961 100.246C112.478 100.431 112.748 100.999 112.563 101.516C112.379 102.033 111.811 102.303 111.293 102.119C105.394 100.015 101.213 102.665 101.038 102.778C100.876 102.884 100.694 102.936 100.513 102.939Z" fill="#18186B"/>
<path d="M113.302 104.551C113.193 104.551 113.083 104.533 112.974 104.495C104.314 101.467 98.7665 104.399 98.7119 104.429C98.2308 104.692 97.6265 104.514 97.3635 104.032C97.1008 103.55 97.2789 102.946 97.7611 102.683C98.0177 102.544 104.148 99.3035 113.63 102.618C114.149 102.799 114.422 103.366 114.241 103.885C114.098 104.294 113.713 104.551 113.302 104.551Z" fill="#1C1980"/>
<path d="M107.361 111.777C107.232 111.777 107.1 111.752 106.974 111.698C106.469 111.484 106.232 110.901 106.446 110.395C108.986 104.395 106.808 103.207 106.785 103.195C106.806 103.206 106.681 103.132 106.681 103.132L107.574 101.371C107.686 101.417 108.683 101.861 109.259 103.26C110.032 105.141 109.702 107.803 108.277 111.17C108.116 111.549 107.748 111.777 107.361 111.777Z" fill="#1C1980"/>
<path d="M115.776 114.609C115.233 114.682 114.733 114.301 114.659 113.758C114.656 113.74 114.398 111.921 113.467 109.839C112.26 107.138 110.543 105.28 108.366 104.318C107.864 104.096 107.637 103.509 107.858 103.007C108.08 102.505 108.667 102.278 109.17 102.5C115.452 105.276 116.584 113.156 116.628 113.491C116.702 114.035 116.32 114.535 115.776 114.609Z" fill="#1C1980"/>
<path fill-rule="evenodd" clip-rule="evenodd" d="M51.1875 143.621C51.1875 143.621 66.7149 142.737 82.2423 143.621H51.1875Z" fill="#F1E28E"/>
<path d="M51.1875 143.621V147.762H82.2423V143.621H51.1875Z" fill="#CA9A27"/>
<mask id="mask0_2348_92832" style="mask-type:luminance" maskUnits="userSpaceOnUse" x="51" y="143" width="32" height="5">
<path d="M51.2109 143.621V147.762H82.2657V143.621H51.2109Z" fill="white"/>
</mask>
<g mask="url(#mask0_2348_92832)">
<path d="M52.6172 149.064V142.972" stroke="#ECD757" stroke-width="2.97675" stroke-miterlimit="10"/>
<path d="M55 148.945V142.854" stroke="#ECD757" stroke-width="2.97675" stroke-miterlimit="10"/>
<path d="M57.3672 148.826V142.735" stroke="#ECD757" stroke-width="2.97675" stroke-miterlimit="10"/>
<path d="M59.7422 148.568V142.477" stroke="#ECD757" stroke-width="2.97675" stroke-miterlimit="10"/>
<path d="M62.1172 148.766V142.675" stroke="#ECD757" stroke-width="2.97675" stroke-miterlimit="10"/>
<path d="M64.4922 148.766V142.675" stroke="#ECD757" stroke-width="2.97675" stroke-miterlimit="10"/>
<path d="M66.8594 149.074V142.983" stroke="#ECD757" stroke-width="2.97675" stroke-miterlimit="10"/>
<path d="M69.2266 148.766V142.675" stroke="#ECD757" stroke-width="2.97675" stroke-miterlimit="10"/>
<path d="M76.3438 149.04V142.949" stroke="#ECD757" stroke-width="2.97675" stroke-miterlimit="10"/>
<path d="M71.6094 148.766V142.675" stroke="#ECD757" stroke-width="2.97675" stroke-miterlimit="10"/>
<path d="M78.7266 148.759V142.668" stroke="#ECD757" stroke-width="2.97675" stroke-miterlimit="10"/>
<path d="M73.9766 148.882V142.79" stroke="#ECD757" stroke-width="2.97675" stroke-miterlimit="10"/>
<path d="M81.0938 148.681V142.59" stroke="#ECD757" stroke-width="2.97675" stroke-miterlimit="10"/>
</g>
<path fill-rule="evenodd" clip-rule="evenodd" d="M49.8438 138.821C49.8438 138.821 65.3712 137.936 80.8986 138.821H49.8438Z" fill="#F1E28E"/>
<path d="M49.8438 138.821V142.961H80.8986V138.821H49.8438Z" fill="#CA9A27"/>
<mask id="mask1_2348_92832" style="mask-type:luminance" maskUnits="userSpaceOnUse" x="49" y="138" width="32" height="5">
<path d="M49.8438 138.821V142.961H80.8986V138.821H49.8438Z" fill="white"/>
</mask>
<g mask="url(#mask1_2348_92832)">
<path d="M51.25 144.263V138.172" stroke="#ECD757" stroke-width="2.97675" stroke-miterlimit="10"/>
<path d="M53.6328 144.144V138.053" stroke="#ECD757" stroke-width="2.97675" stroke-miterlimit="10"/>
<path d="M56 144.026V137.934" stroke="#ECD757" stroke-width="2.97675" stroke-miterlimit="10"/>
<path d="M58.375 143.768V137.677" stroke="#ECD757" stroke-width="2.97675" stroke-miterlimit="10"/>
<path d="M60.75 143.965V137.874" stroke="#ECD757" stroke-width="2.97675" stroke-miterlimit="10"/>
<path d="M63.125 143.965V137.874" stroke="#ECD757" stroke-width="2.97675" stroke-miterlimit="10"/>
<path d="M65.4922 144.274V138.182" stroke="#ECD757" stroke-width="2.97675" stroke-miterlimit="10"/>
<path d="M67.8594 143.965V137.874" stroke="#ECD757" stroke-width="2.97675" stroke-miterlimit="10"/>
<path d="M74.9766 144.239V138.148" stroke="#ECD757" stroke-width="2.97675" stroke-miterlimit="10"/>
<path d="M70.2422 143.965V137.874" stroke="#ECD757" stroke-width="2.97675" stroke-miterlimit="10"/>
<path d="M77.3594 143.959V137.867" stroke="#ECD757" stroke-width="2.97675" stroke-miterlimit="10"/>
<path d="M72.6094 144.081V137.99" stroke="#ECD757" stroke-width="2.97675" stroke-miterlimit="10"/>
<path d="M79.7266 143.881V137.79" stroke="#ECD757" stroke-width="2.97675" stroke-miterlimit="10"/>
</g>
<path d="M77.0708 149.391C84.8981 149.391 91.2433 143.046 91.2433 135.219C91.2433 127.392 84.8981 121.047 77.0708 121.047C69.2436 121.047 62.8984 127.392 62.8984 135.219C62.8984 143.046 69.2436 149.391 77.0708 149.391Z" fill="#CA9A27"/>
<path d="M76.4615 149.391C84.2887 149.391 90.6339 143.046 90.6339 135.219C90.6339 127.392 84.2887 121.047 76.4615 121.047C68.6343 121.047 62.2891 127.392 62.2891 135.219C62.2891 143.046 68.6343 149.391 76.4615 149.391Z" fill="#ECD757"/>
<path d="M76.4615 149.391C84.2887 149.391 90.6339 143.046 90.6339 135.219C90.6339 127.392 84.2887 121.047 76.4615 121.047C68.6343 121.047 62.2891 127.392 62.2891 135.219C62.2891 143.046 68.6343 149.391 76.4615 149.391Z" fill="#ECD757"/>
<path d="M76.4511 146.647C82.7625 146.647 87.8788 141.53 87.8788 135.219C87.8788 128.908 82.7625 123.791 76.4511 123.791C70.1398 123.791 65.0234 128.908 65.0234 135.219C65.0234 141.53 70.1398 146.647 76.4511 146.647Z" fill="#CA9A27"/>
<path d="M76.4615 123.791C76.3777 123.791 76.2945 123.793 76.2109 123.795C82.4064 123.928 87.388 128.992 87.388 135.219C87.388 141.447 82.4064 146.51 76.2109 146.643C76.2942 146.645 76.3777 146.647 76.4615 146.647C82.7728 146.647 87.8892 141.53 87.8892 135.219C87.8892 128.908 82.7728 123.791 76.4615 123.791Z" fill="#F1E28E"/>
<path d="M65.7907 135.219C65.7907 129.036 70.7012 124.001 76.8346 123.798C76.7072 123.794 76.5793 123.791 76.4511 123.791C70.1399 123.791 65.0234 128.908 65.0234 135.219C65.0234 141.53 70.1399 146.647 76.4511 146.647C76.5796 146.647 76.7072 146.644 76.8346 146.639C70.7012 146.437 65.7907 141.402 65.7907 135.219Z" fill="#B68D24"/>
<path fill-rule="evenodd" clip-rule="evenodd" d="M78.2286 130.551C78.6338 131.119 78.9379 131.747 79.1204 132.436H81.2082L80.3974 134.869H79.242C78.8974 137.382 77.1542 139.348 74.6816 139.693L78.4406 144.997H75.4814L71.7428 139.754V137.321H73.7697C75.2493 137.321 76.5061 136.287 76.8099 134.889H71.1953L72.0061 132.457H76.6274C76.1612 131.342 75.0464 130.571 73.7694 130.571H71.1953L72.0061 128.139H81.2082L80.3974 130.571H78.2286V130.551Z" fill="#B68D24"/>
<path fill-rule="evenodd" clip-rule="evenodd" d="M78.7679 130.047C79.1732 130.615 79.4773 131.243 79.6598 131.932H81.7475L80.9367 134.365H79.7813C79.4367 136.878 77.6936 138.844 75.2207 139.189L78.9797 144.493H76.0205L72.2819 139.25V136.817H74.3087C75.7883 136.817 77.0452 135.783 77.349 134.385H71.7344L72.5452 131.953H77.1665C76.7003 130.838 75.5854 130.067 74.3084 130.067H71.7344L72.5452 127.635H81.7473L80.9365 130.067H78.7676L78.7679 130.047Z" fill="#ECD757"/>
<defs>
<clipPath id="clip0_2348_92832">
<rect width="106.688" height="89.172" fill="white" transform="translate(28.6641 27.0701)"/>
</clipPath>
</defs>
</svg>
