<svg width="164" height="144" viewBox="0 0 164 144" fill="none" xmlns="http://www.w3.org/2000/svg">
<g opacity="1">
<path d="M86.6683 7.87508C86.6683 7.87508 71.2192 1.63004 65.7473 11.7479C60.2696 21.8658 66.8175 39.0656 64.7806 44.4622C62.7438 49.8588 60.3789 50.9324 60.3789 50.9324C60.3789 50.9324 65.9602 66.5392 80.9835 65.6792C96.0068 64.8192 107.595 57.7142 102.342 49.7492C97.0828 41.7841 104.275 22.189 103.096 18.5297C101.916 14.8704 97.5144 3.13647 86.6741 7.87508H86.6683Z" fill="#361500"/>
<path d="M87.9703 43.6428L82.0036 44.0699L76.0368 43.6428C76.0368 43.6428 77.9759 54.2744 69.5234 55.8385C69.5234 55.8385 77.0552 69.8581 81.9978 69.6677C86.9404 69.8581 94.4722 55.8385 94.4722 55.8385C86.0198 54.2744 87.9588 43.6428 87.9588 43.6428H87.9703Z" fill="#F8A061"/>
<path d="M120.891 99.3806C117.202 85.3783 109.889 58.6089 108.554 58.3665C106.218 57.9336 93.0131 55.4864 93.0131 55.4864L92.9152 55.6364C88.082 62.9319 77.2245 63.3706 71.7813 56.4849L70.9873 55.4806C70.9873 55.4806 57.7821 57.9336 55.4461 58.3607C54.1112 58.6089 47.1778 85.3725 43.6564 99.3748C43.6104 99.5595 43.5759 99.7384 43.5471 99.9116C43.0638 102.849 45.4401 105.487 48.4091 105.487H116.132C119.274 105.487 121.673 102.549 120.919 99.4902C120.908 99.4498 120.902 99.4094 120.891 99.3748V99.3806Z" fill="#EA3934"/>
<path d="M82.2697 11.1594C82.2697 11.1594 65.5547 9.97614 65.7676 18.5876C65.9805 27.1991 69.0934 35.7239 70.5951 40.4741C72.0969 45.23 80.1983 50.2861 82.264 50.2861C84.3296 50.2861 92.431 45.2242 93.9328 40.4741C95.4346 35.7239 98.5474 27.1991 98.7603 18.5876C98.9732 9.97614 82.2582 11.1594 82.2582 11.1594H82.2697Z" fill="#FFB87F"/>
<path d="M78.985 30.2293C78.985 30.2293 77.6271 28.2784 74.9515 28.1341C72.276 27.9956 70.7109 29.4616 70.7109 29.4616C70.7109 29.4616 72.6212 32.0704 74.848 32.0762C77.6674 32.082 78.985 30.2293 78.985 30.2293Z" fill="white"/>
<path d="M75.0159 31.9319C76.1249 31.9319 77.024 31.03 77.024 29.9175C77.024 28.805 76.1249 27.9032 75.0159 27.9032C73.9069 27.9032 73.0078 28.805 73.0078 29.9175C73.0078 31.03 73.9069 31.9319 75.0159 31.9319Z" fill="#4D2700"/>
<path d="M78.985 30.2292C78.985 30.2292 77.0747 28.59 74.848 28.6593C72.6212 28.7285 70.7109 29.4616 70.7109 29.4616C70.7109 29.4616 71.5107 27.4241 74.848 27.4992C78.1852 27.5684 78.985 30.2292 78.985 30.2292Z" fill="#34283B"/>
<path d="M76.3246 31.649C73.9771 32.0992 72.5674 31.0142 70.7146 29.45L70.7031 29.4616C70.7031 29.4616 72.6134 32.0704 74.8402 32.0762C76.9 32.0762 78.1486 31.095 78.678 30.564C78.3097 30.8006 76.7735 31.5625 76.3189 31.649H76.3246Z" fill="#34283B"/>
<path d="M85.5547 30.2293C85.5547 30.2293 86.9126 28.2784 89.5881 28.1341C92.2637 27.9956 93.8287 29.4616 93.8287 29.4616C93.8287 29.4616 91.9185 32.0704 89.6917 32.0762C86.8723 32.082 85.5547 30.2293 85.5547 30.2293Z" fill="white"/>
<path d="M87.5078 29.9175C87.5078 31.0315 88.4054 31.9319 89.5159 31.9319C90.6264 31.9319 91.524 31.0315 91.524 29.9175C91.524 28.8036 90.6264 27.9032 89.5159 27.9032C88.4054 27.9032 87.5078 28.8036 87.5078 29.9175Z" fill="#4D2700"/>
<path d="M85.5547 30.2292C85.5547 30.2292 87.465 28.59 89.6917 28.6593C91.9185 28.7285 93.8287 29.4616 93.8287 29.4616C93.8287 29.4616 93.029 27.4241 89.6917 27.4992C86.3545 27.5684 85.5547 30.2292 85.5547 30.2292Z" fill="#34283B"/>
<path d="M88.2127 31.649C90.5603 32.0992 91.97 31.0142 93.8227 29.45L93.8342 29.4616C93.8342 29.4616 91.9239 32.0704 89.6972 32.0762C87.6373 32.0762 86.3887 31.095 85.8594 30.564C86.2276 30.8006 87.7639 31.5625 88.2185 31.649H88.2127Z" fill="#34283B"/>
<path d="M81.5863 37.4783C80.8326 37.4783 79.9638 37.3283 79.5955 36.7165C79.4229 36.4279 79.3078 35.9257 79.7451 35.1927C80.8786 33.2823 81.6727 30.0212 81.6784 29.9924C81.7359 29.75 81.9834 29.5999 82.2193 29.6576C82.4609 29.7153 82.6105 29.9577 82.553 30.2002C82.5185 30.3387 81.7244 33.6286 80.5161 35.6545C80.355 35.9257 80.3032 36.1393 80.3665 36.249C80.4758 36.4337 80.9534 36.5895 81.805 36.5664C82.0524 36.5664 82.2653 36.7511 82.2768 36.9993C82.2883 37.2475 82.0927 37.461 81.8453 37.4726C81.759 37.4726 81.6726 37.4726 81.5863 37.4726V37.4783Z" fill="#D6774F"/>
<path d="M72.6328 22.9451C71.6259 23.0259 69.6523 26.1773 69.6523 26.1773C70.0724 26.3389 72.4199 25.0461 73.306 25.1673C74.1864 25.2885 77.4201 25.7329 78.0472 25.8541C78.6744 25.9753 79.3476 24.2784 79.4339 23.43C79.5202 22.5815 73.6398 22.8643 72.6328 22.9451Z" fill="#753512"/>
<path d="M91.737 22.9451C90.707 22.8643 84.7115 22.5815 84.7978 23.43C84.8841 24.2784 85.5688 25.9753 86.2133 25.8541C86.8577 25.7329 90.1547 25.2885 91.0523 25.1673C91.9499 25.0461 94.3492 26.3389 94.7808 26.1773C94.7808 26.1773 92.7669 23.0259 91.737 22.9451Z" fill="#753512"/>
<path d="M77.3203 39.9142C77.3203 39.9142 82.119 42.0382 87.2285 39.9142C87.2285 39.9142 84.8176 44.4623 82.3722 44.4623C79.9268 44.4623 77.3203 39.9142 77.3203 39.9142Z" fill="white"/>
<path d="M82.3837 43.4525C80.4447 43.4525 78.4193 41.2823 77.3548 39.9433C77.3433 39.9375 77.3203 39.9202 77.3203 39.9202C77.3203 39.9202 79.8117 44.4683 82.3722 44.4683C84.5472 44.4683 86.7567 40.9995 87.2285 39.9202C86.2043 41.265 84.2595 43.4525 82.3837 43.4525Z" fill="#F14543"/>
<path d="M84.0293 40.3182C83.3389 40.3182 82.9303 39.9719 82.2744 40.3182C81.6184 39.9719 81.2099 40.3182 80.5195 40.3182C79.829 40.3182 77.3203 39.9142 77.3203 39.9142C79.829 41.5534 82.2744 41.5245 82.2744 41.5245C82.2744 41.5245 84.7198 41.5534 87.2285 39.9142C87.2285 39.9142 84.7198 40.3182 84.0293 40.3182Z" fill="#F14543"/>
<path d="M90.1423 4.42948C90.1423 4.42948 87.2021 13.0929 89.8431 16.0827C92.4842 19.0724 97.2886 21.6466 96.1091 31.3951C94.9295 41.1436 90.7695 54.1127 100.643 57.368C110.517 60.6233 114.176 45.7206 107.295 43.6428C107.295 43.6428 108.261 47.4406 104.395 47.0885C100.534 46.7364 100.96 39.6199 103.641 32.6822C106.322 25.7446 110.085 16.706 101.817 8.3081C94.826 1.20307 90.3782 3.66184 90.1366 4.43525L90.1423 4.42948Z" fill="#753512"/>
<path d="M92.0583 4.94892C92.0583 4.94892 82.7716 -3.74912 69.7046 2.06304C56.6433 7.8752 56.534 17.5025 59.0024 27.4934C61.4708 37.4843 66.2465 45.1146 60.3948 47.0943C56.8504 48.2948 56.9022 43.8679 57.8286 43.106C57.8286 43.106 50.7859 43.8101 54.008 52.5832C56.8447 60.3058 69.6931 58.153 70.7 51.2903C72.7886 37.0399 62.3799 24.6479 72.196 21.0117C82.0179 17.3813 87.8925 21.4157 92.0526 4.94892H92.0583Z" fill="#753512"/>
<path d="M82.0376 1.79761C57.2729 1.79761 60.357 26.4719 60.357 26.4719H62.906C62.906 26.4719 62.6068 17.2371 66.4561 11.2864C67.7162 9.33552 69.7185 7.60976 71.928 6.61125C76.6002 4.50456 82.0376 4.5161 82.0376 4.5161C82.0376 4.5161 87.475 4.49879 92.1471 6.61125C94.3566 7.60976 96.3589 9.33552 97.619 11.2864C101.468 17.2428 101.169 26.4719 101.169 26.4719H103.718C103.718 26.4719 106.802 1.79761 82.0376 1.79761Z" fill="#34283B"/>
<path d="M60.7613 24.5268C60.7613 24.5268 56.3251 24.2555 57.4701 31.1816C58.6151 38.1135 61.0202 38.5752 62.6773 38.3443C64.3287 38.1135 64.8811 34.9159 64.346 31.0488C63.3793 24.0881 60.7613 24.521 60.7613 24.521V24.5268Z" fill="#5D5463"/>
<path d="M60.761 24.5267C60.761 24.5267 59.2995 24.4459 58.2695 25.6811C58.6896 26.4718 59.2419 28.1456 59.731 31.6952C60.0705 34.154 60.1856 36.3069 60.0302 37.5824C60.9393 38.402 61.8887 38.4597 62.677 38.3501C64.3283 38.1192 64.8807 34.9217 64.3456 31.0546C63.379 24.0938 60.761 24.5267 60.761 24.5267Z" fill="#34283B"/>
<path d="M103.226 24.5272C103.226 24.5272 107.662 24.1982 106.597 31.1474C105.533 38.0908 103.134 38.5872 101.476 38.3736C99.8193 38.1658 99.2324 34.9683 99.7215 31.1012C100.602 24.1289 103.226 24.533 103.226 24.533V24.5272Z" fill="#5D5463"/>
<path d="M103.228 24.5268C103.228 24.5268 104.689 24.4287 105.736 25.6523C105.328 26.4488 104.798 28.1284 104.35 31.6838C104.039 34.1426 103.953 36.3012 104.12 37.571C103.222 38.4021 102.267 38.4714 101.484 38.3675C99.8271 38.1597 99.2402 34.9622 99.7293 31.0951C100.61 24.1228 103.233 24.5268 103.233 24.5268H103.228Z" fill="#34283B"/>
<path d="M60.4609 36.8955C60.4609 36.8955 60.4379 45.0568 62.423 46.2977C64.575 47.6425 75.7605 47.1288 75.7605 47.1288V46.038C75.7605 46.038 63.8442 46.6671 62.8258 44.6585C61.8822 42.8058 61.6808 36.8955 61.6808 36.8955H60.4609Z" fill="#34283B"/>
<path d="M80.0445 46.3845C80.0445 47.3888 78.7269 48.1969 77.1043 48.1969C75.4817 48.1969 74.1641 47.3831 74.1641 46.3845C74.1641 45.386 75.4817 44.5722 77.1043 44.5722C78.7269 44.5722 80.0445 45.386 80.0445 46.3845Z" fill="#34283B"/>
<g style="mix-blend-mode:multiply" opacity="0.32">
<path d="M64.6526 69.2576C63.732 71.6529 63.2027 76.9052 61.793 78.9715H72.7081C72.4779 78.8503 72.2477 78.7348 72.0348 78.6079C67.449 75.9355 65.1475 72.9458 64.6584 69.2576H64.6526Z" fill="#3B6F9C"/>
</g>
<g style="mix-blend-mode:multiply" opacity="0.32">
<path d="M99.3465 69.2576C98.8575 72.9516 96.5559 75.9355 91.9701 78.6079C91.7572 78.7348 91.527 78.8503 91.2969 78.9715H102.212C100.797 76.9052 100.267 71.6529 99.3523 69.2576H99.3465Z" fill="#3B6F9C"/>
</g>
<path d="M65.7135 78.9716L65.2762 73.7251L64.2578 78.9716H65.7135Z" fill="#173D63"/>
<path d="M99.7487 78.9716L98.7303 73.7251L98.293 78.9716H99.7487Z" fill="#173D63"/>
<path style="mix-blend-mode:overlay" opacity="0.32" d="M120.917 99.5018C120.906 99.4614 120.9 99.421 120.888 99.3863C117.2 85.3841 109.887 58.6147 108.552 58.3722C107.931 58.2568 106.533 57.9971 104.824 57.6796C111.4 56.254 113.086 45.3973 107.292 43.6485C107.292 43.6485 108.259 47.4463 104.392 47.0942C101.613 46.8403 101.061 43.0771 101.97 38.4077C103.581 38.4308 105.635 37.4323 106.596 31.1469C106.999 28.5265 106.613 26.9393 105.986 25.9812C107.499 20.4056 107.62 14.201 101.82 8.30805C97.2804 3.69064 93.8108 3.11347 91.8717 3.48863C90.7555 3.04421 89.5414 2.67481 88.2123 2.39777C84.3169 0.394971 77.723 -1.50394 69.6963 2.06301C57.5442 7.47114 56.6063 16.1807 58.5223 25.4098C58.436 25.4963 58.344 25.5829 58.2634 25.6868C57.5039 26.6045 56.9745 28.2437 57.4636 31.1873C58.1541 35.3718 59.3049 37.1899 60.4729 37.9287C60.5362 40.0238 60.8296 44.6816 62.1415 46.0553C61.7157 46.4882 61.1403 46.8345 60.3923 47.0885C56.848 48.289 56.8997 43.8621 57.8261 43.1002C57.8261 43.1002 50.7834 43.8043 54.0056 52.5774C55.1103 55.5903 57.7398 57.0909 60.5937 57.4084C58.2519 57.8412 56.2265 58.2164 55.4383 58.3607C54.1034 58.6089 47.17 85.3725 43.6486 99.3748C43.6026 99.5595 43.568 99.7384 43.5393 99.9116C43.0559 102.849 45.4323 105.487 48.4013 105.487H116.124C119.266 105.487 121.66 102.549 120.911 99.4902L120.917 99.5018ZM62.8262 44.6586C62.1876 43.4003 61.8883 40.2547 61.7618 38.3789C61.9516 38.3962 62.1415 38.402 62.3199 38.3904C63.0909 41.0397 63.4822 43.2272 62.924 44.8029C62.8895 44.7567 62.8492 44.7105 62.8262 44.6643V44.6586Z" fill="url(#paint0_radial_763_9972)"/>
<path d="M115.316 64.473L48.6919 63.5553C47.7137 63.5784 47.6735 64.4095 47.7253 64.8886L51.4768 101.632C51.5056 101.937 51.8565 102.174 52.2708 102.174L112.859 102.197C113.555 102.197 114.188 101.839 114.211 101.418L116.254 65.1541C116.277 64.7558 115.897 64.4788 115.322 64.4672L115.316 64.473Z" fill="#313131"/>
<g style="mix-blend-mode:multiply" opacity="0.5">
<path d="M112.168 100.269L112.519 94.0474C108.727 93.1066 104.941 92.1543 101.167 91.1615C90.6085 88.3911 80.0674 85.4475 69.7564 81.9902C65.0498 80.4087 60.3776 78.7465 55.7803 76.9226C54.1117 76.2646 52.4258 75.4739 50.7227 74.6947L53.3349 100.264H112.174L112.168 100.269Z" fill="#333339"/>
</g>
<path d="M115.264 105.499H50.4582C49.9518 105.499 49.503 105.135 49.457 104.691L49.2499 102.549C49.2038 102.093 49.5836 101.73 50.1015 101.73H115.626C116.139 101.73 116.518 102.099 116.478 102.549L116.271 104.691C116.225 105.135 115.782 105.499 115.27 105.499H115.264Z" fill="#313131"/>
<g style="mix-blend-mode:screen" opacity="0.55">
<path d="M114.58 102.295H106.599C105.494 102.994 104.367 103.675 103.256 104.373C102.963 104.558 102.646 104.743 102.312 104.933H114.24C114.724 104.933 115.144 104.679 115.184 104.367L115.38 102.873C115.42 102.555 115.063 102.295 114.574 102.295H114.58Z" fill="#DDDDE1"/>
</g>
<g style="mix-blend-mode:screen" opacity="0.55">
<path d="M86.8065 104.835C86.772 104.87 86.7259 104.898 86.6914 104.927H91.283C92.1 103.981 93.1185 103.115 94.2462 102.29H89.3267C88.5211 103.178 87.7156 104.061 86.8122 104.829L86.8065 104.835Z" fill="#DDDDE1"/>
</g>
<path d="M84.5211 76.6687C84.5211 78.2156 83.2034 79.468 81.5809 79.468C79.9583 79.468 78.6406 78.2156 78.6406 76.6687C78.6406 75.1219 79.9583 73.8694 81.5809 73.8694C83.2034 73.8694 84.5211 75.1219 84.5211 76.6687Z" fill="white"/>
<path d="M151.895 108.535H12.3008V143.188H151.895V108.535Z" fill="#484848"/>
<g style="mix-blend-mode:multiply" opacity="0.5">
<path d="M151.895 122.312V108.535H12.3008V143.188H30.9836L151.895 122.312Z" fill="#333339"/>
</g>
<path d="M161.531 111.571H2.4713C1.60822 111.571 0.90625 110.941 0.90625 110.168V106.907C0.90625 106.134 1.60822 105.504 2.4713 105.504H161.537C162.4 105.504 163.102 106.134 163.102 106.907V110.168C163.102 110.941 162.4 111.571 161.537 111.571H161.531Z" fill="#00A8CB"/>
</g>
<defs>
<radialGradient id="paint0_radial_763_9972" cx="0" cy="0" r="1" gradientUnits="userSpaceOnUse" gradientTransform="translate(82.2685 52.7794) scale(46.1863 46.3299)">
<stop stop-color="#FFC9BD"/>
<stop offset="0.15" stop-color="#E5B2AD"/>
<stop offset="0.55" stop-color="#A77B86"/>
<stop offset="0.85" stop-color="#81596F"/>
<stop offset="1" stop-color="#734C66"/>
</radialGradient>
</defs>
</svg>
