<svg width="271" height="180" viewBox="0 0 271 180" fill="none" xmlns="http://www.w3.org/2000/svg">
<g clip-path="url(#clip0_2348_69287)">
<path d="M194.649 36.6946C204.465 36.6946 212.422 28.7607 212.422 18.9737C212.422 9.18664 204.465 1.25269 194.649 1.25269C184.832 1.25269 176.875 9.18664 176.875 18.9737C176.875 28.7607 184.832 36.6946 194.649 36.6946Z" fill="#F5F5F5"/>
<path d="M201.121 18.6365C200.577 19.8088 200.859 21.0895 201.749 21.503C202.639 21.9125 203.802 21.2982 204.346 20.1259C204.889 18.9536 204.608 17.6729 203.718 17.2594C202.828 16.8499 201.664 17.4642 201.121 18.6365Z" fill="#E0E0E0"/>
<path d="M187.706 12.4497C187.163 13.622 187.445 14.9027 188.335 15.3162C189.225 15.7257 190.388 15.1115 190.932 13.9392C191.475 12.7669 191.194 11.4862 190.304 11.0727C189.414 10.6632 188.25 11.2774 187.706 12.4497Z" fill="#E0E0E0"/>
<path d="M188.903 16.8098C187.393 20.0658 188.657 23.8556 191.734 25.2769C194.806 26.6941 198.523 25.2046 200.037 21.9446L188.907 16.8098H188.903Z" fill="#E0E0E0"/>
<path d="M189.234 23.0728C189.234 23.0728 190.982 22.1815 192.778 23.0126C194.574 23.8436 195.033 25.7506 195.033 25.7506C195.033 25.7506 191.505 26.2886 189.234 23.0768V23.0728Z" fill="#EBEBEB"/>
<path d="M64.478 68.6959H6.61534C4.98971 68.6959 3.67188 70.0099 3.67188 71.6307V88.6611C3.67188 90.2819 4.98971 91.5959 6.61534 91.5959H64.478C66.1036 91.5959 67.4214 90.2819 67.4214 88.6611V71.6307C67.4214 70.0099 66.1036 68.6959 64.478 68.6959Z" fill="#F5F5F5"/>
<path d="M14.5511 84.2048C16.8661 84.2048 18.7428 82.3337 18.7428 80.0255C18.7428 77.7173 16.8661 75.8462 14.5511 75.8462C12.2361 75.8462 10.3594 77.7173 10.3594 80.0255C10.3594 82.3337 12.2361 84.2048 14.5511 84.2048Z" fill="#E0E0E0"/>
<path d="M54.8115 78.0824H21.6562V80.0255H54.8115V78.0824Z" fill="#E0E0E0"/>
<path d="M35.0367 81.5109H21.6562V83.454H35.0367V81.5109Z" fill="#E0E0E0"/>
<path d="M268.056 86.0002H210.193C208.568 86.0002 207.25 87.3142 207.25 88.935V105.965C207.25 107.586 208.568 108.9 210.193 108.9H268.056C269.682 108.9 271 107.586 271 105.965V88.935C271 87.3142 269.682 86.0002 268.056 86.0002Z" fill="#F5F5F5"/>
<path d="M221.577 99.7066C222.893 97.8073 222.415 95.2044 220.51 93.8927C218.605 92.581 215.994 93.0573 214.679 94.9566C213.363 96.8558 213.841 99.4588 215.746 100.771C217.651 102.082 220.262 101.606 221.577 99.7066Z" fill="#E0E0E0"/>
<path d="M258.39 95.3906H225.234V97.3337H258.39V95.3906Z" fill="#E0E0E0"/>
<path d="M238.615 98.8192H225.234V100.762H238.615V98.8192Z" fill="#E0E0E0"/>
<path d="M207.309 177.965H52.2032C47.0774 177.965 42.9219 173.653 42.9219 168.333V57.8803C42.9219 53.998 45.9539 50.8545 49.6947 50.8545H210.196C213.731 50.8545 216.594 53.8254 216.594 57.4948V168.333C216.594 173.653 212.439 177.965 207.313 177.965H207.309Z" fill="#455A64"/>
<path d="M216.407 179.9H44.6316C39.6748 179.9 35.6562 175.732 35.6562 170.589V169.14C35.6562 168.943 35.8093 168.783 36.0025 168.783H223.47C223.659 168.783 223.816 168.943 223.816 169.14V172.219C223.816 176.463 220.499 179.904 216.407 179.904V179.9Z" fill="#455A64"/>
<path d="M216.404 179.9C216.404 179.9 216.489 179.892 216.658 179.88C216.827 179.86 217.081 179.88 217.407 179.807C218.063 179.719 219.054 179.494 220.169 178.796C220.733 178.462 221.305 177.985 221.844 177.374C222.384 176.764 222.883 176.001 223.238 175.09C223.6 174.179 223.789 173.123 223.777 171.991C223.777 171.425 223.777 170.834 223.777 170.232C223.777 169.931 223.777 169.622 223.777 169.313C223.777 169.156 223.789 169 223.676 168.903C223.576 168.795 223.423 168.819 223.266 168.819C213.384 168.827 199.094 168.839 181.429 168.851C146.103 168.859 97.3008 168.867 43.4044 168.879C41.7213 168.879 40.0381 168.879 38.363 168.879H37.1067H36.4786H36.0075C35.9592 168.879 35.931 168.883 35.8907 168.899C35.8222 168.931 35.7659 168.996 35.7498 169.072C35.7337 169.136 35.7457 169.269 35.7417 169.369V170.019C35.7337 170.453 35.7538 170.883 35.778 171.308C35.8504 172.155 36.0034 173.002 36.3054 173.797C36.4303 174.203 36.6316 174.576 36.8047 174.962C37.0222 175.323 37.2074 175.704 37.4691 176.033C38.4275 177.411 39.7724 178.474 41.2662 179.121C42.0192 179.434 42.8125 179.643 43.6138 179.743C44.4151 179.823 45.2325 179.807 46.0499 179.807C47.6766 179.807 49.2994 179.807 50.9181 179.807C54.1514 179.807 57.3566 179.807 60.5337 179.807C73.2417 179.807 85.5028 179.807 97.18 179.811C120.534 179.819 141.57 179.827 159.23 179.831C176.891 179.843 191.186 179.855 201.063 179.864C206 179.872 209.833 179.88 212.438 179.884C213.739 179.888 214.729 179.892 215.398 179.892C216.062 179.892 216.404 179.904 216.404 179.904C216.404 179.904 216.062 179.912 215.398 179.916C214.729 179.916 213.739 179.92 212.438 179.924C209.837 179.928 206.004 179.936 201.063 179.944C191.186 179.952 176.891 179.964 159.23 179.976C141.565 179.984 120.534 179.988 97.18 179.996C85.5028 179.996 73.2417 179.996 60.5337 180C57.3566 180 54.1514 180 50.9181 180C49.3034 180 47.6807 180 46.0499 180C45.2365 180 44.4191 180.016 43.5936 179.936C42.7722 179.831 41.9669 179.623 41.1938 179.301C39.6637 178.643 38.2906 177.555 37.3161 176.15C37.0504 175.813 36.8611 175.423 36.6397 175.058C36.4625 174.664 36.2571 174.283 36.1323 173.87C35.8263 173.059 35.6652 172.195 35.5927 171.328C35.5686 170.891 35.5484 170.457 35.5565 170.027V169.377C35.5605 169.261 35.5444 169.176 35.5726 169.028C35.6048 168.891 35.7014 168.779 35.8263 168.723C35.8867 168.695 35.9592 168.683 36.0155 168.687H37.1108H38.3671C40.0422 168.687 41.7213 168.687 43.4084 168.687C97.3048 168.699 146.103 168.707 181.433 168.715C199.094 168.727 213.388 168.739 223.27 168.747H223.503C223.588 168.759 223.668 168.795 223.729 168.855C223.789 168.915 223.833 168.996 223.846 169.08C223.858 169.168 223.846 169.241 223.85 169.321C223.85 169.634 223.85 169.939 223.85 170.24C223.85 170.846 223.85 171.433 223.85 171.999C223.862 173.139 223.664 174.207 223.298 175.122C222.936 176.042 222.432 176.804 221.889 177.419C221.341 178.033 220.765 178.511 220.197 178.84C219.074 179.534 218.075 179.755 217.415 179.835C217.085 179.9 216.831 179.88 216.662 179.896C216.493 179.904 216.408 179.904 216.408 179.904L216.404 179.9Z" fill="#263238"/>
<path d="M112.625 168.566L114.96 172.677H147.814L149.984 168.566H112.625Z" fill="#263238"/>
<path d="M210.638 60.522H51.4297V164.644H210.638V60.522Z" fill="white"/>
<path d="M210.638 60.522H51.4297V70.9602H210.638V60.522Z" fill="#E0E0E0"/>
<path d="M57.9511 65.3075C57.9511 66.1827 57.2625 66.8973 56.417 66.8973C55.5714 66.8973 54.8828 66.1867 54.8828 65.3075C54.8828 64.4283 55.5714 63.7177 56.417 63.7177C57.2625 63.7177 57.9511 64.4283 57.9511 65.3075Z" fill="white"/>
<path d="M62.4355 65.3075C62.4355 66.1827 61.7469 66.8973 60.9013 66.8973C60.0557 66.8973 59.3672 66.1867 59.3672 65.3075C59.3672 64.4283 60.0557 63.7177 60.9013 63.7177C61.7469 63.7177 62.4355 64.4283 62.4355 65.3075Z" fill="white"/>
<path d="M66.912 65.3075C66.912 66.1827 66.2235 66.8973 65.3779 66.8973C64.5323 66.8973 63.8438 66.1867 63.8438 65.3075C63.8438 64.4283 64.5323 63.7177 65.3779 63.7177C66.2235 63.7177 66.912 64.4283 66.912 65.3075Z" fill="white"/>
<path d="M81.6815 104.748C85.7621 100.68 85.7621 94.0835 81.6815 90.0149C77.6009 85.9464 70.9849 85.9464 66.9042 90.0149C62.8236 94.0835 62.8236 100.68 66.9043 104.748C70.9849 108.817 77.6009 108.817 81.6815 104.748Z" fill="#EA3934"/>
<path d="M97.3917 113.32H62.9117C61.8731 113.32 61.0312 114.159 61.0312 115.194V123.332C61.0312 124.368 61.8731 125.207 62.9117 125.207H97.3917C98.4302 125.207 99.2721 124.368 99.2721 123.332V115.194C99.2721 114.159 98.4302 113.32 97.3917 113.32Z" fill="#E0E0E0"/>
<path d="M97.3917 129.057H62.9117C61.8731 129.057 61.0312 129.897 61.0312 130.932V139.07C61.0312 140.105 61.8731 140.945 62.9117 140.945H97.3917C98.4302 140.945 99.2721 140.105 99.2721 139.07V130.932C99.2721 129.897 98.4302 129.057 97.3917 129.057Z" fill="#E0E0E0"/>
<path d="M97.3917 144.438H62.9117C61.8731 144.438 61.0312 145.277 61.0312 146.313V154.45C61.0312 155.486 61.8731 156.325 62.9117 156.325H97.3917C98.4302 156.325 99.2721 155.486 99.2721 154.45V146.313C99.2721 145.277 98.4302 144.438 97.3917 144.438Z" fill="#E0E0E0"/>
<path d="M198.364 86.3767H103.602V164.644H198.364V86.3767Z" fill="#E0E0E0"/>
<g opacity="0.14">
<path d="M76.6356 50.8584H187.138C188.922 50.8584 190.368 52.2997 190.368 54.0782V159.794C190.368 161.572 188.922 163.014 187.138 163.014H76.6356C74.8518 163.014 73.4062 161.572 73.4062 159.794V54.0782C73.4062 52.2997 74.8518 50.8584 76.6356 50.8584Z" fill="black"/>
</g>
<path d="M78.75 26.3647L78.75 156.241C78.75 157.931 80.1237 159.3 81.8183 159.3H182.242C183.937 159.3 185.311 157.931 185.311 156.241V26.3647C185.311 24.6752 183.937 23.3055 182.242 23.3055H81.8183C80.1237 23.3055 78.75 24.6752 78.75 26.3647Z" fill="white"/>
<path d="M146.28 56.189C147.596 54.2898 147.118 51.6868 145.213 50.3751C143.308 49.0634 140.698 49.5397 139.382 51.439C138.066 53.3383 138.544 55.9413 140.449 57.2529C142.354 58.5646 144.965 58.0883 146.28 56.189Z" fill="#E0E0E0"/>
<path d="M176 52.0808H149.938V53.6083H176V52.0808Z" fill="#E0E0E0"/>
<path d="M163.318 55.3015H149.938V57.2446H163.318V55.3015Z" fill="#E0E0E0"/>
<path d="M81.7579 23.3057H182.508C184.054 23.3057 185.311 24.5583 185.311 26.0999V35.3538H78.75V26.3047C78.75 24.6506 80.0989 23.3057 81.7579 23.3057Z" fill="#EA3934"/>
<path d="M185.306 26.3607C185.306 26.3607 185.298 26.2564 185.286 26.0516C185.254 25.8469 185.214 25.5377 185.048 25.1644C184.883 24.795 184.602 24.3534 184.126 23.976C183.655 23.6026 182.971 23.3176 182.173 23.3256C178.972 23.3296 174.249 23.3377 168.169 23.3457C156.004 23.3537 138.408 23.3658 116.664 23.3778C111.228 23.3778 105.531 23.3818 99.5995 23.3858C96.6318 23.3858 93.6038 23.3858 90.5194 23.3858C88.9772 23.3858 87.4189 23.3858 85.8485 23.3858C85.0633 23.3858 84.2741 23.3858 83.4809 23.3858C83.0863 23.3858 82.6876 23.3858 82.289 23.3858C81.8863 23.3858 81.4957 23.3738 81.1213 23.4701C80.3643 23.6468 79.6838 24.1366 79.2771 24.803C79.0717 25.1363 78.9308 25.5096 78.8704 25.895C78.81 26.2764 78.8382 26.6859 78.8301 27.0914C78.8301 28.7134 78.8301 30.3474 78.8301 31.9934C78.8301 35.2855 78.8301 38.6337 78.8301 42.0262C78.8301 48.8151 78.8301 55.8047 78.8341 62.971C78.8341 91.6361 78.8382 123.152 78.8422 156.229C78.8422 156.731 78.9711 157.225 79.2086 157.666C79.4583 158.096 79.8005 158.481 80.2274 158.738C80.6502 159.003 81.1374 159.164 81.6367 159.184C82.14 159.2 82.6635 159.188 83.1789 159.192C85.2405 159.192 87.2941 159.192 89.3436 159.192C93.4387 159.192 97.5096 159.192 101.552 159.192C109.634 159.192 117.594 159.192 125.418 159.192C141.066 159.192 156.157 159.196 170.533 159.2C174.128 159.2 177.676 159.2 181.179 159.2C181.614 159.196 182.061 159.212 182.484 159.188C182.906 159.156 183.317 159.031 183.683 158.822C184.42 158.409 184.964 157.678 185.137 156.859C185.234 156.454 185.197 156.024 185.206 155.595C185.206 155.165 185.206 154.735 185.206 154.31C185.206 153.455 185.206 152.604 185.206 151.753C185.206 144.964 185.206 138.371 185.21 131.996C185.214 119.249 185.218 107.374 185.222 96.534C185.234 74.8546 185.246 57.3102 185.254 45.1858C185.262 39.1235 185.27 34.4183 185.274 31.2266C185.278 29.6327 185.282 28.4163 185.286 27.5973C185.286 26.7783 185.298 26.3607 185.298 26.3607C185.298 26.3607 185.306 26.7783 185.31 27.5973C185.31 28.4163 185.314 29.6327 185.322 31.2266C185.326 34.4183 185.334 39.1276 185.342 45.1858C185.35 57.3102 185.363 74.8546 185.375 96.534C185.375 107.374 185.383 119.249 185.387 131.996C185.387 138.371 185.387 144.964 185.391 151.753C185.391 152.6 185.391 153.455 185.391 154.31C185.391 154.735 185.391 155.165 185.391 155.595C185.383 156.016 185.423 156.458 185.318 156.899C185.133 157.771 184.557 158.545 183.776 158.987C183.385 159.208 182.947 159.34 182.5 159.376C182.049 159.405 181.622 159.385 181.183 159.389C177.68 159.389 174.132 159.389 170.537 159.389C156.157 159.389 141.066 159.389 125.422 159.397C117.598 159.397 109.638 159.397 101.556 159.397C97.5177 159.397 93.4468 159.397 89.3477 159.397C87.2981 159.397 85.2445 159.397 83.1829 159.397C82.6635 159.397 82.1561 159.405 81.6286 159.389C81.0931 159.364 80.5696 159.196 80.1186 158.911C79.6596 158.634 79.2932 158.224 79.0274 157.763C78.7697 157.293 78.6368 156.759 78.6328 156.225C78.6328 123.148 78.6368 91.6321 78.6409 62.967C78.6409 55.8007 78.6409 48.8111 78.6449 42.0222C78.6449 38.6257 78.6449 35.2815 78.6449 31.9894C78.6449 30.3433 78.6449 28.7094 78.6449 27.0874C78.6529 26.6819 78.6248 26.2805 78.6892 25.8629C78.7536 25.4534 78.9026 25.056 79.12 24.7067C79.5549 24.0001 80.2716 23.4822 81.0729 23.2975C81.4756 23.1971 81.8904 23.2092 82.2809 23.2092C82.6796 23.2092 83.0742 23.2092 83.4728 23.2092C84.2661 23.2092 85.0553 23.2092 85.8405 23.2092C87.4109 23.2092 88.9692 23.2092 90.5114 23.2092C93.5958 23.2092 96.6238 23.2092 99.5914 23.2092C105.527 23.2092 111.22 23.2132 116.656 23.2172C138.4 23.2333 155.996 23.2413 168.161 23.2493C174.241 23.2574 178.96 23.2654 182.165 23.2694C182.975 23.2614 183.667 23.5545 184.138 23.9359C184.618 24.3173 184.899 24.7669 185.061 25.1403C185.222 25.5217 185.258 25.8308 185.286 26.0356C185.294 26.2443 185.298 26.3487 185.298 26.3487L185.306 26.3607Z" fill="#263238"/>
<path d="M177.295 109.12H87.5781V112.228H177.295V109.12Z" fill="#E0E0E0"/>
<path d="M167.019 115.243H87.5781V118.35H167.019V115.243Z" fill="#E0E0E0"/>
<path d="M135.978 121.518H87.5781V124.625H135.978V121.518Z" fill="#E0E0E0"/>
<path d="M177.295 141.158H87.5781V144.265H177.295V141.158Z" fill="#E0E0E0"/>
<path d="M86.8177 29.0065C86.8177 30.0623 85.96 30.9175 84.901 30.9175C83.842 30.9175 82.9844 30.0623 82.9844 29.0065C82.9844 27.9506 83.842 27.0955 84.901 27.0955C85.96 27.0955 86.8177 27.9506 86.8177 29.0065Z" fill="white"/>
<path d="M91.9896 29.0065C91.9896 30.0623 91.1319 30.9175 90.0729 30.9175C89.0139 30.9175 88.1562 30.0623 88.1562 29.0065C88.1562 27.9506 89.0139 27.0955 90.0729 27.0955C91.1319 27.0955 91.9896 27.9506 91.9896 29.0065Z" fill="white"/>
<path d="M97.1693 29.0065C97.1693 30.0623 96.3116 30.9175 95.2526 30.9175C94.1936 30.9175 93.3359 30.0623 93.3359 29.0065C93.3359 27.9506 94.1936 27.0955 95.2526 27.0955C96.3116 27.0955 97.1693 27.9506 97.1693 29.0065Z" fill="white"/>
<g opacity="0.14">
<path d="M201.657 98.8911H143.148C142.29 98.8911 141.594 99.5849 141.594 100.441V119.318C141.594 120.174 142.29 120.868 143.148 120.868H201.657C202.515 120.868 203.211 120.174 203.211 119.318V100.441C203.211 99.5849 202.515 98.8911 201.657 98.8911Z" fill="black"/>
</g>
<path d="M200.149 97.1045H141.64C140.782 97.1045 140.086 97.7983 140.086 98.6542V117.531C140.086 118.387 140.782 119.081 141.64 119.081H200.149C201.008 119.081 201.704 118.387 201.704 117.531V98.6542C201.704 97.7983 201.008 97.1045 200.149 97.1045Z" fill="white"/>
<path d="M182.367 102H148V104.015H182.367V102Z" fill="#E0E0E0"/>
<path d="M182.367 106.81H148V108.825H182.367V106.81Z" fill="#E0E0E0"/>
<path d="M161.868 111.623H148V113.639H161.868V111.623Z" fill="#E0E0E0"/>
<path d="M200.152 119.081C200.152 119.081 200.317 119.089 200.619 118.997C200.905 118.904 201.364 118.647 201.585 118.073C201.706 117.792 201.678 117.443 201.682 117.066C201.682 116.688 201.682 116.275 201.678 115.825C201.678 114.93 201.67 113.894 201.67 112.73C201.666 110.401 201.658 107.551 201.654 104.243C201.654 102.589 201.65 100.818 201.646 98.9432C201.646 98.7063 201.654 98.4775 201.589 98.2567C201.529 98.0359 201.416 97.8311 201.259 97.6625C200.949 97.3092 200.474 97.1406 199.987 97.1767C198.992 97.1767 197.973 97.1767 196.931 97.1767C180.22 97.1847 167.139 97.1968 141.651 97.2088C141.276 97.2088 140.91 97.3534 140.644 97.6143C140.374 97.8713 140.213 98.2286 140.201 98.5979C140.201 99.3848 140.201 100.172 140.201 100.955C140.201 102.524 140.201 104.082 140.201 105.632C140.201 108.727 140.201 111.778 140.201 114.773C140.201 115.524 140.201 116.267 140.201 117.009C140.209 117.387 140.161 117.752 140.306 118.069C140.435 118.391 140.68 118.659 140.987 118.82C141.14 118.9 141.305 118.953 141.478 118.973C141.643 118.989 141.832 118.981 142.017 118.985C142.384 118.985 142.75 118.985 143.117 118.985C143.845 118.985 144.574 118.985 145.295 118.985C148.186 118.985 151.017 118.985 153.779 118.985C164.824 118.993 174.774 119.001 183.129 119.009C191.48 119.021 188.241 119.033 192.916 119.041C195.247 119.049 197.059 119.057 198.296 119.061C198.908 119.065 199.375 119.069 199.693 119.073C200.007 119.073 200.168 119.085 200.168 119.085C200.168 119.085 200.007 119.093 199.693 119.097C199.375 119.097 198.908 119.101 198.296 119.109C197.063 119.113 195.247 119.121 192.916 119.129C188.241 119.137 191.48 119.149 183.129 119.161C174.774 119.169 164.828 119.173 153.779 119.185C151.017 119.185 148.186 119.185 145.295 119.185C144.57 119.185 143.845 119.185 143.117 119.185C142.75 119.185 142.384 119.185 142.017 119.185C141.832 119.185 141.655 119.193 141.454 119.173C141.26 119.153 141.067 119.093 140.894 119.001C140.544 118.82 140.262 118.515 140.117 118.146C140.044 117.965 140.004 117.768 140 117.567V117.009C140 116.267 140 115.52 140 114.773C140 111.778 140 108.727 140 105.632C140 104.086 140 102.524 140 100.955C140 100.168 140 99.3808 140 98.5899C140.012 98.1683 140.197 97.7548 140.507 97.4618C140.813 97.1687 141.236 96.9961 141.659 97.0001C167.152 97.0121 180.228 97.0242 196.939 97.0322C197.982 97.0322 199 97.0322 199.995 97.0322C200.498 96.9961 201.038 97.1848 201.368 97.5702C201.537 97.7548 201.662 97.9797 201.726 98.2205C201.795 98.4614 201.787 98.7103 201.787 98.9432C201.787 100.818 201.783 102.589 201.779 104.243C201.771 107.551 201.767 110.401 201.763 112.73C201.763 113.894 201.754 114.93 201.754 115.825C201.754 116.275 201.754 116.688 201.75 117.066C201.746 117.439 201.771 117.796 201.642 118.089C201.408 118.68 200.937 118.932 200.643 119.021C200.337 119.105 200.172 119.085 200.172 119.085L200.152 119.081Z" fill="#263238"/>
<path d="M54.2478 100.641H7.47858C3.39961 100.641 0.09375 103.937 0.09375 108.004V125.492C0.09375 129.559 3.39961 132.855 7.47858 132.855H34.4811C35.7052 135.493 37.9964 137.613 40.5855 139.01C42.7035 140.15 45.0108 140.873 47.3623 141.419C48.2844 141.631 48.977 140.587 48.3972 139.837C46.8268 137.801 45.7476 135.38 45.2564 132.855H54.2438C58.3228 132.855 61.6286 129.559 61.6286 125.492V108.004C61.6286 103.937 58.3228 100.641 54.2438 100.641H54.2478Z" fill="white"/>
<path d="M54.2469 100.641C54.2469 100.641 54.3234 100.641 54.4805 100.645C54.6335 100.657 54.867 100.645 55.165 100.689C55.765 100.753 56.6669 100.938 57.7139 101.472C58.7447 102.014 59.9245 102.962 60.762 104.455C61.1687 105.202 61.4828 106.077 61.6076 107.045C61.672 107.526 61.6801 108.032 61.6801 108.546C61.6801 109.06 61.6801 109.59 61.6801 110.132C61.6801 114.48 61.7083 119.747 61.6882 125.789C61.672 126.552 61.515 127.323 61.2412 128.058C60.9674 128.792 60.5889 129.511 60.0735 130.137C59.0588 131.39 57.6011 132.381 55.918 132.751C55.0805 132.947 54.2027 132.956 53.341 132.947C52.4712 132.947 51.5934 132.947 50.7035 132.947C48.9278 132.947 47.1077 132.947 45.2515 132.947L45.34 132.839C45.7226 134.786 46.4635 136.725 47.5708 138.496C47.8486 138.937 48.1506 139.367 48.4687 139.789C48.6419 140.017 48.7305 140.323 48.6781 140.616C48.6258 140.905 48.4647 141.174 48.2231 141.342C47.9855 141.519 47.6674 141.579 47.3815 141.527C47.1077 141.471 46.85 141.402 46.5843 141.338C46.0568 141.206 45.5253 141.061 44.9978 140.905C42.8919 140.274 40.7819 139.415 38.9015 138.102C37.0331 136.798 35.3741 135.051 34.3755 132.903L34.4682 132.964C28.2511 132.964 21.8084 132.964 15.2128 132.964C13.57 132.964 11.9352 132.964 10.3124 132.964C9.49905 132.964 8.6897 132.964 7.88437 132.964C7.48171 132.972 7.071 132.947 6.66833 132.919L6.06434 132.827C5.86301 132.799 5.66973 132.731 5.47243 132.687C4.69126 132.47 3.94633 132.128 3.27791 131.683C2.61352 131.225 2.02563 130.667 1.53841 130.041C1.04716 129.415 0.660607 128.704 0.40693 127.957C0.153253 127.21 -0.0078125 126.428 -0.0078125 125.645C-0.0078125 119.462 -0.00378587 113.496 0.000240752 107.811C0.000240752 107.089 0.157279 106.382 0.35861 105.704C0.576048 105.025 0.906232 104.395 1.28876 103.809C1.69142 103.235 2.16657 102.717 2.69405 102.271C3.23765 101.841 3.81748 101.464 4.44564 101.195C5.07379 100.934 5.7261 100.721 6.39452 100.641C7.06294 100.537 7.73136 100.557 8.38368 100.557C9.69233 100.557 10.9809 100.557 12.2492 100.557C17.3147 100.561 22.038 100.565 26.3465 100.569C34.9634 100.581 41.9335 100.593 46.7574 100.601C49.1653 100.609 51.0337 100.617 52.3061 100.621C52.9383 100.625 53.4215 100.629 53.7476 100.633C54.0738 100.633 54.2389 100.645 54.2389 100.645C54.2389 100.645 54.0738 100.653 53.7476 100.657C53.4175 100.657 52.9343 100.661 52.3061 100.669C51.0337 100.673 49.1653 100.681 46.7574 100.689C41.9335 100.697 34.9634 100.709 26.3465 100.721C22.038 100.721 17.3188 100.729 12.2492 100.733C10.9809 100.733 9.69233 100.733 8.38368 100.733C7.72734 100.733 7.071 100.717 6.42271 100.818C5.7704 100.894 5.13419 101.103 4.52214 101.36C3.91009 101.625 3.34637 101.994 2.81485 102.412C2.29944 102.849 1.84041 103.355 1.4458 103.913C1.07132 104.487 0.75322 105.101 0.539809 105.76C0.342504 106.422 0.193519 107.109 0.193519 107.811C0.193519 113.492 0.193519 119.454 0.193519 125.633C0.193519 126.395 0.354584 127.154 0.600208 127.881C0.845832 128.608 1.22031 129.298 1.69948 129.908C2.17462 130.523 2.7464 131.065 3.39066 131.506C4.04297 131.94 4.76777 132.269 5.52477 132.482C5.71805 132.526 5.90327 132.59 6.10058 132.618L6.68847 132.707C7.08308 132.731 7.47769 132.755 7.88437 132.751C8.6897 132.751 9.49905 132.751 10.3124 132.751C11.9352 132.751 13.57 132.751 15.2128 132.751C21.8125 132.751 28.2511 132.751 34.4682 132.751H34.5326L34.5608 132.811C35.5433 134.919 37.1741 136.641 39.0182 137.93C40.8745 139.227 42.9643 140.082 45.0542 140.708C45.5776 140.865 46.1051 141.009 46.6286 141.138C46.8903 141.202 47.1601 141.27 47.4138 141.322C47.6554 141.366 47.9131 141.322 48.1063 141.174C48.3077 141.033 48.4406 140.812 48.4848 140.575C48.5251 140.339 48.4567 140.09 48.3117 139.897C47.9896 139.471 47.6835 139.038 47.4057 138.588C46.2863 136.798 45.5374 134.838 45.1548 132.867L45.1347 132.759H45.2474C47.1037 132.759 48.9197 132.759 50.6995 132.759C51.5894 132.759 52.4672 132.759 53.3369 132.759C54.2067 132.767 55.0563 132.759 55.8777 132.57C57.5206 132.217 58.95 131.249 59.9446 130.021C60.452 129.411 60.8224 128.708 61.0922 127.989C61.362 127.271 61.515 126.516 61.5351 125.769C61.5472 119.735 61.5593 114.464 61.5714 110.12C61.5593 109.036 61.6197 108 61.507 107.045C61.3862 106.089 61.0842 105.222 60.6855 104.483C59.8641 103.006 58.7044 102.058 57.6817 101.512C56.6428 100.974 55.7529 100.778 55.157 100.705C54.859 100.657 54.6254 100.665 54.4724 100.649C54.3194 100.637 54.2389 100.629 54.2389 100.629L54.2469 100.641Z" fill="#263238"/>
<path d="M13.7791 119.119C15.4758 117.427 15.4758 114.684 13.7791 112.993C12.0823 111.301 9.33141 111.301 7.63469 112.993C5.93797 114.684 5.93796 117.427 7.63468 119.119C9.3314 120.811 12.0823 120.811 13.7791 119.119Z" fill="#EA3934"/>
<path d="M52.4298 111.758H18.0625V113.773H52.4298V111.758Z" fill="#E0E0E0"/>
<path d="M52.4298 116.567H18.0625V118.583H52.4298V116.567Z" fill="#E0E0E0"/>
<path d="M31.9302 121.381H18.0625V123.396H31.9302V121.381Z" fill="#E0E0E0"/>
<g clip-path="url(#clip1_2348_69287)">
<mask id="mask0_2348_69287" style="mask-type:luminance" maskUnits="userSpaceOnUse" x="86" y="44" width="50" height="42">
<path d="M135.826 44.603L86.2188 44.4512L86.0853 85.3297L135.693 85.4815L135.826 44.603Z" fill="white"/>
</mask>
<g mask="url(#mask0_2348_69287)">
<path d="M135.834 44.603L86.2266 44.4512L86.0931 85.3297L135.7 85.4815L135.834 44.603Z" fill="#D4EFFF"/>
<path d="M143.638 64.3298C141.482 62.5984 138.346 62.1923 135.821 63.3168C133.788 64.2221 132.121 66.0327 129.916 66.3376C128.873 66.4819 127.803 66.269 126.763 66.4374C123.535 66.9616 121.864 70.7938 118.81 71.9663C116.949 72.6809 114.76 72.3245 113.008 73.2758C111.146 74.2867 109.831 76.7106 107.723 76.5037C105.699 76.3052 104.827 73.8405 103.199 72.6179C101.741 71.5224 99.6542 71.4454 98.3503 70.1681C97.4803 69.3165 96.8969 67.9209 95.6851 67.8331C95.3001 67.8062 94.9203 67.9278 94.5336 67.9391C92.7289 67.9943 91.7942 65.8756 90.5092 64.6039C88.1352 62.258 83.4586 63.2525 82.2366 66.3617L83.7711 85.544C85.274 86.4766 87.1659 86.3919 88.9297 86.2918C101.473 85.5718 114.059 85.5443 126.6 86.2987C131.707 86.6069 136.898 87.0646 141.652 88.9605C143.236 80.861 141.685 72.3483 143.64 64.3299L143.638 64.3298Z" fill="#B6CEDB"/>
</g>
<path d="M133.034 50.5904C132.029 49.8283 130.644 49.4459 129.489 49.9485C128.959 50.1804 128.5 50.5852 127.932 50.703C127.162 50.8644 126.398 50.4669 125.631 50.2938C124.862 50.1207 123.838 50.3448 123.682 51.1192C123.32 50.374 122.942 49.6067 122.32 49.0578C121.699 48.5089 120.767 48.2281 120.026 48.5987C119.207 49.0088 118.528 50.1517 117.694 49.7725C117.428 49.6506 117.237 49.384 116.958 49.2997C116.024 49.0188 115.745 50.7676 114.804 51.024C114.48 51.1122 114.144 50.9992 113.812 50.9604C112.66 50.825 111.673 51.5741 110.846 52.4594C118.84 52.8136 126.845 52.8696 134.845 52.6266C134.328 51.8673 133.76 51.144 133.034 50.5928L133.034 50.5904Z" fill="white"/>
<path d="M124.957 54.1432L122.773 54.1365L122.768 55.81L124.952 55.8167L124.957 54.1432Z" fill="#EFE9CA"/>
<path d="M126.639 55.5498L95.1953 55.4536L95.1232 77.539L126.567 77.6352L126.639 55.5498Z" fill="#EFE9CA"/>
<g style="mix-blend-mode:multiply">
<path d="M95.1285 76.8944L126.571 76.9896" stroke="#BCBEC0" stroke-width="0.0691004" stroke-miterlimit="10"/>
</g>
<g style="mix-blend-mode:multiply">
<path d="M95.1364 75.8908L126.581 75.9885" stroke="#BCBEC0" stroke-width="0.0691004" stroke-miterlimit="10"/>
</g>
<g style="mix-blend-mode:multiply">
<path d="M95.1363 74.8896L126.578 74.9847" stroke="#BCBEC0" stroke-width="0.0691004" stroke-miterlimit="10"/>
</g>
<g style="mix-blend-mode:multiply">
<path d="M95.1363 73.8886L126.581 73.9838" stroke="#BCBEC0" stroke-width="0.0691004" stroke-miterlimit="10"/>
</g>
<g style="mix-blend-mode:multiply">
<path d="M95.1441 72.885L126.586 72.9802" stroke="#BCBEC0" stroke-width="0.0691004" stroke-miterlimit="10"/>
</g>
<g style="mix-blend-mode:multiply">
<path d="M95.1441 71.8838L126.589 71.9791" stroke="#BCBEC0" stroke-width="0.0691004" stroke-miterlimit="10"/>
</g>
<g style="mix-blend-mode:multiply">
<path d="M95.1519 70.8803L126.594 70.9754" stroke="#BCBEC0" stroke-width="0.0691004" stroke-miterlimit="10"/>
</g>
<g style="mix-blend-mode:multiply">
<path d="M95.1519 69.8792L126.596 69.9744" stroke="#BCBEC0" stroke-width="0.0691004" stroke-miterlimit="10"/>
</g>
<g style="mix-blend-mode:multiply">
<path d="M95.1519 68.878L126.594 68.9731" stroke="#BCBEC0" stroke-width="0.0691004" stroke-miterlimit="10"/>
</g>
<g style="mix-blend-mode:multiply">
<path d="M95.1597 67.8744L126.604 67.9697" stroke="#BCBEC0" stroke-width="0.0691004" stroke-miterlimit="10"/>
</g>
<g style="mix-blend-mode:multiply">
<path d="M95.1676 66.8731L126.61 66.9682" stroke="#BCBEC0" stroke-width="0.0691004" stroke-miterlimit="10"/>
</g>
<g style="mix-blend-mode:multiply">
<path d="M95.1676 65.8695L126.612 65.9648" stroke="#BCBEC0" stroke-width="0.0691004" stroke-miterlimit="10"/>
</g>
<g style="mix-blend-mode:multiply">
<path d="M95.1676 64.8686L126.61 64.9637" stroke="#BCBEC0" stroke-width="0.0691004" stroke-miterlimit="10"/>
</g>
<g style="mix-blend-mode:multiply">
<path d="M95.1676 63.8672L126.61 63.9624" stroke="#BCBEC0" stroke-width="0.0691004" stroke-miterlimit="10"/>
</g>
<g style="mix-blend-mode:multiply">
<path d="M95.1754 62.8637L126.618 62.9588" stroke="#BCBEC0" stroke-width="0.0691004" stroke-miterlimit="10"/>
</g>
<g style="mix-blend-mode:multiply">
<path d="M100.253 63.0583L98.1336 65.7162L98.5685 66.0655L102.532 61.0959L106.463 66.0878L106.903 65.7419L104.801 63.0738L109.976 63.0887L112.028 63.0948L117.222 63.1106L115.103 65.766L115.537 66.1153L119.501 61.1481L123.432 66.1401L123.869 65.7941L121.768 63.1235L126.618 63.1382L126.641 56.1539L112.051 56.1105L109.999 56.1044L95.1988 56.0587L95.176 63.043L100.253 63.0583Z" fill="#BCBEC0"/>
</g>
<path d="M103.635 63.6693L102.54 63.6656C102.394 63.8406 102.248 64.0133 102.102 64.1884C101.639 64.7435 101.17 65.296 100.686 65.8335L100.684 66.7319C101.744 65.7878 102.73 64.7638 103.635 63.6693Z" fill="#96D9D1"/>
<path d="M102.543 63.6655L101.721 63.662C101.364 64.1765 101.039 64.714 100.692 65.2337L100.689 65.8334C101.173 65.2959 101.639 64.7433 102.105 64.1883C102.251 64.0132 102.397 63.8406 102.543 63.6655Z" fill="#A0E8E1"/>
<path d="M100.693 63.6616L100.689 65.2363C101.037 64.7166 101.361 64.1791 101.718 63.6646L100.693 63.6616Z" fill="#96D9D1"/>
<path d="M103.635 63.6693C102.73 64.7638 101.744 65.7878 100.684 66.7319L100.682 67.1524L101.189 67.1537C101.72 66.7521 102.25 66.3553 102.783 65.9563C103.237 65.6182 103.696 65.2779 104.17 64.9718L104.173 63.6719L103.63 63.6714L103.635 63.6693Z" fill="#A0E8E1"/>
<path d="M101.193 67.1538L104.168 67.1631L104.176 64.972C103.699 65.2804 103.243 65.6184 102.789 65.9565C102.257 66.3532 101.724 66.7523 101.195 67.1539L101.193 67.1538Z" fill="#96D9D1"/>
<path d="M104.048 63.7534L104.04 67.0438L100.757 67.0342L100.766 63.7439L104.048 63.7534ZM104.235 63.5683L100.579 63.5562L100.568 67.2217L104.224 67.2338L104.235 63.5683Z" fill="#5E5C50"/>
<path d="M102.309 63.6626C102.305 64.8047 102.301 65.9469 102.298 67.089C102.297 67.2085 102.483 67.2168 102.483 67.0973C102.487 65.9552 102.491 64.813 102.494 63.6709C102.495 63.5514 102.309 63.5431 102.309 63.6626Z" fill="#5E5C50"/>
<path d="M100.684 65.4681L104.102 65.4782C104.221 65.4788 104.229 65.2928 104.11 65.2922L100.692 65.2821C100.573 65.2815 100.565 65.4675 100.684 65.4681Z" fill="#5E5C50"/>
<path d="M104.722 63.0942L100.219 63.0804L100.218 63.398L104.721 63.4117L104.722 63.0942Z" fill="#6E6C5D"/>
<path d="M104.621 63.2536L100.32 63.2405L100.319 63.558L104.62 63.5712L104.621 63.2536Z" fill="#6E6C5D"/>
<path d="M104.699 67.3247L100.195 67.3109L100.194 67.6284L104.698 67.6422L104.699 67.3247Z" fill="#6E6C5D"/>
<path d="M104.606 67.1672L100.305 67.1541L100.304 67.4716L104.605 67.4847L104.606 67.1672Z" fill="#6E6C5D"/>
<path d="M120.658 63.7216L119.564 63.7179C119.418 63.893 119.272 64.0657 119.126 64.2407C118.662 64.7958 118.194 65.3484 117.71 65.8858L117.707 66.7843C118.768 65.8401 119.753 64.8162 120.658 63.7216Z" fill="#96D9D1"/>
<path d="M119.566 63.7177L118.744 63.7143C118.387 64.2288 118.063 64.7662 117.715 65.286L117.712 65.8856C118.196 65.3482 118.662 64.7956 119.128 64.2405C119.274 64.0655 119.42 63.8928 119.566 63.7177Z" fill="#A0E8E1"/>
<path d="M117.717 63.7116L117.713 65.2863C118.06 64.7666 118.385 64.2291 118.742 63.7146L117.717 63.7116Z" fill="#96D9D1"/>
<path d="M120.658 63.7215C119.753 64.816 118.768 65.84 117.707 66.7841L117.705 67.2046L118.213 67.2059C118.744 66.8044 119.274 66.4076 119.807 66.0085C120.261 65.6704 120.719 65.3302 121.193 65.0241L121.197 63.7242L120.653 63.7237L120.658 63.7215Z" fill="#A0E8E1"/>
<path d="M118.217 67.2061L121.191 67.2154L121.199 65.0243C120.723 65.3327 120.267 65.6707 119.813 66.0088C119.28 66.4054 118.747 66.8045 118.219 67.2062L118.217 67.2061Z" fill="#96D9D1"/>
<path d="M121.072 63.8057L121.063 67.0961L117.781 67.0866L117.79 63.7962L121.072 63.8057ZM121.259 63.6182L117.603 63.6061L117.591 67.2716L121.248 67.2837L121.259 63.6182Z" fill="#5E5C50"/>
<path d="M119.332 63.7125L119.321 67.1389C119.321 67.2584 119.506 67.2667 119.507 67.1473L119.518 63.7208C119.518 63.6014 119.333 63.593 119.332 63.7125Z" fill="#5E5C50"/>
<path d="M117.707 65.5179L121.125 65.528C121.245 65.5286 121.253 65.3426 121.134 65.342L117.716 65.3319C117.596 65.3313 117.588 65.5173 117.707 65.5179Z" fill="#5E5C50"/>
<path d="M121.738 63.1449L117.234 63.1311L117.233 63.4486L121.737 63.4624L121.738 63.1449Z" fill="#6E6C5D"/>
<path d="M121.645 63.3043L117.344 63.2911L117.343 63.6087L121.644 63.6218L121.645 63.3043Z" fill="#6E6C5D"/>
<path d="M121.722 67.3777L117.219 67.3639L117.218 67.6814L121.721 67.6952L121.722 67.3777Z" fill="#6E6C5D"/>
<path d="M121.629 67.2176L117.328 67.2045L117.327 67.522L121.628 67.5351L121.629 67.2176Z" fill="#6E6C5D"/>
<path d="M103.611 70.759L102.517 70.7553C102.371 70.9303 102.225 71.103 102.079 71.2781C101.615 71.8332 101.147 72.3857 100.663 72.9232L100.661 73.8216C101.721 72.8775 102.706 71.8535 103.611 70.759Z" fill="#96D9D1"/>
<path d="M102.519 70.7551L101.697 70.7516C101.34 71.2661 101.016 71.8036 100.668 72.3233L100.665 72.923C101.149 72.3855 101.615 71.8329 102.081 71.2779C102.227 71.1028 102.373 70.9302 102.519 70.7551Z" fill="#A0E8E1"/>
<path d="M100.67 70.7489L100.666 72.3235C101.014 71.8038 101.338 71.2664 101.695 70.7519L100.67 70.7489Z" fill="#96D9D1"/>
<path d="M103.611 70.7589C102.706 71.8534 101.721 72.8773 100.661 73.8215L100.658 74.242L101.166 74.2433C101.697 73.8417 102.227 73.4449 102.76 73.0459C103.214 72.7078 103.672 72.3675 104.146 72.0614L104.15 70.7615L103.606 70.761L103.611 70.7589Z" fill="#A0E8E1"/>
<path d="M101.17 74.2434L104.144 74.2527L104.152 72.0616C103.676 72.37 103.22 72.708 102.766 73.0461C102.233 73.4428 101.7 73.8418 101.172 74.2435L101.17 74.2434Z" fill="#96D9D1"/>
<path d="M104.017 70.8426L104.008 74.133L100.726 74.1234L100.735 70.8331L104.017 70.8426ZM104.204 70.6551L100.548 70.643L100.537 74.3084L104.193 74.3205L104.204 70.6551Z" fill="#5E5C50"/>
<path d="M102.277 70.7518C102.274 71.8939 102.27 73.0361 102.266 74.1782C102.266 74.2977 102.451 74.306 102.452 74.1866C102.456 73.0444 102.459 71.9023 102.463 70.7601C102.463 70.6407 102.278 70.6323 102.277 70.7518Z" fill="#5E5C50"/>
<path d="M100.653 72.5549L104.071 72.565C104.19 72.5656 104.198 72.3796 104.079 72.379L100.661 72.3689C100.542 72.3683 100.533 72.5543 100.653 72.5549Z" fill="#5E5C50"/>
<path d="M104.691 70.1816L100.188 70.1678L100.186 70.4854L104.69 70.4991L104.691 70.1816Z" fill="#6E6C5D"/>
<path d="M104.59 70.3412L100.289 70.328L100.288 70.6455L104.589 70.6587L104.59 70.3412Z" fill="#6E6C5D"/>
<path d="M104.668 74.4143L100.164 74.4005L100.163 74.718L104.667 74.7318L104.668 74.4143Z" fill="#6E6C5D"/>
<path d="M104.574 74.2568L100.273 74.2437L100.272 74.5612L104.573 74.5743L104.574 74.2568Z" fill="#6E6C5D"/>
<path d="M120.642 70.8115L119.548 70.8078C119.402 70.9828 119.256 71.1555 119.11 71.3306C118.646 71.8857 118.178 72.4382 117.694 72.9757L117.692 73.8741C118.752 72.93 119.737 71.906 120.642 70.8115Z" fill="#96D9D1"/>
<path d="M119.551 70.8076L118.728 70.8041C118.371 71.3186 118.047 71.8561 117.699 72.3758L117.696 72.9755C118.181 72.438 118.646 71.8854 119.112 71.3304C119.258 71.1553 119.405 70.9827 119.551 70.8076Z" fill="#A0E8E1"/>
<path d="M117.701 70.8014L117.697 72.376C118.045 71.8563 118.369 71.3189 118.726 70.8044L117.701 70.8014Z" fill="#96D9D1"/>
<path d="M120.642 70.8113C119.737 71.9059 118.752 72.9298 117.692 73.874L117.69 74.2945L118.197 74.2958C118.728 73.8942 119.258 73.4974 119.791 73.0984C120.245 72.7603 120.704 72.42 121.177 72.1139L121.181 70.814L120.637 70.8135L120.642 70.8113Z" fill="#A0E8E1"/>
<path d="M118.201 74.2935L121.176 74.3028L121.183 72.1117C120.707 72.4201 120.251 72.7581 119.797 73.0962C119.264 73.4928 118.731 73.8919 118.203 74.2936L118.201 74.2935Z" fill="#96D9D1"/>
<path d="M121.056 70.8927L121.047 74.1831L117.765 74.1735L117.774 70.8832L121.056 70.8927ZM121.243 70.7076L117.587 70.6955L117.576 74.3609L121.232 74.373L121.243 70.7076Z" fill="#5E5C50"/>
<path d="M119.316 70.802L119.306 74.2284C119.305 74.3479 119.491 74.3562 119.491 74.2367L119.502 70.8103C119.503 70.6908 119.317 70.6825 119.316 70.802Z" fill="#5E5C50"/>
<path d="M117.692 72.6073L121.11 72.6174C121.229 72.618 121.237 72.4319 121.118 72.4313L117.7 72.4212C117.581 72.4207 117.572 72.6067 117.692 72.6073Z" fill="#5E5C50"/>
<path d="M121.722 70.2352L117.219 70.2214L117.218 70.539L121.721 70.5527L121.722 70.2352Z" fill="#6E6C5D"/>
<path d="M121.629 70.3922L117.328 70.379L117.327 70.6965L121.628 70.7097L121.629 70.3922Z" fill="#6E6C5D"/>
<path d="M121.707 74.4676L117.203 74.4539L117.202 74.7714L121.706 74.7852L121.707 74.4676Z" fill="#6E6C5D"/>
<path d="M121.614 74.3077L117.312 74.2946L117.311 74.6121L121.613 74.6252L121.614 74.3077Z" fill="#6E6C5D"/>
<path d="M113.723 77.5363L107.977 77.5187L107.976 77.8219L113.722 77.8395L113.723 77.5363Z" fill="#362B1F"/>
<path d="M113.142 77.5077L108.489 77.4947L108.515 69.5905L113.168 69.6034L113.142 77.5077ZM109.05 76.9368L112.585 76.9474L112.606 70.1613L109.071 70.1508L109.05 76.9368Z" fill="#0A2831"/>
<path d="M112.891 69.8868L108.797 69.8743L108.773 77.2201L112.867 77.2327L112.891 69.8868Z" fill="#6E6C5D"/>
<path d="M111.316 71.4129L111.317 71.3341L110.361 71.3318L110.362 71.4084L110.284 71.4096L110.283 71.5745L110.362 71.5756L110.361 71.652L111.314 71.6542L111.315 71.5778L111.392 71.5788L111.392 71.4116L111.316 71.4129Z" fill="#EFE9CA"/>
<path d="M112.654 73.1188L112.242 73.1176L112.239 74.0462L112.651 74.0475L112.654 73.1188Z" fill="#604D38"/>
<path d="M112.438 73.705C112.499 73.7078 112.552 73.6599 112.555 73.598C112.557 73.5361 112.51 73.4836 112.448 73.4809C112.386 73.4781 112.334 73.526 112.331 73.5879C112.328 73.6498 112.376 73.7023 112.438 73.705Z" fill="#EDC984"/>
<path d="M113.265 77.2299L108.438 77.2151L108.437 77.5183L113.264 77.5331L113.265 77.2299Z" fill="#604D38"/>
<path d="M121.674 62.5145L129.073 62.5361L126.857 55.5445L112.055 55.5011L110.005 55.4951L95.2028 55.4494L92.5365 62.4273L100.615 62.4507L102.54 60.0374L104.45 62.4628L109.982 62.4794L112.034 62.4855L117.295 62.5019L119.493 59.7448L121.674 62.5145Z" fill="#0A2831"/>
<path d="M106.681 65.3068L102.534 60.0375L98.3503 65.2816" stroke="#0A2831" stroke-width="0.808475" stroke-miterlimit="10"/>
<path d="M123.65 65.3567L119.502 60.0898L115.319 65.3315" stroke="#0A2831" stroke-width="0.808475" stroke-miterlimit="10"/>
<path d="M125.384 53.1581L122.391 53.1489L122.387 54.1349L125.381 54.1441L125.384 53.1581Z" fill="#6E6C5D"/>
<path d="M136.042 77.7555L84.9609 77.5992L84.9296 87.1892L136.011 87.3455L136.042 77.7555Z" fill="#3C7B73"/>
<path d="M83.3594 41.1067L83.1511 105.203L138.52 105.371L138.726 41.2749L83.3571 41.1066L83.3594 41.1067ZM134.532 84.5088L87.2742 84.3654L87.3995 45.4225L134.657 45.5659L134.532 84.5088Z" fill="white"/>
</g>
<path d="M176.98 69.0019L139.516 69.0865L139.519 70.5096L176.983 70.425L176.98 69.0019Z" fill="#0A2831"/>
<path d="M176.791 71.7698L139.721 71.8536C139.612 71.8538 139.524 71.9425 139.524 72.0516L139.524 72.0542C139.524 72.1634 139.612 72.2516 139.721 72.2514L176.792 72.1677C176.901 72.1674 176.989 72.0788 176.989 71.9696L176.989 71.967C176.988 71.8579 176.9 71.7696 176.791 71.7698Z" fill="#B8B8B8"/>
<path d="M176.791 73.1661L139.721 73.2498C139.612 73.25 139.524 73.3387 139.524 73.4478L139.524 73.4505C139.524 73.5596 139.612 73.6478 139.721 73.6476L176.792 73.5639C176.901 73.5636 176.989 73.475 176.989 73.3659L176.989 73.3632C176.988 73.2541 176.9 73.1658 176.791 73.1661Z" fill="#B8B8B8"/>
<path d="M176.799 74.5573L139.728 74.641C139.619 74.6413 139.531 74.7299 139.532 74.839L139.532 74.8417C139.532 74.9508 139.62 75.0391 139.729 75.0388L176.8 74.9551C176.909 74.9549 176.997 74.8662 176.996 74.7571L176.996 74.7544C176.996 74.6453 176.908 74.5571 176.799 74.5573Z" fill="#B8B8B8"/>
<path d="M176.799 75.9487L139.728 76.0324C139.619 76.0326 139.531 76.1213 139.532 76.2304L139.532 76.2331C139.532 76.3422 139.62 76.4304 139.729 76.4302L176.8 76.3465C176.909 76.3462 176.997 76.2576 176.996 76.1485L176.996 76.1458C176.996 76.0367 176.908 75.9484 176.799 75.9487Z" fill="#B8B8B8"/>
<path d="M176.799 77.3453L139.728 77.429C139.619 77.4292 139.531 77.5179 139.532 77.627L139.532 77.6297C139.532 77.7388 139.62 77.827 139.729 77.8268L176.8 77.7431C176.909 77.7428 176.997 77.6542 176.996 77.5451L176.996 77.5424C176.996 77.4333 176.908 77.345 176.799 77.3453Z" fill="#B8B8B8"/>
</g>
<defs>
<clipPath id="clip0_2348_69287">
<rect width="271" height="180" fill="white"/>
</clipPath>
<clipPath id="clip1_2348_69287">
<rect width="50" height="41.9075" fill="white" transform="translate(86 44)"/>
</clipPath>
</defs>
</svg>
