<svg width="38" height="38" viewBox="0 0 38 38" fill="none" xmlns="http://www.w3.org/2000/svg">
<g clip-path="url(#clip0_1653_33353)">
<path d="M23.7827 31.3445V31.5502C23.8379 35.1161 26.7553 38 30.334 38C33.9472 38 36.8867 35.0605 36.8867 31.4473C36.8867 27.8342 33.9472 24.8947 30.334 24.8947C26.7553 24.8947 23.8379 27.7787 23.7827 31.3445ZM34.004 30.3341V32.5607H31.4487V35.1161H29.2221V32.5607H26.6667V30.3341H29.2221V27.7787H31.4487V30.3341H34.004Z" fill="#C8D892"/>
<path d="M13.5615 20.8561H21.5562V32.8905H13.5615V20.8561Z" fill="#C8D892"/>
<path d="M17.5587 5.18485L34.004 15.052V9.86715L17.5587 0L13.5614 2.39838V0H6.22408V6.80079L1.11353 9.86715V15.052L17.5587 5.18485Z" fill="#C8D892"/>
<path d="M11.3347 18.6295H23.7826V25.61C25.3916 23.8061 27.7322 22.6681 30.3339 22.6681C30.7114 22.6681 31.0835 22.6921 31.4485 22.7386V16.1155L17.5586 7.78156L3.6687 16.1155V32.8905H11.3347V18.6295ZM11.3347 13.7039H23.7826V15.9305H11.3347V13.7039Z" fill="#C8D892"/>
</g>
<defs>
<clipPath id="clip0_1653_33353">
<rect width="38" height="38" fill="white"/>
</clipPath>
</defs>
</svg>
