<svg viewBox="0 0 40 40" fill="none" xmlns="http://www.w3.org/2000/svg">
<rect width="40" height="40" rx="20" fill="white"/>
<g clip-path="url(#clip0_838_104385)">
<path d="M22.2075 11.9375C21.1819 11.9375 20.3551 11.9375 19.7049 12.0249C19.0298 12.1157 18.4614 12.3098 18.01 12.7613C17.6163 13.155 17.4173 13.6388 17.3129 14.2073C17.2114 14.7597 17.192 15.4357 17.1875 16.2469C17.1858 16.5575 17.4362 16.8108 17.7469 16.8125C18.0575 16.8142 18.3108 16.5638 18.3125 16.2531C18.3171 15.433 18.3384 14.8517 18.4194 14.4105C18.4975 13.9854 18.6229 13.7393 18.8054 13.5568C19.013 13.3492 19.3045 13.2139 19.8548 13.1399C20.4213 13.0637 21.1721 13.0625 22.2487 13.0625H22.9987C24.0752 13.0625 24.8261 13.0637 25.3926 13.1399C25.943 13.2139 26.2343 13.3492 26.4419 13.5568C26.6495 13.7643 26.7848 14.0558 26.8589 14.6061C26.935 15.1726 26.9362 15.9234 26.9362 17V23C26.9362 24.0766 26.935 24.8274 26.8589 25.3939C26.7848 25.9443 26.6495 26.2357 26.4419 26.4432C26.2343 26.6508 25.943 26.7861 25.3926 26.8602C24.8261 26.9363 24.0752 26.9375 22.9987 26.9375H22.2487C21.1721 26.9375 20.4213 26.9363 19.8548 26.8602C19.3045 26.7861 19.013 26.6508 18.8054 26.4432C18.6229 26.2606 18.4975 26.0146 18.4194 25.5895C18.3384 25.1483 18.3171 24.567 18.3125 23.7469C18.3108 23.4362 18.0575 23.1858 17.7469 23.1875C17.4362 23.1892 17.1858 23.4425 17.1875 23.7532C17.192 24.5643 17.2114 25.2403 17.3129 25.7927C17.4173 26.3612 17.6163 26.845 18.01 27.2388C18.4614 27.6902 19.0298 27.8844 19.7049 27.9751C20.3551 28.0625 21.1819 28.0625 22.2075 28.0625H23.0399C24.0656 28.0625 24.8923 28.0625 25.5425 27.9751C26.2176 27.8844 26.786 27.6902 27.2375 27.2388C27.6889 26.7873 27.8831 26.2189 27.9738 25.5438C28.0613 24.8936 28.0612 24.0669 28.0612 23.0412V16.9588C28.0612 15.9332 28.0613 15.1064 27.9738 14.4562C27.8831 13.7811 27.6889 13.2127 27.2375 12.7613C26.786 12.3098 26.2176 12.1157 25.5425 12.0249C24.8923 11.9375 24.0656 11.9375 23.0399 11.9375H22.2075Z" fill="currentColor"/>
<path d="M22.25 19.4375C22.5606 19.4375 22.8125 19.6894 22.8125 20C22.8125 20.3107 22.5606 20.5625 22.25 20.5625H14.0206L15.4911 21.823C15.7269 22.0251 15.7543 22.3802 15.5521 22.6161C15.3499 22.852 14.9948 22.8793 14.7589 22.6771L12.1339 20.4271C12.0093 20.3203 11.9375 20.1642 11.9375 20C11.9375 19.8358 12.0093 19.6798 12.1339 19.573L14.7589 17.3229C14.9948 17.1208 15.3499 17.1481 15.5521 17.3839C15.7543 17.6198 15.7269 17.9749 15.4911 18.1771L14.0206 19.4375H22.25Z" fill="currentColor"/>
</g>
<defs>
<clipPath id="clip0_838_104385">
<rect width="18" height="18" fill="white" transform="translate(11 11)"/>
</clipPath>
</defs>
</svg>
