<svg viewBox="0 0 25 25" fill="none" xmlns="http://www.w3.org/2000/svg">
<path d="M22.1107 4.297H2.87891C1.74583 4.297 0.828125 5.2204 0.828125 6.34778V18.6525C0.828125 19.7865 1.75257 20.7032 2.87891 20.7032H22.1107C23.2343 20.7032 24.1615 19.7904 24.1615 18.6525V6.34778C24.1615 5.2224 23.2474 4.297 22.1107 4.297ZM21.8235 5.66418C21.4045 6.08095 14.1939 13.2536 13.9449 13.5012C13.5576 13.8886 13.0426 14.1019 12.4948 14.1019C11.947 14.1019 11.432 13.8885 11.0434 13.4999C10.876 13.3334 3.74493 6.23995 3.16611 5.66418H21.8235ZM2.19531 18.3742V6.62691L8.10329 12.5038L2.19531 18.3742ZM3.16697 19.3361L9.07263 13.468L10.0779 14.468C10.7235 15.1135 11.5818 15.4691 12.4948 15.4691C13.4078 15.4691 14.2661 15.1135 14.9104 14.4692L15.917 13.468L21.8226 19.3361H3.16697ZM22.7943 18.3742L16.8863 12.5038L22.7943 6.62691V18.3742Z" fill="currentColor"/>
</svg>
