<svg viewBox="0 0 31 31" fill="none" xmlns="http://www.w3.org/2000/svg">
<path d="M15.5 5C9.70085 5 5 9.70085 5 15.5C5 21.2992 9.70085 26 15.5 26C21.2992 26 26 21.2992 26 15.5C26 9.70085 21.2992 5 15.5 5Z" fill="currentColor"/>
<path d="M15.5026 2.58337C8.36873 2.58337 2.58594 8.36617 2.58594 15.5C2.58594 22.6339 8.36873 28.4167 15.5026 28.4167C22.6365 28.4167 28.4193 22.6339 28.4193 15.5C28.4193 8.36617 22.6365 2.58337 15.5026 2.58337ZM21.9609 16.7917H16.7943L14.2109 16.7917L9.04427 16.7917V14.2084H14.2109L16.7943 14.2084L21.9609 14.2084V16.7917Z" fill="white"/>
</svg>
