<svg viewBox="0 0 40 40" fill="none" xmlns="http://www.w3.org/2000/svg">
<rect width="40" height="40" rx="20" fill="white"/>
<path d="M20.2648 16.2102H16.1961C16.0612 16.2102 15.9318 16.2638 15.8365 16.3592C15.7411 16.4545 15.6875 16.5839 15.6875 16.7188C15.6875 16.8537 15.7411 16.983 15.8365 17.0784C15.9318 17.1738 16.0612 17.2274 16.1961 17.2274H20.2648C20.3997 17.2274 20.5291 17.1738 20.6245 17.0784C20.7198 16.983 20.7734 16.8537 20.7734 16.7188C20.7734 16.5839 20.7198 16.4545 20.6245 16.3592C20.5291 16.2638 20.3997 16.2102 20.2648 16.2102Z" fill="currentColor"/>
<path d="M20.2648 18.9312H16.1961C16.0612 18.9312 15.9318 18.9847 15.8365 19.0801C15.7411 19.1755 15.6875 19.3049 15.6875 19.4397C15.6875 19.5746 15.7411 19.704 15.8365 19.7994C15.9318 19.8948 16.0612 19.9483 16.1961 19.9483H20.2648C20.3997 19.9483 20.5291 19.8948 20.6245 19.7994C20.7198 19.704 20.7734 19.5746 20.7734 19.4397C20.7734 19.3049 20.7198 19.1755 20.6245 19.0801C20.5291 18.9847 20.3997 18.9312 20.2648 18.9312Z" fill="currentColor"/>
<path d="M20.2648 21.7133H16.1961C16.0612 21.7133 15.9318 21.7668 15.8365 21.8622C15.7411 21.9576 15.6875 22.087 15.6875 22.2218C15.6875 22.3567 15.7411 22.4861 15.8365 22.5815C15.9318 22.6769 16.0612 22.7304 16.1961 22.7304H20.2648C20.3997 22.7304 20.5291 22.6769 20.6245 22.5815C20.7198 22.4861 20.7734 22.3567 20.7734 22.2218C20.7734 22.087 20.7198 21.9576 20.6245 21.8622C20.5291 21.7668 20.3997 21.7133 20.2648 21.7133Z" fill="currentColor"/>
<path d="M25.0181 12.3704H14.9784C14.7175 12.371 14.4593 12.4232 14.2186 12.5238C13.9779 12.6244 13.7594 12.7715 13.5756 12.9567C13.3918 13.1419 13.2464 13.3615 13.1476 13.603C13.0488 13.8445 12.9987 14.1031 13 14.364V26.7686C12.9997 26.8959 13.0332 27.021 13.0972 27.131C13.1612 27.241 13.2534 27.3321 13.3642 27.3947C13.475 27.4574 13.6005 27.4894 13.7277 27.4875C13.855 27.4856 13.9795 27.4499 14.0884 27.384L15.96 26.26C15.9883 26.2424 16.0209 26.2331 16.0541 26.2331C16.0874 26.2331 16.12 26.2424 16.1482 26.26L18.2284 27.5061C18.3378 27.5758 18.4648 27.6128 18.5945 27.6129C18.7251 27.6122 18.8531 27.5771 18.9658 27.5111L21.0561 26.26C21.0844 26.2424 21.117 26.2331 21.1502 26.2331C21.1835 26.2331 21.2161 26.2424 21.2443 26.26L23.1057 27.384C23.215 27.4489 23.3398 27.4832 23.4668 27.4832C23.5939 27.4832 23.7187 27.4489 23.8279 27.384C23.9374 27.3214 24.0283 27.2311 24.0917 27.1222C24.1551 27.0133 24.1887 26.8895 24.189 26.7635V18.1887H25.786C26.1066 18.1873 26.4138 18.0594 26.6405 17.8326C26.8672 17.6059 26.9951 17.2988 26.9965 16.9782V14.364C26.9978 14.1031 26.9477 13.8445 26.8489 13.603C26.7501 13.3615 26.6047 13.1419 26.4209 12.9567C26.2371 12.7715 26.0186 12.6244 25.7779 12.5238C25.5372 12.4232 25.279 12.371 25.0181 12.3704ZM23.1719 26.2346L21.7682 25.3903C21.5811 25.2793 21.3677 25.2207 21.1502 25.2207C20.9327 25.2207 20.7193 25.2793 20.5323 25.3903L18.5996 26.5499L16.6721 25.3852C16.4828 25.272 16.2663 25.2127 16.0458 25.2136C15.8253 25.2145 15.6092 25.2756 15.4209 25.3903L14.0172 26.2397V14.364C14.0152 14.2365 14.0386 14.1099 14.086 13.9915C14.1334 13.8731 14.2038 13.7653 14.2933 13.6745C14.3828 13.5836 14.4894 13.5114 14.607 13.4621C14.7247 13.4129 14.8509 13.3875 14.9784 13.3875H23.3804C23.2461 13.6434 23.1746 13.9276 23.1719 14.2166V26.2193V26.2346ZM25.9793 16.9782C25.9793 17.0295 25.9589 17.0786 25.9227 17.1149C25.8864 17.1511 25.8373 17.1715 25.786 17.1715H24.189V14.2318C24.187 14.1217 24.207 14.0122 24.2477 13.9099C24.2885 13.8075 24.3492 13.7143 24.4264 13.6357C24.5036 13.5571 24.5957 13.4947 24.6972 13.4521C24.7988 13.4095 24.9079 13.3875 25.0181 13.3875C25.273 13.3875 25.5175 13.4888 25.6978 13.6691C25.878 13.8494 25.9793 14.0938 25.9793 14.3488V16.9782Z" fill="currentColor"/>
</svg>
