<svg viewBox="0 0 40 40" fill="none" xmlns="http://www.w3.org/2000/svg">
<rect width="40" height="40" rx="20" fill="white"/>
<path d="M28.9258 18.3838L20.222 12.0088C20.0908 11.9113 19.9108 11.9113 19.7795 12.0088L11.0758 18.3838C10.907 18.5075 10.8733 18.74 10.9933 18.9088C11.117 19.0775 11.3495 19.1113 11.5183 18.9913L13.2508 17.72V27.6875C13.2508 27.8938 13.4195 28.0625 13.6258 28.0625H26.3758C26.582 28.0625 26.7508 27.8938 26.7508 27.6875V17.72L28.4833 18.9875C28.652 19.1113 28.8845 19.0738 29.0083 18.905C29.1283 18.7438 29.0945 18.5075 28.9258 18.3838ZM22.6258 27.3125H17.3758V20.5625H22.6258V27.3125ZM26.0008 17.1875V27.3125H23.3758V20.1875C23.3758 19.9813 23.207 19.8125 23.0008 19.8125H17.0008C16.7945 19.8125 16.6258 19.9813 16.6258 20.1875V27.3125H14.0008V17.1875H13.9783L20.0008 12.7775L26.0233 17.1875H26.0008Z" fill="currentColor" stroke="currentColor" stroke-width="0.25"/>
<path d="M18.125 16.4375C18.125 17.4725 18.965 18.3125 20 18.3125C21.035 18.3125 21.875 17.4725 21.875 16.4375C21.875 15.4025 21.035 14.5625 20 14.5625C18.965 14.5625 18.125 15.4025 18.125 16.4375ZM21.125 16.4375C21.125 17.0563 20.6188 17.5625 20 17.5625C19.3813 17.5625 18.875 17.0563 18.875 16.4375C18.875 15.8188 19.3813 15.3125 20 15.3125C20.6188 15.3125 21.125 15.8188 21.125 16.4375Z" fill="currentColor" stroke="currentColor" stroke-width="0.25"/>
<path d="M20.75 24.3125H21.5C21.7062 24.3125 21.875 24.1438 21.875 23.9375C21.875 23.7312 21.7062 23.5625 21.5 23.5625H20.75C20.5437 23.5625 20.375 23.7312 20.375 23.9375C20.375 24.1438 20.5437 24.3125 20.75 24.3125Z" fill="currentColor" stroke="currentColor" stroke-width="0.25"/>
</svg>
