<svg viewBox="0 0 40 40" fill="none" xmlns="http://www.w3.org/2000/svg">
<rect width="40" height="40" rx="20" fill="white"/>
<path d="M19.8667 19.6707C21.0579 19.6707 22.0893 19.2434 22.9322 18.4005C23.7748 17.5577 24.2022 16.5265 24.2022 15.3352C24.2022 14.1443 23.775 13.1129 22.9321 12.2699C22.0891 11.4272 21.0578 11 19.8667 11C18.6754 11 17.6442 11.4272 16.8014 12.27C15.9586 13.1128 15.5312 14.1441 15.5312 15.3352C15.5312 16.5265 15.9586 17.5579 16.8014 18.4007C17.6445 19.2433 18.6758 19.6707 19.8667 19.6707ZM17.5474 13.0159C18.1941 12.3692 18.9527 12.0548 19.8667 12.0548C20.7807 12.0548 21.5394 12.3692 22.1862 13.0159C22.8329 13.6627 23.1474 14.4214 23.1474 15.3352C23.1474 16.2493 22.8329 17.0079 22.1862 17.6547C21.5394 18.3015 20.7807 18.6158 19.8667 18.6158C18.9529 18.6158 18.1943 18.3014 17.5474 17.6547C16.9006 17.008 16.5861 16.2493 16.5861 15.3352C16.5861 14.4214 16.9006 13.6627 17.5474 13.0159Z" fill="currentColor"/>
<path d="M27.4577 24.841C27.4333 24.4902 27.3842 24.1076 27.3118 23.7036C27.2388 23.2966 27.1447 22.9118 27.0321 22.5601C26.9156 22.1966 26.7576 21.8376 26.5619 21.4936C26.359 21.1365 26.1206 20.8256 25.8531 20.5698C25.5734 20.3021 25.2309 20.0869 24.8348 19.93C24.4401 19.7738 24.0027 19.6947 23.5349 19.6947C23.3511 19.6947 23.1734 19.7701 22.8302 19.9935C22.619 20.1313 22.3719 20.2906 22.0962 20.4668C21.8604 20.617 21.541 20.7578 21.1464 20.8852C20.7615 21.0098 20.3707 21.0729 19.9848 21.0729C19.5991 21.0729 19.2083 21.0098 18.8231 20.8852C18.429 20.7579 18.1094 20.6172 17.874 20.4669C17.6009 20.2924 17.3537 20.1331 17.1393 19.9934C16.7964 19.77 16.6187 19.6946 16.4349 19.6946C15.9669 19.6946 15.5297 19.7738 15.1351 19.9301C14.7393 20.0868 14.3967 20.302 14.1167 20.5699C13.8492 20.8259 13.6108 21.1367 13.4081 21.4936C13.2126 21.8376 13.0544 22.1964 12.938 22.5602C12.8255 22.9119 12.7314 23.2966 12.6584 23.7036C12.5859 24.1071 12.5368 24.4898 12.5125 24.8414C12.4886 25.1851 12.4766 25.5429 12.4766 25.9043C12.4766 26.8439 12.7753 27.6046 13.3643 28.1656C13.946 28.7191 14.7156 28.9998 15.6517 28.9998H24.3189C25.2548 28.9998 26.0244 28.7191 26.6062 28.1656C27.1954 27.605 27.494 26.8441 27.494 25.9042C27.4939 25.5415 27.4817 25.1838 27.4577 24.841ZM25.8789 27.4013C25.4945 27.7672 24.9842 27.945 24.3187 27.945H15.6517C14.9861 27.945 14.4758 27.7672 14.0916 27.4015C13.7146 27.0426 13.5314 26.5528 13.5314 25.9043C13.5314 25.567 13.5425 25.234 13.5648 24.9143C13.5865 24.6007 13.6308 24.2561 13.6966 23.89C13.7616 23.5284 13.8442 23.189 13.9426 22.8818C14.0369 22.5873 14.1656 22.2956 14.3251 22.0146C14.4774 21.7468 14.6527 21.5171 14.846 21.332C15.0269 21.1588 15.2549 21.0171 15.5235 20.9108C15.7719 20.8124 16.0511 20.7586 16.3542 20.7505C16.3911 20.7701 16.4569 20.8076 16.5635 20.8771C16.7803 21.0184 17.0303 21.1797 17.3066 21.3561C17.618 21.5547 18.0193 21.7341 18.4987 21.8888C18.9888 22.0473 19.4887 22.1278 19.9849 22.1278C20.4811 22.1278 20.9811 22.0473 21.4709 21.889C21.9508 21.7339 22.3519 21.5547 22.6638 21.3558C22.9465 21.1751 23.1895 21.0186 23.4063 20.8771C23.5129 20.8078 23.5787 20.7701 23.6156 20.7505C23.9188 20.7586 24.198 20.8124 24.4466 20.9108C24.7151 21.0171 24.943 21.1589 25.1239 21.332C25.3172 21.5169 25.4925 21.7467 25.6448 22.0148C25.8045 22.2956 25.9333 22.5874 26.0275 22.8817C26.126 23.1893 26.2088 23.5285 26.2736 23.8898C26.3392 24.2566 26.3837 24.6013 26.4054 24.9144V24.9147C26.4278 25.2332 26.4391 25.5661 26.4392 25.9043C26.4391 26.5529 26.2559 27.0426 25.8789 27.4013Z" fill="currentColor"/>
</svg>
