<svg viewBox="0 0 40 40" fill="none" xmlns="http://www.w3.org/2000/svg">
<rect width="40" height="40" rx="20" fill="white"/>
<path d="M13.5199 12.6386C13.5199 12.6319 13.5199 12.6319 13.5199 12.6253C13.5199 12.6186 13.5199 12.612 13.5199 12.5986C13.5199 12.5853 13.5199 12.5986 13.5199 12.592C13.5199 12.5853 13.5199 12.5853 13.5199 12.5787V12.572C13.5199 12.5654 13.5199 12.5587 13.5265 12.5521V12.5454C13.5265 12.5387 13.5265 12.5387 13.5332 12.5321C13.5332 12.5254 13.5399 12.5188 13.5399 12.5055V12.4988L14.4316 9.90999C14.5115 9.6704 14.7711 9.55061 15.0106 9.63047C15.2502 9.71034 15.37 9.96988 15.2901 10.2095L14.8443 11.5072C16.5347 10.4956 18.4513 9.96988 20.4545 9.96988C26.5173 9.96988 31.4487 14.9013 31.4487 20.9641C31.4487 23.4398 30.6434 25.7757 29.1261 27.7257C29.0396 27.8388 28.9065 27.8987 28.7667 27.8987C28.6669 27.8987 28.5737 27.8654 28.4872 27.8055C28.2875 27.6525 28.2543 27.3663 28.4073 27.1666C29.8049 25.3764 30.5436 23.2335 30.5436 20.9641C30.5436 15.4004 26.0182 10.8816 20.4612 10.8816C18.5179 10.8816 16.6678 11.4207 15.0506 12.4522L16.7476 12.8648C16.9939 12.9247 17.1403 13.171 17.0804 13.4106C17.0271 13.6169 16.8474 13.7566 16.6411 13.7566C16.6079 13.7566 16.5679 13.75 16.5347 13.7433L13.866 13.0978C13.8593 13.0978 13.8593 13.0978 13.8526 13.0911C13.846 13.0911 13.8393 13.0845 13.826 13.0845C13.8194 13.0845 13.8127 13.0778 13.8127 13.0778C13.8061 13.0778 13.7994 13.0712 13.7928 13.0712H13.7861C13.7794 13.0712 13.7794 13.0645 13.7728 13.0645C13.7661 13.0578 13.7595 13.0578 13.7528 13.0512H13.7462C13.7395 13.0512 13.7395 13.0445 13.7329 13.0445C13.7262 13.0379 13.7195 13.0379 13.7129 13.0312C13.7129 13.0312 13.7062 13.0312 13.7062 13.0246C13.6996 13.0179 13.6996 13.0179 13.6929 13.0113C13.6863 13.0046 13.6796 13.0046 13.6796 12.998C13.6796 12.998 13.673 12.998 13.673 12.9913L13.6663 12.9846C13.6663 12.9846 13.6663 12.9846 13.6596 12.978C13.653 12.9713 13.653 12.9713 13.6463 12.9647L13.6397 12.958L13.633 12.9514L13.6264 12.9447L13.6197 12.9381C13.6197 12.9381 13.6197 12.9381 13.6131 12.9314C13.6131 12.9247 13.6064 12.9247 13.6064 12.9181L13.5998 12.9114C13.5998 12.9048 13.5931 12.9048 13.5931 12.8981C13.5931 12.8915 13.5864 12.8848 13.5864 12.8848C13.5798 12.8782 13.5798 12.8715 13.5731 12.8648C13.5731 12.8582 13.5665 12.8582 13.5665 12.8515C13.5598 12.8449 13.5598 12.8316 13.5532 12.8249C13.5532 12.8183 13.5532 12.8183 13.5465 12.8116C13.5399 12.805 13.5399 12.7916 13.5399 12.785C13.5399 12.7783 13.5399 12.7717 13.5332 12.765C13.5332 12.7584 13.5332 12.7517 13.5265 12.7451C13.5265 12.7384 13.5265 12.7317 13.5265 12.7251C13.5265 12.7184 13.5265 12.7118 13.5265 12.7051C13.5265 12.6985 13.5265 12.6918 13.5265 12.6852C13.5199 12.6585 13.5199 12.6452 13.5199 12.6386ZM13.1139 22.7809L14.3185 23.1137C14.3984 23.34 14.4915 23.5596 14.5914 23.7659L13.9791 24.8507C13.8926 25.0104 13.9059 25.2034 14.0124 25.3498C14.6912 26.2416 15.1704 26.7208 16.0621 27.3996C16.2086 27.5127 16.4015 27.526 16.5613 27.4328L17.6461 26.8206C17.859 26.9204 18.0786 27.0136 18.3049 27.0934L18.6377 28.298C18.6842 28.471 18.8373 28.6041 19.017 28.6241C19.5827 28.6973 20.0286 28.7372 20.4678 28.7372C20.907 28.7372 21.3463 28.6973 21.9186 28.6241C22.0983 28.5975 22.2447 28.471 22.298 28.298L22.6307 27.0934C22.8503 27.0136 23.07 26.9271 23.2829 26.8206L24.3677 27.4328C24.5274 27.5194 24.7204 27.5061 24.8668 27.3996C25.732 26.7407 26.2511 26.2216 26.9166 25.3498C27.0297 25.2034 27.043 25.0104 26.9499 24.8507C26.7702 24.5312 26.5905 24.2184 26.4108 23.899L26.3376 23.7659C26.4374 23.5529 26.5306 23.3333 26.6105 23.107L27.815 22.7743C27.9881 22.7277 28.1212 22.5746 28.1411 22.3949C28.2942 21.2569 28.2942 20.638 28.1411 19.5C28.1145 19.3203 27.9881 19.1739 27.815 19.1206L26.6105 18.7879C26.5306 18.5683 26.4441 18.3486 26.3376 18.1357L26.9499 17.0509C27.0364 16.8912 27.0231 16.6982 26.9166 16.5518C26.2511 15.6866 25.7386 15.1675 24.8668 14.502C24.7204 14.3889 24.5274 14.3756 24.3677 14.4687L23.2829 15.081C23.07 14.9812 22.857 14.888 22.6307 14.8081L22.298 13.6036C22.2514 13.4305 22.0983 13.2974 21.9186 13.2775C20.8205 13.1311 20.1151 13.1311 19.0237 13.2775C18.844 13.3041 18.6976 13.4305 18.6443 13.6036L18.3116 14.8081C18.0919 14.888 17.8723 14.9745 17.6527 15.081L16.5679 14.4687C16.4082 14.3822 16.2152 14.3955 16.0688 14.502C15.177 15.1808 14.6978 15.66 14.019 16.5518C13.9059 16.6982 13.8926 16.8912 13.9857 17.0509L14.598 18.1357C14.4982 18.342 14.405 18.5683 14.3252 18.7879L13.1206 19.1206C12.9476 19.1672 12.8145 19.3203 12.7945 19.5C12.6414 20.638 12.6414 21.2569 12.7945 22.3949C12.8145 22.5879 12.9409 22.7344 13.1139 22.7809ZM13.653 19.9259L14.7977 19.6065C14.9441 19.5665 15.0639 19.4534 15.1105 19.307C15.2103 18.9809 15.3567 18.6348 15.5098 18.342C15.583 18.2022 15.583 18.0425 15.5031 17.9028L14.9175 16.8712C15.3966 16.2723 15.776 15.8863 16.3749 15.4137L17.4065 15.9994C17.5396 16.0726 17.7059 16.0793 17.839 16.0061C18.1518 15.8397 18.4779 15.7066 18.7974 15.6067C18.9438 15.5602 19.0569 15.4404 19.1035 15.294L19.423 14.1493C20.175 14.0628 20.734 14.0628 21.486 14.1493L21.8055 15.294C21.8454 15.4404 21.9586 15.5602 22.105 15.6067C22.4444 15.7132 22.7638 15.8463 23.0633 16.0061C23.2031 16.0793 23.3628 16.0793 23.4959 15.9994L24.5274 15.4137C25.1197 15.8863 25.519 16.2856 25.9849 16.8712L25.3992 17.9028C25.326 18.0359 25.3194 18.2022 25.3926 18.3353C25.559 18.6481 25.6921 18.9676 25.7919 19.2937C25.8385 19.4401 25.9583 19.5532 26.1047 19.5998L27.2493 19.9192C27.3425 20.6979 27.3425 21.2103 27.2493 21.9823L26.1047 22.3018C25.9583 22.3417 25.8385 22.4548 25.7919 22.6079C25.6921 22.9407 25.559 23.2601 25.3926 23.5729C25.3194 23.7126 25.326 23.8724 25.3992 24.0055L25.5922 24.3515C25.7253 24.5845 25.8518 24.8107 25.9849 25.0437C25.5124 25.636 25.1131 26.0353 24.5274 26.5011L23.4959 25.9155C23.3628 25.8423 23.1964 25.8356 23.0633 25.9088C22.7572 26.0686 22.4311 26.2083 22.0983 26.3081C21.9519 26.3547 21.8388 26.4745 21.7988 26.6209L21.4794 27.7656C20.7007 27.8588 20.1883 27.8588 19.4163 27.7656L19.0969 26.6209C19.0569 26.4745 18.9438 26.3547 18.7974 26.3081C18.458 26.2017 18.1319 26.0686 17.8324 25.9088C17.6926 25.8356 17.5329 25.8356 17.3998 25.9155L16.3683 26.5011C15.7693 26.022 15.3833 25.6426 14.9108 25.0437L15.4965 24.0121C15.5697 23.879 15.5763 23.7127 15.5031 23.5795C15.3434 23.2734 15.2103 22.9473 15.1038 22.6146C15.0572 22.4681 14.9441 22.355 14.791 22.3151L13.6463 21.9956C13.5598 21.2103 13.5598 20.7045 13.653 19.9259ZM20.4545 24.8906C22.6241 24.8906 24.3877 23.127 24.3877 20.9574C24.3877 18.7879 22.6241 17.0243 20.4545 17.0243C18.2849 17.0243 16.5213 18.7879 16.5213 20.9574C16.528 23.127 18.2916 24.8906 20.4545 24.8906ZM20.4545 17.936C22.1249 17.936 23.4826 19.2937 23.4826 20.9641C23.4826 22.6345 22.1249 23.9855 20.4545 23.9855C18.7841 23.9855 17.4331 22.6279 17.4331 20.9641C17.4331 19.2937 18.7907 17.936 20.4545 17.936Z" fill="currentColor"/>
</svg>
