<svg width="40" height="40" viewBox="0 0 40 40" fill="none" xmlns="http://www.w3.org/2000/svg">
<rect width="40" height="40" rx="20" fill="white"/>
<g clip-path="url(#clip0_1265_33786)">
<path d="M13.8506 19.6422L15.0712 19.984C15.138 20.0027 15.209 20.0012 15.2749 19.9797L21.9045 17.8194C22.4129 18.39 23.0994 18.7801 23.8435 18.9307C24.1712 20.3737 25.0744 20.9827 25.9325 20.9827C26.1311 20.9827 26.3273 20.949 26.5105 20.8807C27.434 20.5363 27.7798 19.2536 27.2977 17.9606C27.2716 17.8905 27.2432 17.8237 27.2138 17.7588C27.9807 16.8517 28.267 15.596 27.8754 14.3947C27.4024 12.9429 26.0593 11.9674 24.5335 11.9674C22.7233 11.9674 21.2069 13.3492 21.033 15.1454L20.7545 15.2361C20.6885 15.2576 20.6304 15.2982 20.5874 15.3526L19.9476 16.1639L18.9527 15.8853C18.816 15.847 18.6697 15.8947 18.5819 16.0061L17.942 16.8174L16.9471 16.5388C16.8104 16.5006 16.6642 16.5482 16.5763 16.6597L15.9698 17.4287L15.3403 17.1086C15.2571 17.0663 15.1607 17.0588 15.0721 17.0877L14.4035 17.3055C14.2983 17.3398 14.2154 17.4217 14.1797 17.5264L13.6126 19.1903C13.5814 19.2818 13.5892 19.382 13.6342 19.4675C13.6793 19.553 13.7575 19.6162 13.8506 19.6422ZM26.2648 20.2219C25.9874 20.3253 25.6533 20.2901 25.371 20.1277C25.1109 19.9782 24.7849 19.6628 24.5875 18.9992C25.3429 18.9873 26.0728 18.7315 26.6652 18.2806C26.9618 19.1497 26.7856 20.0276 26.2648 20.2219ZM14.7885 17.9196L15.1514 17.8014L15.908 18.1861C16.0574 18.262 16.2396 18.222 16.3434 18.0904L16.9832 17.2791L17.9781 17.5577C18.1148 17.5959 18.2611 17.5483 18.3489 17.4368L18.9888 16.6256L19.9837 16.9042C20.1203 16.9424 20.2666 16.8948 20.3545 16.7833L21.0736 15.8716L21.478 15.7397C21.6197 15.6936 21.7168 15.5632 21.7205 15.4142C21.7584 13.8873 23.0133 12.6705 24.5335 12.6705C25.7541 12.6705 26.8284 13.4509 27.2069 14.6124C27.4956 15.4982 27.3234 16.4164 26.8183 17.1237C26.4735 16.7115 26.0524 16.4689 25.657 16.3272C25.922 15.973 26.017 15.4998 25.8699 15.0481C25.6266 14.3016 24.83 13.908 24.0971 14.1467C23.3598 14.387 22.9555 15.1823 23.1958 15.9195C23.4227 16.616 24.1384 17.0159 24.8442 16.855C25.3327 16.9129 25.9234 17.1058 26.334 17.645C25.8245 18.0695 25.1804 18.2971 24.5324 18.2971C23.6644 18.2971 22.8304 17.8859 22.3015 17.197C22.2108 17.0788 22.0554 17.0307 21.9137 17.0768L15.1583 19.2781L14.398 19.0653L14.7885 17.9196ZM24.5326 16.1873C24.2275 16.1873 23.9589 15.9922 23.8643 15.7017C23.7442 15.3331 23.9464 14.9354 24.3149 14.8153C24.6827 14.6955 25.08 14.8936 25.2014 15.266C25.3215 15.6346 25.0104 16.1873 24.5326 16.1873Z" fill="#EA3934"/>
<path d="M28.158 25.2259C28.1162 24.7729 27.7041 24.4263 27.3186 24.3182C27.0058 24.2304 26.7924 24.3103 26.5166 24.3358C26.4494 24.332 26.4282 24.3401 26.1756 24.406C23.0409 25.2227 21.8654 25.3941 21.4313 25.3941C21.3326 25.3941 21.2985 25.3848 21.298 25.3847C20.6973 25.1908 19.8581 25.0144 19.5776 24.7914C19.7877 24.7638 20.0657 24.8143 20.2732 24.8776C20.628 24.9859 21.0262 25.0408 21.4568 25.0408C22.5277 25.0407 23.5659 24.6946 24.0402 24.1796C24.2672 23.933 24.3744 23.6469 24.3501 23.3521C24.3305 23.115 24.2015 22.8068 23.6982 22.6853C22.8939 22.4911 21.3062 22.8228 20.3803 22.0128C19.4028 21.1575 18.2734 20.7239 17.0234 20.7239C16.1416 20.7239 15.4003 20.9441 14.9485 21.1199C14.8126 20.7053 14.4223 20.405 13.9629 20.405H12.873C12.3012 20.405 11.8359 20.8703 11.8359 21.4421V26.0476C11.8359 26.6195 12.3012 27.0847 12.873 27.0847H13.9629C14.4215 27.0847 14.8114 26.7853 14.9478 26.3719L17.6659 27.5607C18.3223 27.8739 19.159 28.0328 20.1526 28.0328C23.1742 28.0328 26.8461 26.5667 27.2958 26.3455C28.059 25.9699 28.1859 25.5293 28.158 25.2259ZM14.2969 26.0476C14.2969 26.2318 14.1471 26.3816 13.9629 26.3816H12.8731C12.6889 26.3816 12.5391 26.2318 12.5391 26.0476V21.4421C12.5391 21.258 12.6889 21.1082 12.8731 21.1082H13.9629C14.1471 21.1082 14.2969 21.258 14.2969 21.4421V25.8571V26.0476ZM26.9853 25.7146C26.555 25.9263 23.0411 27.3296 20.1526 27.3296C19.2621 27.3296 18.5258 27.1931 17.9641 26.924C17.9527 26.9185 18.1583 27.0088 15 25.6272V21.8599C15.3316 21.7116 16.0899 21.4271 17.0234 21.4271C18.098 21.4271 19.0717 21.8022 19.9173 22.542C20.7419 23.2634 21.8866 23.2897 22.7225 23.3088C23.05 23.3164 23.5412 23.3276 23.6493 23.4104C23.6523 23.4464 23.6604 23.554 23.5229 23.7033C23.1844 24.0708 22.3155 24.3376 21.4567 24.3376C21.1008 24.3377 20.7625 24.2918 20.4783 24.2051C20.2117 24.1238 19.9438 24.0808 19.7035 24.0808C19.2037 24.0808 18.9863 24.2692 18.8919 24.4273C18.827 24.5359 18.7432 24.7646 18.9109 25.076C19.2057 25.6233 20.1874 25.765 21.0819 26.0538C21.1737 26.0834 21.2847 26.0972 21.4313 26.0972C22.5078 26.0972 25.4887 25.3069 26.5307 25.0401C26.7624 25.0228 26.9233 24.9811 27.0287 24.9811C27.0634 24.9811 27.0942 24.9854 27.1286 24.9951C27.2682 25.0342 27.4475 25.1782 27.4578 25.2903C27.4656 25.375 27.3466 25.5368 26.9853 25.7146Z" fill="#EA3934"/>
</g>
<defs>
<clipPath id="clip0_1265_33786">
<rect width="18" height="18" fill="white" transform="translate(11 11)"/>
</clipPath>
</defs>
</svg>
