<svg viewBox="0 0 40 40" fill="none" xmlns="http://www.w3.org/2000/svg">
<rect width="40" height="40" rx="20" fill="white"/>
<path d="M13.1682 19.6025L14.5245 19.9823C14.5986 20.003 14.6775 20.0014 14.7508 19.9775L22.117 17.5772C22.6819 18.2112 23.4446 18.6446 24.2714 18.812C24.6355 20.4153 25.6391 21.0919 26.5926 21.0919C26.8132 21.0919 27.0312 21.0545 27.2347 20.9786C28.2609 20.5959 28.6451 19.1708 28.1095 17.7341C28.0804 17.6561 28.0489 17.582 28.0162 17.5099C28.8683 16.502 29.1864 15.1067 28.7514 13.7719C28.2257 12.1588 26.7335 11.075 25.0381 11.075C23.0268 11.075 21.3419 12.6102 21.1486 14.606L20.8392 14.7068C20.7659 14.7307 20.7013 14.7758 20.6536 14.8363L19.9427 15.7377L18.8372 15.4282C18.6853 15.3856 18.5228 15.4387 18.4252 15.5624L17.7143 16.4638L16.6087 16.1543C16.4568 16.1118 16.2944 16.1648 16.1967 16.2886L15.5229 17.143L14.8234 16.7874C14.731 16.7404 14.6238 16.7321 14.5254 16.7642L13.7826 17.0062C13.6657 17.0443 13.5735 17.1352 13.5339 17.2516L12.9037 19.1004C12.8691 19.202 12.8778 19.3134 12.9278 19.4084C12.9779 19.5034 13.0648 19.5736 13.1682 19.6025ZM26.9617 20.2466C26.6535 20.3616 26.2823 20.3223 25.9686 20.142C25.6797 19.9758 25.3174 19.6253 25.0981 18.8881C25.9375 18.8748 26.7484 18.5907 27.4067 18.0896C27.7362 19.0553 27.5405 20.0307 26.9617 20.2466ZM14.2103 17.6885L14.6135 17.5571L15.4542 17.9846C15.6202 18.069 15.8227 18.0245 15.9379 17.8782L16.6488 16.9769L17.7543 17.2864C17.9062 17.3288 18.0687 17.2759 18.1664 17.1521L18.8773 16.2507L19.9827 16.5602C20.1345 16.6027 20.2971 16.5498 20.3948 16.4259L21.1937 15.4129L21.6431 15.2664C21.8005 15.2151 21.9085 15.0702 21.9126 14.9047C21.9546 13.2082 23.349 11.8561 25.038 11.8561C26.3943 11.8561 27.588 12.7232 28.0086 14.0139C28.3293 14.998 28.1379 16.0183 27.5767 16.8041C27.1936 16.3462 26.7258 16.0766 26.2864 15.9192C26.5808 15.5256 26.6864 14.9998 26.523 14.498C26.2527 13.6685 25.3676 13.2311 24.5532 13.4964C23.734 13.7634 23.2848 14.647 23.5517 15.4662C23.8039 16.2401 24.5991 16.6844 25.3834 16.5056C25.9261 16.5699 26.5824 16.7843 27.0387 17.3834C26.4725 17.8551 25.7569 18.108 25.0369 18.108C24.0724 18.108 23.1458 17.651 22.5581 16.8856C22.4573 16.7543 22.2846 16.7008 22.1272 16.7521L14.6212 19.198L13.7764 18.9615L14.2103 17.6885ZM25.0371 15.7637C24.6981 15.7637 24.3997 15.5469 24.2945 15.2242C24.1611 14.8146 24.3857 14.3728 24.7952 14.2393C25.2038 14.1061 25.6453 14.3262 25.7802 14.7401C25.9136 15.1496 25.568 15.7637 25.0371 15.7637Z" fill="currentColor"/>
<path d="M29.0653 25.8066C29.0189 25.3032 28.561 24.9182 28.1327 24.798C27.7851 24.7005 27.5479 24.7892 27.2415 24.8177C27.1668 24.8134 27.1434 24.8224 26.8627 24.8955C23.3797 25.803 22.0736 25.9935 21.5913 25.9935C21.4815 25.9935 21.4437 25.9832 21.4431 25.983C20.7757 25.7676 19.8432 25.5716 19.5315 25.3238C19.765 25.2931 20.0738 25.3493 20.3044 25.4196C20.6986 25.5399 21.1411 25.6009 21.6195 25.6009C22.8094 25.6009 23.963 25.2163 24.49 24.644C24.7422 24.3701 24.8613 24.0522 24.8343 23.7246C24.8125 23.4612 24.6692 23.1187 24.11 22.9837C23.2163 22.7679 21.4521 23.1365 20.4234 22.2364C19.3373 21.2862 18.0824 20.8044 16.6936 20.8044C15.7138 20.8044 14.89 21.049 14.3881 21.2443C14.2371 20.7837 13.8034 20.4501 13.293 20.4501H12.082C11.4466 20.4501 10.9297 20.967 10.9297 21.6024V26.7196C10.9297 27.355 11.4466 27.8719 12.082 27.8719H13.293C13.8026 27.8719 14.2357 27.5393 14.3873 27.0799L17.4074 28.4009C18.1368 28.7489 19.0664 28.9253 20.1705 28.9253C23.5278 28.9253 27.6077 27.2964 28.1073 27.0506C28.9554 26.6333 29.0964 26.1437 29.0653 25.8066ZM13.6641 26.7196C13.6641 26.9242 13.4976 27.0907 13.293 27.0907H12.0821C11.8775 27.0907 11.711 26.9242 11.711 26.7196V21.6024C11.711 21.3978 11.8775 21.2313 12.0821 21.2313H13.293C13.4976 21.2313 13.6641 21.3978 13.6641 21.6024V26.508V26.7196ZM27.7623 26.3496C27.2842 26.5848 23.3799 28.1441 20.1705 28.1441C19.181 28.1441 18.3629 27.9924 17.7388 27.6934C17.7261 27.6873 17.9545 27.7876 14.4453 26.2525V22.0666C14.8138 21.9019 15.6564 21.5857 16.6935 21.5857C17.8876 21.5857 18.9695 22.0025 19.9089 22.8244C20.8252 23.626 22.0971 23.6553 23.0258 23.6765C23.3897 23.6849 23.9355 23.6974 24.0557 23.7894C24.0589 23.8294 24.068 23.9489 23.9152 24.1148C23.5391 24.5232 22.5736 24.8196 21.6194 24.8196C21.224 24.8197 20.8481 24.7687 20.5323 24.6724C20.2361 24.582 19.9384 24.5343 19.6714 24.5343C19.1161 24.5343 18.8745 24.7436 18.7696 24.9193C18.6975 25.04 18.6045 25.294 18.7908 25.64C19.1183 26.2481 20.2091 26.4056 21.203 26.7264C21.305 26.7594 21.4284 26.7747 21.5912 26.7747C22.7873 26.7747 26.0995 25.8966 27.2572 25.6002C27.5147 25.5809 27.6935 25.5346 27.8106 25.5346C27.8491 25.5346 27.8833 25.5394 27.9216 25.5501C28.0766 25.5936 28.2758 25.7535 28.2873 25.8782C28.296 25.9723 28.1637 26.1521 27.7623 26.3496Z" fill="currentColor"/>
</svg>
