<svg width="135" height="133" viewBox="0 0 135 133" fill="none" xmlns="http://www.w3.org/2000/svg">
<g clip-path="url(#clip0_402_14809)">
<path opacity="0.7" d="M5.49068 45.6563C17.2466 33.907 27.2002 43.7645 31.3921 27.9859C37.8178 3.799 65.5508 3.79909 77.8812 22.7946C95.452 49.8633 135.167 34.7168 134.865 67.4388C134.543 102.371 108.854 129.58 62.7799 132.299C21.475 134.735 -13.9852 65.1255 5.49068 45.6563Z" fill="#FEF2F2"/>
<path d="M44.9214 123.117C44.9214 123.117 40.824 125.904 39.1747 125.72C38.9686 125.698 38.8103 125.635 38.6888 125.514C37.6101 124.402 36.7487 122.454 36.7487 122.454C36.7487 122.454 37.2604 121.744 38.8434 123.629L39.8484 122.705L37.7721 120.617C37.7721 120.617 38.9391 119.69 40.9234 120.871C40.8571 120.728 39.576 117.945 40.5405 114.153L35.7031 109.492L39.9846 105.763L40.316 105.476C40.316 105.476 40.5847 105.741 41.0228 106.153C41.4462 106.554 42.0241 107.088 42.6574 107.64C44.1667 108.966 45.9927 110.405 46.7842 110.39C48.2495 110.361 44.9214 123.113 44.9214 123.113V123.117Z" fill="#D18080"/>
<mask id="mask0_402_14809" style="mask-type:luminance" maskUnits="userSpaceOnUse" x="35" y="105" width="13" height="21">
<path d="M44.9058 123.115C44.9058 123.115 40.8084 125.902 39.1591 125.718C38.9529 125.696 38.7946 125.633 38.6731 125.512C37.5945 124.4 36.733 122.452 36.733 122.452C36.733 122.452 37.2447 121.742 38.8278 123.627L39.8328 122.703L37.7565 120.615C37.7565 120.615 38.9235 119.688 40.9078 120.869C40.8415 120.726 39.5604 117.943 40.5249 114.151L35.6875 109.49L39.969 105.761L40.3003 105.474C40.3003 105.474 40.5691 105.739 41.0072 106.151C41.4305 106.552 42.0085 107.086 42.6417 107.638C44.1511 108.964 45.9771 110.403 46.7686 110.388C48.2338 110.359 44.9058 123.111 44.9058 123.111V123.115Z" fill="white"/>
</mask>
<g mask="url(#mask0_402_14809)">
<path opacity="0.4" d="M41.7398 121.289C41.7398 121.289 39.4057 123.697 39.1591 125.718C38.9529 125.696 38.7946 125.633 38.6731 125.512C37.5945 124.4 36.733 122.453 36.733 122.453C36.733 122.453 37.2447 121.742 38.8278 123.627L39.8328 122.703L37.7565 120.616C37.7565 120.616 38.9235 119.688 40.9078 120.87C40.8415 120.726 39.5604 117.943 40.5249 114.151L35.6875 109.49L39.969 105.761L41.0035 106.151C41.4269 106.552 42.0048 107.086 42.638 107.639C41.7324 108.968 39.7923 111.714 39.7923 111.714L41.4674 113.989C41.4674 113.989 40.4513 119.725 41.7361 121.286L41.7398 121.289Z" fill="#FFC253"/>
</g>
<path d="M44.9214 123.117C44.9214 123.117 40.824 125.904 39.1747 125.72C38.9686 125.698 38.8103 125.635 38.6888 125.514C37.6101 124.402 36.7487 122.454 36.7487 122.454C36.7487 122.454 37.2604 121.744 38.8434 123.629L39.8484 122.705L37.7721 120.617C37.7721 120.617 38.9391 119.69 40.9234 120.871C40.8571 120.728 39.576 117.945 40.5405 114.153L35.7031 109.492L39.9846 105.763L40.316 105.476C40.316 105.476 40.5847 105.741 41.0228 106.153C41.4462 106.554 42.0241 107.088 42.6574 107.64C44.1667 108.966 45.9927 110.405 46.7842 110.39C48.2495 110.361 44.9214 123.113 44.9214 123.113V123.117Z" stroke="#263238" stroke-width="0.368143" stroke-linecap="round" stroke-linejoin="round"/>
<path d="M39.8438 122.709C39.8438 122.709 40.2008 121.589 40.9224 120.879" stroke="#263238" stroke-width="0.368143" stroke-linecap="round" stroke-linejoin="round"/>
<path d="M116.311 90.6549C115.729 91.5385 114.938 92.3705 113.992 93.1546C113.992 93.1546 113.992 93.1546 113.988 93.1546C106.452 99.3946 89.0793 102.476 89.0793 102.476C89.0793 102.476 88.4976 103.349 87.603 104.589C85.9979 106.82 83.3657 110.244 81.2194 111.959C80.3138 112.688 79.4928 113.108 78.8743 112.994L82.1324 125.032L83.5902 130.26C83.5902 130.26 68.6105 136.794 42.984 129.321C42.984 129.321 42.6932 125.978 42.9104 125.264C42.9214 125.231 42.9325 125.194 42.9435 125.161C43.1828 124.587 43.9486 123.898 43.9486 123.898C43.9486 123.898 43.805 121.748 43.7314 119.558C43.6724 117.857 43.6577 116.134 43.7829 115.368C43.9633 114.264 44.7732 111.595 45.1782 110.284C45.3217 109.82 45.4174 109.526 45.4174 109.526L44.1437 97.5834L43.7755 94.1449C43.7755 94.1449 43.7682 94.0823 43.7571 93.9645C43.7571 93.9388 43.7571 93.913 43.7498 93.8799L43.5473 92.0355L36.9575 94.0492C36.9575 94.0492 37.3072 94.8186 37.7785 95.9046C38.6436 97.8853 39.9174 100.904 40.2009 102.097C40.2229 102.196 40.2524 102.288 40.2855 102.384C40.8966 104.125 43.2196 105.705 43.2196 105.705L36.9796 112.998L35.1352 111.709C35.1352 111.709 34.8665 111.919 34.3915 112.177C33.1767 112.836 30.6328 113.804 27.8533 112.324C26.8372 111.783 25.7917 110.918 24.7683 109.596C19.8499 103.227 17.7367 98.0399 18.4288 91.9361C19.121 85.8286 46.5366 67.0496 51.9741 67.2447L60.0659 69.0339C60.2389 68.8903 60.7138 68.5148 61.0783 68.5332C62.5508 68.6068 62.5877 70.3187 62.5877 70.3187L80.7187 73.2638C80.7187 73.2638 82.5963 72.3214 82.9239 72.3398C83.7265 72.3803 84.0688 73.0687 84.0688 73.0687C84.0688 73.0687 88.7663 70.2561 90.2794 70.9114C95.2457 73.054 119.981 85.0739 116.311 90.6512V90.6549Z" fill="#FFC253"/>
<path opacity="0.2" d="M53.3079 120.458C53.3079 120.458 50.4916 123.915 45.4591 124.714C44.5056 124.864 43.6662 125.019 42.9336 125.17C43.1729 124.596 43.9386 123.907 43.9386 123.907C43.9386 123.907 43.7951 121.757 43.7214 119.567C45.8493 120.958 49.5565 122.578 53.3079 120.458Z" fill="black"/>
<path opacity="0.2" d="M45.1749 110.297C45.3184 109.833 45.4142 109.539 45.4142 109.539L44.1404 97.5963C46.0474 100.328 52.8433 109.642 57.5298 110.647C62.4261 111.696 49.3312 113.548 45.1785 110.297H45.1749Z" fill="black"/>
<path opacity="0.2" d="M82.1253 125.045C77.0081 124.464 69.7704 123.175 69.0452 120.495C67.9186 116.313 73.404 113.802 81.2086 111.969C80.303 112.698 79.482 113.117 78.8635 113.003L82.1216 125.042L82.1253 125.045Z" fill="black"/>
<path opacity="0.2" d="M113.981 93.1597C106.445 99.3998 89.0723 102.481 89.0723 102.481C89.0723 102.481 88.4907 103.354 87.5961 104.594C86.1272 101.163 84.0103 94.0654 86.4879 85.3404C86.4879 85.3404 87.828 92.5891 93.3833 94.312C93.3833 94.312 89.1312 91.146 90.6148 83.5181C90.6148 83.5181 92.0653 92.4934 101.508 94.971C106.103 96.1748 110.587 94.8422 113.985 93.1561L113.981 93.1597Z" fill="black"/>
<path opacity="0.2" d="M43.7445 93.9768L43.5347 92.0478L36.9449 94.0615C36.9449 94.0615 37.2947 94.8309 37.7659 95.917C35.2441 95.6556 30.4656 97.997 29.6299 95.4494C28.6249 92.3717 34.8134 93.432 34.8134 93.432L40.6521 90.034C39.5477 85.3107 42.3566 81.7618 42.3566 81.7618L42.8904 85.0567C43.1481 78.7946 45.5963 75.3672 45.5963 75.3672C43.5605 80.3187 43.6157 92.5079 43.7445 93.9768Z" fill="black"/>
<path opacity="0.2" d="M43.214 105.714L36.9739 113.007L35.1295 111.718C35.1295 111.718 34.8608 111.928 34.3859 112.186C33.171 112.845 30.6271 113.813 27.8477 112.333C29.8688 109.535 34.0472 105.415 39.0171 103.825C39.0171 103.825 36.9703 106.818 35.7002 109.491L36.9813 110.754C36.9813 110.754 40.1805 107.105 43.214 105.71V105.714Z" fill="black"/>
<path opacity="0.2" d="M58.3691 73.5894C58.3691 74.2299 57.9641 81.5302 63.2727 83.4593C68.5814 85.3884 73.301 82.1156 73.301 82.1156C73.301 82.1156 65.1576 89.9681 60.2061 85.7712C55.2546 81.5744 58.3691 73.5894 58.3691 73.5894Z" fill="black"/>
<path d="M42.9838 129.328C42.9838 129.328 42.6966 125.985 42.9102 125.271C43.0906 124.675 43.9483 123.905 43.9483 123.905C43.9483 123.905 43.4992 117.128 43.7864 115.379C44.033 113.881 45.4209 109.533 45.4209 109.533L43.5507 92.0461L36.961 94.0598C36.961 94.0598 39.7662 100.259 40.2006 102.107C40.635 103.956 43.2194 105.719 43.2194 105.719L36.9757 113.012L35.1313 111.727C35.1313 111.727 29.6865 115.986 24.7644 109.614C19.846 103.241 17.7328 98.0578 18.4249 91.9503C19.1171 85.8428 46.5327 67.0638 51.9739 67.259L60.0657 69.0481C60.2424 68.9046 60.7136 68.5291 61.0781 68.5475C62.5506 68.6211 62.5874 70.333 62.5874 70.333L80.7185 73.2744C80.7185 73.2744 82.5997 72.3357 82.9274 72.3504C83.7299 72.3909 84.0723 73.0756 84.0723 73.0756C84.0723 73.0756 88.7698 70.263 90.2829 70.9183C95.2491 73.0609 119.981 85.0808 116.311 90.6582C111.101 98.5769 89.079 102.483 89.079 102.483C89.079 102.483 81.753 113.531 78.8704 113.004L83.59 130.274" stroke="#263238" stroke-width="0.368143" stroke-linecap="round" stroke-linejoin="round"/>
<path d="M97.1498 91.8617C105.47 97.3581 112.177 96.342 117.427 89.27C117.427 89.27 121.797 83.6374 121.488 77.5557C121.178 71.4739 119.728 51.6494 100.783 56.7187C97.6652 57.5544 90.3906 67.2992 89.7758 69.9756C89.496 71.1978 86.573 77.4305 83.7383 83.8767" fill="#FFC253"/>
<path d="M97.1498 91.8617C105.47 97.3581 112.177 96.342 117.427 89.27C117.427 89.27 121.797 83.6374 121.488 77.5557C121.178 71.4739 119.728 51.6494 100.783 56.7187C97.6652 57.5544 90.3906 67.2992 89.7758 69.9756C89.496 71.1978 86.573 77.4305 83.7383 83.8767" stroke="#263238" stroke-width="0.368143" stroke-linecap="round" stroke-linejoin="round"/>
<path d="M74.6329 33.633C74.6329 33.633 79.9305 32.8304 83.6156 36.1253C88.2726 40.2927 93.5002 51.5284 86.0527 70.1491C86.0527 70.1491 75.0562 62.8452 56.2846 67.7304C56.2846 67.7304 57.9008 63.3606 55.0624 49.6141C53.7812 43.3962 57.0062 29.0643 74.6329 33.633Z" fill="#263238"/>
<path d="M66.6002 80.3605C74.4454 81.6306 82.7838 72.9461 82.7838 72.9461C82.7838 72.9461 78.517 72.4196 78.1378 70.4169C76.9156 64.0996 81.8377 56.2949 81.8377 56.2949C81.8377 56.2949 62.7899 56.8214 66.118 61.1323C66.8174 62.038 67.296 62.9031 67.6237 63.7167C68.7796 66.5551 67.9771 68.694 67.3623 69.2168C67.3181 69.2536 67.2666 69.2867 67.2224 69.3088C66.0701 69.8352 61.3358 69.0511 61.3358 69.0511C61.3358 69.0511 59.4435 79.1971 66.6002 80.3568V80.3605Z" fill="#D18080" stroke="#263238" stroke-width="0.368143" stroke-linecap="round" stroke-linejoin="round"/>
<path d="M80.0833 75.3501C80.0833 75.3501 76.4644 76.7969 71.1668 76.3662L68.7812 77.5369" stroke="#263238" stroke-width="0.368143" stroke-linecap="round" stroke-linejoin="round"/>
<path d="M66.4033 77.3456L66.2266 75.7773C66.2266 75.7773 62.3206 74.5551 61.1094 72.2284" stroke="#263238" stroke-width="0.368143" stroke-linecap="round" stroke-linejoin="round"/>
<path d="M67.3672 69.2204C73.2023 70.7445 75.9413 63.2638 75.9413 63.2638C75.9413 63.2638 71.2732 61.8722 67.6286 63.7203C68.7845 66.5587 67.982 68.6976 67.3672 69.2204Z" fill="#263238"/>
<path d="M82.1707 52.3609C83.5917 44.3942 82.0124 34.8335 69.8894 35.6251C61.227 36.192 61.2969 45.6901 61.8712 48.5248C62.8358 53.2923 61.4552 55.1698 62.9388 59.1752C64.0065 62.0541 66.4878 65.2717 69.4071 66.4792C71.2037 67.2228 78.4745 62.1203 79.012 59.7863" fill="#D18080"/>
<path d="M82.1707 52.3609C83.5917 44.3942 82.0124 34.8335 69.8894 35.6251C61.227 36.192 61.2969 45.6901 61.8712 48.5248C62.8358 53.2923 61.4552 55.1698 62.9388 59.1752C64.0065 62.0541 66.4877 65.2717 69.4071 66.4792C71.2037 67.2228 78.4745 62.1203 79.012 59.7863" stroke="#263238" stroke-width="0.368143" stroke-linecap="round" stroke-linejoin="round"/>
<path d="M66.9289 50.0122C66.8553 50.9068 66.7522 53.123 64.8563 54.7576C63.6304 55.8141 66.443 56.8965 66.443 56.8965" stroke="#263238" stroke-width="0.368143" stroke-linecap="round" stroke-linejoin="round"/>
<path d="M64.9137 46.8533C64.9137 46.8533 62.2373 45.55 60.4297 47.7" stroke="#263238" stroke-width="0.368143" stroke-linecap="round" stroke-linejoin="round"/>
<path d="M69.4062 46.6842C69.4062 46.6842 71.9906 45.7565 75.1272 46.9088" stroke="#263238" stroke-width="0.368143" stroke-linecap="round" stroke-linejoin="round"/>
<path d="M72.1836 50.4466C72.2683 51.2161 72.7837 51.7904 73.3396 51.7278C73.8955 51.6689 74.2783 50.9952 74.1937 50.2258C74.109 49.4563 73.5936 48.882 73.0377 48.9446C72.4818 49.0035 72.0989 49.6772 72.1836 50.4466Z" fill="#263238"/>
<path d="M66.582 59.4148C69.9469 59.0062 72.5644 57.228 72.5644 57.228C72.5644 57.228 72.8147 60.5708 70.0168 61.2666C67.8705 61.8004 67.0385 59.3485 67.0385 59.3485" stroke="#263238" stroke-width="0.368143" stroke-linecap="round" stroke-linejoin="round"/>
<path d="M74.4491 38.6622C74.4491 38.6622 73.6834 48.1014 82.0145 51.5325L85.9168 42.4577L80.0118 35.9158L71.1137 33.3462C57.8201 34.1745 52.0954 42.4357 59.4767 64.447C59.4767 64.447 57.4114 38.2351 74.4491 38.6659V38.6622Z" fill="#263238"/>
<path d="M80.1949 51.9333C80.0808 50.873 82.7646 48.1708 83.6702 49.9048C85.2164 52.861 84.0899 55.438 82.4885 56.4467C81.7706 56.8995 80.8613 57.7463 80.2244 56.9474" fill="#D18080"/>
<path d="M80.1949 51.9333C80.0808 50.873 82.7646 48.1708 83.6702 49.9048C85.2164 52.861 84.0899 55.438 82.4885 56.4467C81.7706 56.8995 80.8613 57.7463 80.2244 56.9474" stroke="#263238" stroke-width="0.368143" stroke-linecap="round" stroke-linejoin="round"/>
<path d="M64.0742 50.7957C64.1589 51.5652 64.6743 52.1395 65.2302 52.0769C65.7861 52.018 66.169 51.3443 66.0843 50.5749C65.9996 49.8054 65.4842 49.2311 64.9283 49.2937C64.3724 49.3526 63.9896 50.0263 64.0742 50.7957Z" fill="#263238"/>
<g opacity="0.2">
<path d="M58.296 49.2462C58.1966 49.8868 58.1267 50.531 58.0898 51.179" stroke="white" stroke-width="0.368143" stroke-linecap="round" stroke-linejoin="round"/>
<path d="M73.057 36.9467C66.3236 36.77 60.0652 41.0625 58.5742 47.8032" stroke="white" stroke-width="0.368143" stroke-linecap="round" stroke-linejoin="round"/>
<path d="M71.8643 35.0212C71.8643 35.0212 62.1527 32.7388 58.5117 39.1776" stroke="white" stroke-width="0.368143" stroke-linecap="round" stroke-linejoin="round"/>
<path d="M79.7383 46.2461C80.331 47.0707 81.0231 47.8328 81.833 48.455" stroke="white" stroke-width="0.368143" stroke-linecap="round" stroke-linejoin="round"/>
<path d="M75.8906 36.2803C76.4097 39.3175 77.4111 42.3988 78.972 45.0568" stroke="white" stroke-width="0.368143" stroke-linecap="round" stroke-linejoin="round"/>
<path d="M85.6467 65.4966C85.4737 66.2697 85.2712 67.0354 85.043 67.7938" stroke="white" stroke-width="0.368143" stroke-linecap="round" stroke-linejoin="round"/>
<path d="M85.082 52.6631C86.6577 56.1604 86.5509 60.5119 85.903 64.1933" stroke="white" stroke-width="0.368143" stroke-linecap="round" stroke-linejoin="round"/>
<path d="M83.9226 58.7554C83.9226 58.7554 84.4048 62.6577 81.1836 65.9526" stroke="white" stroke-width="0.368143" stroke-linecap="round" stroke-linejoin="round"/>
<path d="M79.4492 37.4067C81.1022 39.6414 82.3281 42.038 84.2424 44.0775C86.2599 46.2275 88.2736 48.6867 88.6528 51.7128" stroke="white" stroke-width="0.368143" stroke-linecap="round" stroke-linejoin="round"/>
<path d="M77.125 35.0845C77.5999 35.3937 78.0306 35.7619 78.4209 36.1705" stroke="white" stroke-width="0.368143" stroke-linecap="round" stroke-linejoin="round"/>
</g>
<path d="M110.356 86.9218C110.165 86.966 109.97 86.9991 109.771 87.0249C104.558 87.7686 98.7118 83.4502 96.7386 78.2557C95.1813 74.1583 96.5435 69.5086 97.2871 67.517C97.5227 66.8948 97.6921 66.5304 97.6921 66.5304C100.836 62.039 119.114 70.8229 119.324 75.664C119.538 80.5014 115.709 85.7438 110.353 86.9181L110.356 86.9218Z" fill="#263238" stroke="#263238" stroke-width="0.368143" stroke-linecap="round" stroke-linejoin="round"/>
<path d="M116.066 76.3228C116.066 76.3228 115.028 84.0133 109.763 87.0247C104.55 87.7683 98.704 83.45 96.7308 78.2555C95.1735 74.1581 96.5357 69.5084 97.2793 67.5168C97.2793 67.5131 97.283 67.5168 97.283 67.5168C103.442 64.001 116.066 76.3228 116.066 76.3228Z" fill="#B06666"/>
<mask id="mask1_402_14809" style="mask-type:luminance" maskUnits="userSpaceOnUse" x="96" y="66" width="21" height="22">
<path d="M116.058 76.3236C116.058 76.3236 115.02 84.0141 109.755 87.0256C104.542 87.7692 98.6962 83.4509 96.723 78.2564C95.1657 74.1589 96.5279 69.5093 97.2715 67.5176C97.2715 67.5139 97.2752 67.5176 97.2752 67.5176C103.434 64.0019 116.058 76.3236 116.058 76.3236Z" fill="white"/>
</mask>
<g mask="url(#mask1_402_14809)">
<path opacity="0.4" d="M116.058 76.3236C116.058 76.3236 115.02 84.0141 109.755 87.0256C104.542 87.7692 98.6962 83.4509 96.723 78.2564C95.1657 74.1589 96.5279 69.5093 97.2715 67.5176C97.2715 67.5139 97.2752 67.5176 97.2752 67.5176C103.434 64.0019 116.058 76.3236 116.058 76.3236Z" fill="#D18080"/>
</g>
<path d="M116.066 76.3228C116.066 76.3228 115.028 84.0133 109.763 87.0247C104.55 87.7683 98.704 83.45 96.7308 78.2555C95.1735 74.1581 96.5357 69.5084 97.2793 67.5168C97.2793 67.5131 97.283 67.5168 97.283 67.5168C103.442 64.001 116.066 76.3228 116.066 76.3228Z" stroke="#263238" stroke-width="0.368143" stroke-linecap="round" stroke-linejoin="round"/>
<path d="M94.5195 80.3722C94.5195 80.3722 100.454 88.891 107.386 89.6016C114.315 90.3121 118.747 84.4733 119.038 80.0703" stroke="#263238" stroke-width="0.368143" stroke-linecap="round" stroke-linejoin="round"/>
<path d="M91.1753 41.9193C91.6981 40.4578 95.4421 40.9474 96.6275 45.5014C97.813 50.0553 102.499 61.1106 102.499 61.1106C102.499 61.1106 121.102 33.7355 124.437 32.6826C127.772 31.626 126.451 36.3714 121.996 42.9538C121.996 42.9538 126.171 42.2175 127.264 42.9538C128.362 43.6901 127.828 48.1115 128.409 49.6614C129.389 52.2568 127.213 52.8053 127.213 52.8053C127.213 52.8053 128.925 52.7906 130.118 53.9098C131.314 55.0289 130.714 59.6602 131.053 60.9708C131.395 62.2813 129.113 63.3858 129.113 63.3858C129.113 63.3858 134.598 66.3788 133.357 67.1261C131.27 68.3888 130.077 67.0967 130.077 67.0967C130.077 67.0967 121.65 77.6808 115.296 80.0369C108.942 82.393 96.5649 73.0275 95.236 67.925C93.907 62.8225 95.4937 63.1391 94.4849 54.646C93.4762 46.1567 91.168 41.9156 91.168 41.9156L91.1753 41.9193Z" fill="#D18080" stroke="#263238" stroke-width="0.368143" stroke-linecap="round" stroke-linejoin="round"/>
<path d="M118.318 25.1038L93.8089 31.4925C92.9393 31.7192 92.4181 32.6079 92.6448 33.4775L104.231 77.9256C104.458 78.7952 105.346 79.3164 106.216 79.0897L130.725 72.7009C131.595 72.4743 132.116 71.5855 131.889 70.7159L120.303 26.2679C120.077 25.3983 119.188 24.8771 118.318 25.1038Z" fill="white" stroke="#263238" stroke-width="0.368143" stroke-linecap="round" stroke-linejoin="round"/>
<path d="M104.274 30.2091C104.33 30.4226 104.201 30.6398 103.991 30.6951C103.777 30.7503 103.56 30.6214 103.505 30.4116C103.45 30.1981 103.579 29.9809 103.788 29.9256C104.002 29.8704 104.219 29.9993 104.274 30.2091Z" fill="#FFC253" stroke="#263238" stroke-width="0.368143" stroke-linecap="round" stroke-linejoin="round"/>
<path d="M109.33 28.8907C109.363 29.0232 109.285 29.1594 109.149 29.1962C109.017 29.2294 108.88 29.152 108.844 29.0158C108.81 28.8833 108.888 28.7471 109.024 28.7103C109.157 28.6771 109.293 28.7545 109.33 28.8907Z" fill="#FFC253" stroke="#263238" stroke-width="0.368143" stroke-linecap="round" stroke-linejoin="round"/>
<path d="M107.932 29.1051L104.993 29.8712C104.93 29.8876 104.892 29.9519 104.909 30.0149L104.921 30.0612C104.937 30.1241 105.001 30.1619 105.064 30.1455L108.003 29.3794C108.066 29.363 108.104 29.2986 108.088 29.2357L108.076 29.1894C108.059 29.1264 107.995 29.0887 107.932 29.1051Z" fill="#FFC253" stroke="#263238" stroke-width="0.368143" stroke-linecap="round" stroke-linejoin="round"/>
<path d="M119.561 26.7235L131.051 70.805C131.183 71.3204 130.877 71.8469 130.362 71.9794L106.168 78.2857C105.652 78.4182 105.126 78.1127 104.993 77.5973L93.5036 33.5158C93.371 33.0004 93.6766 32.4739 94.192 32.3414L99.1582 31.0455C99.4859 30.9608 99.832 31.086 100.023 31.3621L100.38 31.8738C100.576 32.1499 100.922 32.2788 101.246 32.1904L112.15 29.3484C112.478 29.2637 112.717 28.9839 112.75 28.6489L112.813 28.0267C112.846 27.6917 113.085 27.4119 113.413 27.3273L118.379 26.0314C118.894 25.8989 119.421 26.2044 119.553 26.7198L119.561 26.7235Z" fill="#FEE3E2" stroke="#263238" stroke-width="0.368143" stroke-linecap="round" stroke-linejoin="round"/>
<path d="M123.751 69.5907L109.96 73.1837C108.307 73.6145 106.617 72.6242 106.187 70.9712C105.756 69.3182 106.746 67.6284 108.399 67.1977L122.19 63.6046C123.843 63.1739 125.533 64.1642 125.963 65.8172C126.394 67.4701 125.404 69.1599 123.751 69.5907Z" fill="#263238"/>
<path d="M89.079 102.479C89.079 102.479 84.8932 92.7417 87.0284 80.9316" stroke="#263238" stroke-width="0.368143" stroke-linecap="round" stroke-linejoin="round"/>
<path d="M78.8685 113.001C78.8685 113.001 70.4086 115.589 69.5508 117.533C68.6931 119.48 73.3464 117.842 73.3464 117.842" stroke="#263238" stroke-width="0.368143" stroke-linecap="round" stroke-linejoin="round"/>
<path d="M84.077 73.0723C84.077 73.0723 76.2871 80.7922 71.0742 82.8538" stroke="#263238" stroke-width="0.368143" stroke-linecap="round" stroke-linejoin="round"/>
<path d="M58.5471 70.996C58.5471 70.996 57.1298 81.4181 62.4237 83.3877" stroke="#263238" stroke-width="0.368143" stroke-linecap="round" stroke-linejoin="round"/>
<path d="M43.5508 92.0422C43.5508 92.0422 43.5066 78.3767 46.2235 74.1504" stroke="#263238" stroke-width="0.368143" stroke-linecap="round" stroke-linejoin="round"/>
<path d="M42.5366 78.123C42.5366 78.123 41.7746 86.6088 43.4827 89.3772" stroke="#263238" stroke-width="0.368143" stroke-linecap="round" stroke-linejoin="round"/>
<path d="M36.9613 94.0593C36.9613 94.0593 31.0379 92.0198 29.8083 94.549C28.5787 97.0781 33.3424 94.8361 33.3424 94.8361" stroke="#263238" stroke-width="0.368143" stroke-linecap="round" stroke-linejoin="round"/>
<path d="M40.5248 102.921C40.5248 102.921 34.7081 106.198 34.4062 108.075" stroke="#263238" stroke-width="0.368143" stroke-linecap="round" stroke-linejoin="round"/>
<path d="M50.0312 93.8535C50.0312 93.8535 61.1676 110.685 67.3156 109.139" stroke="#263238" stroke-width="0.368143" stroke-linecap="round" stroke-linejoin="round"/>
<path d="M57.6355 117.463C57.6355 117.463 48.9032 123.865 47.6331 123.324" stroke="#263238" stroke-width="0.368143" stroke-linecap="round" stroke-linejoin="round"/>
<path opacity="0.2" d="M118.801 90.1468C119.39 89.6646 119.78 89.3443 119.905 89.2412C119.773 89.3553 119.393 89.6867 118.801 90.1468Z" fill="black"/>
</g>
<g clip-path="url(#clip1_402_14809)">
<path d="M24.4664 59.7624C29.8159 58.4424 33.0824 53.0356 31.7624 47.6861C30.4424 42.3366 25.0357 39.07 19.6862 40.3901C14.3366 41.7101 11.0701 47.1168 12.3901 52.4663C13.7101 57.8158 19.1168 61.0824 24.4664 59.7624Z" fill="url(#paint0_linear_402_14809)"/>
<path d="M24.4096 59.531C29.6313 58.2425 32.8197 52.965 31.5313 47.7434C30.2428 42.5218 24.9653 39.3333 19.7437 40.6217C14.522 41.9102 11.3336 47.1877 12.622 52.4093C13.9105 57.631 19.188 60.8195 24.4096 59.531Z" fill="url(#paint1_linear_402_14809)"/>
<path d="M24.122 58.3734C21.9057 58.9203 19.6093 58.5715 17.6555 57.3911C15.7016 56.2106 14.3246 54.3401 13.7778 52.1238C13.2309 49.9076 13.5797 47.6112 14.7601 45.6573C15.9406 43.7035 17.8111 42.3265 20.0274 41.7796C22.2436 41.2327 24.54 41.5815 26.4939 42.762C28.4477 43.9424 29.8247 45.813 30.3716 48.0292C30.9185 50.2455 30.5697 52.5419 29.3892 54.4957C28.2088 56.4496 26.3382 57.8266 24.122 58.3734Z" fill="url(#paint2_linear_402_14809)"/>
<path d="M26.826 42.9731C24.949 41.9514 22.7895 41.6712 20.701 42.1866C18.4847 42.7334 16.6141 44.1104 15.4337 46.0643C14.2532 48.0181 13.9045 50.3145 14.4513 52.5308C14.9667 54.6193 16.2193 56.4006 17.9969 57.5869C17.882 57.5243 17.7681 57.4591 17.6555 57.3911C15.7016 56.2106 14.3246 54.3401 13.7778 52.1238C13.2309 49.9076 13.5797 47.6112 14.7601 45.6573C15.9406 43.7035 17.8111 42.3265 20.0274 41.7796C22.2436 41.2327 24.54 41.5815 26.4939 42.762C26.6065 42.83 26.7172 42.9005 26.826 42.9731Z" fill="url(#paint3_linear_402_14809)"/>
<path opacity="0.4" d="M31.7597 47.6863C33.0797 53.0357 29.813 58.4426 24.4636 59.7625C19.4122 61.009 14.31 58.1658 12.6453 53.3408C12.7308 53.354 12.8195 53.3666 12.9112 53.3783C14.5772 58.0176 19.5163 60.7377 24.4065 59.531C29.6282 58.2425 32.8166 52.9651 31.5282 47.7434C30.4916 43.5425 26.8729 40.6574 22.7787 40.3613C22.7415 40.2735 22.7056 40.191 22.6713 40.1151C26.9166 40.3683 30.6872 43.3398 31.7597 47.6863Z" fill="url(#paint4_linear_402_14809)"/>
<g style="mix-blend-mode:saturation">
<path d="M26.8281 42.9714C25.7433 42.3814 24.5641 42.039 23.3588 41.9545C23.3232 41.8351 23.2868 41.7188 23.25 41.6063C24.3854 41.763 25.488 42.1513 26.4983 42.7617C26.5825 42.8126 26.6663 42.8652 26.7484 42.919C26.7752 42.9362 26.8016 42.9538 26.8281 42.9714Z" fill="url(#paint5_linear_402_14809)"/>
</g>
<path opacity="0.3" d="M31.3595 47.5695C32.648 52.7912 29.4595 58.0687 24.2378 59.3571C19.3477 60.5638 14.4085 57.8437 12.7426 53.2044C13.1272 53.2532 13.5648 53.2848 14.0557 53.2865C14.7536 54.9153 15.9389 56.2825 17.4857 57.2171C17.5699 57.2679 17.6554 57.3176 17.7413 57.3652C17.769 57.3813 17.7969 57.3965 17.8247 57.4114L17.8271 57.4128C19.7041 58.4346 21.8637 58.7148 23.9522 58.1994C26.1684 57.6525 28.039 56.2756 29.2194 54.3217C30.3999 52.3679 30.7487 50.0714 30.2018 47.8552C29.6864 45.7667 28.4338 43.9854 26.6562 42.7991C26.6553 42.7985 26.6548 42.7982 26.6538 42.7977C26.6277 42.7799 26.6013 42.7623 26.5742 42.7453C26.4921 42.6914 26.4083 42.6388 26.3241 42.5879C25.3137 41.9775 24.2112 41.5892 23.0758 41.4325C22.9174 40.9468 22.7531 40.5247 22.6101 40.1874C26.7043 40.4836 30.3229 43.3686 31.3595 47.5695Z" fill="url(#paint6_linear_402_14809)"/>
<path opacity="0.6" d="M30.3761 48.0291C30.9229 50.2454 30.5742 52.5418 29.3937 54.4956C28.2133 56.4495 26.3427 57.8265 24.1264 58.3733C22.0379 58.8887 19.8784 58.6085 18.0014 57.5868L17.999 57.5853C16.4902 56.5775 15.3599 55.141 14.738 53.4518C15.9315 53.4074 17.3983 53.1851 19.1364 52.6314C20.5413 52.0968 23.3763 50.5747 23.8256 46.8955C24.0941 45.102 23.7693 43.321 23.3589 41.9546C24.5641 42.0392 25.7433 42.3816 26.8281 42.9716C26.8291 42.9722 26.8295 42.9725 26.8305 42.973C28.6081 44.1593 29.8607 45.9406 30.3761 48.0291Z" fill="url(#paint7_linear_402_14809)"/>
<g clip-path="url(#clip2_402_14809)">
<path d="M21.8145 48.2067L21.0632 47.4808C20.5389 47.9908 20.2425 48.6367 20.1973 49.2848C20.1749 49.6099 20.2162 49.9366 20.3272 50.2449C20.4377 50.5525 20.6193 50.8417 20.8698 51.0834L22.0728 52.246L22.9066 53.0518L23.7991 53.9143C24.0492 54.1564 24.3481 54.3316 24.6667 54.4386C25.1453 54.5995 25.6651 54.6089 26.1621 54.4855C26.6592 54.362 27.1361 54.1045 27.5325 53.7217C28.0606 53.2109 28.3585 52.5624 28.4038 51.9121C28.4262 51.5869 28.3848 51.2605 28.2741 50.952C28.1636 50.6443 27.9818 50.3554 27.7315 50.1137L24.8024 47.283C24.5519 47.0409 24.2534 46.865 23.9348 46.7582C23.4561 46.5977 22.9362 46.5879 22.4392 46.711C22.2723 46.7526 22.1071 46.8109 21.9468 46.8823L22.7806 47.6881C22.8582 47.6725 22.9359 47.6619 23.0124 47.6571C23.2153 47.644 23.41 47.669 23.5856 47.7279C23.7607 47.7872 23.9169 47.8792 24.0513 48.0085L26.9804 50.8396C27.1144 50.9693 27.21 51.12 27.2712 51.2897C27.3627 51.5432 27.3741 51.8413 27.2938 52.1417C27.2141 52.4421 27.0439 52.7418 26.7813 52.9956C26.4311 53.3341 25.9956 53.5135 25.5893 53.5393C25.386 53.5525 25.191 53.5279 25.0161 53.469C24.8405 53.4097 24.6844 53.3176 24.55 53.1884L23.7894 52.4533L23.0383 51.7274L21.6209 50.3573C21.4869 50.2278 21.3917 50.0769 21.3305 49.9072C21.2385 49.6537 21.2276 49.356 21.3075 49.0552C21.3865 48.7571 21.555 48.4594 21.8148 48.2069L21.8145 48.2067Z" fill="white"/>
<g filter="url(#filter0_d_402_14809)">
<path d="M23.0408 51.7267L23.7919 52.4526C24.3167 51.9426 24.6128 51.2966 24.6583 50.6486C24.6807 50.3234 24.6393 49.9968 24.5286 49.6885C24.4181 49.3809 24.2365 49.0917 23.9858 48.8502L22.783 47.6874L21.9491 46.8816L21.0567 46.0191C20.8062 45.777 20.5072 45.6015 20.1891 45.4947C19.7104 45.3338 19.1902 45.3245 18.6933 45.4479C18.1966 45.5711 17.7192 45.8289 17.3229 46.2115C16.7947 46.7227 16.4968 47.3708 16.4514 48.0215C16.4285 48.3465 16.4701 48.6733 16.5808 48.9812C16.6915 49.289 16.8733 49.578 17.1239 49.8197L20.0534 52.6508C20.3034 52.8925 20.6024 53.0682 20.921 53.1749C21.3996 53.3357 21.9194 53.3452 22.4164 53.2222C22.5835 53.1806 22.7483 53.1227 22.9088 53.0513L22.0749 52.2455C21.9972 52.2611 21.9196 52.2713 21.8432 52.2763C21.64 52.2894 21.4451 52.2648 21.27 52.2059C21.0948 52.1466 20.9385 52.0542 20.8045 51.9253L17.875 49.0938C17.741 48.9641 17.6453 48.8134 17.5842 48.6437C17.4926 48.39 17.4812 48.0921 17.5611 47.7915C17.6413 47.4915 17.8112 47.1917 18.0744 46.9378C18.4243 46.5991 18.8598 46.4196 19.2665 46.3936C19.4698 46.3805 19.6643 46.4055 19.8395 46.4644C20.015 46.5237 20.171 46.6162 20.3056 46.745L21.066 47.4801L21.8173 48.2059L23.2347 49.5761C23.3687 49.7056 23.4639 49.8565 23.5253 50.0262C23.6168 50.2797 23.6282 50.5774 23.5483 50.8782C23.4688 51.1763 23.3006 51.4738 23.0408 51.7265L23.0408 51.7267Z" fill="white"/>
</g>
</g>
<g style="mix-blend-mode:saturation">
<path d="M17.8237 57.4118C17.7958 57.3966 17.7679 57.3814 17.7402 57.3657C17.6544 57.3181 17.5688 57.2684 17.4846 57.2175C15.9378 56.283 14.7526 54.9157 14.0547 53.287C14.2182 53.2876 14.3875 53.2851 14.5627 53.2783C15.1846 54.9676 16.3149 56.4041 17.8237 57.4118Z" fill="url(#paint8_linear_402_14809)"/>
</g>
</g>
<g clip-path="url(#clip3_402_14809)">
<path d="M113.466 59.7624C118.816 58.4424 122.082 53.0356 120.762 47.6861C119.442 42.3366 114.036 39.07 108.686 40.3901C103.337 41.7101 100.07 47.1168 101.39 52.4663C102.71 57.8158 108.117 61.0824 113.466 59.7624Z" fill="url(#paint9_linear_402_14809)"/>
<path d="M113.41 59.531C118.631 58.2425 121.82 52.965 120.531 47.7434C119.243 42.5218 113.965 39.3333 108.744 40.6217C103.522 41.9102 100.334 47.1877 101.622 52.4093C102.91 57.631 108.188 60.8195 113.41 59.531Z" fill="url(#paint10_linear_402_14809)"/>
<path d="M113.122 58.3734C110.906 58.9203 108.609 58.5715 106.655 57.3911C104.702 56.2106 103.325 54.3401 102.778 52.1238C102.231 49.9076 102.58 47.6112 103.76 45.6573C104.941 43.7035 106.811 42.3265 109.027 41.7796C111.244 41.2327 113.54 41.5815 115.494 42.762C117.448 43.9424 118.825 45.813 119.372 48.0292C119.918 50.2455 119.57 52.5419 118.389 54.4957C117.209 56.4496 115.338 57.8266 113.122 58.3734Z" fill="url(#paint11_linear_402_14809)"/>
<path d="M115.826 42.9731C113.949 41.9514 111.789 41.6712 109.701 42.1866C107.485 42.7334 105.614 44.1104 104.434 46.0643C103.253 48.0181 102.904 50.3145 103.451 52.5308C103.967 54.6193 105.219 56.4006 106.997 57.5869C106.882 57.5243 106.768 57.4591 106.655 57.3911C104.702 56.2106 103.325 54.3401 102.778 52.1238C102.231 49.9076 102.58 47.6112 103.76 45.6573C104.941 43.7035 106.811 42.3265 109.027 41.7796C111.244 41.2327 113.54 41.5815 115.494 42.762C115.606 42.83 115.717 42.9005 115.826 42.9731Z" fill="url(#paint12_linear_402_14809)"/>
<path opacity="0.4" d="M120.76 47.6863C122.08 53.0357 118.813 58.4426 113.464 59.7625C108.412 61.009 103.31 58.1658 101.645 53.3408C101.731 53.354 101.819 53.3666 101.911 53.3783C103.577 58.0176 108.516 60.7377 113.407 59.531C118.628 58.2425 121.817 52.9651 120.528 47.7434C119.492 43.5425 115.873 40.6574 111.779 40.3613C111.742 40.2735 111.706 40.191 111.671 40.1151C115.917 40.3683 119.687 43.3398 120.76 47.6863Z" fill="url(#paint13_linear_402_14809)"/>
<g style="mix-blend-mode:saturation">
<path d="M115.828 42.9714C114.743 42.3814 113.564 42.039 112.359 41.9545C112.323 41.8351 112.287 41.7188 112.25 41.6063C113.385 41.763 114.488 42.1513 115.498 42.7617C115.583 42.8126 115.666 42.8652 115.748 42.919C115.775 42.9362 115.802 42.9538 115.828 42.9714Z" fill="url(#paint14_linear_402_14809)"/>
</g>
<path opacity="0.3" d="M120.359 47.5695C121.648 52.7912 118.459 58.0687 113.238 59.3571C108.348 60.5638 103.409 57.8437 101.743 53.2044C102.127 53.2532 102.565 53.2848 103.056 53.2865C103.754 54.9153 104.939 56.2825 106.486 57.2171C106.57 57.2679 106.655 57.3176 106.741 57.3652C106.769 57.3813 106.797 57.3965 106.825 57.4114L106.827 57.4128C108.704 58.4346 110.864 58.7148 112.952 58.1994C115.168 57.6525 117.039 56.2756 118.219 54.3217C119.4 52.3679 119.749 50.0714 119.202 47.8552C118.686 45.7667 117.434 43.9854 115.656 42.7991C115.655 42.7985 115.655 42.7982 115.654 42.7977C115.628 42.7799 115.601 42.7623 115.574 42.7453C115.492 42.6914 115.408 42.6388 115.324 42.5879C114.314 41.9775 113.211 41.5892 112.076 41.4325C111.917 40.9468 111.753 40.5247 111.61 40.1874C115.704 40.4836 119.323 43.3686 120.359 47.5695Z" fill="url(#paint15_linear_402_14809)"/>
<path opacity="0.6" d="M119.376 48.0291C119.923 50.2454 119.574 52.5418 118.394 54.4956C117.213 56.4495 115.343 57.8265 113.126 58.3733C111.038 58.8887 108.878 58.6085 107.001 57.5868L106.999 57.5853C105.49 56.5775 104.36 55.141 103.738 53.4518C104.931 53.4074 106.398 53.1851 108.136 52.6314C109.541 52.0968 112.376 50.5747 112.826 46.8955C113.094 45.102 112.769 43.321 112.359 41.9546C113.564 42.0392 114.743 42.3816 115.828 42.9716C115.829 42.9722 115.83 42.9725 115.83 42.973C117.608 44.1593 118.861 45.9406 119.376 48.0291Z" fill="url(#paint16_linear_402_14809)"/>
<g clip-path="url(#clip4_402_14809)">
<path d="M110.815 48.2067L110.063 47.4808C109.539 47.9908 109.243 48.6367 109.197 49.2848C109.175 49.6099 109.216 49.9366 109.327 50.2449C109.438 50.5525 109.619 50.8417 109.87 51.0834L111.073 52.246L111.907 53.0518L112.799 53.9143C113.049 54.1564 113.348 54.3316 113.667 54.4386C114.145 54.5995 114.665 54.6089 115.162 54.4855C115.659 54.362 116.136 54.1045 116.532 53.7217C117.061 53.2109 117.359 52.5624 117.404 51.9121C117.426 51.5869 117.385 51.2605 117.274 50.952C117.164 50.6443 116.982 50.3554 116.731 50.1137L113.802 47.283C113.552 47.0409 113.253 46.865 112.935 46.7582C112.456 46.5977 111.936 46.5879 111.439 46.711C111.272 46.7526 111.107 46.8109 110.947 46.8823L111.781 47.6881C111.858 47.6725 111.936 47.6619 112.012 47.6571C112.215 47.644 112.41 47.669 112.586 47.7279C112.761 47.7872 112.917 47.8792 113.051 48.0085L115.98 50.8396C116.114 50.9693 116.21 51.12 116.271 51.2897C116.363 51.5432 116.374 51.8413 116.294 52.1417C116.214 52.4421 116.044 52.7418 115.781 52.9956C115.431 53.3341 114.996 53.5135 114.589 53.5393C114.386 53.5525 114.191 53.5279 114.016 53.469C113.841 53.4097 113.684 53.3176 113.55 53.1884L112.789 52.4533L112.038 51.7274L110.621 50.3573C110.487 50.2278 110.392 50.0769 110.331 49.9072C110.239 49.6537 110.228 49.356 110.307 49.0552C110.387 48.7571 110.555 48.4594 110.815 48.2069L110.815 48.2067Z" fill="white"/>
<g filter="url(#filter1_d_402_14809)">
<path d="M112.041 51.7267L112.792 52.4526C113.317 51.9426 113.613 51.2966 113.658 50.6486C113.681 50.3234 113.639 49.9968 113.529 49.6885C113.418 49.3809 113.237 49.0917 112.986 48.8502L111.783 47.6874L110.949 46.8816L110.057 46.0191C109.806 45.777 109.507 45.6015 109.189 45.4947C108.71 45.3338 108.19 45.3245 107.693 45.4479C107.197 45.5711 106.719 45.8289 106.323 46.2115C105.795 46.7227 105.497 47.3708 105.451 48.0215C105.429 48.3465 105.47 48.6733 105.581 48.9812C105.692 49.289 105.873 49.578 106.124 49.8197L109.053 52.6508C109.303 52.8925 109.602 53.0682 109.921 53.1749C110.4 53.3357 110.919 53.3452 111.416 53.2222C111.584 53.1806 111.748 53.1227 111.909 53.0513L111.075 52.2455C110.997 52.2611 110.92 52.2713 110.843 52.2763C110.64 52.2894 110.445 52.2648 110.27 52.2059C110.095 52.1466 109.938 52.0542 109.804 51.9253L106.875 49.0938C106.741 48.9641 106.645 48.8134 106.584 48.6437C106.493 48.39 106.481 48.0921 106.561 47.7915C106.641 47.4915 106.811 47.1917 107.074 46.9378C107.424 46.5991 107.86 46.4196 108.266 46.3936C108.47 46.3805 108.664 46.4055 108.839 46.4644C109.015 46.5237 109.171 46.6162 109.306 46.745L110.066 47.4801L110.817 48.2059L112.235 49.5761C112.369 49.7056 112.464 49.8565 112.525 50.0262C112.617 50.2797 112.628 50.5774 112.548 50.8782C112.469 51.1763 112.301 51.4738 112.041 51.7265L112.041 51.7267Z" fill="white"/>
</g>
</g>
<g style="mix-blend-mode:saturation">
<path d="M106.824 57.4118C106.796 57.3966 106.768 57.3814 106.74 57.3657C106.654 57.3181 106.569 57.2684 106.485 57.2175C104.938 56.283 103.753 54.9157 103.055 53.287C103.218 53.2876 103.387 53.2851 103.563 53.2783C104.185 54.9676 105.315 56.4041 106.824 57.4118Z" fill="url(#paint17_linear_402_14809)"/>
</g>
</g>
<defs>
<filter id="filter0_d_402_14809" x="16.4453" y="45.3636" width="9.21875" height="8.94238" filterUnits="userSpaceOnUse" color-interpolation-filters="sRGB">
<feFlood flood-opacity="0" result="BackgroundImageFix"/>
<feColorMatrix in="SourceAlpha" type="matrix" values="0 0 0 0 0 0 0 0 0 0 0 0 0 0 0 0 0 0 127 0" result="hardAlpha"/>
<feOffset dx="0.5" dy="0.5"/>
<feGaussianBlur stdDeviation="0.25"/>
<feComposite in2="hardAlpha" operator="out"/>
<feColorMatrix type="matrix" values="0 0 0 0 0 0 0 0 0 0 0 0 0 0 0 0 0 0 0.1 0"/>
<feBlend mode="normal" in2="BackgroundImageFix" result="effect1_dropShadow_402_14809"/>
<feBlend mode="normal" in="SourceGraphic" in2="effect1_dropShadow_402_14809" result="shape"/>
</filter>
<filter id="filter1_d_402_14809" x="105.445" y="45.3636" width="9.21875" height="8.94238" filterUnits="userSpaceOnUse" color-interpolation-filters="sRGB">
<feFlood flood-opacity="0" result="BackgroundImageFix"/>
<feColorMatrix in="SourceAlpha" type="matrix" values="0 0 0 0 0 0 0 0 0 0 0 0 0 0 0 0 0 0 127 0" result="hardAlpha"/>
<feOffset dx="0.5" dy="0.5"/>
<feGaussianBlur stdDeviation="0.25"/>
<feComposite in2="hardAlpha" operator="out"/>
<feColorMatrix type="matrix" values="0 0 0 0 0 0 0 0 0 0 0 0 0 0 0 0 0 0 0.1 0"/>
<feBlend mode="normal" in2="BackgroundImageFix" result="effect1_dropShadow_402_14809"/>
<feBlend mode="normal" in="SourceGraphic" in2="effect1_dropShadow_402_14809" result="shape"/>
</filter>
<linearGradient id="paint0_linear_402_14809" x1="19.6862" y1="40.3901" x2="34.2156" y2="53.666" gradientUnits="userSpaceOnUse">
<stop stop-color="#FFD700"/>
<stop offset="1" stop-color="#E68D35"/>
</linearGradient>
<linearGradient id="paint1_linear_402_14809" x1="19.7437" y1="40.6217" x2="33.9258" y2="53.5803" gradientUnits="userSpaceOnUse">
<stop stop-color="#EFCB0A"/>
<stop offset="1" stop-color="#AF661D"/>
</linearGradient>
<linearGradient id="paint2_linear_402_14809" x1="20.0274" y1="41.7796" x2="32.473" y2="53.1514" gradientUnits="userSpaceOnUse">
<stop stop-color="#FFD700"/>
<stop offset="1" stop-color="#E68D35"/>
</linearGradient>
<linearGradient id="paint3_linear_402_14809" x1="18.9443" y1="42.0469" x2="29.7653" y2="51.9342" gradientUnits="userSpaceOnUse">
<stop stop-color="#FFD700"/>
<stop offset="1" stop-color="#E68D35"/>
</linearGradient>
<linearGradient id="paint4_linear_402_14809" x1="19.8108" y1="40.821" x2="33.9782" y2="54.0156" gradientUnits="userSpaceOnUse">
<stop stop-color="#FFD700"/>
<stop offset="1" stop-color="#E68D35"/>
</linearGradient>
<linearGradient id="paint5_linear_402_14809" x1="24.7776" y1="41.2294" x2="26.2462" y2="43.0624" gradientUnits="userSpaceOnUse">
<stop stop-color="#FFD700"/>
<stop offset="1" stop-color="#E68D35"/>
</linearGradient>
<linearGradient id="paint6_linear_402_14809" x1="19.7108" y1="40.9028" x2="33.5103" y2="53.7706" gradientUnits="userSpaceOnUse">
<stop stop-color="#FFD700"/>
<stop offset="1" stop-color="#E68D35"/>
</linearGradient>
<linearGradient id="paint7_linear_402_14809" x1="20.5595" y1="42.6454" x2="32.2698" y2="53.5639" gradientUnits="userSpaceOnUse">
<stop stop-color="#EBC704"/>
<stop offset="1" stop-color="#D17315"/>
</linearGradient>
<linearGradient id="paint8_linear_402_14809" x1="15.3513" y1="52.967" x2="18.6756" y2="54.5409" gradientUnits="userSpaceOnUse">
<stop stop-color="#FFD700"/>
<stop offset="1" stop-color="#E68D35"/>
</linearGradient>
<linearGradient id="paint9_linear_402_14809" x1="108.686" y1="40.3901" x2="123.216" y2="53.666" gradientUnits="userSpaceOnUse">
<stop stop-color="#FFD700"/>
<stop offset="1" stop-color="#E68D35"/>
</linearGradient>
<linearGradient id="paint10_linear_402_14809" x1="108.744" y1="40.6217" x2="122.926" y2="53.5803" gradientUnits="userSpaceOnUse">
<stop stop-color="#EFCB0A"/>
<stop offset="1" stop-color="#AF661D"/>
</linearGradient>
<linearGradient id="paint11_linear_402_14809" x1="109.027" y1="41.7796" x2="121.473" y2="53.1514" gradientUnits="userSpaceOnUse">
<stop stop-color="#FFD700"/>
<stop offset="1" stop-color="#E68D35"/>
</linearGradient>
<linearGradient id="paint12_linear_402_14809" x1="107.944" y1="42.0469" x2="118.765" y2="51.9342" gradientUnits="userSpaceOnUse">
<stop stop-color="#FFD700"/>
<stop offset="1" stop-color="#E68D35"/>
</linearGradient>
<linearGradient id="paint13_linear_402_14809" x1="108.811" y1="40.821" x2="122.978" y2="54.0156" gradientUnits="userSpaceOnUse">
<stop stop-color="#FFD700"/>
<stop offset="1" stop-color="#E68D35"/>
</linearGradient>
<linearGradient id="paint14_linear_402_14809" x1="113.778" y1="41.2294" x2="115.246" y2="43.0624" gradientUnits="userSpaceOnUse">
<stop stop-color="#FFD700"/>
<stop offset="1" stop-color="#E68D35"/>
</linearGradient>
<linearGradient id="paint15_linear_402_14809" x1="108.711" y1="40.9028" x2="122.51" y2="53.7706" gradientUnits="userSpaceOnUse">
<stop stop-color="#FFD700"/>
<stop offset="1" stop-color="#E68D35"/>
</linearGradient>
<linearGradient id="paint16_linear_402_14809" x1="109.56" y1="42.6454" x2="121.27" y2="53.5639" gradientUnits="userSpaceOnUse">
<stop stop-color="#EBC704"/>
<stop offset="1" stop-color="#D17315"/>
</linearGradient>
<linearGradient id="paint17_linear_402_14809" x1="104.351" y1="52.967" x2="107.676" y2="54.5409" gradientUnits="userSpaceOnUse">
<stop stop-color="#FFD700"/>
<stop offset="1" stop-color="#E68D35"/>
</linearGradient>
<clipPath id="clip0_402_14809">
<rect width="134.867" height="132.362" fill="white"/>
</clipPath>
<clipPath id="clip1_402_14809">
<rect width="19.9534" height="19.9534" fill="white" transform="translate(10 42.7802) rotate(-13.8611)"/>
</clipPath>
<clipPath id="clip2_402_14809">
<rect width="11.9668" height="9.20525" fill="white" transform="translate(16.4453 45.3641)"/>
</clipPath>
<clipPath id="clip3_402_14809">
<rect width="19.9534" height="19.9534" fill="white" transform="translate(99 42.7802) rotate(-13.8611)"/>
</clipPath>
<clipPath id="clip4_402_14809">
<rect width="11.9668" height="9.20525" fill="white" transform="translate(105.445 45.3641)"/>
</clipPath>
</defs>
</svg>
