<svg width="181" height="158" viewBox="0 0 181 158" fill="none" xmlns="http://www.w3.org/2000/svg">
<path opacity="0.7" d="M18.713 82.6976C18.713 82.6976 28.3 41.5739 52.6141 28.8196C76.9282 16.0654 92.6658 26.2455 109.685 34.3707C126.704 42.4958 154.752 44.0172 163.475 62.4142C172.197 80.8113 173.988 96.498 162.824 109.851C151.661 123.204 140.54 122.287 112.205 127C83.871 131.713 84.3388 146.113 59.4016 149.546C34.4644 152.978 22.7761 123.714 19.4661 108.475C16.156 93.2354 18.713 82.6976 18.713 82.6976Z" fill="#FEF2F2"/>
<path d="M145.48 103.739V71.4907" stroke="#191919" stroke-width="1.31757" stroke-miterlimit="10"/>
<path d="M141.418 104.392V59.854" stroke="#191919" stroke-width="1.31757" stroke-miterlimit="10"/>
<path d="M150.625 104.608V88.9658" stroke="#191919" stroke-width="1.31757" stroke-miterlimit="10"/>
<path d="M139.845 64.243C139.845 64.243 139.032 62.7671 136.315 59.5464C133.602 56.3256 122.336 47.6045 122.336 47.6045C122.336 47.6045 128.715 50.9597 130.752 52.7045C132.789 54.4493 135.502 56.5945 135.502 56.5945C135.502 56.5945 127.902 48.4082 127.086 47.8734C126.273 47.3356 134.822 54.3148 134.822 54.3148C134.822 54.3148 131.565 47.8734 129.936 45.7282C128.307 43.5829 125.186 38.483 125.186 38.483C125.186 38.483 134.007 50.1559 134.415 50.8281C134.823 51.5003 136.587 54.4522 136.587 54.4522L133.466 46.4004L137.267 52.9763C137.267 52.9763 131.84 41.8381 131.568 41.3033C131.296 40.7655 135.369 46.5377 135.369 46.5377L131.84 36.0718L139.984 52.5759L139.44 46.1344L140.933 52.8448L141.341 36.3407L142.29 52.7103C142.29 52.7103 143.782 42.2444 144.054 40.0962C144.326 37.9481 144.462 35.6685 144.462 35.6685C144.462 35.6685 144.19 49.8929 144.19 50.2933C144.19 50.6937 143.918 53.9174 143.918 53.9174C143.918 53.9174 145.955 47.8792 146.496 46.2688C147.037 44.6585 147.581 39.1581 147.853 38.3514C148.125 37.5477 146.496 50.6966 146.36 51.2344C146.224 51.7722 145.816 52.9792 145.411 53.7829C145.003 54.5866 148.397 48.9518 149.618 46.5377C150.839 44.1236 153.147 39.5614 153.147 39.5614C153.147 39.5614 151.111 46.2718 150.57 47.4788C150.026 48.6859 146.499 55.1273 146.499 55.1273C146.499 55.1273 151.793 48.9547 154.099 47.3444C156.405 45.734 160.614 42.6477 160.614 42.6477C160.614 42.6477 153.827 49.8929 152.47 51.2344C151.114 52.5759 147.176 57.2725 147.176 57.2725C147.176 57.2725 153.963 52.9792 154.368 52.5759C154.776 52.1726 159.663 49.0863 159.663 49.0863C159.663 49.0863 149.81 56.7815 149.349 57.2725C145.414 61.4314 144.054 63.4451 143.241 64.2489C142.429 65.0526 141.069 65.4559 139.848 64.2489L139.845 64.243Z" fill="#EA3934"/>
<path d="M144.527 76.0065C144.527 76.0065 143.951 74.9631 142.032 72.6835C140.111 70.4067 132.144 64.2371 132.144 64.2371C132.144 64.2371 136.655 66.6102 138.095 67.8436C139.535 69.0769 141.456 70.5967 141.456 70.5967C141.456 70.5967 136.079 64.807 135.505 64.427C134.929 64.0471 140.977 68.9834 140.977 68.9834C140.977 68.9834 138.674 64.427 137.521 62.9102C136.369 61.3904 134.16 57.7839 134.16 57.7839C134.16 57.7839 140.401 66.0403 140.687 66.5167C140.974 66.9902 142.225 69.0799 142.225 69.0799L140.016 63.3836L142.703 68.0336C142.703 68.0336 138.864 60.1571 138.671 59.7771C138.479 59.3972 141.358 63.4801 141.358 63.4801L138.864 56.0771L144.625 67.7501L144.241 63.1937L145.296 67.94L145.583 56.267L146.254 67.8465C146.254 67.8465 147.309 60.4435 147.501 58.9237C147.693 57.4039 147.788 55.7906 147.788 55.7906C147.788 55.7906 147.596 65.8503 147.596 66.1368C147.596 66.4232 147.404 68.6999 147.404 68.6999C147.404 68.6999 148.843 64.4299 149.228 63.2901C149.612 62.1503 149.996 58.2603 150.188 57.6904C150.38 57.1204 149.228 66.4232 149.133 66.8031C149.038 67.1831 148.749 68.0365 148.462 68.6064C148.175 69.1763 150.573 65.1898 151.439 63.4801C152.305 61.7704 153.934 58.5438 153.934 58.5438C153.934 58.5438 152.494 63.2901 152.11 64.1435C151.725 64.9969 149.231 69.5533 149.231 69.5533C149.231 69.5533 152.976 65.1869 154.608 64.0471C156.239 62.9073 159.216 60.7241 159.216 60.7241C159.216 60.7241 154.416 65.8503 153.455 66.7973C152.494 67.7471 149.709 71.0672 149.709 71.0672C149.709 71.0672 154.51 68.0306 154.797 67.7442C155.084 67.4578 158.542 65.2775 158.542 65.2775C158.542 65.2775 151.575 70.7195 151.247 71.0672C148.462 74.0103 147.501 75.4337 146.928 76.0036C146.351 76.5735 145.391 76.857 144.527 76.0036V76.0065Z" fill="#EA3934"/>
<path d="M149.41 89.5586C149.41 89.5586 148.834 88.5152 146.915 86.2356C144.994 83.9589 137.027 77.7892 137.027 77.7892C137.027 77.7892 141.538 80.1624 142.978 81.3957C144.418 82.6291 146.339 84.1488 146.339 84.1488C146.339 84.1488 140.962 78.3591 140.388 77.9791C139.812 77.5992 145.86 82.5355 145.86 82.5355C145.86 82.5355 143.557 77.9791 142.404 76.4623C141.252 74.9425 139.043 71.336 139.043 71.336C139.043 71.336 145.284 79.5924 145.57 80.0688C145.857 80.5423 147.108 82.632 147.108 82.632L144.899 76.9358L147.587 81.5857C147.587 81.5857 143.747 73.7092 143.554 73.3292C143.362 72.9493 146.242 77.0322 146.242 77.0322L143.747 69.6292L149.508 81.3022L149.124 76.7458L150.179 81.4922L150.466 69.8192L151.137 81.3986C151.137 81.3986 152.192 73.9956 152.384 72.4758C152.576 70.9561 152.671 69.3428 152.671 69.3428C152.671 69.3428 152.479 79.4025 152.479 79.6889C152.479 79.9753 152.287 82.252 152.287 82.252C152.287 82.252 153.726 77.9821 154.111 76.8422C154.495 75.7024 154.879 71.8124 155.071 71.2425C155.264 70.6726 154.111 79.9753 154.016 80.3553C153.921 80.7352 153.632 81.5886 153.345 82.1585C153.058 82.7284 155.456 78.742 156.322 77.0322C157.188 75.3225 158.817 72.0959 158.817 72.0959C158.817 72.0959 157.377 76.8422 156.993 77.6957C156.609 78.5491 154.114 83.1054 154.114 83.1054C154.114 83.1054 157.859 78.739 159.491 77.5992C161.123 76.4594 164.099 74.2762 164.099 74.2762C164.099 74.2762 159.299 79.4025 158.338 80.3494C157.377 81.2993 154.592 84.6194 154.592 84.6194C154.592 84.6194 159.393 81.5828 159.68 81.2963C159.967 81.0128 163.425 78.8296 163.425 78.8296C163.425 78.8296 156.458 84.2716 156.13 84.6194C153.345 87.5625 152.384 88.9858 151.811 89.5557C151.237 90.1256 150.274 90.4091 149.41 89.5557V89.5586Z" fill="#EA3934"/>
<path d="M155.489 115.044C155.489 121.38 153.804 126.974 151.229 130.352H139.807C137.232 126.974 135.547 121.38 135.547 115.044C135.547 114.491 135.559 113.942 135.585 113.401C135.65 111.987 135.801 110.616 136.026 109.31C136.111 108.813 136.206 108.325 136.313 107.848C136.401 107.451 136.496 107.062 136.599 106.679C137.084 104.87 137.72 103.228 138.479 101.813H152.556C153.316 103.228 153.952 104.87 154.436 106.679C154.54 107.062 154.634 107.451 154.723 107.848C154.829 108.325 154.924 108.813 155.01 109.31C155.234 110.616 155.385 111.987 155.45 113.401C155.477 113.942 155.489 114.491 155.489 115.044Z" fill="white" stroke="#191919" stroke-width="0.329394" stroke-miterlimit="10"/>
<path d="M154.441 106.68H136.604C136.5 107.063 136.406 107.451 136.317 107.849H154.728C154.639 107.451 154.544 107.063 154.441 106.68ZM155.014 109.31H136.03C135.806 110.616 135.655 111.987 135.59 113.402H155.455C155.39 111.987 155.239 110.616 155.014 109.31Z" fill="#191919" stroke="#191919" stroke-width="0.329394" stroke-miterlimit="10"/>
<g clip-path="url(#clip0_402_15002)">
<path d="M76.6065 60.2656C76.6065 62.101 78.0952 63.5897 79.9306 63.5897V122.554C79.9306 124.135 78.6491 125.415 77.0694 125.415H29.041C27.4604 125.415 26.1797 124.135 26.1797 122.554V63.5897C28.0151 63.5897 29.5038 62.101 29.5038 60.2656C29.5038 58.4302 28.0151 56.9423 26.1797 56.9423V47.1806C26.1797 45.6009 27.4612 44.3193 29.041 44.3193H77.0685C78.6491 44.3193 79.9298 45.6009 79.9298 47.1806V56.9423C78.0944 56.9423 76.6057 58.4294 76.6057 60.2656H76.6065Z" fill="white" stroke="#E6E6E6" stroke-width="0.167081" stroke-miterlimit="10"/>
<path d="M134.336 60.2656C134.336 62.101 135.825 63.5897 137.66 63.5897V122.554C137.66 124.135 136.379 125.415 134.799 125.415H86.7714C85.1908 125.415 83.9102 124.135 83.9102 122.554V63.5897C85.7455 63.5897 87.2342 62.101 87.2342 60.2656C87.2342 58.4302 85.7455 56.9423 83.9102 56.9423V47.1806C83.9102 45.6 85.1917 44.3193 86.7714 44.3193H134.799C136.38 44.3193 137.66 45.6009 137.66 47.1806V56.9423C135.825 56.9423 134.336 58.4294 134.336 60.2656Z" fill="#EA3934"/>
<path d="M95.303 50L127.197 50C128.468 50 129.5 50.896 129.5 52C129.5 53.1035 128.468 54 127.197 54H95.303C94.0323 54 93 53.104 93 52C93 50.8965 94.0318 50 95.303 50Z" fill="#F35A55"/>
<path d="M37.303 50L69.197 50C70.4677 50 71.5 50.896 71.5 52C71.5 53.1035 70.4682 54 69.197 54H37.303C36.0323 54 35 53.104 35 52C35 50.8965 36.0318 50 37.303 50Z" fill="#E8E8E8"/>
<path d="M44.4261 112.167H61.6872C63.7975 112.167 65.5117 113.88 65.5117 115.991C65.5117 118.102 63.7983 119.816 61.6872 119.816H44.4261C42.3158 119.816 40.6016 118.103 40.6016 115.991C40.6016 113.881 42.315 112.167 44.4261 112.167Z" fill="#EA3934"/>
<path d="M39.4545 67L53.5455 67C55.4516 67 57 68.344 57 70C57 71.6553 55.4524 73 53.5455 73H39.4545C37.5484 73 36 71.656 36 70C36 68.3447 37.5476 67 39.4545 67Z" fill="#E8E8E8"/>
<path d="M64.4545 67L66.0455 67C67.9516 67 69.5 68.344 69.5 70C69.5 71.6553 67.9524 73 66.0455 73H64.4545C62.5484 73 61 71.656 61 70C61 68.3447 62.5476 67 64.4545 67Z" fill="#E8E8E8"/>
<path d="M96.4545 67L110.546 67C112.452 67 114 68.344 114 70C114 71.6553 112.452 73 110.546 73H96.4545C94.5484 73 93 71.656 93 70C93 68.3447 94.5476 67 96.4545 67Z" fill="#F35A55"/>
<path d="M121.454 67L123.046 67C124.952 67 126.5 68.344 126.5 70C126.5 71.6553 124.952 73 123.046 73H121.454C119.548 73 118 71.656 118 70C118 68.3447 119.548 67 121.454 67Z" fill="#F35A55"/>
<path d="M102.157 112.167H119.418C121.528 112.167 123.242 113.88 123.242 115.991C123.242 118.102 121.529 119.816 119.418 119.816H102.157C100.047 119.816 98.3323 118.102 98.3323 115.991C98.3323 113.881 100.046 112.167 102.157 112.167Z" fill="#FEF2F2"/>
<path opacity="0.6" d="M29.3984 60.2656H76.7117" stroke="#FDCCCB" stroke-width="0.250622" stroke-miterlimit="10"/>
<path opacity="0.6" d="M87.1289 60.2656H134.442" stroke="#FDCCCB" stroke-width="0.250622" stroke-miterlimit="10"/>
<path d="M36.8828 79.5708C36.3247 79.5708 35.8711 80.0244 35.8711 80.5825C35.8711 81.1405 36.3247 81.5942 36.8828 81.5942C37.4408 81.5942 37.8945 81.1405 37.8945 80.5825C37.8945 80.0244 37.4408 79.5708 36.8828 79.5708ZM36.8828 81.4104C36.4266 81.4104 36.0549 81.0394 36.0549 80.5825C36.0549 80.1255 36.4258 79.7546 36.8828 79.7546C37.3397 79.7546 37.7107 80.1255 37.7107 80.5825C37.7107 81.0394 37.3397 81.4104 36.8828 81.4104Z" fill="#777777"/>
<path d="M37.2635 80.2248L36.743 80.7453L36.5049 80.5072C36.469 80.4713 36.4105 80.4713 36.3746 80.5072C36.3387 80.5431 36.3387 80.6016 36.3746 80.6375L36.6779 80.9408C36.6954 80.9583 36.7188 80.9675 36.743 80.9675C36.7672 80.9675 36.7906 80.9575 36.8082 80.9408L37.393 80.356C37.4289 80.3201 37.4289 80.2616 37.393 80.2257C37.357 80.1897 37.2986 80.1897 37.2626 80.2257L37.2635 80.2248Z" fill="#777777"/>
<path d="M36.8828 84.2021C36.3247 84.2021 35.8711 84.6558 35.8711 85.2138C35.8711 85.7719 36.3247 86.2255 36.8828 86.2255C37.4408 86.2255 37.8945 85.7719 37.8945 85.2138C37.8945 84.6558 37.4408 84.2021 36.8828 84.2021ZM36.8828 86.0417C36.4266 86.0417 36.0549 85.6708 36.0549 85.2138C36.0549 84.7569 36.4258 84.3859 36.8828 84.3859C37.3397 84.3859 37.7107 84.7569 37.7107 85.2138C37.7107 85.6708 37.3397 86.0417 36.8828 86.0417Z" fill="#777777"/>
<path d="M37.2635 84.8562L36.743 85.3766L36.5049 85.1386C36.469 85.1026 36.4105 85.1026 36.3746 85.1386C36.3387 85.1745 36.3387 85.233 36.3746 85.2689L36.6779 85.5721C36.6954 85.5897 36.7188 85.5989 36.743 85.5989C36.7672 85.5989 36.7906 85.5888 36.8082 85.5721L37.393 84.9873C37.4289 84.9514 37.4289 84.8929 37.393 84.857C37.357 84.8211 37.2986 84.8211 37.2626 84.857L37.2635 84.8562Z" fill="#777777"/>
<path d="M36.8828 89.2192C36.3247 89.2192 35.8711 89.6729 35.8711 90.2309C35.8711 90.789 36.3247 91.2426 36.8828 91.2426C37.4408 91.2426 37.8945 90.789 37.8945 90.2309C37.8945 89.6729 37.4408 89.2192 36.8828 89.2192ZM36.8828 91.0588C36.4266 91.0588 36.0549 90.6879 36.0549 90.2309C36.0549 89.7739 36.4258 89.403 36.8828 89.403C37.3397 89.403 37.7107 89.7739 37.7107 90.2309C37.7107 90.6879 37.3397 91.0588 36.8828 91.0588Z" fill="#777777"/>
<path d="M37.2635 89.8733L36.743 90.3937L36.5049 90.1556C36.469 90.1197 36.4105 90.1197 36.3746 90.1556C36.3387 90.1916 36.3387 90.25 36.3746 90.286L36.6779 90.5892C36.6954 90.6068 36.7188 90.616 36.743 90.616C36.7672 90.616 36.7906 90.6059 36.8082 90.5892L37.393 90.0044C37.4289 89.9685 37.4289 89.91 37.393 89.8741C37.357 89.8382 37.2986 89.8382 37.2626 89.8741L37.2635 89.8733Z" fill="#777777"/>
<path d="M36.8828 94.2358C36.3247 94.2358 35.8711 94.6895 35.8711 95.2475C35.8711 95.8056 36.3247 96.2592 36.8828 96.2592C37.4408 96.2592 37.8945 95.8056 37.8945 95.2475C37.8945 94.6895 37.4408 94.2358 36.8828 94.2358ZM36.8828 96.0754C36.4266 96.0754 36.0549 95.7045 36.0549 95.2475C36.0549 94.7905 36.4258 94.4196 36.8828 94.4196C37.3397 94.4196 37.7107 94.7905 37.7107 95.2475C37.7107 95.7045 37.3397 96.0754 36.8828 96.0754Z" fill="#777777"/>
<path d="M37.2635 94.8899L36.743 95.4103L36.5049 95.1722C36.469 95.1363 36.4105 95.1363 36.3746 95.1722C36.3387 95.2082 36.3387 95.2666 36.3746 95.3026L36.6779 95.6058C36.6954 95.6234 36.7188 95.6326 36.743 95.6326C36.7672 95.6326 36.7906 95.6225 36.8082 95.6058L37.393 95.021C37.4289 94.9851 37.4289 94.9266 37.393 94.8907C37.357 94.8548 37.2986 94.8548 37.2626 94.8907L37.2635 94.8899Z" fill="#777777"/>
<path d="M36.8828 99.1741C36.3247 99.1741 35.8711 99.6277 35.8711 100.186C35.8711 100.744 36.3247 101.197 36.8828 101.197C37.4408 101.197 37.8945 100.744 37.8945 100.186C37.8945 99.6277 37.4408 99.1741 36.8828 99.1741ZM36.8828 101.014C36.4266 101.014 36.0549 100.643 36.0549 100.186C36.0549 99.7288 36.4258 99.3579 36.8828 99.3579C37.3397 99.3579 37.7107 99.7288 37.7107 100.186C37.7107 100.643 37.3397 101.014 36.8828 101.014Z" fill="#777777"/>
<path d="M37.2635 99.8281L36.743 100.349L36.5049 100.11C36.469 100.075 36.4105 100.075 36.3746 100.11C36.3387 100.146 36.3387 100.205 36.3746 100.241L36.6779 100.544C36.6954 100.562 36.7188 100.571 36.743 100.571C36.7672 100.571 36.7906 100.561 36.8082 100.544L37.393 99.9593C37.4289 99.9233 37.4289 99.8649 37.393 99.8289C37.357 99.793 37.2986 99.793 37.2626 99.8289L37.2635 99.8281Z" fill="#777777"/>
<path d="M96.4961 79.5713C95.938 79.5713 95.4844 80.0249 95.4844 80.583C95.4844 81.141 95.938 81.5946 96.4961 81.5946C97.0541 81.5946 97.5077 81.141 97.5077 80.583C97.5077 80.0249 97.0541 79.5713 96.4961 79.5713ZM96.4961 81.4109C96.0399 81.4109 95.6682 81.0399 95.6682 80.583C95.6682 80.126 96.0391 79.7551 96.4961 79.7551C96.953 79.7551 97.3239 80.126 97.3239 80.583C97.3239 81.0399 96.953 81.4109 96.4961 81.4109Z" fill="white"/>
<path d="M96.8767 80.2253L96.3563 80.7458L96.1182 80.5077C96.0823 80.4718 96.0238 80.4718 95.9879 80.5077C95.952 80.5436 95.952 80.6021 95.9879 80.638L96.2911 80.9413C96.3087 80.9588 96.3321 80.968 96.3563 80.968C96.3805 80.968 96.4039 80.958 96.4215 80.9413L97.0062 80.3565C97.0422 80.3206 97.0422 80.2621 97.0062 80.2262C96.9703 80.1902 96.9118 80.1902 96.8759 80.2262L96.8767 80.2253Z" fill="white"/>
<path d="M96.4961 84.2026C95.938 84.2026 95.4844 84.6563 95.4844 85.2143C95.4844 85.7724 95.938 86.226 96.4961 86.226C97.0541 86.226 97.5077 85.7724 97.5077 85.2143C97.5077 84.6563 97.0541 84.2026 96.4961 84.2026ZM96.4961 86.0422C96.0399 86.0422 95.6682 85.6713 95.6682 85.2143C95.6682 84.7573 96.0391 84.3864 96.4961 84.3864C96.953 84.3864 97.3239 84.7573 97.3239 85.2143C97.3239 85.6713 96.953 86.0422 96.4961 86.0422Z" fill="white"/>
<path d="M96.8767 84.8567L96.3563 85.3771L96.1182 85.139C96.0823 85.1031 96.0238 85.1031 95.9879 85.139C95.952 85.175 95.952 85.2334 95.9879 85.2694L96.2911 85.5726C96.3087 85.5902 96.3321 85.5994 96.3563 85.5994C96.3805 85.5994 96.4039 85.5893 96.4215 85.5726L97.0062 84.9878C97.0422 84.9519 97.0422 84.8934 97.0062 84.8575C96.9703 84.8216 96.9118 84.8216 96.8759 84.8575L96.8767 84.8567Z" fill="white"/>
<path d="M96.4961 89.2192C95.938 89.2192 95.4844 89.6729 95.4844 90.2309C95.4844 90.789 95.938 91.2426 96.4961 91.2426C97.0541 91.2426 97.5077 90.789 97.5077 90.2309C97.5077 89.6729 97.0541 89.2192 96.4961 89.2192ZM96.4961 91.0588C96.0399 91.0588 95.6682 90.6879 95.6682 90.2309C95.6682 89.7739 96.0391 89.403 96.4961 89.403C96.953 89.403 97.3239 89.7739 97.3239 90.2309C97.3239 90.6879 96.953 91.0588 96.4961 91.0588Z" fill="white"/>
<path d="M96.8767 89.8733L96.3563 90.3937L96.1182 90.1556C96.0823 90.1197 96.0238 90.1197 95.9879 90.1556C95.952 90.1916 95.952 90.25 95.9879 90.286L96.2911 90.5892C96.3087 90.6068 96.3321 90.616 96.3563 90.616C96.3805 90.616 96.4039 90.6059 96.4215 90.5892L97.0062 90.0044C97.0422 89.9685 97.0422 89.91 97.0062 89.8741C96.9703 89.8382 96.9118 89.8382 96.8759 89.8741L96.8767 89.8733Z" fill="white"/>
<path d="M96.4961 94.2358C95.938 94.2358 95.4844 94.6895 95.4844 95.2475C95.4844 95.8056 95.938 96.2592 96.4961 96.2592C97.0541 96.2592 97.5077 95.8056 97.5077 95.2475C97.5077 94.6895 97.0541 94.2358 96.4961 94.2358ZM96.4961 96.0754C96.0399 96.0754 95.6682 95.7045 95.6682 95.2475C95.6682 94.7905 96.0391 94.4196 96.4961 94.4196C96.953 94.4196 97.3239 94.7905 97.3239 95.2475C97.3239 95.7045 96.953 96.0754 96.4961 96.0754Z" fill="white"/>
<path d="M96.8767 94.8899L96.3563 95.4103L96.1182 95.1722C96.0823 95.1363 96.0238 95.1363 95.9879 95.1722C95.952 95.2082 95.952 95.2666 95.9879 95.3026L96.2911 95.6058C96.3087 95.6234 96.3321 95.6326 96.3563 95.6326C96.3805 95.6326 96.4039 95.6225 96.4215 95.6058L97.0062 95.021C97.0422 94.9851 97.0422 94.9266 97.0062 94.8907C96.9703 94.8548 96.9118 94.8548 96.8759 94.8907L96.8767 94.8899Z" fill="white"/>
<path d="M96.4961 99.1746C95.938 99.1746 95.4844 99.6282 95.4844 100.186C95.4844 100.744 95.938 101.198 96.4961 101.198C97.0541 101.198 97.5077 100.744 97.5077 100.186C97.5077 99.6282 97.0541 99.1746 96.4961 99.1746ZM96.4961 101.014C96.0399 101.014 95.6682 100.643 95.6682 100.186C95.6682 99.7293 96.0391 99.3584 96.4961 99.3584C96.953 99.3584 97.3239 99.7293 97.3239 100.186C97.3239 100.643 96.953 101.014 96.4961 101.014Z" fill="white"/>
<path d="M96.8767 99.8286L96.3563 100.349L96.1182 100.111C96.0823 100.075 96.0238 100.075 95.9879 100.111C95.952 100.147 95.952 100.205 95.9879 100.241L96.2911 100.545C96.3087 100.562 96.3321 100.571 96.3563 100.571C96.3805 100.571 96.4039 100.561 96.4215 100.545L97.0062 99.9598C97.0422 99.9238 97.0422 99.8654 97.0062 99.8294C96.9703 99.7935 96.9118 99.7935 96.8759 99.8294L96.8767 99.8286Z" fill="white"/>
<rect opacity="0.1" x="40.1133" y="79.8184" width="26.9568" height="1.07827" fill="#191919"/>
<rect opacity="0.1" x="40.1133" y="84.1318" width="26.9568" height="1.07827" fill="#191919"/>
<rect opacity="0.1" x="40.1133" y="89.5229" width="26.9568" height="1.07827" fill="#191919"/>
<rect opacity="0.1" x="40.1133" y="94.9146" width="26.9568" height="1.07827" fill="#191919"/>
<rect opacity="0.1" x="40.1133" y="99.2275" width="26.9568" height="1.07827" fill="#191919"/>
<rect opacity="0.1" x="100.496" y="79.8184" width="26.9568" height="1.07827" fill="white"/>
<rect opacity="0.1" x="100.496" y="84.1318" width="26.9568" height="1.07827" fill="white"/>
<rect opacity="0.1" x="100.496" y="89.5229" width="26.9568" height="1.07827" fill="white"/>
<rect opacity="0.1" x="100.496" y="94.9146" width="26.9568" height="1.07827" fill="white"/>
<rect opacity="0.1" x="100.496" y="99.2275" width="26.9568" height="1.07827" fill="white"/>
</g>
<defs>
<clipPath id="clip0_402_15002">
<rect width="111.566" height="81.2626" fill="white" transform="translate(26.0977 44.2354)"/>
</clipPath>
</defs>
</svg>
