<svg viewBox="0 0 25 25" fill="none" xmlns="http://www.w3.org/2000/svg">
<path d="M19.2831 14.454C18.8054 13.9566 18.2292 13.6907 17.6186 13.6907C17.0128 13.6907 16.4317 13.9517 15.9343 14.4491L14.3781 16.0003C14.2501 15.9314 14.1221 15.8674 13.9989 15.8034C13.8216 15.7147 13.6542 15.631 13.5114 15.5424C12.0537 14.6165 10.729 13.41 9.4584 11.8489C8.84281 11.0708 8.42914 10.4158 8.12874 9.75096C8.53256 9.38161 8.90684 8.99748 9.27126 8.62813C9.40915 8.49024 9.54704 8.34743 9.68493 8.20954C10.7191 7.17536 10.7191 5.83585 9.68493 4.80167L8.3405 3.45724C8.18783 3.30458 8.03024 3.14699 7.88251 2.9894C7.58703 2.68407 7.27677 2.36889 6.95667 2.07341C6.47898 1.60064 5.90772 1.34949 5.30691 1.34949C4.7061 1.34949 4.12499 1.60064 3.63252 2.07341C3.6276 2.07834 3.6276 2.07834 3.62267 2.08326L1.94829 3.77242C1.31793 4.40278 0.958434 5.17102 0.879639 6.06239C0.761447 7.50039 1.18497 8.83989 1.51 9.71648C2.30779 11.8686 3.49956 13.863 5.27736 16.0003C7.43436 18.5759 10.0297 20.6098 12.9943 22.0429C14.127 22.5797 15.6388 23.215 17.328 23.3233C17.4314 23.3282 17.5398 23.3332 17.6383 23.3332C18.7759 23.3332 19.7312 22.9244 20.4798 22.1119C20.4847 22.102 20.4946 22.0971 20.4995 22.0872C20.7556 21.777 21.051 21.4963 21.3613 21.1959C21.5731 20.994 21.7897 20.7822 22.0015 20.5606C22.489 20.0533 22.7451 19.4624 22.7451 18.8567C22.7451 18.246 22.4841 17.66 21.9867 17.1675L19.2831 14.454ZM21.0461 19.6397C21.0412 19.6397 21.0412 19.6446 21.0461 19.6397C20.8541 19.8465 20.6571 20.0336 20.4453 20.2405C20.1252 20.5458 19.8002 20.8659 19.4949 21.2254C18.9975 21.7573 18.4114 22.0084 17.6432 22.0084C17.5693 22.0084 17.4905 22.0084 17.4166 22.0035C15.954 21.9099 14.5948 21.3387 13.5754 20.8511C10.7881 19.5018 8.3405 17.5861 6.30661 15.1582C4.62731 13.1342 3.50448 11.2628 2.76086 9.25357C2.30287 8.02733 2.13543 7.07194 2.2093 6.17073C2.25854 5.59454 2.48015 5.11685 2.8889 4.70811L4.56821 3.0288C4.80952 2.80226 5.0656 2.67915 5.31676 2.67915C5.62701 2.67915 5.87817 2.86628 6.03576 3.02387C6.04068 3.0288 6.04561 3.03372 6.05053 3.03865C6.35094 3.31935 6.63657 3.60991 6.93697 3.92016C7.08964 4.07775 7.24722 4.23534 7.40481 4.39785L8.74925 5.74228C9.27126 6.2643 9.27126 6.74691 8.74925 7.26893C8.60643 7.41174 8.46854 7.55456 8.32572 7.69245C7.91205 8.11597 7.51808 8.50994 7.08964 8.89407C7.07979 8.90392 7.06994 8.90884 7.06501 8.91869C6.64149 9.34221 6.72029 9.75588 6.80893 10.0366C6.81385 10.0514 6.81878 10.0661 6.8237 10.0809C7.17335 10.9279 7.66582 11.7257 8.41437 12.6762L8.41929 12.6811C9.7785 14.3555 11.2116 15.6605 12.7924 16.6603C12.9943 16.7883 13.2011 16.8917 13.3981 16.9902C13.5754 17.0789 13.7429 17.1626 13.8857 17.2512C13.9054 17.2611 13.9251 17.2758 13.9448 17.2857C14.1122 17.3694 14.2698 17.4088 14.4323 17.4088C14.841 17.4088 15.0971 17.1527 15.1809 17.069L16.8651 15.3848C17.0325 15.2173 17.2985 15.0154 17.6087 15.0154C17.914 15.0154 18.1652 15.2075 18.3179 15.3749C18.3228 15.3798 18.3228 15.3798 18.3277 15.3848L21.0412 18.0983C21.5484 18.6006 21.5484 19.1177 21.0461 19.6397Z" fill="currentColor"/>
<path d="M13.4535 5.55018C14.7438 5.76687 15.9158 6.37753 16.8515 7.31321C17.7872 8.2489 18.3929 9.42097 18.6145 10.7112C18.6687 11.0363 18.9494 11.2628 19.2695 11.2628C19.3089 11.2628 19.3434 11.2579 19.3828 11.2529C19.7472 11.1938 19.9885 10.8491 19.9294 10.4847C19.6635 8.92358 18.9248 7.50035 17.797 6.3726C16.6693 5.24485 15.2461 4.50616 13.6849 4.24022C13.3205 4.18113 12.9807 4.42244 12.9167 4.78194C12.8527 5.14144 13.0891 5.49109 13.4535 5.55018Z" fill="currentColor"/>
<path d="M24.1487 10.2928C23.7104 7.72215 22.4989 5.38294 20.6374 3.52142C18.7759 1.6599 16.4366 0.44843 13.866 0.0101357C13.5065 -0.0538849 13.1667 0.192348 13.1026 0.551848C13.0435 0.916273 13.2849 1.25607 13.6493 1.3201C15.9442 1.70914 18.0372 2.79749 19.7017 4.4571C21.3662 6.12164 22.4497 8.21462 22.8387 10.5095C22.8929 10.8345 23.1736 11.0611 23.4937 11.0611C23.5331 11.0611 23.5675 11.0561 23.6069 11.0512C23.9664 10.9971 24.2127 10.6523 24.1487 10.2928Z" fill="currentColor"/>
</svg>
