<svg viewBox="0 0 20 20" fill="none" xmlns="http://www.w3.org/2000/svg">
<path d="M17.0336 13.64C16.5419 13.2277 13.6586 11.4018 13.1793 11.4856C12.9543 11.5256 12.7822 11.7174 12.3215 12.2669C12.1085 12.5374 11.8745 12.7908 11.6217 13.0246C11.1587 12.9128 10.7105 12.7466 10.2864 12.5296C8.62322 11.7199 7.27961 10.3759 6.47038 8.7125C6.25338 8.28841 6.08723 7.84018 5.97538 7.37712C6.20922 7.12439 6.46256 6.89042 6.73306 6.67738C7.28206 6.21669 7.47444 6.04569 7.51438 5.81956C7.59819 5.33919 5.77063 2.45694 5.36 1.96531C5.18788 1.76169 5.0315 1.625 4.83125 1.625C4.25075 1.625 1.625 4.87175 1.625 5.2925C1.625 5.32681 1.68125 8.70688 5.95006 13.0499C10.2931 17.3188 13.6732 17.375 13.7075 17.375C14.1283 17.375 17.375 14.7492 17.375 14.1687C17.375 13.9685 17.2383 13.8121 17.0336 13.64Z" fill="currentColor"/>
<path d="M13.4375 8.9375H14.5625C14.5612 7.74444 14.0866 6.60062 13.243 5.757C12.3994 4.91338 11.2556 4.43884 10.0625 4.4375V5.5625C10.9573 5.56339 11.8153 5.91926 12.448 6.552C13.0807 7.18474 13.4366 8.04267 13.4375 8.9375Z" fill="currentColor"/>
<path d="M16.25 8.9375H17.375C17.3728 6.99879 16.6016 5.14012 15.2308 3.76925C13.8599 2.39837 12.0012 1.62723 10.0625 1.625V2.75C11.7029 2.75194 13.2756 3.40445 14.4356 4.56441C15.5955 5.72438 16.2481 7.29707 16.25 8.9375Z" fill="currentColor"/>
</svg>
