<svg viewBox="0 0 49 49" fill="none" xmlns="http://www.w3.org/2000/svg">
  <rect x="0.105957" y="0.239868" width="48.6553" height="48.6553" rx="24.3277" fill="#EA3934"/>
  <path d="M32.8549 33.7373L28.4301 29.3124M28.4301 29.3124C29.187 28.5556 29.7874 27.657 30.197 26.6681C30.6066 25.6792 30.8175 24.6193 30.8175 23.5489C30.8175 22.4785 30.6066 21.4186 30.197 20.4297C29.7874 19.4407 29.187 18.5422 28.4301 17.7853C27.6732 17.0284 26.7747 16.428 25.7858 16.0184C24.7969 15.6088 23.7369 15.3979 22.6665 15.3979C21.5962 15.3979 20.5362 15.6088 19.5473 16.0184C18.5584 16.428 17.6599 17.0284 16.903 17.7853C15.3744 19.3139 14.5156 21.3871 14.5156 23.5489C14.5156 25.7106 15.3744 27.7839 16.903 29.3124C18.4316 30.841 20.5048 31.6998 22.6665 31.6998C24.8283 31.6998 26.9015 30.841 28.4301 29.3124Z" stroke="white" stroke-width="1.87136" stroke-linecap="round" stroke-linejoin="round"/>
</svg>
