<svg viewBox="0 0 40 40" fill="none" xmlns="http://www.w3.org/2000/svg">
<rect width="40" height="40" rx="20" fill="white"/>
<path d="M20 27.9986C19.7437 27.9986 19.4967 27.9058 19.3041 27.7371C18.577 27.1013 17.8759 26.5038 17.2574 25.9767L17.2542 25.974C15.4408 24.4286 13.8748 23.094 12.7853 21.7794C11.5673 20.3097 11 18.9162 11 17.3939C11 15.9149 11.5072 14.5504 12.4279 13.5516C13.3597 12.541 14.6383 11.9844 16.0284 11.9844C17.0675 11.9844 18.019 12.3129 18.8566 12.9606C19.2793 13.2876 19.6624 13.6878 20 14.1546C20.3377 13.6878 20.7207 13.2876 21.1435 12.9606C21.9811 12.3129 22.9326 11.9844 23.9717 11.9844C25.3617 11.9844 26.6404 12.541 27.5722 13.5516C28.4929 14.5504 29 15.9149 29 17.3939C29 18.9162 28.4328 20.3097 27.2148 21.7792C26.1253 23.094 24.5594 24.4285 22.7463 25.9737C22.1267 26.5016 21.4245 27.1001 20.6957 27.7374C20.5033 27.9058 20.2561 27.9986 20 27.9986ZM16.0284 13.0388C14.9363 13.0388 13.9329 13.4747 13.203 14.2662C12.4623 15.0697 12.0543 16.1805 12.0543 17.3939C12.0543 18.6742 12.5301 19.8193 13.597 21.1066C14.6282 22.3509 16.1621 23.658 17.938 25.1715L17.9413 25.1743C18.5622 25.7034 19.266 26.3033 19.9985 26.9438C20.7354 26.302 21.4403 25.7012 22.0624 25.1713C23.8382 23.6578 25.3719 22.3509 26.4031 21.1066C27.4698 19.8193 27.9457 18.6742 27.9457 17.3939C27.9457 16.1805 27.5377 15.0697 26.7969 14.2662C26.0672 13.4747 25.0637 13.0388 23.9717 13.0388C23.1716 13.0388 22.437 13.2931 21.7884 13.7946C21.2104 14.2418 20.8078 14.807 20.5717 15.2025C20.4503 15.4059 20.2366 15.5273 20 15.5273C19.7634 15.5273 19.5497 15.4059 19.4283 15.2025C19.1924 14.807 18.7897 14.2418 18.2115 13.7946C17.5629 13.2931 16.8284 13.0388 16.0284 13.0388Z" fill="currentColor"/>
</svg>
