<svg viewBox="0 0 14 14" fill="none" xmlns="http://www.w3.org/2000/svg">
<g clip-path="url(#clip0_2348_74487)">
<path d="M7 0.875C3.62265 0.875 0.875 3.62267 0.875 7.00003C0.875 10.3774 3.62265 13.125 7 13.125C10.3773 13.125 13.125 10.3773 13.125 7.00003C13.125 3.62273 10.3773 0.875 7 0.875ZM10.0905 6.31442L8.88033 7.49413L9.16605 9.15988C9.19573 9.33309 9.12449 9.50822 8.98231 9.61155C8.90182 9.66999 8.80656 9.69973 8.71081 9.69973C8.63735 9.69973 8.56352 9.68218 8.49597 9.64671L7.00006 8.86024L5.5041 9.64677C5.34843 9.72861 5.15994 9.71494 5.01776 9.61161C4.87551 9.50828 4.80427 9.33316 4.83401 9.15994L5.11973 7.49419L3.90942 6.31442C3.78356 6.1917 3.7383 6.0082 3.79261 5.84101C3.84692 5.67383 3.99144 5.55196 4.16546 5.52672L5.83791 5.28367L6.58583 3.76811C6.66366 3.61048 6.8242 3.51066 7 3.51066C7.1758 3.51066 7.33634 3.61048 7.41417 3.76811L8.16209 5.28367L9.83454 5.52672C10.0085 5.55196 10.1531 5.67383 10.2074 5.84101C10.2617 6.0082 10.2164 6.19176 10.0905 6.31442Z" fill="currentColor"/>
</g>
<defs>
<clipPath id="clip0_2348_74487">
<rect width="14" height="14" fill="white"/>
</clipPath>
</defs>
</svg>
