<svg viewBox="0 0 40 40" fill="none" xmlns="http://www.w3.org/2000/svg">
<rect width="40" height="40" rx="20" fill="white"/>
<g clip-path="url(#clip0_1232_49060)">
<path d="M18.2734 18.8704C18.2734 19.1616 18.0372 19.3977 17.7461 19.3977C17.4548 19.3977 17.2188 19.1616 17.2188 18.8704C17.2188 18.5791 17.4548 18.343 17.7461 18.343C18.0372 18.343 18.2734 18.5791 18.2734 18.8704Z" fill="currentColor"/>
<path d="M25.9308 14.954H24.4813V14.0692C24.4813 12.3741 23.1099 11 21.4121 11H14.0692C12.3741 11 11 12.3712 11 14.0692V23.954C11 24.3948 11.5169 24.649 11.8649 24.3591L15.1074 21.657H15.5188V23.1066C15.5188 24.8017 16.89 26.1758 18.588 26.1758H24.8927L28.1351 28.8777C28.2317 28.9584 28.3516 29 28.4728 29C28.7627 29 29 28.7647 29 28.4726V18.023C29 16.3279 27.6287 14.954 25.9308 14.954ZM14.9163 20.6023C14.793 20.6023 14.6735 20.6456 14.5788 20.7245L12.0547 22.828V14.0692C12.0547 12.9565 12.9547 12.0547 14.0692 12.0547H21.4121C22.5246 12.0547 23.4266 12.9547 23.4266 14.0692V18.588C23.4266 19.6987 22.5229 20.6023 21.4121 20.6023H14.9163ZM27.9453 27.3468L25.4212 25.2433C25.3264 25.1644 25.2069 25.1211 25.0836 25.1211H18.5878C18.0498 25.1211 17.5439 24.9115 17.1635 24.531C16.7829 24.1506 16.5734 23.6447 16.5734 23.1066V21.657H21.412C22.0717 21.657 22.6835 21.4477 23.1845 21.0922H25.6483C25.9396 21.0922 26.1757 20.8561 26.1757 20.5648C26.1757 20.2737 25.9396 20.0375 25.6483 20.0375H24.1167C24.3125 19.6736 24.4371 19.2657 24.4714 18.8328H25.6483C25.9396 18.8328 26.1757 18.5968 26.1757 18.3055C26.1757 18.0142 25.9396 17.7781 25.6483 17.7781H24.4812V16.0087H25.9308C26.469 16.0087 26.9748 16.2181 27.3553 16.5986C27.7357 16.979 27.9453 17.4849 27.9453 18.023V27.3468Z" fill="currentColor"/>
<path d="M16.8516 15.1983C16.8516 14.9621 16.9436 14.7402 17.1106 14.5731C17.2776 14.4061 17.4996 14.3141 17.7364 14.3141C18.2242 14.3141 18.6212 14.7111 18.6212 15.1989C18.6212 15.6868 18.2242 16.0837 17.7364 16.0837C17.4451 16.0837 17.209 16.3198 17.209 16.611V17.1759C17.209 17.467 17.4451 17.7032 17.7364 17.7032C18.0275 17.7032 18.2637 17.467 18.2637 17.1759V17.0655C19.0777 16.8352 19.6757 16.0856 19.6757 15.1989C19.6757 14.1294 18.8057 13.2594 17.7358 13.2594C17.218 13.2594 16.731 13.4611 16.3647 13.8273C15.9986 14.1935 15.7969 14.6805 15.7969 15.1982V15.1988C15.7969 15.49 16.0329 15.7258 16.3242 15.7258C16.6155 15.7258 16.8516 15.4896 16.8516 15.1983Z" fill="currentColor"/>
<path d="M25.6492 22.2969H18.8711C18.5798 22.2969 18.3438 22.5331 18.3438 22.8242C18.3438 23.1155 18.5798 23.3516 18.8711 23.3516H25.6492C25.9404 23.3516 26.1766 23.1155 26.1766 22.8242C26.1766 22.5331 25.9404 22.2969 25.6492 22.2969Z" fill="currentColor"/>
</g>
<defs>
<clipPath id="clip0_1232_49060">
<rect width="18" height="18" fill="white" transform="translate(11 11)"/>
</clipPath>
</defs>
</svg>
