<svg viewBox="0 0 18 18" fill="none" xmlns="http://www.w3.org/2000/svg">
<path d="M1.80001 10.8C2.79413 10.8 3.60003 9.99408 3.60003 8.99996C3.60003 8.00584 2.79413 7.19995 1.80001 7.19995C0.805893 7.19995 0 8.00584 0 8.99996C0 9.99408 0.805893 10.8 1.80001 10.8Z" fill="currentColor"/>
<path d="M9.00314 10.8C9.99726 10.8 10.8032 9.99408 10.8032 8.99996C10.8032 8.00584 9.99726 7.19995 9.00314 7.19995C8.00902 7.19995 7.20312 8.00584 7.20312 8.99996C7.20312 9.99408 8.00902 10.8 9.00314 10.8Z" fill="currentColor"/>
<path d="M16.1984 10.8C17.1926 10.8 17.9985 9.99408 17.9985 8.99996C17.9985 8.00584 17.1926 7.19995 16.1984 7.19995C15.2043 7.19995 14.3984 8.00584 14.3984 8.99996C14.3984 9.99408 15.2043 10.8 16.1984 10.8Z" fill="currentColor"/>
</svg>
