<svg width="135" height="133" viewBox="0 0 135 133" fill="none" xmlns="http://www.w3.org/2000/svg">
<g clip-path="url(#clip0_402_14809)">
<path opacity="0.7" d="M5.49068 45.6563C17.2466 33.907 27.2002 43.7645 31.3921 27.9859C37.8178 3.799 65.5508 3.79909 77.8812 22.7946C95.452 49.8633 135.167 34.7168 134.865 67.4388C134.543 102.371 108.854 129.58 62.7799 132.299C21.475 134.735 -13.9852 65.1255 5.49068 45.6563Z" fill="#FEF2F2"/>
<g clip-path="url(#clip1_402_14809)">
<path d="M26.784 61.1203L28.0527 60.4038C30.7233 58.8951 32.4927 55.8077 32.4859 51.9968C32.4753 46.0806 28.1877 40.6596 22.9096 39.8892C21.0305 39.6149 19.2796 39.9668 17.8035 40.8003L16.5352 41.5168L26.7844 61.1198L26.784 61.1203Z" fill="#EA3934"/>
<path d="M31.2178 52.7128C31.2284 58.6294 26.9579 62.8014 21.6793 62.031C16.4003 61.261 12.1123 55.84 12.1016 49.9229C12.0909 44.0067 16.3619 39.8347 21.641 40.6052C26.9195 41.3757 31.2076 46.7962 31.2178 52.7128Z" fill="#F67773"/>
<path d="M13.4727 50.1235C13.477 52.5745 14.3331 55.0034 15.8825 56.9623C17.4315 58.9208 19.4893 60.1753 21.6763 60.4945C23.5025 60.7612 25.2364 60.3488 26.6567 59.3272C26.9379 59.1255 27.2059 58.9001 27.4603 58.6515C29.0039 57.1439 29.8512 54.9641 29.8469 52.513C29.8425 50.0619 28.9874 47.6331 27.4375 45.6746C25.8881 43.7152 23.8302 42.4607 21.6437 42.142C20.3293 41.9504 19.063 42.1102 17.9268 42.5958C17.1722 42.9175 16.4749 43.3834 15.8592 43.985C14.3161 45.4926 13.4683 47.6724 13.4727 50.1235Z" fill="#FAA9A7"/>
<g clip-path="url(#clip2_402_14809)">
<path d="M24.0948 54.6371C24.8101 55.2577 25.8753 55.1977 26.474 54.5034C27.0726 53.8091 26.9784 52.743 26.2629 52.1225C25.756 51.6828 25.074 51.5849 24.5062 51.8116L22.3679 48.6146C22.3871 48.5953 22.4055 48.575 22.4237 48.5543C22.9416 47.9536 22.8598 47.0316 22.241 46.4948C21.6221 45.958 20.7006 46.0096 20.1826 46.6101C19.6649 47.2106 19.7467 48.1328 20.3656 48.6696C20.4221 48.7187 20.4809 48.7623 20.5418 48.8015L19.7649 51.201C19.4468 51.1865 19.1297 51.3094 18.9097 51.5647C18.5213 52.015 18.5827 52.7066 19.0466 53.1092C19.5108 53.5118 20.2018 53.473 20.5901 53.0225C20.6501 52.9532 20.6993 52.878 20.7378 52.799L23.4917 53.4093C23.5147 53.8627 23.7189 54.3112 24.0947 54.6371L24.0948 54.6371ZM19.229 52.6623C18.9467 52.3946 18.928 51.9561 19.1872 51.6828C19.4464 51.4095 19.8852 51.4051 20.1674 51.6728C20.4497 51.9405 20.4686 52.379 20.2094 52.6523C19.9503 52.9256 19.5112 52.93 19.229 52.6623ZM20.8168 52.0794C20.765 51.8549 20.6426 51.6422 20.4534 51.4782L20.4471 51.473L21.2361 49.0359C21.4075 49.0493 21.5792 49.0326 21.7432 48.9862L23.9104 52.226C23.9012 52.2358 23.8922 52.2456 23.8831 52.2558C23.7662 52.3913 23.6763 52.5411 23.6118 52.6987L20.8168 52.0794ZM25.9807 52.5718C26.5099 53.0737 26.5449 53.8952 26.0593 54.4073C25.5736 54.9194 24.7514 54.9278 24.2222 54.426C23.6931 53.9241 23.6582 53.1026 24.1437 52.5906C24.6293 52.0786 25.4518 52.0701 25.9807 52.5718Z" fill="#D92E29"/>
<path d="M19.1873 51.6829C18.9281 51.9562 18.9468 52.3947 19.229 52.6624C19.5113 52.9301 19.9503 52.9257 20.2095 52.6524C20.4687 52.3792 20.4498 51.9406 20.1675 51.6729C19.8853 51.4052 19.4465 51.4097 19.1873 51.6829Z" fill="#EA3934"/>
<path d="M24.1442 52.5905C23.6586 53.1025 23.6937 53.9242 24.2226 54.4259C24.7516 54.9276 25.5741 54.9193 26.0597 54.4073C26.5453 53.8953 26.5103 53.0737 25.9812 52.5718C25.452 52.0699 24.6299 52.0784 24.1442 52.5905Z" fill="#EA3934"/>
<path d="M21.0302 48.1509C21.3995 48.4841 21.9597 48.464 22.2816 48.1061C22.6034 47.7482 22.5651 47.188 22.1959 46.8548C21.8266 46.5217 21.2664 46.5417 20.9445 46.8996C20.6227 47.2576 20.661 47.8178 21.0302 48.1509Z" fill="#EA3934"/>
</g>
<path d="M13.4727 50.123C13.477 52.5741 14.3331 55.003 15.8825 56.9619C17.4315 58.9203 19.4893 60.1749 21.6763 60.494C23.5025 60.7608 25.2364 60.3483 26.6567 59.3267C25.521 59.8103 24.2571 59.9691 22.9441 59.7775C20.7882 59.4634 18.7576 58.2386 17.2159 56.3276C17.194 56.3003 17.1717 56.2726 17.1503 56.2454C17.1299 56.2192 17.1096 56.1934 17.0892 56.1672C15.5786 54.2224 14.7449 51.8248 14.741 49.4065V49.3873C14.741 47.2504 15.3887 45.3202 16.5813 43.8645C16.7522 43.6552 16.9343 43.4566 17.127 43.2675C17.38 43.0204 17.6471 42.796 17.9268 42.5948C17.1722 42.9165 16.4749 43.3825 15.8592 43.984C14.3161 45.4917 13.4683 47.6714 13.4727 50.1225V50.123Z" fill="#FDCCCB"/>
</g>
<path d="M44.9214 123.117C44.9214 123.117 40.824 125.904 39.1747 125.72C38.9686 125.698 38.8103 125.635 38.6888 125.514C37.6101 124.402 36.7487 122.454 36.7487 122.454C36.7487 122.454 37.2604 121.744 38.8434 123.629L39.8484 122.705L37.7721 120.617C37.7721 120.617 38.9391 119.69 40.9234 120.871C40.8571 120.728 39.576 117.945 40.5405 114.153L35.7031 109.492L39.9846 105.763L40.316 105.476C40.316 105.476 40.5847 105.741 41.0228 106.153C41.4462 106.554 42.0241 107.088 42.6574 107.64C44.1667 108.966 45.9927 110.405 46.7842 110.39C48.2495 110.361 44.9214 123.113 44.9214 123.113V123.117Z" fill="#D18080"/>
<mask id="mask0_402_14809" style="mask-type:luminance" maskUnits="userSpaceOnUse" x="35" y="105" width="13" height="21">
<path d="M44.9058 123.115C44.9058 123.115 40.8084 125.902 39.1591 125.718C38.9529 125.696 38.7946 125.633 38.6731 125.512C37.5945 124.4 36.733 122.452 36.733 122.452C36.733 122.452 37.2447 121.742 38.8278 123.627L39.8328 122.703L37.7565 120.615C37.7565 120.615 38.9235 119.688 40.9078 120.869C40.8415 120.726 39.5604 117.943 40.5249 114.151L35.6875 109.49L39.969 105.761L40.3003 105.474C40.3003 105.474 40.5691 105.739 41.0072 106.151C41.4305 106.552 42.0085 107.086 42.6417 107.638C44.1511 108.964 45.9771 110.403 46.7686 110.388C48.2338 110.359 44.9058 123.111 44.9058 123.111V123.115Z" fill="white"/>
</mask>
<g mask="url(#mask0_402_14809)">
<path opacity="0.4" d="M41.7398 121.289C41.7398 121.289 39.4057 123.697 39.1591 125.718C38.9529 125.696 38.7946 125.633 38.6731 125.512C37.5945 124.4 36.733 122.453 36.733 122.453C36.733 122.453 37.2447 121.742 38.8278 123.627L39.8328 122.703L37.7565 120.616C37.7565 120.616 38.9235 119.688 40.9078 120.87C40.8415 120.726 39.5604 117.943 40.5249 114.151L35.6875 109.49L39.969 105.761L41.0035 106.151C41.4269 106.552 42.0048 107.086 42.638 107.639C41.7324 108.968 39.7923 111.714 39.7923 111.714L41.4674 113.989C41.4674 113.989 40.4513 119.725 41.7361 121.286L41.7398 121.289Z" fill="#EA3934"/>
</g>
<path d="M44.9214 123.117C44.9214 123.117 40.824 125.904 39.1747 125.72C38.9686 125.698 38.8103 125.635 38.6888 125.514C37.6101 124.402 36.7487 122.454 36.7487 122.454C36.7487 122.454 37.2604 121.744 38.8434 123.629L39.8484 122.705L37.7721 120.617C37.7721 120.617 38.9391 119.69 40.9234 120.871C40.8571 120.728 39.576 117.945 40.5405 114.153L35.7031 109.492L39.9846 105.763L40.316 105.476C40.316 105.476 40.5847 105.741 41.0228 106.153C41.4462 106.554 42.0241 107.088 42.6574 107.64C44.1667 108.966 45.9927 110.405 46.7842 110.39C48.2495 110.361 44.9214 123.113 44.9214 123.113V123.117Z" stroke="#263238" stroke-width="0.368143" stroke-linecap="round" stroke-linejoin="round"/>
<path d="M39.8438 122.709C39.8438 122.709 40.2008 121.589 40.9224 120.879" stroke="#263238" stroke-width="0.368143" stroke-linecap="round" stroke-linejoin="round"/>
<path d="M116.311 90.6549C115.729 91.5385 114.938 92.3705 113.992 93.1546C113.992 93.1546 113.992 93.1546 113.988 93.1546C106.452 99.3946 89.0793 102.476 89.0793 102.476C89.0793 102.476 88.4976 103.349 87.603 104.589C85.9979 106.82 83.3657 110.244 81.2194 111.959C80.3138 112.688 79.4928 113.108 78.8743 112.994L82.1324 125.032L83.5902 130.26C83.5902 130.26 68.6105 136.794 42.984 129.321C42.984 129.321 42.6932 125.978 42.9104 125.264C42.9214 125.231 42.9325 125.194 42.9435 125.161C43.1828 124.587 43.9486 123.898 43.9486 123.898C43.9486 123.898 43.805 121.748 43.7314 119.558C43.6724 117.857 43.6577 116.134 43.7829 115.368C43.9633 114.264 44.7732 111.595 45.1782 110.284C45.3217 109.82 45.4174 109.526 45.4174 109.526L44.1437 97.5834L43.7755 94.1449C43.7755 94.1449 43.7682 94.0823 43.7571 93.9645C43.7571 93.9388 43.7571 93.913 43.7498 93.8799L43.5473 92.0355L36.9575 94.0492C36.9575 94.0492 37.3072 94.8186 37.7785 95.9046C38.6436 97.8853 39.9174 100.904 40.2009 102.097C40.2229 102.196 40.2524 102.288 40.2855 102.384C40.8966 104.125 43.2196 105.705 43.2196 105.705L36.9796 112.998L35.1352 111.709C35.1352 111.709 34.8665 111.919 34.3915 112.177C33.1767 112.836 30.6328 113.804 27.8533 112.324C26.8372 111.783 25.7917 110.918 24.7683 109.596C19.8499 103.227 17.7367 98.0399 18.4288 91.9361C19.121 85.8286 46.5366 67.0496 51.9741 67.2447L60.0659 69.0339C60.2389 68.8903 60.7138 68.5148 61.0783 68.5332C62.5508 68.6068 62.5877 70.3187 62.5877 70.3187L80.7187 73.2638C80.7187 73.2638 82.5963 72.3214 82.9239 72.3398C83.7265 72.3803 84.0688 73.0687 84.0688 73.0687C84.0688 73.0687 88.7663 70.2561 90.2794 70.9114C95.2457 73.054 119.981 85.0739 116.311 90.6512V90.6549Z" fill="#EA3934"/>
<path opacity="0.2" d="M53.3079 120.458C53.3079 120.458 50.4916 123.915 45.4591 124.714C44.5056 124.864 43.6662 125.019 42.9336 125.17C43.1729 124.596 43.9386 123.907 43.9386 123.907C43.9386 123.907 43.7951 121.757 43.7214 119.567C45.8493 120.958 49.5565 122.578 53.3079 120.458Z" fill="black"/>
<path opacity="0.2" d="M45.1749 110.297C45.3184 109.833 45.4142 109.539 45.4142 109.539L44.1404 97.5963C46.0474 100.328 52.8433 109.642 57.5298 110.647C62.4261 111.696 49.3312 113.548 45.1785 110.297H45.1749Z" fill="black"/>
<path opacity="0.2" d="M82.1253 125.045C77.0081 124.464 69.7704 123.175 69.0452 120.495C67.9186 116.313 73.404 113.802 81.2086 111.969C80.303 112.698 79.482 113.117 78.8635 113.003L82.1216 125.042L82.1253 125.045Z" fill="black"/>
<path opacity="0.2" d="M113.981 93.1597C106.445 99.3998 89.0723 102.481 89.0723 102.481C89.0723 102.481 88.4907 103.354 87.5961 104.594C86.1272 101.163 84.0103 94.0654 86.4879 85.3404C86.4879 85.3404 87.828 92.5891 93.3833 94.312C93.3833 94.312 89.1312 91.146 90.6148 83.5181C90.6148 83.5181 92.0653 92.4934 101.508 94.971C106.103 96.1748 110.587 94.8422 113.985 93.1561L113.981 93.1597Z" fill="black"/>
<path opacity="0.2" d="M43.7445 93.9768L43.5347 92.0478L36.9449 94.0615C36.9449 94.0615 37.2947 94.8309 37.7659 95.917C35.2441 95.6556 30.4656 97.997 29.6299 95.4494C28.6249 92.3717 34.8134 93.432 34.8134 93.432L40.6521 90.034C39.5477 85.3107 42.3566 81.7618 42.3566 81.7618L42.8904 85.0567C43.1481 78.7946 45.5963 75.3672 45.5963 75.3672C43.5605 80.3187 43.6157 92.5079 43.7445 93.9768Z" fill="black"/>
<path opacity="0.2" d="M43.214 105.714L36.9739 113.007L35.1295 111.718C35.1295 111.718 34.8608 111.928 34.3859 112.186C33.171 112.845 30.6271 113.813 27.8477 112.333C29.8688 109.535 34.0472 105.415 39.0171 103.825C39.0171 103.825 36.9703 106.818 35.7002 109.491L36.9813 110.754C36.9813 110.754 40.1805 107.105 43.214 105.71V105.714Z" fill="black"/>
<path opacity="0.2" d="M58.3691 73.5894C58.3691 74.2299 57.9641 81.5302 63.2727 83.4593C68.5814 85.3884 73.301 82.1156 73.301 82.1156C73.301 82.1156 65.1576 89.9681 60.2061 85.7712C55.2546 81.5744 58.3691 73.5894 58.3691 73.5894Z" fill="black"/>
<path d="M42.9838 129.328C42.9838 129.328 42.6966 125.985 42.9102 125.271C43.0906 124.675 43.9483 123.905 43.9483 123.905C43.9483 123.905 43.4992 117.128 43.7864 115.379C44.033 113.881 45.4209 109.533 45.4209 109.533L43.5507 92.0461L36.961 94.0598C36.961 94.0598 39.7662 100.259 40.2006 102.107C40.635 103.956 43.2194 105.719 43.2194 105.719L36.9757 113.012L35.1313 111.727C35.1313 111.727 29.6865 115.986 24.7644 109.614C19.846 103.241 17.7328 98.0578 18.4249 91.9503C19.1171 85.8428 46.5327 67.0638 51.9739 67.259L60.0657 69.0481C60.2424 68.9046 60.7136 68.5291 61.0781 68.5475C62.5506 68.6211 62.5874 70.333 62.5874 70.333L80.7185 73.2744C80.7185 73.2744 82.5997 72.3357 82.9274 72.3504C83.7299 72.3909 84.0723 73.0756 84.0723 73.0756C84.0723 73.0756 88.7698 70.263 90.2829 70.9183C95.2491 73.0609 119.981 85.0808 116.311 90.6582C111.101 98.5769 89.079 102.483 89.079 102.483C89.079 102.483 81.753 113.531 78.8704 113.004L83.59 130.274" stroke="#263238" stroke-width="0.368143" stroke-linecap="round" stroke-linejoin="round"/>
<path d="M97.1498 91.8617C105.47 97.3581 112.177 96.342 117.427 89.27C117.427 89.27 121.797 83.6374 121.488 77.5557C121.178 71.4739 119.728 51.6494 100.783 56.7187C97.6652 57.5544 90.3906 67.2992 89.7758 69.9756C89.496 71.1978 86.573 77.4305 83.7383 83.8767" fill="#EA3934"/>
<path d="M97.1498 91.8617C105.47 97.3581 112.177 96.342 117.427 89.27C117.427 89.27 121.797 83.6374 121.488 77.5557C121.178 71.4739 119.728 51.6494 100.783 56.7187C97.6652 57.5544 90.3906 67.2992 89.7758 69.9756C89.496 71.1978 86.573 77.4305 83.7383 83.8767" stroke="#263238" stroke-width="0.368143" stroke-linecap="round" stroke-linejoin="round"/>
<path d="M74.6329 33.633C74.6329 33.633 79.9305 32.8304 83.6156 36.1253C88.2726 40.2927 93.5002 51.5284 86.0527 70.1491C86.0527 70.1491 75.0562 62.8452 56.2846 67.7304C56.2846 67.7304 57.9008 63.3606 55.0624 49.6141C53.7812 43.3962 57.0062 29.0643 74.6329 33.633Z" fill="#263238"/>
<path d="M66.6002 80.3605C74.4454 81.6306 82.7838 72.9461 82.7838 72.9461C82.7838 72.9461 78.517 72.4196 78.1378 70.4169C76.9156 64.0996 81.8377 56.2949 81.8377 56.2949C81.8377 56.2949 62.7899 56.8214 66.118 61.1323C66.8174 62.038 67.296 62.9031 67.6237 63.7167C68.7796 66.5551 67.9771 68.694 67.3623 69.2168C67.3181 69.2536 67.2666 69.2867 67.2224 69.3088C66.0701 69.8352 61.3358 69.0511 61.3358 69.0511C61.3358 69.0511 59.4435 79.1971 66.6002 80.3568V80.3605Z" fill="#D18080" stroke="#263238" stroke-width="0.368143" stroke-linecap="round" stroke-linejoin="round"/>
<path d="M80.0833 75.3501C80.0833 75.3501 76.4644 76.7969 71.1668 76.3662L68.7812 77.5369" stroke="#263238" stroke-width="0.368143" stroke-linecap="round" stroke-linejoin="round"/>
<path d="M66.4033 77.3456L66.2266 75.7773C66.2266 75.7773 62.3206 74.5551 61.1094 72.2284" stroke="#263238" stroke-width="0.368143" stroke-linecap="round" stroke-linejoin="round"/>
<path d="M67.3672 69.2204C73.2023 70.7445 75.9413 63.2638 75.9413 63.2638C75.9413 63.2638 71.2732 61.8722 67.6286 63.7203C68.7845 66.5587 67.982 68.6976 67.3672 69.2204Z" fill="#263238"/>
<path d="M82.1707 52.3609C83.5917 44.3942 82.0124 34.8335 69.8894 35.6251C61.227 36.192 61.2969 45.6901 61.8712 48.5248C62.8358 53.2923 61.4552 55.1698 62.9388 59.1752C64.0065 62.0541 66.4878 65.2717 69.4071 66.4792C71.2037 67.2228 78.4745 62.1203 79.012 59.7863" fill="#D18080"/>
<path d="M82.1707 52.3609C83.5917 44.3942 82.0124 34.8335 69.8894 35.6251C61.227 36.192 61.2969 45.6901 61.8712 48.5248C62.8358 53.2923 61.4552 55.1698 62.9388 59.1752C64.0065 62.0541 66.4877 65.2717 69.4071 66.4792C71.2037 67.2228 78.4745 62.1203 79.012 59.7863" stroke="#263238" stroke-width="0.368143" stroke-linecap="round" stroke-linejoin="round"/>
<path d="M66.9289 50.0122C66.8553 50.9068 66.7522 53.123 64.8563 54.7576C63.6304 55.8141 66.443 56.8965 66.443 56.8965" stroke="#263238" stroke-width="0.368143" stroke-linecap="round" stroke-linejoin="round"/>
<path d="M64.9137 46.8533C64.9137 46.8533 62.2373 45.55 60.4297 47.7" stroke="#263238" stroke-width="0.368143" stroke-linecap="round" stroke-linejoin="round"/>
<path d="M69.4062 46.6842C69.4062 46.6842 71.9906 45.7565 75.1272 46.9088" stroke="#263238" stroke-width="0.368143" stroke-linecap="round" stroke-linejoin="round"/>
<path d="M72.1836 50.4466C72.2683 51.2161 72.7837 51.7904 73.3396 51.7278C73.8955 51.6689 74.2783 50.9952 74.1937 50.2258C74.109 49.4563 73.5936 48.882 73.0377 48.9446C72.4818 49.0035 72.0989 49.6772 72.1836 50.4466Z" fill="#263238"/>
<path d="M66.582 59.4148C69.9469 59.0062 72.5644 57.228 72.5644 57.228C72.5644 57.228 72.8147 60.5708 70.0168 61.2666C67.8705 61.8004 67.0385 59.3485 67.0385 59.3485" stroke="#263238" stroke-width="0.368143" stroke-linecap="round" stroke-linejoin="round"/>
<path d="M74.4491 38.6622C74.4491 38.6622 73.6834 48.1014 82.0145 51.5325L85.9168 42.4577L80.0118 35.9158L71.1137 33.3462C57.8201 34.1745 52.0954 42.4357 59.4767 64.447C59.4767 64.447 57.4114 38.2351 74.4491 38.6659V38.6622Z" fill="#263238"/>
<path d="M80.1949 51.9333C80.0808 50.873 82.7646 48.1708 83.6702 49.9048C85.2164 52.861 84.0899 55.438 82.4885 56.4467C81.7706 56.8995 80.8613 57.7463 80.2244 56.9474" fill="#D18080"/>
<path d="M80.1949 51.9333C80.0808 50.873 82.7646 48.1708 83.6702 49.9048C85.2164 52.861 84.0899 55.438 82.4885 56.4467C81.7706 56.8995 80.8613 57.7463 80.2244 56.9474" stroke="#263238" stroke-width="0.368143" stroke-linecap="round" stroke-linejoin="round"/>
<path d="M64.0742 50.7957C64.1589 51.5652 64.6743 52.1395 65.2302 52.0769C65.7861 52.018 66.169 51.3443 66.0843 50.5749C65.9996 49.8054 65.4842 49.2311 64.9283 49.2937C64.3724 49.3526 63.9896 50.0263 64.0742 50.7957Z" fill="#263238"/>
<g opacity="0.2">
<path d="M58.296 49.2462C58.1966 49.8868 58.1267 50.531 58.0898 51.179" stroke="white" stroke-width="0.368143" stroke-linecap="round" stroke-linejoin="round"/>
<path d="M73.057 36.9467C66.3236 36.77 60.0652 41.0625 58.5742 47.8032" stroke="white" stroke-width="0.368143" stroke-linecap="round" stroke-linejoin="round"/>
<path d="M71.8643 35.0212C71.8643 35.0212 62.1527 32.7388 58.5117 39.1776" stroke="white" stroke-width="0.368143" stroke-linecap="round" stroke-linejoin="round"/>
<path d="M79.7383 46.2461C80.331 47.0707 81.0231 47.8328 81.833 48.455" stroke="white" stroke-width="0.368143" stroke-linecap="round" stroke-linejoin="round"/>
<path d="M75.8906 36.2803C76.4097 39.3175 77.4111 42.3988 78.972 45.0568" stroke="white" stroke-width="0.368143" stroke-linecap="round" stroke-linejoin="round"/>
<path d="M85.6467 65.4966C85.4737 66.2697 85.2712 67.0354 85.043 67.7938" stroke="white" stroke-width="0.368143" stroke-linecap="round" stroke-linejoin="round"/>
<path d="M85.082 52.6631C86.6577 56.1604 86.5509 60.5119 85.903 64.1933" stroke="white" stroke-width="0.368143" stroke-linecap="round" stroke-linejoin="round"/>
<path d="M83.9226 58.7554C83.9226 58.7554 84.4048 62.6577 81.1836 65.9526" stroke="white" stroke-width="0.368143" stroke-linecap="round" stroke-linejoin="round"/>
<path d="M79.4492 37.4067C81.1022 39.6414 82.3281 42.038 84.2424 44.0775C86.2599 46.2275 88.2736 48.6867 88.6528 51.7128" stroke="white" stroke-width="0.368143" stroke-linecap="round" stroke-linejoin="round"/>
<path d="M77.125 35.0845C77.5999 35.3937 78.0306 35.7619 78.4209 36.1705" stroke="white" stroke-width="0.368143" stroke-linecap="round" stroke-linejoin="round"/>
</g>
<path d="M110.356 86.9218C110.165 86.966 109.97 86.9991 109.771 87.0249C104.558 87.7686 98.7118 83.4502 96.7386 78.2557C95.1813 74.1583 96.5435 69.5086 97.2871 67.517C97.5227 66.8948 97.6921 66.5304 97.6921 66.5304C100.836 62.039 119.114 70.8229 119.324 75.664C119.538 80.5014 115.709 85.7438 110.353 86.9181L110.356 86.9218Z" fill="#263238" stroke="#263238" stroke-width="0.368143" stroke-linecap="round" stroke-linejoin="round"/>
<path d="M116.066 76.3228C116.066 76.3228 115.028 84.0133 109.763 87.0247C104.55 87.7683 98.704 83.45 96.7308 78.2555C95.1735 74.1581 96.5357 69.5084 97.2793 67.5168C97.2793 67.5131 97.283 67.5168 97.283 67.5168C103.442 64.001 116.066 76.3228 116.066 76.3228Z" fill="#B06666"/>
<mask id="mask1_402_14809" style="mask-type:luminance" maskUnits="userSpaceOnUse" x="96" y="66" width="21" height="22">
<path d="M116.058 76.3236C116.058 76.3236 115.02 84.0141 109.755 87.0256C104.542 87.7692 98.6962 83.4509 96.723 78.2564C95.1657 74.1589 96.5279 69.5093 97.2715 67.5176C97.2715 67.5139 97.2752 67.5176 97.2752 67.5176C103.434 64.0019 116.058 76.3236 116.058 76.3236Z" fill="white"/>
</mask>
<g mask="url(#mask1_402_14809)">
<path opacity="0.4" d="M116.058 76.3236C116.058 76.3236 115.02 84.0141 109.755 87.0256C104.542 87.7692 98.6962 83.4509 96.723 78.2564C95.1657 74.1589 96.5279 69.5093 97.2715 67.5176C97.2715 67.5139 97.2752 67.5176 97.2752 67.5176C103.434 64.0019 116.058 76.3236 116.058 76.3236Z" fill="#D18080"/>
</g>
<path d="M116.066 76.3228C116.066 76.3228 115.028 84.0133 109.763 87.0247C104.55 87.7683 98.704 83.45 96.7308 78.2555C95.1735 74.1581 96.5357 69.5084 97.2793 67.5168C97.2793 67.5131 97.283 67.5168 97.283 67.5168C103.442 64.001 116.066 76.3228 116.066 76.3228Z" stroke="#263238" stroke-width="0.368143" stroke-linecap="round" stroke-linejoin="round"/>
<path d="M94.5195 80.3722C94.5195 80.3722 100.454 88.891 107.386 89.6016C114.315 90.3121 118.747 84.4733 119.038 80.0703" stroke="#263238" stroke-width="0.368143" stroke-linecap="round" stroke-linejoin="round"/>
<path d="M91.1753 41.9193C91.6981 40.4578 95.4421 40.9474 96.6275 45.5014C97.813 50.0553 102.499 61.1106 102.499 61.1106C102.499 61.1106 121.102 33.7355 124.437 32.6826C127.772 31.626 126.451 36.3714 121.996 42.9538C121.996 42.9538 126.171 42.2175 127.264 42.9538C128.362 43.6901 127.828 48.1115 128.409 49.6614C129.389 52.2568 127.213 52.8053 127.213 52.8053C127.213 52.8053 128.925 52.7906 130.118 53.9098C131.314 55.0289 130.714 59.6602 131.053 60.9708C131.395 62.2813 129.113 63.3858 129.113 63.3858C129.113 63.3858 134.598 66.3788 133.357 67.1261C131.27 68.3888 130.077 67.0967 130.077 67.0967C130.077 67.0967 121.65 77.6808 115.296 80.0369C108.942 82.393 96.5649 73.0275 95.236 67.925C93.907 62.8225 95.4937 63.1391 94.4849 54.646C93.4762 46.1567 91.168 41.9156 91.168 41.9156L91.1753 41.9193Z" fill="#D18080" stroke="#263238" stroke-width="0.368143" stroke-linecap="round" stroke-linejoin="round"/>
<path d="M118.318 25.1038L93.8089 31.4925C92.9393 31.7192 92.4181 32.6079 92.6448 33.4775L104.231 77.9256C104.458 78.7952 105.346 79.3164 106.216 79.0897L130.725 72.7009C131.595 72.4743 132.116 71.5855 131.889 70.7159L120.303 26.2679C120.077 25.3983 119.188 24.8771 118.318 25.1038Z" fill="white" stroke="#263238" stroke-width="0.368143" stroke-linecap="round" stroke-linejoin="round"/>
<path d="M104.274 30.2091C104.33 30.4226 104.201 30.6398 103.991 30.6951C103.777 30.7503 103.56 30.6214 103.505 30.4116C103.45 30.1981 103.579 29.9809 103.788 29.9256C104.002 29.8704 104.219 29.9993 104.274 30.2091Z" fill="#EA3934" stroke="#263238" stroke-width="0.368143" stroke-linecap="round" stroke-linejoin="round"/>
<path d="M109.33 28.8907C109.363 29.0232 109.285 29.1594 109.149 29.1962C109.017 29.2294 108.88 29.152 108.844 29.0158C108.81 28.8833 108.888 28.7471 109.024 28.7103C109.157 28.6771 109.293 28.7545 109.33 28.8907Z" fill="#EA3934" stroke="#263238" stroke-width="0.368143" stroke-linecap="round" stroke-linejoin="round"/>
<path d="M107.932 29.1051L104.993 29.8712C104.93 29.8876 104.892 29.9519 104.909 30.0149L104.921 30.0612C104.937 30.1241 105.001 30.1619 105.064 30.1455L108.003 29.3794C108.066 29.363 108.104 29.2986 108.088 29.2357L108.076 29.1894C108.059 29.1264 107.995 29.0887 107.932 29.1051Z" fill="#EA3934" stroke="#263238" stroke-width="0.368143" stroke-linecap="round" stroke-linejoin="round"/>
<path d="M119.561 26.7235L131.051 70.805C131.183 71.3204 130.877 71.8469 130.362 71.9794L106.168 78.2857C105.652 78.4182 105.126 78.1127 104.993 77.5973L93.5036 33.5158C93.371 33.0004 93.6766 32.4739 94.192 32.3414L99.1582 31.0455C99.4859 30.9608 99.832 31.086 100.023 31.3621L100.38 31.8738C100.576 32.1499 100.922 32.2788 101.246 32.1904L112.15 29.3484C112.478 29.2637 112.717 28.9839 112.75 28.6489L112.813 28.0267C112.846 27.6917 113.085 27.4119 113.413 27.3273L118.379 26.0314C118.894 25.8989 119.421 26.2044 119.553 26.7198L119.561 26.7235Z" fill="#FEE3E2" stroke="#263238" stroke-width="0.368143" stroke-linecap="round" stroke-linejoin="round"/>
<path d="M123.751 69.5907L109.96 73.1837C108.307 73.6145 106.617 72.6242 106.187 70.9712C105.756 69.3182 106.746 67.6284 108.399 67.1977L122.19 63.6046C123.843 63.1739 125.533 64.1642 125.963 65.8172C126.394 67.4701 125.404 69.1599 123.751 69.5907Z" fill="#263238"/>
<path d="M89.079 102.479C89.079 102.479 84.8932 92.7417 87.0284 80.9316" stroke="#263238" stroke-width="0.368143" stroke-linecap="round" stroke-linejoin="round"/>
<path d="M78.8685 113.001C78.8685 113.001 70.4086 115.589 69.5508 117.533C68.6931 119.48 73.3464 117.842 73.3464 117.842" stroke="#263238" stroke-width="0.368143" stroke-linecap="round" stroke-linejoin="round"/>
<path d="M84.077 73.0723C84.077 73.0723 76.2871 80.7922 71.0742 82.8538" stroke="#263238" stroke-width="0.368143" stroke-linecap="round" stroke-linejoin="round"/>
<path d="M58.5471 70.996C58.5471 70.996 57.1298 81.4181 62.4237 83.3877" stroke="#263238" stroke-width="0.368143" stroke-linecap="round" stroke-linejoin="round"/>
<path d="M43.5508 92.0422C43.5508 92.0422 43.5066 78.3767 46.2235 74.1504" stroke="#263238" stroke-width="0.368143" stroke-linecap="round" stroke-linejoin="round"/>
<path d="M42.5366 78.123C42.5366 78.123 41.7746 86.6088 43.4827 89.3772" stroke="#263238" stroke-width="0.368143" stroke-linecap="round" stroke-linejoin="round"/>
<path d="M36.9613 94.0593C36.9613 94.0593 31.0379 92.0198 29.8083 94.549C28.5787 97.0781 33.3424 94.8361 33.3424 94.8361" stroke="#263238" stroke-width="0.368143" stroke-linecap="round" stroke-linejoin="round"/>
<path d="M40.5248 102.921C40.5248 102.921 34.7081 106.198 34.4062 108.075" stroke="#263238" stroke-width="0.368143" stroke-linecap="round" stroke-linejoin="round"/>
<path d="M50.0312 93.8535C50.0312 93.8535 61.1676 110.685 67.3156 109.139" stroke="#263238" stroke-width="0.368143" stroke-linecap="round" stroke-linejoin="round"/>
<path d="M57.6355 117.463C57.6355 117.463 48.9032 123.865 47.6331 123.324" stroke="#263238" stroke-width="0.368143" stroke-linecap="round" stroke-linejoin="round"/>
<path opacity="0.2" d="M118.801 90.1468C119.39 89.6646 119.78 89.3443 119.905 89.2412C119.773 89.3553 119.393 89.6867 118.801 90.1468Z" fill="black"/>
<g clip-path="url(#clip3_402_14809)">
<path d="M114.361 60.3462C119.929 58.9724 123.329 53.3451 121.955 47.7774C120.581 42.2097 114.954 38.81 109.386 40.1838C103.818 41.5577 100.418 47.1849 101.792 52.7526C103.166 58.3203 108.793 61.7201 114.361 60.3462Z" fill="#F67773"/>
<path d="M114.302 60.1054C119.737 58.7643 123.055 53.2716 121.714 47.837C120.373 42.4024 114.88 39.0839 109.446 40.4249C104.011 41.7659 100.693 47.2586 102.034 52.6932C103.375 58.1278 108.867 61.4464 114.302 60.1054Z" fill="#FAA9A7"/>
<path d="M114.002 58.9005C111.696 59.4697 109.306 59.1067 107.272 57.8781C105.239 56.6495 103.805 54.7027 103.236 52.396C102.667 50.0894 103.03 47.6993 104.259 45.6658C105.487 43.6323 107.434 42.1991 109.741 41.6299C112.047 41.0608 114.437 41.4238 116.471 42.6524C118.505 43.881 119.938 45.8278 120.507 48.1345C121.076 50.4411 120.713 52.8311 119.484 54.8647C118.256 56.8982 116.309 58.3314 114.002 58.9005Z" fill="#F67773"/>
<path opacity="0.3" d="M116.817 42.8722C114.863 41.8088 112.615 41.5171 110.442 42.0535C108.135 42.6227 106.188 44.0558 104.96 46.0894C103.731 48.1229 103.368 50.513 103.937 52.8196C104.474 54.9933 105.777 56.8472 107.627 58.0819C107.508 58.0168 107.389 57.9489 107.272 57.8781C105.239 56.6495 103.805 54.7027 103.236 52.396C102.667 50.0894 103.03 47.6993 104.259 45.6658C105.487 43.6323 107.434 42.1991 109.741 41.63C112.047 41.0608 114.437 41.4238 116.471 42.6524C116.588 42.7232 116.703 42.7966 116.817 42.8722Z" fill="#EA3934"/>
<path d="M121.954 47.7776C123.328 53.3451 119.928 58.9725 114.36 60.3463C109.103 61.6436 103.792 58.6845 102.06 53.6627C102.149 53.6765 102.241 53.6895 102.337 53.7017C104.07 58.5302 109.211 61.3612 114.301 60.1053C119.735 58.7643 123.054 53.2716 121.713 47.837C120.634 43.4647 116.868 40.4621 112.607 40.1538C112.568 40.0624 112.53 39.9766 112.495 39.8976C116.913 40.1611 120.838 43.2539 121.954 47.7776Z" fill="#D92E29"/>
<path d="M116.818 42.8705C115.689 42.2564 114.461 41.9001 113.207 41.8121C113.17 41.6878 113.132 41.5668 113.094 41.4497C114.275 41.6128 115.423 42.0169 116.475 42.6522C116.562 42.7052 116.649 42.7599 116.735 42.816C116.763 42.8338 116.79 42.8521 116.818 42.8705Z" fill="#EA3934"/>
<path d="M121.715 47.8367C123.056 53.2714 119.738 58.7641 114.303 60.1051C109.214 61.3609 104.073 58.5299 102.339 53.7015C102.739 53.7522 103.195 53.7851 103.706 53.7869C104.432 55.4821 105.666 56.9051 107.276 57.8777C107.363 57.9307 107.452 57.9824 107.542 58.0319C107.57 58.0487 107.599 58.0645 107.628 58.08L107.631 58.0815C109.585 59.1449 111.832 59.4365 114.006 58.9001C116.312 58.331 118.259 56.8978 119.488 54.8643C120.716 52.8308 121.079 50.4407 120.51 48.1341C119.974 45.9604 118.67 44.1064 116.82 42.8718C116.819 42.8712 116.819 42.8709 116.818 42.8703C116.791 42.8518 116.763 42.8335 116.735 42.8157C116.649 42.7597 116.562 42.7049 116.474 42.652C115.423 42.0167 114.275 41.6125 113.094 41.4495C112.929 40.9439 112.758 40.5046 112.609 40.1536C116.87 40.4618 120.636 43.4645 121.715 47.8367Z" fill="#F67773"/>
<path opacity="0.3" d="M120.513 48.1345C121.082 50.4411 120.719 52.8312 119.49 54.8647C118.262 56.8983 116.315 58.3314 114.008 58.9006C111.835 59.4369 109.587 59.1453 107.634 58.0819L107.631 58.0804C106.061 57.0315 104.884 55.5364 104.237 53.7783C105.479 53.7321 107.006 53.5007 108.815 52.9244C110.277 52.368 113.228 50.7839 113.695 46.9547C113.975 45.088 113.637 43.2344 113.209 41.8122C114.464 41.9003 115.691 42.2566 116.82 42.8707C116.821 42.8713 116.822 42.8716 116.823 42.8722C118.673 44.1068 119.977 45.9608 120.513 48.1345Z" fill="#EA3934"/>
<g clip-path="url(#clip4_402_14809)">
<path d="M113.047 51.9119L113.801 52.7005C114.327 52.1465 114.624 51.4447 114.669 50.7408C114.692 50.3875 114.65 50.0327 114.539 49.6978C114.428 49.3635 114.246 49.0494 113.995 48.7871L112.789 47.5239L111.953 46.6485L111.058 45.7116C110.807 45.4486 110.507 45.2579 110.188 45.1419C109.708 44.9671 109.186 44.9569 108.688 45.091C108.19 45.2249 107.711 45.5049 107.314 45.9205C106.784 46.4759 106.485 47.1799 106.44 47.8868C106.417 48.2398 106.458 48.5949 106.569 48.9294C106.68 49.2638 106.863 49.5777 107.114 49.8403L110.052 52.9158C110.302 53.1783 110.602 53.3692 110.922 53.4852C111.402 53.6598 111.923 53.6702 112.421 53.5365C112.589 53.4913 112.754 53.4284 112.915 53.3509L112.079 52.4755C112.001 52.4924 111.923 52.5035 111.846 52.509C111.643 52.5232 111.447 52.4965 111.272 52.4325C111.096 52.3681 110.939 52.2677 110.805 52.1277L107.867 49.0517C107.733 48.9108 107.637 48.7471 107.576 48.5628C107.484 48.2871 107.472 47.9635 107.552 47.637C107.633 47.3111 107.803 46.9854 108.067 46.7095C108.418 46.3416 108.855 46.1467 109.263 46.1184C109.466 46.1042 109.662 46.1313 109.837 46.1953C110.013 46.2597 110.17 46.3602 110.305 46.5001L111.067 47.2986L111.82 48.0872L113.242 49.5757C113.376 49.7163 113.472 49.8803 113.533 50.0646C113.625 50.34 113.636 50.6634 113.556 50.9902C113.477 51.314 113.308 51.6372 113.047 51.9117L113.047 51.9119Z" fill="#FAA9A7"/>
<path d="M111.819 48.0879L111.066 47.2993C110.54 47.8534 110.243 48.5551 110.197 49.2591C110.175 49.6123 110.216 49.9671 110.328 50.3021C110.438 50.6363 110.62 50.9504 110.872 51.213L112.078 52.476L112.914 53.3514L113.809 54.2883C114.06 54.5513 114.36 54.7417 114.679 54.8579C115.159 55.0327 115.68 55.0429 116.179 54.9088C116.677 54.7747 117.155 54.495 117.553 54.0791C118.082 53.5241 118.381 52.8197 118.427 52.1132C118.449 51.76 118.408 51.4054 118.297 51.0703C118.186 50.736 118.003 50.4221 117.752 50.1596L114.815 47.0845C114.564 46.8215 114.265 46.6304 113.945 46.5144C113.465 46.3401 112.944 46.3294 112.445 46.4631C112.278 46.5083 112.112 46.5716 111.952 46.6492L112.788 47.5246C112.866 47.5076 112.944 47.4961 113.02 47.4909C113.224 47.4766 113.419 47.5038 113.595 47.5678C113.771 47.6322 113.927 47.7322 114.062 47.8726L116.999 50.9482C117.134 51.089 117.229 51.2528 117.291 51.4371C117.383 51.7125 117.394 52.0363 117.313 52.3627C117.234 52.689 117.063 53.0146 116.8 53.2903C116.448 53.658 116.012 53.8529 115.604 53.881C115.4 53.8952 115.205 53.8685 115.029 53.8046C114.853 53.7401 114.697 53.6401 114.562 53.4997L113.799 52.7012L113.046 51.9126L111.625 50.4242C111.49 50.2835 111.395 50.1196 111.334 49.9353C111.241 49.6598 111.23 49.3364 111.311 49.0097C111.39 48.6858 111.559 48.3624 111.819 48.0881L111.819 48.0879Z" fill="#FDCCCB"/>
</g>
<path d="M107.626 58.0802C107.597 58.0643 107.568 58.0485 107.539 58.0322C107.45 57.9826 107.361 57.9309 107.273 57.8779C105.663 56.9053 104.429 55.4823 103.703 53.7871C103.873 53.7877 104.049 53.7852 104.232 53.7781C104.879 55.5362 106.055 57.0313 107.626 58.0802Z" fill="#EA3934"/>
</g>
</g>
<defs>
<clipPath id="clip0_402_14809">
<rect width="134.867" height="132.362" fill="white"/>
</clipPath>
<clipPath id="clip1_402_14809">
<rect width="20.384" height="22.3253" fill="white" transform="translate(12.1016 39.7975)"/>
</clipPath>
<clipPath id="clip2_402_14809">
<rect width="10" height="7" fill="white" transform="translate(21.2148 45.5197) rotate(43.4839)"/>
</clipPath>
<clipPath id="clip3_402_14809">
<rect width="20.7672" height="20.7672" fill="white" transform="translate(99.3047 42.6714) rotate(-13.8611)"/>
</clipPath>
<clipPath id="clip4_402_14809">
<rect width="12" height="10" fill="white" transform="translate(106.434 45)"/>
</clipPath>
</defs>
</svg>
