<svg width="22" height="22" viewBox="0 0 22 22" fill="none" xmlns="http://www.w3.org/2000/svg">
<path d="M16.3194 11.1246C16.2556 11.0594 16.1795 11.0075 16.0954 10.972C16.0114 10.9365 15.9211 10.9181 15.8299 10.9178C15.7386 10.9176 15.6483 10.9355 15.564 10.9705C15.4798 11.0056 15.4033 11.057 15.3392 11.1219C15.275 11.1868 15.2244 11.2638 15.1903 11.3484C15.1562 11.433 15.1393 11.5236 15.1406 11.6148C15.1418 11.706 15.1612 11.7961 15.1976 11.8798C15.234 11.9634 15.2867 12.039 15.3527 12.1021C15.9359 12.676 16.3987 13.3607 16.7138 14.1159C17.0289 14.8711 17.1899 15.6817 17.1875 16.5C17.1875 17.3409 14.7772 18.5625 11 18.5625C7.22284 18.5625 4.81253 17.3403 4.81253 16.4986C4.81022 15.6859 4.96913 14.8808 5.28006 14.13C5.59099 13.3791 6.04777 12.6974 6.62396 12.1243C6.68913 12.0607 6.74103 11.9849 6.77666 11.9011C6.81229 11.8174 6.83093 11.7274 6.83151 11.6364C6.83208 11.5453 6.81458 11.4551 6.78002 11.3709C6.74545 11.2867 6.69452 11.2102 6.63016 11.1459C6.5658 11.0815 6.4893 11.0306 6.4051 10.996C6.3209 10.9614 6.23068 10.9439 6.13966 10.9445C6.04865 10.9451 5.95865 10.9637 5.8749 10.9994C5.79115 11.035 5.7153 11.0869 5.65176 11.1521C4.94737 11.8528 4.38897 12.6862 4.00889 13.6042C3.62881 14.5222 3.43461 15.5064 3.43753 16.5C3.43753 18.7327 7.3336 19.9375 11 19.9375C14.6665 19.9375 18.5625 18.7327 18.5625 16.5C18.5656 15.4998 18.3687 14.509 17.9835 13.5859C17.5983 12.6628 17.0326 11.826 16.3194 11.1246Z" fill="currentColor" stroke-width="1" stroke="currentColor"/>
<path d="M11 11.6875C11.9518 11.6875 12.8823 11.4053 13.6737 10.8764C14.4651 10.3476 15.0819 9.59604 15.4462 8.71667C15.8104 7.8373 15.9057 6.86966 15.72 5.93613C15.5343 5.0026 15.076 4.14509 14.403 3.47205C13.7299 2.79901 12.8724 2.34066 11.9389 2.15497C11.0053 1.96928 10.0377 2.06459 9.15834 2.42883C8.27897 2.79308 7.52736 3.40991 6.99855 4.20132C6.46975 4.99273 6.1875 5.92318 6.1875 6.875C6.18897 8.1509 6.69648 9.37413 7.59868 10.2763C8.50088 11.1785 9.7241 11.686 11 11.6875ZM11 3.4375C11.6799 3.4375 12.3445 3.63911 12.9098 4.01683C13.4751 4.39454 13.9157 4.93141 14.1758 5.55953C14.436 6.18765 14.5041 6.87882 14.3714 7.54562C14.2388 8.21243 13.9114 8.82494 13.4307 9.30568C12.9499 9.78642 12.3374 10.1138 11.6706 10.2465C11.0038 10.3791 10.3126 10.311 9.68453 10.0508C9.0564 9.79066 8.51954 9.35007 8.14182 8.78477C7.76411 8.21948 7.5625 7.55488 7.5625 6.875C7.56357 5.96365 7.92608 5.08993 8.57051 4.44551C9.21493 3.80108 10.0886 3.43858 11 3.4375Z" fill="currentColor" stroke-width="1" stroke="currentColor"/>
</svg>
