<svg width="20" height="20" viewBox="0 0 20 20" fill="none" xmlns="http://www.w3.org/2000/svg">
<path fill-rule="evenodd" clip-rule="evenodd" d="M9.09091 2.57074C7.45079 2.57074 6.12122 3.90032 6.12122 5.54043C6.12122 7.18055 7.45079 8.51012 9.09091 8.51012C10.731 8.51012 12.0606 7.18055 12.0606 5.54043C12.0606 3.90032 10.731 2.57074 9.09091 2.57074ZM6.9697 5.54043C6.9697 4.36893 7.91941 3.41922 9.09091 3.41922C10.2624 3.41922 11.2121 4.36893 11.2121 5.54043C11.2121 6.71193 10.2624 7.66164 9.09091 7.66164C7.91941 7.66164 6.9697 6.71193 6.9697 5.54043Z" fill="#EA3934" stroke="#EA3934"/>
<path d="M7.71835 10.4899C5.66476 10.4899 4 12.1546 4 14.2082C4 15.4349 4.99439 16.4293 6.22103 16.4293H6.89898C7.13329 16.4293 7.32323 16.2393 7.32323 16.005C7.32323 15.7707 7.13329 15.5808 6.89898 15.5808H6.22103C5.46299 15.5808 4.84848 14.9663 4.84848 14.2082C4.84848 12.6232 6.13336 11.3384 7.71835 11.3384H10.4634C12.0484 11.3384 13.3333 12.6232 13.3333 14.2082C13.3333 14.9663 12.7188 15.5808 11.9608 15.5808H11.2828C11.0485 15.5808 10.8586 15.7707 10.8586 16.005C10.8586 16.2393 11.0485 16.4293 11.2828 16.4293H11.9608C13.1874 16.4293 14.1818 15.4349 14.1818 14.2082C14.1818 12.1546 12.517 10.4899 10.4634 10.4899H7.71835Z" fill="#EA3934" stroke="#EA3934"/>
<path d="M14.2725 14.7861L14.2723 14.7861C13.8739 14.8106 13.4825 14.6722 13.188 14.4023C13.188 14.4023 13.188 14.4023 13.188 14.4023L11.4911 12.8468L11.491 12.8467C10.8923 12.2979 10.8519 11.3676 11.4007 10.7688L11.4007 10.7688C11.9496 10.1701 12.8799 10.1296 13.4786 10.6785C13.4786 10.6785 13.4786 10.6785 13.4787 10.6785L14.0513 11.2034L16.3148 8.54632C16.3148 8.54631 16.3148 8.54631 16.3148 8.54631C16.8415 7.92801 17.7697 7.85368 18.388 8.38042L14.2725 14.7861ZM14.2725 14.7861C14.671 14.7614 15.0424 14.5759 15.3013 14.2719L15.3014 14.2719M14.2725 14.7861L15.3014 14.2719M15.3014 14.2719L18.5539 10.4537C18.5539 10.4537 18.5539 10.4537 18.5539 10.4537M15.3014 14.2719L18.5539 10.4537M18.5539 10.4537C19.0807 9.83536 19.0063 8.90715 18.3881 8.38046L18.5539 10.4537Z" fill="#EA3934" stroke="white" stroke-width="1.8101"/>
<path d="M14.2241 14.0025L14.224 14.0025C14.0382 14.014 13.8558 13.9494 13.7185 13.8236L12.0215 12.2681L12.0215 12.268C11.7424 12.0122 11.7235 11.5785 11.9794 11.2993L11.9794 11.2993C12.2353 11.0202 12.669 11.0013 12.9482 11.2572C12.9482 11.2572 12.9482 11.2572 12.9482 11.2572L14.121 12.3323L16.9124 9.05538C17.1579 8.76711 17.5907 8.73247 17.879 8.97804C17.879 8.97804 17.879 8.97805 17.879 8.97805L17.8011 9.06939C18.039 9.27198 18.0675 9.629 17.8649 9.8668L14.2241 14.0025ZM14.2241 14.0025C14.4099 13.991 14.583 13.9045 14.7038 13.7628L14.7038 13.7628M14.2241 14.0025L14.7038 13.7628M14.7038 13.7628L17.9563 9.94462L14.7038 13.7628Z" fill="#EA3934" stroke="#EA3934" stroke-width="0.24"/>
</svg>
