<svg width="38" height="38" viewBox="0 0 38 38" fill="none" xmlns="http://www.w3.org/2000/svg">
<path d="M13.2941 7.55841C13.306 7.52279 13.3119 7.48716 13.3238 7.45154H9.44659C8.97483 7.45293 8.50964 7.56227 8.08665 7.77119C7.66367 7.98011 7.29411 8.28306 7.00628 8.65685L3.0044 13.9175C2.7111 14.3008 2.51364 14.7486 2.42847 15.2237H11.1269L13.2941 7.55841Z" fill="#F6C874"/>
<path d="M11.1329 16.4113H2.44629C2.54372 16.8836 2.75349 17.3256 3.05785 17.6997L16.4825 34.3247L16.4172 34.105L11.1329 16.4113Z" fill="#F6C874"/>
<path d="M21.5829 34.0991C20.9994 35.2053 35.0613 17.4333 34.9423 17.6998C35.246 17.3245 35.4575 16.8831 35.5597 16.4113H26.8672L21.5829 34.0991Z" fill="#F6C874"/>
<path d="M30.9938 8.65685C30.706 8.28306 30.3365 7.98011 29.9135 7.77119C29.4905 7.56227 29.0253 7.45293 28.5535 7.45154H24.6704C24.6869 7.48813 24.7008 7.52583 24.712 7.56435L26.8732 15.2237H35.5717C35.4865 14.7486 35.289 14.3008 34.9957 13.9175L30.9938 8.65685Z" fill="#F6C874"/>
<path d="M12.3738 16.4113L17.5572 33.7606L17.9788 35.1619C18.1109 35.6107 18.6121 35.6174 19 35.625C19.3878 35.6175 19.8893 35.6109 20.0213 35.1619L20.4428 33.7606L25.6262 16.4113H12.3738Z" fill="#F6C874"/>
<path d="M25.6323 15.2237C25.5101 14.7825 23.633 8.11912 23.566 7.885C23.5315 7.76037 23.457 7.6505 23.3541 7.57221C23.2511 7.49393 23.1254 7.45155 22.996 7.45156H15.0042C14.4049 7.42796 14.3608 8.23186 14.2204 8.63906L12.3679 15.2237H25.6323Z" fill="#F6C874"/>
<path d="M10.2125 30.8869C9.44737 30.7344 8.74462 30.3586 8.19298 29.807C7.64133 29.2553 7.26555 28.5526 7.11309 27.7875C7.0857 27.6534 7.01283 27.5328 6.9068 27.4463C6.80077 27.3597 6.6681 27.3124 6.53122 27.3124C6.39434 27.3124 6.26167 27.3597 6.15564 27.4463C6.04961 27.5328 5.97673 27.6534 5.94935 27.7875C5.79689 28.5526 5.42111 29.2553 4.86946 29.807C4.31782 30.3586 3.61507 30.7344 2.84997 30.8869C2.7176 30.9163 2.59922 30.99 2.51438 31.0958C2.42954 31.2016 2.3833 31.3331 2.3833 31.4687C2.3833 31.6043 2.42954 31.7359 2.51438 31.8417C2.59922 31.9475 2.7176 32.0212 2.84997 32.0506C3.61506 32.2031 4.31781 32.5789 4.86945 33.1305C5.42109 33.6821 5.79688 34.3849 5.94935 35.15C5.97673 35.2841 6.04961 35.4046 6.15564 35.4912C6.26167 35.5778 6.39434 35.625 6.53122 35.625C6.6681 35.625 6.80077 35.5778 6.9068 35.4912C7.01283 35.4046 7.0857 35.2841 7.11309 35.15C7.26556 34.3849 7.64135 33.6821 8.19299 33.1305C8.74463 32.5789 9.44738 32.2031 10.2125 32.0506C10.3448 32.0211 10.4632 31.9474 10.548 31.8417C10.6328 31.7359 10.679 31.6043 10.679 31.4687C10.679 31.3331 10.6328 31.2016 10.548 31.0958C10.4632 30.99 10.3448 30.9163 10.2125 30.8869Z" fill="#F6C874"/>
<path d="M30.1625 5.92561C30.6343 6.01997 31.0677 6.25187 31.4079 6.59211C31.7481 6.93234 31.98 7.36567 32.0744 7.83749C32.1018 7.9716 32.1747 8.09213 32.2807 8.17869C32.3867 8.26525 32.5194 8.31253 32.6563 8.31253C32.7931 8.31253 32.9258 8.26525 33.0318 8.17869C33.1379 8.09213 33.2107 7.9716 33.2381 7.83749C33.3325 7.36567 33.5644 6.93234 33.9046 6.59211C34.2449 6.25187 34.6782 6.01997 35.15 5.92561C35.2824 5.89618 35.4008 5.82249 35.4856 5.7167C35.5705 5.61091 35.6167 5.47935 35.6167 5.34374C35.6167 5.20812 35.5705 5.07656 35.4856 4.97077C35.4008 4.86498 35.2824 4.79129 35.15 4.76186C34.6782 4.66752 34.2449 4.43561 33.9046 4.09538C33.5644 3.75515 33.3325 3.32181 33.2381 2.84999C33.2107 2.71588 33.1379 2.59535 33.0318 2.50878C32.9258 2.42222 32.7931 2.37494 32.6563 2.37494C32.5194 2.37494 32.3867 2.42222 32.2807 2.50878C32.1747 2.59535 32.1018 2.71588 32.0744 2.84999C31.98 3.32181 31.7481 3.75515 31.4079 4.09538C31.0677 4.43561 30.6343 4.66752 30.1625 4.76186C30.0301 4.79129 29.9117 4.86499 29.8269 4.97078C29.742 5.07656 29.6958 5.20812 29.6958 5.34374C29.6958 5.47935 29.742 5.61091 29.8269 5.7167C29.9117 5.82249 30.0301 5.89618 30.1625 5.92561Z" fill="#F6C874"/>
</svg>
