<svg viewBox="0 0 40 40" fill="none" xmlns="http://www.w3.org/2000/svg">
<path d="M29.873 2.5C30.4699 2.53014 31.1814 2.58161 31.6885 2.63672L32.1191 2.69336C32.7411 2.80368 33.3688 3.02454 33.8867 3.28223H33.8877C34.5292 3.62187 35.0471 3.9934 35.5273 4.47363C36.0119 4.95816 36.4195 5.51477 36.7139 6.10352C36.967 6.6097 37.1569 7.24358 37.3135 7.94824L37.3154 7.95996L37.3193 7.97168C37.3646 8.13773 37.4022 8.46026 37.4326 8.88086L37.501 10.1201V29.585C37.4609 30.3811 37.3828 31.3841 37.3086 31.833C37.1978 32.4608 36.9745 33.0949 36.7139 33.6162C36.3756 34.2532 36.0052 34.7682 35.5273 35.2461C35.0428 35.7307 34.4863 36.1382 33.8975 36.4326C33.3913 36.6857 32.7574 36.8756 32.0527 37.0322L32.041 37.0342L32.0293 37.0381C31.8631 37.0833 31.5406 37.121 31.1201 37.1514C30.7184 37.1804 30.2744 37.1998 29.874 37.2197H10.4092C9.61134 37.1794 8.60829 37.1006 8.16309 37.0264C7.53693 36.9153 6.90464 36.6926 6.38477 36.4326C5.74784 36.0944 5.2327 35.7239 4.75488 35.2461C4.27038 34.7616 3.86273 34.2049 3.56836 33.6162C3.3153 33.11 3.12631 32.4761 2.96973 31.7715L2.96387 31.748L2.93066 31.5957C2.89944 31.4152 2.87243 31.1546 2.84961 30.8389C2.82073 30.4394 2.80107 29.9982 2.78125 29.5996V10.1201C2.82166 9.32355 2.90065 8.3256 2.97461 7.88184L2.97363 7.88086C3.08403 7.25916 3.30589 6.63193 3.56348 6.11426C3.90322 5.47253 4.27447 4.95405 4.75488 4.47363C5.23944 3.98908 5.79598 3.58151 6.38477 3.28711C6.89092 3.03403 7.5249 2.84507 8.22949 2.68848L8.25293 2.68262C8.41893 2.63735 8.74135 2.59878 9.16211 2.56836C9.5638 2.53932 10.0079 2.51993 10.4082 2.5H29.873Z" stroke="currentColor" stroke-opacity="0.3"/>
<path d="M26.6397 21.76C26.3197 21.6 24.7197 20.84 24.4397 20.72C24.1597 20.6 23.9197 20.56 23.7197 20.88C23.5197 21.2 22.8797 21.92 22.7197 22.12C22.5197 22.32 22.3597 22.36 22.0397 22.2C21.7197 22.04 20.6797 21.72 19.4397 20.64C18.4797 19.8 17.8397 18.76 17.6397 18.44C17.4397 18.12 17.6397 17.96 17.7997 17.8C17.9597 17.64 18.1197 17.44 18.2797 17.24C18.4397 17.04 18.4797 16.92 18.5997 16.72C18.7197 16.52 18.6397 16.32 18.5597 16.16C18.4797 16 17.8397 14.44 17.5597 13.8C17.2797 13.2 17.0397 13.28 16.8397 13.24C16.6397 13.24 16.4397 13.24 16.2397 13.24C16.0397 13.24 15.6797 13.32 15.3997 13.64C15.1197 13.96 14.2797 14.72 14.2797 16.28C14.2797 17.84 15.4397 19.32 15.5997 19.56C15.7597 19.76 17.8797 22.96 21.0797 24.32C21.8397 24.64 22.4397 24.84 22.9197 25C23.6797 25.24 24.3997 25.2 24.9597 25.12C25.5597 25.04 26.8797 24.36 27.1197 23.64C27.3997 22.92 27.3997 22.28 27.3197 22.16C27.1597 22 26.9597 21.92 26.6397 21.76ZM20.5197 30C18.5997 30 16.7597 29.48 15.1197 28.52L14.7197 28.28L10.7197 29.32L11.7997 25.44L11.5597 25.04C10.5197 23.36 9.95969 21.44 9.95969 19.44C9.95969 13.64 14.7197 8.92001 20.5597 8.92001C23.3197 8.92001 25.9997 10 27.9997 12C29.9997 14 31.0797 16.64 31.0797 19.44C31.0797 25.24 26.3197 30 20.5197 30ZM29.5197 10.48C27.1197 8.08001 23.9197 6.76001 20.5197 6.76001C13.5197 6.76001 7.79969 12.44 7.79969 19.44C7.79969 21.68 8.39969 23.84 9.47969 25.76L7.67969 32.32L14.3997 30.56C16.2397 31.56 18.3597 32.12 20.4797 32.12C27.4797 32.12 33.1997 26.44 33.1997 19.44C33.2397 16.08 31.9197 12.88 29.5197 10.48Z" fill="currentColor"/>
</svg>
