<svg viewBox="0 0 33 33" fill="none" xmlns="http://www.w3.org/2000/svg">
<path d="M21.8086 17.908C21.5526 17.78 20.2726 17.172 20.0486 17.076C19.8246 16.98 19.6326 16.948 19.4726 17.204C19.3126 17.46 18.8006 18.036 18.6726 18.196C18.5126 18.356 18.3846 18.388 18.1286 18.26C17.8726 18.132 17.0406 17.876 16.0486 17.012C15.2806 16.34 14.7686 15.508 14.6086 15.252C14.4486 14.996 14.6086 14.868 14.7366 14.74C14.8646 14.612 14.9926 14.452 15.1206 14.292C15.2486 14.132 15.2806 14.036 15.3766 13.876C15.4726 13.716 15.4086 13.556 15.3446 13.428C15.2806 13.3 14.7686 12.052 14.5446 11.54C14.3206 11.06 14.1286 11.124 13.9686 11.092C13.8086 11.092 13.6486 11.092 13.4886 11.092C13.3286 11.092 13.0406 11.156 12.8166 11.412C12.5926 11.668 11.9206 12.276 11.9206 13.524C11.9206 14.772 12.8486 15.956 12.9766 16.148C13.1046 16.308 14.8006 18.868 17.3606 19.956C17.9686 20.212 18.4486 20.372 18.8326 20.5C19.4406 20.692 20.0166 20.66 20.4646 20.596C20.9446 20.532 22.0006 19.988 22.1926 19.412C22.4166 18.836 22.4166 18.324 22.3526 18.228C22.2246 18.1 22.0646 18.036 21.8086 17.908ZM16.9126 24.5C15.3766 24.5 13.9046 24.084 12.5926 23.316L12.2726 23.124L9.07262 23.956L9.93662 20.852L9.74462 20.532C8.91262 19.188 8.46462 17.652 8.46462 16.052C8.46462 11.412 12.2726 7.63596 16.9446 7.63596C19.1526 7.63596 21.2966 8.49996 22.8966 10.1C24.4966 11.7 25.3606 13.812 25.3606 16.052C25.3606 20.692 21.5526 24.5 16.9126 24.5ZM24.1126 8.88396C22.1926 6.96396 19.6326 5.90796 16.9126 5.90796C11.3126 5.90796 6.73662 10.452 6.73662 16.052C6.73662 17.844 7.21662 19.572 8.08062 21.108L6.64062 26.356L12.0166 24.948C13.4886 25.748 15.1846 26.196 16.8806 26.196C22.4806 26.196 27.0566 21.652 27.0566 16.052C27.0886 13.364 26.0326 10.804 24.1126 8.88396Z" fill="currentColor"/>
<defs>
<linearGradient id="paint0_linear_2348_78609" x1="16.8558" y1="5.91254" x2="16.8558" y2="26.3422" gradientUnits="userSpaceOnUse">
<stop stop-color="#62FA7F"/>
<stop offset="0.6865" stop-color="#22CC40"/>
<stop offset="1" stop-color="#05B723"/>
</linearGradient>
</defs>
</svg>
