<svg width="153" height="120" viewBox="0 0 153 120" fill="none" xmlns="http://www.w3.org/2000/svg">
<g clip-path="url(#clip0_666_32452)">
<path d="M64.771 29.9645C53.7967 33.9117 34.8656 23.4805 21.9725 27.9053C2.89205 34.4532 -5.26659 62.3945 3.96903 88.9456C13.2047 115.497 32.6821 118.617 47.2647 118.387C61.8466 118.157 74.3152 107.88 81.5495 110.738C88.7844 113.596 118.869 131.573 139.735 104.553C159.13 79.4382 153.127 40.5177 140.043 18.9447C130.543 3.28143 109.839 -5.62816 92.7864 3.96346C80.6258 10.8034 75.78 26.0042 64.7717 29.9632L64.771 29.9645Z" fill="#FEF6F6"/>
<path d="M137.491 107.376C140.067 104.576 142.176 101.563 143.867 98.4053C128.861 101.173 106.648 114.528 106.648 114.528C106.648 114.528 75.9639 91.6339 54.3554 95.5131C36.6886 98.6842 20.9078 105.131 15.293 107.762C24.9557 117.325 38.0211 118.689 48.4745 118.551C62.5121 118.365 74.5148 110.063 81.4792 112.371C88.4436 114.681 117.405 129.203 137.492 107.375L137.491 107.376Z" fill="#FDCCCB"/>
<path d="M116.99 68.1474H64.6076C64.6076 68.1474 61.7298 65.5643 63.1684 62.407C64.6076 59.2496 69.2123 57.3361 74.6811 61.3545C74.6811 61.3545 72.9543 58.9628 74.6811 55.7101C76.408 52.4573 81.109 54.2748 82.4519 57.2884C82.4519 57.2884 81.6842 55.0398 83.6993 53.7006C85.7137 52.3613 86.961 55.2077 86.961 55.2077C86.961 55.2077 86.1932 47.6733 91.7577 46.8122C97.3221 45.9512 105.956 51.0077 104.134 60.6777C104.134 60.6777 114.399 57.9104 116.99 68.1474H116.99Z" fill="white"/>
<path d="M144.433 62.7166H124.121C124.121 62.7166 123.004 61.7151 123.563 60.4909C124.121 59.2666 125.906 58.5245 128.027 60.0826C128.027 60.0826 127.358 59.1549 128.027 57.8934C128.697 56.6319 130.52 57.3368 131.041 58.5055C131.041 58.5055 130.743 57.6334 131.524 57.114C132.306 56.5946 132.789 57.698 132.789 57.698C132.789 57.698 132.492 54.7765 134.649 54.4427C136.807 54.1089 140.155 56.0694 139.448 59.8193C139.448 59.8193 143.428 58.7459 144.433 62.716L144.433 62.7166Z" fill="white"/>
<path d="M36.4669 68.5257H8.46125C8.46125 68.5257 6.92241 67.1446 7.69216 65.4565C8.46125 63.7684 10.9238 62.7454 13.8468 64.8941C13.8468 64.8941 12.9238 63.6156 13.8468 61.8765C14.7699 60.1374 17.2835 61.1095 18.0015 62.7206C18.0015 62.7206 17.5914 61.5185 18.6684 60.8025C19.7454 60.0865 20.4123 61.608 20.4123 61.608C20.4123 61.608 20.0022 57.5798 22.977 57.1199C25.9518 56.6593 30.5683 59.3626 29.5935 64.5328C29.5935 64.5328 35.082 63.0531 36.4669 68.5264V68.5257Z" fill="white"/>
<path d="M35.3555 63.415V63.8952L37.5036 72.5075L43.9216 74.4929L46.086 72.7871L45.4886 70.3928L43.1381 64.5262L37.628 62.3312L35.3555 63.415Z" fill="#FFD3CF"/>
<path d="M44.7247 68.4858L43.1381 64.5262L37.628 62.3312L35.3555 63.4156V63.8958C35.3555 63.8958 37.3372 68.5205 44.7247 68.4865V68.4858Z" fill="#FAA9A7"/>
<path d="M44.6917 43.2798C44.6917 43.2798 48.8209 47.2734 49.8657 56.5515L47.7262 56.899C47.7262 56.899 49.5172 62.2077 45.3383 64.6386C41.1594 67.0695 33.7961 64.2414 31.6572 60.6698C29.5176 57.0976 31.0106 50.5987 31.0106 50.5987L36.7814 45.6872L44.6917 43.2812V43.2798Z" fill="#FFD3CF"/>
<path d="M39.1178 59.6768L46.7295 58.9673C46.7295 58.9673 47.1848 62.6173 44.5899 63.283C40.8584 64.2407 39.1172 59.6768 39.1172 59.6768H39.1178Z" fill="white"/>
<path d="M57.4958 76.8356C57.4958 76.8356 66.0029 94.7658 62.4955 99.1997C58.9711 103.655 53.2422 102.855 53.2422 102.855L54.8773 89.987L55.4138 82.9981L57.4958 76.8356Z" fill="#FFD3CF"/>
<path d="M45.2341 69.7545C45.2341 69.7545 53.7766 70.1086 55.7917 71.374C57.8068 72.6395 60.4822 82.0083 60.4822 82.0083L55.415 84.4568L50.5692 77.2667L44.8594 73.1961C46.1041 72.5813 45.7818 71.2218 45.2341 69.7545Z" fill="#B6231F"/>
<path d="M21.9727 82.3069L27.9426 97.0419L29.526 100.688L49.5099 98.9763L50.7781 72.9125L31.7487 73.8226L21.9727 82.3069Z" fill="#D92E29"/>
<path d="M49.9546 102.102L38.1392 100.689L31.8207 99.7961H29.9897L29.5233 103.889C29.5233 103.889 27.8358 108.231 27.0234 116.026C33.8751 118.213 41.0177 118.632 47.2622 118.552C49.6061 118.522 51.895 118.282 54.1171 117.911C53.7667 115.552 52.3019 106.466 49.9553 102.104L49.9546 102.102Z" fill="#383838"/>
<path d="M29.5234 100.688V103.888L49.9548 102.102L49.5073 98.9763L29.5234 100.688Z" fill="#D92E29"/>
<path d="M19.8828 77.1053L20.2562 74.4922C20.2562 74.4922 22.7928 72.7518 30.0068 71.5399C37.2207 70.3281 28.0421 76.1202 28.0421 76.1202L26.8976 82.6766L22.6827 82.8236L20.6788 78.6804L19.8828 77.1047V77.1053Z" fill="#B6231F"/>
<path d="M34.0893 112.372C34.0893 112.372 46.0403 107.474 51.6794 106.611C51.2038 105.1 50.6266 103.509 49.9565 102.102L40.1398 100.928L31.0712 102.73L29.5697 103.495L29.5245 103.888C29.5245 103.888 28.4187 106.734 27.5664 111.951L34.0886 112.372H34.0893Z" fill="#191919"/>
<path d="M68.8945 86.9596L69.0059 90.377L69.851 90.3169L69.8438 86.7675L69.0943 86.8472L68.8945 86.9596Z" fill="#EA3934"/>
<path d="M69.8748 93.0072L69.8604 92.5858L70.5299 92.5786L70.5286 92.2206L69.863 92.2271L69.8493 91.8058L70.5273 91.7979L70.5253 91.4157L69.8539 91.4223L69.8394 91.0009L70.524 90.9931L70.5214 90.2117L68.3281 90.1797L68.4605 93.537L70.5332 93.518L70.5312 93.0006L69.8748 93.0072Z" fill="#EA3934"/>
<path d="M69.2624 84.0257C67.9246 83.9924 66.8476 84.6065 66.8208 85.5191C66.8005 86.2136 67.4241 87.0851 69.3095 87.153C71.0888 87.217 71.8507 86.307 71.888 85.6544C71.9286 84.9462 71.2702 84.076 69.2617 84.0264L69.2624 84.0257ZM69.2958 86.0882C68.583 86.0627 68.3478 85.7334 68.355 85.4708C68.3649 85.1259 68.7723 84.8939 69.2781 84.9063C70.0367 84.9253 70.2856 85.2539 70.2706 85.5217C70.2561 85.7687 69.9686 86.1123 69.2958 86.0882Z" fill="#EA3934"/>
<path d="M69.3565 83.1875C69.3106 83.1875 69.2635 83.1862 69.2169 83.1836C68.5952 83.147 68.0253 82.8713 67.6119 82.4069C67.1986 81.9424 66.9909 81.3459 67.0276 80.7259C67.1029 79.4533 68.2002 78.4669 69.4921 78.5426C70.7748 78.6184 71.7574 79.7205 71.6814 81.0003C71.6087 82.2265 70.5874 83.1875 69.3571 83.1875H69.3565ZM69.3519 78.9745C68.3522 78.9745 67.5222 79.7551 67.4632 80.7514C67.4331 81.2551 67.6021 81.7398 67.9382 82.1174C68.2742 82.4944 68.7374 82.7185 69.2425 82.7485C70.2926 82.8099 71.1836 82.009 71.2445 80.9748C71.3061 79.9355 70.5081 79.0398 69.4659 78.9784C69.4279 78.9764 69.3899 78.9751 69.3519 78.9751V78.9745Z" fill="#191919"/>
<path d="M69.5463 82.7517L69.1094 82.7595L69.1519 85.1175L69.5888 85.1097L69.5463 82.7517Z" fill="#191919"/>
<path d="M78.9446 75.2997C78.9446 75.2997 74.4605 71.8993 73.4326 71.6661C72.4047 71.4328 68.1544 73.6227 67.1731 74.8803C66.1924 76.1378 66.6123 79.8178 66.8927 80.6103C67.1731 81.4027 68.1073 80.2379 68.1073 80.2379C68.1073 80.2379 68.294 81.5353 69.6022 80.8866C70.9105 80.2379 73.8506 78.6079 74.7847 76.0921L77.4025 76.5579L78.944 75.3003L78.9446 75.2997Z" fill="#FFD3CF"/>
<path d="M102.652 70.8514L101.647 69.9068C101.647 69.9068 93.6125 78.6543 91.9315 87.7847C91.9315 87.7847 84.7843 78.6779 78.6185 74.6248L75.6758 76.7912C75.6758 76.7912 81.0712 92.6524 91.581 100.549C91.581 100.549 97.528 96.4258 100.9 90.5331L101.493 79.3762L102.652 70.8514Z" fill="#383838"/>
<path d="M100.843 52.6213C99.8222 52.6213 98.9922 51.3598 98.9922 49.8083C98.9922 48.2567 99.8222 46.9952 100.843 46.9952C101.863 46.9952 102.694 48.2573 102.694 49.8083C102.694 51.3592 101.863 52.6213 100.843 52.6213ZM100.843 47.2336C99.9539 47.2336 99.2313 48.3886 99.2313 49.8083C99.2313 51.2279 99.9545 52.3829 100.843 52.3829C101.731 52.3829 102.454 51.2279 102.454 49.8083C102.454 48.3886 101.731 47.2336 100.843 47.2336Z" fill="#191919"/>
<path d="M75.8415 76.667L75.5703 76.2319L78.0774 74.3563L78.5058 74.7058L75.8415 76.667Z" fill="white"/>
<path d="M101.343 82.2109L100.217 75.1109C100.217 75.1109 96.0495 86.9851 97.0059 95.7249C98.3797 94.2458 99.7816 92.4878 100.9 90.5332L101.343 82.2115V82.2109Z" fill="#191919"/>
<path d="M124.396 117.216C124.392 117.203 122.384 110.278 118.651 103.39L108.327 101.573L103.002 102.924C102.908 103.018 101.647 106.604 101.647 106.604C101.556 111.279 101.601 115.411 101.927 118.426C108.871 119.595 116.734 119.759 124.395 117.216H124.396Z" fill="#191919"/>
<path d="M105.572 68.9647L101.647 69.9068C101.647 69.9068 95.9016 83.9179 101.647 106.604L118.651 103.39C118.651 103.39 118.931 93.9799 124.397 84.2909L120.893 68.9654L115.895 71.0618L107.58 85.4094L105.665 90.5338L104.403 77.8632L106.319 70.8756L105.572 68.9654V68.9647Z" fill="#383838"/>
<path d="M110.569 68.0214L108.713 68.755C108.713 68.755 105.804 73.7742 105.664 90.5325C105.664 90.5325 109.623 77.594 115.999 67.078L112.947 67.3223L110.569 68.0214Z" fill="white"/>
<path d="M109.541 68.9647L108.781 69.3254L109.342 72.9472L114.507 68.1037L111.024 68.58L109.541 68.9647Z" fill="#EA3934"/>
<path d="M107.23 76.0686L109.847 71.6491L110.36 77.3961L108.715 83.4521L106.926 87.8233L105.666 90.5325L105.035 82.7531L106.377 78.5126L106.785 75.7145L107.23 76.0686Z" fill="#EA3934"/>
<path d="M115.366 58.9373L117.924 55.6879C117.924 55.6879 115.857 60.9632 115.997 67.0774C115.997 67.0774 110.848 71.0252 108.99 69.5925C108.097 68.9033 109.632 66.9839 109.632 66.9839L109.539 62.5585L114.91 59.2045L115.366 58.9367L115.366 58.9373Z" fill="#FFD3CF"/>
<path d="M115.37 58.9374L114.915 59.2052L109.543 62.5592L109.617 66.0661C109.983 66.3901 110.767 66.737 112.275 66.053C113.972 65.2841 115.672 62.6938 116.867 59.2816C117.208 57.8261 117.563 56.7207 117.763 56.1419C117.789 56.0282 117.814 55.9152 117.839 55.8009L115.371 58.9374H115.37Z" fill="#FAA9A7"/>
<path d="M109.635 66.9846C109.635 66.9846 104.835 68.6355 104.146 69.3064C104.146 69.3064 101.927 77.8155 105.664 90.5325C105.664 90.5325 106.991 75.951 109.635 66.9846Z" fill="#191919"/>
<path d="M106.598 41.9276C106.598 41.9276 101.025 47.2199 99.8789 57.1186L102.933 56.5855C102.933 56.5855 102.174 63.0453 105.72 64.3904C109.232 65.7231 116.638 63.7815 118.891 55.0248L119.197 47.3343L112.782 45.9636L107.743 42.7272L106.598 41.9276H106.598Z" fill="#FFD3CF"/>
<path d="M107.019 41.1665L106.6 41.9282C106.6 41.9282 106.218 50.4942 116.258 51.6747L121.527 49.771L119.198 45.9257L108.623 40.4812L107.019 41.1665H107.019Z" fill="#0F3347"/>
<path d="M104.156 58.2605C104.156 58.2605 103.774 61.6492 105.531 62.3345C107.287 63.0198 110.914 60.5072 113.128 56.9285L104.156 58.2612V58.2605Z" fill="white"/>
<path d="M105.573 52.6213C104.553 52.6213 103.723 51.3598 103.723 49.8083C103.723 48.2567 104.553 46.9952 105.573 46.9952C106.594 46.9952 107.424 48.2573 107.424 49.8083C107.424 51.3592 106.594 52.6213 105.573 52.6213ZM105.573 47.2336C104.684 47.2336 103.962 48.3886 103.962 49.8083C103.962 51.2279 104.685 52.3829 105.573 52.3829C106.462 52.3829 107.185 51.2279 107.185 49.8083C107.185 48.3886 106.462 47.2336 105.573 47.2336Z" fill="#191919"/>
<path d="M107.338 49.6595L107.273 49.9569L115.853 51.8224L115.918 51.5249L107.338 49.6595Z" fill="#191919"/>
<path d="M103.016 46.9671C103.016 46.9671 99.0031 46.078 100.072 41.2429C101.14 36.4079 104.615 34.7329 105.531 34.9609C106.448 35.1896 107.783 38.2352 109.54 38.1588C111.296 38.0823 117.519 36.2172 119.199 38.654C120.878 41.0907 119.237 43.5654 122.405 45.5828C125.574 47.6008 125.116 50.342 123.36 51.9791C121.603 53.6163 121.26 54.0729 121.184 55.1012C121.107 56.1288 120.414 58.889 117.306 58.9942C117.306 58.9942 115.686 57.6902 116.908 53.807L117.175 48.6676L108.967 44.2892L106.6 41.9289C106.6 41.9289 104.777 43.6294 103.016 46.9677L103.016 46.9671Z" fill="#0F3347"/>
<path d="M115.708 51.9922C115.708 51.9922 116.906 49.5182 118.69 50.1577C120.473 50.7973 117.101 56.7455 115.708 55.1887C114.314 53.6319 114.927 52.75 114.927 52.75L115.708 51.9922Z" fill="#FFD3CF"/>
<path d="M103.925 49.6567H101.703V49.9611H103.925V49.6567Z" fill="#191919"/>
<path d="M118.352 37.919C118.46 38.0026 118.559 38.0627 118.65 38.1052C118.556 38.0379 118.457 37.9752 118.352 37.919Z" fill="#185375"/>
<path d="M103.616 45.8931C103.616 45.8931 101.077 44.5055 102.042 40.2911C103.006 36.0767 104.927 34.6186 105.576 35.5704C106.225 36.5223 105.355 39.8345 109.54 39.5679C112.844 39.3575 115.426 37.4552 117.153 37.5257C114.612 37.0606 110.844 38.1026 109.54 38.1594C107.784 38.2358 106.448 35.1895 105.531 34.9615C104.615 34.7329 101.141 36.4086 100.072 41.2436C99.0026 46.0786 103.016 46.9677 103.016 46.9677C103.208 46.6052 103.4 46.2655 103.59 45.9421L103.616 45.8937V45.8931Z" fill="#185375"/>
<path d="M118.652 103.389L115.805 102.888L101.648 106.603L119.463 104.931C119.202 104.421 118.933 103.907 118.652 103.389Z" fill="#21404F"/>
<path d="M121.314 82.3807L124.397 84.291C124.397 84.291 128.601 84.7568 132.104 86.1541C132.104 86.1541 123.369 96.2625 119.679 99.8498L120.987 102.924C120.987 102.924 140.046 99.0109 144.436 83.2196C144.436 83.2196 135.795 71.4806 120.893 68.9654L117.109 71.248L118.604 78.2755L121.314 82.3814V82.3807Z" fill="#383838"/>
<path d="M119.951 100.489C119.951 100.489 115.743 99.7139 114.647 100.161C113.551 100.608 111.842 102.562 111.283 103.763C110.723 104.964 110.694 106.388 110.975 106.556C111.255 106.724 111.479 106.193 111.479 106.193C111.479 106.193 111.226 107.114 111.534 107.449C111.842 107.785 112.29 106.639 112.29 106.639C112.29 106.639 112.066 107.757 112.543 107.728C113.019 107.7 113.298 106.528 113.298 106.528C113.298 106.528 112.882 107.393 113.482 107.449C114.083 107.505 115.511 105.16 115.511 105.16C115.511 105.16 119.081 105.568 120.67 102.181L119.951 100.49V100.489Z" fill="#FFD3CF"/>
<path d="M116.005 65.6793L121.85 69.1405C121.85 69.1405 108.572 82.6133 105.664 90.5325C105.664 90.5325 108.933 76.4743 116.004 65.6793H116.005Z" fill="#191919"/>
<path d="M119.725 99.9621L119.301 100.303L120.434 102.923L120.911 102.75L119.725 99.9621Z" fill="white"/>
<path d="M120.109 84.2439L123.848 85.2996C124.026 84.9638 124.208 84.6274 124.398 84.2903C122.658 84.0303 120.109 84.2439 120.109 84.2439Z" fill="#191919"/>
<path d="M59.8364 82.3193L56.5 83.9309L56.9324 85.1101L60.5164 84.106C60.2885 83.4887 60.0598 82.8896 59.8358 82.3193H59.8364Z" fill="#FAA9A7"/>
<path d="M45.0799 43.7137L41.5692 48.6552L38.7641 51.4179L35.8672 52.9153C35.8672 52.9153 40.4667 53.2021 43.5548 50.3243C45.3721 48.631 46.1595 46.8978 46.5001 45.7578C45.9263 44.7851 45.412 44.1096 45.0799 43.713V43.7137Z" fill="#FAA9A7"/>
<path d="M35.665 52.9205C35.665 52.9205 42.9026 52.7925 45.5636 44.3278C45.5636 44.3278 46.4618 45.5775 46.9452 46.5444C46.9452 46.5444 48.9708 44.5695 47.5034 40.8235C46.036 37.0776 40.9117 38.2933 38.6228 38.8637C36.3339 39.434 29.1952 37.4003 24.6678 40.2526C20.1404 43.1055 19.6681 46.4418 20.9737 50.1257C22.2793 53.8097 23.7723 53.2139 22.9888 57.6791C22.2053 62.1444 25.7874 65.0097 30.8618 64.3394C30.8618 64.3394 30.8631 65.9393 33.0826 65.2697C35.3021 64.6001 36.1603 63.4091 35.7869 61.623C35.4135 59.8369 33.9958 59.6135 35.1527 57.2695C36.3097 54.9255 35.6657 52.9192 35.6657 52.9192L35.665 52.9205Z" fill="#0F3347"/>
<path d="M35.7885 61.6243C35.4151 59.8382 33.9975 59.6148 35.1544 57.2708C36.2268 55.0973 35.7518 53.2171 35.6772 52.9551C34.6578 53.4092 33.9307 53.5816 33.9307 53.5816C33.9307 53.5816 34.7338 59.1248 32.9035 60.9619C31.0731 62.7989 30.5582 60.5026 30.5582 60.5026C30.5582 60.5026 29.3633 63.1818 26.6295 62.4808C23.8951 61.7798 22.9904 57.681 22.9904 57.681C22.2069 62.1463 25.789 65.0116 30.8635 64.3414C30.8635 64.3414 30.8648 65.9413 33.0843 65.2716C35.3037 64.602 36.1619 63.4111 35.7885 61.625V61.6243Z" fill="#0B2433"/>
<path d="M47.2293 42.8644C45.9885 38.5481 43.3209 40.4831 41.7762 46.2876C40.7699 50.0669 37.7506 52.0157 35.7656 52.9159C36.6179 52.8656 43.0857 52.2273 45.5686 44.3277C45.5686 44.3277 46.3475 45.4116 46.8447 46.3418C47.3439 45.2241 47.566 44.0331 47.2299 42.865L47.2293 42.8644Z" fill="#0B2433"/>
<path d="M36.2592 53.613C36.2592 53.613 35.1207 50.9913 33.4947 52.113C31.8687 53.2347 33.6572 59.8303 36.5848 59.2352L37.8315 57.6673L37.1266 55.5533L36.2592 53.613Z" fill="#FFD3CF"/>
<path d="M36.3925 70.2197L34.0898 66.1738L37.4715 64.0872L40.8479 71.2381L39.3123 70.9906L37.2206 70.3288L36.3925 70.2197Z" fill="#939598"/>
<path d="M34.7474 67.3269L37.9463 65.0913L37.6921 64.5524L34.2148 66.3933L34.7474 67.3269Z" fill="#76787A"/>
<path d="M32.7578 64.8156L33.9979 66.6821L38.1323 64.5334L37.2924 62.5468L32.7578 64.8156Z" fill="#939598"/>
<path d="M23.5234 93.5853L34.3811 110.974L61.9104 97.0915L54.2091 78.5576L23.5234 93.5853Z" fill="#E6E7E8"/>
<path d="M24.8074 95.6412L54.8753 80.1608L54.2091 78.5576L23.5234 93.5853L24.8074 95.6412Z" fill="#D1D3D4"/>
<path d="M32.4375 107.858L60.2099 92.9941L61.9125 97.0915L34.3832 110.974L32.4375 107.858Z" fill="#BCBEC0"/>
<path d="M49.7344 86.324L53.6827 93.8806L56.6418 92.3427L53.6342 84.2975L49.7344 86.324Z" fill="#449BC9"/>
<path d="M57.0527 92.5002L53.5426 94.3242L49.2891 86.1848L53.8125 83.8343L57.0527 92.5002ZM53.823 93.4364L56.2312 92.1847L53.4555 84.7607L50.1793 86.4631L53.823 93.4357V93.4364Z" fill="white"/>
<path d="M30.0078 96.4336L34.3223 103.941L37.2814 102.403L34.0773 94.4601L30.0078 96.4336Z" fill="#449BC9"/>
<path d="M37.6996 102.557L34.1942 104.379L29.5469 96.2919L34.2518 94.0099L37.6996 102.557ZM34.4516 103.503L36.865 102.249L33.9046 94.9095L30.4706 96.5747L34.4516 103.502V103.503Z" fill="white"/>
<path d="M44.5451 105.82L42.2497 101.727L36 90.5174L47.4079 85.5948L54.2007 100.979L44.5451 105.82Z" fill="#B8B8B8"/>
<path d="M22.6836 94.8233L56.3807 78.5772L27.9401 64.7712L22.6836 94.8233Z" fill="#EA3934"/>
<g style="mix-blend-mode:multiply">
<path d="M52.4961 97.1203L53.9072 96.3873L54.5584 97.6337L56.0264 97.1889L56.6357 98.3556L58.3678 97.7383L59.0779 98.5196L54.2 100.979L52.4961 97.1203Z" fill="#D1D3D4"/>
</g>
<path d="M45.9293 100.029L46.7737 100.184L49.1819 98.8952L49.1236 97.6684L44.946 88.1826L44.6623 88.0473L41.9613 89.4513L40.5312 90.5122L45.9293 100.029Z" fill="#EA3934"/>
<g style="mix-blend-mode:multiply">
<path d="M44.8001 88.619L41.8888 90.927L47.1833 99.9915L46.3625 100.418L40.3984 90.262L42.1469 89.3539L44.9442 88.1826L44.8001 88.619Z" fill="#CC3F30"/>
</g>
<path d="M45.4435 100.896L39.4258 90.1254L45.2758 87.085L50.2906 98.3765L49.1809 98.8952L44.5277 88.5686L41.0648 90.6866L46.7727 100.184L45.4435 100.896Z" fill="#E6E7E8"/>
<path d="M51.8982 85.2086L51.4688 85.4016L54.9851 93.1825L55.4146 92.9895L51.8982 85.2086Z" fill="white"/>
<path d="M54.4441 86.5052L50.7422 88.2204L50.9407 88.6464L54.6425 86.9312L54.4441 86.5052Z" fill="white"/>
<path d="M55.3937 89.1302L52.1836 91.0439L52.4253 91.4471L55.6354 89.5334L55.3937 89.1302Z" fill="white"/>
<path d="M32.2609 95.3406L31.8359 95.5432L35.6084 103.409L36.0334 103.207L32.2609 95.3406Z" fill="white"/>
<path d="M35.0333 96.7902L31.0781 98.2009L31.2367 98.6432L35.1919 97.2325L35.0333 96.7902Z" fill="white"/>
<path d="M36.0024 99.3346L32.7188 101.163L32.9484 101.573L36.232 99.7447L36.0024 99.3346Z" fill="white"/>
<path d="M42.2497 101.727L42.946 102.968L44.3584 101.804L37.2146 90.522L47.539 85.8928L47.4079 85.5948L36 90.5174L42.2497 101.727Z" fill="#9FA0A1"/>
<path d="M53.0519 98.3772L50.6294 99.5348L48.799 100.133L44.5068 102.257L43.3086 103.614L43.9074 104.681L47.3781 103.785L53.0185 100.854L53.6094 99.6394L53.0519 98.3772Z" fill="#F0F0F0"/>
<path d="M43.9102 104.681L53.6122 99.6393L54.2038 100.979L44.5482 105.82L43.9102 104.681Z" fill="white"/>
<path d="M43.3122 103.614L53.0555 98.3772L52.5006 97.1202L42.6328 102.402L43.3122 103.614Z" fill="#DBDBDB"/>
<path d="M52.8267 97.8729L43.1875 103.394L43.3107 103.614L53.054 98.3772L52.8319 97.8735L52.8267 97.8729Z" fill="#D1D3D4"/>
<path d="M43.8125 104.508L43.9101 104.681L53.6122 99.6393L53.5074 99.4022L43.8125 104.508Z" fill="#D1D3D4"/>
<path d="M44.3633 105.495L44.5552 105.844L54.2009 100.979L54.0345 100.602L44.3633 105.495Z" fill="#D1D3D4"/>
<path d="M44.1772 91.9024C44.1235 91.7998 43.9971 91.76 43.8942 91.8136C43.7914 91.8671 43.7514 91.9932 43.8051 92.0958C43.8589 92.1983 43.9853 92.2382 44.0881 92.1846C44.191 92.131 44.231 92.005 44.1772 91.9024Z" fill="white"/>
<path d="M33.5891 87.4685L29.1953 80.7775L31.7299 72.774L39.8158 75.3944L43.0658 82.8596L33.5891 87.4685Z" fill="#E6E7E8"/>
<path d="M29.3359 80.9918L29.6275 81.436L32.6842 73.9526L40.3587 76.6415L39.9578 75.7217L32.2374 73.0967L31.6006 73.428L29.3359 80.9918Z" fill="#BCBEC0"/>
<path d="M28.6484 81.7032L29.5112 81.2544L32.258 73.5122L40.2326 76.3449L41.643 75.6119L31.4516 71.9679L28.6484 81.7032Z" fill="#CC3F30"/>
<path d="M44.2293 82.4427L39.5564 83.9427L34.9753 86.3233L32.3438 87.9572L32.3588 88.2139L36.1636 88.3047L47.4131 82.8929C46.1946 82.7099 44.2299 82.4434 44.2299 82.4434L44.2293 82.4427Z" fill="#CC3F30"/>
<path d="M34.9705 86.3226L31.9492 80.1581L33.6761 76.2312L38.2703 77.3627L41.4705 83.1038L34.9705 86.3226Z" fill="#449BC9"/>
<path d="M41.9274 83.2456L34.8208 86.7649L31.5859 80.1667L33.4857 75.8464L38.4894 77.0785L41.9267 83.2463L41.9274 83.2456ZM35.1222 85.881L41.0155 82.9627L38.0531 77.6476L33.8677 76.6173L32.3138 80.151L35.1228 85.881H35.1222Z" fill="white"/>
<path d="M33.8842 76.1241L33.4688 76.3455L38.0459 84.8904L38.4614 84.6691L33.8842 76.1241Z" fill="white"/>
<path d="M32.3578 88.2133L44.2283 82.4427L43.6839 81.4001L31.9766 87.4842L32.3578 88.2133Z" fill="#BCBEC0"/>
<path d="M32.5095 87.6031L31.9756 87.4842L30.5547 84.7652L31.1489 84.4562L32.6779 87.3829L32.5095 87.6031Z" fill="#BCBEC0"/>
<path d="M34.2559 86.5376L34.1006 86.7885L33.5838 86.7401L32.1484 83.9493L32.742 83.6403L34.2559 86.5376Z" fill="#BCBEC0"/>
<path d="M35.8307 85.6916L35.6879 85.9738L35.188 85.996L33.7383 83.1326L34.3325 82.8243L35.8307 85.6916Z" fill="#BCBEC0"/>
<path d="M37.4087 84.8455L37.279 85.1591L36.7955 85.2519L35.332 82.3167L35.9256 82.0083L37.4087 84.8455Z" fill="#BCBEC0"/>
<path d="M38.9828 84.0002L38.8662 84.3438L38.3998 84.5078L36.9219 81.5007L37.5154 81.1923L38.9828 84.0002Z" fill="#BCBEC0"/>
<path d="M40.5615 83.1542L40.4573 83.5292L40.0079 83.7631L38.5156 80.6841L39.1091 80.3757L40.5615 83.1542Z" fill="#BCBEC0"/>
<path d="M42.1239 82.2774L42.0328 82.6831L41.6005 82.9876L40.0938 79.8367L40.6873 79.5284L42.1239 82.2774Z" fill="#BCBEC0"/>
<path d="M43.6831 81.4001L42.2621 78.6811L41.668 78.9894L43.1891 82.2128L43.6051 81.8371L43.6831 81.4001Z" fill="#BCBEC0"/>
<path d="M30.2852 84.7143L30.485 84.9945L42.55 78.8973L42.303 78.3224L30.2852 84.7143Z" fill="#939598"/>
<path d="M38.3513 77.3647L31.8438 80.11L32.0273 80.5426L38.5349 77.7973L38.3513 77.3647Z" fill="white"/>
<path d="M39.0948 78.834L32.9609 82.2723L33.1917 82.6817L39.3256 79.2435L39.0948 78.834Z" fill="white"/>
<path d="M22.234 77.5437C22.234 77.5437 22.6448 74.8038 20.555 75.8458C18.4652 76.8878 2.42111 91.6091 12.1225 98.53C21.8239 105.451 37.4088 98.1328 43.0171 92.6511L41.2117 90.5978C41.2117 90.5978 21.1138 98.6006 18.8386 93.3213C16.8982 88.8189 23.5239 84.2981 23.5239 84.2981L22.234 77.5444V77.5437Z" fill="#FFD3CF"/>
<path d="M41.2278 90.865C41.2278 90.865 40.8543 85.0357 41.9739 84.1178C43.0935 83.1999 42.838 87.4692 42.838 87.4692C42.838 87.4692 47.0981 82.853 48.3173 83.002C49.5364 83.1509 45.5809 87.1941 45.5809 87.1941C45.5809 87.1941 50.3075 83.4482 50.9541 84.2667C51.6006 85.0853 46.6009 87.8886 46.6009 87.8886C46.6009 87.8886 51.6753 85.7549 52.1234 86.4749C52.5708 87.1941 47.3687 89.1292 47.3687 89.1292C47.3687 89.1292 51.129 88.1865 51.2777 88.9306C51.427 89.6747 46.8498 92.2049 43.0195 92.6517C41.8167 92.3774 41.2206 91.7816 41.2284 90.8656L41.2278 90.865Z" fill="#FFD3CF"/>
<path d="M50.7734 101.156C52.0476 102.87 53.4351 103.312 55.1822 102.443C56.9301 101.573 56.0647 96.3265 55.3906 96.1925C54.5953 96.0351 54.9399 99.1415 54.9399 99.1415C54.9399 99.1415 53.9448 95.4465 53.3722 95.5125C52.7243 95.5869 53.4973 99.4446 53.4973 99.4446C53.4973 99.4446 51.8183 95.6124 51.1468 96.1925C50.4753 96.7727 51.9677 100.172 51.9677 100.172C51.9677 100.172 49.8962 97.0503 49.3086 97.5253C48.721 98.0002 50.0692 100.208 50.7734 101.156Z" fill="#FFD3CF"/>
<path d="M12.3113 84.3987C11.7289 85.2447 11.1891 86.1188 10.7227 87.0054L18.6854 90.2418C18.8341 89.7204 19.0569 89.2148 19.3281 88.7327L18.766 83.7637L12.3113 84.3994V84.3987Z" fill="#FAA9A7"/>
<path d="M23.8407 75.8321L23.4889 75.7008L20.2586 74.4929C20.2586 74.4929 15.4823 77.0231 10.7812 84.4654L20.1839 89.8236C20.1839 89.8236 21.6907 87.7834 23.6022 86.3233L25.3225 80.1216L23.8407 75.8321Z" fill="#B6231F"/>
</g>
<defs>
<clipPath id="clip0_666_32452">
<rect width="152" height="119.241" fill="white" transform="translate(0.160156)"/>
</clipPath>
</defs>
</svg>
