<svg width="24" height="20" viewBox="0 0 24 20" fill="none" xmlns="http://www.w3.org/2000/svg">
<path d="M12.1019 9.93829C12.1019 10.9985 12.0168 11.9268 11.8465 12.7233C11.6762 13.5198 11.4043 14.1845 11.0308 14.7173C10.6572 15.2502 10.1711 15.6539 9.57233 15.9286C8.97357 16.1978 8.24023 16.3323 7.37231 16.3323C6.50989 16.3323 5.7793 16.1978 5.18054 15.9286C4.58179 15.6539 4.0929 15.2447 3.71387 14.7009C3.34033 14.1625 3.06842 13.5006 2.89813 12.7151C2.72784 11.9241 2.6427 11.0012 2.6427 9.94653C2.6427 8.85889 2.7251 7.93054 2.88989 7.1615C3.06018 6.39246 3.34033 5.73053 3.73035 5.17572C4.11487 4.6319 4.60925 4.22815 5.2135 3.96448C5.81775 3.69531 6.53735 3.56073 7.37231 3.56073C8.25671 3.56073 8.9928 3.70081 9.58057 3.98096C10.1738 4.25562 10.66 4.6676 11.039 5.21692C11.4125 5.75525 11.6817 6.41992 11.8465 7.21094C12.0168 8.00195 12.1019 8.91107 12.1019 9.93829ZM9.01202 9.93829C9.01202 8.42218 8.88568 7.35925 8.63299 6.74951C8.3858 6.13428 7.96558 5.82666 7.37231 5.82666C6.78455 5.82666 6.36432 6.13428 6.11163 6.74951C5.85895 7.35925 5.7326 8.42767 5.7326 9.95477C5.7326 11.4489 5.85895 12.5091 6.11163 13.1353C6.36432 13.756 6.78455 14.0664 7.37231 14.0664C7.96008 14.0664 8.38031 13.756 8.63299 13.1353C8.88568 12.5091 9.01202 11.4434 9.01202 9.93829Z" fill="#440D0B"/>
<mask id="path-2-outside-1_1653_31038" maskUnits="userSpaceOnUse" x="11" y="6" width="13" height="10" fill="black">
<rect fill="white" x="11" y="6" width="13" height="10"/>
<path d="M16.2605 9.46834C16.2605 10.1915 16.0986 10.7296 15.7749 11.0824C15.4541 11.4324 14.9876 11.6073 14.3752 11.6073C13.7453 11.6073 13.27 11.4324 12.9492 11.0824C12.6284 10.7325 12.468 10.2003 12.468 9.48584C12.468 8.77139 12.6313 8.2392 12.9579 7.88926C13.2846 7.53641 13.757 7.35999 14.3752 7.35999C15.0051 7.35999 15.476 7.53641 15.788 7.88926C16.103 8.2392 16.2605 8.76556 16.2605 9.46834ZM19.6461 7.48684L16.2342 14H15.0794L18.4913 7.48684H19.6461ZM22.2618 11.9966C22.2618 12.7198 22.1 13.2578 21.7763 13.6107C21.4555 13.9606 20.989 14.1356 20.3766 14.1356C19.7467 14.1356 19.2714 13.9606 18.9506 13.6107C18.6298 13.2608 18.4694 12.7286 18.4694 12.0141C18.4694 11.2997 18.6327 10.7675 18.9593 10.4175C19.2859 10.0647 19.7583 9.88827 20.3766 9.88827C21.0064 9.88827 21.4774 10.0647 21.7894 10.4175C22.1044 10.7675 22.2618 11.2938 22.2618 11.9966ZM15.0138 9.48147C15.0138 9.29775 15.0051 9.13007 14.9876 8.97843C14.973 8.8268 14.9424 8.69994 14.8957 8.59788C14.8491 8.49582 14.7834 8.42 14.6989 8.37042C14.6143 8.31793 14.5064 8.29169 14.3752 8.29169C14.2352 8.29169 14.1259 8.31793 14.0471 8.37042C13.9684 8.42 13.9042 8.49727 13.8547 8.60225C13.8109 8.69557 13.7803 8.82242 13.7628 8.98281C13.7453 9.1432 13.7366 9.31087 13.7366 9.48584C13.7366 9.70163 13.7424 9.87368 13.754 10.002C13.7657 10.1274 13.7978 10.2484 13.8503 10.3651C13.894 10.4671 13.9582 10.5459 14.0427 10.6013C14.1302 10.6537 14.241 10.68 14.3752 10.68C14.5064 10.68 14.6143 10.6537 14.6989 10.6013C14.7834 10.5488 14.8491 10.47 14.8957 10.3651C14.9365 10.2717 14.9657 10.1522 14.9832 10.0064C15.0036 9.86056 15.0138 9.68559 15.0138 9.48147ZM21.0152 12.0097C21.0152 11.826 21.0064 11.6584 20.989 11.5067C20.9744 11.3551 20.9438 11.2282 20.8971 11.1262C20.8504 11.0241 20.7848 10.9483 20.7003 10.8987C20.6157 10.8462 20.5078 10.82 20.3766 10.82C20.2366 10.82 20.1272 10.8462 20.0485 10.8987C19.9698 10.9483 19.9056 11.0256 19.856 11.1305C19.8123 11.2238 19.7817 11.3507 19.7642 11.5111C19.7467 11.6715 19.7379 11.8392 19.7379 12.0141C19.7379 12.2299 19.7438 12.402 19.7554 12.5303C19.7671 12.6557 19.7992 12.7767 19.8517 12.8933C19.8954 12.9954 19.9596 13.0741 20.0441 13.1295C20.1316 13.182 20.2424 13.2083 20.3766 13.2083C20.5078 13.2083 20.6157 13.182 20.7003 13.1295C20.7848 13.077 20.8504 12.9983 20.8971 12.8933C20.9379 12.8 20.9671 12.6805 20.9846 12.5346C21.005 12.3888 21.0152 12.2139 21.0152 12.0097Z"/>
</mask>
<path d="M16.2605 9.46834C16.2605 10.1915 16.0986 10.7296 15.7749 11.0824C15.4541 11.4324 14.9876 11.6073 14.3752 11.6073C13.7453 11.6073 13.27 11.4324 12.9492 11.0824C12.6284 10.7325 12.468 10.2003 12.468 9.48584C12.468 8.77139 12.6313 8.2392 12.9579 7.88926C13.2846 7.53641 13.757 7.35999 14.3752 7.35999C15.0051 7.35999 15.476 7.53641 15.788 7.88926C16.103 8.2392 16.2605 8.76556 16.2605 9.46834ZM19.6461 7.48684L16.2342 14H15.0794L18.4913 7.48684H19.6461ZM22.2618 11.9966C22.2618 12.7198 22.1 13.2578 21.7763 13.6107C21.4555 13.9606 20.989 14.1356 20.3766 14.1356C19.7467 14.1356 19.2714 13.9606 18.9506 13.6107C18.6298 13.2608 18.4694 12.7286 18.4694 12.0141C18.4694 11.2997 18.6327 10.7675 18.9593 10.4175C19.2859 10.0647 19.7583 9.88827 20.3766 9.88827C21.0064 9.88827 21.4774 10.0647 21.7894 10.4175C22.1044 10.7675 22.2618 11.2938 22.2618 11.9966ZM15.0138 9.48147C15.0138 9.29775 15.0051 9.13007 14.9876 8.97843C14.973 8.8268 14.9424 8.69994 14.8957 8.59788C14.8491 8.49582 14.7834 8.42 14.6989 8.37042C14.6143 8.31793 14.5064 8.29169 14.3752 8.29169C14.2352 8.29169 14.1259 8.31793 14.0471 8.37042C13.9684 8.42 13.9042 8.49727 13.8547 8.60225C13.8109 8.69557 13.7803 8.82242 13.7628 8.98281C13.7453 9.1432 13.7366 9.31087 13.7366 9.48584C13.7366 9.70163 13.7424 9.87368 13.754 10.002C13.7657 10.1274 13.7978 10.2484 13.8503 10.3651C13.894 10.4671 13.9582 10.5459 14.0427 10.6013C14.1302 10.6537 14.241 10.68 14.3752 10.68C14.5064 10.68 14.6143 10.6537 14.6989 10.6013C14.7834 10.5488 14.8491 10.47 14.8957 10.3651C14.9365 10.2717 14.9657 10.1522 14.9832 10.0064C15.0036 9.86056 15.0138 9.68559 15.0138 9.48147ZM21.0152 12.0097C21.0152 11.826 21.0064 11.6584 20.989 11.5067C20.9744 11.3551 20.9438 11.2282 20.8971 11.1262C20.8504 11.0241 20.7848 10.9483 20.7003 10.8987C20.6157 10.8462 20.5078 10.82 20.3766 10.82C20.2366 10.82 20.1272 10.8462 20.0485 10.8987C19.9698 10.9483 19.9056 11.0256 19.856 11.1305C19.8123 11.2238 19.7817 11.3507 19.7642 11.5111C19.7467 11.6715 19.7379 11.8392 19.7379 12.0141C19.7379 12.2299 19.7438 12.402 19.7554 12.5303C19.7671 12.6557 19.7992 12.7767 19.8517 12.8933C19.8954 12.9954 19.9596 13.0741 20.0441 13.1295C20.1316 13.182 20.2424 13.2083 20.3766 13.2083C20.5078 13.2083 20.6157 13.182 20.7003 13.1295C20.7848 13.077 20.8504 12.9983 20.8971 12.8933C20.9379 12.8 20.9671 12.6805 20.9846 12.5346C21.005 12.3888 21.0152 12.2139 21.0152 12.0097Z" fill="#440D0B"/>
<path d="M15.7749 11.0824L14.9497 10.3254L14.9495 10.3257L15.7749 11.0824ZM12.9579 7.88926L13.7766 8.65332L13.7797 8.64992L12.9579 7.88926ZM15.788 7.88926L14.9492 8.63109L14.9557 8.63836L15.788 7.88926ZM19.6461 7.48684L20.638 8.00645L21.4968 6.36705H19.6461V7.48684ZM16.2342 14V15.1198H16.9117L17.2261 14.5196L16.2342 14ZM15.0794 14L14.0875 13.4804L13.2287 15.1198H15.0794V14ZM18.4913 7.48684V6.36705H17.8138L17.4994 6.96722L18.4913 7.48684ZM21.7763 13.6107L20.9511 12.8537L20.9508 12.854L21.7763 13.6107ZM18.9593 10.4175L19.778 11.1816L19.7811 11.1782L18.9593 10.4175ZM21.7894 10.4175L20.9505 11.1594L20.9571 11.1666L21.7894 10.4175ZM14.9876 8.97843L13.8729 9.08561L13.8739 9.09621L13.8752 9.10679L14.9876 8.97843ZM14.6989 8.37042L14.1083 9.32184L14.1204 9.32931L14.1326 9.33646L14.6989 8.37042ZM14.0471 8.37042L14.6438 9.31803L14.6561 9.31025L14.6683 9.30215L14.0471 8.37042ZM13.8547 8.60225L12.8421 8.12409L12.8407 8.12698L13.8547 8.60225ZM13.754 10.002L12.6389 10.1034L12.6391 10.1057L13.754 10.002ZM13.8503 10.3651L14.8795 9.92394L14.8756 9.9147L14.8714 9.90553L13.8503 10.3651ZM14.0427 10.6013L13.4291 11.5379L13.4476 11.5501L13.4666 11.5615L14.0427 10.6013ZM14.8957 10.3651L15.919 10.8198L15.9216 10.8139L14.8957 10.3651ZM14.9832 10.0064L13.8742 9.85111L13.8727 9.86202L13.8714 9.87295L14.9832 10.0064ZM20.989 11.5067L19.8743 11.6139L19.8753 11.6245L19.8765 11.6351L20.989 11.5067ZM20.7003 10.8987L20.1097 11.8501L20.1217 11.8576L20.134 11.8647L20.7003 10.8987ZM20.0485 10.8987L20.6451 11.8463L20.6575 11.8385L20.6697 11.8304L20.0485 10.8987ZM19.856 11.1305L18.8435 10.6524L18.8421 10.6553L19.856 11.1305ZM19.7554 12.5303L18.6402 12.6317L18.6405 12.634L19.7554 12.5303ZM19.8517 12.8933L20.8809 12.4522L20.877 12.443L20.8728 12.4338L19.8517 12.8933ZM20.0441 13.1295L19.4305 14.0662L19.449 14.0783L19.468 14.0898L20.0441 13.1295ZM20.8971 12.8933L21.9204 13.3481L21.923 13.3422L20.8971 12.8933ZM20.9846 12.5346L19.8756 12.3794L19.8741 12.3903L19.8728 12.4012L20.9846 12.5346ZM15.1407 9.46834C15.1407 10.0504 15.0072 10.2628 14.9497 10.3254L16.6001 11.8394C17.19 11.1963 17.3802 10.3327 17.3802 9.46834H15.1407ZM14.9495 10.3257C14.8982 10.3816 14.7702 10.4875 14.3752 10.4875V12.7271C15.205 12.7271 16.0101 12.4831 16.6004 11.8391L14.9495 10.3257ZM14.3752 10.4875C13.9515 10.4875 13.8201 10.3753 13.7747 10.3257L12.1237 11.8391C12.7198 12.4894 13.5391 12.7271 14.3752 12.7271V10.4875ZM13.7747 10.3257C13.7193 10.2654 13.5878 10.058 13.5878 9.48584H11.3482C11.3482 10.3426 11.5375 11.1996 12.1237 11.8391L13.7747 10.3257ZM13.5878 9.48584C13.5878 8.9181 13.7201 8.71378 13.7766 8.65332L12.1393 7.12521C11.5425 7.76462 11.3482 8.62468 11.3482 9.48584H13.5878ZM13.7797 8.64992C13.8378 8.5872 13.9745 8.47978 14.3752 8.47978V6.24019C13.5394 6.24019 12.7313 6.48562 12.1362 7.1286L13.7797 8.64992ZM14.3752 8.47978C14.7981 8.47978 14.915 8.59243 14.9492 8.63106L16.6269 7.14747C16.037 6.48039 15.212 6.24019 14.3752 6.24019V8.47978ZM14.9557 8.63836C15.0127 8.70164 15.1407 8.90929 15.1407 9.46834H17.3802C17.3802 8.62183 17.1933 7.77676 16.6204 7.14016L14.9557 8.63836ZM18.6541 6.96722L15.2423 13.4804L17.2261 14.5196L20.638 8.00645L18.6541 6.96722ZM16.2342 12.8802H15.0794V15.1198H16.2342V12.8802ZM16.0714 14.5196L19.4832 8.00645L17.4994 6.96722L14.0875 13.4804L16.0714 14.5196ZM18.4913 8.60663H19.6461V6.36705H18.4913V8.60663ZM21.142 11.9966C21.142 12.5787 21.0086 12.7911 20.9511 12.8537L22.6015 14.3677C23.1914 13.7246 23.3816 12.8609 23.3816 11.9966H21.142ZM20.9508 12.854C20.8996 12.9099 20.7715 13.0158 20.3766 13.0158V15.2554C21.2064 15.2554 22.0115 15.0113 22.6018 14.3674L20.9508 12.854ZM20.3766 13.0158C19.9529 13.0158 19.8215 12.9036 19.776 12.854L18.1251 14.3674C18.7212 15.0176 19.5405 15.2554 20.3766 15.2554V13.0158ZM19.776 12.854C19.7207 12.7936 19.5892 12.5863 19.5892 12.0141H17.3496C17.3496 12.8709 17.5389 13.7279 18.1251 14.3674L19.776 12.854ZM19.5892 12.0141C19.5892 11.4464 19.7215 11.2421 19.778 11.1816L18.1407 9.65349C17.5439 10.2929 17.3496 11.153 17.3496 12.0141H19.5892ZM19.7811 11.1782C19.8392 11.1155 19.9759 11.0081 20.3766 11.0081V8.76847C19.5408 8.76847 18.7327 9.0139 18.1375 9.65688L19.7811 11.1782ZM20.3766 11.0081C20.7995 11.0081 20.9164 11.1207 20.9506 11.1593L22.6283 9.67575C22.0384 9.00867 21.2134 8.76847 20.3766 8.76847V11.0081ZM20.9571 11.1666C21.014 11.2299 21.142 11.4376 21.142 11.9966H23.3816C23.3816 11.1501 23.1947 10.305 22.6218 9.66844L20.9571 11.1666ZM16.1336 9.48147C16.1336 9.26317 16.1233 9.05185 16.1 8.85008L13.8752 9.10679C13.8869 9.20829 13.894 9.33233 13.894 9.48147H16.1336ZM16.1022 8.87126C16.0797 8.63692 16.0274 8.38007 15.9141 8.13232L13.8773 9.06344C13.8665 9.03976 13.864 9.02762 13.8651 9.03232C13.8663 9.03693 13.8699 9.05376 13.8729 9.08561L16.1022 8.87126ZM15.9141 8.13232C15.7861 7.85231 15.5761 7.58666 15.2652 7.40438L14.1326 9.33646C13.9908 9.25333 13.912 9.13932 13.8773 9.06344L15.9141 8.13232ZM15.2894 7.419C14.9795 7.22662 14.6502 7.1719 14.3752 7.1719V9.41148C14.3626 9.41148 14.2492 9.40924 14.1083 9.32184L15.2894 7.419ZM14.3752 7.1719C14.1141 7.1719 13.7572 7.21791 13.426 7.4387L14.6683 9.30215C14.5794 9.36141 14.4995 9.38824 14.4495 9.40024C14.4008 9.41194 14.3728 9.41148 14.3752 9.41148V7.1719ZM13.4505 7.42282C13.1512 7.61123 12.9602 7.8739 12.8421 8.1241L14.8672 9.08041C14.8482 9.12065 14.7855 9.22877 14.6438 9.31803L13.4505 7.42282ZM12.8407 8.12698C12.7237 8.37665 12.6738 8.63958 12.6496 8.86137L14.876 9.10425C14.8783 9.08318 14.8807 9.06651 14.8828 9.05381C14.8849 9.04106 14.8866 9.03338 14.8874 9.03013C14.8882 9.02681 14.8877 9.0294 14.8852 9.03685C14.8827 9.04424 14.8776 9.05835 14.8686 9.07753L12.8407 8.12698ZM12.6496 8.86137C12.6274 9.0653 12.6168 9.27367 12.6168 9.48584H14.8563C14.8563 9.34808 14.8632 9.22109 14.876 9.10425L12.6496 8.86137ZM12.6168 9.48584C12.6168 9.71622 12.6228 9.92647 12.6389 10.1034L14.8692 9.90061C14.862 9.8209 14.8563 9.68705 14.8563 9.48584H12.6168ZM12.6391 10.1057C12.6624 10.356 12.7268 10.5971 12.8291 10.8246L14.8714 9.90553C14.8698 9.90177 14.8693 9.90003 14.8693 9.8999C14.8692 9.8998 14.8691 9.89948 14.869 9.89828L12.6391 10.1057ZM12.821 10.8062C12.9427 11.09 13.1422 11.35 13.4291 11.5379L14.6564 9.6646C14.7741 9.7417 14.8454 9.84428 14.8795 9.92394L12.821 10.8062ZM13.4666 11.5615C13.7747 11.7463 14.1004 11.7998 14.3752 11.7998V9.5602C14.3817 9.5602 14.4857 9.56115 14.6189 9.64104L13.4666 11.5615ZM14.3752 11.7998C14.6502 11.7998 14.9795 11.7451 15.2894 11.5527L14.1083 9.64984C14.2492 9.56244 14.3626 9.5602 14.3752 9.5602V11.7998ZM15.2894 11.5527C15.5929 11.3643 15.7956 11.0974 15.919 10.8198L13.8724 9.91026C13.9025 9.84262 13.9739 9.73325 14.1083 9.64984L15.2894 11.5527ZM15.9216 10.8139C16.021 10.5866 16.0697 10.3508 16.095 10.1398L13.8714 9.87295C13.867 9.90964 13.8625 9.93107 13.8603 9.94005C13.858 9.94947 13.8596 9.93953 13.8698 9.91622L15.9216 10.8139ZM16.0922 10.1616C16.1219 9.94901 16.1336 9.71928 16.1336 9.48147H13.894C13.894 9.6519 13.8853 9.77211 13.8742 9.85111L16.0922 10.1616ZM22.135 12.0097C22.135 11.7914 22.1246 11.5801 22.1014 11.3784L19.8765 11.6351C19.8883 11.7366 19.8954 11.8606 19.8954 12.0097H22.135ZM22.1036 11.3995C22.0811 11.1652 22.0288 10.9083 21.9155 10.6606L19.8787 11.5917C19.8678 11.568 19.8654 11.5559 19.8665 11.5606C19.8676 11.5652 19.8712 11.582 19.8743 11.6139L22.1036 11.3995ZM21.9155 10.6606C21.7875 10.3806 21.5775 10.1149 21.2666 9.93266L20.134 11.8647C19.9921 11.7816 19.9134 11.6676 19.8787 11.5917L21.9155 10.6606ZM21.2908 9.94728C20.9808 9.7549 20.6516 9.70018 20.3766 9.70018V11.9398C20.364 11.9398 20.2505 11.9375 20.1097 11.8501L21.2908 9.94728ZM20.3766 9.70018C20.1155 9.70018 19.7585 9.74619 19.4274 9.96698L20.6697 11.8304C20.5808 11.8897 20.5009 11.9165 20.4509 11.9285C20.4022 11.9402 20.3742 11.9398 20.3766 11.9398V9.70018ZM19.4519 9.9511C19.1526 10.1395 18.9616 10.4022 18.8435 10.6524L20.8686 11.6087C20.8496 11.6489 20.7869 11.757 20.6451 11.8463L19.4519 9.9511ZM18.8421 10.6553C18.7251 10.9049 18.6752 11.1679 18.651 11.3896L20.8774 11.6325C20.8797 11.6115 20.882 11.5948 20.8842 11.5821C20.8863 11.5693 20.888 11.5617 20.8888 11.5584C20.8896 11.5551 20.8891 11.5577 20.8866 11.5651C20.8841 11.5725 20.879 11.5866 20.87 11.6058L18.8421 10.6553ZM18.651 11.3896C18.6287 11.5936 18.6181 11.8019 18.6181 12.0141H20.8577C20.8577 11.8764 20.8646 11.7494 20.8774 11.6325L18.651 11.3896ZM18.6181 12.0141C18.6181 12.2445 18.6242 12.4548 18.6402 12.6317L20.8706 12.4289C20.8634 12.3492 20.8577 12.2153 20.8577 12.0141H18.6181ZM18.6405 12.634C18.6637 12.8843 18.7281 13.1254 18.8305 13.3529L20.8728 12.4338C20.8711 12.43 20.8707 12.4283 20.8707 12.4282C20.8706 12.4281 20.8705 12.4278 20.8704 12.4266L18.6405 12.634ZM18.8224 13.3344C18.944 13.6182 19.1436 13.8783 19.4305 14.0662L20.6578 12.1929C20.7755 12.27 20.8468 12.3726 20.8809 12.4522L18.8224 13.3344ZM19.468 14.0898C19.7761 14.2746 20.1018 14.3281 20.3766 14.3281V12.0885C20.3831 12.0885 20.4871 12.0894 20.6203 12.1693L19.468 14.0898ZM20.3766 14.3281C20.6516 14.3281 20.9808 14.2733 21.2908 14.081L20.1097 12.1781C20.2505 12.0907 20.364 12.0885 20.3766 12.0885V14.3281ZM21.2908 14.081C21.5943 13.8926 21.797 13.6257 21.9204 13.3481L19.8738 12.4385C19.9039 12.3709 19.9753 12.2615 20.1097 12.1781L21.2908 14.081ZM21.923 13.3422C22.0224 13.1149 22.0711 12.879 22.0964 12.6681L19.8728 12.4012C19.8684 12.4379 19.8639 12.4594 19.8617 12.4683C19.8594 12.4778 19.861 12.4678 19.8712 12.4445L21.923 13.3422ZM22.0936 12.6899C22.1233 12.4773 22.135 12.2476 22.135 12.0097H19.8954C19.8954 12.1802 19.8867 12.3004 19.8756 12.3794L22.0936 12.6899Z" fill="#F9E2AA" mask="url(#path-2-outside-1_1653_31038)"/>
</svg>
