<svg width="20" height="20" viewBox="0 0 20 20" fill="none" xmlns="http://www.w3.org/2000/svg">
<path d="M10.3363 10.0658C10.3363 10.9407 10.266 11.7068 10.1255 12.3641C9.98496 13.0214 9.76058 13.5699 9.45233 14.0096C9.14408 14.4493 8.74291 14.7825 8.24881 15.0091C7.7547 15.2313 7.14954 15.3423 6.43332 15.3423C5.72163 15.3423 5.11874 15.2313 4.62464 15.0091C4.13053 14.7825 3.72709 14.4448 3.41431 13.996C3.10606 13.5518 2.88168 13.0055 2.74115 12.3573C2.60063 11.7045 2.53037 10.943 2.53037 10.0726C2.53037 9.17511 2.59836 8.40902 2.73435 7.77439C2.87488 7.13977 3.10606 6.59353 3.42791 6.1357C3.74522 5.68692 4.1532 5.35375 4.65183 5.13616C5.15047 4.91404 5.7443 4.80298 6.43332 4.80298C7.16314 4.80298 7.77057 4.91857 8.25561 5.14976C8.74518 5.37641 9.14635 5.71639 9.45913 6.16969C9.76738 6.61393 9.9895 7.16243 10.1255 7.81519C10.266 8.46795 10.3363 9.21817 10.3363 10.0658ZM7.78644 10.0658C7.78644 8.81473 7.68218 7.93758 7.47366 7.43441C7.26967 6.92671 6.92289 6.67286 6.43332 6.67286C5.94829 6.67286 5.60151 6.92671 5.39299 7.43441C5.18447 7.93758 5.08021 8.81926 5.08021 10.0794C5.08021 11.3124 5.18447 12.1873 5.39299 12.7041C5.60151 13.2163 5.94829 13.4724 6.43332 13.4724C6.91836 13.4724 7.26514 13.2163 7.47366 12.7041C7.68218 12.1873 7.78644 11.3079 7.78644 10.0658Z" fill="#EA3934"/>
<mask id="path-2-outside-1_1653_36767" maskUnits="userSpaceOnUse" x="9" y="6" width="11" height="9" fill="black">
<rect fill="white" x="9" y="6" width="11" height="9"/>
<path d="M13.5158 9.2604C13.5158 9.8572 13.3822 10.3012 13.1151 10.5924C12.8504 10.8811 12.4654 11.0255 11.96 11.0255C11.4403 11.0255 11.048 10.8811 10.7833 10.5924C10.5186 10.3036 10.3862 9.86442 10.3862 9.27484C10.3862 8.68526 10.521 8.24609 10.7905 7.95732C11.06 7.66614 11.4499 7.52055 11.96 7.52055C12.4798 7.52055 12.8685 7.66614 13.126 7.95732C13.3859 8.24609 13.5158 8.68045 13.5158 9.2604ZM16.3097 7.62523L13.4941 13H12.5412L15.3567 7.62523H16.3097ZM18.4682 11.3468C18.4682 11.9436 18.3347 12.3876 18.0676 12.6787C17.8029 12.9675 17.4178 13.1119 16.9125 13.1119C16.3927 13.1119 16.0004 12.9675 15.7357 12.6787C15.471 12.39 15.3387 11.9508 15.3387 11.3612C15.3387 10.7716 15.4734 10.3325 15.743 10.0437C16.0125 9.75252 16.4023 9.60693 16.9125 9.60693C17.4323 9.60693 17.8209 9.75252 18.0784 10.0437C18.3383 10.3325 18.4682 10.7668 18.4682 11.3468ZM12.487 9.27123C12.487 9.11963 12.4798 8.98126 12.4654 8.85612C12.4534 8.73099 12.4281 8.62631 12.3896 8.54208C12.3511 8.45786 12.2969 8.39529 12.2272 8.35438C12.1574 8.31106 12.0683 8.28941 11.96 8.28941C11.8445 8.28941 11.7543 8.31106 11.6893 8.35438C11.6243 8.39529 11.5714 8.45906 11.5305 8.54569C11.4944 8.6227 11.4691 8.72738 11.4547 8.85973C11.4403 8.99209 11.433 9.13046 11.433 9.27484C11.433 9.45292 11.4378 9.5949 11.4475 9.70078C11.4571 9.80426 11.4836 9.90412 11.5269 10.0004C11.563 10.0846 11.6159 10.1496 11.6857 10.1953C11.7579 10.2386 11.8493 10.2603 11.96 10.2603C12.0683 10.2603 12.1574 10.2386 12.2272 10.1953C12.2969 10.152 12.3511 10.087 12.3896 10.0004C12.4233 9.92337 12.4473 9.82471 12.4618 9.70439C12.4786 9.58407 12.487 9.43968 12.487 9.27123ZM17.4395 11.3576C17.4395 11.206 17.4323 11.0676 17.4178 10.9425C17.4058 10.8174 17.3805 10.7127 17.342 10.6285C17.3035 10.5442 17.2494 10.4817 17.1796 10.4408C17.1098 10.3974 17.0208 10.3758 16.9125 10.3758C16.797 10.3758 16.7067 10.3974 16.6418 10.4408C16.5768 10.4817 16.5238 10.5454 16.4829 10.6321C16.4468 10.7091 16.4216 10.8138 16.4071 10.9461C16.3927 11.0785 16.3855 11.2168 16.3855 11.3612C16.3855 11.5393 16.3903 11.6813 16.3999 11.7872C16.4095 11.8906 16.436 11.9905 16.4793 12.0868C16.5154 12.171 16.5684 12.236 16.6381 12.2817C16.7103 12.325 16.8018 12.3467 16.9125 12.3467C17.0208 12.3467 17.1098 12.325 17.1796 12.2817C17.2494 12.2384 17.3035 12.1734 17.342 12.0868C17.3757 12.0098 17.3998 11.9111 17.4142 11.7908C17.4311 11.6704 17.4395 11.5261 17.4395 11.3576Z"/>
</mask>
<path d="M13.5158 9.2604C13.5158 9.8572 13.3822 10.3012 13.1151 10.5924C12.8504 10.8811 12.4654 11.0255 11.96 11.0255C11.4403 11.0255 11.048 10.8811 10.7833 10.5924C10.5186 10.3036 10.3862 9.86442 10.3862 9.27484C10.3862 8.68526 10.521 8.24609 10.7905 7.95732C11.06 7.66614 11.4499 7.52055 11.96 7.52055C12.4798 7.52055 12.8685 7.66614 13.126 7.95732C13.3859 8.24609 13.5158 8.68045 13.5158 9.2604ZM16.3097 7.62523L13.4941 13H12.5412L15.3567 7.62523H16.3097ZM18.4682 11.3468C18.4682 11.9436 18.3347 12.3876 18.0676 12.6787C17.8029 12.9675 17.4178 13.1119 16.9125 13.1119C16.3927 13.1119 16.0004 12.9675 15.7357 12.6787C15.471 12.39 15.3387 11.9508 15.3387 11.3612C15.3387 10.7716 15.4734 10.3325 15.743 10.0437C16.0125 9.75252 16.4023 9.60693 16.9125 9.60693C17.4323 9.60693 17.8209 9.75252 18.0784 10.0437C18.3383 10.3325 18.4682 10.7668 18.4682 11.3468ZM12.487 9.27123C12.487 9.11963 12.4798 8.98126 12.4654 8.85612C12.4534 8.73099 12.4281 8.62631 12.3896 8.54208C12.3511 8.45786 12.2969 8.39529 12.2272 8.35438C12.1574 8.31106 12.0683 8.28941 11.96 8.28941C11.8445 8.28941 11.7543 8.31106 11.6893 8.35438C11.6243 8.39529 11.5714 8.45906 11.5305 8.54569C11.4944 8.6227 11.4691 8.72738 11.4547 8.85973C11.4403 8.99209 11.433 9.13046 11.433 9.27484C11.433 9.45292 11.4378 9.5949 11.4475 9.70078C11.4571 9.80426 11.4836 9.90412 11.5269 10.0004C11.563 10.0846 11.6159 10.1496 11.6857 10.1953C11.7579 10.2386 11.8493 10.2603 11.96 10.2603C12.0683 10.2603 12.1574 10.2386 12.2272 10.1953C12.2969 10.152 12.3511 10.087 12.3896 10.0004C12.4233 9.92337 12.4473 9.82471 12.4618 9.70439C12.4786 9.58407 12.487 9.43968 12.487 9.27123ZM17.4395 11.3576C17.4395 11.206 17.4323 11.0676 17.4178 10.9425C17.4058 10.8174 17.3805 10.7127 17.342 10.6285C17.3035 10.5442 17.2494 10.4817 17.1796 10.4408C17.1098 10.3974 17.0208 10.3758 16.9125 10.3758C16.797 10.3758 16.7067 10.3974 16.6418 10.4408C16.5768 10.4817 16.5238 10.5454 16.4829 10.6321C16.4468 10.7091 16.4216 10.8138 16.4071 10.9461C16.3927 11.0785 16.3855 11.2168 16.3855 11.3612C16.3855 11.5393 16.3903 11.6813 16.3999 11.7872C16.4095 11.8906 16.436 11.9905 16.4793 12.0868C16.5154 12.171 16.5684 12.236 16.6381 12.2817C16.7103 12.325 16.8018 12.3467 16.9125 12.3467C17.0208 12.3467 17.1098 12.325 17.1796 12.2817C17.2494 12.2384 17.3035 12.1734 17.342 12.0868C17.3757 12.0098 17.3998 11.9111 17.4142 11.7908C17.4311 11.6704 17.4395 11.5261 17.4395 11.3576Z" fill="#EA3934"/>
<path d="M13.1151 10.5924L12.4342 9.96769L12.4339 9.96795L13.1151 10.5924ZM10.7905 7.95732L11.4661 8.58783L11.4687 8.58503L10.7905 7.95732ZM13.126 7.95732L12.4337 8.56948L12.4391 8.57549L13.126 7.95732ZM16.3097 7.62523L17.1282 8.05403L17.8369 6.70116H16.3097V7.62523ZM13.4941 13V13.9241H14.0533L14.3127 13.4288L13.4941 13ZM12.5412 13L11.7226 12.5712L11.0139 13.9241H12.5412V13ZM15.3567 7.62523V6.70116H14.7976L14.5382 7.19644L15.3567 7.62523ZM18.0676 12.6787L17.3866 12.0541L17.3864 12.0543L18.0676 12.6787ZM15.743 10.0437L16.4185 10.6742L16.4211 10.6714L15.743 10.0437ZM18.0784 10.0437L17.3861 10.6559L17.3915 10.6619L18.0784 10.0437ZM12.4654 8.85612L11.5456 8.94457L11.5464 8.95331L11.5474 8.96204L12.4654 8.85612ZM12.2272 8.35438L11.7398 9.13951L11.7498 9.14567L11.7598 9.15157L12.2272 8.35438ZM11.6893 8.35438L12.1817 9.13636L12.1919 9.12994L12.2019 9.12325L11.6893 8.35438ZM11.5305 8.54569L10.6949 8.15111L10.6938 8.15349L11.5305 8.54569ZM11.4475 9.70078L10.5272 9.78444L10.5274 9.78637L11.4475 9.70078ZM11.5269 10.0004L12.3762 9.63637L12.373 9.62874L12.3696 9.62117L11.5269 10.0004ZM11.6857 10.1953L11.1793 10.9683L11.1946 10.9783L11.2103 10.9877L11.6857 10.1953ZM12.3896 10.0004L13.234 10.3757L13.2362 10.3708L12.3896 10.0004ZM12.4618 9.70439L11.5466 9.57627L11.5454 9.58527L11.5443 9.59429L12.4618 9.70439ZM17.4178 10.9425L16.498 11.0309L16.4988 11.0397L16.4999 11.0484L17.4178 10.9425ZM17.1796 10.4408L16.6923 11.2259L16.7022 11.232L16.7123 11.238L17.1796 10.4408ZM16.6418 10.4408L17.1341 11.2227L17.1443 11.2163L17.1543 11.2096L16.6418 10.4408ZM16.4829 10.6321L15.6473 10.2375L15.6462 10.2399L16.4829 10.6321ZM16.3999 11.7872L15.4796 11.8708L15.4798 11.8727L16.3999 11.7872ZM16.4793 12.0868L17.3287 11.7227L17.3254 11.7151L17.322 11.7076L16.4793 12.0868ZM16.6381 12.2817L16.1317 13.0546L16.147 13.0647L16.1627 13.0741L16.6381 12.2817ZM17.342 12.0868L18.1865 12.4621L18.1886 12.4571L17.342 12.0868ZM17.4142 11.7908L16.4991 11.6626L16.4978 11.6716L16.4967 11.6807L17.4142 11.7908ZM12.5917 9.2604C12.5917 9.74075 12.4816 9.91602 12.4342 9.96769L13.7961 11.217C14.2829 10.6864 14.4399 9.97364 14.4399 9.2604H12.5917ZM12.4339 9.96795C12.3917 10.0141 12.286 10.1015 11.96 10.1015V11.9496C12.6448 11.9496 13.3092 11.7482 13.7963 11.2168L12.4339 9.96795ZM11.96 10.1015C11.6104 10.1015 11.502 10.0089 11.4645 9.96795L10.1021 11.2168C10.594 11.7534 11.2701 11.9496 11.96 11.9496V10.1015ZM11.4645 9.96795C11.4188 9.91812 11.3103 9.74698 11.3103 9.27484H9.46216C9.46216 9.98185 9.61837 10.6891 10.1021 11.2168L11.4645 9.96795ZM11.3103 9.27484C11.3103 8.80633 11.4195 8.63772 11.4661 8.58783L10.115 7.32681C9.62249 7.85446 9.46216 8.5642 9.46216 9.27484H11.3103ZM11.4687 8.58503C11.5166 8.53327 11.6294 8.44462 11.96 8.44462V6.59648C11.2704 6.59648 10.6035 6.79901 10.1124 7.32961L11.4687 8.58503ZM11.96 8.44462C12.3091 8.44462 12.4055 8.53758 12.4337 8.56946L13.8182 7.34518C13.3314 6.7947 12.6506 6.59648 11.96 6.59648V8.44462ZM12.4391 8.57549C12.4861 8.6277 12.5917 8.79906 12.5917 9.2604H14.4399C14.4399 8.56184 14.2856 7.86448 13.8128 7.33915L12.4391 8.57549ZM15.4911 7.19644L12.6756 12.5712L14.3127 13.4288L17.1282 8.05403L15.4911 7.19644ZM13.4941 12.0759H12.5412V13.9241H13.4941V12.0759ZM13.3598 13.4288L16.1753 8.05403L14.5382 7.19644L11.7226 12.5712L13.3598 13.4288ZM15.3567 8.5493H16.3097V6.70116H15.3567V8.5493ZM17.5442 11.3468C17.5442 11.8271 17.434 12.0024 17.3866 12.0541L18.7485 13.3034C19.2353 12.7727 19.3923 12.06 19.3923 11.3468H17.5442ZM17.3864 12.0543C17.3441 12.1005 17.2384 12.1878 16.9125 12.1878V14.036C17.5972 14.036 18.2616 13.8346 18.7488 13.3032L17.3864 12.0543ZM16.9125 12.1878C16.5629 12.1878 16.4544 12.0953 16.4169 12.0543L15.0546 13.3032C15.5465 13.8398 16.2225 14.036 16.9125 14.036V12.1878ZM16.4169 12.0543C16.3712 12.0045 16.2627 11.8334 16.2627 11.3612H14.4146C14.4146 12.0682 14.5708 12.7754 15.0546 13.3032L16.4169 12.0543ZM16.2627 11.3612C16.2627 10.8927 16.3719 10.7241 16.4185 10.6742L15.0674 9.41319C14.5749 9.94084 14.4146 10.6506 14.4146 11.3612H16.2627ZM16.4211 10.6714C16.469 10.6196 16.5818 10.531 16.9125 10.531V8.68286C16.2228 8.68286 15.5559 8.88539 15.0648 9.41599L16.4211 10.6714ZM16.9125 10.531C17.2615 10.531 17.358 10.624 17.3862 10.6558L18.7706 9.43156C18.2838 8.88107 17.603 8.68286 16.9125 8.68286V10.531ZM17.3915 10.6619C17.4385 10.7141 17.5442 10.8854 17.5442 11.3468H19.3923C19.3923 10.6482 19.238 9.95085 18.7653 9.42553L17.3915 10.6619ZM13.4111 9.27123C13.4111 9.09109 13.4026 8.91671 13.3834 8.7502L11.5474 8.96204C11.5571 9.0458 11.563 9.14816 11.563 9.27123H13.4111ZM13.3852 8.76768C13.3666 8.5743 13.3235 8.36234 13.23 8.15789L11.5492 8.92627C11.5402 8.90673 11.5382 8.89671 11.5391 8.90059C11.5401 8.9044 11.543 8.91828 11.5456 8.94457L13.3852 8.76768ZM13.23 8.15789C13.1244 7.92683 12.9511 7.70761 12.6945 7.55719L11.7598 9.15157C11.6428 9.08297 11.5778 8.98889 11.5492 8.92627L13.23 8.15789ZM12.7145 7.56925C12.4587 7.4105 12.187 7.36534 11.96 7.36534V9.21348C11.9497 9.21348 11.856 9.21163 11.7398 9.13951L12.7145 7.56925ZM11.96 7.36534C11.7446 7.36534 11.45 7.4033 11.1767 7.58551L12.2019 9.12325C12.1285 9.17216 12.0626 9.1943 12.0214 9.2042C11.9812 9.21386 11.9581 9.21348 11.96 9.21348V7.36534ZM11.197 7.5724C10.95 7.72788 10.7924 7.94464 10.6949 8.15111L12.3661 8.94028C12.3504 8.97348 12.2987 9.0627 12.1817 9.13636L11.197 7.5724ZM10.6938 8.15349C10.5972 8.35952 10.556 8.5765 10.5361 8.75952L12.3733 8.95994C12.3752 8.94256 12.3772 8.9288 12.3789 8.91832C12.3807 8.9078 12.3821 8.90146 12.3827 8.89878C12.3834 8.89604 12.383 8.89818 12.3809 8.90433C12.3789 8.91043 12.3746 8.92207 12.3672 8.9379L10.6938 8.15349ZM10.5361 8.75952C10.5177 8.9278 10.509 9.09975 10.509 9.27484H12.3571C12.3571 9.16116 12.3628 9.05637 12.3733 8.95994L10.5361 8.75952ZM10.509 9.27484C10.509 9.46495 10.5139 9.63846 10.5272 9.78444L12.3677 9.61712C12.3618 9.55133 12.3571 9.44088 12.3571 9.27484H10.509ZM10.5274 9.78637C10.5466 9.99292 10.5997 10.1919 10.6842 10.3796L12.3696 9.62117C12.3682 9.61807 12.3678 9.61663 12.3678 9.61653C12.3677 9.61644 12.3677 9.61618 12.3676 9.61519L10.5274 9.78637ZM10.6775 10.3644C10.7779 10.5986 10.9426 10.8132 11.1793 10.9683L12.1921 9.42235C12.2892 9.48598 12.3481 9.57063 12.3762 9.63637L10.6775 10.3644ZM11.2103 10.9877C11.4645 11.1402 11.7333 11.1843 11.96 11.1843V9.33621C11.9654 9.33621 12.0513 9.33699 12.1611 9.40292L11.2103 10.9877ZM11.96 11.1843C12.187 11.1843 12.4587 11.1392 12.7145 10.9804L11.7398 9.41017C11.856 9.33805 11.9497 9.33621 11.96 9.33621V11.1843ZM12.7145 10.9804C12.965 10.825 13.1322 10.6048 13.234 10.3757L11.5452 9.62508C11.57 9.56926 11.6289 9.47901 11.7398 9.41017L12.7145 10.9804ZM13.2362 10.3708C13.3182 10.1832 13.3584 9.98859 13.3793 9.81449L11.5443 9.59429C11.5407 9.62456 11.537 9.64225 11.5352 9.64966C11.5333 9.65744 11.5346 9.64923 11.543 9.63L13.2362 10.3708ZM13.3769 9.83251C13.4015 9.65706 13.4111 9.46748 13.4111 9.27123H11.563C11.563 9.41188 11.5558 9.51108 11.5466 9.57627L13.3769 9.83251ZM18.3636 11.3576C18.3636 11.1775 18.355 11.0031 18.3358 10.8366L16.4999 11.0484C16.5095 11.1322 16.5154 11.2345 16.5154 11.3576H18.3636ZM18.3377 10.8541C18.3191 10.6607 18.2759 10.4487 18.1824 10.2443L16.5016 11.0127C16.4927 10.9931 16.4906 10.9831 16.4916 10.987C16.4925 10.9908 16.4955 11.0047 16.498 11.0309L18.3377 10.8541ZM18.1824 10.2443C18.0768 10.0132 17.9035 9.79399 17.6469 9.64356L16.7123 11.238C16.5952 11.1693 16.5302 11.0753 16.5016 11.0127L18.1824 10.2443ZM17.6669 9.65563C17.4111 9.49687 17.1394 9.45171 16.9125 9.45171V11.2999C16.9021 11.2999 16.8085 11.298 16.6923 11.2259L17.6669 9.65563ZM16.9125 9.45171C16.697 9.45171 16.4025 9.48968 16.1292 9.67189L17.1543 11.2096C17.081 11.2585 17.0151 11.2807 16.9738 11.2906C16.9336 11.3002 16.9105 11.2999 16.9125 11.2999V9.45171ZM16.1494 9.65878C15.9025 9.81426 15.7448 10.031 15.6473 10.2375L17.3185 11.0267C17.3028 11.0599 17.2511 11.1491 17.1341 11.2227L16.1494 9.65878ZM15.6462 10.2399C15.5496 10.4459 15.5085 10.6629 15.4885 10.8459L17.3257 11.0463C17.3276 11.0289 17.3296 11.0152 17.3314 11.0047C17.3331 10.9942 17.3345 10.9878 17.3352 10.9852C17.3358 10.9824 17.3355 10.9846 17.3334 10.9907C17.3313 10.9968 17.3271 11.0085 17.3196 11.0243L15.6462 10.2399ZM15.4885 10.8459C15.4702 11.0142 15.4614 11.1861 15.4614 11.3612H17.3095C17.3095 11.2475 17.3152 11.1427 17.3257 11.0463L15.4885 10.8459ZM15.4614 11.3612C15.4614 11.5513 15.4664 11.7248 15.4796 11.8708L17.3202 11.7035C17.3142 11.6377 17.3095 11.5273 17.3095 11.3612H15.4614ZM15.4798 11.8727C15.499 12.0793 15.5522 12.2783 15.6366 12.466L17.322 11.7076C17.3206 11.7044 17.3202 11.703 17.3202 11.7029C17.3202 11.7028 17.3201 11.7026 17.32 11.7016L15.4798 11.8727ZM15.63 12.4508C15.7303 12.685 15.895 12.8996 16.1317 13.0546L17.1446 11.5087C17.2417 11.5724 17.3005 11.657 17.3287 11.7227L15.63 12.4508ZM16.1627 13.0741C16.417 13.2266 16.6857 13.2707 16.9125 13.2707V11.4226C16.9179 11.4226 17.0037 11.4234 17.1136 11.4893L16.1627 13.0741ZM16.9125 13.2707C17.1394 13.2707 17.4111 13.2256 17.6669 13.0668L16.6923 11.4966C16.8085 11.4244 16.9021 11.4226 16.9125 11.4226V13.2707ZM17.6669 13.0668C17.9174 12.9113 18.0846 12.6911 18.1865 12.4621L16.4976 11.7115C16.5224 11.6556 16.5814 11.5654 16.6923 11.4966L17.6669 13.0668ZM18.1886 12.4571C18.2707 12.2696 18.3108 12.075 18.3317 11.9009L16.4967 11.6807C16.4931 11.7109 16.4894 11.7286 16.4876 11.736C16.4857 11.7438 16.487 11.7356 16.4954 11.7164L18.1886 12.4571ZM18.3294 11.9189C18.3539 11.7434 18.3636 11.5539 18.3636 11.3576H16.5154C16.5154 11.4983 16.5082 11.5975 16.4991 11.6626L18.3294 11.9189Z" fill="white" mask="url(#path-2-outside-1_1653_36767)"/>
</svg>
