<svg xmlns="http://www.w3.org/2000/svg" width="28" height="29" fill="none" viewBox="0 0 28 29">
    <path fill="#000" stroke="#000" stroke-width=".25" d="M16.852 11.817h-1.847v-1.93c.002-.39-.298-.708-.67-.71h-2.666c-.373 0-.675.315-.675.705v1.93H9.152c-.373-.002-.677.311-.68.7V15.3c0 .39.303.706.675.706h1.847v1.926c-.002.39.297.707.67.71h2.662c.372 0 .674-.316.674-.706v-1.93h1.847c.373.002.677-.312.68-.7v-2.784c0-.389-.303-.705-.675-.705Zm-.231 3.242h-2.069a.463.463 0 0 0-.453.473v2.163h-2.2v-2.163a.463.463 0 0 0-.452-.473H9.378v-2.295h2.069c.25 0 .452-.212.452-.473v-2.168h2.196v2.163c0 .261.203.473.453.473h2.073z"/>
    <path fill="#000" stroke="#000" stroke-width=".25" d="M20.877 5.636h-3.73V3.971c.023-.76-.547-1.397-1.275-1.421q-.056-.002-.11 0h-5.523c-.727-.039-1.347.545-1.384 1.304a1 1 0 0 0-.002.117v1.656h-3.73C3.683 5.627 2 6.484 2 8.892v10.294c0 2.409 1.684 3.265 3.123 3.265h15.753c1.44 0 3.124-.857 3.124-3.265V8.902c0-2.409-1.68-3.266-3.123-3.266ZM9.759 3.971c0-.138 0-.507.484-.507h5.518c.485 0 .485.365.485.507v1.656H9.759zm13.336 15.215c0 2.091-1.548 2.319-2.218 2.319H5.123c-.665 0-2.218-.228-2.218-2.32V8.903c0-2.092 1.549-2.319 2.218-2.319h15.753c.666 0 2.219.227 2.219 2.319z"/>
</svg>
