<svg xmlns="http://www.w3.org/2000/svg" width="28" height="29" fill="none" viewBox="0 0 28 29">
    <path fill="#000" stroke="#fff" stroke-width=".5" d="m5.93 25.252 7.34-2.917V7.89h-1.458c-1.517 0-2.694.848-3.732 1.596-.717.516-1.403 1.01-2.15 1.218V7.889H4.47V6.305A2.19 2.19 0 0 0 5.93 4.243a2.19 2.19 0 0 0-2.188-2.187 2.19 2.19 0 0 0-2.187 2.187c0 .95.61 1.761 1.458 2.062V7.89H1.555v19.055H5.93zM3.742 3.514a.73.73 0 1 1-.001 1.46.73.73 0 0 1 .001-1.46ZM5.93 23.683V22.11l5.882-2.338v1.572zm3.002-13.015c.943-.68 1.833-1.32 2.88-1.32v8.856L5.93 20.541v-8.343c1.175-.214 2.137-.906 3.002-1.53Zm-4.46 14.818H3.012V9.347h1.458zM26.442 4.243a2.19 2.19 0 0 0-2.188-2.187 2.19 2.19 0 0 0-2.187 2.187c0 .95.61 1.761 1.458 2.062V7.89h-1.458v2.814c-.747-.208-1.434-.702-2.15-1.218-1.039-.748-2.215-1.596-3.732-1.596h-1.458v14.446l7.34 2.917v1.692h4.375V7.89h-1.459V6.305a2.19 2.19 0 0 0 1.459-2.062Zm-7.378 6.425c.866.624 1.828 1.316 3.003 1.53v8.343l-5.882-2.337V9.347c1.046 0 1.937.642 2.88 1.321Zm-2.88 10.677v-1.572l5.883 2.338v1.572zm8.8 4.141h-1.459V9.347h1.459zm-.73-21.972a.73.73 0 1 1-.001 1.46.73.73 0 0 1 .001-1.46Z"/>
</svg>
