<svg xmlns="http://www.w3.org/2000/svg" width="28" height="29" fill="none" viewBox="0 0 28 29">
    <g clip-path="url(#a)">
        <path fill="#000" stroke="#fff" stroke-width=".5" d="M27.999 9.356c0-.693-.27-1.344-.76-1.833l-1.299-1.3.662-.661.011-.01a2.595 2.595 0 0 0 0-3.666c-.49-.49-1.14-.76-1.832-.76a2.58 2.58 0 0 0-1.846.772l-.66.66-1.299-1.299C20.486.77 19.836.5 19.143.5c-.692 0-1.343.27-1.832.76a2.6 2.6 0 0 0-.575.872 2.6 2.6 0 0 0-1.351-.38c-.692 0-1.343.27-1.833.76a2.595 2.595 0 0 0 0 3.666l2.552 2.551-7.876 7.876-2.552-2.552c-.49-.49-1.14-.759-1.833-.759-.692 0-1.343.27-1.833.76a2.596 2.596 0 0 0-.38 3.182 2.595 2.595 0 0 0-.873 4.241l1.3 1.3-.673.672c-.49.49-.76 1.14-.76 1.833 0 .692.27 1.343.76 1.832s1.14.76 1.833.76a2.58 2.58 0 0 0 1.833-.76l.672-.672 1.3 1.299c.489.49 1.14.759 1.832.759s1.344-.27 1.833-.76c.257-.256.448-.554.575-.872.402.247.866.38 1.35.38.693 0 1.344-.27 1.833-.76.49-.49.76-1.14.76-1.833 0-.692-.27-1.343-.76-1.832l-2.552-2.552 7.877-7.876 2.552 2.551c.49.49 1.14.76 1.832.76s1.343-.27 1.833-.76c.49-.489.76-1.14.76-1.832 0-.484-.133-.948-.38-1.35.323-.13.62-.323.873-.576.49-.49.759-1.14.759-1.832ZM3.9 25.943l-.012.011a.95.95 0 0 1-.672.279.95.95 0 0 1-.673-.279.95.95 0 0 1-.278-.672c0-.254.099-.493.278-.673l.673-.673 1.345 1.346zM23.435 3.718l.672-.672.01-.01a.95.95 0 0 1 .664-.269.953.953 0 0 1 .672 1.625l-.672.672-.673-.673zM18.471 2.42a.95.95 0 0 1 .672-.278c.254 0 .493.099.673.278l3.132 3.132L24.2 6.804l1.879 1.879c.18.18.278.419.278.673a.95.95 0 0 1-.278.672.95.95 0 0 1-.673.279.95.95 0 0 1-.672-.278L18.47 3.763a.953.953 0 0 1 .002-1.344ZM9.527 26.581a.95.95 0 0 1-.673.278.95.95 0 0 1-.672-.278l-1.88-1.879-.398-.399-3.986-3.986a.953.953 0 0 1 1.345-1.346L9.53 25.24a.95.95 0 0 1-.004 1.342Zm4.037-1.926a.95.95 0 0 1-.279.673.95.95 0 0 1-.673.279.95.95 0 0 1-.672-.279l-1.246-1.245-.007-.008-6.264-6.263-1.252-1.253a.952.952 0 0 1 1.345-1.346l3.131 3.132 2.35 2.35 3.288 3.288c.18.18.279.418.279.672Zm-2.83-5.544-.673-.673-.673-.673 7.876-7.876 1.346 1.346zm14.093-5.325a.95.95 0 0 1-.673.279.95.95 0 0 1-.673-.279l-3.13-3.13-.001-.002-2.506-2.505-.001-.001-3.13-3.13a.953.953 0 0 1 .672-1.625c.254 0 .493.1.673.279l1.249 1.249.003.004 6.264 6.263.002.002 1.251 1.25c.18.18.279.42.279.674a.95.95 0 0 1-.28.672Z"/>
    </g>
    <defs>
        <clipPath id="a">
            <path fill="#fff" d="M0 .5h28v28H0z"/>
        </clipPath>
    </defs>
</svg>
