<svg xmlns="http://www.w3.org/2000/svg" width="28" height="29" fill="none" viewBox="0 0 28 29">
    <path fill="#000" d="M.41 15.657a.41.41 0 0 0 .41-.41V3.875c0-.376.307-.683.684-.683h17.08a.41.41 0 1 0 0-.82H1.505C.674 2.372 0 3.046 0 3.875v11.372c0 .226.184.41.41.41"/>
    <path fill="#000" d="M26.496 2.372H20.5a.41.41 0 1 0 0 .82h5.997c.377 0 .684.307.684.684v17.447a.684.684 0 0 1-.684.683h-5.51l-.031-2.107h2.143a1.59 1.59 0 0 0 1.53 1.175c.875 0 1.586-.711 1.586-1.585 0-.732-.5-1.35-1.175-1.531V7.24a1.59 1.59 0 0 0 1.175-1.531c0-.874-.711-1.585-1.585-1.585-.732 0-1.35.499-1.531 1.175H15.53A1.59 1.59 0 0 0 14 4.125c-.732 0-1.35.499-1.53 1.175H4.901a1.59 1.59 0 0 0-1.53-1.175c-.875 0-1.586.71-1.586 1.585 0 .732.5 1.35 1.175 1.53v10.718a1.59 1.59 0 0 0-1.175 1.53c0 .875.711 1.586 1.585 1.586.732 0 1.35-.5 1.531-1.175h7.567A1.59 1.59 0 0 0 14 21.074c.732 0 1.35-.5 1.53-1.175h2.6l-.033 2.107H1.504a.684.684 0 0 1-.684-.683V17.16a.41.41 0 1 0-.82 0v4.162c0 .829.675 1.504 1.504 1.504h16.58l-.035 2.385a.41.41 0 1 0 .82.012l.19-12.579h.965l.19 12.58a.41.41 0 0 0 .41.403h.007a.41.41 0 0 0 .404-.416l-.036-2.385h5.497c.83 0 1.504-.675 1.504-1.504V3.876c0-.83-.675-1.504-1.504-1.504m-1.102 17.117a.765.765 0 1 1-1.531-.002.765.765 0 0 1 1.53.002m-.765-14.544a.766.766 0 0 1 0 1.53.766.766 0 0 1 0-1.53M14 4.945a.766.766 0 0 1 0 1.53.765.765 0 0 1 0-1.53M2.607 5.71a.765.765 0 1 1 1.53.001.765.765 0 0 1-1.53-.001m.764 14.543a.765.765 0 1 1 .002-1.53.765.765 0 0 1-.002 1.53m10.629 0a.765.765 0 1 1 .002-1.53.765.765 0 0 1-.002 1.53m1.53-1.174A1.59 1.59 0 0 0 14 17.904c-.732 0-1.35.499-1.53 1.175H4.901a1.59 1.59 0 0 0-1.12-1.121V7.24a1.59 1.59 0 0 0 1.12-1.12h7.567A1.59 1.59 0 0 0 14 7.294c.733 0 1.35-.5 1.532-1.175h7.567a1.59 1.59 0 0 0 1.12 1.12v10.718a1.59 1.59 0 0 0-1.12 1.12h-2.156l-.144-9.527a.8.8 0 0 0-.795-.784h-.922a.8.8 0 0 0-.795.784l-.144 9.528zm3.542-7.254.034-2.237h.872l.034 2.237z"/>
    <path fill="#000" d="M13.999 10.296a2.306 2.306 0 0 0-2.304 2.303 2.306 2.306 0 0 0 2.303 2.303 2.306 2.306 0 0 0 2.304-2.303 2.306 2.306 0 0 0-2.303-2.303m0 3.786a1.485 1.485 0 0 1-1.483-1.483c0-.818.665-1.483 1.483-1.483.817 0 1.482.665 1.482 1.483s-.665 1.483-1.482 1.483"/>
</svg>
