<svg xmlns="http://www.w3.org/2000/svg" width="28" height="29" fill="none" viewBox="0 0 28 29">
    <path fill="#000" stroke="#000" stroke-width=".25" d="M1.751 19.672q.286-.003.57.041.022.007.045.01c.403.08.785.239 1.128.465.692.46 1.508.696 2.339.679.822.02 1.63-.213 2.316-.666l.023-.012a2.95 2.95 0 0 1 1.742-.517 3 3 0 0 1 1.748.516 4.05 4.05 0 0 0 2.333.679c.83.015 1.646-.22 2.34-.678a2.95 2.95 0 0 1 1.742-.517c.626-.014 1.24.169 1.757.522.69.455 1.503.69 2.33.673a4 4 0 0 0 1.626-.304q.369-.162.712-.374a3.07 3.07 0 0 1 1.75-.517.583.583 0 0 0 0-1.167 4 4 0 0 0-.678.048 4.2 4.2 0 0 0-1.662.63 5 5 0 0 1-.578.307c-.37.151-.77.223-1.17.21a2.97 2.97 0 0 1-1.761-.525 4.2 4.2 0 0 0-1.615-.618l-4.806-7.02 6.159-3.083a2.07 2.07 0 0 0 .733-3.09 2.105 2.105 0 0 0-2.539-.625l-8.51 4.029a2.375 2.375 0 0 0-1.045 3.325l1.13 2.011-7.544 4.441a5 5 0 0 0-.615-.04.583.583 0 0 0 0 1.167Zm8.755-4.565a1.18 1.18 0 0 0 .422-1.602l-1.136-1.992a1.21 1.21 0 0 1 .533-1.691l8.508-4.027a.896.896 0 0 1 1.26 1.023.88.88 0 0 1-.473.592l-6.157 3.082a1.17 1.17 0 0 0-.64 1.258c.029.168.094.328.19.468l4.358 6.338a4.2 4.2 0 0 0-1.628.627 2.95 2.95 0 0 1-1.748.517 2.96 2.96 0 0 1-1.755-.525 4.1 4.1 0 0 0-2.326-.67 4.05 4.05 0 0 0-2.321.67l-.027.015a2.9 2.9 0 0 1-1.733.51 2.97 2.97 0 0 1-1.75-.519l-.253-.145zM26.251 22.09a4.1 4.1 0 0 0-2.337.678 3.21 3.21 0 0 1-3.498 0 4.37 4.37 0 0 0-4.674 0 2.97 2.97 0 0 1-1.747.517 2.96 2.96 0 0 1-1.745-.517 4.08 4.08 0 0 0-2.335-.678 4.1 4.1 0 0 0-2.336.678 2.96 2.96 0 0 1-1.746.517 2.97 2.97 0 0 1-1.747-.517 4.08 4.08 0 0 0-2.335-.678.583.583 0 0 0 0 1.167 2.96 2.96 0 0 1 1.746.518 4.1 4.1 0 0 0 2.336.677 4.1 4.1 0 0 0 2.336-.677 2.96 2.96 0 0 1 1.746-.518 2.96 2.96 0 0 1 1.745.518 4.08 4.08 0 0 0 2.335.677c.83.017 1.645-.219 2.336-.677a3.21 3.21 0 0 1 3.496 0 4.37 4.37 0 0 0 4.676 0 2.97 2.97 0 0 1 1.748-.518.583.583 0 0 0 0-1.167Z"/>
    <path fill="#000" stroke="#000" stroke-width=".25" d="M17.898 13.71a4.169 4.169 0 1 0 8.338 0 4.169 4.169 0 0 0-8.338 0Zm4.169-3.002a3.001 3.001 0 1 1 0 6.003 3.001 3.001 0 0 1 0-6.003Z"/>
</svg>
