<svg width="40" height="40" viewBox="0 0 40 40" fill="none" xmlns="http://www.w3.org/2000/svg">
<g opacity="1">
<g clip-path="url(#clip0_763_6824)">
<path d="M34.0776 17.8183L21.0413 7.89101C20.4413 7.4001 19.5685 7.4001 18.914 7.89101L5.93218 17.7637C5.60491 17.9819 5.27763 18.1456 4.89581 18.1456C3.25945 18.1456 2.49581 16.0728 3.80491 15.0365L17.714 4.12737C19.0231 3.09101 20.8776 3.09101 22.1867 4.12737L36.2049 15.0365C37.514 16.0728 36.8049 18.1456 35.114 18.1456C34.7322 18.1456 34.4049 18.0365 34.0776 17.8183Z" stroke="black" stroke-width="1.09091" stroke-miterlimit="10" stroke-linecap="round" stroke-linejoin="round"/>
<path d="M11.2215 9.2003V6.14575H7.78516V11.9276" stroke="black" stroke-width="1.09091" stroke-miterlimit="10" stroke-linecap="round" stroke-linejoin="round"/>
<path d="M6.69531 3.58203H12.3135V6.14567H6.69531V3.58203Z" stroke="black" stroke-width="1.09091" stroke-miterlimit="10" stroke-linecap="round" stroke-linejoin="round"/>
<path d="M19.9457 18.9089C21.5122 18.9089 22.7821 17.639 22.7821 16.0726C22.7821 14.5061 21.5122 13.2362 19.9457 13.2362C18.3793 13.2362 17.1094 14.5061 17.1094 16.0726C17.1094 17.639 18.3793 18.9089 19.9457 18.9089Z" stroke="black" stroke-width="1.09091" stroke-miterlimit="10" stroke-linecap="round" stroke-linejoin="round"/>
<path d="M23.0003 28.5089C24.3094 28.5089 25.4548 27.5817 25.673 26.2726C25.7276 25.8362 25.7821 25.4544 25.7821 25.018C25.7821 21.7999 23.1639 20.9271 19.9457 20.9271C16.7276 20.9271 14.1094 21.7999 14.1094 25.018C14.1094 25.3999 14.1639 25.8362 14.2185 26.2726C14.4366 27.5817 15.5821 28.5089 16.8912 28.5089H23.0003Z" stroke="black" stroke-width="1.09091" stroke-miterlimit="10" stroke-linecap="round" stroke-linejoin="round"/>
<path d="M11.8173 24.2C11.8173 25.7818 10.5627 27.0364 8.9809 27.0364C7.39908 27.0364 6.14453 25.7818 6.14453 24.2C6.14453 22.6182 7.39908 21.3636 8.9809 21.3636C10.5627 21.3636 11.8173 22.6182 11.8173 24.2Z" stroke="black" stroke-width="1.09091" stroke-miterlimit="10" stroke-linecap="round" stroke-linejoin="round"/>
<path d="M12.0353 36.6363C13.3444 36.6363 14.4898 35.709 14.708 34.3999C14.7626 33.9635 14.8171 33.5817 14.8171 33.1454C14.8171 29.9272 12.1989 29.0544 8.98075 29.0544C5.76257 29.0544 3.08984 29.9272 3.08984 33.1999C3.08984 33.5817 3.14439 34.0181 3.19893 34.4544C3.41712 35.7635 4.56257 36.6908 5.87166 36.6908L12.0353 36.6363Z" stroke="black" stroke-width="1.09091" stroke-miterlimit="10" stroke-linecap="round" stroke-linejoin="round"/>
<path d="M33.907 24.1999C33.907 25.7817 32.6524 27.0363 31.0706 27.0363C29.4888 27.0363 28.1797 25.7817 28.1797 24.1999C28.1797 22.6181 29.4342 21.3635 31.0161 21.3635C32.5979 21.3635 33.907 22.6181 33.907 24.1999Z" stroke="black" stroke-width="1.09091" stroke-miterlimit="10" stroke-linecap="round" stroke-linejoin="round"/>
<path d="M34.1253 36.6363C35.4344 36.6363 36.5798 35.709 36.798 34.3999C36.8526 33.9635 36.9071 33.5817 36.9071 33.1454C36.9071 29.9272 34.2889 29.0544 31.0707 29.0544C27.8526 29.0544 25.2344 29.9272 25.2344 33.1454C25.2344 33.5272 25.2889 33.9635 25.3435 34.3999C25.5616 35.709 26.7071 36.6363 28.0162 36.6363H34.1253Z" stroke="black" stroke-width="1.09091" stroke-miterlimit="10" stroke-linecap="round" stroke-linejoin="round"/>
<path d="M17.0547 21.3091L19.9456 24.2L22.782 21.3091" stroke="black" stroke-width="1.09091" stroke-miterlimit="10" stroke-linecap="round" stroke-linejoin="round"/>
<path d="M19.9453 24.2V28.509" stroke="black" stroke-width="1.09091" stroke-miterlimit="10" stroke-linecap="round" stroke-linejoin="round"/>
<path d="M21.9062 25.2908H23.379" stroke="black" stroke-width="1.09091" stroke-miterlimit="10" stroke-linecap="round" stroke-linejoin="round"/>
<path d="M6.09375 29.7635L8.93011 32.6545L11.821 29.7635" stroke="black" stroke-width="1.09091" stroke-miterlimit="10" stroke-linecap="round" stroke-linejoin="round"/>
<path d="M8.92969 32.6545V36.4727" stroke="black" stroke-width="1.09091" stroke-miterlimit="10" stroke-linecap="round" stroke-linejoin="round"/>
<path d="M10.9453 33.2544H12.418" stroke="black" stroke-width="1.09091" stroke-miterlimit="10" stroke-linecap="round" stroke-linejoin="round"/>
<path d="M28.1797 29.7635L31.0706 32.6545L33.907 29.7635" stroke="black" stroke-width="1.09091" stroke-miterlimit="10" stroke-linecap="round" stroke-linejoin="round"/>
<path d="M31.0703 32.6545V36.4727" stroke="black" stroke-width="1.09091" stroke-miterlimit="10" stroke-linecap="round" stroke-linejoin="round"/>
<path d="M33.0391 33.2544H34.5118" stroke="black" stroke-width="1.09091" stroke-miterlimit="10" stroke-linecap="round" stroke-linejoin="round"/>
</g>
</g>
<defs>
<clipPath id="clip0_763_6824">
<rect width="36" height="36" fill="white" transform="translate(2 2)"/>
</clipPath>
</defs>
</svg>
