<svg width="40" height="40" viewBox="0 0 40 40" fill="none" xmlns="http://www.w3.org/2000/svg">
<g opacity="1">
<g clip-path="url(#clip0_763_6784)">
<path d="M9.90625 34.25H2.78125C2.30883 34.25 1.85577 34.0623 1.52172 33.7283C1.18767 33.3942 1 32.9412 1 32.4688C1 31.9963 1.18767 31.5433 1.52172 31.2092C1.85577 30.8752 2.30883 30.6875 2.78125 30.6875H9.90625V31.875H2.78125C2.62378 31.875 2.47276 31.9376 2.36141 32.0489C2.25006 32.1603 2.1875 32.3113 2.1875 32.4688C2.1875 32.6262 2.25006 32.7772 2.36141 32.8886C2.47276 32.9999 2.62378 33.0625 2.78125 33.0625H9.90625V34.25Z" fill="black"/>
<path d="M5.15625 13.4688H6.34375V31.2812H5.15625V13.4688Z" fill="black"/>
<path d="M33.6562 13.4688H34.8438V24.75H33.6562V13.4688Z" fill="black"/>
<path d="M37.2188 15.8436C37.1184 15.8435 37.0198 15.818 36.932 15.7694L20 6.42796L3.06803 15.7694C2.97766 15.8193 2.87585 15.8447 2.77265 15.8432C2.66945 15.8417 2.56842 15.8134 2.47953 15.7609C2.39064 15.7085 2.31695 15.6337 2.26574 15.5441C2.21453 15.4545 2.18756 15.3531 2.1875 15.2499V12.2811C2.18757 12.175 2.21608 12.0708 2.27006 11.9795C2.32405 11.8881 2.40154 11.8129 2.49447 11.7616L19.7132 2.26162C19.8009 2.21285 19.8996 2.18726 20 2.18726C20.1004 2.18726 20.1991 2.21285 20.2868 2.26162L37.5055 11.7616C37.5985 11.8129 37.6759 11.8881 37.7299 11.9795C37.7839 12.0708 37.8124 12.175 37.8125 12.2811V15.2499C37.8125 15.4074 37.7499 15.5584 37.6386 15.6697C37.5272 15.7811 37.3762 15.8436 37.2188 15.8436ZM20 5.15615C20.1003 5.15626 20.199 5.18179 20.2868 5.23037L36.625 14.2441V12.6315L20 3.45921L3.375 12.6315V14.2441L19.7132 5.23037C19.801 5.18179 19.8997 5.15626 20 5.15615Z" fill="black"/>
<path d="M8.71875 31.2812H7.53125V15.8438C7.53125 15.6863 7.59381 15.5353 7.70516 15.4239C7.81651 15.3126 7.96753 15.25 8.125 15.25H16.4375C16.595 15.25 16.746 15.3126 16.8573 15.4239C16.9687 15.5353 17.0312 15.6863 17.0312 15.8438V24.75H15.8438V16.4375H8.71875V31.2812Z" fill="black"/>
<path d="M30.6875 23.5625H20C19.5276 23.5625 19.0745 23.3748 18.7405 23.0408C18.4064 22.7067 18.2188 22.2537 18.2188 21.7812V17.0312C18.2188 16.5588 18.4064 16.1058 18.7405 15.7717C19.0745 15.4377 19.5276 15.25 20 15.25H30.6875C31.1599 15.25 31.613 15.4377 31.947 15.7717C32.2811 16.1058 32.4688 16.5588 32.4688 17.0312V21.7812C32.4688 22.2537 32.2811 22.7067 31.947 23.0408C31.613 23.3748 31.1599 23.5625 30.6875 23.5625ZM20 16.4375C19.8425 16.4375 19.6915 16.5001 19.5802 16.6114C19.4688 16.7228 19.4062 16.8738 19.4062 17.0312V21.7812C19.4062 21.9387 19.4688 22.0897 19.5802 22.2011C19.6915 22.3124 19.8425 22.375 20 22.375H30.6875C30.845 22.375 30.996 22.3124 31.1073 22.2011C31.2187 22.0897 31.2812 21.9387 31.2812 21.7812V17.0312C31.2812 16.8738 31.2187 16.7228 31.1073 16.6114C30.996 16.5001 30.845 16.4375 30.6875 16.4375H20Z" fill="black"/>
<path d="M8.125 9.66281H6.9375V3.96875C6.9375 3.81128 7.00006 3.66026 7.11141 3.54891C7.22276 3.43756 7.37378 3.375 7.53125 3.375H12.2812C12.4387 3.375 12.5897 3.43756 12.7011 3.54891C12.8124 3.66026 12.875 3.81128 12.875 3.96875V7.03844H11.6875V4.5625H8.125V9.66281Z" fill="black"/>
<path d="M12.875 4.5625H6.9375C6.78003 4.5625 6.62901 4.49994 6.51766 4.38859C6.40631 4.27724 6.34375 4.12622 6.34375 3.96875V1.59375C6.34375 1.43628 6.40631 1.28526 6.51766 1.17391C6.62901 1.06256 6.78003 1 6.9375 1H12.875C13.0325 1 13.1835 1.06256 13.2948 1.17391C13.4062 1.28526 13.4688 1.43628 13.4688 1.59375V3.96875C13.4688 4.12622 13.4062 4.27724 13.2948 4.38859C13.1835 4.49994 13.0325 4.5625 12.875 4.5625ZM7.53125 3.375H12.2812V2.1875H7.53125V3.375Z" fill="black"/>
<path d="M36.0309 39H15.2497C15.1542 38.9999 15.0602 38.9769 14.9755 38.9327C14.8909 38.8886 14.8181 38.8247 14.7634 38.7465L10.6071 32.809C10.5374 32.7092 10.5 32.5905 10.5 32.4688C10.5 32.347 10.5374 32.2283 10.6071 32.1285L14.7634 26.191C14.8181 26.1128 14.8909 26.0489 14.9755 26.0048C15.0602 25.9606 15.1542 25.9376 15.2497 25.9375H36.0309C36.818 25.9384 37.5726 26.2515 38.1291 26.8081C38.6856 27.3646 38.9987 28.1192 38.9997 28.9062V36.0312C38.9987 36.8183 38.6856 37.5729 38.1291 38.1294C37.5726 38.686 36.818 38.9991 36.0309 39ZM15.559 37.8125H36.0309C36.5033 37.8125 36.9564 37.6248 37.2905 37.2908C37.6245 36.9567 37.8122 36.5037 37.8122 36.0312V28.9062C37.8122 28.4338 37.6245 27.9808 37.2905 27.6467C36.9564 27.3127 36.5033 27.125 36.0309 27.125H15.559L11.8184 32.4688L15.559 37.8125Z" fill="black"/>
<path d="M20 33.0625H17.625C17.4675 33.0625 17.3165 32.9999 17.2052 32.8886C17.0938 32.7772 17.0312 32.6262 17.0312 32.4688V30.0938C17.0312 29.9363 17.0938 29.7853 17.2052 29.6739C17.3165 29.5626 17.4675 29.5 17.625 29.5H20C20.4724 29.5 20.9255 29.6877 21.2595 30.0217C21.5936 30.3558 21.7812 30.8088 21.7812 31.2812C21.7812 31.7537 21.5936 32.2067 21.2595 32.5408C20.9255 32.8748 20.4724 33.0625 20 33.0625ZM18.2188 31.875H20C20.1575 31.875 20.3085 31.8124 20.4198 31.7011C20.5312 31.5897 20.5938 31.4387 20.5938 31.2812C20.5938 31.1238 20.5312 30.9728 20.4198 30.8614C20.3085 30.7501 20.1575 30.6875 20 30.6875H18.2188V31.875Z" fill="black"/>
<path d="M20.6359 35.6584L19.598 33.0625H18.2188V35.4375H17.0312V32.4688C17.0312 32.3113 17.0938 32.1603 17.2052 32.0489C17.3165 31.9376 17.4675 31.875 17.625 31.875H20C20.1187 31.8749 20.2347 31.9104 20.333 31.9768C20.4313 32.0433 20.5074 32.1377 20.5516 32.2479L21.7391 35.2166L20.6359 35.6584Z" fill="black"/>
<path d="M25.9375 33.0625H22.9688C22.8113 33.0625 22.6603 32.9999 22.5489 32.8886C22.4376 32.7772 22.375 32.6262 22.375 32.4688V30.6875C22.375 30.3726 22.5001 30.0705 22.7228 29.8478C22.9455 29.6251 23.2476 29.5 23.5625 29.5H26.5312V30.6875H23.5625V31.875H25.9375V33.0625Z" fill="black"/>
<path d="M26.5312 35.4375H23.5625C23.2476 35.4375 22.9455 35.3124 22.7228 35.0897C22.5001 34.867 22.375 34.5649 22.375 34.25V32.4688H23.5625V34.25H26.5312V35.4375Z" fill="black"/>
<path d="M31.2812 35.4375C31.1805 35.4375 31.0815 35.4119 30.9934 35.3631C30.9053 35.3143 30.8311 35.2438 30.7778 35.1584L28.9062 32.1642V35.4375H27.7188V30.0938C27.7187 29.9648 27.7607 29.8394 27.8383 29.7364C27.9159 29.6335 28.0249 29.5586 28.1488 29.523C28.2727 29.4875 28.4049 29.4932 28.5252 29.5394C28.6456 29.5856 28.7477 29.6697 28.816 29.7791L30.6875 32.7733V29.5H31.875V34.8438C31.875 35.0012 31.8124 35.1522 31.7011 35.2636C31.5897 35.3749 31.4387 35.4375 31.2812 35.4375Z" fill="black"/>
<path d="M33.0625 29.5H36.625V30.6875H33.0625V29.5Z" fill="black"/>
<path d="M34.25 30.0938H35.4375V35.4375H34.25V30.0938Z" fill="black"/>
<path d="M23.5625 15.8438H24.75V22.9688H23.5625V15.8438Z" fill="black"/>
<path d="M25.9375 15.8438H27.125V22.9688H25.9375V15.8438Z" fill="black"/>
<path d="M18.8125 18.8125H24.1562V20H18.8125V18.8125Z" fill="black"/>
<path d="M26.5312 18.8125H31.875V20H26.5312V18.8125Z" fill="black"/>
</g>
</g>
<defs>
<clipPath id="clip0_763_6784">
<rect width="38" height="38" fill="white" transform="translate(1 1)"/>
</clipPath>
</defs>
</svg>
