<svg width="40" height="40" viewBox="0 0 40 40" fill="none" xmlns="http://www.w3.org/2000/svg">
<g clip-path="url(#clip0_763_6812)">
<path d="M25.9453 25.6101C25.7899 25.6101 25.6409 25.6718 25.531 25.7817C25.4211 25.8916 25.3594 26.0406 25.3594 26.196V27.0781C25.3594 27.2335 25.4211 27.3825 25.531 27.4924C25.6409 27.6023 25.7899 27.664 25.9453 27.664C26.1007 27.664 26.2497 27.6023 26.3596 27.4924C26.4695 27.3825 26.5312 27.2335 26.5312 27.0781V26.196C26.5312 26.0406 26.4695 25.8916 26.3596 25.7817C26.2497 25.6718 26.1007 25.6101 25.9453 25.6101Z" fill="black"/>
<path d="M4.68828 16.3047H6.40703C6.56243 16.3047 6.71147 16.243 6.82135 16.1331C6.93124 16.0232 6.99297 15.8742 6.99297 15.7188C6.99297 15.5633 6.93124 15.4143 6.82135 15.3044C6.71147 15.1945 6.56243 15.1328 6.40703 15.1328H4.68828C3.80391 15.1328 3.08438 15.8719 3.08438 16.7797V16.832C3.08438 17.7406 3.80391 18.4789 4.68828 18.4789H5.38672C5.50536 18.4897 5.61569 18.5444 5.69604 18.6324C5.77638 18.7203 5.82093 18.8352 5.82093 18.9543C5.82093 19.0734 5.77638 19.1883 5.69604 19.2762C5.61569 19.3642 5.50536 19.4189 5.38672 19.4297H3.66797C3.51257 19.4297 3.36353 19.4914 3.25365 19.6013C3.14376 19.7112 3.08203 19.8602 3.08203 20.0156C3.08203 20.171 3.14376 20.3201 3.25365 20.4299C3.36353 20.5398 3.51257 20.6016 3.66797 20.6016H5.38672C6.27109 20.6016 6.99063 19.8625 6.99063 18.9547C6.99063 18.0469 6.27109 17.307 5.38672 17.307H4.68828C4.56814 17.301 4.45527 17.2476 4.37433 17.1586C4.29339 17.0696 4.25094 16.9522 4.25625 16.832V16.7797C4.25094 16.6595 4.29339 16.5421 4.37433 16.4531C4.45527 16.3641 4.56814 16.3108 4.68828 16.3047Z" fill="black"/>
<path d="M15.0547 19.4297H12.9062V15.7188C12.9062 15.5633 12.8445 15.4143 12.7346 15.3044C12.6247 15.1945 12.4757 15.1328 12.3203 15.1328C12.1649 15.1328 12.0159 15.1945 11.906 15.3044C11.7961 15.4143 11.7344 15.5633 11.7344 15.7188V20.0156C11.7344 20.171 11.7961 20.3201 11.906 20.4299C12.0159 20.5398 12.1649 20.6016 12.3203 20.6016H15.0547C15.2101 20.6016 15.3591 20.5398 15.469 20.4299C15.5789 20.3201 15.6406 20.171 15.6406 20.0156C15.6406 19.8602 15.5789 19.7112 15.469 19.6013C15.3591 19.4914 15.2101 19.4297 15.0547 19.4297Z" fill="black"/>
<path d="M19.3789 16.3047C19.5343 16.3047 19.6833 16.243 19.7932 16.1331C19.9031 16.0232 19.9648 15.8742 19.9648 15.7188C19.9648 15.5633 19.9031 15.4143 19.7932 15.3044C19.6833 15.1945 19.5343 15.1328 19.3789 15.1328H16.6445C16.4891 15.1328 16.3401 15.1945 16.2302 15.3044C16.1203 15.4143 16.0586 15.5633 16.0586 15.7188V20.0156C16.0586 20.171 16.1203 20.3201 16.2302 20.4299C16.3401 20.5398 16.4891 20.6016 16.6445 20.6016H19.3789C19.5343 20.6016 19.6833 20.5398 19.7932 20.4299C19.9031 20.3201 19.9648 20.171 19.9648 20.0156C19.9648 19.8602 19.9031 19.7112 19.7932 19.6013C19.6833 19.4914 19.5343 19.4297 19.3789 19.4297H17.2305V18.4531H19.3789C19.5343 18.4531 19.6833 18.3914 19.7932 18.2815C19.9031 18.1716 19.9648 18.0226 19.9648 17.8672C19.9648 17.7118 19.9031 17.5628 19.7932 17.4529C19.6833 17.343 19.5343 17.2812 19.3789 17.2812H17.2305V16.3047H19.3789Z" fill="black"/>
<path d="M9.91019 15.5187C9.86913 15.4056 9.79425 15.3079 9.6957 15.2388C9.59716 15.1697 9.47974 15.1327 9.35941 15.1327C9.23907 15.1327 9.12165 15.1697 9.02311 15.2388C8.92457 15.3079 8.84968 15.4056 8.80863 15.5187L7.24613 19.8156C7.21986 19.8879 7.2081 19.9647 7.21151 20.0416C7.21493 20.1185 7.23345 20.1939 7.26602 20.2636C7.2986 20.3334 7.34458 20.396 7.40136 20.4479C7.45813 20.4999 7.52458 20.5401 7.59691 20.5664C7.66924 20.5926 7.74603 20.6044 7.82291 20.601C7.89978 20.5976 7.97523 20.5791 8.04495 20.5465C8.11466 20.5139 8.17728 20.4679 8.22923 20.4111C8.28117 20.3544 8.32142 20.2879 8.34769 20.2156L8.58675 19.5593H10.1328L10.3672 20.2156C10.3935 20.2879 10.4337 20.3544 10.4857 20.4111C10.5376 20.4679 10.6002 20.5139 10.67 20.5465C10.7397 20.5791 10.8151 20.5976 10.892 20.601C10.9689 20.6044 11.0457 20.5926 11.118 20.5664C11.1903 20.5401 11.2568 20.4999 11.3136 20.4479C11.3703 20.396 11.4163 20.3334 11.4489 20.2636C11.4815 20.1939 11.5 20.1185 11.5034 20.0416C11.5068 19.9647 11.495 19.8879 11.4688 19.8156L9.91019 15.5187ZM9.01253 18.3875L9.35941 17.4336L9.70628 18.3875H9.01253Z" fill="black"/>
<path d="M39.4141 34.3438H36.0852V15.7188L37.5602 16.5648C37.6496 16.6161 37.7509 16.6429 37.854 16.6425C37.957 16.642 38.0581 16.6144 38.1471 16.5625C38.2361 16.5105 38.3098 16.436 38.3608 16.3464C38.4118 16.2568 38.4382 16.1554 38.4375 16.0524V12.6805C38.4375 12.5773 38.4102 12.4759 38.3585 12.3866C38.3068 12.2973 38.2325 12.2233 38.143 12.1719L24.0305 4.07735C23.9416 4.02666 23.841 4 23.7387 4C23.6363 4 23.5358 4.02666 23.4469 4.07735L11.3227 11.0305H1.75781C1.2916 11.0309 0.844619 11.2163 0.515032 11.5461C0.185446 11.8758 0.000206836 12.3229 0 12.7891V22.9453C0.000413737 23.4114 0.185744 23.8583 0.515308 24.1878C0.844872 24.5174 1.29174 24.7027 1.75781 24.7031H9.375V34.3438H0.585938C0.430537 34.3438 0.281502 34.4055 0.171617 34.5154C0.0617325 34.6253 0 34.7743 0 34.9297C0 35.0851 0.0617325 35.2341 0.171617 35.344C0.281502 35.4539 0.430537 35.5156 0.585938 35.5156H39.4141C39.5695 35.5156 39.7185 35.4539 39.8284 35.344C39.9383 35.2341 40 35.0851 40 34.9297C40 34.7743 39.9383 34.6253 39.8284 34.5154C39.7185 34.4055 39.5695 34.3438 39.4141 34.3438ZM34.9133 34.3438H28.2938V21.3438C28.2938 21.1884 28.232 21.0393 28.1221 20.9294C28.0122 20.8196 27.8632 20.7578 27.7078 20.7578H23.0469V12.7891C23.0465 12.323 22.8611 11.8761 22.5316 11.5466C22.202 11.217 21.7551 11.0317 21.2891 11.0313H19.5586L23.7391 8.6336L34.9109 15.0399L34.9133 34.3438ZM19.1836 24.7031V34.3438H13.6719V24.7031H19.1836ZM20.3555 24.7031H21.2891C21.7551 24.7027 22.202 24.5174 22.5316 24.1878C22.8611 23.8583 23.0465 23.4114 23.0469 22.9453V21.9297H27.1219V34.3438H20.3555V24.7031ZM23.7391 5.26173L37.2656 13.0234V15.0453L24.0305 7.45001C23.9416 7.39932 23.841 7.37266 23.7387 7.37266C23.6363 7.37266 23.5358 7.39932 23.4469 7.45001L17.2031 11.0313H13.6781L23.7391 5.26173ZM1.17188 22.9453V12.7891C1.17188 12.6337 1.23361 12.4846 1.34349 12.3747C1.45338 12.2649 1.60241 12.2031 1.75781 12.2031H21.2891C21.4445 12.2031 21.5935 12.2649 21.7034 12.3747C21.8133 12.4846 21.875 12.6337 21.875 12.7891V22.9453C21.875 23.1007 21.8133 23.2498 21.7034 23.3596C21.5935 23.4695 21.4445 23.5313 21.2891 23.5313H1.75781C1.60241 23.5313 1.45338 23.4695 1.34349 23.3596C1.23361 23.2498 1.17188 23.1007 1.17188 22.9453ZM10.5469 24.7031H12.5V34.3438H10.5469V24.7031Z" fill="black"/>
</g>
<defs>
<clipPath id="clip0_763_6812">
<rect width="40" height="40" fill="white"/>
</clipPath>
</defs>
</svg>
