<svg width="28" height="29" viewBox="0 0 28 29" fill="none" xmlns="http://www.w3.org/2000/svg">
<path d="M15.6822 23.7399H3.08219C2.61792 23.7399 2.24219 23.3641 2.24219 22.8999V3.57987C2.24219 3.1156 2.61792 2.73987 3.08219 2.73987H15.6822C16.1465 2.73987 16.5222 3.1156 16.5222 3.57987V22.8999C16.5222 23.3641 16.1465 23.7399 15.6822 23.7399ZM3.92219 22.0599H14.8422V4.41987H3.92219V22.0599Z" fill="#222222" stroke="white" stroke-width="0.25"/>
<path d="M9.38125 9.45989C8.22297 9.45989 7.28125 8.51816 7.28125 7.35989C7.28125 6.20161 8.22297 5.25989 9.38125 5.25989C10.5395 5.25989 11.4813 6.20161 11.4813 7.35989C11.4813 8.51816 10.5395 9.45989 9.38125 9.45989ZM9.38125 6.93989C9.14991 6.93989 8.96125 7.12855 8.96125 7.35989C8.96125 7.59122 9.14991 7.77989 9.38125 7.77989C9.61259 7.77989 9.80125 7.59122 9.80125 7.35989C9.80125 7.12855 9.61259 6.93989 9.38125 6.93989Z" fill="#222222" stroke="white" stroke-width="0.25"/>
<path d="M6.44172 22.0598H5.60172C5.13745 22.0598 4.76172 21.684 4.76172 21.2198C4.76172 20.7555 5.13745 20.3798 5.60172 20.3798H6.44172C6.90599 20.3798 7.28172 20.7555 7.28172 21.2198C7.28172 21.684 6.90599 22.0598 6.44172 22.0598Z" fill="#222222" stroke="white" stroke-width="0.25"/>
<path d="M13.1644 22.0598H12.3244C11.8601 22.0598 11.4844 21.684 11.4844 21.2198C11.4844 20.7555 11.8601 20.3798 12.3244 20.3798H13.1644C13.6286 20.3798 14.0044 20.7555 14.0044 21.2198C14.0044 21.684 13.6286 22.0598 13.1644 22.0598Z" fill="#222222" stroke="white" stroke-width="0.25"/>
<path d="M9.805 22.0598H8.965C8.50073 22.0598 8.125 21.684 8.125 21.2198C8.125 20.7555 8.50073 20.3798 8.965 20.3798H9.805C10.2693 20.3798 10.645 20.7555 10.645 21.2198C10.645 21.684 10.2693 22.0598 9.805 22.0598Z" fill="#222222" stroke="white" stroke-width="0.25"/>
<path d="M24.0825 9.45985H22.4025C21.9382 9.45985 21.5625 9.08412 21.5625 8.61985V6.93985C21.5625 6.47559 21.9382 6.09985 22.4025 6.09985H24.0825C24.5468 6.09985 24.9225 6.47559 24.9225 6.93985V8.61985C24.9225 9.08412 24.5468 9.45985 24.0825 9.45985Z" fill="#222222" stroke="white" stroke-width="0.25"/>
<path d="M24.0827 14.4999H22.4027C22.0844 14.4999 21.794 14.3202 21.6513 14.0356L20.8113 12.3556C20.753 12.2391 20.7227 12.1103 20.7227 11.9799V9.45987C20.7227 8.99561 21.0984 8.61987 21.5627 8.61987H24.9227C25.3869 8.61987 25.7627 8.99561 25.7627 9.45987V11.9799C25.7627 12.1103 25.7323 12.2391 25.674 12.3556L24.834 14.0356C24.6913 14.3202 24.4009 14.4999 24.0827 14.4999ZM22.9219 12.8199H23.5635L24.0827 11.7814V10.2999H22.4027V11.7814L22.9219 12.8199Z" fill="#222222" stroke="white" stroke-width="0.25"/>
<path d="M21.5642 26.2599H14.8442C13.4546 26.2599 12.3242 25.1295 12.3242 23.7399C12.3242 23.2756 12.7 22.8999 13.1642 22.8999C13.6285 22.8999 14.0042 23.2756 14.0042 23.7399C14.0042 24.2034 14.3807 24.5799 14.8442 24.5799H21.5642C22.0277 24.5799 22.4042 24.2034 22.4042 23.7399V14.4999C22.4042 14.0356 22.78 13.6599 23.2442 13.6599C23.7085 13.6599 24.0842 14.0356 24.0842 14.4999V23.7399C24.0842 25.1295 22.9538 26.2599 21.5642 26.2599Z" fill="#222222" stroke="white" stroke-width="0.25"/>
<path d="M8.12125 18.6999C7.9063 18.6999 7.69142 18.6178 7.52737 18.4538C7.19927 18.1257 7.19927 17.5941 7.52737 17.2659L9.08599 15.7073L7.85556 15.2963C7.57912 15.2044 7.3708 14.9763 7.30351 14.6925C7.23707 14.4095 7.32157 14.1117 7.52746 13.9058L10.0475 11.3858C10.3756 11.0577 10.9071 11.0577 11.2353 11.3858C11.5635 11.714 11.5634 12.2455 11.2353 12.5737L9.67668 14.1323L10.9071 14.5433C11.1836 14.6352 11.3919 14.8633 11.4592 15.1471C11.5256 15.4301 11.4411 15.7279 11.2352 15.9338L8.71522 18.4538C8.55108 18.6178 8.33621 18.6999 8.12125 18.6999Z" fill="#222222" stroke="white" stroke-width="0.25"/>
</svg>
