<svg width="28" height="28" viewBox="0 0 28 28" fill="none" xmlns="http://www.w3.org/2000/svg">
<path d="M22.75 1.75C22.9218 1.75014 23.0897 1.80083 23.2328 1.89574C23.376 1.99065 23.488 2.1256 23.555 2.28375L23.59 2.38875L25.34 8.51375C25.3737 8.63556 25.3806 8.76322 25.3602 8.88795C25.3398 9.01267 25.2927 9.13151 25.222 9.23628C25.1513 9.34105 25.0588 9.42926 24.9508 9.49486C24.8428 9.56045 24.7218 9.60186 24.5963 9.61625L24.5 9.625H21.875V14H27.125V15.75H25.375V27.125H23.625V24.9025C23.1627 25.1712 22.6447 25.3299 22.1112 25.3662L21.875 25.375H6.125C5.51019 25.3747 4.9064 25.2117 4.375 24.9025V27.125H2.625V15.75H0.875V14H5.25V10.5C5.24845 10.285 5.32609 10.077 5.4681 9.91563C5.61012 9.75425 5.80658 9.65079 6.02 9.625H6.335L5.32875 7.35L6.92125 6.65L8.25125 9.625H10.5C10.715 9.62345 10.923 9.70108 11.0844 9.8431C11.2458 9.98512 11.3492 10.1816 11.375 10.395V14H20.125V9.625H17.5C17.373 9.62537 17.2475 9.5981 17.1321 9.54509C17.0168 9.49208 16.9143 9.4146 16.8319 9.31803C16.7495 9.22145 16.6891 9.1081 16.6549 8.98584C16.6206 8.86357 16.6134 8.73533 16.6337 8.61L16.66 8.51375L18.41 2.38875C18.4569 2.22307 18.5517 2.07491 18.6824 1.96285C18.8132 1.85078 18.9741 1.77978 19.145 1.75875L19.25 1.75H22.75ZM23.625 15.75H4.375V21.875C4.37445 22.294 4.52428 22.6994 4.79725 23.0173C5.07022 23.3352 5.4482 23.5446 5.8625 23.6075L5.99375 23.6162L6.125 23.625H21.875C22.3173 23.6262 22.7436 23.46 23.0683 23.1597C23.3929 22.8594 23.5918 22.4473 23.625 22.0063V15.75ZM9.625 11.375H7V14H9.625V11.375ZM22.085 3.5H19.9062L18.655 7.875H23.3363L22.085 3.5Z" fill="#222222" stroke="white" stroke-width="0.5"/>
</svg>
