<svg width="28" height="29" viewBox="0 0 28 29" fill="none" xmlns="http://www.w3.org/2000/svg">
<path d="M9.93125 9.5375C10.0625 9.20937 9.90938 8.81563 9.55938 8.68438C9.23125 8.55313 8.8375 8.70625 8.70625 9.05625C8.44375 9.7125 8.3125 10.4344 8.3125 11.1562V25.8125C8.3125 26.9062 9.1875 27.7812 10.2812 27.7812H17.7188C18.8125 27.7812 19.6875 26.9062 19.6875 25.8125V11.1562C19.6875 8.02813 17.1281 5.46875 14 5.46875C13.3656 5.46875 12.7531 5.57812 12.1406 5.775C11.7906 5.88437 11.6156 6.25625 11.725 6.60625C11.8344 6.95625 12.2063 7.13125 12.5563 7.02187C13.0156 6.86875 13.4969 6.78125 13.9781 6.78125C16.3844 6.78125 18.3531 8.75 18.3531 11.1562V25.8125C18.3531 26.1844 18.0688 26.4688 17.6969 26.4688H10.2812C9.90937 26.4688 9.625 26.1844 9.625 25.8125V11.1562C9.625 10.6094 9.73438 10.0625 9.93125 9.5375Z" fill="black"/>
<path d="M5.90625 11.8125C6.27813 11.8125 6.5625 11.5281 6.5625 11.1562C6.5625 7.06562 9.90937 3.71875 14 3.71875H18.4844C18.725 4.48438 19.425 5.075 20.2781 5.1625L27.0594 5.90625H27.125C27.2781 5.90625 27.4531 5.84063 27.5625 5.73125C27.6938 5.6 27.7812 5.425 27.7812 5.25V0.875C27.7812 0.678125 27.6938 0.503125 27.5625 0.39375C27.4312 0.284375 27.2344 0.21875 27.0594 0.21875L20.2781 0.9625C19.425 1.05 18.7469 1.64062 18.4844 2.40625H14.6562V0.875C14.6562 0.503125 14.3719 0.21875 14 0.21875C13.6281 0.21875 13.3438 0.503125 13.3438 0.875V2.42813C8.81562 2.77813 5.25 6.5625 5.25 11.1562C5.25 11.5281 5.53437 11.8125 5.90625 11.8125ZM20.4094 2.25312L26.4688 1.59688V4.50625L20.4094 3.85C19.9938 3.82812 19.6875 3.47813 19.6875 3.0625C19.6875 2.64687 19.9938 2.29688 20.4094 2.25312Z" fill="black"/>
</svg>
