<svg width="28" height="29" viewBox="0 0 28 29" fill="none" xmlns="http://www.w3.org/2000/svg">
<path d="M16.8517 11.8173C16.8501 11.8173 16.8487 11.8173 16.8471 11.8173H15.0048V9.88639C15.0072 9.49696 14.7073 9.17912 14.3348 9.17651C14.3333 9.17651 14.3317 9.17651 14.3303 9.17651H11.6685C11.296 9.17651 10.9941 9.49223 10.9941 9.88166V11.8125H9.15167C8.77917 11.8099 8.47515 12.1234 8.47266 12.5129C8.47266 12.5161 8.47266 12.5192 8.47266 12.5224V15.3004C8.47266 15.6898 8.77465 16.0055 9.14714 16.0055H10.9941V17.9317C10.9916 18.3211 11.2915 18.6389 11.664 18.6415C11.6655 18.6415 11.6671 18.6415 11.6685 18.6415H14.3257C14.6982 18.6415 15.0002 18.3258 15.0002 17.9364V16.0055H16.8471C17.2196 16.0081 17.5237 15.6945 17.5262 15.3051C17.5262 15.3035 17.5262 15.3019 17.5262 15.3004V12.5224C17.5262 12.133 17.2242 11.8173 16.8517 11.8173ZM16.6208 15.059H14.5521C14.3021 15.059 14.0994 15.2709 14.0994 15.5323V17.695H11.8994V15.5323C11.8994 15.2709 11.6967 15.059 11.4467 15.059H9.37801V12.7638H11.4467C11.6967 12.7638 11.8994 12.5519 11.8994 12.2905V10.123H14.0949V12.2858C14.0949 12.5471 14.2976 12.759 14.5476 12.759H16.6208V15.059Z" fill="black" stroke="black" stroke-width="0.25"/>
<path d="M20.8765 5.63645H17.1465V3.9706C17.17 3.21044 16.5996 2.57428 15.8724 2.54973C15.8354 2.54848 15.7983 2.54884 15.7613 2.55085H10.2387C9.51214 2.51127 8.89249 3.09491 8.85457 3.85442C8.85265 3.89311 8.85225 3.93186 8.8535 3.9706V5.62698H5.12346C3.68395 5.62698 2 6.48357 2 8.89241V19.1856C2 21.5945 3.68395 22.4511 5.12346 22.4511H20.8765C22.3161 22.4511 24 21.5945 24 19.1856V8.90188C24 6.49303 22.3206 5.63645 20.8765 5.63645ZM9.75885 3.9706C9.75885 3.83336 9.75885 3.46422 10.2432 3.46422H15.7613C16.2457 3.46422 16.2457 3.82863 16.2457 3.9706V5.62698H9.75885V3.9706ZM23.0947 19.1856C23.0947 21.2774 21.5465 21.5046 20.8765 21.5046H5.12346C4.45802 21.5046 2.90535 21.2774 2.90535 19.1856V8.90188C2.90535 6.81011 4.4535 6.58295 5.12346 6.58295H20.8765C21.542 6.58295 23.0947 6.81011 23.0947 8.90188V19.1856Z" fill="black" stroke="black" stroke-width="0.25"/>
</svg>
