<svg width="28" height="29" viewBox="0 0 28 29" fill="none" xmlns="http://www.w3.org/2000/svg">
<path d="M5.92969 25.2518L13.27 22.3352V7.88888H11.8116C10.2949 7.88888 9.11809 8.7367 8.07981 9.48478C7.36333 10.001 6.67699 10.4951 5.92969 10.7027V7.88888H4.47135V6.30513C5.32006 6.00413 5.92969 5.19363 5.92969 4.24304C5.92969 3.03685 4.94837 2.05554 3.74219 2.05554C2.536 2.05554 1.55469 3.03685 1.55469 4.24304C1.55469 5.19363 2.16432 6.00413 3.01302 6.30513V7.88888H1.55469V26.9444H5.92969V25.2518ZM3.74219 3.51388C4.14425 3.51388 4.47135 3.84098 4.47135 4.24304C4.47135 4.6451 4.14425 4.97221 3.74219 4.97221C3.34013 4.97221 3.01302 4.6451 3.01302 4.24304C3.01302 3.84098 3.34013 3.51388 3.74219 3.51388ZM5.92969 23.6826V22.1106L11.8116 19.7734V21.3454L5.92969 23.6826ZM8.93235 10.668C9.87506 9.98878 10.7655 9.34721 11.8116 9.34721V18.2041L5.92969 20.5413V12.1975C7.10462 11.9842 8.06668 11.2917 8.93235 10.668ZM4.47135 25.4861H3.01302V9.34721H4.47135V25.4861Z" fill="black" stroke="white" stroke-width="0.5"/>
<path d="M26.4418 4.24304C26.4418 3.03685 25.4605 2.05554 24.2543 2.05554C23.0482 2.05554 22.0668 3.03685 22.0668 4.24304C22.0668 5.19363 22.6765 6.00413 23.5252 6.30513V7.88888H22.0668V10.7027C21.3195 10.4951 20.6332 10.0009 19.9167 9.48473C18.8784 8.7367 17.7017 7.88888 16.1849 7.88888H14.7266V22.3352L22.0668 25.2518V26.9444H26.4418V7.88888H24.9835V6.30513C25.8322 6.00413 26.4418 5.19363 26.4418 4.24304ZM19.0642 10.668C19.9298 11.2917 20.8919 11.9842 22.0668 12.1975V20.5413L16.1849 18.2041V9.34721C17.231 9.34721 18.1215 9.98878 19.0642 10.668ZM16.1849 21.3454V19.7734L22.0668 22.1106V23.6826L16.1849 21.3454ZM24.9835 25.4861H23.5252V9.34721H24.9835V25.4861ZM24.2543 3.51388C24.6564 3.51388 24.9835 3.84098 24.9835 4.24304C24.9835 4.6451 24.6564 4.97221 24.2543 4.97221C23.8523 4.97221 23.5252 4.6451 23.5252 4.24304C23.5252 3.84098 23.8523 3.51388 24.2543 3.51388Z" fill="black" stroke="white" stroke-width="0.5"/>
</svg>
