<svg width="28" height="29" viewBox="0 0 28 29" fill="none" xmlns="http://www.w3.org/2000/svg">
<g clip-path="url(#clip0_2348_48209)">
<path d="M27.9988 9.35555C27.9988 8.66326 27.7292 8.01231 27.2396 7.52291L25.9405 6.22381L26.6023 5.56204C26.606 5.55843 26.6097 5.55477 26.6134 5.5511C27.6239 4.54064 27.6239 2.8963 26.6134 1.88551C26.1239 1.39595 25.4729 1.12634 24.7806 1.12634C24.0884 1.12634 23.4375 1.39595 22.9478 1.8854C22.9436 1.88955 22.9395 1.89377 22.9354 1.89803L22.2751 2.55827L20.976 1.25912C20.4865 0.769609 19.8356 0.5 19.1433 0.5C18.4509 0.5 17.8 0.769664 17.3105 1.25923C17.0536 1.51615 16.8624 1.81409 16.7362 2.13215C16.3334 1.88512 15.8694 1.75273 15.385 1.75273C14.6926 1.75273 14.0417 2.02234 13.5519 2.51206C12.5417 3.52258 12.5417 5.16687 13.552 6.17755L16.1039 8.72927L8.22793 16.6052L5.67604 14.0534C5.18659 13.5639 4.5357 13.2943 3.84346 13.2943C3.15112 13.2943 2.50018 13.5639 2.01034 14.0536C1.14846 14.9156 1.02236 16.2384 1.63086 17.2359C1.30782 17.3646 1.01109 17.5585 0.757777 17.8118C-0.252574 18.8223 -0.252629 20.4665 0.757832 21.4772L2.05682 22.7762L1.38417 23.4488C0.894605 23.9384 0.624941 24.5893 0.624941 25.2816C0.624941 25.974 0.894605 26.6249 1.38411 27.1143C1.87362 27.6039 2.52457 27.8736 3.21696 27.8736C3.90307 27.8736 4.54844 27.6087 5.03642 27.1275C5.04096 27.1232 5.04544 27.1188 5.04987 27.1143L5.72242 26.4418L7.02152 27.7409C7.51092 28.2303 8.16181 28.4999 8.85421 28.4999H8.85432C9.54671 28.4999 10.1977 28.2303 10.6874 27.7406C10.9441 27.4838 11.1353 27.1859 11.2616 26.868C11.6643 27.1149 12.1281 27.2472 12.6124 27.2473H12.6125C13.3047 27.2473 13.9558 26.9777 14.4455 26.488C14.935 25.9985 15.2045 25.3476 15.2045 24.6552C15.2045 23.9629 14.9349 23.312 14.4454 22.8225L11.8935 20.2706L19.7697 12.3947L22.3215 14.9464C22.8111 15.4359 23.462 15.7055 24.1542 15.7055H24.1544C24.8465 15.7055 25.4975 15.4359 25.9869 14.9465C26.4767 14.457 26.7463 13.806 26.7464 13.1136C26.7464 12.6296 26.6142 12.1662 26.3676 11.7636C26.6902 11.6349 26.9866 11.4413 27.2398 11.1882C27.7293 10.6987 27.9988 10.0478 27.9988 9.35555ZM3.90083 25.9431C3.89706 25.9468 3.89323 25.9506 3.88946 25.9543C3.70986 26.1339 3.47104 26.2329 3.21696 26.2329C2.96289 26.2329 2.72396 26.1339 2.5442 25.9542C2.36455 25.7745 2.26557 25.5357 2.26557 25.2816C2.26557 25.0276 2.36455 24.7886 2.54425 24.6089L3.2168 23.9364L4.56228 25.2817L3.90083 25.9431ZM23.4352 3.71841L24.1073 3.04636C24.1105 3.04319 24.1136 3.04007 24.1166 3.0369C24.2954 2.86272 24.5307 2.76696 24.7807 2.76696C25.0348 2.76696 25.2737 2.86595 25.4532 3.04548C25.8216 3.41397 25.8242 4.01176 25.4611 4.38325C25.4582 4.38598 25.4554 4.38877 25.4526 4.39156L24.7805 5.06367L24.1079 4.39102L23.4352 3.71841ZM18.4707 2.4192C18.6503 2.23955 18.8891 2.14062 19.1433 2.14062C19.3974 2.14062 19.6362 2.23955 19.8159 2.41926L22.9478 5.55116L24.2005 6.80388C24.2006 6.80399 24.2007 6.8041 24.2008 6.80421L26.0796 8.68305C26.2593 8.8627 26.3583 9.10152 26.3583 9.35555C26.3583 9.60962 26.2593 9.84861 26.0797 10.0282C25.8999 10.2079 25.661 10.3069 25.4069 10.3069C25.1532 10.3069 24.9147 10.2082 24.7352 10.0291L18.4693 3.76337C18.0998 3.39237 18.1002 2.78977 18.4707 2.4192ZM9.52719 26.5806C9.34743 26.7603 9.10845 26.8593 8.85421 26.8593C8.60007 26.8593 8.36114 26.7603 8.18155 26.5808L6.30282 24.7021C6.30265 24.7019 6.30254 24.7017 6.30243 24.7016L5.90382 24.3031L1.91803 20.3172C1.54719 19.9463 1.54714 19.3428 1.91803 18.9718C2.09773 18.792 2.33661 18.6931 2.59074 18.6931C2.84449 18.6931 3.08298 18.7918 3.26263 18.9711L9.53058 25.2391C9.8977 25.6104 9.89671 26.211 9.52719 26.5806ZM13.5638 24.6552C13.5638 24.9093 13.4649 25.1484 13.2853 25.328C13.1055 25.5077 12.8666 25.6066 12.6124 25.6066C12.6124 25.6066 12.6124 25.6066 12.6123 25.6066C12.3582 25.6066 12.1192 25.5077 11.9396 25.328L10.6942 24.0827C10.6918 24.0803 10.6896 24.0777 10.6872 24.0753L4.42337 17.8117L4.42321 17.8115L3.17059 16.5589C2.7997 16.1881 2.7997 15.5846 3.17048 15.2137C3.35029 15.034 3.58933 14.9349 3.84352 14.9349C4.09754 14.9349 4.33636 15.0339 4.51596 15.2135L7.64736 18.3447C7.64753 18.345 7.64769 18.3452 7.64791 18.3454L9.99674 20.6941L13.2854 23.9827C13.4649 24.1623 13.5638 24.4011 13.5638 24.6552ZM10.7333 19.1106L10.0606 18.438L9.38801 17.7653L17.264 9.8893L18.6095 11.2347L10.7333 19.1106ZM24.8268 13.7863C24.6471 13.966 24.4083 14.065 24.1543 14.065C23.9002 14.065 23.6611 13.966 23.4814 13.7863L20.3517 10.6567C20.351 10.656 20.3504 10.6552 20.3497 10.6545L17.8441 8.14909C17.8437 8.1487 17.8432 8.14837 17.8429 8.14799L14.7123 5.01752C14.3414 4.64652 14.3414 4.04287 14.7121 3.67198C14.8919 3.49223 15.1309 3.39324 15.385 3.39324C15.6391 3.39324 15.8781 3.49223 16.0578 3.67193L17.3069 4.92099C17.3081 4.9222 17.3092 4.92351 17.3104 4.92466L23.5743 11.1883C23.5749 11.1889 23.5754 11.1895 23.576 11.19L24.827 12.4409C25.0067 12.6206 25.1057 12.8595 25.1057 13.1136C25.1056 13.3677 25.0067 13.6066 24.8268 13.7863Z" fill="black" stroke="white" stroke-width="0.5"/>
</g>
<defs>
<clipPath id="clip0_2348_48209">
<rect width="28" height="28" fill="white" transform="translate(0 0.5)"/>
</clipPath>
</defs>
</svg>
