<svg width="29" height="29" viewBox="0 0 29 29" fill="none" xmlns="http://www.w3.org/2000/svg">
<path d="M5.58982 19.2873C5.84101 19.1904 6.02036 18.9486 6.02036 18.664C6.02036 18.2946 5.72099 17.9948 5.35113 17.9948H1.63333C1.26347 17.9948 0.9641 18.2946 0.9641 18.664C0.9641 18.9491 1.14301 19.1909 1.39464 19.2873L0.800808 24.7638C0.7611 25.1314 1.02656 25.4616 1.39419 25.5013C1.41873 25.504 1.44282 25.5053 1.46736 25.5053C1.80465 25.5053 2.09465 25.2514 2.13168 24.9084L2.73622 19.3332H4.24868L4.85322 24.9084C4.89025 25.2514 5.18025 25.5053 5.51755 25.5053C5.54164 25.5053 5.56618 25.504 5.59072 25.5013C5.95835 25.4616 6.22381 25.1314 6.1841 24.7638L5.58982 19.2873Z" fill="black" stroke="white" stroke-width="0.25"/>
<path d="M28.1993 24.7638L27.6054 19.2873C27.8566 19.1904 28.036 18.9486 28.036 18.664C28.036 18.2946 27.7362 17.9948 27.3668 17.9948H23.649C23.2795 17.9948 22.9797 18.2946 22.9797 18.664C22.9797 18.9491 23.1586 19.1909 23.4103 19.2873L22.8164 24.7634C22.7767 25.131 23.0422 25.4611 23.4094 25.5008C23.4344 25.5035 23.4584 25.5049 23.4825 25.5049C23.8198 25.5049 24.1098 25.251 24.1469 24.9079L24.751 19.3328H26.2643L26.8684 24.9079C26.9054 25.251 27.1954 25.5049 27.5327 25.5049C27.5568 25.5049 27.5809 25.5035 27.6059 25.5008C27.9735 25.4616 28.239 25.1314 28.1993 24.7638Z" fill="black" stroke="white" stroke-width="0.25"/>
<path d="M16.3938 10.6407C16.3947 10.6461 16.3978 10.6501 16.3987 10.6554C16.4094 10.7259 16.4317 10.792 16.463 10.8535C16.4688 10.8638 16.4737 10.8741 16.4799 10.8843C16.5138 10.9441 16.5562 10.9976 16.6066 11.044C16.6147 11.0516 16.6227 11.0574 16.6312 11.0641C16.6851 11.1092 16.7445 11.1467 16.8105 11.173C16.8177 11.1757 16.8243 11.177 16.8319 11.1797C16.9024 11.2051 16.9778 11.2216 17.0577 11.2216C17.1375 11.2216 17.2129 11.2051 17.2839 11.1797C17.291 11.177 17.2977 11.1757 17.3049 11.173C17.3709 11.1467 17.4307 11.1087 17.4847 11.0637C17.4927 11.057 17.5007 11.0512 17.5083 11.044C17.5587 10.9976 17.6011 10.9437 17.6355 10.8839C17.6417 10.8736 17.6466 10.8638 17.6524 10.8531C17.6832 10.792 17.7055 10.7259 17.7167 10.6554C17.7175 10.6501 17.7207 10.6461 17.7216 10.6407C17.8875 10.4814 18.5706 10.2111 19.6177 10.2111C20.6648 10.2111 21.3479 10.4814 21.5134 10.6407C21.5143 10.6461 21.5174 10.6501 21.5183 10.6554C21.529 10.7259 21.5513 10.7924 21.583 10.8535C21.5884 10.8638 21.5933 10.8736 21.5991 10.8839C21.6334 10.9437 21.6763 10.9976 21.7267 11.044C21.7343 11.0512 21.7423 11.057 21.7503 11.0637C21.8043 11.1087 21.8641 11.1467 21.9301 11.173C21.9373 11.1757 21.944 11.177 21.9511 11.1797C22.022 11.2051 22.0974 11.2216 22.1773 11.2216C22.5467 11.2216 22.8465 10.9222 22.8465 10.5524C22.8465 6.66103 19.102 3.49512 14.4994 3.49512C9.89691 3.49512 6.15234 6.66103 6.15234 10.5524C6.15234 10.9222 6.45171 11.2216 6.82157 11.2216C6.90144 11.2216 6.97684 11.2051 7.04777 11.1797C7.05491 11.177 7.06205 11.1757 7.06874 11.173C7.13522 11.1462 7.19456 11.1087 7.24854 11.0637C7.25657 11.057 7.26461 11.0512 7.27264 11.044C7.32305 10.9976 7.36544 10.9437 7.39979 10.8839C7.40559 10.8741 7.41094 10.8642 7.4163 10.854C7.44753 10.792 7.46984 10.7255 7.48099 10.6545C7.48144 10.6496 7.48456 10.6456 7.48545 10.6412C7.65142 10.4819 8.33448 10.2115 9.38161 10.2115C10.4287 10.2115 11.1113 10.4814 11.2778 10.6412C11.2782 10.6461 11.2813 10.6501 11.2822 10.6545C11.2929 10.7255 11.3152 10.7924 11.3469 10.854C11.3523 10.8642 11.3576 10.8741 11.3634 10.8839C11.3978 10.9437 11.4402 10.9976 11.491 11.044C11.4986 11.0512 11.5066 11.057 11.5147 11.0637C11.5687 11.1087 11.628 11.1467 11.6945 11.173C11.7012 11.1757 11.7083 11.177 11.7154 11.1797C11.7864 11.2051 11.8618 11.2216 11.9416 11.2216C12.0215 11.2216 12.0969 11.2051 12.1678 11.1797C12.175 11.177 12.1821 11.1757 12.1888 11.173C12.2553 11.1462 12.3146 11.1087 12.3686 11.0637C12.3766 11.057 12.3847 11.0512 12.3923 11.044C12.4431 10.9976 12.4851 10.9437 12.5199 10.8839C12.5257 10.8741 12.531 10.8642 12.5364 10.854C12.5676 10.792 12.5899 10.7255 12.6011 10.6545C12.6015 10.6496 12.6046 10.6456 12.6055 10.6412C12.7327 10.5189 13.1659 10.3329 13.832 10.2517V15.4672H7.41585C7.04599 15.4672 6.74662 15.767 6.74662 16.1364C6.74662 16.5059 7.04599 16.8057 7.41585 16.8057H9.31647L6.61634 24.6178C6.49544 24.9672 6.68104 25.3486 7.02993 25.4691C7.10265 25.4941 7.17627 25.5057 7.24854 25.5057C7.52605 25.5057 7.78527 25.3317 7.88074 25.0551L9.22857 21.1557H19.7676L21.1155 25.0551C21.2114 25.3317 21.4706 25.5057 21.7481 25.5057C21.8204 25.5057 21.8944 25.4941 21.9667 25.4691C22.3161 25.3482 22.5012 24.9672 22.3807 24.6178L19.6802 16.8057H21.5808C21.9502 16.8057 22.25 16.5059 22.25 16.1364C22.25 15.767 21.9502 15.4672 21.5808 15.4672H15.1678V10.2517C15.8334 10.332 16.2671 10.5185 16.3938 10.6407ZM19.3054 19.8168H9.69168L10.7326 16.8052H18.2641L19.3054 19.8168ZM12.6751 9.13852C12.9236 6.47319 13.8382 4.83313 14.4985 4.83313C15.1584 4.83313 16.073 6.47319 16.3215 9.13852C15.7732 8.96006 15.1267 8.87261 14.4985 8.87261C13.8699 8.87261 13.2243 8.96006 12.6751 9.13852ZM21.2645 9.08453C20.7559 8.94221 20.179 8.87216 19.6173 8.87216C18.9409 8.87216 18.2427 8.9721 17.6689 9.17912C17.5386 7.62204 17.1848 6.15687 16.6187 5.10172C18.886 5.69064 20.6492 7.19819 21.2645 9.08453ZM7.73217 9.08453C8.34742 7.19819 10.1111 5.69109 12.378 5.10216C11.8123 6.15732 11.458 7.62249 11.3282 9.17956C10.7544 8.97255 10.0562 8.87261 9.37982 8.87261C8.81811 8.87261 8.24124 8.94221 7.73217 9.08453Z" fill="black" stroke="white" stroke-width="0.25"/>
</svg>
