<svg width="28" height="29" viewBox="0 0 28 29" fill="none" xmlns="http://www.w3.org/2000/svg">
<g clip-path="url(#clip0_2348_48284)">
<path d="M25.0962 2.18506H17.4722C16.2926 2.18506 15.333 3.14469 15.333 4.32425V12.6739C15.333 13.8535 16.2926 14.8131 17.4722 14.8131H19.7304V19.0414L18.0852 16.755C17.5253 15.9769 16.6172 15.5124 15.6559 15.5124H11.4938C10.5693 15.5124 9.68209 15.9488 9.12039 16.6798L6.49718 20.0935H5.8598C3.95551 20.0935 2.40625 21.6429 2.40625 23.5474V25.6208C2.40625 25.8972 2.63039 26.1213 2.90679 26.1213H5.3438C5.57189 27.0907 6.44658 27.815 7.48844 27.815C8.53031 27.815 9.40505 27.0907 9.63309 26.1213H13.7933C14.0214 27.0907 14.8961 27.815 15.938 27.815C16.9799 27.815 17.8546 27.0907 18.0826 26.1213H19.7303V27.3145C19.7303 27.591 19.9544 27.8151 20.2308 27.8151H22.3374C22.6138 27.8151 22.8379 27.591 22.8379 27.3145V14.8131H25.0961C26.2757 14.8131 27.2353 13.8535 27.2353 12.6739V4.32425C27.2354 3.14469 26.2758 2.18506 25.0962 2.18506ZM9.91419 17.2897C10.2877 16.8037 10.8782 16.5135 11.4938 16.5135H15.6559C16.296 16.5135 16.9003 16.8223 17.2726 17.3397L19.2541 20.0935H7.75968L9.91419 17.2897ZM3.40732 23.5474C3.40732 22.1949 4.5075 21.0946 5.8598 21.0946H11.5317V25.1202H9.63309C9.405 24.1508 8.53031 23.4265 7.48839 23.4265C6.44648 23.4265 5.57179 24.1508 5.3437 25.1202H3.40732V23.5474ZM7.48844 26.8139C6.82558 26.8139 6.28631 26.2787 6.28631 25.6208C6.28631 24.9628 6.82553 24.4275 7.48844 24.4275C8.15135 24.4275 8.69058 24.9628 8.69058 25.6208C8.69058 26.2787 8.1513 26.8139 7.48844 26.8139ZM15.938 26.8139C15.2752 26.8139 14.7359 26.2787 14.7359 25.6208C14.7359 24.9628 15.2751 24.4275 15.938 24.4275C16.601 24.4275 17.1402 24.9628 17.1402 25.6208C17.1401 26.2787 16.6009 26.8139 15.938 26.8139ZM18.0827 25.1202C17.8546 24.1507 16.9799 23.4264 15.938 23.4264C14.896 23.4264 14.0213 24.1507 13.7932 25.1202H12.5327V21.0945H19.7303V25.1202H18.0827ZM21.8369 26.814H20.7314V14.8131H21.8369V26.814ZM26.2343 12.6739C26.2343 13.3015 25.7238 13.8121 25.0962 13.8121H17.4722C16.8446 13.8121 16.3341 13.3015 16.3341 12.6739V4.32425C16.3341 3.69668 16.8446 3.18613 17.4722 3.18613H25.0962C25.7237 3.18613 26.2343 3.69668 26.2343 4.32425V12.6739H26.2343Z" fill="black"/>
<path d="M21.8158 5.15261H20.231C20.2309 5.15261 20.2306 5.15261 20.2304 5.15261C19.9554 5.15016 19.7304 5.37149 19.7305 5.64644V5.65314V11.328C19.7305 11.5946 19.9316 11.8274 20.1976 11.8446C20.4891 11.8635 20.7315 11.6326 20.7315 11.3452V9.37057C21.0943 9.36862 21.5681 9.36632 21.8158 9.36632C22.9947 9.36632 23.9539 8.42121 23.9539 7.25946C23.9539 6.09772 22.9947 5.15261 21.8158 5.15261ZM21.8158 8.3652C21.5693 8.3652 21.1019 8.36745 20.7397 8.3694C20.7378 7.9969 20.7355 7.51108 20.7355 7.25941C20.7355 7.04664 20.7342 6.54145 20.733 6.15368H21.8158C22.4321 6.15368 22.9528 6.66007 22.9528 7.25941C22.9528 7.85886 22.4321 8.3652 21.8158 8.3652Z" fill="black"/>
</g>
<defs>
<clipPath id="clip0_2348_48284">
<rect width="26" height="26" fill="white" transform="translate(2 2)"/>
</clipPath>
</defs>
</svg>
