<svg width="28" height="29" viewBox="0 0 28 29" fill="none" xmlns="http://www.w3.org/2000/svg">
<path d="M0.410156 15.6567C0.636672 15.6567 0.820312 15.4731 0.820312 15.2466V3.87549C0.820312 3.49853 1.12695 3.19189 1.50391 3.19189H18.5848C18.8113 3.19189 18.995 3.00831 18.995 2.78174C18.995 2.55517 18.8113 2.37158 18.5848 2.37158H1.50391C0.674625 2.37158 0 3.04626 0 3.87549V15.2466C0 15.4731 0.183641 15.6567 0.410156 15.6567Z" fill="black"/>
<path d="M26.4961 2.37183H20.4991C20.2725 2.37183 20.0889 2.55541 20.0889 2.78198C20.0889 3.00855 20.2725 3.19214 20.4991 3.19214H26.4961C26.8731 3.19214 27.1797 3.49877 27.1797 3.87573V21.3227C27.1797 21.6997 26.8731 22.0063 26.4961 22.0063H20.9864L20.9546 19.8992H23.0979C23.2792 20.5748 23.8967 21.0738 24.6288 21.0738C25.5027 21.0738 26.2138 20.3628 26.2138 19.4888C26.2138 18.7567 25.7148 18.1392 25.0391 17.9579V7.2406C25.7148 7.05936 26.2138 6.44189 26.2138 5.70973C26.2138 4.83583 25.5028 4.12478 24.6288 4.12478C23.8966 4.12478 23.2791 4.62391 23.0979 5.29969H15.5308C15.3496 4.62391 14.7321 4.12478 14 4.12478C13.2679 4.12478 12.6504 4.62391 12.4692 5.29969H4.90213C4.7209 4.62391 4.10337 4.12478 3.37121 4.12478C2.49725 4.12478 1.78626 4.83583 1.78626 5.70973C1.78626 6.44189 2.28528 7.05936 2.96095 7.2406V17.9579C2.28528 18.1391 1.78626 18.7566 1.78626 19.4888C1.78626 20.3627 2.49725 21.0737 3.37121 21.0737C4.10337 21.0737 4.7209 20.5747 4.90213 19.8991H12.4692C12.6505 20.5748 13.268 21.0737 14 21.0737C14.732 21.0737 15.3495 20.5747 15.5308 19.8991H18.1292L18.0973 22.0063H1.50391C1.12695 22.0063 0.820312 21.6996 0.820312 21.3227V17.1609C0.820312 16.9343 0.636672 16.7508 0.410156 16.7508C0.183641 16.7508 0 16.9343 0 17.1609V21.3227C0 22.152 0.674625 22.8266 1.50391 22.8266H18.0849L18.0488 25.212C18.0453 25.4385 18.2262 25.6248 18.4527 25.6282C18.678 25.6338 18.8656 25.4509 18.869 25.2243L19.0594 12.6451H20.0243L20.2147 25.2243C20.2181 25.4487 20.401 25.6283 20.6247 25.6283C20.6268 25.6283 20.6289 25.6283 20.631 25.6282C20.8575 25.6248 21.0384 25.4384 21.0349 25.212L20.9989 22.8266H26.4961C27.3254 22.8266 28 22.152 28 21.3227V3.87573C28 3.04651 27.3254 2.37183 26.4961 2.37183ZM25.3935 19.4888C25.3935 19.9104 25.0505 20.2534 24.6288 20.2534C24.2071 20.2534 23.8641 19.9105 23.8641 19.489C23.8641 19.0672 24.2072 18.724 24.629 18.724C25.0505 18.724 25.3935 19.0671 25.3935 19.4888ZM24.6288 4.94509C25.0504 4.94509 25.3935 5.28809 25.3935 5.70973C25.3935 6.13137 25.0505 6.47437 24.629 6.47437C24.2072 6.47437 23.8641 6.13143 23.8641 5.70984C23.8641 5.2882 24.2071 4.94509 24.6288 4.94509ZM14 4.94509C14.4216 4.94509 14.7646 5.28815 14.7646 5.70984C14.7646 6.13137 14.4216 6.47432 14 6.47432C13.5784 6.47432 13.2354 6.13137 13.2354 5.70984C13.2354 5.2882 13.5784 4.94509 14 4.94509ZM2.60652 5.70979C2.60652 5.28815 2.94952 4.94515 3.37116 4.94515C3.79285 4.94515 4.13591 5.2882 4.13591 5.7099C4.13591 6.13148 3.7928 6.47443 3.37105 6.47443C2.94952 6.47443 2.60652 6.13143 2.60652 5.70979ZM3.37121 20.2534C2.94957 20.2534 2.60657 19.9104 2.60657 19.4888C2.60657 19.0671 2.94952 18.7241 3.3711 18.7241C3.79285 18.7241 4.13596 19.0672 4.13596 19.489C4.13591 19.9105 3.79285 20.2534 3.37121 20.2534ZM14 20.2534C13.5784 20.2534 13.2354 19.9105 13.2354 19.489C13.2354 19.0673 13.5784 18.7242 14 18.7242C14.4216 18.7242 14.7646 19.0673 14.7646 19.489C14.7646 19.9105 14.4216 20.2534 14 20.2534ZM15.5308 19.0788C15.3496 18.403 14.7321 17.9038 14 17.9038C13.2679 17.9038 12.6504 18.403 12.4692 19.0787H4.90213C4.75601 18.5338 4.32616 18.1039 3.7812 17.9578V7.24065C4.32611 7.09453 4.75595 6.66485 4.90208 6.12005H12.4692C12.6504 6.79572 13.2679 7.29468 13.9999 7.29468C14.732 7.29468 15.3495 6.79566 15.5307 6.12005H23.0978C23.244 6.66485 23.6738 7.09458 24.2187 7.24065V17.9579C23.6737 18.104 23.2439 18.5339 23.0978 19.0789H20.942L20.7978 9.55065C20.7913 9.11884 20.4346 8.76747 20.0027 8.76747H19.081C18.6491 8.76747 18.2924 9.11879 18.2859 9.55065L18.1416 19.0789L15.5308 19.0788ZM19.0718 11.8248L19.1057 9.58773H19.9781L20.012 11.8248H19.0718Z" fill="black"/>
<path d="M13.9985 10.2958C12.7285 10.2958 11.6953 11.329 11.6953 12.5989C11.6953 13.8689 12.7285 14.9021 13.9985 14.9021C15.2684 14.9021 16.3016 13.8689 16.3016 12.5989C16.3016 11.329 15.2684 10.2958 13.9985 10.2958ZM13.9985 14.0818C13.1808 14.0818 12.5156 13.4166 12.5156 12.5989C12.5156 11.7813 13.1808 11.1161 13.9985 11.1161C14.8161 11.1161 15.4813 11.7813 15.4813 12.5989C15.4813 13.4166 14.8161 14.0818 13.9985 14.0818Z" fill="black"/>
</svg>
