<svg width="28" height="29" viewBox="0 0 28 29" fill="none" xmlns="http://www.w3.org/2000/svg">
<path d="M22.291 0C19.9525 0 18.0564 1.89607 18.0564 4.23456V6.47824H8.00724V4.23456C8.00724 2.52809 9.39769 1.13764 11.1042 1.13764C12.8106 1.13764 14.2011 2.52809 14.2011 4.23456C14.2011 4.55057 14.4539 4.80338 14.7699 4.80338C15.0859 4.80338 15.3387 4.55057 15.3387 4.23456C15.3387 1.89607 13.4426 0 11.1042 0C8.76566 0 6.86959 1.89607 6.86959 4.23456V18.6131C6.83799 18.9291 7.1224 19.2135 7.43842 19.2135C7.75443 19.2135 8.00724 18.9607 8.00724 18.6447V17.2226H18.088V18.6447C18.088 18.9607 18.3408 19.2135 18.6568 19.2135C18.9728 19.2135 19.2257 18.9607 19.2257 18.6447V4.23456C19.2257 2.52809 20.6161 1.13764 22.3226 1.13764C24.029 1.13764 25.3879 2.52809 25.3879 4.23456C25.3879 4.55057 25.6407 4.80338 25.9567 4.80338C26.2727 4.80338 26.5255 4.55057 26.5255 4.23456C26.5255 1.89607 24.6295 0 22.291 0ZM18.088 16.0218H8.00724V13.9993H18.088V16.0218ZM18.088 12.8617H8.00724V10.8392H18.088V12.8617ZM18.088 9.63836H8.00724V7.61588H18.088V9.63836Z" fill="black"/>
<path d="M25.1025 21.4255C24.976 21.1411 24.6284 20.9831 24.344 21.1411C21.4999 22.3736 20.1095 21.7731 18.6242 21.1411C17.1074 20.5091 15.5589 19.8455 12.8096 21.1411C9.96549 22.3736 8.57504 21.7731 7.08978 21.1411C5.57293 20.5091 3.99287 19.8455 1.24357 21.1411C0.959154 21.2675 0.83275 21.6151 0.959154 21.8995C1.08556 22.184 1.43317 22.3104 1.71758 22.184C4.02447 21.1095 5.22531 21.6151 6.61576 22.2156C7.5322 22.5948 8.51184 23.0056 9.80748 23.0056C10.7555 23.0056 11.8616 22.7844 13.252 22.184C15.5589 21.1095 16.7597 21.6151 18.1502 22.2156C19.0666 22.5948 20.0463 23.0056 21.3419 23.0056C22.2899 23.0056 23.396 22.7844 24.7864 22.184C25.0709 22.0576 25.2289 21.7099 25.1025 21.4255Z" fill="black"/>
<path d="M25.0712 25.7865C24.9448 25.5021 24.5972 25.3441 24.3128 25.5021C21.4687 26.7345 20.0782 26.1341 18.593 25.5021C17.0761 24.8701 15.5276 24.2064 12.7783 25.5021C9.93424 26.7345 8.54379 26.1341 7.05853 25.5021C5.54168 24.8701 3.99322 24.2064 1.21231 25.5021C0.927904 25.6285 0.8015 25.9761 0.927904 26.2605C1.08591 26.5449 1.43352 26.6713 1.71793 26.5449C4.02482 25.4705 5.22566 25.9761 6.61612 26.5765C7.53255 26.9557 8.51219 27.3666 9.80783 27.3666C10.7559 27.3666 11.8619 27.1453 13.2524 26.5449C15.5592 25.4705 16.7601 25.9761 18.1505 26.5765C19.067 26.9557 20.0466 27.3666 21.3423 27.3666C22.2903 27.3666 23.3963 27.1453 24.7868 26.5449C25.0712 26.4185 25.2292 26.0709 25.0712 25.7865Z" fill="black"/>
</svg>
