<svg width="28" height="29" viewBox="0 0 28 29" fill="none" xmlns="http://www.w3.org/2000/svg">
<path d="M14.0014 27.1668C13.8881 27.1668 13.7749 27.1424 13.6698 27.0941L11.2986 25.9998C6.20761 23.6499 2.91797 18.5087 2.91797 12.9017V4.99998C2.91797 4.59757 3.21983 4.25898 3.61994 4.2133C5.18358 4.0347 6.75497 3.77297 8.28955 3.43516C10.1296 3.03006 11.9623 2.50629 13.7374 1.8785C13.9082 1.81817 14.0946 1.81817 14.2654 1.8785C16.0405 2.50629 17.8731 3.03006 19.7131 3.43516C21.2478 3.77305 22.8191 4.0347 24.3827 4.2133C24.7829 4.2589 25.0847 4.59757 25.0847 4.99998V12.9017C25.0847 18.5087 21.7951 23.65 16.7042 25.9998L14.333 27.0941C14.2279 27.1424 14.1146 27.1668 14.0014 27.1668ZM4.50131 5.70117V12.9017C4.50131 17.8933 7.42987 22.4701 11.9619 24.5618L14.0014 25.5031L16.0409 24.5618C20.5729 22.4701 23.5015 17.8933 23.5015 12.9017V5.70117C22.1164 5.52177 20.731 5.28023 19.373 4.98138C17.5608 4.58245 15.7549 4.07222 14.0014 3.46374C12.248 4.07222 10.4419 4.58245 8.62973 4.98138C7.27177 5.28015 5.88634 5.52177 4.50131 5.70117Z" fill="black" stroke="white" stroke-width="0.25"/>
<path d="M17.1667 20.0417H10.8333C9.96013 20.0417 9.25 19.3315 9.25 18.4583V12.9166C9.25 12.0434 9.96013 11.3333 10.8333 11.3333H17.1667C18.0399 11.3333 18.7501 12.0434 18.7501 12.9166V18.4583C18.7501 19.3315 18.0399 20.0417 17.1667 20.0417ZM10.8333 12.9166V18.4583H17.1679L17.1667 12.9166H10.8333Z" fill="black" stroke="white" stroke-width="0.25"/>
<path d="M16.3776 12.9167H11.6276C11.1904 12.9167 10.8359 12.5622 10.8359 12.125V10.5417C10.8359 8.79558 12.2565 7.375 14.0026 7.375C15.7487 7.375 17.1693 8.79558 17.1693 10.5417V12.125C17.1693 12.5622 16.8148 12.9167 16.3776 12.9167ZM12.4193 11.3334H15.586V10.5417C15.586 9.66848 14.8758 8.95835 14.0026 8.95835C13.1294 8.95835 12.4193 9.66848 12.4193 10.5417V11.3334Z" fill="black" stroke="white" stroke-width="0.25"/>
</svg>
