<svg width="28" height="29" viewBox="0 0 28 29" fill="none" xmlns="http://www.w3.org/2000/svg">
<g clip-path="url(#clip0_2348_48246)">
<path d="M14.5104 2.0937C14.2906 2.0937 14.088 1.94571 14.0145 1.73101C13.9419 1.51921 14.0033 1.27568 14.1693 1.13C14.3424 0.978074 14.5961 0.959206 14.7887 1.08275C14.9733 1.20114 15.0702 1.43264 15.0278 1.65346C14.9793 1.90579 14.7587 2.0937 14.5104 2.0937Z" fill="black"/>
<path d="M23.2488 1H16.8814C16.5902 1 16.3541 1.24484 16.3541 1.54687C16.3541 1.84891 16.5902 2.09375 16.8814 2.09375H22.7216V2.68159C22.7216 3.33111 22.212 3.85961 21.5857 3.85961H7.40934C6.78296 3.85961 6.27344 3.33116 6.27344 2.68164V2.09375H12.1136C12.4048 2.09375 12.6409 1.84891 12.6409 1.54687C12.6409 1.24484 12.4048 1 12.1136 1H5.74609C5.45484 1 5.21875 1.24484 5.21875 1.54687V2.68164C5.21875 3.93426 6.20145 4.95336 7.40934 4.95336H7.8455V5.50822C7.8455 6.87601 8.91854 7.98879 10.2375 7.98879H18.7575C20.0764 7.98879 21.1494 6.87601 21.1494 5.50822V4.95336H21.5856C22.7935 4.95336 23.7762 3.93426 23.7762 2.68159V1.54687C23.7762 1.24484 23.5401 1 23.2488 1ZM20.0948 5.50822C20.0948 6.27291 19.4949 6.89504 18.7575 6.89504H10.2375C9.5001 6.89504 8.90019 6.27291 8.90019 5.50822V4.95336H20.0948V5.50822Z" fill="black"/>
<path d="M14.5001 13.9963C13.464 13.9963 12.6211 13.1222 12.6211 12.0477C12.6211 11.1454 13.7495 9.67368 14.0953 9.24411C14.1955 9.1197 14.3438 9.04773 14.5001 9.04773C14.6564 9.04773 14.8047 9.11964 14.9049 9.24411C15.2507 9.67368 16.3792 11.1454 16.3792 12.0477C16.3792 13.1222 15.5363 13.9963 14.5001 13.9963ZM14.5001 10.4831C14.0544 11.1139 13.6758 11.7826 13.6758 12.0477C13.6758 12.5191 14.0456 12.9026 14.5001 12.9026C14.9547 12.9026 15.3245 12.5191 15.3245 12.0477C15.3245 11.7827 14.9458 11.1138 14.5001 10.4831Z" fill="black"/>
<path d="M20.389 22.2293C20.3339 21.7296 19.9645 20.7143 19.7493 20.1537C19.6071 19.7833 19.4625 19.4301 19.3422 19.1591C19.1534 18.7341 19.0048 18.398 18.6037 18.431C18.3151 18.4544 18.0989 18.7141 18.1116 19.0223C18.1239 19.3213 18.0301 19.7347 17.903 20.1181C17.7379 18.6048 17.0941 18.2196 16.388 17.9458C16.1059 17.8364 16.0096 17.7899 15.9488 17.6581C15.8644 17.4755 15.8005 17.0427 15.9751 16.0183C16.0022 15.8591 15.96 15.6956 15.8598 15.5717C15.7596 15.4478 15.6117 15.3762 15.4558 15.3762C12.7166 15.3762 12.333 17.5567 12.0793 18.9996C11.961 19.6718 11.8627 20.1563 11.6831 20.3309C11.5655 20.0393 11.4412 19.353 11.4523 18.4953C11.4562 18.1903 11.2433 17.939 10.957 17.9108C10.6243 17.8781 10.3998 18.1461 10.1977 18.4236C10.0241 18.6618 9.82995 18.9799 9.65107 19.3189C9.30956 19.9663 8.85916 20.9908 8.65276 22.1954C8.37464 23.8185 8.80542 25.4351 9.86565 26.7472C10.9932 28.1426 12.7073 28.9817 14.4609 28.9996C14.4736 28.9999 14.4863 29 14.4991 29C14.5014 29 14.5037 28.9999 14.5061 28.9999C14.5102 28.9999 14.5143 29 14.5184 29C16.2047 29 17.8159 28.2514 18.9389 26.9462C20.0485 25.6566 20.5771 23.9374 20.389 22.2293ZM13.0638 26.4176C13.0638 26.1642 13.2605 25.5119 13.6998 24.6259C13.8575 24.3077 14.0081 24.037 14.1409 23.8176C14.3705 24.3863 14.7907 24.6815 15.1258 24.9169C15.5954 25.2468 15.9347 25.4853 15.9347 26.4176C15.9347 27.236 15.2945 27.9022 14.5062 27.9061C14.4961 27.9061 14.486 27.9061 14.4759 27.9059C13.6951 27.8929 13.0638 27.2303 13.0638 26.4176ZM18.1521 26.2179C17.7746 26.6566 17.3301 27.0187 16.8418 27.2936C16.9372 27.02 16.9893 26.725 16.9893 26.4176C16.9893 24.9051 16.2542 24.3886 15.7173 24.0114C15.2719 23.6985 15.0266 23.526 15.0266 22.8555C15.0266 22.3509 14.7086 22.1211 14.4131 22.1211C14.0769 22.1211 13.8187 22.3897 13.5344 22.793C13.3282 23.0856 13.0916 23.4844 12.8682 23.9158C12.6099 24.4146 12.0091 25.6569 12.0091 26.4176C12.0091 26.7216 12.0601 27.0136 12.1536 27.2847C11.5919 26.9736 11.0857 26.554 10.6741 26.0446C9.81771 24.9848 9.46866 23.6857 9.69126 22.3867C9.85157 21.4511 10.1899 20.6065 10.5062 19.9826C10.5963 20.4998 10.7587 21.0053 11.049 21.2721C11.2325 21.4408 11.4603 21.516 11.6908 21.484C12.7402 21.3378 12.9403 20.1998 13.1169 19.1959C13.3759 17.7236 13.6407 16.7534 14.8406 16.523C14.7694 17.2385 14.821 17.748 14.9974 18.1303C15.247 18.671 15.693 18.844 16.0186 18.9702C16.2971 19.0782 16.461 19.1487 16.5927 19.3427C16.7894 19.6324 16.8891 20.1705 16.8891 20.942C16.8891 21.3847 16.9388 21.866 17.3069 22.0793C17.5144 22.1995 17.7678 22.1885 17.9848 22.0498C18.2889 21.8556 18.5962 21.3072 18.8212 20.6943C19.0702 21.3518 19.3081 22.0548 19.341 22.3534C19.4951 23.7521 19.0617 25.1607 18.1521 26.2179Z" fill="black"/>
<path d="M4.88038 26.6556C4.74544 26.6556 4.61049 26.6022 4.5075 26.4954C3.59082 25.5448 3.08594 24.279 3.08594 22.9314C3.08594 21.5837 3.59076 20.318 4.50745 19.3673C4.71337 19.1538 5.04729 19.1538 5.25327 19.3673C5.4592 19.5809 5.4592 19.9272 5.25327 20.1408C4.53576 20.8848 4.14062 21.8759 4.14062 22.9314C4.14062 23.9869 4.53576 24.978 5.25321 25.722C5.45914 25.9356 5.4592 26.2818 5.25321 26.4954C5.15033 26.6021 5.01533 26.6556 4.88038 26.6556Z" fill="black"/>
<path d="M6.87112 25.3884C6.73618 25.3884 6.60118 25.335 6.49824 25.2282C5.9074 24.6155 5.58203 23.7997 5.58203 22.9313C5.58203 22.0628 5.9074 21.2471 6.49829 20.6344C6.70422 20.4209 7.03813 20.4208 7.24406 20.6344C7.44999 20.848 7.44999 21.1943 7.24401 21.4078C6.8524 21.8139 6.63672 22.355 6.63672 22.9313C6.63672 23.5076 6.8524 24.0487 7.24406 24.4548C7.44999 24.6684 7.44999 25.0146 7.24406 25.2282C7.14107 25.3349 7.00607 25.3884 6.87112 25.3884Z" fill="black"/>
<path d="M24.1211 26.6555C23.9861 26.6555 23.8511 26.6021 23.7482 26.4953C23.5423 26.2817 23.5423 25.9355 23.7482 25.7219C25.232 24.1831 25.232 21.6794 23.7482 20.1406C23.5423 19.927 23.5423 19.5807 23.7482 19.3672C23.9541 19.1537 24.288 19.1536 24.494 19.3672C26.389 21.3324 26.389 24.5301 24.494 26.4953C24.391 26.6021 24.256 26.6555 24.1211 26.6555Z" fill="black"/>
<path d="M22.1328 25.3885C21.9979 25.3885 21.8629 25.3352 21.7599 25.2284C21.554 25.0148 21.554 24.6685 21.7599 24.4549C22.1516 24.0488 22.3673 23.5077 22.3673 22.9314C22.3673 22.3551 22.1516 21.8141 21.76 21.4079C21.554 21.1944 21.554 20.8481 21.76 20.6346C21.9659 20.421 22.2998 20.4209 22.5057 20.6345C23.0966 21.2472 23.4219 22.0629 23.4219 22.9314C23.4219 23.7999 23.0966 24.6156 22.5057 25.2283C22.4027 25.3351 22.2677 25.3885 22.1328 25.3885Z" fill="black"/>
</g>
<defs>
<clipPath id="clip0_2348_48246">
<rect width="28" height="28" fill="white" transform="translate(0 0.5)"/>
</clipPath>
</defs>
</svg>
