<svg width="28" height="29" viewBox="0 0 28 29" fill="none" xmlns="http://www.w3.org/2000/svg">
<path d="M1.7513 19.6715C1.94176 19.6703 2.13201 19.6843 2.32023 19.7134C2.33539 19.7177 2.35074 19.7197 2.36619 19.7228C2.76854 19.8039 3.15144 19.9619 3.49389 20.1881C4.18612 20.6474 5.00214 20.8841 5.83265 20.8666C6.6546 20.8862 7.46289 20.654 8.14919 20.2013C8.15689 20.1972 8.16429 20.1933 8.17194 20.1887C8.6837 19.8372 9.29334 19.6562 9.914 19.6715C10.5362 19.6575 11.1472 19.8381 11.6617 20.1881C12.3517 20.6478 13.1662 20.8846 13.9951 20.8666C14.8255 20.8825 15.6413 20.6461 16.3346 20.1887C16.8464 19.8373 17.456 19.6562 18.0766 19.6715C18.7026 19.6581 19.317 19.8408 19.8341 20.1939C20.5246 20.6489 21.3371 20.8835 22.164 20.8666C22.7212 20.8789 23.2748 20.7756 23.7901 20.5633C24.0356 20.4549 24.2733 20.3298 24.5018 20.189C25.0191 19.8434 25.6292 19.6629 26.2513 19.6715C26.406 19.6715 26.5544 19.61 26.6638 19.5006C26.7732 19.3912 26.8346 19.2429 26.8346 19.0882C26.8346 18.9334 26.7732 18.7851 26.6638 18.6757C26.5544 18.5663 26.406 18.5048 26.2513 18.5048C26.0245 18.5021 25.7979 18.5181 25.5737 18.5527C24.9809 18.6411 24.414 18.8561 23.9117 19.1832C23.7262 19.2981 23.5333 19.4004 23.3342 19.4897C22.9633 19.6411 22.5646 19.7127 22.1642 19.6997C21.5364 19.7155 20.9198 19.5319 20.403 19.1751C19.9136 18.8591 19.3637 18.6485 18.7884 18.5567L13.9817 11.5372L20.1409 8.45422C20.4118 8.31887 20.6497 8.12571 20.8378 7.88837C21.0259 7.65103 21.1596 7.37529 21.2295 7.08062C21.2994 6.78595 21.3038 6.47953 21.2423 6.18299C21.1808 5.88645 21.055 5.60702 20.8737 5.36442C20.583 4.98927 20.174 4.7234 19.7132 4.60996C19.2523 4.49652 18.7666 4.54217 18.335 4.7395L9.8251 8.76759C9.52937 8.90772 9.26578 9.10745 9.05087 9.35424C8.83596 9.60104 8.67436 9.88958 8.57621 10.2018C8.47806 10.514 8.44548 10.8431 8.48051 11.1684C8.51554 11.4938 8.61742 11.8084 8.77977 12.0926L9.91085 14.104L2.36567 18.5451C2.16195 18.5186 1.95674 18.5052 1.7513 18.5048C1.59659 18.5048 1.44822 18.5663 1.33882 18.6757C1.22943 18.7851 1.16797 18.9334 1.16797 19.0882C1.16797 19.2429 1.22943 19.3912 1.33882 19.5006C1.44822 19.61 1.59659 19.6715 1.7513 19.6715ZM10.5056 15.1073C10.7727 14.9496 10.967 14.6929 11.0461 14.393C11.1253 14.093 11.0831 13.7739 10.9285 13.5049L9.79209 11.5128C9.70966 11.3682 9.65798 11.2081 9.64029 11.0427C9.62259 10.8772 9.63928 10.7098 9.68928 10.5511C9.73929 10.3924 9.82154 10.2457 9.93089 10.1202C10.0402 9.99476 10.1743 9.89324 10.3247 9.82202L18.8329 5.7951C18.9861 5.72102 19.1573 5.69213 19.3264 5.71179C19.4955 5.73146 19.6555 5.79886 19.7877 5.90613C19.9199 6.0134 20.0187 6.15608 20.0728 6.3175C20.1268 6.47892 20.1338 6.65239 20.0929 6.81762C20.0632 6.94536 20.0053 7.06486 19.9235 7.16736C19.8417 7.26986 19.738 7.35278 19.62 7.41005L13.4635 10.4919C13.3123 10.5659 13.1788 10.6715 13.072 10.8017C12.9652 10.9318 12.8876 11.0834 12.8446 11.2462C12.8013 11.4107 12.7939 11.5827 12.8229 11.7504C12.8518 11.9181 12.9166 12.0776 13.0127 12.218L17.3712 18.5562C16.7902 18.6478 16.2353 18.8615 15.743 19.1832C15.2296 19.5358 14.6178 19.7166 13.9953 19.7C13.3695 19.7149 12.7551 19.5312 12.2402 19.1753C11.5504 18.7218 10.7394 18.488 9.914 18.5048C9.09005 18.4868 8.28024 18.7209 7.59292 19.1757C7.58405 19.1803 7.57495 19.1853 7.56614 19.1905C7.05675 19.5394 6.44981 19.7177 5.83265 19.6998C5.20965 19.7147 4.59771 19.5334 4.08347 19.1814C4.0018 19.1335 3.91693 19.0848 3.83007 19.0363L10.5056 15.1073Z" fill="black" stroke="black" stroke-width="0.25"/>
<path d="M26.2513 22.0902C25.4214 22.0732 24.606 22.3095 23.9137 22.7676C23.3931 23.1055 22.7857 23.2854 22.165 23.2854C21.5443 23.2854 20.9369 23.1055 20.4163 22.7676C19.717 22.3251 18.9066 22.0902 18.0791 22.0902C17.2516 22.0902 16.4411 22.3251 15.7419 22.7676C15.2283 23.1192 14.617 23.3003 13.9948 23.2854C13.3731 23.3003 12.7625 23.1191 12.2496 22.7676C11.5584 22.3095 10.7439 22.0732 9.91482 22.0902C9.08539 22.0732 8.27049 22.3095 7.5788 22.7676C7.06548 23.1192 6.45454 23.3003 5.83254 23.2854C5.21061 23.3003 4.59976 23.1191 4.0865 22.7676C3.39508 22.3096 2.58047 22.0733 1.7513 22.0902C1.59659 22.0902 1.44822 22.1517 1.33882 22.2611C1.22943 22.3705 1.16797 22.5188 1.16797 22.6735C1.16797 22.8283 1.22943 22.9766 1.33882 23.086C1.44822 23.1954 1.59659 23.2569 1.7513 23.2569C2.37317 23.2421 2.98391 23.4234 3.49704 23.775C4.18859 24.233 5.00335 24.4693 5.83265 24.4524C6.66204 24.4693 7.4769 24.233 8.16855 23.775C8.68187 23.4234 9.29281 23.2422 9.91482 23.2572C10.5365 23.2423 11.147 23.4235 11.66 23.775C12.3512 24.2331 13.1657 24.4694 13.9948 24.4524C14.8244 24.4694 15.6395 24.2331 16.3315 23.775C16.8518 23.437 17.4589 23.2572 18.0794 23.2572C18.6998 23.2572 19.3069 23.437 19.8272 23.775C20.5267 24.2175 21.3373 24.4524 22.165 24.4524C22.9926 24.4524 23.8033 24.2175 24.5027 23.775C25.0169 23.4233 25.6285 23.2421 26.2513 23.2569C26.406 23.2569 26.5544 23.1954 26.6638 23.086C26.7732 22.9766 26.8346 22.8283 26.8346 22.6735C26.8346 22.5188 26.7732 22.3705 26.6638 22.2611C26.5544 22.1517 26.406 22.0902 26.2513 22.0902Z" fill="black" stroke="black" stroke-width="0.25"/>
<path d="M17.8984 13.7105C17.8985 14.535 18.143 15.3409 18.6011 16.0264C19.0592 16.712 19.7103 17.2462 20.472 17.5617C21.2337 17.8772 22.0719 17.9597 22.8806 17.7988C23.6892 17.638 24.432 17.2409 25.0149 16.6579C25.5979 16.0749 25.9949 15.332 26.1557 14.5234C26.3165 13.7147 26.2339 12.8766 25.9184 12.1149C25.6029 11.3531 25.0685 10.7021 24.383 10.2441C23.6974 9.78605 22.8914 9.54159 22.0669 9.54163C20.9617 9.5428 19.902 9.9824 19.1205 10.764C18.339 11.5455 17.8995 12.6052 17.8984 13.7105ZM22.0669 10.7083C22.6606 10.7083 23.241 10.8843 23.7346 11.2142C24.2283 11.544 24.613 12.0128 24.8402 12.5613C25.0675 13.1098 25.1269 13.7134 25.0111 14.2956C24.8953 14.8779 24.6094 15.4128 24.1897 15.8326C23.7699 16.2525 23.235 16.5384 22.6527 16.6542C22.0705 16.7701 21.4669 16.7107 20.9184 16.4835C20.3699 16.2564 19.901 15.8717 19.5711 15.3781C19.2413 14.8845 19.0652 14.3041 19.0651 13.7104C19.066 12.9145 19.3825 12.1515 19.9453 11.5887C20.508 11.0259 21.271 10.7092 22.0669 10.7083Z" fill="black" stroke="black" stroke-width="0.25"/>
</svg>
