<svg width="28" height="29" viewBox="0 0 28 29" fill="none" xmlns="http://www.w3.org/2000/svg">
<path d="M14.0009 18.2888C14.8526 18.2888 15.6694 18.6271 16.2716 19.2294C16.8739 19.8316 17.2122 20.6484 17.2122 21.5001C17.2122 22.3517 16.8739 23.1685 16.2716 23.7708C15.6694 24.373 14.8526 24.7113 14.0009 24.7113C13.1493 24.7113 12.3325 24.373 11.7302 23.7708C11.128 23.1685 10.7897 22.3517 10.7897 21.5001C10.7897 20.6484 11.128 19.8316 11.7302 19.2294C12.3325 18.6271 13.1493 18.2888 14.0009 18.2888ZM14.0009 20.0388C13.6134 20.0388 13.2417 20.1928 12.9677 20.4668C12.6936 20.7408 12.5397 21.1125 12.5397 21.5001C12.5397 21.8876 12.6936 22.2593 12.9677 22.5333C13.2417 22.8074 13.6134 22.9613 14.0009 22.9613C14.3885 22.9613 14.7602 22.8074 15.0342 22.5333C15.3082 22.2593 15.4622 21.8876 15.4622 21.5001C15.4622 21.1125 15.3082 20.7408 15.0342 20.4668C14.7602 20.1928 14.3885 20.0388 14.0009 20.0388ZM14.0009 13.6251C15.4606 13.6254 16.8914 14.0315 18.1336 14.7978C19.3759 15.5642 20.3807 16.6608 21.0359 17.9651L19.7147 19.2863C19.2692 18.1327 18.4849 17.141 17.4651 16.4416C16.4452 15.7422 15.2376 15.3678 14.0009 15.3678C12.7643 15.3678 11.5566 15.7422 10.5368 16.4416C9.51693 17.141 8.73268 18.1327 8.28719 19.2863L6.96594 17.9651C7.62115 16.6608 8.62597 15.5642 9.86823 14.7978C11.1105 14.0315 12.5413 13.6254 14.0009 13.6251ZM14.0009 8.96132C18.3584 8.96132 22.1997 11.1838 24.4484 14.5613L23.1797 15.8213C22.213 14.2564 20.8622 12.9646 19.2557 12.0687C17.6493 11.1728 15.8404 10.7025 14.0009 10.7025C12.1615 10.7025 10.3526 11.1728 8.74613 12.0687C7.13963 12.9646 5.78888 14.2564 4.82219 15.8213L3.55344 14.5526C4.69738 12.8294 6.25012 11.4161 8.0731 10.439C9.89607 9.46186 11.9326 8.95119 14.0009 8.95257V8.96132ZM14.0009 4.28882C19.6447 4.28882 24.6584 7.00132 27.7909 11.2013L26.5397 12.4613C25.1105 10.4705 23.2279 8.84856 21.0475 7.72974C18.8671 6.61092 16.4516 6.02737 14.0009 6.02737C11.5502 6.02737 9.13478 6.61092 6.95438 7.72974C4.77398 8.84856 2.89133 10.4705 1.46219 12.4613L0.210938 11.2101C3.34344 7.01007 8.34844 4.29757 14.0009 4.29757V4.28882Z" fill="#222222"/>
</svg>
