<svg xmlns="http://www.w3.org/2000/svg" width="192" height="167" fill="none" viewBox="0 0 192 167">
    <path fill="#fef2f2" d="M20.58 87.457s10.138-43.49 35.852-56.979 42.357-2.722 60.355 5.87c17.999 8.594 47.662 10.203 56.886 29.658s11.118 36.046-.688 50.167-23.567 13.152-53.532 18.137c-29.965 4.984-29.47 20.212-55.843 23.842-26.372 3.631-38.733-27.318-42.234-43.434-3.5-16.117-.796-27.26-.796-27.26" opacity=".7"/>
    <path stroke="#191919" stroke-miterlimit="10" stroke-width="1.318" d="M152.797 114.382V88.251M149.508 114.911v-36.09M156.969 115.086v-12.675"/>
    <path fill="#ea3934" d="M148.231 82.378s-.659-1.196-2.86-3.806c-2.199-2.61-11.328-9.677-11.328-9.677s5.169 2.719 6.82 4.133a152 152 0 0 0 3.849 3.152s-6.159-6.634-6.82-7.067c-.658-.436 6.269 5.22 6.269 5.22s-2.64-5.22-3.959-6.958c-1.32-1.739-3.85-5.871-3.85-5.871s7.148 9.459 7.479 10.003c.33.545 1.76 2.937 1.76 2.937l-2.529-6.525 3.08 5.329s-4.398-9.026-4.618-9.459c-.221-.436 3.08 4.242 3.08 4.242l-2.86-8.481 6.599 13.374-.44-5.22 1.209 5.437.331-13.373.769 13.264s1.21-8.48 1.43-10.221.33-3.588.33-3.588-.22 11.526-.22 11.85c0 .325-.22 2.938-.22 2.938s1.65-4.893 2.088-6.198.88-5.762 1.1-6.416c.22-.651-1.1 10.004-1.21 10.44s-.44 1.413-.769 2.065c-.33.65 2.42-3.915 3.409-5.871l2.86-5.653s-1.65 5.437-2.089 6.415-3.298 6.198-3.298 6.198 4.29-5.002 6.158-6.307 5.28-3.805 5.28-3.805-5.5 5.87-6.599 6.957c-1.1 1.088-4.291 4.893-4.291 4.893s5.5-3.479 5.828-3.805c.331-.327 4.291-2.828 4.291-2.828s-7.984 6.235-8.358 6.633c-3.188 3.37-4.29 5.002-4.949 5.653-.659.652-1.76.978-2.75 0z"/>
    <path fill="#ea3934" d="M152.026 91.91s-.467-.846-2.021-2.693c-1.557-1.845-8.013-6.844-8.013-6.844s3.656 1.923 4.822 2.922c1.167 1 2.724 2.231 2.724 2.231s-4.358-4.691-4.822-5c-.467-.307 4.434 3.693 4.434 3.693s-1.866-3.692-2.801-4.921c-.934-1.232-2.723-4.154-2.723-4.154s5.057 6.69 5.289 7.076c.232.384 1.245 2.077 1.245 2.077l-1.789-4.616 2.178 3.768s-3.112-6.382-3.268-6.69 2.178 3 2.178 3l-2.022-5.999 4.669 9.46-.312-3.693.855 3.846.233-9.458.543 9.383s.856-6 1.011-7.23c.156-1.232.233-2.54.233-2.54s-.156 8.152-.156 8.384-.156 2.077-.156 2.077l1.478-4.384c.312-.923.623-4.075.779-4.537.155-.462-.779 7.076-.856 7.384s-.311 1-.543 1.461 1.71-2.768 2.412-4.154c.702-1.385 2.022-4 2.022-4s-1.167 3.846-1.478 4.538c-.312.692-2.333 4.384-2.333 4.384s3.034-3.539 4.357-4.462c1.322-.924 3.734-2.693 3.734-2.693s-3.89 4.154-4.668 4.921c-.779.77-3.035 3.46-3.035 3.46s3.89-2.46 4.122-2.692 3.035-2 3.035-2-5.646 4.41-5.912 4.692c-2.256 2.385-3.035 3.539-3.499 4-.468.462-1.246.692-1.946 0z"/>
    <path fill="#ea3934" d="M155.984 102.891s-.468-.845-2.022-2.692c-1.557-1.845-8.013-6.845-8.013-6.845s3.656 1.923 4.822 2.923c1.167 1 2.724 2.23 2.724 2.23s-4.358-4.69-4.822-4.999c-.467-.308 4.434 3.692 4.434 3.692s-1.866-3.692-2.801-4.92c-.934-1.232-2.723-4.155-2.723-4.155s5.057 6.69 5.289 7.077c.232.383 1.245 2.077 1.245 2.077l-1.789-4.616 2.178 3.768s-3.112-6.383-3.268-6.69 2.178 3 2.178 3l-2.022-5.999 4.669 9.459-.312-3.692.855 3.846.233-9.459.543 9.383s.856-5.999 1.011-7.23c.156-1.232.233-2.539.233-2.539s-.156 8.152-.156 8.384-.156 2.077-.156 2.077l1.478-4.384c.312-.924.623-4.076.779-4.538.155-.461-.779 7.077-.855 7.385-.077.308-.312 1-.544 1.46-.233.463 1.71-2.768 2.412-4.153s2.022-4 2.022-4-1.167 3.846-1.478 4.538c-.312.691-2.333 4.383-2.333 4.383s3.035-3.538 4.357-4.462 3.734-2.692 3.734-2.692-3.89 4.154-4.668 4.92c-.779.77-3.035 3.461-3.035 3.461s3.89-2.46 4.122-2.693c.232-.23 3.035-1.999 3.035-1.999s-5.646 4.41-5.912 4.692c-2.256 2.385-3.035 3.538-3.499 4-.465.462-1.246.692-1.945 0z"/>
    <path fill="#fff" stroke="#191919" stroke-miterlimit="10" stroke-width=".329" d="M160.905 123.543c0 5.134-1.365 9.667-3.451 12.405h-9.256c-2.087-2.738-3.452-7.271-3.452-12.405a28 28 0 0 1 .388-4.647q.104-.605.232-1.184.108-.482.233-.947c.393-1.466.908-2.797 1.523-3.944h11.407c.616 1.147 1.131 2.478 1.524 3.944a23 23 0 0 1 .464 2.131c.182 1.059.305 2.169.357 3.316q.032.658.031 1.331Z"/>
    <path fill="#191919" stroke="#191919" stroke-miterlimit="10" stroke-width=".329" d="M160.057 116.765h-14.454q-.126.465-.232.947h14.918a23 23 0 0 0-.232-.947Zm.464 2.131h-15.383a27 27 0 0 0-.357 3.316h16.097a27 27 0 0 0-.357-3.316Z"/>
    <g clip-path="url(#a)">
        <path fill="#faa9a7" d="M31.05 127.139v1.086c0 2.637 2.146 4.775 4.792 4.775H138.26c2.646 0 4.791-2.137 4.791-4.775v-1.086c0-.815-.662-1.475-1.479-1.475H32.531c-.818 0-1.48.66-1.48 1.475M136.983 63.196v62.468H37.121V63.199a3.64 3.64 0 0 1 3.644-3.632h92.576a3.636 3.636 0 0 1 3.642 3.629"/>
        <path fill="#fff" d="M135.411 125.663V63.194a2.07 2.07 0 0 0-2.073-2.065H40.76a2.07 2.07 0 0 0-2.072 2.065v62.469z"/>
        <path fill="#f67773" d="m98.611 125.663-1.479 2.497c-.21.356-.595.575-1.01.575h-18.14c-.416 0-.8-.219-1.01-.575l-1.48-2.497z"/>
        <path fill="#fee3e2" d="M128.706 39H45.392a2.12 2.12 0 0 0-2.126 2.118v79.695c0 1.17.952 2.119 2.126 2.119h83.314a2.123 2.123 0 0 0 2.126-2.119V41.119c0-1.17-.952-2.119-2.126-2.119"/>
        <path fill="#fff" d="M130.09 120.691v-79.45c0-.83-.675-1.502-1.507-1.502h-83.07c-.832 0-1.506.672-1.506 1.501v79.451c0 .829.674 1.501 1.506 1.501h83.07c.832 0 1.507-.672 1.507-1.501"/>
        <path fill="#ffc837" d="M47.579 42.46c0 .426-.346.771-.773.771a.773.773 0 0 1-.775-.77.773.773 0 0 1 1.548 0"/>
        <path fill="#3cd278" d="M49.63 42.46c0 .426-.346.771-.774.771a.773.773 0 0 1-.774-.77.773.773 0 0 1 1.547 0"/>
        <path fill="#ff5252" d="M51.68 42.46c0 .426-.346.771-.773.771a.773.773 0 0 1-.774-.77.773.773 0 0 1 1.547 0"/>
        <path fill="#fee3e2" d="M106.99 45.838v6.83c0 .731-.595 1.323-1.329 1.323H68.438a1.325 1.325 0 0 1-1.329-1.323v-6.83c0-.731.596-1.325 1.33-1.325h37.222c.734 0 1.329.593 1.329 1.325"/>
        <path fill="#d250dc" d="M50.05 70a6 6 0 1 0 12.002-.001 6 6 0 0 0-12.001 0"/>
        <g clip-path="url(#b)">
            <path fill="#fff" d="M56.05 66.5c-1.93 0-3.5 1.57-3.5 3.5s1.57 3.5 3.5 3.5 3.5-1.57 3.5-3.5-1.57-3.5-3.5-3.5m1.767 3.108-.692.674.163.952a.264.264 0 0 1-.382.278l-.855-.449-.855.45a.264.264 0 0 1-.383-.279l.163-.952-.691-.674a.264.264 0 0 1 .146-.45l.956-.139.427-.866a.264.264 0 0 1 .474 0l.427.866.955.14a.264.264 0 0 1 .147.45"/>
        </g>
        <path fill="#191919" fill-opacity=".1" d="M84.1 63.814H68.05a.86.86 0 0 0-.859.856v3.097c0 .473.385.856.86.856H84.1c.474 0 .86-.383.86-.856V64.67a.86.86 0 0 0-.86-.857M124.674 72.78c0 .22-.179.395-.398.395H67.589a.396.396 0 1 1 0-.792h56.687c.219 0 .397.178.397.396zM103.172 74.688a.396.396 0 0 1-.281.676H67.589a.395.395 0 0 1-.398-.395c0-.219.179-.397.398-.397h35.302c.108 0 .208.044.281.116M67.191 70.59a.4.4 0 0 1 .398-.397h56.687a.397.397 0 0 1 0 .792H67.589a.397.397 0 0 1-.398-.395"/>
        <path fill="#1258ff" d="M50.05 89a6 6 0 1 0 12.002-.001 6 6 0 0 0-12.001 0"/>
        <path fill="#191919" fill-opacity=".1" d="M84.1 83.368H68.05a.86.86 0 0 0-.859.856v3.097c0 .473.385.857.86.857H84.1c.474 0 .86-.384.86-.857v-3.097a.86.86 0 0 0-.86-.856M124.674 92.334c0 .22-.179.396-.398.396H67.589a.396.396 0 1 1 0-.792h56.687c.219 0 .397.177.397.396zM103.172 94.243a.396.396 0 0 1-.281.676H67.589a.395.395 0 0 1-.398-.396c0-.218.179-.396.398-.396h35.302c.108 0 .208.044.281.116M67.191 90.144a.4.4 0 0 1 .398-.396h56.687c.219 0 .397.178.397.396a.397.397 0 0 1-.397.396H67.589a.397.397 0 0 1-.398-.396"/>
        <path fill="#3cd278" d="M50.05 108.999a6.001 6.001 0 1 0 12.003 0 6.001 6.001 0 0 0-12.002 0"/>
        <g clip-path="url(#c)">
            <path fill="#fff" d="M53.426 108.356v2.526c0 .575.465 1.04 1.04 1.04h3.17a1.04 1.04 0 0 0 1.04-1.04v-2.526zm3.893 1.119-1.397 1.387a.24.24 0 0 1-.178.07.28.28 0 0 1-.179-.07l-.792-.782c-.1-.099-.1-.258 0-.347a.24.24 0 0 1 .347 0l.614.614 1.218-1.218.01.01a.26.26 0 0 1 .347 0 .227.227 0 0 1 .01.336m.317-2.704h-.1v-.446a.245.245 0 0 0-.247-.247.245.245 0 0 0-.248.247v.446h-1.98v-.446a.245.245 0 0 0-.248-.247.245.245 0 0 0-.248.247v.446h-.1a1.04 1.04 0 0 0-1.04 1.04v.05h5.25v-.05a1.04 1.04 0 0 0-1.04-1.04"/>
        </g>
        <path fill="#191919" fill-opacity=".1" d="M84.1 102.922H68.05a.86.86 0 0 0-.859.857v3.097c0 .473.385.856.86.856H84.1c.474 0 .86-.383.86-.856v-3.097a.86.86 0 0 0-.86-.857M124.674 111.888c0 .22-.179.396-.398.396H67.589a.396.396 0 1 1 0-.792h56.687c.219 0 .397.178.397.396zM103.172 113.797a.397.397 0 0 1-.281.677H67.589a.394.394 0 0 1-.398-.397c0-.218.179-.396.398-.396h35.302a.4.4 0 0 1 .281.116M67.191 109.698a.4.4 0 0 1 .398-.396h56.687c.219 0 .397.179.397.396a.4.4 0 0 1-.397.397H67.589a.4.4 0 0 1-.398-.397"/>
    </g>
    <defs>
        <clipPath id="a">
            <path fill="#fff" d="M31.05 39h112v94h-112z"/>
        </clipPath>
        <clipPath id="b">
            <path fill="#fff" d="M52.05 66h8v8h-8z"/>
        </clipPath>
        <clipPath id="c">
            <path fill="#fff" d="M53.05 106h6v6h-6z"/>
        </clipPath>
    </defs>
</svg>
