<svg xmlns="http://www.w3.org/2000/svg" width="28" height="29" fill="none" viewBox="0 0 28 29">
    <g fill="#000" clip-path="url(#a)">
        <path d="M21.895 8.666q-.015-.001-.031-.004a26 26 0 0 0-7.347 0q-1.194.17-2.355.5a11 11 0 0 0-1.429.504V1.4a1.4 1.4 0 0 0-1.4-1.4 7.003 7.003 0 0 0-6.976 6.533H1.4a1.4 1.4 0 0 0-1.4 1.4v3.734a1.4 1.4 0 0 0 1.4 1.4h.957A7.003 7.003 0 0 0 9.333 19.6a1.4 1.4 0 0 0 1.377-1.163q.5.593 1.09 1.1l-3.21 6.065a1.633 1.633 0 0 0 2.887 1.529l3.119-5.891c.71.28 1.449.477 2.204.585v3.842a1.4 1.4 0 1 0 2.8 0v-3.842a9.8 9.8 0 0 0 2.204-.585l3.119 5.89a1.633 1.633 0 1 0 2.887-1.528l-3.208-6.06A9.72 9.72 0 0 0 28 12.134c0-1.79-2.753-2.97-6.105-3.467m1.815 5.625-1.253-4.594c.467.085.905.187 1.312.294l1.604 3.729q-.808.353-1.663.571m-3.227.54-.517-5.438q.774.053 1.481.148l1.353 4.962a21 21 0 0 1-2.317.328m-1.458-5.483.528 5.547a26 26 0 0 1-1.353.038q-.686 0-1.353-.036l.535-5.55a26 26 0 0 1 1.643 0M13.6 14.5l1.348-4.956q.727-.096 1.493-.15l-.523 5.439A21 21 0 0 1 13.6 14.5m-1.183-4.443c.47-.137.983-.253 1.52-.352l-1.246 4.583a10 10 0 0 1-1.958-.717v-2.873a9 9 0 0 1 1.684-.64M.933 11.667V7.933c0-.257.21-.466.467-.466h.933v4.666H1.4a.467.467 0 0 1-.467-.466m8.4 7A6.074 6.074 0 0 1 3.267 12.6V7A6.074 6.074 0 0 1 9.333.933c.258 0 .467.21.467.467v16.8a.467.467 0 0 1-.467.467m1.32 8.026a.71.71 0 0 1-.947.291.7.7 0 0 1-.291-.946l3.706-7a.7.7 0 0 1 .62-.371.7.7 0 0 1 .617 1.026zm7.547-.56a.467.467 0 0 1-.467-.466v-3.745a10 10 0 0 0 .934 0v3.745a.467.467 0 0 1-.467.466m8.835.439a.7.7 0 0 1-.342.413.71.71 0 0 1-.945-.291l-3.706-7a.7.7 0 0 1 1.237-.654l3.706 7a.7.7 0 0 1 .05.532m-2.88-7.875-.051-.094a1.633 1.633 0 1 0-2.887 1.53l.148.28a8.8 8.8 0 0 1-6.33 0l.148-.28a1.634 1.634 0 1 0-2.887-1.53l-.046.09a8.8 8.8 0 0 1-1.517-1.789v-2.302q1.043.442 2.147.692l.02.01a.3.3 0 0 0 .054.007q1.647.372 3.333.487h.005l.047.002a27 27 0 0 0 3.717-.001h.006q.023 0 .047-.002.006-.001.012-.004a22.4 22.4 0 0 0 3.321-.483l.063-.008c.009-.003.015-.01.025-.013a9.7 9.7 0 0 0 3.353-1.353 8.77 8.77 0 0 1-2.729 4.76m2.043-5.42-1.25-2.908c1.34.515 2.119 1.155 2.119 1.764 0 .383-.312.776-.869 1.145"/>
        <path d="M4.666 7.467A.467.467 0 0 0 5.133 7a4.214 4.214 0 0 1 3.36-4.116.467.467 0 0 0-.187-.914A5.15 5.15 0 0 0 4.199 7a.467.467 0 0 0 .467.467M14.639 3.895A1.39 1.39 0 0 0 14 5.015c.017.456.256.874.639 1.12.233.192.294.258.294.397a.467.467 0 0 0 .934 0 1.39 1.39 0 0 0-.64-1.12c-.232-.192-.294-.259-.294-.398s.06-.205.295-.396c.383-.247.622-.665.639-1.12a1.39 1.39 0 0 0-.64-1.12c-.233-.192-.294-.258-.294-.396s.06-.204.295-.396c.383-.246.622-.664.639-1.12a.467.467 0 0 0-.934 0c0 .14-.059.205-.294.396A1.39 1.39 0 0 0 14 1.982c.016.455.255.874.639 1.12.233.191.294.258.294.396s-.059.205-.294.397M17.44 3.895a1.39 1.39 0 0 0-.64 1.12c.018.456.256.874.64 1.12.233.192.294.258.294.397a.467.467 0 1 0 .933 0 1.39 1.39 0 0 0-.638-1.12c-.234-.192-.295-.259-.295-.398s.06-.205.295-.396c.383-.247.622-.665.638-1.12a1.39 1.39 0 0 0-.639-1.12c-.233-.192-.294-.258-.294-.396s.06-.204.295-.396c.383-.246.622-.664.638-1.12a.467.467 0 1 0-.933 0c0 .14-.06.205-.294.396a1.39 1.39 0 0 0-.64 1.12c.017.455.256.874.64 1.12.233.191.294.258.294.396s-.06.205-.294.397M20.237 3.895a1.39 1.39 0 0 0-.64 1.12c.018.456.256.874.64 1.12.233.192.294.258.294.397a.467.467 0 1 0 .933 0 1.39 1.39 0 0 0-.638-1.12c-.234-.192-.295-.259-.295-.398s.06-.205.295-.396c.383-.247.621-.665.638-1.12a1.39 1.39 0 0 0-.639-1.12c-.233-.192-.294-.258-.294-.396s.06-.204.295-.396c.383-.246.622-.664.638-1.12a.467.467 0 1 0-.933 0c0 .14-.06.205-.294.396a1.39 1.39 0 0 0-.64 1.12c.017.455.256.874.64 1.12.233.191.294.258.294.396s-.06.205-.294.397"/>
    </g>
    <defs>
        <clipPath id="a">
            <path fill="#fff" d="M0 0h28v28H0z"/>
        </clipPath>
    </defs>
</svg>
