<svg xmlns="http://www.w3.org/2000/svg" width="153" height="120" fill="none" viewBox="0 0 153 120">
    <g clip-path="url(#a)">
        <path fill="#fef6f6" d="M64.767 29.965c-10.974 3.947-29.905-6.484-42.798-2.06-19.08 6.548-27.24 34.49-18.004 61.04 9.236 26.552 28.713 29.672 43.296 29.442s27.05-10.507 34.285-7.649 37.319 20.835 58.185-6.185c19.395-25.115 13.392-64.035.308-85.608-9.5-15.664-30.204-24.573-47.256-14.981-12.161 6.84-17.007 22.04-28.015 26"/>
        <path fill="#fdcccb" d="M137.487 107.376a43.7 43.7 0 0 0 6.376-8.97c-15.006 2.767-37.219 16.122-37.219 16.122S75.96 91.634 54.351 95.513c-17.666 3.171-33.447 9.618-39.062 12.249 9.663 9.563 22.728 10.927 33.182 10.789 14.037-.186 26.04-8.488 33.004-6.18 6.965 2.31 35.926 16.832 56.013-4.996z"/>
        <path fill="#fff" d="M116.99 68.147H64.608s-2.878-2.583-1.44-5.74c1.44-3.157 6.044-5.07 11.513-1.052 0 0-1.727-2.392 0-5.645s6.428-1.435 7.77 1.578c0 0-.767-2.248 1.248-3.587 2.015-1.34 3.262 1.507 3.262 1.507s-.768-7.535 4.797-8.396c5.564-.86 14.198 4.196 12.376 13.866 0 0 10.265-2.768 12.856 7.47M144.433 62.717h-20.312s-1.117-1.002-.558-2.226 2.343-1.966 4.464-.408c0 0-.669-.928 0-2.19.67-1.261 2.493-.556 3.014.613 0 0-.298-.873.483-1.392.782-.52 1.265.584 1.265.584s-.297-2.921 1.86-3.255 5.506 1.626 4.799 5.376c0 0 3.98-1.073 4.985 2.897M36.467 68.526H8.46s-1.539-1.381-.769-3.07 3.232-2.71 6.155-.562c0 0-.923-1.278 0-3.018s3.437-.767 4.155.845c0 0-.41-1.202.666-1.918s1.744.805 1.744.805-.41-4.028 2.565-4.488 7.591 2.243 6.616 7.413c0 0 5.489-1.48 6.874 3.993"/>
        <path fill="#ffd3cf" d="M35.352 63.415v.48l2.148 8.613 6.418 1.985 2.164-1.706-.597-2.394-2.35-5.867-5.51-2.195z"/>
        <path fill="#faa9a7" d="m44.72 68.486-1.586-3.96-5.51-2.195-2.272 1.085v.48s1.981 4.625 9.369 4.59"/>
        <path fill="#ffd3cf" d="M44.688 43.28s4.129 3.993 5.174 13.271l-2.14.348s1.791 5.309-2.388 7.74c-4.178 2.43-11.542-.398-13.68-3.97-2.14-3.571-.647-10.07-.647-10.07l5.77-4.912 7.91-2.406z"/>
        <path fill="#fff" d="m39.118 59.677 7.611-.71s.456 3.65-2.14 4.316c-3.73.958-5.472-3.606-5.472-3.606"/>
        <path fill="#ffd3cf" d="M57.488 76.836s8.507 17.93 5 22.364c-3.525 4.455-9.254 3.655-9.254 3.655l1.636-12.868.536-6.989z"/>
        <path fill="#b6231f" d="M45.226 69.755s8.543.354 10.558 1.62c2.015 1.264 4.69 10.633 4.69 10.633l-5.067 2.449-4.846-7.19-5.71-4.07c1.245-.616.923-1.975.375-3.442"/>
        <path fill="#d92e29" d="m21.969 82.307 5.97 14.735 1.583 3.646 19.984-1.712 1.268-26.063-19.03.91z"/>
        <path fill="#383838" d="m49.955 102.102-11.816-1.413-6.318-.893H29.99l-.467 4.093s-1.687 4.343-2.5 12.137c6.852 2.187 13.995 2.606 20.24 2.526 2.343-.03 4.632-.27 6.854-.641-.35-2.359-1.815-11.445-4.162-15.807z"/>
        <path fill="#d92e29" d="M29.523 100.688v3.2l20.432-1.786-.448-3.126z"/>
        <path fill="#b6231f" d="m19.875 77.105.373-2.613s2.537-1.74 9.75-2.952c7.215-1.212-1.964 4.58-1.964 4.58l-1.144 6.557-4.215.147-2.004-4.144z"/>
        <path fill="#191919" d="M34.085 112.372s11.951-4.898 17.59-5.761c-.475-1.511-1.052-3.102-1.722-4.509l-9.817-1.174-9.069 1.802-1.501.765-.045.393s-1.106 2.846-1.959 8.063z"/>
        <path fill="#ea3934" d="m68.89 86.96.112 3.417.845-.06-.007-3.55-.75.08z"/>
        <path fill="#ea3934" d="m69.875 93.007-.015-.421.67-.007-.001-.358-.666.006-.014-.421.678-.008-.002-.382-.671.006-.015-.421.685-.008-.003-.781-2.193-.032.132 3.357 2.073-.019-.002-.517zM69.262 84.026c-1.337-.034-2.414.58-2.441 1.493-.02.694.603 1.566 2.489 1.634 1.779.064 2.54-.846 2.578-1.499.04-.708-.618-1.578-2.626-1.628m.034 2.062c-.713-.025-.948-.355-.941-.617.01-.345.417-.577.923-.565.759.02 1.008.348.993.616-.015.247-.302.59-.975.566"/>
        <path fill="#191919" d="m69.357 83.188-.14-.004a2.32 2.32 0 0 1-1.605-.777 2.3 2.3 0 0 1-.584-1.681 2.33 2.33 0 0 1 2.464-2.183A2.33 2.33 0 0 1 71.682 81a2.33 2.33 0 0 1-2.325 2.188m-.005-4.214c-1 0-1.83.781-1.889 1.777-.03.504.14.989.475 1.366.336.377.8.601 1.305.632a1.89 1.89 0 0 0 2.002-1.774 1.89 1.89 0 0 0-1.893-2"/>
        <path fill="#191919" d="m69.546 82.752-.437.008.043 2.358.437-.008z"/>
        <path fill="#ffd3cf" d="M78.94 75.3s-4.483-3.4-5.511-3.634-5.279 1.957-6.26 3.214c-.98 1.258-.56 4.938-.28 5.73s1.214-.372 1.214-.372.187 1.297 1.495.649c1.309-.65 4.249-2.279 5.183-4.795l2.618.466z"/>
        <path fill="#383838" d="m102.648 70.851-1.005-.944s-8.034 8.747-9.715 17.878c0 0-7.148-9.107-13.313-13.16l-2.943 2.166s5.395 15.861 15.905 23.758c0 0 5.947-4.123 9.319-10.016l.593-11.157z"/>
        <path fill="#191919" d="M100.843 52.621c-1.02 0-1.85-1.261-1.85-2.813 0-1.551.83-2.813 1.85-2.813s1.851 1.262 1.851 2.813-.831 2.813-1.851 2.813m0-5.387c-.89 0-1.612 1.155-1.612 2.574 0 1.42.724 2.575 1.612 2.575s1.611-1.155 1.611-2.575-.723-2.574-1.611-2.574"/>
        <path fill="#fff" d="m75.842 76.667-.272-.435 2.507-1.876.429.35z"/>
        <path fill="#191919" d="m101.339 82.21-1.126-7.1s-4.167 11.875-3.211 20.615c1.374-1.48 2.776-3.237 3.894-5.192l.443-8.321zM124.392 117.216c-.004-.013-2.012-6.938-5.745-13.826l-10.324-1.817-5.325 1.351c-.094.094-1.355 3.68-1.355 3.68-.091 4.675-.046 8.807.28 11.822 6.944 1.169 14.808 1.333 22.468-1.21z"/>
        <path fill="#383838" d="m105.572 68.965-3.925.942s-5.745 14.01 0 36.697l17.004-3.214s.28-9.41 5.746-19.1l-3.504-15.325-4.998 2.097-8.315 14.347-1.915 5.125-1.262-12.67 1.916-6.988z"/>
        <path fill="#fff" d="m110.569 68.021-1.856.734s-2.909 5.02-3.049 21.778c0 0 3.959-12.939 10.335-23.455l-3.052.244z"/>
        <path fill="#ea3934" d="m109.541 68.965-.76.36.561 3.622 5.165-4.843-3.483.476z"/>
        <path fill="#ea3934" d="m107.226 76.069 2.617-4.42.514 5.747-1.646 6.056-1.788 4.371-1.261 2.71-.631-7.78 1.342-4.24.408-2.799z"/>
        <path fill="#ffd3cf" d="m115.366 58.937 2.558-3.25s-2.067 5.276-1.927 11.39c0 0-5.149 3.948-7.007 2.516-.893-.69.642-2.61.642-2.61l-.093-4.425 5.371-3.353z"/>
        <path fill="#faa9a7" d="m115.366 58.937-.455.268-5.372 3.354.074 3.507c.366.324 1.15.671 2.658-.013 1.697-.769 3.397-3.36 4.592-6.771.341-1.456.696-2.561.896-3.14l.076-.341-2.468 3.136z"/>
        <path fill="#191919" d="M109.627 66.985s-4.8 1.65-5.489 2.321c0 0-2.219 8.51 1.518 21.227 0 0 1.327-14.582 3.971-23.548"/>
        <path fill="#ffd3cf" d="M106.594 41.928s-5.573 5.292-6.719 15.19l3.054-.532s-.759 6.46 2.787 7.804c3.512 1.333 10.918-.608 13.171-9.365l.306-7.69-6.414-1.371-5.04-3.237z"/>
        <path fill="#0f3347" d="m107.016 41.167-.42.761s-.382 8.566 9.658 9.747l5.269-1.904-2.329-3.845-10.575-5.445-1.604.685z"/>
        <path fill="#fff" d="M104.152 58.26s-.382 3.39 1.375 4.075c1.756.685 5.383-1.828 7.597-5.407l-8.972 1.333"/>
        <path fill="#191919" d="M105.569 52.621c-1.02 0-1.85-1.261-1.85-2.813 0-1.551.83-2.813 1.85-2.813s1.851 1.262 1.851 2.813-.83 2.813-1.851 2.813m0-5.387c-.889 0-1.611 1.155-1.611 2.574 0 1.42.723 2.575 1.611 2.575.889 0 1.612-1.155 1.612-2.575s-.723-2.574-1.612-2.574"/>
        <path fill="#191919" d="m107.331 49.66-.065.297 8.579 1.865.065-.297z"/>
        <path fill="#0f3347" d="M103.016 46.967s-4.013-.889-2.944-5.724 4.543-6.51 5.459-6.282c.917.229 2.252 3.274 4.009 3.198 1.756-.077 7.979-1.942 9.659.495 1.679 2.437.038 4.911 3.206 6.929s2.711 4.759.955 6.396c-1.757 1.637-2.1 2.094-2.176 3.122s-.77 3.788-3.878 3.893c0 0-1.62-1.304-.398-5.187l.267-5.14-8.208-4.378-2.367-2.36s-1.823 1.7-3.584 5.039"/>
        <path fill="#ffd3cf" d="M115.704 51.992s1.198-2.474 2.982-1.834-1.589 6.587-2.982 5.03-.781-2.438-.781-2.438z"/>
        <path fill="#191919" d="M103.917 49.657h-2.222v.304h2.222z"/>
        <path fill="#185375" d="M118.352 37.919q.162.124.298.186a3 3 0 0 0-.298-.186M103.616 45.893s-2.539-1.388-1.574-5.602c.964-4.214 2.885-5.672 3.534-4.72.649.951-.221 4.263 3.964 3.997 3.304-.21 5.886-2.113 7.613-2.042-2.541-.466-6.309.576-7.613.633-1.756.077-3.092-2.97-4.009-3.197-.916-.23-4.39 1.446-5.459 6.281-1.07 4.836 2.944 5.725 2.944 5.725q.289-.543.574-1.026z"/>
        <path fill="#21404f" d="m118.644 103.389-2.847-.501-14.156 3.715 17.814-1.672a72 72 0 0 0-.811-1.542"/>
        <path fill="#383838" d="m121.306 82.38 3.083 1.911s4.204.466 7.707 1.863c0 0-8.735 10.109-12.425 13.696l1.308 3.074s19.059-3.913 23.449-19.704c0 0-8.641-11.74-23.543-14.255l-3.783 2.283 1.495 7.027 2.709 4.106"/>
        <path fill="#ffd3cf" d="M119.947 100.489s-4.208-.775-5.304-.328-2.805 2.401-3.364 3.602c-.56 1.201-.588 2.625-.308 2.793s.504-.363.504-.363-.253.921.055 1.256c.308.336.756-.81.756-.81s-.224 1.118.253 1.089c.476-.028.756-1.2.756-1.2s-.417.865.183.921c.601.056 2.029-2.289 2.029-2.289s3.57.408 5.159-2.979z"/>
        <path fill="#191919" d="m115.997 65.68 5.845 3.46s-13.278 13.473-16.186 21.393c0 0 3.269-14.059 10.34-24.854z"/>
        <path fill="#fff" d="m119.721 99.962-.424.341 1.133 2.62.477-.173z"/>
        <path fill="#191919" d="m120.102 84.244 3.738 1.056q.266-.504.551-1.01c-1.741-.26-4.289-.046-4.289-.046"/>
        <path fill="#faa9a7" d="M59.836 82.32 56.5 83.93l.432 1.18 3.584-1.005a93 93 0 0 0-.68-1.787M45.08 43.714l-3.51 4.941-2.806 2.763-2.897 1.497s4.6.287 7.688-2.59c1.817-1.694 2.605-3.427 2.945-4.567a15.4 15.4 0 0 0-1.42-2.045"/>
        <path fill="#0f3347" d="M35.661 52.92s7.238-.128 9.899-8.592c0 0 .898 1.25 1.381 2.216 0 0 2.026-1.974.558-5.72s-6.591-2.53-8.88-1.96-9.428-1.464-13.955 1.389-5 6.189-3.694 9.873c1.305 3.684 2.798 3.088 2.015 7.553-.784 4.465 2.799 7.33 7.873 6.66 0 0 .001 1.6 2.22.93 2.22-.669 3.078-1.86 2.705-3.646s-1.791-2.01-.634-4.353c1.157-2.345.513-4.35.513-4.35"/>
        <path fill="#0b2433" d="M35.78 61.624c-.373-1.786-1.79-2.01-.633-4.353 1.072-2.174.597-4.054.522-4.316-1.019.454-1.746.627-1.746.627s.803 5.543-1.027 7.38-2.346-.46-2.346-.46-1.195 2.68-3.928 1.979c-2.735-.701-3.64-4.8-3.64-4.8-.783 4.465 2.8 7.33 7.874 6.66 0 0 .001 1.6 2.22.93 2.22-.669 3.078-1.86 2.705-3.646M47.221 42.864c-1.24-4.316-3.908-2.38-5.453 3.424-1.006 3.779-4.025 5.728-6.01 6.628.852-.05 7.32-.689 9.803-8.588 0 0 .779 1.084 1.276 2.014.5-1.118.721-2.309.385-3.477"/>
        <path fill="#ffd3cf" d="M36.255 53.613s-1.138-2.622-2.764-1.5.162 7.717 3.09 7.122l1.247-1.568-.705-2.114z"/>
        <path fill="#939598" d="m36.389 70.22-2.303-4.046 3.382-2.087 3.376 7.151-1.536-.247-2.091-.662z"/>
        <path fill="#76787a" d="m34.744 67.327 3.198-2.236-.254-.538-3.477 1.84z"/>
        <path fill="#939598" d="m32.75 64.816 1.24 1.866 4.134-2.148-.84-1.987z"/>
        <path fill="#e6e7e8" d="m23.516 93.585 10.857 17.389 27.53-13.882L54.2 78.558z"/>
        <path fill="#d1d3d4" d="m24.8 95.641 30.068-15.48-.667-1.603-30.685 15.027z"/>
        <path fill="#bcbec0" d="m32.43 107.858 27.772-14.864 1.703 4.098-27.53 13.882z"/>
        <path fill="#449bc9" d="m49.727 86.324 3.948 7.557 2.959-1.538-3.008-8.045z"/>
        <path fill="#fff" d="m57.045 92.5-3.51 1.824-4.254-8.139 4.524-2.35zm-3.23.936 2.408-1.251-2.775-7.424-3.276 1.702z"/>
        <path fill="#449bc9" d="m30 96.434 4.315 7.507 2.959-1.537-3.205-7.944z"/>
        <path fill="#fff" d="m37.692 102.557-3.506 1.822-4.647-8.087 4.705-2.282zm-3.248.946 2.413-1.254-2.96-7.34-3.434 1.666 3.98 6.927z"/>
        <path fill="#b8b8b8" d="m44.545 105.82-2.295-4.093L36 90.517l11.408-4.922 6.793 15.384z"/>
        <path fill="#ea3934" d="m22.68 94.823 33.697-16.246-28.44-13.806z"/>
        <path fill="#d1d3d4" d="m52.492 97.12 1.411-.733.651 1.247 1.468-.445.61 1.167 1.732-.618.71.782-4.878 2.459z" style="mix-blend-mode:multiply"/>
        <path fill="#ea3934" d="m45.922 100.029.844.155 2.408-1.289-.058-1.227-4.178-9.485-.284-.136-2.7 1.404-1.43 1.061z"/>
        <path fill="#cc3f30" d="m44.8 88.62-2.911 2.307 5.294 9.065-.82.426-5.965-10.156 1.749-.908 2.797-1.171z" style="mix-blend-mode:multiply"/>
        <path fill="#e6e7e8" d="m45.44 100.896-6.018-10.77 5.85-3.04 5.015 11.29-1.11.52-4.653-10.327-3.463 2.118 5.708 9.497z"/>
        <path fill="#fff" d="m51.898 85.209-.43.193 3.517 7.78.43-.192z"/>
        <path fill="#fff" d="m54.444 86.505-3.702 1.716.199.425 3.701-1.715zM55.39 89.13l-3.21 1.914.241.403 3.21-1.913zM32.253 95.34l-.425.203 3.773 7.867.425-.203z"/>
        <path fill="#fff" d="m35.033 96.79-3.955 1.411.159.442 3.955-1.41zM35.995 99.335l-3.284 1.828.23.41 3.283-1.828z"/>
        <path fill="#9fa0a1" d="m42.25 101.727.696 1.242 1.412-1.165-7.143-11.282 10.324-4.63-.131-.297L36 90.517z"/>
        <path fill="#f0f0f0" d="m53.048 98.377-2.422 1.158-1.83.598-4.293 2.124-1.198 1.357.599 1.068 3.47-.897 5.64-2.931.591-1.215z"/>
        <path fill="#fff" d="m43.906 104.682 9.702-5.043.592 1.34-9.656 4.841z"/>
        <path fill="#dbdbdb" d="m43.304 103.614 9.744-5.237-.555-1.257-9.868 5.282z"/>
        <path fill="#d1d3d4" d="m52.819 97.873-9.64 5.522.124.219 9.743-5.237-.222-.503zM43.805 104.508l.097.174 9.702-5.043-.105-.237zM44.36 105.495l.191.349 9.646-4.865-.166-.377z"/>
        <path fill="#fff" d="M44.177 91.903a.21.21 0 0 0-.372.193.21.21 0 0 0 .372-.194"/>
        <path fill="#e6e7e8" d="m33.59 87.469-4.395-6.691 2.535-8.004 8.086 2.62 3.25 7.466z"/>
        <path fill="#bcbec0" d="m29.336 80.992.292.444 3.056-7.483 7.675 2.689-.401-.92-7.72-2.625-.637.331z"/>
        <path fill="#cc3f30" d="m28.64 81.703.863-.448 2.747-7.743 7.975 2.833 1.41-.733-10.191-3.644zM44.221 82.443l-4.672 1.5-4.581 2.38-2.632 1.634.015.257 3.805.09 11.25-5.411c-1.22-.183-3.184-.45-3.184-.45"/>
        <path fill="#449bc9" d="m34.975 86.323-3.022-6.165 1.727-3.927 4.594 1.132 3.2 5.74z"/>
        <path fill="#fff" d="m41.927 83.246-7.106 3.519-3.235-6.598 1.9-4.32 5.003 1.232zm-6.805 2.635 5.894-2.918-2.963-5.315-4.185-1.03-1.554 3.533z"/>
        <path fill="#fff" d="m33.884 76.124-.415.222 4.577 8.545.415-.222z"/>
        <path fill="#bcbec0" d="m32.358 88.213 11.87-5.77-.544-1.043-11.707 6.084z"/>
        <path fill="#bcbec0" d="m32.51 87.603-.534-.119-1.421-2.719.594-.309 1.529 2.927zM34.256 86.538l-.155.25-.517-.048-1.436-2.79.594-.31zM35.827 85.692l-.143.282-.5.022-1.45-2.863.595-.309zM37.405 84.846l-.13.313-.483.093-1.464-2.935.594-.309zM38.983 84l-.117.344-.466.164-1.478-3.007.593-.309zM40.562 83.154l-.105.375-.45.234-1.491-3.079.593-.308zM42.124 82.278l-.091.405-.433.305-1.506-3.151.593-.309zM43.68 81.4l-1.422-2.719-.594.309 1.521 3.223.416-.376z"/>
        <path fill="#939598" d="m30.281 84.714.2.28 12.065-6.097-.247-.574z"/>
        <path fill="#fff" d="m38.344 77.365-6.508 2.745.184.433 6.507-2.746zM39.087 78.834l-6.134 3.438.23.41 6.135-3.438z"/>
        <path fill="#ffd3cf" d="M22.226 77.544s.41-2.74-1.679-1.698S2.413 91.609 12.115 98.53s25.286-.397 30.894-5.879l-1.805-2.053S21.106 98.6 18.83 93.32c-1.94-4.502 4.685-9.023 4.685-9.023z"/>
        <path fill="#ffd3cf" d="M41.224 90.865s-.374-5.83.746-6.747c1.12-.918.864 3.351.864 3.351s4.26-4.616 5.48-4.467c1.218.149-2.737 4.192-2.737 4.192s4.727-3.746 5.373-2.927c.647.818-4.353 3.622-4.353 3.622s5.074-2.134 5.523-1.414c.447.72-4.755 2.654-4.755 2.654s3.76-.943 3.909-.198-4.428 3.274-8.258 3.72q-1.805-.412-1.791-1.785zM50.773 101.156c1.275 1.714 2.662 2.156 4.41 1.287 1.747-.87.882-6.117.208-6.25-.796-.158-.451 2.949-.451 2.949s-.995-3.695-1.568-3.63c-.648.075.125 3.933.125 3.933s-1.679-3.832-2.35-3.252c-.672.58.82 3.979.82 3.979s-2.07-3.122-2.658-2.647.76 2.683 1.464 3.631"/>
        <path fill="#faa9a7" d="M12.307 84.399a26 26 0 0 0-1.588 2.606l7.963 3.237a7 7 0 0 1 .642-1.51l-.562-4.968z"/>
        <path fill="#b6231f" d="m23.833 75.832-.352-.131-3.23-1.208s-4.777 2.53-9.478 9.972l9.403 5.359s1.507-2.04 3.418-3.5l1.72-6.202z"/>
    </g>
    <defs>
        <clipPath id="a">
            <path fill="#fff" d="M.156 0h152v119.241h-152z"/>
        </clipPath>
    </defs>
</svg>
