<svg width="79" height="79" viewBox="0 0 79 79" fill="none" xmlns="http://www.w3.org/2000/svg">
<g clip-path="url(#clip0_1265_34170)">
<path d="M46.4178 71.75C64.3851 68.0581 75.9575 50.4998 72.2656 32.5326C68.5737 14.5653 51.0155 2.9929 33.0482 6.68482C15.081 10.3767 3.50852 27.935 7.20044 45.9022C10.8924 63.8695 28.4506 75.4419 46.4178 71.75Z" fill="url(#paint0_linear_1265_34170)"/>
<path d="M46.2659 70.9729C63.8036 67.3692 75.0995 50.2307 71.4958 32.6929C67.8921 15.1552 50.7536 3.85935 33.2159 7.46302C15.6781 11.0667 4.38229 28.2052 7.98595 45.743C11.5896 63.2807 28.7281 74.5765 46.2659 70.9729Z" fill="url(#paint1_linear_1265_34170)"/>
<path d="M45.4514 67.0847C38.0078 68.6142 30.4146 67.154 24.0695 62.972C17.7244 58.7901 13.3884 52.3878 11.8588 44.9442C10.3293 37.5006 11.7896 29.9073 15.9715 23.5622C20.1535 17.2171 26.5558 12.8811 33.9994 11.3516C41.443 9.82208 49.0362 11.2823 55.3813 15.4643C61.7264 19.6463 66.0625 26.0485 67.592 33.4921C69.1215 40.9357 67.6613 48.529 63.4793 54.8741C59.2973 61.2192 52.8951 65.5552 45.4514 67.0847Z" fill="url(#paint2_linear_1265_34170)"/>
<path d="M56.4586 16.2101C50.3483 12.5662 43.2014 11.3519 36.1868 12.7933C28.7432 14.3228 22.3409 18.6589 18.159 25.0039C13.977 31.349 12.5168 38.9423 14.0463 46.3859C15.4876 53.4005 19.4216 59.4896 25.1797 63.6679C24.8056 63.4449 24.4351 63.213 24.0695 62.972C17.7244 58.79 13.3884 52.3878 11.8588 44.9442C10.3293 37.5006 11.7896 29.9073 15.9715 23.5622C20.1535 17.2171 26.5558 12.8811 33.9994 11.3516C41.443 9.82209 49.0362 11.2823 55.3813 15.4643C55.7469 15.7053 56.1061 15.9543 56.4586 16.2101Z" fill="url(#paint3_linear_1265_34170)"/>
<path opacity="0.4" d="M72.2533 32.5326C75.9451 50.4994 64.3723 68.0582 46.4055 71.75C29.4393 75.2362 12.8387 65.1119 7.93179 48.8442C8.21468 48.8996 8.50794 48.9528 8.81157 49.0039C13.7469 64.6538 29.8213 74.3473 46.2457 70.9724C63.7835 67.3687 75.0793 50.2302 71.4756 32.6924C68.5764 18.5829 56.9163 8.5132 43.3359 6.99315C43.2236 6.69609 43.1149 6.41718 43.0108 6.1603C57.0994 7.557 69.2537 17.9344 72.2533 32.5326Z" fill="url(#paint4_linear_1265_34170)"/>
<g style="mix-blend-mode:saturation">
<path d="M56.466 16.2049C52.9347 14.1005 49.0569 12.8075 45.0587 12.3687C44.9559 11.9671 44.8498 11.5755 44.7422 11.1964C48.4987 11.8659 52.1154 13.3016 55.3965 15.4642C55.67 15.6444 55.9419 15.8303 56.2078 16.0202C56.2946 16.0807 56.3803 16.1428 56.466 16.2049Z" fill="url(#paint5_linear_1265_34170)"/>
</g>
<path opacity="0.3" d="M70.9465 32.092C74.5502 49.6298 63.2544 66.7683 45.7166 70.3719C29.2922 73.7468 13.2178 64.0533 8.28246 48.4035C9.55541 48.616 11.0072 48.7784 12.6398 48.8481C14.7485 54.3572 18.5124 59.0601 23.5357 62.3709C23.8091 62.5511 24.0872 62.7277 24.3665 62.8972C24.4566 62.9543 24.5475 63.0086 24.6381 63.0616L24.6459 63.0668C30.7561 66.7107 37.903 67.925 44.9176 66.4836C52.3613 64.9541 58.7635 60.6181 62.9455 54.273C67.1275 47.9279 68.5877 40.3346 67.0582 32.891C65.6168 25.8764 61.6828 19.7873 55.9248 15.609C55.9216 15.607 55.9201 15.6059 55.917 15.6039C55.8326 15.5415 55.7468 15.4794 55.6588 15.4192C55.3929 15.2293 55.121 15.0434 54.8475 14.8632C51.5664 12.7006 47.9497 11.2649 44.1932 10.5954C43.7299 8.9588 43.2384 7.53333 42.8068 6.39275C56.3872 7.9128 68.0473 17.9825 70.9465 32.092Z" fill="url(#paint6_linear_1265_34170)"/>
<path opacity="0.6" d="M67.6042 33.4925C69.1337 40.9361 67.6735 48.5293 63.4915 54.8744C59.3095 61.2195 52.9073 65.5555 45.4637 67.085C38.4491 68.5264 31.3021 67.3122 25.1919 63.6682L25.1841 63.6631C20.2968 60.1136 16.7248 55.1876 14.8767 49.4872C18.8526 49.4955 23.7611 48.9476 29.6148 47.3328C34.3582 45.738 43.9873 41.0456 45.9626 28.8658C47.0903 22.9348 46.2425 16.9681 45.0557 12.3692C49.0539 12.808 52.9317 14.1009 56.463 16.2053C56.4661 16.2074 56.4677 16.2084 56.4708 16.2105C62.2289 20.3888 66.1628 26.4779 67.6042 33.4925Z" fill="url(#paint7_linear_1265_34170)"/>
<g clip-path="url(#clip1_1265_34170)">
<path d="M39.0991 32.9642L36.6947 30.4515C34.884 32.0795 33.8137 34.1895 33.5785 36.3392C33.4615 37.4179 33.5564 38.5097 33.8851 39.5498C34.2125 40.5877 34.7788 41.5732 35.5805 42.4099L39.4304 46.4345L42.0988 49.2239L44.9547 52.2094C45.7549 53.0474 46.7266 53.6695 47.7723 54.0671C49.3434 54.6649 51.0712 54.764 52.7403 54.4183C54.4102 54.0726 56.0303 53.2784 57.3987 52.0567C59.2224 50.4264 60.2981 48.3084 60.5335 46.151C60.6505 45.0723 60.5556 43.9812 60.2276 42.9405C59.9002 41.9026 59.3332 40.9177 58.5322 40.081L49.1587 30.2822C48.3571 29.4442 47.3869 28.82 46.3411 28.4232C44.77 27.8267 43.0416 27.7262 41.3725 28.0705C40.8117 28.1872 40.2545 28.3595 39.7121 28.5761L42.3805 31.3656C42.6405 31.3238 42.9005 31.2986 43.1555 31.2927C43.8322 31.2756 44.4767 31.3841 45.0529 31.603C45.6277 31.8232 46.1352 32.1497 46.5654 32.5973L55.9388 42.3975C56.3676 42.8464 56.666 43.3602 56.8473 43.9326C57.1187 44.788 57.1178 45.7811 56.8112 46.7698C56.5069 47.7586 55.9016 48.7335 54.995 49.5433C53.7857 50.6235 52.3135 51.1634 50.9587 51.1962C50.2806 51.2133 49.6354 51.1061 49.0612 50.8873C48.485 50.667 47.9776 50.3405 47.5473 49.8929L45.1133 47.3485L42.7096 44.8357L38.1739 40.0927C37.7452 39.6445 37.4482 39.1301 37.2668 38.5577C36.994 37.7023 36.9964 36.7106 37.3015 35.7205C37.6034 34.7392 38.2027 33.771 39.0998 32.965L39.0991 32.9642Z" fill="white"/>
<g filter="url(#filter0_d_1265_34170)">
<path d="M42.7174 44.834L45.121 47.3467C46.9331 45.7188 48.0028 43.6088 48.2386 41.4591C48.3556 40.3804 48.2608 39.2885 47.9327 38.2485C47.6054 37.2106 47.0391 36.2251 46.2366 35.389L42.3875 31.3638L39.7191 28.5743L36.8632 25.5889C36.0615 24.7508 35.0899 24.128 34.0456 23.7312C32.4745 23.1334 30.7453 23.0342 29.0761 23.3799C27.4077 23.725 25.7862 24.5199 24.4178 25.7408C22.594 27.3725 21.5184 29.4892 21.2822 31.6479C21.1638 32.7258 21.2594 33.8184 21.5874 34.857C21.9155 35.8956 22.4825 36.8805 23.2842 37.7172L32.6591 47.5174C33.4594 48.3541 34.431 48.9776 35.4768 49.3744C37.0479 49.9715 38.7756 50.0713 40.4447 49.727C41.0062 49.6104 41.5619 49.4394 42.105 49.2228L39.4367 46.4334C39.176 46.4751 38.9167 46.4989 38.6616 46.5056C37.9842 46.5227 37.339 46.4155 36.7642 46.1966C36.1894 45.9764 35.6813 45.6485 35.2524 45.2024L25.8776 35.4007C25.4489 34.9518 25.1504 34.438 24.9691 33.8656C24.6977 33.0096 24.6987 32.0172 25.0038 31.0277C25.3095 30.0403 25.9141 29.0654 26.8228 28.255C28.0307 27.1741 29.503 26.6341 30.8592 26.6007C31.5373 26.5836 32.1811 26.6921 32.7559 26.911C33.3321 27.1313 33.8388 27.4591 34.2698 27.9053L36.7031 30.4498L39.1075 32.9625L43.6432 37.7055C44.072 38.1537 44.369 38.6682 44.551 39.2406C44.8224 40.0959 44.8215 41.0877 44.5164 42.0778C44.213 43.059 43.6145 44.0266 42.7174 44.8333L42.7174 44.834Z" fill="white"/>
</g>
</g>
<g style="mix-blend-mode:saturation">
<path d="M24.6233 63.063C24.5324 63.0087 24.4416 62.9544 24.3517 62.8986C24.0724 62.729 23.7943 62.5525 23.5209 62.3722C18.4976 59.0615 14.7337 54.3586 12.625 48.8495C13.1688 48.8728 13.7322 48.8867 14.3159 48.887C16.164 54.5874 19.736 59.5135 24.6233 63.063Z" fill="url(#paint8_linear_1265_34170)"/>
</g>
</g>
<defs>
<filter id="filter0_d_1265_34170" x="21.2344" y="23.1815" width="28.0547" height="27.7427" filterUnits="userSpaceOnUse" color-interpolation-filters="sRGB">
<feFlood flood-opacity="0" result="BackgroundImageFix"/>
<feColorMatrix in="SourceAlpha" type="matrix" values="0 0 0 0 0 0 0 0 0 0 0 0 0 0 0 0 0 0 127 0" result="hardAlpha"/>
<feOffset dx="0.5" dy="0.5"/>
<feGaussianBlur stdDeviation="0.25"/>
<feComposite in2="hardAlpha" operator="out"/>
<feColorMatrix type="matrix" values="0 0 0 0 0 0 0 0 0 0 0 0 0 0 0 0 0 0 0.1 0"/>
<feBlend mode="normal" in2="BackgroundImageFix" result="effect1_dropShadow_1265_34170"/>
<feBlend mode="normal" in="SourceGraphic" in2="effect1_dropShadow_1265_34170" result="shape"/>
</filter>
<linearGradient id="paint0_linear_1265_34170" x1="33.0482" y1="6.68481" x2="79.6447" y2="52.7447" gradientUnits="userSpaceOnUse">
<stop stop-color="#FFD700"/>
<stop offset="1" stop-color="#E68D35"/>
</linearGradient>
<linearGradient id="paint1_linear_1265_34170" x1="33.2159" y1="7.46302" x2="78.6985" y2="52.4218" gradientUnits="userSpaceOnUse">
<stop stop-color="#EFCB0A"/>
<stop offset="1" stop-color="#AF661D"/>
</linearGradient>
<linearGradient id="paint2_linear_1265_34170" x1="33.9994" y1="11.3516" x2="73.9127" y2="50.8053" gradientUnits="userSpaceOnUse">
<stop stop-color="#FFD700"/>
<stop offset="1" stop-color="#E68D35"/>
</linearGradient>
<linearGradient id="paint3_linear_1265_34170" x1="30.3618" y1="12.099" x2="65.065" y2="46.4026" gradientUnits="userSpaceOnUse">
<stop stop-color="#FFD700"/>
<stop offset="1" stop-color="#E68D35"/>
</linearGradient>
<linearGradient id="paint4_linear_1265_34170" x1="33.4033" y1="8.13444" x2="78.8059" y2="53.8765" gradientUnits="userSpaceOnUse">
<stop stop-color="#FFD700"/>
<stop offset="1" stop-color="#E68D35"/>
</linearGradient>
<linearGradient id="paint5_linear_1265_34170" x1="49.8729" y1="10.1422" x2="54.5185" y2="16.4316" gradientUnits="userSpaceOnUse">
<stop stop-color="#FFD700"/>
<stop offset="1" stop-color="#E68D35"/>
</linearGradient>
<linearGradient id="paint6_linear_1265_34170" x1="33.0691" y1="8.39366" x2="77.2906" y2="53.0006" gradientUnits="userSpaceOnUse">
<stop stop-color="#FFD700"/>
<stop offset="1" stop-color="#E68D35"/>
</linearGradient>
<linearGradient id="paint7_linear_1265_34170" x1="35.6537" y1="14.3011" x2="73.1805" y2="52.151" gradientUnits="userSpaceOnUse">
<stop stop-color="#EBC704"/>
<stop offset="1" stop-color="#D17315"/>
</linearGradient>
<linearGradient id="paint8_linear_1265_34170" x1="16.98" y1="47.9546" x2="27.8323" y2="53.6243" gradientUnits="userSpaceOnUse">
<stop stop-color="#FFD700"/>
<stop offset="1" stop-color="#E68D35"/>
</linearGradient>
<clipPath id="clip0_1265_34170">
<rect width="66.4246" height="66.4246" fill="white" transform="translate(0.515625 13.3696) rotate(-11.6115)"/>
</clipPath>
<clipPath id="clip1_1265_34170">
<rect width="39.8374" height="30.6442" fill="white" transform="translate(21.6094 22.8071) rotate(2.24952)"/>
</clipPath>
</defs>
</svg>
