<svg xmlns="http://www.w3.org/2000/svg" fill="none" viewBox="0 0 126 126"><rect width="118.588" height="118.588" x="3.706" y="3.706" fill="#D0E4FA" rx="59.294"/><rect width="118.588" height="118.588" x="3.706" y="3.706" stroke="#E8F1FD" stroke-width="6.588" rx="59.294"/><path fill="#4285CF" fill-rule="evenodd" d="M45.34 72.691V60.955a.658.658 0 1 1 1.316 0V72.69c0 .061-.05.111-.11.111H45.45a.11.11 0 0 1-.11-.111m4.59 14.039a5.04 5.04 0 0 0-2.928 3.122.11.11 0 0 0 .016.1q.034.044.09.045H78.89a.11.11 0 0 0 .09-.046.11.11 0 0 0 .016-.1 5.01 5.01 0 0 0-4.748-3.468h-4.155a.11.11 0 0 1-.093-.051l-5.193-8.068a.11.11 0 0 1 .014-.138c.276-.282.487-.625.61-1.01l.004-.011.007-.023.007-.024.01-.035.006-.022v-.002l.012-.045v-.002l.009-.033v-.004l.025-.116v-.003l.002-.01v-.002l.012-.07v-.003l.005-.034v-.003l.009-.071V76.6l.002-.018v-.489l-.002-.018v-.002L65.53 76v-.003l-.005-.034v-.002l-.012-.071v-.002l-.002-.011-.01-.048v-.002l-.007-.034v-.001l-.008-.035c-.45-1.934-2.87-2.646-4.29-1.225a2.55 2.55 0 0 0-.682 1.225l-.008.035v.001l-.008.035v.002l-.01.047-.001.01v.003l-.012.07v.003l-.005.035V76l-.009.072v.002l-.002.018v.489l.002.019v.002l.009.071v.003l.005.034v.003l.012.07v.002l.002.01v.003l.024.117.001.003.008.033v.002l.012.045v.002l.007.023.01.034v.001l.014.046.004.011c.122.384.334.729.61 1.01a.11.11 0 0 1 .014.138L56 86.332a.11.11 0 0 1-.094.051H51.75a4.9 4.9 0 0 0-1.82.347m18.05-.347h-9.96a.11.11 0 0 1-.099-.058.11.11 0 0 1 .005-.113l4.695-7.294a.11.11 0 0 1 .093-.052h.571q.061.001.094.052l4.695 7.294a.11.11 0 0 1 .004.113.11.11 0 0 1-.097.058M57.727 61.96a.612.612 0 1 1 0-1.224h10.548a.612.612 0 1 1 0 1.224zm0-4.441a.612.612 0 1 1 0-1.224h10.548a.612.612 0 1 1 0 1.224zm-3.295 18.04a.11.11 0 0 1-.1-.061.11.11 0 0 1 .01-.117c.31-.416.638-.925.929-1.301a.778.778 0 0 0-.598-1.278h-5.326a.11.11 0 0 1-.112-.111v-22.3h.002c0-.149.05-.3.153-.423L60.06 37.23q0 0 .002-.003c.166-.211.158-.464-.012-.61l-.61-.512a.41.41 0 0 0-.439-.066l-2.584 1.093a.1.1 0 0 0-.042.032l-6.662 7.938a4.16 4.16 0 0 1-3.264 1.525h-4.346a2.943 2.943 0 0 0-2.937 2.937v6.895c.07 2.354 2.323 2.06 2.278-.057v-4.744a.658.658 0 0 1 1.317 0l.002 21.033c0 .061-.05.111-.11.111h-5.56v.002c-.612 0-1.003.708-.633 1.227l.975 1.363a4.02 4.02 0 0 0 3.343 1.722H58.83a.1.1 0 0 0 .085-.039.1.1 0 0 0 .025-.09 4.2 4.2 0 0 1 0-1.3.1.1 0 0 0-.025-.09.1.1 0 0 0-.085-.038zm12.737 0h4.4c.044 0 .08-.023.1-.061a.11.11 0 0 0-.01-.117c-.31-.416-.637-.925-.928-1.301a.778.778 0 0 1 .598-1.278h5.457c.06 0 .11-.05.11-.111v-6.168c0-.062.05-.112.112-.112h2.355c.062 0 .112.05.112.112v6.168c0 .061.05.111.111.111h1.094c.061 0 .111-.05.111-.111v-6.168c0-.062.05-.112.111-.112h2.356c.061 0 .111.05.111.112v6.168c0 .061.05.111.111.111h5.429v.002c.612 0 1.002.708.632 1.227l-.975 1.363a4.02 4.02 0 0 1-3.342 1.722H67.168a.1.1 0 0 1-.084-.039.1.1 0 0 1-.026-.09c.069-.429.069-.87 0-1.3a.1.1 0 0 1 .026-.089.1.1 0 0 1 .084-.04m13.322-35.54a2.73 2.73 0 1 0 0 5.458 2.73 2.73 0 0 0 0-5.459m-34.98 0a2.73 2.73 0 1 1 0 5.458 2.73 2.73 0 0 1 0-5.459m41.08 24.918-3.173-7.934a.7.7 0 0 1-.046-.245v-5.1a.658.658 0 1 1 1.316 0v4.748c.112 2.002 2.278 1.598 2.278.052v-6.894a2.943 2.943 0 0 0-2.937-2.937h-4.346c-1.29 0-2.43-.532-3.263-1.525l-6.6-7.88-.02-.017-.138-.103-.023-.013-2.508-1.05a.41.41 0 0 0-.438.066l-.61.512c-.17.144-.18.398-.012.61l.002.003L76.74 49.968a.66.66 0 0 1 .154.424v6.366a.66.66 0 0 1-.068.294l-3.154 7.885a.11.11 0 0 0 .011.104.11.11 0 0 0 .092.049h12.712q.058-.001.092-.05a.11.11 0 0 0 .01-.103" clip-rule="evenodd"/></svg>