<svg xmlns="http://www.w3.org/2000/svg" width="75" height="68" fill="none" viewBox="0 0 75 68">
    <g clip-path="url(#a)">
        <path fill="#301f23" d="M32.215 28.988c-.463-3.199.986-11.758 1.438-13.723.927-4.033 1.9-3.338 3.245-3.709l4.775 3.06c.747 1.082.739 2.741.742 3.987.004 1.48 1.323.244 1.206 1.716-.099 1.229.267 9.2.788 9.458-.559.389-11.888 1.32-12.194-.789"/>
        <path fill="#ffb278" d="M30.871 30.657c.45-1.519.06-3.46 1.606-3.685.597-.087 1.673-.26 2.532-.556l-.013-.037a1 1 0 0 0 .093.008q.306-.109.557-.242c.725-.767.714-3.132.788-3.8q.018-.148.034-.318c.08-.876.119-2.122-.267-2.78l4.3 2.051.525.25q-.036.09-.068.188c-.208.624-.307 1.445-.28 2.133l.002.02q0 .01.002.019v.004c.014.128.065.401.15.738.067.267.154.573.26.88l.018-.002c.544 1.032 2.084 1.232 3.278 1.922.564.326.224 2.105.3 2.836.277 2.69-12.01 2.102-13.817.371"/>
        <path fill="#e5804e" d="M40.684 23.912c.013.128.065.401.149.738-1.012 1.835-3.883.285-4.49-2.106-.056-.224.221-.297.126-.517.08-.876.12-2.122-.266-2.78l4.3 2.051.457.438c-.208.624-.307 1.445-.28 2.133q0 .01.002.02z"/>
        <path fill="#601e13" d="M24.4 35.672c.366.022.659 1.298.557 2.712-.43 5.982 1.304 12.272 3.555 12.396 1.555.086 2.987-.349 4.483-.494.599-.058 1.186-.073 1.768-.094.794-.03 1.58-.07 2.374-.246.118-.026.3-.077.417-.109l-2.226-22.394c-.963-.704-1.002-1.064-2.304-1.09-1.094-.022-2.742.195-3.825.487-.725.195-1.414.42-2.01.718-.889.445-1.569 1.054-1.845 1.97-.479 1.59-1.013 3.57-.943 6.144"/>
        <path fill="#822316" d="M24.4 35.672c.366.022.659 1.298.557 2.712-.43 5.982 1.304 12.272 3.555 12.396 1.555.086 2.987-.349 4.483-.494.599-.058 1.186-.073 1.768-.094.296-.655.359-1.301.026-1.85-.349-.572-1.25-.896-1.764-1.296-.6-.466-1.145-1.018-1.686-1.55-2.348-2.312-2.415-5.76-2.415-8.926 0-2.25-.017-4.693-.556-6.866-.218-.877-.447-1.659-1.178-2.146-.89.446-1.57 1.054-1.846 1.971-.479 1.59-1.013 3.57-.943 6.143"/>
        <path fill="#ffb278" d="M44.45 58.525c.078-.675-.145-1.465-.312-2.123-1.048.179-.263-1.766-.047-2.164-.03-.127-.077-.018-.148-.068l1.183-.487c.422.862.95 2.048 1.027 2.99.052.626-.467 2.675-.888 3.067-.382-.157-.997.086-1.342-.125-.243-.15-.53-.872-.595-1.12.365-.146.764-.078 1.123.03"/>
        <path fill="#ffb278" d="M41.912 27.305c1.014-.978 3.483-.451 3.619 4.44.016.605-.442 10.517-.449 11.268-.032 3.783.329 10.747.46 12.06-.692-.085-.985.094-1.68.034-.47-2.306-4.202-25.63-1.95-27.802"/>
        <path fill="#f5dfd4" d="M30.22 31.863c.065.28.271 2.621.434 5.587.134 2.424.238 5.266.215 7.741-.014 1.412-.07 2.705-.186 3.733l12.332-.186c-.424-.565-.512-1.785-.434-3.936.03-.83.086-1.8.156-2.925.121-1.94.487-3.186.9-4.232q.118-.296.239-.576c.358-.833.723-1.591.979-2.57.08-.304.149-.63.203-.986.368-2.392.461-5.823-.28-6.194l-3.246-1.298c-.11 1.294-1.435 2.375-2.318 2.318-1.762-.113-2.597-1.298-3.57-2.193-.245-.225-2.638.154-5.41 1.447-.31.144-.942.931-.015 4.27"/>
        <path fill="#f5dfd4" d="M42.219 37.814c.497-.018.988-.057 1.418-.169.66-.171 1.179-.514 1.36-1.216.086-.33.097-.742.012-1.252a10 10 0 0 0-.154-.678c-.31-1.224-.942-3.443-1.006-4.6l-1.49 7.233zM43.998 29.175l-.149.724c-.021-.379.018-.644.15-.724"/>
        <path fill="#e2c5b7" d="M30.376 45.17q.247.006.495.021c1.26.078 2.52.329 3.787.416 2.41.167 4.357.008 6.716-.532.432-.099.845-.17 1.21-.273.03-.83.085-1.8.155-2.925.122-1.94.487-3.186.9-4.231.66-.172 1.179-.514 1.36-1.216-.188.185-.388.371-.572.453a3.3 3.3 0 0 1-.549.187c-.486.12-10.043 1.96-12.86-1.512a25 25 0 0 0-.361 1.893c-.382 2.5-.415 5.075-.28 7.72"/>
        <path fill="#822316" d="M43.776 26.01c1.104.633 1.562 1.344 1.639 1.805.337 2.027.132 4.237-.088 6.15-.212 1.853-.64 3.704-1.207 5.21-.287.764-.814 1.625-1.317 2.239.032-1.011.165-1.771.185-2.782.567-1.502.955-3.586 1.096-4.81.209-1.823.773-4.024.096-5.781-.602-1.564-2.645-1.664-2.906-2.198a8 8 0 0 1-.157-.428c1.069-.252 1.92.172 2.659.596"/>
        <path fill="#617695" d="M25.238 89.078c6.305 1.483 16.114 1.942 23.103-.028.155-3.058-.66-10.918-1.721-19.284-1.48-11.663-3.441-24.311-3.927-26.306 0 0-1.993.911-4.312.974-1.862.05-5.008-.146-6.605-.259-.61-.042-.995-.073-.995-.073-4.636 11.869-5.678 38.36-5.543 44.976"/>
        <path fill="#822316" d="M30.149 44.544a3.6 3.6 0 0 0 2.307-.823c1.026-.826 1.795-2.248 2.285-4.226.378-1.522.578-3.36.563-5.176-.016-1.873-.081-4.031-.664-5.948-.132-.437-.567-1.504-1.74-1.983-1.05-.43-2.332-.239-3.81.567l.6 1.1c1.115-.609 2.061-.785 2.736-.509.695.284.954.982 1.017 1.189.534 1.757.594 3.81.609 5.595.025 2.977-.584 6.968-2.38 8.416-.633.508-1.365.66-2.24.461l-.277 1.22q.514.117.994.117"/>
        <path fill="#4f6177" d="M25.238 89.078c6.305 1.483 16.114 1.942 23.103-.028.155-3.058-.66-10.918-1.721-19.284-.321.293-.654.574-1.024.767-1.14.597-2.585 1.056-3.875 1.11-3.753.158-6.256-3.611-7.323-6.769-1.587-4.696-2.257-9.644-2.687-14.559a32 32 0 0 1-.023-5.468c.012-.139.045-.382.088-.672-.61-.042-.995-.073-.995-.073-4.636 11.869-5.678 38.36-5.543 44.976"/>
        <path fill="#ffb278" d="M44.58 19.921c.011-.607-.348-1.168-.772-.998-1.244.499-.985 2.09-.985 2.09.029.61.692.66.99.467.38-.244.756-.974.767-1.559"/>
        <path fill="#e5804e" d="M43.583 19.511c-.146.266-.414.872-.414.872-.072.477.637.448.7-.121.03-.255-.153-.495.079-.646.159-.103.304.073.37.27.067-.544-.505-.793-.735-.375"/>
        <path fill="#ffb278" d="M41.863 13.08c-2.905-2.65-6.273-.163-6.819 3.274 0 0-.41 3.198.227 4.732.482 1.163 2.665 3.742 4.644 3.637.94-.05 2.73-2.027 3.206-3.372.802-2.266 1.05-6.165-1.258-8.27"/>
        <path fill="#301f23" d="M40.901 17.812c.05-.295.605-.396 1.08-.383.447.012.75.242.816.494-.219-.206-.626-.233-.902-.186-.286.049-1.048.311-.994.075M38.525 18.013c.062-.282-.39-.494-.811-.584-.397-.084-.746.063-.894.281.266-.143.633-.081.859.021.234.107.81.512.846.282"/>
        <path fill="#f72828" d="M40.265 22.397c-.34.16-.74.164-1.098-.007-.105.296.256.532.649.518.493-.018.594-.502.45-.51"/>
        <path fill="#e52323" d="M40.12 22.315c-.151-.017-.165.105-.331.108-.186-.01-.2-.172-.39-.078-.212.095-.459-.04-.454-.041.381.413 1.142.534 1.63.007-.238.107-.361.006-.455.003"/>
        <path fill="#e5804e" d="M39.352 21.142q.002-.001.051.01.025.003.057.01.031.007.071.014.04.008.083.017l.09.016.096.014.097.01.048.001h.046l.046-.001.043-.005c.015 0 .027-.006.041-.008a.2.2 0 0 0 .04-.01l.036-.01q.017-.009.033-.016.033-.015.058-.034l.025-.016.02-.017.04-.033q.001.001-.01.052l-.007.028-.015.03-.018.035q-.011.018-.027.035-.014.018-.033.036l-.042.031q-.021.017-.048.028-.025.014-.053.023a.5.5 0 0 1-.115.026c-.04.007-.08.004-.12.003q-.06-.005-.115-.018t-.107-.032a1 1 0 0 1-.094-.042q-.042-.023-.079-.048a.6.6 0 0 1-.104-.09q-.034-.038-.034-.04M42.5 18.818a1.9 1.9 0 0 0-.704-.027 1.7 1.7 0 0 0-.74.28 1 1 0 0 0-.158.152c-.07.082-.068.225-.07.245.107.006.194-.103.307-.104.22.001.472-.03.639-.07.208-.052.36-.107.531-.178.135-.056.313-.013.551-.087-.03-.114-.206-.174-.357-.211"/>
        <path fill="#fff" d="M42.856 19.03c-.238.074-.389.144-.524.2-.17.072-.322.127-.531.177a3 3 0 0 1-.639.072q-.171 0-.334-.01c.001-.002.027-.05.097-.132a1 1 0 0 1 .159-.152c.17-.126.454-.244.74-.28.333-.044.551-.008.702.027.15.037.242.074.33.097"/>
        <path fill="#3f1411" d="M42.332 19.23c-.17.071-.323.126-.532.177-.167.04-.42.072-.638.071-.05-.026-.14-.25-.079-.294.171-.126.455-.244.74-.28.333-.044.552-.007.703.027.001.06-.154.258-.195.298"/>
        <path fill="#fff" d="M42.152 19.116c0 .05-.039.098-.085.107-.047.01-.084-.024-.083-.074s.04-.098.086-.107c.046-.01.083.024.082.074"/>
        <path fill="#e5804e" d="M38.073 19.118a1.9 1.9 0 0 0-.636-.3 1.7 1.7 0 0 0-.79-.033 1 1 0 0 0-.206.079c-.096.048-.15.181-.16.198.096.048.219-.019.323.025.202.086.446.157.615.184.212.035.374.044.559.045.146.002.293.111.541.136.018-.116-.122-.24-.246-.334"/>
        <path fill="#fff" d="M38.32 19.452c-.25-.024-.415-.019-.562-.02a3.3 3.3 0 0 1-.558-.045 3 3 0 0 1-.615-.185 5 5 0 0 1-.304-.14c.002 0 .044-.035.14-.083a1 1 0 0 1 .206-.078c.207-.05.514-.047.79.032.325.09.512.21.637.3.124.093.194.164.265.22"/>
        <path fill="#3f1411" d="M37.758 19.432a3.3 3.3 0 0 1-.559-.045 3 3 0 0 1-.615-.184c-.036-.043-.03-.285.043-.302.206-.049.514-.046.79.033.324.09.511.209.637.3-.023.055-.243.177-.296.198"/>
        <path fill="#fff" d="M37.636 19.258a.114.114 0 0 1-.12.065c-.047-.01-.068-.055-.047-.1a.114.114 0 0 1 .12-.066c.047.01.068.055.047.1"/>
        <path fill="#ffb278" d="M33.785 20.001c-.047-.605.312-1.192.784-1.053 1.383.405 1.193 2.013 1.193 2.013.004.612-.716.71-1.052.54-.427-.215-.879-.916-.925-1.5"/>
        <path fill="#e5804e" d="M34.85 19.518c.174.255.5.84.5.84.106.472-.667.495-.77-.07-.046-.251.139-.504-.121-.637-.18-.092-.328.095-.389.297-.103-.54.505-.83.78-.43"/>
        <path fill="#1e1316" d="m38.797 13.28.974-1.669c1.971-.487 3.681.42 4.547 2.217.81 1.684-.124 4.713-.928 6.351.147-1.206.192-4.413-.786-5.282-1.254-1.116-3.757 1.805-3.807-1.617"/>
        <path fill="#301f23" d="M35.23 20.55c.32-.973.148-1.712.453-2.75.263-.89.876-1.793 2.606-1.824.907-.016 2.285-.008 3.037-1.857l.023-.06c.45-1.151.311-2.587-1.205-2.966-.834-.209-2.782 0-2.782 0-1.352.117-2.2.678-2.734 1.453-.309.447-.513.967-.65 1.514-.477 1.907.904 4.598 1.252 6.49"/>
        <path fill="#1e1316" d="M35.23 20.55c.32-.973.147-1.712.453-2.75.263-.89.876-1.793 2.606-1.824.907-.017 2.285-.009 3.037-1.857l-.209-.662c-.225.465-.29.83-.834 1.018-.51.178-1.145.103-1.678.048-.612-.062-1.185-.06-1.75.186-.476.206-.63.582-1.013.876-.169-.474.105-.946.214-1.38-.572.295-.81.986-.928 1.566-.49-.524-.56-1.561-.594-2.256-.017-.35.025-.665.094-.97-.309.448-.513.968-.65 1.515-.477 1.907.904 4.598 1.252 6.49"/>
        <path fill="#fff" d="M40.547 19.393a1.48 1.48 0 0 1 1.478-1.477 1.48 1.48 0 0 1 1.478 1.477 1.48 1.48 0 0 1-1.478 1.478 1.48 1.48 0 0 1-1.478-1.478m.224 0c0 .692.562 1.255 1.254 1.255a1.255 1.255 0 0 0 0-2.508c-.692 0-1.254.562-1.254 1.253M36.36 19.37a1.48 1.48 0 0 1 1.477-1.477 1.48 1.48 0 0 1 1.478 1.478 1.48 1.48 0 0 1-1.478 1.478 1.48 1.48 0 0 1-1.478-1.478m.223 0c0 .692.563 1.255 1.254 1.255s1.254-.562 1.254-1.254c0-.691-.562-1.254-1.254-1.254-.691 0-1.254.562-1.254 1.254"/>
        <path fill="#fff" d="M39.274 19.409q.229-.354.552-.388c.243-.025.517.099.752.339l.16-.157c-.287-.293-.619-.437-.935-.405-.282.03-.53.198-.717.49z"/>
        <path fill="#2f4c1c" d="M36.76 52.342 25.87 50.269l-.033 4.632 10.573-1.075z"/>
        <path fill="#e8e2dd" d="m26.133 50.499 10.44 1.855.083.09-.664 1.126-9.926-2.303z"/>
        <path fill="#47722b" d="m35.188 52.341-10.085-1.817-.017 10.285 10.813 2.377z"/>
        <path fill="#6baa43" d="M35.187 52.342a1 1 0 0 0 .076.064c.157.113.383.183.635.183.237 0 .452-.062.607-.164a1 1 0 0 0 .102-.08l.003-.003h.147v10.283c0 .155-.096.296-.252.397-.155.102-.37.164-.607.164-.474 0-.859-.25-.859-.56V52.341z"/>
        <path fill="#fffbf8" d="M35.266 52.406v9.989c0 .313.3.567.672.567a.74.74 0 0 0 .475-.166.53.53 0 0 0 .197-.401v-10.05a1 1 0 0 1-.102.08c-.156.102-.37.164-.607.164-.252 0-.479-.07-.635-.183"/>
        <path fill="#f72e1e" d="M29.037 52.416v7.93l-1.943-.454-.004-.144v-7.706z"/>
        <path fill="#ffb278" d="M27.654 57.977c.095-.364.173-.781.223-1.148l1.795.68c.254.851 1.378 1.557 1.468 2.58.055.633.362 1.246.127 1.337-.621.239-.616-1.083-.84-1.294.038.355.325 2.267.227 2.358-.204.19-.59.117-.772-.112a.64.64 0 0 1-.434.145c-.137-.006-.275-.136-.393-.133-.163.004-.296.127-.519.061-.148-.044-.266-.157-.396-.232-.457.206-.447-.409-.548-.708-.11-.328-.155-2.707.062-3.534"/>
        <path fill="#ffb278" d="M29.032 49.816c.345.076.92.14 1.41.076-.287 2.898-.705 7.295-.577 8.899-.514.046-1.346-.023-2.146-.038 0-1.222.084-6.177 0-9.472.576.23.682.395 1.313.535"/>
        <path fill="#ffb278" d="M30.014 27.929c1.149-.816 3.511.075 2.913 4.93-.074.601-.927 4.34-1.046 5.081-.597 3.736-1.961 16.827-2.028 18.145-.672-.188-1.391-.212-2.07-.375-.119-2.35-.321-25.97 2.23-27.781"/>
    </g>
    <defs>
        <clipPath id="a">
            <path fill="#fff" d="M.125 6h74v51h-74z"/>
        </clipPath>
    </defs>
</svg>
