<svg xmlns="http://www.w3.org/2000/svg" width="32" height="32" fill="none" viewBox="0 0 32 32">
    <path fill="#066c33" stroke="#066c33" stroke-width=".25" d="m2.124 24.573 1.381.75a1.37 1.37 0 0 0 1.86-.55l.037-.067.885.49c.016.333.146.661.399.914.281.282.676.444 1.139.39-.047.406.079.828.39 1.139.28.281.675.443 1.138.39-.047.405.079.827.39 1.138.282.282.676.443 1.138.39-.053.461.104.853.39 1.138.54.54 1.417.54 1.957 0l.044-.043.355.37a1.48 1.48 0 0 0 2.197-.07l.072-.086a1.5 1.5 0 0 0 .34-.77l.339.326a1.497 1.497 0 0 0 2.236-.266c.24-.35.305-.769.223-1.157q.023-.002.044-.003a1.5 1.5 0 0 0 1.058-.64 1.5 1.5 0 0 0-.077-1.79c.09-.022.121-.043 6.105-2.25l.422.848a1.374 1.374 0 0 0 1.84.615l1.408-.701a1.37 1.37 0 0 0 .615-1.84l-4.137-8.296a1.37 1.37 0 0 0-1.84-.615l-1.407.701a1.37 1.37 0 0 0-.663 1.715c-1.037.515-2.27.692-3.286.452-1.595-.377-2.904-.513-4.504.358l-1.297.705-3.691-1.32.168-.31c.36-.664.114-1.498-.55-1.86l-1.382-.75a1.374 1.374 0 0 0-1.86.55l-4.427 8.144a1.37 1.37 0 0 0 .55 1.86Zm4.991 1.108a.777.777 0 0 1 0-1.099l.43-.43a.777.777 0 1 1 1.1 1.1l-.43.43a.797.797 0 0 1-1.1 0Zm1.528 1.529a.78.78 0 0 1 0-1.1l.976-.975a.778.778 0 0 1 1.1 1.1l-.976.975a.78.78 0 0 1-1.1 0Zm1.529 1.528a.78.78 0 0 1 0-1.1l1.454-1.454a.778.778 0 0 1 1.1 1.099l-1.455 1.455a.78.78 0 0 1-1.1 0Zm1.528 1.528a.776.776 0 0 1 0-1.099l1.605-1.605a.778.778 0 0 1 1.1 1.099l-1.606 1.605a.78.78 0 0 1-1.099 0Zm3.733.209-.073.085a.87.87 0 0 1-1.295.042l-.364-.38c1.205-1.22 1.112-1.085 1.267-1.297l.377.334c.357.317.396.85.088 1.216Zm7.903-14.903 1.407-.702a.764.764 0 0 1 1.026.343l4.137 8.296a.764.764 0 0 1-.343 1.026l-1.407.701a.766.766 0 0 1-1.026-.343l-4.137-8.295a.766.766 0 0 1 .343-1.026Zm-8.434 2.514c1.443-.786 2.63-.642 4.074-.3 1.16.274 2.515.091 3.683-.488l3.162 6.499-4.693 1.732a1.46 1.46 0 0 0-.456-1.527l-4.508-3.842-.004-.003h-.001a.33.33 0 0 0-.293-.052l-2.96 1.056a.878.878 0 0 1-.715-1.6zm-2.301.561-.7.381a1.483 1.483 0 0 0-.663 1.872 1.484 1.484 0 0 0 1.873.833l2.793-.997 4.374 3.728a.871.871 0 0 1-1.112 1.343l-3.013-2.323a.303.303 0 1 0-.37.48c.03.025 3.288 2.55 3.672 2.848.364.29.443.817.18 1.2-.245.359-.621.527-1.123.128l-3.877-3.187a.314.314 0 0 0-.42.034l-.003.004c-.008.03-.187.246.038.43l3.88 3.191a.891.891 0 1 1-1.143 1.366c-1.267-1.192 1.03.933-1.77-1.644a1.38 1.38 0 0 0-.383-1.201 1.38 1.38 0 0 0-1.277-.37 1.38 1.38 0 0 0-.402-1.008 1.38 1.38 0 0 0-1.619-.241A1.37 1.37 0 0 0 9.46 24.5a1.37 1.37 0 0 0-.386-.778 1.383 1.383 0 0 0-1.958 0l-.43.43a1.4 1.4 0 0 0-.28.414l-.688-.38 3.613-6.71zM2.106 23.002l4.427-8.144a.766.766 0 0 1 1.037-.307l1.382.75c.37.202.509.665.307 1.038-.113.012-2.835 5.167-4.427 8.145a.765.765 0 0 1-1.037.307l-1.382-.751a.766.766 0 0 1-.307-1.038Z"/>
    <path fill="#066c33" stroke="#066c33" stroke-width=".25" d="M15.136 14.756h1.724c3.938 0 7.117-3.213 7.117-7.116 0-3.92-3.197-7.117-7.117-7.117h-1.724C11.212.523 8.02 3.716 8.02 7.64a7.125 7.125 0 0 0 7.116 7.116Zm3.274-.801a7.17 7.17 0 0 0 2.966-2.898h1.014a6.52 6.52 0 0 1-3.98 2.898Zm4.819-7.658h-1.105a7 7 0 0 0-.45-1.467h1.05c.222.462.396.952.505 1.467Zm-1.015.607h1.111q.044.362.045.736-.001.373-.045.736h-1.11a7 7 0 0 0 0-1.472Zm-.09 2.079h1.105a6.5 6.5 0 0 1-.506 1.467h-1.05c.2-.466.353-.957.45-1.467Zm.267-4.76h-1.015a7.2 7.2 0 0 0-1.074-1.47h.845c.484.425.902.92 1.244 1.47Zm-2.054-2.077h-.682q-.576-.473-1.245-.821c.693.17 1.341.449 1.927.821ZM15.136 1.13c3.59 0 6.51 2.92 6.51 6.51s-2.92 6.51-6.51 6.51-6.51-2.92-6.51-6.51 2.92-6.51 6.51-6.51Z"/>
    <path fill="#066c33" stroke="#066c33" stroke-width=".25" d="M15.139 12.728a5.094 5.094 0 0 0 5.087-5.088 5.094 5.094 0 0 0-5.087-5.088A5.094 5.094 0 0 0 10.05 7.64a5.093 5.093 0 0 0 5.088 5.087Zm0-9.569c2.47 0 4.48 2.01 4.48 4.48s-2.01 4.482-4.48 4.482-4.481-2.01-4.481-4.481 2.01-4.481 4.48-4.481ZM24.517 16.764l.195-.098 1.05 2.106a.303.303 0 0 0 .543-.271l-1.185-2.377a.304.304 0 0 0-.407-.136l-.467.233a.303.303 0 1 0 .271.543Z"/>
    <path fill="#066c33" stroke="#066c33" stroke-width=".25" d="M15.137 9.73a.894.894 0 0 1-.893-.893.303.303 0 0 0-.607 0c0 .723.514 1.328 1.197 1.469v.343a.304.304 0 0 0 .607 0v-.343a1.5 1.5 0 0 0 1.196-1.47c0-.827-.673-1.5-1.5-1.5a.894.894 0 0 1 0-1.786c.493 0 .893.4.893.893a.303.303 0 0 0 .607 0c0-.723-.514-1.328-1.197-1.469v-.343a.303.303 0 0 0-.606 0v.343a1.5 1.5 0 0 0-1.197 1.47c0 .826.673 1.5 1.5 1.5a.894.894 0 0 1 0 1.786Z"/>
</svg>
