<svg xmlns="http://www.w3.org/2000/svg" width="161" height="161" fill="none" viewBox="0 0 161 161">
    <g clip-path="url(#a)">
        <path fill="#ef7d5f" d="M135.216 34.635c-.226-.289-.643-.303-1.003-.28-1.56.103-3.104.45-4.564 1.024l3.985-3.125c.306-.24.622-.491.799-.842 1.035-2.05-4.417.057-5.146.465q-.604.34-1.196.698l3.235-3.838c.132-.156.27-.327.287-.532.029-.346-.318-.628-.656-.651s-.66.137-.963.292c-2.454 1.26-4.998 2.396-7.343 3.85.203-1.25.258-2.524.164-3.787-.017-.23-.045-.474-.193-.648-.428-.503-1.199.077-1.565.631-.475.72-3.933 7.608-6.283 12.083-1.089 1.894-2.363 4.047-3.634 5.842-2.101 2.967-4.987 5.42-7.593 7.898l-.151.143a52 52 0 0 1-2.89 2.55c-3.48 2.859-7.74 5.677-11.714 7.4q-.165-.03-.33-.056l-1.118-4.896-.762-3.335c1.237-.878 2.234-2.086 2.893-3.633.788-1.846 1.093-4.176.746-7.005a22 22 0 0 0-.94-4.172c-.875-2.648-2.219-5.04-3.821-6.818q-.497-.554-1.026-1.022.133-.535.188-1.09c.033-.34.04-.692-.062-1.017-.122-.388-.392-.71-.689-.98-.92-.839-2.227-1.314-3.457-1.185a28.1 28.1 0 0 0-10.498 3.28c-.857.47-1.698.988-2.404 1.673-.706.684-1.273 1.55-1.48 2.523-.136.643-.112 1.311-.04 1.965a13.8 13.8 0 0 0 1.185 4.264c.273.59.58 1.324.972 1.832.103.134.225.24.36.327-1.26.496-2.078 1.825-1.902 3.261.207 1.689 1.71 2.885 3.356 2.672a2.96 2.96 0 0 0 1.717-.846c.433 1.727 1.095 3.145 1.93 4.274a8.6 8.6 0 0 0 1.875 1.872l-.453 2.57-.862 4.889c-.595.28-1.16.686-1.697 1.2-2.561-.234-5.134-.332-7.656-.998a14 14 0 0 1-.752-.222c-1.365-.447-2.64-1.102-3.853-1.88-2.373-1.525-4.505-3.526-6.592-5.388-1.503-1.34-3.1-4.002-4.362-6.426a72 72 0 0 1-1.898-3.954c-1.527-4.501-3.922-12.093-4.274-12.873-.259-.575-.892-1.237-1.367-.834-.163.138-.226.363-.276.574a15.3 15.3 0 0 0-.41 3.561c-1.974-1.725-4.18-3.184-6.283-4.744-.26-.193-.537-.392-.856-.424-.32-.031-.685.177-.71.505-.014.194.09.375.189.54l2.45 4.09a40 40 0 0 0-1.014-.838c-.62-.495-5.396-3.317-4.735-1.24.113.354.37.639.62.911l3.255 3.54a14.5 14.5 0 0 0-4.108-1.67c-.332-.078-.724-.13-.977.104-.214.198-.245.544-.146.822.098.278.3.503.502.713a16 16 0 0 0 4.044 3.051c-.247-.131-3.655-.402-3.93-.188-.44.343.092 1.02.576 1.295l4.878 2.762c1.947 1.101 3.347 2.68 3.89 4.733.23 1.583.53 3.294.908 5.021.767 3.496 1.858 7.057 3.36 9.751 2.369 4.251 5.701 8.225 9.931 10.987q.409.266.828.518a41 41 0 0 0 3.386 1.812 26 26 0 0 0-.547 2.526c2.258 1.027 5.961 2.407 9.282 3.471a83.6 83.6 0 0 0-.503 11.904q.02.642.052 1.272.056 1.11.127 2.204c.093 1.444.205 2.864.327 4.228.631 7.072 1.53 12.67 1.53 12.67h53.809s-2.148-5.775-4.896-12.989a1343 1343 0 0 0-2.833-7.385c-2.401-6.207-4.863-12.427-6.573-16.377-.255-.59-.57-1.263-.941-1.988 2.027-1.271 6.264-5.724 7.819-7.09-.379-.69-.828-1.39-1.334-2.093a34 34 0 0 0 2.305-2.396q.6-.69 1.159-1.413c2.086-2.708 3.686-5.76 4.834-9.007a142 142 0 0 0 3.306-10.66l-.111.004c.819-1.127 2.025-1.808 3.727-2.43l5.549-2.029c.551-.201 1.22-.814.816-1.25-.251-.271-3.851-.585-4.132-.491a16.8 16.8 0 0 0 4.727-2.475c.246-.184.494-.383.643-.656s.174-.64-.016-.884z"/>
        <path fill="#f7aa4b" d="M116.268 103.253a2018 2018 0 0 0-2.834-7.385c-2.401-6.206-4.863-12.426-6.573-16.376-.255-.59-.57-1.264-.941-1.989 2.028-1.27 6.264-5.723 7.819-7.089-.379-.69-.828-1.39-1.334-2.093-3.099-4.318-8.285-8.77-11.904-11.911-3.48 2.858-7.739 5.676-11.714 7.399q-.165-.03-.33-.056l.023.1s.008 3.573-6.718 3.573c-3.484 0-5.403-.836-6.457-1.698-1.125-.922-1.262-1.875-1.262-1.875l.123-.698c-.596.281-1.162.687-1.698 1.2-2.561-.234-5.134-.331-7.656-.997a14 14 0 0 1-.751-.223q-.062.086-.123.173l-.101.143-.003.003a37 37 0 0 0-1.104 1.68c-2.297 3.706-4.52 8.586-5.644 12.832a26 26 0 0 0-.547 2.526c2.258 1.027 5.96 2.407 9.282 3.472a83.6 83.6 0 0 0-.503 11.903q.02.643.051 1.272.056 1.11.127 2.205c.094 1.444.206 2.863.328 4.228.63 7.072 1.529 12.669 1.529 12.669h53.809s-2.147-5.775-4.895-12.989z"/>
        <path fill="#e06850" d="m103.549 53.716-.151.143a52 52 0 0 1-2.89 2.551c3.619 3.141 8.805 7.594 11.904 11.911a34 34 0 0 0 2.305-2.395c-2.863-4.763-6.747-8.868-11.168-12.21"/>
        <path fill="#91862b" d="M100.502 56.41c-3.48 2.859-7.74 5.677-11.714 7.4q-.165-.03-.33-.057l.023.1c3.067 5.18 5.013 18.534 5.013 18.534-8.738-4.243-15.5-12.858-18.189-16.659-1.125-.921-1.262-1.874-1.262-1.874l.123-.699c-.596.282-1.162.687-1.698 1.201-2.561-.234-5.134-.332-7.656-.997a14 14 0 0 1-.751-.223q-.062.086-.123.173l-.101.142-.003.003a37 37 0 0 0-1.104 1.68c-2.297 3.706-4.52 8.586-5.644 12.833a26 26 0 0 0-.547 2.526c2.258 1.027 5.96 2.407 9.282 3.471a83.6 83.6 0 0 0-.503 11.904h48.115c-2.401-6.207-4.863-12.427-6.572-16.377a35 35 0 0 0-.942-1.988c2.028-1.271 6.265-5.724 7.819-7.09-.379-.69-.828-1.39-1.333-2.093-3.099-4.318-8.286-8.77-11.904-11.911z"/>
        <path fill="#e06850" d="m63.837 63.454.002-.003.101-.142.123-.173c-1.365-.447-2.64-1.102-3.853-1.88-3.056 4.38-5.92 9.186-7.335 14.381q.408.268.828.519c1.1.659 2.232 1.26 3.386 1.811 1.125-4.246 3.347-9.126 5.645-12.832q.527-.856 1.104-1.68z"/>
        <path fill="#91862b" d="m65.82 103.573 50.443-.32c-.483-1.266-.984-2.577-1.495-3.908H65.492c.094 1.444.206 2.863.327 4.228"/>
        <path fill="#f7efec" d="M81.77 67.426c-3.485 0-5.404-.836-6.457-1.698C78 69.53 84.763 78.144 93.5 82.387c0 0-1.946-13.355-5.013-18.534 0 0 .008 3.573-6.718 3.573"/>
        <path fill="#e06850" d="m87.327 58.858-.762-3.335c-1.274.905-2.801 1.46-4.473 1.676-2.437.315-4.752-.147-6.623-1.502l-.453 2.57c3.848 1.725 8.328 2.087 12.31.59M71.269 47.334a22 22 0 0 1-.156-2.248c-.047.56-1.068-.065-1.463-.186-.383-.117-.804-.215-1.146-.436-1.261.496-2.078 1.825-1.902 3.26.207 1.69 1.71 2.886 3.355 2.673a2.96 2.96 0 0 0 1.717-.846q-.26-1.034-.407-2.217z"/>
        <path fill="#853f40" d="m69.397 46.43-.342-.312-.045-.037-.073.117c.029.022.187.166.4.363.196.181.442.411.688.642l-.956.659.075.115.984-.678.352.329.663.622.091-.102s-.535-.503-1.08-1.011c-.272-.255-.547-.51-.758-.706z"/>
        <path fill="#e06850" d="M73.549 40.744q-.147.026-.295.049a7.8 7.8 0 0 1-1.36 1.954 3.4 3.4 0 0 0-.41.506 5.4 5.4 0 0 1 1.486-.539q.336-.796.75-1.534a2 2 0 0 1-.17-.436zM84.402 34.96c.417-.285.757-.65 1.043-1.066q-.497-.553-1.026-1.021c-.234.955-.638 1.866-1.122 2.735a6.5 6.5 0 0 0 1.105-.649M73.43 40.415l.053-.026-.009-.077z"/>
        <path fill="#442b14" d="M71.107 45.087q-.014-.821.031-1.633a5 5 0 0 1 .342-.201c.107-.165.24-.331.41-.507a7.8 7.8 0 0 0 1.36-1.953q.15-.023.294-.049c.042.154.098.303.171.435.131.236.318.42.576.483.2.05.412.013.61-.045.702-.206 1.297-.678 1.84-1.178a16.7 16.7 0 0 0 1.946-2.125c.398-.517.768-1.063 1.02-1.668l.016-.041-.017.04a4.65 4.65 0 0 0-.079 3.246c1.008-.468 1.758-1.35 2.409-2.279l-.003.976s2.643.87 5.825.307c0 0-3.588-.566-5.608-1.596l.067-.1c.344-.514.68-1.044.983-1.59.483-.87.887-1.78 1.122-2.736q.134-.535.188-1.09c.034-.34.04-.692-.062-1.017-.122-.388-.391-.71-.688-.98-.92-.839-2.227-1.314-3.458-1.185a28.1 28.1 0 0 0-10.498 3.281c-.857.469-1.698.988-2.404 1.672-.706.685-1.273 1.55-1.48 2.523-.136.644-.112 1.311-.04 1.965a13.8 13.8 0 0 0 1.186 4.264c.273.59.579 1.324.97 1.832.104.134.227.24.361.327.343.222.763.32 1.147.436.395.12 1.415.746 1.462.186zm2.316-4.672q.022-.052.043-.103l.01.077-.052.026"/>
        <path fill="#e1625c" d="M79.443 49.19a5.8 5.8 0 0 0 .006-1.882l-.002-.012-.022-.13-.006-.027-.01-.05-.037-.172-.007-.029-.006-.024-.01-.044-.012-.047-.006-.021-.018-.068-.013-.045q-.002-.012-.006-.023l-.016-.056-.003-.01-.035-.11-.008-.025-.014-.043-.008-.022-.017-.048-.006-.017-.019-.05-.005-.015-.024-.063-.05-.125-.002-.004-.05-.117q-.001-.004-.004-.01l-.02-.046-.008-.017-.022-.048q-.004-.006-.006-.013l-.028-.057q0-.002-.002-.003l-.03-.06-.06-.12-.001-.002c-1.048-1.968-3.194-3.18-5.494-2.882q-.194.024-.382.063a5.4 5.4 0 0 0-1.828.74 22 22 0 0 0 .124 3.88q.146 1.184.407 2.217c.433 1.727 1.095 3.146 1.93 4.274q.55.046 1.118-.027c2.301-.297 4.088-2.02 4.626-4.195q-.136-.175-.275-.366h.004l.357-.048zM90.218 44.885a22 22 0 0 0-.94-4.172 5.3 5.3 0 0 0-1.136.026c-2.383.308-4.214 2.144-4.678 4.428v.002l-.012.059-.001.01-.01.055-.003.011-.009.053-.002.015-.008.052-.003.015-.007.05q-.002.01-.003.02l-.007.047-.002.02-.006.047q0 .012-.003.023l-.005.043-.002.028-.005.04-.002.027-.004.043-.002.026-.003.04-.002.032-.002.038-.002.03-.002.04-.001.03-.002.038-.001.03-.001.04v.278l.003.072.001.033.002.038.002.035.002.034.003.045.002.026.003.042.002.029.005.046.002.025.006.059.002.011.008.072c.07.564.218 1.098.433 1.591l1.84-.244s-.098.39-.303.911a8 8 0 0 1-.455.963c1.148 1.205 2.81 1.868 4.565 1.654.788-1.847 1.093-4.177.746-7.006z"/>
        <path fill="#33180e" d="m83.829 48.607-4.39.582-.357.047h-.004a13 13 0 0 0 .929 1.144c2.145 2.327 3.6 1.643 4.498.473.15-.196.285-.405.405-.616.188-.332.34-.668.455-.963.205-.52.302-.91.302-.91l-1.84.243z"/>
        <path fill="#ac3a3b" d="M80.008 50.38c2.145 2.327 3.6 1.643 4.498.473a5.93 5.93 0 0 0-4.498-.473"/>
        <path fill="#f7efec" d="M85.377 49.274c.205-.521.302-.912.302-.912l-1.84.245-4.388.582-.357.047c1.877.907 4.338.973 6.282.037"/>
        <path fill="#e1625c" d="M81.307 47.048c.13.139 1.554-.104 1.672-.216s-2.541-6.105-2.541-6.105.739 6.183.87 6.32z"/>
        <path fill="#33180e" d="M84.117 43.67s1.364-1.529 3.878-.609l.454-.395-.485-.275s-2.447-1.218-3.847 1.279M77.836 44.802c-1.758-2.245-3.993-.656-3.993-.656l-.241.14.31.527c2.347-1.305 3.924-.01 3.924-.01"/>
    </g>
    <path fill="#cacaca" d="M91.003 152.983c27.559 0 49.901-2.091 49.901-4.67s-22.342-4.67-49.901-4.67-49.901 2.091-49.901 4.67 22.341 4.67 49.9 4.67" opacity=".46"/>
    <path fill="#d03240" d="M148.774 70.064 111.34 80.603l9.05 9.159c-10.038 10.207-22.589 23.022-22.924 23.628-.56 1.012-10.3-18.9-10.3-18.9L60.87 123.548l-9.601-12.701-20.995 23.46 19.6-13.352 10.591 13.811 23.639-24.013 10.079 20.6 35.141-32.55 9.727 9.845z"/>
    <path fill="#ae2436" d="m94.555 131.409 35.459-31.901-2.016-2.415zM60.453 134.766l24.988-21.309-1.335-2.7zM49.874 120.956l-19.6 13.351 20.924-11.625z"/>
    <path fill="#404799" d="M112.217 111.694c-4.395-7.551-16.142-4.173-16.186-4.16-3.38 4.331-7.805 11.04-9.855 18.598-3.557 13.11.813 19.716.813 19.716s2.439 5.082 16.667 3.659c4.853-.485 9.266-.313 12.993-.393 6.308-12.846-.029-29.856-4.432-37.42"/>
    <path fill="#3b448e" d="M128.766 139.141c.305-11.484-10.278-31.638-17.785-36.688h-10.538s-1.921 1.9-4.404 5.081c.043-.013 11.79-3.391 16.186 4.159 4.403 7.565 10.74 24.575 4.432 37.42 7.233-.155 11.877-1.26 12.109-9.972"/>
    <path fill="#404799" d="M100.431 102.453s-8.825-12.934-2.616-12.72 5.059 2.462 8.953 2.034 4.643-3.212 9.139-1.499-5.888 13.382-5.888 13.382z"/>
    <path fill="#e9f4f9" d="M109.688 119.946c.829 0 1.507-.678 1.507-1.507s-.678-1.506-1.507-1.506h-11.93a1.51 1.51 0 0 0-1.506 1.506c0 .829.678 1.507 1.506 1.507h3.42c1.461 0 2.711.858 3.283 2.109h-6.688a1.51 1.51 0 0 0-1.506 1.506 1.51 1.51 0 0 0 1.506 1.506h6.688a3.62 3.62 0 0 1-3.283 2.109h-3.42a1.51 1.51 0 0 0-1.04 2.606l8.527 8.059c.286.271.662.407 1.039.407.407 0 .798-.166 1.1-.467a1.5 1.5 0 0 0-.061-2.124l-5.784-5.468a6.65 6.65 0 0 0 6.085-5.107h2.064a1.51 1.51 0 0 0 1.506-1.506 1.51 1.51 0 0 0-1.506-1.506h-2.064a6.6 6.6 0 0 0-.903-2.109h2.967z"/>
    <path fill="#3b448e" d="M105.778 149.335s-9.032 0-11.378-4.935c0 0-.44 3.883 3.134 5.331 0 0 6.348.186 8.244-.396M109.039 99.5s2.958-4.453 3.755-9.784c0 0 6.102-.566 3.846 4.127 0 0-.974 3.087-4.731 7.528z"/>
    <path fill="#18186b" d="M100.513 102.939a.992.992 0 0 1-.568-1.821c.206-.137 5.147-3.323 12.016-.872a.994.994 0 1 1-.668 1.873c-5.899-2.104-10.08.546-10.255.659a1 1 0 0 1-.525.161"/>
    <path fill="#1c1980" d="M113.302 104.551a1 1 0 0 1-.328-.056c-8.66-3.028-14.208-.096-14.262-.066a.994.994 0 1 1-.95-1.746c.256-.139 6.386-3.38 15.868-.065a.994.994 0 0 1-.328 1.933"/>
    <path fill="#1c1980" d="M107.361 111.777a.995.995 0 0 1-.915-1.382c2.54-6 .362-7.188.339-7.2.021.011-.104-.063-.104-.063l.893-1.761c.112.046 1.109.49 1.685 1.889.773 1.881.443 4.543-.982 7.91a1 1 0 0 1-.916.607"/>
    <path fill="#1c1980" d="M115.776 114.609a.994.994 0 0 1-1.117-.851c-.003-.018-.261-1.837-1.192-3.919-1.207-2.701-2.924-4.559-5.101-5.521a.995.995 0 1 1 .804-1.818c6.282 2.776 7.414 10.656 7.458 10.991a.994.994 0 0 1-.852 1.118"/>
    <path fill="#f1e28e" fill-rule="evenodd" d="M51.188 143.621s15.527-.884 31.054 0z" clip-rule="evenodd"/>
    <path fill="#ca9a27" d="M51.188 143.621v4.141h31.054v-4.141z"/>
    <mask id="b" width="32" height="5" x="51" y="143" maskUnits="userSpaceOnUse" style="mask-type:luminance">
        <path fill="#fff" d="M51.21 143.621v4.141h31.056v-4.141z"/>
    </mask>
    <g stroke="#ecd757" stroke-miterlimit="10" stroke-width="2.977" mask="url(#b)">
        <path d="M52.617 149.064v-6.092M55 148.945v-6.091M57.367 148.826v-6.091M59.742 148.568v-6.091M62.117 148.766v-6.091M64.492 148.766v-6.091M66.86 149.074v-6.091M69.227 148.766v-6.091M76.344 149.04v-6.091M71.61 148.766v-6.091M78.727 148.759v-6.091M73.977 148.882v-6.092M81.094 148.681v-6.091"/>
    </g>
    <path fill="#f1e28e" fill-rule="evenodd" d="M49.844 138.821s15.527-.885 31.055 0z" clip-rule="evenodd"/>
    <path fill="#ca9a27" d="M49.844 138.821v4.14h31.055v-4.14z"/>
    <mask id="c" width="32" height="5" x="49" y="138" maskUnits="userSpaceOnUse" style="mask-type:luminance">
        <path fill="#fff" d="M49.844 138.821v4.14h31.055v-4.14z"/>
    </mask>
    <g stroke="#ecd757" stroke-miterlimit="10" stroke-width="2.977" mask="url(#c)">
        <path d="M51.25 144.263v-6.091M53.633 144.144v-6.091M56 144.026v-6.092M58.375 143.768v-6.091M60.75 143.965v-6.091M63.125 143.965v-6.091M65.492 144.274v-6.092M67.86 143.965v-6.091M74.977 144.239v-6.091M70.242 143.965v-6.091M77.36 143.959v-6.092M72.61 144.081v-6.091M79.727 143.881v-6.091"/>
    </g>
    <path fill="#ca9a27" d="M77.07 149.391c7.828 0 14.173-6.345 14.173-14.172s-6.345-14.172-14.172-14.172-14.173 6.345-14.173 14.172 6.346 14.172 14.173 14.172"/>
    <path fill="#ecd757" d="M76.462 149.391c7.827 0 14.172-6.345 14.172-14.172s-6.345-14.172-14.172-14.172-14.173 6.345-14.173 14.172 6.345 14.172 14.173 14.172"/>
    <path fill="#ecd757" d="M76.462 149.391c7.827 0 14.172-6.345 14.172-14.172s-6.345-14.172-14.172-14.172-14.173 6.345-14.173 14.172 6.345 14.172 14.173 14.172"/>
    <path fill="#ca9a27" d="M76.451 146.647c6.312 0 11.428-5.117 11.428-11.428s-5.117-11.428-11.428-11.428-11.428 5.117-11.428 11.428 5.117 11.428 11.428 11.428"/>
    <path fill="#f1e28e" d="M76.462 123.791q-.126 0-.251.004c6.195.133 11.177 5.197 11.177 11.424 0 6.228-4.982 11.291-11.177 11.424q.125.004.25.004c6.312 0 11.428-5.117 11.428-11.428s-5.116-11.428-11.427-11.428"/>
    <path fill="#b68d24" d="M65.79 135.219c0-6.183 4.911-11.218 11.045-11.421a12 12 0 0 0-.384-.007c-6.311 0-11.428 5.117-11.428 11.428s5.117 11.428 11.428 11.428q.193 0 .384-.008c-6.134-.202-11.044-5.237-11.044-11.42"/>
    <path fill="#b68d24" fill-rule="evenodd" d="M78.229 130.551c.405.568.709 1.196.891 1.885h2.088l-.81 2.433h-1.156c-.345 2.513-2.088 4.479-4.56 4.824l3.759 5.304h-2.96l-3.738-5.243v-2.433h2.027a3.11 3.11 0 0 0 3.04-2.432h-5.615l.811-2.432h4.621a3.1 3.1 0 0 0-2.858-1.886h-2.574l.811-2.432h9.202l-.81 2.432h-2.17z" clip-rule="evenodd"/>
    <path fill="#ecd757" fill-rule="evenodd" d="M78.768 130.047c.405.568.71 1.196.892 1.885h2.088l-.811 2.433H79.78c-.344 2.513-2.087 4.479-4.56 4.824l3.759 5.304h-2.96l-3.738-5.243v-2.433h2.027a3.11 3.11 0 0 0 3.04-2.432h-5.615l.811-2.432h4.621a3.1 3.1 0 0 0-2.858-1.886h-2.574l.811-2.432h9.202l-.81 2.432h-2.17z" clip-rule="evenodd"/>
    <defs>
        <clipPath id="a">
            <path fill="#fff" d="M28.664 27.07h106.688v89.172H28.664z"/>
        </clipPath>
    </defs>
</svg>
