<svg xmlns="http://www.w3.org/2000/svg" width="39" height="50" fill="none"><g clip-path="url(#a)"><path fill="#4D378C" d="m2.393 32.6 22.175 17.098a1.466 1.466 0 0 0 2.057-.27L38.699 33.67a1.473 1.473 0 0 0-.27-2.061L16.254 14.512a1.466 1.466 0 0 0-2.057.27L2.122 30.54a1.473 1.473 0 0 0 .27 2.06"/><g clip-path="url(#b)"><path fill="url(#c)" d="M38.773 24.939c.23-4.447-3.18-8.239-7.617-8.47s-8.221 3.186-8.452 7.633c-.23 4.446 3.18 8.238 7.617 8.47 4.437.23 8.222-3.187 8.452-7.633"/><path fill="url(#d)" d="M38.581 24.929c.225-4.34-3.103-8.042-7.435-8.268-4.331-.225-8.025 3.11-8.25 7.45S26 32.154 30.331 32.38c4.331.225 8.025-3.11 8.25-7.45"/><path fill="url(#e)" d="M37.62 24.88a6.87 6.87 0 0 1-2.268 4.772 6.84 6.84 0 0 1-4.972 1.766 6.84 6.84 0 0 1-4.761-2.273 6.87 6.87 0 0 1-1.763-4.982 6.87 6.87 0 0 1 2.269-4.771 6.84 6.84 0 0 1 4.971-1.767 6.84 6.84 0 0 1 4.762 2.274 6.87 6.87 0 0 1 1.763 4.981"/><path fill="url(#f)" d="M26.365 19.184a6.86 6.86 0 0 0-2.038 4.553 6.87 6.87 0 0 0 1.763 4.982 6.84 6.84 0 0 0 4.762 2.273c1.732.09 3.4-.461 4.73-1.559a6.838 6.838 0 0 1-5.202 1.985 6.84 6.84 0 0 1-4.761-2.273 6.87 6.87 0 0 1-1.763-4.982 6.87 6.87 0 0 1 2.51-4.979"/><path fill="url(#g)" d="M31.156 16.471c4.438.232 7.848 4.024 7.617 8.47-.217 4.199-3.604 7.48-7.717 7.638l.091-.197a7.863 7.863 0 0 0 7.434-7.451c.225-4.34-3.103-8.042-7.435-8.267-3.484-.182-6.556 1.942-7.741 5.04l-.215.025c1.187-3.225 4.361-5.445 7.966-5.258" opacity=".4"/><path fill="url(#h)" d="M26.366 19.182a6.9 6.9 0 0 0-1.595 2.445q-.15 0-.294.003a6.9 6.9 0 0 1 1.889-2.448" style="mix-blend-mode:saturation"/><path fill="url(#i)" d="M30.973 16.753c4.331.226 7.66 3.927 7.435 8.268a7.863 7.863 0 0 1-7.435 7.45c.128-.285.255-.617.37-.996a6.83 6.83 0 0 0 4.065-1.95l.001-.001a6.86 6.86 0 0 0 2.038-4.553 6.87 6.87 0 0 0-1.763-4.982 6.84 6.84 0 0 0-4.761-2.273 6.83 6.83 0 0 0-4.731 1.559l-.002.001q-.03.023-.059.05-.09.076-.18.156a6.9 6.9 0 0 0-1.65 2.242c-.412.009-.776.037-1.07.069 1.185-3.098 4.257-5.221 7.742-5.04" opacity=".3"/><path fill="url(#j)" d="M31.097 17.622a6.84 6.84 0 0 1 4.762 2.273 6.87 6.87 0 0 1 1.763 4.982 6.86 6.86 0 0 1-2.038 4.553l-.002.002a6.83 6.83 0 0 1-3.952 1.554c.245-.933.416-2.12.394-3.594-.084-1.212-.597-3.76-3.332-4.97-1.321-.627-2.772-.792-3.922-.795a6.9 6.9 0 0 1 1.595-2.445l.002-.001a6.83 6.83 0 0 1 4.73-1.56" opacity=".6"/><g clip-path="url(#k)"><path fill="#fff" d="m29.233 24.285-.736.411c.271.525.7.906 1.19 1.092.246.094.508.138.772.125.263-.014.529-.087.774-.224l1.178-.658.817-.456.874-.489c.245-.137.45-.327.608-.548.236-.333.364-.733.385-1.146a2.45 2.45 0 0 0-.27-1.238 2.26 2.26 0 0 0-1.193-1.098 1.9 1.9 0 0 0-.771-.124 1.8 1.8 0 0 0-.774.223l-2.869 1.603c-.245.137-.45.327-.608.548a2.17 2.17 0 0 0-.386 1.146q-.009.21.018.42l.816-.455q.01-.097.03-.187c.038-.16.103-.305.19-.427a1 1 0 0 1 .325-.294l2.869-1.603a.94.94 0 0 1 .415-.12c.217-.011.45.05.663.182s.405.334.54.596c.18.35.216.73.14 1.05-.036.16-.101.305-.187.427a1 1 0 0 1-.326.294l-.745.417-.736.41-1.388.776a.94.94 0 0 1-.415.12c-.218.011-.45-.05-.663-.182a1.5 1.5 0 0 1-.537-.59"/><g filter="url(#l)"><path fill="#fff" d="m32.238 24.16.736-.41a2.26 2.26 0 0 0-1.19-1.093 1.9 1.9 0 0 0-.771-.124 1.8 1.8 0 0 0-.774.223l-1.179.659-.817.456-.874.488c-.245.137-.45.327-.607.549a2.16 2.16 0 0 0-.386 1.145c-.02.413.067.843.27 1.24.27.527.701.91 1.193 1.097.245.094.508.138.771.124a1.8 1.8 0 0 0 .774-.223l2.87-1.604c.245-.136.45-.327.607-.548.236-.332.364-.732.386-1.145q.01-.21-.017-.421l-.817.456a1.4 1.4 0 0 1-.03.186 1.2 1.2 0 0 1-.189.427 1 1 0 0 1-.325.295L29 27.54a.94.94 0 0 1-.415.12c-.217.01-.45-.05-.663-.182a1.5 1.5 0 0 1-.54-.597 1.55 1.55 0 0 1-.14-1.05 1.2 1.2 0 0 1 .188-.426 1 1 0 0 1 .325-.295l.745-.416.736-.411 1.389-.776a.94.94 0 0 1 .415-.12c.217-.01.45.05.663.182.211.132.402.331.536.591"/></g></g><path fill="url(#m)" d="m35.406 29.526-.055.054a6.834 6.834 0 0 1-4.01 1.896q.06-.19.113-.395a6.83 6.83 0 0 0 3.952-1.555" style="mix-blend-mode:saturation"/></g><path fill="#6636CE" d="m.573 32.578 22.175 17.097a1.466 1.466 0 0 0 2.057-.27L36.88 33.648a1.473 1.473 0 0 0-.27-2.061L14.435 14.489a1.466 1.466 0 0 0-2.057.27L.303 30.518a1.473 1.473 0 0 0 .27 2.06"/><path fill="#8F78FF" d="m1.621 30.945 11.51-15.02a.626.626 0 0 1 .876-.114l21.437 16.53a.63.63 0 0 1 .115.878l-11.51 15.02a.626.626 0 0 1-.875.115L1.737 31.823a.63.63 0 0 1-.116-.878m12.277-14.994a.45.45 0 0 0-.627.082L1.763 31.055a.45.45 0 0 0 .083.628l21.437 16.53c.195.15.477.114.627-.082l11.509-15.02a.45.45 0 0 0-.082-.627L13.899 15.953z"/><path fill="#8F78FF" d="m3.91 24.398 11.081 8.526 3.502-4.57L7.412 19.83z"/><path fill="#6636CE" d="M14.392 30.576a1.95 1.95 0 0 0 1.678-2.184 1.946 1.946 0 1 0-3.859.502 1.946 1.946 0 0 0 2.18 1.682"/><path fill="#FFA840" d="M12.956 27.728a1.5 1.5 0 0 0 .276 2.103c.656.505 1.595.38 2.1-.277a1.5 1.5 0 0 0-.277-2.103 1.495 1.495 0 0 0-2.099.276"/><path fill="#FFC943" d="M13.279 27.975a1.094 1.094 0 0 0 .201 1.531 1.09 1.09 0 0 0 1.528-.201 1.094 1.094 0 0 0-.201-1.531 1.09 1.09 0 0 0-1.528.201"/><g clip-path="url(#n)"><path fill="url(#o)" d="M32.505 8.888c.23-4.446-3.18-8.238-7.617-8.47-4.438-.23-8.222 3.187-8.453 7.633-.23 4.447 3.18 8.239 7.617 8.47 4.438.231 8.222-3.186 8.453-7.633"/><path fill="url(#p)" d="M32.313 8.878c.225-4.34-3.104-8.042-7.435-8.267-4.332-.226-8.025 3.11-8.25 7.45-.226 4.34 3.103 8.041 7.434 8.267 4.332.226 8.026-3.11 8.25-7.45"/><path fill="url(#q)" d="M31.352 8.83a6.87 6.87 0 0 1-2.269 4.771 6.84 6.84 0 0 1-4.971 1.766 6.84 6.84 0 0 1-4.762-2.273 6.87 6.87 0 0 1-1.763-4.982 6.87 6.87 0 0 1 2.269-4.771 6.84 6.84 0 0 1 4.971-1.766 6.84 6.84 0 0 1 4.762 2.273 6.87 6.87 0 0 1 1.763 4.982"/><path fill="url(#r)" d="M20.097 3.133a6.86 6.86 0 0 0-2.038 4.554 6.87 6.87 0 0 0 1.762 4.981 6.84 6.84 0 0 0 4.762 2.274c1.733.09 3.4-.462 4.731-1.56a6.838 6.838 0 0 1-5.202 1.985 6.84 6.84 0 0 1-4.762-2.273 6.87 6.87 0 0 1-1.763-4.982 6.87 6.87 0 0 1 2.51-4.979"/><path fill="url(#s)" d="M24.888.42c4.437.232 7.848 4.024 7.617 8.47-.218 4.2-3.604 7.48-7.718 7.638l.092-.197a7.863 7.863 0 0 0 7.434-7.45c.225-4.34-3.104-8.042-7.435-8.268-3.485-.181-6.557 1.942-7.742 5.04l-.215.025C18.108 2.454 21.282.233 24.888.42" opacity=".4"/><path fill="url(#t)" d="M20.098 3.131a6.9 6.9 0 0 0-1.596 2.446q-.15 0-.294.002a6.9 6.9 0 0 1 1.89-2.448" style="mix-blend-mode:saturation"/><path fill="url(#u)" d="M24.704.703c4.331.225 7.66 3.927 7.435 8.267a7.863 7.863 0 0 1-7.434 7.45 9 9 0 0 0 .37-.996 6.83 6.83 0 0 0 4.064-1.95h.002a6.86 6.86 0 0 0 2.038-4.554 6.87 6.87 0 0 0-1.763-4.982 6.84 6.84 0 0 0-4.762-2.273 6.83 6.83 0 0 0-4.73 1.559l-.002.001-.06.05q-.09.076-.18.156a6.9 6.9 0 0 0-1.65 2.242c-.412.01-.776.037-1.07.07C18.147 2.644 21.22.52 24.704.702" opacity=".3"/><path fill="url(#v)" d="M24.829 1.571a6.84 6.84 0 0 1 4.761 2.273 6.87 6.87 0 0 1 1.763 4.982 6.86 6.86 0 0 1-2.038 4.553l-.001.002a6.82 6.82 0 0 1-3.953 1.555c.245-.934.416-2.12.395-3.594-.085-1.212-.598-3.761-3.332-4.97-1.322-.627-2.773-.793-3.923-.795a6.9 6.9 0 0 1 1.595-2.445l.002-.002a6.83 6.83 0 0 1 4.73-1.559" opacity=".6"/><g clip-path="url(#w)"><path fill="#fff" d="m22.965 8.235-.736.41c.27.526.7.906 1.19 1.093.246.093.507.138.771.124.264-.013.53-.086.774-.223l1.179-.659.816-.456.875-.488c.245-.137.45-.327.607-.549.236-.332.365-.732.385-1.145a2.45 2.45 0 0 0-.269-1.24 2.26 2.26 0 0 0-1.193-1.097 1.9 1.9 0 0 0-.772-.124 1.8 1.8 0 0 0-.773.223l-2.87 1.603c-.245.137-.45.327-.607.549a2.17 2.17 0 0 0-.386 1.145q-.01.21.017.421l.817-.456q.009-.096.03-.187.057-.242.189-.426a1 1 0 0 1 .325-.295l2.87-1.603a.94.94 0 0 1 .415-.12c.217-.01.45.05.663.183.213.132.404.333.54.596.178.35.215.729.14 1.05a1.2 1.2 0 0 1-.188.426 1 1 0 0 1-.325.295l-.745.416-.736.411-1.389.776a.94.94 0 0 1-.415.119 1.15 1.15 0 0 1-.663-.182 1.5 1.5 0 0 1-.536-.59"/><g filter="url(#x)"><path fill="#fff" d="m25.97 8.11.735-.411a2.26 2.26 0 0 0-1.19-1.092 1.9 1.9 0 0 0-.771-.125 1.8 1.8 0 0 0-.774.224l-1.178.658-.817.456-.874.489c-.246.137-.451.327-.608.548a2.16 2.16 0 0 0-.385 1.146c-.021.413.066.842.269 1.239.271.528.702.91 1.194 1.097.245.094.507.138.77.125.264-.014.53-.087.774-.224l2.87-1.603c.245-.137.45-.327.607-.549.236-.332.365-.732.386-1.145q.01-.21-.017-.42l-.817.455a1.4 1.4 0 0 1-.03.187q-.057.242-.188.427a1 1 0 0 1-.325.294l-2.87 1.603a.94.94 0 0 1-.416.12c-.217.011-.45-.05-.663-.182a1.5 1.5 0 0 1-.539-.597 1.55 1.55 0 0 1-.141-1.05 1.2 1.2 0 0 1 .188-.426 1 1 0 0 1 .325-.295l.745-.416.736-.41 1.389-.776a.94.94 0 0 1 .415-.12c.217-.011.45.05.663.182.212.131.402.33.537.59"/></g></g><path fill="url(#y)" d="m29.137 13.476-.055.053q-.085.084-.174.164a6.83 6.83 0 0 1-3.835 1.732q.058-.188.112-.395a6.82 6.82 0 0 0 3.952-1.554" style="mix-blend-mode:saturation"/></g></g><defs><linearGradient id="c" x1="22.704" x2="36.359" y1="24.102" y2="15.996" gradientUnits="userSpaceOnUse"><stop stop-color="gold"/><stop offset="1" stop-color="#E68D35"/></linearGradient><linearGradient id="d" x1="22.896" x2="36.225" y1="24.111" y2="16.2" gradientUnits="userSpaceOnUse"><stop stop-color="#EFCB0A"/><stop offset="1" stop-color="#AF661D"/></linearGradient><linearGradient id="e" x1="23.856" x2="35.553" y1="24.163" y2="17.22" gradientUnits="userSpaceOnUse"><stop stop-color="gold"/><stop offset="1" stop-color="#E68D35"/></linearGradient><linearGradient id="f" x1="23.809" x2="33.979" y1="25.063" y2="19.026" gradientUnits="userSpaceOnUse"><stop stop-color="gold"/><stop offset="1" stop-color="#E68D35"/></linearGradient><linearGradient id="g" x1="23.066" x2="36.574" y1="24.106" y2="16.261" gradientUnits="userSpaceOnUse"><stop stop-color="gold"/><stop offset="1" stop-color="#E68D35"/></linearGradient><linearGradient id="h" x1="24.542" x2="26.301" y1="20.36" y2="19.656" gradientUnits="userSpaceOnUse"><stop stop-color="gold"/><stop offset="1" stop-color="#E68D35"/></linearGradient><linearGradient id="i" x1="23.106" x2="36.275" y1="24.203" y2="16.565" gradientUnits="userSpaceOnUse"><stop stop-color="gold"/><stop offset="1" stop-color="#E68D35"/></linearGradient><linearGradient id="j" x1="24.649" x2="35.823" y1="23.954" y2="17.472" gradientUnits="userSpaceOnUse"><stop stop-color="#EBC704"/><stop offset="1" stop-color="#D17315"/></linearGradient><linearGradient id="m" x1="31.398" x2="33.394" y1="30.398" y2="28.2" gradientUnits="userSpaceOnUse"><stop stop-color="gold"/><stop offset="1" stop-color="#E68D35"/></linearGradient><linearGradient id="o" x1="16.435" x2="30.091" y1="8.051" y2="-.055" gradientUnits="userSpaceOnUse"><stop stop-color="gold"/><stop offset="1" stop-color="#E68D35"/></linearGradient><linearGradient id="p" x1="16.627" x2="29.957" y1="8.061" y2=".149" gradientUnits="userSpaceOnUse"><stop stop-color="#EFCB0A"/><stop offset="1" stop-color="#AF661D"/></linearGradient><linearGradient id="q" x1="17.587" x2="29.284" y1="8.112" y2="1.169" gradientUnits="userSpaceOnUse"><stop stop-color="gold"/><stop offset="1" stop-color="#E68D35"/></linearGradient><linearGradient id="r" x1="17.541" x2="27.711" y1="9.013" y2="2.976" gradientUnits="userSpaceOnUse"><stop stop-color="gold"/><stop offset="1" stop-color="#E68D35"/></linearGradient><linearGradient id="s" x1="16.798" x2="30.305" y1="8.056" y2=".21" gradientUnits="userSpaceOnUse"><stop stop-color="gold"/><stop offset="1" stop-color="#E68D35"/></linearGradient><linearGradient id="t" x1="18.274" x2="20.033" y1="4.31" y2="3.605" gradientUnits="userSpaceOnUse"><stop stop-color="gold"/><stop offset="1" stop-color="#E68D35"/></linearGradient><linearGradient id="u" x1="16.837" x2="30.006" y1="8.152" y2=".514" gradientUnits="userSpaceOnUse"><stop stop-color="gold"/><stop offset="1" stop-color="#E68D35"/></linearGradient><linearGradient id="v" x1="18.38" x2="29.555" y1="7.904" y2="1.422" gradientUnits="userSpaceOnUse"><stop stop-color="#EBC704"/><stop offset="1" stop-color="#D17315"/></linearGradient><linearGradient id="y" x1="25.129" x2="27.125" y1="14.348" y2="12.149" gradientUnits="userSpaceOnUse"><stop stop-color="gold"/><stop offset="1" stop-color="#E68D35"/></linearGradient><clipPath id="a"><path fill="#fff" d="M0 0h39v50H0z"/></clipPath><clipPath id="b"><path fill="#fff" d="m22.286 32.153.836-16.102 16.069.837-.836 16.102z"/></clipPath><clipPath id="k"><path fill="#fff" d="m25.786 27.773 2.795-9.256 7.105 2.155-2.795 9.255z"/></clipPath><clipPath id="n"><path fill="#fff" d="M16.018 16.102 16.853 0l16.07.837-.836 16.102z"/></clipPath><clipPath id="w"><path fill="#fff" d="m19.518 11.722 2.795-9.256 7.105 2.155-2.796 9.256z"/></clipPath><filter id="l" width="7.876" height="6.986" x="26.373" y="22.53" color-interpolation-filters="sRGB" filterUnits="userSpaceOnUse"><feFlood flood-opacity="0" result="BackgroundImageFix"/><feColorMatrix in="SourceAlpha" result="hardAlpha" values="0 0 0 0 0 0 0 0 0 0 0 0 0 0 0 0 0 0 127 0"/><feOffset dx=".5" dy=".5"/><feGaussianBlur stdDeviation=".25"/><feComposite in2="hardAlpha" operator="out"/><feColorMatrix values="0 0 0 0 0 0 0 0 0 0 0 0 0 0 0 0 0 0 0.1 0"/><feBlend in2="BackgroundImageFix" result="effect1_dropShadow_1178_80752"/><feBlend in="SourceGraphic" in2="effect1_dropShadow_1178_80752" result="shape"/></filter><filter id="x" width="7.876" height="6.986" x="20.105" y="6.48" color-interpolation-filters="sRGB" filterUnits="userSpaceOnUse"><feFlood flood-opacity="0" result="BackgroundImageFix"/><feColorMatrix in="SourceAlpha" result="hardAlpha" values="0 0 0 0 0 0 0 0 0 0 0 0 0 0 0 0 0 0 127 0"/><feOffset dx=".5" dy=".5"/><feGaussianBlur stdDeviation=".25"/><feComposite in2="hardAlpha" operator="out"/><feColorMatrix values="0 0 0 0 0 0 0 0 0 0 0 0 0 0 0 0 0 0 0.1 0"/><feBlend in2="BackgroundImageFix" result="effect1_dropShadow_1178_80752"/><feBlend in="SourceGraphic" in2="effect1_dropShadow_1178_80752" result="shape"/></filter></defs></svg>