<svg xmlns="http://www.w3.org/2000/svg" width="72" height="62" fill="none"><path fill="#455A64" d="M27.044 17.834v4.388H25.46v-4.388c0-2.13-1.617-3.863-3.608-3.863-1.99 0-3.609 1.733-3.609 3.863v4.388H16.66v-4.388c0-3.051 2.329-5.532 5.192-5.532s5.192 2.48 5.192 5.532"/><path fill="#263238" d="m16.66 18.076 1.583.064v4.082H16.66zM27.044 18.5v3.722h-1.583v-3.788z"/><path fill="#EA3934" d="M29.072 18.93H14.631v13.102h14.441z"/><path fill="#000" d="M29.072 18.93h-7.22v13.102h7.22z" opacity=".1"/><path fill="#263238" d="m22.462 25.961.605 2.868H20.5l.604-2.868a1.28 1.28 0 0 1 .678-2.366 1.28 1.28 0 0 1 .679 2.366"/><g fill="#EA3934" opacity=".1"><path d="m21.895.674.553 1.314 1.42.12-1.078.932.325 1.388-1.22-.738-1.22.738L21 3.04l-1.08-.932 1.422-.12zM10.963 3.58l1.136.86 1.29-.606-.468 1.347.976 1.04-1.426-.03-.687 1.25-.413-1.365-1.4-.268 1.17-.814zM2.95 11.562l1.414.178.814-1.17.268 1.4 1.365.412-1.25.688.03 1.425-1.04-.975-1.347.468.607-1.29zM0 22.482l1.314-.553.12-1.421.932 1.079 1.388-.325-.738 1.22.738 1.22-1.388-.326-.932 1.08-.12-1.421zM2.905 33.413l.862-1.136-.607-1.29 1.347.468 1.04-.975-.03 1.425 1.25.688-1.365.412-.268 1.4-.814-1.17zM10.888 41.427l.178-1.414-1.17-.814 1.4-.268.413-1.365.687 1.25 1.426-.03-.976 1.04.469 1.346-1.291-.606zM21.808 44.377l-.553-1.315-1.421-.12 1.08-.931-.326-1.389 1.22.739 1.22-.739-.325 1.389 1.079.932-1.421.12zM32.74 41.47l-1.137-.86-1.29.606.468-1.347-.975-1.04 1.425.03.688-1.25.412 1.365 1.4.268-1.17.814zM40.754 33.489l-1.415-.178-.814 1.17-.268-1.4-1.364-.413 1.249-.688-.03-1.425 1.04.976 1.347-.469-.607 1.29zM43.703 22.569l-1.314.553-.12 1.42-.932-1.078-1.389.325.738-1.22-.738-1.22 1.389.325.932-1.079.12 1.42zM40.797 11.637l-.861 1.136.606 1.29-1.347-.468-1.04.976.03-1.426-1.25-.687 1.365-.413.268-1.4.814 1.17zM32.815 3.623l-.177 1.415 1.17.814-1.4.268-.413 1.365-.688-1.25-1.425.03.975-1.04-.468-1.347 1.29.607z"/></g><path fill="#263238" d="M44.883 13.78c2.934 1.316 4.735 6.695 2.666 11.598-1.882 4.46-7.098 6.891-10.163 5.796-3.253-1.161-4.255-4.746-2.79-6.9 1.415-2.08 3.756-2.707 4.382-4.605.3-.909-.03-2.494.355-3.855.43-1.52 3.192-3.09 5.55-2.033"/><path fill="#263238" d="M40.67 31.48c1.614-.309 3.124-1.096 4.384-2.157 1.261-1.07 2.233-2.462 2.884-3.977.65-1.516.953-3.204.733-4.848a9.2 9.2 0 0 0-1.918-4.487c.953 1.33 1.59 2.889 1.769 4.505a9 9 0 0 1-.07 2.426c-.133.8-.37 1.582-.696 2.326a11.8 11.8 0 0 1-1.181 2.126 10.4 10.4 0 0 1-1.625 1.809 10.3 10.3 0 0 1-2.001 1.39 9.4 9.4 0 0 1-2.278.887M34.092 24.863c.19-.471.476-.896.8-1.281a6.4 6.4 0 0 1 1.104-1.024q.619-.445 1.21-.933c.393-.328.772-.684 1.081-1.1.152-.21.3-.418.417-.66.115-.238.183-.494.23-.75.092-.511.097-1.023.125-1.527.029-.504.09-1.006.244-1.485.146-.482.394-.93.705-1.332a4 4 0 0 0-.795 1.301c-.178.484-.256.997-.303 1.505-.05.508-.06 1.017-.153 1.506a2.8 2.8 0 0 1-.223.7 4 4 0 0 1-.405.622c-.598.803-1.435 1.398-2.225 2.031-.404.317-.771.682-1.088 1.085-.303.41-.576.854-.724 1.342"/><path fill="#EB9481" d="M66.04 60.786c-.151-.589-9.44-14.749-10.12-15.055-.077-.04-4.853 2.897-4.853 2.897-.205.238-8.746-2.176-8.746-2.176l-.79 10.446 15.805.728s2.047 1.397 3.928 2.549q.005.002.007.001c1.157.713 2.184 1.318 2.481 1.417.776.256 2.443-.222 2.288-.807"/><path fill="#fff" d="M63.752 61.593c-.299-.098-1.324-.703-2.48-1.417q-.005.002-.008 0c-1.88-1.153-3.928-2.55-3.928-2.55l-3.518-.162-4.901-9.244c1.193.295 2.084.484 2.15.407 0 0 4.775-2.936 4.853-2.896.679.306 9.967 14.466 10.12 15.054.154.587-1.512 1.065-2.288.808"/><path fill="#EA3934" d="M66.132 60.81c-.161-.604-9.497-14.759-10.194-15.074-.264-.12-2.586 1.107-4.872 2.892l6.03 9.119s5.885 3.643 6.686 3.907c.8.26 2.51-.24 2.35-.844"/><path fill="#263238" d="M65.432 60.98c-1.623-2.334-7.95-11.903-9.377-14.334-.011-.02.002-.028.015-.01 1.66 2.28 7.908 11.899 9.401 14.319.032.05-.005.075-.039.025M62.673 61.08a2.28 2.28 0 0 1-.357-1.802c.128-.508.414-1.058.917-1.366.015-.01.032.017.019.028-.84.748-1.098 2.13-.55 3.12.012.02-.015.038-.03.02M57.826 58.334c-.64-.941-1.031-2.263-.644-3.366.016-.042.076-.02.08.017a15.7 15.7 0 0 0 .691 3.288c.026.078-.082.128-.128.061M58.595 58.879c-.64-.941-1.03-2.263-.643-3.366.015-.042.076-.02.08.017a15.7 15.7 0 0 0 .69 3.288c.026.078-.081.128-.127.061M59.365 59.424c-.64-.941-1.031-2.264-.644-3.366.016-.043.076-.02.08.017.124 1.15.332 2.184.691 3.288.026.078-.082.128-.127.06M60.134 59.968c-.64-.94-1.03-2.263-.643-3.365.015-.043.075-.021.08.017.123 1.15.331 2.184.69 3.288.026.078-.081.128-.127.06M54.2 48.737c-.7-1.068.958-2.157 1.66-1.087.699 1.067-.96 2.157-1.66 1.087"/><path fill="#263238" d="M57.31 60.038c.323-.948.225-2.004.246-2.988.003-.103-.107-.145-.189-.12-.01-.017-.027-.027-.047-.013-.783.594-1.505 1.543-1.859 2.465-.219.57-.209 1.432.507 1.65.677.206 1.153-.44 1.342-.994m-.758.563c-1.096.587-.916-.868-.739-1.282.114-.266.263-.522.412-.77.313-.517.693-.98 1.054-1.462-.04.483-.039.965-.061 1.449-.027.576-.062 1.741-.666 2.065"/><path fill="#263238" d="M54.49 53.944c-.57.484-.238 1.28.188 1.716.69.707 1.729 1.293 2.683 1.527.024.006.037-.01.039-.029.084-.01.168-.092.126-.185-.41-.896-.737-1.904-1.41-2.647-.392-.434-1.085-.839-1.626-.382m2.137 1.798c.212.436.402.879.63 1.306-.523-.299-1.056-.574-1.548-.926a6 6 0 0 1-.683-.544c-.326-.309-1.067-1.574.171-1.47.683.059 1.177 1.115 1.43 1.634"/><path fill="#455A64" d="M44.963 44.237s-13.274-6.119-19.202-6.062c-7.053.068-12.554 8.427-3.921 14.484 7.63 5.353 31.725 5.02 31.725 5.02l-5.607-10.125s-6.648-2.595-15.364-2.888l12.156 2.499z"/><path fill="#263238" d="M44.713 46.252c-1.041-.267-2.103-.448-3.16-.641a110 110 0 0 0-3.208-.531 64 64 0 0 0-6.45-.668q-.305-.014-.608-.022c-.042-.018-.087-.028-.13-.042q-.154-.049-.307-.092c-.192-.05-.386-.092-.58-.135-.404-.09-.81-.16-1.211-.264-.025-.007-.037.03-.012.037.402.118.795.263 1.198.38l.348.099a63 63 0 0 0-2.381.014c-.025 0-.029.039-.003.04 1.079.008 2.161.074 3.236.164 1.067.09 2.133.186 3.195.319 2.15.269 4.292.607 6.426.977 1.197.207 2.396.438 3.604.57.117.014.16-.175.043-.205M51.116 57.215c-.344-.644-.629-1.325-.939-1.986l-.936-1.986c-.623-1.32-2.88-5.772-3.112-6.089-.015-.02-.049 0-.042.022.097.34 1.495 3.28 1.819 3.937.646 1.313 1.331 2.604 2.005 3.903.192.37.392.737.588 1.107.195.368.405.732.582 1.11.01.023.047.004.035-.018"/><path fill="#EB9481" d="M19.73 60.646c.175-.583 10.017-14.364 10.708-14.643.079-.036 4.735 3.087 4.735 3.087.195.246 8.825-1.829 8.825-1.829l.377 10.47-15.822.101s-2.102 1.315-4.027 2.392q-.004.002-.006.002c-1.185.666-2.235 1.23-2.536 1.317-.785.225-2.432-.318-2.254-.897"/><path fill="#fff" d="M21.984 61.543c.302-.086 1.35-.65 2.535-1.318.002.003.005 0 .007 0a111 111 0 0 0 4.026-2.393l3.521-.022 5.264-9.043c-1.204.248-2.102.401-2.165.322 0 0-4.654-3.123-4.734-3.085-.69.278-10.532 14.059-10.708 14.641-.178.58 1.468 1.124 2.254.898"/><path fill="#EA3934" d="M19.637 60.666c.184-.596 10.073-14.37 10.782-14.658.268-.11 2.54 1.208 4.754 3.082l-6.386 8.873s-6.024 3.408-6.835 3.64c-.81.228-2.5-.34-2.315-.937"/><path fill="#263238" d="M20.33 60.864c1.714-2.268 8.414-11.579 9.937-13.951.012-.02 0-.029-.015-.01-1.748 2.21-8.373 11.575-9.96 13.934-.034.05.002.075.038.027M23.083 61.072c.415-.532.54-1.254.428-1.786-.108-.512-.372-1.074-.863-1.401-.014-.01-.032.016-.02.028.81.78 1.013 2.172.426 3.138-.012.02.014.04.029.021M28.035 58.522c.677-.916 1.12-2.221.776-3.338-.013-.043-.075-.024-.08.014a15.7 15.7 0 0 1-.82 3.258c-.03.076.076.13.124.066M27.245 59.035c.677-.915 1.12-2.22.776-3.338-.013-.043-.075-.024-.08.014a15.7 15.7 0 0 1-.821 3.258c-.028.077.077.132.125.066M26.454 59.549c.677-.915 1.12-2.22.776-3.338-.013-.043-.075-.023-.08.014a15.7 15.7 0 0 1-.821 3.258c-.028.077.077.132.125.066M25.664 60.063c.676-.915 1.12-2.22.776-3.338-.013-.043-.075-.023-.08.014a15.7 15.7 0 0 1-.821 3.258c-.028.077.077.131.125.066M32.038 49.075c.74-1.039-.873-2.193-1.615-1.152-.742 1.04.872 2.193 1.615 1.152"/><path fill="#263238" d="M29.784 61.29c.724-.189.768-1.05.572-1.628-.317-.935-1.001-1.913-1.76-2.536-.02-.016-.038-.006-.048.01-.08-.028-.192.01-.194.112-.017.985-.157 2.036.128 2.996.167.561.617 1.225 1.302 1.046m-1.15-2.544c-.004-.484.017-.966-.004-1.45.342.495.704.974.995 1.504.14.253.278.515.381.785.162.42.283 1.881-.789 1.252-.59-.348-.58-1.513-.583-2.09"/><path fill="#263238" d="M29.902 54.584c-.7.715-1.068 1.71-1.513 2.589-.046.09.035.177.12.19 0 .019.012.035.036.03.963-.196 2.024-.74 2.742-1.42.443-.419.806-1.2.255-1.706-.522-.478-1.23-.102-1.64.316m.927-.18c1.241-.057.451 1.179.113 1.475-.218.19-.463.357-.704.516-.506.332-1.049.586-1.583.864.245-.418.452-.854.681-1.28.274-.51.808-1.545 1.493-1.576"/><path fill="#455A64" d="M44.387 44.037s13.384-4.088 20.536-3.264c7.007.807 9.917 9.578 3.107 14.365-7.437 5.227-35.521 3.522-35.521 3.522l5.952-10.758s9.552-2.288 18.272-2.236l-12.246 2.016z"/><path fill="#263238" d="M38.064 48.597c.008-.014.009-.04.012-.055l.01-.044q.01-.053.024-.103.028-.107.067-.21.037-.103.082-.204c.03-.07.072-.126.112-.19q.007-.008.016-.012l.011-.008q.008-.005.015-.007.008-.004.016-.007c1.051-.226 8.202-1.452 9.266-1.603 1.073-.153 2.15-.283 3.226-.403 2.148-.24 4.31-.39 6.473-.413q.304-.002.607.002c.043-.016.089-.024.132-.036q.154-.044.31-.08.292-.061.585-.112c.407-.074.816-.129 1.22-.216.025-.005.036.032.011.038-.406.102-.805.232-1.212.332q-.175.044-.352.085 1.19.032 2.379.109c.025.001.027.04 0 .039a43 43 0 0 0-3.238.037c-1.07.047-2.139.1-3.206.191-2.158.184-4.313.438-6.46.723-1.204.16-8.494 1.43-9.707 1.515l-.014-.002q-.014.042-.032.084a5 5 0 0 1-.097.198q-.048.095-.103.186l-.057.09-.029.044c-.008.013-.026.032-.03.047-.008.027-.05.01-.037-.015"/><path fill="#263238" d="M34.744 57.955c.37-.63.68-1.299 1.017-1.947q.505-.975 1.014-1.948c.675-1.294 3.107-5.654 3.35-5.96.016-.02.049 0 .041.023-.11.335-1.624 3.219-1.973 3.862-.698 1.286-1.433 2.549-2.158 3.82-.207.363-.421.721-.631 1.083-.21.36-.434.716-.626 1.086-.012.023-.047.003-.034-.02"/><path fill="#EB9481" d="M41.055 24.835c-5.882 3.171-11.392 7.002-12.397 9.62-.633 1.648.092 4.075.781 5.85.336.865 8.03-1.782 7.577-2.664-1.091-2.131-1.47-2.992-1.47-2.992.112-.232 6.514-5.964 8.296-8.531 2.482-3.577-.213-2.67-2.787-1.283"/><path fill="#263238" d="M34.71 33.363c.249.17.439.401.598.65.155.25.279.526.313.826-.178-.242-.323-.482-.478-.723-.15-.243-.302-.484-.433-.753"/><path fill="#EA3934" d="m32.562 29.582 4.405 4.19s5.632-5.142 7.243-7.92c1.61-2.779.383-3.015-2.89-1.397s-8.758 5.127-8.758 5.127"/><path fill="#EA3934" d="m32.562 29.582 4.405 4.19s5.632-5.142 7.243-7.92c1.61-2.779.383-3.015-2.89-1.397s-8.758 5.127-8.758 5.127"/><path fill="#263238" d="M37.853 32.647c-2.03-1.673-3.536-3.42-3.888-3.757-.017-.016.012-.04.028-.023.328.347 2.366 2.161 3.89 3.754.018.018-.01.042-.03.026"/><path fill="#000" d="M44.21 25.85c-1.61 2.78-7.241 7.924-7.241 7.924l-1.527-1.451 9.377-8.65c.232.336.047 1.045-.61 2.178" opacity=".1"/><path fill="#EB9481" d="m39.292 33.034-1.209 7.048s5.478 3.146 14.702.31c0 0-1.578-11.434-5.093-15.385-1.758-1.977-3.864-1.868-5.228-.531-.346.338-3.192 3.82-3.654 5.857-.403 1.797.482 2.7.482 2.7"/><path fill="#EA3934" d="m39.292 33.034-.8 2.904 4.129-1.256 9.66 1.256s-1.074-6.98-4.589-10.931c-1.758-1.977-3.864-1.868-5.228-.531-.346.338-3.192 3.82-3.654 5.857-.403 1.797.482 2.7.482 2.7"/><path fill="#263238" d="M41.619 32.781c.63.002 1.266.025 1.89.12.31.048.617.11.924.177q.23.05.46.091c.158.029.327.053.488.043.015-.002.016.02.002.022-.156.02-.305.038-.462.037-.15 0-.3-.017-.449-.039-.315-.045-.629-.104-.944-.152a27 27 0 0 0-1.912-.246c-.03-.003-.027-.053.002-.053M40.125 33.49a14 14 0 0 1 1.547-.229c.26-.023.519-.03.78-.031q.188 0 .374.005c.137.003.274.026.41.027.015 0 .017.023.003.023-.13.002-.259.026-.388.035l-.389.029q-.389.032-.778.059a44 44 0 0 0-1.555.126c-.028.002-.03-.038-.004-.043"/><path fill="#EA3934" d="M42.236 35.048s-.529 1.37-1.75 1.744c0 0-.181-1.246.181-1.736.18-.243 1.143-.51 1.288-.37.144.142.281.362.281.362"/><path fill="#EA3934" d="M42.236 35.048s-.529 1.37-1.75 1.744c0 0-.181-1.246.181-1.736.18-.243 1.143-.51 1.288-.37.144.142.281.362.281.362"/><path fill="#263238" d="M42.237 35.048a3.4 3.4 0 0 1-.66 1.091 2.43 2.43 0 0 1-1.072.711l-.07.024-.01-.073a4.6 4.6 0 0 1-.04-.917c.025-.302.057-.625.266-.892.126-.12.272-.17.415-.227q.218-.077.444-.12.114-.021.23-.024c.075.001.162-.005.233.056.105.112.189.24.264.37m0 0a2.4 2.4 0 0 0-.292-.343c-.049-.038-.13-.034-.202-.027a2 2 0 0 0-.219.037q-.218.05-.424.136c-.134.057-.277.124-.368.217-.166.216-.207.533-.222.823a6 6 0 0 0 .036.892l-.078-.05a2.3 2.3 0 0 0 .56-.261c.172-.116.34-.24.485-.393.292-.3.538-.65.724-1.031"/><path fill="#050400" d="M42.237 35.047s-.138-.218-.281-.359a.1.1 0 0 0-.023-.015.1.1 0 0 0-.032-.014c-.008 0-.016-.004-.026-.004-.12-.023-.33.01-.546.072.058.16.145.367.234.512.077.125.26.211.436.27.164-.265.238-.462.238-.462" opacity=".1"/><path fill="#EA3934" d="M42.37 35.093s.965 1.506 1.815 1.89c0 0 .384-.957-.03-1.772-.187-.365-1.495-.759-1.61-.574s-.176.456-.176.456"/><path fill="#EA3934" d="M42.37 35.093s.965 1.506 1.815 1.89c0 0 .384-.957-.03-1.772-.187-.365-1.495-.759-1.61-.574s-.176.456-.176.456"/><path fill="#263238" d="M42.37 35.093q.387.538.834 1.022.223.243.472.455c.166.14.341.27.534.358l-.08.033c.11-.31.158-.651.152-.981a2 2 0 0 0-.08-.489 2 2 0 0 0-.089-.23.44.44 0 0 0-.148-.172c-.263-.193-.588-.32-.91-.41a3 3 0 0 0-.247-.053c-.08-.01-.173-.023-.236.01a1.5 1.5 0 0 0-.203.457m0 0c.038-.168.076-.332.179-.488.088-.053.179-.04.265-.037.087.006.172.022.257.04.335.081.668.187.962.392.07.053.146.12.184.21.038.08.074.16.099.245q.079.255.092.519c.015.352-.046.699-.167 1.03l-.022.06-.058-.027a2.5 2.5 0 0 1-.557-.384 5 5 0 0 1-.463-.482 8 8 0 0 1-.772-1.078"/><path fill="#050400" d="M42.6 35.427c.144-.085.331-.227.417-.411a.9.9 0 0 0 .064-.366c-.269-.068-.49-.083-.536-.012a1.8 1.8 0 0 0-.176.455s.086.135.23.334" opacity=".1"/><path fill="#EA3934" d="M42.809 34.689a.582.582 0 1 0-1.147.198.582.582 0 0 0 1.147-.198"/><path fill="#263238" d="M42.81 34.689a.56.56 0 0 0-.244-.369.551.551 0 0 0-.839.555.552.552 0 0 0 .977.242.56.56 0 0 0 .105-.428m0 0c.058.3-.147.636-.47.703a.62.62 0 0 1-.471-.084.62.62 0 0 1-.153-.888.62.62 0 0 1 .416-.237.617.617 0 0 1 .677.506M42.048 36.851c.24.09.39.336.468.575.037.124.056.256.056.38.003.127 0 .256-.033.387a.6.6 0 0 1-.087.198.28.28 0 0 1-.22.128.26.26 0 0 1-.231-.116.45.45 0 0 1-.068-.207 1 1 0 0 1 .042-.384c.042-.118.095-.24.194-.318a.76.76 0 0 0-.104.337c-.013.116-.01.235.014.34.052.246.23.208.272-.024.043-.212.044-.461.005-.68a1.4 1.4 0 0 0-.103-.33.74.74 0 0 0-.205-.286"/><path fill="#EB9481" d="M48.584 24.876c7.388 5.379 13.821 12.901 13.252 15.322-.603 2.56-5.61 5.492-10.06 6.142-.91.133-3.838-6.521-2.907-6.843.725-.251 4.025-1.244 4.414-1.704.27-.32-4.983-7.477-6.714-11.23-1.812-3.926.036-3.127 2.015-1.687"/><path fill="#EB9481" d="M50.748 39.265s-2.783.323-4.593.62c-1.01.165-2.716.603-3.402 1.064-1.027.69-4.88 4.229-4.042 5.182.759.862 1.863-.538 1.863-.538s-1.35 1.417-.335 2.041c1.025.63 2.285-1.334 2.285-1.334s-1.538 1.405-.39 1.968c.995.488 2.693-1.615 2.693-1.615s-1.776 1.297-.805 1.897c1.073.664 4.014-2.17 4.014-2.17 2.39.23 3.857.045 5.531-.453.307-.09-2.819-6.662-2.819-6.662"/><path fill="#263238" d="M42.111 46.773q.16-.223.32-.447c.209-.294.414-.579.655-.846q.352-.387.73-.746c.265-.255.559-.483.818-.743.021-.02.05.01.028.03-.265.242-.495.535-.731.806q-.35.403-.695.813c-.225.266-.466.514-.698.773q-.172.196-.336.397c-.103.126-.199.27-.322.377-.013.01-.029-.006-.023-.02.06-.142.166-.268.254-.394M40.298 45.894c.13-.282.953-1.34 1.18-1.599a10 10 0 0 1 1.45-1.363c.018-.014.043.012.028.03-.436.502-.88.999-1.323 1.495-.217.243-1.167 1.375-1.281 1.48-.028.026-.068-.013-.054-.043M43.794 47.644c.136-.263.917-1.248 1.136-1.483.206-.22 1.165-1.025 1.479-1.21.02-.013.045.013.028.029-.46.44-.927.87-1.366 1.33-.213.225-1.014 1.17-1.237 1.367-.02.017-.052-.01-.04-.033"/><path fill="#EA3934" d="m56.81 31.52-5.508 3.691s-4.224-6.326-5.341-9.337c-1.118-3.011.132-3.037 3.084-.889 2.952 2.149 7.765 6.535 7.765 6.535"/><path fill="#263238" d="M55.534 30.742c-2.096 1.72-4.173 2.905-4.584 3.195-.02.014-.039-.019-.019-.032.418-.264 2.662-1.966 4.582-3.199.022-.014.041.02.02.036"/><path fill="#263238" d="M51.655 34.96c-.038.005-.284.149-.335.18-.635-1.058-.516-.814-1.16-1.865q-.475-.773-.948-1.547c-.328-.537-.628-1.099-.984-1.617-.01-.015-.032-.002-.024.015.222.515.509 1.008.782 1.5-.058-.075-.114-.152-.176-.224a8 8 0 0 1-.403-.495c-.02-.026-.064 0-.044.026.12.164.229.334.337.507a9 9 0 0 0 .712.961l.047.056c.174.307.344.617.526.921.635 1.064 1.27 1.89 1.29 1.884.074-.026.368-.248.398-.273.015-.013-.003-.033-.018-.03M52.431 38.26q-.876.35-1.76.677-.883.333-1.773.644l-.01.004h-.01c-.505.055-1.01.129-1.514.194q-.756.101-1.508.234c-.5.09-1 .18-1.494.302-.489.13-.988.255-1.424.524a3 3 0 0 1 .67-.372c.237-.1.48-.182.726-.258q.739-.212 1.491-.362a39 39 0 0 1 1.513-.256c.505-.078 1.013-.13 1.523-.183l-.02.005a79 79 0 0 1 1.79-.593 67 67 0 0 1 1.8-.56"/><path fill="#EB9481" d="M45.978 24.107c-.084.393-1.078 2.157-2.283 2.078-.619-.041-.561-2.213-.561-2.213l-.026-.161-.355-2.25 3.101-1.703s.148 4.136.124 4.249"/><path fill="#263238" d="M45.908 21.402c-.764 1.612-2.156 2.213-2.8 2.41l-.356-2.25 3.104-1.705s.025.707.052 1.545"/><path fill="#EB9481" d="M39.432 18.936c.28 3.986 2.7 4.268 3.56 4.207.78-.056 3.43-.345 3.562-4.34.133-3.994-1.809-5.123-3.6-5.09s-3.803 1.236-3.522 5.223"/><path fill="#263238" d="M40.313 18.422c.091-.026.17-.064.258-.099.098-.039.18-.06.243-.15.034-.05.017-.135-.027-.172-.103-.087-.236-.069-.356-.027a.52.52 0 0 0-.293.232c-.07.115.055.25.175.216M42.876 18.03c-.095.004-.182-.008-.276-.013-.106-.006-.19 0-.279-.067-.047-.035-.058-.122-.027-.171.07-.115.202-.14.33-.137.138.002.244.04.35.129.102.086.026.253-.098.26M42.511 19.11c.001-.01.023.01.024.022.029.27.108.576.364.631.008.002.01.016 0 .016-.303-.001-.404-.407-.388-.668"/><path fill="#263238" d="M42.713 18.796c.43-.093.584.771.186.858-.39.084-.545-.78-.186-.858"/><path fill="#263238" d="M42.891 18.811c.084.036.174.109.267.102.107-.009.17-.114.224-.213.005-.01.014-.004.016.007.032.166-.001.347-.174.403-.158.052-.3-.074-.372-.233-.013-.03.005-.08.04-.066M40.99 19.323c-.004-.01-.018.016-.016.027.058.266.079.58-.147.714-.007.004-.004.017.005.015.288-.096.255-.514.158-.756"/><path fill="#263238" d="M40.7 19.087c-.437.046-.312.916.093.873.398-.042.273-.912-.093-.873"/><path fill="#263238" d="M40.527 19.17c-.062.056-.118.15-.2.167-.094.02-.178-.064-.251-.146-.008-.008-.014 0-.012.012.019.167.099.332.263.34.15.01.236-.149.252-.32.003-.032-.027-.075-.052-.053M43.059 21.146c-.031.086-.052.193-.137.244-.082.048-.2.057-.294.065-.009 0-.013.012-.004.017a.37.37 0 0 0 .375-.016c.102-.073.11-.195.089-.31-.003-.016-.025-.012-.03 0M41.646 20.467s.03.41.07.597c.004.017.611.018.917-.513.012-.02-.018-.036-.033-.02-.208.234-.471.339-.764.407-.024-.05-.028-.703-.058-.699-.105.014-.291.126-.405.188-.088-.85-.038-1.708-.138-2.554-.004-.03-.048-.03-.051-.001-.116.895-.037 1.876.031 2.756.007.11.363-.113.431-.161"/><path fill="#263238" d="M41.968 20.989s.214.182.456.209c.089.01.18.001.267-.045.179-.095.143-.27.073-.412-.057-.116-.139-.21-.139-.21s-.217.326-.657.458"/><path fill="#FF9ABB" d="M42.423 21.198c.09.01.18.001.267-.045.18-.095.143-.27.074-.412-.2.069-.37.254-.34.457"/><path fill="#263238" d="M46.314 19.069c-.728.201-1.165-1.47-1.165-1.47s-3.237-.076-3.879-2.61c0 0-.303 1.719-1.85 2.701 0 0-.299-2.836 1.857-3.709 0 0 2.628-1.413 4.508.562s1.018 4.39.53 4.526"/><path fill="#EB9481" d="M45.942 19.154s.667-1.368 1.274-1.15c.608.22.243 2.108-.375 2.456s-.951-.218-.951-.218z"/><path fill="#263238" d="M47.098 18.544c.01-.003.015.011.006.017-.43.259-.605.724-.705 1.193.11-.192.282-.315.535-.188.014.007.005.027-.008.027-.195-.011-.326.043-.43.214-.073.121-.113.266-.158.4-.015.045-.093.034-.085-.016l.002-.01c-.104-.585.222-1.479.843-1.637"/><path fill="#fff" d="M46.743 20.326a.171.171 0 1 1-.34-.037.171.171 0 0 1 .34.037"/><path fill="#263238" d="M41.231 14.8c.015.4.131.794.312 1.155.181.36.433.692.747.952.073.07.163.12.245.182l.124.088q.066.038.134.073c.09.046.179.095.27.138q.142.053.285.104c.048.016.095.035.143.049l.147.034.293.066c.199.026.398.04.596.053-.193-.053-.388-.085-.577-.14l-.28-.089-.14-.044q-.066-.029-.133-.06a8 8 0 0 0-.266-.116c-.086-.045-.169-.096-.252-.144l-.126-.071-.117-.085c-.075-.06-.16-.108-.228-.176-.3-.242-.54-.55-.743-.88a3.5 3.5 0 0 1-.257-.525 3.4 3.4 0 0 1-.177-.563"/><path fill="#EB9481" d="M40.443 44.924c-.768.447-1.708-1.54-1.708-1.54s-.018.614-.442 1.024c-.485.469-1.434-.086-1.434-.086s-.147.617-.638 1.005c-.51.403-1.546-.021-1.546-.021s-.453.5-1.118.53c-1.136.053-2.125-1.377-2.763-2.279s-1.6-4.059-1.845-4.642l5.756-4.141s4.01 3.233 4.609 4.4c.505.983 2.302 5.068 1.129 5.75"/><path fill="#263238" d="M38.748 43.356c-.286-1.174-.852-2.277-1.41-3.336-.013-.024-.05-.004-.037.02.567 1.046.869 2.27 1.393 3.337.014.029.061.011.053-.02M36.922 44.25c-.073-.264-.232-.503-.37-.736q-.224-.377-.46-.747-.47-.739-.979-1.454c-.015-.021-.05-.003-.036.02a42 42 0 0 1 1.34 2.253c.132.237.252.498.434.701.028.03.082.002.071-.038M34.662 45.285c-.053-.232-.238-.45-.368-.645a72 72 0 0 1-1.296-2.016c-.014-.023-.05-.004-.037.02.277.465.548.933.83 1.396q.206.34.417.679c.12.191.247.445.433.581.01.008.024-.004.021-.015"/><path fill="#C7C7C7" d="M51.347 46.951H30.64v.93h20.707z"/><path fill="#A6A6A6" d="m46.76 46.951.17.929H30.64v-.929z"/><path fill="#C7C7C7" d="M46.03 47.88H28.449l-1.464-11.942h17.582z"/><path fill="#fff" d="M37.578 41.909c.01.59-.46 1.07-1.051 1.07s-1.079-.48-1.09-1.07c-.01-.591.461-1.07 1.052-1.07s1.079.479 1.09 1.07"/></svg>