<svg xmlns="http://www.w3.org/2000/svg" fill="none" viewBox="0 0 52 52">
    <path fill="#EA3934" d="M26.14 39.846c.137-.322.23-.644.23-1.012 0-1.15-.875-2.116-1.979-2.3-.138-2.99-1.38-4.554-2.254-5.704-.644-.828-1.058-1.334-.966-2.116 1.84.644 2.99.184 4.002-.414l1.196.368c1.84.552 2.944-.23 3.358-1.15.598-1.288.138-3.358-1.932-4.692l-2.346-1.518 4.416-4.416 4.416 4.416c.276.276.69.276.966 0l7.544-7.544 1.242 1.242c.184.184.46.23.69.184a.71.71 0 0 0 .46-.552l1.242-7.866a.68.68 0 0 0-.184-.598.68.68 0 0 0-.598-.184l-7.866 1.196a.71.71 0 0 0-.552.46c-.092.23 0 .506.184.69l1.242 1.242-3.864 3.864-4.416-4.416a.667.667 0 0 0-.966 0L21.631 16.8c-.092-.368-.23-.736-.322-1.196a.716.716 0 0 0-.782-.506c-.782.092-1.426.552-1.978 1.15-10.12-.46-10.994 6.578-11.73 12.282-.276 2.07-.552 4.048-1.196 5.428a.74.74 0 0 0 .046.69c.092.184.322.276.552.276h3.542c0 .598 0 1.15.046 1.61-1.104.184-1.978 1.104-1.978 2.3 0 .368.092.69.23 1.012a3.16 3.16 0 0 0-2.53 3.082v2.438c0 .368.322.69.69.69H27.98c.368 0 .69-.322.69-.69v-2.438a3.16 3.16 0 0 0-2.53-3.082m3.725-29.348 4.416 4.416c.276.276.69.276.966 0l4.83-4.83c.138-.138.184-.322.184-.506s-.092-.368-.184-.506l-.736-.736 5.612-.874-.874 5.612-.736-.736a.667.667 0 0 0-.966 0l-7.59 7.498-4.416-4.416a.667.667 0 0 0-.966 0l-5.152 5.106-1.058-.69c-.644-.414-.874-.736-1.15-1.518zm-9.706 6.164c.046.23.092.414.184.598.552 1.978.782 2.806 2.116 3.726l4.6 3.036c1.334.874 1.794 2.208 1.426 2.944-.322.736-1.288.552-1.702.414l-1.472-.46c-.184-.046-.414-.046-.552.092-.828.552-1.702 1.058-3.68.184-.736-.414-.966-1.058-1.104-1.978-.046-.368-.414-.644-.782-.552-.368.046-.644.414-.552.782.138.92.414 1.932 1.334 2.668-.368 1.564.368 2.576 1.196 3.588.874 1.104 1.794 2.346 1.978 4.83H11.143c-.23-4.37.184-13.34 6.762-16.192a.66.66 0 0 0 .414-.506c.184-1.104.874-2.622 1.84-3.174M8.153 28.668c.69-5.474 1.426-11.086 9.476-11.086a5.2 5.2 0 0 0-.552 1.61c-5.704 2.714-7.084 9.43-7.268 14.352H7.28c.414-1.38.644-3.082.874-4.876m1.978 9.246H24.07c.506 0 .92.414.92.92s-.414.92-.92.92H10.131a.923.923 0 0 1-.92-.92c-.046-.506.414-.92.92-.92m17.158 6.808H6.911v-1.748c0-.966.782-1.748 1.794-1.748h16.79c.966 0 1.794.782 1.794 1.748z"/>
    <path fill="#EA3934" d="M37.637 26.966c-4.876 0-8.832 3.956-8.832 8.786 0 4.876 3.956 8.786 8.832 8.786s8.832-3.956 8.832-8.786-3.956-8.786-8.832-8.786m0 16.238c-4.094 0-7.452-3.312-7.452-7.406s3.358-7.406 7.452-7.406 7.452 3.312 7.452 7.406-3.358 7.406-7.452 7.406"/>
    <path fill="#EA3934" d="M37.824 35.062h-.322a.923.923 0 0 1-.92-.92c0-.23.092-.46.276-.644a.9.9 0 0 1 .644-.276h1.84c.368 0 .69-.322.69-.69a.707.707 0 0 0-.69-.69h-.966v-.874a.707.707 0 0 0-.69-.69.707.707 0 0 0-.69.69v.92a2.76 2.76 0 0 0-1.15.598c-.414.414-.69 1.012-.69 1.61 0 1.288 1.012 2.3 2.3 2.3h.322c.23 0 .46.092.644.276a.9.9 0 0 1 .276.644c0 .506-.414.92-.92.92h-1.932a.707.707 0 0 0-.69.69c0 .368.322.69.69.69h1.104v.874c0 .368.322.69.69.69s.69-.322.69-.69v-.966c1.012-.276 1.748-1.15 1.748-2.208 0-.598-.23-1.196-.69-1.61a2.3 2.3 0 0 0-1.564-.644"/>
</svg>
