<svg width="122" height="107" viewBox="0 0 122 107" fill="none" xmlns="http://www.w3.org/2000/svg">
<g clip-path="url(#clip0_4505_37865)">
<path d="M108.776 44.7622C105.915 45.8544 102.809 46.4527 99.5643 46.4527C85.2951 46.4527 73.728 34.8856 73.728 20.6164H22.3655C17.107 20.6164 12.8438 24.8774 12.8438 30.1333V81.8095C12.8438 87.0653 17.107 91.3264 22.3655 91.3264H99.2542C104.513 91.3264 108.776 87.0653 108.776 81.8095V44.7622Z" fill="white"/>
<path d="M75.8158 10.4245L54.0879 15.879H74.1613C74.5131 13.9797 75.0728 12.1536 75.8158 10.4245Z" fill="white"/>
<path d="M73.7276 20.5932H35.3095L13.797 25.9934C13.1973 27.2409 12.8613 28.6393 12.8613 30.1162V81.8266C12.8613 87.086 17.1228 91.3496 22.3795 91.3496H86.1404L107.845 85.9012C108.43 84.6659 108.757 83.2846 108.757 81.8266V44.7692C105.901 45.8571 102.802 46.4527 99.5639 46.4527C85.2947 46.4527 73.7276 34.8856 73.7276 20.6164V20.5932Z" fill="white"/>
<path d="M113.47 42.3957V81.8266C113.47 82.7596 113.38 83.672 113.209 84.555L113.36 84.5168C119.2 83.0508 122.746 77.1282 121.28 71.2881L113.949 42.0821C113.79 42.1882 113.631 42.2926 113.47 42.3957Z" fill="white"/>
<path d="M8.25044 27.3856C2.41029 28.852 -1.1353 34.7747 0.330663 40.6144L8.14999 71.7627V30.1162C8.14999 29.1674 8.24254 28.2401 8.41976 27.3435L8.25044 27.3856Z" fill="white"/>
<path d="M22.38 96.0637H67.3629L27.9737 105.952C22.1335 107.418 16.2109 103.872 14.745 98.0324L13.4619 92.9213C15.9017 94.8873 19.0038 96.0637 22.38 96.0637Z" fill="white"/>
<path d="M108.768 69.8726L85.527 46.6313C82.2735 43.3778 76.9992 43.3778 73.7462 46.6313L29.0371 91.3404H99.2479C104.506 91.3404 108.768 87.0781 108.768 81.8204V69.8726Z" fill="#4EAC92"/>
<path opacity="0.06" d="M96.201 57.3053L85.527 46.6313C82.2735 43.3778 76.9992 43.3778 73.7462 46.6313L29.0371 91.3404H62.1668L96.201 57.3053Z" fill="black"/>
<path d="M73.7241 91.3404L47.6711 65.2874C44.6037 62.2199 39.6307 62.2199 36.5637 65.2874L14.5664 87.2846C16.2885 89.7371 19.1384 91.3404 22.3629 91.3404H73.7241Z" fill="#71BDA8"/>
<path opacity="0.06" d="M29.2238 91.3404L51.4746 69.0909L47.6711 65.2874C44.6037 62.2199 39.6307 62.2199 36.5637 65.2874L14.5664 87.2846C16.2885 89.7375 19.1384 91.3404 22.3629 91.3404H29.2238Z" fill="black"/>
<path d="M44.1632 42.1759C44.1632 47.445 39.8916 51.7165 34.6226 51.7165C29.3536 51.7165 25.082 47.445 25.082 42.1759C25.082 36.9069 29.3536 32.6353 34.6226 32.6353C39.8916 32.6353 44.1632 36.9069 44.1632 42.1759Z" fill="#FFD03A"/>
<path d="M41.4164 35.4773L27.924 48.9697C26.1694 47.2392 25.082 44.8346 25.082 42.1759C25.082 36.9069 29.3536 32.6353 34.6226 32.6353C37.2812 32.6353 39.6859 33.7228 41.4164 35.4773Z" fill="#FFDF76"/>
<path d="M99.9585 21.0112V42.0224C88.3545 42.0224 78.9473 32.6152 78.9473 21.0112C78.9473 9.40723 88.3545 0 99.9585 0V21.0112Z" fill="#FFDF76"/>
<path d="M99.959 21.0112V42.0224C111.563 42.0224 120.97 32.6152 120.97 21.0112C120.97 9.40723 111.563 0 99.959 0V21.0112Z" fill="#FFD03A"/>
<path d="M99.9618 21.0138V37.0512C91.105 37.0512 83.9248 29.871 83.9248 21.0138C83.9248 12.1567 91.105 4.9769 99.9618 4.9769V21.0138Z" fill="#FFF5D8"/>
<path d="M99.9619 21.0138V37.0512C108.819 37.0512 115.999 29.871 115.999 21.0138C115.999 12.1567 108.819 4.9769 99.9619 4.9769V21.0138Z" fill="#FFECB2"/>
<path d="M98.6121 24.1159L97.9629 11.425H101.966L101.29 24.1159H98.6121ZM99.9645 30.5969C99.3333 30.5969 98.8104 30.389 98.3954 29.9732C97.9809 29.5578 97.7734 29.0604 97.7734 28.4818C97.7734 27.9032 97.9809 27.4154 98.3954 27.0176C98.8104 26.6017 99.3333 26.3938 99.9645 26.3938C100.596 26.3938 101.109 26.6017 101.506 27.0176C101.903 27.4154 102.101 27.9036 102.101 28.4818C102.101 29.0599 101.903 29.5578 101.506 29.9732C101.109 30.389 100.596 30.5969 99.9645 30.5969Z" fill="#CCA21B"/>
</g>
<defs>
<clipPath id="clip0_4505_37865">
<rect width="121.61" height="106.282" fill="white"/>
</clipPath>
</defs>
</svg>
