<svg width="302" height="264" viewBox="0 0 302 264" fill="none" xmlns="http://www.w3.org/2000/svg">
<g clip-path="url(#clip0_4497_37949)">
<path d="M181.08 126.878C179.283 127.564 177.333 127.94 175.294 127.94C166.331 127.94 159.065 120.674 159.065 111.711H126.801C123.498 111.711 120.82 114.387 120.82 117.689V150.149C120.82 153.451 123.498 156.127 126.801 156.127H175.099C178.403 156.127 181.08 153.451 181.08 150.149V126.878Z" fill="white"/>
<path d="M160.377 105.308L146.729 108.735H159.338C159.559 107.542 159.91 106.395 160.377 105.308Z" fill="white"/>
<path d="M159.065 111.696H134.933L121.42 115.088C121.043 115.872 120.832 116.75 120.832 117.678V150.16C120.832 153.464 123.509 156.142 126.811 156.142H166.863L180.496 152.719C180.864 151.944 181.07 151.076 181.07 150.16V126.882C179.275 127.566 177.329 127.94 175.295 127.94C166.331 127.94 159.065 120.674 159.065 111.711V111.696Z" fill="white"/>
<path d="M184.029 125.391V150.16C184.029 150.746 183.973 151.319 183.865 151.874L183.96 151.85C187.629 150.929 189.856 147.209 188.935 143.54L184.33 125.194C184.23 125.261 184.13 125.327 184.029 125.391Z" fill="white"/>
<path d="M117.935 115.963C114.267 116.884 112.04 120.604 112.961 124.272L117.872 143.838V117.678C117.872 117.082 117.931 116.499 118.042 115.936L117.935 115.963Z" fill="white"/>
<path d="M126.811 159.103H155.067L130.325 165.314C126.656 166.235 122.936 164.008 122.015 160.34L121.209 157.129C122.742 158.364 124.69 159.103 126.811 159.103Z" fill="white"/>
<path d="M181.076 142.651L166.477 128.052C164.433 126.008 161.12 126.008 159.076 128.052L130.992 156.136H175.095C178.398 156.136 181.076 153.459 181.076 150.156V142.651Z" fill="#4EAC92"/>
<path opacity="0.06" d="M173.181 134.757L166.477 128.052C164.433 126.008 161.12 126.008 159.076 128.052L130.992 156.136H151.803L173.181 134.757Z" fill="black"/>
<path d="M159.063 156.136L142.697 139.771C140.77 137.844 137.647 137.844 135.72 139.771L121.902 153.589C122.984 155.129 124.774 156.136 126.8 156.136H159.063Z" fill="#71BDA8"/>
<path opacity="0.06" d="M131.109 156.136L145.086 142.16L142.697 139.771C140.77 137.844 137.647 137.844 135.72 139.771L121.902 153.589C122.984 155.129 124.774 156.136 126.8 156.136H131.109Z" fill="black"/>
<path d="M140.494 125.253C140.494 128.563 137.811 131.246 134.501 131.246C131.191 131.246 128.508 128.563 128.508 125.253C128.508 121.944 131.191 119.26 134.501 119.26C137.811 119.26 140.494 121.944 140.494 125.253Z" fill="#FFD03A"/>
<path d="M138.768 121.046L130.293 129.521C129.191 128.434 128.508 126.923 128.508 125.253C128.508 121.944 131.191 119.26 134.501 119.26C136.171 119.26 137.681 119.943 138.768 121.046Z" fill="#FFDF76"/>
<path d="M175.542 111.959V125.157C168.253 125.157 162.344 119.248 162.344 111.959C162.344 104.669 168.253 98.7603 175.542 98.7603V111.959Z" fill="#FFDF76"/>
<path d="M175.542 111.959V125.157C182.831 125.157 188.74 119.248 188.74 111.959C188.74 104.669 182.831 98.7603 175.542 98.7603V111.959Z" fill="#FFD03A"/>
<path d="M175.544 111.96V122.034C169.981 122.034 165.471 117.524 165.471 111.96C165.471 106.397 169.981 101.887 175.544 101.887V111.96Z" fill="#FFF5D8"/>
<path d="M175.544 111.96V122.034C181.108 122.034 185.618 117.524 185.618 111.96C185.618 106.397 181.108 101.887 175.544 101.887V111.96Z" fill="#FFECB2"/>
<path d="M174.697 113.909L174.289 105.937H176.804L176.379 113.909H174.697ZM175.546 117.98C175.15 117.98 174.821 117.849 174.561 117.588C174.3 117.327 174.17 117.015 174.17 116.651C174.17 116.288 174.3 115.981 174.561 115.732C174.821 115.47 175.15 115.34 175.546 115.34C175.943 115.34 176.265 115.47 176.515 115.732C176.764 115.981 176.888 116.288 176.888 116.651C176.888 117.014 176.764 117.327 176.515 117.588C176.265 117.849 175.943 117.98 175.546 117.98Z" fill="#CCA21B"/>
</g>
<defs>
<clipPath id="clip0_4497_37949">
<rect width="76.3899" height="66.7618" fill="white" transform="translate(112.753 98.7603)"/>
</clipPath>
</defs>
</svg>
