<svg xmlns="http://www.w3.org/2000/svg" fill="none" viewBox="0 0 126 126"><rect width="118.588" height="118.588" x="3.706" y="3.706" fill="#CFE8DA" rx="59.294"/><rect width="118.588" height="118.588" x="3.706" y="3.706" stroke="#E6F3ED" stroke-width="6.588" rx="59.294"/><path fill="#4FA775" d="M72.5 63.991c-3.171 0-6.161 1.616-7.994 4.32a.72.72 0 0 0 0 .808c1.833 2.705 4.823 4.32 7.995 4.32 3.17 0 6.159-1.614 7.996-4.319a.72.72 0 0 0 0-.81c-1.837-2.704-4.826-4.319-7.996-4.319m0 8.008c-1.582 0-2.87-1.474-2.87-3.284s1.288-3.283 2.87-3.283 2.869 1.472 2.869 3.283-1.287 3.284-2.868 3.284m15.438 15.103-.707.595a1.08 1.08 0 0 1-1.52-.127l-6.087-7.213a13.8 13.8 0 0 0 2.43-1.898l6.01 7.124a1.08 1.08 0 0 1-.126 1.52m-6.11-26.257a12.12 12.12 0 0 0-8.296-4.291 12 12 0 0 0-1.052-.044c-1.274 0-2.525.196-3.715.58a1 1 0 0 1-.122.04 12.2 12.2 0 0 0-4.013 2.258 12.19 12.19 0 0 0-4.329 9.339 12.15 12.15 0 0 0 2.87 7.859 12.13 12.13 0 0 0 8.298 4.291 12.2 12.2 0 0 0 4.357-.412c.809-.229 1.593-.541 2.34-.935l.012-.007a12.3 12.3 0 0 0 2.193-1.48c5.144-4.34 5.797-12.054 1.457-17.198m-3.376 14.924a9.16 9.16 0 0 1-6.732 2.143 9.17 9.17 0 0 1-6.275-3.243 9.2 9.2 0 0 1-2.17-5.946 9.21 9.21 0 0 1 3.273-7.061 9.16 9.16 0 0 1 6.732-2.144 9.16 9.16 0 0 1 6.275 3.244 9.17 9.17 0 0 1 2.143 6.733 9.16 9.16 0 0 1-3.246 6.274m-7.105 6.543a13.56 13.56 0 0 1-9.655-5.267H46.004a.72.72 0 1 1 0-1.44H60.72a13.6 13.6 0 0 1-1.154-2.536H46.004a.72.72 0 0 1 0-1.442h13.168a13.7 13.7 0 0 1-.306-2.539H46.004a.72.72 0 0 1 0-1.44h12.9c.067-.858.215-1.708.443-2.54H46.004a.72.72 0 0 1 0-1.441h13.822c.35-.882.794-1.733 1.331-2.537H46.004a.72.72 0 0 1 0-1.44h16.264a13.7 13.7 0 0 1 2.99-2.54H46.003a.72.72 0 0 1 0-1.44h22.344c1.69-.54 3.485-.746 5.305-.592q.817.07 1.609.233V40.51a2.467 2.467 0 0 0-2.466-2.462h-28.65a2.465 2.465 0 0 0-2.464 2.462v41.916a2.467 2.467 0 0 0 2.463 2.465h28.65a2.47 2.47 0 0 0 2.467-2.465v-.342a13.6 13.6 0 0 1-3.915.228M46.004 43.772h14.06a.72.72 0 0 1 0 1.44h-14.06a.72.72 0 0 1 0-1.44m0 3.98H70.94a.72.72 0 1 1 0 1.44H46.004a.72.72 0 1 1 0-1.44m0 3.978H70.94a.72.72 0 0 1 0 1.44H46.004a.72.72 0 1 1 0-1.44"/></svg>