<svg xmlns="http://www.w3.org/2000/svg" width="20" height="20" fill="none" viewBox="0 0 20 20">
    <path fill="#ea3934" d="M10.336 10.066q0 1.312-.21 2.298-.211.986-.674 1.646t-1.203 1q-.741.332-1.816.332-1.067 0-1.808-.333a2.95 2.95 0 0 1-1.21-1.013q-.463-.666-.674-1.639-.21-.978-.21-2.284 0-1.347.203-2.299.21-.951.694-1.638a2.9 2.9 0 0 1 1.224-1q.747-.333 1.781-.333 1.095 0 1.823.347.734.339 1.203 1.02.462.666.667 1.645.21.98.21 2.25m-2.55 0q0-1.876-.312-2.632-.306-.76-1.04-.761-.728 0-1.041.761-.313.756-.313 2.645 0 1.85.313 2.625.313.768 1.04.768t1.04-.768q.314-.775.313-2.638"/>
    <mask id="a" width="11" height="9" x="9" y="6" fill="#000" maskUnits="userSpaceOnUse">
        <path fill="#fff" d="M9 6h11v9H9z"/>
        <path d="M13.516 9.26q0 .896-.4 1.332-.398.434-1.156.433-.78 0-1.177-.433-.396-.433-.397-1.317 0-.885.405-1.318.404-.435 1.169-.436.78 0 1.166.436.39.434.39 1.303m2.794-1.635L13.494 13h-.953l2.816-5.375zm2.158 3.722q0 .895-.4 1.332-.398.432-1.155.433-.78 0-1.177-.433t-.397-1.318.404-1.317q.405-.437 1.17-.437.78 0 1.165.437.39.433.39 1.303M12.487 9.27q0-.227-.022-.415a1 1 0 0 0-.075-.314.4.4 0 0 0-.163-.188.5.5 0 0 0-.267-.065.5.5 0 0 0-.27.065.44.44 0 0 0-.16.192 1 1 0 0 0-.075.314q-.022.198-.022.415 0 .267.014.426.015.155.08.3.054.126.159.194a.53.53 0 0 0 .274.065.5.5 0 0 0 .267-.065.42.42 0 0 0 .163-.195q.05-.115.072-.296a3 3 0 0 0 .025-.433m4.952 2.087q0-.228-.021-.415a1 1 0 0 0-.076-.314.4.4 0 0 0-.162-.188.5.5 0 0 0-.267-.065.5.5 0 0 0-.271.065.44.44 0 0 0-.16.191 1 1 0 0 0-.075.314 4.955 4.955 0 0 0-.007.841q.015.156.08.3.053.126.158.195a.53.53 0 0 0 .274.065.5.5 0 0 0 .268-.065.42.42 0 0 0 .162-.195q.051-.116.072-.296.025-.18.025-.433"/>
    </mask>
    <path fill="#ea3934" d="M13.516 9.26q0 .896-.4 1.332-.398.434-1.156.433-.78 0-1.177-.433-.396-.433-.397-1.317 0-.885.405-1.318.404-.435 1.169-.436.78 0 1.166.436.39.434.39 1.303m2.794-1.635L13.494 13h-.953l2.816-5.375zm2.158 3.722q0 .895-.4 1.332-.398.432-1.155.433-.78 0-1.177-.433t-.397-1.318.404-1.317q.405-.437 1.17-.437.78 0 1.165.437.39.433.39 1.303M12.487 9.27q0-.227-.022-.415a1 1 0 0 0-.075-.314.4.4 0 0 0-.163-.188.5.5 0 0 0-.267-.065.5.5 0 0 0-.27.065.44.44 0 0 0-.16.192 1 1 0 0 0-.075.314q-.022.198-.022.415 0 .267.014.426.015.155.08.3.054.126.159.194a.53.53 0 0 0 .274.065.5.5 0 0 0 .267-.065.42.42 0 0 0 .163-.195q.05-.115.072-.296a3 3 0 0 0 .025-.433m4.952 2.087q0-.228-.021-.415a1 1 0 0 0-.076-.314.4.4 0 0 0-.162-.188.5.5 0 0 0-.267-.065.5.5 0 0 0-.271.065.44.44 0 0 0-.16.191 1 1 0 0 0-.075.314 4.955 4.955 0 0 0-.007.841q.015.156.08.3.053.126.158.195a.53.53 0 0 0 .274.065.5.5 0 0 0 .268-.065.42.42 0 0 0 .162-.195q.051-.116.072-.296.025-.18.025-.433"/>
    <path fill="#fff" d="m13.115 10.592-.68-.624h-.001zM10.79 7.957l.676.63.003-.002zm2.336 0-.692.612.005.006zm3.184-.332.818.429.709-1.353H16.31zM13.494 13v.924h.56l.259-.495zm-.953 0-.818-.429-.71 1.353h1.528zm2.816-5.375v-.924h-.56l-.259.495zm2.71 5.054-.68-.625zm-2.324-2.635.676.63.002-.003zm2.335 0-.692.612.006.006zm-5.613-1.188-.92.089.001.008.001.009zm-.238-.502-.487.786.01.006.01.006zm-.538 0 .493.782.01-.006.01-.007zm-.159.192-.835-.395-.001.002zM11.449 9.7l-.92.083v.002zm.079.3.85-.365-.004-.007-.003-.008zm.159.194-.507.773.016.01.015.01zM12.39 10l.844.376.002-.005zm.072-.296-.915-.128-.002.01v.008zm4.956 1.239-.92.088v.009l.002.008zm-.238-.502-.488.785.01.006.01.006zm-.538 0 .492.782.01-.007.01-.006zm-.16.191-.835-.394v.002zm-.082 1.155-.92.084v.002zm.08.3.849-.364-.004-.008-.003-.007zm.158.195-.506.773.015.01.016.01zm.704-.195.845.375.002-.005zm.072-.296-.915-.128-.001.009-.001.009zm-4.822-2.53c0 .48-.11.655-.158.707l1.362 1.249c.487-.53.644-1.243.644-1.957zm-.158.707c-.042.046-.148.133-.474.133v1.849c.685 0 1.35-.202 1.836-.733zm-.474.133c-.35 0-.458-.092-.496-.133l-1.362 1.249c.492.536 1.168.733 1.858.733zm-.496-.133c-.045-.05-.154-.221-.154-.693H9.462c0 .707.156 1.414.64 1.942zm-.154-.693c0-.469.11-.637.156-.687l-1.351-1.261c-.493.527-.653 1.237-.653 1.948zm.159-.69c.048-.052.16-.14.491-.14V6.596c-.69 0-1.357.203-1.848.734zm.491-.14c.35 0 .445.093.474.124l1.384-1.224c-.487-.55-1.167-.749-1.858-.749zm.48.13c.046.053.152.224.152.685h1.848c0-.698-.154-1.396-.627-1.92zm3.051-1.379-2.815 5.375 1.637.858 2.815-5.375zm-1.997 4.88h-.953v1.848h.953zm-.134 1.353 2.815-5.375-1.637-.858-2.815 5.375zm1.997-4.88h.953V6.701h-.953zm2.187 2.798c0 .48-.11.655-.157.707l1.361 1.25c.487-.531.644-1.244.644-1.957zm-.158.707c-.042.046-.148.134-.473.134v1.848c.684 0 1.349-.201 1.836-.733zm-.473.134c-.35 0-.459-.093-.496-.134l-1.362 1.25c.492.536 1.168.732 1.858.732zm-.496-.134c-.046-.05-.154-.22-.154-.693h-1.848c0 .707.156 1.414.64 1.942zm-.154-.693c0-.468.109-.637.155-.687l-1.35-1.26c-.493.527-.653 1.237-.653 1.947zm.158-.69c.048-.051.16-.14.492-.14V8.683c-.69 0-1.357.202-1.848.733zm.492-.14c.349 0 .445.093.473.125l1.385-1.224c-.487-.55-1.168-.75-1.858-.75zm.479.13c.047.053.152.224.152.686h1.848c0-.699-.154-1.396-.627-1.921zm-3.98-1.39q0-.27-.029-.52l-1.836.211q.015.125.016.31zm-.027-.503a1.9 1.9 0 0 0-.155-.61l-1.68.768q-.014-.031-.01-.025l.006.044zm-.155-.61a1.33 1.33 0 0 0-.536-.6l-.934 1.594a.52.52 0 0 1-.21-.226zm-.516-.589a1.4 1.4 0 0 0-.754-.204v1.848a.45.45 0 0 1-.22-.073zm-.754-.204c-.215 0-.51.038-.783.22l1.025 1.538a.6.6 0 0 1-.18.081c-.04.01-.064.01-.062.01zm-.763.207a1.36 1.36 0 0 0-.502.58l1.671.788a.5.5 0 0 1-.184.196zm-.503.581a1.9 1.9 0 0 0-.158.607l1.837.2.01-.061q0-.004-.002.005l-.014.034zm-.158.607q-.027.252-.027.515h1.848q0-.171.016-.315zm-.027.515c0 .19.005.363.018.51l1.84-.168a4 4 0 0 1-.01-.342zm.018.511q.03.311.157.594l1.686-.759-.002-.004v-.002zm.15.578c.1.235.266.45.502.604l1.013-1.546a.5.5 0 0 1 .184.214zm.533.624c.254.152.523.196.75.196V9.336c.005 0 .091.001.201.067zm.75.196c.227 0 .499-.045.754-.204l-.974-1.57a.45.45 0 0 1 .22-.074zm.754-.204c.251-.155.418-.375.52-.604l-1.689-.75a.5.5 0 0 1 .195-.216zm.522-.61c.082-.187.122-.381.143-.556l-1.835-.22-.009.056.008-.02zm.14-.537c.026-.176.035-.366.035-.562h-1.848q-.001.209-.016.305zm4.988 1.525q0-.271-.028-.521l-1.836.211q.015.126.015.31zm-.026-.504a1.9 1.9 0 0 0-.156-.61l-1.68.769q-.013-.031-.01-.026l.006.044zm-.156-.61a1.33 1.33 0 0 0-.535-.6l-.935 1.594a.52.52 0 0 1-.21-.225zm-.515-.588a1.4 1.4 0 0 0-.755-.204V11.3a.45.45 0 0 1-.22-.074zm-.755-.204c-.215 0-.51.038-.783.22l1.025 1.538a.6.6 0 0 1-.18.08c-.04.01-.064.01-.061.01zm-.763.207a1.36 1.36 0 0 0-.502.579l1.672.789a.5.5 0 0 1-.185.196zm-.503.58a1.9 1.9 0 0 0-.158.607l1.838.2.01-.06q0-.005-.003.005l-.013.033zm-.158.607q-.027.252-.027.515h1.848q0-.17.017-.315zm-.027.515c0 .19.005.364.019.51l1.84-.168a4 4 0 0 1-.01-.342zm.019.512q.029.31.157.593l1.685-.758-.002-.005v-.001zm.15.578c.1.234.265.449.502.604l1.013-1.546a.5.5 0 0 1 .184.214zm.533.623c.254.153.523.197.75.197v-1.848c.005 0 .09 0 .2.066zm.75.197c.226 0 .498-.045.754-.204l-.975-1.57a.45.45 0 0 1 .22-.074zm.754-.204c.25-.156.418-.376.52-.605l-1.69-.75a.5.5 0 0 1 .195-.215zm.522-.61c.082-.187.122-.382.143-.556l-1.835-.22-.01.055q-.003.011.008-.02zm.14-.538a4 4 0 0 0 .035-.561h-1.849q-.001.209-.016.305z" mask="url(#a)"/>
</svg>
