<svg xmlns="http://www.w3.org/2000/svg" width="68" height="69" fill="none" viewBox="0 0 68 69">
    <g clip-path="url(#a)">
        <path fill="#919ebd" d="M45.443 44.924 48.48 64.32l-15.763-.136a124 124 0 0 1-2.647-19.946c5.06-.612 10.225-.346 15.373.687"/>
        <path fill="#5471a1" d="m45.633 38.92.594 6.998c-5.499.741-11.051 1.018-15.654.445.166-3.273.301-6.428.435-9.582.024-1.365.051-2.71.08-4.043q-.959-.52-1.979-.905c.286-1.172.58-2.362 1.177-3.41.585-1.027 1.51-1.916 2.654-2.198l.014-.005c2.108-.874 4.301-1.632 6.495-2.514 1.74.85 3.36 1.784 5.02 2.863a10.4 10.4 0 0 1 3.836 4.509 70 70 0 0 1 2.135 5.433 109 109 0 0 0-4.807 2.409"/>
        <path fill="#ffc5a3" d="M40.388 24.227c-.942.573-2.092 1.259-3.02 1.832-.13.33-.18.625-.233.92a11 11 0 0 1-1.026-1.41 12 12 0 0 0 .05-3.077c1.27.129 2.493-.016 3.672-.321q.226-.058.452-.124-.002.051 0 .103-.005.357.003.682c.011.608.045 1.11.102 1.395"/>
        <path fill="#402037" d="M40.287 22.832a4.5 4.5 0 0 1-1.794 1.354 4.5 4.5 0 0 1-2.274.298q.055-1-.059-1.992c1.27.129 2.493-.016 3.672-.321q.224-.011.451-.021-.003.357.004.682"/>
        <path fill="#6e95ba" d="M37.138 26.979c-.009-.367.03-.697.158-1.111a205 205 0 0 1 3.035-1.835c-.004-.257-.035-.43-.03-.763l.03.003c.59.068 1.12.387 1.456.875q.107.155.21.314a.53.53 0 0 1 .034.525 11.8 11.8 0 0 1-1.91 2.745 3.84 3.84 0 0 0-2.091-1.618 4.6 4.6 0 0 0-.892.865M33.832 27.246c.18-.873.456-1.77.873-2.571a1.65 1.65 0 0 1 1.045-.843c.168-.045.334-.082.485-.125 0 .428-.021.958-.039 1.42-.009.222.037.445.14.642.235.446.532.759.799 1.211-.46-.369-.963-.597-1.457-.896-.654.206-1.255.58-1.846 1.162"/>
        <path stroke="#303c6b" stroke-linecap="round" stroke-linejoin="round" stroke-miterlimit="10" stroke-width=".111" d="M44.71 28.116c-1.48 1.132-2.144 3.085-2.155 4.95-.012 1.864.54 3.68 1.087 5.461"/>
        <path stroke="#303c6b" stroke-linecap="round" stroke-linejoin="round" stroke-miterlimit="10" stroke-width=".111" d="M41.258 31.201c.003 1.527.459 2.94 1.506 4.053M37.036 27.065a6.5 6.5 0 0 1-.936 1.462 19 19 0 0 1-.334 3.221"/>
        <path fill="#ffc5a3" d="M50.897 40.742a32.8 32.8 0 0 1-3.129 7.708c-.67-.836-1.342-1.674-1.87-2.469a32 32 0 0 0 1.342-4.024c-.314-1.23-.352-1.944-.812-3.111a11 11 0 0 0-.137-.33c1.411-.7 2.053-1.019 3.579-1.738q.183.572.34 1.151c.258.932.479 1.874.687 2.813"/>
        <path fill="#402037" d="m50.209 37.93-3.783.916a12 12 0 0 0-.137-.33c1.411-.7 2.054-1.019 3.58-1.738q.181.572.34 1.151"/>
        <path fill="#f29f83" d="M33.83 18.674c.571-.06 1.096.467 1.172 1.179s-.326 1.338-.898 1.399-1.097-.467-1.173-1.179c-.076-.711.326-1.338.898-1.399"/>
        <path stroke="#d1524b" stroke-linecap="round" stroke-miterlimit="10" stroke-width=".111" d="M33.281 19.45a.43.43 0 0 1 .375.084c.106.08.184.196.248.316.106.199.18.417.218.642"/>
        <path stroke="#d1524b" stroke-linecap="round" stroke-miterlimit="10" stroke-width=".111" d="M33.34 20.397c.128-.227.339-.402.577-.482"/>
        <path fill="#ffc5a3" d="M33.945 20.154v-2.549a3.766 3.766 0 1 1 7.533 0v2.549a3.766 3.766 0 1 1-7.533 0"/>
        <path fill="#402037" d="M33.159 14.408a1.43 1.43 0 0 1-.533-.537c.422-.307.934-.49 1.456-.522l-.313-.343a3 3 0 0 1 1.221-.097c-.063-.142-.22-.309-.377-.477a5.78 5.78 0 0 1 4.85.404l-.034-.365c.468.207.81.674.865 1.183.255-.37.638-.568 1.022-.562l-.256.369c.373-.12.791-.095 1.148.069-.228.05-.44.17-.599.342.343.058.648.296.788.614l-.41-.01c.164.012.38.18.471.384.092.205.089.438.083.662-.028 1.104-.076 2.228-.445 3.269-.28.307-.504.555-.728.803-.298-.453-.53-1.033-.757-1.62-.034-.09-.09-.17-.122-.261-.296-.859-.42-1.565-.66-2.48-1.563-.127-3.47.01-4.973.137-.261.373-.37.865-.538 1.389a5 5 0 0 0-.214 1.023c-.056.53-.108.93-.143 1.574-.694-1.648-.95-2.623-1.58-3.625l.85-.149a3.7 3.7 0 0 0-1.06-.664c.268-.195.571-.343.988-.51"/>
        <path fill="#ffc5a3" d="M42.751 20.021c.076-.712-.326-1.338-.898-1.4-.572-.06-1.097.468-1.173 1.18-.076.711.327 1.338.898 1.399.572.06 1.097-.467 1.173-1.179"/>
        <path stroke="#d1524b" stroke-linecap="round" stroke-miterlimit="10" stroke-width=".111" d="M42.403 19.402a.43.43 0 0 0-.374.083.94.94 0 0 0-.248.316c-.107.2-.18.418-.218.643"/>
        <path stroke="#d1524b" stroke-linecap="round" stroke-miterlimit="10" stroke-width=".111" d="M42.343 20.348a1.06 1.06 0 0 0-.577-.482"/>
        <path fill="#3e1f35" d="M37.934 17.194a1.3 1.3 0 0 1 1.011-.3c.359.047.694.254.897.555a2.92 2.92 0 0 0-1.908-.255M36.263 17.25c-.26-.247-.585-.44-.94-.467-.356-.027-.74.145-.893.467.56-.232 1.22-.216 1.833 0"/>
        <path stroke="#d1524b" stroke-linecap="round" stroke-linejoin="round" stroke-miterlimit="10" stroke-width=".111" d="M36.559 17.492c.177.197.31.432.423.756a8.3 8.3 0 0 1-.35 1.9c.266.191.631.233.934.108"/>
        <path fill="#911f34" d="M39.02 20.832c-.858.233-1.75.301-2.616.27a.9.9 0 0 0 .308.76c.205.18.467.263.727.29.366.037.75-.033 1.054-.26.305-.23.517-.628.526-1.06"/>
        <path fill="#402037" d="M38.106 19.173c.1-.274.348-.49.634-.55s.6.038.802.251a2.12 2.12 0 0 0-1.437.3M36.304 19.185a.9.9 0 0 0-.634-.548.89.89 0 0 0-.803.236c.217-.066.452-.049.672.011.219.06.427.084.765.3M38.104 35.982c-.495.565-.582 1.376-.575 2.127s.08 1.528-.173 2.234c-.176.49-.5.917-.676 1.406-.176.49-.158 1.116.248 1.44a.7.7 0 0 1 .167-.622 3.13 3.13 0 0 0 1.264 2.597 3.13 3.13 0 0 0 2.859.403 12 12 0 0 1 .236-3.74c.084-.376.185-.776.05-1.136-.075-.2-.218-.367-.36-.53-.869-1.007-1.737-2.016-3.04-4.18"/>
        <path fill="#f7c859" d="M49.21 53.417a2392 2392 0 0 0 3.206 7.666 17.35 17.35 0 0 1-11.162 2.188l.336-7.967c2.62-.04 5.232-.473 7.62-1.887"/>
        <path fill="#f2575c" d="m41.198 55.979-.813-8.42a4 4 0 0 0-.692-.191 7.8 7.8 0 0 1 .385-3.032 2.53 2.53 0 0 1 1.627-1.627c.722-.23 1.578-.374 2.555-.4 2.571 3.488 4.296 7.625 5.468 11.87-2.597 1.409-5.586 2.092-8.53 1.8"/>
        <path fill="#ffb898" d="M38.809 50.866c.78.504 1.603.94 2.458 1.305a.845.845 0 0 0 1.127-.48c.408-1.105.5-2.276.736-3.435-.981-.69-1.713-.898-2.867-.74.02.635-.02 1.318 0 1.95l-1.395-.7c-.016.623-.032 1.246-.06 2.1"/>
        <path stroke="#80263d" stroke-linecap="round" stroke-linejoin="round" stroke-miterlimit="10" stroke-width=".111" d="M43.156 43.945a7.08 7.08 0 0 1 .168 4.423"/>
        <path stroke="#80263d" stroke-linecap="round" stroke-linejoin="round" stroke-miterlimit="10" stroke-width=".111" d="M43.5 47.517c.44-.385.754-.912.882-1.482"/>
        <path fill="#ffb898" d="M38.397 36.69c-.282 1.188-.428 2.409-.355 3.61.064 1.053.769 1.975 1.78 2.277.318.096.65.153.98.175q.36.024.72.005a3.085 3.085 0 0 0 2.841-2.444c.29-1.342.421-2.719.387-4.091a6.64 6.64 0 0 0-4.02-1.183c-.508.018-1.028.103-1.466.362-.44.26-.734.731-.867 1.29"/>
        <path fill="#402037" d="M41.43 39.759a.8.8 0 0 1 .62-.372.8.8 0 0 1 .661.291 5.1 5.1 0 0 0-1.281.08M39.77 39.594c-.135-.2-.295-.398-.518-.489s-.523-.034-.635.18c.376.029.745.14 1.153.309M41.594 38.382a.94.94 0 0 1 .742-.114.74.74 0 0 1 .514.529c-.23-.333-.67-.506-1.256-.415M39.81 38.265a2.3 2.3 0 0 0-.363-.297.8.8 0 0 0-.445-.126.48.48 0 0 0-.389.23c.36-.124.777-.071 1.198.193"/>
        <path stroke="#d1524b" stroke-linecap="round" stroke-linejoin="round" stroke-miterlimit="10" stroke-width=".111" d="M40.175 39.625a.44.44 0 0 1-.175.315.4.4 0 0 0 .188.258"/>
        <path fill="#911f34" d="M41.693 40.865c-.614.128-1.26.11-1.855.063-.07.19.011.413.162.554.15.14.357.21.562.243.292.048.609.027.862-.125.251-.153.422-.454.269-.735"/>
        <g fill="#f58682" opacity=".561">
            <path d="M42.707 40.742c.352 0 .637-.186.637-.416s-.285-.415-.637-.415-.637.186-.637.415c0 .23.285.416.637.416M38.03 39.815c.035-.227.345-.368.693-.314s.602.28.567.507-.345.367-.693.314c-.347-.053-.601-.28-.566-.507"/>
        </g>
        <path fill="#402037" d="M40.586 35.952c.659 1.342 1.404 2.245 3.055 2.576 0 .893.416 2.476-1.36 4.695.385.044 1.007-.114 1.413-.158-.05.758.248 1.532.794 2.062a2.68 2.68 0 0 0 2.083.736l.499-2.824c-.003.379.353.72.731.702-.47-1.442-.605-2.97-.906-4.458s-.804-2.996-1.86-4.086-2.779-1.649-4.209-.919a3 3 0 0 0-2.318.808c-.61.584-.95 1.439-.907 2.282l.47-.425c.011.444-.049.63.3.906.542-.821 1.207-1.536 2.215-1.897"/>
        <path fill="#ffc5a3" d="M46.762 45.781c-.636.204-1.285.363-1.93.56a1.7 1.7 0 0 0-.587.319l-1.683 1.426c-.1.085-.214.197-.14.342.045.085.14.134.235.132a3.1 3.1 0 0 0 1.561-.477L42.86 51.85a.35.35 0 0 0 .069.364c.18.181.45.003.613-.172a7.6 7.6 0 0 0 1.298-1.927c-.12.64-.32 1.101-.547 1.647a.524.524 0 0 0 .158.62c.132.097.304.104.615-.206-.069.18.16.294.357.254.199-.04.53-.24.561-.44.175.102.408.053.57-.07.161-.121.268-.302.362-.481.566-1.07.9-2.261.97-3.47-.317-.699-.634-1.395-1.124-2.188"/>
        <path stroke="#d1524b" stroke-linecap="round" stroke-miterlimit="10" stroke-width=".111" d="M45.172 52.066a8.8 8.8 0 0 0 .792-1.905M46.063 51.842a4.8 4.8 0 0 0 .677-1.697"/>
        <path fill="#6e95ba" d="M33.528 65.525c-.51-6.82-1.02-13.642-1.634-20.325-3.678-.052-7.356-.103-11.184-.22a58.6 58.6 0 0 0 .316 18.344c.078.439.175.906.493 1.218.366.358.923.417 1.435.456 3.218.244 6.435.485 10.574.527"/>
        <path fill="#402037" d="M21.248 29.352a7.36 7.36 0 0 1 1.735-4.903c-.508-.066-.965-.365-1.172-.865 1.181-.255 2.362-.51 3.724-.743a36.6 36.6 0 0 1 1.409 6.732 38 38 0 0 1-5.696-.221"/>
        <path fill="#9d91ba" d="m32.387 46.083-.744-6.017a7 7 0 0 1-.01-1.59l.403-3.65c.1-.906.002-1.823-.293-2.685-.45-1.32-.848-2.562-1.233-3.784a2.92 2.92 0 0 0-1.789-1.864 12.6 12.6 0 0 0-3.9-.73c-.911.473-1.82 1-2.716 1.551a7.06 7.06 0 0 0-2.844 3.356 69 69 0 0 0-1.34 3.635c.799.797 2.067 1.758 3.38 2.113 0 3.613-.391 5.611-.834 9.29 3.706 1.313 8.212 1.641 11.92.375"/>
        <path stroke="#41395e" stroke-linecap="round" stroke-linejoin="round" stroke-miterlimit="10" stroke-width=".111" d="M22.245 29.128c1.09 2.369 1.07 5.222-.054 7.575"/>
        <path stroke="#41395e" stroke-linecap="round" stroke-linejoin="round" stroke-miterlimit="10" stroke-width=".111" d="M24.121 32.24c-.15.946-.6 1.842-1.27 2.527"/>
        <path fill="#ffc5a3" d="M28.059 27.93c-.035.55-.255 1.14-.744 1.395-.434.228-.966.136-1.426-.03-1.18-.421-2.241-1.329-2.819-2.439.322-.293.693-.527.944-.84q.044-.354.059-.68a7.4 7.4 0 0 0-.038-1.224q.243.104.485.195c.776.29 1.561.484 2.347.68.106.026.221.057.291.143.108.134.057.33.066.501a.69.69 0 0 0 .334.538c.13.038.21.053.383.104.126.673.151 1.107.118 1.657"/>
        <path fill="#402037" d="M27.561 26.17a4.86 4.86 0 0 1-3.485-.834v-.001a7 7 0 0 0-.021-1.055q.234.018.468.027c.776.289 1.561.484 2.347.679.106.026.221.058.291.144.107.134.056.329.065.5a.69.69 0 0 0 .335.54"/>
        <path fill="#ffc5a3" d="m21.425 36.404-.06.201c-.334 1.115-.644 2.312-.966 3.355-.349 2.219-.598 3.964-.607 6.217-.709.264-1.419.526-2.168.905-.278-2.22-.51-4.145-.526-6.254a10.1 10.1 0 0 1 .527-3.28c.204-.61.417-1.224.608-1.84q.146-.46.266-.92c.856.797 1.858 1.253 2.926 1.616"/>
        <path fill="#402037" d="m21.426 36.404-.06.201a8.1 8.1 0 0 1-3.132-.897q.145-.46.266-.92c.855.797 1.858 1.253 2.926 1.616"/>
        <path fill="#f29f83" d="M29.762 20.043c.573-.047 1.085.494 1.143 1.207s-.359 1.33-.932 1.377-1.085-.494-1.143-1.207.359-1.33.932-1.377"/>
        <path stroke="#d1524b" stroke-linecap="round" stroke-miterlimit="10" stroke-width=".111" d="M30.446 20.705a.43.43 0 0 0-.353.152.95.95 0 0 0-.185.356c-.067.215-.1.443-.095.673"/>
        <path stroke="#d1524b" stroke-linecap="round" stroke-miterlimit="10" stroke-width=".111" d="M30.563 21.645a1.06 1.06 0 0 0-.657-.365"/>
        <path fill="#ffc5a3" d="m22.503 22.809-.475-2.504a3.767 3.767 0 0 1 7.401-1.406l.475 2.504a3.767 3.767 0 0 1-7.401 1.406"/>
        <path fill="#402037" d="M22.293 22.435c.827-.299 1.328-1.14 1.626-1.968s.47-1.717.955-2.452c.485-.733 1.313-1.305 2.279-.912.082-.18.237-.375.62-.161.275.152 1.045 1.013 1.983 3.676.553-1.196.553-2.786-.067-3.949-.344-.646-.87-1.212-1.54-1.509-.669-.297-1.485-.298-2.169.139a3.52 3.52 0 0 0-3.52.156c-.943.62-1.531 1.68-1.792 2.78-.26 1.098-.224 2.245-.145 3.372.025.343.055.694.202 1.004s.438.578.78.598c.197-.215.297-.596.788-.774"/>
        <path fill="#ffc5a3" d="M21.714 21.766c.55-.166 1.164.254 1.372.94.207.685-.071 1.375-.622 1.542-.55.166-1.165-.254-1.372-.94s.07-1.375.622-1.542"/>
        <path stroke="#d1524b" stroke-linecap="round" stroke-miterlimit="10" stroke-width=".111" d="M21.32 22.633a.43.43 0 0 1 .384.013.9.9 0 0 1 .302.263c.142.176.255.377.335.59"/>
        <path stroke="#d1524b" stroke-linecap="round" stroke-miterlimit="10" stroke-width=".111" d="M21.555 23.552c.084-.247.258-.459.477-.582"/>
        <path fill="#911f34" d="M27.637 23.164c-.659.104-1.34.058-2.055-.158a.98.98 0 0 0 .411.95c.296.198.693.206 1.007.043.315-.163.543-.488.637-.835"/>
        <path stroke="#d1524b" stroke-linecap="round" stroke-miterlimit="10" stroke-width=".111" d="M26.887 21.56c.185.25.237.584.135.874"/>
        <path fill="#3e1f35" d="M25.428 20.09a.93.93 0 0 0-.957-.08.92.92 0 0 0-.49.824c.305-.39.795-.63 1.446-.745M27.492 19.867a.84.84 0 0 1 .731-.547.84.84 0 0 1 .784.468 2.04 2.04 0 0 0-1.515.078"/>
        <g fill="#f58682" opacity=".549">
            <path d="M24.442 23.336c.392 0 .71-.223.71-.499 0-.275-.318-.498-.71-.498-.393 0-.712.223-.712.498 0 .276.319.499.712.499M28.61 21.647c.372-.128.746-.021.836.239s-.138.575-.51.703c-.37.129-.744.022-.834-.238s.138-.576.509-.704"/>
        </g>
        <path fill="#402037" d="M27.524 21.55a.69.69 0 0 1 .374-.62.69.69 0 0 1 .72.082q-.576.057-1.094.537M25.698 21.769a1.8 1.8 0 0 0-.513-.331 1.1 1.1 0 0 0-.631-.067c-.21.046-.398.177-.46.354.43-.104.903-.076 1.604.044"/>
        <path fill="#423336" d="M41.068 65.503c-4.012-.314-7.491-.382-10.939-.754q-.077-4.086-.155-8.172l-.029-1.513c3.247-.198 6.421.138 9.384 1.116q.263.922.484 1.829c.617 2.548.987 5.016 1.255 7.494"/>
        <path fill="#291e22" d="M39.813 58.009c-3.332.23-6.71-.263-9.839-1.432l-.029-1.513c3.247-.198 6.421.138 9.384 1.116q.263.922.484 1.829"/>
        <path fill="#e8a343" d="M40.025 57.535a3.9 3.9 0 0 1-1.351-.146l-.563-1.137c-.17.46-.254.79-.338 1.12a28 28 0 0 1-7.918-.889c-.251-3.611-.495-7.18-.663-10.743a3.8 3.8 0 0 1 1.807-3.42q.423-.26.845-.489a4.95 4.95 0 0 1 2.866-.588c.496.049 1 .118 1.514.215a3.95 3.95 0 0 1 2.904 2.346c.526 1.24.92 2.548 1.175 3.91-.454.154-.908.306-1.382.5a49.3 49.3 0 0 1 1.104 9.32"/>
        <path stroke="#a85220" stroke-linecap="round" stroke-linejoin="round" stroke-miterlimit="10" stroke-width=".111" d="M36.678 42.708a8.84 8.84 0 0 0 .31 5.992M31.773 43.184c-.069.155-.136.31-.218.527l.208 1.44"/>
        <path fill="#ffb898" d="M34.573 41.404c-.827.69-1.753 1.26-2.742 1.685-.194-.23-.471-.513-.367-1.09q.027-.15.044-.302a5 5 0 0 0-.062-1.584c.99-.064 1.881-.305 2.748-.615q.016.113.039.232.042.235.094.492c.073.362.16.755.246 1.181"/>
        <path fill="#402037" d="M34.328 40.221c-.309.431-.714.794-1.18 1.047-.5.273-1.068.42-1.638.429a5 5 0 0 0-.033-1.43 23 23 0 0 0 2.757-.538q.042.237.094.492"/>
        <path fill="#ffe896" d="M31.844 43.093c.16-.315.318-.63.4-.903a5.8 5.8 0 0 0 1.795-.945c.21-.162.427-.397.344-.662.647.075 1.254.444 1.557.911a5.3 5.3 0 0 1-2.01 2.221c-.146-.48-.492-.896-.917-1.166-.29.273-.655.467-1.17.544M31.832 43.124c-.347-.489-.29-1.264-.29-1.903-.199-.052-.396.052-.633.16-.667.614-1.142 1.434-1.3 2.27.272-.329.63-.586 1.04-.798.404.063.798.185 1.183.271"/>
        <path fill="#f29f83" d="M28.538 38.148c.448-.19 1.005.109 1.241.668s.065 1.166-.384 1.356c-.45.19-1.005-.109-1.242-.668-.237-.558-.064-1.166.385-1.356"/>
        <path stroke="#d1524b" stroke-linecap="round" stroke-miterlimit="10" stroke-width=".111" d="M28.281 38.917a.37.37 0 0 1 .325-.025.8.8 0 0 1 .279.195c.135.136.25.295.336.468"/>
        <path stroke="#d1524b" stroke-linecap="round" stroke-miterlimit="10" stroke-width=".111" d="M28.563 39.67a.9.9 0 0 1 .35-.534"/>
        <path fill="#ffb898" d="M28.133 35.576c.137 1.129.374 2.245.744 3.356a3.196 3.196 0 0 0 3.59 2.138q.495-.09.971-.258c1.29-.459 2.053-1.796 1.824-3.146a27 27 0 0 0-.964-3.903 4.62 4.62 0 0 0-3.453-.522c-1.158.288-2.191 1.051-2.712 2.335"/>
        <path fill="#402037" d="M35.753 37.432c.008-.76.015-1.528-.145-2.271s-.502-1.471-1.086-1.958c-.546-.455-1.255-.664-1.954-.794-.903-.166-1.863-.21-2.712.14-1.061.44-1.821 1.486-2.01 2.62-.188 1.133.167 2.472.916 3.399a14.6 14.6 0 0 1-.143-2.91c1.162-.056 2.273-.754 2.848-1.789.23.512.741.885 1.297.949a1.75 1.75 0 0 1-.241-.75c.228.435.65.763 1.06.907a8.5 8.5 0 0 0 1.614 2.801c.136-.117.273-.236.556-.344"/>
        <path fill="#ffb898" d="M34.67 37.555c.1-.599.57-1.02 1.051-.94.482.08.791.63.692 1.229-.1.598-.57 1.02-1.05.94-.482-.08-.791-.63-.692-1.229"/>
        <path stroke="#d1524b" stroke-linecap="round" stroke-miterlimit="10" stroke-width=".111" d="M36.147 37.304a.36.36 0 0 0-.321.051.8.8 0 0 0-.226.255c-.1.163-.173.345-.217.534"/>
        <path stroke="#d1524b" stroke-linecap="round" stroke-miterlimit="10" stroke-width=".111" d="M36.051 38.101a.9.9 0 0 0-.465-.436"/>
        <path fill="#402037" d="M32.215 37.19a.73.73 0 0 1 .373-.511.73.73 0 0 1 .633-.016c-.356.107-.69.288-1.006.526M30.44 37.657c-.168-.14-.375-.234-.585-.215a.54.54 0 0 0-.468.396c.282-.152.606-.215 1.052-.181M31.844 35.614a.73.73 0 0 1 .607-.41.73.73 0 0 1 .648.342c-.376-.134-.8-.118-1.255.068M30.048 36.124c-.236-.087-.51-.109-.73.01-.22.12-.354.412-.243.635.234-.314.59-.537.973-.645"/>
        <path stroke="#d1524b" stroke-linecap="round" stroke-miterlimit="10" stroke-width=".111" d="M31.075 37.479c-.232.206-.195.635.077.784M31.176 39.135a1.65 1.65 0 0 0 1.618-.65"/>
        <path fill="#3a5385" d="M26.066 64.293c-.307-2.487-.715-4.962-1.261-7.105-2.169-.727-4.46-1.1-6.821-1.279a16.8 16.8 0 0 0 1.069 8.712c2.318.207 4.66.157 7.013-.328"/>
        <path stroke="#252e57" stroke-miterlimit="10" stroke-width=".111" d="M21.016 57.147a30.3 30.3 0 0 0 1.28 7.646"/>
        <path fill="#ffb898" d="M24.291 45q-.06.665-.038 1.33c-1.053-.425-2.108-.849-3.144-1.552.223-.414.384-.861.552-1.34l.1-.288.046-.13 1.359.376c.42.118.85.24 1.301.371q-.124.613-.176 1.233"/>
        <path fill="#402037" d="M24.466 43.768q-.124.612-.176 1.233a6.9 6.9 0 0 1-2.63-1.564l.1-.287c.45.149.923.219 1.405.246.42.118.85.24 1.301.371"/>
        <path fill="#f29f83" d="M33.85 51.345q.004.235.028.469c-2.476.593-4.79.759-7.082.595a7.4 7.4 0 0 1-.92-.501 7 7 0 0 1-.751-.555c.484-.6.96-1.153 1.436-1.703l.251-.29.073.046q.215.136.42.282c.31.217.615.442.977.648a29 29 0 0 0 5.567.284l.03-.002a6 6 0 0 0-.03.727"/>
        <path fill="#f29f83" d="M33.676 51.142c.11-.763.8-1.401 1.57-1.452.163-.011.372.038.403.2.032.168-.16.288-.325.33s-.364.08-.434.236c.402.055.812.052 1.214-.01a1.45 1.45 0 0 1-.863 1.228c-.485.205-1.083.112-1.565-.532"/>
        <path fill="#402037" d="M27.304 49.688c-.3.834-.793 1.6-1.428 2.22a7 7 0 0 1-.751-.555c.484-.6.96-1.154 1.436-1.703q.163-.125.324-.244z"/>
        <path fill="#fff" d="M25.227 58.014c-2.531-.141-5.045-.595-7.414-1.49.294-3.553.83-7.268 1.94-10.753a2.132 2.132 0 0 1 2.934-1.282c.68.313 1.242.833 1.77 1.365 1.07 1.08 2.05 2.25 3.087 3.547a7.8 7.8 0 0 1-2.052 2.267c-.089 2.141-.176 4.282-.265 6.346"/>
        <path stroke="#bd99a1" stroke-linecap="round" stroke-linejoin="round" stroke-miterlimit="10" stroke-width=".111" d="M25.515 51.702c-.297.27-.467.502-.882.745a31.3 31.3 0 0 1-3.524-3.958"/>
        <path fill="#f29f83" d="M25.915 40.869c.172-.582.691-.942 1.159-.803.467.138.707.722.534 1.304s-.69.942-1.158.803-.707-.722-.535-1.304"/>
        <path stroke="#d1524b" stroke-linecap="round" stroke-miterlimit="10" stroke-width=".111" d="M27.413 40.8a.36.36 0 0 0-.325.012.8.8 0 0 0-.256.226c-.118.149-.214.32-.281.502"/>
        <path stroke="#d1524b" stroke-linecap="round" stroke-miterlimit="10" stroke-width=".111" d="M27.22 41.58a.9.9 0 0 0-.407-.49"/>
        <path fill="#ffb898" d="M26.575 37.09c.242 1.687.242 3.407.01 5.101a2.25 2.25 0 0 1-2.032 1.944q-.553.047-1.105.037c-1.605-.025-2.944-1.262-3.061-2.861-.095-1.291.06-2.656.405-3.94 1.716-.565 3.584-.66 5.783-.281"/>
        <path fill="#402037" d="M19.543 40.412c-.12-.844-.163-1.38.007-2.216.17-.835.688-1.651 1.703-2.044.49-.65 1.347-.93 2.161-.948 1.353-.03 2.733.622 3.46 1.763.727 1.14.704 2.75-.077 3.81a11.1 11.1 0 0 0-.8-3.446 1.85 1.85 0 0 1-1.237 1.17c.254-.326.44-.703.543-1.103-.732.613-1.72.91-2.669.804.305-.25.542-.584.677-.955-.619.688-1.369 1.257-2.048 1.597-.401.774-.721 1.88-.902 2.732-.214-.224-.627-.71-.819-1.164"/>
        <path fill="#ffb898" d="M19.608 40.38c.449-.19 1.005.11 1.241.668.237.559.065 1.166-.384 1.356s-1.005-.108-1.242-.667c-.236-.56-.064-1.166.385-1.357"/>
        <path stroke="#d1524b" stroke-linecap="round" stroke-miterlimit="10" stroke-width=".111" d="M19.352 41.147a.37.37 0 0 1 .324-.024.8.8 0 0 1 .28.195c.134.135.249.295.335.467"/>
        <path stroke="#d1524b" stroke-linecap="round" stroke-miterlimit="10" stroke-width=".111" d="M19.633 41.9a.9.9 0 0 1 .35-.533"/>
        <path fill="#402037" d="M23.278 39.007a.82.82 0 0 0-.77-.438.82.82 0 0 0-.7.545c.394-.253.911-.3 1.47-.107M25.113 39.07a.84.84 0 0 1 .78-.343.84.84 0 0 1 .664.534c-.383-.238-.868-.31-1.444-.192M23.423 40.494a1.08 1.08 0 0 0-.709-.447 1 1 0 0 0-.784.232c.372-.056.96-.036 1.493.215M24.867 40.592c.227-.13.462-.262.721-.293.26-.03.552.064.676.295-.43-.107-.92-.081-1.397-.002"/>
        <path stroke="#d1524b" stroke-linecap="round" stroke-miterlimit="10" stroke-width=".111" d="M24.394 40.4a.59.59 0 0 1-.109.721"/>
        <path fill="#911f34" d="M24.765 41.777a4 4 0 0 1-1.33-.287c-.172-.069-.375-.149-.532-.051-.15.093-.175.305-.137.476.088.402.44.72.84.819.398.1.831.001 1.182-.214.143-.087.283-.205.32-.368.036-.163-.084-.364-.343-.375"/>
        <path fill="#ffb898" d="M40.135 50.735a.76.76 0 0 1-.55.71 30 30 0 0 1-5.273 1.057 43 43 0 0 1-.328-1.43 17.6 17.6 0 0 0 3.361-1.713 2.7 2.7 0 0 0-.032-.59l-.005-.042a35 35 0 0 1 2.572-.87q.046.235.082.473c.127.785.188 1.584.173 2.405"/>
        <path fill="#402037" d="M39.963 48.33q-1.314.278-2.649.438l-.005-.04c.836-.314 1.69-.618 2.572-.872q.046.236.082.474"/>
        <path fill="#ffb898" d="M34.24 51.214c-.264-.083-.48-.27-.693-.448-.211-.179-.44-.356-.71-.413-.27-.058-.596.044-.709.3.156.078.313.156.57.341a2.98 2.98 0 0 1-1.693 1.398c-.097.031-.204.063-.254.15-.084.145.062.335.227.36s.326-.06.472-.141c.113.215.418.3.626.175.676.147 2.338-.435 2.338-.435s-.288-.871-.174-1.287"/>
        <path fill="#ffc5a3" d="M19.496 45.843c.713.332 1.087 1.113 1.346 1.854s.482 1.541 1.055 2.079c.08.076.175.157.186.269.015.145-.13.268-.277.279-.146.011-.285-.059-.409-.136a2.9 2.9 0 0 1-.863-.821l.846 2.657c.056.179.098.408-.05.522-.099.076-.244.058-.35-.008-.104-.065-.178-.17-.288-.264a.513.513 0 0 1-.751.1c-.154.27-.613.276-.776.01-.15.115-.377.065-.515-.063-.138-.127-.21-.31-.271-.487-.563-1.597-.851-3.301-.697-4.983z"/>
        <path stroke="#d1524b" stroke-linecap="round" stroke-miterlimit="10" stroke-width=".111" d="M20.636 52.133a5.25 5.25 0 0 1-.886-2.065M19.82 52.304a6.5 6.5 0 0 1-.816-2.119M19.055 52.27a6.9 6.9 0 0 1-.543-1.848"/>
    </g>
    <defs>
        <clipPath id="a">
            <path fill="#fff" d="M5.805 8.5h55.39v49H5.806z"/>
        </clipPath>
    </defs>
</svg>
