<svg xmlns="http://www.w3.org/2000/svg" width="82" height="82" fill="none" viewBox="0 0 82 82">
    <path fill="#fb7c78" d="m.424 49.893 36.772 21.23 36.84-21.27-36.806-21.17z"/>
    <path fill="#fb7c78" d="M4.578 49.895 37.23 31.078l32.648 18.779-32.683 18.869z" opacity=".3"/>
    <path fill="#fa595c" d="M.424 49.893v7.32l36.772 21.23v-7.32zM74.036 49.853l-36.84 21.27v7.32l36.84-21.27z"/>
    <path fill="#f04e70" d="m56.106 45.09.318-.108s-.246-3.82-2.027-6.736c-1.652-2.707-2.923-3.384-2.923-3.384l-.359.198s3.78 3.46 4.991 10.03"/>
    <path fill="#c73855" d="M51.115 35.06s4.134 2.789 4.991 10.03c-1.725-1.907-3.419-3.449-4.99-3.605z"/>
    <path fill="#fff" d="M53.413 44.992c.009 1.9-2.211 3.449-4.958 3.461-2.749.013-4.983-1.517-4.991-3.416l-.062-13.493 9.95-.045.058 13.386q.003.053.003.107"/>
    <path fill="#fb7c78" d="M53.352 31.499s-1.504 2.025-4.967 2.041-4.983-1.996-4.983-1.996.422-7.172 4.926-11.016c4.538 3.803 5.024 10.971 5.024 10.971"/>
    <path fill="#fa595c" d="M53.352 31.499s-1.504 2.025-4.967 2.041-4.983-1.996-4.983-1.996c1.355 1.154 5.643 2.246 6.732-.943s-1.806-10.073-1.806-10.073c4.538 3.803 5.024 10.971 5.024 10.971"/>
    <path fill="#c73855" d="M53.423 47.23c.008 1.9-2.212 3.449-4.96 3.461s-4.982-1.517-4.99-3.416l-.01-2.238c.008 1.9 2.243 3.43 4.99 3.416 2.696-.012 4.884-1.504 4.957-3.355l.01 2.025z"/>
    <path fill="#f04e70" d="M53.418 46.312q0 .054-.002.107c-.073 1.85-2.261 3.343-4.956 3.355-2.748.012-4.983-1.517-4.991-3.417l-.006-1.32c.008 1.9 2.243 3.43 4.99 3.416 2.696-.012 4.884-1.504 4.957-3.355l.005 1.108q.003.051.003.106"/>
    <path fill="#dde3e8" d="M53.418 42.956q0 .054-.002.107c-.073 1.85-2.261 3.343-4.956 3.355-2.748.013-4.983-1.517-4.991-3.416l-.006-1.32c.008 1.899 2.243 3.428 4.99 3.416 2.696-.012 4.884-1.505 4.957-3.355l.005 1.107q.003.052.003.106"/>
    <path fill="#dde3e8" d="M53.418 39.885q0 .055-.002.106c-.073 1.851-2.261 3.343-4.956 3.356-2.748.012-4.983-1.517-4.991-3.417l-.006-1.32c.008 1.9 2.243 3.429 4.99 3.416 2.696-.012 4.884-1.504 4.957-3.355l.005 1.107q.003.053.003.107"/>
    <path fill="#fff" d="M47.854 48.011c.017 3.671-4.274 6.666-9.584 6.69-5.311.025-9.63-2.931-9.646-6.603l-.118-26.077 19.23-.088.112 25.872q.006.102.006.206"/>
    <path fill="#fb7c78" d="M47.736 21.933s-2.906 3.915-9.6 3.945-9.63-3.857-9.63-3.857.816-13.862 9.52-21.291c8.77 7.35 9.71 21.203 9.71 21.203"/>
    <path fill="#fa595c" d="M47.736 21.933s-2.906 3.915-9.6 3.945-9.63-3.857-9.63-3.857c2.62 2.23 10.905 4.34 13.01-1.822C43.623 14.035 38.027.73 38.027.73c8.77 7.35 9.71 21.203 9.71 21.203"/>
    <path fill="#c73855" d="M47.874 52.336c.017 3.672-4.274 6.667-9.583 6.691-5.312.024-9.63-2.932-9.646-6.603l-.02-4.326c.017 3.672 4.334 6.628 9.646 6.604 5.21-.024 9.438-2.908 9.58-6.485l.017 3.913q.006.102.006.206"/>
    <path fill="#f04e70" d="M47.866 50.563q.001.105-.004.206c-.141 3.577-4.37 6.461-9.58 6.485-5.31.024-9.629-2.932-9.645-6.604l-.012-2.552c.017 3.672 4.334 6.628 9.646 6.604 5.21-.024 9.438-2.908 9.58-6.485l.01 2.14q.005.102.005.206"/>
    <path fill="#dde3e8" d="M47.843 45.243q0 .105-.004.206c-.142 3.577-4.37 6.461-9.58 6.485-5.311.024-9.63-2.932-9.646-6.604l-.011-2.551c.016 3.67 4.334 6.627 9.645 6.603 5.21-.024 9.439-2.908 9.58-6.485l.01 2.14q.005.102.006.206"/>
    <path fill="#dde3e8" d="M47.816 39.568q0 .105-.005.206c-.14 3.577-4.37 6.461-9.58 6.484-5.31.025-9.629-2.932-9.645-6.603l-.012-2.552c.017 3.672 4.335 6.628 9.646 6.604 5.21-.024 9.439-2.908 9.58-6.485l.01 2.14q.005.102.006.206"/>
    <path fill="#fff" d="M32.503 52.323c.009 1.899-2.211 3.449-4.959 3.461s-4.982-1.517-4.99-3.416l-.062-13.493 9.95-.045.058 13.386q.003.052.003.106"/>
    <path fill="#fb7c78" d="M32.442 38.83s-1.504 2.025-4.967 2.04c-3.463.017-4.983-1.995-4.983-1.995s.422-7.172 4.926-11.016c4.538 3.803 5.024 10.97 5.024 10.97"/>
    <path fill="#fa595c" d="M32.442 38.83s-1.504 2.025-4.967 2.04c-3.463.017-4.983-1.995-4.983-1.995 1.355 1.154 5.643 2.245 6.732-.943S27.418 27.86 27.418 27.86c4.538 3.802 5.024 10.97 5.024 10.97"/>
    <path fill="#c73855" d="M32.513 54.56c.008 1.9-2.212 3.45-4.96 3.462s-4.982-1.517-4.99-3.416l-.01-2.238c.008 1.9 2.243 3.429 4.99 3.416 2.696-.012 4.884-1.504 4.957-3.355l.01 2.025z"/>
    <path fill="#f04e70" d="M32.508 53.643q0 .055-.002.106c-.073 1.851-2.261 3.343-4.956 3.356-2.749.012-4.983-1.517-4.991-3.417l-.006-1.32c.008 1.9 2.243 3.429 4.99 3.416 2.696-.012 4.884-1.504 4.957-3.355l.005 1.107q.003.053.003.107"/>
    <path fill="#dde3e8" d="M32.508 50.377q0 .053-.002.106c-.073 1.85-2.261 3.343-4.956 3.356-2.749.012-4.983-1.518-4.991-3.417l-.006-1.32c.008 1.899 2.243 3.429 4.99 3.416 2.696-.012 4.884-1.505 4.957-3.355l.005 1.107q.003.052.003.107"/>
    <path fill="#dde3e8" d="M32.508 47.47q0 .055-.002.107c-.073 1.851-2.261 3.343-4.956 3.356-2.749.012-4.983-1.517-4.991-3.417l-.006-1.32c.008 1.9 2.243 3.429 4.99 3.416 2.696-.012 4.884-1.504 4.957-3.355l.005 1.107q.003.053.003.107"/>
    <path fill="#c73855" d="M42.692 38.507c2.324 0 4.207-2.447 4.207-5.465 0-3.02-1.883-5.466-4.207-5.466s-4.208 2.447-4.208 5.465c0 3.02 1.884 5.466 4.208 5.466"/>
    <path fill="#f04e70" d="M43.108 38.507c2.324 0 4.207-2.447 4.207-5.465 0-3.02-1.883-5.466-4.207-5.466S38.9 30.023 38.9 33.04c0 3.02 1.884 5.466 4.208 5.466"/>
    <path fill="#c73855" d="M46.79 33.084c0 2.508-1.564 4.54-3.495 4.54a2 2 0 0 1-.18-.007c-1.845-.121-3.314-2.104-3.314-4.533s1.469-4.411 3.314-4.533a1.836 1.836 0 0 1 .18-.006c1.93 0 3.494 2.032 3.494 4.54"/>
    <path fill="#80b4d6" d="M46.449 33.084c0 2.429-1.47 4.412-3.315 4.533a1.745 1.745 0 0 1-.225-.024c-1.748-.247-3.108-2.171-3.108-4.509 0-2.337 1.36-4.262 3.108-4.509a2 2 0 0 1 .225-.024c1.846.122 3.315 2.105 3.315 4.533"/>
    <path fill="#9dc8eb" d="M46.015 33.084c0 2.337-1.36 4.26-3.106 4.51-1.748-.248-3.108-2.172-3.108-4.51s1.36-4.262 3.108-4.509c1.746.249 3.106 2.172 3.106 4.51"/>
    <path fill="#f04e70" d="m19.827 54.154-.354-.121s.274-4.257 2.259-7.508c1.841-3.017 3.258-3.772 3.258-3.772l.4.221s-4.214 3.856-5.564 11.18"/>
    <path fill="#c73855" d="M25.39 42.975s-4.609 3.107-5.564 11.179c1.924-2.126 3.811-3.845 5.563-4.019z"/>
    <path fill="#28225e" d="M42.555 63.206a.433.433 0 0 0 .462-.482l-3.862-32.73a.433.433 0 0 0-.859.101l3.861 32.73c.025.21.196.367.398.381M48.352 60.142a.432.432 0 0 0 .461-.482L44.99 27.249a.432.432 0 1 0-.859.101l3.824 32.411c.025.21.195.366.398.381"/>
    <path fill="#28225e" d="M39.2 32.414a.43.43 0 0 0 .22-.042l5.48-2.653a.432.432 0 1 0-.377-.779l-5.48 2.653a.432.432 0 0 0 .157.821M39.788 37.165a.43.43 0 0 0 .22-.042l5.54-2.682a.432.432 0 1 0-.378-.778l-5.54 2.682a.432.432 0 0 0 .158.82M40.374 41.917a.43.43 0 0 0 .22-.042l5.514-2.67a.432.432 0 1 0-.377-.779l-5.514 2.67a.432.432 0 0 0 .157.82M40.962 46.669a.43.43 0 0 0 .22-.043l5.474-2.65a.432.432 0 1 0-.377-.779l-5.474 2.65a.432.432 0 0 0 .157.822M41.548 51.42a.43.43 0 0 0 .22-.042l5.431-2.63a.432.432 0 1 0-.377-.779l-5.431 2.63a.433.433 0 0 0 .157.821M42.136 56.171a.43.43 0 0 0 .22-.042l5.438-2.633a.432.432 0 0 0-.377-.779l-5.439 2.634a.433.433 0 0 0 .158.82M42.724 60.923a.43.43 0 0 0 .22-.042l5.413-2.621a.432.432 0 1 0-.377-.779l-5.414 2.621a.433.433 0 0 0 .158.821M61.186 64.64a.38.38 0 0 0-.263.296 3 3 0 0 0-.042.53v.792s.151.216.608.305l.127-.074s1.026.741 1.51.803c.631.082 1.287-.183.782-.803-.476-.586-1.196-.837-1.397-1.3a.5.5 0 0 0-.09-.151c-.338-.367-.738-.54-1.235-.397"/>
    <path fill="#ffb591" d="m61.283 63.634-.093 1.28s.425.356.944.155l.207-1.392s-.69-.216-1.058-.043"/>
    <path fill="#9dc8eb" d="m59.44 52.348 3.447 2.719c.358.347.62.891.563 1.387-.247 2.13-.47 5.032-.731 6.295q-.003.009-.005.022l-.06.28-.029.135c-.072.34-.284 1.405-.284 1.405-.474.099-.835.03-1.332-.15 0 0 .088-2.656.14-3.912.047-1.15.094-2.842.142-3.162-1.893-1.273-3.58-2.456-4.092-3.123.794-1.09 2.242-1.896 2.242-1.896"/>
    <path fill="#28225e" d="M65.05 62.626a.38.38 0 0 0-.263.295 3 3 0 0 0-.043.53v.792s.151.216.608.305l.127-.074s1.027.741 1.51.803c.631.082 1.287-.183.782-.803-.476-.586-1.196-.837-1.397-1.3a.5.5 0 0 0-.089-.151c-.34-.367-.739-.54-1.236-.397"/>
    <path fill="#ffb591" d="m65.148 61.62-.093 1.279s.425.357.944.155l.207-1.392s-.69-.216-1.058-.043"/>
    <path fill="#9dc8eb" d="m63.156 49.267 3.592 3.785c.358.348.62.891.563 1.388-.247 2.13-.47 5.031-.73 6.294l-.006.023-.059.28-.03.135c-.072.339-.283 1.405-.283 1.405-.474.098-.836.03-1.332-.15 0 0 .088-2.657.14-3.913.047-1.15.174-2.99.223-3.31-2-1.5-2.971-2.684-3.742-3.345.794-1.09 1.664-2.592 1.664-2.592"/>
    <path fill="#9dc8eb" d="M57.01 52.703v1.104c0 .431.545.824.919.608l4.95-2.934c.172-.1.359-.423.359-.623v-1.104c0-.431-.337-1.343-.71-1.127l-5.439 2.643c-.173.1-.08 1.233-.08 1.433"/>
    <path fill="#c73855" d="M62.078 39.052s1.375.36 1.667 2.683c.484 3.856 1.406 8.031 1.666 8.038 0 0-.264 0-1.002.331 0 0-1.172-2.203-1.55-3.587-.873-3.197-.723-5.705-.78-7.465"/>
    <path fill="#f04e70" d="M63.158 41.13v8.137c-.09.141-.386.272-.545.354-3.47 1.806-4.087 2-5.082 2.217-.443.096-.64-.143-.595-.8.181-2.624-.383-9.278.018-9.862.318-.464 1.154-.901 2.365-1.595 1.211-.69 2.25-.644 2.834-.507.595.14.936.517 1.005 2.055"/>
    <path fill="#ffb591" d="m61.149 38.513-.383 1.735c-.76.339-1.283.146-1.663-.367l.383-1.735q.948-.345 1.663.367"/>
    <path fill="#ff8671" d="m60.994 39.217-.155.703c-1.126.041-1.41-1.515-1.41-1.515z"/>
    <path fill="#ffb591" d="m59.486 35.17-.34 1.538c-.194.88.14 1.804.873 2.33.395.283.882.546 1.441.682a1.066 1.066 0 0 0 1.289-.81l.702-3.187s-2.324-1.782-3.965-.554"/>
    <path fill="#28225e" d="M64.296 35.03c-.055.786-.924.77-.924.77-.794-.41-2.07-.321-2.07-.321-.051.239-.243.374-.477.549a.4.4 0 0 0-.093.105l-.002.005c-.024.092-.413 1.542-.266 2.076a.7.7 0 0 0 .07.161c.253-.39.857-.605 1.231-.673.433-.08.879.237.879.237.239-.043.328.07.328.07.136.285-.135.614-.135.614s-.058-.185-.273-.215c-.18-.024-.346-.062-.728-.142-.261-.053-.7.276-.953.488.375.287.911.471 1.268.409.55-.097.628-.391.628-.391s.043 1.27-1.174 1.323c-1.217.054-1.953-1.195-1.963-1.69s.53-1.77.53-1.77l.001-.002.083-.27-.361.28c-.513.449-.601 1.51-.601 1.51-.69-.492-.315-2.315-.2-3.028.112-.715.674-.753.674-.753.754-1.045 2.803-.285 3.251-.322.481-.038 1.332.195 1.277.98"/>
    <path fill="#ffb591" d="M60.256 36.363s-.701-.618-.993-.065c-.227.43-.078 1.404.525 1.386z"/>
    <path fill="#88a2ca" d="m61.108 54.89-3.119-1.78a.242.242 0 0 1 .002-.42l3.665-2.057a.24.24 0 0 1 .23-.003l3.13 1.655a.241.241 0 0 1 .011.422l-3.676 2.182a.24.24 0 0 1-.243.002"/>
    <path fill="#c0c8ce" d="m61.108 54.523-3.119-1.78a.242.242 0 0 1 .002-.421l3.665-2.057a.24.24 0 0 1 .23-.003l3.13 1.656a.242.242 0 0 1 .011.421l-3.676 2.182a.24.24 0 0 1-.243.002"/>
    <path fill="#dde3e8" d="M57.87 52.889v-.345l3.224 1.777.179.67-3.27-1.87a.27.27 0 0 1-.134-.232"/>
    <path fill="#dde3e8" d="M61.094 50.705v3.98c0 .207.171.354.356.352h.687v-.344l5.009-2.891a.36.36 0 0 0 .176-.306V47.73h.324v-.567h-.682a.33.33 0 0 0-.171.046L61.27 50.4a.35.35 0 0 0-.176.306"/>
    <path fill="#fff" d="M67.468 47.21 61.946 50.4a.35.35 0 0 0-.176.306v3.979c0 .272.294.441.53.306L67.82 51.8a.35.35 0 0 0 .177-.305v-3.98a.353.353 0 0 0-.53-.305"/>
    <path fill="#c0c8ce" d="M64.734 51.26c-.001.312.181.566.408.567.227 0 .411-.251.413-.563.001-.311-.181-.565-.408-.566-.226 0-.411.251-.413.563"/>
    <path fill="#c73855" d="M56.954 41.176s-1.597 4.306-.95 6.559c.547 1.91 3.287 3.752 4.67 4.124 0 0 .245-.427.422-.912 0 0-2.084-.948-3.305-3.907-.627-1.52.548-3.95.548-3.95s.2-1.752-1.385-1.914"/>
    <path fill="#ffb591" d="m60.674 51.859.421.206v-1.117z"/>
    <path fill="url(#a)" d="M67.648 47.163h-.681a.3.3 0 0 0-.17.047l-5.524 3.189a.35.35 0 0 0-.177.306v3.615l-3.633-4.162c.08-5.22 3.354-7.958 8.584-9.18z"/>
    <path fill="#fb7c78" d="M16.841 46.448c2.913 0 5.275-.827 5.275-1.847s-2.362-1.847-5.275-1.847-5.275.827-5.275 1.847 2.362 1.847 5.275 1.847" opacity=".5"/>
    <path fill="#fff" d="M13.719 43.02a.38.38 0 0 0-.262.295 3 3 0 0 0-.043.53v.792s.151.217.608.305l.127-.074s1.027.741 1.51.804c.631.081 1.287-.184.782-.804-.476-.585-1.196-.837-1.397-1.3a.5.5 0 0 0-.089-.151c-.34-.367-.739-.54-1.236-.397"/>
    <path fill="#ffb591" d="m13.818 42.014-.093 1.28s.425.356.944.154l.207-1.391s-.69-.216-1.058-.044"/>
    <path fill="#28225e" d="M13.543 42.822c.498.178.86.247 1.334.148 0 0 .21-1.065.282-1.404l.03-.135q.027-.136.058-.28l.005-.023c.298-1.438.73-3.742.985-5.557v-6.168s-1.067-.3-2.171.315v5.776c-.049.32-.336 2.263-.383 3.414-.052 1.256-.14 3.914-.14 3.914"/>
    <path fill="#fff" d="M17.727 42.223a.38.38 0 0 0-.263.295 3 3 0 0 0-.042.53v.792s.151.217.607.305l.128-.074s1.026.742 1.51.804c.631.081 1.287-.184.782-.804-.476-.585-1.196-.837-1.397-1.3a.5.5 0 0 0-.09-.151c-.339-.366-.738-.54-1.235-.397"/>
    <path fill="#ffb591" d="m17.826 41.217-.094 1.28s.426.356.945.154l.207-1.391s-.69-.216-1.058-.043"/>
    <path fill="#28225e" d="M17.566 42.067q.651.324 1.317.106s.239-1.388.312-1.727q.012-.065.029-.135.027-.13.059-.28l.005-.023.031-.152c.296-1.445.708-3.652.954-5.405v-6.168s-1.068-.299-2.172.315v5.777c-.048.32-.335 2.263-.382 3.413-.052 1.257-.153 4.28-.153 4.28"/>
    <path fill="#28225e" d="M14.049 30.2v1.103c0 .431.545.824.919.609l4.95-2.935c.173-.1.36-.423.36-.623V27.25c0-.43-.338-1.343-.711-1.127l-5.439 2.643c-.173.1-.08 1.233-.08 1.433"/>
    <path fill="#c73855" d="M19.117 16.548s1.718.528 1.573 2.864c-.144 2.335.822 3.135 3.287 3.027 0 0-.251.482-.1 1.067 0 0-1.56.332-2.898-.202-2.2-.878-1.804-4.996-1.862-6.756"/>
    <path fill="#f04e70" d="M20.197 18.626v8.137c-.09.141-.386.272-.545.355-3.47 1.805-4.087 2-5.082 2.216-.443.097-.64-.142-.595-.8.181-2.623-.383-9.277.018-9.862.318-.464 1.154-.901 2.365-1.595 1.211-.69 2.25-.644 2.834-.507.595.14.936.517 1.005 2.055"/>
    <path fill="#ffb591" d="m18.292 15.74-.251 1.759c-.733.395-1.269.242-1.686-.241l.252-1.759q.92-.417 1.685.241"/>
    <path fill="#ff8671" d="m18.19 16.454-.101.713c-.884-.2-1.519-1.406-1.519-1.406z"/>
    <path fill="#ffb591" d="m16.381 12.53-.223 1.56a2.26 2.26 0 0 0 1.045 2.257c.415.253.92.48 1.488.574a1.066 1.066 0 0 0 1.224-.904l.462-3.232s-2.45-1.602-3.996-.255"/>
    <path fill="#28225e" d="M20.305 12.87s.867-.051.863-.838-.87-.957-1.347-.883c-.444.07-2.544-.533-3.218.565 0 0-.557.08-.616.8-.06.72-.297 2.567.428 3.004 0 0 .008-1.062.485-1.548l.34-.307-.092.4a.4.4 0 0 0 .433-.316c.035-.175.096-.369.202-.461.218-.192.4-.341.434-.584 0 0 1.265-.183 2.088.168"/>
    <path fill="#ffb591" d="M17.238 13.663s-.745-.563-.995.01c-.194.445.084 1.544.692 1.324z"/>
    <path fill="url(#b)" d="m25.194 19.81-1.26-6.552c-5.231 1.22-8.506 3.958-8.584 9.18l3.438 4.253z"/>
    <path fill="#dde3e8" d="M25.5 20.134a.5.5 0 0 1-.014.33l-2.177 5.53a.5.5 0 0 1-.382.311l-2.297.386-1.01.172-.05.038.03.213-.54-.211-.046-.018a.5.5 0 0 1-.268-.642l2.193-5.62a.5.5 0 0 1 .393-.312l3.618-.526a.5.5 0 0 1 .274.037l.537.213z"/>
    <path fill="#fff" d="m26.023 20.675-2.177 5.531a.5.5 0 0 1-.382.31l-3.632.613a.5.5 0 0 1-.549-.675l2.192-5.619a.5.5 0 0 1 .394-.313l3.617-.524a.5.5 0 0 1 .537.677"/>
    <path fill="#dde3e8" d="M22.44 23.641c-.16.406-.086.815.166.914s.585-.15.745-.555c.16-.406.085-.815-.167-.914-.251-.1-.585.15-.744.555"/>
    <path fill="#c73855" d="M13.994 18.672s-1.558 3.128-1.063 6c.496 2.87 5.039 1.485 6.259.922l-.402-1.06s-3.033.412-3.612.023c-.476-.32-.211-1.942.108-3 .177-.583.195-1.208.005-1.787-.192-.59-.567-1.164-1.295-1.098"/>
    <path fill="#ffb591" d="M18.787 24.535s.224-.407.613-.645c.39-.237.638-.173.649-.097.01.076-.411.281-.411.41 0 .13 1.16-.367 1.373-.291s.238 1.178-.216 1.427-1.606.255-1.606.255zM25.433 22.669c.035-.026.087-.213-.107-.232l-.101.258a.22.22 0 0 0 .208-.026M24.523 23.976a.2.2 0 0 0 .04.018l-.003.004q.156.082.303.103c.31.04.718-.88.605-1.064a.44.44 0 0 0-.195-.146s-.02-.01-.053-.022a1 1 0 0 0-.117-.04c-.089-.022-.189-.028-.237.034-.097.122-.609.95-.343 1.113"/>
    <path fill="#28225e" d="M17.24 46.5s.706 1.638.56 2.805c-.145 1.166.056 2.614.508 3.772.45 1.158.602 1.882.267 2.428-.335.547-4.069-.714-4.927-.97s-.468-3.192-.338-4.2-.445-3.744-.445-3.744z"/>
    <path fill="#fff" d="M18.228 77.244a.38.38 0 0 1 .263.294c.023.122.044.296.045.53l.004.792s-.15.217-.606.308l-.128-.074s-1.023.746-1.507.81c-.63.085-1.287-.177-.785-.8.473-.587 1.192-.842 1.39-1.306a.5.5 0 0 1 .09-.152c.337-.367.736-.543 1.234-.402"/>
    <path fill="#ffb591" d="m18.124 76.238.099 1.279s-.424.359-.944.16l-.213-1.391s.69-.22 1.058-.048"/>
    <path fill="#28225e" d="M18.405 77.045c-.497.18-.859.25-1.333.154 0 0-.214-1.064-.289-1.403l-.03-.135q-.028-.135-.06-.28l-.005-.022c-.304-1.437-.747-3.74-1.01-5.553l-.028-6.168s1.066-.304 2.173.305l-.176 5.769c.05.32.388 2.338.44 3.489.057 1.256.318 3.844.318 3.844"/>
    <path fill="#fff" d="M15.07 76.465a.38.38 0 0 1 .263.294c.023.122.044.296.045.53l.004.792s-.15.217-.607.308l-.127-.074s-1.024.746-1.507.81c-.63.085-1.287-.177-.786-.8.474-.587 1.193-.842 1.391-1.306a.5.5 0 0 1 .089-.151c.338-.368.736-.544 1.234-.403"/>
    <path fill="#ffb591" d="m14.965 75.46.1 1.278s-.424.36-.944.16l-.213-1.39s.689-.22 1.057-.049"/>
    <path fill="#28225e" d="M15.23 76.309q-.65.326-1.317.111s-.245-1.386-.32-1.725q-.012-.064-.03-.135-.026-.13-.06-.28l-.005-.022-.031-.152c-.303-1.444-.725-3.65-.978-5.4l-.028-6.169s.92-.324 2.026.285l.173 5.797c.05.32.346 2.261.398 3.412.057 1.256.171 4.278.171 4.278"/>
    <path fill="#28225e" d="m17.874 63.87-.096 1.544c.002.431-1.45-.131-1.824-.345l-3.135-1.84c-.174-.099-.362-.421-.363-.621l-.005-1.104c-.002-.431.331-1.344.706-1.13l3.679 1.907c.174.099 1.102.249 1.038 1.59"/>
    <path fill="#ffb591" d="M8.728 56.71s-.572-.261-.953.066c-.38.328-.098 1.19.122 1.211s.936-.21.936-.21.305-.685-.105-1.067"/>
    <path fill="#7ca0d1" d="M13.226 51.196s-.983.034-.983 2.499c0 2.34-1.048 3.111-3.513 3.015 0 0 .254.48.105 1.066 0 0 1.561.326 2.897-.215 2.197-.888 1.444-4.605 1.494-6.365"/>
    <path fill="#fff" d="M8.056 56.7v1.456c0 .243-.49.44-1.092.44-.604 0-1.093-.197-1.093-.44V56.7z"/>
    <path fill="#fff" d="M8.101 58.063a.535.535 0 0 1-.539-.53c0-.293.242-.53.54-.53.297 0 .538.237.538.53 0 .292-.241.53-.539.53m0-.846a.32.32 0 0 0-.324.316.32.32 0 0 0 .324.316.32.32 0 0 0 .325-.316.32.32 0 0 0-.325-.316"/>
    <path fill="#e0e0e0" d="M8.056 56.7c0 .243-.489.44-1.092.44s-1.093-.197-1.093-.44.49-.44 1.093-.44 1.092.197 1.092.44"/>
    <path fill="#28225e" d="M7.92 56.7a.1.1 0 0 1-.021.05c-.085.107-.425.253-.935.253s-.85-.146-.935-.254a.1.1 0 0 1-.021-.05c0-.106.363-.302.956-.302.592 0 .955.196.955.303"/>
    <path fill="#fa595c" d="M7.9 56.75c-.086.107-.426.253-.936.253s-.85-.146-.935-.254c.085-.108.425-.253.935-.253s.85.145.935.253"/>
    <path fill="#ffb591" d="M8.465 57.142s-.33.089-.26.305.22.086.22.086.396.006.456-.15c.06-.158-.152-.673-.152-.673z"/>
    <path fill="#9dc8eb" d="m12.49 52.88.037 8.137c.091.14.387.272.547.352 1.99.999 3.046 1.717 4.042 1.928.443.095.808.03.76-.627-.193-2.623.326-9.705-.133-10.388-.314-.466-.716-.648-1.42-.969-1.27-.577-2.252-.328-2.927-.17-.693.163-.817.65-.906 1.736"/>
    <path fill="#ffb591" d="m14.426 49.815.008 1.744c.66.483 1.201.406 1.671-.007l-.008-1.745q-.838-.529-1.671.008"/>
    <path fill="#ff8671" d="m14.428 50.523.003.707c.886-.075 1.666-1.163 1.666-1.163z"/>
    <path fill="#ffb591" d="m16.984 47.203-.206 1.533a2.22 2.22 0 0 1-1.59 1.853c-.46.128-1.015.297-1.56.144-.227-.063-.373-.364-.475-.873a5 5 0 0 1-.087-1.169l.074-2.315s2.744-.86 3.844.827"/>
    <path fill="#28225e" d="M16.176 47.834c.432-.079.454 1.083 0 1.353-.455.27-.491 2.263-.07 2.365 1.695.412 1.767-2.993 1.259-4.711-.39-1.313-1.383-1.492-1.83-1.502-.854-.294-1.961-.164-2.464.351q-.01.007-.02.018a.9.9 0 0 0-.226.397l-.012.078c-.171.739.216 1.736.263 1.533.112-.505.453-.614.664-.632.232.341.727.938 1.363.912a.58.58 0 0 0 .33-.1s-.049.738.096 1.005c0 0-.025-.945.647-1.067M12.824 46.106c-.024.096.018-.085 0 0"/>
    <path fill="#7ca0d1" d="M17.47 51.963s2.161 1.654 3.457 1.48c0 0 1.183-.55 2.004-1.024.821-.475 1.635-.949 1.635-.949l.311.79s-2.257 2.247-3.493 2.594-3.446-.504-3.446-.504-1.235-.994-.468-2.387"/>
    <path fill="#ffb591" d="M24.566 51.47s-.106-.204-.032-.327.28-.3.344-.325c.065-.024.346-.007.325.123 0 0 .685-.495.858-.353.122.1-.44.519-.44.519s.324.274.31.605c-.015.332-.425.317-.425.317s-.433.296-.628.231-.312-.79-.312-.79"/>
    <path fill="#fff" d="M7.73 31.308c-.784.17-1.099.485-1.27 1.27-.042.194-.317.194-.36 0-.17-.785-.485-1.099-1.27-1.27-.193-.042-.193-.318 0-.36.785-.17 1.1-.485 1.27-1.27.043-.193.318-.193.36 0 .171.785.486 1.1 1.27 1.27.194.042.194.318 0 .36M9.166 34.559c-.409.089-.573.253-.662.662-.022.101-.166.101-.188 0-.089-.41-.253-.573-.662-.662-.101-.022-.101-.166 0-.188.41-.09.573-.253.662-.662.022-.102.166-.102.188 0 .09.409.253.573.662.662.101.022.101.166 0 .188M59.926 23.553c-.785.17-1.1.485-1.27 1.27-.042.193-.318.193-.36 0-.17-.785-.485-1.1-1.27-1.27-.194-.043-.194-.319 0-.36.785-.171 1.1-.486 1.27-1.27.042-.194.318-.194.36 0 .17.784.485 1.099 1.27 1.27.193.041.193.317 0 .36M57.436 20.12c-.41.089-.574.253-.662.662-.022.101-.166.101-.188 0-.09-.41-.253-.573-.663-.662-.1-.022-.1-.166 0-.188.41-.089.574-.253.663-.662.022-.101.166-.101.188 0 .089.41.252.573.662.662.101.022.101.166 0 .188"/>
    <defs>
        <linearGradient id="a" x1="75.146" x2="60.641" y1="62.113" y2="44.192" gradientUnits="userSpaceOnUse">
            <stop stop-color="#fff"/>
            <stop offset="1" stop-color="#fff" stop-opacity="0"/>
        </linearGradient>
        <linearGradient id="b" x1="32.946" x2="18.523" y1="34.288" y2="16.469" gradientUnits="userSpaceOnUse">
            <stop stop-color="#fff"/>
            <stop offset="1" stop-color="#fff" stop-opacity="0"/>
        </linearGradient>
    </defs>
</svg>
