<svg xmlns="http://www.w3.org/2000/svg" width="122" height="109" fill="none"><g clip-path="url(#a)"><path fill="#8CBDDD" d="M73.09 79.199s-3.08 26.904-4.034 33.234-1.802 29.119-1.802 29.119h16.108s1.802-30.385 5.776-42.254c0 0 .106 34.974 1.06 42.254h16.055s-.212-43.046-.848-49.218c-.635-6.172-1.854-13.135-1.854-13.135z"/><mask id="b" width="40" height="63" x="67" y="79" maskUnits="userSpaceOnUse" style="mask-type:luminance"><path fill="#fff" d="M73.09 79.199s-3.08 26.904-4.034 33.234-1.802 29.119-1.802 29.119h16.108s1.802-30.385 5.776-42.254c0 0 .106 34.974 1.06 42.254h16.055s-.212-43.046-.848-49.218c-.635-6.172-1.854-13.135-1.854-13.135z"/></mask><g mask="url(#b)"><path fill="#74A5C5" d="M86.066 94.392c.593.782 1.09 1.606 1.59 2.428l.732 1.24c.246.413.483.827.752 1.238-.4-.293-.725-.67-1.026-1.053-.302-.386-.57-.794-.822-1.21-.246-.419-.48-.845-.685-1.285-.208-.44-.397-.888-.54-1.358"/><path stroke="#74A5C5" stroke-miterlimit="10" stroke-width=".36" d="M102.125 79.357s1.908 9.97 1.908 13.136.635 49.06.635 49.06"/><path stroke="#74A5C5" stroke-miterlimit="10" stroke-width=".36" d="M100.215 79.357s1.122 13.93 3.82 13.928M74.783 79.357s.019 13.138-3.603 13.928M88.183 98.051s-2.433 10.742-3.387 19.288-2.226 24.214-2.226 24.214"/></g><path fill="#FA9161" d="m91.71 22.86 2.544 11.236s-3.338 4.035-7.293 4.035-6.219-2.294-6.219-2.294l.82-12.978z"/><path fill="#F76A3F" d="M86.299 29.744c2.064-.351 4.701-1.718 6.358-2.672l-.954-4.213H81.555l-.344 5.443c1.3.841 3.218 1.76 5.088 1.442"/><path fill="#052130" d="M78.837 18.518c.29 1.913-.26 3.581-1.226 3.726-.967.146-1.986-1.287-2.276-3.2s.26-3.58 1.226-3.726c.967-.145 1.986 1.287 2.276 3.2"/><path fill="#fff" d="M76.856 17.33a.62.62 0 0 1 .473.231c.151.18.337.465.32.757a.84.84 0 0 1-.655.773c-.249.057.625 2.296.195 2.395-.429.098-1.085-3.258-1.063-3.476.018-.186.212-.67.73-.68"/><path fill="#FA9161" d="M77.166 10.311s-1.173 7.211 0 11.057c1.172 3.846 6.14 7.074 8.968 6.662 2.828-.413 7.036-3.71 8.208-6.73 1.173-3.022 2.76-1.649 2.829-4.946s-1.242-4.395-2.898-4.12c0 0-.45-6.868-7.364-6.868-6.915 0-9.515 3.223-9.743 4.945"/><path stroke="#451600" stroke-linecap="round" stroke-miterlimit="10" stroke-width=".72" d="m80.273 18.999.142 1.202"/><path fill="#052130" d="m78.918 17.75 1.817-.343s-1.219-.892-1.817.344"/><path stroke="#451600" stroke-linecap="round" stroke-miterlimit="10" stroke-width=".72" d="m87.857 18.804-.033 1.21"/><path fill="#052130" d="m86.887 17.21 1.937.254s-.278-.526-.905-.608c-.627-.083-1.032.353-1.032.353"/><path fill="#052130" d="M94.346 6.122s-3.174-4.945-9.934-3.915-9.036 5.907-9.382 7.898c-.345 1.991-.897 6.522 1.621 6.248 2.519-.273 3.174-3.776 3.174-3.776s-.38 3.503 1.69 3.297 3.31-3.572 3.31-3.572-.565 3.297 2.063 3.228 4.491-3.708 4.491-3.708.345 4.098 1.173 5.929l.965-.288s-.138-4.508 2.173-4.096.628 5.442-.546 6.438c0 0-.362.338-.799 1.494 0 0 3.472.104 3.978-4.584S96.944 6.122 94.346 6.122"/><path fill="#F76A3F" d="M84.045 19.6q.118.41.193.824.08.412.133.829l.015.119-.132.07c-.227.12-.465.295-.596.502a.79.79 0 0 0-.107.686c.06.234.239.39.515.447.27.055.575.04.878-.005-.266.156-.57.262-.906.26a.95.95 0 0 1-.507-.143.86.86 0 0 1-.343-.436c-.14-.325-.09-.749.118-1.043.211-.295.485-.487.806-.616l-.116.19a13 13 0 0 1-.006-.84c.005-.28.02-.562.055-.844"/><path fill="#fff" d="m83.61 24.739 4.295-.945s.163 2.182-1.627 2.614c-1.791.433-2.669-1.669-2.669-1.669"/><path fill="#F76A3F" d="M95.732 14.083c-.353.081-.62.305-.783.588-.167.283-.257.61-.322.94a8 8 0 0 0-.112 1.013c-.012.34-.023.69-.002 1.024l-.044-.11c.038.05.116.111.15.117.025.007.037.013.09-.049.1-.12.155-.332.213-.54.118-.414.228-.831.312-1.262.054.438.02.883-.034 1.32-.036.213-.047.446-.195.69a.5.5 0 0 1-.18.17.42.42 0 0 1-.283.045.7.7 0 0 1-.388-.236.16.16 0 0 1-.044-.1v-.011a7 7 0 0 1-.012-1.082c.022-.36.075-.72.172-1.073.1-.35.24-.704.486-.995.235-.295.617-.485.976-.449"/><path fill="#fff" d="M95.266 16.42a.61.61 0 0 0-.473.232c-.151.18-.337.464-.32.757a.84.84 0 0 0 .655.773c.249.057-.625 2.296-.195 2.395.429.098 1.085-3.258 1.063-3.476-.018-.186-.212-.67-.73-.681"/><path fill="#EA3934" d="M96.293 32.672c17.011 2.848 18.279 30.702 16.054 35.215s-9.22 0-9.22 0l1.652 9.112a3.3 3.3 0 0 1-1.436 3.352c-2.52 1.655-7.677 4.23-15.371 4.23-7.571 0-12.355-2.164-14.698-3.602a3.29 3.29 0 0 1-1.54-3.135l1.189-11.833s-4.875 2.11-8.584 1.876c-3.71-.234-2.862-15.591.636-24.56C68.472 34.36 78.79 32.515 78.79 32.515s3.361 4.8 8.761 4.8 8.741-4.642 8.741-4.642"/><path fill="#B6231F" d="m78.79 32.513 2.236-1.258s1.648 4.502 6.402 4.502 6.177-4.502 6.177-4.502l2.685 1.417s-2.424 6.172-8.75 6.172-8.75-6.33-8.75-6.33"/><path fill="#0F3945" d="M83.443 43.591h7.178c.227 0 .412.213.416.478l.188 13.192c.004.271-.183.494-.415.494h-6.5c-.217 0-.397-.195-.414-.449l-.867-13.191c-.02-.283.172-.524.414-.524"/><path fill="#F76A3F" d="m79.75 56.03 1.09-2.06a4.7 4.7 0 0 1 .895-1.436l.451-.494a4.7 4.7 0 0 1 2.221-1.362l2.722-.754c.468-.13.758.058.966.42.177.389.145.857-.757 1.164l-1.794.554a2.17 2.17 0 0 0-1.337 1.177l-.479 1.06 4.117-.785q.28-.054.558-.127l1.926-.508a.678.678 0 0 1 .397 1.297l-2.834.975a10 10 0 0 1-.51.16l-2.92.828 2.78-.347q.624-.078 1.216-.294l1.95-.714a.601.601 0 0 1 .441 1.12l-1.829.76q-.766.317-1.564.533l-1.7.459h3.57l-3.329 1.688a8.3 8.3 0 0 1-3.74.894z"/><path fill="#FA9161" d="m95.583 55.868-1.584-1.652-.336-1.508a3.2 3.2 0 0 0-.702-1.398l-.055-.063a6.4 6.4 0 0 0-2.198-1.647l-2.212-1.008a.766.766 0 0 0-.996.342.76.76 0 0 0 .29 1.006l3.011 1.764 1.471 1.307-1.848-1.428-3.094-1.743a.724.724 0 0 0-.968.245.717.717 0 0 0 .198.97l3.013 2.101 1.8 1.719-3.538-2.082-1.825-1.136a.62.62 0 0 0-.866.217.615.615 0 0 0 .153.788l2.339 1.85 2.837 1.889-2.456-.936-1.866-1.063a.57.57 0 0 0-.762.184.567.567 0 0 0 .184.797l2.063 1.235 1.449.895c.48.297.899.689 1.206 1.162.316.488 1.698 1.948 3.116 1.812z"/><path fill="#B6231F" d="M81.77 61.633c-2.623-3.228-2.98-7.697-2.98-7.697l1.946-.414s.398 3.89 2.623 6.621z"/><path fill="#B6231F" d="M72.918 66.011c.77-.292 1.511-.638 2.245-.99.73-.362 1.454-.735 2.154-1.148a36 36 0 0 0 2.07-1.292c.68-.45 1.341-.93 2.015-1.407q-.423.45-.874.875c-.31.271-.614.551-.945.798-.644.52-1.342.967-2.053 1.39-.717.414-1.463.778-2.233 1.083-.768.307-1.563.556-2.379.691M67.25 56.2c1.921-.447 3.86-.766 5.805-1.055 1.946-.275 3.897-.52 5.866-.636-1.921.447-3.86.767-5.805 1.054-1.946.275-3.897.519-5.866.636"/><path fill="#B6231F" d="M72.82 55.344c.227-2.922.495-5.838.841-8.746-.206 2.92-.332 5.844-.417 8.767zM92.802 61.989c2.864-3.37 3.254-8.035 3.254-8.035l-2.126-.432s-.433 4.06-2.864 6.911z"/><path fill="#B6231F" d="M93.09 61.633c.798.59 1.606 1.159 2.413 1.726a74 74 0 0 0 2.46 1.64 51 51 0 0 0 2.533 1.52c.859.484 1.738.93 2.631 1.368a18 18 0 0 1-2.784-1.075 25 25 0 0 1-2.608-1.458c-1.672-1.078-3.26-2.297-4.645-3.721M95.988 54.51l2.898 1.29c.967.424 1.934.845 2.908 1.246.973.405 1.956.782 2.942 1.153.992.356 1.989.696 3.005 1.007a21 21 0 0 1-3.11-.694 35 35 0 0 1-2.999-1.077c-1.957-.823-3.865-1.769-5.644-2.926"/><path fill="#B6231F" d="m101.281 57.178-.549-4.794c-.194-1.596-.38-3.194-.627-4.784.317 1.578.573 3.168.837 4.755l.759 4.768z"/><path fill="#FA9161" d="M56.758 88.006s1.442 6.492-.644 7.666c0 0 .018 7.612-3.596 6.087 0 0-.81-.123-1.263-1.322s2.19-12.933 2.19-12.933z"/><path fill="#8CBDDD" d="M26.155 71.462s-5.588 13.516-4.114 27.414 5.866 42.677 5.866 42.677h22.449s4.562-42.267 2.935-53.1-2.727-19.033-2.727-19.033z"/><mask id="c" width="33" height="73" x="21" y="69" maskUnits="userSpaceOnUse" style="mask-type:luminance"><path fill="#fff" d="M26.155 71.462s-5.588 13.516-4.114 27.414 5.866 42.677 5.866 42.677h22.449s4.562-42.267 2.935-53.1-2.727-19.033-2.727-19.033z"/></mask><g mask="url(#c)"><path fill="#74A5C5" d="m40.878 141.556-.058-48.67v-.012l.008-.01 3.636-4.411-3.585 4.453.007-.02.84 48.663z"/><path stroke="#74A5C5" stroke-miterlimit="10" stroke-width=".36" d="M29.84 71.461c-.669 1.598-4.152 11.186-4.152 24.093s4.99 45.999 4.99 45.999"/><path stroke="#74A5C5" stroke-miterlimit="10" stroke-width=".36" d="M27.523 79.236s7.301.754 8.39-7.775"/></g><path fill="#72262F" d="M26.628 17.902s9.595-.622 13.333-4.352l8.377 4.43s-1.488 12.297 1.067 22.13h-21.03s-7.903-2.409-6.046-10.511c1.448-6.315 4.299-11.697 4.299-11.697"/><path fill="#FA9161" d="m31.796 26.93-1.444 9.795s1.348 6.02 7.579 5.84 5.237-5.75 5.237-5.75l-2.105-6.65z"/><path fill="#F76A3F" d="M38.616 34.131c1.752-.001 2.596-.673 3.133-1.807l-.684-2.159-9.267-3.235-.345 2.34c.914 2.301 2.678 4.865 7.163 4.861"/><path fill="#FA9161" d="M31.629 16.525s-1.044-1.48-2.819-.65c-1.774.832-2.067 8.963 1.41 8.547 0 0 .678 5.924 5.688 6.962 5.01 1.04 6.889-1.35 8.872-5.195s4.175-12.885 0-15.899-12.29-4.234-13.151 6.235"/><path stroke="#451600" stroke-linecap="round" stroke-miterlimit="10" stroke-width=".72" d="m36.824 20.669-.418 1.247M43.2 22.586l-.376 1.122"/><path fill="#F76A3F" d="M39.964 22.586a8.6 8.6 0 0 1-.085 1.508l-.044-.162c.19.206.317.434.394.709.068.272.042.605-.164.853a.73.73 0 0 1-.393.24 1.2 1.2 0 0 1-.409.02 1.8 1.8 0 0 1-.708-.253c.246.02.486.025.71.001.111-.016.216-.04.305-.078a.47.47 0 0 0 .193-.16.66.66 0 0 0 .055-.522c-.041-.19-.157-.391-.272-.556l-.063-.09.018-.072c.119-.486.256-.968.463-1.438"/><path fill="#fff" d="m36.404 26.085 4.253 1.299s-.783 2.546-2.975 2.442-1.278-3.741-1.278-3.741"/><path fill="#72262F" d="M35.742 19.227h2.035s-.508-1.247-2.035 0M43.371 20.864l1.566 1.052s-.235-1.87-1.566-1.052"/><path fill="#72262F" d="M31.684 18.448s5.075.052 7.626-2.702l-1.312 2.13s3.142.26 5.015-.78l-.892 1.577s3.444 1.074 6.21-.693c0 0 2.375-10.989-7.671-12.157-10.047-1.17-10.516 3.74-14.039 12.08l1.064.237s.71-2.862 2.328-2.238c1.618.623 1.67 2.546 1.67 2.546M27.685 18.14s-.96 4.251 2.694 5.007c0 0-.31 1.04 0 2.102H26.62l.418-7.11z"/><path fill="#F76A3F" d="M28.957 17.367c.311-.216.795-.285 1.167-.04.376.233.571.631.702 1.006.06.192.113.387.138.582l.047.292c.011.098.012.195.018.293.034.39.003.777-.016 1.163l-.04.822-.294-.757a17 17 0 0 0-.331-.786c-.06-.129-.118-.26-.188-.383-.07-.121-.135-.252-.257-.332.147.036.259.154.361.258q.15.166.277.347c.17.241.318.492.457.754l-.334.065c-.018-.376-.015-.752-.05-1.12a6 6 0 0 0-.165-1.084c-.095-.341-.226-.681-.48-.9-.246-.232-.64-.28-1.012-.18"/><path fill="#fff" d="m29.554 22.49-.547.61a.286.286 0 0 1-.403.022l-.044-.04a.283.283 0 0 1-.023-.4l.547-.61a.286.286 0 0 1 .403-.023l.044.04a.283.283 0 0 1 .023.4M28.647 21.492l-.652.496a.286.286 0 0 1-.4-.052l-.036-.048a.283.283 0 0 1 .053-.398l.652-.497a.286.286 0 0 1 .4.053l.036.048a.283.283 0 0 1-.053.398M28.694 16.583l-.17-.115a.283.283 0 0 1-.077-.394l.033-.049a.286.286 0 0 1 .396-.077l.17.115c.13.087.165.264.077.394l-.033.049a.286.286 0 0 1-.396.077"/><path fill="#FFB878" d="M49.771 45.92s2.63 9.106 2.51 12.46-.842 12.94-.842 12.94c-5.777 1.437-13.619.719-13.619.719-4.833 2.037-10.678.719-10.678.719-9.854-1.318-9.761-24.442-7.715-30.188 2.045-5.747 11.29-8.347 11.29-8.347s3.413 7.916 7.574 7.085 4.22-6.558 4.22-6.558 3.597.714 6.383 2.947z"/><path fill="#FFB878" d="M48.893 37.696s3.268 1.275 4.11 5.948c.843 4.672 2.888 16.893 2.888 20.607s1.083 12.22 1.806 24.202h-4.402s-2.424-15.068-3.524-25.985-8.597-24.772-.878-24.772"/><path fill="#E5995A" d="M46.863 46.13c.788.759 1.386 1.702 1.856 2.691.483.989.793 2.054 1.01 3.13.217 1.08.238 2.185.308 3.261l.185 3.248c.222 4.333.444 8.665.604 13.002-.362-4.324-.663-8.652-.964-12.98l-.207-3.247c-.062-1.087-.141-2.156-.33-3.209-.176-1.058-.498-2.083-.888-3.081-.194-.5-.434-.983-.692-1.456a9.5 9.5 0 0 0-.882-1.36"/><path fill="#0F3945" d="m51.45 52.805 3.129-8.239a.6.6 0 0 1 .632-.378l6.34.8a.594.594 0 0 1 .48.808l-6.018 15.08a.596.596 0 0 1-.618.372l-6.167-.665a.593.593 0 0 1-.492-.804z"/><path fill="#FA9161" d="M48.082 58.956s.622-7.517 3.558-6.728l-.963 2.778s3.185.619 7.745-1.458c.551-.25 1.2.019 1.391.591l.01.03a1 1 0 0 1-.445 1.185c-.889.515-2.558 1.346-4.584 1.701 0 0 1.547-.11 3.056-.416a.987.987 0 0 1 1.194.958v.037c0 .399-.24.761-.611.908-.247.098-.531.187-.776.206l-.016.523c-.04 1.264-.657 2.461-1.716 3.158-.996.655-2.575 1.201-5.07 1.219z"/><path fill="#E5995A" d="m29.84 62.514 4.293-.784c1.43-.266 2.859-.523 4.282-.809q2.138-.411 4.258-.9c.71-.154 1.41-.342 2.11-.53l1.048-.295a46 46 0 0 1 1.038-.337c-1.313.637-2.713 1.076-4.114 1.476-1.403.403-2.829.715-4.258 1-1.43.277-2.867.523-4.312.714q-1.083.145-2.168.272c-.726.07-1.45.15-2.177.193M29.168 73.06q1.442.04 2.874-.094a28 28 0 0 0 2.843-.372 28.4 28.4 0 0 0 8.098-2.727 29 29 0 0 0 2.446-1.474c.784-.539 1.551-1.11 2.265-1.745.738-.608 1.404-1.296 2.077-1.98a21.4 21.4 0 0 1-4.154 3.99c-.775.578-1.607 1.075-2.451 1.548-.853.455-1.73.87-2.627 1.233-1.81.683-3.687 1.201-5.601 1.474-1.912.27-3.857.367-5.77.146"/><path fill="#FFD5B3" d="m44.895 58.747 3.954 7.41 2.724-2.086-3.683-6.35z"/><path fill="#E5995A" d="M32.398 62.178a143 143 0 0 1-1.185-6.46c-.348-2.16-.642-4.328-.861-6.503.29 2.167.654 4.322 1.07 6.467s.876 4.283 1.39 6.402zM25.375 73.585s15.97 4.227 25.821.66l-.48-3.41s-3.116 1.79-12.368 1.132c0 0-4.557 1.414-7.662 1.145s-4.9-.691-4.9-.691z"/><path fill="#FFD5B3" d="m30.732 34.131-2.595 1.025s3.451 10.912 10.156 6.151c0 0-4.78-.48-7.56-7.176M38.293 41.308s3.722-.35 4.22-6.558c0 0 .886.083 2.335.706 0 0-.914 10.823-6.555 5.852M53.295 88.453l-.44-2.781 4.691-.43.15 3.21z"/><path fill="url(#d)" d="M21.109 101.564H1.164v3.851H21.11z"/><path fill="#263238" d="M19.817 101.629c-.046 0-.087.836-.087 1.869s.041 1.866.087 1.866.09-.836.09-1.866-.041-1.869-.09-1.869M17.966 101.629c-.05 0-.087.836-.087 1.869s.038 1.866.086 1.866c.049 0 .087-.836.087-1.866s-.04-1.869-.087-1.869M16.141 101.629c-.048 0-.086.836-.086 1.869s.038 1.866.086 1.866c.049 0 .087-.836.087-1.866s-.041-1.869-.087-1.869M14.32 101.629c-.048 0-.086.836-.086 1.869s.038 1.866.087 1.866.087-.836.087-1.866-.039-1.869-.087-1.869M12.508 101.629c-.048 0-.086.836-.086 1.869s.038 1.866.086 1.866c.049 0 .087-.836.087-1.866s-.038-1.869-.087-1.869M10.684 101.629c-.048 0-.086.836-.086 1.869s.037 1.866.086 1.866.087-.836.087-1.866-.033-1.869-.087-1.869M8.868 101.629c-.049 0-.087.836-.087 1.869s.038 1.866.087 1.866.086-.836.086-1.866-.038-1.869-.086-1.869M7.055 101.629c-.048 0-.086.836-.086 1.869s.038 1.866.086 1.866c.049 0 .087-.836.087-1.866s-.038-1.869-.087-1.869M5.239 101.629c-.049 0-.087.836-.087 1.869s.038 1.866.087 1.866.086-.836.086-1.866-.037-1.869-.086-1.869M3.418 101.629c-.048 0-.086.836-.086 1.869s.038 1.866.086 1.866c.05 0 .087-.836.087-1.866s-.038-1.869-.087-1.869M1.598 101.629c-.048 0-.086.836-.086 1.869s.038 1.866.086 1.866c.049 0 .087-.836.087-1.866s-.041-1.869-.087-1.869"/><path fill="#000" d="M20.781 101.57a50.8 50.8 0 0 1-19.304 0z" opacity=".3"/><path fill="url(#e)" d="M19.964 105.364H.02v3.85h19.944z"/><path fill="#263238" d="M18.68 105.439c-.048 0-.086.836-.086 1.866s.038 1.883.086 1.883c.049 0 .087-.837.087-1.883s-.04-1.866-.087-1.866M16.82 105.439c-.047 0-.086.836-.086 1.866s.038 1.883.087 1.883.086-.837.086-1.883-.037-1.866-.086-1.866M15.004 105.439c-.046 0-.086.836-.086 1.866s.04 1.883.086 1.883.087-.837.087-1.883-.025-1.866-.087-1.866M13.173 105.439c-.049 0-.087.836-.087 1.866s.038 1.883.086 1.883c.049 0 .087-.837.087-1.883s-.027-1.866-.087-1.866M11.371 105.439c-.048 0-.086.836-.086 1.866s.038 1.883.086 1.883c.05 0 .087-.837.087-1.883s-.038-1.866-.087-1.866M9.551 105.439c-.048 0-.086.836-.086 1.866s.038 1.883.086 1.883c.049 0 .087-.837.087-1.883s-.038-1.866-.087-1.866M7.735 105.439c-.049 0-.087.836-.087 1.866s.038 1.883.087 1.883.086-.837.086-1.883-.046-1.866-.086-1.866M5.91 105.439c-.048 0-.086.836-.086 1.866s.038 1.883.087 1.883.086-.837.086-1.883-.038-1.866-.086-1.866M4.094 105.439c-.048 0-.086.836-.086 1.866s.038 1.883.086 1.883c.049 0 .087-.837.087-1.883s-.038-1.866-.087-1.866M2.282 105.439c-.049 0-.087.836-.087 1.866s.038 1.883.087 1.883.086-.837.086-1.883-.038-1.866-.086-1.866M.462 105.439c-.049 0-.087.836-.087 1.866s.038 1.883.087 1.883.086-.837.086-1.883-.038-1.866-.086-1.866"/><path fill="#000" d="M19.651 105.369a57.3 57.3 0 0 1-19.307 0z" opacity=".3"/><path fill="#263238" d="M.02 105.377c0 .046 4.456.086 9.956.086s9.953-.04 9.953-.086-4.457-.086-9.953-.086c-5.497 0-9.956.038-9.956.086"/><path fill="url(#f)" d="M36.515 93.737H16.57v4.004h19.945z"/><path fill="#263238" d="M35.22 93.804c-.05 0-.087.871-.087 1.941s.038 1.942.086 1.942c.049 0 .087-.869.087-1.942s-.041-1.941-.087-1.941M33.371 93.804c-.048 0-.086.87-.086 1.941 0 1.07.038 1.942.086 1.942.05 0 .087-.869.087-1.942s-.038-1.941-.087-1.941M31.544 93.804c-.046 0-.087.87-.087 1.941 0 1.07.04 1.942.087 1.942s.086-.869.086-1.942-.038-1.941-.086-1.941M29.727 93.804c-.046 0-.086.87-.086 1.941 0 1.07.04 1.941.086 1.941s.087-.868.087-1.941-.038-1.942-.087-1.942M27.914 93.804c-.046 0-.086.871-.086 1.941s.04 1.942.086 1.942.087-.869.087-1.942-.038-1.941-.087-1.941M26.086 93.804c-.046 0-.086.87-.086 1.941 0 1.07.04 1.942.086 1.942s.087-.869.087-1.942-.038-1.941-.087-1.941M24.282 93.804c-.049 0-.087.87-.087 1.941 0 1.07.038 1.941.087 1.941s.086-.868.086-1.941-.046-1.942-.086-1.942M22.465 93.804c-.048 0-.086.87-.086 1.941 0 1.07.038 1.942.086 1.942.049 0 .087-.869.087-1.942s-.038-1.941-.087-1.941M20.641 93.804c-.048 0-.086.87-.086 1.941 0 1.07.038 1.942.086 1.942.049 0 .087-.869.087-1.942s-.039-1.941-.087-1.941M18.817 93.804c-.049 0-.087.87-.087 1.941 0 1.07.038 1.942.087 1.942s.086-.869.086-1.942-.026-1.941-.086-1.941M17.005 93.804c-.05 0-.087.87-.087 1.941 0 1.07.038 1.942.087 1.942s.086-.869.086-1.942-.038-1.941-.087-1.941"/><path fill="url(#g)" d="M34.167 97.71H14.223v3.852h19.944z"/><path fill="#263238" d="M32.891 97.778c-.048 0-.086.833-.086 1.866s.038 1.866.086 1.866c.049 0 .087-.836.087-1.866s-.049-1.866-.087-1.866M31.036 97.778c-.049 0-.087.833-.087 1.866s.038 1.866.087 1.866.086-.836.086-1.866-.035-1.866-.086-1.866M29.216 97.778c-.047 0-.087.833-.087 1.866s.04 1.866.086 1.866c.047 0 .087-.836.087-1.866s-.038-1.866-.087-1.866M27.395 97.778c-.046 0-.086.833-.086 1.866s.04 1.866.086 1.866.086-.836.086-1.866-.037-1.866-.086-1.866M25.575 97.778c-.046 0-.087.833-.087 1.866s.04 1.866.087 1.866c.045 0 .086-.836.086-1.866s-.027-1.866-.086-1.866M23.755 97.778c-.049 0-.087.833-.087 1.866s.038 1.866.087 1.866.086-.836.086-1.866-.038-1.866-.087-1.866M21.946 97.778c-.049 0-.087.833-.087 1.866s.038 1.866.087 1.866.086-.836.086-1.866-.037-1.866-.086-1.866M20.114 97.778c-.049 0-.087.833-.087 1.866s.038 1.866.087 1.866.086-.836.086-1.866-.038-1.866-.086-1.866M18.298 97.778c-.05 0-.087.833-.087 1.866s.038 1.866.087 1.866.086-.836.086-1.866-.049-1.866-.087-1.866M16.493 97.778c-.049 0-.087.833-.087 1.866s.038 1.866.087 1.866.086-.836.086-1.866-.037-1.866-.086-1.866M14.676 97.778c-.048 0-.086.833-.086 1.866s.038 1.866.086 1.866c.049 0 .086-.836.086-1.866s-.037-1.866-.086-1.866"/><path fill="#000" d="M33.862 97.716a57.3 57.3 0 0 1-19.307 0z" opacity=".3"/><path fill="#263238" d="M14.223 97.724c0 .048 4.456.086 9.956.086s9.953-.038 9.953-.086-4.443-.083-9.953-.083-9.956.035-9.956.083"/><path fill="url(#h)" d="M35.449 101.564H15.504v3.851h19.945z"/><path fill="#263238" d="M34.165 101.629c-.046 0-.087.836-.087 1.869s.04 1.866.087 1.866.089-.836.089-1.866-.04-1.869-.09-1.869M32.317 101.629c-.049 0-.087.836-.087 1.869s.038 1.866.087 1.866.086-.836.086-1.866-.04-1.869-.086-1.869M30.5 101.629c-.048 0-.086.836-.086 1.869s.038 1.866.087 1.866.086-.836.086-1.866-.04-1.869-.086-1.869M28.676 101.629c-.048 0-.086.836-.086 1.869s.038 1.866.086 1.866c.049 0 .087-.836.087-1.866s-.038-1.869-.087-1.869M26.86 101.629c-.049 0-.087.836-.087 1.869s.038 1.866.087 1.866.087-.836.087-1.866-.038-1.869-.087-1.869M25.036 101.629c-.049 0-.087.836-.087 1.869s.038 1.866.086 1.866c.049 0 .087-.836.087-1.866s-.032-1.869-.087-1.869M23.22 101.629c-.05 0-.087.836-.087 1.869s.038 1.866.086 1.866c.049 0 .087-.836.087-1.866s-.038-1.869-.087-1.869M21.395 101.629c-.049 0-.086.836-.086 1.869s.037 1.866.086 1.866.087-.836.087-1.866-.038-1.869-.087-1.869M19.579 101.629c-.049 0-.087.836-.087 1.869s.038 1.866.087 1.866.086-.836.086-1.866-.037-1.869-.086-1.869M17.766 101.629c-.048 0-.086.836-.086 1.869s.038 1.866.086 1.866c.049 0 .087-.836.087-1.866s-.038-1.869-.087-1.869M15.958 101.629c-.05 0-.087.836-.087 1.869s.038 1.866.087 1.866.086-.836.086-1.866-.04-1.869-.086-1.869"/><path fill="#000" d="M35.133 101.57a50.8 50.8 0 0 1-19.305 0z" opacity=".3"/><path fill="#263238" d="M15.496 101.578c0 .048 4.457.086 9.954.086 5.496 0 9.956-.038 9.956-.086 0-.049-4.457-.087-9.956-.087-5.5 0-9.954.038-9.954.087"/><path fill="url(#i)" d="M34.316 105.364H14.37v3.85h19.945z"/><path fill="#263238" d="M33.036 105.439c-.049 0-.087.836-.087 1.866s.038 1.883.087 1.883.086-.837.086-1.883-.04-1.866-.087-1.866M31.192 105.439c-.049 0-.087.836-.087 1.866s.038 1.883.087 1.883.087-.837.087-1.883-.038-1.866-.087-1.866M29.348 105.439c-.046 0-.086.836-.086 1.866s.04 1.883.086 1.883.087-.837.087-1.883-.024-1.866-.087-1.866M27.52 105.439c-.049 0-.086.836-.086 1.866s.037 1.883.086 1.883.086-.837.086-1.883-.026-1.866-.086-1.866M25.72 105.439c-.05 0-.087.836-.087 1.866s.038 1.883.086 1.883c.049 0 .087-.837.087-1.883s-.038-1.866-.087-1.866M23.903 105.439c-.049 0-.087.836-.087 1.866s.038 1.883.087 1.883.086-.837.086-1.883-.038-1.866-.086-1.866M22.086 105.439c-.048 0-.086.836-.086 1.866s.038 1.883.086 1.883c.05 0 .087-.837.087-1.883s-.046-1.866-.087-1.866M20.262 105.439c-.048 0-.086.836-.086 1.866s.038 1.883.086 1.883c.049 0 .087-.837.087-1.883s-.038-1.866-.087-1.866M18.45 105.439c-.049 0-.087.836-.087 1.866s.038 1.883.087 1.883.086-.837.086-1.883-.038-1.866-.086-1.866M16.63 105.439c-.05 0-.087.836-.087 1.866s.038 1.883.087 1.883.086-.837.086-1.883-.038-1.866-.087-1.866M14.809 105.439c-.048 0-.086.836-.086 1.866s.037 1.883.086 1.883.087-.837.087-1.883-.039-1.866-.087-1.866"/><path fill="#000" d="M34.002 105.369a57.3 57.3 0 0 1-19.307 0z" opacity=".3"/><path fill="#263238" d="M14.36 105.377c0 .046 4.456.086 9.956.086s9.953-.04 9.953-.086-4.457-.086-9.953-.086c-5.497 0-9.957.038-9.957.086"/><g fill="#000" opacity=".3"><path d="M16.56 93.737v3.974h-2.337v3.85h19.944v-3.82h2.337v-4.004zM15.503 105.364h-1.14v3.851h19.945v-3.8h1.14v-3.851H15.503z"/></g><path fill="url(#j)" d="M50.966 81.881h-19.27v3.869h19.27z"/><path fill="#263238" d="M49.728 81.946c-.044 0-.084.842-.084 1.876s.04 1.876.084 1.876.084-.84.084-1.876-.037-1.876-.084-1.876M47.947 81.946c-.047 0-.084.842-.084 1.876s.037 1.876.084 1.876.083-.84.083-1.876-.039-1.876-.083-1.876M46.181 81.946c-.047 0-.083.842-.083 1.876s.036 1.876.083 1.876.084-.84.084-1.876-.037-1.876-.084-1.876M44.423 81.946c-.047 0-.083.842-.083 1.876s.036 1.876.083 1.876.084-.84.084-1.876-.034-1.876-.084-1.876M42.658 81.946c-.047 0-.084.842-.084 1.876s.037 1.876.084 1.876.083-.84.083-1.876-.036-1.876-.083-1.876M40.908 81.946c-.047 0-.084.842-.084 1.876s.037 1.876.084 1.876.083-.84.083-1.876-.036-1.876-.083-1.876M39.154 81.946c-.047 0-.084.842-.084 1.876s.037 1.876.084 1.876.083-.84.083-1.876-.036-1.876-.083-1.876M37.388 81.946c-.047 0-.083.842-.083 1.876s.036 1.876.083 1.876.084-.84.084-1.876-.037-1.876-.084-1.876M35.638 81.946c-.047 0-.083.842-.083 1.876s.036 1.876.083 1.876.084-.84.084-1.876-.037-1.876-.084-1.876M33.884 81.946c-.047 0-.083.842-.083 1.876s.036 1.876.083 1.876.084-.84.084-1.876-.037-1.876-.084-1.876M32.119 81.946c-.047 0-.084.842-.084 1.876s.037 1.876.084 1.876.083-.84.083-1.876-.039-1.876-.083-1.876"/><path fill="url(#k)" d="M50.89 85.823H30.945v4.004H50.89z"/><path fill="#263238" d="M49.614 85.89c-.046 0-.087.871-.087 1.941s.04 1.942.087 1.942.086-.869.086-1.942-.038-1.941-.086-1.941M47.758 85.89c-.048 0-.086.871-.086 1.941s.038 1.942.086 1.942c.05 0 .087-.869.087-1.942s-.04-1.941-.087-1.941M45.93 85.89c-.048 0-.086.871-.086 1.941s.038 1.942.086 1.942c.05 0 .087-.869.087-1.942s-.038-1.941-.087-1.941M44.106 85.89c-.049 0-.087.871-.087 1.941s.038 1.942.087 1.942.086-.869.086-1.942-.035-1.941-.086-1.941M42.298 85.89c-.049 0-.087.871-.087 1.941s.038 1.942.087 1.942.086-.869.086-1.942-.038-1.941-.087-1.941M40.485 85.89c-.048 0-.087.871-.087 1.941s.038 1.942.087 1.942.086-.869.086-1.942-.038-1.941-.086-1.941M38.657 85.89c-.049 0-.087.871-.087 1.941s.038 1.942.087 1.942.086-.869.086-1.942-.038-1.941-.086-1.941M36.844 85.89c-.048 0-.086.871-.086 1.941s.038 1.942.086 1.942c.049 0 .087-.869.087-1.942s-.038-1.941-.087-1.941M35.028 85.89c-.048 0-.087.871-.087 1.941s.038 1.942.087 1.942.087-.869.087-1.942-.038-1.941-.087-1.941M33.204 85.89c-.049 0-.087.871-.087 1.941s.038 1.942.087 1.942.086-.869.086-1.942-.038-1.941-.086-1.941M31.387 85.89c-.048 0-.086.871-.086 1.941s.038 1.942.086 1.942c.049 0 .087-.869.087-1.942s-.04-1.941-.087-1.941"/><path fill="#000" d="M50.582 85.828a73 73 0 0 1-19.305 0z" opacity=".3"/><path fill="#263238" d="M30.934 85.836c0 .049 4.456.086 9.953.086s9.956-.037 9.956-.086-4.457-.086-9.956-.086c-5.5 0-9.953.038-9.953.086"/><path fill="url(#l)" d="M50.239 73.965h-19.27v3.868h19.27z"/><path fill="#263238" d="M49.002 74.03c-.045 0-.084.841-.084 1.875s.04 1.876.084 1.876.083-.839.083-1.876-.036-1.875-.084-1.875M47.22 74.03c-.047 0-.083.842-.083 1.875 0 1.035.036 1.876.083 1.876s.084-.839.084-1.876-.04-1.875-.084-1.875M45.45 74.03c-.046 0-.083.841-.083 1.875s.037 1.876.084 1.876.083-.839.083-1.876-.036-1.875-.083-1.875M43.697 74.03c-.047 0-.084.842-.084 1.875 0 1.035.037 1.876.084 1.876s.083-.839.083-1.876-.034-1.875-.083-1.875M41.927 74.03c-.047 0-.083.841-.083 1.875s.036 1.876.083 1.876.084-.839.084-1.876-.037-1.875-.084-1.875M40.181 74.03c-.047 0-.083.841-.083 1.875s.036 1.876.083 1.876.084-.839.084-1.876-.037-1.875-.084-1.875M38.423 74.03c-.047 0-.083.842-.083 1.875 0 1.035.036 1.876.083 1.876s.084-.839.084-1.876-.036-1.875-.084-1.875M36.658 74.03c-.047 0-.084.841-.084 1.875s.037 1.876.084 1.876.083-.839.083-1.876-.036-1.875-.083-1.875M34.912 74.03c-.047 0-.084.841-.084 1.875s.037 1.876.084 1.876.083-.839.083-1.876-.036-1.875-.083-1.875M33.154 74.03c-.047 0-.084.841-.084 1.875s.037 1.876.084 1.876.083-.839.083-1.876-.036-1.875-.083-1.875M31.4 74.03c-.047 0-.084.842-.084 1.875 0 1.035.037 1.876.084 1.876s.084-.839.084-1.876-.04-1.875-.084-1.875"/><path fill="url(#m)" d="M50.16 77.906H30.214v4.004h19.944z"/><path fill="#263238" d="M48.887 77.973c-.046 0-.086.871-.086 1.941s.04 1.942.086 1.942.087-.869.087-1.942-.038-1.941-.087-1.941M47.04 77.973c-.049 0-.087.871-.087 1.941s.038 1.942.087 1.942.086-.869.086-1.942-.04-1.941-.086-1.941M45.212 77.973c-.05 0-.087.871-.087 1.941s.038 1.942.087 1.942.086-.869.086-1.942-.038-1.941-.086-1.941M43.387 77.973c-.048 0-.086.871-.086 1.941s.038 1.942.086 1.942c.049 0 .087-.869.087-1.942s-.036-1.941-.087-1.941M41.57 77.973c-.048 0-.086.871-.086 1.941s.038 1.942.087 1.942.087-.869.087-1.942-.039-1.941-.087-1.941M39.758 77.973c-.048 0-.086.871-.086 1.941s.038 1.942.086 1.942c.049 0 .087-.869.087-1.942s-.038-1.941-.087-1.941M37.93 77.973c-.048 0-.086.871-.086 1.941s.038 1.942.086 1.942c.05 0 .087-.869.087-1.942s-.038-1.941-.087-1.941M36.106 77.973c-.049 0-.087.871-.087 1.941s.038 1.942.087 1.942.086-.869.086-1.942-.037-1.941-.086-1.941M34.297 77.973c-.048 0-.086.871-.086 1.941s.038 1.942.086 1.942c.049 0 .087-.869.087-1.942s-.038-1.941-.087-1.941M32.477 77.973c-.048 0-.086.871-.086 1.941s.037 1.942.086 1.942.087-.869.087-1.942-.038-1.941-.087-1.941M30.66 77.973c-.048 0-.086.871-.086 1.941s.038 1.942.087 1.942.086-.869.086-1.942-.04-1.941-.086-1.941"/><path fill="#000" d="M49.836 77.911a73 73 0 0 1-19.305 0zM51.09 81.9a73 73 0 0 1-19.305 0z" opacity=".3"/><path fill="#263238" d="M30.207 77.92c0 .048 4.457.085 9.953.085 5.497 0 9.957-.037 9.957-.086s-4.457-.086-9.957-.086c-5.499 0-9.953.038-9.953.086M31.707 81.9c0 .048 4.336.086 9.683.086 5.348 0 9.686-.038 9.686-.086 0-.049-4.336-.086-9.686-.086s-9.683.037-9.683.086"/><path fill="url(#n)" d="M50.445 89.76H30.5v4.004h19.945z"/><path fill="#263238" d="M49.165 89.83c-.05 0-.087.868-.087 1.938s.038 1.942.087 1.942.086-.869.086-1.942-.04-1.939-.086-1.939M47.317 89.83c-.049 0-.087.868-.087 1.938s.038 1.942.087 1.942.086-.87.086-1.942-.038-1.939-.086-1.939M45.481 89.83c-.046 0-.087.868-.087 1.938s.041 1.942.087 1.942.086-.87.086-1.942-.037-1.939-.086-1.939M43.665 89.83c-.05 0-.087.868-.087 1.938s.038 1.942.087 1.942.086-.869.086-1.942-.038-1.939-.086-1.939M41.84 89.83c-.048 0-.086.868-.086 1.938s.038 1.942.087 1.942.086-.87.086-1.942-.038-1.939-.087-1.939M40.032 89.83c-.049 0-.087.868-.087 1.938s.038 1.942.087 1.942.086-.87.086-1.942-.038-1.939-.086-1.939M38.22 89.83c-.05 0-.087.868-.087 1.938s.038 1.942.086 1.942c.049 0 .087-.87.087-1.942s-.05-1.939-.087-1.939M36.391 89.83c-.048 0-.086.868-.086 1.938s.038 1.942.086 1.942c.049 0 .087-.87.087-1.942s-.038-1.939-.087-1.939M34.579 89.83c-.049 0-.087.868-.087 1.938s.038 1.942.087 1.942.086-.87.086-1.942-.038-1.939-.087-1.939M32.762 89.83c-.048 0-.086.868-.086 1.938s.038 1.942.086 1.942c.049 0 .087-.87.087-1.942s-.025-1.939-.087-1.939M30.926 89.83c-.048 0-.086.868-.086 1.938s.038 1.942.086 1.942c.049 0 .087-.869.087-1.942s-.027-1.939-.087-1.939"/><path fill="#000" d="M50.124 89.765c-6.408.854-12.9.854-19.308 0z" opacity=".3"/><path fill="#263238" d="M30.492 89.773c0 .048 4.457.086 9.956.086 5.5 0 9.954-.038 9.954-.086s-4.454-.086-9.954-.086c-5.499 0-9.956.054-9.956.086"/><path fill="url(#o)" d="M52.335 93.634H32.391v4.004h19.944z"/><path fill="#263238" d="M51.051 93.702c-.048 0-.086.87-.086 1.941 0 1.07.038 1.942.086 1.942.049 0 .087-.87.087-1.942s-.04-1.942-.087-1.942M49.204 93.701c-.049 0-.087.871-.087 1.942s.038 1.941.087 1.941.086-.868.086-1.941-.038-1.942-.086-1.942M47.376 93.702c-.046 0-.087.87-.087 1.941 0 1.07.04 1.942.087 1.942s.086-.87.086-1.942-.038-1.942-.086-1.942M45.563 93.702c-.046 0-.086.87-.086 1.941 0 1.07.04 1.942.086 1.942s.087-.87.087-1.942-.038-1.942-.087-1.942M43.743 93.702c-.046 0-.087.87-.087 1.941 0 1.07.04 1.942.087 1.942s.086-.87.086-1.942-.038-1.942-.087-1.942M41.922 93.702c-.046 0-.086.87-.086 1.941 0 1.07.04 1.942.086 1.942s.087-.87.087-1.942-.038-1.942-.087-1.942M40.102 93.702c-.049 0-.086.87-.086 1.941 0 1.07.037 1.942.086 1.942s.087-.87.087-1.942-.047-1.942-.087-1.942M38.282 93.701c-.049 0-.087.872-.087 1.942s.038 1.941.087 1.941.086-.868.086-1.941-.038-1.942-.086-1.942M36.473 93.702c-.048 0-.086.87-.086 1.941 0 1.07.038 1.942.086 1.942.049 0 .087-.87.087-1.942s-.038-1.942-.087-1.942M34.641 93.702c-.048 0-.086.87-.086 1.941 0 1.07.038 1.942.086 1.942.049 0 .087-.87.087-1.942s-.027-1.942-.087-1.942M32.833 93.702c-.049 0-.087.87-.087 1.941 0 1.07.038 1.942.087 1.942s.086-.87.086-1.942-.038-1.942-.086-1.942"/><path fill="#000" d="M52.018 93.64c-6.407.853-12.9.853-19.307 0z" opacity=".3"/><path fill="#263238" d="M32.39 93.648c0 .048 4.457.086 9.957.086s9.953-.038 9.953-.086c0-.049-4.454-.086-9.953-.086-5.5 0-9.956.04-9.956.086"/><path fill="url(#p)" d="M50 97.609H30.054v3.851h19.944z"/><path fill="#263238" d="M48.72 97.676c-.05 0-.087.833-.087 1.866s.038 1.866.086 1.866c.049 0 .087-.836.087-1.866s-.049-1.866-.087-1.866M46.864 97.676c-.049 0-.087.833-.087 1.866s.038 1.866.087 1.866.086-.836.086-1.866-.035-1.866-.086-1.866M45.043 97.676c-.045 0-.086.833-.086 1.866s.04 1.866.086 1.866.087-.836.087-1.866-.038-1.866-.087-1.866M43.216 97.676c-.047 0-.087.833-.087 1.866s.04 1.866.087 1.866c.045 0 .086-.836.086-1.866s-.038-1.866-.087-1.866M41.395 97.676c-.046 0-.086.833-.086 1.866s.04 1.866.086 1.866.086-.836.086-1.866-.027-1.866-.086-1.866M39.583 97.676c-.05 0-.087.833-.087 1.866s.038 1.866.087 1.866.086-.836.086-1.866-.038-1.866-.086-1.866M37.77 97.676c-.049 0-.086.833-.086 1.866s.037 1.866.086 1.866.086-.836.086-1.866-.038-1.866-.086-1.866M35.946 97.676c-.049 0-.087.833-.087 1.866s.038 1.866.087 1.866.087-.836.087-1.866-.039-1.866-.087-1.866M34.137 97.676c-.048 0-.086.833-.086 1.866s.038 1.866.086 1.866c.049 0 .087-.836.087-1.866s-.05-1.866-.087-1.866M32.313 97.676c-.049 0-.086.833-.086 1.866s.037 1.866.086 1.866.086-.836.086-1.866-.037-1.866-.086-1.866M30.504 97.676c-.048 0-.086.833-.086 1.866s.038 1.866.086 1.866c.049 0 .087-.836.087-1.866s-.038-1.866-.087-1.866"/><path fill="#000" d="M49.69 97.614a57.3 57.3 0 0 1-19.307 0z" opacity=".3"/><path fill="#263238" d="M30.043 97.622c0 .048 4.457.086 9.956.086 5.5 0 9.953-.038 9.953-.086s-4.443-.083-9.953-.083-9.956.035-9.956.083"/><path fill="url(#q)" d="M51.28 101.462H31.337v3.851H51.28z"/><path fill="#263238" d="M50 101.527c-.045 0-.086.836-.086 1.869s.04 1.866.087 1.866c.045 0 .089-.836.089-1.866s-.04-1.869-.09-1.869M48.157 101.527c-.049 0-.087.836-.087 1.869s.038 1.866.087 1.866.086-.836.086-1.866-.04-1.869-.086-1.869M46.325 101.527c-.049 0-.087.836-.087 1.869s.038 1.866.087 1.866.086-.836.086-1.866-.04-1.869-.086-1.869M44.497 101.527c-.049 0-.087.836-.087 1.869s.038 1.866.087 1.866.086-.836.086-1.866-.038-1.869-.086-1.869M42.68 101.527c-.048 0-.086.836-.086 1.869s.038 1.866.086 1.866c.049 0 .087-.836.087-1.866s-.039-1.869-.087-1.869M40.868 101.527c-.049 0-.087.836-.087 1.869s.038 1.866.087 1.866.086-.836.086-1.866-.032-1.869-.086-1.869M39.055 101.527c-.048 0-.086.836-.086 1.869s.038 1.866.086 1.866.087-.836.087-1.866-.038-1.869-.087-1.869M37.227 101.527c-.049 0-.086.836-.086 1.869s.037 1.866.086 1.866.087-.836.087-1.866-.038-1.869-.087-1.869M35.418 101.527c-.048 0-.086.836-.086 1.869s.038 1.866.086 1.866c.05 0 .087-.836.087-1.866s-.038-1.869-.087-1.869M33.598 101.527c-.048 0-.086.836-.086 1.869s.038 1.866.086 1.866c.049 0 .087-.836.087-1.866s-.038-1.869-.087-1.869M31.79 101.527c-.05 0-.087.836-.087 1.869s.038 1.866.086 1.866c.049 0 .087-.836.087-1.866s-.04-1.869-.087-1.869"/><path fill="#000" d="M50.972 101.467a50.7 50.7 0 0 1-19.304 0z" opacity=".3"/><path fill="#263238" d="M31.324 101.476c0 .048 4.457.086 9.954.086 5.496 0 9.956-.038 9.956-.086 0-.049-4.457-.087-9.956-.087-5.5 0-9.954.038-9.954.087"/><path fill="url(#r)" d="M50.136 105.262H30.191v3.851h19.945z"/><path fill="#263238" d="M48.864 105.337c-.049 0-.087.836-.087 1.866s.038 1.883.087 1.883.086-.836.086-1.883c0-1.046-.04-1.866-.086-1.866M47.008 105.337c-.048 0-.086.836-.086 1.866s.038 1.883.086 1.883c.049 0 .087-.836.087-1.883 0-1.046-.038-1.866-.087-1.866M45.188 105.337c-.046 0-.086.836-.086 1.866s.04 1.883.086 1.883.086-.836.086-1.883c0-1.046-.024-1.866-.086-1.866M43.352 105.337c-.049 0-.086.836-.086 1.866s.037 1.883.086 1.883.087-.836.087-1.883c0-1.046-.027-1.866-.087-1.866M41.551 105.337c-.048 0-.086.836-.086 1.866s.038 1.883.086 1.883c.049 0 .087-.837.087-1.883s-.038-1.866-.087-1.866M39.731 105.337c-.048 0-.087.836-.087 1.866s.038 1.883.087 1.883.087-.836.087-1.883c0-1.046-.038-1.866-.087-1.866M37.907 105.337c-.049 0-.087.836-.087 1.866s.038 1.883.087 1.883.086-.836.086-1.883c0-1.046-.046-1.866-.086-1.866M36.09 105.337c-.048 0-.086.836-.086 1.866s.038 1.883.087 1.883.086-.836.086-1.883c0-1.046-.038-1.866-.087-1.866M34.27 105.337c-.049 0-.086.836-.086 1.866s.037 1.883.086 1.883.086-.836.086-1.883c0-1.046-.038-1.866-.086-1.866M32.462 105.337c-.049 0-.087.836-.087 1.866s.038 1.883.087 1.883.086-.836.086-1.883c0-1.046-.038-1.866-.086-1.866M30.649 105.337c-.049 0-.087.836-.087 1.866s.038 1.883.087 1.883.086-.836.086-1.883c0-1.046-.037-1.866-.086-1.866"/><path fill="#000" d="M49.838 105.267a57.3 57.3 0 0 1-19.307 0z" opacity=".3"/><path fill="#263238" d="M30.191 105.275c0 .046 4.457.086 9.957.086 5.499 0 9.953-.04 9.953-.086s-4.457-.086-9.953-.086c-5.497 0-9.957.038-9.957.086"/><path fill="#263238" d="M50.142 109.102v-1.009c0-.661-.014-1.613-.022-2.788v-.043h1.143l-.046.048v-3.853l.06.059h-1.351v-3.948h2.401l-.065.065v-4.08l.06.063h-1.95v-3.841h.54l-.044.046v-3.923a.4.4 0 0 1 0-.07.3.3 0 0 1 0 .07v.205c0 .188 0 .449.02.785 0 .696.03 1.691.05 2.93v.047h-.54l.047-.046c0 1.075 0 2.339.013 3.732l-.06-.056h1.954V97.7h-2.404l.067-.065v3.821l-.062-.062h1.35v3.961h-1.148l.044-.043c0 1.18-.014 2.127-.02 2.789v.944a.2.2 0 0 1-.037.056"/><g clip-path="url(#s)"><path fill="url(#t)" d="M23.098 14.948c3.76-.77 6.182-4.427 5.409-8.17S24.06.624 20.3 1.393s-6.182 4.427-5.409 8.17 4.447 6.154 8.207 5.385"/><path fill="url(#u)" d="M23.068 14.786c3.67-.75 6.033-4.321 5.28-7.975-.755-3.654-4.341-6.007-8.011-5.256s-6.034 4.321-5.28 7.975 4.34 6.007 8.01 5.256"/><path fill="url(#v)" d="M22.896 13.976a5.94 5.94 0 0 1-4.474-.857 5.89 5.89 0 0 1-2.556-3.756 5.87 5.87 0 0 1 .86-4.454A5.92 5.92 0 0 1 20.5 2.365a5.94 5.94 0 0 1 4.474.857 5.89 5.89 0 0 1 2.555 3.756 5.87 5.87 0 0 1-.86 4.454 5.92 5.92 0 0 1-3.773 2.544"/><path fill="url(#w)" d="M25.2 3.377a5.93 5.93 0 0 0-4.243-.712 5.92 5.92 0 0 0-3.772 2.544 5.87 5.87 0 0 0-.861 4.455 5.88 5.88 0 0 0 2.33 3.6 5.887 5.887 0 0 1-2.788-3.9 5.87 5.87 0 0 1 .86-4.455A5.92 5.92 0 0 1 20.5 2.365a5.94 5.94 0 0 1 4.7 1.012"/><path fill="url(#x)" d="M28.506 6.778c.773 3.743-1.65 7.4-5.41 8.17-3.55.726-7.023-1.383-8.05-4.772l.184.033c1.033 3.26 4.396 5.28 7.834 4.577 3.67-.75 6.033-4.321 5.28-7.975-.608-2.94-3.047-5.037-5.89-5.354l-.067-.174c2.948.291 5.491 2.453 6.119 5.495" opacity=".4"/><path fill="url(#y)" d="M25.2 3.376a5.9 5.9 0 0 0-2.388-.8l-.066-.243a5.96 5.96 0 0 1 2.4 1.005z" style="mix-blend-mode:saturation"/><path fill="url(#z)" d="M28.23 6.686c.754 3.654-1.61 7.224-5.28 7.975-3.437.703-6.8-1.316-7.834-4.577.267.044.57.078.912.093a5.9 5.9 0 0 0 2.511 2.96l.002.002a5.93 5.93 0 0 0 4.242.712 5.92 5.92 0 0 0 3.772-2.544 5.87 5.87 0 0 0 .861-4.455 5.88 5.88 0 0 0-2.33-3.6l-.001-.001-.054-.039-.17-.115a6 6 0 0 0-2.23-.89 11 11 0 0 0-.29-.875c2.842.317 5.282 2.414 5.889 5.354" opacity=".3"/><path fill="url(#A)" d="M27.532 6.978a5.87 5.87 0 0 1-.86 4.454 5.92 5.92 0 0 1-3.773 2.544 5.93 5.93 0 0 1-4.242-.712h-.002a5.88 5.88 0 0 1-2.157-2.954c.832.002 1.86-.113 3.084-.449.993-.332 3.008-1.31 3.421-3.847.236-1.236.059-2.479-.19-3.437a5.9 5.9 0 0 1 2.39.8 5.88 5.88 0 0 1 2.33 3.6" opacity=".6"/><g clip-path="url(#B)"><path fill="#fff" d="m21.567 6.868-.503-.524c-.379.34-.603.779-.652 1.227-.025.224-.005.452.064.669.069.216.187.421.355.595l.806.839.558.581.598.622c.167.175.37.304.59.387.328.125.69.145 1.039.073.35-.072.688-.237.975-.492.381-.34.606-.78.656-1.23a1.6 1.6 0 0 0-.064-.669 1.5 1.5 0 0 0-.355-.596L23.672 6.31a1.6 1.6 0 0 0-.59-.387 1.9 1.9 0 0 0-1.04-.074q-.176.037-.347.105l.559.582q.082-.014.162-.016.214-.004.397.065.181.068.317.207l1.961 2.042q.134.14.19.32a1 1 0 0 1-.007.59 1.3 1.3 0 0 1-.38.579 1.34 1.34 0 0 1-.845.344 1 1 0 0 1-.397-.064.86.86 0 0 1-.317-.207l-.51-.53-.502-.524-.95-.988a.8.8 0 0 1-.19-.32 1 1 0 0 1 .008-.591c.063-.205.189-.406.376-.574"/><g filter="url(#C)"><path fill="#fff" d="m22.323 9.34.503.524c.38-.34.604-.779.653-1.227a1.6 1.6 0 0 0-.064-.669 1.5 1.5 0 0 0-.355-.595l-.806-.839-.558-.581-.598-.622a1.6 1.6 0 0 0-.59-.387 1.87 1.87 0 0 0-1.04-.073c-.348.072-.688.237-.974.492-.382.34-.607.78-.656 1.23a1.6 1.6 0 0 0 .064.669c.068.216.187.421.355.596l1.962 2.041c.167.175.37.305.59.387.328.125.69.146 1.039.074q.177-.037.347-.105l-.558-.581a1 1 0 0 1-.162.015 1 1 0 0 1-.397-.065.9.9 0 0 1-.317-.207L18.8 7.375a.8.8 0 0 1-.19-.32 1 1 0 0 1 .008-.59c.064-.207.19-.41.38-.579.253-.225.561-.337.845-.344.142-.004.277.019.397.064q.18.069.317.208l.509.53.503.523.95.988q.132.14.19.32a1 1 0 0 1-.008.591 1.3 1.3 0 0 1-.377.574"/></g></g><path fill="url(#D)" d="m18.538 13.138-.057-.034-.174-.11a5.9 5.9 0 0 1-2.28-2.817q.171.008.354.008a5.88 5.88 0 0 0 2.157 2.953" style="mix-blend-mode:saturation"/></g><g clip-path="url(#E)"><path fill="url(#F)" d="M121.469 67.2c.199-3.816-2.747-7.07-6.58-7.269s-7.102 2.735-7.302 6.55c-.199 3.817 2.747 7.072 6.58 7.27s7.103-2.734 7.302-6.55"/><path fill="url(#G)" d="M121.304 67.192c.195-3.725-2.681-6.902-6.422-7.096-3.742-.193-6.933 2.67-7.127 6.394-.195 3.725 2.681 6.902 6.422 7.096 3.742.193 6.933-2.67 7.127-6.394"/><path fill="url(#H)" d="M120.473 67.15a5.87 5.87 0 0 1-1.96 4.095 5.93 5.93 0 0 1-4.294 1.516 5.93 5.93 0 0 1-4.114-1.951 5.87 5.87 0 0 1-1.522-4.275 5.88 5.88 0 0 1 1.959-4.096 5.93 5.93 0 0 1 4.295-1.516 5.92 5.92 0 0 1 4.113 1.951 5.87 5.87 0 0 1 1.523 4.276"/><path fill="url(#I)" d="M110.75 62.261a5.87 5.87 0 0 0-1.76 3.908 5.87 5.87 0 0 0 1.523 4.276 5.92 5.92 0 0 0 4.113 1.95 5.93 5.93 0 0 0 4.087-1.337 5.929 5.929 0 0 1-4.494 1.703 5.93 5.93 0 0 1-4.114-1.951 5.87 5.87 0 0 1-1.522-4.275 5.88 5.88 0 0 1 2.167-4.274"/><path fill="url(#J)" d="M114.892 59.933c3.833.198 6.779 3.453 6.58 7.27-.188 3.603-3.114 6.418-6.667 6.554l.079-.169c3.429-.174 6.24-2.906 6.422-6.394.194-3.726-2.681-6.902-6.423-7.096a6.79 6.79 0 0 0-6.688 4.325l-.185.022a6.95 6.95 0 0 1 6.882-4.512" opacity=".4"/><path fill="url(#K)" d="M110.749 62.26a5.9 5.9 0 0 0-1.378 2.098q-.13 0-.254.002a5.9 5.9 0 0 1 1.581-2.058z" style="mix-blend-mode:saturation"/><path fill="url(#L)" d="M114.733 60.175c3.742.194 6.617 3.37 6.423 7.096-.183 3.488-2.993 6.22-6.422 6.394q.167-.368.319-.855a5.92 5.92 0 0 0 3.511-1.673l.002-.001a5.87 5.87 0 0 0 1.76-3.908 5.87 5.87 0 0 0-1.523-4.276 5.92 5.92 0 0 0-4.113-1.95 5.93 5.93 0 0 0-4.087 1.337l-.001.001q-.026.02-.051.043a5.922 5.922 0 0 0-1.582 2.059c-.355.007-.67.031-.924.058a6.79 6.79 0 0 1 6.688-4.325" opacity=".3"/><path fill="url(#M)" d="M114.841 60.92a5.93 5.93 0 0 1 4.114 1.952 5.88 5.88 0 0 1 1.523 4.275 5.87 5.87 0 0 1-1.761 3.908l-.001.001a5.92 5.92 0 0 1-3.414 1.335c.211-.802.359-1.82.34-3.085-.073-1.04-.516-3.228-2.878-4.265-1.142-.538-2.395-.68-3.389-.683.3-.783.766-1.497 1.378-2.098l.002-.002a5.93 5.93 0 0 1 4.086-1.338" opacity=".6"/><g clip-path="url(#N)"><path fill="#fff" d="m113.228 66.64-.635.352c.234.45.605.777 1.028.937.212.08.438.119.666.107s.457-.074.669-.192l1.018-.565.705-.391.755-.42c.212-.117.39-.28.525-.47.204-.285.315-.629.333-.983a2.1 2.1 0 0 0-.233-1.063 1.95 1.95 0 0 0-1.03-.942 1.7 1.7 0 0 0-.667-.107 1.54 1.54 0 0 0-.668.192l-2.479 1.375c-.212.118-.389.28-.525.47a1.86 1.86 0 0 0-.333.984q-.008.18.015.361l.706-.391q.007-.083.026-.16.05-.209.162-.366a.86.86 0 0 1 .282-.253l2.478-1.376a.8.8 0 0 1 .359-.102 1 1 0 0 1 .573.156c.184.113.35.286.466.511.155.3.187.626.122.9a1 1 0 0 1-.163.367.9.9 0 0 1-.281.253l-.644.358-.635.352-1.2.666a.8.8 0 0 1-.358.102 1 1 0 0 1-.573-.156 1.3 1.3 0 0 1-.463-.507z"/><g filter="url(#O)"><path fill="#fff" d="m115.831 66.533.636-.353a1.95 1.95 0 0 0-1.028-.938 1.65 1.65 0 0 0-.666-.107 1.5 1.5 0 0 0-.669.192l-1.018.565-.705.392-.756.419c-.212.118-.389.28-.524.47a1.85 1.85 0 0 0-.333.984c-.018.355.057.723.232 1.063.235.454.607.781 1.031.942.212.08.439.119.666.107s.457-.074.669-.192l2.479-1.376c.211-.117.389-.28.524-.47.204-.286.315-.629.334-.984q.008-.18-.015-.36l-.706.39a1 1 0 0 1-.026.16 1 1 0 0 1-.162.367.9.9 0 0 1-.281.253l-2.48 1.376a.8.8 0 0 1-.358.102 1 1 0 0 1-.573-.156 1.3 1.3 0 0 1-.466-.512 1.32 1.32 0 0 1-.122-.9q.05-.208.163-.367a.9.9 0 0 1 .281-.253l.643-.357.636-.353 1.2-.665a.8.8 0 0 1 .358-.103 1 1 0 0 1 .573.156c.183.113.347.284.463.507"/></g></g><path fill="url(#P)" d="m118.562 71.138-.048.046-.15.14a5.92 5.92 0 0 1-3.313 1.487q.05-.162.097-.339a5.92 5.92 0 0 0 3.414-1.334" style="mix-blend-mode:saturation"/></g><g clip-path="url(#Q)"><path fill="url(#R)" d="M68.634 44.074a3.44 3.44 0 0 0-3.266-3.607 3.443 3.443 0 0 0-3.622 3.25 3.44 3.44 0 0 0 3.264 3.607 3.443 3.443 0 0 0 3.623-3.25"/><path fill="url(#S)" d="M68.55 44.07a3.357 3.357 0 0 0-3.186-3.521 3.36 3.36 0 0 0-3.537 3.172 3.357 3.357 0 0 0 3.187 3.521 3.36 3.36 0 0 0 3.537-3.172"/><path fill="url(#T)" d="M68.143 44.049a2.92 2.92 0 0 1-.972 2.032 2.94 2.94 0 0 1-2.131.752 2.94 2.94 0 0 1-2.041-.968 2.91 2.91 0 0 1-.756-2.122 2.92 2.92 0 0 1 .973-2.032 2.94 2.94 0 0 1 2.13-.752 2.94 2.94 0 0 1 2.042.968c.528.584.796 1.337.755 2.122"/><path fill="url(#U)" d="M63.319 41.623a2.91 2.91 0 0 0-.874 1.94 2.91 2.91 0 0 0 .756 2.12 2.94 2.94 0 0 0 2.041.969 2.94 2.94 0 0 0 2.028-.664l-.1.093a2.94 2.94 0 0 1-2.13.752 2.94 2.94 0 0 1-2.041-.968 2.91 2.91 0 0 1-.756-2.122 2.92 2.92 0 0 1 1.076-2.12"/><path fill="url(#V)" d="M65.37 40.468a3.44 3.44 0 0 1 3.264 3.607 3.44 3.44 0 0 1-3.308 3.252l.04-.084a3.36 3.36 0 0 0 3.186-3.173 3.357 3.357 0 0 0-3.187-3.52 3.37 3.37 0 0 0-3.319 2.146l-.092.01a3.45 3.45 0 0 1 3.415-2.238" opacity=".4"/><path fill="url(#W)" d="M63.318 41.622a2.9 2.9 0 0 0-.684 1.041q-.065 0-.126.002a2.9 2.9 0 0 1 .81-1.043" style="mix-blend-mode:saturation"/><path fill="url(#X)" d="M65.292 40.588a3.357 3.357 0 0 1 3.187 3.52 3.36 3.36 0 0 1-3.186 3.174q.083-.182.158-.425a2.94 2.94 0 0 0 1.743-.83c.526-.517.835-1.2.874-1.94a2.91 2.91 0 0 0-.756-2.121 2.94 2.94 0 0 0-2.041-.968 2.94 2.94 0 0 0-2.028.664l-.026.021-.077.067a2.9 2.9 0 0 0-.707.955 5 5 0 0 0-.459.029 3.37 3.37 0 0 1 3.318-2.146" opacity=".3"/><path fill="url(#Y)" d="M65.342 40.958a2.94 2.94 0 0 1 2.04.968c.53.583.797 1.337.756 2.121a2.91 2.91 0 0 1-.873 1.94 2.94 2.94 0 0 1-1.695.662c.105-.397.178-.903.169-1.53-.036-.517-.256-1.602-1.428-2.117-.567-.267-1.189-.338-1.682-.339a2.9 2.9 0 0 1 .684-1.04v-.002a2.94 2.94 0 0 1 2.029-.663" opacity=".6"/><g clip-path="url(#Z)"><path fill="#fff" d="m64.537 43.796-.316.175c.117.223.3.385.51.465q.16.06.331.053a.8.8 0 0 0 .332-.096l.505-.28.35-.194.375-.208a.8.8 0 0 0 .26-.234.9.9 0 0 0 .165-.488 1.04 1.04 0 0 0-.115-.527.97.97 0 0 0-.512-.468.8.8 0 0 0-.33-.053.8.8 0 0 0-.332.096l-1.23.682a.8.8 0 0 0-.26.234.92.92 0 0 0-.158.667l.35-.194a.512.512 0 0 1 .094-.261.4.4 0 0 1 .139-.126l1.23-.683a.4.4 0 0 1 .178-.05.5.5 0 0 1 .284.077.64.64 0 0 1 .231.254c.077.149.093.31.06.447a.5.5 0 0 1-.08.181.4.4 0 0 1-.14.126l-.319.177-.315.175-.595.33a.4.4 0 0 1-.178.051.5.5 0 0 1-.284-.077.64.64 0 0 1-.23-.252"/><g filter="url(#aa)"><path fill="#fff" d="m65.828 43.742.316-.175a.97.97 0 0 0-.51-.465.8.8 0 0 0-.331-.053.76.76 0 0 0-.332.095l-.505.28-.35.195-.375.208a.8.8 0 0 0-.26.233.9.9 0 0 0-.166.488c-.008.176.029.36.116.528.116.225.3.388.512.468q.159.06.33.053a.8.8 0 0 0 .332-.096l1.23-.682a.8.8 0 0 0 .26-.234.9.9 0 0 0 .165-.488q.004-.09-.007-.18l-.35.195a.515.515 0 0 1-.094.261.4.4 0 0 1-.14.126l-1.23.682a.4.4 0 0 1-.177.051.5.5 0 0 1-.285-.077.64.64 0 0 1-.23-.254.66.66 0 0 1-.061-.447.5.5 0 0 1 .08-.182.4.4 0 0 1 .14-.125l.32-.178.315-.175.595-.33a.4.4 0 0 1 .178-.05.5.5 0 0 1 .284.077c.09.056.172.14.23.251"/></g></g><path fill="url(#ab)" d="m67.191 46.028-.023.023-.075.069a2.94 2.94 0 0 1-1.644.738q.025-.081.048-.168a2.94 2.94 0 0 0 1.694-.662" style="mix-blend-mode:saturation"/></g><g clip-path="url(#ac)"><path fill="url(#ad)" d="M112.555 91.606c.278-5.32-3.829-9.857-9.173-10.134-5.345-.276-9.902 3.812-10.18 9.133s3.83 9.857 9.173 10.134c5.345.276 9.902-3.812 10.18-9.133"/><path fill="url(#ae)" d="M112.322 91.594c.271-5.193-3.737-9.622-8.954-9.892-5.216-.27-9.664 3.721-9.936 8.914-.27 5.193 3.738 9.622 8.954 9.892s9.665-3.721 9.936-8.914"/><path fill="url(#af)" d="M111.168 91.536a8.2 8.2 0 0 1-2.732 5.71 8.27 8.27 0 0 1-5.987 2.113 8.26 8.26 0 0 1-5.735-2.72 8.19 8.19 0 0 1-2.123-5.961 8.2 8.2 0 0 1 2.732-5.71 8.27 8.27 0 0 1 5.987-2.112 8.26 8.26 0 0 1 5.735 2.72 8.19 8.19 0 0 1 2.123 5.96"/><path fill="url(#ag)" d="M97.613 84.72a8.2 8.2 0 0 0-2.454 5.449 8.19 8.19 0 0 0 2.123 5.96 8.26 8.26 0 0 0 5.734 2.72 8.27 8.27 0 0 0 5.698-1.865 8.267 8.267 0 0 1-6.265 2.375 8.26 8.26 0 0 1-5.735-2.72 8.19 8.19 0 0 1-2.123-5.961 8.2 8.2 0 0 1 3.022-5.957"/><path fill="url(#ah)" d="M103.39 81.475c5.343.276 9.451 4.814 9.173 10.134-.263 5.024-4.341 8.949-9.294 9.138q.055-.113.109-.235c4.782-.243 8.699-4.052 8.953-8.915.272-5.193-3.737-9.622-8.953-9.892a9.46 9.46 0 0 0-9.324 6.03l-.259.03a9.69 9.69 0 0 1 9.595-6.29" opacity=".4"/><path fill="url(#ai)" d="M97.615 84.718a8.2 8.2 0 0 0-1.92 2.926q-.183 0-.355.003a8.25 8.25 0 0 1 2.204-2.87z" style="mix-blend-mode:saturation"/><path fill="url(#aj)" d="M103.163 81.813c5.216.27 9.225 4.698 8.954 9.891-.254 4.864-4.172 8.673-8.953 8.915.153-.342.306-.738.446-1.192a8.25 8.25 0 0 0 4.894-2.333l.002-.002a8.18 8.18 0 0 0 2.454-5.448 8.18 8.18 0 0 0-2.123-5.96 8.26 8.26 0 0 0-5.734-2.72 8.26 8.26 0 0 0-5.698 1.865l-.002.002q-.035.028-.07.059-.11.091-.217.187a8.25 8.25 0 0 0-1.988 2.683c-.496.01-.935.044-1.288.082a9.46 9.46 0 0 1 9.323-6.03" opacity=".3"/><path fill="url(#ak)" d="M103.314 82.851a8.26 8.26 0 0 1 5.735 2.72 8.19 8.19 0 0 1 2.123 5.96 8.2 8.2 0 0 1-2.454 5.449l-.002.002a8.25 8.25 0 0 1-4.76 1.86c.294-1.117.5-2.537.475-4.3-.102-1.45-.719-4.5-4.013-5.946-1.592-.751-3.339-.95-4.724-.952a8.2 8.2 0 0 1 1.921-2.926l.002-.002a8.26 8.26 0 0 1 5.697-1.865" opacity=".6"/><g clip-path="url(#al)"><path fill="#fff" d="m101.065 90.824-.886.492a2.72 2.72 0 0 0 1.434 1.307c.296.111.611.165.929.148.317-.016.637-.103.932-.267l1.419-.788.984-.546 1.052-.584a2.2 2.2 0 0 0 .732-.656c.284-.398.439-.876.464-1.37a2.9 2.9 0 0 0-.325-1.483 2.72 2.72 0 0 0-1.437-1.313 2.3 2.3 0 0 0-.928-.149 2.14 2.14 0 0 0-.932.267l-3.456 1.918a2.2 2.2 0 0 0-.732.656 2.6 2.6 0 0 0-.464 1.371q-.011.25.02.504l.984-.546q.01-.114.037-.223c.044-.192.122-.365.227-.511a1.2 1.2 0 0 1 .391-.352l3.456-1.918q.237-.13.5-.143c.262-.014.542.059.799.218.256.157.487.399.649.713.216.419.261.872.17 1.255a1.4 1.4 0 0 1-.226.511 1.2 1.2 0 0 1-.392.353l-.897.498-.887.492-1.672.928a1.14 1.14 0 0 1-.5.142 1.4 1.4 0 0 1-.798-.217 1.8 1.8 0 0 1-.646-.707z"/><g filter="url(#am)"><path fill="#fff" d="m104.684 90.675.886-.492a2.72 2.72 0 0 0-1.433-1.307 2.3 2.3 0 0 0-.929-.148 2.1 2.1 0 0 0-.932.267l-1.419.787-.984.547-1.052.584a2.2 2.2 0 0 0-.732.656c-.284.398-.44.877-.464 1.371s.08 1.008.324 1.482a2.72 2.72 0 0 0 1.437 1.314c.296.112.612.165.929.148.317-.016.637-.103.932-.267l3.456-1.918c.295-.164.542-.392.731-.657.284-.398.439-.876.465-1.37a3 3 0 0 0-.021-.504l-.983.546q-.012.115-.037.223a1.45 1.45 0 0 1-.226.511 1.2 1.2 0 0 1-.392.352l-3.456 1.918a1.15 1.15 0 0 1-.501.143 1.4 1.4 0 0 1-.798-.217 1.8 1.8 0 0 1-.65-.714 1.84 1.84 0 0 1-.17-1.256c.045-.191.123-.364.227-.51a1.2 1.2 0 0 1 .392-.353l.897-.498.886-.492 1.673-.928a1.14 1.14 0 0 1 .5-.142c.261-.014.541.059.798.217a1.8 1.8 0 0 1 .646.707"/></g></g><path fill="url(#an)" d="m108.5 97.095-.066.064a8.254 8.254 0 0 1-4.829 2.269q.07-.226.135-.472a8.25 8.25 0 0 0 4.76-1.86" style="mix-blend-mode:saturation"/></g></g><defs><linearGradient id="d" x1="11.136" x2="11.715" y1="101.564" y2="106.056" gradientUnits="userSpaceOnUse"><stop stop-color="gold"/><stop offset="1" stop-color="#E68D35"/></linearGradient><linearGradient id="e" x1="9.992" x2="10.571" y1="105.364" y2="109.856" gradientUnits="userSpaceOnUse"><stop stop-color="gold"/><stop offset="1" stop-color="#E68D35"/></linearGradient><linearGradient id="f" x1="26.543" x2="27.168" y1="93.737" y2="98.401" gradientUnits="userSpaceOnUse"><stop stop-color="gold"/><stop offset="1" stop-color="#E68D35"/></linearGradient><linearGradient id="g" x1="24.195" x2="24.774" y1="97.711" y2="102.203" gradientUnits="userSpaceOnUse"><stop stop-color="gold"/><stop offset="1" stop-color="#E68D35"/></linearGradient><linearGradient id="h" x1="25.476" x2="26.055" y1="101.564" y2="106.056" gradientUnits="userSpaceOnUse"><stop stop-color="gold"/><stop offset="1" stop-color="#E68D35"/></linearGradient><linearGradient id="i" x1="24.343" x2="24.922" y1="105.364" y2="109.856" gradientUnits="userSpaceOnUse"><stop stop-color="gold"/><stop offset="1" stop-color="#E68D35"/></linearGradient><linearGradient id="j" x1="41.33" x2="41.934" y1="81.881" y2="86.388" gradientUnits="userSpaceOnUse"><stop stop-color="gold"/><stop offset="1" stop-color="#E68D35"/></linearGradient><linearGradient id="k" x1="40.918" x2="41.543" y1="85.823" y2="90.487" gradientUnits="userSpaceOnUse"><stop stop-color="gold"/><stop offset="1" stop-color="#E68D35"/></linearGradient><linearGradient id="l" x1="40.604" x2="41.208" y1="73.965" y2="78.471" gradientUnits="userSpaceOnUse"><stop stop-color="gold"/><stop offset="1" stop-color="#E68D35"/></linearGradient><linearGradient id="m" x1="40.187" x2="40.812" y1="77.906" y2="82.57" gradientUnits="userSpaceOnUse"><stop stop-color="gold"/><stop offset="1" stop-color="#E68D35"/></linearGradient><linearGradient id="n" x1="40.472" x2="41.097" y1="89.76" y2="94.424" gradientUnits="userSpaceOnUse"><stop stop-color="gold"/><stop offset="1" stop-color="#E68D35"/></linearGradient><linearGradient id="o" x1="42.363" x2="42.988" y1="93.634" y2="98.299" gradientUnits="userSpaceOnUse"><stop stop-color="gold"/><stop offset="1" stop-color="#E68D35"/></linearGradient><linearGradient id="p" x1="40.027" x2="40.606" y1="97.609" y2="102.101" gradientUnits="userSpaceOnUse"><stop stop-color="gold"/><stop offset="1" stop-color="#E68D35"/></linearGradient><linearGradient id="q" x1="41.308" x2="41.887" y1="101.462" y2="105.954" gradientUnits="userSpaceOnUse"><stop stop-color="gold"/><stop offset="1" stop-color="#E68D35"/></linearGradient><linearGradient id="r" x1="40.164" x2="40.743" y1="105.262" y2="109.754" gradientUnits="userSpaceOnUse"><stop stop-color="gold"/><stop offset="1" stop-color="#E68D35"/></linearGradient><linearGradient id="t" x1="20.3" x2="30.008" y1="1.393" y2="11.032" gradientUnits="userSpaceOnUse"><stop stop-color="gold"/><stop offset="1" stop-color="#E68D35"/></linearGradient><linearGradient id="u" x1="20.337" x2="29.813" y1="1.555" y2="10.963" gradientUnits="userSpaceOnUse"><stop stop-color="#EFCB0A"/><stop offset="1" stop-color="#AF661D"/></linearGradient><linearGradient id="v" x1="20.5" x2="28.815" y1="2.365" y2="10.621" gradientUnits="userSpaceOnUse"><stop stop-color="gold"/><stop offset="1" stop-color="#E68D35"/></linearGradient><linearGradient id="w" x1="19.738" x2="26.968" y1="2.521" y2="9.699" gradientUnits="userSpaceOnUse"><stop stop-color="gold"/><stop offset="1" stop-color="#E68D35"/></linearGradient><linearGradient id="x" x1="20.376" x2="29.834" y1="1.695" y2="11.267" gradientUnits="userSpaceOnUse"><stop stop-color="gold"/><stop offset="1" stop-color="#E68D35"/></linearGradient><linearGradient id="y" x1="23.82" x2="24.786" y1="2.113" y2="3.427" gradientUnits="userSpaceOnUse"><stop stop-color="gold"/><stop offset="1" stop-color="#E68D35"/></linearGradient><linearGradient id="z" x1="20.303" x2="29.516" y1="1.749" y2="11.083" gradientUnits="userSpaceOnUse"><stop stop-color="gold"/><stop offset="1" stop-color="#E68D35"/></linearGradient><linearGradient id="A" x1="20.846" x2="28.664" y1="2.979" y2="10.9" gradientUnits="userSpaceOnUse"><stop stop-color="#EBC704"/><stop offset="1" stop-color="#D17315"/></linearGradient><linearGradient id="D" x1="16.939" x2="19.205" y1="9.991" y2="11.18" gradientUnits="userSpaceOnUse"><stop stop-color="gold"/><stop offset="1" stop-color="#E68D35"/></linearGradient><linearGradient id="F" x1="107.587" x2="119.344" y1="66.482" y2="59.458" gradientUnits="userSpaceOnUse"><stop stop-color="gold"/><stop offset="1" stop-color="#E68D35"/></linearGradient><linearGradient id="G" x1="107.755" x2="119.23" y1="66.49" y2="59.634" gradientUnits="userSpaceOnUse"><stop stop-color="#EFCB0A"/><stop offset="1" stop-color="#AF661D"/></linearGradient><linearGradient id="H" x1="108.583" x2="118.653" y1="66.535" y2="60.518" gradientUnits="userSpaceOnUse"><stop stop-color="gold"/><stop offset="1" stop-color="#E68D35"/></linearGradient><linearGradient id="I" x1="108.542" x2="117.298" y1="67.307" y2="62.076" gradientUnits="userSpaceOnUse"><stop stop-color="gold"/><stop offset="1" stop-color="#E68D35"/></linearGradient><linearGradient id="J" x1="107.903" x2="119.533" y1="66.486" y2="59.687" gradientUnits="userSpaceOnUse"><stop stop-color="gold"/><stop offset="1" stop-color="#E68D35"/></linearGradient><linearGradient id="K" x1="109.174" x2="110.691" y1="63.271" y2="62.66" gradientUnits="userSpaceOnUse"><stop stop-color="gold"/><stop offset="1" stop-color="#E68D35"/></linearGradient><linearGradient id="L" x1="107.937" x2="119.276" y1="66.569" y2="59.949" gradientUnits="userSpaceOnUse"><stop stop-color="gold"/><stop offset="1" stop-color="#E68D35"/></linearGradient><linearGradient id="M" x1="109.271" x2="118.892" y1="66.355" y2="60.738" gradientUnits="userSpaceOnUse"><stop stop-color="#EBC704"/><stop offset="1" stop-color="#D17315"/></linearGradient><linearGradient id="P" x1="115.099" x2="116.811" y1="71.886" y2="69.988" gradientUnits="userSpaceOnUse"><stop stop-color="gold"/><stop offset="1" stop-color="#E68D35"/></linearGradient><linearGradient id="R" x1="61.745" x2="67.579" y1="43.717" y2="40.232" gradientUnits="userSpaceOnUse"><stop stop-color="gold"/><stop offset="1" stop-color="#E68D35"/></linearGradient><linearGradient id="S" x1="61.827" x2="67.521" y1="43.721" y2="40.319" gradientUnits="userSpaceOnUse"><stop stop-color="#EFCB0A"/><stop offset="1" stop-color="#AF661D"/></linearGradient><linearGradient id="T" x1="62.243" x2="67.24" y1="43.743" y2="40.758" gradientUnits="userSpaceOnUse"><stop stop-color="gold"/><stop offset="1" stop-color="#E68D35"/></linearGradient><linearGradient id="U" x1="62.223" x2="66.568" y1="44.127" y2="41.531" gradientUnits="userSpaceOnUse"><stop stop-color="gold"/><stop offset="1" stop-color="#E68D35"/></linearGradient><linearGradient id="V" x1="61.901" x2="67.672" y1="43.719" y2="40.345" gradientUnits="userSpaceOnUse"><stop stop-color="gold"/><stop offset="1" stop-color="#E68D35"/></linearGradient><linearGradient id="W" x1="62.536" x2="63.289" y1="42.124" y2="41.821" gradientUnits="userSpaceOnUse"><stop stop-color="gold"/><stop offset="1" stop-color="#E68D35"/></linearGradient><linearGradient id="X" x1="61.92" x2="67.547" y1="43.76" y2="40.476" gradientUnits="userSpaceOnUse"><stop stop-color="gold"/><stop offset="1" stop-color="#E68D35"/></linearGradient><linearGradient id="Y" x1="62.578" x2="67.352" y1="43.654" y2="40.867" gradientUnits="userSpaceOnUse"><stop stop-color="#EBC704"/><stop offset="1" stop-color="#D17315"/></linearGradient><linearGradient id="ab" x1="65.473" x2="66.323" y1="46.399" y2="45.457" gradientUnits="userSpaceOnUse"><stop stop-color="gold"/><stop offset="1" stop-color="#E68D35"/></linearGradient><linearGradient id="ad" x1="93.202" x2="109.592" y1="90.605" y2="80.812" gradientUnits="userSpaceOnUse"><stop stop-color="gold"/><stop offset="1" stop-color="#E68D35"/></linearGradient><linearGradient id="ae" x1="93.432" x2="109.43" y1="90.616" y2="81.058" gradientUnits="userSpaceOnUse"><stop stop-color="#EFCB0A"/><stop offset="1" stop-color="#AF661D"/></linearGradient><linearGradient id="af" x1="94.591" x2="108.63" y1="90.678" y2="82.29" gradientUnits="userSpaceOnUse"><stop stop-color="gold"/><stop offset="1" stop-color="#E68D35"/></linearGradient><linearGradient id="ag" x1="94.535" x2="106.741" y1="91.755" y2="84.462" gradientUnits="userSpaceOnUse"><stop stop-color="gold"/><stop offset="1" stop-color="#E68D35"/></linearGradient><linearGradient id="ah" x1="93.647" x2="109.86" y1="90.61" y2="81.132" gradientUnits="userSpaceOnUse"><stop stop-color="gold"/><stop offset="1" stop-color="#E68D35"/></linearGradient><linearGradient id="ai" x1="95.419" x2="97.534" y1="86.128" y2="85.276" gradientUnits="userSpaceOnUse"><stop stop-color="gold"/><stop offset="1" stop-color="#E68D35"/></linearGradient><linearGradient id="aj" x1="93.689" x2="109.496" y1="90.725" y2="81.498" gradientUnits="userSpaceOnUse"><stop stop-color="gold"/><stop offset="1" stop-color="#E68D35"/></linearGradient><linearGradient id="ak" x1="95.548" x2="108.962" y1="90.428" y2="82.597" gradientUnits="userSpaceOnUse"><stop stop-color="#EBC704"/><stop offset="1" stop-color="#D17315"/></linearGradient><linearGradient id="an" x1="103.673" x2="106.059" y1="98.138" y2="95.492" gradientUnits="userSpaceOnUse"><stop stop-color="gold"/><stop offset="1" stop-color="#E68D35"/></linearGradient><clipPath id="a"><path fill="#fff" d="M0 0h122v109H0z"/></clipPath><clipPath id="s"><path fill="#fff" d="M13.492 2.785 27.108 0l2.798 13.555-13.616 2.786z"/></clipPath><clipPath id="B"><path fill="#fff" d="m17.906 4.752 8.33.325-.251 6.38-8.33-.326z"/></clipPath><clipPath id="E"><path fill="#fff" d="m107.227 73.392.722-13.82 13.881.718-.722 13.82z"/></clipPath><clipPath id="N"><path fill="#fff" d="m110.254 69.633 2.415-7.944 6.138 1.849-2.415 7.944z"/></clipPath><clipPath id="Q"><path fill="#fff" d="m61.566 47.146.359-6.858 6.887.357-.358 6.858z"/></clipPath><clipPath id="Z"><path fill="#fff" d="m63.066 45.28 1.198-3.94 3.046.917-1.198 3.941z"/></clipPath><clipPath id="ac"><path fill="#fff" d="m92.7 100.238 1.005-19.267 19.352 1.002-1.006 19.267z"/></clipPath><clipPath id="al"><path fill="#fff" d="m96.914 94.997 3.366-11.074 8.557 2.578-3.366 11.074z"/></clipPath><filter id="C" width="5.954" height="5.865" x="17.828" y="4.829" color-interpolation-filters="sRGB" filterUnits="userSpaceOnUse"><feFlood flood-opacity="0" result="BackgroundImageFix"/><feColorMatrix in="SourceAlpha" result="hardAlpha" values="0 0 0 0 0 0 0 0 0 0 0 0 0 0 0 0 0 0 127 0"/><feOffset dx=".147" dy=".147"/><feGaussianBlur stdDeviation=".073"/><feComposite in2="hardAlpha" operator="out"/><feColorMatrix values="0 0 0 0 0 0 0 0 0 0 0 0 0 0 0 0 0 0 0.1 0"/><feBlend in2="BackgroundImageFix" result="effect1_dropShadow_2143_109203"/><feBlend in="SourceGraphic" in2="effect1_dropShadow_2143_109203" result="shape"/></filter><filter id="O" width="6.231" height="5.432" x="110.766" y="65.133" color-interpolation-filters="sRGB" filterUnits="userSpaceOnUse"><feFlood flood-opacity="0" result="BackgroundImageFix"/><feColorMatrix in="SourceAlpha" result="hardAlpha" values="0 0 0 0 0 0 0 0 0 0 0 0 0 0 0 0 0 0 127 0"/><feOffset dx=".147" dy=".147"/><feGaussianBlur stdDeviation=".073"/><feComposite in2="hardAlpha" operator="out"/><feColorMatrix values="0 0 0 0 0 0 0 0 0 0 0 0 0 0 0 0 0 0 0.1 0"/><feBlend in2="BackgroundImageFix" result="effect1_dropShadow_2143_109203"/><feBlend in="SourceGraphic" in2="effect1_dropShadow_2143_109203" result="shape"/></filter><filter id="aa" width="3.243" height="2.843" x="63.313" y="43.048" color-interpolation-filters="sRGB" filterUnits="userSpaceOnUse"><feFlood flood-opacity="0" result="BackgroundImageFix"/><feColorMatrix in="SourceAlpha" result="hardAlpha" values="0 0 0 0 0 0 0 0 0 0 0 0 0 0 0 0 0 0 127 0"/><feOffset dx=".147" dy=".147"/><feGaussianBlur stdDeviation=".073"/><feComposite in2="hardAlpha" operator="out"/><feColorMatrix values="0 0 0 0 0 0 0 0 0 0 0 0 0 0 0 0 0 0 0.1 0"/><feBlend in2="BackgroundImageFix" result="effect1_dropShadow_2143_109203"/><feBlend in="SourceGraphic" in2="effect1_dropShadow_2143_109203" result="shape"/></filter><filter id="am" width="8.575" height="7.456" x="97.621" y="88.725" color-interpolation-filters="sRGB" filterUnits="userSpaceOnUse"><feFlood flood-opacity="0" result="BackgroundImageFix"/><feColorMatrix in="SourceAlpha" result="hardAlpha" values="0 0 0 0 0 0 0 0 0 0 0 0 0 0 0 0 0 0 127 0"/><feOffset dx=".147" dy=".147"/><feGaussianBlur stdDeviation=".073"/><feComposite in2="hardAlpha" operator="out"/><feColorMatrix values="0 0 0 0 0 0 0 0 0 0 0 0 0 0 0 0 0 0 0.1 0"/><feBlend in2="BackgroundImageFix" result="effect1_dropShadow_2143_109203"/><feBlend in="SourceGraphic" in2="effect1_dropShadow_2143_109203" result="shape"/></filter></defs></svg>