<svg xmlns="http://www.w3.org/2000/svg" width="271" height="180" fill="none" viewBox="0 0 271 180">
    <g clip-path="url(#a)">
        <path fill="#f5f5f5" d="M194.649 36.695c9.816 0 17.773-7.934 17.773-17.721s-7.957-17.721-17.773-17.721c-9.817 0-17.774 7.934-17.774 17.72 0 9.788 7.957 17.722 17.774 17.722"/>
        <path fill="#e0e0e0" d="M201.121 18.637c-.544 1.172-.262 2.453.628 2.866.89.41 2.053-.205 2.597-1.377.543-1.172.262-2.453-.628-2.867-.89-.41-2.054.205-2.597 1.378M187.706 12.45c-.543 1.172-.261 2.453.629 2.866.89.41 2.053-.205 2.597-1.377.543-1.172.262-2.453-.628-2.866-.89-.41-2.054.204-2.598 1.377M188.903 16.81c-1.51 3.256-.246 7.046 2.831 8.467 3.072 1.417 6.789-.072 8.303-3.332l-11.13-5.135z"/>
        <path fill="#ebebeb" d="M189.234 23.073s1.748-.892 3.544-.06c1.796.83 2.255 2.738 2.255 2.738s-3.528.538-5.799-2.674z"/>
        <path fill="#f5f5f5" d="M64.478 68.696H6.615a2.94 2.94 0 0 0-2.943 2.935v17.03a2.94 2.94 0 0 0 2.943 2.935h57.863a2.94 2.94 0 0 0 2.943-2.935v-17.03a2.94 2.94 0 0 0-2.943-2.935"/>
        <path fill="#e0e0e0" d="M14.551 84.205a4.185 4.185 0 0 0 4.192-4.18 4.185 4.185 0 0 0-4.192-4.179 4.185 4.185 0 0 0-4.192 4.18 4.185 4.185 0 0 0 4.192 4.179M54.812 78.082H21.656v1.944h33.156zM35.037 81.51h-13.38v1.944h13.38z"/>
        <path fill="#f5f5f5" d="M268.056 86h-57.863a2.94 2.94 0 0 0-2.943 2.935v17.03a2.94 2.94 0 0 0 2.943 2.935h57.863a2.94 2.94 0 0 0 2.944-2.935v-17.03A2.94 2.94 0 0 0 268.056 86"/>
        <path fill="#e0e0e0" d="M221.577 99.707a4.17 4.17 0 0 0-1.067-5.814 4.2 4.2 0 0 0-5.831 1.064 4.17 4.17 0 0 0 1.067 5.814 4.2 4.2 0 0 0 5.831-1.064M258.39 95.39h-33.156v1.944h33.156zM238.615 98.82h-13.381v1.942h13.381z"/>
        <path fill="#455a64" d="M207.309 177.965H52.203c-5.126 0-9.281-4.312-9.281-9.632V57.88c0-3.882 3.032-7.026 6.773-7.026h160.501c3.535 0 6.398 2.971 6.398 6.64v110.839c0 5.32-4.155 9.632-9.281 9.632z"/>
        <path fill="#455a64" d="M216.407 179.9H44.632c-4.957 0-8.976-4.168-8.976-9.311v-1.449a.35.35 0 0 1 .346-.357H223.47c.189 0 .346.16.346.357v3.079c0 4.244-3.317 7.685-7.409 7.685z"/>
        <path fill="#263238" d="M216.404 179.9q0-.001.254-.02c.169-.02.423 0 .749-.073a6.84 6.84 0 0 0 2.762-1.011c.564-.334 1.136-.811 1.675-1.422a7.6 7.6 0 0 0 1.394-2.284c.362-.911.551-1.967.539-3.099v-2.678c0-.157.012-.313-.101-.41-.1-.108-.253-.084-.41-.084-9.882.008-24.172.02-41.837.032-35.326.008-84.128.016-138.025.028h-7.396a.3.3 0 0 0-.117.02.26.26 0 0 0-.141.173c-.016.064-.004.197-.008.297v.65c-.008.434.012.864.036 1.289.072.847.225 1.694.527 2.489.125.406.327.779.5 1.165.217.361.402.742.664 1.071a9 9 0 0 0 3.797 3.088 9 9 0 0 0 2.348.622c.801.08 1.619.064 2.436.064h14.484c12.708 0 24.969 0 36.646.004 23.354.008 44.39.016 62.05.02 17.661.012 31.956.024 41.833.033l11.375.02c1.301.004 2.291.008 2.96.008.664 0 1.006.012 1.006.012s-.342.008-1.006.012c-.669 0-1.659.004-2.96.008l-11.375.02c-9.877.008-24.172.02-41.833.032-17.665.008-38.696.012-62.05.02-11.677 0-23.938 0-36.646.004H46.05c-.813 0-1.63.016-2.456-.064a9.3 9.3 0 0 1-2.4-.635 9.1 9.1 0 0 1-3.878-3.151c-.266-.337-.455-.727-.676-1.092-.178-.394-.383-.775-.508-1.188-.306-.811-.467-1.675-.54-2.542a18 18 0 0 1-.035-1.301v-.65c.003-.116-.013-.201.016-.349a.45.45 0 0 1 .253-.305.4.4 0 0 1 .19-.036h7.392c53.897.012 102.695.02 138.025.028 17.661.012 31.955.024 41.837.032h.233a.4.4 0 0 1 .343.333c.012.088 0 .161.004.241v2.678c.012 1.14-.186 2.208-.552 3.123a7.8 7.8 0 0 1-1.409 2.297c-.548.614-1.124 1.092-1.692 1.421-1.123.694-2.122.915-2.782.995-.33.065-.584.045-.753.061-.169.008-.254.008-.254.008z"/>
        <path fill="#263238" d="m112.625 168.566 2.335 4.111h32.854l2.17-4.111z"/>
        <path fill="#fff" d="M210.638 60.522H51.43v104.122h159.208z"/>
        <path fill="#e0e0e0" d="M210.638 60.522H51.43V70.96h159.208z"/>
        <path fill="#fff" d="M57.951 65.308c0 .875-.688 1.59-1.534 1.59s-1.534-.711-1.534-1.59.688-1.59 1.534-1.59 1.534.71 1.534 1.59M62.436 65.308c0 .875-.69 1.59-1.535 1.59s-1.534-.711-1.534-1.59.689-1.59 1.534-1.59 1.534.71 1.534 1.59M66.912 65.308c0 .875-.689 1.59-1.534 1.59s-1.534-.711-1.534-1.59.688-1.59 1.534-1.59 1.534.71 1.534 1.59"/>
        <path fill="#ea3934" d="M81.682 104.748a10.396 10.396 0 0 0 0-14.733c-4.081-4.069-10.697-4.069-14.778 0a10.396 10.396 0 0 0 0 14.733c4.08 4.069 10.697 4.069 14.778 0"/>
        <path fill="#e0e0e0" d="M97.392 113.32h-34.48c-1.039 0-1.88.839-1.88 1.874v8.138c0 1.036.841 1.875 1.88 1.875h34.48c1.038 0 1.88-.839 1.88-1.875v-8.138a1.877 1.877 0 0 0-1.88-1.874M97.392 129.057h-34.48c-1.039 0-1.88.84-1.88 1.875v8.138c0 1.035.841 1.875 1.88 1.875h34.48c1.038 0 1.88-.84 1.88-1.875v-8.138a1.88 1.88 0 0 0-1.88-1.875M97.392 144.438h-34.48c-1.039 0-1.88.839-1.88 1.875v8.137c0 1.036.841 1.875 1.88 1.875h34.48c1.038 0 1.88-.839 1.88-1.875v-8.137a1.877 1.877 0 0 0-1.88-1.875M198.364 86.377h-94.762v78.267h94.762z"/>
        <path fill="#000" d="M76.636 50.858h110.502a3.225 3.225 0 0 1 3.23 3.22v105.716a3.225 3.225 0 0 1-3.23 3.22H76.636a3.225 3.225 0 0 1-3.23-3.22V54.078a3.224 3.224 0 0 1 3.23-3.22" opacity=".14"/>
        <path fill="#fff" d="M78.75 26.365V156.24a3.063 3.063 0 0 0 3.068 3.059h100.424a3.064 3.064 0 0 0 3.069-3.059V26.365c0-1.69-1.374-3.06-3.069-3.06H81.818a3.064 3.064 0 0 0-3.068 3.06"/>
        <path fill="#e0e0e0" d="M146.28 56.189a4.17 4.17 0 0 0-1.067-5.814 4.2 4.2 0 0 0-5.831 1.064 4.17 4.17 0 0 0 1.067 5.814 4.2 4.2 0 0 0 5.831-1.064M176 52.08h-26.062v1.528H176zM163.318 55.302h-13.38v1.943h13.38z"/>
        <path fill="#ea3934" d="M81.758 23.306h100.75a2.8 2.8 0 0 1 2.803 2.794v9.254H78.75v-9.05a3.006 3.006 0 0 1 3.008-2.998"/>
        <path fill="#263238" d="M185.306 26.36q-.001-.001-.02-.308c-.032-.205-.072-.514-.238-.888a3.15 3.15 0 0 0-.922-1.188 3.1 3.1 0 0 0-1.953-.65l-14.004.02c-12.165.008-29.761.02-51.505.032-5.436 0-11.133.004-17.064.008H82.289c-.403 0-.793-.012-1.168.084a2.98 2.98 0 0 0-2.25 2.425c-.061.381-.033.79-.04 1.196v14.935c0 6.79 0 13.779.003 20.945 0 28.665.004 60.181.008 93.258 0 .502.13.996.367 1.437.25.43.591.815 1.018 1.072.423.265.91.426 1.41.446.503.016 1.026.004 1.542.008h42.239c15.648 0 30.739.004 45.115.008h10.646c.435-.004.882.012 1.305-.012a2.86 2.86 0 0 0 1.199-.366 3 3 0 0 0 1.454-1.963c.097-.405.06-.835.069-1.264v-3.842c0-6.789 0-13.382.004-19.757l.012-35.462c.012-21.68.024-39.224.032-51.348l.02-13.96c.004-1.593.008-2.81.012-3.629 0-.819.012-1.236.012-1.236s.008.417.012 1.236c0 .82.004 2.036.012 3.63l.02 13.959c.008 12.124.021 29.669.033 51.348 0 10.84.008 22.715.012 35.462 0 6.375 0 12.968.004 19.757v3.842c-.008.421.032.863-.073 1.304a3.2 3.2 0 0 1-1.542 2.088 3.1 3.1 0 0 1-1.276.389c-.451.029-.878.009-1.317.013h-10.646c-14.38 0-29.471 0-45.115.008H83.183c-.52 0-1.027.008-1.554-.008a3.184 3.184 0 0 1-2.601-1.626 3.26 3.26 0 0 1-.395-1.538c0-33.077.004-64.593.008-93.258 0-7.166 0-14.156.004-20.945V27.087c.008-.405-.02-.806.044-1.224a3.151 3.151 0 0 1 2.384-2.565c.403-.1.817-.089 1.208-.089h17.31c5.936 0 11.629.004 17.065.008 21.744.016 39.34.024 51.505.032l14.004.02a3.1 3.1 0 0 1 1.973.667c.48.381.761.83.923 1.204.161.382.197.69.225.896l.012.313z"/>
        <path fill="#e0e0e0" d="M177.295 109.12H87.578v3.108h89.717zM167.019 115.243h-79.44v3.107h79.44zM135.978 121.518h-48.4v3.107h48.4zM177.295 141.158H87.578v3.107h89.717z"/>
        <path fill="#fff" d="M86.818 29.007a1.913 1.913 0 0 1-1.917 1.91 1.913 1.913 0 0 1-1.917-1.91c0-1.056.858-1.912 1.917-1.912s1.917.856 1.917 1.912M91.99 29.007a1.913 1.913 0 0 1-1.917 1.91 1.913 1.913 0 0 1-1.917-1.91c0-1.056.858-1.912 1.917-1.912s1.917.856 1.917 1.912M97.17 29.007a1.913 1.913 0 0 1-1.917 1.91 1.913 1.913 0 0 1-1.917-1.91c0-1.056.858-1.912 1.917-1.912s1.916.856 1.916 1.912"/>
        <path fill="#000" d="M201.657 98.891h-58.509c-.858 0-1.554.694-1.554 1.55v18.877c0 .856.696 1.55 1.554 1.55h58.509c.858 0 1.554-.694 1.554-1.55v-18.877c0-.856-.696-1.55-1.554-1.55" opacity=".14"/>
        <path fill="#fff" d="M200.149 97.105H141.64c-.858 0-1.554.693-1.554 1.55v18.876c0 .856.696 1.55 1.554 1.55h58.509c.859 0 1.555-.694 1.555-1.55V98.654c0-.856-.696-1.55-1.555-1.55"/>
        <path fill="#e0e0e0" d="M182.367 102H148v2.015h34.367zM182.367 106.81H148v2.015h34.367zM161.868 111.623H148v2.016h13.868z"/>
        <path fill="#263238" d="M200.152 119.081s.165.008.467-.084c.286-.093.745-.35.966-.924.121-.281.093-.63.097-1.007q.001-.566-.004-1.241c0-.895-.008-1.931-.008-3.095-.004-2.329-.012-5.179-.016-8.487 0-1.654-.004-3.425-.008-5.3 0-.237.008-.465-.057-.686a1.4 1.4 0 0 0-.33-.595c-.31-.353-.785-.521-1.272-.485h-3.056c-16.711.008-29.792.02-55.28.032-.375 0-.741.144-1.007.405-.27.257-.431.615-.443.984v18.411c.008.378-.04.743.105 1.06.129.322.374.59.681.751q.23.121.491.153c.165.016.354.008.539.012h11.762c11.045.008 20.995.016 29.35.024 8.351.012 5.112.024 9.787.032l5.38.02q.919.006 1.397.012c.314 0 .475.012.475.012s-.161.008-.475.012q-.478 0-1.397.012l-5.38.02c-4.675.008-1.436.02-9.787.032-8.355.008-18.301.012-29.35.024h-11.762c-.185 0-.362.008-.563-.012a1.652 1.652 0 0 1-1.454-1.606V98.59c.012-.422.197-.835.507-1.128a1.67 1.67 0 0 1 1.152-.462c25.493.012 38.569.024 55.28.032h3.056c.503-.036 1.043.153 1.373.538.169.185.294.41.358.65.069.241.061.49.061.723 0 1.875-.004 3.646-.008 5.3-.008 3.308-.012 6.158-.016 8.487 0 1.164-.009 2.2-.009 3.095q.001.675-.004 1.241c-.004.373.021.73-.108 1.023a1.57 1.57 0 0 1-.999.932c-.306.084-.471.064-.471.064z"/>
        <path fill="#fff" d="M54.248 100.641H7.478c-4.078 0-7.384 3.296-7.384 7.363v17.488c0 4.067 3.306 7.363 7.385 7.363H34.48c1.224 2.638 3.515 4.758 6.105 6.155 2.117 1.14 4.425 1.863 6.776 2.409.922.212 1.615-.832 1.035-1.582a16.7 16.7 0 0 1-3.14-6.982h8.987c4.079 0 7.385-3.296 7.385-7.363v-17.488c0-4.067-3.306-7.363-7.385-7.363z"/>
        <path fill="#263238" d="M54.247 100.641q-.001-.001.233.004c.154.012.387 0 .685.044.6.064 1.502.249 2.549.783a7.53 7.53 0 0 1 3.048 2.983c.407.747.72 1.622.846 2.59.064.481.072.987.072 1.501v1.586c0 4.348.028 9.615.008 15.657a7 7 0 0 1-.447 2.269c-.274.734-.652 1.453-1.167 2.079-1.015 1.253-2.473 2.244-4.156 2.614-.837.196-1.715.205-2.577.196h-8.09l.089-.108a16.8 16.8 0 0 0 2.23 5.657q.42.66.899 1.293c.173.228.261.534.21.827a1.13 1.13 0 0 1-.456.726 1.1 1.1 0 0 1-.841.185c-.274-.056-.532-.125-.798-.189a39 39 0 0 1-1.586-.433c-2.106-.631-4.216-1.49-6.096-2.803-1.869-1.304-3.528-3.051-4.526-5.199l.092.061H7.884c-.402.008-.813-.017-1.216-.045l-.604-.092c-.201-.028-.394-.096-.592-.14a7.7 7.7 0 0 1-2.194-1.004 7.9 7.9 0 0 1-1.74-1.642 7.1 7.1 0 0 1-1.131-2.084c-.254-.747-.415-1.529-.415-2.312 0-6.183.004-12.149.008-17.834 0-.722.157-1.429.359-2.107a7.9 7.9 0 0 1 .93-1.895 8.1 8.1 0 0 1 1.405-1.538c.544-.43 1.123-.807 1.752-1.076.628-.261 1.28-.474 1.949-.554.668-.104 1.336-.084 1.989-.084h3.865l14.097.012c8.617.012 15.588.024 20.411.032l5.55.02c.631.004 1.114.008 1.44.012.327 0 .492.012.492.012s-.165.008-.491.012c-.33 0-.814.004-1.442.012l-5.549.02c-4.823.008-11.794.02-20.41.032-4.309 0-9.028.008-14.098.012H8.384c-.657 0-1.313-.016-1.961.085-.653.076-1.289.285-1.9.542-.613.265-1.177.634-1.708 1.052a8 8 0 0 0-1.37 1.501 7.8 7.8 0 0 0-.905 1.847c-.197.662-.346 1.349-.346 2.051v17.822c0 .762.16 1.521.406 2.248s.62 1.417 1.1 2.027a7.5 7.5 0 0 0 1.69 1.598 7.6 7.6 0 0 0 2.135.976c.193.044.378.108.576.136l.587.089c.395.024.79.048 1.196.044h26.649l.028.06c.982 2.108 2.613 3.83 4.457 5.119 1.856 1.297 3.946 2.152 6.036 2.778q.788.236 1.575.43c.261.064.531.132.785.184.241.044.5 0 .692-.148a.94.94 0 0 0 .379-.599.9.9 0 0 0-.173-.678 16.9 16.9 0 0 1-3.157-7.03l-.02-.108h8.202c.87.008 1.72 0 2.54-.189 1.644-.353 3.073-1.321 4.068-2.549.507-.61.877-1.313 1.147-2.032.27-.718.423-1.473.443-2.22.012-6.034.024-11.305.036-15.649-.012-1.084.049-2.12-.064-3.075a7.4 7.4 0 0 0-.822-2.562 7.5 7.5 0 0 0-3.003-2.971c-1.04-.538-1.93-.734-2.525-.807-.298-.048-.532-.04-.685-.056q-.231-.019-.233-.02z"/>
        <path fill="#ea3934" d="M13.78 119.119a4.323 4.323 0 0 0 0-6.126 4.353 4.353 0 0 0-6.145 0 4.323 4.323 0 0 0 0 6.126 4.353 4.353 0 0 0 6.144 0"/>
        <path fill="#e0e0e0" d="M52.43 111.758H18.063v2.015H52.43zM52.43 116.567H18.063v2.016H52.43zM31.93 121.381H18.063v2.015H31.93z"/>
        <g clip-path="url(#b)">
            <mask id="c" width="50" height="42" x="86" y="44" maskUnits="userSpaceOnUse" style="mask-type:luminance">
                <path fill="#fff" d="m135.826 44.603-49.607-.152-.134 40.879 49.608.151z"/>
            </mask>
            <g mask="url(#c)">
                <path fill="#d4efff" d="m135.834 44.603-49.607-.152-.134 40.879 49.607.151z"/>
                <path fill="#b6cedb" d="M143.638 64.33c-2.156-1.732-5.292-2.138-7.817-1.013-2.033.905-3.7 2.716-5.905 3.02-1.043.145-2.113-.068-3.153.1-3.228.525-4.899 4.357-7.953 5.53-1.861.714-4.05.358-5.802 1.309-1.862 1.01-3.177 3.435-5.285 3.228-2.024-.199-2.896-2.663-4.524-3.886-1.458-1.096-3.545-1.173-4.849-2.45-.87-.852-1.453-2.247-2.665-2.335-.385-.027-.765.095-1.151.106-1.805.055-2.74-2.063-4.025-3.335-2.374-2.346-7.05-1.352-8.272 1.758l1.534 19.182c1.503.933 3.395.848 5.159.748 12.543-.72 25.129-.748 37.67.007 5.107.308 10.298.766 15.052 2.661 1.584-8.099.033-16.612 1.988-24.63z"/>
            </g>
            <path fill="#fff" d="M133.034 50.59c-1.005-.762-2.39-1.144-3.545-.642-.53.232-.989.637-1.557.755-.77.161-1.534-.236-2.301-.41-.769-.172-1.793.052-1.949.826-.362-.745-.74-1.512-1.362-2.061-.621-.55-1.553-.83-2.294-.46-.819.41-1.498 1.554-2.332 1.175-.266-.122-.457-.389-.736-.473-.934-.281-1.213 1.468-2.154 1.724-.324.088-.66-.025-.992-.064-1.152-.135-2.139.614-2.966 1.5 7.994.354 15.999.41 23.999.167-.517-.76-1.085-1.483-1.811-2.034z"/>
            <path fill="#efe9ca" d="m124.957 54.143-2.184-.007-.005 1.674 2.184.007z"/>
            <path fill="#efe9ca" d="m126.639 55.55-31.444-.096-.072 22.085 31.444.096z"/>
            <path stroke="#bcbec0" stroke-miterlimit="10" stroke-width=".069" d="m95.129 76.894 31.442.096M95.136 75.89l31.445.099M95.136 74.89l31.442.095M95.136 73.889l31.445.095M95.144 72.885l31.442.095M95.144 71.884l31.445.095M95.152 70.88l31.442.095M95.152 69.88l31.444.094M95.152 68.878l31.442.095M95.16 67.874l31.444.096M95.168 66.873l31.442.095M95.168 65.87l31.444.095M95.168 64.869l31.442.095M95.168 63.867l31.442.095M95.175 62.864l31.443.095" style="mix-blend-mode:multiply"/>
            <path fill="#bcbec0" d="m100.253 63.058-2.12 2.658.436.35 3.963-4.97 3.931 4.992.44-.346-2.102-2.668 5.175.015 2.052.006 5.194.016-2.119 2.655.434.35 3.964-4.968 3.931 4.992.437-.346-2.101-2.67 4.85.014.023-6.984-14.59-.044-2.052-.006-14.8-.045-.023 6.984z" style="mix-blend-mode:multiply"/>
            <path fill="#96d9d1" d="m103.635 63.67-1.095-.004-.438.522a57 57 0 0 1-1.416 1.645l-.002.899a28 28 0 0 0 2.951-3.063"/>
            <path fill="#a0e8e1" d="m102.543 63.666-.822-.004c-.357.515-.682 1.052-1.029 1.572l-.003.6c.484-.538.95-1.09 1.416-1.646q.219-.26.438-.523"/>
            <path fill="#96d9d1" d="m100.693 63.662-.004 1.574c.348-.52.672-1.057 1.029-1.571z"/>
            <path fill="#a0e8e1" d="M103.635 63.67a28 28 0 0 1-2.951 3.062l-.002.42.507.002a404 404 0 0 1 1.594-1.198c.454-.338.913-.678 1.387-.984l.003-1.3h-.543z"/>
            <path fill="#96d9d1" d="m101.193 67.154 2.975.01.008-2.192a26 26 0 0 0-1.387.985q-.8.594-1.594 1.197z"/>
            <path fill="#5e5c50" d="m104.048 63.753-.008 3.29-3.283-.009.009-3.29zm.187-.185-3.656-.012-.011 3.666 3.656.012z"/>
            <path fill="#5e5c50" d="m102.309 63.663-.011 3.426c-.001.12.185.128.185.008l.011-3.426c.001-.12-.185-.128-.185-.008"/>
            <path fill="#5e5c50" d="m100.684 65.468 3.418.01c.119 0 .127-.185.008-.186l-3.418-.01c-.119 0-.127.186-.008.186"/>
            <path fill="#6e6c5d" d="m104.722 63.094-4.503-.014-.001.318 4.503.014z"/>
            <path fill="#6e6c5d" d="m104.621 63.254-4.301-.014-.001.318 4.301.013zM104.699 67.325l-4.504-.014-.001.317 4.504.014z"/>
            <path fill="#6e6c5d" d="m104.606 67.167-4.301-.013-.001.318 4.301.013z"/>
            <path fill="#96d9d1" d="m120.658 63.722-1.094-.004-.438.523a59 59 0 0 1-1.416 1.645l-.003.898a28 28 0 0 0 2.951-3.062"/>
            <path fill="#a0e8e1" d="m119.566 63.718-.822-.004c-.357.515-.681 1.052-1.029 1.572l-.003.6c.484-.538.95-1.09 1.416-1.645z"/>
            <path fill="#96d9d1" d="m117.717 63.712-.004 1.574c.347-.52.672-1.057 1.029-1.571z"/>
            <path fill="#a0e8e1" d="M120.658 63.722a28 28 0 0 1-2.951 3.062l-.002.42.508.002c.531-.402 1.061-.798 1.594-1.198a26 26 0 0 1 1.386-.984l.004-1.3h-.544z"/>
            <path fill="#96d9d1" d="m118.217 67.206 2.974.01.008-2.192c-.476.309-.932.647-1.386.985q-.8.595-1.594 1.197z"/>
            <path fill="#5e5c50" d="m121.072 63.806-.009 3.29-3.282-.01.009-3.29zm.187-.188-3.656-.012-.012 3.666 3.657.012z"/>
            <path fill="#5e5c50" d="m119.332 63.713-.011 3.426c0 .12.185.128.186.008l.011-3.426c0-.12-.185-.128-.186-.008"/>
            <path fill="#5e5c50" d="m117.707 65.518 3.418.01c.12 0 .128-.185.009-.186l-3.418-.01c-.12 0-.128.185-.009.186"/>
            <path fill="#6e6c5d" d="m121.738 63.145-4.504-.014-.001.318 4.504.013z"/>
            <path fill="#6e6c5d" d="m121.645 63.304-4.301-.013-.001.318 4.301.013zM121.722 67.378l-4.503-.014-.001.317 4.503.014z"/>
            <path fill="#6e6c5d" d="m121.629 67.218-4.301-.014-.001.318 4.301.013z"/>
            <path fill="#96d9d1" d="m103.611 70.759-1.094-.004-.438.523a59 59 0 0 1-1.416 1.645l-.002.899a28 28 0 0 0 2.95-3.063"/>
            <path fill="#a0e8e1" d="m102.519 70.755-.822-.003c-.357.514-.681 1.052-1.029 1.571l-.003.6c.484-.538.95-1.09 1.416-1.645z"/>
            <path fill="#96d9d1" d="m100.67 70.749-.004 1.575c.348-.52.672-1.058 1.029-1.572z"/>
            <path fill="#a0e8e1" d="M103.611 70.759a28 28 0 0 1-2.95 3.063l-.003.42.508.001a404 404 0 0 1 1.594-1.197c.454-.338.912-.678 1.386-.985l.004-1.3h-.544z"/>
            <path fill="#96d9d1" d="m101.17 74.243 2.974.01.008-2.191c-.476.308-.932.646-1.386.984q-.8.596-1.594 1.197z"/>
            <path fill="#5e5c50" d="m104.017 70.843-.009 3.29-3.282-.01.009-3.29zm.187-.188-3.656-.012-.011 3.665 3.656.012z"/>
            <path fill="#5e5c50" d="m102.277 70.752-.011 3.426c0 .12.185.128.186.009l.011-3.427c0-.12-.185-.128-.186-.008"/>
            <path fill="#5e5c50" d="m100.653 72.555 3.418.01c.119 0 .127-.185.008-.186l-3.418-.01c-.119 0-.128.185-.008.186"/>
            <path fill="#6e6c5d" d="m104.691 70.182-4.503-.014-.002.317 4.504.014z"/>
            <path fill="#6e6c5d" d="m104.59 70.341-4.301-.013-.001.317 4.301.014zM104.668 74.414l-4.504-.014-.001.318 4.504.014z"/>
            <path fill="#6e6c5d" d="m104.574 74.257-4.301-.013-.001.317 4.301.013z"/>
            <path fill="#96d9d1" d="m120.642 70.812-1.094-.004q-.219.26-.438.523a59 59 0 0 1-1.416 1.645l-.002.898a28 28 0 0 0 2.95-3.062"/>
            <path fill="#a0e8e1" d="m119.551 70.808-.823-.004c-.357.515-.681 1.052-1.029 1.572l-.003.6c.485-.538.95-1.09 1.416-1.646z"/>
            <path fill="#96d9d1" d="m117.701 70.801-.004 1.575c.348-.52.672-1.057 1.029-1.572z"/>
            <path fill="#a0e8e1" d="M120.642 70.811a28 28 0 0 1-2.95 3.063l-.002.42.507.002a404 404 0 0 1 1.594-1.198c.454-.338.913-.678 1.386-.984l.004-1.3h-.544z"/>
            <path fill="#96d9d1" d="m118.201 74.294 2.975.009.007-2.191c-.476.308-.932.646-1.386.984q-.8.595-1.594 1.198z"/>
            <path fill="#5e5c50" d="m121.056 70.893-.009 3.29-3.282-.01.009-3.29zm.187-.185-3.656-.013-.011 3.666 3.656.012z"/>
            <path fill="#5e5c50" d="m119.316 70.802-.01 3.426c-.001.12.185.128.185.009l.011-3.427c.001-.12-.185-.127-.186-.008"/>
            <path fill="#5e5c50" d="m117.692 72.607 3.418.01c.119.001.127-.185.008-.186l-3.418-.01c-.119 0-.128.186-.008.186"/>
            <path fill="#6e6c5d" d="m121.722 70.235-4.503-.014-.001.318 4.503.014z"/>
            <path fill="#6e6c5d" d="m121.629 70.392-4.301-.013-.001.317 4.301.014zM121.707 74.468l-4.504-.014-.001.317 4.504.014z"/>
            <path fill="#6e6c5d" d="m121.614 74.308-4.302-.013-.001.317 4.302.013z"/>
            <path fill="#362b1f" d="m113.723 77.536-5.746-.017-.001.303 5.746.017z"/>
            <path fill="#0a2831" d="m113.142 77.508-4.653-.013.026-7.904 4.653.012zm-4.092-.571 3.535.01.021-6.786-3.535-.01z"/>
            <path fill="#6e6c5d" d="m112.891 69.887-4.094-.013-.024 7.346 4.094.013z"/>
            <path fill="#efe9ca" d="m111.316 71.413.001-.079-.956-.002.001.076-.078.002-.001.165h.079l-.001.077.953.002.001-.076h.077v-.166z"/>
            <path fill="#604d38" d="m112.654 73.119-.412-.001-.003.928.412.001z"/>
            <path fill="#edc984" d="M112.438 73.705a.113.113 0 0 0 .117-.107.112.112 0 1 0-.117.107"/>
            <path fill="#604d38" d="m113.265 77.23-4.827-.015-.001.303 4.827.015z"/>
            <path fill="#0a2831" d="m121.674 62.515 7.399.021-2.216-6.992-14.802-.043-2.05-.006-14.802-.046-2.666 6.978 8.078.024 1.925-2.414 1.91 2.426 5.532.016 2.052.007 5.261.016 2.198-2.757z"/>
            <path stroke="#0a2831" stroke-miterlimit="10" stroke-width=".808" d="m106.681 65.307-4.147-5.27-4.184 5.245M123.65 65.357l-4.148-5.267-4.183 5.242"/>
            <path fill="#6e6c5d" d="m125.384 53.158-2.993-.01-.004.987 2.994.01z"/>
            <path fill="#3c7b73" d="m136.042 77.756-51.081-.157-.031 9.59 51.081.157z"/>
            <path fill="#fff" d="m83.36 41.107-.209 64.096 55.369.168.206-64.096-55.369-.168zm51.172 43.402-47.258-.144.126-38.942 47.257.143z"/>
        </g>
        <path fill="#0a2831" d="m176.98 69.002-37.464.085.003 1.423 37.464-.085z"/>
        <path fill="#b8b8b8" d="m176.791 71.77-37.07.084a.2.2 0 0 0-.197.198v.002c0 .11.088.198.197.197l37.071-.083a.2.2 0 0 0 .197-.198v-.003a.2.2 0 0 0-.198-.197M176.791 73.166l-37.07.084a.2.2 0 0 0-.197.198v.003c0 .109.088.197.197.197l37.071-.084a.2.2 0 0 0 .197-.198v-.003a.2.2 0 0 0-.198-.197M176.799 74.557l-37.071.084a.196.196 0 0 0-.196.198v.003c0 .109.088.197.197.197l37.071-.084a.196.196 0 0 0 .196-.198v-.003a.197.197 0 0 0-.197-.197M176.799 75.949l-37.071.083a.196.196 0 0 0-.196.198v.003c0 .11.088.197.197.197l37.071-.084a.196.196 0 0 0 .196-.198v-.002a.197.197 0 0 0-.197-.197M176.799 77.345l-37.071.084a.196.196 0 0 0-.196.198v.003c0 .109.088.197.197.197l37.071-.084a.196.196 0 0 0 .196-.198v-.003a.197.197 0 0 0-.197-.197"/>
    </g>
    <defs>
        <clipPath id="a">
            <path fill="#fff" d="M0 0h271v180H0z"/>
        </clipPath>
        <clipPath id="b">
            <path fill="#fff" d="M86 44h50v41.907H86z"/>
        </clipPath>
    </defs>
</svg>
