<svg xmlns="http://www.w3.org/2000/svg" width="295" height="238" fill="none"><g clip-path="url(#a)"><path fill="#F5F5F5" d="M291.097 177.214H260v46.431h31.097z"/><path fill="#EBEBEB" d="M291.099 177.214h-14.581v46.431h14.581zM269.316 183.499h-2.797v7.69h2.797zM269.316 213.597h-2.797v7.69h2.797zM276.518 194.203c0 .067-3.698.12-8.255.12s-8.262-.053-8.262-.12c0-.066 3.698-.119 8.262-.119s8.255.053 8.255.119M269.316 198.661h-2.797v7.69h2.797zM276.518 209.372c0 .066-3.698.119-8.255.119s-8.262-.053-8.262-.119c0-.067 3.698-.126 8.262-.126s8.255.06 8.255.126"/><path fill="#E0E0E0" d="M282.409 183.499h-2.797v7.69h2.797zM288.477 183.499h-2.797v7.69h2.797zM282.409 198.092h-2.797v7.69h2.797zM288.477 198.092h-2.797v7.69h2.797zM282.409 212.683h-2.797v7.69h2.797zM288.477 212.683h-2.797v7.69h2.797zM293.432 175.591h-35.771v1.675h35.771z"/><path fill="#F5F5F5" d="M291.315 177.425c0 .067-6.951.12-15.523.12s-15.522-.053-15.522-.12c0-.066 6.95-.119 15.522-.119s15.523.053 15.523.119"/><path fill="#EBEBEB" d="M225.486 59.917h-55.443v164.278h55.443z"/><path fill="#E0E0E0" d="M225.481 59.917h-27.722v164.278h27.722z"/><path fill="#EBEBEB" d="M195.951 40.39h-19.577v19.527h19.577z"/><path fill="#E0E0E0" d="M195.945 40.39h-4.663v19.527h4.663z"/><path fill="#E0E0E0" d="M227.101 58.778h-61.68v1.14h61.68z"/><path fill="#fff" d="M185.677 68.434h-4.693v11.201h4.693z"/><path fill="#E0E0E0" d="M197.759 84.034c0 .119-6.202.212-13.855.212s-13.86-.093-13.86-.212c0-.12 6.202-.218 13.86-.218 7.659 0 13.855.092 13.855.218"/><path fill="#F5F5F5" d="M213.638 68.434h-4.693v11.201h4.693z"/><path fill="#EBEBEB" d="M225.721 84.034c0 .119-6.202.212-13.855.212s-13.861-.093-13.861-.212c0-.12 6.202-.218 13.861-.218 7.658 0 13.855.092 13.855.218"/><path fill="#F5F5F5" d="M213.638 90.67h-4.693v11.201h4.693z"/><path fill="#EBEBEB" d="M225.721 106.269c0 .119-6.202.218-13.855.218s-13.861-.099-13.861-.218 6.202-.212 13.861-.212c7.658 0 13.855.099 13.855.212"/><path fill="#F5F5F5" d="M213.638 113.581h-4.693v11.201h4.693z"/><path fill="#EBEBEB" d="M225.721 129.18c0 .119-6.202.218-13.855.218s-13.861-.099-13.861-.218 6.202-.212 13.861-.212c7.658 0 13.855.099 13.855.212"/><path fill="#F5F5F5" d="M213.638 136.499h-4.693V147.7h4.693z"/><path fill="#EBEBEB" d="M225.721 152.091c0 .119-6.202.218-13.855.218s-13.861-.099-13.861-.218 6.202-.212 13.861-.212c7.658 0 13.855.099 13.855.212"/><path fill="#F5F5F5" d="M213.638 158.754h-4.693v11.201h4.693z"/><path fill="#EBEBEB" d="M225.721 174.352c0 .113-6.202.212-13.855.212s-13.861-.099-13.861-.212 6.202-.218 13.861-.218c7.658 0 13.855.099 13.855.218"/><path fill="#F5F5F5" d="M213.638 181.095h-4.693v11.201h4.693zM213.638 203.734h-4.693v11.201h4.693z"/><path fill="#EBEBEB" d="M225.721 196.694c0 .119-6.202.218-13.855.218s-13.861-.099-13.861-.218 6.202-.212 13.861-.212c7.658 0 13.855.093 13.855.212"/><path fill="#fff" d="M185.677 91.014h-4.693v11.201h4.693z"/><path fill="#E0E0E0" d="M197.759 106.614c0 .112-6.202.212-13.855.212s-13.86-.1-13.86-.212c0-.113 6.202-.219 13.86-.219 7.659 0 13.855.099 13.855.219"/><path fill="#fff" d="M185.677 113.594h-4.693v11.201h4.693z"/><path fill="#E0E0E0" d="M197.759 129.192c0 .113-6.202.212-13.855.212s-13.86-.099-13.86-.212 6.202-.218 13.86-.218c7.659 0 13.855.099 13.855.218"/><path fill="#fff" d="M185.677 136.174h-4.693v11.201h4.693z"/><path fill="#E0E0E0" d="M197.759 151.772c0 .113-6.202.212-13.855.212s-13.86-.099-13.86-.212 6.202-.218 13.86-.218c7.659 0 13.855.099 13.855.218"/><path fill="#fff" d="M185.677 158.754h-4.693v11.201h4.693z"/><path fill="#E0E0E0" d="M197.759 174.352c0 .113-6.202.212-13.855.212s-13.86-.099-13.86-.212 6.202-.218 13.86-.218c7.659 0 13.855.099 13.855.218"/><path fill="#fff" d="M185.677 181.334h-4.693v11.201h4.693z"/><path fill="#E0E0E0" d="M197.759 196.932c0 .113-6.202.212-13.855.212s-13.86-.099-13.86-.212 6.202-.218 13.86-.218c7.659 0 13.855.099 13.855.218"/><path fill="#fff" d="M185.677 203.914h-4.693v11.2h4.693z"/><path fill="#EBEBEB" d="M148.226 160.43h-42.513v63.48h42.513z"/><path fill="#E0E0E0" d="M148.226 160.43h-19.935v63.48h19.935z"/><path fill="#F5F5F5" d="M118.444 169.021h-3.82v10.511h3.82zM118.444 210.173h-3.82v10.511h3.82zM128.291 183.665c0 .113-5.055.212-11.292.212-6.238 0-11.287-.099-11.287-.212s5.055-.218 11.287-.218c6.231 0 11.292.099 11.292.218M118.444 189.752h-3.82v10.512h3.82zM128.291 204.39c0 .119-5.055.218-11.292.218-6.238 0-11.287-.099-11.287-.218s5.055-.212 11.287-.212c6.231 0 11.292.099 11.292.212M136.341 169.021h-3.82v10.511h3.82zM144.639 169.021h-3.82v10.511h3.82zM136.341 188.971h-3.82v10.511h3.82zM144.639 188.971h-3.82v10.511h3.82zM136.341 208.92h-3.82v10.512h3.82zM144.639 208.92h-3.82v10.512h3.82z"/><path fill="#E0E0E0" d="M151.426 158.217h-48.908v2.292h48.908z"/><path fill="#EBEBEB" d="M148.523 160.741c0 .119-9.501.218-21.22.218-11.72 0-21.228-.099-21.228-.218s9.502-.212 21.228-.212c11.725 0 21.22.079 21.22.212M238.821 81.715l37.662.206s-3.569-9.273-11.192-9.273c-5.81 0-6.068 4.094-9.561 5.267-3.493 1.172-10.841-5.995-16.909 3.801"/><path fill="#F5F5F5" d="m76.218 36.317 66.232.311s-6.272-16.247-19.676-16.254c-10.216 0-10.672 7.2-16.804 9.273s-19.057-10.558-29.752 6.67"/><path fill="#FAFAFA" d="m209.058 12.015 49.902.232S254.25.007 244.133 0c-7.699 0-8.038 5.424-12.661 6.974s-14.376-7.942-22.414 5.04"/><path fill="#263238" d="M295 223.433c0 .099-61.505.276-137.355.405-75.851.128-137.367.159-137.367.06s61.486-.276 137.367-.405c75.88-.129 137.355-.153 137.355-.06"/><path fill="#455A64" d="m266.713 127.325-32.42.057.168 96.062 32.42-.057z"/><path fill="#263238" d="m266.708 127.325-16.208.029.168 96.062 16.208-.029z"/><path fill="#455A64" d="m249.426 115.936-11.45.02.02 11.419 11.45-.019z"/><path fill="#263238" d="m249.42 115.936-2.726.005.02 11.419 2.726-.005z"/><path fill="#455A64" d="m267.659 126.655-36.071.063.002.67 36.07-.063z"/><path fill="#263238" d="m243.445 132.346-2.744.005.012 6.551 2.744-.005zM250.517 141.468c0 .066-3.627.131-8.103.139-4.476.007-8.104-.047-8.104-.112s3.626-.132 8.103-.139c4.476-.007 8.103.019 8.104.112"/><path fill="#455A64" d="m259.793 132.319-2.744.005.011 6.55 2.744-.005zM266.87 141.44c0 .067-3.627.132-8.103.139s-8.104-.046-8.104-.111c0-.066 3.627-.132 8.103-.14 4.476-.007 8.103.019 8.104.112M259.817 145.321l-2.744.004.011 6.551 2.744-.005zM266.892 154.443c0 .073-3.627.132-8.103.139s-8.104-.039-8.104-.112c0-.072 3.626-.131 8.103-.139 4.476-.007 8.104.047 8.104.112M259.839 158.721l-2.744.004.012 6.551 2.744-.005zM266.915 167.842c0 .066-3.627.132-8.103.139s-8.104-.046-8.104-.112c0-.065 3.627-.131 8.103-.139 4.476-.007 8.104.039 8.104.112M259.864 172.113l-2.744.005.011 6.55 2.744-.004zM266.937 181.235c0 .072-3.627.131-8.103.139-4.476.007-8.104-.039-8.104-.112s3.627-.125 8.103-.133c4.476-.007 8.104.039 8.104.106M259.886 185.129l-2.744.004.012 6.551 2.743-.005zM266.96 194.25c0 .073-3.627.132-8.103.139-4.477.007-8.105-.039-8.105-.112 0-.072 3.627-.131 8.103-.139 4.477-.007 8.105.047 8.105.112M259.909 198.196l-2.744.005.011 6.551 2.744-.005zM259.931 211.437l-2.744.005.011 6.55 2.744-.004zM266.982 207.319c0 .073-3.627.132-8.104.139s-8.104-.039-8.104-.112c0-.072 3.627-.131 8.103-.139 4.477-.007 8.105.047 8.105.112"/><path fill="#263238" d="m243.469 145.548-2.744.005.011 6.55 2.744-.004zM250.539 154.668c0 .067-3.627.132-8.103.14-4.476.007-8.104-.047-8.104-.112 0-.066 3.626-.132 8.103-.139 4.476-.008 8.104.065 8.104.111M243.492 158.749l-2.743.005.011 6.55 2.744-.005zM250.561 167.869c0 .073-3.627.132-8.103.14-4.476.007-8.104-.039-8.104-.112s3.627-.126 8.103-.133 8.104.039 8.104.105M243.515 171.956l-2.744.005.012 6.55 2.744-.005zM250.585 181.078c0 .066-3.627.131-8.103.139-4.477.007-8.105-.047-8.105-.112s3.627-.132 8.103-.139c4.477-.008 8.105.039 8.105.112M243.539 185.157l-2.744.005.011 6.55 2.744-.005zM250.607 194.278c0 .073-3.627.132-8.104.14-4.476.007-8.104-.039-8.104-.112s3.627-.132 8.103-.139c4.477-.008 8.105.046 8.105.111M243.561 198.364l-2.744.005.011 6.55 2.744-.005zM250.628 207.486c0 .066-3.626.131-8.103.139-4.476.007-8.104-.047-8.104-.112s3.627-.132 8.103-.139c4.477-.008 8.104.039 8.104.112M243.584 211.565l-2.744.005.011 6.55 2.744-.005z"/><path fill="#455A64" d="m185.471 93.137-43.372.075.228 130.431 43.372-.075z"/><path fill="#263238" d="m185.477 93.138-16.645.029.228 130.431 16.645-.029z"/><path fill="#455A64" d="m178.82 103.442-3.294.005.014 7.87 3.294-.006zM178.844 117.245l-3.294.005.014 7.869 3.294-.005zM178.871 132.705l-3.294.005.013 7.87 3.295-.006zM178.896 147.474l-3.294.006.013 7.869 3.295-.006zM178.922 162.253l-3.295.006.014 7.869 3.294-.006zM178.948 177.023l-3.295.006.014 7.869 3.294-.006zM178.974 191.801l-3.294.006.014 7.869 3.294-.006zM179.003 208.041l-3.295.006.014 7.869 3.294-.006z"/><path fill="#263238" d="m187.634 92.312-49.311.086.003 1.523 49.311-.086z"/><path fill="#263238" d="m177.14 83.15-17.559.03.017 9.942 17.559-.03z"/><path fill="#455A64" d="m168.814 83.164-9.233.016.016 9.181 9.233-.016z"/><path fill="#263238" d="m151.583 103.164-3.294.006.013 7.869 3.295-.005zM160.36 103.149l-3.295.006.014 7.869 3.294-.006zM151.609 118.154l-3.295.006.014 7.869 3.294-.005zM160.386 118.139l-3.295.006.014 7.869 3.294-.006zM151.635 133.143l-3.294.006.014 7.869 3.294-.006zM160.412 133.128l-3.294.006.013 7.869 3.295-.006zM151.661 148.132l-3.294.006.014 7.869 3.294-.006zM160.438 148.117l-3.294.005.014 7.87 3.294-.006zM151.687 163.121l-3.294.006.014 7.869 3.294-.006zM160.464 163.106l-3.294.005.014 7.87 3.294-.006zM151.715 178.11l-3.295.005.014 7.87 3.294-.006zM160.491 178.094l-3.295.006.014 7.869 3.294-.005zM151.741 193.1l-3.294.005.014 7.87 3.294-.006zM160.517 193.084l-3.294.006.013 7.869 3.295-.005zM151.767 208.088l-3.294.006.014 7.869 3.294-.005zM160.543 208.073l-3.294.006.013 7.869 3.295-.006zM168.862 114.098c0 .133-5.985.249-13.362.262-7.378.012-13.37-.084-13.37-.217 0-.132 5.986-.241 13.37-.254 7.383-.012 13.363.084 13.363.209zM168.888 129.141c0 .133-5.986.249-13.363.261-7.378.013-13.369-.083-13.369-.216s5.985-.241 13.369-.254 13.364.083 13.364.209zM168.913 144.368c0 .125-5.985.241-13.363.254s-13.369-.083-13.369-.209c0-.125 5.986-.248 13.369-.261 7.384-.013 13.364.083 13.364.216zM168.939 159.483c0 .126-5.985.242-13.362.255-7.378.012-13.369-.084-13.369-.209 0-.126 5.985-.249 13.369-.262 7.383-.012 13.364.084 13.364.216zM168.965 174.38c0 .125-5.986.241-13.363.254-7.377.012-13.369-.084-13.369-.209 0-.126 5.985-.249 13.369-.262 7.384-.012 13.364.084 13.364.217zM168.989 188.872c0 .125-5.986.241-13.363.254s-13.369-.083-13.369-.209c0-.125 5.985-.249 13.369-.261s13.364.083 13.364.216zM169.017 204.934c0 .126-5.986.242-13.363.254-7.378.013-13.369-.083-13.369-.208 0-.126 5.985-.249 13.369-.262s13.364.083 13.364.216z"/><path fill="#455A64" d="M185.314 114.071c0 .133-3.562.244-7.957.252-4.395.007-7.957-.093-7.957-.225s3.557-.238 7.957-.246c4.4-.007 7.957.093 7.957.219M185.34 129.112c0 .133-3.563.245-7.957.252s-7.958-.093-7.958-.224c0-.132 3.558-.239 7.958-.246s7.957.093 7.957.218M185.366 144.135c0 .133-3.562.245-7.957.252s-7.957-.073-7.957-.225c0-.151 3.557-.238 7.957-.245s7.957.113 7.957.218M185.216 159.456c0 .125-3.562.238-7.957.246-4.395.007-7.957-.093-7.957-.219 0-.125 3.562-.244 7.957-.252 4.395-.007 7.957.093 7.957.225M185.242 174.352c0 .126-3.563.238-7.958.246-4.393.007-7.957-.093-7.957-.218 0-.126 3.563-.245 7.957-.252s7.958.092 7.958.224M185.267 189.248c0 .126-3.562.239-7.957.246s-7.957-.093-7.957-.218c0-.126 3.562-.245 7.957-.252s7.957.093 7.957.224M185.293 204.907c0 .125-3.562.238-7.957.245s-7.957-.092-7.957-.218c0-.125 3.562-.244 7.957-.252 4.395-.007 7.957.093 7.957.225"/><path fill="#EA3934" d="m193.623 178.163-17.488.031.079 45.43 17.488-.03z"/><path fill="#000" d="m193.623 178.163-17.488.031.079 45.43 17.488-.03z" opacity=".2"/><path fill="#EA3934" d="m172.036 178.024 43.15-.073 8.041-12.969 8.472 13.312 9.934-.196-10.735-16.309-48.111.313z"/><path fill="#fff" d="m172.036 178.024 43.15-.073 8.041-12.969 8.472 13.312 9.934-.196-10.735-16.309-48.111.313z" opacity=".2"/><path fill="#EA3934" d="m193.615 178.179.077 45.425 43.091-.073-.077-45.424-4.944.008-8.535-13.133-8.07 12.956z"/><path fill="#000" d="m199.783 223.594-.034-19.692 10.075-.017.034 19.691" opacity=".2"/><path fill="#fff" d="m231.758 203.28-15.88.027.02 11.135 15.88-.028zM231.718 180.997l-15.88.028.02 11.134 15.88-.027zM208.742 181.137l-10.011.018.019 10.731 10.011-.018z" opacity=".7"/><path fill="#EA3934" d="m220.536 203.299-.147.001.02 11.239h.147zM227.135 203.287h-.146l.02 11.24h.146z"/><path fill="#EA3934" d="m227.069 209.162-6.6.012.001.166 6.6-.011zM220.495 181.018h-.146l.02 11.24h.146zM227.095 181.005l-.146.001.02 11.239h.146z"/><path fill="#EA3934" d="m227.03 186.881-6.6.012v.166l6.601-.012zM203.81 181.146h-.146l.019 10.731h.146z"/><path fill="#EA3934" d="m208.751 186.681-10.011.017.001.167 10.01-.018z"/><path fill="#fff" d="M225.343 173.648c.002 1.327-.947 2.406-2.12 2.408s-2.126-1.073-2.128-2.401.946-2.406 2.119-2.408c1.172.002 2.123 1.075 2.129 2.401" opacity=".7"/><path fill="#EA3934" d="m208.065 170.73 2.674-3.746-.015-9.002-5.612.01.022 12.809z"/><path fill="#000" d="m208.066 170.73-.023-12.744 2.681-.004.015 9.002z" opacity=".2"/><path fill="#EA3934" d="m211.108 156.645-6.617.012.003 1.325 6.616-.011zM194.155 198.039l-33.039.058.044 25.56 33.04-.058z"/><path fill="#000" d="m181.488 198.061-20.372.036.044 25.56 20.373-.036z" opacity=".2"/><path fill="#263238" d="M177.234 223.592a1.5 1.5 0 0 1-.03-.331l-.002-.96c-.001-.888-.003-2.093-.053-3.597-.005-3.113-.047-7.411-.079-12.385l.164.185-12.094.02.158-.185c.008 4.974-.026 9.273-.037 12.385.002 1.504-.031 2.71-.042 3.597 0 .383.002.702-.027.96q.017.166 0 .331a1.2 1.2 0 0 1-.03-.331l-.002-.96c-.001-.888-.003-2.093-.052-3.597-.006-3.105-.048-7.411-.08-12.385v-.186l12.392-.021v.186c-.02 4.974-.03 9.273-.043 12.385.002 1.504-.03 2.71-.041 3.597l.002.96q-.038.171-.104.331z"/><path fill="#000" d="m192.637 205.626-8.584.015.005 2.478 8.583-.015z" opacity=".2"/><path fill="#EA3934" d="m172.036 178.024.002 1.318 43.122-.073-.003-1.331zM215.16 179.27l8.046-12.831.021-1.457-8.041 12.969zM241.431 178.08l-9.66.017.001.847 9.66-.016z"/><path fill="#263238" d="m206.395 200.859-3.564.006.003 1.537 3.563-.006z"/><path fill="#000" d="m172.036 178.024.002 1.318 43.122-.073-.003-1.331zM215.16 179.27l8.046-12.831.021-1.457-8.041 12.969zM241.431 178.08l-9.66.017.001.847 9.66-.016z" opacity=".3"/><path fill="#263238" d="M209.028 213.822c-.03 0 0-.252-.265-.444a.46.46 0 0 0-.462-.059c-.245.113-.363.43-.263.707a.52.52 0 0 0 .265.3.46.46 0 0 0 .463-.06c.239-.193.233-.451.263-.444s.1.285-.175.577a.58.58 0 0 1-.613.126c-.344-.132-.526-.553-.41-.94a.7.7 0 0 1 .408-.463.59.59 0 0 1 .614.124c.276.298.195.596.177.576z"/><path fill="#F4A7A2" d="M106.431 135.65c8.979 9.322 35.95 50.812 38.051 52.051 0 0 0 27.135-15.022 21.716s-28.791-54.101-31.73-69.62c-1.55-8.194 1.368-11.754 8.701-4.148z"/><path fill="#EA3934" d="m104.144 167.727 27.528-3.125s-17.075-22.612-25.9-30.684c-9.201-8.411-13.711-7.231-9.445 8.702 4.287 16.027 7.816 25.107 7.816 25.107z"/><path fill="#fff" d="M102.849 152.758a8.6 8.6 0 0 0-.574 2.368 9.4 9.4 0 0 0 1.735-4.502 8.2 8.2 0 0 0-1.161 2.135zm15.462.62a8.5 8.5 0 0 0-2.367-.573 9.4 9.4 0 0 0 4.505 1.733 8.1 8.1 0 0 0-2.139-1.16zm-4.101 10.689a8.6 8.6 0 0 0-1.274-2.07c.122.804.358 1.588.701 2.326a8 8 0 0 0 1.263 2.076 8.7 8.7 0 0 0-.69-2.332m-16.152-34.429a15 15 0 0 0-.435-.863 3 3 0 0 0-.569 0c.128.387.27.757.43 1.128.32.751.746 1.45 1.269 2.076a8.7 8.7 0 0 0-.695-2.342zm31.725 32.491-.53.212a8.7 8.7 0 0 0-2.085 1.266 8.7 8.7 0 0 0 2.341-.694q.317-.141.626-.307l-.351-.476zM108.558 140.3a8.7 8.7 0 0 0-2.079 1.261 8.5 8.5 0 0 0 2.34-.688 8.6 8.6 0 0 0 2.08-1.266 8.6 8.6 0 0 0-2.351.693zm-1.846.048a1 1 0 0 0-.09.068h.095s-.015-.052-.015-.068z"/><path fill="#263238" d="M105.465 162.785c.642-.148 1.316-.206 1.969-.296l2.026-.28c1.364-.191 2.733-.361 4.103-.53 2.737-.317 5.476-.651 8.219-.921.753-.074 1.512-.149 2.265-.207s1.592-.058 2.388-.117c.048 0 .048.069 0 .074-.673.1-1.342.254-2.016.361-.674.105-1.39.201-2.085.285-1.363.175-2.737.335-4.107.488-2.696.29-5.396.598-8.103.837l-2.26.19c-.792.069-1.592.186-2.389.181a.04.04 0 0 1-.022-.048.1.1 0 0 1 .012-.016z"/><path fill="#000" d="m117.5 166.212-13.35 1.515s-3.529-9.079-7.821-25.107c-1.81-6.759-2.037-10.864-.998-12.713z" opacity=".1"/><path fill="#37474F" d="M111.78 224.244H69.909c-.346-1.346-.68-2.649-1.014-3.973q-.576-2.248-1.12-4.386c-.08-.317-.165-.636-.244-.948q-.414-1.637-.812-3.177-.24-.946-.472-1.864c-.154-.615-.318-1.24-.472-1.838-.043-.159-.08-.317-.123-.471l-.128-.529-.16-.62a43 43 0 0 1-.164-.641 84 84 0 0 1-.302-1.187q-.222-.859-.43-1.679c-.058-.238-.122-.477-.18-.71q-.151-.57-.287-1.117-.094-.366-.18-.715-.371-1.44-.69-2.701c-.058-.222-.11-.44-.17-.652-.09-.365-.18-.714-.265-1.059q-.09-.318-.16-.62c-.185-.72-.355-1.377-.498-1.955q-.062-.23-.117-.445c-.095-.381-.186-.72-.26-1.022-.032-.123-.058-.239-.09-.345l-.084-.334c0-.074-.037-.149-.053-.212l-.074-.286a.26.26 0 0 0-.032-.127l-.095-.377h40.757s1.343 4.619 3.492 12.067c.435 1.515.907 3.177 1.411 4.888 1.427 4.968 3.093 10.764 4.887 17.035"/><path fill="#263238" d="M76.764 224.243h-1.061A1307 1307 0 0 1 71.198 205l-1.061-4.692-.095-.44a.063.063 0 0 1 .056-.07.06.06 0 0 1 .066.039c0 .047.027.094.043.143q.705 2.52 1.405 5.048a846 846 0 0 1 5.152 19.217z"/><path fill="#263238" d="m100.668 190.259-1.799 9.005-1.475 7.373-2.51 12.564-.26 1.287-.43 2.146-.335 1.61H69.903c-.34-1.351-.679-2.649-1.008-3.973-.383-1.499-.759-2.96-1.12-4.386-.08-.317-.165-.636-.244-.948q-.413-1.637-.812-3.177-.24-.946-.472-1.864c-.155-.615-.318-1.24-.472-1.838-.043-.159-.08-.317-.123-.471l-.128-.529-.16-.62q-.084-.326-.164-.641a81 81 0 0 1-.302-1.187 269 269 0 0 1-.61-2.389q-.151-.57-.287-1.117-.094-.366-.18-.715-.372-1.44-.69-2.701-.085-.334-.17-.652c-.09-.365-.18-.714-.265-1.059q-.09-.318-.16-.62c-.186-.72-.356-1.377-.498-1.955q-.062-.23-.117-.445c-.096-.381-.186-.72-.26-1.022-.032-.123-.058-.239-.09-.345l-.085-.334c0-.074-.036-.149-.052-.212l-.074-.286a.26.26 0 0 0-.032-.127l-.095-.377z"/><path fill="#37474F" d="M100.674 190.244c0 .222-.17 2.648-.563 6.356-.112 1.06-.244 2.267-.398 3.538-.239 2.008-.53 4.237-.902 6.563-.626 4.083-1.444 8.539-2.504 12.892a97 97 0 0 1-1.232 4.64H42.464c.62-8.003 1.188-15.244 1.639-20.949.631-8.029 1.061-13.056 1.061-13.056H92.89l7.784.016z"/><path fill="#263238" d="M100.562 195.069a164 164 0 0 1-.26 5.625 90 90 0 0 1-.579 6.075c0 .073 0 .148-.026.222a145 145 0 0 1-.854 5.673c-.303 1.759-.53 3.655-1.306 5.297a5.2 5.2 0 0 1-1.231 1.658 3.63 3.63 0 0 1-1.995.922h-.09c.039.022.062.066.058.112 0 .63 0 1.271-.074 1.896v.079c-.064.53-.165 1.086-.265 1.626h-.902v-.032c.16-.593.291-1.191.44-1.79s.361-1.207.504-1.827a.13.13 0 0 1 .042-.058 2.81 2.81 0 0 1-2.716-1.7 4.87 4.87 0 0 1-.043-2.469c.165-1.059.324-2.15.489-3.226.307-1.975.705-3.93 1.06-5.895l.16-.895c.706-3.999 1.444-7.998 2.33-11.96q.05-.246.106-.493c.037-.164.202-.079.191.027q-.038.395-.084.8a161 161 0 0 1-.53 4.545c-.255 1.774-.43 3.559-.68 5.334q-.126.905-.26 1.811c-.408 2.918-.833 5.826-1.331 8.745-.234 1.351-1.062 3.771.87 4.19.446.099.913.041 1.321-.164a4.15 4.15 0 0 0 1.81-2.283 30.3 30.3 0 0 0 1.034-4.862q.477-2.649.85-5.345.477-3.341.998-6.679.26-1.7.53-3.4l.255-1.589c.005-.111.18-.079.18.032zM54.006 209.031c2.19-.023 4.37-.316 6.489-.874.976-.249 1.942-.562 2.902-.874a7.5 7.5 0 0 0 2.622-1.314c1.475-1.271 2.16-3.268 2.802-5.048a49 49 0 0 0 1.693-6.128c0-.1.17-.063.175.031a23.7 23.7 0 0 1-.886 6.955c-.53 1.923-1.242 4.062-2.797 5.407-1.554 1.345-3.852 1.918-5.948 2.172-2.35.273-4.727.24-7.068-.095a.117.117 0 1 1 .016-.233zM50.349 194.857q-.175 4.407-.372 8.825-.45 10.281-.991 20.562h-.987q.679-10.302 1.427-20.594.323-4.401.668-8.798a.127.127 0 0 1 .13-.125c.071.001.126.061.125.13"/><path fill="#EA3934" d="m109.731 211.997-71.374-5.402s14.359-56.808 42.71-77.693c7.249-5.333 15.182-1.912 18.753 2.076 9.073 10.16 10.124 80.792 9.912 81.02z"/><path fill="#fff" d="M84.368 131.487a8.8 8.8 0 0 0-.574 2.362 8.4 8.4 0 0 0 1.167-2.119c.3-.757.492-1.552.574-2.363a8.6 8.6 0 0 0-1.167 2.12m-7.747 30.647a8.3 8.3 0 0 0-.569 2.368 9.46 9.46 0 0 0 1.73-4.502 8.6 8.6 0 0 0-1.161 2.135zm-25.502 13.141a8.6 8.6 0 0 0-.574 2.368 9.4 9.4 0 0 0 1.736-4.502 9 9 0 0 0-1.162 2.135zm20.583 19.36a8.2 8.2 0 0 0-.574 2.362 9.47 9.47 0 0 0 1.73-4.501 8.4 8.4 0 0 0-1.156 2.14zm31.147-41.887a8.6 8.6 0 0 0-.574 2.367 9.4 9.4 0 0 0 1.736-4.501 8.2 8.2 0 0 0-1.162 2.145v-.011m-12.703 38.534a8.3 8.3 0 0 0-.579 2.363 8.4 8.4 0 0 0 1.162-2.119 8.6 8.6 0 0 0 .573-2.363 8.4 8.4 0 0 0-1.156 2.119m-25.72-39.975a8.6 8.6 0 0 0-.573 2.363 9.3 9.3 0 0 0 1.73-4.502 8.3 8.3 0 0 0-1.156 2.14zm28.517-10.169a8.4 8.4 0 0 0-2.367-.573 8.5 8.5 0 0 0 2.123 1.155 8.4 8.4 0 0 0 2.372.572 8.4 8.4 0 0 0-2.128-1.154m8.086 25.535a8.5 8.5 0 0 0-2.367-.573 8.3 8.3 0 0 0 2.123 1.155 8.5 8.5 0 0 0 2.367.577 8.3 8.3 0 0 0-2.123-1.138zm2.17 30.519a8.6 8.6 0 0 0-2.367-.572 8.4 8.4 0 0 0 2.123 1.16 8.7 8.7 0 0 0 2.367.572 8.6 8.6 0 0 0-2.123-1.138zm-50.807-2.51a8.6 8.6 0 0 0-2.367-.572 9.4 9.4 0 0 0 4.504 1.732 8.5 8.5 0 0 0-2.138-1.139v-.021m18.365-19.598a8.6 8.6 0 0 0-2.367-.578 8.6 8.6 0 0 0 2.123 1.165c.758.3 1.554.491 2.367.573a8.4 8.4 0 0 0-2.123-1.144zm27.3-45.461a12 12 0 0 0-.227-.466c-.26-.197-.53-.387-.823-.573q.196.666.477 1.303c.32.751.746 1.45 1.269 2.076a8.7 8.7 0 0 0-.695-2.326zM77.2 146.095a8.4 8.4 0 0 0-1.268-2.076 9.3 9.3 0 0 0 1.963 4.407 8.4 8.4 0 0 0-.695-2.331m18.418 62.677a8.5 8.5 0 0 0-1.263-2.076 8.5 8.5 0 0 0 .69 2.331 8.9 8.9 0 0 0 1.161 1.949h.085a8.4 8.4 0 0 0-.674-2.203zm-6.776-36.913a8.6 8.6 0 0 0-1.269-2.076 9.53 9.53 0 0 0 1.958 4.407 8.5 8.5 0 0 0-.69-2.331m-48.615 28.146a6 6 0 0 1-.1.328c.068.074.132.154.196.228a5 5 0 0 0-.095-.54zm21.224-14.131a8.5 8.5 0 0 0-1.269-2.071 9.3 9.3 0 0 0 1.964 4.402 8.6 8.6 0 0 0-.711-2.315l.016-.015zm4.553 20.393a8.6 8.6 0 0 0-1.269-2.076 9.5 9.5 0 0 0 1.964 4.412 8.5 8.5 0 0 0-.711-2.314l.016-.021zm35.694-24.535a8.7 8.7 0 0 0-2.08 1.266 8.6 8.6 0 0 0 2.336-.693 8.5 8.5 0 0 0 2.085-1.266c-.815.121-1.61.36-2.356.709zm-56.298 3.094-.27.73a7.5 7.5 0 0 0 1.591-1.033 6.6 6.6 0 0 0-1.337.317l.016-.016zm36.39 17.647a8.5 8.5 0 0 0-2.08 1.261 8.7 8.7 0 0 0 2.34-.688 8.7 8.7 0 0 0 2.08-1.272 8.4 8.4 0 0 0-2.356.715zm-32.544 4.726-.366.175 1.247.095a7.4 7.4 0 0 0 1.455-.964 8.7 8.7 0 0 0-2.352.71zm12.502-43.555a9 9 0 0 0-2.08 1.266 9.5 9.5 0 0 0 4.42-1.955 8.5 8.5 0 0 0-2.355.704zm18.296 20.285c-.75.324-1.45.752-2.08 1.272a9.45 9.45 0 0 0 4.42-1.96 8.6 8.6 0 0 0-2.356.704zm9.55-27.887a9 9 0 0 0-2.079 1.266 9.4 9.4 0 0 0 4.415-1.954 8.6 8.6 0 0 0-2.367.704z"/><path fill="#F4A7A2" d="M95.776 142.849c-4.119-.61-8.299-8.904-9.021-14.561-.048-.392 6.367-12.612 7.37-15.16.207-.529 14.513 10.254 14.513 10.254s-3.715 4.724-5.45 9.19c-.123.372-3.434 10.859-7.413 10.276z"/><path fill="#263238" d="M108.66 123.383s-3.715 4.725-5.455 9.185c-.032.09-.244.747-.595 1.685-7.354-3.708-10.353-10.329-11.562-14.698 1.39-2.781 2.685-5.392 3.099-6.425.207-.524 14.513 10.254 14.513 10.254z"/><path fill="#F4A7A2" d="M97.432 93.281c-4.187 4.836-8.374 22.278-5.98 27.638 3.475 7.765 12.735 12.432 20.226 7.469 7.286-4.815 12.338-27.644 9.329-32.877-4.426-7.712-17.4-9.37-23.575-2.23"/><path fill="#263238" d="M108.617 107.45c-.531.042-1.062 0-1.592 0a2.57 2.57 0 0 1-1.629-.318.82.82 0 0 1-.201-.984 2.04 2.04 0 0 1 1.877-.869 3 3 0 0 1 2.059.657.878.878 0 0 1-.516 1.515zM108.15 110.008c0-.047-.106.037-.117.09-.197 1.191-.627 2.526-1.778 2.706-.037 0-.048.064 0 .069 1.342.074 1.895-1.701 1.895-2.866z"/><path fill="#263238" d="M107.333 108.557c-1.884-.53-2.797 3.279-1.061 3.76 1.735.482 2.637-3.321 1.061-3.76M114.995 111.476c0-.042.079.079.069.128-.318 1.165-.488 2.558.482 3.177.032 0 0 .079-.026.064-1.258-.466-1.014-2.309-.525-3.369"/><path fill="#263238" d="M116.342 110.501c1.932.307 1.173 4.137-.615 3.85s-1.004-4.111.615-3.85M118.301 108.616a15 15 0 0 1-1.422-.757c-.54-.2-.997-.572-1.3-1.06a.83.83 0 0 1 .286-.969c.653-.424 1.406-.228 2.075.1.681.31 1.224.862 1.523 1.547a.885.885 0 0 1-1.162 1.139M104.202 120.204c.212.345.403.79.822.927a3.2 3.2 0 0 0 1.343 0 .042.042 0 0 1 .032.074 1.63 1.63 0 0 1-1.645.28 1.28 1.28 0 0 1-.679-1.26c0-.069.095-.074.128-.022zM106.282 116.979a4.15 4.15 0 0 0 2.255 2.421c.455.205.935.344 1.427.413q.139.032.281.032.135.007.271 0a.29.29 0 0 0 .296-.207 1 1 0 0 0 0-.127v-.106c.239-.9.483-2.298.483-2.298.292.243 1.799 1.408 1.89.927.705-3.973 1.486-8.39 1.347-12.496a.112.112 0 1 0-.224 0c-.828 3.792-.981 7.707-1.756 11.531a7 7 0 0 0-1.714-1.038c-.139 0-.42 2.711-.563 3.103v.043c-1.592-.17-2.611-.906-3.847-2.278-.079-.089-.196-.031-.149.079z"/><path fill="#263238" d="M109.541 119.225a4.9 4.9 0 0 1-2.26 1.017 2.2 2.2 0 0 1-1.322-.227c-.881-.472-.7-1.34-.35-2.039q.286-.555.695-1.028a6.33 6.33 0 0 0 3.237 2.277"/><path fill="#FF97B8" d="M107.279 120.241a2.2 2.2 0 0 1-1.321-.227c-.881-.472-.7-1.34-.351-2.039.987.344 1.82 1.271 1.672 2.266"/><path fill="#263238" d="M122.61 102.302c-7.429 3.103-14.942-5.483-14.942-5.483a7.24 7.24 0 0 1-8.119 2.977s-3.565 10.736-6.473 10.09c-4.42-.942-2.653-16.229-.653-18.888s5.927-2.648 5.927-2.648.748-2.23 3.922-3.75c3.502-1.685 13.266 3.596 13.266 3.596a9.9 9.9 0 0 1 3.422-3.046 2.794 2.794 0 0 1 3.862 1.181 6.6 6.6 0 0 0-1.628 2.49c-1.194 3.114 1.443 3.66 2.032.73a4.66 4.66 0 0 0-.404-3.221c1.699-1.641 3.954-1.822 5.031-.53 1.979 2.369.939 13.926-5.243 16.5z"/><path fill="#EA3934" d="M104.388 115.904a5.115 5.115 0 0 1-3.317-6.434 5.13 5.13 0 0 1 6.446-3.311 5.12 5.12 0 0 1 3.551 5.195 5.13 5.13 0 0 1-6.68 4.55m2.929-9.084q-.518-.167-1.061-.206a4.45 4.45 0 0 0-4.756 4.118 4.446 4.446 0 0 0 4.125 4.747 4.45 4.45 0 0 0 4.756-4.118 4.444 4.444 0 0 0-3.064-4.541M115.695 118.043c-1.835-.688-2.791-3.177-2.123-5.778a6.08 6.08 0 0 1 1.916-3.211 3.19 3.19 0 0 1 4.503-.018c.374.372.65.828.803 1.332a6.12 6.12 0 0 1 .186 3.734c-.679 2.733-2.892 4.551-4.934 4.041a2 2 0 0 1-.351-.1m2.871-9.084-.249-.073a2.73 2.73 0 0 0-2.415.693 5.43 5.43 0 0 0-1.693 2.85c-.589 2.373.286 4.64 1.969 5.053 1.682.414 3.518-1.175 4.107-3.543a5.4 5.4 0 0 0-.159-3.311 2.8 2.8 0 0 0-1.56-1.669"/><path fill="#EA3934" d="m110.787 111.905-.329-.599c.887-.492 2.818-1.001 3.789.529l-.584.361c-.865-1.372-2.797-.339-2.876-.291M88.14 108.779l-.53-.424c.202-.249 1.99-2.436 3.534-2.383 1.45.052 10.288 2.648 10.665 2.781l-.196.657c-2.536-.752-9.37-2.717-10.49-2.754-1.03-.037-2.499 1.52-2.982 2.124z"/><path fill="#F4A7A2" d="M94.97 108.891s-1.427-6.822-4.378-6.531-3.45 9.068-1.088 11.308a3.1 3.1 0 0 0 4.473.105l.992-4.883z"/><path fill="#263238" d="M90.513 104.881c-.043-.026-.08.032-.048.069 1.629 1.631 1.878 3.893 1.799 6.086-.276-.974-.902-1.716-2.176-1.435-.063 0-.048.112 0 .128a1.89 1.89 0 0 1 1.667 1.435c.155.639.243 1.293.26 1.949 0 .218.371.26.392 0a.2.2 0 0 1 0-.052c1.136-2.447.69-6.781-1.894-8.179z"/><path fill="#F4A7A2" d="M131.349 156.774c1.342-3.528 32.469 2.86 31.227 8.268-4.559 19.81-17.261 37.512-20.471 41.558-4.213 5.297-12.597 4.121-15.654.911-4.431-4.656 3.571-47.242 4.898-50.738z"/><path fill="#263238" d="M129.157 166.499a40 40 0 0 0-1.639 5.826 90 90 0 0 0-1.162 5.911 89 89 0 0 0-1.061 12.109c-.058 2.266 0 4.528 0 6.796 0 .052.084.047.084 0 0-2.008.123-4.031.287-6.033s.366-4.041.626-6.048c.504-3.947 1.061-7.888 1.777-11.801q.299-1.648.621-3.284c.229-1.134.488-2.262.637-3.411 0-.084-.133-.159-.17-.063z"/><path fill="#D3766A" d="M123.84 100.94a55 55 0 0 1-1.209 8.014c-.1.45-.212.911-.323 1.366a59 59 0 0 1-1.592 5.387q-.212.636-.446 1.256c-1.884 5.079-4.372 9.449-7.173 11.303-.712.476-1.467.884-2.255 1.218a27.35 27.35 0 0 1-13.584-22.802l-.849-.233q.201-.309.404-.641c.133-.222.296-.503.44-.767a27.3 27.3 0 0 1 7.737-18.205c6.669-1.79 14.655.767 18.014 6.61.817 1.447 1.067 4.17.838 7.495z"/><path fill="#263238" d="M109.859 106.089q-.847.043-1.693 0c-.653 0-1.173.047-1.73-.34a.866.866 0 0 1-.213-1.059c.409-.721 1.204-.906 1.99-.922.788-.046 1.565.2 2.181.694a.93.93 0 0 1-.536 1.626zM109.365 108.828c0-.048-.112.042-.122.089-.207 1.266-.663 2.68-1.884 2.871-.037 0-.048.069 0 .074 1.421.053 2.005-1.827 2.005-3.035z"/><path fill="#263238" d="M108.5 107.265c-1.995-.557-2.96 3.47-1.114 3.983 1.846.514 2.786-3.517 1.114-3.983M116.619 110.353c0-.042.085.085.069.138-.34 1.235-.53 2.707.53 3.39.032 0 0 .084-.026.068-1.348-.524-1.093-2.473-.574-3.596z"/><path fill="#263238" d="M118.046 109.32c2.043.328 1.237 4.386-.658 4.083-1.895-.301-1.056-4.359.658-4.083M120.115 107.323c-.53-.228-.992-.529-1.502-.8a2.77 2.77 0 0 1-1.379-1.107.87.87 0 0 1 .302-1.023c.695-.45 1.491-.243 2.197.106.715.33 1.282.913 1.592 1.636a.932.932 0 0 1-1.211 1.187zM105.184 119.6c.228.361.43.832.876.98.466.103.95.103 1.416 0a.05.05 0 0 1 .05.046.06.06 0 0 1-.012.034 1.73 1.73 0 0 1-1.746.296 1.36 1.36 0 0 1-.716-1.334c-.005-.074.095-.074.133-.022zM107.391 116.179a4.38 4.38 0 0 0 2.383 2.57c.481.216.99.362 1.513.434q.149.033.302.037.141.009.281 0a.31.31 0 0 0 .318-.217.6.6 0 0 0 0-.128v-.112c.254-.953.53-2.436.53-2.436.307.259 1.905 1.494 1.995.984.748-4.237 1.592-8.892 1.432-13.241a.117.117 0 0 0-.117-.117.115.115 0 0 0-.117.117c-.881 4.014-1.062 8.162-1.862 12.182a7.7 7.7 0 0 0-1.862-1.06c-.144 0-.446 2.871-.595 3.29a.2.2 0 0 1 0 .042c-1.66-.18-2.764-.953-4.07-2.415-.063-.106-.185-.048-.133.068z"/><path fill="#263238" d="M110.84 118.563a5.2 5.2 0 0 1-2.393 1.06 2.3 2.3 0 0 1-1.396-.244c-.939-.498-.742-1.419-.371-2.156q.301-.588.731-1.091a6.74 6.74 0 0 0 3.428 2.431z"/><path fill="#FF97B8" d="M108.442 119.638a2.3 2.3 0 0 1-1.395-.243c-.939-.498-.742-1.419-.372-2.156 1.041.366 1.927 1.34 1.767 2.399"/><path fill="#263238" d="M124.679 100.639a9 9 0 0 1-.839.301c-7.598 2.353-14.99-6.112-14.99-6.112a7.66 7.66 0 0 1-8.596 3.177 50 50 0 0 1-3.02 7.05 27.37 27.37 0 0 1 12.926-22.378 53 53 0 0 1 7.047 3.061 10.5 10.5 0 0 1 3.629-3.226 2.96 2.96 0 0 1 4.091 1.245 7.14 7.14 0 0 0-1.725 2.649c-1.263 3.295 1.529 3.872 2.15.774a4.92 4.92 0 0 0-.425-3.416c1.799-1.732 4.187-1.923 5.306-.53 2.091 2.448.999 14.677-5.555 17.406z"/><g opacity=".3"><path fill="#fff" d="M130.574 132.245c-14.763 3.245-29.365-6.07-32.616-20.805-3.251-14.736 6.08-29.312 20.841-32.558s29.365 6.07 32.616 20.805v.004c3.251 14.733-6.077 29.306-20.836 32.553l-.007.001z"/><path fill="#EBEBEB" d="M100.684 118.679c7.215 13.148 23.694 18.042 36.936 10.97zM101.468 91.12l50.589 15.028c.045-2.17-.17-4.338-.637-6.457a26.8 26.8 0 0 0-2.573-6.97l-37.346-11.097a27.4 27.4 0 0 0-10.034 9.497zM97.52 108.753l48.187 14.301a27.6 27.6 0 0 0 3.019-4.433l-51.311-15.244a26.4 26.4 0 0 0 .105 5.376M99.717 94.426l52.001 15.451q.08-.493.139-.985l-51.726-15.36c-.143.29-.286.588-.414.895zM120.163 78.625l23.081 6.854c-.599-.556-1.231-1.06-1.884-1.589l-18.747-5.561q-1.234.086-2.451.296z"/></g><path fill="#EBEBEB" d="m134.461 133.934-7.026 1.545 6.805 30.845 7.027-1.544z"/><path fill="#455A64" d="M154.309 99.341c-3.613-16.382-19.847-26.737-36.257-23.13-16.411 3.608-26.784 19.812-23.17 36.193s19.846 26.736 36.255 23.13c16.408-3.612 26.78-19.812 23.173-36.193zm-23.836 33.21c-14.761 3.249-29.366-6.063-32.62-20.799-3.254-14.735 6.074-29.313 20.835-32.562s29.366 6.064 32.62 20.798q0 .004.003.008c3.251 14.733-6.077 29.307-20.836 32.553h-.003z"/><path fill="#263238" d="m137.143 188.029 10.628-2.336-6.027-27.346-10.634 2.335z"/><path fill="#fff" d="M141.781 102.291a1 1 0 0 1-.027-.095c-.127-.455.139.44.043.143a21 21 0 0 0-.367-1.059 23 23 0 0 0-1.698-3.549c-.09-.16-.191-.317-.281-.477-.032-.052.233.372 0 .037l-.186-.285a18 18 0 0 0-.753-1.06 22 22 0 0 0-1.873-2.203l-.488-.487c-.223-.218.26.238-.047-.043l-.308-.28a21.26 21.26 0 0 0-2.642-1.965 18 18 0 0 0-.674-.398c-.393-.227.17.08-.123-.068l-.419-.212a21.6 21.6 0 0 0-3.958-1.484h-.069l-.149-.031-.61-.133c-.399-.08-.792-.149-1.194-.207a25 25 0 0 0-2.541-.233 1.808 1.808 0 1 1 .409-3.592 22.84 22.84 0 0 1 14.624 5.896 24.9 24.9 0 0 1 6.113 8.935q.466 1.137.774 2.326a1.81 1.81 0 0 1-1.507 2.065 1.85 1.85 0 0 1-2.069-1.504l.021-.037zM142.524 107.614a1.784 1.784 0 0 0 3.525-.543 1.78 1.78 0 0 0-2.034-1.487l-.01.001a1.78 1.78 0 0 0-1.481 2.028z"/><path fill="#F4A7A2" d="M160.486 171.233s7.598-12.468-1.862-24.364c-3.896-4.894-13.085-13.671-31.731-12.447-4.426.291-10.523 3.834-3.125 5.98 5.253 1.525 9.047.905 11.944 2.346 0 0-7.222 5.43-6.755 9.842.207 1.971.361 6.277 1.501 10.377 0 0 1.497 1.059 2.712.879 0 0 3.274 9.429 15.048 12.326l12.268-4.936z"/><path fill="#F4A7A2" d="M154.627 145.269c-3.046-1.212-9.551-3.671-15.574-3.839-6.69-.186-19.633 1.26-19.712 6.191-.063 3.618 4.924 3.496 4.924 3.496s-5.222 1.722-4.559 5.001c.6 2.988 4.452 2.648 4.452 2.648s-2.987 1.589-1.851 4.355c1.363 3.326 7.396-.53 11.674 1.631.986.508 20.646-19.482 20.646-19.482z"/><path fill="#263238" d="M140.024 148.516c-3.051-.668-10.379-.414-15.696 2.483-.122.064-.138.191 0 .154a66 66 0 0 1 15.696-2.574c.048 0 .048-.027 0-.063M139.654 155.254c-2.696-.307-10.236.291-15.521 3.41-.123.069-.128.196 0 .154a70.6 70.6 0 0 1 15.531-3.501.03.03 0 0 0 .026-.037c-.003-.018-.02-.03-.036-.026M150.515 176.981a32.4 32.4 0 0 1-7.757-2.929 21.6 21.6 0 0 1-6.426-5.297c-.53-.662-1.062-1.351-1.523-2.055-.462-.704-.971-1.504-1.518-2.203-.042-.053-.144 0-.112.047a24.5 24.5 0 0 0 2.26 4.2 17.2 17.2 0 0 0 2.834 3.364 19.4 19.4 0 0 0 7.429 4.11c1.562.435 3.16.723 4.776.864.08.021.111-.085.037-.1z"/><path fill="#F4A7A2" d="M73.06 137.081c-13.669 18.321-36.48 66.071-39.834 73.095-2.276 4.768 22.679 17.32 23.735 13.857 1.358-4.439 23.67-63.031 26.796-84.394 1.71-11.711-5.97-8.898-10.697-2.558"/><path fill="#F4A7A2" d="M57.635 221.648c-.58 4.317-3.518 13.014-5.705 14.344-2.186 1.329-13.674 1.059-19.463 1.059s-6.898-1.615-6.83-3.601c.07-1.987 12.242-2.368 12.242-2.368s-16.226 4.619-20.307 5.397-13.478 3.125-14.858-.249c-.61-1.526 1.964-3.067 1.964-3.067s-3.943 1.149-4.575-.806c-.71-2.229 2.425-3.453 2.425-3.453s-2.467.492-2.525-1.325c-.106-4.078 15.324-6.069 15.324-6.069s-11.811 5.741-12.204 2.426c-.53-4.582 23.687-9.608 26.207-11.606a47 47 0 0 0 5.131-4.974l23.173 14.291z"/><path fill="#263238" d="M25.723 234.434a1.79 1.79 0 0 1 .53-1.546 5 5 0 0 1 1.411-.911 19 19 0 0 1 3.317-1.06c2.281-.578 4.622-.985 6.95-1.589a28.6 28.6 0 0 0-7.13.795 13.1 13.1 0 0 0-3.412 1.303 4.6 4.6 0 0 0-1.427 1.219 1.84 1.84 0 0 0-.239 1.79zM4.716 233.142c1.672-.408 3.316-.874 4.955-1.351 1.64-.476 3.275-.974 4.909-1.467l4.887-1.526c1.628-.529 3.258-1.017 4.902-1.51-1.708.188-3.4.491-5.067.906-1.677.382-3.322.858-4.961 1.356a86 86 0 0 0-4.866 1.652c-1.602.593-3.221 1.219-4.76 1.939zM20.433 223.237a32 32 0 0 0-4.68.646 43 43 0 0 0-4.58 1.175 42 42 0 0 0-4.43 1.653 33 33 0 0 0-4.198 2.161c1.491-.529 2.945-1.086 4.426-1.589 1.48-.503 2.955-1.002 4.446-1.457s2.982-.906 4.484-1.345c1.502-.44 3.009-.822 4.53-1.245zM18.045 219.381a29.2 29.2 0 0 0-7.43 1.589c-2.42.8-4.723 1.915-6.85 3.316 2.399-.853 4.733-1.754 7.116-2.548a708 708 0 0 1 7.163-2.358z"/><path fill="#EA3934" d="m78.87 168.485-27.698-.762s15.096-23.984 23.183-32.782c8.442-9.162 13.038-8.374 10.156 7.861-2.902 16.346-5.64 25.684-5.64 25.684z"/><path fill="#fff" d="M61.732 163.659a9 9 0 0 0-2.08 1.267 9.5 9.5 0 0 0 4.42-1.955 8.5 8.5 0 0 0-2.34.688m15.467-17.564a8.4 8.4 0 0 0-1.268-2.076 9.3 9.3 0 0 0 1.963 4.407 8.4 8.4 0 0 0-.695-2.331m-12.772 5.212a8.6 8.6 0 0 0-.574 2.363 9.3 9.3 0 0 0 1.73-4.502 8.3 8.3 0 0 0-1.156 2.14zm12.204 10.827a8.3 8.3 0 0 0-.568 2.368 9.47 9.47 0 0 0 1.73-4.502 8.5 8.5 0 0 0-1.172 2.135h.01zm8.119-31.49q-.198.413-.372.843a8.8 8.8 0 0 0-.573 2.362 8.4 8.4 0 0 0 1.167-2.119q.038-.1.068-.201a5.7 5.7 0 0 0-.302-.885h.012"/><path fill="#263238" d="M77.135 163.675c-.658-.095-1.332-.095-1.99-.127l-2.043-.112q-2.059-.1-4.134-.164c-2.758-.085-5.513-.181-8.266-.218h-2.276c-.759 0-1.592.079-2.388.085-.048 0-.043.073 0 .073.679.043 1.358.144 2.042.186.685.042 1.395.084 2.096.112 1.38.052 2.758.1 4.139.133 2.711.063 5.429.138 8.14.143h2.302c.791 0 1.592.042 2.388-.026.022-.016.032-.079-.01-.085M84.24 150.502c0-.053-.063-.085-.09-.032a21 21 0 0 0-1.316 2.94c.095-.482.207-.964.297-1.452.302-1.557.579-3.125.886-4.682a.05.05 0 0 0-.061-.03.05.05 0 0 0-.03.03c-.716 2.68-1.55 5.333-2.186 8.034-.637 2.702-1.279 5.403-1.873 8.115-.323 1.5-.615 3.369-.944 4.863-.802.095-1.83 0-2.695.112-.074 0-.053.132 0 .132.912.027 2 .233 2.96.175.123 0 2.446-9.635 3.412-14.247a62 62 0 0 0 1.639-3.957zM103.942 135.522a43 43 0 0 1-1.332 3.74 20 20 0 0 1-1.544 3.178c-1.146 1.806-2.908 3.3-5.142 3.294-2.123 0-4.064-1.229-5.422-2.797-1.486-1.711-2.472-3.855-3.359-5.922-.53-1.276-1.061-2.58-1.486-3.898-.217-.668-.445-1.335-.636-2.013-.192-.678-.356-1.361-.59-2.023 0-.053-.117-.048-.1 0 .393 1.525 1.533 6.356 1.99 7.584.838 2.251 1.782 4.577 3.295 6.473 1.432 1.79 3.38 3.146 5.71 3.368 2.33.223 4.325-1.001 5.608-2.844a15 15 0 0 0 1.751-3.745c.493-1.452.907-2.94 1.284-4.428.022.021-.026.016-.026.031z"/></g><defs><clipPath id="a"><path fill="#fff" d="M0 0h295v238H0z"/></clipPath></defs></svg>