<svg xmlns="http://www.w3.org/2000/svg" width="69" height="68" fill="none" viewBox="0 0 69 68">
    <g clip-path="url(#a)">
        <path fill="#f4f4f4" d="M43.877 56.241c12.286-4.974 18.213-18.965 13.24-31.25S38.152 6.778 25.867 11.75s-18.214 18.965-13.24 31.25 18.965 18.214 31.25 13.24"/>
        <path fill="#006ec3" d="M34.872 11.633a22.302 22.302 0 0 1 15.815 6.551 22.3 22.3 0 0 1 6.552 15.815c0 3.02-.591 5.948-1.758 8.706a22.3 22.3 0 0 1-4.794 7.11 22.3 22.3 0 0 1-7.11 4.793 22.2 22.2 0 0 1-8.705 1.758 22.305 22.305 0 0 1-15.815-6.551 22.3 22.3 0 0 1-6.551-15.816 22.304 22.304 0 0 1 6.551-15.815 22.3 22.3 0 0 1 15.815-6.552m0-.557C22.213 11.076 11.95 21.34 11.95 34s10.264 22.923 22.926 22.923c12.66 0 22.925-10.264 22.925-22.923S47.533 11.076 34.872 11.076"/>
        <path fill="#006ec3" d="M34.873 12.412c2.914 0 5.742.57 8.404 1.695a21.5 21.5 0 0 1 6.862 4.628 21.5 21.5 0 0 1 4.627 6.862 21.5 21.5 0 0 1 1.696 8.404 21.531 21.531 0 0 1-6.323 15.266 21.53 21.53 0 0 1-15.266 6.324 21.53 21.53 0 0 1-15.266-6.323A21.53 21.53 0 0 1 13.282 34a21.53 21.53 0 0 1 6.323-15.266 21.53 21.53 0 0 1 15.267-6.323m0-.224c-12.046 0-21.81 9.765-21.81 21.81 0 12.047 9.764 21.81 21.81 21.81s21.81-9.763 21.81-21.81c0-12.045-9.764-21.81-21.81-21.81"/>
        <path fill="#dadada" d="M50.472 39.337c2.947-8.616-1.65-17.988-10.265-20.935s-17.988 1.65-20.935 10.265 1.65 17.989 10.265 20.935c8.616 2.947 17.989-1.65 20.935-10.265"/>
        <path fill="#f4f4f4" d="M51.007 33.999c0 8.911-7.222 16.136-16.136 16.136S18.734 42.91 18.734 34c0-8.912 7.225-16.134 16.137-16.134 8.911 0 16.136 7.225 16.136 16.136z"/>
        <path fill="#ebeaea" d="M51.117 36.04c-.608-.257-1.312.233-1.787.655-.64.566-1.177 1.242-1.708 1.956-.525.7-1.13 1.262-1.694 1.909-.208.24-.505.684-.823.978a.43.43 0 0 1-.255-.133c-.236-.257-.047-1.095 0-1.394.085-.515.25-1.066.122-1.59-.306-1.258-1.715.011-2.188.443-.422.385-.85 1.191-1.417 1.238-.547.044-.735-.765-.75-1.31-.022-.906.358-1.734.608-2.558.414-1.363.894-2.718 1.566-3.921.262-.47.569-.917.679-1.486.157-.818-.211-1.607-.897-1.776-.615-.152-1.297.51-1.703.992-.456.544-.777 1.213-1.07 1.9-.298.708-.528 1.44-.769 2.18q-.165.511-.353 1.013c-.14.375-.2.748-.296 1.142-.081.334-.287.633-.566.718-.456.14-.478-.796-.459-1.098.054-.843.255-1.637.446-2.443.175-.733.35-1.468.572-2.184.222-.728.517-1.419.74-2.15.181-.59.84-2.886-.091-3.068-.963-.189-1.662 1.441-2.15 2.204-.786 1.225-1.328 2.63-1.901 4.012q-.198.48-.422.943-.105.208-.215.412c.01-.02-.177.296-.152.265q-.227.358-.469.7c-.088.126-.183.238-.279.354.086-.103-.01-.027-.09.044a.2.2 0 0 0-.077-.03c0-.01-.012-.034-.058-.093-.064-.083-.13-.333-.152-.446-.14-.71-.04-1.419.127-2.11.164-.67.39-1.262.426-1.963.02-.392.18-.983.025-1.343-.245-.566-1.895 2.914-2.032 3.227-.796 1.834-1.541 3.691-2.745 5.174-.183.228-.551.691-.826.713-.534.044-.69-.94-.72-1.406-.042-.674.08-1.434.213-2.081.306-1.515.924-2.904 1.424-4.326.439-1.245 1.12-2.34 1.61-3.556.25-.618.569-2.01-.169-2.314-.404-.166-.87.17-1.196.432-.45.362-.828.823-1.172 1.333-.715 1.07-1.227 2.365-1.696 3.62-.63 1.688-1.18 3.46-1.568 5.26-.142.656-.113 1.352-.27 2.006-.066.277-.419 1.17-.715 1.054-.378-.147-.1-1.345-.052-1.661.1-.65.277-1.275.52-1.863.135-.328 1.152-2 .848-2.362-.373-.444-1.373.419-1.58.676-.726.902-1.356 2.566-1.954 3.586-.358.61-.963 1.5-1.633.987-.671-.514-.718-1.875-.51-2.698.349-1.375 1.437-2.189 2.351-2.941.642-.527 2.282-1.556 2.34-2.691.062-1.15-1.404-.307-1.769-.05-1.144.805-2.103 2.082-2.848 3.41-.684 1.215-1.296 2.703-1.206 4.233.067 1.09.628 2.411 1.662 2.183 1.177-.257 1.9-2.137 2.453-3.257.36-.728.719-1.468 1.15-2.135.184-.284.61-1.056.946-1.093.679-.076-.383 1.814-.525 2.11-.52 1.089-1.593 2.865-1.303 4.233.237 1.118 1.235.672 1.737.108.758-.85 1-2.154 1.208-3.34.532-3.037.932-6.16 2.564-8.635.25-.38 1.042-1.755 1.532-1.458.539.328-.24 1.286-.422 1.593-.468.787-.84 1.686-1.215 2.549-.672 1.551-1.275 3.198-1.537 4.938-.194 1.277-.473 3.613.674 4.375 1.022.676 1.958-.855 2.522-1.716.755-1.154 1.184-2.575 1.75-3.872q0-.006.005-.012c-.366 1.27-.427 2.779.26 3.872.433.694 1.284.517 1.845.25.623-.297 1.174-1.017 1.59-1.64.802-1.2 1.15-2.73 1.493-4.203.162-.693.309-1.392.495-2.076.206-.75.48-1.367.831-2.022.145-.267.306-.514.512-.71.43-.402.554.242.574.622.041.765-.28 1.64-.508 2.333a43 43 0 0 0-1.186 4.407c-.14.654-.21 1.294-.282 1.963-.053.498.064.993.415 1.257.656.495 1.433-.475 1.835-1.014a12.4 12.4 0 0 0 1.52-2.748c.113-.279.157-.598.294-.865.152-.301.458-.524.502.025.03.365-.13.715-.19 1.066-.104.58-.214 1.157-.393 1.71a24 24 0 0 0-.574 2.216c-.218 1.005-.725 2.804.44 3.277.538.218 1.114-.228 1.555-.556.28-.206.56-.422.826-.647.113-.096.275-.233.434-.326-.02.093-.044.183-.056.255a6.4 6.4 0 0 0-.098.894c-.025.515-.03 1.054.206 1.5.49.931 1.478.449 2.085.005 1.574-1.15 2.554-3.316 4.17-4.47q0 0 .004-.003c.238-.15.174.65.282.755.86.836 2.054-1.863.753-2.417z" style="mix-blend-mode:multiply"/>
        <path fill="#ebeaea" d="M49.634 39.688a1.9 1.9 0 0 0-.5.943c-.03.157.02.395.115.507q.03.033.058.054a.23.23 0 0 0 .206.098 1.2 1.2 0 0 0 .755-.333l.11-.123q-.136.155.062-.066a1.5 1.5 0 0 0 .203-.4c.084-.281.047-.553-.127-.764-.267-.323-.628-.179-.885.088zM48.788 41.864c-.015-.005-.059-.022-.086-.02a.37.37 0 0 0-.255.108.7.7 0 0 0-.142.191c-.044.093-.046.12-.066.223a.4.4 0 0 0 0 .115 1 1 0 0 0 .022.093.17.17 0 0 0 .074.096q.03.03.07.049c.155.071.327-.015.434-.157a.65.65 0 0 0 .116-.419.4.4 0 0 0-.079-.208.18.18 0 0 0-.09-.069z" style="mix-blend-mode:multiply"/>
        <path fill="#a96a26" d="M50.895 35.923c-.608-.26-1.311.233-1.787.654-.64.566-1.176 1.243-1.708 1.956-.525.7-1.13 1.262-1.694 1.91-.208.24-.505.683-.823.977a.42.42 0 0 1-.255-.132c-.235-.258-.047-1.093.002-1.395.084-.514.25-1.066.123-1.59-.306-1.258-1.716.012-2.189.443-.421.385-.85 1.191-1.416 1.238-.547.044-.736-.765-.75-1.309-.022-.907.358-1.735.608-2.559.414-1.362.894-2.718 1.566-3.92.262-.471.568-.918.679-1.489.157-.818-.211-1.607-.897-1.777-.616-.151-1.297.51-1.704.993-.456.542-.777 1.213-1.068 1.9-.3.708-.53 1.44-.77 2.18q-.167.51-.353 1.013c-.14.375-.2.748-.296 1.142-.081.333-.287.632-.566.718-.456.14-.478-.796-.459-1.098.054-.843.255-1.637.446-2.443.174-.733.35-1.468.569-2.184.223-.728.517-1.419.74-2.15.181-.59.84-2.887-.09-3.068-.964-.189-1.662 1.441-2.15 2.201-.787 1.225-1.328 2.63-1.902 4.012q-.197.481-.424.944-.104.21-.216.411c.01-.02-.176.297-.152.265q-.227.358-.468.701c-.088.125-.184.238-.28.353.087-.103-.009-.027-.09.044a.4.4 0 0 0-.076-.032c0-.01-.012-.034-.059-.093-.063-.083-.13-.333-.151-.446-.14-.71-.04-1.419.127-2.108.164-.669.39-1.262.426-1.963.02-.392.18-.983.025-1.343-.245-.566-1.895 2.914-2.032 3.228-.796 1.833-1.541 3.69-2.745 5.174-.184.227-.551.69-.826.713-.534.044-.69-.941-.72-1.407-.042-.674.08-1.434.213-2.08.306-1.515.924-2.905 1.424-4.326.439-1.246 1.12-2.341 1.61-3.557.248-.617.569-2.01-.17-2.313-.403-.167-.87.169-1.195.431-.451.363-.83.823-1.172 1.336-.715 1.07-1.227 2.365-1.696 3.62-.63 1.688-1.18 3.46-1.568 5.26-.142.656-.113 1.355-.27 2.006-.066.277-.419 1.17-.715 1.057-.378-.147-.1-1.346-.052-1.662.1-.65.277-1.274.52-1.863.135-.326 1.152-2 .848-2.362-.373-.444-1.544.958-1.753 1.218-.725.902-1.183 2.027-1.784 3.046-.358.61-.963 1.5-1.632.988-.672-.515-.718-1.875-.51-2.698.348-1.375 1.436-2.192 2.35-2.941.643-.527 2.282-1.557 2.341-2.692.061-1.149-1.404-.306-1.77-.049-1.144.804-2.102 2.081-2.847 3.41-.684 1.215-1.297 2.703-1.206 4.232.066 1.09.627 2.412 1.662 2.184 1.176-.257 1.899-2.137 2.45-3.257.36-.73.719-1.468 1.15-2.135.184-.284.61-1.056.946-1.093.679-.076-.383 1.814-.525 2.11-.52 1.088-1.593 2.865-1.303 4.233.237 1.117 1.235.671 1.737.108.758-.85 1-2.155 1.208-3.34.532-3.038.932-6.16 2.564-8.633.25-.38 1.042-1.757 1.532-1.458.539.328-.24 1.287-.422 1.593-.468.787-.843 1.686-1.215 2.549-.672 1.551-1.275 3.198-1.537 4.938-.194 1.277-.473 3.613.674 4.375 1.022.68 1.958-.855 2.522-1.715.755-1.155 1.184-2.576 1.747-3.873q.001-.006.005-.012c-.365 1.27-.426 2.78.26 3.872.434.691 1.284.517 1.845.25.623-.296 1.175-1.017 1.591-1.64.801-1.2 1.15-2.73 1.493-4.203.161-.693.309-1.392.495-2.075.206-.75.48-1.368.833-2.022a2.8 2.8 0 0 1 .512-.711c.43-.402.554.242.574.622.041.765-.28 1.642-.508 2.334a43 43 0 0 0-1.186 4.406c-.142.652-.21 1.294-.282 1.963-.053.498.064.993.415 1.258.656.495 1.433-.476 1.835-1.017a12.4 12.4 0 0 0 1.52-2.748c.112-.28.157-.598.291-.865.155-.301.459-.525.503.024.03.366-.13.716-.191 1.067-.103.58-.213 1.157-.392 1.71-.233.726-.41 1.463-.574 2.216-.218 1.005-.725 2.804.439 3.274.539.218 1.115-.228 1.556-.556.277-.206.559-.422.826-.647.113-.096.274-.233.434-.326-.02.093-.044.184-.057.255a6.4 6.4 0 0 0-.098.894c-.024.515-.029 1.052.206 1.5 1.11 2.106 3.63-1.532 4.365-2.534.383-.52.814-1.007 1.297-1.385.115-.088.355-.38.593-.549l.005-.002c.238-.15.174.65.282.755.86.836 2.053-1.863.752-2.417z" opacity=".6"/>
        <path fill="#a96a26" d="M50.297 39.48c-.267-.324-.627-.18-.882.087a1.9 1.9 0 0 0-.5.944c-.03.157.02.395.117.505q.03.032.06.054a.23.23 0 0 0 .205.098c.272-.022.537-.123.755-.334l.11-.122q-.136.154.062-.066c.083-.125.156-.245.203-.4.083-.282.047-.554-.127-.764zM48.657 41.815a.18.18 0 0 0-.09-.07c-.016-.004-.06-.021-.087-.019a.37.37 0 0 0-.254.108.7.7 0 0 0-.143.191c-.044.093-.046.12-.066.223a.3.3 0 0 0 0 .116 1 1 0 0 0 .022.093.17.17 0 0 0 .074.095q.03.03.07.05c.155.07.327-.015.435-.16.09-.123.12-.26.115-.42 0-.082-.04-.144-.078-.205z" opacity=".4"/>
        <g style="mix-blend-mode:screen">
            <path fill="#fff" d="M23.467 28.788c-.804.28-1.539.566-2.193 1.25a10.4 10.4 0 0 0-1.755 2.495c-.04.079.034.118.078.061.267-.333.488-.72.75-1.058.294-.38.62-.748.944-1.088.662-.699 1.412-1.118 2.176-1.606.017-.01.03-.063 0-.054M19.606 38.263c-.424-.066-.632-.225-.907-.617-.255-.366-.37-.863-.38-1.336 0-.025-.032-.005-.032.012-.063.966.368 2.21 1.29 2.096.053-.008.105-.142.029-.155M24.019 38.386c-.272.23-.758.51-1.06.216-.014-.015-.033.012-.029.032.099.279.304.372.54.313.252-.064.426-.247.605-.468.047-.059.005-.142-.056-.093M33.038 35.117c-1.37-.091.171-4.473.208-5.331 0-.032-.03-.012-.035.007-.112.68-.43 1.282-.617 1.936-.152.537-.319 1.079-.377 1.647-.067.628-.023 2.12.8 1.839.03-.01.072-.094.02-.099M34.946 35.028c-.23.535-.662.819-1.02 1.199-.064.069-.039.196.052.127.431-.33.84-.693 1.007-1.316.01-.036-.027-.036-.04-.01M42.576 29.271c-.615-.309-1.125.115-1.598.593-.02.02-.02.084.015.06.343-.236.7-.437 1.1-.413.439.027.711.792.67 1.262-.006.067.063.047.08.008.182-.436.191-1.28-.265-1.507zM42.464 31.497c-.042.08-.091.152-.133.233-.024.046-.022.125.034.13.05.004.103-.057.106-.118.005-.081.017-.16.022-.24 0-.025-.022-.018-.03 0zM45.274 41.714c-.475.22-.99.473-1.335-.147-.255-.46-.194-1.171-.214-1.696 0-.017-.02 0-.022.01-.093.745-.284 1.465.135 2.108.383.585 1.079.242 1.473-.12.061-.057.056-.197-.037-.152zM50.07 39.685c-.034-.103-.105-.177-.198-.17-.167.013-.297.135-.407.282-.088.118-.255.373-.167.55v.002a.4.4 0 0 0 .062.186c.095.157.291.022.385-.063a1.1 1.1 0 0 0 .215-.292l.015-.03c-.042.091.037-.058.04-.06.056-.119.097-.268.053-.4zM48.372 41.827c-.04.01-.072.044-.094.086-.02.039-.034.113 0 .144l.005.005q-.001.004.005.008c.054.063.12-.027.15-.079.041-.07.012-.184-.069-.164zM50.824 36.923c-.076-.116-.223-.089-.316-.025-.14.096-.216.252-.25.441-.015.079-.013.191.041.25q.04.045.084.064c.051.047.12.054.188.017.106-.054.182-.166.24-.284.067-.135.101-.334.013-.463" opacity=".4" style="mix-blend-mode:screen"/>
        </g>
        <path fill="#7b4e19" d="M21.6 30.78c-.11 0-.215.268-.078.268.11 0 .216-.267.079-.267M22.52 30.048c-.08 0-.159.198-.058.198.08 0 .159-.198.058-.198M19.553 32.83c-.047 0-.09.112-.034.112.046 0 .09-.112.034-.112M18.96 34.575c-.028-.03-.065.005-.082.032q-.007.016-.017.027c-.03.049.015.093.052.06q.01-.011.022-.019c.022-.02.046-.07.02-.1zM20.65 37.876c-.071-.081-.164.051-.179.13q.001.01-.005.02c-.01.056.032.092.074.083l.017-.005c.066-.017.16-.152.09-.23zM19.905 38.17c-.035 0-.069.083-.025.083.035 0 .069-.083.025-.083M24.365 37.945c-.051 0-.103.127-.037.127.052 0 .103-.127.037-.127M24.763 36.077c-.032.01-.059.046-.07.083-.02.069.024.113.075.088a.14.14 0 0 0 .071-.142c-.007-.051-.046-.049-.078-.027zM30.207 26.159l.005.005c.024.021.059 0 .078-.032l.005-.008c.096-.159-.193-.054-.088.037zM30.122 24.933c-.024-.012-.049.007-.066.027q-.004.006-.01.012c-.012.015-.02.042-.012.059q.001.008.005.015c.025.064.09 0 .103-.042.007-.027.005-.059-.017-.071zM27.95 38.234c-.086 0-.172.21-.062.21.086 0 .172-.21.061-.21M27.013 38.212c-.064 0-.125.154-.046.154.063 0 .125-.154.046-.154M34.919 34.264c-.034-.04-.083-.005-.11.027a.1.1 0 0 0-.02.027c-.027.031-.047.1-.015.137.035.039.084.005.11-.027q.012-.014.02-.025c.027-.032.047-.1.015-.137zM33.333 36.27c-.081 0-.16.199-.06.199.082 0 .16-.199.06-.199M32.048 35.913c-.059 0-.113.142-.041.142.058 0 .112-.142.041-.142M32.068 35.126c-.051 0-.103.127-.037.127.052 0 .103-.127.037-.127M32.265 37.045s-.007-.005-.01-.005c-.017-.01-.037.005-.046.02q-.006.008-.01.015c-.027.036-.032.122.027.107.04-.01.096-.105.04-.137M37.205 27.81c-.046 0-.09.113-.034.113.047 0 .09-.112.034-.112M36.751 28.896c-.024-.073-.127.008-.117.081.004.04.024.066.058.069.06.005.115-.128.06-.15M39.507 34.89v-.009c0-.022-.015-.032-.032-.035-.044-.041-.098-.044-.081.101v.005q0 .002.002.007v.008q.009.029.03.027h.005c.105.022.105-.047.073-.103zM38.786 34.837c-.081 0-.16.198-.059.198.081 0 .16-.198.059-.198M41.274 31.15c-.056 0-.113.143-.041.143.056 0 .112-.142.041-.142M42.047 30.389c-.075 0-.147.184-.053.184.075 0 .147-.184.053-.184M41.818 32.783c-.064 0-.125.155-.047.155.064 0 .125-.155.047-.155M42.105 39.988c-.069-.005-.135.147-.071.177.029.08.15-.015.137-.1-.008-.045-.03-.074-.066-.077M41.248 40.19c-.03-.034-.07-.005-.093.024l-.02.025c-.022.027-.039.086-.012.117.03.032.071.005.093-.024l.02-.025c.022-.026.04-.085.012-.117M44.169 40.202c-.069 0-.137.169-.05.169.07 0 .138-.17.05-.17M44.631 41.601c-.034 0-.068.086-.024.086.034 0 .068-.086.024-.086M47.427 39.312c-.063 0-.125.154-.046.154.063 0 .125-.154.046-.154M46.58 40.224c-.052 0-.103.128-.037.128.051 0 .103-.128.037-.128M48.938 37.633c-.076 0-.147.184-.054.184.076 0 .147-.184.054-.184M49.773 36.452v.025c0 .049.057.024.057-.015v-.025c0-.049-.057-.024-.057.015M49.589 40.763s.002.015.005.022c.012.052.076-.002.083-.034l.005-.024c.022-.11-.118-.062-.093.036M50.241 40.163c-.017 0-.034.041-.012.041.017 0 .035-.041.012-.041M48.442 42.013c-.076 0-.147.184-.054.184.076 0 .147-.184.054-.184M25.36 33.66s-.01-.012-.012-.017c-.017-.02-.044.003-.054.022q-.008.014-.012.027c-.017.037-.01.093.034.084.035-.01.079-.076.047-.116zM25.615 31.69c-.064 0-.125.154-.047.154.064 0 .125-.154.047-.154M22.292 34.92l-.008-.02c-.022-.056-.08 0-.093.04-.007.022-.005.054.017.064.022.012.045-.008.062-.025l.014-.014c.01-.01.015-.03.01-.042zM18.981 37.222c-.064 0-.125.154-.044.154.064 0 .125-.154.044-.154M18.606 36.442c-.086 0-.172.211-.062.211.086 0 .172-.21.062-.21" opacity=".4"/>
        <path fill="#af522e" d="M46.153 36.567c-.599.314-1.025.14-1.657.047-.723-.108-.804-.267-1.473-.24-.67.027-1.902-.75-3.297-2.118-1.392-1.365-2.35-2.887-2.732-3.549s-.22-1.004-.603-1.326c-.383-.32-.503-1.004-.623-1.848-.12-.843-.08-1.225-.36-1.446-.282-.22-.162-.823.301-2.37.461-1.546.843-2.391 1.468-3.575.743-1.346 2.01-2.113 2.35-2.26a.3.3 0 0 0 .099-.066.5.5 0 0 0-.042-.115c-.09-.17-.25-.363-.51-.282-.26.078-.634.306-.916.282-.285-.022-.914.2-.914.2-.85.386-.836.795-.97 1.545-.136.75-1.153 2.196-1.717 3.348-.563 1.151-.776 1.901-1.232 2.063a5.1 5.1 0 0 0-2.01 1.26c-.59.59-.83.456-.99.963-.162.51-.267.912-.723 1.098s-.642.186-.777.67c-.135.482-1.608.857-3.242 1.526-2.01 1.017-2.331 1.74-2.76 3.348-.456 1.796-.348 4.394-.24 5.894s.448 3.17.71 4.395c.263 1.225.643 2.732 1.407 3.497.804.743 2.21 1.086 3.738 1.287 1.527.2 3.416.44 4.058.1s.865-.382 2.09-.843c1.226-.463 1.489-.664 2.393-.985s1.346-.642 1.588-.985c.24-.341.723-.503 1.287-1.066.563-.564.563-.704 1.446-1.045 1.264-.463 1.608-.865 2.21-1.627.603-.765.704-.642 1.226-1.105s.742-.441.924-.765c.181-.321.463-.943.502-1.527.04-.583.422-1.326.542-1.77.103-.377-.044-.548-.547-.607z"/>
        <path fill="#d6c3a2" d="M46.15 36.567c-.598.314-1.024.14-1.657.047-.723-.108-.803-.267-1.473-.24-.669.027-1.901-.75-3.296-2.118-1.392-1.365-2.35-2.887-2.733-3.549-.382-.661-.22-1.004-.602-1.326-.383-.32-.503-1.004-.623-1.848-.12-.843-.08-1.225-.36-1.446-.282-.22-.162-.823.301-2.37.46-1.546.843-2.391 1.468-3.575.743-1.346 2.01-2.113 2.35-2.26a.3.3 0 0 0 .099-.066.5.5 0 0 0-.042-.115c-.09-.17-.25-.363-.51-.282-.26.078-.635.306-.916.282-.285-.022-.915.2-.915.2-.85.386-.835.795-.97 1.545s-1.152 2.196-1.716 3.348c-.563 1.151-.777 1.901-1.233 2.063a5.1 5.1 0 0 0-2.01 1.26c-.423.424-.666.473-.828.657.047.225.02.473.047.72.051.486.319.897.79 1.067.577.205 1.168.38 1.747.593.08.029.178.08.284.132q.262.087.51.203c.058.01.112.015.161.005.317-.051.39-.33.574-.522.015-.017.061-.064.083-.027.189.34.135 1.015.711.79.012-.005.027-.003.032.01.184.384.299.8.497 1.178.125.235.182.522.329.743-.005-.008.26.237.257.22q.043.178.1.348c.278.37.54.748.797 1.137.42.451.824.92 1.245 1.368.655.699 1.37 1.255 2.118 1.84s1.458 1.167 2.372 1.464c.204.066.439.162.66.132.215-.03.416-.1.627-.14.142-.026.328-.063.466 0 .654-.083.99.383 1.262.959q0-.023.005-.044c.039-.584.421-1.326.541-1.77.103-.377-.044-.549-.546-.608z"/>
        <path fill="#a78d6a" d="M37.17 20.137c-.622 1.186-1.005 2.03-1.468 3.576s-.583 2.15-.301 2.37.24.603.36 1.446.24 1.527.623 1.848c.382.32.22.664.603 1.326.382.664 1.34 2.183 2.732 3.548 1.392 1.368 2.625 2.145 3.297 2.118.669-.027.75.135 1.473.24.632.093 1.058.27 1.656-.046a4 4 0 0 0-.291-.023c-.858.04-1.863-.213-2.613-.764-.75-.55-2.054-1.365-3.127-2.304-2.958-2.924-3.59-5.024-3.973-6.81-.181-1.868-.027-2.795.59-4.376.616-1.58 1.405-2.289 1.586-2.448.182-.16.272-.226.216-.407s-.056-.338.554-.826c.488-.387.564-.632.53-.801a.3.3 0 0 1-.099.066c-.34.147-1.608.914-2.35 2.26z"/>
        <path fill="#ffaa73" d="M45.068 37.94c-.282.2-1.005.2-1.566.08-.564-.12-1.569-.683-2.25-1.205-.684-.522-1.245-.924-3.255-3.015-1.848-2.169-2.429-3.602-2.544-3.933s-.098-.387-.311-.213-.312-.447-.446-.873c-.135-.426-.135.154-.311.524-.174.368-.699.175-1.145-.115-.446-.291-1.105-.524-1.667-.64-.56-.115-.737-.271-.757-.465s.174-.213-.135-.698c-.164-.258-.066-.576.061-.82-.203.133-.326.212-.421.508-.162.51-.267.912-.723 1.098s-.642.186-.777.67c-.135.482-1.608.857-3.242 1.526-2.01 1.017-2.331 1.74-2.76 3.348-.456 1.797-.348 4.394-.24 5.894s.448 3.17.71 4.395c.263 1.225.643 2.732 1.407 3.497.804.743 2.21 1.086 3.738 1.287 1.527.2 3.416.44 4.058.1.245-.13.43-.215.63-.299h-.005s-.34.118-.924.079c-.583-.04-.421.041-1.666.061-1.054.015-1.29-.076-2.23-.346-.942-.272-1.647-.487-2.68-1.193-.776-.598-.705-.615-.867-1.664-.162-1.05-.412-2-.733-3.184-.32-1.186-.764-3.637-.683-5.914.08-1.313.563-1.82.455-2.09-.107-.268-.186-.51.027-.643.216-.134.19-.294.135-.777-.054-.482.162-.482.456-.696s1.42-.669 2.76-1.392 2.169-.992 3.617-1.206c1.446-.213 2.718.02 3.397.699s.809.83 1.493 1.373c.683.541 1.164 1.367 2.25 3.134 1.085 1.569 1.446 2.03 1.747 2.571s.402.642.703.402c.302-.24.402-.363.542.061.14.422.24.785.564.723.32-.061.715.067.77.817.053.75-.109 1.313.134 1.715.24.402.321.615-.162.83s-.804.349-.804.643-.428.375-.803.83c-.375.457-.885.832-1.098 1.342-.157.37-.326.558-.532.94.24-.169.539-.36.867-.688.564-.564.564-.703 1.446-1.044 1.265-.463 1.608-.865 2.211-1.627.603-.765.703-.643 1.225-1.106s.743-.441.924-.764a4.4 4.4 0 0 0 .422-1.05c-.096-.367-.216-.911-.321-1.2-.16-.442-.402-.483-.684-.282z" opacity=".3"/>
        <path fill="#d6c3a2" d="M33.84 26.115c.052.279.216.291.292.304.076.012.203-.978.228-1.385s.103-.775.228-1.13c.11-.311.144-.691-.013-1.164q-.012.025-.024.049c-.534 1.093-.755 1.82-1.164 2.031.112.135.22.304.26.469.088.38.14.546.19.826z" opacity=".8" style="mix-blend-mode:screen"/>
        <path fill="#a78d6a" d="M46.613 36.714c-.169.027-.363.096-.512.147-.267.089-.358.358-.037.868.128.203.194.414.226.596.134-.424.328-.853.409-1.147.059-.216.037-.363-.088-.461z"/>
        <path fill="#af522e" d="M45.174 38.869c-.199.272-.343.326-.235-.29.108-.614-.164-.288-.633.074-.47.363-.742.236-1.068.128s-.145.38-.037.796 0 .652-.145 1.358c-.144.706.398.218.253.958-.09.459-.456 1.042-.723 1.422.348-.265.596-.566.914-.97.603-.765.703-.643 1.225-1.106s.743-.441.925-.765c.073-.13.164-.311.247-.52-.245-.31-.277-.703-.4-.992-.144-.343-.127-.363-.325-.09z"/>
        <path fill="#a78d6a" d="M34.93 24.603s-.02.531-.228 1.345c-.209.816-.172 1.174.036 1.667.209.492.437.965.53 1.27.095.303.188.531.284.38.096-.153.132-.93-.132-1.707a8.5 8.5 0 0 1-.493-2.956z"/>
        <g fill="#af522e" style="mix-blend-mode:multiply">
            <path d="M28.384 29.291c-.275-.061-.62.196-.883.26-.049.012-.1.078-.12.135q-.012.026-.01.044v.005q0 .014.008.024c.061.184.137.319.046.55-.051.127-.13.242-.159.38-.05.225-.059.438-.005.663.096.397.093.65-.152.985-.14.19-.27.38-.306.616-.037.232.108.492.198.696.081.181.186.595.356.71.316.216.416-.352.453-.544.056-.301.113-.598.105-.906-.01-.398-.223-.75-.073-1.155.076-.203.198-.404.216-.627.014-.184-.008-.365-.015-.55-.012-.252.169-.465.296-.663.091-.138.331-.557.042-.62zM27.026 34.398c-.105-.142-.198-.147-.272-.085.01-.018.017-.032.03-.05.007-.01-.005-.012-.01-.004a.6.6 0 0 0-.108.174.8.8 0 0 0-.066.208q-.002.022.012.017c0 .02-.005.04-.005.059-.022.282-.027.571.012.853.037.282.099.556.099.84 0 .331-.113.67-.184.99-.106.476-.201.976-.047 1.45.047.139.412.867.615.548.108-.167.015-.466.01-.65-.01-.34.005-.668.047-1.007.078-.62.137-1.24.203-1.862.054-.495-.03-1.071-.333-1.483zM27.09 40.788c-.095-.228-.25-.434-.33-.674-.027-.081-.089-.314-.233-.25l-.03.015c-.279.005-.245.473-.174.637.086.198.267.338.427.473.08.069.23.198.333.11.09-.076.042-.225.005-.311zM26.787 41.886a.63.63 0 0 0 0-.475.43.43 0 0 0-.196-.211.16.16 0 0 0-.098-.054h-.02a.23.23 0 0 0-.115.08c-.204.175-.267.493-.334.739a1.2 1.2 0 0 0-.004.624c.034.13.083.258.105.388.027.152-.098.291-.174.407-.142.218-.294.534-.007.703.063.037.144.044.213.064.147.041.218.223.272.348.047.105.103.23.208.286.044.023.088-.044.093-.078.032-.203-.09-.402-.127-.598-.025-.127.015-.252.054-.375.034-.11.027-.216.02-.328-.005-.088-.037-.177-.064-.26a1.1 1.1 0 0 1-.035-.495c.032-.27.103-.52.201-.77zM26.613 47.447c.032-.34-.063-.637-.213-.936-.154-.31-.274-.633-.426-.942-.047-.093-.106-.299-.23-.203-.148.04-.16.228-.14.385.06.443-.035.863-.081 1.304-.02.198.012.402.017.598.005.137-.081.31.01.431.088.118.303.098.419.162.181.103.397.127.595.191.022.007.044-.03.047-.047.015-.166-.066-.306-.071-.47-.005-.152.056-.319.07-.473zM26.975 45.663c-.035-.098-.084-.206-.204-.194-.046.005-.083.047-.11.093-.167.128-.08.37-.037.569.03.127.05.252.186.294.1.03.243-.02.326-.073.206-.133-.11-.547-.159-.69zM26.245 45.008a2 2 0 0 1-.184-.358.75.75 0 0 0-.166-.27c-.017-.019-.066.033-.047.052l.015.017c0 .23.02.43.142.635.069.11.206.449.36.441.02 0 .035-.022.04-.039.041-.162-.081-.348-.16-.478M33.435 24.838v-.01c-.02-.032-.051 0-.073.02-.116.08-.214.15-.238.301-.02.113 0 .228.015.34.02.18-.128.339-.233.474-.137.171-.26.323-.277.551-.027.348 0 .706-.002 1.054-.003.358-.118.679-.182 1.027-.032.164-.007.336-.027.505-.017.14-.11.27-.145.407-.039.152-.026.313-.068.468a1.5 1.5 0 0 0-.047.394c.008.321-.134.613-.161.927 0 .017.012.015.027.005-.037.392-.236.77-.145 1.169.022.103.228.845.444.698.215-.147.171-.536.127-.755-.025-.12-.059-.237-.066-.36-.01-.152.027-.296.061-.443.052-.228.113-.451.147-.682.032-.213.069-.429.12-.637.054-.22.167-.417.23-.632.13-.432.057-.922.074-1.365.01-.25.01-.505.056-.753.047-.245.221-.446.304-.679.057-.157.07-.32.05-.485-.015-.11-.045-.22-.062-.33-.027-.163.069-.288.17-.4.284-.192 0-.569-.099-.802zM32.163 33.624c-.054-.142-.177-.274-.26-.402-.098-.147-.216-.272-.28-.436-.007-.02-.039.002-.046.024a.014.014 0 0 0-.007.013c0 .174-.042.323-.013.5.02.122.081.24.152.34.062.089.243.486.4.39.13-.078.1-.314.056-.429zM31.628 31.911c-.03-.056-.05-.145-.084-.213q.009-.012.005-.02c-.059-.213-.225-.164-.343-.032a.32.32 0 0 0-.088.24c.01.128.115.194.215.258.076.047.358.189.37 0 .005-.083-.041-.157-.078-.228zM31.611 36.185c.047-.262.177-.495.235-.752.096-.427-.169-.878-.455-1.174q.001-.013-.005-.017c0-.005.005-.01.005-.013.01-.02-.017-.012-.025 0l-.007.015c-.02.005-.05.04-.032.056l.002.003c-.058.137-.06.274-.053.431.012.292.06.579.053.873-.01.284-.105.561-.127.845-.022.304.01.596-.061.897-.064.275-.187.532-.24.812-.05.25.01.475.102.708.108.267.248.532.388.782.039.07.184.362.299.318.078-.03.054-.135.049-.193-.025-.258-.162-.518-.238-.763-.194-.617.022-1.237.049-1.86.012-.326.002-.64.061-.963zM31.314 41.41c.02-.142.044-.276-.03-.404-.036-.064-.088-.117-.124-.181-.057-.093-.044-.24-.044-.348 0-.157 0-.3-.11-.422a.42.42 0 0 0-.265-.127q-.001-.013-.02-.008-.01.001-.017.005h-.084c-.01 0-.027.025-.01.025h.025c-.127.073-.093.208-.03.365.08.196-.05.38-.105.566a2.4 2.4 0 0 0-.068.564c-.017.424.122.826.12 1.25-.005.438.005.894-.233 1.28-.05.078-.147.173-.147.274 0 .15.1.215.194.32.115.133.183.265.23.432.032.115.088.235.218.253.189.026.194-.265.167-.37-.022-.084-.069-.165-.1-.246-.052-.127-.043-.267-.03-.4.02-.2.034-.391.08-.585.01-.007.02-.02.023-.024.07-.346.28-.714.235-1.074-.024-.206-.103-.382-.073-.596.029-.196.169-.352.198-.55zM30.736 45.729c-.061-.181-.16-.346-.25-.512-.073-.133-.15-.324-.29-.407q-.01-.006-.024 0a.15.15 0 0 0-.07.093l-.037-.088c-.005-.01-.025.01-.02.017l.049.172v.022q0 .01.007.012c.042.16.074.321.086.49.015.203-.027.402-.044.603-.022.282-.044.534-.14.804-.076.213-.159.412-.186.64-.027.218-.012.428-.059.646-.037.167-.117.358-.08.53.043.21.31.407.467.169.182-.27.096-.65.076-.95a1.7 1.7 0 0 1 .103-.714c.069-.189.135-.365.165-.564.036-.242.056-.475.21-.676.076-.098.076-.17.037-.287M37.73 31.94c-.037-.073-.116-.117-.162-.183-.081-.11-.18-.223-.211-.36q.015-.033.03-.062c.012-.024-.02-.017-.028 0l-.014.025c-.015-.013-.052.022-.047.041q.002.019.008.037c-.223.463-.192.97-.275 1.475-.049.295-.115.586-.162.883-.051.328-.066.659-.122.987-.052.29-.106.579-.125.873-.022.321.005.65.02.97.014.312-.062.6-.133.9-.071.296-.017.593-.069.89-.056.318-.318.475-.514.703a.58.58 0 0 0-.143.515c.02.085.28.784.476.62.105-.09.069-.304.069-.42 0-.387.15-.678.39-.972.12-.147.247-.304.306-.488.085-.275.036-.556 0-.836a2 2 0 0 1 .03-.666c.036-.174.124-.341.188-.51.007 0 .02-.008.022-.017.03-.069.03-.123.03-.201.004-.157.085-.304.144-.446.078-.187.127-.356.113-.56-.035-.514-.106-1.002-.015-1.516.032-.18.049-.37.105-.544.066-.206.05-.43.093-.64.035-.167.072-.336-.01-.495zM36.389 42.072c-.015-.103-.066-.203-.09-.306-.035-.142-.064-.28-.126-.414-.059-.13-.115-.485-.284-.53-.09-.022-.13.062-.154.14a.5.5 0 0 0-.142.243c-.05.208.004.4.112.578.044.071.123.128.18.186.078.081.122.175.17.275.035.069.116.22.214.162.115-.069.135-.213.115-.334zM36.111 44.85a5 5 0 0 1-.218-.543c-.04-.102-.03-.232-.125-.306-.13-.1-.238.267-.252.321a1.5 1.5 0 0 0-.04.522c.02.275.032.495-.093.75a1.1 1.1 0 0 0-.132.412c-.015.201.16.36.235.532.186.421-.34.76-.198 1.179q.001.007.01.002a.1.1 0 0 0-.025.054c-.003.022.015.025.032.017.284-.14.505-.26.563-.595.079-.449 0-.907.099-1.35.073-.337.308-.655.144-.998zM43.047 35.641c-.035-.047-.103-.076-.155-.103-.083-.044-.15-.113-.223-.174-.147-.127-.333-.196-.485-.316h.01c.01 0 .03-.027.014-.03-.07-.01-.264-.036-.245.101.013.086.05.154.106.22.122.148.235.265.245.469.012.233.041.527-.177.684-.068.049-.12.066-.154.144-.03.074.037.147.086.186.076.062.233.218.085.317-.027.02-.066.039-.085.063-.037.047-.069.093-.066.157.005.15.193.206-.072.385-.031.022-.07.047-.095.076-.054.064-.142.154-.147.245-.008.157.02.324.02.483 0 .353-.055.684-.104 1.03-.029.203-.08.381-.161.573a.77.77 0 0 0-.06.443c0 .012.01.012.02.008.025.122.032.252-.132.282-.086.014-.15.02-.225.06-.118.067-.167.221-.201.341-.061.226-.012.493.024.719.054.32.076.664.03.987-.042.272-.172.525-.28.775-.034.08-.134.362-.005.411.285.11.43-.438.464-.612q.16-.806.313-1.61c.035-.182.103-.339.285-.42.068-.031.147-.051.206-.1.105-.09.12-.238.117-.368-.007-.267-.064-.524-.051-.791.014-.3.085-.608.125-.907.07-.552.367-1.037.45-1.586v-.012c.023-.105.013-.22.005-.326-.002-.064-.09-.314.091-.287.054.008.103.025.16.022.235 0 .2-.407.193-.539a.66.66 0 0 1 .093-.4.35.35 0 0 0 .054-.14c0-.151.035-.332-.061-.46zM24.156 31.889c-.056-.093-.122-.257-.225-.306q-.009-.003-.018.005.02-.033.04-.064c.01-.017-.01-.017-.017-.005l-.06.096c-.009.007-.031.034-.029.049-.134.223-.245.46-.26.727-.01.194.06.383.072.574.01.169.02.287-.162.394-.044.027-.115.037-.154.079-.081.093-.064.164-.047.284.007.057.02.11.022.17.005.117-.157.132-.223.186-.172.144-.007.602-.005.781 0 .089.015.177.017.265 0 .137-.078.223-.13.338-.061.14-.127.316-.142.47-.01.116-.005.231-.024.346-.02.118-.057.228-.069.346-.007.074-.005.15-.01.223-.005.16-.083.282-.125.429a4 4 0 0 0-.12.54c-.027.18-.01.345 0 .526.008.191.04.373.057.561.022.236.007.473.049.706.007.04.058-.007.06-.03.023-.212.042-.413.109-.62.051-.159.09-.318.112-.485.057-.416.084-.816.206-1.22.115-.377.194-.77.277-1.154.09-.415.189-.819.304-1.228.042-.15.1-.307.108-.464.007-.161-.04-.299-.086-.453-.08-.267.152-.392.27-.571.076-.118.044-.314.034-.441-.007-.084-.022-.167-.032-.25-.012-.115.118-.204.189-.272a.45.45 0 0 0 .125-.21c.034-.109-.059-.234-.11-.32zM24.757 30.823c-.188.061-.37.21-.507.353-.145.15-.044.28.103.372.108.069.235-.017.284-.117.081-.17.125-.373.123-.562.017-.02.03-.056-.003-.046"/>
        </g>
        <g fill="#af522e" style="mix-blend-mode:multiply">
            <path d="M28.386 29.291a.6.6 0 0 0-.313.032c-.375.75-.415 1.973-.446 2.51-.03.477-.032.955-.052 1.433-.014.38-.066.755-.13 1.128.25.068.336-.412.368-.586.056-.301.113-.598.105-.907-.01-.397-.223-.75-.073-1.154.076-.204.198-.405.216-.628.014-.183-.008-.365-.015-.549-.012-.252.169-.465.296-.664.091-.137.331-.556.042-.62zM27.067 36.583c-.106.953-.135 1.906-.184 2.86.078.051.154.051.218-.044.108-.167.015-.466.01-.65-.01-.34.005-.67.046-1.007.079-.62.138-1.24.204-1.863a2.6 2.6 0 0 0-.04-.804c-.098.5-.198 1-.252 1.505zM26.829 40.293q-.027.356-.071.708c.083.071.223.182.32.098.092-.076.043-.225.006-.311-.071-.17-.174-.326-.258-.495zM26.718 41.308c-.086.61-.196 1.215-.306 1.823-.061.348-.125.703-.181 1.064.095.07.151.208.198.309.047.105.103.23.208.286.044.022.088-.044.093-.078.032-.204-.09-.402-.127-.598-.025-.128.015-.253.054-.375.034-.11.027-.216.02-.328-.005-.089-.037-.177-.064-.26a1.1 1.1 0 0 1-.035-.495c.032-.27.103-.52.201-.77a.63.63 0 0 0 0-.475.4.4 0 0 0-.063-.103zM26.564 48.437c.022.008.044-.03.046-.046.015-.167-.066-.307-.07-.471-.005-.152.056-.319.07-.473.032-.34-.063-.637-.213-.936-.125-.25-.23-.513-.345-.767-.057.894-.005 1.784.264 2.627q.126.031.25.066zM26.97 45.663c-.034-.098-.083-.206-.203-.194-.046.005-.083.047-.11.093-.167.128-.08.37-.037.569.03.127.05.252.186.294.101.03.243-.02.326-.073.206-.133-.11-.547-.159-.69zM26.362 45.526c.02 0 .034-.022.04-.04.04-.161-.082-.348-.16-.477-.037-.062-.071-.118-.103-.18l-.05.417c.074.133.17.282.27.277zM33.298 25.73c-.26.493-.312 1.096-.383 1.642a33 33 0 0 1-.262 1.757c-.235 1.287-.338 2.59-.522 3.887q-.006.033-.01.067c.061.085.13.13.199.083.215-.147.171-.537.127-.755-.025-.12-.059-.238-.066-.36-.01-.152.027-.297.061-.444.052-.228.113-.45.147-.681.032-.213.069-.43.12-.637.054-.221.167-.417.23-.633.13-.431.057-.921.074-1.365.01-.25.01-.505.057-.752.046-.245.22-.446.303-.68.057-.156.07-.32.05-.485-.015-.11-.045-.22-.062-.33-.027-.162.069-.287.17-.4.149-.1.142-.255.085-.41-.122.18-.24.349-.319.503zM32.064 33.453q-.048.289-.103.576c.047.036.096.053.142.026.13-.078.1-.313.056-.428a1 1 0 0 0-.095-.174M31.535 36.663c-.081.939-.145 1.873-.238 2.809l.095.176c.04.071.184.363.3.319.078-.03.053-.135.049-.194-.025-.257-.162-.517-.238-.762-.194-.618.022-1.238.049-1.86.012-.326.002-.64.061-.963.047-.263.177-.495.235-.753a.94.94 0 0 0-.049-.544c-.11.588-.21 1.177-.262 1.775zM31.154 40.825l-.015-.032c-.142 1.115-.274 2.23-.453 3.34q-.065.417-.108.834l.012.037c.032.115.089.235.218.252.19.027.194-.265.167-.37-.022-.083-.069-.164-.1-.245-.052-.128-.042-.267-.03-.4.02-.2.035-.392.081-.585.01-.008.02-.02.022-.025.071-.346.28-.713.235-1.073-.024-.206-.102-.383-.073-.596.03-.196.17-.353.198-.551.02-.143.045-.277-.029-.405-.037-.063-.088-.117-.125-.181M30.548 45.332q-.031.378-.046.76c-.008.206-.01.412-.018.617q0-.007.003-.017c.037-.242.056-.475.21-.676.077-.098.077-.17.037-.287a2.4 2.4 0 0 0-.186-.397M30.145 48.922c.147-.22.118-.514.09-.776a4.7 4.7 0 0 0-.141.835.3.3 0 0 0 .049-.056zM36.35 39.585a13 13 0 0 0-.178.686q.045.012.088-.022c.105-.091.069-.304.069-.42q0-.128.022-.242zM37.589 31.779c-.008.017-.012.037-.02.054-.294.867-.38 1.757-.429 2.669-.044.796-.066 1.598-.142 2.392a9.6 9.6 0 0 1-.52 2.286l-.029.094a2 2 0 0 1 .27-.422c.12-.147.247-.304.306-.488.086-.274.037-.556 0-.835a2 2 0 0 1 .03-.667c.036-.174.125-.34.188-.51.008 0 .02-.007.022-.017.03-.069.03-.123.03-.201.005-.157.085-.304.144-.446.079-.186.128-.355.113-.559-.034-.514-.105-1.002-.015-1.517.032-.179.05-.37.106-.544.066-.206.049-.429.093-.64.034-.166.071-.335-.01-.495-.032-.064-.096-.108-.142-.162zM36.3 41.766c-.034-.142-.063-.28-.125-.414-.036-.084-.076-.26-.142-.388q-.083.505-.135 1.017c.074.079.116.167.162.263.034.068.115.22.213.162.116-.07.135-.214.116-.334-.015-.103-.067-.203-.091-.306zM35.893 44.307c-.034-.093-.03-.206-.098-.282v.397c0 .753-.022 1.5-.069 2.25-.017.292-.039.591-.046.888a.63.63 0 0 0 .19-.363c.08-.449 0-.907.099-1.35.073-.336.309-.655.145-.998a5 5 0 0 1-.219-.542zM42.515 37.443c0-.015-.005-.04-.01-.066-.086.245-.135.494-.196.752-.135.58-.245 1.166-.373 1.747-.132.598-.286 1.189-.436 1.785a.44.44 0 0 1 .164-.128c.069-.032.147-.051.206-.1.105-.091.12-.238.118-.368-.008-.267-.064-.524-.052-.792.015-.299.086-.607.125-.906.071-.552.368-1.037.451-1.586v-.012c.022-.106.013-.221.005-.326zM43.04 35.641c-.035-.047-.103-.076-.155-.103l-.024-.015c.042.36.04.723-.037 1.057-.044.196-.145.385-.228.568q0 .004-.002.008h.012c.054.007.103.024.16.022.235 0 .2-.407.193-.54a.66.66 0 0 1 .093-.399.35.35 0 0 0 .054-.14c0-.152.034-.333-.061-.46zM24 32.553c.042-.051.1-.098.14-.135a.45.45 0 0 0 .125-.21c.027-.084-.022-.175-.069-.253q-.106.297-.196.598M23.953 32.708l-.081.274c-.277.958-.49 1.907-.664 2.89-.16.892-.441 1.754-.716 2.617.012.137.034.275.047.414.022.236.007.473.049.706.007.04.059-.007.061-.03.022-.212.042-.413.108-.62.051-.159.09-.318.113-.485.056-.416.083-.816.206-1.22.115-.378.193-.77.276-1.154.091-.415.19-.82.304-1.228.042-.15.1-.307.108-.464.008-.161-.039-.299-.086-.453-.08-.267.152-.392.27-.571.076-.118.044-.314.034-.441-.007-.079-.02-.155-.03-.233zM24.757 30.823l-.039.015c-.14.225-.257.463-.363.71.108.067.236-.02.282-.117.081-.17.125-.373.123-.562.017-.02.03-.056-.003-.046"/>
        </g>
        <g fill="#af522e" style="mix-blend-mode:screen">
            <path d="M25.45 45.212c-.348-1.15-.848-2.24-1.179-3.4A17 17 0 0 1 23.833 40c-.1-.603-.133-1.216-.243-1.816-.118-.635-.177-1.206-.103-1.85.069-.596.1-1.197.164-1.795.066-.612.285-1.21.498-1.784.225-.61.585-1.086.992-1.583.027-.032.013-.076-.03-.042-.852.726-1.254 1.868-1.597 2.902-.199.596-.274 1.23-.353 1.853-.083.664-.216 1.316-.189 1.987.03.674.157 1.36.213 2.035.057.674.19 1.335.351 1.99.311 1.27.696 2.63 1.434 3.72.162.24.539-.2.478-.404zM33.855 47.455c-.625-.02-1.245.18-1.813.424-.75.318-1.456.345-2.26.362-.78.015-1.47-.117-2.177-.453-.313-.15-.669-.336-.921-.579-.245-.235-.441-.492-.713-.7-.022-.018-.069.031-.054.05.174.253.326.51.51.756.22.291.541.49.845.684.574.365 1.262.65 1.941.71.735.066 1.463.106 2.182-.086.362-.095.705-.26 1.06-.377.42-.142.851-.242 1.27-.39.118-.041.387-.394.133-.401z"/>
        </g>
        <path fill="#000" d="M27.17 26.97v-.012l-.019-.052a.2.2 0 0 0-.022-.046q-.004-.02-.012-.05.004-.014.005-.024a.3.3 0 0 0-.047-.108.3.3 0 0 0-.063-.103c-.005-.017-.018-.022-.03-.02a.06.06 0 0 0-.037-.004c-.13.012-.125.198-.125.289 0 .061.005.137.022.206.005.061.02.108.054.117 0 0 .005.005.005.008.027.032.09.017.12 0 .025-.017.047-.032.069-.054.017-.017.04-.015.073-.04.04-.029.079-.127.01-.105zM28.471 26.387c-.037-.047-.108.06-.11.093v.034a.8.8 0 0 0-.049.34c.01.091.066.2.17.12.068-.053.207-.188.193-.286-.02-.137-.125-.196-.206-.3zM27.771 27.874c-.012-.02-.03-.017-.049-.022s-.047-.032-.056-.049a.2.2 0 0 0-.13-.086c-.02-.005-.056.035-.04.052.05.044.07.1.104.15.017.024.036.046.066.048.039 0 .073-.024.093-.056.005-.01.015-.027.01-.04zM26.263 29.303l-.017-.017-.03-.04c-.017-.021-.032-.048-.051-.068-.032-.03-.098.052-.074.084.035.046.044.166.125.147.03-.008.096-.086.047-.106M26.324 34.237l.002-.032q-.002-.02-.022-.02c-.051 0-.122.03-.112.096a.02.02 0 0 0 .012.02.2.2 0 0 0-.032.075c0 .015 0 .025.017.025.069 0 .108-.066.125-.133.012-.01.022-.029.007-.032zM29.336 34.59q0-.002-.002-.008a.1.1 0 0 0-.052-.014c-.01-.013-.027-.017-.051-.003a.17.17 0 0 0-.069.089.3.3 0 0 0-.03.112c0 .01.006.015.01.017-.002.069.013.147.089.128.1-.027.103-.145.073-.226a.15.15 0 0 0 .032-.098zM30.232 35.058s-.005-.02-.01-.03l.003-.024c0-.015-.012-.025-.027-.022a.1.1 0 0 0-.042.012c-.054 0-.105.059-.134.1a.28.28 0 0 0-.052.18c.007.056.066.083.118.066.07-.025.152-.145.14-.233a.1.1 0 0 0 .002-.05zM29.969 36.187s.005-.007.005-.012q0-.014-.003-.024c0-.03-.005-.057-.037-.067h-.014c-.022-.012-.044-.002-.066.02a.1.1 0 0 0-.017.04c0 .01-.018.026-.02.038a.24.24 0 0 0 0 .125c.02.076.113.113.16.037.031-.054.014-.103-.006-.154zM25.413 36.822c0-.034-.013-.064-.042-.076-.044-.017-.093.054-.11.081a.33.33 0 0 0-.05.16c-.004.053.015.112.067.137.046.02.098-.032.122-.064.042-.059.079-.184.013-.238M24.809 37.852l.007-.005c.012-.007.049-.05.02-.059-.126-.044-.228.108-.248.22-.022.032-.042.08-.03.113.023.06.089.047.13.018a.3.3 0 0 0 .062-.076.11.11 0 0 0 .054-.096c.022-.037.027-.08.005-.115M24.058 39.575a.2.2 0 0 0-.042-.047c-.012-.01-.03 0-.04.01-.105.076-.07.24-.034.345.02.054.04.096.103.069.05-.02.076-.073.089-.123.012-.058.007-.235-.076-.254M25.4 39.241a.1.1 0 0 0-.024-.041c-.005-.013-.012-.025-.025-.027q-.015-.002-.029.007h-.002c-.02-.007-.04-.012-.06-.005a.145.145 0 0 0-.1.142c0 .056.037.115.081.152.052.044.11.03.154-.017.052-.054.027-.15.008-.208zM24.872 40.266c0-.02-.008-.037-.015-.054a.08.08 0 0 0-.054-.076q-.03-.014-.059 0a.14.14 0 0 0-.147.059c-.068.103.061.242.167.184a.2.2 0 0 0 .059-.057c.022 0 .046-.034.046-.054zM27.598 38.52a.33.33 0 0 0-.051-.183c-.066-.103-.16-.064-.194.039a.5.5 0 0 0 .01.262c.027.098.113.14.189.052a.25.25 0 0 0 .046-.172zM29.292 40.47a.11.11 0 0 0-.1.065.21.21 0 0 0-.106.157c-.007.09.086.145.165.123.088-.025.156-.093.161-.186.003-.072-.041-.157-.12-.16M28.675 42.087c.024-.057.017-.137-.05-.128-.014-.014-.036-.014-.068.015a.2.2 0 0 0-.051.1.3.3 0 0 0-.037.094c0 .014 0 .037.005.054-.01.076 0 .24.11.174.056-.035.066-.081.09-.135a.23.23 0 0 0 0-.174M33.308 41.758a.1.1 0 0 0-.044-.056.1.1 0 0 0-.062-.042h-.017c-.005 0-.007-.005-.012-.005-.022-.005-.044.005-.061.02-.03-.017-.064-.022-.091.005-.064.056-.054.15-.002.213.058.076.15.095.225.032l.01-.01a.15.15 0 0 0 .056-.157zM34.223 41.148h-.01c-.015-.015-.034-.022-.061-.012-.096.032-.081.169-.052.24.015.032.037.066.071.076.047.017.086-.034.1-.071.023-.059.05-.226-.046-.235zM33.434 39.915c-.01-.044-.047-.054-.078-.034-.027 0-.052.017-.07.036-.011.015-.016.037-.011.052l-.005.007c-.022.042-.032.177.044.174.105-.002.142-.154.123-.235zM34.355 39.192q-.002 0-.008-.002a.3.3 0 0 0 .02-.108c0-.013-.01-.02-.022-.02q-.016.002-.027.008a.1.1 0 0 0-.02-.037c-.05-.054-.1.041-.112.08-.017.054.002.133.051.165q.014.008.025 0 .015.009.041.01c.03 0 .096-.086.05-.093zM32.89 37.075q-.01-.018-.026-.013h-.008q-.005-.017-.022-.029c-.02-.015-.049.005-.066.02a.13.13 0 0 0-.041.088c0 .056 0 .137.063.16.076.024.14-.062.14-.128a.14.14 0 0 0-.04-.096zM35.206 35.7a.2.2 0 0 0-.05-.076c-.041-.037-.1-.05-.144-.012-.047.041-.049.093-.022.147q.02.035.049.063c.03.03.056.062.086.093.027.03.078-.026.093-.046.034-.05.022-.118-.01-.17zM35.701 34.546c-.02-.02-.059-.008-.08.012q-.01.01-.02.022l-.032.03c-.032.034-.066.1-.03.141.017.02.054.003.071-.005q.007-.001.01-.007c.005 0 .01-.005.013-.007.017-.01.044-.037.046-.064l.002-.005c.013 0 .03-.012.04-.024.024-.032.02-.081-.025-.091zM34.812 33.386q-.022-.009-.04 0-.016-.001-.033.005c-.103.04-.118.233-.045.306.084.084.197-.017.206-.108.01-.068-.02-.169-.085-.203zM32.397 35.217c0-.032-.034-.069-.054-.093-.02-.03-.049-.044-.08-.034a.1.1 0 0 0-.028-.032c-.03-.025-.068.027-.078.046-.034.066-.01.145.032.211q.014.05.041.081c.008.01.023.007.035.002.044.025.095.005.122-.039.03-.049.013-.09.008-.142zM32.213 45.064c.02-.036.02-.078-.005-.105v-.005c0-.037-.01-.09-.053-.088-.091.007-.14.11-.15.188-.005.045.005.128.044.155q.007.014.015.024c.01.013.032 0 .042-.002a.2.2 0 0 0 .068-.086.3.3 0 0 0 .03-.066q.004-.008.01-.015M37.217 44.359l-.012-.017a.06.06 0 0 0-.013-.037c-.034-.047-.108-.003-.137.03-.024.024-.049.075-.027.102a.13.13 0 0 0 .02.125c.032.042.09.035.127.003a.17.17 0 0 0 .042-.209zM38.472 43.861l-.03.005c.025-.056.03-.123.005-.17-.056-.1-.152.01-.183.07-.022.041-.04.088-.06.132-.019.041-.004.098.008.14.012.039.037.073.081.066.044-.008.071-.04.09-.076.05-.022.084-.09.104-.133.007-.014.007-.039-.015-.036zm-.125-.13s.032.025.044.042h-.024q-.014 0-.032.015-.001 0-.005.002-.013.012-.022.025a.3.3 0 0 1 .041-.089zM38.924 41.604s-.01-.005-.014-.005q-.008-.01-.013-.02c-.017-.022-.051.003-.07.035a.1.1 0 0 0-.03.029c-.056.088-.066.28.069.301.073.013.115-.085.12-.144a.26.26 0 0 0-.062-.196M39.442 40.283c.032-.078-.04-.137-.118-.118-.083.023-.125.133-.11.214.005.032.024.066.061.07.042.006.09-.029.118-.058q.013-.016.02-.032l.002-.005c.01-.012.012-.03.012-.046V40.3q.008-.01.012-.02zM40.16 39.501a.1.1 0 0 0-.038.01c-.04.02-.079.07-.064.117.037.113.186.05.21-.036.02-.071-.046-.128-.107-.093zM38.029 39.597c0-.062-.04-.091-.086-.093-.017-.023-.049-.03-.08-.008a.2.2 0 0 0-.052.059.2.2 0 0 0-.059.12 1 1 0 0 0-.032.061c-.015.032-.015.076.022.091s.081-.012.11-.034c.008-.005.01-.01.018-.017a.24.24 0 0 0 .073-.06c.047-.021.084-.075.084-.117zM37.954 37.609a.14.14 0 0 0-.05-.106c-.031-.027-.07-.012-.1.01-.09.042-.15.245-.047.29.06.026.123-.03.148-.08a.1.1 0 0 0 .014-.04.15.15 0 0 0 .03-.074zM37.38 47.628c-.02-.037-.046-.047-.076-.044a.08.08 0 0 0-.08-.044c-.06.012-.096.078-.108.13-.025.1.024.198.134.203.081.003.133-.059.14-.13a.13.13 0 0 0-.012-.115zM38.157 47.49c.007-.034 0-.068-.044-.068-.086-.005-.157.108-.182.177-.012.031-.022.076 0 .105.027.04.074.034.113.017h.002c.096-.02.096-.122.118-.196a.04.04 0 0 0-.005-.03zM36.762 48.706c0-.022 0-.039-.008-.053-.007-.02 0-.05-.022-.062l-.01-.002c-.017-.022-.041-.032-.068-.012-.054.039-.081.115-.084.178-.002.069.05.13.12.086a.18.18 0 0 0 .074-.135v-.002zM33.53 49.43c-.036-.037-.08-.05-.12-.035-.058-.007-.102.037-.124.093-.037.037-.059.091-.042.14.022.061.103.105.162.11a.18.18 0 0 0 .186-.132c.017-.064-.014-.132-.059-.177zM34.413 49.297s-.01-.02-.015-.024a.1.1 0 0 0-.017-.027c-.03-.035-.074-.015-.098.014a.14.14 0 0 0-.027.133c.032.117.188-.005.159-.096zM30.568 50.633s0-.005-.002-.007v-.005a.16.16 0 0 0-.047-.084c-.034-.032-.088-.007-.115.025a.13.13 0 0 0-.027.066.179.179 0 0 0 .022.191c.03.034.08.02.11-.005a.14.14 0 0 0 .042-.059.07.07 0 0 0 .022-.066q.001-.028-.005-.056M22.898 45.636c-.02-.052-.089.012-.11.046a.24.24 0 0 0-.05.09c-.014.052-.012.101-.01.153.003.07-.01.13.035.19.07.099.223-.016.245-.097.034-.123-.066-.275-.11-.382M22.553 44.126c-.005-.013-.018-.017-.03-.015-.068.005-.13.118-.157.228a.4.4 0 0 0-.029.098c-.01.071.051.191.137.179.22-.027.115-.363.079-.488zM21.925 44.925c0-.054-.041-.098-.088-.118-.069-.027-.125.071-.118.128.01.059.05.122.108.137.042.012.086-.044.093-.08a.2.2 0 0 0 0-.052l.003-.017zM22.558 43.273c-.054.007-.094.066-.106.115-.012.047.015.105.071.096a.12.12 0 0 0 .093-.091c.025-.047.013-.127-.056-.12zM45.103 43.971a.2.2 0 0 0-.017-.117c-.007-.013-.017-.015-.027-.015q.001-.014-.005-.027c0-.01-.012-.012-.022-.01h-.012c-.074 0-.123.086-.147.145q-.002.007-.007.022-.002.006-.008.012c-.041.074-.076.208.02.245q.007.012.017.02.034.016.066-.013c.09-.02.145-.127.152-.213q.002-.025-.007-.046z"/>
        <path fill="#fff" d="M34.78 33.416c-.042 0-.104.1-.045.1.042 0 .103-.1.044-.1M35.085 35.631c-.023 0-.067.052-.035.066.015.005.017.02.035.025.017.005.039-.02.041-.034.005-.032-.005-.054-.039-.054zM27.465 38.32c-.017-.027-.061.022-.054.044.015.049-.003.1.015.145.014.034.059-.025.063-.04a.2.2 0 0 0-.024-.152zM29.29 40.525c-.039 0-.095.093-.041.093.039 0 .095-.093.041-.093M24.706 37.883c-.03 0-.076.074-.032.074.03 0 .076-.074.032-.074M24.788 40.172c-.032 0-.081.079-.035.079.032 0 .081-.079.035-.079M22.504 44.214c-.007-.02-.032-.01-.044-.002a.1.1 0 0 0-.042.056c-.01.034-.002.064-.039.086a.07.07 0 0 0-.034.046c-.005.018.01.035.03.025a.26.26 0 0 0 .097-.081c.022-.032.047-.086.034-.125zM22.885 45.704c-.027-.054-.125.044-.105.088.022.054.017.11.022.167.002.034.037.03.059.017a.12.12 0 0 0 .056-.085.4.4 0 0 0-.032-.187M37.338 47.619c-.01-.023-.03-.013-.047.004q0-.01-.005-.022c0-.024-.026-.022-.044-.012a.08.08 0 0 0-.039.064c0 .034 0 .066.02.095.014.025.046.01.063-.005.035-.031.072-.073.052-.122zM45.045 43.893s-.022-.01-.037-.005c-.005 0-.012.005-.017.007q-.001 0-.005.003c-.03 0-.059.034-.071.061-.008.017-.01.059.022.052.02-.005.04-.01.054-.025a.1.1 0 0 0 .017-.017c.007-.007.03-.025.007-.01.013-.007.052-.049.03-.066M33.197 41.707c-.041 0-.103.1-.044.1.042 0 .103-.1.044-.1M27.011 26.69h-.002q.002-.025.007-.053c.007-.045-.047-.008-.054.012a.7.7 0 0 0-.044.264c0 .042.054.008.066-.004a.2.2 0 0 0 .044-.116c.003-.027.02-.09-.014-.103zM28.486 26.556c-.054 0-.132.127-.056.127.054 0 .132-.127.056-.127M38.87 41.628c-.038 0-.1.099-.041.099.04 0 .1-.099.042-.099"/>
        <path fill="#809f20" d="M47.416 33.41c-.113-.316-.385-.156-.554.023-.169.18.044.485.044.485l.005.017c.277.387.559.9.681.826.067-.04.07-.245.032-.588l-.005-.008s-.09-.44-.203-.757z"/>
        <path fill="#648c08" d="M45.911 26.092c-.748-2.929-1.522-5.024-1.809-5.627s-1.15-.086-1.15-.086c-.347.243-.536.402-.482 1.875s.262 2.745.924 4.595c.662 1.848 1.299 3.831 1.995 5.331s1.044 1.179 1.365 1.554c.052.059.103.13.157.203l-.005-.017s-.216-.306-.044-.485c.17-.181.441-.338.554-.022s.203.757.203.757l.005.008c-.044-.412-.14-1.025-.25-1.792-.2-1.407-.718-3.36-1.465-6.289z"/>
        <path fill="#809f20" d="M43.152 24.577s.174.53.267.932.174.657-.135.309c-.308-.349-.428-.562-.49-.812-.061-.247-.066-.448.081-.583s.22 0 .275.154z"/>
        <path fill="#648c08" d="M47.375 32.381c-.201-1.407-.718-3.36-1.466-6.289-.22-.87-.446-1.666-.659-2.372.08 1.75.167 3.5.297 5.242.076 1.025.183 2.16.72 3.064.265.446.505.857.667 1.335.166-.144.382-.227.48.047.113.316.203.757.203.757l.005.008c-.044-.412-.14-1.025-.25-1.792zM43.019 23.686c.027-.723.088-1.444.088-2.167 0-.306-.027-.637.022-.939a3 3 0 0 1 .076-.318c-.147.056-.252.117-.252.117-.348.243-.537.402-.483 1.875.04 1.09.164 2.071.495 3.255q.022-.912.054-1.823" opacity=".5" style="mix-blend-mode:multiply"/>
        <path fill="#809f20" d="M44.03 20.872s-.437-.012-.211.573c.225.586.549 1.196.686 1.147s.1-.909-.076-1.32c-.174-.412-.3-.425-.4-.4M44.438 25.896s.415-.299.5-.066c.086.23.365 1.569.29 1.627-.076.057-.425-.52-.645-.848-.22-.326-.375-.549-.145-.713M43.977 28.886s.132.41.372.88.48.826.559.799-.164-1.056-.284-1.527c-.187-.728-.826-.647-.647-.152M46.243 33.082s-.35.069-.248.35c.101.282.52.961.792 1.243s.191-.022.09-.598c-.1-.576-.237-1.096-.632-.995zM47.225 31.974s-.272.057-.329.35c-.056.295.069.351.294.68.226.328.711.857.554.237-.159-.622-.282-1.377-.52-1.264z"/>
        <path fill="#648c08" d="M40.911 19.784s-.825-.089-.93.394c-.109.483-.082 3.093.06 4.743.14 1.647.162 1.627.24 2.674.081 1.044-.02 1.426.182 3.093.2 1.669.174 1.921.412 1.754.235-.166.794-.434.928-2.551.135-2.117-.063-9.816-.89-10.105z"/>
        <path fill="#648c08" d="M40.907 26.137c.078 1.286.223 2.57.583 3.813.071.25.15.5.228.748.034-.236.064-.503.083-.81.135-2.117-.063-9.815-.89-10.104 0 0-.267-.03-.517.037.43 2.075.383 4.205.513 6.318z" opacity=".5" style="mix-blend-mode:multiply"/>
        <path fill="#809f20" d="M39.95 23.48s.068.524.203.83c.137.307.272-.046.33-.784.057-.74-.034-.853-.272-.865-.237-.012-.409.103-.262.819M40.26 27.666s-.016.522.053.897c.066.375.24.255.282-.282.04-.537.066-.792-.12-.819-.189-.027-.201.054-.213.201z"/>
        <path fill="#788e1a" d="M40.828 31.1s-.287-.018-.296.237c-.008.255.083 1.03.181 1.096s.189-.223.248-.873c.056-.429 0-.468-.133-.46"/>
        <path fill="#809f20" d="M41.319 31.47s-.483-.04-.483.36.054 1.031.174 1.058.83-1.433.309-1.419"/>
        <path fill="#809f20" d="M40.849 30.56s-.025.37.007.704.04.649.302-.062c.262-.71.37-1.174.085-1.174-.284 0-.362.032-.394.535z"/>
        <path fill="#aac844" d="M42.832 32.354s.12.441.262.383c.14-.062.182-.483.062-.804s-.402-.162-.321.421z"/>
        <path fill="#84ae0c" d="M41.557 18.37s-.777.08-.804.669c-.027.588.135 2.304.186 3.348.054 1.044-.08 1.688.054 3.375.135 1.688.51 3.671.939 5.01.429 1.337.777 2.168 1.017 1.232.24-.939.213-3.162.054-4.02-.16-.857-.321-6.377-.027-8.546.08-.99-.59-1.232-1.42-1.07z"/>
        <path fill="#aac844" d="M42.306 22.943s.117.493.117 1.015-.069.73-.267.306c-.196-.424-.434-1.066-.277-1.272.157-.208.375-.157.424-.049zM42.792 26.232s-.43-.04-.348.363c.08.402.255.978.402 1.218s.2.027.174-.441-.015-1.165-.228-1.14M41.266 27.713s.1.924.24 1.244c.14.322.095-.026.2-.602.182-.986-.382-1.025-.44-.643M41.87 30.546s-.143-.422.16-.583c.302-.162.523.08.484.502s-.201 1.346-.302 1.066c-.1-.282-.34-.985-.34-.985z"/>
        <path fill="#9fb739" d="M42.834 30.484s-.262.02-.12.684c.14.664.382 1.226.503.985.12-.24.2-2.01-.383-1.669"/>
        <path fill="#aac844" d="M43.115 29.781s-.463.12-.34.503c.12.382.301 1.186.401.865s.282-1.427-.06-1.368M41.021 20.987s-.392.044-.345.542c.044.495.15 1.443.255 1.713s.255-.811.27-1.382c.014-.571.029-.946-.182-.873z"/>
        <path fill="#84ae0c" d="M45.313 17.887s-.024 3.556.177 6.387.189 2.728.35 4.181c.15 1.353.375 2.78.5 3.431s.35.451.552-.35c.2-.802.35-2.38.402-3.983.049-1.603.15-1.679.174-2.453.024-.777.225-2.48.375-4.733.15-2.255.311-2.978-.226-3.08-1.051-.201-2.328-.275-2.304.6"/>
        <path fill="#aac844" d="M45.728 20.338s.12.865.24 1.387.14.502.402-.22c.26-.724.461-1.79 0-1.81-.463-.02-.703.14-.642.643M47.619 17.286s-.456-.108-.255.586c.2.694.345.934.4 1.4.053.465.12.159.185-.427.067-.586.245-1.439-.33-1.559M47.271 24.401s-.41-1.2-.184-1.37c.226-.169.522-.225.552.383.03.607-.057 1.796-.155 1.598-.098-.199-.213-.608-.213-.608zM45.607 26.004s-.162-.823-.14-1.345c.02-.522.181-.642.522-.441.34.2.181.583.04.924-.14.34-.364.622-.422.865z"/>
        <path fill="#9fb739" d="M46.181 30.043s-.372.01-.32.594c.05.583.17 1.276.3 1.276s.432-.532.533-1.154c.1-.622-.162-.784-.513-.713z"/>
        <path fill="#97a833" d="M46.841 30.22s-.35.044-.296.49c.051.446.157.776.21 1.012.052.235.174.14.28-.209.105-.35.29-1.468-.191-1.294z"/>
        <path fill="#aac844" d="M46.984 29.592s.292-.162.302.21c.01.373.044 1.219-.098 1.28-.14.061-.304-.375-.395-.738-.09-.362-.11-.583.191-.752M46.208 30.747s-.262-.885-.302-1.307.062-.583.422-.522c.36.062.522.262.402.723-.12.464-.522 1.106-.522 1.106"/>
        <path fill="#aac844" d="M46.452 28.857s-.523-1.365-.14-1.507c.382-.14.703-.04.603.583s-.162 1.67-.461.924z"/>
        <g fill="#84ae0c" style="mix-blend-mode:screen">
            <path d="M45.686 21.882c-.054-1.437.056-2.87.056-4.304 0-.027-.039.005-.041.02-.09.71-.196 1.396-.218 2.115-.022.764-.03 1.531-.013 2.296.035 1.502.155 3.073.456 4.549.02.098.204-.071.199-.142-.1-1.517-.383-3.012-.439-4.534M46.216 27.263c-.027-.156.017-.304-.066-.45-.03-.052-.118.041-.1.085.073.18-.006.365.021.55.03.212.076.44.15.644.027.076.142-.057.142-.103-.008-.248-.1-.483-.145-.726z"/>
        </g>
        <g fill="#84ae0c" style="mix-blend-mode:screen">
            <path d="M41.24 23.053c-.053-1.436.057-2.87.057-4.303 0-.027-.041.005-.041.02-.091.71-.197 1.396-.219 2.114-.022.765-.03 1.532-.012 2.297.034 1.505.154 3.073.456 4.549.02.098.203-.071.198-.145-.102-1.517-.382-3.012-.438-4.534zM41.77 28.435c-.027-.157.018-.304-.066-.45-.03-.052-.117.041-.1.085.073.179-.005.365.022.55.03.212.076.44.15.644.026.076.141-.057.141-.103-.007-.248-.1-.483-.144-.726z"/>
        </g>
    </g>
    <defs>
        <clipPath id="a">
            <path fill="#fff" d="M10.875 10h48v48h-48z"/>
        </clipPath>
    </defs>
</svg>
