<svg xmlns="http://www.w3.org/2000/svg" width="615" height="428" fill="none"><path fill="#F4F4F4" d="M435.446 54.64c-22.089-.727-37.206 20.21-23.389 37.485 14.787 18.486 40.127 44.86 69.855 53.618 47.463 13.982 46.181-14.917 39.552-28.802-20.709-43.38-57.938-61.379-86.018-62.303z"/><path fill="#CFCFCF" d="M176.998 394.415c69.874-.961 120.525-29.293 210.033-13.144 48.779 8.8 96.583 1.233 121.083-16.103 21.553-15.25 56.526-20.375 59.74-30.486H69.402S94.062 395.556 177 394.416z" opacity=".4"/><path fill="#EA3934" d="m354.357 334.595 8.834.007 128.353.074 9.939.006 6.428-253.937-175.747 3.934z"/><path fill="#F67773" d="m363.191 334.602 128.353.074 3.842-241.138-150.855 3.376z"/><path fill="#EA3934" d="m363.191 334.602 128.353.073 3.842-241.137S476.205 280.38 464.917 302.99c-11.287 22.611-101.726 31.612-101.726 31.612" opacity=".5"/><path fill="#EA3934" d="M375.102 194.985c-4.577 0-8.288 3.717-8.288 8.301a8.3 8.3 0 0 0 4.524 7.394l-1.51 14.651h10.548l-1.51-14.651a8.3 8.3 0 0 0 4.523-7.394c0-4.584-3.71-8.301-8.287-8.301"/><path fill="#FAA9A7" d="M377.162 195.244a8.3 8.3 0 0 0-6.226 8.042 8.3 8.3 0 0 0 4.523 7.394l-1.51 14.651h6.427l-1.51-14.651a8.3 8.3 0 0 0 4.524-7.394 8.3 8.3 0 0 0-6.226-8.042z"/><path fill="#D7F2FF" d="M316.549 94.776c-.538 0-1.062.06-1.566.172-.321-6.572-5.742-11.8-12.382-11.8-6.641 0-11.951 5.126-12.369 11.605a4.98 4.98 0 0 0-5.522 4.952c0 .265.027.523.066.776h38.85c-.711-3.261-3.609-5.704-7.077-5.704zM556.663 295.538c-.538 0-1.061.061-1.566.172-.32-6.571-5.742-11.8-12.382-11.8-6.641 0-11.95 5.126-12.369 11.606a4.98 4.98 0 0 0-5.522 4.952c0 .265.027.523.066.776h38.85c-.711-3.261-3.609-5.704-7.077-5.704zM241.684 46.304c-.589 0-1.162.066-1.715.188-.352-7.196-6.288-12.923-13.561-12.923s-13.088 5.613-13.546 12.71a5.452 5.452 0 0 0-6.046 5.422c0 .29.029.573.073.85h42.545c-.777-3.572-3.952-6.247-7.751-6.247zM116.235 129.778c-.409 0-.81.046-1.194.131-.245-5.012-4.379-9.001-9.445-9.001s-9.115 3.91-9.434 8.853a3.799 3.799 0 0 0-4.212 3.777q.002.302.05.593h29.632a5.53 5.53 0 0 0-5.398-4.352z"/><path fill="#40947E" d="M100.739 235.527c-16.031-8.984-20.982 23.815-14.89 44.707 6.093 20.889 5.962 31.407 5.962 31.407s2.91 12.088 3.35 22.968l14.479-.01c-.902-12.896.545-25.324.545-25.324v-.009c.092-.903 6.475-64.82-9.444-73.739z"/><path fill="#2E6857" d="M158.916 254.998c-3.961-2.385-9.863-2.182-16.285 1.018-4.865 2.423-10.029 6.565-14.871 12.601-7.282 9.074-13.841 22.428-17.577 40.658 0 0-1.447 12.428-.545 25.324l16.448-.01s5.789-22.006 20.145-39.728 24.155-32.949 12.683-39.862z"/><path fill="#6FC183" d="M51.16 264.62s-8.563 3.879-.674 23.246c7.888 19.369 24.612 30.981 28.076 46.753l16.598-.011c-.441-10.879-3.351-22.967-3.351-22.967S72.983 257.409 51.16 264.62M136.102 280.092c-5.235 7.707-9.659 16.229-13.147 25.327-5.941 15.495-7.126 27.465-7.138 27.584l.685.064c.011-.117 1.191-12.011 7.103-27.421 5.453-14.214 16.163-34.411 36.22-49.924l-.42-.546c-8.917 6.895-16.758 15.279-23.303 24.914z"/><path fill="#6FC183" d="m133.61 283.987.362.586c10.803-6.684 25.538-8.023 25.686-8.035l-.059-.686c-.149.012-15.044 1.364-25.989 8.136zM120.541 280.259l-.688-.007c-.007.647-.128 15.935 4.219 22.74l.579-.371c-4.235-6.632-4.111-22.205-4.11-22.362M119.898 314.528l.435.534c4.316-3.533 16.256-5.492 16.376-5.511l-.11-.68c-.498.08-12.242 2.007-16.703 5.657z"/><path fill="#2E6857" d="M66.662 281.696c-7.997-11.499-15.216-17.29-15.288-17.346l-.428.54c.071.057 7.211 5.784 15.151 17.201 7.333 10.546 16.855 28.227 20.57 52.576l.681-.104c-1.648-10.808-4.564-21.224-8.667-30.958-3.282-7.788-7.325-15.158-12.02-21.907z"/><path fill="#2E6857" d="M81.674 289.698a.3.3 0 0 1-.03-.086c.095.694-.593 13.185-1.69 18.915l.675.13c.644-3.363 1.105-8.761 1.323-11.68.137-1.835.252-3.67.323-5.169.106-2.25.06-2.336.007-2.435l-.607.325zM66.033 311.968l-.14.674c.069.014 6.899 1.44 9.126 2.061 1.988.554 7.924 2.681 7.983 2.702l.232-.648c-.246-.088-6.019-2.156-8.032-2.717-2.249-.626-9.102-2.057-9.17-2.072M49.366 285.304c.125.007 12.651.644 22.883 6.558l.343-.597c-10.38-6-23.068-6.644-23.196-6.65l-.032.688zM64.31 267.362c.01.098.85 9.895.03 12.003l.642.25c.876-2.255.05-11.903.014-12.313zM96.402 233.927l-.671.152c.034.154 3.504 15.684 5.466 35.74 1.808 18.494 2.669 44.729-3.508 64.685l.656.204c2.745-8.866 4.348-19.685 4.768-32.155.336-9.967-.08-21.006-1.234-32.811-1.966-20.097-5.444-35.661-5.479-35.815z"/><path fill="#2E6857" d="m85.318 246.245-.532.437c.298.364 7.396 8.909 15.189 10.793l.161-.669c-7.567-1.831-14.748-10.475-14.818-10.563zM108.717 251.254c.146.694-1.438 7.633-7.589 17.108l.577.376c6.362-9.8 7.873-16.739 7.685-17.627zM85.822 279.187l-.375.578c.09.058 9.2 6.028 16.991 15.696l.536-.432c-7.863-9.758-17.059-15.783-17.152-15.842M102.173 307.824l.686.043s0 .019-.004.034c.168-.787 3.593-10.701 8.655-15.127l-.452-.518c-5.332 4.661-8.86 15.158-8.885 15.567z"/><path fill="#F3CE90" d="M147.991 73.5c2.168-11.207-3.917-18.913-3.917-18.913h-.003c-.118-.162-.232-.325-.355-.484-5.896-7.651-16.867-9.066-24.506-3.16-7.639 5.904-9.051 16.893-3.156 24.544q.187.238.38.468l-.012.009s5.901 7.848 17.273 8.585c0 0 3.482-.111 7.366 4.928l3.054-2.36 3.718-2.874 3.053-2.36c-3.884-5.039-2.893-8.385-2.893-8.385z" opacity=".8"/><path fill="#fff" d="M140.55 72.281c.957-1.084.512-2.803-.163-3.944-.533-.905-1.412-1.803-2.276-1.609-.416.094-.937.469-1.054 1.733-.089.947.385 2.368 1.412 4.249l-3.116 2.41c-1.557-1.472-2.809-2.291-3.747-2.445-1.25-.205-1.745.204-1.939.582-.407.789.239 1.867.977 2.613.932.941 2.478 1.81 3.768 1.157l.075-.049.795-.613c3.089 3.112 6.72 8.026 8.334 10.374l.776-.534c-.023-.032-2.225-3.231-4.858-6.466q-1.933-2.372-3.501-3.953l2.907-2.247q1.133 1.921 2.933 4.394a113 113 0 0 0 5.015 6.345l.712-.617c-1.86-2.157-5.686-6.92-7.908-10.702l.859-.676zm-6.597 3.92c-.783.363-1.885-.234-2.639-.996-.673-.68-.907-1.328-.81-1.517.039-.077.289-.193.95-.084.805.133 1.915.933 3.148 2.094l-.651.502zm4.043-7.653c.062-.668.238-.88.323-.899.206-.046.773.344 1.26 1.169.545.923.841 2.141.293 2.809l-.65.502c-.81-1.49-1.301-2.767-1.226-3.581"/><path fill="#202020" d="m152.28 92.54-.057-.074-.608.527-.664.456.057.074-1.41 1.226s1.353.984 1.702.713l.755-.584 1.272-.983.754-.583c.349-.27-.259-1.831-.259-1.831l-1.542 1.056z"/><path fill="#93493A" d="M154.515 89.073c-.117-.615-.162-1.1-.162-1.1l-8.282 6.402s.461.164 1.022.437c.43.208.923.478 1.322.784a.67.67 0 0 0 .818-.005l5.496-4.249a.67.67 0 0 0 .209-.788c-.195-.465-.331-1.01-.423-1.481"/><path fill="#A5A5A5" d="m148.402 92.573-2.331 1.802s.461.164 1.022.437c.43.208.923.478 1.322.784a.67.67 0 0 0 .818-.005l2.1-1.622c-.825-.731-2.013-1.526-2.013-1.526z" opacity=".5" style="mix-blend-mode:multiply"/><path fill="#535353" d="M146.071 94.375s.461.164 1.022.437l7.422-5.737c-.117-.615-.162-1.101-.162-1.101l-8.282 6.402z" opacity=".3"/><path fill="#EF7C59" d="M137.537 81.666c-12.31-.799-18.697-9.293-18.697-9.293l.013-.01c-.138-.168-.277-.333-.411-.507-3.742-4.857-4.76-10.956-3.297-16.461-3.84 6.043-3.712 14.094.911 20.092q.187.238.38.468l-.012.009s5.901 7.848 17.273 8.585c0 0 3.482-.111 7.366 4.928l3.053-2.36.922-.711c-4.009-4.851-7.499-4.741-7.499-4.741z" opacity=".25"/><path fill="#EF7C59" d="m153.353 85.321-9.587 7.412a1.59 1.59 0 0 0-.286 2.222c.532.69 1.531.819 2.219.287l9.587-7.412a1.59 1.59 0 0 0 .286-2.222 1.585 1.585 0 0 0-2.219-.287"/><path fill="#6E6E6E" d="M147.649 91.733a1.87 1.87 0 0 1-.261-1.8l-3.622 2.8a1.59 1.59 0 0 0-.286 2.222c.532.69 1.531.819 2.219.287l3.622-2.8a1.86 1.86 0 0 1-1.672-.71" opacity=".3"/><path fill="#535353" d="m153.353 85.321-9.588 7.413c-.492.38-.697 1-.579 1.573l11.834-9.148a1.6 1.6 0 0 0-.497-.153 1.6 1.6 0 0 0-1.168.315z" opacity=".3"/><path fill="#EF7C59" d="M153.262 82.877a1.583 1.583 0 0 0-1.665.163l-9.589 7.413c-.492.38-.697 1-.579 1.572.046.231.143.454.295.65a1.586 1.586 0 0 0 2.219.287l9.588-7.413a1.59 1.59 0 0 0 .286-2.223 1.6 1.6 0 0 0-.552-.449z"/><path fill="#6E6E6E" d="M145.891 89.453a1.86 1.86 0 0 1-.26-1.8l-3.623 2.8a1.59 1.59 0 0 0-.286 2.222c.532.69 1.532.819 2.219.287l3.623-2.8a1.86 1.86 0 0 1-1.673-.709" opacity=".3"/><path fill="#535353" d="m151.597 83.042-9.589 7.412c-.492.38-.697 1-.579 1.573l11.834-9.148a1.585 1.585 0 0 0-1.665.163z" opacity=".3"/><path fill="#EF7C59" d="m149.836 80.759-9.586 7.41a1.59 1.59 0 0 0-.286 2.223c.531.691 1.531.82 2.219.287l9.586-7.411a1.59 1.59 0 0 0 .286-2.223 1.585 1.585 0 0 0-2.219-.286"/><path fill="#6E6E6E" d="M144.132 87.172a1.86 1.86 0 0 1-.26-1.8l-3.622 2.8a1.59 1.59 0 0 0-.286 2.222c.531.69 1.531.819 2.219.286l3.622-2.8a1.86 1.86 0 0 1-1.673-.708" opacity=".3"/><path fill="#fff" d="M133.268 50.3c-2.83-.72-5.514.232-5.996 2.129s1.422 4.018 4.253 4.74c2.83.72 5.514-.233 5.996-2.13s-1.423-4.018-4.253-4.74" opacity=".25"/><g fill="#EF7C59" opacity=".5"><path d="m108.786 55.265-7.187-2.337a.964.964 0 1 0-.595 1.835l7.187 2.337a.962.962 0 0 0 1.213-.62.966.966 0 0 0-.618-1.215M107.694 66.876l-7.285 1.802a.965.965 0 0 0 .462 1.872l7.285-1.801a.964.964 0 0 0-.46-1.873zM114.139 79.598l-5.111 4.217a.965.965 0 0 0 .613 1.71.96.96 0 0 0 .611-.22l5.111-4.218a.966.966 0 0 0 .131-1.358.963.963 0 0 0-1.357-.131zM127.21 34.502a.963.963 0 1 0-1.924.112l.438 7.556c.03.512.454.909.96.909q.028 0 .058-.002a.965.965 0 0 0 .906-1.02zM142.106 37.065a.964.964 0 0 0-1.307.386l-3.584 6.602a.967.967 0 0 0 .845 1.426.96.96 0 0 0 .847-.503l3.585-6.602a.967.967 0 0 0-.386-1.309M153.235 49.636l-5.368 3.885a.965.965 0 0 0 .564 1.746.95.95 0 0 0 .563-.183l5.369-3.884a.963.963 0 1 0-1.128-1.564M112.881 40.778a.96.96 0 0 0-1.35-.175.966.966 0 0 0-.175 1.352l4.423 5.74a.963.963 0 1 0 1.525-1.177z"/></g><path fill="#F5B0A6" d="M267.893 361.911c-.524-.408-17.506-9.106-17.506-9.106l.684-29.471c-6.675-.408-8.738-2.89-13.817-3.011-1.054 6.062-3.285 35.795-3.263 37.178v.111c.061 5.866.988 9.41 1.199 9.533 1.766 1.104 33.159.614 34.757.056 1.611-.54-.26-3.871-2.053-5.288z"/><path fill="#243354" d="M269.338 361.482c-1.85-1.461-18.776-9.696-18.776-9.696l-16.939.299c-.376 4.866-.768 9.477-.869 12.471-.066 1.983-.007 3.256.267 3.426 1.809 1.137 36.328.84 37.981.28.849-.286.871-1.682.444-3.172-.405-1.408-1.212-2.898-2.108-3.608"/><path fill="#fff" d="M264.31 366.397c-3.958.324-27.58-.426-29.578-.785-.723-.13-1.389-.579-1.98-1.056-.066 1.983-.007 3.256.267 3.426 1.809 1.137 36.328.84 37.981.28.849-.286.871-1.682.444-3.172-1.45.386-4.334 1.077-7.136 1.306z"/><path fill="#A7A7A7" d="M270.316 366.367c-7.937-.173-25.748-.026-33.606.407-.064.003-.064.047 0 .05 7.862.344 25.672-.065 33.606-.327.167-.006.167-.127 0-.13"/><path fill="#243354" d="M266.285 359.784c-1.881-.073-3.72.828-4.742 1.954-.983 1.081-1.823 2.601-1.763 4.249.002.047.089.048.097 0 .445-3.112 3.262-5.852 6.41-6.102.063-.005.063-.097 0-.1z"/><path fill="#fff" d="M254.735 354.868c-2.243-.154-4.89.499-6.385 2.263-.059.068.039.15.108.12 2.087-.938 4.059-1.614 6.299-2.104.158-.035.137-.268-.024-.279zM256.431 355.639c-2.243-.154-4.89.499-6.384 2.263-.058.068.04.149.108.119 2.086-.938 4.059-1.613 6.3-2.103.158-.035.137-.269-.024-.279M258.128 356.411c-2.243-.154-4.89.499-6.385 2.263-.058.068.041.149.109.119 2.086-.938 4.057-1.613 6.3-2.103.158-.035.137-.269-.024-.279M259.824 357.181c-2.243-.154-4.89.499-6.385 2.264-.057.067.039.149.109.119 2.086-.938 4.058-1.614 6.3-2.104.158-.034.137-.268-.024-.279"/><path fill="#F5B0A6" d="M170.087 306.021c-5.041 3.341-27.78 21.841-28.753 22.791l-.08.076c-4.147 4.009-6.052 7.067-5.996 7.301.405 2.011 21.974 24.168 23.452 24.937 1.474.788 2.588-2.803 2.388-5.046-.062-.651-5.33-18.696-5.33-18.696l21.507-19.43c-4.22-5.057-3.842-8.213-7.188-11.933"/><path fill="#243354" d="m156.614 336.822-11.662-11.933c-3.29 2.663-6.444 5.184-8.657 7.081-1.957 1.677-3.176 2.866-3.102 3.233.411 2.065 23.954 26.591 25.47 27.397.77.409 1.765-.49 2.535-1.774.749-1.249 1.28-2.864 1.184-4.001-.207-2.313-5.766-20.001-5.766-20.001z"/><path fill="#fff" d="M145.093 346.041c-7.06-7.293-9.772-11.5-8.798-14.071-1.957 1.676-3.176 2.866-3.102 3.233.411 2.065 23.954 26.591 25.47 27.397.77.409 1.765-.49 2.535-1.774-2.654-2.226-10.086-8.568-16.103-14.785z"/><path fill="#243354" d="M136.55 337.03c-.045-.044-.077-.013-.036.033 5.069 5.866 17.397 18.348 22.947 23.855.118.116.204.033.092-.089-5.24-5.804-17.385-18.461-23.005-23.799z"/><path fill="#fff" d="M156.931 351.415c-1.436.027-3.089.453-4.226 1.609-.033.033.026.097.065.068 2.523-1.784 6.383-1.618 8.689.467.047.043.113-.019.071-.068-1.221-1.396-3.106-2.105-4.601-2.076zM151.303 338.85c-.087.005-.079.13-.012.158 2.081.861 3.895 1.816 5.76 3.092.131.09.285-.083.184-.205-1.408-1.712-3.661-3.165-5.932-3.045M151.9 340.587c-.087.005-.08.13-.012.159 2.079.861 3.895 1.817 5.76 3.091.131.09.284-.083.184-.205-1.408-1.71-3.662-3.165-5.932-3.045M152.496 342.323c-.087.004-.08.129-.012.158 2.079.861 3.894 1.816 5.76 3.091.131.091.284-.083.183-.205-1.407-1.711-3.661-3.165-5.931-3.044M153.093 344.06c-.088.004-.08.129-.013.158 2.081.861 3.895 1.816 5.76 3.091.131.091.285-.083.184-.205-1.408-1.711-3.661-3.165-5.931-3.044"/><path fill="#2C4DA2" d="M245.774 210.498c-2.492-2.845-4.047-4.502-4.047-4.502l-58.109 7.165-8.524 1.052c-1.666 28.365 21.989 40.711 21.322 47.002s-45.644 53.98-45.644 53.98c.731 3.034 2.018 5.74 3.611 8.124 6.393 9.584 17.714 14.029 17.714 14.029s47.309-47.719 52.972-56.73c5.664-9.009 6.585-21.403 6.585-21.403l.003.004c.242.211 15.737 13.75 16.068 16.883.332 3.159-18.991 64.916-18.991 64.916a63.5 63.5 0 0 0 10.967 3.52c10.842 2.444 20.257 1.057 20.257 1.057s27.413-61.307 18.75-85.371c-6.633-18.426-24.79-40.429-32.936-49.729z"/><path fill="#21438E" d="m183.618 213.162-8.524 1.053c22.026 8.486 58.491-.336 70.679-3.715-2.492-2.846-4.047-4.503-4.047-4.503zM223.786 230.611c6.96 14.164 7.868 28.606 7.868 28.606l.003.003c.242.211 15.736 13.75 16.067 16.884.333 3.158-18.991 64.916-18.991 64.916a63.5 63.5 0 0 0 10.967 3.519c4.116-11.435 15.434-47.199 17.274-54.013 2.175-8.062 3.914-18.736 0-25.927-3.901-7.163-32.955-33.781-33.188-33.989z"/><path fill="#21438E" d="m183.618 213.162-8.524 1.053c-1.666 28.364 21.989 40.711 21.322 47.001-.667 6.291-45.644 53.98-45.644 53.98.731 3.034 2.018 5.741 3.611 8.125 8.773-12.983 47.943-50.515 49.271-58.668 1.503-9.221-10.646-16.664-16.468-26.419-4.245-7.116-4.006-19.103-3.566-25.072z"/><path fill="#F5B0A6" d="M307.265 141.939s1.826-2.47.589-3.96-3.683.7-3.683.7 1.691-2.674.35-4.072c-1.34-1.397-3.431 1.217-3.431 1.217s1.659-2.372.07-3.058c-1.91-.826-4.475 3.894-6.7 5.516-.255.186-2.986 1.892-5.634 3.542-.146-.199-.238-.309-.238-.309 1.962-1.657 5.465-5.499 3.891-7.401-1.22-1.471-8.323 3.784-9.545 5.643-.774 1.177-1.763 3.46-2.386 4.979-4.562 1.939-11.722 4.187-13.123 4.495-1.631.357-18.153 1.48-25.26-2.398-6.403-3.494-6.985 1.722-5.075 4.552 2.713 4.019 21.59 13.285 29.237 12.997 9.263-.35 20.58-4.058 25.289-7.255a1 1 0 0 0 .141-.12c2.664-1.216 10.548-5.139 12.283-6.615 1.896-1.612 7.014-6.648 5.929-8.229-1.086-1.578-2.702-.224-2.702-.224z"/><path fill="#6FC183" d="m275.677 141.572-2.401-4.819s-18.574 7.251-21.751 7.615a1 1 0 0 1-.365-.003c-1.553-.419-14.073-16.826-23.847-22.92a13 13 0 0 0-.996-.561c-2.594-1.325-5.986-2.079-9.379-2.219a27 27 0 0 0-3.854.108c-1.658-1.615-9.697-2.761-15.035-.441-1.164-.334-2.594-.358-4.167-.104-2.004.322-4.244 1.094-6.472 2.248-4.145 2.147-8.245 5.62-10.708 9.991-1.564 2.779-3.835 7.611-6.179 13.257v.003c-5.496 13.233-11.394 30.931-9.559 37.101.394 1.33 1.523 2.886 3.152 4.57s3.759 3.494 6.163 5.335c1.715 13.976 4.815 23.48 4.815 23.48 22.244 3.159 66.632-8.217 66.632-8.217l-3.837-9.909c-1.429-7.495-4.468-25.761-5.861-37.476v-.008c4.1 7.326 6.871 10.296 11.424 12.846 12.444 6.966 44.41-5.428 44.41-5.428l-2.578-5.177-9.605-19.273z"/><path fill="#fff" d="M213.084 118.773c-1.658-1.615-9.697-2.761-15.035-.441-1.164-.334-2.594-.358-4.167-.104-.188 1.271-.322 3.171.257 4.923.956 2.898 8.958 13.254 18.674 11.069 5.419-1.22 5.294-8.952 4.125-15.555a27 27 0 0 0-3.854.108"/><path fill="#F18A8B" d="M301.272 135.604c-1.894 3.465-3.323 4.653-6.718 6.541-.066.036-.027.143.047.112 3.493-1.546 5.498-2.776 6.844-6.57.066-.185-.083-.247-.172-.083zM304.316 138.401c-2.282 3.428-3.817 4.729-7.229 6.968-.048.032 0 .118.051.089 3.529-1.917 5.501-3.191 7.333-6.915.083-.169-.049-.299-.155-.142M307.088 142.047c-2.448 3.159-4.072 4.659-7.661 6.407-.085.041-.033.169.055.136 3.835-1.427 5.875-3.283 7.693-6.458.124-.218.067-.284-.087-.085M292.765 134.776c-.005-.016-.028-.015-.028.003.189 2.772-2.526 4.78-4.31 6.531-.135.133-.076.289.046.372 1.406 1.944 2.825 5.095 1.993 7.488-.024.07.072.115.105.047 1.241-2.444.099-5.654-1.578-7.686 1.857-1.765 4.491-3.9 3.77-6.756z"/><path fill="#F5B0A6" d="M213.599 119.019a6 6 0 0 1-.239-1.084c-.557-4.661.454-10.456.454-10.456l-17.211-2.172c.302 2.675.423 5.615.475 8.257.07 4.353-.043 7.931.175 8.245 3.214 4.567 10.633 9.811 14.454 8.435 3.693-1.333 2.514-8.999 1.937-11.047-.012-.069-.033-.13-.045-.179z"/><path fill="#F18A8B" d="M196.604 105.308c.21 1.849.332 3.827.401 5.736 2.311 5.974 8.441 11.143 16.554 7.829a6 6 0 0 1-.2-.941c-.557-4.655.453-10.452.453-10.452z"/><path fill="#F5B0A6" d="M211.099 75.831c-7.789-3.856-19.191 1.87-20.299 11.05-.75 6.213 5.379 22.69 10.239 25.742 7.045 4.424 17.073 3.181 20.447-4.957 3.269-7.887-5.098-29.217-10.387-31.835"/><path fill="#000" d="M215.109 68.619c-.19-.154-.456-.101-.605.102l-.381.518c-.26.354-.774.171-.805-.287-.03-.434-.506-.64-.774-.324-1.048 1.235-3.603 3.044-9.527 2.897-8.408-.21-14.441 2.222-15.735 8.477-.081.396-.501.528-.766.249-.522-.55-1.444-.964-2.944-.055-2.612 1.582-2.709 7.241 1.336 12.858.193.267.116.672-.17.797-1.002.44-2.604 1.671.431 4.517 3.104 2.91 5.212 3.163 6.034 3.121.221-.012.402-.193.433-.439l5.262-.938-1.397-4.525s.111-6.54 3.37-7.223 13.587-2.765 17.03-6.909c3.319-3.994 2.204-10.413-.792-12.836"/><path fill="#484848" d="M189.603 95.596c-2.06-.967-3.104-3.703-4.011-5.896-.584-1.416-.486-3.2.193-4.697.562-1.24.79-1.568 1.576-2.604.03-.039.003-.1-.039-.078-2.387 1.183-3.78 3.267-2.931 6.23.759 2.647 2.687 6.258 5.131 7.247.119.048.198-.148.081-.202M201.255 81.357c-1.059 0-1.163.546-1 1.092.199.668.774 1.107 1.4 1.1 11.658-.144 12.768-11.328 12.768-11.328-2.236 7.785-11.05 9.136-13.168 9.136"/><path fill="#F5B0A6" d="M189.766 97.249c-2.215 1.862 2.241 9.241 5.374 9.749s3.66-2.388 3.66-2.388l-1.903-4.499s-4.917-4.725-7.131-2.862"/><path fill="#000" d="M197.166 104.915c-.466-2.623-3.218-5.877-6.071-5.583-.048.005-.044.073 0 .082 2.21.424 3.664 2.109 4.808 3.929-.758-.637-1.669-.888-2.539.04-.045.048.022.122.076.098.803-.347 1.437-.322 2.135.238.496.396.888.944 1.284 1.435.133.165.443 0 .332-.196l-.026-.043zM206.595 94.685c-2.042.77-.353 4.809 1.539 4.094 1.864-.703.175-4.74-1.539-4.094M214.315 91.388c-1.631.833.215 4.802 1.989 3.894 1.802-.922-.044-4.89-1.989-3.894M206.131 90.356c-.829-.282-1.59.137-2.222.676-.685.585-1.064 1.21-1.225 2.096-.158.858.916 1.385 1.564.898.491-.37.882-.791 1.331-1.206.505-.469.956-.789 1.123-1.49.088-.375-.214-.855-.569-.975zM215.951 87.32c-.785-.44-1.507-.548-2.394-.393-.818.144-1.626.462-1.938 1.282-.134.353.041.891.387 1.061.645.319 1.179.175 1.861.085.605-.08 1.179-.113 1.776-.256.788-.189 1.068-1.353.308-1.78"/><path fill="#292929" d="M209.876 103.752s-.066.682.056 1.389c.145.861.554 1.767 1.661 1.61.539-.074.977-.33 1.342-.665.994-.906 1.364-2.415 1.364-2.415-2.395.835-4.421.081-4.421.081z"/><path fill="#F18A8B" d="M209.931 105.139c.144.861.554 1.767 1.66 1.611.539-.074.977-.331 1.343-.665-.525-1.003-1.888-1.285-3.003-.947z"/><path fill="#000" d="M211.291 91.873c-.093-.102-.269.024-.198.155 2.05 3.645 2.83 4.236 4.943 7.864-.627.086-1.65.288-2.146.43-1.298.369-1.277 1.155-.61 1.066s4.253-.697 3.965-1.155c-2.279-3.69-2.905-5.145-5.952-8.361z"/><path fill="#F18A8B" d="M204.071 100.579c-1.624.133-2.852 1.321-2.744 2.653.108 1.331 1.514 2.302 3.139 2.17s2.853-1.321 2.744-2.653c-.108-1.331-1.514-2.302-3.139-2.17M218.453 95.344c-.715.148-1.076 1.329-.805 2.637.271 1.31 1.069 2.249 1.784 2.101s1.076-1.328.805-2.637c-.271-1.31-1.069-2.249-1.784-2.1"/><path fill="#C3C3C3" d="M226.019 134.218a5 5 0 0 0-.149-.322z"/><path fill="#6FC183" d="m275.679 141.572-2.401-4.819s-18.576 7.253-21.751 7.615a1.1 1.1 0 0 1-.367-.003c-1.552-.419-14.073-16.828-23.847-22.921a13 13 0 0 0-.996-.561c-3.219 5.54-.298 13.335-.298 13.335 1.044 4.491 6.009 24.385 6.009 24.385 4.1 7.324 6.871 10.296 11.425 12.844 12.444 6.968 44.411-5.426 44.411-5.426l-2.58-5.178-9.605-19.274z"/><path fill="#848484" d="M251.525 144.368c2.323.009 15.192-.071 24.152-2.796l-2.401-4.819s-18.576 7.253-21.751 7.615"/><path fill="#5DAF6E" d="M251.525 167.23c-13.856-.303-23.802-29.349-25.501-32.998 2.015 4.692 6.003 24.373 6.003 24.373 4.099 7.324 6.87 10.296 11.424 12.844 12.444 6.968 44.411-5.427 44.411-5.427l-2.58-5.178s-23.195 6.617-33.757 6.386"/><path fill="#fff" d="M214.288 141.705a2.02 2.02 0 0 0-2.018 2.022 2.02 2.02 0 1 0 4.037 0 2.02 2.02 0 0 0-2.019-2.022M216.307 155.926a2.02 2.02 0 0 0 2.019-2.023 2.02 2.02 0 0 0-2.019-2.022 2.02 2.02 0 0 0-2.019 2.022c0 1.117.904 2.023 2.019 2.023M194.404 214.839c.013.035 1.347 3.501.903 7.631-.593 5.522-3.911 9.548-9.861 11.965l.146.359c7.597-3.086 9.686-8.391 10.102-12.296.448-4.222-.917-7.766-.93-7.801zM236.031 207.42l-.19-.013h-.003z"/><path fill="#fff" d="M250.036 215.307c-5.833 0-9.952-1.244-12.241-3.696-1.887-2.024-1.766-4.169-1.764-4.191l-.193-.013h.003l-.195-.014c-.006.094-.142 2.324 1.857 4.473 2.362 2.539 6.579 3.827 12.532 3.827h.016v-.388h-.016zM220.731 211.549l7.383 13.127-4.304 5.586-10.436-18.461-.336.19 10.722 18.969 4.816-6.25-7.508-13.351zM202.709 252.006c-4.362-4.608-13.637-18.448-13.73-18.587l-.321.216c.094.14 9.387 14.006 13.771 18.638 2.026 2.141 8.016 9.975-.015 20.863-6.304 8.545-46.112 51.867-46.513 52.305l.285.262c.402-.437 40.224-43.775 46.539-52.336 2.987-4.05 4.363-8.146 4.091-12.176-.292-4.316-2.394-7.375-4.106-9.183z"/><path fill="#F3CE90" d="M294.855 219.036c0 .484.392.876.875.876h32.56a.876.876 0 0 0 .875-.876v-16.439h-34.31zM294.855 238.378c0 .391.317.709.708.709h10.148c.39 0 .708-.317.708-.709v-4.463h11.185v4.463c0 .391.316.709.708.709h10.148c.39 0 .708-.317.708-.709v-7.801h-34.31v7.801z"/><path fill="#F19A6D" d="M323.628 219.912h-23.232v10.665h23.232z"/><path fill="#F3CE90" d="M340.061 186.38H166.743c-5.584 0-8.689-5.35-9.949-8.202q-.316-.857-.658-1.693l-.015-.05v.009c-5.297-12.83-15.896-21.592-28.118-21.592-17.516 0-31.715 17.989-31.715 40.178 0 22.19 14.199 40.179 31.715 40.179 12.58 0 23.448-9.278 28.575-22.727l.006.058s2.986-9.841 10.51-9.94h172.967c4.471 0 8.096-3.631 8.096-8.109 0-4.479-3.625-8.11-8.096-8.11zm-198.801 2.572s-.067.085-.173.237a17 17 0 0 1-.817 1.63c-.705 1.886-1.224 5.16.703 9.656l-.074-.015a17.35 17.35 0 0 1 1.639 7.381c0 8.967-6.667 16.238-14.893 16.238s-14.893-7.269-14.893-16.238c0-2.655.596-5.155 1.633-7.369l-.012.003c1.832-4.276 1.451-7.447.804-9.371a17 17 0 0 1-1.067-2.122l-.025-.03.01-.004a17.4 17.4 0 0 1-1.343-6.712c0-8.967 6.669-16.238 14.893-16.238s14.893 7.269 14.893 16.238c0 2.389-.484 4.649-1.333 6.691l.057.024z"/><path fill="#F19A6D" d="M329.165 202.597h-34.31v5.998h34.31z"/><path fill="#F19A6D" d="M158.043 209.246c3.374-6.052 7.705-6.61 8.794-6.648h173.752c4.168 0 7.546-3.383 7.546-7.559H160.949c-.382 7.645-1.983 12.175-2.907 14.207z"/><path fill="#F5B0A6" d="M158.043 209.246c-.227.408-.451.83-.668 1.288 0 0 .274-.42.668-1.288"/><path fill="#F3CE90" d="M273.474 182.217h12.488c.625 0 1.131.508 1.131 1.132v22.429c0 .626-.508 1.133-1.131 1.133h-12.488c-.624 0-1.13-.508-1.13-1.133v-22.429c0-.626.507-1.132 1.13-1.132"/><path fill="#F5B0A6" d="M229.193 188.31c-1.745-.762-5.79-1.05-8.146-1.006-2.049.038-4.617.155-6.721.267-4.49-3.34-11.867-8.479-11.802-9.014.093-.783-19.804-8.231-17.18-15.824 3.256-9.424-.804-7.696-3.955-4.885-7.549 6.736.768 20.471 3.476 25.525 4.399 8.213 17.442 17.473 21.882 20.012q.077.046.152.086.106.059.249.058c2.947 1.02 7.079 1.536 12.541-1.952 0 0 7.617 6.453 9.775 4.503.894-.808-.207-2.404-1.661-3.895 2.243 1.73 4.806 3.311 5.82 2.47.964-.798.363-2.168-.774-3.58 1.959 1.437 3.906 2.378 4.804 1.357 1.373-1.559-1.716-4.576-4.111-6.541 2.487 1.768 6.082 3.948 6.951 2.499 1.504-2.508-8.687-8.942-11.297-10.08z"/><path fill="#F18A8B" d="M228.594 192.054c-.026-.015-.054.018-.03.036.984.755 1.528 1.265 2.512 2.021.988.756 4.479 3.52 6.314 5.757.078.095-2.038-3.9-8.796-7.814M225.398 195.278c-.021-.011-.044.015-.024.03 1.27.933 6.168 4.756 7.396 5.752.095.077.154.07.077-.025-.941-1.183-4.13-4.111-7.449-5.756zM222.459 197.867c-.044-.026-.081.043-.045.072 2.296 1.757 3.732 3.004 5.576 4.576.095.08.185.068.105-.022-1.669-1.884-2.779-2.932-5.636-4.626"/><path fill="#5DAF6E" d="m198.6 134.766-7.314 32.627 21.528 9.879-4.519 9.652 8.986-12.206-21.158-9.224z"/><path fill="#6FC183" d="M198.433 135.509c-.348-8.323-5.545-12.716-11.022-15.033-4.144 2.147-8.247 5.619-10.708 9.991-1.564 2.779-3.834 7.611-6.178 13.257v.003c-5.495 13.234-11.397 30.932-9.56 37.101 2.606 8.759 36.963 27.337 37.299 27.518h.003l5.289-11.297 9.258-19.778-21.528-9.88z"/><path fill="#5DAF6E" d="M167.479 176.037c0-10.25 2.996-32.012 3.044-32.31-5.495 13.234-11.397 30.932-9.56 37.101 2.62 8.801 37.302 27.52 37.302 27.52l3.78-8.076s-34.566-12.903-34.566-24.235"/></svg>