<svg xmlns="http://www.w3.org/2000/svg" fill="none" viewBox="0 9.14 134.87 123.77">
    <g clip-path="url(#a)">
        <path fill="#fef2f2" d="M5.49 45.656c11.757-11.749 21.71-1.892 25.902-17.67 6.426-24.187 34.159-24.187 46.49-5.191 17.57 27.068 57.285 11.922 56.983 44.644-.322 34.932-26.011 62.141-72.085 64.86-41.305 2.436-76.765-67.173-57.29-86.643" opacity=".7"/>
        <path fill="#d18080" d="M44.921 123.117s-4.097 2.787-5.746 2.603c-.206-.022-.365-.085-.486-.206-1.079-1.112-1.94-3.06-1.94-3.06s.511-.71 2.094 1.175l1.005-.924-2.076-2.088s1.167-.927 3.151.254c-.066-.143-1.347-2.926-.383-6.718l-4.837-4.661 4.282-3.729.331-.287s.269.265.707.677c.423.401 1.001.935 1.634 1.487 1.51 1.326 3.336 2.765 4.127 2.75 1.465-.029-1.863 12.723-1.863 12.723z"/>
        <mask id="b" width="13" height="21" x="35" y="105" maskUnits="userSpaceOnUse" style="mask-type:luminance">
            <path fill="#fff" d="M44.906 123.115s-4.098 2.787-5.747 2.603c-.206-.022-.364-.085-.486-.206-1.079-1.112-1.94-3.06-1.94-3.06s.512-.71 2.095 1.175l1.005-.924-2.076-2.088s1.166-.927 3.15.254c-.065-.143-1.347-2.926-.382-6.718l-4.837-4.661 4.281-3.729.331-.287s.27.265.707.677c.424.401 1.002.935 1.635 1.487 1.51 1.326 3.335 2.765 4.127 2.75 1.465-.029-1.863 12.723-1.863 12.723z"/>
        </mask>
        <g mask="url(#b)">
            <path fill="#ffc253" d="M41.74 121.289s-2.334 2.408-2.58 4.429c-.207-.022-.365-.085-.487-.206-1.079-1.112-1.94-3.059-1.94-3.059s.512-.711 2.095 1.174l1.005-.924-2.076-2.087s1.166-.928 3.15.254c-.065-.144-1.347-2.927-.382-6.719l-4.837-4.661 4.281-3.729 1.035.39c.423.401 1 .935 1.634 1.488-.906 1.329-2.846 4.075-2.846 4.075l1.675 2.275s-1.016 5.736.27 7.297z" opacity=".4"/>
        </g>
        <path stroke="#263238" stroke-linecap="round" stroke-linejoin="round" stroke-width=".368" d="M44.921 123.117s-4.097 2.787-5.746 2.603c-.206-.022-.365-.085-.486-.206-1.079-1.112-1.94-3.06-1.94-3.06s.511-.71 2.094 1.175l1.005-.924-2.076-2.088s1.167-.927 3.151.254c-.066-.143-1.347-2.926-.383-6.718l-4.837-4.661 4.282-3.729.331-.287s.269.265.707.677c.423.401 1.001.935 1.634 1.487 1.51 1.326 3.336 2.765 4.127 2.75 1.465-.029-1.863 12.723-1.863 12.723z"/>
        <path stroke="#263238" stroke-linecap="round" stroke-linejoin="round" stroke-width=".368" d="M39.844 122.709s.357-1.12 1.078-1.83"/>
        <path fill="#ffc253" d="M116.311 90.655c-.582.883-1.373 1.716-2.319 2.5h-.004c-7.536 6.24-24.909 9.321-24.909 9.321s-.581.873-1.476 2.113c-1.605 2.231-4.237 5.655-6.384 7.37-.905.729-1.726 1.149-2.345 1.035l3.258 12.038 1.458 5.228s-14.98 6.534-40.606-.939c0 0-.29-3.343-.074-4.057l.034-.103c.239-.574 1.005-1.263 1.005-1.263s-.144-2.15-.218-4.34c-.059-1.701-.073-3.424.052-4.19.18-1.104.99-3.773 1.395-5.084.144-.464.24-.758.24-.758l-1.274-11.943-.368-3.438s-.008-.063-.019-.18q.002-.037-.007-.085l-.203-1.844-6.59 2.013s.35.77.822 1.856c.865 1.98 2.138 4.999 2.422 6.192.022.099.051.191.084.287.612 1.741 2.935 3.321 2.935 3.321l-6.24 7.293-1.845-1.289s-.268.21-.743.468c-1.215.659-3.76 1.627-6.539.147-1.016-.541-2.061-1.406-3.085-2.728-4.918-6.369-7.031-11.556-6.34-17.66.693-6.107 28.109-24.886 33.546-24.691l8.092 1.789c.173-.144.648-.52 1.012-.5 1.473.073 1.51 1.785 1.51 1.785l18.13 2.945s1.878-.943 2.206-.924c.802.04 1.145.729 1.145.729s4.697-2.813 6.21-2.158c4.967 2.143 29.702 14.163 26.032 19.74z"/>
        <path fill="#000" d="M53.308 120.458s-2.816 3.457-7.849 4.256c-.953.15-1.793.305-2.525.456.239-.574 1.005-1.263 1.005-1.263s-.144-2.15-.218-4.34c2.128 1.391 5.836 3.011 9.587.891M45.175 110.297c.143-.464.24-.758.24-.758L44.14 97.596c1.907 2.732 8.703 12.046 13.39 13.051 4.896 1.049-8.199 2.901-12.352-.35zM82.125 125.045c-5.117-.581-12.355-1.87-13.08-4.55-1.126-4.182 4.359-6.693 12.164-8.526-.906.729-1.727 1.148-2.346 1.034l3.259 12.039zM113.981 93.16c-7.536 6.24-24.909 9.321-24.909 9.321s-.581.873-1.476 2.113c-1.469-3.431-3.586-10.529-1.108-19.254 0 0 1.34 7.25 6.895 8.972 0 0-4.252-3.166-2.768-10.794 0 0 1.45 8.975 10.893 11.453 4.595 1.204 9.079-.129 12.477-1.815zM43.745 93.977l-.21-1.93-6.59 2.014s.35.77.82 1.856c-2.52-.261-7.3 2.08-8.135-.468-1.005-3.077 5.183-2.017 5.183-2.017l5.84-3.398c-1.105-4.723 1.704-8.272 1.704-8.272l.533 3.295c.258-6.262 2.706-9.69 2.706-9.69-2.035 4.952-1.98 17.14-1.851 18.61M43.214 105.714l-6.24 7.293-1.844-1.289s-.27.21-.744.468c-1.215.659-3.759 1.627-6.538.147 2.02-2.798 6.2-6.918 11.17-8.508 0 0-2.048 2.993-3.318 5.666l1.281 1.263s3.2-3.649 6.233-5.044zM58.37 73.59c0 .64-.406 7.94 4.903 9.87C68.58 85.387 73.3 82.115 73.3 82.115s-8.143 7.852-13.095 3.655C55.255 81.574 58.37 73.59 58.37 73.59" opacity=".2"/>
        <path stroke="#263238" stroke-linecap="round" stroke-linejoin="round" stroke-width=".368" d="M42.984 129.328s-.287-3.343-.074-4.057c.18-.596 1.038-1.366 1.038-1.366s-.449-6.777-.162-8.526c.247-1.498 1.635-5.846 1.635-5.846l-1.87-17.487-6.59 2.014s2.805 6.199 3.24 8.047c.434 1.849 3.018 3.612 3.018 3.612l-6.243 7.293-1.845-1.285s-5.445 4.259-10.367-2.113c-4.918-6.373-7.031-11.556-6.34-17.664.693-6.107 28.109-24.886 33.55-24.691l8.092 1.79c.176-.144.648-.52 1.012-.502 1.473.074 1.51 1.786 1.51 1.786l18.13 2.941s1.882-.938 2.21-.924c.802.04 1.144.726 1.144.726s4.698-2.813 6.21-2.158c4.967 2.143 29.699 14.163 26.029 19.74-5.21 7.919-27.232 11.825-27.232 11.825s-7.326 11.048-10.209 10.521l4.72 17.27"/>
        <path fill="#ffc253" d="M97.15 91.862c8.32 5.496 15.027 4.48 20.277-2.592 0 0 4.37-5.633 4.061-11.714s-1.76-25.907-20.705-20.837c-3.118.835-10.392 10.58-11.007 13.257-.28 1.222-3.203 7.454-6.038 13.9"/>
        <path stroke="#263238" stroke-linecap="round" stroke-linejoin="round" stroke-width=".368" d="M97.15 91.862c8.32 5.496 15.027 4.48 20.277-2.592 0 0 4.37-5.633 4.061-11.714s-1.76-25.907-20.705-20.837c-3.118.835-10.392 10.58-11.007 13.257-.28 1.222-3.203 7.454-6.038 13.9"/>
        <path fill="#263238" d="M74.633 33.633s5.297-.803 8.983 2.492c4.657 4.168 9.884 15.403 2.437 34.024 0 0-10.997-7.304-29.768-2.419 0 0 1.616-4.37-1.223-18.116-1.28-6.218 1.944-20.55 19.57-15.981"/>
        <path fill="#d18080" stroke="#263238" stroke-linecap="round" stroke-linejoin="round" stroke-width=".368" d="M66.6 80.36c7.845 1.27 16.184-7.414 16.184-7.414s-4.267-.526-4.646-2.53c-1.222-6.316 3.7-14.121 3.7-14.121s-19.048.526-15.72 4.837c.7.906 1.178 1.771 1.506 2.585 1.156 2.838.353 4.977-.262 5.5a.8.8 0 0 1-.14.092c-1.152.526-5.886-.258-5.886-.258S59.444 79.197 66.6 80.357z"/>
        <path stroke="#263238" stroke-linecap="round" stroke-linejoin="round" stroke-width=".368" d="M80.083 75.35s-3.619 1.447-8.916 1.016l-2.386 1.17M66.403 77.346l-.176-1.569s-3.906-1.222-5.118-3.549"/>
        <path fill="#263238" d="M67.367 69.22c5.835 1.525 8.574-5.956 8.574-5.956s-4.668-1.392-8.312.456c1.155 2.839.353 4.978-.262 5.5"/>
        <path fill="#d18080" d="M82.17 52.36c1.422-7.966-.158-17.526-12.28-16.735-8.663.567-8.593 10.065-8.019 12.9.965 4.767-.416 6.645 1.068 10.65 1.068 2.88 3.549 6.097 6.468 7.304 1.797.744 9.068-4.359 9.605-6.693"/>
        <path stroke="#263238" stroke-linecap="round" stroke-linejoin="round" stroke-width=".368" d="M82.17 52.36c1.422-7.966-.158-17.526-12.28-16.735-8.663.567-8.593 10.065-8.019 12.9.965 4.767-.416 6.645 1.068 10.65 1.068 2.88 3.549 6.097 6.468 7.304 1.797.744 9.068-4.359 9.605-6.693"/>
        <path stroke="#263238" stroke-linecap="round" stroke-linejoin="round" stroke-width=".368" d="M66.929 50.012c-.074.895-.177 3.111-2.073 4.746-1.226 1.056 1.587 2.139 1.587 2.139M64.914 46.853s-2.677-1.303-4.484.847M69.406 46.684s2.585-.927 5.721.225"/>
        <path fill="#263238" d="M72.184 50.447c.084.77.6 1.343 1.156 1.28.555-.058.938-.732.854-1.501-.085-.77-.6-1.344-1.156-1.281-.556.059-.94.732-.854 1.502"/>
        <path stroke="#263238" stroke-linecap="round" stroke-linejoin="round" stroke-width=".368" d="M66.582 59.415c3.365-.409 5.982-2.187 5.982-2.187s.25 3.343-2.547 4.039c-2.146.533-2.978-1.919-2.978-1.919"/>
        <path fill="#263238" d="M74.45 38.662s-.767 9.44 7.564 12.87l3.903-9.074-5.905-6.542-8.898-2.57c-13.294.829-19.019 9.09-11.637 31.101 0 0-2.066-26.212 14.972-25.781z"/>
        <path fill="#d18080" d="M80.195 51.933c-.114-1.06 2.57-3.762 3.475-2.028 1.546 2.956.42 5.533-1.181 6.542-.718.453-1.628 1.3-2.265.5"/>
        <path stroke="#263238" stroke-linecap="round" stroke-linejoin="round" stroke-width=".368" d="M80.195 51.933c-.114-1.06 2.57-3.762 3.475-2.028 1.546 2.956.42 5.533-1.181 6.542-.718.453-1.628 1.3-2.265.5"/>
        <path fill="#263238" d="M64.074 50.796c.085.77.6 1.343 1.156 1.28.556-.058.939-.732.854-1.501-.084-.77-.6-1.344-1.156-1.281-.556.059-.938.732-.854 1.502"/>
        <g stroke="#fff" stroke-linecap="round" stroke-linejoin="round" stroke-width=".368" opacity=".2">
            <path d="M58.296 49.246q-.151.96-.206 1.933M73.057 36.947c-6.733-.177-12.992 4.115-14.483 10.856M71.864 35.021s-9.711-2.282-13.352 4.157M79.738 46.246c.593.825 1.285 1.587 2.095 2.209M75.89 36.28c.52 3.038 1.521 6.119 3.082 8.777M85.647 65.497a33 33 0 0 1-.604 2.297M85.082 52.663c1.576 3.497 1.469 7.849.821 11.53M83.923 58.755s.482 3.903-2.74 7.198M79.45 37.407c1.652 2.234 2.878 4.631 4.792 6.67 2.018 2.15 4.032 4.61 4.41 7.636M77.125 35.085c.475.309.906.677 1.296 1.085"/>
        </g>
        <path fill="#263238" stroke="#263238" stroke-linecap="round" stroke-linejoin="round" stroke-width=".368" d="M110.356 86.922a6 6 0 0 1-.585.103c-5.213.744-11.06-3.575-13.032-8.77-1.558-4.097-.196-8.746.548-10.738.236-.622.405-.987.405-.987 3.144-4.491 21.422 4.293 21.632 9.134.214 4.837-3.615 10.08-8.971 11.254z"/>
        <path fill="#b06666" d="M116.066 76.323s-1.038 7.69-6.303 10.702c-5.213.743-11.059-3.575-13.032-8.77-1.557-4.097-.195-8.747.548-10.738 0-.004.004 0 .004 0 6.159-3.516 18.783 8.806 18.783 8.806"/>
        <mask id="c" width="21" height="22" x="96" y="66" maskUnits="userSpaceOnUse" style="mask-type:luminance">
            <path fill="#fff" d="M116.058 76.324s-1.038 7.69-6.303 10.702c-5.213.743-11.059-3.575-13.032-8.77-1.557-4.097-.195-8.747.549-10.738 0-.004.003 0 .003 0 6.159-3.516 18.783 8.806 18.783 8.806"/>
        </mask>
        <g mask="url(#c)">
            <path fill="#d18080" d="M116.058 76.324s-1.038 7.69-6.303 10.702c-5.213.743-11.059-3.575-13.032-8.77-1.557-4.097-.195-8.747.549-10.738 0-.004.003 0 .003 0 6.159-3.516 18.783 8.806 18.783 8.806" opacity=".4"/>
        </g>
        <path stroke="#263238" stroke-linecap="round" stroke-linejoin="round" stroke-width=".368" d="M116.066 76.323s-1.038 7.69-6.303 10.702c-5.213.743-11.059-3.575-13.032-8.77-1.557-4.097-.195-8.747.548-10.738 0-.004.004 0 .004 0 6.159-3.516 18.783 8.806 18.783 8.806"/>
        <path stroke="#263238" stroke-linecap="round" stroke-linejoin="round" stroke-width=".368" d="M94.52 80.372s5.934 8.519 12.866 9.23c6.929.71 11.361-5.129 11.652-9.532"/>
        <path fill="#d18080" stroke="#263238" stroke-linecap="round" stroke-linejoin="round" stroke-width=".368" d="M91.175 41.92c.523-1.462 4.267-.973 5.453 3.581s5.871 15.61 5.871 15.61 18.603-27.375 21.938-28.428c3.335-1.057 2.014 3.688-2.441 10.27 0 0 4.175-.736 5.268 0 1.098.737.564 5.158 1.145 6.708.98 2.596-1.196 3.144-1.196 3.144s1.712-.014 2.905 1.105c1.196 1.119.596 5.75.935 7.06.342 1.311-1.94 2.416-1.94 2.416s5.485 2.993 4.244 3.74c-2.087 1.263-3.28-.03-3.28-.03s-8.427 10.585-14.781 12.94c-6.354 2.357-18.731-7.008-20.06-12.111-1.329-5.102.258-4.786-.751-13.279-1.009-8.49-3.317-12.73-3.317-12.73z"/>
        <path fill="#fff" stroke="#263238" stroke-linecap="round" stroke-linejoin="round" stroke-width=".368" d="m118.318 25.104-24.51 6.389a1.627 1.627 0 0 0-1.163 1.985l11.586 44.448a1.627 1.627 0 0 0 1.985 1.164l24.509-6.39a1.627 1.627 0 0 0 1.164-1.984l-11.586-44.448a1.627 1.627 0 0 0-1.985-1.164"/>
        <path fill="#ffc253" stroke="#263238" stroke-linecap="round" stroke-linejoin="round" stroke-width=".368" d="M104.274 30.21a.4.4 0 0 1-.283.485.4.4 0 0 1-.486-.283.4.4 0 0 1 .283-.486.4.4 0 0 1 .486.283M109.33 28.89a.253.253 0 0 1-.181.306.251.251 0 0 1-.125-.486.253.253 0 0 1 .306.18M107.932 29.105l-2.939.766a.117.117 0 0 0-.084.144l.012.046c.016.063.08.1.143.084l2.939-.766a.12.12 0 0 0 .085-.143l-.012-.047a.12.12 0 0 0-.144-.084"/>
        <path fill="#fee3e2" stroke="#263238" stroke-linecap="round" stroke-linejoin="round" stroke-width=".368" d="m119.561 26.724 11.49 44.081a.963.963 0 0 1-.689 1.174l-24.194 6.307a.96.96 0 0 1-1.175-.689l-11.49-44.081a.96.96 0 0 1 .689-1.175l4.966-1.296a.805.805 0 0 1 .865.317l.357.512a.81.81 0 0 0 .866.316l10.904-2.842a.8.8 0 0 0 .6-.7l.063-.621a.8.8 0 0 1 .6-.7l4.966-1.296a.96.96 0 0 1 1.174.689z"/>
        <path fill="#263238" d="m123.751 69.59-13.791 3.594a3.092 3.092 0 1 1-1.561-5.986l13.791-3.593a3.092 3.092 0 1 1 1.561 5.986"/>
        <path stroke="#263238" stroke-linecap="round" stroke-linejoin="round" stroke-width=".368" d="M89.079 102.479s-4.186-9.737-2.05-21.547M78.869 113.001s-8.46 2.588-9.318 4.532c-.858 1.947 3.795.309 3.795.309M84.077 73.072s-7.79 7.72-13.003 9.782M58.547 70.996s-1.417 10.422 3.877 12.392M43.55 92.042s-.043-13.665 2.674-17.892M42.537 78.123s-.762 8.486.946 11.254M36.961 94.06s-5.923-2.04-7.153.489 3.534.287 3.534.287M40.525 102.921s-5.817 3.277-6.119 5.154M50.031 93.854s11.137 16.831 17.285 15.285M57.636 117.463s-8.733 6.402-10.003 5.861"/>
        <path fill="#000" d="M118.801 90.147c.589-.482.979-.803 1.104-.906-.132.114-.512.446-1.104.906" opacity=".2"/>
    </g>
    <g clip-path="url(#d)">
        <path fill="url(#e)" d="M24.466 59.762c5.35-1.32 8.616-6.726 7.296-12.076s-6.726-8.616-12.076-7.296-8.616 6.727-7.296 12.076 6.727 8.616 12.076 7.296"/>
        <path fill="url(#f)" d="M24.41 59.531c5.221-1.288 8.41-6.566 7.121-11.788-1.288-5.221-6.566-8.41-11.787-7.121s-8.41 6.566-7.122 11.787 6.566 8.41 11.788 7.122"/>
        <path fill="url(#g)" d="M24.122 58.373a8.5 8.5 0 0 1-6.466-.982 8.5 8.5 0 0 1-3.878-5.267 8.5 8.5 0 0 1 .982-6.467 8.5 8.5 0 0 1 5.267-3.877 8.5 8.5 0 0 1 6.467.982 8.5 8.5 0 0 1 3.878 5.267 8.5 8.5 0 0 1-.983 6.467 8.5 8.5 0 0 1-5.267 3.877"/>
        <path fill="url(#h)" d="M26.826 42.973a8.48 8.48 0 0 0-6.125-.786 8.5 8.5 0 0 0-5.267 3.877 8.5 8.5 0 0 0-.983 6.467 8.49 8.49 0 0 0 3.546 5.056 8.49 8.49 0 0 1-4.22-5.463 8.5 8.5 0 0 1 .983-6.467 8.5 8.5 0 0 1 5.267-3.877 8.5 8.5 0 0 1 6.799 1.193"/>
        <path fill="url(#i)" d="M31.76 47.686c1.32 5.35-1.947 10.757-7.296 12.077-5.052 1.246-10.154-1.597-11.819-6.422q.13.02.266.037c1.666 4.64 6.605 7.36 11.496 6.153 5.221-1.288 8.41-6.566 7.121-11.788-1.036-4.2-4.655-7.086-8.75-7.382l-.107-.246c4.246.253 8.016 3.225 9.089 7.571" opacity=".4"/>
        <path fill="url(#j)" d="M26.828 42.971a8.5 8.5 0 0 0-3.47-1.016q-.053-.18-.108-.349a8.5 8.5 0 0 1 3.498 1.313z" style="mix-blend-mode:saturation"/>
        <path fill="url(#k)" d="M31.36 47.57c1.288 5.221-1.9 10.499-7.122 11.787-4.89 1.207-9.83-1.513-11.495-6.153q.576.077 1.313.082a8.48 8.48 0 0 0 3.769 4.125l.002.002a8.48 8.48 0 0 0 6.125.786 8.5 8.5 0 0 0 5.267-3.877 8.5 8.5 0 0 0 .983-6.467 8.49 8.49 0 0 0-3.878-5.267 8.5 8.5 0 0 0-3.248-1.156 16 16 0 0 0-.466-1.245c4.094.297 7.713 3.182 8.75 7.383" opacity=".3"/>
        <path fill="url(#l)" d="M30.376 48.03a8.5 8.5 0 0 1-.982 6.466 8.5 8.5 0 0 1-5.268 3.877 8.48 8.48 0 0 1-6.125-.786L18 57.585a8.47 8.47 0 0 1-3.261-4.133c1.194-.045 2.66-.267 4.398-.82 1.405-.535 4.24-2.057 4.69-5.736.268-1.794-.057-3.575-.467-4.941a8.5 8.5 0 0 1 3.47 1.017l.002.001a8.49 8.49 0 0 1 3.545 5.056" opacity=".6"/>
        <g clip-path="url(#m)">
            <path fill="#fff" d="m21.815 48.207-.752-.726c-.524.51-.82 1.156-.866 1.804-.022.325.02.652.13.96s.292.597.543.838l1.203 1.163.834.806.892.862c.25.242.55.418.868.525.478.16.998.17 1.495.047a3.03 3.03 0 0 0 1.37-.764c.529-.511.826-1.16.872-1.81a2.4 2.4 0 0 0-.13-.96 2.2 2.2 0 0 0-.543-.838l-2.929-2.831a2.3 2.3 0 0 0-.867-.525 2.7 2.7 0 0 0-1.496-.047q-.251.064-.492.171l.834.806q.116-.024.231-.03a1.5 1.5 0 0 1 .574.07q.262.088.465.28l2.93 2.832q.199.195.29.45c.092.253.103.551.023.852s-.25.6-.513.854c-.35.338-.785.517-1.192.543a1.5 1.5 0 0 1-.573-.07 1.2 1.2 0 0 1-.466-.28l-.76-.736-.752-.726-1.417-1.37q-.2-.195-.29-.45a1.43 1.43 0 0 1-.023-.852c.079-.298.247-.596.507-.848"/>
            <g filter="url(#n)">
                <path fill="#fff" d="m23.04 51.727.752.726c.525-.51.82-1.156.866-1.804a2.4 2.4 0 0 0-.13-.96 2.2 2.2 0 0 0-.542-.839l-1.203-1.163-.834-.805-.892-.863a2.3 2.3 0 0 0-.868-.524 2.68 2.68 0 0 0-1.496-.047 3.03 3.03 0 0 0-1.37.764c-.528.51-.826 1.159-.872 1.81-.023.325.02.651.13.96.11.307.292.596.543.838l2.93 2.83c.25.242.548.418.867.525.479.16.998.17 1.495.047q.252-.063.493-.17l-.834-.806a2 2 0 0 1-.232.03 1.5 1.5 0 0 1-.573-.07 1.2 1.2 0 0 1-.465-.28l-2.93-2.832a1.2 1.2 0 0 1-.29-.45 1.43 1.43 0 0 1-.024-.852c.08-.3.25-.6.513-.854.35-.339.786-.518 1.192-.544q.308-.019.574.07.263.089.466.281l.76.735.751.726 1.418 1.37q.2.195.29.45c.092.254.103.551.023.852a1.86 1.86 0 0 1-.507.849"/>
            </g>
        </g>
        <path fill="url(#o)" d="m17.824 57.412-.084-.046a8.481 8.481 0 0 1-3.686-4.079q.246 0 .509-.009a8.47 8.47 0 0 0 3.26 4.134" style="mix-blend-mode:saturation"/>
    </g>
    <g clip-path="url(#p)">
        <path fill="url(#q)" d="M113.466 59.762c5.35-1.32 8.616-6.726 7.296-12.076s-6.726-8.616-12.076-7.296c-5.349 1.32-8.616 6.727-7.296 12.076s6.727 8.616 12.076 7.296"/>
        <path fill="url(#r)" d="M113.41 59.531c5.221-1.288 8.41-6.566 7.121-11.788-1.288-5.221-6.566-8.41-11.787-7.121s-8.41 6.566-7.122 11.787 6.566 8.41 11.788 7.122"/>
        <path fill="url(#s)" d="M113.122 58.373a8.5 8.5 0 0 1-6.467-.982 8.5 8.5 0 0 1-3.877-5.267 8.5 8.5 0 0 1 .982-6.467 8.5 8.5 0 0 1 5.267-3.877 8.5 8.5 0 0 1 6.467.982 8.5 8.5 0 0 1 3.878 5.267 8.5 8.5 0 0 1-.983 6.467 8.49 8.49 0 0 1-5.267 3.877"/>
        <path fill="url(#t)" d="M115.826 42.973a8.48 8.48 0 0 0-6.125-.786 8.49 8.49 0 0 0-5.267 3.877 8.49 8.49 0 0 0-.983 6.467 8.49 8.49 0 0 0 3.546 5.056 8.492 8.492 0 0 1-4.219-5.463 8.5 8.5 0 0 1 .982-6.467 8.5 8.5 0 0 1 5.267-3.877 8.5 8.5 0 0 1 6.799 1.193"/>
        <path fill="url(#u)" d="M120.76 47.686c1.32 5.35-1.947 10.757-7.296 12.077-5.052 1.246-10.154-1.597-11.819-6.422q.129.02.266.037c1.666 4.64 6.605 7.36 11.496 6.153 5.221-1.288 8.41-6.566 7.121-11.788-1.036-4.2-4.655-7.086-8.749-7.382a8 8 0 0 0-.108-.246c4.246.253 8.016 3.225 9.089 7.571" opacity=".4"/>
        <path fill="url(#v)" d="M115.828 42.971a8.5 8.5 0 0 0-3.469-1.016q-.054-.18-.109-.349a8.5 8.5 0 0 1 3.578 1.365" style="mix-blend-mode:saturation"/>
        <path fill="url(#w)" d="M120.359 47.57c1.289 5.221-1.9 10.499-7.121 11.787-4.89 1.207-9.829-1.513-11.495-6.153q.576.077 1.313.082a8.48 8.48 0 0 0 3.769 4.125l.002.002a8.48 8.48 0 0 0 6.125.786 8.5 8.5 0 0 0 5.267-3.877 8.49 8.49 0 0 0 .983-6.467 8.49 8.49 0 0 0-3.546-5.056l-.002-.001-.08-.053a8.528 8.528 0 0 0-3.498-1.313 16 16 0 0 0-.466-1.245c4.094.297 7.713 3.182 8.749 7.383" opacity=".3"/>
        <path fill="url(#x)" d="M119.376 48.03a8.5 8.5 0 0 1-.982 6.466 8.5 8.5 0 0 1-5.268 3.877 8.48 8.48 0 0 1-6.125-.786l-.002-.002a8.47 8.47 0 0 1-3.261-4.133c1.193-.045 2.66-.267 4.398-.82 1.405-.535 4.24-2.057 4.69-5.736.268-1.794-.057-3.575-.467-4.941a8.5 8.5 0 0 1 3.469 1.017l.002.001a8.48 8.48 0 0 1 3.546 5.056" opacity=".6"/>
        <g clip-path="url(#y)">
            <path fill="#fff" d="m110.815 48.207-.752-.726a2.8 2.8 0 0 0-.866 1.804 2.4 2.4 0 0 0 .13.96c.111.308.292.597.543.838l1.203 1.163.834.806.892.862c.25.242.549.418.868.525.478.16.998.17 1.495.047a3 3 0 0 0 1.37-.764c.529-.511.827-1.16.872-1.81a2.4 2.4 0 0 0-.13-.96 2.2 2.2 0 0 0-.543-.838l-2.929-2.831a2.3 2.3 0 0 0-.867-.525 2.7 2.7 0 0 0-1.496-.047q-.251.064-.492.171l.834.806q.116-.024.231-.03c.203-.014.398.011.574.07q.263.088.465.28l2.929 2.832q.2.195.291.45c.092.253.103.551.023.852s-.25.6-.513.854c-.35.338-.785.517-1.192.543a1.5 1.5 0 0 1-.573-.07 1.2 1.2 0 0 1-.466-.28l-.761-.736-.751-.726-1.417-1.37a1.2 1.2 0 0 1-.29-.45 1.44 1.44 0 0 1-.024-.852c.08-.298.248-.596.508-.848"/>
            <g filter="url(#z)">
                <path fill="#fff" d="m112.041 51.727.751.726c.525-.51.821-1.156.866-1.804a2.4 2.4 0 0 0-.129-.96 2.2 2.2 0 0 0-.543-.839l-1.203-1.163-.834-.805-.892-.863a2.3 2.3 0 0 0-.868-.524 2.7 2.7 0 0 0-1.496-.047 3.03 3.03 0 0 0-1.37.764c-.528.51-.826 1.159-.872 1.81-.022.325.019.651.13.96.111.307.292.596.543.838l2.929 2.83c.25.242.549.418.868.525.479.16.998.17 1.495.047q.252-.063.493-.17l-.834-.806a2 2 0 0 1-.232.03 1.5 1.5 0 0 1-.573-.07 1.2 1.2 0 0 1-.466-.28l-2.929-2.832q-.2-.195-.291-.45a1.44 1.44 0 0 1-.023-.852c.08-.3.25-.6.513-.854.35-.339.786-.518 1.192-.544.204-.014.398.012.573.07q.264.089.467.281l.76.735.751.726 1.418 1.37q.2.195.29.45c.092.254.103.551.023.852a1.85 1.85 0 0 1-.507.849"/>
            </g>
        </g>
        <path fill="url(#A)" d="m106.824 57.412-.084-.046a8.481 8.481 0 0 1-3.685-4.079q.244 0 .508-.009a8.47 8.47 0 0 0 3.261 4.134" style="mix-blend-mode:saturation"/>
    </g>
    <defs>
        <linearGradient id="e" x1="19.686" x2="34.216" y1="40.39" y2="53.666" gradientUnits="userSpaceOnUse">
            <stop stop-color="gold"/>
            <stop offset="1" stop-color="#e68d35"/>
        </linearGradient>
        <linearGradient id="f" x1="19.744" x2="33.926" y1="40.622" y2="53.58" gradientUnits="userSpaceOnUse">
            <stop stop-color="#efcb0a"/>
            <stop offset="1" stop-color="#af661d"/>
        </linearGradient>
        <linearGradient id="g" x1="20.027" x2="32.473" y1="41.78" y2="53.151" gradientUnits="userSpaceOnUse">
            <stop stop-color="gold"/>
            <stop offset="1" stop-color="#e68d35"/>
        </linearGradient>
        <linearGradient id="h" x1="18.944" x2="29.765" y1="42.047" y2="51.934" gradientUnits="userSpaceOnUse">
            <stop stop-color="gold"/>
            <stop offset="1" stop-color="#e68d35"/>
        </linearGradient>
        <linearGradient id="i" x1="19.811" x2="33.978" y1="40.821" y2="54.016" gradientUnits="userSpaceOnUse">
            <stop stop-color="gold"/>
            <stop offset="1" stop-color="#e68d35"/>
        </linearGradient>
        <linearGradient id="j" x1="24.778" x2="26.246" y1="41.229" y2="43.062" gradientUnits="userSpaceOnUse">
            <stop stop-color="gold"/>
            <stop offset="1" stop-color="#e68d35"/>
        </linearGradient>
        <linearGradient id="k" x1="19.711" x2="33.51" y1="40.903" y2="53.771" gradientUnits="userSpaceOnUse">
            <stop stop-color="gold"/>
            <stop offset="1" stop-color="#e68d35"/>
        </linearGradient>
        <linearGradient id="l" x1="20.559" x2="32.27" y1="42.645" y2="53.564" gradientUnits="userSpaceOnUse">
            <stop stop-color="#ebc704"/>
            <stop offset="1" stop-color="#d17315"/>
        </linearGradient>
        <linearGradient id="o" x1="15.351" x2="18.676" y1="52.967" y2="54.541" gradientUnits="userSpaceOnUse">
            <stop stop-color="gold"/>
            <stop offset="1" stop-color="#e68d35"/>
        </linearGradient>
        <linearGradient id="q" x1="108.686" x2="123.216" y1="40.39" y2="53.666" gradientUnits="userSpaceOnUse">
            <stop stop-color="gold"/>
            <stop offset="1" stop-color="#e68d35"/>
        </linearGradient>
        <linearGradient id="r" x1="108.744" x2="122.926" y1="40.622" y2="53.58" gradientUnits="userSpaceOnUse">
            <stop stop-color="#efcb0a"/>
            <stop offset="1" stop-color="#af661d"/>
        </linearGradient>
        <linearGradient id="s" x1="109.027" x2="121.473" y1="41.78" y2="53.151" gradientUnits="userSpaceOnUse">
            <stop stop-color="gold"/>
            <stop offset="1" stop-color="#e68d35"/>
        </linearGradient>
        <linearGradient id="t" x1="107.944" x2="118.765" y1="42.047" y2="51.934" gradientUnits="userSpaceOnUse">
            <stop stop-color="gold"/>
            <stop offset="1" stop-color="#e68d35"/>
        </linearGradient>
        <linearGradient id="u" x1="108.811" x2="122.978" y1="40.821" y2="54.016" gradientUnits="userSpaceOnUse">
            <stop stop-color="gold"/>
            <stop offset="1" stop-color="#e68d35"/>
        </linearGradient>
        <linearGradient id="v" x1="113.778" x2="115.246" y1="41.229" y2="43.062" gradientUnits="userSpaceOnUse">
            <stop stop-color="gold"/>
            <stop offset="1" stop-color="#e68d35"/>
        </linearGradient>
        <linearGradient id="w" x1="108.711" x2="122.51" y1="40.903" y2="53.771" gradientUnits="userSpaceOnUse">
            <stop stop-color="gold"/>
            <stop offset="1" stop-color="#e68d35"/>
        </linearGradient>
        <linearGradient id="x" x1="109.56" x2="121.27" y1="42.645" y2="53.564" gradientUnits="userSpaceOnUse">
            <stop stop-color="#ebc704"/>
            <stop offset="1" stop-color="#d17315"/>
        </linearGradient>
        <linearGradient id="A" x1="104.351" x2="107.676" y1="52.967" y2="54.541" gradientUnits="userSpaceOnUse">
            <stop stop-color="gold"/>
            <stop offset="1" stop-color="#e68d35"/>
        </linearGradient>
        <clipPath id="a">
            <path fill="#fff" d="M0 0h134.867v132.362H0z"/>
        </clipPath>
        <clipPath id="d">
            <path fill="#fff" d="M10 42.78 29.372 38l4.78 19.372-19.372 4.78z"/>
        </clipPath>
        <clipPath id="m">
            <path fill="#fff" d="M16.445 45.364h11.967v9.205H16.445z"/>
        </clipPath>
        <clipPath id="p">
            <path fill="#fff" d="M99 42.78 118.372 38l4.78 19.372-19.372 4.78z"/>
        </clipPath>
        <clipPath id="y">
            <path fill="#fff" d="M105.445 45.364h11.967v9.205h-11.967z"/>
        </clipPath>
        <filter id="n" width="9.219" height="8.942" x="16.445" y="45.364" color-interpolation-filters="sRGB" filterUnits="userSpaceOnUse">
            <feFlood flood-opacity="0" result="BackgroundImageFix"/>
            <feColorMatrix in="SourceAlpha" result="hardAlpha" values="0 0 0 0 0 0 0 0 0 0 0 0 0 0 0 0 0 0 127 0"/>
            <feOffset dx=".5" dy=".5"/>
            <feGaussianBlur stdDeviation=".25"/>
            <feComposite in2="hardAlpha" operator="out"/>
            <feColorMatrix values="0 0 0 0 0 0 0 0 0 0 0 0 0 0 0 0 0 0 0.1 0"/>
            <feBlend in2="BackgroundImageFix" result="effect1_dropShadow_402_14809"/>
            <feBlend in="SourceGraphic" in2="effect1_dropShadow_402_14809" result="shape"/>
        </filter>
        <filter id="z" width="9.219" height="8.942" x="105.445" y="45.364" color-interpolation-filters="sRGB" filterUnits="userSpaceOnUse">
            <feFlood flood-opacity="0" result="BackgroundImageFix"/>
            <feColorMatrix in="SourceAlpha" result="hardAlpha" values="0 0 0 0 0 0 0 0 0 0 0 0 0 0 0 0 0 0 127 0"/>
            <feOffset dx=".5" dy=".5"/>
            <feGaussianBlur stdDeviation=".25"/>
            <feComposite in2="hardAlpha" operator="out"/>
            <feColorMatrix values="0 0 0 0 0 0 0 0 0 0 0 0 0 0 0 0 0 0 0.1 0"/>
            <feBlend in2="BackgroundImageFix" result="effect1_dropShadow_402_14809"/>
            <feBlend in="SourceGraphic" in2="effect1_dropShadow_402_14809" result="shape"/>
        </filter>
    </defs>
</svg>