<svg xmlns="http://www.w3.org/2000/svg" width="192" height="168" fill="none" viewBox="0 0 192 168">
    <path fill="#fef2f2" d="M20.58 88.237s10.138-43.49 35.852-56.98c25.713-13.487 42.357-2.721 60.355 5.871 17.999 8.593 47.662 10.202 56.886 29.658s11.118 36.045-.688 50.167-23.567 13.152-53.532 18.136c-29.965 4.985-29.47 20.213-55.843 23.843-26.372 3.63-38.733-27.319-42.234-43.435-3.5-16.116-.796-27.26-.796-27.26" opacity=".7"/>
    <g clip-path="url(#a)">
        <path fill="#fee3e2" d="M135.68 101.162c1.776-1.356 7.869 2.202 10.999-1.347l-.589-4.715s-5.07 3.173-7.708 2.828c-2.637-.344-1.834-1.85-.293-2.349 1.54-.498 6.201-.097 7.325-1.734 0 0 .881-1.303-1.019-2.084-1.9-.78-2.373-4.32-1.823-5.78 0 0-.805.45-3.11.62-2.305.168-4.636.176-4.645 2.242s1.034 4.674-.126 5.221c-1.16.548-4.059-3.808-1.38-6.95 0 0-3.687-.007-4.508.792-.822.798-.951 3.043 1.088 5.429 2.038 2.385 2.25 4.082 1.38 4.492s-5.734-7.382-3.376-9.81c0 0-6.321 2.66-6.849 3.347s1.346 4.218 3.296 5.899c1.95 1.68 2.268 4.223 1.76 5.072s-1.512-2.27-2.67-3.345c-1.158-1.074-3.645-7.048-3.645-7.048s-.091.909-2.089 2.121c-1.999 1.212-4.573 4.365-3.617 5.464s6.511 5.407 7.666 7.281c1.156 1.875 1.681 3.623.492 3.116s-2.718-2.906-4.326-4.305-6.19-4.485-5.962-5.932c0 0-4.351 4.501-2.04 9.885 0 0 2.666 1.68 5.641 1.727s4.222.199 4.548 1.172c.327.974-1.727.921-3.579.844s-6.164-.17-7.018-1.275c0 0 3.956 7.903 9.782 6.191 5.463-1.605 5.802-2.434 5.823-2.531-.052.366-1.53 11.431 10.823 8.769 0 0-2.99-.173-3.732-2.017-.743-1.845-3.656-3.861-2.411-4.55 1.244-.689 3.925 6.018 6.985 5.926 3.059-.092 6.246-3.476 5.768-6.785 0 0-2.455 1.35-5.192-.067s-6.035-4.064-3.621-4.405 8.803 4.612 10.748 3.938 2.445-7.829 2.445-7.829-.99.425-4.629.567-7.806-.44-7.189-1.236c.617-.797 3.31-.228 5.737.191s5.53-.344 5.82-1.607.202-5.317.202-5.317-4.62 1.099-6.663 1.797c-2.043.699-6.294-.557-4.519-1.913m-6.655 12.241c-2.855-.768-.635-1.906 1.032-2.354 1.266-.34 1.823 3.121-1.032 2.354m2.549-4.96c-1.901-.465-2.183-1.429-1.176-1.836 2.315-.934 3.077 2.301 1.176 1.836m2.071-5.546c-1.047-.186-1.397-.527-.586-1.414.81-.886 1.633 1.601.586 1.414"/>
        <path fill="#fdcccb" d="M93.432 123.667S77.915 76.138 51.603 51.566c-1.768-1.652-4.698-.74-5.159 1.612-3.08 15.733-7.637 63.088 46.988 70.489"/>
        <path fill="#fff" d="M88.366 116.989c.106.089-.013.252-.13.178-4.319-2.72-21.262-16.417-29.397-45.701-.026-.094.112-.141.146-.05 2.517 6.74 12.59 31.527 29.38 45.573" opacity=".5"/>
        <path fill="#fee3e2" d="M84.924 137.852s-20.696-33.88-45.073-47.905c-1.64-.943-3.656.322-3.55 2.234.705 12.783 6.357 50.361 48.623 45.671"/>
        <path fill="#fff" d="M82.252 129.323c.098.048.038.195-.066.161-3.84-1.256-19.49-8.509-31.38-29.427-.039-.068.058-.13.102-.067 3.231 4.69 15.744 21.783 31.343 29.333" opacity=".5"/>
        <path fill="#191919" d="m72.802 57.804 49.841.55c2.755.03 4.916 2.407 4.914 5.393l-.044 73.882c-.002 2.067-1.675 3.781-3.693 3.79l-53.435.236c-1.885.008-3.432-1.569-3.432-3.505V64.106c0-3.508 2.618-6.337 5.849-6.302"/>
        <path fill="#faa9a7" d="M120.249 61.774H74.925c-1.9 0-3.23 1.483-3.23 3.334v65.966c0 1.852 1.33 3.275 3.23 3.275h45.324c1.901 0 3.413-1.423 3.413-3.275V65.108c0-1.852-1.512-3.334-3.413-3.334"/>
        <path fill="#fff" d="M118.529 64.574H76.86c-1.748 0-3.15 1.397-3.15 3.081v59.995c0 1.684 1.403 3.003 3.15 3.003h41.669c1.748 0 3.229-1.319 3.229-3.003V67.655c0-1.684-1.481-3.08-3.229-3.08" opacity=".5"/>
        <path fill="#fff" d="M90.735 74.164c0 .27-.22.49-.49.49H74.536a.49.49 0 0 1-.49-.49v-.028c0-.27.22-.49.49-.49h15.707c.271 0 .49.22.49.49zM90.735 76.964c0 .27-.22.49-.49.49H74.536a.49.49 0 0 1-.49-.49v-.028c0-.27.22-.49.49-.49h15.707c.271 0 .49.22.49.49zM90.735 79.54c0 .27-.22.49-.49.49H74.536a.49.49 0 0 1-.49-.49v-.028c0-.27.22-.49.49-.49h15.707c.271 0 .49.22.49.49z"/>
        <path fill="#ea3934" d="M113.527 117.624a3.623 3.623 0 0 0-3.624-3.624h-25.63a3.624 3.624 0 0 0-3.625 3.624v3.849a3.624 3.624 0 0 0 3.624 3.624h25.631a3.624 3.624 0 0 0 3.624-3.624z"/>
        <path fill="#fff" d="M88.209 120.107v2.133h-1.584v-5.862h1.92q2.39 0 2.39 1.733 0 1.019-.994 1.575l1.708 2.554h-1.796l-1.243-2.133zm0-1.191h.296q.83 0 .83-.733 0-.606-.813-.606h-.313zM95.66 122.24h-3.48v-5.862h3.48v1.271h-1.897v.923h1.757v1.271h-1.757v1.106h1.897zM102.269 122.24h-2.077l-2.141-4.129h-.036q.076.974.076 1.487v2.642h-1.403v-5.862h2.069l2.133 4.074h.024a23 23 0 0 1-.056-1.423v-2.651h1.411zM106.125 122.24h-1.584v-4.566h-1.432v-1.296h4.443v1.296h-1.427z"/>
        <path fill="#191919" d="M105.009 89.676h-4.452a.77.77 0 0 0-.768.767v2.768a4 4 0 0 0 .273-.072 4.2 4.2 0 0 0 1.724-1.033 1.074 1.074 0 1 1 .576.978 5.07 5.07 0 0 1-2.573 1.286v10.043a.77.77 0 0 0 .768.768h4.452a.77.77 0 0 0 .767-.768v-13.97a.77.77 0 0 0-.767-.767"/>
        <path fill="#191919" d="M98.48 92.9a4.99 4.99 0 0 1-4.461-2.76 1.06 1.06 0 0 1-.818.383l-.021-.001a5.92 5.92 0 0 0 5.3 3.299 5.92 5.92 0 0 0 5.641-4.145h-.975A5 5 0 0 1 98.48 92.9"/>
        <path fill="#191919" d="M94.466 86.468a4.38 4.38 0 0 0-.3 2.448c.065.143.103.302.103.47l-.001.01.002.01-.003.007a1.136 1.136 0 1 1-1.135-1.163q.028 0 .055.003l-.001-.036c0-.67.126-1.312.352-1.905a4.912 4.912 0 0 0-2.194 9.453v8.802l1.688 2.149 1.843-2.149v-1.945l-1.075-1.279 1.075-.975v-.611l-.614-.87.614-.768v-2.293a4.915 4.915 0 0 0-.409-9.358"/>
        <path fill="#191919" d="M98.48 82a5.917 5.917 0 0 0-5.91 5.91c0 .718.131 1.404.367 2.041.017 0 .034.004.052.004.315 0 .6-.13.806-.337a5 5 0 0 1-.304-1.708 4.995 4.995 0 0 1 4.99-4.989 4.995 4.995 0 0 1 4.916 5.834h.933A5.917 5.917 0 0 0 98.48 82"/>
        <path fill="#ea3934" d="M121.75 65.795c0-.72-.583-1.303-1.302-1.303H75.076c-.72 0-1.303.583-1.303 1.303v4.491c0 .72.584 1.303 1.303 1.303h45.372c.719 0 1.302-.584 1.302-1.303z"/>
        <path fill="#fff" d="M78.105 66.315a1.42 1.42 0 0 0-2.003.109 1.423 1.423 0 0 0 .094 2.004c.51.46 1.293.448 1.787.09l.39.353c.004.105.034.232.123.312l1.3 1.174c.164.149.411.096.56-.068l.009-.01c.148-.164.145-.381-.02-.53l-1.3-1.174c-.089-.08-.218-.097-.273-.146l-.39-.353c.306-.527.233-1.3-.277-1.761m-1.645 1.918a1.09 1.09 0 1 1 1.461-1.617 1.09 1.09 0 0 1-1.46 1.617"/>
        <path fill="#fff" d="m76.71 67.883-.01.01a.11.11 0 0 1-.158-.013.81.81 0 0 1 .018-1.065.112.112 0 0 1 .166.15.59.59 0 0 0-.013.771.11.11 0 0 1-.003.147M120.412 69.247c0 .45-.365.815-.815.815H83.261a.815.815 0 0 1-.816-.815v-2.513c0-.45.365-.816.816-.816h36.336c.45 0 .815.365.815.816z"/>
        <path fill="#91b3fa" d="M83.971 69.2a.17.17 0 0 1-.171.171h-.027a.17.17 0 0 1-.171-.171V66.88c0-.094.076-.171.171-.171h.027c.094 0 .171.077.171.171z"/>
        <g clip-path="url(#b)">
            <path fill="url(#c)" d="M73.655 80.559c6.528-1.611 10.515-8.21 8.904-14.738-1.611-6.529-8.21-10.515-14.738-8.904-6.529 1.61-10.515 8.21-8.904 14.738 1.61 6.528 8.21 10.515 14.738 8.904"/>
            <path fill="url(#d)" d="M73.584 80.277c6.373-1.573 10.264-8.014 8.692-14.386-1.573-6.373-8.013-10.264-14.386-8.691s-10.264 8.013-8.691 14.385c1.572 6.373 8.013 10.264 14.385 8.692"/>
            <path fill="url(#e)" d="M73.232 78.864a10.36 10.36 0 0 1-7.892-1.2 10.36 10.36 0 0 1-4.732-6.427 10.36 10.36 0 0 1 1.199-7.892 10.36 10.36 0 0 1 6.428-4.732 10.36 10.36 0 0 1 7.892 1.198 10.36 10.36 0 0 1 4.732 6.429 10.36 10.36 0 0 1-1.199 7.891 10.36 10.36 0 0 1-6.428 4.733"/>
            <path fill="url(#f)" d="M76.532 60.07a10.35 10.35 0 0 0-7.475-.96 10.36 10.36 0 0 0-6.428 4.732 10.36 10.36 0 0 0-1.2 7.891 10.36 10.36 0 0 0 4.328 6.17q-.21-.114-.417-.238a10.36 10.36 0 0 1-4.732-6.428 10.36 10.36 0 0 1 1.199-7.892 10.36 10.36 0 0 1 6.428-4.732 10.36 10.36 0 0 1 8.297 1.456" opacity=".3"/>
            <path fill="url(#g)" d="M82.559 65.821c1.61 6.529-2.376 13.127-8.904 14.738-6.165 1.521-12.392-1.949-14.423-7.837q.156.024.324.046c2.033 5.662 8.061 8.981 14.029 7.508 6.373-1.572 10.264-8.013 8.691-14.385-1.265-5.127-5.68-8.648-10.677-9.01l-.132-.3c5.181.31 9.783 3.936 11.092 9.24"/>
            <path fill="url(#h)" d="M76.539 60.067a10.4 10.4 0 0 0-4.234-1.24 17 17 0 0 0-.133-.426 10.4 10.4 0 0 1 4.27 1.602z"/>
            <path fill="url(#i)" d="M82.279 65.89c1.572 6.373-2.32 12.814-8.692 14.386-5.968 1.473-11.995-1.847-14.029-7.509.47.06 1.004.099 1.603.1a10.35 10.35 0 0 0 4.6 5.035l.003.001a10.35 10.35 0 0 0 7.475.96 10.36 10.36 0 0 0 6.428-4.732 10.36 10.36 0 0 0 1.199-7.892 10.35 10.35 0 0 0-4.327-6.17l-.003-.002-.097-.064q-.15-.099-.306-.192a10.4 10.4 0 0 0-3.964-1.41 19 19 0 0 0-.568-1.52c4.996.362 9.413 3.883 10.678 9.01"/>
            <path fill="url(#j)" d="M80.87 66.24a10.36 10.36 0 0 1-1.2 7.891 10.36 10.36 0 0 1-6.428 4.733 10.35 10.35 0 0 1-7.475-.96l-.002-.002a10.34 10.34 0 0 1-3.98-5.044c1.456-.055 3.246-.326 5.368-1.002 1.714-.652 5.174-2.51 5.722-7 .328-2.189-.068-4.362-.57-6.03 1.472.104 2.91.521 4.234 1.242l.004.001a10.36 10.36 0 0 1 4.326 6.17" opacity=".3" style="mix-blend-mode:screen"/>
            <g fill="#fff" clip-path="url(#k)">
                <path d="m72.115 70.67.883.924a3.7 3.7 0 0 0 1.018-2.298 3.2 3.2 0 0 0-.152-1.223 2.8 2.8 0 0 0-.638-1.068l-1.415-1.481-.98-1.027-1.05-1.098a2.7 2.7 0 0 0-1.02-.668 2.9 2.9 0 0 0-1.758-.06 3.5 3.5 0 0 0-1.612.973 3.7 3.7 0 0 0-1.025 2.305c-.026.414.022.83.153 1.223.13.392.344.76.638 1.068l3.445 3.606c.294.308.645.532 1.02.668a2.9 2.9 0 0 0 1.758.06q.295-.08.58-.218l-.981-1.026q-.138.03-.273.04a1.6 1.6 0 0 1-.674-.09 1.4 1.4 0 0 1-.547-.358l-3.445-3.607a1.5 1.5 0 0 1-.342-.573 1.97 1.97 0 0 1-.027-1.086c.095-.382.294-.764.604-1.087.411-.432.923-.66 1.402-.693.239-.017.467.015.673.09q.31.112.548.357l.895.937.883.924 1.666 1.746q.236.248.342.573c.108.323.121.702.027 1.085-.093.38-.291.759-.596 1.08z"/>
                <path d="m70.674 66.185-.883-.925a3.7 3.7 0 0 0-1.019 2.298c-.026.415.023.83.153 1.223.13.392.344.76.638 1.068l1.415 1.481.98 1.027 1.05 1.099a2.7 2.7 0 0 0 1.02.667 2.9 2.9 0 0 0 1.758.06 3.5 3.5 0 0 0 1.611-.973 3.7 3.7 0 0 0 1.025-2.305 3.2 3.2 0 0 0-.153-1.223 2.8 2.8 0 0 0-.638-1.068l-3.444-3.606a2.7 2.7 0 0 0-1.02-.668 2.92 2.92 0 0 0-1.758-.06q-.295.08-.58.218l.981 1.026q.137-.03.273-.039c.238-.017.467.015.674.09q.31.112.547.358l3.444 3.606q.236.248.342.573c.108.323.121.703.027 1.086a2.4 2.4 0 0 1-.603 1.087c-.412.431-.924.66-1.401.693a1.6 1.6 0 0 1-.674-.09 1.4 1.4 0 0 1-.548-.357l-.895-.937-.883-.924-1.666-1.746a1.5 1.5 0 0 1-.342-.573 1.97 1.97 0 0 1-.027-1.085c.093-.38.291-.759.596-1.08"/>
            </g>
            <path fill="url(#l)" d="m65.756 77.902-.102-.056a10.351 10.351 0 0 1-4.498-4.978q.3 0 .62-.01a10.34 10.34 0 0 0 3.98 5.044" style="mix-blend-mode:color"/>
        </g>
        <g clip-path="url(#m)">
            <path fill="url(#n)" d="M55.678 93.577a9.433 9.433 0 1 0-4.52-18.317 9.433 9.433 0 0 0 4.52 18.316"/>
            <path fill="url(#o)" d="M55.625 93.358a9.208 9.208 0 1 0-4.412-17.88 9.208 9.208 0 0 0 4.411 17.88"/>
            <path fill="url(#p)" d="M55.35 92.263a8.03 8.03 0 0 1-6.115-.929 8.03 8.03 0 0 1-3.666-4.98 8.03 8.03 0 0 1 .928-6.114 8.03 8.03 0 0 1 4.98-3.666 8.03 8.03 0 0 1 6.115.928 8.03 8.03 0 0 1 3.666 4.98 8.03 8.03 0 0 1-.929 6.115 8.03 8.03 0 0 1-4.98 3.666"/>
            <path fill="url(#q)" d="M57.906 77.702a8.02 8.02 0 0 0-5.791-.744 8.03 8.03 0 0 0-4.98 3.667 8.03 8.03 0 0 0-.93 6.114 8.02 8.02 0 0 0 3.353 4.78 8.028 8.028 0 0 1-3.99-5.165 8.03 8.03 0 0 1 .93-6.114 8.03 8.03 0 0 1 4.98-3.666 8.03 8.03 0 0 1 6.428 1.128" opacity=".3"/>
            <path fill="url(#r)" d="M62.578 82.158a9.433 9.433 0 0 1-6.899 11.419c-4.776 1.178-9.6-1.51-11.174-6.072q.122.018.252.035a9.208 9.208 0 1 0 9.33-12.308L53.984 75a9.44 9.44 0 0 1 8.593 7.158"/>
            <path fill="url(#s)" d="M57.907 77.7a8 8 0 0 0-3.28-.961 13 13 0 0 0-.104-.33 8.1 8.1 0 0 1 3.383 1.291"/>
            <path fill="url(#t)" d="M62.36 82.212a9.207 9.207 0 0 1-17.603 5.328c.364.046.777.076 1.242.078a8.02 8.02 0 0 0 3.563 3.9l.002.001a8.02 8.02 0 0 0 5.792.744 8.03 8.03 0 0 0 4.98-3.667 8.03 8.03 0 0 0 .929-6.114 8.02 8.02 0 0 0-3.353-4.78l-.002-.002-.075-.05a8.062 8.062 0 0 0-3.308-1.241c-.15-.459-.305-.858-.44-1.177a9.21 9.21 0 0 1 8.272 6.98"/>
            <path fill="url(#u)" d="M61.268 82.483a8.03 8.03 0 0 1-.928 6.114 8.03 8.03 0 0 1-4.98 3.666 8.02 8.02 0 0 1-5.792-.744l-.002-.001a8 8 0 0 1-3.084-3.908c1.129-.042 2.516-.252 4.16-.776 1.328-.505 4.008-1.945 4.433-5.423.254-1.696-.053-3.38-.441-4.672a8 8 0 0 1 3.28.962l.002.001a8.02 8.02 0 0 1 3.352 4.78" opacity=".3" style="mix-blend-mode:screen"/>
            <g fill="#fff" clip-path="url(#v)">
                <path d="m54.485 85.914.684.717c.478-.504.748-1.141.79-1.78.02-.322-.018-.644-.119-.948a2.2 2.2 0 0 0-.494-.828l-1.096-1.147-.76-.795-.813-.852a2.1 2.1 0 0 0-.79-.517 2.26 2.26 0 0 0-1.363-.046 2.7 2.7 0 0 0-1.248.753 2.87 2.87 0 0 0-.794 1.787c-.02.32.017.643.118.947s.267.589.495.827l2.668 2.794c.228.239.5.412.79.518.437.158.91.168 1.363.046q.228-.061.449-.168l-.76-.796q-.105.024-.211.03a1.3 1.3 0 0 1-.522-.069 1.1 1.1 0 0 1-.424-.277l-2.67-2.794a1.2 1.2 0 0 1-.264-.444 1.53 1.53 0 0 1-.021-.841c.073-.296.228-.592.468-.843a1.69 1.69 0 0 1 1.086-.537c.185-.013.362.012.522.07q.24.087.424.277l.693.725.684.717 1.291 1.352q.184.193.265.444c.084.25.094.544.021.84a1.9 1.9 0 0 1-.462.838"/>
                <path d="m53.37 82.44-.685-.716a2.87 2.87 0 0 0-.789 1.78c-.02.321.017.644.118.948s.266.589.495.827l1.096 1.148.76.795.812.851c.228.239.5.412.79.518.437.158.91.168 1.363.046a2.7 2.7 0 0 0 1.248-.754 2.87 2.87 0 0 0 .794-1.786c.02-.32-.017-.643-.118-.947a2.2 2.2 0 0 0-.494-.828L56.09 81.53a2.1 2.1 0 0 0-.79-.518 2.26 2.26 0 0 0-1.363-.047 2.6 2.6 0 0 0-.448.17l.76.795q.105-.024.21-.031c.185-.013.363.012.523.07q.24.087.424.277l2.668 2.794q.183.192.265.444c.083.25.094.544.02.84a1.87 1.87 0 0 1-.466.844c-.32.334-.716.51-1.086.536a1.3 1.3 0 0 1-.522-.07 1.1 1.1 0 0 1-.425-.276l-.693-.726-.684-.716-1.291-1.352a1.2 1.2 0 0 1-.265-.444 1.5 1.5 0 0 1-.02-.841c.071-.294.225-.588.462-.837"/>
            </g>
            <path fill="url(#w)" d="m49.556 91.518-.08-.044a8.02 8.02 0 0 1-3.485-3.856q.234 0 .481-.008a8 8 0 0 0 3.084 3.908"/>
        </g>
        <path fill="#4d4d4d" d="M144.541 132.892s-.114 1.792.266 2.516-.054 5.91-.141 6.063c-14.302.915-27.492 0-27.492 0s1.559-7.474 2.547-8.351 17.636-1.716 24.82-.228"/>
        <path fill="#383838" d="M125.374 138.337c.366.054.776.153 1.149.149.434-.005.359-.253.386-.648a32.5 32.5 0 0 1 .976-5.954c.037-.143.257-.082.22.061a32.5 32.5 0 0 0-.916 5.239c-.035.386-.003.824-.085 1.2-.025.113-.018.226-.126.303-.17.122-.478.025-.652.005a35 35 0 0 1-1.012-.134c-.145-.021-.083-.241.06-.221"/>
        <path fill="#ffc2a1" d="M116.678 107.574s-1.52 9.075-1.216 10.485c-2.547 6.253-5.816 20.666-6.196 21.314-.38.649-.494 1.831-.494 1.831l4.789.343.152-2.059s6.386-10.295 7.032-12.278c.646-1.982 3.459-17.501 3.041-18.035s-7.108-1.601-7.108-1.601"/>
        <path fill="#ea3934" d="M138.95 92.227s6.656 2.726 8.177 3.412c1.52.687 4.599 7.188 4.618 7.703.019.514.494 1.22.57 1.353.076.134-.665.362-.665.362s-5.986 11.878-6.015 12.106c-.029.229-.285 11.696-.542 12.268s.285 4.147 0 4.547c-1.91.544-10.89-.572-11.831 0s-14.082-.429-14.253-.629c.513-2.831 1.112-4.633 1.112-5.319s.912-8.579.456-10.867c-.456-2.287.114-6.72-.342-7.507-2.281-1.186-5.018-1.609-4.961-1.912 1.027-2.877 4.134-10.77 4.818-11.513s8.324-3.446 8.324-3.446 7.127 1.558 10.534-.558"/>
        <path fill="#b6231f" d="M140.841 107.326c-.318-.936.505-1.891.198-2.83-.046-.14.174-.2.22-.061.329 1.008.649 2.019.995 3.02q.256.746.555 1.475l.832-.3.75 1.348s-.998.372-1.212.251c-.044-.025-.09-.095-.134-.187-.259.097-1.739.002-1.728-.133.038-.48-.807-1.046-.979-1.487-.17-.433.653-.656.503-1.096M119.185 132.445c3.192.64 6.499 1.087 9.731.987 3.697-.115 7.306-1.223 11.023-.824a85 85 0 0 0 5.236.409q.004.125.005.239c-1.505-.057-3.004-.148-4.503-.332-1.88-.231-3.71-.203-5.59.028-1.875.23-3.739.577-5.627.685-1.935.11-3.884-.063-5.805-.282a59 59 0 0 1-4.513-.694zM139.578 92.487c-1.938 1.782-4.407 3.02-7.021 3.357-1.462.188-2.882-.04-4.003-1.057a7.4 7.4 0 0 1-1.301-1.578l.22-.08c.346.55.758 1.058 1.243 1.497 1.251 1.132 2.88 1.196 4.46.885 2.303-.454 4.434-1.553 6.169-3.12zM115.653 106.718c.375.114.747.236 1.114.376.474.181.94.387 1.388.625.601.32 1.154.721 1.826.88.143.033.082.254-.061.22-.532-.126-.977-.387-1.447-.659a12 12 0 0 0-1.767-.845 17 17 0 0 0-1.133-.383z"/>
        <path fill="#b6231f" d="m142.238 107.812 6.069-2.39c1.192-.499 2.38-1.032 3.584-1.515q.044.106.093.207c-1.215.487-2.413 1.025-3.616 1.528l-6.011 2.518c-.135.057-.253-.292-.119-.348"/>
        <path fill="#ffc2a1" d="M137.907 86.937s-.086 4.56 0 4.761c.085.2 1.04.529 1.04.529s-3.463 3.031-6.77 2.602-3.763-2.044-3.763-2.044.855-.43.898-.63.157-2.316.157-2.316-2.015.024-2.661-1.196-2.338-7.683-.665-14.546c4.067-2.402 13.569 1.258 13.759 2.936s-1.995 9.904-1.995 9.904"/>
        <path fill="#191919" d="M137.904 86.937s5.36-10.724 2.167-11.84c.114-3.03-8.951-5.09-12.515-3.86-.199.086 0 .343 0 .343s-2.052.472-2.423 1.63c.128.243.969.243.969.243s-.456.744-.442.858c.955.615 2.979.372 2.979.372s-.513.543-.299.743 3.407.272 5.017-.057c1.297-.214 2.167-.2 2.167-.028 0 .171-.385 4.754.014 5.304.278.15.691-.35.691-.35s.093 1.437.521 1.423c.67-.472.727-1.487.727-1.487s1.254-.73 1.425.758c.171 1.486-.869 3.631-2.181 3.46-.185 1.673 1.183 2.488 1.183 2.488"/>
        <path fill="#191919" d="M133.769 78.906s-3.691.024-4.005-.448c-.257-.53-.014-1.087.1-1.158.114-.072 3.848.271 4.319.629.342.328.071.98-.414.977M127.295 77.013c.013.03.093 1.008-.057 1.18-.164.143-1.646-.057-1.767-.136s-.171-1.087-.036-1.215c.136-.129 1.796.028 1.86.171"/>
        <path fill="#4d4d4d" d="M132.316 81.548c0 .256.177.57.397.57.219 0 .396-.314.396-.57 0-.257-.177-.465-.396-.465s-.397.208-.397.465M125.494 80.618c.783-.096 1.352.23 1.999.625.125.077.01.275-.115.198-.61-.374-1.142-.686-1.884-.594-.145.018-.144-.211 0-.229"/>
        <path fill="#d48f86" d="M127.978 82.556c.268-1.248.364-2.522.317-3.797-.006-.148.222-.147.228 0 .032.862.002 1.722-.108 2.578q-.075.591-.196 1.175c-.054.264-.14.472-.066.739.103.374.435.504.785.632.137.05.078.27-.061.22-.327-.119-.777-.304-.975-.612-.181-.282.01-.628.076-.935"/>
        <path fill="#fff" d="M127.17 85.206s3.122.801 3.264 1.016c.143.214-1.126.915-2.095.643s-1.169-1.659-1.169-1.659"/>
        <path fill="#d48f86" d="M129.423 90.654c.028-.393.034-.591.046-.815 1.539.002 3.222-.508 4.556-1.276 1.348-.777 1.608-2.5 2.038-3.875.044-.14.264-.08.22.061-.425 1.36-.938 3.958-2.238 4.776-.895.562-1.903.871-2.943 1.018q.16.664.42 1.297c.057.136-.164.195-.22.061a9 9 0 0 1-.427-1.328c-.481.057-.968.082-1.452.08M137.248 83.457c.325-.217.493-.535.298-.899-.075-.14-.181-.233-.219-.394-.064-.272.04-.565.199-.784.262-.362.847-.61 1.087-.096.062.133-.134.25-.197.116-.228-.488-.696.06-.782.233a.71.71 0 0 0 .023.697c.1.177.262.297.268.518.008.338-.305.635-.562.807-.123.081-.237-.117-.115-.198"/>
        <path fill="#ffc2a1" d="m143.967 109.595-9.844-4.194s-2.176-5.167-2.889-5.567c-.741-.544-.399-3.518-.256-3.76-.528-.415-2.751.056-1.782 3.26-2.01-.43-2.879-.373-3.15-.072-.271.3-1.212 2.731-.969 3.188.242.458 1.767 5.753 2.375 6.211.608.457 1.559-.077 2.072.266s1.767.229 1.767.229 15.413 12.449 17.884 13.555 5.131.61 5.777 0 .836-5.109-.19-8.884-3.117-8.77-3.117-8.77-7.868 3.222-8.096 3.661c.19.457.418.877.418.877"/>
        <path fill="#d48f86" d="M126.784 101.291c.193-.666.824-.885 1.448-.723.141.037.081.258-.061.221-.504-.132-1.009.016-1.167.563-.041.141-.261.081-.22-.061M126.281 106.003l-.108-.311q.277-.609.577-1.205c.067-.132.264-.016.197.115-.234.462-.453.93-.666 1.401M129.517 108.922a.7.7 0 0 0-.229-.093c-.006-.095-.118-.169-.227-.221-.132-.064-.016-.262.116-.198.199.097.411.275.34.512M126.509 102.05a9 9 0 0 0-.986 1.676l-.103-.314a9 9 0 0 1 .892-1.477c.087-.117.285-.003.197.115M127.416 106.638c-.239.336-.368.717-.482 1.106q-.067-.157-.136-.331a3.2 3.2 0 0 1 .422-.89c.084-.119.282-.005.196.115M143.544 108.718c1.225.117 4.076 1.082 5.359 1.982 1.311.921 2.648 1.936 3.693 3.18.095.112-.066.275-.161.162-1.033-1.229-2.431-2.007-3.862-2.681-.821-.387-4.265-1.645-4.611-1.766-.12-.153-.338-.746-.418-.877M116.43 119.404c.304.535.94 1.848 1.702 1.417.302-.171.509-.382.872-.3.143.032.083.253-.06.221-.557-.126-.86.643-1.472.357-.559-.261-.953-1.077-1.239-1.579-.073-.128.124-.244.197-.116"/>
        <path fill="#b6231f" d="M120.474 103.781c.014-.145.242-.147.229 0-.188 1.997-.479 4.026-.402 6.03-.306-.24-.748-.397-1.559-.818-.076-2.004 1.545-3.215 1.732-5.212M124.833 114.656a67.4 67.4 0 0 0 10.681 7.146c.129.07.014.267-.115.198a67.6 67.6 0 0 1-10.727-7.182c-.114-.093.048-.254.161-.162M126.224 118.768a15.8 15.8 0 0 0 3.672 1.599c.141.041.081.262-.06.221a16 16 0 0 1-3.727-1.622c-.126-.075-.011-.273.115-.198"/>
        <path fill="#383838" d="M129.661 141.873s.143-.574-.099-.774c-.243-.2-3.806-.672-5.445-.93-1.639-.257.328.83.427 1.001.1.172-.854.233-.826.596 2.081.053 5.943.107 5.943.107"/>
    </g>
    <defs>
        <linearGradient id="c" x1="67.821" x2="85.553" y1="56.917" y2="73.119" gradientUnits="userSpaceOnUse">
            <stop stop-color="gold"/>
            <stop offset="1" stop-color="#e68d35"/>
        </linearGradient>
        <linearGradient id="d" x1="67.89" x2="85.198" y1="57.2" y2="73.014" gradientUnits="userSpaceOnUse">
            <stop stop-color="gold"/>
            <stop offset="1" stop-color="#e68d35"/>
        </linearGradient>
        <linearGradient id="e" x1="68.235" x2="83.424" y1="58.613" y2="72.491" gradientUnits="userSpaceOnUse">
            <stop stop-color="gold"/>
            <stop offset="1" stop-color="#e68d35"/>
        </linearGradient>
        <linearGradient id="f" x1="66.913" x2="80.119" y1="58.939" y2="71.005" gradientUnits="userSpaceOnUse">
            <stop stop-color="gold"/>
            <stop offset="1" stop-color="#e68d35"/>
        </linearGradient>
        <linearGradient id="g" x1="67.976" x2="85.266" y1="57.443" y2="73.545" gradientUnits="userSpaceOnUse">
            <stop stop-color="gold"/>
            <stop offset="1" stop-color="#e68d35"/>
        </linearGradient>
        <linearGradient id="h" x1="74.036" x2="75.828" y1="57.941" y2="60.178" gradientUnits="userSpaceOnUse">
            <stop stop-color="gold"/>
            <stop offset="1" stop-color="#e68d35"/>
        </linearGradient>
        <linearGradient id="i" x1="68.063" x2="84.903" y1="57.755" y2="73.458" gradientUnits="userSpaceOnUse">
            <stop stop-color="gold"/>
            <stop offset="1" stop-color="#e68d35"/>
        </linearGradient>
        <linearGradient id="j" x1="68.889" x2="83.181" y1="59.669" y2="72.994" gradientUnits="userSpaceOnUse">
            <stop stop-color="gold"/>
            <stop offset="1" stop-color="#e68d35"/>
        </linearGradient>
        <linearGradient id="l" x1="62.739" x2="66.796" y1="72.477" y2="74.398" gradientUnits="userSpaceOnUse">
            <stop stop-color="gold"/>
            <stop offset="1" stop-color="#e68d35"/>
        </linearGradient>
        <linearGradient id="n" x1="51.158" x2="64.896" y1="75.26" y2="87.812" gradientUnits="userSpaceOnUse">
            <stop stop-color="gold"/>
            <stop offset="1" stop-color="#e68d35"/>
        </linearGradient>
        <linearGradient id="o" x1="51.213" x2="64.622" y1="75.479" y2="87.731" gradientUnits="userSpaceOnUse">
            <stop stop-color="gold"/>
            <stop offset="1" stop-color="#e68d35"/>
        </linearGradient>
        <linearGradient id="p" x1="51.478" x2="63.245" y1="76.573" y2="87.326" gradientUnits="userSpaceOnUse">
            <stop stop-color="gold"/>
            <stop offset="1" stop-color="#e68d35"/>
        </linearGradient>
        <linearGradient id="q" x1="50.454" x2="60.685" y1="76.826" y2="86.175" gradientUnits="userSpaceOnUse">
            <stop stop-color="gold"/>
            <stop offset="1" stop-color="#e68d35"/>
        </linearGradient>
        <linearGradient id="r" x1="51.28" x2="64.675" y1="75.667" y2="88.143" gradientUnits="userSpaceOnUse">
            <stop stop-color="gold"/>
            <stop offset="1" stop-color="#e68d35"/>
        </linearGradient>
        <linearGradient id="s" x1="55.968" x2="57.356" y1="76.053" y2="77.787" gradientUnits="userSpaceOnUse">
            <stop stop-color="gold"/>
            <stop offset="1" stop-color="#e68d35"/>
        </linearGradient>
        <linearGradient id="t" x1="51.345" x2="64.393" y1="75.909" y2="88.075" gradientUnits="userSpaceOnUse">
            <stop stop-color="gold"/>
            <stop offset="1" stop-color="#e68d35"/>
        </linearGradient>
        <linearGradient id="u" x1="51.987" x2="63.059" y1="77.392" y2="87.716" gradientUnits="userSpaceOnUse">
            <stop stop-color="gold"/>
            <stop offset="1" stop-color="#e68d35"/>
        </linearGradient>
        <linearGradient id="w" x1="47.218" x2="50.361" y1="87.315" y2="88.803" gradientUnits="userSpaceOnUse">
            <stop stop-color="gold"/>
            <stop offset="1" stop-color="#e68d35"/>
        </linearGradient>
        <clipPath id="a">
            <path fill="#fff" d="M29 41h124v124H29z"/>
        </clipPath>
        <clipPath id="b">
            <path fill="#fff" d="M56 59.834 79.642 54l5.834 23.642-23.642 5.834z"/>
        </clipPath>
        <clipPath id="k">
            <path fill="#fff" d="M64.36 62.564h14.07V74.29H64.36z"/>
        </clipPath>
        <clipPath id="m">
            <path fill="#fff" d="M42 77.52 60.317 73l4.52 18.317-18.317 4.52z"/>
        </clipPath>
        <clipPath id="v">
            <path fill="#fff" d="M48.477 79.635h10.902v9.085H48.477z"/>
        </clipPath>
    </defs>
</svg>
