<svg xmlns="http://www.w3.org/2000/svg" width="170.635" height="148.503" fill="none" style="max-height:500px" viewBox="91.37 36.569 170.635 148.503">
    <g filter="url(#a)">
        <rect width="327" height="388" x="10" fill="#fff" rx="30" shape-rendering="crispEdges"/>
        <rect width="326" height="387" x="10.5" y=".5" stroke="#97201d" stroke-opacity=".04" rx="29.5" shape-rendering="crispEdges"/>
        <path fill="#191919" d="M95.049 225h-2.813l5.12-14.545h3.254L105.738 225h-2.813l-3.885-11.562h-.114zm.092-5.703h7.67v2.116h-7.67zm16.825 5.916q-1.634 0-2.805-.717a4.8 4.8 0 0 1-1.797-1.982q-.625-1.271-.625-2.926 0-1.662.639-2.933a4.8 4.8 0 0 1 1.804-1.989q1.172-.717 2.77-.717 1.328 0 2.351.49a4 4 0 0 1 1.641 1.371q.61.88.696 2.059h-2.458a2.35 2.35 0 0 0-.71-1.314q-.554-.532-1.484-.532a2.32 2.32 0 0 0-1.385.426q-.597.419-.931 1.207-.327.79-.326 1.889 0 1.116.326 1.918.327.795.916 1.229.597.426 1.4.426.568 0 1.015-.213.455-.22.76-.632a2.4 2.4 0 0 0 .419-1.002h2.458q-.093 1.158-.682 2.053a4.04 4.04 0 0 1-1.605 1.392q-1.016.497-2.387.497m11.543 0q-1.634 0-2.805-.717a4.8 4.8 0 0 1-1.797-1.982q-.625-1.271-.625-2.926 0-1.662.639-2.933a4.8 4.8 0 0 1 1.804-1.989q1.172-.717 2.77-.717 1.328 0 2.351.49a4 4 0 0 1 1.641 1.371q.61.88.696 2.059h-2.458a2.35 2.35 0 0 0-.71-1.314q-.554-.532-1.484-.532a2.32 2.32 0 0 0-1.385.426q-.597.419-.931 1.207-.327.79-.327 1.889 0 1.116.327 1.918.327.795.916 1.229.597.426 1.4.426.568 0 1.015-.213.455-.22.76-.632a2.4 2.4 0 0 0 .419-1.002h2.458q-.093 1.158-.682 2.053a4.04 4.04 0 0 1-1.605 1.392q-1.016.497-2.387.497m11.614 0q-1.64 0-2.834-.682a4.6 4.6 0 0 1-1.825-1.946q-.639-1.264-.639-2.976 0-1.683.639-2.954.646-1.278 1.804-1.989 1.158-.717 2.72-.717 1.009 0 1.904.327a4.3 4.3 0 0 1 1.591.994q.696.675 1.093 1.719.398 1.037.398 2.471v.789h-8.942v-1.733h6.478a2.8 2.8 0 0 0-.32-1.314 2.3 2.3 0 0 0-.874-.916q-.554-.334-1.292-.334-.788 0-1.385.383a2.65 2.65 0 0 0-.931.995 2.86 2.86 0 0 0-.333 1.342v1.513q0 .952.348 1.633.348.675.973 1.037.624.355 1.463.355.56 0 1.015-.156.455-.164.789-.476.333-.312.504-.774l2.401.27a3.76 3.76 0 0 1-.867 1.662q-.632.703-1.619 1.094-.987.383-2.259.383m15.648-8.239-2.343.256a1.9 1.9 0 0 0-.348-.668 1.7 1.7 0 0 0-.654-.504q-.412-.192-1.008-.192-.803 0-1.35.348-.54.348-.532.902a.94.94 0 0 0 .348.775q.362.298 1.193.49l1.861.397q1.548.334 2.301 1.059.76.725.767 1.896a2.96 2.96 0 0 1-.604 1.818q-.59.781-1.641 1.222-1.05.44-2.414.44-2.003 0-3.225-.838-1.221-.845-1.456-2.351l2.507-.241q.17.738.725 1.115.554.376 1.441.376.916 0 1.471-.376.561-.376.561-.931a.97.97 0 0 0-.362-.774q-.356-.305-1.108-.469l-1.861-.39q-1.57-.327-2.323-1.101-.753-.781-.745-1.974-.007-1.009.546-1.748.562-.745 1.556-1.15 1.001-.412 2.308-.412 1.918 0 3.019.817 1.107.816 1.37 2.208m10.977 0-2.344.256a1.9 1.9 0 0 0-.348-.668 1.74 1.74 0 0 0-.653-.504q-.412-.192-1.009-.192-.803 0-1.349.348-.54.348-.533.902a.94.94 0 0 0 .348.775q.363.298 1.193.49l1.861.397q1.548.334 2.301 1.059.76.725.767 1.896a2.96 2.96 0 0 1-.603 1.818q-.59.781-1.641 1.222t-2.415.44q-2.003 0-3.224-.838-1.222-.845-1.456-2.351l2.507-.241q.17.738.724 1.115.554.376 1.442.376.916 0 1.47-.376.561-.376.561-.931 0-.468-.362-.774-.355-.305-1.108-.469l-1.861-.39q-1.569-.327-2.322-1.101-.753-.781-.746-1.974-.007-1.009.547-1.748.561-.745 1.555-1.15 1.002-.412 2.309-.412 1.917 0 3.018.817 1.108.816 1.371 2.208m7.429 8.026v-14.545h5.454q1.677 0 2.813.625a4.17 4.17 0 0 1 1.726 1.718q.59 1.088.589 2.472 0 1.399-.589 2.486-.59 1.087-1.74 1.711-1.15.618-2.834.618h-3.615v-2.166h3.26q.98 0 1.605-.341a2.15 2.15 0 0 0 .923-.937q.306-.597.306-1.371t-.306-1.364a2.08 2.08 0 0 0-.93-.916q-.625-.334-1.612-.334h-2.415V225zm12.757 0v-10.909h2.493v1.818h.114q.298-.945 1.023-1.456a2.8 2.8 0 0 1 1.669-.518 6 6 0 0 1 .475.021q.27.014.448.05v2.365a2.7 2.7 0 0 0-.519-.1 5 5 0 0 0-.674-.049q-.703 0-1.264.305-.555.299-.874.831-.32.533-.32 1.229V225zm12.239.213q-1.597 0-2.77-.703a4.8 4.8 0 0 1-1.818-1.967q-.639-1.264-.639-2.955 0-1.69.639-2.962a4.77 4.77 0 0 1 1.818-1.974q1.173-.703 2.77-.703 1.599 0 2.77.703a4.7 4.7 0 0 1 1.811 1.974q.647 1.272.647 2.962t-.647 2.955a4.73 4.73 0 0 1-1.811 1.967q-1.171.703-2.77.703m.015-2.06q.866 0 1.448-.475.583-.483.867-1.293.291-.81.291-1.804 0-1.001-.291-1.811-.284-.817-.867-1.3-.582-.483-1.448-.483-.888 0-1.478.483-.582.483-.873 1.3-.284.81-.284 1.811 0 .994.284 1.804.291.81.873 1.293.59.475 1.478.475m7.395 5.938v-15h2.528v1.804h.149q.2-.398.561-.845a3 3 0 0 1 .98-.774q.618-.327 1.577-.327 1.264 0 2.28.646 1.023.639 1.619 1.896.604 1.251.604 3.069 0 1.797-.589 3.054-.59 1.257-1.606 1.917-1.015.661-2.301.661-.937 0-1.555-.313a3.2 3.2 0 0 1-.994-.753 5 5 0 0 1-.576-.845h-.106v5.81zm2.521-9.546q0 1.059.298 1.854.306.796.874 1.243.575.44 1.392.44.852 0 1.428-.454.575-.462.866-1.257.298-.803.298-1.826 0-1.015-.291-1.804-.291-.788-.866-1.235-.576-.448-1.435-.448-.824 0-1.399.433-.576.434-.874 1.215-.291.781-.291 1.839m14.808 5.668q-1.64 0-2.834-.682a4.6 4.6 0 0 1-1.825-1.946q-.639-1.264-.639-2.976 0-1.683.639-2.954.646-1.278 1.804-1.989 1.158-.717 2.72-.717 1.009 0 1.904.327a4.3 4.3 0 0 1 1.591.994q.696.675 1.093 1.719.398 1.037.398 2.471v.789h-8.942v-1.733h6.478a2.8 2.8 0 0 0-.32-1.314 2.3 2.3 0 0 0-.874-.916q-.554-.334-1.292-.334-.789 0-1.385.383a2.64 2.64 0 0 0-.93.995q-.327.61-.334 1.342v1.513q0 .952.348 1.633.348.675.973 1.037.624.355 1.463.355.56 0 1.015-.156.455-.164.789-.476.333-.312.504-.774l2.401.27a3.76 3.76 0 0 1-.867 1.662q-.632.703-1.619 1.094-.987.383-2.259.383m7.026-.213v-10.909h2.493v1.818h.114q.299-.945 1.022-1.456a2.8 2.8 0 0 1 1.67-.518 6 6 0 0 1 .475.021 3 3 0 0 1 .448.05v2.365a2.7 2.7 0 0 0-.519-.1 5 5 0 0 0-.674-.049q-.704 0-1.265.305-.553.299-.873.831-.32.533-.32 1.229V225zm13.963-10.909v1.989h-6.271v-1.989zm-4.723-2.614h2.571v10.242q0 .518.157.795a.84.84 0 0 0 .426.37q.262.099.582.099.242 0 .44-.036.207-.035.313-.063l.433 2.009q-.206.072-.589.157-.376.086-.924.099-.966.029-1.74-.291a2.7 2.7 0 0 1-1.228-1.009q-.448-.681-.441-1.704zm8.472 17.614q-.526 0-.974-.085a3.6 3.6 0 0 1-.703-.185l.597-2.003q.561.163 1.001.156t.775-.277q.34-.262.575-.88l.22-.59-3.956-11.136h2.727l2.514 8.239h.114l2.521-8.239h2.735l-4.368 12.23a4.9 4.9 0 0 1-.81 1.484 3.3 3.3 0 0 1-1.236.952q-.724.334-1.732.334m-104.42 13.362q-.1-.93-.838-1.449-.732-.518-1.903-.518-.825 0-1.414.248-.589.249-.902.675a1.64 1.64 0 0 0-.319.973q0 .455.206.788.212.334.575.569.362.227.803.383.44.156.887.263l1.364.341a9.5 9.5 0 0 1 1.584.518q.767.327 1.37.824.612.498.966 1.2.355.703.355 1.648 0 1.278-.653 2.252-.654.966-1.889 1.512-1.228.54-2.976.54-1.698 0-2.947-.525-1.244-.526-1.946-1.534-.696-1.01-.753-2.458h2.592q.057.76.469 1.264.411.505 1.072.753.667.249 1.492.249.86 0 1.505-.256.654-.263 1.023-.724.37-.469.377-1.094-.007-.568-.334-.938-.327-.376-.916-.625a9 9 0 0 0-1.364-.454l-1.655-.426q-1.797-.462-2.841-1.399-1.037-.945-1.037-2.508 0-1.285.696-2.251.703-.965 1.911-1.499 1.207-.539 2.734-.539 1.549 0 2.713.539 1.172.533 1.84 1.485.667.945.689 2.173zm9.799 10.76q-1.64 0-2.833-.682a4.6 4.6 0 0 1-1.826-1.946q-.639-1.264-.639-2.976 0-1.683.639-2.954.647-1.278 1.804-1.989 1.158-.717 2.721-.717 1.008 0 1.903.327a4.3 4.3 0 0 1 1.591.994q.696.675 1.094 1.719.397 1.037.397 2.471v.789h-8.941v-1.733h6.477a2.76 2.76 0 0 0-.32-1.314 2.3 2.3 0 0 0-.873-.916q-.555-.334-1.293-.334-.788 0-1.385.383a2.64 2.64 0 0 0-.93.995 2.86 2.86 0 0 0-.334 1.342v1.513q0 .952.348 1.633.348.675.973 1.037.625.355 1.463.355.561 0 1.016-.156.454-.164.788-.476.335-.312.504-.774l2.401.27a3.76 3.76 0 0 1-.867 1.662q-.632.703-1.619 1.094-.987.383-2.259.383m7.026-.213v-10.909h2.493v1.818h.114q.299-.945 1.023-1.456a2.8 2.8 0 0 1 1.669-.518q.213 0 .476.021.27.014.447.05v2.365a2.7 2.7 0 0 0-.518-.1 5 5 0 0 0-.675-.049q-.703 0-1.264.305-.555.299-.874.831-.32.533-.32 1.229V253zm18.006-10.909L170.176 253h-2.84l-3.885-10.909h2.741l2.507 8.104h.114l2.514-8.104zm1.78 10.909v-10.909h2.571V253zm1.292-12.457a1.5 1.5 0 0 1-1.051-.405 1.3 1.3 0 0 1-.44-.987q0-.583.44-.988a1.5 1.5 0 0 1 1.051-.412q.618 0 1.051.412.441.405.441.988 0 .575-.441.987-.433.405-1.051.405m8.681 12.67q-1.633 0-2.805-.717a4.8 4.8 0 0 1-1.797-1.982q-.625-1.271-.625-2.926 0-1.662.639-2.933.639-1.278 1.804-1.989 1.171-.717 2.77-.717 1.328 0 2.351.49a4 4 0 0 1 1.64 1.371q.61.88.696 2.059h-2.457a2.36 2.36 0 0 0-.71-1.314q-.555-.532-1.485-.532-.788 0-1.385.426-.596.419-.93 1.207-.327.79-.327 1.889 0 1.116.327 1.918.327.795.916 1.229.597.426 1.399.426.569 0 1.016-.213.454-.22.76-.632.305-.413.419-1.002h2.457q-.092 1.158-.682 2.053a4.04 4.04 0 0 1-1.605 1.392q-1.015.497-2.386.497m11.614 0q-1.64 0-2.834-.682a4.6 4.6 0 0 1-1.825-1.946q-.639-1.264-.639-2.976 0-1.683.639-2.954.646-1.278 1.804-1.989 1.157-.717 2.72-.717 1.008 0 1.903.327a4.3 4.3 0 0 1 1.591.994q.696.675 1.094 1.719.398 1.037.398 2.471v.789h-8.942v-1.733h6.477a2.76 2.76 0 0 0-.319-1.314 2.3 2.3 0 0 0-.874-.916q-.553-.334-1.293-.334-.788 0-1.384.383a2.65 2.65 0 0 0-.931.995 2.86 2.86 0 0 0-.334 1.342v1.513q0 .952.348 1.633.349.675.973 1.037.626.355 1.463.355.561 0 1.016-.156.455-.164.788-.476.334-.312.505-.774l2.4.27a3.74 3.74 0 0 1-.866 1.662q-.632.703-1.62 1.094-.987.383-2.258.383m15.648-8.239-2.344.256a1.9 1.9 0 0 0-.348-.668 1.74 1.74 0 0 0-.653-.504q-.412-.192-1.009-.192-.803 0-1.349.348-.54.348-.533.902a.94.94 0 0 0 .348.775q.363.298 1.193.49l1.861.397q1.548.334 2.301 1.059.76.725.767 1.896a2.96 2.96 0 0 1-.603 1.818q-.59.781-1.641 1.222t-2.415.44q-2.003 0-3.224-.838-1.222-.845-1.456-2.351l2.507-.241q.17.738.724 1.115.554.376 1.442.376.916 0 1.47-.376.561-.376.561-.931 0-.468-.362-.774-.355-.305-1.108-.469l-1.861-.39q-1.569-.327-2.322-1.101-.752-.781-.746-1.974-.006-1.009.547-1.748.561-.745 1.556-1.15 1.001-.412 2.308-.412 1.917 0 3.018.817 1.108.816 1.371 2.208"/>
        <path fill="#191919" d="M98.506 289.22h-2.259l-4.148-5.203h-1.987v5.203h-1.74v-13.086h3.375q1.125 0 1.88.123a3.7 3.7 0 0 1 1.451.571q.685.44 1.081 1.134.404.695.404 1.722 0 1.442-.729 2.409t-1.986 1.432zm-3.762-9.404q0-.571-.202-1.011a1.7 1.7 0 0 0-.624-.729 2.4 2.4 0 0 0-.861-.343 6 6 0 0 0-1.222-.105h-1.723v4.939h1.53q.747 0 1.344-.132a2.06 2.06 0 0 0 1.02-.545q.377-.369.554-.879.184-.509.184-1.195m8.605 9.633q-2.347 0-3.648-1.318-1.292-1.327-1.292-3.762 0-2.4 1.257-3.815 1.257-1.423 3.287-1.423.914 0 1.617.263.703.264 1.231.826.527.563.808 1.38.282.809.282 1.987v.896h-6.803q0 1.714.861 2.619t2.382.906a4.6 4.6 0 0 0 1.064-.123 5 5 0 0 0 .949-.317q.448-.202.756-.387.308-.194.509-.36h.097v1.802q-.29.114-.721.29a9 9 0 0 1-.773.264q-.483.131-.879.202-.387.07-.984.07m1.933-6.231a4.5 4.5 0 0 0-.158-1.152 2.4 2.4 0 0 0-.404-.817 1.86 1.86 0 0 0-.747-.563q-.448-.193-1.117-.193-.659 0-1.125.202a2.6 2.6 0 0 0-.835.571 2.7 2.7 0 0 0-.562.862q-.194.465-.246 1.09zm10.837 6.002h-1.652v-1.001a17 17 0 0 1-.668.536q-.281.21-.659.386a3.5 3.5 0 0 1-.73.255 3.5 3.5 0 0 1-.879.097 3.34 3.34 0 0 1-1.485-.334 3.16 3.16 0 0 1-1.151-.976q-.484-.65-.748-1.599-.263-.958-.263-2.198 0-1.291.334-2.232.333-.95.923-1.652a3.8 3.8 0 0 1 1.292-1.002 3.6 3.6 0 0 1 1.599-.369q.738 0 1.283.167.545.158 1.152.501v-4.254h1.652zm-1.652-2.39v-5.66q-.615-.3-1.108-.413a4.5 4.5 0 0 0-1.054-.115q-1.275 0-1.995.958-.721.95-.721 2.751 0 1.732.554 2.655.554.914 1.775.914.65 0 1.31-.29.659-.3 1.239-.8m8.305 2.619q-2.346 0-3.647-1.318-1.292-1.327-1.292-3.762 0-2.4 1.257-3.815 1.256-1.423 3.287-1.423.913 0 1.617.263.703.264 1.231.826.527.563.808 1.38.281.809.281 1.987v.896h-6.802q0 1.714.861 2.619t2.382.906q.545 0 1.063-.123.528-.124.95-.317.447-.202.755-.387.308-.194.51-.36h.097v1.802q-.29.114-.721.29a9 9 0 0 1-.773.264q-.484.131-.879.202-.387.07-.985.07m1.934-6.231a4.6 4.6 0 0 0-.158-1.152 2.4 2.4 0 0 0-.404-.817 1.85 1.85 0 0 0-.748-.563q-.447-.193-1.116-.193-.658 0-1.125.202a2.6 2.6 0 0 0-.835.571 2.7 2.7 0 0 0-.562.862q-.194.465-.246 1.09zm7.541 6.231q-2.346 0-3.647-1.318-1.292-1.327-1.292-3.762 0-2.4 1.256-3.815 1.257-1.423 3.288-1.423.914 0 1.617.263.704.264 1.23.826.527.563.809 1.38.28.809.281 1.987v.896h-6.803q0 1.714.862 2.619.861.906 2.381.906.546 0 1.064-.123.528-.124.949-.317.448-.202.756-.387.308-.194.51-.36h.096v1.802q-.29.114-.72.29a9 9 0 0 1-.774.264q-.483.131-.879.202-.385.07-.984.07m1.934-6.231a4.6 4.6 0 0 0-.159-1.152 2.4 2.4 0 0 0-.404-.817 1.84 1.84 0 0 0-.747-.563q-.448-.193-1.116-.193-.66 0-1.125.202a2.62 2.62 0 0 0-1.398 1.433 3.7 3.7 0 0 0-.246 1.09zm14.423 6.002v-5.677q0-.677-.053-1.248-.053-.58-.22-.906a1.13 1.13 0 0 0-.501-.518q-.326-.167-.879-.167-.51 0-1.098.316-.58.308-1.205.897.009.148.018.36.018.202.018.483v6.46h-1.653v-5.677q0-.677-.052-1.248-.054-.58-.22-.906a1.13 1.13 0 0 0-.501-.518q-.326-.167-.879-.167-.537 0-1.125.334a6 6 0 0 0-1.143.852v7.33h-1.652v-9.817h1.652v1.09q.651-.651 1.284-1.002.64-.36 1.406-.36.87 0 1.538.395.677.396 1.028 1.301.748-.835 1.459-1.266.712-.43 1.547-.43.633 0 1.151.202.519.194.906.633.395.447.606 1.116.22.668.22 1.678v6.46zm14.844.238a6.3 6.3 0 0 1-2.364-.431 5 5 0 0 1-1.855-1.283q-.781-.852-1.212-2.127-.432-1.274-.431-2.927 0-1.644.413-2.865a6.3 6.3 0 0 1 1.222-2.127 5.2 5.2 0 0 1 1.854-1.336q1.072-.465 2.4-.466.658 0 1.23.097a8 8 0 0 1 1.072.246q.423.132.862.334.448.193.879.431v2.1h-.141q-.228-.21-.589-.51a5.687 5.687 0 0 0-1.969-1.037 4.8 4.8 0 0 0-1.362-.175q-.835 0-1.582.342a3.75 3.75 0 0 0-1.31 1.011q-.554.668-.861 1.679-.308 1.01-.308 2.276 0 1.345.326 2.32.324.967.887 1.635.545.65 1.284.985a3.85 3.85 0 0 0 1.564.325q.756 0 1.397-.185a5.3 5.3 0 0 0 1.143-.466q.483-.272.835-.553.351-.291.554-.492h.132v2.074q-.431.202-.818.386a7 7 0 0 1-.923.361 9 9 0 0 1-1.063.281q-.483.097-1.266.097m13.641-5.142q0 2.48-1.195 3.832-1.196 1.345-3.182 1.345-2.048 0-3.226-1.389-1.169-1.397-1.169-3.788 0-2.46 1.204-3.823 1.214-1.362 3.191-1.362 1.986 0 3.182 1.362 1.195 1.353 1.195 3.823m-1.705 0q0-1.907-.695-2.83-.694-.932-1.977-.932-1.291 0-1.995.932-.695.923-.695 2.83 0 1.846.695 2.804.703.95 1.995.949 1.275 0 1.969-.932.702-.94.703-2.821m11.118 4.904h-1.652v-5.589q0-.678-.071-1.257-.061-.589-.246-.941a1.27 1.27 0 0 0-.562-.545q-.361-.184-.985-.184-.615 0-1.274.334a6.5 6.5 0 0 0-1.274.852v7.33h-1.653v-9.817h1.653v1.09q.738-.66 1.458-1.011a3.4 3.4 0 0 1 1.521-.351q1.45 0 2.268.958.817.948.817 2.759zm10.037 0h-1.652v-5.589q0-.678-.071-1.257-.061-.589-.246-.941a1.26 1.26 0 0 0-.562-.545q-.36-.184-.985-.184-.615 0-1.274.334a6.5 6.5 0 0 0-1.274.852v7.33h-1.653v-9.817h1.653v1.09q.738-.66 1.459-1.011.72-.351 1.52-.351 1.45 0 2.268.958.817.948.817 2.759zm6.583.229q-2.346 0-3.647-1.318-1.293-1.327-1.292-3.762 0-2.4 1.256-3.815 1.257-1.423 3.288-1.423.914 0 1.617.263.703.264 1.23.826.527.563.809 1.38.28.809.281 1.987v.896h-6.803q0 1.714.862 2.619.861.906 2.381.906.545 0 1.064-.123.528-.124.949-.317.448-.202.756-.387.308-.194.51-.36h.096v1.802q-.29.114-.72.29a9 9 0 0 1-.774.264q-.483.131-.879.202-.385.07-.984.07m1.934-6.231a4.6 4.6 0 0 0-.159-1.152 2.4 2.4 0 0 0-.404-.817 1.84 1.84 0 0 0-.747-.563q-.448-.193-1.116-.193-.66 0-1.125.202a2.62 2.62 0 0 0-1.398 1.433 3.7 3.7 0 0 0-.246 1.09zm7.18 6.222a5.4 5.4 0 0 1-1.854-.307 3.85 3.85 0 0 1-1.45-.95q-.607-.633-.941-1.59-.334-.968-.334-2.268 0-1.292.343-2.232.351-.94.932-1.583a3.8 3.8 0 0 1 1.441-.984 4.9 4.9 0 0 1 1.863-.351q.809 0 1.556.228.756.228 1.345.527v1.855h-.097a6 6 0 0 0-.457-.343 5 5 0 0 0-.668-.395 4.3 4.3 0 0 0-.809-.308 3.3 3.3 0 0 0-.896-.132q-1.284 0-2.065.976-.774.966-.774 2.742 0 1.74.747 2.716.756.966 2.092.967.809 0 1.538-.334.73-.334 1.292-.862h.097v1.855l-.616.281a5 5 0 0 1-.667.237 8 8 0 0 1-.756.185q-.334.07-.862.07m7.383-.026q-1.353 0-2.109-.765-.756-.773-.756-2.434v-5.441h-1.116v-1.371h1.116v-2.821h1.652v2.821h3.041v1.371h-3.041v4.667q0 .747.027 1.152.026.404.202.755a.98.98 0 0 0 .483.466q.335.15.905.15.405 0 .783-.115.377-.123.545-.202h.096v1.486q-.465.131-.949.202a5.5 5.5 0 0 1-.879.079m5.713.044a6.3 6.3 0 0 1-1.846-.264 8.3 8.3 0 0 1-1.415-.562v-1.855h.088q.212.166.492.369.291.203.765.422.422.193.923.343.51.149 1.055.149.395 0 .843-.088.449-.096.668-.237.308-.202.44-.431.14-.228.14-.685 0-.59-.325-.888-.316-.298-1.134-.501a21 21 0 0 0-.826-.184q-.51-.106-.94-.229-1.125-.326-1.635-1.002-.51-.686-.51-1.652 0-1.328 1.002-2.162 1.002-.835 2.663-.835.817 0 1.644.202.827.203 1.388.51v1.766h-.087a5.2 5.2 0 0 0-1.415-.791 4.4 4.4 0 0 0-1.565-.29q-.817 0-1.38.343t-.562 1.037q0 .615.334.923.334.298 1.072.492.37.097.817.194.457.087.958.21 1.09.273 1.635.906.554.633.554 1.722 0 .634-.255 1.204a2.6 2.6 0 0 1-.73.967 3.7 3.7 0 0 1-1.195.668q-.659.23-1.661.229m16.172-12.331h-.088a4 4 0 0 0-.633-.15 4 4 0 0 0-.738-.079q-1.045 0-1.494.475-.44.465-.44 1.696v.334h2.734v1.371h-2.681v8.446h-1.652v-8.446h-1.116v-1.371h1.116v-.325q0-1.776.852-2.698.853-.923 2.444-.923.456 0 .896.053.44.043.8.105zm8.464 7.189q0 2.48-1.196 3.832-1.195 1.345-3.181 1.345-2.048 0-3.226-1.389-1.169-1.397-1.169-3.788 0-2.46 1.204-3.823 1.213-1.362 3.191-1.362 1.987 0 3.181 1.362 1.196 1.353 1.196 3.823m-1.705 0q0-1.907-.695-2.83-.695-.932-1.977-.932-1.293 0-1.995.932-.695.923-.695 2.83 0 1.846.695 2.804.702.95 1.995.949 1.274 0 1.969-.932.702-.94.703-2.821m8.604-3.138h-.088a1.7 1.7 0 0 0-.395-.061 6 6 0 0 0-.492-.018q-.668 0-1.328.29a4.3 4.3 0 0 0-1.248.862v6.969h-1.652v-9.817h1.652v1.459q.905-.8 1.574-1.125.676-.334 1.309-.334.255 0 .378.018.132.008.29.035zM55.176 314.22v-5.677q0-.677-.053-1.248-.052-.58-.22-.906a1.13 1.13 0 0 0-.5-.518q-.326-.167-.88-.167-.51 0-1.098.316-.58.308-1.204.897.009.148.017.36.018.202.018.483v6.46h-1.653v-5.677q0-.677-.052-1.248-.053-.58-.22-.906a1.13 1.13 0 0 0-.5-.518q-.326-.167-.88-.167-.535 0-1.125.334a6 6 0 0 0-1.142.852v7.33H44.03v-9.817h1.653v1.09q.649-.651 1.283-1.002.642-.36 1.406-.36.87 0 1.538.395.676.396 1.029 1.301.747-.835 1.458-1.266.712-.43 1.547-.43.633 0 1.152.202.518.194.905.633.396.447.606 1.116.22.668.22 1.678v6.46zm9.457-2.417v-2.724q-.589.053-1.494.149-.897.089-1.45.255-.66.203-1.09.624-.43.413-.431 1.16 0 .844.475 1.275.474.43 1.388.43a3 3 0 0 0 1.415-.334 6.2 6.2 0 0 0 1.187-.835m0 1.372q-.203.149-.545.421-.335.264-.65.422-.44.23-.853.352-.404.123-1.143.123-.606 0-1.151-.229a3 3 0 0 1-.958-.641 3 3 0 0 1-.633-.993 3.4 3.4 0 0 1-.237-1.257q0-1.02.43-1.732.432-.72 1.363-1.142.825-.378 1.951-.519a32 32 0 0 1 2.426-.22v-.316q0-.58-.176-.932a1.3 1.3 0 0 0-.492-.553 1.9 1.9 0 0 0-.774-.264 6 6 0 0 0-.94-.07q-.571 0-1.345.176a8.7 8.7 0 0 0-1.547.492h-.096v-1.679a15 15 0 0 1 1.31-.29 9.3 9.3 0 0 1 1.687-.158q1.01 0 1.705.158a3.3 3.3 0 0 1 1.248.571q.536.404.8 1.046.263.642.263 1.565v6.714h-1.643zm5.66 1.045h-1.652v-9.817h1.652zm.114-11.46h-1.88v-1.714h1.88zm10.029 11.46h-1.653v-5.589q0-.678-.07-1.257-.061-.589-.246-.941a1.27 1.27 0 0 0-.563-.545q-.36-.184-.984-.184-.615 0-1.275.334a6.5 6.5 0 0 0-1.274.852v7.33H72.72v-9.817h1.652v1.09q.738-.66 1.46-1.011.72-.351 1.52-.351 1.45 0 2.267.958.818.948.818 2.759zm5.29.194q-1.353 0-2.109-.765-.756-.773-.756-2.434v-5.441h-1.116v-1.371h1.116v-2.821h1.653v2.821h3.04v1.371h-3.04v4.667q0 .747.026 1.152.027.404.202.755.149.308.484.466.333.15.905.15.405 0 .782-.115.378-.123.545-.202h.097v1.486q-.465.131-.95.202-.474.079-.878.079m7.322.035q-2.347 0-3.648-1.318-1.291-1.327-1.292-3.762 0-2.4 1.257-3.815 1.257-1.423 3.287-1.423.915 0 1.617.263.705.264 1.231.826.528.563.809 1.38.28.809.28 1.987v.896h-6.802q0 1.714.861 2.619.863.906 2.382.906.546 0 1.064-.123.527-.124.949-.317.448-.202.756-.387.307-.194.51-.36h.096v1.802q-.29.114-.72.29a9 9 0 0 1-.774.264q-.483.131-.879.202-.387.07-.984.07m1.933-6.231a4.6 4.6 0 0 0-.158-1.152 2.4 2.4 0 0 0-.404-.817 1.85 1.85 0 0 0-.747-.563q-.449-.193-1.116-.193-.66 0-1.125.202a2.6 2.6 0 0 0-.835.571 2.7 2.7 0 0 0-.563.862q-.193.465-.246 1.09zm10.996 6.002h-1.653v-5.589q0-.678-.07-1.257-.062-.589-.246-.941a1.27 1.27 0 0 0-.563-.545q-.36-.184-.984-.184-.615 0-1.274.334a6.5 6.5 0 0 0-1.275.852v7.33H98.26v-9.817h1.652v1.09q.739-.66 1.459-1.011a3.4 3.4 0 0 1 1.521-.351q1.45 0 2.267.958.818.948.818 2.759zm7.804-2.417v-2.724q-.588.053-1.494.149-.897.089-1.45.255-.66.203-1.09.624-.43.413-.431 1.16 0 .844.475 1.275.474.43 1.389.43.782 0 1.415-.334a6.2 6.2 0 0 0 1.186-.835m0 1.372q-.202.149-.545.421a3.7 3.7 0 0 1-.65.422q-.44.23-.853.352-.404.123-1.142.123-.606 0-1.152-.229a3 3 0 0 1-.958-.641 3 3 0 0 1-.632-.993 3.4 3.4 0 0 1-.238-1.257q0-1.02.431-1.732.43-.72 1.362-1.142.826-.378 1.951-.519 1.125-.149 2.426-.22v-.316q0-.58-.176-.932a1.3 1.3 0 0 0-.492-.553 1.9 1.9 0 0 0-.773-.264 6 6 0 0 0-.941-.07q-.57 0-1.344.176a8.7 8.7 0 0 0-1.547.492h-.097v-1.679q.457-.132 1.31-.29a9.3 9.3 0 0 1 1.687-.158q1.01 0 1.705.158.694.158 1.248.571.537.404.8 1.046.264.642.264 1.565v6.714h-1.644zm11.69 1.045h-1.653v-5.589q0-.678-.07-1.257-.061-.589-.246-.941a1.27 1.27 0 0 0-.563-.545q-.36-.184-.984-.184-.615 0-1.274.334a6.5 6.5 0 0 0-1.275.852v7.33h-1.652v-9.817h1.652v1.09q.739-.66 1.459-1.011a3.4 3.4 0 0 1 1.521-.351q1.45 0 2.267.958.818.948.818 2.759zm6.222.22a5.4 5.4 0 0 1-1.854-.307 3.85 3.85 0 0 1-1.45-.95q-.607-.633-.941-1.59-.333-.968-.334-2.268 0-1.292.343-2.232.351-.94.932-1.583a3.8 3.8 0 0 1 1.441-.984 4.9 4.9 0 0 1 1.863-.351q.809 0 1.556.228.756.228 1.345.527v1.855h-.097a6 6 0 0 0-.457-.343 5 5 0 0 0-.668-.395 4.3 4.3 0 0 0-.809-.308 3.3 3.3 0 0 0-.896-.132q-1.283 0-2.065.976-.774.966-.774 2.742 0 1.74.747 2.716.756.966 2.092.967.809 0 1.538-.334.73-.334 1.292-.862h.097v1.855q-.246.114-.615.281a5 5 0 0 1-.668.237 8 8 0 0 1-.756.185q-.334.07-.862.07m8.675.009q-2.346 0-3.647-1.318-1.292-1.327-1.292-3.762 0-2.4 1.257-3.815 1.256-1.423 3.287-1.423.913 0 1.617.263.703.264 1.23.826.527.563.809 1.38.28.809.281 1.987v.896h-6.803q0 1.714.862 2.619.861.906 2.382.906.544 0 1.063-.123.528-.124.949-.317.448-.202.756-.387.308-.194.51-.36h.097v1.802q-.29.114-.721.29a9 9 0 0 1-.774.264q-.483.131-.878.202-.387.07-.985.07m1.934-6.231a4.6 4.6 0 0 0-.158-1.152 2.4 2.4 0 0 0-.405-.817 1.84 1.84 0 0 0-.747-.563q-.448-.193-1.116-.193-.658 0-1.125.202a2.62 2.62 0 0 0-1.397 1.433q-.193.465-.247 1.09zm6.477 3.498-2.461 5.756h-1.283l1.547-5.756zm11.778 2.724a5.4 5.4 0 0 1-1.855-.307 3.86 3.86 0 0 1-1.45-.95q-.606-.633-.94-1.59-.334-.968-.334-2.268 0-1.292.342-2.232.352-.94.932-1.583a3.8 3.8 0 0 1 1.441-.984 4.9 4.9 0 0 1 1.864-.351q.808 0 1.555.228.756.228 1.345.527v1.855h-.097a6 6 0 0 0-.457-.343 5 5 0 0 0-.668-.395 4.4 4.4 0 0 0-.808-.308 3.3 3.3 0 0 0-.897-.132q-1.283 0-2.065.976-.774.966-.774 2.742 0 1.74.747 2.716.756.966 2.092.967.809 0 1.538-.334.73-.334 1.292-.862h.097v1.855q-.246.114-.615.281a5 5 0 0 1-.668.237 8 8 0 0 1-.756.185q-.334.07-.861.07m6.099-.22h-1.652v-13.675h1.652zm6.689.229q-2.347 0-3.648-1.318-1.292-1.327-1.292-3.762 0-2.4 1.257-3.815 1.257-1.423 3.287-1.423.915 0 1.617.263.703.264 1.231.826.527.563.808 1.38.282.809.282 1.987v.896h-6.803q0 1.714.861 2.619.862.906 2.382.906a4.6 4.6 0 0 0 1.064-.123q.527-.124.949-.317.448-.202.756-.387.308-.194.509-.36h.097v1.802q-.29.114-.721.29a9 9 0 0 1-.773.264q-.483.131-.879.202-.387.07-.984.07m1.933-6.231a4.5 4.5 0 0 0-.158-1.152 2.4 2.4 0 0 0-.404-.817 1.86 1.86 0 0 0-.747-.563q-.448-.193-1.116-.193-.66 0-1.125.202a2.62 2.62 0 0 0-1.398 1.433q-.194.465-.246 1.09zm8.763 3.585v-2.724q-.59.053-1.494.149-.897.089-1.45.255-.66.203-1.09.624-.43.413-.431 1.16 0 .844.475 1.275.474.43 1.388.43.783 0 1.415-.334a6.2 6.2 0 0 0 1.187-.835m0 1.372q-.202.149-.545.421a3.8 3.8 0 0 1-.65.422q-.44.23-.853.352-.404.123-1.142.123-.608 0-1.152-.229a3 3 0 0 1-.958-.641 3 3 0 0 1-.633-.993 3.4 3.4 0 0 1-.237-1.257q0-1.02.431-1.732.43-.72 1.362-1.142.826-.378 1.951-.519 1.125-.149 2.426-.22v-.316q0-.58-.176-.932a1.3 1.3 0 0 0-.492-.553 1.9 1.9 0 0 0-.773-.264 6 6 0 0 0-.941-.07q-.571 0-1.345.176a8.7 8.7 0 0 0-1.546.492h-.097v-1.679q.457-.132 1.309-.29a9.3 9.3 0 0 1 1.688-.158q1.01 0 1.705.158t1.248.571q.536.404.8 1.046t.264 1.565v6.714h-1.644zm11.689 1.045h-1.652v-5.589q0-.678-.07-1.257-.061-.589-.246-.941a1.27 1.27 0 0 0-.563-.545q-.36-.184-.984-.184-.615 0-1.275.334a6.5 6.5 0 0 0-1.274.852v7.33h-1.652v-9.817h1.652v1.09q.738-.66 1.459-1.011.72-.351 1.521-.351 1.45 0 2.267.958.817.948.817 2.759zm4.008 0h-1.652v-9.817h1.652zm.115-11.46h-1.881v-1.714h1.881zm10.028 11.46h-1.652v-5.589q0-.678-.071-1.257-.061-.589-.246-.941a1.27 1.27 0 0 0-.562-.545q-.361-.184-.985-.184-.615 0-1.274.334a6.5 6.5 0 0 0-1.275.852v7.33h-1.652v-9.817h1.652v1.09q.74-.66 1.459-1.011a3.4 3.4 0 0 1 1.521-.351q1.45 0 2.267.958.818.948.818 2.759zm8.226-2.663v-5.387q-.615-.3-1.142-.422a4.2 4.2 0 0 0-1.037-.132q-1.257 0-1.978.923-.72.923-.721 2.645 0 1.635.545 2.488.554.852 1.785.852.641 0 1.318-.255.685-.255 1.23-.712m-5.554 4.237q.167.07.492.184.326.123.738.229.457.114.844.184t.844.071q.764 0 1.292-.202.535-.203.835-.563.28-.36.395-.835.114-.474.114-1.081v-.861q-.667.58-1.309.861-.642.273-1.609.272-1.678 0-2.671-1.248-.994-1.248-.994-3.586 0-1.221.343-2.162.343-.949.923-1.608a3.8 3.8 0 0 1 1.31-.976 3.75 3.75 0 0 1 1.564-.342q.765 0 1.318.184.563.175 1.125.51l.097-.422h1.556v8.701q0 2.496-1.09 3.665t-3.331 1.169q-.721 0-1.477-.114a10 10 0 0 1-1.397-.308v-1.722zm12.797-4.078-2.461 5.756h-1.284l1.547-5.756zm16.11-2.664q0 2.453-1.178 3.912-1.168 1.45-2.962 1.45a4.6 4.6 0 0 1-1.292-.167 5 5 0 0 1-1.151-.519v4.114h-1.652v-13.439h1.652v1.028q.615-.553 1.362-.922a3.6 3.6 0 0 1 1.644-.378q1.687 0 2.628 1.336.95 1.335.949 3.585m-1.705.185q0-1.678-.536-2.602-.537-.931-1.74-.931-.703 0-1.363.316a5.8 5.8 0 0 0-1.239.8v5.564q.651.315 1.107.43.466.114 1.064.114 1.282 0 1.995-.94.712-.94.712-2.751m8.903 2.566v-2.724q-.588.053-1.494.149-.897.089-1.45.255-.66.203-1.09.624-.43.413-.431 1.16 0 .844.475 1.275.474.43 1.389.43.782 0 1.415-.334a6.2 6.2 0 0 0 1.186-.835m0 1.372q-.202.149-.545.421a3.7 3.7 0 0 1-.65.422q-.44.23-.853.352-.404.123-1.142.123-.607 0-1.152-.229a3 3 0 0 1-.958-.641 3 3 0 0 1-.632-.993 3.4 3.4 0 0 1-.238-1.257q0-1.02.431-1.732.43-.72 1.362-1.142.826-.378 1.951-.519 1.125-.149 2.426-.22v-.316q0-.58-.176-.932a1.3 1.3 0 0 0-.492-.553 1.9 1.9 0 0 0-.773-.264 6 6 0 0 0-.941-.07q-.57 0-1.344.176a8.7 8.7 0 0 0-1.547.492h-.097v-1.679q.457-.132 1.31-.29a9.3 9.3 0 0 1 1.687-.158q1.01 0 1.705.158t1.248.571q.536.404.8 1.046t.264 1.565v6.714h-1.644zm5.66 1.045h-1.652v-9.817h1.652zm.115-11.46h-1.881v-1.714h1.881zm10.028 11.46h-1.652v-5.589q0-.678-.071-1.257-.061-.589-.246-.941a1.27 1.27 0 0 0-.562-.545q-.361-.184-.985-.184-.615 0-1.274.334a6.5 6.5 0 0 0-1.275.852v7.33h-1.652v-9.817h1.652v1.09q.74-.66 1.459-1.011a3.4 3.4 0 0 1 1.521-.351q1.45 0 2.268.958.817.948.817 2.759zm5.291.194q-1.354 0-2.109-.765-.756-.773-.756-2.434v-5.441h-1.116v-1.371h1.116v-2.821h1.652v2.821h3.041v1.371h-3.041v4.667q0 .747.026 1.152t.203.755a.98.98 0 0 0 .483.466q.334.15.905.15.405 0 .782-.115.378-.123.545-.202h.097v1.486q-.465.131-.949.202-.476.079-.879.079m4.746-.194h-1.652v-9.817h1.652zm.114-11.46h-1.881v-1.714h1.881zm10.029 11.46h-1.653v-5.589q0-.678-.07-1.257-.062-.589-.246-.941a1.27 1.27 0 0 0-.563-.545q-.36-.184-.984-.184-.615 0-1.274.334a6.5 6.5 0 0 0-1.275.852v7.33h-1.652v-9.817h1.652v1.09q.738-.66 1.459-1.011a3.4 3.4 0 0 1 1.521-.351q1.45 0 2.267.958.818.948.818 2.759zm8.226-2.663v-5.387q-.615-.3-1.142-.422a4.2 4.2 0 0 0-1.037-.132q-1.258 0-1.978.923-.721.923-.721 2.645 0 1.635.545 2.488.554.852 1.784.852.642 0 1.319-.255.685-.255 1.23-.712m-5.555 4.237q.168.07.493.184.325.123.738.229.457.114.844.184t.843.071q.765 0 1.292-.202.537-.203.835-.563.282-.36.396-.835.114-.474.114-1.081v-.861q-.668.58-1.309.861-.642.273-1.609.272-1.679 0-2.672-1.248t-.993-3.586q0-1.221.343-2.162.342-.949.923-1.608a3.8 3.8 0 0 1 1.309-.976 3.8 3.8 0 0 1 1.565-.342q.765 0 1.318.184.563.175 1.125.51l.097-.422h1.556v8.701q0 2.496-1.09 3.665t-3.331 1.169q-.721 0-1.477-.114a10 10 0 0 1-1.397-.308v-1.722zm12.797-4.078-2.461 5.756h-1.283l1.547-5.756zM42.133 336.803v-2.724q-.589.053-1.494.149-.897.089-1.45.255-.66.203-1.09.624-.43.413-.431 1.16 0 .844.475 1.275.474.43 1.388.43a3 3 0 0 0 1.415-.334 6.2 6.2 0 0 0 1.187-.835m0 1.372q-.203.149-.545.421-.335.264-.65.422-.44.23-.853.352-.404.123-1.143.123-.606 0-1.151-.229a3 3 0 0 1-.958-.641 3 3 0 0 1-.633-.993 3.4 3.4 0 0 1-.237-1.257q0-1.02.43-1.732.432-.72 1.363-1.142.826-.378 1.951-.519a32 32 0 0 1 2.426-.22v-.316q0-.58-.176-.932a1.3 1.3 0 0 0-.492-.553 1.9 1.9 0 0 0-.774-.264 6 6 0 0 0-.94-.07q-.571 0-1.345.176a8.7 8.7 0 0 0-1.547.492h-.096v-1.679a15 15 0 0 1 1.31-.29 9.3 9.3 0 0 1 1.687-.158q1.01 0 1.705.158a3.3 3.3 0 0 1 1.248.571q.536.404.8 1.046.263.642.263 1.565v6.714h-1.643zm11.69 1.045H52.17v-5.589q0-.678-.07-1.257-.061-.589-.247-.941a1.27 1.27 0 0 0-.562-.545q-.36-.184-.984-.184-.615 0-1.275.334a6.5 6.5 0 0 0-1.274.852v7.33h-1.653v-9.817h1.653v1.09q.738-.66 1.459-1.011a3.4 3.4 0 0 1 1.52-.351q1.45 0 2.268.958.817.948.817 2.759zm9.878 0H62.05v-1.001q-.386.324-.668.536-.281.21-.66.386a3.5 3.5 0 0 1-.729.255 3.5 3.5 0 0 1-.879.097 3.34 3.34 0 0 1-1.485-.334 3.16 3.16 0 0 1-1.151-.976q-.484-.65-.747-1.599-.264-.958-.264-2.198 0-1.291.334-2.232.334-.95.923-1.652a3.8 3.8 0 0 1 1.292-1.002 3.6 3.6 0 0 1 1.6-.369q.738 0 1.282.167.546.158 1.152.501v-4.254H63.7zm-1.652-2.39v-5.66q-.615-.3-1.108-.413a4.5 4.5 0 0 0-1.054-.115q-1.275 0-1.995.958-.72.95-.721 2.751 0 1.732.554 2.655.553.914 1.775.914.65 0 1.31-.29.659-.3 1.239-.8m13.93 2.619q-2.346 0-3.647-1.318-1.292-1.327-1.292-3.762 0-2.4 1.257-3.815 1.257-1.423 3.287-1.423.914 0 1.617.263.704.264 1.23.826.528.563.81 1.38.28.809.28 1.987v.896H72.72q0 1.714.861 2.619t2.382.906q.545 0 1.063-.123.528-.124.95-.317.447-.202.756-.387.308-.194.51-.36h.096v1.802q-.29.114-.72.29a9 9 0 0 1-.774.264q-.483.131-.88.202a5.7 5.7 0 0 1-.983.07m1.934-6.231a4.6 4.6 0 0 0-.158-1.152 2.4 2.4 0 0 0-.404-.817 1.85 1.85 0 0 0-.748-.563q-.447-.193-1.116-.193-.66 0-1.125.202a2.6 2.6 0 0 0-.835.571 2.7 2.7 0 0 0-.562.862q-.194.465-.246 1.09zm10.907 6.002h-2.03l-2.382-3.709-2.452 3.709h-1.872l3.41-4.869-3.375-4.948h2.03l2.365 3.674 2.425-3.674h1.881l-3.392 4.834zm9.519-5.168q0 2.453-1.178 3.912-1.17 1.45-2.962 1.45-.73 0-1.292-.167a5 5 0 0 1-1.151-.519v4.114h-1.653v-13.439h1.653v1.028q.615-.553 1.362-.922a3.6 3.6 0 0 1 1.644-.378q1.687 0 2.628 1.336.948 1.335.949 3.585m-1.705.185q0-1.678-.536-2.602-.537-.931-1.74-.931-.704 0-1.363.316a5.8 5.8 0 0 0-1.24.8v5.564q.652.315 1.108.43.465.114 1.064.114 1.282 0 1.995-.94.712-.94.712-2.751m7.681 5.212q-2.346 0-3.647-1.318-1.292-1.327-1.292-3.762 0-2.4 1.257-3.815 1.256-1.423 3.287-1.423.913 0 1.617.263.703.264 1.231.826.527.563.808 1.38.282.809.281 1.987v.896h-6.802q0 1.714.861 2.619t2.382.906q.545 0 1.063-.123.528-.124.95-.317.447-.202.755-.387.307-.194.51-.36h.097v1.802q-.29.114-.721.29a9 9 0 0 1-.773.264q-.484.131-.879.202-.387.07-.985.07m1.934-6.231a4.6 4.6 0 0 0-.158-1.152 2.4 2.4 0 0 0-.404-.817 1.85 1.85 0 0 0-.748-.563q-.447-.193-1.116-.193-.658 0-1.125.202a2.6 2.6 0 0 0-.835.571 2.7 2.7 0 0 0-.562.862q-.194.465-.246 1.09zm8.481-2.04h-.087a1.7 1.7 0 0 0-.396-.061 6 6 0 0 0-.492-.018q-.668 0-1.327.29-.66.29-1.248.862v6.969h-1.653v-9.817h1.653v1.459q.905-.8 1.573-1.125.677-.334 1.309-.334.255 0 .378.018.132.008.29.035zm4.254 8.236q-1.353 0-2.109-.765-.756-.773-.756-2.434v-5.441h-1.116v-1.371h1.116v-2.821h1.652v2.821h3.041v1.371h-3.041v4.667q0 .747.027 1.152.026.404.202.755.15.308.483.466.334.15.906.15.404 0 .782-.115.377-.123.545-.202h.096v1.486a8 8 0 0 1-.949.202 5.5 5.5 0 0 1-.879.079m16.919-5.362q0 2.453-1.177 3.912-1.17 1.45-2.962 1.45-.73 0-1.292-.167a5 5 0 0 1-1.152-.519v4.114h-1.652v-13.439h1.652v1.028q.615-.553 1.363-.922a3.6 3.6 0 0 1 1.643-.378q1.687 0 2.628 1.336.95 1.335.949 3.585m-1.705.185q0-1.678-.536-2.602-.536-.931-1.74-.931-.703 0-1.362.316a5.8 5.8 0 0 0-1.24.8v5.564q.65.315 1.108.43.466.114 1.063.114 1.284 0 1.995-.94t.712-2.751m8.622-3.059h-.088a1.7 1.7 0 0 0-.395-.061 6 6 0 0 0-.492-.018 3.3 3.3 0 0 0-1.327.29q-.66.29-1.248.862v6.969h-1.653v-9.817h1.653v1.459q.904-.8 1.573-1.125.676-.334 1.309-.334.255 0 .378.018.132.008.29.035zm9.273 3.138q0 2.48-1.196 3.832-1.195 1.345-3.181 1.345-2.048 0-3.226-1.389-1.169-1.397-1.169-3.788 0-2.46 1.204-3.823 1.213-1.362 3.191-1.362 1.986 0 3.181 1.362 1.196 1.353 1.196 3.823m-1.705 0q0-1.907-.695-2.83-.695-.932-1.977-.932-1.293 0-1.995.932-.695.923-.695 2.83 0 1.846.695 2.804.702.95 1.995.949 1.274 0 1.969-.932.702-.94.703-2.821m11.636-.264q0 2.453-1.177 3.912-1.17 1.45-2.962 1.45-.73 0-1.292-.167a5 5 0 0 1-1.152-.519v4.114h-1.652v-13.439h1.652v1.028a6 6 0 0 1 1.363-.922 3.6 3.6 0 0 1 1.643-.378q1.688 0 2.628 1.336.95 1.335.949 3.585m-1.705.185q0-1.678-.536-2.602-.536-.931-1.74-.931-.704 0-1.362.316a5.8 5.8 0 0 0-1.24.8v5.564q.65.315 1.108.43.465.114 1.063.114 1.284 0 1.995-.94t.712-2.751m7.682 5.212q-2.346 0-3.647-1.318-1.292-1.327-1.292-3.762 0-2.4 1.256-3.815 1.257-1.423 3.287-1.423.915 0 1.618.263.703.264 1.23.826.528.563.809 1.38.28.809.281 1.987v.896h-6.803q0 1.714.862 2.619.861.906 2.381.906.546 0 1.064-.123.527-.124.949-.317.448-.202.756-.387.308-.194.51-.36h.096v1.802q-.29.114-.72.29a9 9 0 0 1-.774.264q-.483.131-.879.202-.386.07-.984.07m1.934-6.231a4.6 4.6 0 0 0-.159-1.152 2.4 2.4 0 0 0-.404-.817 1.84 1.84 0 0 0-.747-.563q-.448-.193-1.116-.193-.66 0-1.125.202a2.62 2.62 0 0 0-1.398 1.433q-.194.465-.246 1.09zm8.481-2.04h-.088a1.7 1.7 0 0 0-.395-.061 6 6 0 0 0-.493-.018q-.667 0-1.327.29a4.3 4.3 0 0 0-1.248.862v6.969h-1.652v-9.817h1.652v1.459q.906-.8 1.573-1.125.678-.334 1.31-.334.255 0 .378.018.132.008.29.035zm4.254 8.236q-1.354 0-2.109-.765-.756-.773-.756-2.434v-5.441h-1.117v-1.371h1.117v-2.821h1.652v2.821h3.041v1.371h-3.041v4.667q0 .747.026 1.152t.203.755a.98.98 0 0 0 .483.466q.334.15.905.15.404 0 .782-.115.378-.123.545-.202h.097v1.486q-.466.131-.949.202-.475.079-.879.079m10.6-10.011-5.283 13.439h-1.766l1.758-4.096-3.569-9.343h1.784l2.681 7.269 2.672-7.269zm18.017 9.817v-5.677q0-.677-.053-1.248-.053-.58-.219-.906a1.14 1.14 0 0 0-.501-.518q-.326-.167-.879-.167-.51 0-1.099.316-.58.308-1.204.897.009.148.018.36.017.202.017.483v6.46h-1.652v-5.677q0-.677-.053-1.248-.052-.58-.22-.906a1.13 1.13 0 0 0-.501-.518q-.324-.167-.879-.167-.536 0-1.124.334a6 6 0 0 0-1.143.852v7.33h-1.652v-9.817h1.652v1.09q.65-.651 1.283-1.002.642-.36 1.406-.36.87 0 1.538.395.677.396 1.029 1.301.747-.835 1.459-1.266.711-.43 1.547-.43.632 0 1.151.202.518.194.905.633.396.447.607 1.116.219.668.219 1.678v6.46zm9.457-2.417v-2.724q-.588.053-1.494.149-.897.089-1.45.255-.66.203-1.09.624-.43.413-.431 1.16 0 .844.475 1.275.474.43 1.389.43.782 0 1.415-.334a6.3 6.3 0 0 0 1.186-.835m0 1.372q-.202.149-.545.421a3.7 3.7 0 0 1-.65.422q-.44.23-.853.352-.404.123-1.142.123-.607 0-1.152-.229a3 3 0 0 1-.958-.641 3 3 0 0 1-.632-.993 3.4 3.4 0 0 1-.238-1.257q0-1.02.431-1.732.43-.72 1.362-1.142.826-.378 1.951-.519 1.125-.149 2.426-.22v-.316q0-.58-.176-.932a1.3 1.3 0 0 0-.492-.553 1.9 1.9 0 0 0-.773-.264 6 6 0 0 0-.941-.07q-.572 0-1.344.176a8.7 8.7 0 0 0-1.547.492h-.097v-1.679q.457-.132 1.31-.29a9.3 9.3 0 0 1 1.687-.158q1.01 0 1.705.158t1.248.571q.536.404.8 1.046t.264 1.565v6.714h-1.644zm11.69 1.045h-1.653v-5.589q0-.678-.07-1.257-.061-.589-.246-.941a1.27 1.27 0 0 0-.563-.545q-.36-.184-.984-.184-.615 0-1.274.334a6.5 6.5 0 0 0-1.275.852v7.33h-1.652v-9.817h1.652v1.09q.739-.66 1.459-1.011a3.4 3.4 0 0 1 1.521-.351q1.45 0 2.267.958.818.948.818 2.759zm7.804-2.417v-2.724q-.588.053-1.494.149-.897.089-1.45.255-.66.203-1.09.624-.43.413-.431 1.16 0 .844.475 1.275.474.43 1.389.43.782 0 1.415-.334a6.2 6.2 0 0 0 1.186-.835m0 1.372q-.201.149-.545.421a3.7 3.7 0 0 1-.65.422q-.44.23-.853.352-.404.123-1.142.123-.606 0-1.152-.229a3 3 0 0 1-.958-.641 3 3 0 0 1-.632-.993 3.4 3.4 0 0 1-.238-1.257q0-1.02.431-1.732.43-.72 1.362-1.142.826-.378 1.951-.519 1.125-.149 2.426-.22v-.316q0-.58-.176-.932a1.3 1.3 0 0 0-.492-.553 1.9 1.9 0 0 0-.773-.264 6 6 0 0 0-.941-.07q-.57 0-1.344.176a8.7 8.7 0 0 0-1.547.492h-.097v-1.679q.457-.132 1.31-.29a9.3 9.3 0 0 1 1.687-.158q1.01 0 1.705.158t1.248.571q.536.404.8 1.046t.264 1.565v6.714h-1.644zm9.879-1.618v-5.387q-.615-.3-1.142-.422a4.2 4.2 0 0 0-1.037-.132q-1.257 0-1.978.923t-.721 2.645q0 1.635.545 2.488.554.852 1.784.852.642 0 1.319-.255.685-.255 1.23-.712m-5.555 4.237q.168.07.493.184.325.123.738.229.457.114.844.184t.843.071q.765 0 1.292-.202.537-.203.835-.563.282-.36.396-.835.114-.474.114-1.081v-.861q-.668.58-1.309.861-.642.273-1.609.272-1.679 0-2.672-1.248t-.993-3.586q0-1.221.343-2.162.342-.949.923-1.608a3.8 3.8 0 0 1 1.309-.976 3.8 3.8 0 0 1 1.565-.342q.765 0 1.318.184.563.175 1.125.51l.097-.422h1.556v8.701q0 2.496-1.09 3.665t-3.331 1.169q-.721 0-1.477-.114a10 10 0 0 1-1.397-.308v-1.722zm13.861-1.345q-2.347 0-3.648-1.318-1.292-1.327-1.292-3.762 0-2.4 1.257-3.815 1.257-1.423 3.287-1.423.915 0 1.618.263.702.264 1.23.826.527.563.809 1.38.28.809.281 1.987v.896h-6.803q0 1.714.861 2.619.863.906 2.382.906.545 0 1.064-.123.527-.124.949-.317.448-.202.756-.387.308-.194.51-.36h.096v1.802q-.29.114-.72.29a9 9 0 0 1-.774.264q-.483.131-.879.202-.387.07-.984.07m1.933-6.231a4.5 4.5 0 0 0-.158-1.152 2.4 2.4 0 0 0-.404-.817 1.84 1.84 0 0 0-.747-.563q-.448-.193-1.116-.193-.66 0-1.125.202a2.62 2.62 0 0 0-1.398 1.433q-.194.465-.246 1.09zm14.423 6.002v-5.677q0-.677-.052-1.248-.054-.58-.22-.906a1.13 1.13 0 0 0-.501-.518q-.325-.167-.879-.167-.51 0-1.099.316-.58.308-1.204.897.009.148.018.36a6 6 0 0 1 .017.483v6.46h-1.652v-5.677q0-.677-.053-1.248-.053-.58-.219-.906a1.14 1.14 0 0 0-.501-.518q-.325-.167-.879-.167-.537 0-1.125.334a6 6 0 0 0-1.143.852v7.33h-1.652v-9.817h1.652v1.09q.65-.651 1.283-1.002.642-.36 1.407-.36.87 0 1.538.395.677.396 1.028 1.301.747-.835 1.459-1.266.712-.43 1.547-.43.632 0 1.151.202.52.194.905.633.396.447.607 1.116.22.668.22 1.678v6.46zm8.236.229q-2.347 0-3.648-1.318-1.292-1.327-1.292-3.762 0-2.4 1.257-3.815 1.257-1.423 3.287-1.423.915 0 1.617.263.703.264 1.231.826.527.563.808 1.38.282.809.282 1.987v.896h-6.803q0 1.714.861 2.619t2.382.906a4.6 4.6 0 0 0 1.064-.123q.527-.124.949-.317.448-.202.756-.387.308-.194.509-.36h.097v1.802q-.29.114-.721.29a9 9 0 0 1-.773.264q-.483.131-.879.202-.387.07-.984.07m1.933-6.231a4.5 4.5 0 0 0-.158-1.152 2.4 2.4 0 0 0-.404-.817 1.86 1.86 0 0 0-.747-.563q-.448-.193-1.117-.193-.659 0-1.125.202a2.6 2.6 0 0 0-.835.571 2.7 2.7 0 0 0-.562.862q-.194.465-.246 1.09zm10.995 6.002h-1.652v-5.589q0-.678-.07-1.257-.062-.589-.246-.941a1.27 1.27 0 0 0-.563-.545q-.36-.184-.984-.184-.615 0-1.275.334a6.5 6.5 0 0 0-1.274.852v7.33h-1.652v-9.817h1.652v1.09q.738-.66 1.459-1.011.72-.351 1.52-.351 1.45 0 2.268.958.817.948.817 2.759zm5.291.194q-1.353 0-2.109-.765-.756-.773-.756-2.434v-5.441h-1.116v-1.371h1.116v-2.821h1.652v2.821h3.041v1.371h-3.041v4.667q0 .747.027 1.152.026.404.202.755.15.308.483.466.334.15.906.15.404 0 .782-.115.377-.123.545-.202h.096v1.486a8 8 0 0 1-.949.202 5.5 5.5 0 0 1-.879.079m5.634-.194h-2.1v-2.504h2.1z" opacity=".6"/>
        <path fill="#fef2f2" d="M98.58 107.457s10.138-43.49 35.852-56.979 42.357-2.722 60.355 5.87c17.999 8.594 47.662 10.203 56.886 29.658s11.118 36.046-.688 50.167-23.567 13.152-53.532 18.137c-29.965 4.984-29.471 20.212-55.843 23.842-26.372 3.631-38.733-27.318-42.234-43.434-3.5-16.116-.796-27.261-.796-27.261" opacity=".7"/>
        <g clip-path="url(#b)">
            <path fill="#faa9a7" d="M109.047 147.139v1.086c0 2.637 2.145 4.775 4.791 4.775h102.418c2.646 0 4.791-2.137 4.791-4.775v-1.086c0-.815-.662-1.475-1.479-1.475H110.527c-.818 0-1.48.66-1.48 1.475M214.979 83.196v62.468h-99.862V83.199a3.64 3.64 0 0 1 3.644-3.632h92.577a3.635 3.635 0 0 1 3.641 3.629"/>
            <path fill="#fff" d="M213.411 145.663V83.194a2.07 2.07 0 0 0-2.073-2.065H118.76a2.07 2.07 0 0 0-2.072 2.065v62.469z"/>
            <path fill="#f67773" d="m176.603 145.663-1.479 2.497a1.17 1.17 0 0 1-1.01.575h-18.141c-.415 0-.799-.219-1.009-.575l-1.48-2.497z"/>
            <path fill="#fee3e2" d="M206.706 59h-83.314a2.12 2.12 0 0 0-2.126 2.118v79.695c0 1.17.951 2.119 2.126 2.119h83.314a2.123 2.123 0 0 0 2.126-2.119V61.119c0-1.17-.952-2.119-2.126-2.119"/>
            <path fill="#fff" d="M208.094 140.691v-79.45c0-.83-.675-1.502-1.507-1.502h-83.07c-.832 0-1.506.672-1.506 1.501v79.451c0 .829.674 1.501 1.506 1.501h83.07c.832 0 1.507-.672 1.507-1.501"/>
            <path fill="#ffc837" d="M125.579 62.46a.773.773 0 0 1-1.548 0 .773.773 0 0 1 1.548 0"/>
            <path fill="#3cd278" d="M127.626 62.46c0 .426-.346.771-.773.771a.773.773 0 0 1-.775-.77.773.773 0 0 1 1.548 0"/>
            <path fill="#ff5252" d="M129.68 62.46c0 .426-.346.771-.773.771a.77.77 0 0 1-.774-.77.773.773 0 0 1 1.547 0"/>
            <path fill="#fee3e2" d="M185 66.258v6.486c0 .694-.851 1.256-1.899 1.256h-53.202c-1.048 0-1.899-.561-1.899-1.256v-6.486c0-.694.851-1.258 1.899-1.258h53.202c1.048 0 1.899.563 1.899 1.258"/>
            <path fill="#7bcaff" d="M149.888 84h-20.776c-.614 0-1.112.399-1.112.89v3.22c0 .491.498.89 1.112.89h20.776c.614 0 1.112-.399 1.112-.89v-3.22c0-.491-.498-.89-1.112-.89"/>
            <path fill="#191919" fill-opacity=".1" d="M203 92.5c0 .278-.233.5-.519.5h-73.962a.51.51 0 0 1-.519-.5c0-.137.058-.262.151-.354a.53.53 0 0 1 .368-.146h73.962a.51.51 0 0 1 .518.5zM128 90.5c0-.137.058-.262.151-.354a.53.53 0 0 1 .368-.146h73.962a.51.51 0 0 1 .519.5.51.51 0 0 1-.519.5h-73.962a.51.51 0 0 1-.519-.5"/>
            <path fill="#4bd8ae" d="M149.888 103h-20.776c-.614 0-1.112.399-1.112.89v3.22c0 .491.498.89 1.112.89h20.776c.614 0 1.112-.399 1.112-.89v-3.22c0-.491-.498-.89-1.112-.89"/>
            <path fill="#191919" fill-opacity=".1" d="M203 112.5c0 .278-.233.5-.519.5h-73.962a.51.51 0 0 1-.519-.5c0-.137.058-.262.151-.354a.53.53 0 0 1 .368-.146h73.962a.51.51 0 0 1 .518.5zM174.849 114.146a.5.5 0 0 1 .151.354c0 .278-.233.5-.517.5h-45.966a.52.52 0 0 1-.366-.146.5.5 0 0 1-.151-.354c0-.276.232-.5.517-.5h45.966a.53.53 0 0 1 .366.146M128 110.5c0-.137.058-.262.151-.354a.53.53 0 0 1 .368-.146h73.962a.51.51 0 0 1 .519.5.51.51 0 0 1-.519.5h-73.962a.51.51 0 0 1-.519-.5"/>
            <path fill="#ffc73a" d="M149.888 123h-20.776c-.614 0-1.112.399-1.112.89v3.22c0 .491.498.89 1.112.89h20.776c.614 0 1.112-.399 1.112-.89v-3.22c0-.491-.498-.89-1.112-.89"/>
            <path fill="#191919" fill-opacity=".1" d="M203 131.5c0 .278-.233.5-.519.5h-73.962a.51.51 0 0 1-.519-.5c0-.137.058-.262.151-.354a.53.53 0 0 1 .368-.146h73.962a.51.51 0 0 1 .518.5zM128 129.5c0-.137.058-.262.151-.354a.53.53 0 0 1 .368-.146h73.962a.51.51 0 0 1 .519.5.51.51 0 0 1-.519.5h-73.962a.51.51 0 0 1-.519-.5"/>
        </g>
        <path stroke="#d68552" stroke-miterlimit="10" stroke-width="2.931" d="M222.277 87.796c.031.061-3.995 6.497-4.952 18.204l-1.239 14.422"/>
        <path fill="#fff" d="M216.086 96.08c.244-9.647 7.709-12.61 7.709-12.61l1.512 6.993c-3.361 1.099-4.03 5.617-4.03 5.617z"/>
        <path fill="#dbdbdb" d="m222.311 150-4.6.977v1.099h7.816V150z"/>
        <path fill="#fff" d="M237.941 87.796c-.469 7.626-2.83 26.316-2.83 26.316-5.503 0-15.306-13.66-15.306-21.35 0-7.688 4.051-8.793 5.964-9.444h9.971c1.548.542 2.201 2.222 2.201 4.478"/>
        <path fill="#d8dade" d="M224.738 83.318c-2.625 1.398-4.05 4.723-4.05 7.816h1.974c.253-4.396.579-6.675 3.632-7.816zM234.191 83.318c-2.625 1.398-4.05 4.723-4.05 7.816h1.974c.253-4.396.579-6.675 3.632-7.816z"/>
        <path fill="#191919" d="m219.805 118.042 1.221 14.96 1.282 16.839s1.954 1.384 3.237 0l1.465-10.014-.55-6.825 2.26-14.96z"/>
        <path fill="#d8dade" d="m224.263 118.201-.732 14.899 1.027 17.472c.336-.043.988-.572.988-.572l1.465-10.014-.549-6.826 2.259-14.959z" opacity=".01"/>
        <path fill="#191919" d="M236.475 118.201h-16.67V91.134h13.006l-1.567 11.483 5.231 6.35z"/>
        <path fill="#2d4a6a" d="M220.698 97.426c.295 0 .534 4.213.534 9.41 0 5.196-.239 9.41-.534 9.41s-.534-4.214-.534-9.41c0-5.197.239-9.41.534-9.41"/>
        <path fill="#dbdbdb" d="M233.905 150h-2.8l-1.16.977v1.099h5.17v-1.099z"/>
        <path fill="#191919" d="m236.477 118.201-.427 14.929-2.076 16.87s-1.527 1.312-2.809-.072l-1.466-10.015.55-6.825-2.687-14.887z"/>
        <path fill="#d8dade" d="M232.528 150.687c-1.18 0-2.137.154-2.137.344h4.274c0-.19-.956-.344-2.137-.344"/>
        <path fill="#191919" d="M223.864 83.318c-2.627 1.398-4.052 4.723-4.052 7.816h1.975c.305-4.946 1.669-6.675 4.722-7.816zM233.098 83.318c-3.682 1.14-4.051 4.723-4.051 7.816h2.058c-.121-4.6 1.273-6.445 4.639-7.816z"/>
        <path fill="#ea3934" d="M229.741 96.662c0 2.837-1.887 5.138-4.214 5.138s-4.215-2.3-4.215-5.138 1.888-2.19 4.215-2.19 4.214-.648 4.214 2.19"/>
        <path fill="#ea3934" d="m229.74 96.711.001-.05c0-2.837-1.887-2.189-4.214-2.189s-4.215-.648-4.215 2.19q.001.024.004.05z"/>
        <path stroke="#d68552" stroke-miterlimit="10" stroke-width="2.931" d="M237.943 87.796c.03.061 4.059 7.332 3.103 19.04l-12.171-7.056"/>
        <path fill="#fac52f" d="M227.617 95.395s2.871 1.008 1.963 2.72-1.854-.457-1.854-.457z"/>
        <path fill="#b89021" d="M228.678 97.61c.064-.161.715-.48.715-.48s-.559-1.157-1.784-1.735c.663.69.918 1.87 1.069 2.215"/>
        <path fill="#f4d9a6" d="m211.271 147.436-12.822-6.254-3.449 3.843 4.17 2.034.512-.283.05.557 5.346 2.608v.001l.838-.126-.234.42 4.683 2.284z"/>
        <path fill="#c3ad84" d="m198.825 141.362-3.45 3.844.25.122 3.449-3.844zM199.441 141.665l-3.449 3.844.249.122 3.449-3.844zM200.066 141.968l-3.449 3.844.249.122 3.45-3.844zM200.683 142.272l-3.449 3.843.25.122 3.449-3.844zM201.316 142.575l-3.449 3.844.25.121 3.448-3.843zM201.941 142.878l-3.449 3.843.25.122 3.449-3.843zM202.55 143.181l-3.448 3.844.07.034.512-.283 3.116-3.473zM203.168 143.484l-3.449 3.844.25.122 3.449-3.844zM210.82 147.217l-.906 5.085-.25-.122.906-5.084zM210.203 146.914l-.906 5.084-.25-.121.906-5.084zM209.578 146.611l-.907 5.084-.249-.122.906-5.083zM208.96 146.308l-.906 5.084-.249-.121.906-5.085zM208.335 146.005l-.906 5.084-.249-.121.905-5.085zM207.718 145.701l-.906 5.084-.25-.121.907-5.084zM207.097 145.398l-.906 5.084-.23-.112.886-5.093zM205.847 144.788l-.961 5.057-.23-.113.941-5.066zM205.546 144.639l-1.19 4.945-.231-.112 1.171-4.955zM203.66 143.723l-3.394 3.87.23.112 3.414-3.86zM204.157 143.961l-3.165 3.984.231.111 3.183-3.972zM204.505 144.131l-2.661 4.227.23.113 2.68-4.218zM205.268 144.504l-1.694 4.701-.23-.113 1.674-4.709z"/>
        <path fill="#c3ad84" d="m204.777 144.263-2.199 4.453.231.113 2.217-4.444zM206.479 145.095l-.848 4.765-.279.042.878-4.928z"/>
        <path fill="#c3ad84" d="M203.514 144.597c8.011 4.058 6.854 7.923 6.854 7.923l.906-5.084-12.822-6.254-1.311 1.461c1.871-.198 3.935.765 6.373 1.954"/>
        <path fill="#792027" d="M230.703 91.316a.835.835 0 1 0-.734 1.501.835.835 0 0 0 .734-1.501m-.597 1.224a.527.527 0 1 1 .462-.943.527.527 0 0 1-.462.943"/>
        <path fill="#c1c1c4" d="m206.819 141.83-1.21-.59 23.885-48.978 1.21.59z"/>
        <path fill="#f9f9f9" d="m206.823 141.83-.354-.173 23.884-48.978.355.173z"/>
        <path fill="#979597" d="m229.49 92.263-23.873 48.982.372.182 23.872-48.983z"/>
        <path fill="#c94757" d="m198.094 141.566.406-.832 2.469.174 8.976 4.379 1.658 1.839-.407.832z"/>
        <path fill="#b22e3c" d="m198.307 141.112-.221.453 13.1 6.395.221-.453z"/>
        <path fill="#e35163" d="M209.706 145.286c-.068.138-1.111.131-4.583-1.562s-4.037-2.584-3.969-2.723c.068-.14.688.35 4.159 2.043s4.461 2.102 4.393 2.242"/>
        <path fill="#e35163" d="m207.103 144.759-3.978-1.94.623-1.279 3.979 1.941z"/>
        <path fill="#c94757" d="m203.462 142.126-.337.692 3.978 1.94.338-.691z"/>
        <path fill="#b22e3c" d="m206.882 143.069-2.29-1.117a.514.514 0 0 0-.686.236l3.213 1.567a.51.51 0 0 0-.237-.686M205.277 140.981l-.511 1.047 1.95.952.511-1.048zM230.704 93.5l-1.72-.838.256-.523 1.719.838z"/>
        <path fill="#fac52f" d="m231.292 103.728-4.354-2.743 1.733-3.465 4.881 1.688z"/>
        <path fill="#fac52f" d="M228.669 97.52s.28-1.676-1.508-2.528c-1.787-.85-3.741 3.156-3.528 4.013.214.859 1.044 2.122 3.303 1.98s1.733-3.465 1.733-3.465"/>
        <path fill="#fff" d="M243.807 96.08c-.244-9.647-7.71-12.61-7.71-12.61l-1.511 6.993c3.36 1.099 4.031 5.617 4.031 5.617z"/>
        <path fill="#2d4a6a" d="M224.697 83.318c.294-.001-3.397 2.087-3.38 5.618l-.588 6.554c-.622.003-.533.526-.565-6.251-.016-3.532 4.237-5.92 4.533-5.92M233.971 83.318c.295-.001-3.397 2.087-3.38 5.618l-.589 4.535c-.621.003-.563-1.36-.563-4.232 0-3.532 4.237-5.92 4.532-5.92"/>
        <path fill="#d68552" d="M231.922 83.47c-1.372 1.122-5.481 4.205-6.267 3.243s-.434-2.12.938-3.242zM224.11 74.556c0 .984-.664 1.782-1.485 1.782-.82 0-1.484-.798-1.484-1.782s.664-1.781 1.484-1.781c.821 0 1.485.797 1.485 1.781M237.227 74.556c0 .984-.665 1.782-1.485 1.782s-1.484-.798-1.484-1.782.664-1.781 1.484-1.781 1.485.797 1.485 1.781"/>
        <path fill="#d68552" d="m230.451 84.24-3.164-.207h-.004c.008-.222.005-2.104-.002-3.761l3.176-.013c.014 3.73 0 3.906-.006 3.981"/>
        <path fill="#d8dade" d="M229.961 83.135s-2.839.703-2.69-2.863l3.176-.013s.156 2.876-.486 2.876"/>
        <path fill="#d68552" d="M236.411 70.94c0 4.809-3.301 11.31-7.374 11.31s-7.373-6.501-7.373-11.31c0-4.808 3.301-6.104 7.373-6.104 4.073 0 7.374 1.296 7.374 6.104"/>
        <path fill="#1b0900" d="M234.273 69.828c.604 2.163 1.731 3.185.811 6.964.013.144 1.233-2.811 1.558-6.964z"/>
        <path fill="#1b0900" d="M223.001 76.797c-.025.275-3.197-7.932-.316-12.688.468 1.485 1.394 1.485 1.394 1.485s1.594-5.596 8.365-4.435c-1.168.976 0 1.831 0 1.831s1.799-2.202 7.278 1.096c0 0 .591 4.11-3.256 6.179s-6.717-.497-8.274-1.474c0 0-3.591-.211-5.039 3.156-.483 1.122-.172 2.867-.152 4.85"/>
        <path fill="#dbdbdb" d="M227.031 78.965c0 .868.901 1.572 2.012 1.572 1.112 0 2.013-.704 2.013-1.572z"/>
        <path fill="#000" d="m230.017 73.845 1.008 4.236-2.291.147 1.762-.219z" opacity=".1"/>
        <path fill="#1b0900" d="M229.884 72.283c.025-.123.721-.337.721-.337l3.127 1.067s-3.924-.365-3.848-.73M228.004 72.283c-.025-.123-.721-.337-.721-.337l-3.127 1.067s3.924-.365 3.848-.73M231.802 74.668c0 .621-.174 1.125-.389 1.125s-.39-.504-.39-1.125c0-.622.175-1.125.39-1.125s.389.503.389 1.125M227.075 74.668c0 .621-.175 1.125-.389 1.125s-.389-.504-.389-1.125c0-.622.174-1.125.389-1.125.214 0 .389.503.389 1.125"/>
        <path fill="#fac52f" d="M218.801 119.811s.829-1.648-1.099-1.842-.094 1.392-.094 1.392.18 1.19.736 1.264c.231.031.457-.814.457-.814"/>
        <path fill="#fac52f" d="m213.983 113.428-.131 5.145 3.843.479 1.303-4.998z"/>
        <path fill="#fac52f" d="M217.697 119.052s.031 1.37-.635 3.311c-.239 1.094-2.579 1.533-3.174.88-.596-.653-1.406-2.869-.035-4.67s3.844.479 3.844.479"/>
    </g>
    <defs>
        <clipPath id="b">
            <path fill="#fff" d="M109.047 59h112v94h-112z"/>
        </clipPath>
        <filter id="a" width="347" height="408" x="0" y="0" color-interpolation-filters="sRGB" filterUnits="userSpaceOnUse">
            <feFlood flood-opacity="0" result="BackgroundImageFix"/>
            <feColorMatrix in="SourceAlpha" result="hardAlpha" values="0 0 0 0 0 0 0 0 0 0 0 0 0 0 0 0 0 0 127 0"/>
            <feOffset dy="10"/>
            <feGaussianBlur stdDeviation="5"/>
            <feComposite in2="hardAlpha" operator="out"/>
            <feColorMatrix values="0 0 0 0 0 0 0 0 0 0 0 0 0 0 0 0 0 0 0.02 0"/>
            <feBlend in2="BackgroundImageFix" result="effect1_dropShadow_1068_103056"/>
            <feBlend in="SourceGraphic" in2="effect1_dropShadow_1068_103056" result="shape"/>
        </filter>
    </defs>
</svg>
