<svg xmlns="http://www.w3.org/2000/svg" width="75" height="69" fill="none" viewBox="0 0 75 69">
    <g clip-path="url(#a)">
        <path fill="#140f0e" d="M53.159 24.216c1.113.193 2.52.126 3.537.792 1.13.739 1.36 2.802 1.62 4.005.578 2.683.966 5.451 1.335 8.17.25 1.836.82 4.515-.134 6.218-1.395 2.49-6.033 2.774-8.46 2.09-3.156-.892-3.436-4.446-3.414-7.19-.028-.078-.025.05-.061.067z"/>
        <path fill="#176e82" d="m54.863 45.746-.01.252c-.198 4.562-.633 11.857-.51 17.68a69 69 0 0 1-.481 9.48l-2.434.085c-.398-2.149-1.072-6.003-.843-9.452.307-4.633-.58-9.752-1.057-14.584a74 74 0 0 1-.147-1.667l-.018-.245.005-.14v-.027l.008-.226.133-4.042.017-.52 5.394-.278c.051.634.016 1.945-.057 3.684"/>
        <path fill="#176e82" d="m40.41 72.975 2.319.177q.152-.389.329-.86c.811-2.164 1.937-5.53 2.31-8.528.65-5.209 2.563-10.704 3.958-15.905l.01-.041.045-.279.062-.389.04-.255.003-.015.565-3.554.064-.408-.607-.058-4.82-.462c-.148.537-.293 1.553-.453 2.899l-.029.253c-.493 4.258-1.129 11.542-2.409 17.512-.371 1.735-.606 3.562-.787 5.196-.183 1.653-.312 3.11-.47 4.076q-.061.373-.13.64"/>
        <path fill="#bacae0" d="m46.448 42.593-.012.118c-.07.724-.177 1.817-.793 2.357-.416.365-.903.483-1.402.483h-.034l.03-.254c.445 0 .875-.102 1.232-.416.54-.474.642-1.508.708-2.193l.012-.12z"/>
        <path fill="#125a66" d="M40.54 72.335c.464-.038.975-.016 1.416-.06.218-.022.666.01 1.102.017.811-2.164 1.937-5.53 2.31-8.528.65-5.208 2.562-10.703 3.957-15.905l.011-.04.044-.28.062-.389.041-.255.002-.015h-1.038c-.582.75-.777 2.434-.982 3.456-.245 1.223-.615 2.388-1.052 3.63-.855 2.435-1.575 4.745-1.83 7.294-.207 2.072-.591 7.876-3.573 6.999-.184 1.652-.312 3.109-.47 4.076"/>
        <path fill="#bacae0" d="m54.863 45.746-.011.253c-.57-.002-1.126-.118-1.6-.477-.715-.54-.84-1.635-.922-2.36l-.014-.12.259-.027.014.12c.077.682.194 1.714.822 2.189.421.318.927.422 1.452.422"/>
        <path fill="#1c92a5" d="m48.482 47.182-.032-.084c-.306-.789.067-2.954.367-3.602l.237.103c-.277.6-.611 2.548-.388 3.327q.605-.013.836-.032l.023.25c-.173.016-.484.027-.95.036z"/>
        <path fill="#1c92a5" d="M50.16 43.351c-.46 1.952-.559 3.807-.632 5.857h-.001a74 74 0 0 1-.148-1.668l-.044.278-.01.041q.017-.353.04-.704l.002-.026.016-.227c.088-1.21.236-2.388.524-3.607l.142.031z"/>
        <path fill="#3f2935" d="M56.53 31.24c-.329 2.23-1.186 5.54-1.233 6.549l-.002.057c-.074 1.647 0 4.022-.073 5.588-.316 1.02-5.851.709-8.862.199l-.054-.01-.052-.009-.086-.015c-.94-.168-1.595-.354-1.705-.52l-.01-.018-.006-.018c-.104-.609.396-2.35.518-2.963.311-1.567.014-5.37-.024-6.138a7 7 0 0 0-.062-.623 9.7 9.7 0 0 0-.442-1.783c-.257-.745-.696-1.609-.77-2.374-.075-.749.56-3.629.68-4.406.114-.74 2.516-.684 3.019-1.257l1.285.585c.462-.13 1.113.074 1.627-.02.405-.073.81-.26 1.2-.376.351-.104.725-.405 1.055-.457.657-.104 3.468.474 4.077.689l.012.004c.127.046.222.177.294.372.472 1.304-.174 5.512-.385 6.945"/>
        <path fill="#ffb278" d="M46.89 23.776c.2.784 1.078 2.136 2.247 2.182 1.125.045 3.12-1.296 3.825-2.662-.396-.088-.821.104-1.013-.44-.114-.324-.211-.455-.26-.798v-.008l-.035-.252a8 8 0 0 1-.05-1.16c.006-.445.027-.888.015-1.271l-.008-.169-2.912 1.44-1.274.631q0 .062.006.132c.013.158.049.344.091.545.062.294.095.57.074.82-.036.432-.232.784-.705 1.01"/>
        <path fill="#e5804e" d="M47.422 21.27q0 .061.005.131c.013.158.05.344.092.545.062.294.094.57.074.82.688.69 1.307.73 1.807.61 1.245-.298 2.195-2.34 2.2-2.737h-2.904z"/>
        <path fill="#23161e" d="M56.527 31.24c-.33 2.23-1.186 5.54-1.233 6.549l-.003.057c-.073 1.647.001 4.022-.073 5.588-.05 1.074-5.779.73-8.861.199l-.054-.01-.053-.009-.086-.015c-.937-.17-1.593-.357-1.704-.52a.1.1 0 0 1-.016-.036c-.104-.609.396-2.35.518-2.963.31-1.567.014-5.37-.024-6.138a7 7 0 0 0-.063-.623 10 10 0 0 0-.326-1.427c.74.424 3.66 1.159 4.769 1.293 3.976.48 5.914-2.062 6.233-3.085.529-1.691.935-3.93 1.361-5.804.472 1.304-.173 5.512-.385 6.945"/>
        <path fill="#d8250e" d="M55.674 30.29c.775 1.313 1.028 1.794 1.284 2.299.501.99 1.01 2.072 1.366 2.964l.019.048c.27.683.481 1.988 1.214 2.428.252.152.565.201.962.089l.062-.018c.987-.313 1.32-1.248 1.278-2.44-.106-3.008-3.665-10.844-5.104-11.683 0 0-2.3 3.05-2.278 4.257.01.595 1.197 2.056 1.197 2.056"/>
        <path fill="#d8250e" d="M50.16 47.602c.96.334 2.57.038 3.615-.056.525-.048 1.001-.203 1.542-.183.466.017 1.264.327 1.68.24.029-.378-.753-11.583-.66-12.593.267-2.93 1.079-6.656 1.017-10.132-.006-.346-.548-.98-.898-1.081-.522-.152-1.21-.282-1.876-.383a41 41 0 0 0-2.067-.258l-.194-.019c.004.045-.003.21-.02.476-.073 1.177-.337 4.345-.656 8.01-.583 6.685-1.35 15.027-1.483 15.98M47.569 47.788c-.8.289-2.1-.066-2.948-.201-.427-.068-.808-.24-1.25-.242-.382-.002-1.048.272-1.383.17-.006-.374 1.447-22.863 2.417-23.368.4-.209 2.581-.517 2.581-.517a6 6 0 0 0-.007.47c.003 1.16.066 4.287.15 7.907.153 6.6.377 14.838.44 15.78"/>
        <path fill="#e25b00" d="M39.478 47.184a.46.46 0 0 1-.391-.523l.76-5.3a.46.46 0 0 1 .523-.392l7.799 1.12c.252.036.428.27.391.522l-.76 5.3a.46.46 0 0 1-.523.392z"/>
        <path fill="#e59e00" d="M39.533 46.801a.46.46 0 0 1-.392-.522l.761-5.3a.46.46 0 0 1 .523-.392l7.799 1.12c.252.035.427.27.39.522l-.76 5.3a.46.46 0 0 1-.523.392z"/>
        <path fill="#69999e" d="M47.236 42.09a.175.175 0 1 1 .05-.346.175.175 0 0 1-.05.346M46.38 41.968a.175.175 0 1 1 .05-.346.175.175 0 0 1-.05.346M45.525 41.846a.175.175 0 1 1 .05-.347.175.175 0 0 1-.05.347M44.674 41.723a.175.175 0 1 1 .05-.346.175.175 0 0 1-.05.346M43.822 41.6a.175.175 0 1 1 .05-.346.175.175 0 0 1-.05.347M42.97 41.479a.175.175 0 1 1 .05-.347.175.175 0 0 1-.05.347M42.115 41.356a.175.175 0 1 1 .05-.346.175.175 0 0 1-.05.346M41.263 41.234a.175.175 0 1 1 .05-.347.175.175 0 0 1-.05.347"/>
        <path fill="#fff" d="M47.257 41.925a.11.11 0 0 1-.092-.122l.096-.67a.108.108 0 0 1 .214.03l-.097.67a.11.11 0 0 1-.121.092M46.405 41.803a.11.11 0 0 1-.091-.122l.096-.67a.108.108 0 1 1 .213.03l-.096.67a.11.11 0 0 1-.122.092M45.553 41.68a.11.11 0 0 1-.091-.121l.096-.67a.108.108 0 0 1 .214.03l-.097.67a.11.11 0 0 1-.122.092M44.702 41.558a.11.11 0 0 1-.091-.122l.096-.67a.108.108 0 0 1 .213.03l-.096.67a.11.11 0 0 1-.122.092M43.846 41.435a.11.11 0 0 1-.091-.122l.096-.67a.108.108 0 0 1 .214.03l-.097.671a.11.11 0 0 1-.122.091M42.99 41.313a.11.11 0 0 1-.09-.122l.096-.67a.108.108 0 0 1 .213.03l-.096.67a.11.11 0 0 1-.122.092M42.14 41.19a.11.11 0 0 1-.092-.122l.096-.67a.108.108 0 1 1 .213.03l-.096.67a.11.11 0 0 1-.122.092M41.288 41.068a.11.11 0 0 1-.092-.122l.096-.67a.108.108 0 0 1 .214.03l-.096.67a.11.11 0 0 1-.122.092"/>
        <path fill="#ba562f" d="m55.559 29.64.017.05a.2.2 0 0 1-.017-.05"/>
        <path fill="#1e1714" d="m46.032 14.922 1.11.63c-.218.531-.473.997-.54 1.588-.064.564-.088 1.134 0 1.684a4.8 4.8 0 0 1-.6-1.264c-.205-.68-.269-1.981.03-2.638"/>
        <path fill="#ffb278" d="M51.96 18.633c-.01.172.065.61.056.842-.021.573-.09 1.49-.36 1.823-1.045 1.294-2.248 1.727-3.058 1.599-1.073-.17-1.62-1.214-1.78-1.5-.167-.298-.226-.787-.28-1.452-.14-1.71-.009-4.364.094-5.152l.723-.374c.66-.203 1.113-.334 1.808-.263 1.076.112 2.44.361 2.733 1.575.146.608.093 2.279.063 2.902"/>
        <path fill="#ffb278" d="M45.98 17.87c.374.026.553.586.608.875l.029 1.175c-.65.76-1.069-.743-1.127-1.206-.04-.328.034-.874.49-.843"/>
        <path fill="#e5804e" d="M46.286 18.685c-.33.118-.215.611.044.727.018-.017-.352.038-.428-.223a.7.7 0 0 1 .165-.699c-.084-.158-.303-.267-.372-.072.123-.615.607-.195.591.267M49.906 18.61c.046.028.101-.147.146-.125.333.16.636.15.854.102a.39.39 0 0 1 .336.066c-.146-.175-.224-.487-.358-.547a.7.7 0 0 0-.304-.051c-.238 0-.378.043-.522.185-.046.046-.102.301-.152.37"/>
        <path fill="#fff" d="M49.906 18.61q.07.041.137.074c.333.16.636.15.853.102.214-.048.346-.134.346-.134-.146-.174-.234-.287-.368-.347a.7.7 0 0 0-.303-.051c-.238 0-.379.043-.522.185a1.5 1.5 0 0 0-.143.17"/>
        <path fill="#2d221e" d="M50.04 18.586q-.001.05.004.098c.334.16.636.15.854.102a.9.9 0 0 0-.022-.48.7.7 0 0 0-.303-.052c-.239 0-.38.043-.523.185a1 1 0 0 0-.01.147"/>
        <path fill="#fff" d="M50.25 18.543c0 .061.025.11.056.11.03 0 .056-.049.056-.11s-.025-.11-.056-.11c-.03 0-.056.049-.056.11"/>
        <path fill="#e5804e" d="M46.727 18.651c.045.025.088-.153.132-.135.325.137.613.107.817.043.201-.063.324.041.324.041-.149-.164-.24-.47-.371-.52a.7.7 0 0 0-.291-.03c-.227.017-.358.07-.487.222-.041.05-.08.308-.124.38"/>
        <path fill="#fff" d="M46.727 18.65q.068.038.134.066c.326.137.613.106.817.042.201-.063.322-.158.322-.158-.149-.164-.238-.27-.369-.32a.7.7 0 0 0-.291-.03c-.227.016-.358.07-.487.221q-.061.074-.126.18"/>
        <path fill="#2d221e" d="M46.853 18.618a1 1 0 0 0 .01.097c.326.137.614.107.818.043a.96.96 0 0 0-.047-.479.7.7 0 0 0-.291-.03c-.227.017-.359.07-.487.222a1 1 0 0 0-.003.147"/>
        <path fill="#fff" d="M47.055 18.548c.003.061.03.109.06.107s.05-.054.046-.115c-.003-.06-.03-.108-.059-.106-.03.002-.05.053-.047.114"/>
        <path fill="#2d221e" d="M47.383 17.696c.196.039.412.047.614.094.273.063.109.41.109.41-.045.042-.641-.02-.813-.028-.238-.013-.623-.152-.836-.034.269-.42.418-.542.926-.442M50.483 17.647c-.217.035-.457.039-.682.082-.303.058-.122.408-.122.408.05.043.712-.007.903-.013.264-.008.691-.14.928-.018-.297-.425-.462-.55-1.027-.46"/>
        <path fill="#e5804e" d="m49.88 20.824-.02.009-.055.027q-.036.019-.086.041l-.051.025-.059.025q-.06.026-.13.053l-.072.026q-.037.012-.075.025l-.078.023-.04.01-.123.028-.083.016q-.084.012-.167.017c-.055.006-.11.003-.163.004-.052-.004-.104-.003-.152-.011l-.071-.009-.066-.013c-.044-.006-.082-.018-.117-.027l-.05-.012-.04-.013q-.038-.013-.059-.018l-.021-.006.016.014.047.041.035.029q.02.014.044.029l.051.032q.029.017.06.03l.068.03q.035.013.075.025c.05.019.108.027.166.038l.09.01.047.002h.046l.047-.001h.024l.023-.003.095-.01c.061-.013.124-.023.183-.043q.09-.027.17-.063.04-.019.077-.039.038-.018.072-.04l.066-.042.058-.043.053-.041.044-.041a1 1 0 0 0 .068-.07l.04-.047zM48.45 18.93c-.056.485-.086 1.014.118 1.277.338.01.73-.005.73-.005-.287.214-.88.387-1.103.087.005 0 .086-.98.256-1.36"/>
        <path fill="#fff" d="M49.25 18.93c0-.444.508-.805 1.132-.805s1.131.36 1.131.805c0 .443-.508.804-1.131.804-.624 0-1.132-.36-1.132-.805m.142 0c0 .36.444.654.99.654.545 0 .989-.294.989-.654s-.444-.655-.99-.655c-.545 0-.99.294-.99.655M46.203 18.91c0-.444.495-.805 1.103-.805s1.103.36 1.103.805c0 .443-.495.804-1.103.804s-1.103-.36-1.103-.804m.142 0c0 .36.431.654.961.654s.961-.294.961-.654-.43-.655-.96-.655-.962.294-.962.655"/>
        <path fill="#fff" d="m49.268 18.844.114-.089a.63.63 0 0 0-.44-.272.9.9 0 0 0-.684.218l.089.117a.77.77 0 0 1 .577-.187q.217.03.344.213"/>
        <path fill="#2d221e" d="M46.503 15.761c.81.54 3.478.602 4.017.36.87-.39 1.424.459 1.47.93.032.344-.344 2.559.27 2.308 0 0 1.109-1.979 1.169-3.957.015-.526-.277-.964-.742-1.318-1.145-.872-3.338-1.23-4.535-1.11-.791.078-1.988.465-2.406 1.281l-.004.01c-.244.5.392 1.25.76 1.496"/>
        <path fill="#1e1714" d="M46.503 15.762c.81.54 3.478.601 4.017.36.87-.39 1.424.458 1.47.929.032.345-.344 2.56.27 2.309 0 0 1.109-1.98 1.169-3.958.015-.525-.277-.964-.742-1.317l-.009.093c-.06.565-.426 1.072-.994 1.2-.18.04-.274-.031-.444-.056-.226-.034-.5.001-.725.024-.473.049-.93.195-1.409.235-1.175.096-2.562-.42-3.364-1.316-.244.5.392 1.25.76 1.496"/>
        <path fill="#ffb278" d="M52.887 18.235c-.457-.046-.7.539-.823.838l-.337 1.235c.64.942 1.433-.588 1.592-1.073.112-.343.125-.944-.432-1"/>
        <path fill="#e5804e" d="M52.363 19.047c.376.191.144.698-.19.771-.02-.021.417.11.558-.154.145-.272.11-.544-.066-.782.132-.154.418-.228.464-.005-.032-.684-.697-.328-.766.17"/>
        <path fill="#140f0e" d="M51.336 28.541v.058l.002.06.002.119.006.24.011.237.012.237.018.238c.048.63.133 1.266.255 1.894l.003.017a17 17 0 0 0 .55 2.084q.038.111.078.221l.077.22.083.218.082.215q.044.105.087.212l.043.105.021.052.006.013.005.013.002.006.011.025.044.1.022.05.025.053a9 9 0 0 0 .302.61l.052.098.054.096q.215.382.444.727a13 13 0 0 0 1.382 1.743q.224.236.43.438a13.4 13.4 0 0 0 1.424 1.198l1.145.868-.713-1.45s-.254-.217-.31-.267a12 12 0 0 1-1.327-1.382q-.194-.234-.392-.502a12 12 0 0 1-.783-1.196q-.188-.33-.36-.687l-.043-.089-.042-.09a8 8 0 0 1-.23-.555l-.018-.046-.019-.051-.037-.103-.01-.025-.001-.005v-.002l-.005-.013-.017-.05-.034-.1-.068-.203-.063-.205-.064-.206-.058-.209q-.03-.105-.058-.21l-.054-.212a15 15 0 0 1-.328-1.734 15 15 0 0 1-.122-1.755l-.002-.217.002-.216.004-.215.009-.208.004-.103.002-.052.001-.026.002-.028.015-.22.007-.11.003-.055.001-.007v.003l.001-.012.002-.025q.008-.098.019-.197c.058-.527.158-1.045.279-1.524s.264-.925.418-1.318c.154-.394.318-.738.478-1.02a4.7 4.7 0 0 1 .476-.695 41 41 0 0 0-2.067-.258l-.034.066a10.209 10.209 0 0 0-.518 1.294q-.234.72-.396 1.556a13 13 0 0 0-.226 2.013l-.002.07v.386"/>
        <path fill="#ffb278" d="M56.107 34.413c-.308.085-3.25-2.063-3.576-2.098-.193-.02-.663-.148-1.058-.346-.479-.24-.848-.583-.484-.965-.427-.282-.406-.878.028-.993-.43-.355-.297-.593.133-.853-.606-.804.137-.708.78-.6.277.047.535.096.66.076.494-.077.065-.29.08-.88.008-.381.16-.675.556-.566.193.395.251.968.83 1.708.288.367.925 2.538.925 2.538-.453.23 1.612 2.844 1.126 2.979"/>
        <path fill="#e5804e" d="M51.473 31.969c-.479-.24-.848-.583-.484-.965-.427-.282-.406-.878.028-.993-.43-.355-.297-.593.133-.853-.606-.804.137-.708.78-.6.089.193-.097.45-.33.576.341.237.296.79-.116.944.23.177.223.544-.056.672.356.311.308.89.045 1.219"/>
        <path fill="#d8250e" d="M54.309 33.783c.116.1 1.49 2.964 4.679 4.06.212.073.4.137.572.186.377.108.674.15.962.089l.061-.019c.988-.312 1.321-1.248 1.279-2.44a6 6 0 0 0-.25-.267c-1.186-1.204-6.051-3.236-6.63-4.172z"/>
        <path fill="#ffb278" d="m41.814 44.037 1.991.08c.203.651.97 1.056 1.196 1.318.558.64 1.056.79 1.373 1.03.029.37-.258.454-.597.396-.526-.088-.642-.505-.795-.08-.039.107-.04.345-.046.598-.015.59-.057 1.264-.666.59-.305.335-.539.413-.78-.03-.176.366-.708.283-.885-.145-.402.257-.643-.129-.773-.595-.108-.384-.14-.823-.126-.998.012-.138.418-1.404.108-2.164"/>
        <path fill="#e5804e" d="M41.832 47.2c.13.465.371.851.773.594.177.428.709.511.886.145.24.444.474.365.779.03.609.674.651 0 .666-.59-.155-.112-.415.009-.567.194-.152-.343-.65-.398-.858-.059-.117-.234-.444-.292-.606-.066-.215-.369-.736-.426-1.073-.249"/>
        <path fill="#d8250e" d="m41.828 44.565 1.697-.23.48-.065c-.173-.577-.017-2.227.148-3.977.154-1.635.316-3.357.224-4.371a3 3 0 0 0-.057-.395q-.044-.209-.093-.376l-.003-.002a4 4 0 0 0-.457-.22c-.818-.325-1.606-.244-2.27.512l-.048.055v.001c-.206.274-.328.603-.437 1.042q-.073.3-.15.677c-.068.334-.195-.206-.227.12-.337 3.379 1.172 7.08 1.193 7.23"/>
        <path fill="#d8250e" d="M42.488 27.215c.27-.824.354-1.384.78-2.1.436-.733.698-.775 1.463-1.09l.09 10.118c.04.762-.466 1.894-.809 2.566-.293.573-.69 1.275-1.225 1.664-.577.419-1.731.599-2.059-.137-.545-1.225 1.41-9.955 1.76-11.021"/>
        <path fill="#aa160b" d="M57.48 32.492c-.48-.81-1.204-2.66-1.32-3.478.816 1.98 1.609 3.09 1.919 4.137-1.32-.54-2.27-.68-2.938-1.979.867.407 1.619 1.08 2.338 1.32M43.445 43.225c0 .263.054.725.081 1.11l.481-.065c-.173-.577.218-12.498.61-14.786-.992 2.288-1.172 10.516-1.172 11.762q.002.99 0 1.979"/>
        <path fill="#301f23" d="M15.683 31.43c-.3-2.068.638-7.604.93-8.874.6-2.609 1.23-2.159 2.099-2.399l3.088 1.98c.483.699.477 1.772.48 2.578.002.957.855.157.779 1.109-.063.795.173 5.95.51 6.116-.361.252-7.688.854-7.886-.51"/>
        <path fill="#ffb278" d="M14.813 32.51c.29-.982.038-2.237 1.038-2.383.386-.056 1.082-.168 1.637-.36l-.008-.024.06.006q.198-.071.36-.157c.47-.496.462-2.026.51-2.457q.012-.096.022-.206c.051-.567.077-1.373-.172-1.798l2.78 1.327.34.161q-.023.06-.044.122a4.2 4.2 0 0 0-.181 1.38v.013l.002.014c.009.083.042.26.097.477.043.173.1.371.168.57l.012-.002c.351.668 1.348.797 2.12 1.243.365.21.144 1.361.193 1.834.18 1.739-7.765 1.36-8.934.24"/>
        <path fill="#e5804e" d="M21.155 28.148c.009.083.042.26.097.477-.655 1.187-2.511.185-2.903-1.362-.037-.144.142-.192.08-.334.053-.567.078-1.373-.171-1.798l2.78 1.327.296.283a4.2 4.2 0 0 0-.181 1.38l.001.013z"/>
        <path fill="#601e13" d="M10.629 35.753c.236.014.425.84.36 1.754-.278 3.868.843 7.936 2.299 8.017 1.005.055 1.931-.226 2.899-.32.387-.038.767-.048 1.143-.061.514-.019 1.022-.045 1.535-.159.077-.017.195-.05.27-.07l-1.44-14.483c-.622-.455-.647-.688-1.49-.704-.707-.015-1.772.126-2.473.314-.468.127-.914.272-1.3.465-.575.288-1.014.681-1.193 1.274-.31 1.029-.655 2.309-.61 3.973"/>
        <path fill="#822316" d="M10.629 35.753c.236.014.425.84.36 1.754-.278 3.868.843 7.936 2.299 8.017 1.005.055 1.931-.226 2.899-.32.387-.038.767-.048 1.143-.061.192-.424.232-.842.017-1.196-.225-.37-.809-.58-1.141-.839-.388-.3-.74-.658-1.09-1.002-1.519-1.495-1.562-3.725-1.562-5.772 0-1.456-.011-3.035-.36-4.44-.14-.568-.289-1.073-.761-1.388-.575.288-1.015.682-1.194 1.274-.31 1.029-.655 2.309-.61 3.973"/>
        <path fill="#ffb278" d="M23.593 50.531c.05-.436-.094-.947-.202-1.373-.678.116-.17-1.141-.03-1.399-.02-.082-.05-.012-.096-.044l.765-.315c.273.558.614 1.325.664 1.934.034.405-.302 1.73-.575 1.983-.246-.101-.644.056-.867-.08-.157-.097-.343-.564-.385-.725.236-.095.494-.05.726.02"/>
        <path fill="#ffb278" d="M21.956 30.342c.656-.632 2.252-.292 2.34 2.871.01.392-.286 6.802-.29 7.287-.021 2.447.212 6.95.297 7.8-.448-.056-.637.06-1.086.021-.304-1.49-2.718-16.574-1.261-17.979"/>
        <path fill="#f5dfd4" d="M14.392 33.29c.042.18.176 1.695.281 3.613.086 1.568.154 3.405.139 5.006-.01.913-.045 1.749-.12 2.414l7.975-.12c-.275-.366-.332-1.155-.28-2.546.019-.537.055-1.164.1-1.891.078-1.255.315-2.06.582-2.737q.076-.192.154-.372c.232-.54.468-1.03.634-1.662q.078-.294.13-.639c.239-1.546.299-3.765-.18-4.005l-2.1-.84c-.07.837-.927 1.537-1.499 1.5-1.139-.073-1.679-.84-2.309-1.419-.158-.145-1.705.1-3.498.936-.2.093-.609.603-.01 2.761"/>
        <path fill="#f5dfd4" d="M22.152 37.139a4.4 4.4 0 0 0 .918-.11c.427-.11.762-.332.879-.786.055-.214.063-.48.008-.81a6 6 0 0 0-.1-.438c-.2-.792-.609-2.227-.65-2.975l-.964 4.678z"/>
        <path fill="#f5dfd4" d="m23.303 31.552-.096.468c-.014-.245.011-.417.096-.468"/>
        <path fill="#e2c5b7" d="M14.492 41.896q.16.003.32.013c.814.05 1.63.212 2.448.269 1.56.107 2.818.004 4.343-.344.28-.064.547-.11.783-.177.02-.537.055-1.164.1-1.891.08-1.255.315-2.06.583-2.737.427-.11.762-.332.88-.786-.123.12-.252.24-.37.293q-.174.075-.356.12c-.314.079-6.495 1.268-8.316-.977q-.14.608-.234 1.224c-.247 1.617-.268 3.282-.181 4.993"/>
        <path fill="#822316" d="M23.157 29.505c.714.409 1.01.869 1.06 1.167.218 1.31.085 2.74-.057 3.976-.137 1.2-.415 2.396-.78 3.37a5.6 5.6 0 0 1-.853 1.448c.021-.654.107-1.145.12-1.8.367-.97.618-2.318.709-3.11.135-1.178.5-2.602.063-3.738-.39-1.012-1.712-1.076-1.88-1.421a5 5 0 0 1-.102-.277c.691-.164 1.242.111 1.72.385"/>
        <path fill="#617695" d="M11.171 70.29c4.078.96 10.421 1.256 14.941-.018.1-1.978-.426-7.06-1.113-12.47-.957-7.543-2.226-15.722-2.54-17.012 0 0-1.288.589-2.788.63-1.204.032-3.239-.095-4.272-.168l-.643-.047c-2.998 7.675-3.672 24.807-3.585 29.085"/>
        <path fill="#822316" d="M14.345 41.49c.552 0 1.052-.178 1.492-.532.663-.534 1.16-1.454 1.478-2.733.244-.984.373-2.172.364-3.347-.01-1.211-.053-2.607-.43-3.847-.085-.282-.366-.972-1.125-1.282-.679-.278-1.508-.154-2.464.367l.388.71c.721-.393 1.333-.506 1.77-.328.449.184.616.635.657.769.345 1.136.385 2.463.394 3.618.016 1.925-.377 4.506-1.54 5.442-.408.33-.882.427-1.448.299l-.178.79q.33.075.642.074"/>
        <path fill="#4f6177" d="M11.171 70.29c4.078.96 10.421 1.257 14.941-.018.1-1.977-.426-7.06-1.113-12.47-.208.19-.423.37-.662.496-.737.386-1.672.683-2.506.718-2.427.102-4.046-2.336-4.736-4.378-1.026-3.037-1.46-6.237-1.737-9.415a21 21 0 0 1-.016-3.536c.008-.09.03-.247.057-.434l-.643-.048c-2.998 7.675-3.672 24.807-3.585 29.085"/>
        <path fill="#ffb278" d="M23.678 25.567c.007-.392-.225-.755-.5-.645-.804.322-.636 1.351-.636 1.351.018.395.447.427.64.303.245-.158.489-.63.496-1.009"/>
        <path fill="#e5804e" d="M23.033 25.303c-.095.172-.268.563-.268.563-.046.31.412.29.453-.078.019-.165-.1-.32.05-.417.104-.067.197.047.24.174.043-.352-.327-.513-.475-.242"/>
        <path fill="#ffb278" d="M21.92 21.143c-1.88-1.714-4.057-.105-4.41 2.117 0 0-.266 2.068.146 3.06.312.752 1.724 2.42 3.004 2.352.608-.032 1.765-1.31 2.073-2.18.519-1.466.679-3.988-.814-5.349"/>
        <path fill="#301f23" d="M21.299 24.203c.032-.19.39-.256.698-.248.289.008.485.157.527.32-.14-.133-.404-.15-.583-.12-.185.031-.678.2-.642.048M19.763 24.333c.04-.182-.252-.32-.525-.377-.257-.055-.482.04-.578.181.172-.092.41-.052.555.014.152.069.524.331.547.182"/>
        <path fill="#f72828" d="M20.886 27.169a.83.83 0 0 1-.71-.005c-.068.192.166.344.42.335.319-.012.384-.325.29-.33"/>
        <path fill="#e52323" d="M20.795 27.115c-.098-.01-.107.069-.214.07-.12-.005-.13-.11-.253-.05-.137.062-.296-.025-.293-.027.246.268.739.346 1.054.005-.154.07-.234.004-.294.002"/>
        <path fill="#e5804e" d="M20.297 26.357q0 0 .033.006.016.004.037.007l.046.009.054.01.058.01q.03.006.062.01l.063.006.03.002h.03l.03-.001.028-.003q.014-.002.027-.005l.025-.007.024-.007.02-.01q.023-.01.039-.022l.016-.01.012-.011.026-.022q.001 0-.006.034l-.005.018-.01.02-.011.022q-.007.012-.017.023l-.022.023-.027.02a.2.2 0 0 1-.03.018q-.017.01-.035.015a.3.3 0 0 1-.075.017c-.026.004-.051.002-.077.002q-.039-.003-.075-.012a.5.5 0 0 1-.13-.048l-.05-.03a.4.4 0 0 1-.068-.058q-.022-.025-.022-.026M22.335 24.853a1.2 1.2 0 0 0-.455-.017c-.185.023-.368.1-.479.18a.6.6 0 0 0-.102.1c-.045.052-.044.145-.045.158.07.004.125-.067.198-.067a1.9 1.9 0 0 0 .757-.161c.087-.036.203-.008.357-.056-.02-.074-.134-.113-.231-.137"/>
        <path fill="#fff" d="M22.566 24.99c-.154.049-.252.094-.34.13-.11.047-.208.082-.343.115a2 2 0 0 1-.413.046q-.111 0-.216-.007s.017-.032.063-.085a.6.6 0 0 1 .102-.098c.11-.082.294-.158.479-.18.215-.03.356-.006.454.016.097.024.157.049.213.063"/>
        <path fill="#3f1411" d="M22.227 25.12c-.11.046-.209.082-.344.115a2 2 0 0 1-.413.046c-.032-.017-.09-.162-.05-.19.11-.082.293-.158.478-.181.216-.029.357-.005.455.017 0 .038-.1.167-.126.193"/>
        <path fill="#fff" d="M22.109 25.046a.074.074 0 0 1-.056.07c-.03.006-.054-.016-.053-.048 0-.032.025-.064.055-.07.03-.005.054.016.054.048"/>
        <path fill="#e5804e" d="M19.471 25.048a1.2 1.2 0 0 0-.411-.194 1.1 1.1 0 0 0-.511-.02.6.6 0 0 0-.133.05c-.062.03-.097.117-.104.128.062.031.142-.012.21.016a1.9 1.9 0 0 0 .758.148c.095.001.19.072.35.088.012-.075-.079-.156-.159-.216"/>
        <path fill="#fff" d="M19.63 25.264c-.16-.016-.268-.012-.362-.014-.12 0-.224-.006-.361-.028a2 2 0 0 1-.398-.12 3 3 0 0 1-.197-.09c.001 0 .03-.023.091-.054a.6.6 0 0 1 .133-.05c.134-.032.333-.03.511.02.21.058.33.136.412.194.08.06.125.106.172.142"/>
        <path fill="#3f1411" d="M19.265 25.25c-.12 0-.224-.005-.36-.028a2 2 0 0 1-.399-.12c-.023-.027-.02-.183.028-.194a1.1 1.1 0 0 1 .51.02c.21.059.331.136.412.195-.014.035-.157.114-.19.128"/>
        <path fill="#fff" d="M19.188 25.138a.074.074 0 0 1-.078.043c-.03-.007-.044-.036-.03-.065.012-.03.047-.049.077-.043s.044.036.03.065"/>
        <path fill="#ffb278" d="M16.698 25.619c-.03-.391.202-.77.507-.681.894.261.771 1.301.771 1.301.003.396-.462.46-.68.35-.276-.14-.568-.592-.598-.97"/>
        <path fill="#e5804e" d="M17.387 25.306c.112.165.323.543.323.543.069.305-.431.32-.498-.044-.03-.163.09-.327-.078-.413-.117-.06-.212.061-.251.192-.067-.349.326-.537.504-.278"/>
        <path fill="#1e1316" d="m19.938 21.272.63-1.08c1.274-.314 2.38.272 2.94 1.434.524 1.09-.08 3.048-.6 4.108.095-.78.124-2.854-.508-3.417-.811-.72-2.43 1.168-2.462-1.045"/>
        <path fill="#301f23" d="M17.631 25.974c.207-.63.096-1.107.294-1.778.17-.576.566-1.16 1.685-1.18.587-.01 1.478-.006 1.964-1.201l.015-.038c.291-.745.2-1.674-.78-1.92-.54-.134-1.799 0-1.799 0-.874.077-1.422.44-1.768.94-.2.29-.332.626-.42.98-.308 1.233.584 2.973.81 4.197"/>
        <path fill="#1e1316" d="M17.631 25.974c.207-.63.096-1.107.294-1.779.17-.575.566-1.16 1.685-1.18.586-.01 1.477-.005 1.964-1.2l-.135-.428c-.146.3-.188.537-.54.659-.33.114-.74.066-1.085.03-.396-.04-.766-.038-1.132.12-.307.134-.407.377-.655.567-.109-.306.068-.611.139-.893-.37.192-.524.638-.6 1.014-.317-.34-.363-1.01-.384-1.46a2.3 2.3 0 0 1 .06-.627c-.2.29-.332.626-.42.98-.309 1.233.584 2.973.81 4.197"/>
        <path fill="#fff" d="M21.07 25.226a.957.957 0 0 1 1.912 0 .957.957 0 0 1-1.912 0m.145 0a.812.812 0 0 0 1.622 0 .812.812 0 0 0-1.622 0M18.363 25.212a.957.957 0 0 1 1.912 0 .957.957 0 0 1-1.912 0m.145 0a.812.812 0 0 0 1.622 0 .812.812 0 0 0-1.622 0"/>
        <path fill="#fff" d="M20.25 25.236q.149-.229.358-.25c.157-.017.334.063.486.218l.103-.101c-.185-.19-.4-.283-.604-.262-.183.019-.343.128-.464.317z"/>
        <path fill="#ffb278" d="M14.628 52.094c.141.122.417.173.594.235.176.062.36.148.534.194-.092.226-.384.407-.61.478-.16.051-.567.244-.654.062z"/>
        <path fill="#2f4c1c" d="m18.62 46.533-7.044-1.34-.021 2.996 6.837-.696z"/>
        <path fill="#e8e2dd" d="m11.746 45.342 6.752 1.2.053.058-.429.728-6.419-1.49z"/>
        <path fill="#47722b" d="m17.603 46.534-6.522-1.176-.01 6.651 6.992 1.538z"/>
        <path fill="#6baa43" d="M17.603 46.533a.4.4 0 0 0 .05.042.7.7 0 0 0 .41.118c.154 0 .292-.04.393-.106a.5.5 0 0 0 .066-.052l.002-.002h.095v6.65c0 .1-.062.192-.163.257a.73.73 0 0 1-.393.106c-.306 0-.555-.162-.555-.363v-6.65z"/>
        <path fill="#fffbf8" d="M17.652 46.575v6.46c0 .203.195.367.435.367.12 0 .229-.041.308-.108a.34.34 0 0 0 .127-.26v-6.499a.4.4 0 0 1-.066.053.73.73 0 0 1-.393.105.7.7 0 0 1-.41-.118"/>
        <path fill="#f72e1e" d="M13.627 46.581v5.128l-1.257-.293-.003-.093V46.34z"/>
        <path fill="#ffb278" d="M12.728 50.178c.062-.236.112-.505.144-.743l1.161.44c.165.55.892 1.007.95 1.669.035.41.234.805.082.864-.402.155-.399-.7-.543-.837.024.23.21 1.467.146 1.526-.131.122-.38.075-.499-.073a.42.42 0 0 1-.28.094c-.09-.004-.178-.088-.255-.086-.105.002-.19.082-.335.04-.096-.03-.172-.103-.256-.151-.296.133-.289-.264-.354-.458-.072-.212-.1-1.75.04-2.285"/>
        <path fill="#ffb278" d="M13.623 44.9c.223.05.595.091.912.05-.186 1.873-.456 4.717-.373 5.754-.333.03-.871-.015-1.389-.025 0-.79.055-3.994 0-6.125.373.148.442.255.85.346"/>
        <path fill="#ffb278" d="M14.255 30.746c.743-.528 2.27.048 1.884 3.188-.048.389-.6 2.806-.676 3.286-.387 2.415-1.269 10.881-1.312 11.734-.434-.122-.9-.137-1.338-.243-.077-1.52-.208-16.794 1.442-17.965"/>
        <path fill="#3b3348" d="M40.776 37.454c-1.301.446-2.763.441-3.94-.23l1.897-9.41c2.996 1.547 1.48 6.944 2.043 9.64"/>
        <path fill="#68300b" d="M26.459 49.676c-.095-2.154.148-4.687.74-7.713.655-3.357 1.63-6.836 2.896-10.342l.026-.072c.449-1.243.873-2.417 1.485-3.571.09-.17.368-.606.676-1 .525-.672 1.222-1.27 1.222-1.27a.56.56 0 0 0-.533-.215c-.213.029-.573.164-1.232 1.002-.369.47-.669.95-.771 1.143-.641 1.207-1.075 2.409-1.534 3.68l-.026.072c-1.28 3.546-2.267 7.067-2.93 10.465-.593 3.031-.842 5.586-.76 7.776q.372.017.741.045"/>
        <path fill="#086a97" d="m28.946 73.233 2.548-.052c.084-2.177.252-4.789.48-7.855.293-3.952.857-10.684 1.821-14.76a23 23 0 0 1 .227-.878l.01-.04q.023-.073.043-.145l.027.114.018.08.038.16c.687 2.949 2.006 8.83 1.833 14.99-.077 2.742.573 5.257 1.028 6.91.173.627.318 1.13.384 1.475l2.366-.05c-.084-1.63-.276-4.76-.48-8.395-.219-3.93-.191-10.993-.564-16.645l-.02-.308a56 56 0 0 0-.402-4.007l-8.995-.186c-.117.05-.116 1.625-.13 4.102l-.003.302c-.026 4.134-.105 10.58-.799 16.682-.436 3.832.56 7.152.57 8.505"/>
        <path fill="#084b63" d="m34.942 49.244-.84.373.018.08.038.16c.687 2.949 2.006 8.83 1.833 14.99-.077 2.742.573 5.257 1.028 6.91l.01.015c-.175-.577-.164-1.212-.225-1.824-.346-3.462-.11-7.137-.11-10.736 0-3.155-.414-7.31-1.752-9.968"/>
        <path fill="#0b8bb7" d="M33.89 49.666a1.3 1.3 0 0 0 .235.03l.047.003q.135.005.27.005c.159.001.307.002.425.022l.133.022.032-.112c.175-.616.128-1.31.083-1.98l-.019-.296c-.023-.405-.111-.844-.196-1.268-.084-.424-.164-.825-.175-1.157l-.284.006c.012.35.093.758.18 1.19.083.418.17.85.192 1.241l.02.297c.04.614.083 1.248-.049 1.805a5 5 0 0 0-.34-.01q-.135.001-.263-.005a1 1 0 0 1-.282-.043z"/>
        <path fill="#0b8bb7" d="M33.892 49.666q-.022.465-.09.901.11-.465.226-.879.048.005.098.008l.038.162a9 9 0 0 0 .018-.399c.03-1.194-.134-2.466-.308-3.548l-.28.032c.17 1.062.332 2.306.306 3.473zM29.18 48.045q.41.043.756.043 1.087 0 1.536-.424c.284-.27.47-.812.509-1.487.035-.62-.06-1.202-.25-1.52l-.257.153c.155.261.239.804.207 1.35-.034.59-.19 1.072-.415 1.286-.322.306-1.051.407-2.084.297zM37.261 46.267c.04.675.225 1.217.509 1.486q.317.302.96.39l-.021-.31c-.33-.05-.579-.15-.733-.297-.226-.215-.381-.696-.415-1.286-.032-.546.051-1.089.207-1.35l-.258-.154c-.19.318-.285.901-.249 1.521"/>
        <path fill="#095e7c" d="m33.953 49.933.067-.245.012-.04-.077.034z"/>
        <path fill="#3b3348" d="M28.428 32.314c.171.961.3 2 .394 3.058.054.596.096 1.2.129 1.798q.038.71.062 1.406l.007.23q0 .047.003.095l.014.604.005.286.003.18.002.183.002.218.002.157v.124a64 64 0 0 1 0 .794v.03l-.002.113-.001.147-.01.677-.005.233v.043l-.007.241-.006.224-.004.123a50 50 0 0 1-.042 1.013l-.004.062-.027.46-.011.153a22 22 0 0 1-.043.499l-.022.179-.003.021-.007.044.038.016a1 1 0 0 0 .095.035l.03.01.024.007.031.009.043.011.043.01.035.008q.028.006.056.01.015.004.031.006l.012.002.034.005a3 3 0 0 0 .304.021c.674.01 1.334-.202 1.86.099 4.198 2.398 6.078 1.05 7.076.48l.006-.024.01-.049c.025-.122.047-.282.064-.471l.006-.06.012-.148q0-.027.004-.055l.01-.166.006-.097.007-.15a7 7 0 0 0 .012-.288l.003-.084v-.009l.003-.102.003-.113.002-.057.002-.108.002-.09.001-.058.001-.093v-.003l.001-.07.001-.035.002-.198v-.061l.002-.247v-.063a74 74 0 0 0-.077-3.514 39 39 0 0 1-.054-2.058c.003-.729.035-1.34.086-1.863.23-2.401.845-2.975.845-4.778 0-1.835.232-2.992-1.56-4.137-.351-.225-.79-.546-1.18-.766l-.133-.073-3.249-1.17c.039.125-.054.256-.234.39-.756.565-3.039 1.173-3.45 1.42-.595.356-.96.64-1.221 1.309-.083.21-.162.439-.22.72-.135.655-.157 1.598.146 3.295"/>
        <path fill="#ffb278" d="M38.69 22.155c.015-.237.081-.541.081-.541.108-.523.7-.919.983-.628.286.293.281.82.176 1.14-.104.315-.45.87-.875.766-.362-.09-.379-.484-.364-.737"/>
        <path fill="#e5804e" d="M38.958 21.666c.007-.057.135-.247.166-.296.24-.38.645-.25.665.171-.145-.37-.403-.084-.56.11.133.003.191.263.162.365-.05.18-.2.215-.355.24l.002-.015c.027-.133.186-.304.083-.478-.056-.095-.175.01-.163-.097"/>
        <path fill="#260f0e" d="M39.132 17.248c.504.37.72 1.044.693 1.675-.024.576-.354 2.206-.789 2.56-.033-.476-.084-2.044-.307-2.48-.15-.29-.435-.704-.713-.889z"/>
        <path fill="#ffb278" d="M33.561 21.842c.11.554.121 1.142.083 1.735-.049.78-.21 1.41-.472 1.993.217.432.594.991 1.403 1.555.467.326 1.133.596 1.707.517.679-.094.794-.638.509-1.214-.154-.312-.164-.304-.15-.655q.004-.06.006-.123c.016-.324.041-.742.053-.95l-3.133-2.991-.045-.043q.023.087.039.176"/>
        <path fill="#e5804e" d="M33.563 21.843c.11.553.169.524.13 1.116.38 2.951 2.747 2.915 2.956 2.69.015-.322.04-.74.052-.949l-3.133-2.991z"/>
        <path fill="#ffb278" d="M39.266 19.787c.113-1.874-1.585-3.966-3.733-3.337-.455.133-1.162.6-1.437 1.03 0 0-.345 1.1-.51 3.025-.088 1.043-.013 1.228.07 2.527.1 1.559 2.48 2.65 3.478 2.438 1.04-.22 1.54-1.52 1.81-2.122.38-.846.267-2.657.322-3.56"/>
        <path fill="#e5804e" d="M35.888 20.589c-.08-.15-.202-.264-.345-.246-.175.022-.362.143-.482.265-.053.054-.136.17-.194.27-.118.202-.08.327-.08.327.042.01.073-.153.122-.144.266.05.628.075.913.028q.087-.014.164-.038c.022-.125-.017-.311-.098-.462"/>
        <path fill="#fff" d="M36.002 21.237a1.4 1.4 0 0 1-.164.03 3.6 3.6 0 0 1-1.049-.046s.04-.055.094-.123c.062-.078.141-.172.194-.216a1 1 0 0 1 .482-.213c.143-.014.265.078.346.198s.12.27.097.37"/>
        <path fill="#260f0e" d="M35.906 20.92a.9.9 0 0 1-.068.347 3.6 3.6 0 0 1-.913-.022 1 1 0 0 1-.042-.147 1.7 1.7 0 0 1 .194-.216 1 1 0 0 1 .482-.213c.143-.014.265.078.345.198z"/>
        <path fill="#fff" d="M35.291 21.067c0 .042-.03.077-.067.077s-.068-.035-.068-.077c0-.043.03-.077.068-.077.037 0 .067.034.067.077"/>
        <path fill="#e5804e" d="M38.775 20.546c-.074-.15-.186-.264-.317-.246-.161.022-.333.143-.443.265-.049.054-.125.17-.178.27-.109.202-.074.327-.074.327.038.01.067-.153.112-.144.244.05.577.075.839.028q.08-.014.15-.038a.85.85 0 0 0-.09-.462"/>
        <path fill="#fff" d="M38.88 21.194a1 1 0 0 1-.15.03 3 3 0 0 1-.964-.046s.037-.055.086-.123c.057-.078.13-.172.178-.216a.87.87 0 0 1 .443-.212c.132-.015.244.076.318.197.074.12.11.27.09.37"/>
        <path fill="#260f0e" d="M38.791 20.877a1 1 0 0 1-.062.347 3 3 0 0 1-.839-.022 1 1 0 0 1-.038-.147c.056-.078.13-.172.178-.216a.87.87 0 0 1 .443-.212c.131-.015.243.076.317.197z"/>
        <path fill="#fff" d="M38.225 21.024c0 .043-.027.078-.062.078-.034 0-.061-.035-.061-.078s.027-.077.062-.077c.034 0 .061.035.061.077"/>
        <path fill="#e5804e" d="M37.29 21.61c-.053.102.01.909.062 1.065-.125.096-.432.087-.563.178.224.02.471.043.775-.087z"/>
        <path fill="#260f0e" d="M34.452 20.434c.387-.123.834-.07 1.245-.022.177.02.474.134.522-.082.222-.99-2.063-.6-1.767.104M39.275 20.447c-.338-.116-.727-.07-1.087-.026-.153.019-.412.124-.455-.08-.198-.927 1.798-.551 1.542.106"/>
        <path fill="#e5804e" d="M35.668 23.044c.443.654.962.885 1.251.885q.27-.001.475-.107c.218-.112.381-.306.488-.567 0 0-.157.045-.421.069a3.8 3.8 0 0 1-1.793-.28"/>
        <path fill="#fff" d="M35.668 23.044c.443.654.962.885 1.251.885q.27-.001.475-.107c.005-.17.032-.334.067-.498a3.8 3.8 0 0 1-1.793-.28"/>
        <path fill="#3f1616" d="M32.945 17.87c-.473 1.434.361 3.11.523 3.99.172-.312.397-.504.467-.861.106-.546-.008-1.104.385-1.323.556-.31.435-.375.635-.95.084-.242.563-.645.77-.54.43.217.954.346 1.46.423.99.15 1.91.095 1.91.095.276-.084 1.694-.496 1.662-2.37-.265.406-.62.57-1.093.536.192-.417.52-1.277.32-1.704-.134 1.041-1.66.626-2.276.54-3.438-.477-4.08.61-4.27 1.088-.03.079-.05.141-.066.177-.3-.216-.62-.223-.953-.146q.24.202.465.421c-.188.063-.413.062-.54.268.272-.084.7.057.6.356"/>
        <path fill="#160808" d="M32.945 17.87c-.473 1.433.361 3.11.523 3.99.172-.313.397-.504.467-.861.106-.546-.008-1.104.385-1.323.556-.31.435-.375.635-.951.084-.242.564-.644.77-.54.43.218.954.347 1.46.424-.356-.26-.75-.69-1.016-.797-.56-.225-1.046-.182-1.585-.012.05-.224.236-.409.31-.61-.33.016-.61.285-.857.488-.014-.217.002-.424-.07-.613-.097.076-.184.2-.277.272a1.5 1.5 0 0 0-.251-.543c-.032.078-.05.14-.067.177-.3-.217-.62-.223-.953-.146q.24.202.465.42c-.188.064-.413.063-.54.268.272-.084.7.058.6.357"/>
        <path fill="#ffb278" d="M33.831 21.951c-.014-.253-.085-.578-.085-.578-.115-.558-.747-.98-1.05-.67-.305.313-.3.875-.188 1.217.11.337.48.93.934.818.387-.095.405-.516.39-.787"/>
        <path fill="#e5804e" d="M33.547 21.43c-.007-.062-.143-.264-.177-.317-.255-.406-.688-.268-.71.183.155-.395.43-.09.597.118-.142.003-.203.28-.172.39.054.191.213.23.38.255l-.003-.015c-.029-.143-.199-.326-.089-.511.06-.102.187.01.174-.104"/>
        <path fill="#a18bbc" d="m29.016 38.577.007.23.003.094a65 65 0 0 1 .02.89l.002.18.002.183.002.218a5 5 0 0 1 1.38.056c1.142.222 2.279.558 3.403.793 1.666.348 3.336.336 4.86-.22a46 46 0 0 0-.04-.975 39 39 0 0 1-.036-.844c-1.54.576-3.097.592-4.784.24-1.124-.235-2.261-.571-3.403-.793a5 5 0 0 0-1.416-.052M28.82 35.372c.054.596.096 1.2.129 1.798.297.003.6.025.911.08 1.275.221 2.545.557 3.8.792 1.683.316 3.37.336 4.935-.075.004-.729.036-1.34.087-1.863-1.615.476-3.255.47-5.022.14-1.255-.236-2.525-.572-3.8-.793a5.6 5.6 0 0 0-1.04-.079"/>
        <path fill="#3b3348" d="M28.428 32.314c.171.961.3 2 .394 3.058.054.596.096 1.2.129 1.798q.038.71.062 1.406l.007.23q0 .047.003.095l.014.604.005.286.003.18.002.183.002.218.002.157v.948l-.002.113-.001.147q-.003.35-.01.677l-.005.233v.043l-.007.241-.006.224-.004.123q-.018.557-.042 1.013l-.004.062a34 34 0 0 1-.056.843l-.002.026-.002.025-.008.086-.006.062-.03.249-.002.021-.007.044.038.016a1 1 0 0 0 .095.035l.03.01.024.007.031.009.043.011.043.01.035.008q.028.006.056.01.015.004.031.006l.012.002.034.005a3 3 0 0 0 .304.021c.674.01 1.334-.202 1.86.099 4.198 2.398 6.078 1.05 7.076.48l.006-.024.01-.049a5 5 0 0 0 .07-.532l.012-.147.004-.055.01-.166.006-.097.007-.15.004-.083.008-.205.003-.084v-.009l.003-.102.003-.113.002-.057.002-.108.002-.09.001-.058q0-.046.002-.093v-.073l.001-.035.002-.198v-.061l.002-.247v-.063a74 74 0 0 0-.013-1.603 4 4 0 0 1-.324.24c-1.365.913-3.945 1.388-5.309.275-1.164-.95-1.812-2.507-2.19-3.954-.81-3.103.9-4.952-.179-8.19-.376-1.128-2.106.043-2.432-1.288-.135.655-.157 1.598.146 3.295" opacity=".4"/>
        <path fill="#ffb278" d="m28.883 45.302.97-.389c.598 1.124 2.417 2.184 1.315 2.75-.503.258-1.202.404-1.5.137-.516-.464-.75-1.824-.785-2.498"/>
        <path fill="#ffb278" d="M25.54 37.743c.742-.131 1.903.642 2.209 1.217 1.047 1.963 1.243 4.612 2.441 6.468l-1.061.758c-1.599-1.83-3.357-4.106-4.103-6.42-.203-.63-.387-1.864.515-2.023"/>
        <path fill="#ffb278" d="M25.593 34.088c.224-.891.526-1.475.872-2.326.252-.62.494-1.687 1.037-2.108l2.138 3.117c-.381.432-2.26 6.49-2.81 6.897-.612.455-1.295.901-1.697.332-.807-1.14.146-4.663.46-5.912M31.065 45.843c.276.184.598.492.968.562.538.103.242.546-.211.546-.317 0-.95-.436-1.038-.405l-.897-1.067c.293.126.886.168 1.178.364"/>
        <path fill="#68300b" d="M30.443 49.377c.32-.548.377-1.123.158-1.619-.227-.514-.73-.89-1.38-1.029-1.396-.299-1.638.341-1.944 1.151-.06.16-.123.325-.199.5l.44.192c.081-.187.148-.365.208-.522.292-.775.402-1.064 1.394-.852.498.107.878.382 1.042.754.155.351.108.771-.133 1.183z"/>
        <path fill="#68300b" d="M23.055 55.826c2.078 1.319 4.621 2.362 7.06 2.204l1.979-8.815c-.358-.179-.947-.37-1.636-.548q-.322-.083-.668-.16a26 26 0 0 0-2.389-.424c-.255-.032-.502-.036-.727-.076-.395-.07-.935.05-1.175.29-1.148 1.61-2.63 6.105-2.444 7.529"/>
        <path fill="#ad4b14" d="M30.67 50.275c.518-.99 1.52-1.794 1.95-.24.335 1.214-.515 6.896-1.188 8.035 0 0-1.797.341-2.158-.18-.786-1.133.835-6.547 1.395-7.615M27.824 53.422l.627.062c.11-1.109.332-1.949.766-2.9.32-.703.698-1.2 1.135-1.776l.106-.14q-.323-.084-.668-.161c-.418.552-.812 1.084-1.146 1.816-.458 1.005-.703 1.931-.82 3.099M25.008 52.523l.626.062c.11-1.109.333-1.95.767-2.9.287-.632.62-1.097 1.002-1.602q-.384-.048-.728-.076a8 8 0 0 0-.848 1.416c-.458 1.005-.703 1.932-.82 3.1"/>
        <path fill="#441e08" d="M31.012 51.102a.6.6 0 0 0 .409.743l.057.017a.6.6 0 0 0 .743-.408l.235-.806a.6.6 0 0 0-.409-.744l-.057-.016a.6.6 0 0 0-.743.408z"/>
        <path fill="#68300b" d="M31.277 50.643c1.179-1.858 2.227-4.208 3.194-7.158 1.072-3.273 1.902-6.803 2.468-10.493l.012-.077c.2-1.308.39-2.543.39-3.85 0-.193-.044-.708-.138-1.2-.16-.84-.521-1.695-.521-1.695a.64.64 0 0 1 .615.06c.189.126.463.414.667 1.462.114.588.157 1.154.157 1.373 0 1.366-.194 2.63-.4 3.969l-.011.076c-.573 3.732-1.413 7.304-2.499 10.617-.968 2.955-2.02 5.329-3.207 7.224q-.36-.16-.727-.308"/>
        <path fill="#3b3348" d="M27.745 29.068c.566-.969 2.154-3.21 3.186-1.409.39.68.34 1.86.191 2.591-.232 1.148-.52 2.42-1.069 3.487L29.13 36.1c-1.014-.21-2.866-.773-3.814-1.244.552-1.995 1.428-4.077 2.43-5.79"/>
        <path fill="#ffb278" d="M43.088 40.156c-.219.627-1.067.674-1.44.608-.49-.087-1.014-.464-1.379-1.106z"/>
        <path fill="#bababa" d="M31.523 39.902c0 .213.173.386.386.386h14.877a.386.386 0 1 0 0-.772H31.91a.386.386 0 0 0-.386.386"/>
        <path fill="#bababa" d="m38.587 32.595-1.336 6.844c-.05.254.116.46.37.46h9.186a.6.6 0 0 0 .558-.46l1.464-6.844c.054-.254-.11-.46-.368-.46h-9.318a.59.59 0 0 0-.556.46"/>
        <path fill="#e2e2e2" d="m39.054 32.595-1.342 6.844c-.05.254.115.46.37.46h8.727a.6.6 0 0 0 .557-.46l1.464-6.844c.054-.254-.11-.46-.368-.46H39.61a.59.59 0 0 0-.556.46"/>
        <path fill="#bababa" d="M42.846 34.984c-.068.33.22.597.642.597s.82-.267.887-.597-.22-.597-.642-.597-.82.267-.887.597"/>
        <path fill="#ffb278" d="M42.35 39.758c-.195-.414-.007-1.232.583-.571.554.62-.168 1.328-.368 1.452-.308.19-1.335.042-.214-.88"/>
        <path fill="#ffb278" d="M43.08 39.66c-.166-.474-.006-1.411.494-.654.47.712-.141 1.522-.311 1.664-.26.219-1.131.047-.182-1.01"/>
        <path fill="#ffb278" d="M43.643 39.703c-.166-.475-.007-1.412.493-.655.47.712-.14 1.522-.31 1.665-.261.218-1.132.046-.183-1.01"/>
        <path fill="#ffb278" d="M44.214 39.701c-.167-.475-.008-1.412.493-.654.47.712-.141 1.522-.311 1.664-.26.218-1.131.047-.182-1.01"/>
    </g>
    <defs>
        <clipPath id="a">
            <path fill="#fff" d="M.5 6.5h74v51H.5z"/>
        </clipPath>
    </defs>
</svg>
