<svg xmlns="http://www.w3.org/2000/svg" width="63" height="43" fill="none" viewBox="0 0 63 43">
    <path fill="url(#a)" d="M25.28 33.228H1.375v4.636H25.28z"/>
    <path fill="#263238" d="M23.744 33.306c-.055 0-.103 1.007-.103 2.25s.048 2.247.103 2.247.107-1.006.107-2.247-.048-2.25-.107-2.25M21.53 33.306c-.059 0-.104 1.007-.104 2.25s.045 2.247.104 2.247.103-1.006.103-2.247-.048-2.25-.104-2.25M19.346 33.306c-.058 0-.104 1.007-.104 2.25s.046 2.247.104 2.247.103-1.006.103-2.247-.049-2.25-.103-2.25M17.158 33.306c-.058 0-.103 1.007-.103 2.25s.045 2.247.103 2.247c.059 0 .104-1.006.104-2.247s-.045-2.25-.104-2.25M14.979 33.306c-.059 0-.104 1.007-.104 2.25s.045 2.247.104 2.247.103-1.007.103-2.247-.045-2.25-.103-2.25M12.799 33.306c-.058 0-.104 1.007-.104 2.25s.046 2.247.104 2.247.104-1.006.104-2.247-.04-2.25-.104-2.25M10.627 33.306c-.058 0-.104 1.007-.104 2.25s.046 2.247.104 2.247.104-1.006.104-2.247-.046-2.25-.104-2.25M8.444 33.306c-.059 0-.104 1.007-.104 2.25s.045 2.247.104 2.247.103-1.006.103-2.247-.045-2.25-.103-2.25M6.26 33.306c-.058 0-.104 1.007-.104 2.25s.046 2.247.104 2.247.104-1.006.104-2.247-.046-2.25-.104-2.25M4.084 33.306c-.058 0-.104 1.007-.104 2.25s.046 2.247.104 2.247.104-1.006.104-2.247-.046-2.25-.104-2.25M1.908 33.306c-.058 0-.103 1.007-.103 2.25s.045 2.247.103 2.247c.059 0 .104-1.006.104-2.247s-.049-2.25-.104-2.25"/>
    <path fill="#000" d="M24.888 33.235a60.5 60.5 0 0 1-23.138 0z" opacity=".3"/>
    <path fill="url(#b)" d="M23.917 37.803H.012v4.636h23.905z"/>
    <path fill="#263238" d="M22.377 37.893c-.058 0-.104 1.007-.104 2.247s.046 2.267.104 2.267.104-1.007.104-2.267-.049-2.247-.104-2.247M20.158 37.893c-.058 0-.103 1.007-.103 2.247s.045 2.267.103 2.267c.059 0 .104-1.007.104-2.267s-.045-2.247-.104-2.247M17.97 37.893c-.054 0-.103 1.007-.103 2.247s.049 2.267.104 2.267.103-1.007.103-2.267-.029-2.247-.103-2.247M15.783 37.893c-.058 0-.103 1.007-.103 2.247s.045 2.267.103 2.267c.059 0 .104-1.007.104-2.267s-.032-2.247-.104-2.247M13.611 37.893c-.058 0-.103 1.007-.103 2.247s.045 2.267.103 2.267c.059 0 .104-1.007.104-2.267s-.045-2.247-.104-2.247M11.436 37.893c-.059 0-.104 1.007-.104 2.247s.045 2.267.103 2.267c.059 0 .104-1.007.104-2.267s-.045-2.247-.104-2.247M9.256 37.893c-.058 0-.104 1.007-.104 2.247s.046 2.267.104 2.267.104-1.007.104-2.267-.056-2.247-.104-2.247M7.08 37.893c-.058 0-.103 1.007-.103 2.247s.045 2.267.103 2.267.104-1.007.104-2.267-.046-2.247-.104-2.247M4.892 37.893c-.058 0-.103 1.007-.103 2.247s.045 2.267.103 2.267c.059 0 .104-1.007.104-2.267s-.045-2.247-.104-2.247M2.72 37.893c-.058 0-.103 1.007-.103 2.247s.046 2.267.104 2.267.103-1.007.103-2.267-.045-2.247-.103-2.247M.541 37.893c-.058 0-.104 1.007-.104 2.247s.046 2.267.104 2.267.104-1.007.104-2.267-.046-2.247-.104-2.247"/>
    <path fill="#000" d="M23.552 37.81a68.4 68.4 0 0 1-23.142 0z" opacity=".3"/>
    <path fill="#263238" d="M0 37.82c0 .054 5.342.103 11.933.103s11.93-.049 11.93-.104-5.342-.103-11.93-.103S0 37.76 0 37.819"/>
    <path fill="url(#c)" d="M43.753 23.804H19.848v4.82h23.905z"/>
    <path fill="#263238" d="M42.209 23.885c-.058 0-.104 1.05-.104 2.337 0 1.289.046 2.338.104 2.338s.104-1.046.104-2.337-.05-2.338-.104-2.338M39.994 23.885c-.058 0-.103 1.049-.103 2.337s.045 2.338.103 2.338c.059 0 .104-1.046.104-2.338 0-1.291-.046-2.337-.104-2.337M37.8 23.885c-.056 0-.105 1.05-.105 2.337 0 1.289.049 2.338.104 2.338s.104-1.046.104-2.337-.046-2.338-.104-2.338M35.62 23.885c-.056 0-.104 1.049-.104 2.337s.048 2.338.103 2.338c.056 0 .104-1.046.104-2.338 0-1.291-.045-2.337-.104-2.337M33.443 23.885c-.055 0-.103 1.049-.103 2.337s.048 2.338.103 2.338.104-1.046.104-2.338c0-1.291-.046-2.337-.104-2.337M31.268 23.885c-.056 0-.104 1.049-.104 2.337s.049 2.338.103 2.338c.056 0 .104-1.046.104-2.338 0-1.291-.045-2.337-.104-2.337M29.096 23.885c-.058 0-.104 1.049-.104 2.337s.046 2.338.104 2.338.103-1.046.103-2.338c0-1.291-.055-2.337-.103-2.337M26.908 23.885c-.058 0-.103 1.049-.103 2.337s.045 2.338.103 2.338.104-1.046.104-2.338c0-1.291-.046-2.337-.104-2.337M24.728 23.885c-.058 0-.103 1.05-.103 2.337 0 1.289.045 2.338.103 2.338s.104-1.046.104-2.337-.046-2.338-.104-2.338M22.55 23.885c-.06 0-.105 1.049-.105 2.337s.046 2.338.104 2.338.104-1.046.104-2.338c0-1.291-.033-2.337-.104-2.337M20.37 23.885c-.06 0-.104 1.049-.104 2.337s.045 2.338.103 2.338c.059 0 .104-1.046.104-2.338 0-1.291-.045-2.337-.104-2.337"/>
    <path fill="url(#d)" d="M40.952 28.589H17.047v4.636h23.905z"/>
    <path fill="#263238" d="M39.412 28.67c-.058 0-.103 1.003-.103 2.246s.045 2.247.103 2.247c.059 0 .104-1.006.104-2.246s-.058-2.247-.104-2.247M37.19 28.67c-.058 0-.104 1.003-.104 2.247s.045 2.246.104 2.246.103-1.006.103-2.246-.042-2.247-.103-2.247M35.002 28.67c-.055 0-.104 1.003-.104 2.246s.049 2.247.104 2.247.104-1.006.104-2.246-.046-2.247-.104-2.247M32.826 28.67c-.055 0-.103 1.003-.103 2.246s.048 2.247.103 2.247c.056 0 .104-1.006.104-2.246s-.045-2.247-.104-2.247M30.646 28.67c-.055 0-.103 1.003-.103 2.247s.049 2.247.103 2.247c.055 0 .104-1.007.104-2.247s-.032-2.247-.104-2.247M28.46 28.67c-.059 0-.105 1.003-.105 2.247s.046 2.246.104 2.246.104-1.006.104-2.246-.045-2.247-.104-2.247M26.287 28.67c-.058 0-.103 1.003-.103 2.247s.045 2.246.103 2.246c.059 0 .104-1.006.104-2.246s-.045-2.247-.104-2.247M24.107 28.67c-.058 0-.103 1.003-.103 2.247s.045 2.246.103 2.246c.059 0 .104-1.006.104-2.246s-.045-2.247-.104-2.247M21.928 28.67c-.059 0-.104 1.003-.104 2.247s.045 2.247.104 2.247.103-1.007.103-2.247-.058-2.247-.103-2.247M19.752 28.67c-.058 0-.104 1.003-.104 2.246s.046 2.247.104 2.247.104-1.006.104-2.246-.045-2.247-.104-2.247M17.572 28.67c-.058 0-.103 1.003-.103 2.247s.045 2.246.103 2.246.104-1.006.104-2.246-.045-2.247-.104-2.247"/>
    <path fill="#000" d="M40.563 28.596a68.4 68.4 0 0 1-23.141 0z" opacity=".3"/>
    <path fill="#263238" d="M17.035 28.605c0 .058 5.342.104 11.933.104s11.93-.046 11.93-.104-5.326-.1-11.93-.1-11.933.042-11.933.1"/>
    <path fill="url(#e)" d="M42.483 33.228H18.578v4.636h23.905z"/>
    <path fill="#263238" d="M40.948 33.306c-.056 0-.104 1.007-.104 2.25s.048 2.247.103 2.247c.056 0 .107-1.007.107-2.247s-.048-2.25-.107-2.25M38.729 33.306c-.059 0-.104 1.007-.104 2.25s.045 2.247.104 2.247.103-1.007.103-2.247-.048-2.25-.103-2.25M36.541 33.306c-.058 0-.103 1.007-.103 2.25s.045 2.247.103 2.247.104-1.007.104-2.247-.049-2.25-.104-2.25M34.362 33.306c-.059 0-.104 1.007-.104 2.25s.045 2.247.104 2.247.103-1.007.103-2.247-.045-2.25-.103-2.25M32.182 33.306c-.058 0-.104 1.007-.104 2.25s.045 2.247.104 2.247.104-1.007.104-2.247-.046-2.25-.104-2.25M30.002 33.306c-.058 0-.104 1.007-.104 2.25s.046 2.247.104 2.247.103-1.007.103-2.247-.038-2.25-.103-2.25M27.823 33.306c-.059 0-.104 1.007-.104 2.25s.045 2.247.104 2.247.103-1.007.103-2.247-.045-2.25-.103-2.25M25.647 33.306c-.059 0-.104 1.007-.104 2.25s.045 2.247.104 2.247.103-1.007.103-2.247-.045-2.25-.103-2.25M23.467 33.306c-.058 0-.104 1.007-.104 2.25s.046 2.247.104 2.247c.059 0 .104-1.007.104-2.247s-.046-2.25-.104-2.25M21.283 33.306c-.058 0-.103 1.007-.103 2.25s.045 2.247.103 2.247c.059 0 .104-1.007.104-2.247s-.045-2.25-.104-2.25M19.112 33.306c-.059 0-.104 1.007-.104 2.25s.045 2.247.104 2.247.103-1.007.103-2.247-.049-2.25-.103-2.25"/>
    <path fill="#000" d="M42.099 33.235a60.5 60.5 0 0 1-23.138 0z" opacity=".3"/>
    <path fill="#263238" d="M18.57 33.244c0 .059 5.342.104 11.93.104s11.933-.045 11.933-.104-5.341-.104-11.933-.104-11.93.046-11.93.104"/>
    <path fill="url(#f)" d="M41.116 37.803H17.211v4.636h23.905z"/>
    <path fill="#263238" d="M39.58 37.893c-.058 0-.103 1.007-.103 2.247s.045 2.266.103 2.266.104-1.006.104-2.266-.049-2.247-.104-2.247M37.362 37.893c-.059 0-.104 1.007-.104 2.247s.045 2.266.104 2.266.103-1.006.103-2.266-.045-2.247-.103-2.247M35.17 37.893c-.055 0-.104 1.007-.104 2.247s.049 2.266.104 2.266.104-1.006.104-2.266-.03-2.247-.104-2.247M32.987 37.893c-.059 0-.104 1.007-.104 2.247s.045 2.266.104 2.266.103-1.006.103-2.266-.032-2.247-.103-2.247M30.81 37.893c-.058 0-.103 1.007-.103 2.247s.045 2.266.104 2.266.103-1.006.103-2.266-.045-2.247-.104-2.247M28.635 37.893c-.058 0-.104 1.007-.104 2.247s.046 2.266.104 2.266.103-1.006.103-2.266-.045-2.247-.103-2.247M26.459 37.893c-.058 0-.104 1.007-.104 2.247s.046 2.266.104 2.266.104-1.006.104-2.266-.055-2.247-.104-2.247M24.276 37.893c-.058 0-.104 1.007-.104 2.247s.045 2.266.104 2.266.103-1.006.103-2.266-.045-2.247-.103-2.247M22.1 37.893c-.059 0-.104 1.007-.104 2.247s.045 2.266.104 2.266.103-1.006.103-2.266-.045-2.247-.104-2.247M19.92 37.893c-.058 0-.104 1.007-.104 2.247s.046 2.266.104 2.266.104-1.006.104-2.266-.046-2.247-.104-2.247M17.74 37.893c-.058 0-.103 1.007-.103 2.247s.045 2.266.103 2.266.104-1.006.104-2.266-.046-2.247-.104-2.247"/>
    <path fill="#000" d="M40.754 37.809a68.4 68.4 0 0 1-23.14 0z" opacity=".3"/>
    <path fill="#263238" d="M17.203 37.819c0 .055 5.342.103 11.933.103s11.93-.048 11.93-.103-5.342-.103-11.93-.103-11.933.045-11.933.103"/>
    <g fill="#000" opacity=".3">
        <path d="M19.847 23.804v4.785h-2.8v4.636h23.905v-4.6h2.8v-4.82zM18.577 37.803h-1.366v4.636h23.905v-4.575h1.366v-4.636H18.577z"/>
    </g>
    <path fill="url(#g)" d="M61.081 9.531H37.984v4.658h23.097z"/>
    <path fill="#263238" d="M59.592 9.61c-.053 0-.1 1.013-.1 2.258s.047 2.258.1 2.258.1-1.01.1-2.258-.043-2.258-.1-2.258M57.46 9.61c-.057 0-.1 1.013-.1 2.258s.043 2.258.1 2.258c.056 0 .1-1.01.1-2.258s-.047-2.258-.1-2.258M55.342 9.61c-.056 0-.1 1.013-.1 2.258s.044 2.258.1 2.258.1-1.01.1-2.258-.044-2.258-.1-2.258M53.24 9.61c-.055 0-.1 1.013-.1 2.258s.045 2.258.1 2.258c.057 0 .1-1.01.1-2.258s-.04-2.258-.1-2.258M51.131 9.61c-.056 0-.1 1.013-.1 2.258s.044 2.258.1 2.258.1-1.01.1-2.258-.043-2.258-.1-2.258M49.026 9.61c-.057 0-.1 1.013-.1 2.258s.043 2.258.1 2.258c.056 0 .1-1.01.1-2.258s-.044-2.258-.1-2.258M46.92 9.61c-.056 0-.1 1.013-.1 2.258s.044 2.258.1 2.258.1-1.01.1-2.258-.043-2.258-.1-2.258M44.819 9.61c-.057 0-.1 1.013-.1 2.258s.043 2.258.1 2.258c.056 0 .1-1.01.1-2.258s-.044-2.258-.1-2.258M42.71 9.61c-.057 0-.1 1.013-.1 2.258s.043 2.258.1 2.258c.056 0 .1-1.01.1-2.258s-.044-2.258-.1-2.258M40.608 9.61c-.056 0-.1 1.013-.1 2.258s.043 2.258.1 2.258c.056 0 .1-1.01.1-2.258s-.044-2.258-.1-2.258M38.499 9.61c-.057 0-.1 1.013-.1 2.258s.043 2.258.1 2.258c.056 0 .1-1.01.1-2.258s-.047-2.258-.1-2.258"/>
    <path fill="url(#h)" d="M60.991 14.277H37.086v4.82H60.99z"/>
    <path fill="#263238" d="M59.451 14.357c-.055 0-.103 1.05-.103 2.338s.048 2.337.103 2.337.104-1.046.104-2.337-.045-2.338-.104-2.338M57.237 14.357c-.059 0-.104 1.05-.104 2.338s.045 2.337.104 2.337.103-1.045.103-2.337-.048-2.338-.103-2.338M55.045 14.357c-.058 0-.104 1.05-.104 2.338s.046 2.337.104 2.337c.059 0 .104-1.045.104-2.337s-.046-2.338-.104-2.338M52.869 14.357c-.058 0-.103 1.05-.103 2.338s.045 2.337.103 2.337.103-1.045.103-2.337-.042-2.338-.103-2.338M50.69 14.357c-.058 0-.104 1.05-.104 2.338s.045 2.337.104 2.337.104-1.045.104-2.337-.046-2.338-.104-2.338M48.51 14.357c-.058 0-.104 1.05-.104 2.338s.046 2.337.104 2.337.103-1.045.103-2.337-.045-2.338-.103-2.338M46.334 14.357c-.058 0-.104 1.05-.104 2.338s.046 2.337.104 2.337.104-1.045.104-2.337-.046-2.338-.104-2.338M44.15 14.357c-.058 0-.103 1.05-.103 2.338s.045 2.337.104 2.337.103-1.045.103-2.337-.045-2.338-.103-2.338M41.97 14.357c-.057 0-.103 1.05-.103 2.338s.046 2.337.104 2.337.104-1.045.104-2.337-.046-2.338-.104-2.338M39.791 14.357c-.058 0-.103 1.05-.103 2.338s.045 2.337.103 2.337.104-1.046.104-2.337-.045-2.338-.104-2.338M37.616 14.357c-.059 0-.104 1.05-.104 2.338s.045 2.337.103 2.337c.059 0 .104-1.045.104-2.337s-.049-2.338-.104-2.338"/>
    <path fill="#000" d="M60.607 14.283a87.2 87.2 0 0 1-23.138 0z" opacity=".3"/>
    <path fill="#263238" d="M37.066 14.293c0 .058 5.342.104 11.93.104s11.933-.046 11.933-.104-5.341-.104-11.933-.104-11.93.045-11.93.104"/>
    <path fill="url(#i)" d="M60.214 0H37.117v4.658h23.097z"/>
    <path fill="#263238" d="M58.725.079c-.053 0-.1 1.013-.1 2.258s.047 2.258.1 2.258.1-1.01.1-2.258-.043-2.258-.1-2.258M56.585.079c-.057 0-.1 1.013-.1 2.258s.043 2.258.1 2.258c.056 0 .1-1.01.1-2.258s-.047-2.258-.1-2.258M54.471.078c-.056 0-.1 1.014-.1 2.259s.044 2.258.1 2.258.1-1.01.1-2.258-.044-2.259-.1-2.259M52.366.079c-.056 0-.1 1.013-.1 2.258s.043 2.258.1 2.258c.056 0 .1-1.01.1-2.258s-.04-2.258-.1-2.258M50.264.079c-.056 0-.1 1.013-.1 2.258s.044 2.258.1 2.258.1-1.01.1-2.258S50.32.08 50.264.08M48.155.079c-.057 0-.1 1.013-.1 2.258s.043 2.258.1 2.258c.056 0 .1-1.01.1-2.258S48.211.08 48.155.08M46.053.079c-.056 0-.1 1.013-.1 2.258s.044 2.258.1 2.258.1-1.01.1-2.258S46.11.08 46.053.08M43.944.078c-.056 0-.1 1.014-.1 2.259s.043 2.258.1 2.258c.056 0 .1-1.01.1-2.258S44 .078 43.944.078M41.842.079c-.056 0-.1 1.013-.1 2.258s.044 2.258.1 2.258.1-1.01.1-2.258S41.9.08 41.843.08M39.733.079c-.056 0-.1 1.013-.1 2.258s.043 2.258.1 2.258c.056 0 .1-1.01.1-2.258S39.79.08 39.733.08M37.631.079c-.056 0-.1 1.013-.1 2.258s.044 2.258.1 2.258.1-1.01.1-2.258-.046-2.258-.1-2.258"/>
    <path fill="url(#j)" d="M60.116 4.745H36.211v4.821h23.905z"/>
    <path fill="#263238" d="M58.58 4.826c-.055 0-.103 1.049-.103 2.337s.048 2.338.103 2.338.104-1.046.104-2.338c0-1.291-.046-2.337-.104-2.337M56.37 4.826c-.059 0-.104 1.049-.104 2.337s.045 2.338.103 2.338c.059 0 .104-1.046.104-2.338 0-1.291-.049-2.337-.104-2.337M54.174 4.826c-.058 0-.104 1.049-.104 2.337s.046 2.338.104 2.338.104-1.046.104-2.338c0-1.291-.046-2.337-.104-2.337M51.998 4.826c-.058 0-.103 1.049-.103 2.337s.045 2.338.103 2.338.104-1.046.104-2.338c0-1.291-.043-2.337-.104-2.337M49.823 4.826c-.059 0-.104 1.049-.104 2.337s.045 2.338.103 2.338c.059 0 .104-1.046.104-2.338 0-1.291-.045-2.337-.104-2.337M47.639 4.826c-.058 0-.104 1.049-.104 2.337s.046 2.338.104 2.338.103-1.046.103-2.338c0-1.291-.045-2.337-.103-2.337M45.463 4.826c-.058 0-.104 1.049-.104 2.337s.046 2.338.104 2.338c.059 0 .104-1.046.104-2.338 0-1.291-.045-2.337-.104-2.337M43.28 4.826c-.059 0-.104 1.049-.104 2.337s.045 2.338.103 2.338c.059 0 .104-1.046.104-2.338 0-1.291-.045-2.337-.104-2.337M41.103 4.826c-.058 0-.103 1.049-.103 2.337s.045 2.338.103 2.338.104-1.046.104-2.338c0-1.291-.046-2.337-.104-2.337M38.924 4.826c-.058 0-.104 1.049-.104 2.337s.046 2.338.104 2.338.104-1.046.104-2.338c0-1.291-.045-2.337-.104-2.337M36.748 4.826c-.058 0-.103 1.049-.103 2.337s.045 2.338.103 2.338.104-1.046.104-2.338c0-1.291-.049-2.337-.104-2.337"/>
    <path fill="#000" d="M59.732 4.752a87.2 87.2 0 0 1-23.138 0zM61.224 9.554a87.2 87.2 0 0 1-23.138 0z" opacity=".3"/>
    <path fill="#263238" d="M36.195 4.762c0 .058 5.342.103 11.93.103s11.933-.045 11.933-.103c0-.059-5.341-.104-11.933-.104s-11.93.045-11.93.104M38.008 9.553c0 .059 5.197.104 11.606.104 6.41 0 11.61-.045 11.61-.104s-5.198-.103-11.61-.103-11.606.045-11.606.103"/>
    <path fill="url(#k)" d="M60.452 19.016H36.547v4.82h23.905z"/>
    <path fill="#263238" d="M58.92 19.1c-.058 0-.104 1.046-.104 2.334s.046 2.338.104 2.338.104-1.046.104-2.338c0-1.291-.049-2.334-.104-2.334M56.697 19.1c-.058 0-.103 1.046-.103 2.334s.045 2.338.103 2.338c.059 0 .104-1.046.104-2.338 0-1.291-.045-2.334-.104-2.334M54.51 19.1c-.055 0-.104 1.046-.104 2.334s.049 2.338.104 2.338.103-1.046.103-2.338c0-1.291-.044-2.334-.103-2.334M52.33 19.1c-.058 0-.103 1.046-.103 2.334s.045 2.338.103 2.338.104-1.046.104-2.338c0-1.291-.045-2.334-.104-2.334M50.15 19.1c-.058 0-.103 1.046-.103 2.334s.045 2.338.104 2.338.103-1.046.103-2.338c0-1.291-.045-2.334-.103-2.334M47.97 19.1c-.057 0-.103 1.046-.103 2.334s.046 2.338.104 2.338.104-1.046.104-2.338c0-1.291-.046-2.334-.104-2.334M45.807 19.1c-.059 0-.104 1.046-.104 2.334s.045 2.338.104 2.338.103-1.046.103-2.338c0-1.291-.058-2.334-.103-2.334M43.615 19.1c-.058 0-.103 1.046-.103 2.334s.045 2.338.103 2.338c.059 0 .104-1.046.104-2.338 0-1.291-.045-2.334-.104-2.334M41.436 19.1c-.059 0-.104 1.046-.104 2.334s.045 2.338.103 2.338c.059 0 .104-1.046.104-2.338 0-1.291-.045-2.334-.104-2.334M39.256 19.1c-.058 0-.104 1.046-.104 2.334s.046 2.338.104 2.338.103-1.046.103-2.338c0-1.291-.029-2.334-.103-2.334M37.068 19.1c-.058 0-.103 1.046-.103 2.334s.045 2.338.103 2.338c.059 0 .104-1.046.104-2.338 0-1.291-.032-2.334-.104-2.334"/>
    <path fill="#000" d="M60.07 19.022a87.2 87.2 0 0 1-23.14 0z" opacity=".3"/>
    <path fill="#263238" d="M36.543 19.032c0 .059 5.342.104 11.933.104s11.93-.045 11.93-.104-5.338-.103-11.93-.103-11.933.065-11.933.103"/>
    <path fill="url(#l)" d="M62.725 23.681H38.82v4.82h23.905z"/>
    <path fill="#263238" d="M61.19 23.762c-.059 0-.104 1.049-.104 2.337s.045 2.338.103 2.338c.059 0 .104-1.046.104-2.338 0-1.291-.048-2.337-.104-2.337M58.97 23.762c-.057 0-.103 1.049-.103 2.337s.046 2.338.104 2.338.104-1.046.104-2.338c0-1.291-.046-2.337-.104-2.337M56.776 23.762c-.056 0-.104 1.049-.104 2.337s.049 2.338.104 2.338.103-1.046.103-2.338c0-1.291-.045-2.337-.103-2.337M54.596 23.762c-.055 0-.104 1.049-.104 2.337s.049 2.338.104 2.338.104-1.046.104-2.338c0-1.291-.046-2.337-.104-2.337M52.42 23.762c-.055 0-.104 1.049-.104 2.337s.049 2.338.104 2.338.104-1.046.104-2.338c0-1.291-.046-2.337-.104-2.337M50.244 23.762c-.055 0-.103 1.049-.103 2.337s.048 2.338.103 2.338.104-1.046.104-2.338c0-1.291-.045-2.337-.104-2.337M48.072 23.762c-.058 0-.103 1.049-.103 2.337s.045 2.338.103 2.338c.059 0 .104-1.046.104-2.338 0-1.291-.055-2.337-.104-2.337M45.885 23.762c-.058 0-.104 1.049-.104 2.337s.046 2.338.104 2.338.103-1.046.103-2.338c0-1.291-.045-2.337-.103-2.337M43.705 23.762c-.058 0-.103 1.049-.103 2.337s.045 2.338.103 2.338.104-1.046.104-2.338c0-1.291-.046-2.337-.104-2.337M41.526 23.762c-.059 0-.104 1.049-.104 2.337s.045 2.338.104 2.338.103-1.046.103-2.338c0-1.291-.032-2.337-.103-2.337M39.35 23.762c-.058 0-.104 1.049-.104 2.337s.045 2.338.104 2.338.103-1.046.103-2.338c0-1.291-.045-2.337-.103-2.337"/>
    <path fill="#000" d="M62.344 23.688a87.2 87.2 0 0 1-23.14 0z" opacity=".3"/>
    <path fill="#263238" d="M38.813 23.697c0 .058 5.341.104 11.933.104s11.93-.045 11.93-.104-5.339-.103-11.93-.103c-6.592 0-11.934.048-11.934.103"/>
    <path fill="url(#m)" d="M59.925 28.466H36.02v4.636h23.905z"/>
    <path fill="#263238" d="M58.389 28.547c-.058 0-.104 1.003-.104 2.247s.046 2.247.104 2.247.104-1.007.104-2.247-.059-2.247-.104-2.247M56.166 28.547c-.058 0-.103 1.003-.103 2.247s.045 2.247.103 2.247.104-1.007.104-2.247-.042-2.247-.104-2.247M53.978 28.547c-.054 0-.103 1.003-.103 2.247s.049 2.247.103 2.247c.056 0 .104-1.007.104-2.247s-.046-2.247-.104-2.247M51.8 28.547c-.056 0-.105 1.003-.105 2.247s.049 2.247.104 2.247.104-1.007.104-2.247-.045-2.247-.104-2.247M49.62 28.547c-.056 0-.104 1.003-.104 2.247s.048 2.247.103 2.247.104-1.007.104-2.247-.033-2.247-.104-2.247M47.44 28.547c-.059 0-.104 1.003-.104 2.247s.045 2.247.104 2.247.103-1.007.103-2.247-.045-2.247-.103-2.247M45.26 28.547c-.058 0-.104 1.003-.104 2.247s.046 2.247.104 2.247.103-1.007.103-2.247-.045-2.247-.103-2.247M43.08 28.547c-.058 0-.103 1.003-.103 2.247s.045 2.247.103 2.247c.059 0 .104-1.007.104-2.247s-.046-2.247-.104-2.247M40.9 28.547c-.058 0-.103 1.003-.103 2.247s.045 2.247.103 2.247c.059 0 .104-1.007.104-2.247s-.058-2.247-.104-2.247M38.728 28.547c-.058 0-.103 1.003-.103 2.247s.045 2.247.103 2.247.104-1.007.104-2.247-.045-2.247-.104-2.247M36.549 28.547c-.058 0-.104 1.003-.104 2.247s.046 2.247.104 2.247.104-1.007.104-2.247-.046-2.247-.104-2.247"/>
    <path fill="#000" d="M59.54 28.473a68.4 68.4 0 0 1-23.142 0z" opacity=".3"/>
    <path fill="#263238" d="M36.008 28.482c0 .058 5.342.104 11.933.104s11.93-.046 11.93-.104-5.326-.1-11.93-.1-11.933.042-11.933.1"/>
    <path fill="url(#n)" d="M61.46 33.105H37.555v4.636H61.46z"/>
    <path fill="#263238" d="M59.92 33.183c-.055 0-.104 1.007-.104 2.25s.049 2.247.104 2.247.107-1.007.107-2.247-.049-2.25-.107-2.25M57.705 33.183c-.058 0-.103 1.007-.103 2.25s.045 2.247.103 2.247c.059 0 .104-1.007.104-2.247s-.049-2.25-.104-2.25M55.518 33.183c-.058 0-.104 1.007-.104 2.25s.045 2.247.104 2.247.104-1.007.104-2.247-.049-2.25-.104-2.25M53.334 33.183c-.058 0-.104 1.007-.104 2.25s.046 2.247.104 2.247c.059 0 .104-1.007.104-2.247s-.046-2.25-.104-2.25M51.158 33.183c-.058 0-.103 1.007-.103 2.25s.045 2.247.103 2.247c.059 0 .104-1.007.104-2.247s-.046-2.25-.104-2.25M48.979 33.183c-.059 0-.104 1.007-.104 2.25s.045 2.247.104 2.247.104-1.007.104-2.247-.04-2.25-.104-2.25M46.799 33.183c-.058 0-.104 1.007-.104 2.25s.046 2.247.104 2.247.104-1.007.104-2.247-.046-2.25-.104-2.25M44.623 33.183c-.058 0-.103 1.007-.103 2.25s.045 2.247.103 2.247.104-1.007.104-2.247-.046-2.25-.104-2.25M42.44 33.183c-.059 0-.104 1.007-.104 2.25s.045 2.247.103 2.247c.059 0 .104-1.007.104-2.247s-.045-2.25-.104-2.25M40.26 33.183c-.058 0-.104 1.007-.104 2.25s.046 2.247.104 2.247c.059 0 .104-1.007.104-2.247s-.045-2.25-.104-2.25M38.084 33.183c-.058 0-.104 1.007-.104 2.25s.046 2.247.104 2.247.104-1.007.104-2.247-.049-2.25-.104-2.25"/>
    <path fill="#000" d="M61.075 33.112a60.5 60.5 0 0 1-23.138 0z" opacity=".3"/>
    <path fill="#263238" d="M37.547 33.122c0 .058 5.342.103 11.93.103s11.933-.045 11.933-.103c0-.059-5.342-.104-11.933-.104s-11.93.045-11.93.104"/>
    <path fill="url(#o)" d="M60.093 37.68H36.187v4.636h23.906z"/>
    <path fill="#263238" d="M58.557 37.77c-.059 0-.104 1.007-.104 2.247s.045 2.266.104 2.266.103-1.006.103-2.266-.049-2.247-.103-2.247M56.342 37.77c-.058 0-.104 1.007-.104 2.248 0 1.24.046 2.266.104 2.266s.104-1.007.104-2.266-.046-2.247-.104-2.247M54.15 37.77c-.054 0-.103 1.007-.103 2.247s.049 2.266.104 2.266.103-1.006.103-2.266-.03-2.247-.103-2.247M51.955 37.77c-.058 0-.103 1.007-.103 2.248 0 1.24.045 2.266.103 2.266s.104-1.007.104-2.266-.032-2.247-.104-2.247M49.791 37.77c-.058 0-.103 1.007-.103 2.248 0 1.24.045 2.266.103 2.266s.104-1.007.104-2.266-.046-2.247-.104-2.247M47.612 37.77c-.059 0-.104 1.007-.104 2.248 0 1.24.045 2.266.104 2.266s.103-1.007.103-2.266-.045-2.247-.103-2.247M45.432 37.77c-.059 0-.104 1.007-.104 2.247s.045 2.266.104 2.266.103-1.006.103-2.266-.055-2.247-.103-2.247M43.252 37.77c-.058 0-.104 1.007-.104 2.248 0 1.24.046 2.266.104 2.266s.104-1.007.104-2.266-.046-2.247-.104-2.247M41.08 37.77c-.058 0-.103 1.007-.103 2.248 0 1.24.045 2.266.103 2.266s.103-1.007.103-2.266-.045-2.247-.103-2.247M38.9 37.77c-.057 0-.103 1.007-.103 2.247s.045 2.266.104 2.266.103-1.006.103-2.266-.045-2.247-.103-2.247M36.72 37.77c-.057 0-.103 1.007-.103 2.248 0 1.24.046 2.266.104 2.266s.103-1.007.103-2.266-.045-2.247-.103-2.247"/>
    <path fill="#000" d="M59.727 37.686a68.4 68.4 0 0 1-23.141 0z" opacity=".3"/>
    <path fill="#263238" d="M36.18 37.696c0 .055 5.341.104 11.933.104s11.93-.049 11.93-.104-5.342-.103-11.93-.103-11.933.044-11.933.103"/>
    <path fill="#263238" d="M60.091 42.303V41.09c0-.797-.016-1.942-.026-3.357v-.052h1.37l-.056.058V33.1l.072.071h-1.619v-4.752h2.878l-.078.078v-4.912l.072.075h-2.338v-4.623h.648l-.052.055v-4.723a.4.4 0 0 1 0-.084.3.3 0 0 1 0 .084v.246c0 .226 0 .54.022.945 0 .839.036 2.036.062 3.529v.055H60.4l.055-.055c0 1.295 0 2.816.016 4.493l-.071-.068h2.341v5.064h-2.882l.081-.078v4.6l-.075-.074h1.62v4.769h-1.377l.052-.052c0 1.421-.016 2.56-.023 3.357v1.137a.3.3 0 0 1-.045.067"/>
    <defs>
        <linearGradient id="a" x1="13.328" x2="14.027" y1="33.228" y2="38.635" gradientUnits="userSpaceOnUse">
            <stop stop-color="gold"/>
            <stop offset="1" stop-color="#e68d35"/>
        </linearGradient>
        <linearGradient id="b" x1="11.964" x2="12.664" y1="37.803" y2="43.21" gradientUnits="userSpaceOnUse">
            <stop stop-color="gold"/>
            <stop offset="1" stop-color="#e68d35"/>
        </linearGradient>
        <linearGradient id="c" x1="31.8" x2="32.556" y1="23.804" y2="29.419" gradientUnits="userSpaceOnUse">
            <stop stop-color="gold"/>
            <stop offset="1" stop-color="#e68d35"/>
        </linearGradient>
        <linearGradient id="d" x1="28.999" x2="29.699" y1="28.589" y2="33.996" gradientUnits="userSpaceOnUse">
            <stop stop-color="gold"/>
            <stop offset="1" stop-color="#e68d35"/>
        </linearGradient>
        <linearGradient id="e" x1="30.531" x2="31.23" y1="33.228" y2="38.635" gradientUnits="userSpaceOnUse">
            <stop stop-color="gold"/>
            <stop offset="1" stop-color="#e68d35"/>
        </linearGradient>
        <linearGradient id="f" x1="29.163" x2="29.863" y1="37.803" y2="43.21" gradientUnits="userSpaceOnUse">
            <stop stop-color="gold"/>
            <stop offset="1" stop-color="#e68d35"/>
        </linearGradient>
        <linearGradient id="g" x1="49.533" x2="50.263" y1="9.531" y2="14.956" gradientUnits="userSpaceOnUse">
            <stop stop-color="gold"/>
            <stop offset="1" stop-color="#e68d35"/>
        </linearGradient>
        <linearGradient id="h" x1="49.038" x2="49.794" y1="14.277" y2="19.892" gradientUnits="userSpaceOnUse">
            <stop stop-color="gold"/>
            <stop offset="1" stop-color="#e68d35"/>
        </linearGradient>
        <linearGradient id="i" x1="48.666" x2="49.396" y1="0" y2="5.425" gradientUnits="userSpaceOnUse">
            <stop stop-color="gold"/>
            <stop offset="1" stop-color="#e68d35"/>
        </linearGradient>
        <linearGradient id="j" x1="48.163" x2="48.919" y1="4.745" y2="10.36" gradientUnits="userSpaceOnUse">
            <stop stop-color="gold"/>
            <stop offset="1" stop-color="#e68d35"/>
        </linearGradient>
        <linearGradient id="k" x1="48.499" x2="49.255" y1="19.016" y2="24.631" gradientUnits="userSpaceOnUse">
            <stop stop-color="gold"/>
            <stop offset="1" stop-color="#e68d35"/>
        </linearGradient>
        <linearGradient id="l" x1="50.773" x2="51.529" y1="23.681" y2="29.296" gradientUnits="userSpaceOnUse">
            <stop stop-color="gold"/>
            <stop offset="1" stop-color="#e68d35"/>
        </linearGradient>
        <linearGradient id="m" x1="47.972" x2="48.672" y1="28.466" y2="33.873" gradientUnits="userSpaceOnUse">
            <stop stop-color="gold"/>
            <stop offset="1" stop-color="#e68d35"/>
        </linearGradient>
        <linearGradient id="n" x1="49.507" x2="50.207" y1="33.105" y2="38.512" gradientUnits="userSpaceOnUse">
            <stop stop-color="gold"/>
            <stop offset="1" stop-color="#e68d35"/>
        </linearGradient>
        <linearGradient id="o" x1="48.14" x2="48.84" y1="37.68" y2="43.087" gradientUnits="userSpaceOnUse">
            <stop stop-color="gold"/>
            <stop offset="1" stop-color="#e68d35"/>
        </linearGradient>
    </defs>
</svg>
