<svg xmlns="http://www.w3.org/2000/svg" width="68" height="69" fill="none" viewBox="0 0 68 69">
    <g clip-path="url(#a)">
        <path fill="#e59375" d="M46.907 57.162h8.185c-.359-3.368-.95-6.526-1.922-8.307 0 0-8.013-.396-6.808 5.035 0 0 .159 1.317.545 3.272"/>
        <path fill="#5c1b1b" d="M52.447 24.438c.162 2.017.545 3.997 1.65 5.744.307.485.619 1 1.045 1.392-1.649.35-5.988.337-6.65-2.127-.432-1.611-.527-3.298-.469-4.959.052-1.502.086-3.18.723-4.568.58-1.262 2.627-1.246 3.387-.09.37.562.163 1.252.183 1.888.03.902.058 1.815.13 2.72"/>
        <path fill="#e59375" d="M52.814 30.293c1.35-.037 2.09 1.163 2.513 2.377.443 1.275-.698 4.833-1.727 3.957-2.021-1.721-3.03-2.757-3.068-4.107-.037-1.35.932-2.19 2.282-2.227"/>
        <path fill="#e79675" d="M50.12 42.619c.309-.056 1.587.603 1.587.603s1.596 5.128 1.664 5.909c.069.779-5.294 4.816-11.285 2.517 0 0 2.773-7.222 2.943-9 .17-1.779 5.09-.03 5.09-.03"/>
        <path fill="#09111c" d="M51.704 43.223s1.53 4.624 1.664 5.908c.478 4.543-5.67 6.449-11.661 4.15 0 0-.389-6.246 3.32-10.633 0 0 .985.898 6.677.574"/>
        <path fill="#f7a483" d="M49.448 57.162c.157-1.155.239-1.871.239-1.871l-3.643 1.361-4.333-2.379s.06 1.156.157 2.89z"/>
        <path fill="#f7a483" d="M43.564 57.162h4.609c.807-.446 1.413-1.17 1.583-2.185.695-4.151-2.673-6.351-6.338-4.715 0 0-2.079.6-1.648 4.452.126 1.132.84 1.955 1.794 2.448M46.338 30.024h4.17c-.19-.608-.583-2.18.025-3.249L46.32 24.01s.75 4.642.018 6.014"/>
        <path fill="#e1876f" d="M50.209 28.2c-.012-.465.064-.967.324-1.425L46.32 24.01s.306 1.892.337 3.617c1.52.484 2.147.671 3.552.574"/>
        <path fill="#f7a483" d="M43.544 30.417c-1.951.933-.904 3.09-.904 3.09l2.537 9.232s2.37.969 6.53.484c.577-.827 1.764-4.29 2.162-6.935.327-2.178 1.345-4.324.237-5.538-.426-.466-3.662-.93-3.678-1.007l-3.821-.015zM51.181 27.154l.253-.616.633-1.815c.09-.288.145-.687.06-.978a2.97 2.97 0 0 1-.009-1.533c.429-1.66-.271-2.573-.271-2.573-.9-1.592-3.21-1.701-3.21-1.701-2.864.003-3.238 2.756-3.238 2.756-.552 1.817.837 3.418.84 3.421.176.203.18.518.257.76.083.261.215.507.384.721.378.48.88.948 1.404 1.25.497.286 1.473.603 2.175.63.292.013.578.03.722-.322"/>
        <path fill="#5c1b1b" d="M46.505 25.198c.051-1.305.08-1.224.08-1.224.05-.38.755.48.765-.017.045-2.275.926-3.315 1.257-3.474.901-.43 1.833-.519 2.56-.351 1.139.262 1.017 1.79 1.017 1.79 1.263-5.55-5.073-4.079-5.073-4.079-3.082.645-2.914 3.527-2.914 3.527-.53 3.058 2.41 4.985 2.41 4.985z"/>
        <path fill="#f8a07d" d="M46.727 24.764a.6.6 0 0 1-.403.1c-.442-.028-.788-.461-.773-.965.016-.503.385-.888.827-.86.21.015.397.12.535.279.201.233.187.643.123.923-.052.223-.15.413-.31.523"/>
        <path fill="#e98b6f" d="M46.534 23.517c-.013-.265-.56-.04-.487.113.043.088.133.155.204.22a.39.39 0 0 1 .15.296c0 .015.001.062-.015.071-.071.045-.285-.224-.332-.281-.092-.113-.096-.296-.043-.426.057-.138.153-.2.303-.183.12.013.242.028.228.176-.001.003-.008.028-.008.014"/>
        <path fill="#e98b6f" d="M46.347 23.783c.06-.053.11-.004.165.04a.25.25 0 0 1 .088.16.62.62 0 0 1-.09.438.33.33 0 0 1-.294.138c-.16-.013-.201-.158-.2-.294 0-.036.001-.123.038-.144.04-.022.064.04.088.066a.23.23 0 0 0 .134.059.3.3 0 0 0 .245-.095.1.1 0 0 0 .026-.04q-.006.133-.017.059a.3.3 0 0 0-.027-.065c-.034-.063-.095-.108-.134-.17-.018-.027-.05-.125-.022-.152"/>
        <path fill="#3c2415" d="M49.36 22.948c.008.159-.075.292-.183.296-.107.005-.2-.12-.208-.278-.007-.16.074-.292.182-.297s.201.12.209.279M51.57 22.763c-.002.16-.09.287-.199.285-.108-.001-.194-.131-.191-.29.002-.16.09-.287.199-.286.108.002.194.132.191.29"/>
        <path fill="#5c1b1b" d="M48.422 22.686c.425-.555 1.542-.338 1.542-.338s.065 0 .057-.199c0 0 .005-.175-.137-.165 0 0-1.369-.233-1.462.702M52.141 22.135c.003-.614-1.182-.287-1.182-.287-.14-.002-.127.173-.127.173.004.199.07.195.07.195s1.073-.292 1.224-.036c.045-.127-.012.023.015-.045"/>
        <path fill="#e98b6f" d="M50.078 24.501c.823-.017.878-.23.878-.23l-.385-.886s.054.87-.493 1.116"/>
        <path fill="#9f4541" d="m49.71 24.969 1.576-.103c.083-.004.127.056.097.134 0 0-.306.805-.817.837s-.914-.73-.914-.73c-.035-.067-.007-.122.059-.138"/>
        <path fill="#d45f5a" d="M51.138 25.449c-.14.19-.332.373-.57.388-.239.015-.453-.144-.615-.318.284-.355.839-.38 1.185-.07"/>
        <path fill="#fff" d="m49.694 24.976.016-.007 1.575-.103q.024 0 .043.006c.047.069.001.195-.123.28a3.7 3.7 0 0 1-1.367.086c-.144-.124-.202-.226-.144-.262M46.745 24.857a.271.271 0 1 1-.542-.028.271.271 0 0 1 .542.028"/>
        <path fill="#9698bc" d="M53.871 30.5s1.024 0 1.604 2.591c0 0 2.839 8.62 1.018 9.118 0 0-2.719-.536-5.278-7.4 0 0-.234-4.145 2.656-4.31"/>
        <path fill="#9698bc" d="m51.57 29.97 1.8.323s1.311.287 1.355 1.41c0 0 .073 2.126-1.084 5.972 0 0-1.915-5.901-2.07-7.705"/>
        <path fill="#9698bc" d="m51.113 29.899.811.124s1.574 3.042 1.945 6.265c-.398 2.644-1.195 6.648-2.163 6.934-3.278.97-6.7-.554-6.7-.554l-1.569-6.26c4.212-1.64 2.084-6.453 2.084-6.453l.884-.212 3.722 3.762z"/>
        <path fill="#4fa6c9" d="M52.775 31.976s1.645 2.279 1.931 3.453c.19.771-1.156 2.51-2.242 2.816-.593.167-.608-6.116.31-6.27"/>
        <path fill="#09111c" d="M52.775 31.976s1.645 2.279 1.931 3.453c.19.771-1.156 2.51-2.242 2.816-.593.167-.608-6.116.31-6.27"/>
        <path fill="#09111c" d="M52.048 30.023s1.5 3.061 1.871 6.284c-.398 2.644-1.245 6.63-2.212 6.915-3.28.97-6.702-.554-6.702-.554l-1.568-6.26c4.212-1.64 2.084-6.453 2.084-6.453l.884-.212 3.938 5.629.77-5.473z"/>
        <path fill="#222b35" d="m46.404 29.743 3.938 5.629-2.832-.767s-.411-.348-.15-.73l.39-.76-.52-.153s-.68-.081-.793-.636l-.425-2.49zM51.1 29.907l-.756 5.465 1.538-1.43s.633-.514.04-.771l-.732-.227.86-.773s.178-.236 0-.682l-.517-1.534z"/>
        <path fill="#7081ab" d="m49.567 30.791-.047 2.111-.778-.76z"/>
        <path fill="#cdc5da" d="M49.566 30.744s-2.359-.966-2.944-1.928l-1.102 1.139 2.861 2.775 1.185-1.94M51.666 30.85s-.229-.884-1.35-1.63l.147 3.048s.622-1.56 1.203-1.417"/>
        <path fill="#7081ab" d="m51.769 32.267-.102-1.417c-.342-.083-.648.396-.898.788z"/>
        <path fill="#09111c" d="M55.347 57.162c-.475-3.407-1.178-6.824-2.2-8.71 0 0-10.896-1.007-11.403 3.066l-.24 5.644z"/>
        <path fill="#9698bc" d="M42.69 31.054s-.438.457-.791 1.765c0 0-1.726 6.31-.456 9.518 0 0 .416.65 1.484.94l3.394-8.165s1.448-3.42-.851-5.187l-1.926.491s-.559.212-.855.638"/>
        <path fill="#f7a483" d="m45.675 37.876-1.213-.957s-1.824-.268-2.736-.153c0 0-.301.419 2 .483 0 0-1.614.515-2.131.9 0 0-.084.477 1.392-.217l.672-.05-1.562.78s.061.297 1.483-.089l1.426.156z"/>
        <path fill="#9698bc" d="m53.438 38.053-7.81-.934c-.39.477-.766 1.343-.599 2.25l9.976 3.163s2.636.468 1.941-2.706c0 0-1.113-1.619-3.508-1.773"/>
        <path fill="#f7a483" d="M53.438 38.053s-1.403.757-1.93.817l-.817-1.41 1.116-.723.765-.176s1.258-.325 1.59 1.402z"/>
        <path fill="#a1a3c1" d="M43.076 43.32s-2.14.196-1.603-2.132c.463-1.31 2.166-1.845 2.166-1.845l7.053-2.13s.67.257.97 1.898c0 0-6.169 4.272-8.586 4.21"/>
        <path fill="#5c1b1b" d="M47.437 24.375c-.26 2.007-.296 4.024.423 5.962.198.538.397 1.107.733 1.578-1.686 0-5.928-.912-6.064-3.46-.088-1.667.17-3.336.57-4.949.363-1.458.745-3.093 1.656-4.318.83-1.115 2.828-.673 3.332.616.245.625-.1 1.257-.213 1.884-.159.888-.32 1.787-.437 2.687"/>
        <path fill="#ca8268" d="m11.427 57.162-.063-.157.21-1.154-.611-.145-.127 1.303.067.153z"/>
        <path fill="#ca8268" d="m11.03 57.162.223-.929-.602-.18-.17 1.109z"/>
        <path fill="#e59375" d="m10.786 57.162-.058-.29.483-.923.23 1.202q0 .006.003.01h.511l-.057-1.126-.057-.929-.303-1.775-1.051.11-.286 1.666-.253 1.341-.053.268.15.446z"/>
        <path fill="#e59375" d="M14.44 42.166s-2.611 9.052-2.902 11.165c0 0-.934 1.04-1.051.111-.235-1.852.495-11.488.99-12.236.496-.748 2.963.96 2.963.96"/>
        <path fill="#4b9ebf" d="M11.11 42.836s-.668 5.075-.735 11.265c0 0 1.123.291 1.67.052 0 0 3.072-8.377 2.66-12.285 0 0-2.819-1.513-3.595.968"/>
        <path fill="#3f1901" d="M23.355 23.926c-.155 1.8-.76 2.299-.104 4.135.605 1.696 2.094 2.888 2.379 4.735.202 1.313-.03 3.477-.85 4.584-1.192 1.607-4.13.887-5.794.703-1.893-.208-6.09-.127-7.34-1.92-.95-1.36.037-3.911.323-5.366.364-1.845.75-3.688 1.078-5.54.298-1.684.715-4.423 1.891-5.793 1-1.163 2.378-1.264 4.031-1.05 3.126.408 4.58 3.263 4.386 5.512"/>
        <path fill="#e59375" d="M13.925 31.042a2.445 2.445 0 0 0-2.514 2.376c-.037 1.35.699 4.833 1.727 3.957 2.021-1.721 3.03-2.757 3.068-4.107s-.931-2.189-2.281-2.227"/>
        <path fill="#e59375" d="m12.03 32.928 2.444-.333 1.48 2.056s-1.86 7.89-2.982 9.413c-1.194 1.622-1.481-.05-1.673-.705 0 0-.081-9.081.73-10.431"/>
        <path fill="#f7a483" d="M19.89 57.162c.208-.899.432-1.879.674-2.953l-6.674-4.097s-.984 3.465-1.424 5.657c-.08.404-.156.875-.228 1.393z"/>
        <path fill="#010814" d="M19.978 57.162c.283-1.536.402-2.524.402-2.524 1.205-5.43-6.809-5.035-6.809-5.035-.898 1.648-1.472 4.477-1.837 7.558z"/>
        <path fill="#e79675" d="M16.624 43.367c-.31-.056-1.588.603-1.588.603S13.44 49.1 13.372 49.88c-.07.779 5.294 4.816 11.285 2.517 0 0-2.774-7.222-2.944-9-.17-1.779-5.09-.03-5.09-.03"/>
        <path fill="#09111c" d="M15.034 43.97s-1.53 4.626-1.664 5.909c-.478 4.543 5.67 6.449 11.661 4.15 0 0 .389-6.246-3.32-10.633 0 0-.985.898-6.677.575M24.917 57.162c.072-1.31.115-2.14.115-2.14l-3.9 2.14zM20.06 57.162l-3.005-1.123s.047.415.139 1.123z"/>
        <path fill="#09111c" d="M17.648 57.162h6.54c.424-.453.713-1.02.789-1.7.43-3.852-1.65-4.452-1.65-4.452-3.664-1.636-7.032.564-6.337 4.715.096.57.33 1.048.658 1.437"/>
        <path fill="#f7a483" d="M20.402 30.772h-4.17c.19-.608.583-2.18-.025-3.249l4.213-2.766s-.749 4.642-.018 6.014"/>
        <path fill="#e1876f" d="M16.532 28.948c.012-.465-.065-.967-.325-1.425l4.213-2.766s-.305 1.891-.336 3.617c-1.521.484-2.148.671-3.552.574"/>
        <path fill="#f7a483" d="M23.268 31.132c1.877.918.834 3.123.834 3.123l-2.537 9.232s-2.37.969-6.529.484c-.577-.827-1.765-4.29-2.162-6.935-.328-2.178-1.346-4.324-.237-5.538.425-.466 3.661-.93 3.678-1.007h3.895zM15.56 27.902l-.253-.616-.633-1.815c-.09-.289-.145-.687-.059-.978.103-.35.168-.914.008-1.533-.428-1.66.272-2.573.272-2.573.9-1.592 3.21-1.701 3.21-1.701 2.863.003 3.237 2.756 3.237 2.756.553 1.817-.837 3.418-.84 3.421-.175.203-.18.518-.257.76-.083.261-.215.507-.383.721-.378.481-.88.948-1.405 1.25-.497.286-1.473.603-2.175.63-.291.013-.577.03-.722-.322"/>
        <path fill="#3f1901" d="M20.237 25.946c-.052-1.305-.08-1.224-.08-1.224-.05-.38-.757.48-.766-.017-.045-2.275-.926-3.315-1.257-3.474-.901-.429-1.833-.519-2.56-.352-1.138.263-1.017 1.79-1.017 1.79-1.263-5.55 5.073-4.078 5.073-4.078 3.082.644 2.914 3.527 2.914 3.527.53 3.059-2.41 4.985-2.41 4.985z"/>
        <path fill="#f8a07d" d="M20.016 25.512c.105.073.239.112.402.1.442-.028.788-.461.773-.965-.016-.503-.385-.888-.827-.86a.78.78 0 0 0-.535.279c-.201.233-.187.643-.122.923.05.223.15.413.309.523"/>
        <path fill="#e98b6f" d="M20.208 24.265c.013-.265.56-.04.487.113-.043.088-.133.156-.203.22a.39.39 0 0 0-.15.297c-.001.015-.002.06.014.07.071.045.285-.224.332-.281.092-.113.097-.296.043-.426-.057-.138-.153-.2-.303-.183-.12.013-.242.028-.228.177.001.002.008.027.008.013"/>
        <path fill="#e98b6f" d="M20.393 24.53c-.059-.052-.11-.003-.164.04a.26.26 0 0 0-.088.16.62.62 0 0 0 .09.439.33.33 0 0 0 .293.138c.161-.013.202-.157.2-.294 0-.036 0-.123-.037-.144-.04-.022-.065.04-.089.066a.23.23 0 0 1-.134.059.29.29 0 0 1-.244-.095.1.1 0 0 1-.027-.04q.007.134.017.059a.3.3 0 0 1 .027-.065c.034-.063.095-.108.134-.17.019-.027.051-.125.022-.152"/>
        <path fill="#3c2415" d="M17.38 23.696c-.008.159.074.292.182.297.107.005.2-.12.208-.28.007-.158-.074-.291-.183-.296-.107-.005-.2.12-.208.279M15.168 23.51c.002.16.091.288.2.286.108-.001.193-.131.191-.29-.002-.16-.091-.287-.2-.286-.107.002-.193.132-.191.29"/>
        <path fill="#3f1901" d="M18.315 23.434c-.425-.555-1.542-.338-1.542-.338s-.065 0-.058-.199c0 0-.004-.175.137-.165 0 0 1.37-.233 1.463.702M14.555 22.67c.195-.374 1.237-.017 1.237-.017.14.014.108.186.108.186-.025.197-.09.187-.09.187s-1.036-.404-1.213-.165c-.031-.132-.022-.12-.042-.191"/>
        <path fill="#fff" d="m15.521 25.614 1.545.205c.081.011.114.07.07.13 0 0-.439.626-.94.558s-.756-.788-.756-.788c-.022-.063.015-.104.081-.105"/>
        <path fill="#e98b6f" d="M16.66 25.25c-.823-.018-.879-.23-.879-.23l.386-.886s-.055.869.493 1.116"/>
        <path fill="#fff" d="M20 25.605a.27.27 0 1 0 .541-.027.27.27 0 0 0-.54.027"/>
        <path fill="#f7a483" d="M20.788 33.095c-.084 1.348.62 2.672 1.97 2.755 1.348.084 4.853-.533 4.013-1.59-1.652-2.08-2.652-3.123-4-3.206-1.349-.084-1.9.692-1.983 2.04"/>
        <path fill="#f7a483" d="m21.816 35.055.858-2.313 2.511-.338s6.082 5.36 6.898 7.067c.867 1.819-.743 1.284-1.41 1.144 0 0-8.049-4.208-8.857-5.56"/>
        <path fill="#f7a483" d="M32.22 40.642s-3.03 4.262-5.853 6.69c0 0-1.216-.12-.83-.784.655-1.126 3.351-6.401 4.014-7.532.373-.635 2.669 1.626 2.669 1.626"/>
        <path fill="#f7a483" d="m25.54 46.548-1.426.364-.61-.794c.008.88-.279 1.483-.279 1.483-.795.845-1.275 1.508-1.275 1.508-.312.287.036.447.036.447.584-.174 1.688-1.034 1.688-1.034-.552.571-1.604 1.385-1.604 1.385-.214.283.142.368.142.368.841-.021 1.813-1.27 1.813-1.27-.352.483-1.354 1.319-1.354 1.319-.044.252.098.237.098.237.67.085 1.601-1.118 1.601-1.118l-.36.441c-.548.561-.044.62-.044.62l.332-.25a4.6 4.6 0 0 0 1.381-1.762l.691-1.16z"/>
        <path fill="#4fa6c9" d="M32.33 40.102s.247.356-.623 1.543c0 0-3.263 4.708-5.37 5.856 0 0-.93-.37-1.048-1.063 0 0 2.797-6.438 4.538-7.535 0 0 1.386-1.017 2.504 1.199"/>
        <path fill="#4b9ebf" d="M12.504 31.434s-1.263.315-1.263 3.136c0 0-1.007 9.723.746 10.197 0 0 2.184.693 3.773-9.42 0 0-.362-3.958-3.256-3.914"/>
        <path fill="#4fa6c9" d="m15.17 30.718-1.798.323s-1.312.287-1.355 1.41c0 0-.074 2.126 1.084 5.972 0 0 1.914-5.901 2.07-7.705"/>
        <path fill="#4fa6c9" d="m15.627 30.647-.811.125s-1.574 3.041-1.945 6.264c.398 2.644 1.195 6.648 2.162 6.935 3.28.97 6.702-.555 6.702-.555l1.567-6.26c-4.211-1.64-2.083-6.453-2.083-6.453l-.884-.212-3.722 3.763z"/>
        <path fill="#4fa6c9" d="m21.219 30.703 2.083.345s.998.353 1.585 1.068c0 0 8.336 6.225 7.415 8.468 0 0-.27.756-1.131.523l-8.072-3.808s-4.502-2.076-1.88-6.596M13.966 32.724s-1.646 2.279-1.933 3.453c-.188.771 1.157 2.51 2.243 2.816.594.167.608-6.116-.31-6.27"/>
        <path fill="#111924" d="M13.966 32.724s-1.646 2.279-1.933 3.453c-.188.771 1.157 2.51 2.243 2.816.594.167.608-6.116-.31-6.27"/>
        <path fill="#111924" d="M14.69 30.772s-1.498 3.06-1.87 6.283c.398 2.645 1.245 6.63 2.213 6.916 3.278.97 6.7-.555 6.7-.555l1.569-6.26c-4.212-1.64-2.084-6.453-2.084-6.453l-.884-.212-3.938 5.63-.77-5.474z"/>
        <path fill="#222b35" d="m20.337 30.491-3.939 5.63 2.833-.767s.411-.349.15-.73l-.39-.76.52-.154s.68-.08.793-.635l.425-2.49zM15.642 30.656l.756 5.465-1.538-1.43s-.633-.514-.04-.772l.732-.227-.86-.773s-.178-.236 0-.681l.517-1.535z"/>
        <path fill="#111924" d="m21.88 42.836 2.508 4.157s-2.23 2.2-6.618 2.591c0 0-3.072.077-4.95-1.644l1.568-5.104z"/>
        <path fill="#4592b1" d="m17.172 31.54.047 2.11.778-.76z"/>
        <path fill="#7ad0e2" d="M17.172 31.492s2.359-.966 2.944-1.928l1.102 1.14-2.86 2.774-1.186-1.939M15.078 31.599s.229-.884 1.35-1.632l-.147 3.049s-.622-1.56-1.203-1.417"/>
        <path fill="#4592b1" d="m14.977 33.016.101-1.417c.343-.084.649.395.898.787z"/>
        <path fill="#3f1901" d="M15.934 20.37c1.94.939 3.052 1.835 2.68 4.157-.338 2.093-.43 3.234.805 5.023 1.16 1.68 1.307 2.666.478 4.572-.665 1.531-1.321 3.001.582 3.804 3.59 1.515 6.708-1.43 5.2-5.158-.675-1.671-2.165-2.758-2.93-4.358-.774-1.621-.18-3.066-.118-4.748.104-2.813-3.927-6.686-6.198-3.85-.19.238-.347.532-.487.804z"/>
        <path fill="#e59375" d="m41.508 34.265.782.17s2.138 9.2 1.334 11.384c-.805 2.184-2.098.022-2.502-.176s-3.977-10.321-3.977-10.321z"/>
        <path fill="#001940" d="m44.2 44.668-1.405-10.685c-.837-2.811-3.926-1.773-3.926-1.773-2.318.859-1.95 2.682-1.95 2.682l3.174 10.979s.601 1.667 2.803 1.445c0 0 1.602-.383 1.304-2.648"/>
        <path fill="#f7a483" d="M39.988 48.313 42.133 35.2s.74-1.972-.739-2.957l-5.636-2.65h-3.975l-6.775 4.005 4.44 14.716z"/>
        <path fill="#00264e" d="m39.97 57.162.016-8.849H29.447s-1.175 2.689-1.494 8.849z"/>
        <path fill="#00264e" d="M35.441 57.162c-.159-2.006-1.791-3.577-3.772-3.563-1.962.015-3.56 1.58-3.716 3.563z"/>
        <path fill="#00264e" d="M34.019 57.162c-.933-.904-2.484-1.48-4.91 0z"/>
        <path fill="#00264e" d="M39.912 57.162c-.295-1.968-1.398-3.425-3.355-3.226-1.729.177-3.059 1.537-3.319 3.226z"/>
        <path fill="#00264e" d="M39.065 57.162c-.78-.228-1.946-.422-2.963 0z"/>
        <path fill="#f7a483" d="m25.597 35.21-.773.206s-1.205 9.248-.3 11.392c.904 2.145 1.754.017 2.148-.199s3.333-10.545 3.333-10.545z"/>
        <path fill="#001940" d="m27.674 46.526 2.532-10.89c-.523-2.946-3.327-2.739-3.327-2.739-2.46.224-2.582 2.08-2.582 2.08l-.163 11.077s-.162 1.893 1.265 1.792c0 0 2.042-.319 2.275-1.32"/>
        <path fill="#f7a483" d="M31.762 26.696v4.249h4.493s-1.105-1.684-.553-4.249z"/>
        <path fill="#e1876f" d="M34.041 30.304c.405.26 1.265.815 1.757.49a.46.46 0 0 0 .213-.329c-.29-.673-.687-2.014-.309-3.769h-3.94v.385c.492 1.244 1.122 2.477 2.279 3.223"/>
        <path fill="#f8a07d" d="M31.655 26.756s-.765-.332-1.63-2.225c0 0-1.88-2.238-.548-4.778 0 0 .788-2.148 4.602-1.547 0 0 .343 5.758-2.424 8.55"/>
        <path fill="#f7a483" d="m36.355 27.905.254-.666.702-2.48c.088-.31.093-.728.037-1.048-.062-.349-.101-.713-.01-1.08.442-1.783-.471-2.795-.471-2.795-1.007-1.681-3.485-1.737-3.485-1.737-3.068.08-3.394 3.04-3.394 3.04-.544 1.96.987 3.639.99 3.642.123.134.043.782.076.967.144.79.886 1.292 1.546 1.641.724.384 1.602.793 2.42.887.311.036 1.189.01 1.334-.371"/>
        <path fill="#e98b6f" d="m35.752 24.16-.854.26s1.115.151 1.182-.17c0 0-.123-.648-.262-1.263 0 0 .06 1.135-.066 1.173"/>
        <path fill="#3c2415" d="M34.39 22.86c.004.176-.09.32-.209.324-.118.004-.22-.136-.224-.311-.005-.176.088-.32.207-.325.12-.003.22.137.225.313M36.803 22.763c.012.175-.075.323-.195.331-.118.008-.224-.127-.236-.303s.076-.324.195-.332c.119-.007.225.128.236.304"/>
        <path fill="#602a05" d="M34.66 22.283c.076.022.103-.08.103-.08.032-.1.009-.187.009-.187-.027-.074-.086-.1-.086-.1-.197-.043-.59-.022-.925.052-.186.04-.492.154-.523.32-.009.05-.02.136.036.156 0 0 .64-.148 1.386-.161M37.4 22.21a6.5 6.5 0 0 0-1.078.034c-.073.031-.112-.067-.112-.067-.044-.094-.033-.184-.033-.184.017-.076.072-.11.072-.11.19-.069.46-.096.802-.066.103.009.28.036.395.083 0 0 .019.065-.045.31"/>
        <path fill="#fff" d="M36.325 25.116c.068.008.103.06.075.129 0 0-.329.793-.856.818-.528.025-.93-.732-.93-.732-.04-.074-.001-.137.084-.142 0 0 .91-.053 1.627-.073"/>
        <path fill="#95d7e3" d="M28.72 47.957c.009.437-.655 5.008-.376 5.067.002 0 7.584 1.748 11.627 0l.017-4.71 2.145-13.115s.74-1.972-.739-2.957l-5.636-2.65.38 1.143-.814 2.318-3.54-3.46-6.776 4.004 1.133 3.765c.699 2.313 1.379 4.633 2.098 6.94 0 0 .596 2.502.48 3.655"/>
        <path fill="#3eaec6" d="m34.833 30.418-.047 2.11-.778-.76z"/>
        <path fill="#cfeae6" d="M35.822 33.822a.301.301 0 1 1-.603 0 .301.301 0 0 1 .603 0M35.822 39.294a.301.301 0 1 1-.603-.001.301.301 0 0 1 .603 0M35.822 44.764a.301.301 0 1 1-.603 0 .301.301 0 0 1 .603 0M35.822 50.235a.302.302 0 1 1-.603 0 .302.302 0 0 1 .603 0"/>
        <path stroke="#74cee2" stroke-miterlimit="10" stroke-width=".163" d="M34.836 32.77v20.762"/>
        <path fill="#471f08" d="M39.925 53.457s-3.873 1.814-11.799-.04c-.13-.031-.076-.37-.076-.37l.076-.762c.035-.245.171-.233.171-.233.002 0 7.583 1.747 11.628 0 0 0 .163-.029.17.216v.951s0 .19-.17.238"/>
        <path stroke="#bcbec0" stroke-miterlimit="10" stroke-width=".267" d="M35.993 54.033c0 .12-.095.218-.214.218h-1.542a.216.216 0 0 1-.214-.218v-1.111c0-.121.096-.22.214-.22h1.542c.119 0 .214.099.214.22zM34.023 53.407h.817"/>
        <path fill="#7ad0e2" d="M34.834 30.37s-2.487-.966-3.072-1.927l-.735 1.4 2.621 2.513 1.186-1.938"/>
        <path fill="#602a05" d="M28.435 21.96c1.002 3.02 2.488 4.108 2.488 4.108s-.409-2.3.807-1.985l.21-.011s-.419-1.348.448-2.014c-.411-.528-.078-1.583.006-1.734.42-.759 1.633-.435 2.342-.636.548-.155 1.913-.387 2.227.276 2.382-.068 1.179-2.955 1.179-2.955-.063.854-.772 1.047-.772 1.047.755-.91-.258-2.57-.258-2.57-1.03.825-3.735.994-3.735.994-1.944-.06-2.425 1.185-2.425 1.185s-3.618.712-2.517 4.295"/>
        <path fill="#f7a483" d="M31.435 25.07a.68.68 0 0 1-.432.155c-.49.015-.916-.423-.954-.98-.037-.554.328-1.017.817-1.033a.86.86 0 0 1 .619.248c.245.235.274.687.233 1.002-.033.252-.12.47-.284.608"/>
        <path fill="#e98b6f" d="M31.089 23.72c-.043-.29-.62.017-.523.177.056.092.163.156.247.219a.43.43 0 0 1 .196.31c.003.017.009.068-.008.08-.074.057-.337-.217-.395-.274-.113-.113-.137-.315-.093-.463.048-.159.147-.237.315-.234.132.001.268.004.268.169 0 .004-.005.031-.007.017"/>
        <path fill="#e98b6f" d="M30.915 24.032c.058-.064.119-.016.184.027q.088.062.114.167c.041.15.03.354-.051.49a.37.37 0 0 1-.309.184c-.178.003-.238-.152-.252-.302-.004-.04-.012-.135.027-.162.041-.028.075.036.104.063.041.036.1.048.153.05.102.004.2-.052.26-.13q.016-.022.024-.047.007.147-.013.067a.3.3 0 0 0-.037-.068c-.043-.067-.116-.11-.164-.173-.024-.029-.07-.133-.04-.166"/>
        <path fill="#001940" d="M26.595 57.162h6.697l.38-16.317-3.014-10.587-5.65 3.34 2.93 13.109z"/>
        <path fill="#002952" d="m30.658 30.258 3.014 10.587-.013.503-3.795-3.885s-.4-.675.14-1.074l.897-.857-.64-.459s-.896-.435-.787-1.25l.257-3.066z"/>
        <path fill="#001940" d="m41.735 57.162-.545-11.465 1.128-11.212c.4-2.023-1.554-2.539-1.554-2.539l-3.432-1.613-.48 10.227 1.24 16.602z"/>
        <path fill="#7ad0e2" d="M36.936 30.477s-.23-.884-1.35-1.631l.147 3.048s.622-1.56 1.203-1.417"/>
        <path fill="#3eaec6" d="m37.034 31.894-.101-1.417c-.343-.083-.648.396-.898.789z"/>
        <path fill="#004788" d="m34.592 31.181-.092-.171-.625.96.537.19zM36.04 31.266l.174-.269s.668.561-.033 1.164c0 0 0-.497-.142-.895"/>
        <path fill="#0059a5" d="M34.59 31.181s.53.471 1.446.085c.201.255.2.58.142.895l-.474.979h-.664l-.63-.98s-.065-.215.18-.979"/>
        <path fill="#004788" d="m35.044 33.14-.536 14.013 1.118 2.177.913-2.166-.832-14.024z"/>
        <path fill="#002952" d="m37.332 30.333.884.416.64 2.952s.32.764-.144.964l-.834.486 1.175.744s.62.388.239.958l-2.358 4.604-.075-.787z"/>
        <path fill="#f7a483" d="m31.335 42.02-1.379-1.087s-2.074-.305-3.11-.174c0 0-.342.477 2.274.55 0 0-1.835.585-2.424 1.022 0 0-.094.542 1.584-.246l.763-.056-1.775.886s.07.338 1.686-.101l1.62.178z"/>
        <path fill="#00153b" d="m40.158 42.223-8.88-1.062c-.444.542-.871 1.527-.68 2.557l11.34 3.597s2.997.532 2.207-3.077c0 0-1.266-1.84-3.988-2.015"/>
        <path fill="#f7a483" d="M40.157 42.223s-1.595.86-2.193.928l-.929-1.602 1.268-.823.87-.2s1.43-.369 1.807 1.594z"/>
        <path fill="#002952" d="M24.283 45.33c-.536 3.244 2.082 3.099 2.082 3.099l11.772-5.004c-.339-1.865-1.102-2.156-1.102-2.156l-10.29 1.963s-1.936.608-2.462 2.098"/>
    </g>
    <defs>
        <clipPath id="a">
            <path fill="#fff" d="M2.5 5.5h62v51.676h-62z"/>
        </clipPath>
    </defs>
</svg>
