<svg xmlns="http://www.w3.org/2000/svg" width="68" height="69" fill="none" viewBox="0 0 68 69">
    <g clip-path="url(#a)">
        <path fill="#f4a27a" d="M31.907 35.696s2.525 4.739 2.762 4.894 4.532 1.66 4.532 1.66v-1.005s-3.288-2.184-3.318-2.446-2.322-5.382-2.322-5.382z"/>
        <path fill="#f26b6a" d="M29.844 27.8s1.627.338 2.734 1.54c.715.776 1.721 6.285 1.721 6.285s-.61 1.433-2.268 1.354l-1.727-3.344z"/>
        <path fill="#e55a58" d="M32.625 33.966c-.117-1.305-2.237-4.364-2.237-4.364l-.396 1.171.309 2.862 1.727 3.344c.352.017.656-.035.918-.126a90 90 0 0 1-.32-2.887"/>
        <path fill="#0e3251" d="M36.6 24.983s-1.103.22-1.537.701c-.433.482-2.746 7.09-3.158 7.95s-2.062 2.487-2.062 2.487l-.706 3.616s3.31-1.977 4.264-2.517c.954-.541 2.87-4.595 3.495-5.386.624-.791-.297-6.851-.297-6.851"/>
        <path fill="#00263f" d="m37.083 31.135-.436-.689s-.433-.058-1.095 1.253c-.663 1.31-1.443 4.922-2.166 5.155-.692.223-3.093.633-3.936 1.281l-.313 1.602s3.31-1.976 4.264-2.517 2.87-4.595 3.495-5.386c.096-.122.155-.369.187-.7"/>
        <path fill="#c77350" d="M50.48 51.077s-.487.359-.533.317-.119-.491.295-.695c0 0 .04-.275.132-.708l-.203-1.01.26-.066.673.912z"/>
        <path fill="#df8a64" d="M50.261 51.663s-.275.123-.331.113c-.058-.01-.267-.292.493-.826 0 0 .103-.717.118-.993 0 0-.24-.517-.637-1.216-.104-.184.254-.264.254-.264l.776 1.589-.331 1.44z"/>
        <path fill="#f4a27a" d="M49.792 46.514s-.154.72-.334 1.106c0 0-.227.457-.263.864s-.151 1.464-.093 1.716c.06.25.25.728.25.728s.4-.139.316-.756c-.082-.617.212-.977.405-1.331 0 0 .594.788.664 1.39 0 0-.109.664-.184.981 0 0-.842.59-.538 1.02 0 0 .81-.543 1.137-.725.24-.133.34-2.043.351-2.246.011-.204-.276-2.497-.31-2.67z"/>
        <path fill="#0e3251" d="M47.686 25.176s1.447.537 2.004 1.327c.622.883.824 5.958.995 7.193.17 1.234.316 1.482.132 2.816 0 0 .423.67.375 1.11s-.016.728-.006 1.458c.01.793.28 5.346.17 6.268-.088.732-1.953.178-1.953.178s-.43-3.374-.694-5.091c-.194-1.27-.488-3.007-.585-3.663-.096-.657-.978-4.312-1.437-4.322z"/>
        <path fill="#00263f" d="M51.356 45.349q.006-.042.01-.094c-.329-.01-.66-.621-.94-.744-.304-.134-.525.438-.847.508-.323.07.377-1.088.448-1.347s-.482-.726-.6-1.053c-.116-.327-.269-1.094-.26-1.24.007-.145 1.284 1.412 1.364 1.154s-1.144-1.492-1.376-2.03-.424-1.277-.202-1.352 2.01 2.18 2.08 1.95c.07-.229-2.236-2.571-2.236-2.571s.607-1.046.707-1.303c.101-.257-1.095-1.169-1.225-1.438-.131-.27.292-1.676.49-2.657.197-.981-1.62-3.268-1.62-3.268-.101.024-.09.373-.168.448l-.294 2.138c.459.01 1.341 3.665 1.437 4.322s.39 2.394.585 3.663c.264 1.718.694 5.091.694 5.091s1.865.554 1.953-.178"/>
        <path fill="#523932" d="M37.002 77.143s.717.79 2.517.232l2.038-25.722h.727l2.038 25.722c1.8.559 2.516-.233 2.516-.233s.737-22.993.657-26.604c-.055-2.492-.251-6.198-.251-6.198l-5.324.335-5.142-.574s-.377 3.945-.432 6.437c-.044 1.957.153 9.61.343 16.208 0 0 .096 5.593-.056 5.986 0 0-.174.196-.022.546s.174.677.174.677-.38.437-.282.677.347.568.347.568-.368.218-.347.415.369.59.326.72c-.044.132-.29.524.174.808"/>
        <path fill="#0e3251" d="M37.002 77.143s.717.79 2.517.232l2.038-25.722h.727l2.038 25.722c1.8.559 2.787-.369 2.787-.369s.466-22.857.386-26.468c-.055-2.492-.251-6.198-.251-6.198l-5.324.335-5.142-.574s-.377 3.945-.432 6.437c-.044 1.957.153 9.61.343 16.208 0 0 .096 5.593-.056 5.986 0 0-.174.196-.022.546s.174.677.174.677-.38.437-.282.677.347.568.347.568-.368.218-.347.415.369.59.326.72c-.044.132-.29.524.174.808"/>
        <path fill="#002037" d="m47.386 47.358-.072-1.593c-1.675.273-7.691 1.127-10.674-.102l-.054.686-.01.106-.016.22c-.094 1.243-.189 2.708-.214 3.863-.044 1.957.153 9.61.343 16.207 0 0 .096 5.593-.056 5.986 0 0-.174.197-.022.546s.174.677.174.677-.38.438-.282.678.347.567.347.567-.368.219-.347.416.369.59.326.72c-.03.09-.152.298-.084.512.507.014.946.247 1.32.122.52-.174-1.236-.634-.88-1.092.358-.459 1.183.35 1.313 0s-1.214-1.136-1.6-1.442c-.384-.306.256-.743.574-1.136.319-.393-.318-2.97-.573-3.757s.211-2.752.545-3.233c.333-.48-.464-1.004-.545-1.573-.082-.568.471-1.354.573-2.185.102-.83-.536-2.62-.823-2.97-.288-.35.287-4.894.536-5.33.25-.437-.205-1.049-.286-1.791-.082-.743 1.209-2.622 1.382-3.57.12-.656 5.14 1.432 9.105-1.532" opacity=".6"/>
        <path fill="#002037" d="M44.87 76.096c-.39-.306-.26-.612.13-1.879s.217-2.446 0-2.752-1.443-3.709-.948-3.801c.494-.092 1.816 2.316 2.31 2.053.495-.262-2.94-3.668-2.31-3.844s1.685 2.14 2.023 1.835-1.942-2.883-2.202-3.627c-.26-.742.65-.568.752-1.048s-.666-2.097-1.071-3.277c-.406-1.179 1.316-2.796 1.273-4.194s-2.546-3.909-2.546-3.909l1.884 25.732c1.17.364 2.037.146 2.392-.043a.8.8 0 0 0 .048-.335c-.025-.416-1.344-.605-1.735-.91z" opacity=".6"/>
        <path fill="#000814" d="M47.33 46.104c-.048-1.032-.087-1.764-.087-1.764l-5.324.335-5.142-.574s-.082.861-.175 2.034c1.533.39 6.07 1.308 10.728-.03"/>
        <path fill="#e98e66" d="M47.767 25.554c-.047-.22-.098-.354-.143-.379-.318-.175-3.903-1.223-3.903-1.223-.202-.35-.215-2.155-.215-2.155l-1.526-.574v-.01l-.011.005-.011-.004v.009l-1.526.574s-.013 1.806-.215 2.155c0 0-3.333.982-3.651 1.157-.045.024-.148.236-.191.456l5.55.31z"/>
        <path fill="#c66a42" d="M42.689 23.69c.348-.069.657-.259.889-.443-.065-.64-.072-1.45-.072-1.45l-1.525-.575v-.009l-.011.005-.011-.005v.01l-1.526.573s-.003.395-.027.85c.515.366 1.708 1.155 2.282 1.043"/>
        <path fill="#f4a27a" d="M45.679 17.236s.387-.684.99-.694c.357-.005.252 1.475-.117 1.857s-.905.255-1.025-.083z"/>
        <path fill="#cf6244" d="M45.762 18.267s.45.16.644-.219c.194-.377.382-.831.232-1.165 0 0-.415.098-.799.878 0 0 .282.351-.077.506" opacity=".4"/>
        <path fill="#91554a" d="M46.7 17.359q-.006-.107-.016-.213c-.01-.07-.018-.142-.04-.204a.1.1 0 0 0-.021-.036c-.01 0-.004-.006-.019.003a.4.4 0 0 0-.088.054 2.333 2.333 0 0 0-.444.437c-.046.053-.078.115-.119.172-.02.028-.032.061-.049.092l-.046.093-.005-.034q.054.073.086.157c.02.056.034.117.025.179a.23.23 0 0 1-.09.152.4.4 0 0 1-.155.073.5.5 0 0 0 .139-.09.2.2 0 0 0 .064-.14c.005-.104-.054-.208-.12-.287l-.014-.017.008-.017.046-.1c.016-.032.028-.068.05-.098.04-.06.072-.127.119-.182.086-.118.19-.22.298-.315q.041-.036.085-.068a1 1 0 0 1 .09-.063.6.6 0 0 1 .097-.05c.017-.014.062-.01.08.011q.021.03.03.058a.8.8 0 0 1 .022.218q0 .108-.013.215"/>
        <path fill="#91554a" d="M46.572 17.426s-.027-.026-.069-.052c-.022-.011-.046-.025-.075-.031a.2.2 0 0 0-.089-.015c-.03-.01-.064 0-.094-.001q-.046 0-.085.007c-.051.006-.09.005-.09.005s.029-.023.078-.048c.024-.012.052-.03.088-.034.035-.003.071-.017.11-.01a.3.3 0 0 1 .11.031c.035.012.057.043.078.061a.2.2 0 0 1 .038.086z"/>
        <path fill="#f4a27a" d="M42.5 22.785s1.821-.88 2.448-1.871c.516-.695.94-4.237 1-4.787l.005-.054.003-.027a4 4 0 0 0 .015-.345c0-2.12-1.706-3.84-3.812-3.84s-3.811 1.72-3.811 3.84q0 .207.021.409s.437 4.043 1.002 4.804c.664 1.135 2.449 1.871 2.449 1.871s.322.12.68 0"/>
        <path fill="#000" d="M40.222 13.557s-.797.202-.873.284.689-1.398 1.735-.508z"/>
        <path fill="#f4a27a" d="M38.6 17.398s-.387-.684-.99-.694c-.357-.006-.25 1.474.118 1.857s.905.255 1.024-.084z"/>
        <path fill="#cf6244" d="M38.517 18.43s-.45.158-.644-.22-.383-.831-.233-1.165c0 0 .415.098.799.878 0 0-.281.351.078.506" opacity=".4"/>
        <path fill="#91554a" d="M37.583 17.52a2 2 0 0 1-.013-.215c0-.072.002-.144.023-.218a.2.2 0 0 1 .03-.058c.018-.021.062-.024.079-.012q.048.02.097.05.05.03.09.064c.03.023.06.043.085.068.11.095.213.198.298.315.047.055.08.122.12.182.02.03.032.066.05.098l.045.1.009.017-.014.017c-.067.08-.126.183-.12.287a.2.2 0 0 0 .064.14c.037.04.088.065.139.091a.4.4 0 0 1-.155-.073.23.23 0 0 1-.091-.153.4.4 0 0 1 .025-.18.6.6 0 0 1 .087-.156l-.006.034-.046-.093c-.017-.03-.028-.064-.049-.092-.04-.057-.072-.12-.119-.172a2.3 2.3 0 0 0-.283-.308 2 2 0 0 0-.16-.129.4.4 0 0 0-.089-.055c-.014-.008-.01-.003-.018-.002a.1.1 0 0 0-.021.036c-.023.062-.03.134-.04.203q-.011.106-.016.213z"/>
        <path fill="#91554a" d="M37.711 17.588s.003-.039.039-.086c.02-.018.043-.049.078-.061a.3.3 0 0 1 .11-.03c.039-.008.075.006.11.01.035.002.063.021.088.032.049.026.077.049.077.049s-.038.001-.09-.005a.5.5 0 0 0-.085-.008c-.03.001-.064-.009-.094.001a.2.2 0 0 0-.09.016c-.028.006-.052.02-.075.03-.04.026-.068.052-.068.052"/>
        <path fill="#5f221b" d="M42.626 18.934s0 .677-.137.75.008-.394.137-.75"/>
        <path fill="#85453e" d="M39.727 18.576s.054-.085.126-.153c.07-.07.157-.123.157-.123s-.055.086-.127.154c-.07.07-.157.122-.156.122M40.072 18.358s-.05.138-.123.264a2 2 0 0 1-.16.243s.05-.138.123-.264c.069-.128.16-.243.16-.243M40.244 18.439s-.022.084-.066.156c-.041.074-.104.135-.104.135s.023-.085.066-.157c.041-.074.104-.134.103-.134M44.58 18.751s-.086-.052-.156-.122c-.072-.068-.127-.154-.127-.154a.9.9 0 0 0 .283.276M44.234 18.533a2 2 0 0 0 .283.508s-.091-.115-.16-.243c-.072-.127-.123-.265-.123-.265M44.066 18.613s.063.061.104.135c.044.072.066.157.066.157s-.063-.061-.104-.135a.7.7 0 0 1-.066-.157"/>
        <path fill="#231114" d="M41.282 16.036s-.723-.8-1.731-.549c0 0-.33.316-.348.476 0 0 .792-.175 2.079.073M43.11 16.035s.879-.742 1.558-.566c0 0 .405.136.52.494 0 0-.792-.175-2.079.073"/>
        <path fill="#e38a62" d="M41.818 22.785s.252.093.557.033c-2.554-.859-3.633-4.088-3.633-4.088.17.946.387 1.862.627 2.184.664 1.135 2.449 1.872 2.449 1.872"/>
        <path fill="#316c8e" d="M37.001 45.246s-.151 1.045-.086 1.122c.064.077.336.164.412.12.076-.043.14-1.111.14-1.111s.028-.131-.054-.164c-.144-.058-.39-.14-.412.033M39.025 45.653s-.152 1.046-.087 1.123.336.163.412.12.141-1.112.141-1.112.027-.131-.054-.164c-.145-.058-.39-.14-.412.033M46.548 45.386s.152 1.046.087 1.122-.336.164-.412.12c-.076-.043-.14-1.11-.14-1.11s-.028-.132.053-.165c.145-.058.392-.14.412.033M44.525 45.793s.152 1.046.087 1.123-.336.163-.412.12-.141-1.111-.141-1.111-.027-.132.054-.164c.145-.058.392-.14.412.032"/>
        <path fill="#91afb8" d="M42.847 45.772h-2.05a.087.087 0 0 0-.086.087v1.02c0 .05.039.088.087.088h2.05a.087.087 0 0 0 .086-.087v-1.021a.087.087 0 0 0-.087-.087"/>
        <path fill="#74969d" d="M40.711 46.54v.34c0 .047.04.086.087.086h2.05c.047 0 .086-.039.086-.087v-.339z"/>
        <path fill="#d5e5e9" d="M42.93 45.907v-.049a.087.087 0 0 0-.087-.087h-2.05a.087.087 0 0 0-.086.087v.049z"/>
        <path fill="#7ed2f1" d="m49.503 46.78-.218-1.444 2.165-.09-.042 1.473zM46.555 24.795l-2.882-.968s0 1.623-1.644 2.023c-.236.057-1.68-.727-1.763-2.023l-3.164 1v22.152h9.454z"/>
        <path fill="#5ab6ca" d="M45.018 46.979c.268-.725 1.027-2.83 1.538-4.74v-3.556c-.363.062-.951.528-1.843 1.567-5.135 5.977-6.634-4.127-6.634-4.127l-.24 10.856z"/>
        <path fill="#0e3251" d="M40.93 26.248s.66 1.421.769 1.333.607 0 .607 0 .326-.853.456-1.399l-.733-.332z"/>
        <path fill="#c9eaf6" d="M40.273 23.912a.5.5 0 0 0-.21.085c-.419.348-.187 3.642 0 3.584.189-.058 1.964-1.731 1.964-1.731-.23.056-1.615-.693-1.754-1.937M43.661 23.976c-.046.41-.293 1.547-1.634 1.873l2.113 1.732c.072-.509-.267-3.584-.267-3.584z"/>
        <path fill="#0e3251" d="m47.802 25.214-4.02-1.35v23.868c1.355-.101 2.732-.309 3.987-.684 0 0 0-.548-.267-5.248-.076-1.333.284-4.362 0-6.468 0 0 .378-3.572.507-5.358.138-1.9-.207-4.76-.207-4.76M40.226 23.84l-3.99 1.26s-.435 3.79.368 8.99c0 0-.233 4.734-.263 5.811-.026 1.002-.61 7.22-.279 7.515 0 0 1.774.288 4.164.373z"/>
        <path fill="#2b557a" d="M40.35 23.365s-.731.31-1.144.886-1.151 7.524-1.151 7.524l1.284.786-.585 2.01s1.21 4.368 1.47 4.325zM43.575 23.365s.73.31 1.143.886 1.152 7.524 1.152 7.524l-1.284.786.584 2.01s-1.133 4.412-1.393 4.368z"/>
        <path fill="#0e3251" d="m41.631 27.297-.498 8.171.693 1.158.607-1.223-.151-8.106z"/>
        <path fill="#fff" d="M41.358 17.609s-.17-.55-.549-.86c-.541-.442-1.523-.27-1.471.559 0 0 .037.764.724.864.555.08 1.09-.168 1.296-.564"/>
        <path fill="#231114" d="M40.808 16.75a1.08 1.08 0 0 0-.91-.21c-.17.192-.28.499-.28.845 0 .269.066.513.175.7q.112.061.267.087c.286.041.566-.005.8-.113.1-.183.16-.418.16-.674 0-.19-.035-.369-.093-.523a1 1 0 0 0-.12-.113"/>
        <path fill="#231114" d="M41.358 17.609s-.077-.178-.234-.411c-.04-.057-.084-.12-.136-.18a1.4 1.4 0 0 0-.173-.174.5.5 0 0 0-.1-.078 1.004 1.004 0 0 0-.36-.154 1 1 0 0 0-.262-.028 1 1 0 0 0-.251.04.7.7 0 0 0-.297.173.3.3 0 0 0-.067.078c-.042.052-.063.111-.09.162-.013.054-.03.101-.036.142l-.015.13-.013-.133c-.001-.042.008-.093.013-.154.017-.057.03-.127.07-.192a.4.4 0 0 1 .066-.099.736.736 0 0 1 .328-.228 1 1 0 0 1 .585-.033 1.1 1.1 0 0 1 .406.186l.058.043.05.05c.07.063.125.135.174.204.05.069.087.14.121.203a2 2 0 0 1 .163.454z"/>
        <path fill="#fff" d="M42.957 17.609s.17-.55.55-.86c.54-.442 1.522-.27 1.47.559 0 0-.037.764-.723.864-.555.08-1.091-.168-1.297-.564"/>
        <path fill="#231114" d="M43.504 16.75c-.149.12-.265.278-.352.426a1.46 1.46 0 0 0 .103.769c.261.186.624.28.996.226q.027-.004.052-.01c.146-.195.24-.479.24-.796 0-.348-.113-.657-.285-.85-.26-.019-.542.06-.755.234"/>
        <path fill="#231114" d="M42.958 17.609s.007-.048.032-.128.064-.195.13-.326c.034-.064.072-.135.122-.203.049-.069.102-.14.173-.204l.05-.05.057-.044a1.125 1.125 0 0 1 .705-.212q.151.01.286.06a.74.74 0 0 1 .394.327c.04.065.053.135.07.192.006.06.015.112.013.154l-.012.133-.016-.13c-.006-.04-.023-.088-.036-.142-.026-.05-.047-.11-.09-.162a.4.4 0 0 0-.067-.078.733.733 0 0 0-.296-.172 1 1 0 0 0-.251-.04 1.1 1.1 0 0 0-.622.18.5.5 0 0 0-.1.079 1.4 1.4 0 0 0-.174.175q-.075.091-.135.18c-.157.233-.234.41-.234.41"/>
        <path fill="#fff" d="M40.157 17.12c.01.077-.121.157-.292.178s-.316-.025-.326-.103c-.008-.078.122-.158.292-.18.17-.02.317.026.326.104M44.82 17.19c-.017.077-.167.109-.335.07-.168-.037-.29-.13-.272-.206.016-.077.166-.108.334-.07s.29.13.272.207M43.474 20.194s-.33.59-1.28.59c-.285 0-.682-.077-.975-.59 0 0 1.919.044 2.255 0"/>
        <path fill="#231114" d="m38.213 16.946.068.072.234.25s.482-1.029.408-2.248c0 0 .845-2.162 1.3-1.463 0 0 .133-.503.338-.328.205.174 2.882 2.254 4.97 2 0 0 .332 1.549.234 1.893l.465-.448s.544-1.173.474-2.047c0 0-.94-4.456-5.775-4.107 0 0-.563.066-.916.503 0 0-.774-.118-1.26.188-.485.306-1.903 3.805-.79 5.577l.25.16z"/>
        <path fill="#382526" d="M45.25 12.01c-.478.375-1.185.705-2.106.52-1.155-.233-3.287-1.6-4.885-.552a8 8 0 0 0-.228.562c.436-.327 1.241-.778 1.98-.36.96.545 5.434 3.221 6.608 2.149-.152-.483-.541-1.469-1.37-2.32"/>
        <path fill="#611f0f" d="M24.145 26.366s-2.34-.153-3.167-1.366c-.828-1.212-.1-3.929-.1-3.929l3.208 3.128zM29.931 21.568s-.435 3.629.15 4.465c0 0-1.552.977-4.007.967v-2.425l2.545-3.43z"/>
        <path fill="#001d2f" d="m30.277 46.976-5.167.105-5.168-.105s-.69 1.471-.692 4.952c-.003 3.32 1.434 6.45 2.003 14.945.328 4.895 1.035 8.523 1.035 8.523s.712.936 1.73 0l.76-20.966s.136.01.332.007c.194.002.331-.007.331-.007l.84 20.966c1.017.936 1.729 0 1.729 0s.628-3.628.956-8.523c.569-8.495 2.005-11.625 2.002-14.945-.002-3.48-.691-4.952-.691-4.952"/>
        <path fill="#001325" d="M19.942 46.976s-.69 1.471-.692 4.952c-.003 3.32 1.434 6.45 2.003 14.945.328 4.895 1.035 8.523 1.035 8.523s.712.936 1.73 0l.263-7.272c-4.388-5.044-4.06-17.557-3.866-21.138z"/>
        <path fill="#e98e66" d="M29.39 27.655c-1.052-.319-2.265-.667-2.265-.667-.618-.87-.487-2.155-.487-2.155l-1.254-.575v-.008l-.011.004-.012-.004v.008l-1.252.575s-.002 1.587-.489 2.155c0 0-3.585 1.048-3.903 1.223-.045.024-.092.16-.135.379l6.1 3.243 3.707-2.19z"/>
        <path fill="#f4a27a" d="m17.652 33.135 2.274 1.435c-.444 1.648-1.012 4.854-1.012 4.854-.068 3.104-1.366 8.916-1.366 8.916l-.743-.037c.271-5.779.612-8.91.612-8.91.119-.815.141-2.585.236-6.26z"/>
        <path fill="#e38a62" d="M19.627 35.81c-.075-.093-.128-.15-.128-.15l-1.903-.29c-.025.992-.045 1.78-.069 2.404.505.086 1.106.122 1.696-.005.118-.61.26-1.31.404-1.96"/>
        <path fill="#f26b6a" d="M20.92 27.8s-2.012.36-2.75 1.588c-.544.906-.983 6.706-.983 6.706s.765 1.357 2.404 1.093l1.348-3.517z"/>
        <path fill="#e55a58" d="m19.591 37.186 1.348-3.517-.014-4.232c-.035-.182-.062-.252-.074-.172-.105.642-.807.89-1.788 3.245-.896 2.152-.458 4.303-.376 4.658.264.057.565.073.904.018"/>
        <path fill="#c66a42" d="M24.027 25.834c.58.395 1.56.99 2.065.892.275-.054.526-.184.734-.328-.269-.765-.187-1.564-.187-1.564l-1.255-.575v-.009l-.011.005-.011-.005v.009l-1.253.575s-.001.476-.082 1"/>
        <path fill="#f26b6a" d="M20.979 41.337c-.158 1.57-.752 4.097-1.023 5.84 0 0 1.577 1.34 5.42 1.34 4.165 0 5.097-1.34 5.097-1.34a69 69 0 0 1-.392-2.767c-.334-2.754-.323-5.376.189-7.19 0 0 .638-2.004.767-3.79.137-1.901-.956-5.548-.956-5.548l-1.74-.593s-1.619 3.585-2.83 3.607c-.675.012-2.38-2.447-2.943-3.595l-1.787.545s-2.12 4.728-.559 9.054c0 0 .922 2.797.757 4.438z"/>
        <path fill="#cf6744" d="M17.701 49.166c.011.176.052 1.013.255 1.272.24.306.5.687.332.767-.169.08-.557-.246-.864-.764a4.4 4.4 0 0 1-.326-.757z"/>
        <path fill="#db7b58" d="M17.58 49.267c.012.175.155 1.183.357 1.443.24.306.5.687.332.767-.17.08-.557-.247-.864-.764a4.4 4.4 0 0 1-.327-.757z"/>
        <path fill="#f4a27a" d="M17.572 48.253s.73.86.874 1.2c0 0 .447.633.566.733.12.101-.1.349-.58-.148-.478-.495-.808-.602-.895-.56 0 0 .033 1.026.249 1.348.433.646.752.996.577 1.06s-1.01-.76-1.27-1.303-.338-1.976-.284-2.39zM29.055 20.399s.389-.688.995-.698c.36-.006.253 1.483-.117 1.867-.37.385-.91.257-1.03-.084z"/>
        <path fill="#cf6244" d="M29.137 21.436s.452.16.647-.22.385-.837.234-1.172c0 0-.418.098-.803.883 0 0 .282.353-.078.509" opacity=".4"/>
        <path fill="#91554a" d="M30.08 20.522q-.004-.108-.015-.215c-.01-.07-.018-.143-.04-.205a.1.1 0 0 0-.021-.036c-.01 0-.005-.006-.02.003a.5.5 0 0 0-.088.055 2.319 2.319 0 0 0-.447.44c-.046.052-.079.115-.12.172-.02.028-.031.062-.048.093l-.047.093-.005-.034q.054.074.086.158c.02.056.034.117.026.18a.23.23 0 0 1-.092.153.4.4 0 0 1-.155.073c.05-.025.101-.05.14-.091a.2.2 0 0 0 .064-.14c.005-.105-.055-.209-.121-.289l-.014-.017.008-.018.046-.1c.017-.032.029-.068.05-.098.04-.06.073-.128.12-.183.086-.118.19-.222.3-.317q.041-.036.085-.069a1 1 0 0 1 .092-.063.5.5 0 0 1 .097-.05c.016-.013.062-.01.08.011q.022.03.03.058a.8.8 0 0 1 .022.22q0 .108-.013.216"/>
        <path fill="#91554a" d="M29.95 20.59s-.028-.027-.069-.053c-.023-.01-.047-.024-.075-.03-.027-.013-.059-.014-.09-.016-.03-.01-.064 0-.094 0a.4.4 0 0 0-.087.007c-.051.006-.09.005-.09.005s.029-.023.078-.05c.025-.01.053-.03.089-.032s.071-.018.11-.01a.3.3 0 0 1 .11.03c.036.013.058.044.08.062.035.048.038.087.038.087"/>
        <path fill="#f4a27a" d="M25.856 25.98s1.73-.886 2.33-1.882c.495-.698 1.077-4.26 1.137-4.814l.006-.055.002-.027q.015-.17.015-.346c0-2.133-1.716-3.862-3.833-3.862s-3.833 1.729-3.833 3.862q0 .209.022.41s.596 4.067 1.138 4.832c.637 1.141 2.332 1.882 2.332 1.882s.324.119.683 0"/>
        <path fill="#742d17" d="M25.069 15.859s-.76-.11-1.244.167.6-1.573 1.012-1.1c.412.474.275.809.232.932"/>
        <path fill="#f4a27a" d="M21.998 20.562s-.39-.689-.995-.698c-.36-.006-.253 1.483.117 1.867.371.385.91.257 1.03-.084l-.152-1.086"/>
        <path fill="#cf6244" d="M21.916 21.599s-.452.16-.647-.22-.385-.837-.234-1.172c0 0 .417.099.803.883 0 0-.283.353.078.509" opacity=".4"/>
        <path fill="#91554a" d="M20.974 20.685a2 2 0 0 1-.013-.216c0-.073.001-.145.022-.22a.2.2 0 0 1 .03-.058c.019-.021.064-.024.08-.012q.05.02.097.05.05.03.092.064c.028.023.059.044.085.069.11.095.213.198.3.316.047.056.08.123.12.184.021.03.033.066.05.098l.046.1.008.018-.014.017c-.067.08-.126.184-.121.289a.2.2 0 0 0 .064.14.5.5 0 0 0 .14.092.4.4 0 0 1-.156-.074.23.23 0 0 1-.091-.154.4.4 0 0 1 .025-.18.7.7 0 0 1 .087-.158l-.006.035-.046-.094c-.017-.03-.028-.064-.049-.092-.04-.057-.073-.12-.12-.172a2.3 2.3 0 0 0-.284-.31 2 2 0 0 0-.162-.13.5.5 0 0 0-.088-.055c-.015-.009-.01-.004-.02-.003a.1.1 0 0 0-.02.036c-.023.062-.031.135-.04.205q-.01.107-.017.215"/>
        <path fill="#91554a" d="M21.102 20.753s.003-.039.039-.087c.02-.018.043-.05.078-.062a.3.3 0 0 1 .11-.03c.04-.008.076.006.111.01.036.002.064.022.09.033.048.026.077.049.077.049s-.039.001-.09-.005a.4.4 0 0 0-.087-.008c-.03.001-.064-.009-.094.001a.3.3 0 0 0-.09.015c-.029.007-.053.02-.075.031-.042.026-.07.053-.07.053z"/>
        <path fill="#5f221b" d="M26.074 22.214s.004.505-.134.578-.056-.283.133-.578"/>
        <path fill="#85453e" d="M23.066 21.747s.056-.086.128-.154c.07-.07.158-.123.158-.123s-.055.086-.128.154c-.07.07-.158.123-.158.123M23.417 21.527s-.05.14-.123.267c-.07.128-.161.244-.161.244s.05-.139.123-.266c.07-.128.161-.245.16-.245M23.584 21.608s-.022.085-.066.158c-.041.074-.104.135-.104.135s.022-.085.066-.157a.7.7 0 0 1 .104-.136M27.945 21.923s-.087-.053-.157-.123c-.073-.069-.128-.155-.128-.155a.9.9 0 0 0 .285.277M27.598 21.703a2 2 0 0 0 .284.51s-.092-.115-.161-.244c-.073-.127-.123-.266-.123-.266M27.43 21.784s.063.06.104.135c.044.072.066.157.066.157s-.063-.061-.104-.135c-.044-.072-.066-.157-.066-.157"/>
        <path fill="#8e4327" d="M24.594 19.024s-.897-.52-1.58-.342c0 0-.492.107-.51.269 0 0 .796-.176 2.09.073M26.563 19.024s.908-.52 1.591-.342c0 0 .481.107.499.269 0 0-.796-.176-2.09.073"/>
        <path fill="#9d4325" d="m20.462 24.527.016.09q-.01-.057-.017-.116z" opacity=".3"/>
        <path fill="#e55a58" d="M20.938 44.394c0-.822 1.1-2.621 1.447-3.276s-1.447-2.927-1.447-2.927c.765 0 2.141-.656 2.879-1.31.737-.656 3.339-1.052 3.339-1.052-.868-.353-2.342.352-4.405.658-1.59.236-2.572-.696-2.939-1.136.092.516.225 1.035.41 1.548 0 0 .922 2.797.757 4.438-.158 1.57-.751 4.097-1.023 5.84 0 0 1.577 1.34 5.42 1.34 1.346 0 2.353-.141 3.102-.33-6.025.018-7.54-2.83-7.54-3.792"/>
        <path fill="#000718" d="M22.8 20.465s-.219-.2-.238-.412c0 0 .353-.32.765-.374 0 0-.43.199-.527.786M28.382 20.465s.219-.2.238-.412c0 0-.353-.32-.765-.374 0 0 .43.199.527.786"/>
        <path fill="#fff" d="M24.772 20.765s-.17-.55-.549-.86c-.541-.442-1.523-.27-1.471.56 0 0 .038.763.724.863.555.08 1.09-.167 1.296-.563"/>
        <path fill="#231114" d="M24.222 19.905a1.08 1.08 0 0 0-.91-.21c-.17.194-.28.5-.28.847 0 .268.066.512.175.699.076.04.163.072.267.087.286.041.566-.005.8-.113.1-.183.16-.417.16-.673 0-.191-.035-.37-.093-.524a1 1 0 0 0-.119-.112"/>
        <path fill="#231114" d="M24.77 20.765s-.076-.178-.233-.411c-.041-.057-.085-.12-.136-.18a1.4 1.4 0 0 0-.173-.174.5.5 0 0 0-.1-.078.985.985 0 0 0-.36-.153 1.1 1.1 0 0 0-.262-.029 1 1 0 0 0-.25.04.7.7 0 0 0-.297.172.3.3 0 0 0-.067.079c-.043.052-.063.111-.09.162-.013.053-.03.101-.035.141l-.016.13-.013-.132c-.001-.042.008-.094.013-.154.017-.058.03-.127.07-.193a.4.4 0 0 1 .067-.098.736.736 0 0 1 .328-.228 1.02 1.02 0 0 1 .584-.034 1.1 1.1 0 0 1 .406.186l.058.043.05.05c.07.063.124.135.173.204.05.069.087.14.121.203a2 2 0 0 1 .163.454"/>
        <path fill="#fff" d="M26.372 20.765s.17-.55.548-.86c.541-.442 1.523-.27 1.472.56 0 0-.038.763-.724.863-.555.08-1.09-.167-1.297-.563"/>
        <path fill="#231114" d="M26.918 19.905c-.149.121-.265.28-.351.427a1.5 1.5 0 0 0 .103.77c.26.186.624.28.996.226q.027-.005.052-.012c.146-.194.24-.477.24-.794 0-.349-.113-.657-.285-.85-.26-.02-.542.06-.755.233"/>
        <path fill="#231114" d="M26.372 20.765s.007-.048.032-.128a2 2 0 0 1 .13-.326c.035-.064.072-.134.122-.203.049-.069.103-.14.173-.204l.05-.05.057-.043a1.119 1.119 0 0 1 .705-.212q.151.01.286.06a.74.74 0 0 1 .394.326c.041.065.053.136.07.193.005.06.014.112.013.154l-.012.133-.016-.13c-.005-.041-.023-.089-.036-.143-.026-.05-.047-.109-.09-.161a.4.4 0 0 0-.067-.079.733.733 0 0 0-.297-.172 1 1 0 0 0-.25-.04q-.133-.002-.262.028a1 1 0 0 0-.36.154.5.5 0 0 0-.1.078 1.4 1.4 0 0 0-.173.175q-.075.092-.136.179c-.157.234-.234.41-.234.41"/>
        <path fill="#fff" d="M23.571 20.275c.01.078-.12.158-.292.18-.17.02-.316-.026-.325-.104s.12-.158.291-.178c.171-.021.317.025.326.102M28.233 20.347c-.016.076-.166.108-.334.07s-.29-.13-.272-.208c.016-.076.166-.107.334-.07.168.038.29.131.272.208M26.669 23.373s-.295.526-1.143.526c-.166 0-.609-.07-.87-.526 0 0 1.713.039 2.013 0"/>
        <path fill="#742d17" d="M25.38 15.859s3.013.277 3.802 4.358c0 0 1.09-1.192 1.09.097 0 0 .34-3.25-.573-5.212-.665-1.428-3.963-2.797-4.626-1.165-.148.363.04 1.38 0 1.922h.306"/>
        <path fill="#8e4327" d="M27.382 14.994c1.374.72 3.12 2.68 2.906 5.127.056-.723.192-3.341-.59-5.02-.665-1.427-3.963-2.796-4.625-1.165a1 1 0 0 0-.022.067l-.024.142c-.05.455.08 1.255.046 1.714 0 0 .902-1.602 2.308-.864z"/>
        <path fill="#8e4327" d="M25.07 15.858s.062-.651-.475-.386c-1.016.502-3.036 8.13-1.465 11.178 0 0-2.29-.484-2.766-2.09-.477-1.606-.47-8.105.99-9.648 0 0 1.854-2.287 3.297-1.573 1.102.544 1.422.684.678 2.52h-.26M30.273 20.256l.011-.128z"/>
        <path fill="#9f563e" d="M20.926 15.588c-.186.406-.337.914-.457 1.48.77.325 1.771.683 2.919.945.157-.54.325-1.023.492-1.42a6.9 6.9 0 0 1-2.954-1.005M28.532 15.837a5.9 5.9 0 0 1 1.424 2.087q.17-.051.34-.107c-.06-.848-.206-1.774-.521-2.538-.38.192-.798.382-1.244.558"/>
    </g>
    <defs>
        <clipPath id="a">
            <path fill="#fff" d="M16.5 10.5h35v46h-35z"/>
        </clipPath>
    </defs>
</svg>
