<svg xmlns="http://www.w3.org/2000/svg" width="140" height="133" fill="none" viewBox="0 0 140 133">
    <g clip-path="url(#a)">
        <path fill="#fff" d="M50 88.087H16.5c1.5 8 4.6 24.5 5 26.5s11.167 5.167 16.5 6.5l13.5-2c.833-1 2.5-3.3 2.5-4.5 0-1.5 1-7 1-9.5v-11c0-1.6-.667-4.666-1-6z"/>
        <g clip-path="url(#b)">
            <path fill="#263238" d="m81.754 30.952-.176-.217a47 47 0 0 1 3.813-2.756l.153.233a46 46 0 0 0-3.79 2.74M79.702 32.7l-.186-.205c.373-.335.754-.67 1.138-.995l.18.21c-.38.322-.759.655-1.13.99z"/>
            <path fill="#263238" d="M123.046 47.378c-4.005 14.861-19.525 27.896-34.66 29.118-15.136 1.22-24.16-9.838-20.154-24.7 4.005-14.86 19.524-27.898 34.66-29.117s24.159 9.838 20.154 24.699"/>
            <path fill="#fff" d="M119.414 47.672c-3.476 12.89-16.936 24.2-30.068 25.258-13.132 1.059-20.958-8.536-17.482-21.427 3.477-12.89 16.937-24.2 30.068-25.258 13.132-1.059 20.959 8.536 17.482 21.427"/>
            <path fill="#d92e29" d="M101.411 28.167c-12.049.97-24.401 11.348-27.59 23.178l43.633-3.515c3.19-11.83-3.994-20.632-16.043-19.663"/>
            <path fill="#fff" d="m73.823 51.345 21.816-1.759-11.345-13.902C79.3 39.878 75.415 45.43 73.82 51.345z" opacity=".7"/>
            <path fill="#fff" d="M101.414 28.167c-6.026.485-12.124 3.322-17.117 7.517l11.345 13.902z" opacity=".4"/>
            <path fill="#fff" d="m101.413 28.167-5.772 21.42 19.508-16.388c-2.903-3.558-7.71-5.516-13.736-5.032" opacity=".1"/>
            <path fill="#fff" d="M105.337 48.805c-1.417 5.258-6.91 9.874-12.266 10.303s-8.55-3.482-7.134-8.74c1.417-5.259 6.911-9.875 12.267-10.304 5.357-.432 8.55 3.482 7.133 8.74"/>
            <path fill="#263238" d="M97.938 53.69c-2.976 2.085-6.416 1.941-7.685-.325-1.27-2.266.111-5.793 3.084-7.88 2.972-2.085 6.415-1.941 7.685.325s-.112 5.793-3.084 7.88"/>
            <path fill="#263238" d="M111.969 38.133s-7.125 2.449-14.649 7.727l2.052 3.657c7.523-5.278 12.597-11.387 12.597-11.387z"/>
            <path fill="#d92e29" d="M76.334 59.521c-.286 0-.476-.219-.428-.51a.75.75 0 0 1 .656-.595l23.97-1.895c.315-.025.527.202.476.507a.75.75 0 0 1-.656.595l-23.97 1.895h-.048zM97.069 61.793c-.287 0-.476-.219-.429-.51a.75.75 0 0 1 .657-.596l7.802-.617c.314-.025.526.202.476.507a.75.75 0 0 1-.657.595l-7.802.618h-.047zM57.436 71.717c-.287 0-.476-.219-.429-.51a.75.75 0 0 1 .657-.595l7.802-.618c.312-.025.526.202.476.507a.75.75 0 0 1-.657.595l-7.802.618h-.047zM64.381 67.182c-.287 0-.476-.22-.428-.51a.75.75 0 0 1 .656-.596l23.378-1.848c.311-.025.526.202.475.507a.75.75 0 0 1-.656.596l-23.377 1.848h-.048z"/>
        </g>
        <path fill="#191919" d="M34.27 29.745c-.454-1.69-1.42-3.35-3.026-4.167-1.63-.834-3.565-1.101-5.379-.95-2.699.224-5.082 1.39-6.429 3.052-1.619.883-3.028 2.608-2.763 6.213.205 2.783 1.506 6.343 7.424 7.206 2.2.321 4.351.467 6.113-.888 1.5-1.15 2.783-2.88 3.547-4.793.736-1.84.996-3.851.507-5.673z"/>
        <path fill="#191919" d="M8.997 34.96c-1.415 1.076-2.025 2.077-4.01 2.428-1.715.302-3.08-.302-3.485-1.398-1.142 2.232 1.921 3.5 3.284 3.482-1.883.453-3.773-.038-4.723-.608-.275 2.332.316 3.79 2.394 5.617 1.25.588 3.746.607 5.503-.068-.47.575-1.714 1.585-3.009 1.666.815.747 3.984 1.846 7.179.024 1.727-.985 3.112-3.19 4.342-4.4 2.187-2.15 3.828-2.596 5.247-2.928 1.128-.264.831-3.554-.005-3.819-2.062-.65-4.178-1.56-6.34-1.819-2.324-.275-4.526.41-6.38 1.822z"/>
        <path fill="#191919" d="M17.58 33.461c-.874-.804-2.075-1.139-3.236-1.23-1.16-.092-2.48.056-3.624.493-1.334.508-2.491 1.369-3.5 2.365-.514.502-.98 1.044-1.453 1.584-.496.567-1.025 1.125-1.69 1.503-.733.416-1.643.621-2.46.346-.651-.219-1.326-.78-1.34-1.517-.002-.173-.272-.173-.27 0 .012.623.416 1.147.921 1.479.589.391 1.301.496 1.995.391 1.562-.243 2.558-1.476 3.543-2.588s2.027-2.105 3.301-2.815a7.97 7.97 0 0 1 3.76-.99c1.32-.022 2.847.234 3.867 1.176.127.12.319-.072.192-.191zM26.473 26.406c1.954.073 3.995.23 5.735 1.204 1.45.812 2.624 2.194 2.691 3.913.035.905-.232 1.82-.855 2.491-.12.127.073.319.191.192 1.174-1.263 1.188-3.252.351-4.699-.934-1.619-2.696-2.556-4.464-2.968-1.195-.281-2.426-.357-3.649-.403-.172-.005-.172.265 0 .27"/>
        <path fill="#191919" d="M36.165 31.065c-.218-1.166-.874-2.213-1.751-3.002-.97-.874-2.187-1.416-3.452-1.694a12 12 0 0 0-2.34-.26c-.173-.002-.173.268 0 .27 2.475.043 5.138.81 6.563 2.988.354.54.6 1.133.718 1.768.033.17.292.097.26-.073z"/>
        <path fill="#ffc4b0" d="M21.189 28.18c.593 2.81-1.682 6.42-1.682 6.42a9.7 9.7 0 0 1 .831 2.213c-.604-.79-1.511-1.422-2.534-1.5s-2.124.515-2.383 1.462c-.256.937.372 1.955 1.277 2.394.904.438 2.142.465 3.257-.11.421.93 1.312 1.865 2.583 2.477l-.192 4.097-1.406.297c3.552 2.98 6.882 6.043 9.795 9.26.226-2.03.331-6.134-.791-9.322l-1.377-.154-.367-3.241c1.714-.178 6.688-1.749 5.833-8.267a9.4 9.4 0 0 0-1.22-3.543c-1.482-2.116-3.614-4.475-11.63-2.483z"/>
        <path fill="#191919" d="M20.875 27.745c1.055 1.827.996 4.461-.494 6.051-.394.421-.904.753-1.487.82-.17.02-.173.29 0 .27 1.118-.132 1.946-1.02 2.416-1.989a5.7 5.7 0 0 0 .467-3.433 5.6 5.6 0 0 0-.67-1.856c-.086-.152-.32-.014-.232.134z"/>
        <path stroke="#191919" stroke-linecap="round" stroke-linejoin="round" stroke-width=".405" d="M16.676 36.862c.237-.16.818-.273 1.398-.103.577.17 1.05.635 1.209 1.193"/>
        <path stroke="#191919" stroke-linecap="round" stroke-linejoin="round" stroke-width=".405" d="M17.656 37.515c.176-.116.791-.407 1.377-.073"/>
        <path fill="#191919" d="M24.613 42.146s1.358.556 3.593.327l.108.955s-2.17.135-3.7-1.282"/>
        <path stroke="#191919" stroke-linecap="round" stroke-linejoin="round" stroke-width=".405" d="M26.762 31.448c.043.742.24 1.64 1.1 3.02.1.16.209.321.25.505.061.275-.041.57-.209.796s-.4.4-.628.564"/>
        <path fill="#fff" d="M31.838 33.437c-.245-.599-.882-1.015-1.554-1.015s-1.603.392-1.706 1.339c.324.918 2.462 1.031 3.26-.324"/>
        <path fill="#191919" d="M30.97 34.085c-.19.459-.739.672-1.222.472-.483-.197-.718-.731-.524-1.19.192-.459.74-.672 1.223-.472.483.197.718.731.524 1.19"/>
        <path fill="#fff" d="m29.16 33.345.939.38-1.037.13z"/>
        <path stroke="#191919" stroke-linecap="round" stroke-linejoin="round" stroke-width=".405" d="M28.582 33.761c.378-.81.999-1.044 1.59-1.142.647-.108 1.141.038 1.678.592M32.462 32.77a.71.71 0 0 1-.61.424M29.184 30.528a3.3 3.3 0 0 1 2.682-.006"/>
        <path fill="#fff" d="M22.25 34.096c.167-.627.745-1.12 1.412-1.204.666-.087 1.64.183 1.862 1.11-.203.952-2.308 1.338-3.274.094"/>
        <path fill="#191919" d="M24.494 34.233c-.106.486-.608.794-1.118.686s-.837-.591-.731-1.077c.108-.486.607-.794 1.117-.686s.837.591.732 1.077"/>
        <path fill="#fff" d="m22.58 33.831.993.205-.999.316z"/>
        <path stroke="#191919" stroke-linecap="round" stroke-linejoin="round" stroke-width=".405" d="M25.525 33.998c-.477-.755-1.125-.906-1.724-.928-.656-.024-1.129.184-1.59.799M21.55 33.513c.133.224.4.364.66.342M24.702 30.72c-1.18-.109-2.143.05-2.858.655"/>
        <path fill="#191919" d="M26.625 37.83c.532 0 1.182.066 1.398.514.232-.572.64-.761.64-.761s-.521-.249-1.064-.157c-.542.092-.974.402-.974.402z"/>
        <path fill="#fff" d="M25.762 38.133c.183.243.901.804 1.965.58.232-.056.232-.202.296-.37-.05-.218-.442-.615-1.398-.512-.24.18-.607.278-.863.302"/>
        <path stroke="#191919" stroke-linecap="round" stroke-linejoin="round" stroke-width=".405" d="M29.177 37.572c-.526.056-1.053-.214-1.576-.143-.41.054-.761.305-1.134.485-.372.178-.842.278-1.182.044"/>
        <path stroke="#191919" stroke-linecap="round" stroke-linejoin="round" stroke-width=".405" d="M28.714 37.596c-.335.208-.6.478-.726.85-.022.06-.049.205-.257.268-.383.113-1.465.078-1.989-.61"/>
        <path fill="#fff" stroke="#191919" stroke-linecap="round" stroke-linejoin="round" stroke-width=".405" d="M20.58 39.92a.958.958 0 1 1-1.914.11.958.958 0 1 1 1.913-.11"/>
        <path stroke="#191919" stroke-linecap="round" stroke-linejoin="round" stroke-width=".405" d="M26.412 34.933a2.607 2.607 0 1 0-5.075-1.198 2.607 2.607 0 0 0 5.075 1.198M32.273 35.553a2.607 2.607 0 1 0-3.687-3.687 2.607 2.607 0 0 0 3.687 3.687"/>
        <path stroke="#191919" stroke-linecap="round" stroke-linejoin="round" stroke-width=".405" d="M26.418 33.76c.486-.401 1.29-.504 1.409-.18M21.267 34.336l-3.29.664"/>
        <path fill="#faa9a7" d="M33.918 46.106c3.355.272 5.13 3.17 7.047 5.592 2.124 2.682 3.055 4.037 3.055 4.037s-2.578 6.173-9.978 8.397z"/>
        <path fill="#ffc4b0" d="M52.577 64.596c5.112-.883 8.153 3.862 10.183 9.891 1.398 4.148 5.786 18.992 6.326 20.857.264.915.834 1.538 1.69 1.887 1.071.434 2.064 1.074 3.15 1.503a24.8 24.8 0 0 0 6.73 1.63c.885.086 1.811.135 2.583.58.532.305.985.912.81 1.498-.168.553-.788.812-1.342.98-2.601.791-5.306 1.182-7.959 1.778-1.97.443-3.913.996-5.873 1.49-1.595.402-3.989 1.414-5.457.232-.626-.504-.81-1.365-.92-2.162-.151-1.068-.491-4.796-.969-5.959-.74-1.794-1.554-3.56-2.315-5.346-.94-2.21-3.137-5.951-3.96-9.09s-.836-4.526-.88-5.282l-1.8-14.487z"/>
        <path fill="#191919" d="M61.478 70.43c-.683-1.689-2.359-5.797-7.103-6.452l-.535 16.217c-.035 3.517 1.8 6.734 3.938 11.576l10.026-3.67s-5.646-15.98-6.326-17.668z"/>
        <path fill="#191919" d="M56.56 88.97c-.59.353-.333 1.127.094 1.702.426.575.704 1.158.939 1.949.237.79 1.25 2.413 6.22.62 4.97-1.789 4.875-3.044 4.737-3.867-.162-.969-.523-1.622-.593-2.294-.13-1.244-.351-1.552-1.04-1.482l.305.864s.006 1.374-4.288 2.761-6.01.605-6.01.605l-.365-.856z"/>
        <path stroke="#434343" stroke-linecap="round" stroke-linejoin="round" stroke-width=".405" d="M67.229 86.46s.005 1.373-4.289 2.76c-4.294 1.388-6.01.605-6.01.605"/>
        <path fill="#191919" d="M60.164 95.646c-.338.295-.357.521.089 1.304a15 15 0 0 1 1.398 3.344c.418 1.506.224 3.171.237 4.731.006.54.011 1.085.154 1.603s.443 1.018.91 1.285c.529.302 1.176.27 1.78.208 5.51-.559 10.71-2.721 16.06-4.151 1.025-.276 2.07-.527 3.008-1.02.27-.143.543-.319.678-.591.1-.206.113-.446.062-.667-.132-.588-.661-1.018-1.23-1.212-.57-.194-1.183-.2-1.785-.229a20.7 20.7 0 0 1-7.352-1.747c-1.103-.488-2.11-1.273-3.225-1.697-.353-.135-.653-.186-.898-.5-.36-.458-.508-1.117-.618-1.673a9 9 0 0 1-.081-.467c-.181-1.192-.543-2.008-1.177-1.927l.297 1.004s-.011 1.223-3.611 2.867c-2.804 1.279-4.294.458-4.294.458l-.405-.92z"/>
        <path fill="#ea3934" d="m60.982 98.445.364.918s.478 1.028 1.635 1.028c1.245 0 1.66-.92 2.073-1.463.221-.291.459-.596.794-.75.35-.162.75-.127 1.136-.054.642-1.711 2.696-2.343 3.705-1.854.778.375 4.16 1.93 5.97 2.45 1.563.451 2.559.573 4.243.594 2.769.035 3.69.62 4.226 2.37.122.397-.545 1.56-1.705 1.849-1.158.291-4.13 1.033-6.049 1.514L65.66 107.98c-2.081.521-3.487.613-4.019-.677-.915-3.657-.731-3.822-.801-4.944-.098-1.55-.238-1.895-.424-2.559-.222-.783-.146-1.08.57-1.355z"/>
        <path fill="#fff" stroke="#191919" stroke-linecap="round" stroke-linejoin="round" stroke-width=".405" d="M75.237 105.578a9230.666 9230.666 0 0 0 8.188-2.048c1.16-.292 1.824-1.452 1.703-1.849-.534-1.749-1.457-2.332-4.224-2.37-.88-.01-1.573-.048-2.253-.145-1.598-.122-3.992 2.364-3.414 6.415z"/>
        <path stroke="#191919" stroke-linecap="round" stroke-linejoin="round" stroke-width=".405" d="M76.118 98.445c-.912.186-1.997.985-3.02 2.505M74.12 97.79c-.913.185-2.23 1.154-3.026 2.31M71.976 96.723c-.987.456-1.703.907-2.742 2.437"/>
        <path fill="#fff" stroke="#191919" stroke-linecap="round" stroke-linejoin="round" stroke-width=".405" d="M84.997 104.561c-.96.534-6.66 1.921-6.66 1.921l-11.63 2.912c-2.165.543-3.336.762-4.078.135-.437-.369-.8-1.047-.996-2.229 1.098.57.925.85 4.623-.075 3.7-.926 12.733-3.158 14.687-3.679 1.36-.362 3.53-.71 4.176-1.868.431.351 1.34 2.065-.125 2.883z"/>
        <path fill="#ffc4b0" d="M55.63 117.996c-.379-.813-.738-1.76-.74-2.67-.003-.858.728-3.503.85-4.04.326-1.46.658-2.917.96-4.38.816-3.949 2.834-11.686 3.355-16.604.7-6.585-.434-8.922-5.327-11.046-4.75-2.06-10.27-3.155-22.895-6.097H17.23c-2.994 7.735-1.86 12.89 3.74 16.161 6.923 4.046 19.805 3.239 22.142 3.298 3.425.086 3.878.095 5.27.095-1.58 4.307-1.106 12.644-1.216 15.04 0 0 .124 3.139-.133 5.652-.205 2.024-2.32 3.784-3.087 5.587-.149.35-.265.731-.197 1.106.124.686.796 1.112 1.403 1.455l4.416 2.469c3.7 2.07 7.41 4.143 11.335 5.741.394.159.837.316 1.23.156.297-.118.505-.404.605-.707.3-.915-.254-1.881-.858-2.631-1.072-1.336-2.267-2.157-3.099-3.161-.61-.739-2.615-4.267-3.154-5.424z"/>
        <path fill="#191919" d="M41.271 92.988c-3.652 0-12.51.264-17.467-1.012-5.668-1.46-10.364-5.546-8.186-16.747l.707-2.907h15.476s14.082 3.555 15.456 3.933C52.115 77.59 58.352 79.17 59.91 82.5c1.56 3.33.604 6.699 0 10.742-.605 4.045-2.475 11.937-2.475 11.937s-1.811.826-5.26.618c-3.45-.208-5.436-1.261-5.436-1.261s.065-8.14 1.196-11.519c0 0-2.133-.03-6.661-.03z"/>
        <path stroke="#434343" stroke-linecap="round" stroke-linejoin="round" stroke-width=".405" d="M47.254 76.252c4.858 1.336 11.095 2.915 12.652 6.245 1.56 3.33.605 6.699 0 10.742l-.378 2.202M50.14 87.965a15.2 15.2 0 0 0-2.37 5.46"/>
        <path fill="#191919" d="M47.201 109.559c-.631 0-.726.542-.81 1.735-.08 1.155-.202 2.033-.78 2.98l-2.113 3.468c-.388.637-.78 1.282-1.03 1.986-.103.286-.182.594-.133.894.068.429.378.78.718 1.05.432.342.928.596 1.42.844 5.308 2.699 10.622 5.398 16.104 7.724.69.295 1.482.583 2.172.287.659-.281 1.015-1.048.986-1.763-.03-.715-.708-1.328-1.226-1.824-1.392-1.334-1.857-1.841-2.78-3.001a21 21 0 0 1-1.468-2.181c-.842-1.436-1.562-2.99-2.23-4.518-.274-.629-.68-1.681-.536-2.362.102-.483.2-.793.437-1.57.354-1.155.375-1.633-.23-1.836l-.199.883s-1.08 1.05-4.391.232c-2.99-.739-3.919-1.989-3.919-1.989l.008-1.044z"/>
        <path fill="#ea3934" d="M44.297 115.237c.513-.871.815-1.67 1.01-2.331.164-.554.299-1.193 1.025-1.026.005.842.01 1.385.01 1.385s.195 1.36 1.026 1.767c1.118.546 2.205.127 2.875-.013.358-.076.736-.149 1.09-.046.37.111.648.397.893.704 1.609-.871 3.57 0 4.014 1.034.34.794 1.87 4.186 2.893 5.768.882 1.365 1.554 2.11 2.812 3.233 2.065 1.843 2.378 2.89 1.633 4.561-.17.378-1.436.818-2.5.275-1.063-.542-3.794-1.929-5.556-2.828l-10.766-5.479c-1.911-.972-3.034-1.827-2.589-3.15.727-1.916 1.555-2.885 2.127-3.856z"/>
        <path fill="#fff" stroke="#191919" stroke-linecap="round" stroke-linejoin="round" stroke-width=".405" d="M53.651 126.767c1.169.597 1.962.999 1.962.999 1.768.898 4.494 2.283 5.56 2.823 1.066.542 2.33.102 2.5-.278.741-1.671.428-2.715-1.636-4.559-.656-.583-1.155-1.068-1.606-1.587-1.126-1.139-4.564-.831-6.783 2.605z"/>
        <path stroke="#191919" stroke-linecap="round" stroke-linejoin="round" stroke-width=".405" d="M59 121.963c-.813-.459-2.154-.567-3.922-.089M57.922 120.158c-.812-.459-2.44-.592-3.797-.241M56.999 117.944c-1.045-.302-1.879-.431-3.67.041"/>
        <path fill="#fff" stroke="#191919" stroke-linecap="round" stroke-linejoin="round" stroke-width=".405" d="M61.6 132.365c-1.077-.227-6.286-2.923-6.286-2.923l-10.685-5.438c-1.99-1.013-3.015-1.614-3.166-2.575-.089-.567.086-1.315.713-2.335.456 1.15.137 1.25 3.538 2.98 3.398 1.73 11.68 5.975 13.494 6.866 1.263.621 3.128 1.781 4.378 1.333.094.548-.343 2.437-1.984 2.092z"/>
        <path fill="#d48983" d="m15.836 75.667 20.596-5.63c11.567-4.249 12.873-4.737 16.142-5.441l1.8 14.487c-1.258.605-6.885 3.676-10.69 5.673-3.598 1.89-9.371 5.16-14.25 6.453-8.065 2.138-15.746-1.57-13.595-15.543z"/>
        <path stroke="#191919" stroke-linecap="round" stroke-linejoin="round" stroke-width=".405" d="M56.56 76.252c-.27.99-1.088 2.254-2.221 2.823-1.134.57-6.85 3.679-10.655 5.679"/>
        <path fill="#191919" d="M43.452 66.655c-1.082.361-3.341 1.147-8.601 2.72-8.971 2.686-19.564 5.517-19.564 5.517-2.548 13.867 4.42 17.82 9.014 17.82s7.252-1.465 12.455-3.805c3.242-1.457 18.687-10.013 18.687-10.013l-1.068-14.917c-3.342-.364-8.756 1.955-10.923 2.678"/>
        <path stroke="#434343" stroke-linecap="round" stroke-linejoin="round" stroke-width=".405" d="M25.594 92.888c4.596 0 7.038-1.101 12.058-3.814 4.365-2.358 19.619-11.408 19.619-11.408"/>
        <path fill="#191919" d="M46.87 100.834c-.728.116-.834.847-.707 1.711.105.707.248 1.363.054 2.167s-.132 2.715 5.063 3.665c5.196.953 5.803-.024 5.932-.85.127-.826.43-1.628.748-2.224.448-.839.799-1.927-.019-2.291l-.184.804s-1.195 1.158-5.211.645c-4.475-.572-5.606-2.494-5.606-2.494z"/>
        <path stroke="#434343" stroke-linecap="round" stroke-linejoin="round" stroke-width=".405" d="M57.75 103.816s-1.195 1.158-5.21.645c-4.476-.572-5.606-2.494-5.606-2.494"/>
        <path fill="#faa9a7" d="m29.234 45.639 4.686.467s1.724.893 4.045 4.93c2.267 3.944 1.94 9.02 1.94 16.332 0 0-9.038 4.115-11.747 5.308-2.713 1.193-9.603 4.337-12.208 3.493-1.775-.578-1.227-2.489-1.009-4.178.823-6.378.256-8.923-.831-12.043-2.483-7.117-2.138-10.77 1.544-12.765l6.059-1.571c.075-.715.156-1.258.205-1.67.038-.33.537-.39.537-.39l-.024.524s1.133.834 3.017.88 2.971-.62 2.971-.62l-.067-.594s.45-.098.567.364c.116.459.32 1.536.32 1.536z"/>
        <path stroke="#191919" stroke-linecap="round" stroke-linejoin="round" stroke-width=".405" d="M21.977 46.662c1.23 1.322 5.61 1.973 7.052-.09M40 69.022c0-7.311.23-14.045-2.038-17.988a28 28 0 0 0-1.107-1.773"/>
        <path fill="#ffc4b0" d="M21.258 57.552c-.658-5.625-2.043-8.615-6.178-9.598-4.501 1.288-4.061 6.127-2.423 19.346.23 1.852 1.052 3.965 1.714 4.737l5.964-.235 2.313-4.661z"/>
        <path stroke="#191919" stroke-linecap="round" stroke-linejoin="round" stroke-width=".405" d="M18.547 68.569c.505-.664 2.324-1.639 4.097-1.428"/>
        <path fill="#faa9a7" d="M15.65 47.18c-3.392 1.104-4.741 2.612-4.614 7.867.124 5.255.51 9.338.51 9.338s.815.761 3.821.65c3.007-.107 6.426-1.508 7.06-2.42-.55-5.868-1.125-10.261-2.69-12.242-2.154-2.72-4.084-3.196-4.084-3.196z"/>
        <path stroke="#191919" stroke-linecap="round" stroke-linejoin="round" stroke-width=".405" d="M11.547 64.385s.815.761 3.821.65c3.007-.107 6.426-1.508 7.06-2.42-.55-5.867-.669-9.095-2.023-11.133"/>
        <path fill="#ffc4b0" d="M15.318 66.53c1.654-2.46 4.469-3.254 8.741-6.128 4.426-2.977 7.924-5.328 8.939-6.105.861-.659 1.522-.645 2.866.202a33 33 0 0 1 2.848 1.97c1.006.77 2.075 1.558 1.54 2.016-.315.273-1.284.044-2.032-.323-.747-.367-2.323-1.366-2.323-1.366s.229.936.388 1.81c.16.875-.418 1.49-.987 1.307-.233 1.077-1.02.974-1.355.694-.438.815-.87.853-1.369.925-1.252.181-1.298-.272-1.298-.272s-.208.418-.699.969-.926.818-1.576.907c-1.04.143-1.617.588-2.596 2.024-1.517 2.221-2.664 3.902-4.462 5.708-1.581 1.592-5.9 3.422-7.57 1.16-1.123-1.516-.202-3.8.945-5.503z"/>
        <path stroke="#191919" stroke-linecap="round" stroke-linejoin="round" stroke-width=".405" d="M15.313 66.53c1.654-2.46 4.887-3.535 9.16-6.409M34.336 56.998c.31.824.75 2.062.96 2.918M33.055 57.638c.31.823.734 2.221.885 2.974M32.422 60.547c-.513.036-.796.249-1.142.721-.44.6-.783 1.142-1.026 1.32-.59.426-1.25.556-1.98.701M35.227 55.582c.24.304.442.623.669 1.217"/>
        <path fill="#fff" stroke="#191919" stroke-linecap="round" stroke-linejoin="round" stroke-width=".405" d="m35.122 68.63 4.188-13.756a.61.61 0 0 1 .448-.415l20.334-4.532a.6.6 0 0 1 .512.122c.157.127.656.55.794.666a.61.61 0 0 1 .191.643L57.402 65.11a.61.61 0 0 1-.448.416l-5.177 1.152-15.157 3.376a.6.6 0 0 1-.526-.13c-.154-.129-.642-.542-.78-.655a.6.6 0 0 1-.192-.642z"/>
        <path fill="#ea3934" d="M36.483 69.872a.41.41 0 0 1-.327-.167.39.39 0 0 1-.062-.34l4.189-13.757a.41.41 0 0 1 .302-.291l20.333-4.532a.413.413 0 0 1 .416.154.4.4 0 0 1 .062.356L57.207 65.05a.4.4 0 0 1-.3.275l-20.333 4.532a1 1 0 0 1-.091.01z"/>
        <path fill="#191919" d="M61.011 50.98c.09 0 .14.059.16.083a.2.2 0 0 1 .03.178l-4.19 13.757a.2.2 0 0 1-.148.137l-5.176 1.153-15.157 3.376q-.026.005-.046.005a.21.21 0 0 1-.165-.086.18.18 0 0 1-.03-.162l4.19-13.753a.21.21 0 0 1 .153-.154l20.333-4.532q.026-.004.046-.005m0-.402a.6.6 0 0 0-.135.016l-20.333 4.532a.61.61 0 0 0-.453.429L35.9 69.305c-.118.386.19.77.581.77a.6.6 0 0 0 .135-.017l15.157-3.376 5.176-1.153a.6.6 0 0 0 .448-.415l4.19-13.754a.606.606 0 0 0-.578-.782z"/>
        <path fill="#fff" d="M48.28 61.83h.008c1.193-.268 2.362-1.156 2.616-1.987.253-.831-.508-1.288-1.7-1.023h-.009c-1.193.267-2.361 1.155-2.615 1.986-.254.832.507 1.288 1.7 1.023"/>
        <path fill="#ad6163" d="m59.617 57.8-.578 1.927 1.287-.408.265-1.643z"/>
        <path fill="#ffc4b0" d="M60.739 56.44c1.387-.011 1.298 1.465.704 2.094.448.416.3 1.687-.445 2.197.664.375.04 1.614-.842 1.919.346.734-.014 1.387-1.206 1.708-1.196.321-2.17.351-2.664.14-.494-.213-.44-.939-.176-1.139-.712-.17-.855-1.136.017-1.689-.422-.78-.122-1.13.904-1.638.89-.44 2.504-.996 2.912-1.134a.2.2 0 0 0 .124-.13.197.197 0 0 0-.2-.25c-.45.03-1.346.07-1.924-.038-.799-.148-1.13-1.031-.346-1.376.786-.346 2.7-.659 3.147-.662z"/>
        <path fill="#191919" d="M59.839 60.49a21.6 21.6 0 0 1-3.77.983c-.257.043-.149.432.107.391a21.6 21.6 0 0 0 3.77-.982c.244-.086.138-.478-.107-.391M59.384 62.28a11 11 0 0 1-3.284.861c-.257.027-.26.432 0 .405a11.8 11.8 0 0 0 3.49-.918c.237-.102.032-.453-.206-.35z"/>
    </g>
    <defs>
        <clipPath id="a">
            <path fill="#fff" d="M0 .587h140v132H0z"/>
        </clipPath>
        <clipPath id="b">
            <path fill="#fff" d="M57 22.587h67v54H57z"/>
        </clipPath>
    </defs>
</svg>
