<svg xmlns="http://www.w3.org/2000/svg" width="353" height="432" fill="none" viewBox="0 0 353 432">
    <path fill="#8cbddd" d="M211.332 229.998s-8.905 78.13-11.662 96.513-5.209 84.564-5.209 84.564h46.572s5.209-88.241 16.698-122.71c0 0 .306 101.569 3.064 122.71h46.418s-.613-125.008-2.451-142.932-5.362-38.146-5.362-38.146z"/>
    <mask id="a" width="114" height="183" x="194" y="229" maskUnits="userSpaceOnUse" style="mask-type:luminance">
        <path fill="#fff" d="M211.332 229.998s-8.905 78.13-11.662 96.513-5.209 84.564-5.209 84.564h46.572s5.209-88.241 16.698-122.71c0 0 .306 101.569 3.064 122.71h46.418s-.613-125.008-2.451-142.932-5.362-38.146-5.362-38.146z"/>
    </mask>
    <g mask="url(#a)">
        <path fill="#74a5c5" d="M248.844 274.119c1.714 2.27 3.151 4.664 4.596 7.05l2.116 3.602c.71 1.2 1.398 2.403 2.173 3.595-1.154-.849-2.096-1.943-2.964-3.059-.874-1.118-1.648-2.304-2.377-3.511-.711-1.218-1.39-2.454-1.982-3.734-.6-1.276-1.148-2.579-1.562-3.943"/>
        <path stroke="#74a5c5" stroke-miterlimit="10" stroke-width="1.226" d="M295.266 230.458s5.515 28.954 5.515 38.146 1.838 142.472 1.838 142.472"/>
        <path stroke="#74a5c5" stroke-miterlimit="10" stroke-width="1.226" d="M289.75 230.458s3.244 40.451 11.044 40.447M216.214 230.458s.054 38.153-10.417 40.447M254.961 284.746s-7.035 31.195-9.793 56.013-6.434 70.317-6.434 70.317"/>
    </g>
    <path fill="#fa9161" d="m265.157 66.385 7.353 32.63s-9.651 11.72-21.086 11.72-17.979-6.664-17.979-6.664l2.372-37.686z"/>
    <path fill="#f76a3f" d="M249.53 86.377c5.968-1.02 13.592-4.987 18.382-7.76l-2.757-12.232h-29.34l-.995 15.805c3.757 2.443 9.304 5.11 14.71 4.187"/>
    <path fill="#052130" d="M227.934 53.778c.838 5.555-.749 10.399-3.545 10.82-2.796.423-5.741-3.738-6.579-9.293s.749-10.4 3.544-10.821c2.797-.422 5.742 3.739 6.58 9.294"/>
    <path fill="#fff" d="M222.199 50.325c.53-.011 1.028.266 1.368.673.437.524.974 1.349.922 2.199-.087 1.417-1.173 2.08-1.892 2.244s1.808 6.669.566 6.954-3.137-9.46-3.076-10.092c.053-.541.614-1.946 2.112-1.978"/>
    <path fill="#fa9161" d="M223.108 29.944s-3.39 20.94 0 32.11 17.75 20.542 25.927 19.345 20.343-10.77 23.733-19.545 7.977-4.786 8.177-14.36-3.59-12.764-8.376-11.966c0 0-1.3-19.944-21.292-19.944s-27.509 9.358-28.169 14.36"/>
    <path stroke="#451600" stroke-linecap="round" stroke-miterlimit="10" stroke-width="2.451" d="m232.078 55.173.41 3.49"/>
    <path fill="#052130" d="m228.164 51.549 5.252-.997s-3.523-2.592-5.252.997"/>
    <path stroke="#451600" stroke-linecap="round" stroke-miterlimit="10" stroke-width="2.451" d="m254.01 54.608-.096 3.513"/>
    <path fill="#052130" d="m251.211 49.976 5.602.739s-.804-1.527-2.617-1.766-2.985 1.027-2.985 1.027"/>
    <path fill="#052130" d="M272.768 17.778s-9.174-14.36-28.719-11.368-26.126 17.152-27.124 22.935-2.593 18.939 4.687 18.145 9.174-10.965 9.174-10.965-1.097 10.17 4.886 9.573c5.983-.598 9.573-10.371 9.573-10.371s-1.635 9.573 5.963 9.374c7.598-.2 12.983-10.77 12.983-10.77s.997 11.9 3.39 17.218l2.792-.835s-.399-13.093 6.282-11.896 1.816 15.805-1.579 18.697c0 0-1.047.98-2.31 4.338 0 0 10.038.303 11.501-13.311 1.464-13.612-3.987-30.764-11.499-30.764"/>
    <path fill="#f76a3f" d="M242.985 56.918c.233.794.411 1.592.56 2.393.153.8.284 1.602.384 2.407l.043.346-.38.203c-.657.35-1.346.859-1.725 1.458-.418.587-.5 1.283-.308 1.994.172.678.689 1.13 1.487 1.298.781.158 1.664.115 2.54-.014-.77.45-1.65.76-2.62.753-.483-.005-1.005-.116-1.467-.415-.471-.286-.812-.776-.99-1.266-.404-.943-.259-2.174.342-3.03.609-.856 1.4-1.413 2.33-1.786l-.337.549a37 37 0 0 1-.018-2.438c.016-.814.06-1.631.159-2.452"/>
    <path fill="#fff" d="m241.727 71.843 12.419-2.743s.473 6.334-4.705 7.59c-5.177 1.257-7.714-4.847-7.714-4.847"/>
    <path fill="#f76a3f" d="M276.787 40.898c-1.021.235-1.792.886-2.265 1.707-.483.82-.743 1.77-.93 2.728-.18.963-.273 1.95-.326 2.943-.033.988-.065 2.003-.003 2.975l-.13-.322c.112.147.337.325.433.342.073.02.109.037.265-.141.284-.35.445-.966.612-1.568.342-1.204.659-2.416.902-3.667.157 1.274.061 2.564-.096 3.833-.105.62-.138 1.295-.566 2.005a1.5 1.5 0 0 1-.517.495 1.22 1.22 0 0 1-.821.13c-.527-.122-.817-.368-1.12-.687a.47.47 0 0 1-.128-.288l-.003-.034c-.079-1.064-.113-2.094-.031-3.143.063-1.044.215-2.09.496-3.116.291-1.016.692-2.045 1.404-2.89.681-.856 1.785-1.407 2.824-1.302"/>
    <path fill="#fff" d="M275.419 47.684c-.53-.011-1.028.266-1.368.673-.437.524-.974 1.349-.922 2.199.087 1.417 1.173 2.08 1.892 2.245s-1.809 6.669-.567 6.954 3.138-9.46 3.077-10.092c-.053-.542-.614-1.947-2.112-1.98"/>
    <path fill="#ea3934" d="M278.415 94.88c49.182 8.272 52.847 89.16 46.413 102.267s-26.656 0-26.656 0l4.778 26.462a9.6 9.6 0 0 1-4.152 9.733c-7.287 4.807-22.197 12.283-44.441 12.283-21.888 0-35.718-6.283-42.494-10.458-3.108-1.916-4.814-5.469-4.45-9.103l3.436-34.364s-14.094 6.128-24.818 5.448-8.273-45.279 1.838-71.322 39.946-31.405 39.946-31.405 9.717 13.941 25.329 13.941c15.613-.001 25.271-13.482 25.271-13.482"/>
    <path fill="#b6231f" d="m227.812 94.42 6.468-3.653s4.764 13.074 18.508 13.074 17.86-13.074 17.86-13.074l7.763 4.113s-7.009 17.924-25.299 17.924-25.3-18.384-25.3-18.384"/>
    <path fill="#0f3945" d="M241.248 126.591h20.753c.656 0 1.191.618 1.202 1.388l.546 38.309c.011.789-.53 1.436-1.202 1.436h-18.79c-.628 0-1.15-.568-1.198-1.304l-2.508-38.309c-.055-.82.497-1.52 1.197-1.52"/>
    <path fill="#f76a3f" d="m230.586 162.713 3.151-5.984a13.6 13.6 0 0 1 2.589-4.167l1.304-1.435a13.6 13.6 0 0 1 6.421-3.957l7.87-2.188c1.353-.376 2.191.167 2.793 1.221.51 1.128.417 2.487-2.191 3.379l-5.186 1.609a6.28 6.28 0 0 0-3.864 3.419l-1.386 3.078 11.902-2.281a24 24 0 0 0 1.613-.368l5.57-1.476a1.968 1.968 0 0 1 1.147 3.765l-8.192 2.834q-.732.254-1.476.465l-8.441 2.404 8.034-1.007a16 16 0 0 0 3.518-.855l5.64-2.074a1.746 1.746 0 0 1 1.275 3.25l-5.29 2.209a36 36 0 0 1-4.523 1.55l-4.912 1.332h10.317l-9.621 4.902a23.8 23.8 0 0 1-10.812 2.596z"/>
    <path fill="#fa9161" d="m276.361 162.243-4.581-4.797-.97-4.378a9.34 9.34 0 0 0-2.03-4.06l-.158-.184a18.5 18.5 0 0 0-6.355-4.784l-6.394-2.926a2.21 2.21 0 0 0-2.041 3.914l8.704 5.123 4.253 3.796-5.343-4.148-8.946-5.061a2.088 2.088 0 0 0-2.226 3.526l8.712 6.104 5.202 4.991-10.227-6.046-5.276-3.3a1.79 1.79 0 0 0-2.063 2.921l6.763 5.371 8.202 5.486-7.1-2.717-5.395-3.088a1.65 1.65 0 0 0-1.671 2.848l5.964 3.586 4.188 2.6c1.391.863 2.599 2 3.488 3.375.915 1.416 4.908 5.657 9.008 5.262z"/>
    <path fill="#b6231f" d="M236.437 178.984c-7.583-9.374-8.617-22.352-8.617-22.352l5.63-1.202s1.149 11.296 7.583 19.228z"/>
    <path fill="#b6231f" d="M210.852 191.7c2.228-.85 4.369-1.854 6.492-2.877 2.111-1.05 4.201-2.133 6.227-3.332 2.029-1.19 4.038-2.422 5.986-3.752 1.966-1.307 3.875-2.701 5.823-4.086a59 59 0 0 1-2.525 2.539c-.895.789-1.777 1.603-2.734 2.319-1.861 1.508-3.88 2.809-5.935 4.038a49.4 49.4 0 0 1-6.456 3.144c-2.22.891-4.52 1.613-6.878 2.007M194.461 163.205c5.554-1.295 11.162-2.222 16.783-3.06 5.626-.801 11.266-1.509 16.959-1.847-5.554 1.298-11.161 2.225-16.783 3.06-5.626.798-11.266 1.506-16.959 1.847"/>
    <path fill="#b6231f" d="M210.562 160.721c.657-8.485 1.429-16.954 2.431-25.398-.595 8.479-.96 16.972-1.207 25.458zM268.315 180.018c8.28-9.785 9.409-23.334 9.409-23.334l-6.147-1.255s-1.254 11.792-8.28 20.072z"/>
    <path fill="#b6231f" d="M269.148 178.984c2.308 1.715 4.644 3.367 6.978 5.015a213 213 0 0 0 7.113 4.761c2.385 1.563 4.848 2.996 7.32 4.417 2.484 1.404 5.025 2.698 7.608 3.97-2.752-.826-5.464-1.845-8.05-3.122a73 73 0 0 1-7.538-4.233c-4.834-3.132-9.425-6.67-13.431-10.808M277.523 158.298l8.379 3.749c2.795 1.229 5.59 2.452 8.407 3.617 2.812 1.178 5.654 2.273 8.506 3.35a192 192 0 0 0 8.686 2.923 61 61 0 0 1-8.99-2.016 100 100 0 0 1-8.672-3.126c-5.657-2.39-11.172-5.137-16.316-8.497"/>
    <path fill="#b6231f" d="m292.835 166.048-1.586-13.921c-.561-4.637-1.098-9.277-1.811-13.893.915 4.582 1.654 9.198 2.417 13.808l2.195 13.846z"/>
    <path fill="#fa9161" d="M164.106 255.575s4.171 18.851-1.86 22.262c0 0 .05 22.105-10.399 17.677 0 0-2.343-.357-3.65-3.841s6.332-37.557 6.332-37.557z"/>
    <path fill="#8cbddd" d="M75.65 207.528s-16.157 39.253-11.895 79.614c4.262 40.36 16.961 123.934 16.961 123.934h64.901s13.19-122.745 8.487-154.205-7.884-55.271-7.884-55.271z"/>
    <mask id="b" width="93" height="211" x="63" y="201" maskUnits="userSpaceOnUse" style="mask-type:luminance">
        <path fill="#fff" d="M75.65 207.528s-16.157 39.253-11.895 79.614c4.262 40.36 16.961 123.934 16.961 123.934h64.901s13.19-122.745 8.487-154.205-7.884-55.271-7.884-55.271z"/>
    </mask>
    <g mask="url(#b)">
        <path fill="#74a5c5" d="m118.191 411.087-.168-141.342v-.035l.021-.026 10.512-12.813-10.363 12.934.021-.061 2.428 141.321z"/>
        <path stroke="#74a5c5" stroke-miterlimit="10" stroke-width="1.226" d="M86.285 207.528c-1.932 4.639-12.004 32.482-12.004 69.965s14.43 133.583 14.43 133.583"/>
        <path stroke="#74a5c5" stroke-miterlimit="10" stroke-width="1.226" d="M79.578 230.105s21.108 2.189 24.258-22.578"/>
    </g>
    <path fill="#72262f" d="M77.002 51.989s27.74-1.807 38.549-12.638l24.218 12.864s-4.301 35.71 3.084 64.265H82.052s-22.846-6.994-17.477-30.523c4.184-18.34 12.427-33.968 12.427-33.968"/>
    <path fill="#fa9161" d="m91.94 78.206-4.174 28.444s3.899 17.484 21.912 16.962 15.143-16.701 15.143-16.701l-6.087-19.31z"/>
    <path fill="#f76a3f" d="M111.653 99.119c5.066-.004 7.505-1.954 9.058-5.248l-1.976-6.27-26.793-9.394L90.945 85c2.642 6.683 7.741 14.128 20.708 14.118"/>
    <path fill="#fa9161" d="M91.486 47.99s-3.018-4.3-8.148-1.886-5.976 26.027 4.074 24.82c0 0 1.961 17.2 16.446 20.218s19.916-3.923 25.65-15.088 12.071-37.42 0-46.17S93.976 17.588 91.486 47.99"/>
    <path stroke="#451600" stroke-linecap="round" stroke-miterlimit="10" stroke-width="2.451" d="m106.496 60.023-1.207 3.62M124.939 65.59l-1.087 3.26"/>
    <path fill="#f76a3f" d="M115.591 65.59c.07 1.489-.06 2.939-.245 4.38l-.13-.47c.55.597.917 1.26 1.141 2.059.197.79.12 1.757-.475 2.476a2.1 2.1 0 0 1-1.135.7c-.41.094-.806.103-1.183.055a5.1 5.1 0 0 1-2.048-.734c.712.059 1.407.072 2.054.004a3.7 3.7 0 0 0 .881-.227c.255-.12.433-.28.559-.464.24-.411.324-.97.159-1.517-.12-.554-.456-1.136-.788-1.615l-.18-.261.051-.208c.343-1.412.741-2.813 1.339-4.177"/>
    <path fill="#fff" d="m105.288 75.752 12.297 3.772s-2.263 7.393-8.6 7.09c-6.338-.3-3.697-10.862-3.697-10.862"/>
    <path fill="#72262f" d="M103.367 55.836h5.884s-1.471-3.621-5.884 0M125.438 60.589l4.526 3.055s-.68-5.431-4.526-3.055"/>
    <path fill="#72262f" d="M91.636 53.573s14.675.15 22.048-7.846l-3.792 6.186s9.083.755 14.5-2.263l-2.58 4.577s9.958 3.118 17.955-2.012c0 0 6.865-31.912-22.18-35.306C88.542 13.514 87.184 27.772 77 51.989l3.075.689s2.055-8.31 6.732-6.5c4.678 1.812 4.829 7.395 4.829 7.395M80.075 52.678s-2.773 12.347 7.788 14.542c0 0-.893 3.018 0 6.104H77l1.207-20.646z"/>
    <path fill="#f76a3f" d="M83.742 50.434c.9-.628 2.3-.828 3.375-.115 1.085.677 1.65 1.833 2.03 2.922.174.555.326 1.123.397 1.688l.136.85c.033.284.034.567.052.85.1 1.135.01 2.258-.045 3.378l-.115 2.388-.853-2.2a49 49 0 0 0-.956-2.283c-.173-.374-.34-.754-.542-1.111-.205-.352-.39-.732-.745-.964.425.103.75.445 1.045.748.292.319.553.659.801 1.008.492.7.92 1.429 1.322 2.189l-.968.188c-.05-1.091-.042-2.182-.146-3.253-.075-1.075-.216-2.135-.474-3.147-.275-.99-.654-1.977-1.388-2.614-.71-.671-1.849-.813-2.926-.522"/>
    <path fill="#fff" d="m85.477 65.31-1.581 1.772a.824.824 0 0 1-1.164.066l-.128-.115a.824.824 0 0 1-.066-1.164l1.58-1.771a.824.824 0 0 1 1.165-.066l.128.115c.34.304.369.825.066 1.164M82.864 62.413l-1.886 1.443a.824.824 0 0 1-1.156-.154l-.105-.137a.824.824 0 0 1 .154-1.156l1.885-1.443a.824.824 0 0 1 1.156.154l.105.137a.824.824 0 0 1-.153 1.156M82.996 48.157l-.492-.332a.824.824 0 0 1-.223-1.144l.096-.143a.824.824 0 0 1 1.144-.223l.492.332a.824.824 0 0 1 .223 1.144l-.096.143a.825.825 0 0 1-1.144.223"/>
    <path fill="#ffb878" d="M143.917 133.354s7.605 26.443 7.257 36.185-2.436 37.577-2.436 37.577c-16.701 4.175-39.373 2.088-39.373 2.088-13.973 5.915-30.871 2.088-30.871 2.088-28.491-3.827-28.222-70.979-22.307-87.668s32.642-24.238 32.642-24.238 9.868 22.989 21.898 20.574 12.201-19.044 12.201-19.044 10.398 2.073 18.452 8.557z"/>
    <path fill="#ffb878" d="M141.383 109.472s9.446 3.702 11.882 17.271 8.35 49.059 8.35 59.845 3.131 35.489 5.219 70.283h-12.725s-7.007-43.758-10.188-75.461-24.857-71.938-2.538-71.938"/>
    <path fill="#e5995a" d="M135.516 133.963c2.276 2.204 4.005 4.944 5.364 7.817 1.399 2.87 2.294 5.964 2.923 9.088.625 3.139.685 6.347.888 9.471l.535 9.433c.643 12.582 1.284 25.163 1.748 37.756-1.048-12.557-1.919-25.125-2.788-37.693l-.6-9.429c-.178-3.159-.407-6.262-.955-9.32-.507-3.071-1.439-6.048-2.566-8.948-.561-1.454-1.253-2.854-2-4.226a27.5 27.5 0 0 0-2.549-3.949"/>
    <path fill="#0f3945" d="m148.77 153.349 9.044-23.926a1.724 1.724 0 0 1 1.829-1.1l18.33 2.324a1.724 1.724 0 0 1 1.385 2.346l-17.397 43.796a1.72 1.72 0 0 1-1.787 1.077l-17.831-1.929a1.723 1.723 0 0 1-1.421-2.336z"/>
    <path fill="#fa9161" d="M139.031 171.211s1.799-21.829 10.287-19.538l-2.784 8.068s9.207 1.796 22.391-4.234c1.594-.729 3.468.054 4.023 1.716l.029.086a2.91 2.91 0 0 1-1.288 3.443c-2.57 1.495-7.395 3.906-13.253 4.939 0 0 4.472-.319 8.836-1.209 1.78-.363 3.453.967 3.453 2.784v.106a2.83 2.83 0 0 1-1.769 2.638c-.714.283-1.535.543-2.242.597l-.048 1.52c-.115 3.668-1.897 7.147-4.96 9.169-2.881 1.902-7.444 3.49-14.656 3.541z"/>
    <path fill="#e5995a" d="m86.281 181.543 12.413-2.275c4.131-.775 8.264-1.519 12.378-2.35a337 337 0 0 0 12.312-2.615c2.051-.447 4.076-.991 6.1-1.541l3.031-.855q1.488-.504 3-.977c-3.796 1.849-7.844 3.123-11.895 4.285-4.056 1.17-8.178 2.077-12.31 2.904-4.137.804-8.29 1.52-12.466 2.075-2.088.279-4.176.546-6.268.788-2.098.203-4.19.436-6.295.561M84.352 212.167a68 68 0 0 0 8.309-.272 80 80 0 0 0 8.221-1.078c5.435-.98 10.779-2.446 15.896-4.493a80 80 0 0 0 7.516-3.426c2.43-1.302 4.776-2.748 7.07-4.281 2.268-1.566 4.486-3.224 6.548-5.068 2.135-1.767 4.059-3.764 6.006-5.75a62 62 0 0 1-12.01 11.587c-2.241 1.679-4.647 3.121-7.086 4.494a80 80 0 0 1-7.594 3.582c-5.235 1.984-10.66 3.488-16.195 4.28-5.527.784-11.15 1.067-16.681.425"/>
    <path fill="#ffd5b3" d="m129.812 170.603 11.433 21.518 7.875-6.055-10.647-18.44z"/>
    <path fill="#e5995a" d="M93.682 180.569a416 416 0 0 1-3.425-18.759c-1.005-6.273-1.857-12.571-2.491-18.888.837 6.294 1.89 12.553 3.095 18.782a416 416 0 0 0 4.016 18.59zM73.39 213.694s46.17 12.276 74.653 1.917l-1.39-9.9s-9.008 5.193-35.756 3.286c0 0-13.175 4.106-22.152 3.324-8.977-.781-14.163-2.008-14.163-2.008z"/>
    <path fill="#ffd5b3" d="m88.871 99.119-7.504 2.975s9.98 31.69 29.363 17.865c0 0-13.82-1.397-21.859-20.84"/>
    <path fill="#ffd5b3" d="M110.727 119.959s10.762-1.015 12.201-19.044c0 0 2.56.241 6.75 2.052 0 0-2.641 31.429-18.951 16.992M154.106 256.871l-1.27-8.076 13.562-1.246.433 9.322z"/>
    <path fill="url(#c)" d="M60.975 393.151H3.313v11.182h57.662z"/>
    <path fill="#263238" d="M57.266 393.339c-.133 0-.25 2.428-.25 5.428 0 2.998.117 5.419.25 5.419s.257-2.428.257-5.419c0-2.992-.116-5.428-.257-5.428M51.922 393.339c-.14 0-.25 2.428-.25 5.428 0 2.998.11 5.419.25 5.419s.25-2.428.25-5.419c0-2.992-.117-5.428-.25-5.428M46.648 393.339c-.14 0-.25 2.428-.25 5.428 0 2.998.11 5.419.25 5.419s.25-2.428.25-5.419c0-2.992-.118-5.428-.25-5.428M41.383 393.339c-.14 0-.25 2.428-.25 5.428 0 2.998.11 5.419.25 5.419s.25-2.428.25-5.419c0-2.992-.11-5.428-.25-5.428M36.125 393.339c-.14 0-.25 2.428-.25 5.428 0 2.998.11 5.419.25 5.419s.25-2.428.25-5.419c0-2.992-.109-5.428-.25-5.428M30.867 393.339c-.14 0-.25 2.428-.25 5.428 0 2.998.11 5.419.25 5.419s.25-2.428.25-5.419c0-2.992-.094-5.428-.25-5.428M25.617 393.339c-.14 0-.25 2.428-.25 5.428 0 2.998.11 5.419.25 5.419s.25-2.428.25-5.419c0-2.992-.11-5.428-.25-5.428M20.36 393.339c-.14 0-.25 2.428-.25 5.428 0 2.998.109 5.419.25 5.419.14 0 .25-2.428.25-5.419 0-2.992-.11-5.428-.25-5.428M15.102 393.339c-.14 0-.25 2.428-.25 5.428 0 2.998.109 5.419.25 5.419.14 0 .25-2.428.25-5.419 0-2.992-.11-5.428-.25-5.428M9.843 393.339c-.14 0-.25 2.428-.25 5.428 0 2.998.11 5.419.25 5.419s.25-2.428.25-5.419c0-2.992-.109-5.428-.25-5.428M4.594 393.339c-.141 0-.25 2.428-.25 5.428 0 2.998.109 5.419.25 5.419.14 0 .25-2.428.25-5.419 0-2.992-.118-5.428-.25-5.428"/>
    <path fill="#000" d="M60.046 393.167a146 146 0 0 1-55.812 0z" opacity=".3"/>
    <path fill="url(#d)" d="M57.678 404.185H.016v11.183h57.662z"/>
    <path fill="#263238" d="M53.976 404.404c-.14 0-.25 2.428-.25 5.42s.11 5.466.25 5.466.25-2.428.25-5.466-.117-5.42-.25-5.42M48.625 404.404c-.14 0-.25 2.428-.25 5.42s.11 5.466.25 5.466.25-2.428.25-5.466-.109-5.42-.25-5.42M43.343 404.404c-.133 0-.25 2.428-.25 5.42s.118 5.466.25 5.466c.133 0 .25-2.428.25-5.466s-.07-5.42-.25-5.42M38.055 404.404c-.14 0-.25 2.428-.25 5.42s.109 5.466.25 5.466c.14 0 .25-2.428.25-5.466s-.078-5.42-.25-5.42M32.828 404.404c-.14 0-.25 2.428-.25 5.42s.11 5.466.25 5.466.25-2.428.25-5.466-.11-5.42-.25-5.42M27.578 404.404c-.14 0-.25 2.428-.25 5.42s.11 5.466.25 5.466.25-2.428.25-5.466-.11-5.42-.25-5.42M22.32 404.404c-.14 0-.25 2.428-.25 5.42s.11 5.466.25 5.466.25-2.428.25-5.466-.133-5.42-.25-5.42M17.063 404.404c-.141 0-.25 2.428-.25 5.42s.109 5.466.25 5.466c.14 0 .25-2.428.25-5.466s-.11-5.42-.25-5.42M11.804 404.404c-.14 0-.25 2.428-.25 5.42s.11 5.466.25 5.466.25-2.428.25-5.466-.109-5.42-.25-5.42M6.554 404.404c-.14 0-.25 2.428-.25 5.42s.11 5.466.25 5.466.25-2.428.25-5.466-.109-5.42-.25-5.42M1.297 404.404c-.14 0-.25 2.428-.25 5.42s.11 5.466.25 5.466.25-2.428.25-5.466-.11-5.42-.25-5.42"/>
    <path fill="#000" d="M56.797 404.201a165 165 0 0 1-55.82 0z" opacity=".3"/>
    <path fill="#263238" d="M0 404.225c0 .133 12.885.249 28.784.249 15.9 0 28.777-.117 28.777-.249 0-.133-12.885-.25-28.777-.25-15.891 0-28.784.109-28.784.25"/>
    <path fill="url(#e)" d="M105.522 370.419H47.859v11.628h57.663z"/>
    <path fill="#263238" d="M101.812 370.614c-.14 0-.25 2.53-.25 5.638s.11 5.638.25 5.638.25-2.522.25-5.638c-.001-3.115-.118-5.638-.25-5.638M96.46 370.614c-.14 0-.25 2.53-.25 5.638s.11 5.638.25 5.638.25-2.522.25-5.638-.11-5.638-.25-5.638M91.172 370.614c-.133 0-.25 2.53-.25 5.638s.117 5.638.25 5.638.25-2.522.25-5.638-.11-5.638-.25-5.638M85.914 370.614c-.133 0-.25 2.53-.25 5.638s.117 5.638.25 5.638.25-2.522.25-5.638-.11-5.638-.25-5.638M80.664 370.614c-.133 0-.25 2.53-.25 5.638s.117 5.638.25 5.638.25-2.522.25-5.638c-.001-3.115-.11-5.638-.25-5.638M75.406 370.614c-.133 0-.25 2.53-.25 5.638s.117 5.638.25 5.638.25-2.522.25-5.638-.11-5.638-.25-5.638M70.171 370.614c-.14 0-.25 2.53-.25 5.638s.11 5.638.25 5.638.25-2.522.25-5.638-.132-5.638-.25-5.638M64.898 370.614c-.14 0-.25 2.53-.25 5.638s.11 5.638.25 5.638.25-2.522.25-5.638-.11-5.638-.25-5.638M59.64 370.614c-.14 0-.25 2.53-.25 5.638s.11 5.638.25 5.638.25-2.522.25-5.638-.11-5.638-.25-5.638M54.383 370.614c-.14 0-.25 2.53-.25 5.638s.11 5.638.25 5.638.25-2.522.25-5.638-.078-5.638-.25-5.638M49.125 370.614c-.14 0-.25 2.53-.25 5.638s.11 5.638.25 5.638.25-2.522.25-5.638-.109-5.638-.25-5.638"/>
    <path fill="url(#f)" d="M98.764 381.961H41.102v11.183h57.662z"/>
    <path fill="#263238" d="M95.055 382.156c-.14 0-.25 2.42-.25 5.42 0 2.998.109 5.419.25 5.419.14 0 .25-2.428.25-5.419 0-2.992-.14-5.42-.25-5.42M89.696 382.156c-.14 0-.25 2.42-.25 5.42 0 2.998.109 5.419.25 5.419.14 0 .25-2.428.25-5.419 0-2.992-.102-5.42-.25-5.42M84.422 382.156c-.133 0-.25 2.42-.25 5.42 0 2.998.117 5.419.25 5.419s.25-2.428.25-5.419c0-2.992-.11-5.42-.25-5.42M79.164 382.156c-.133 0-.25 2.42-.25 5.42 0 2.998.117 5.419.25 5.419s.25-2.428.25-5.419c0-2.992-.11-5.42-.25-5.42M73.906 382.156c-.133 0-.25 2.42-.25 5.42 0 2.998.117 5.419.25 5.419.132 0 .25-2.428.25-5.419 0-2.992-.078-5.42-.25-5.42M68.649 382.156c-.14 0-.25 2.42-.25 5.42 0 2.998.109 5.419.25 5.419.14 0 .25-2.428.25-5.419 0-2.992-.11-5.42-.25-5.42M63.399 382.156c-.14 0-.25 2.42-.25 5.42 0 2.998.109 5.419.25 5.419.14 0 .25-2.428.25-5.419 0-2.992-.11-5.42-.25-5.42M58.14 382.156c-.14 0-.25 2.42-.25 5.42 0 2.998.11 5.419.25 5.419s.25-2.428.25-5.419c0-2.992-.11-5.42-.25-5.42M52.883 382.156c-.14 0-.25 2.42-.25 5.42 0 2.998.11 5.419.25 5.419s.25-2.428.25-5.419c0-2.992-.14-5.42-.25-5.42M47.633 382.156c-.14 0-.25 2.42-.25 5.42 0 2.998.11 5.419.25 5.419s.25-2.428.25-5.419c0-2.992-.109-5.42-.25-5.42M42.375 382.156c-.14 0-.25 2.42-.25 5.42 0 2.998.11 5.419.25 5.419s.249-2.428.249-5.419c0-2.992-.108-5.42-.25-5.42"/>
    <path fill="#000" d="M97.835 381.977a165 165 0 0 1-55.82 0z" opacity=".3"/>
    <path fill="#263238" d="M41.078 382c0 .14 12.885.249 28.785.249 15.899 0 28.776-.109 28.776-.249s-12.846-.243-28.776-.243-28.785.102-28.785.243"/>
    <path fill="url(#g)" d="M102.467 393.151H44.805v11.182h57.662z"/>
    <path fill="#263238" d="M98.758 393.339c-.133 0-.25 2.428-.25 5.427s.117 5.42.25 5.42.258-2.428.258-5.42-.118-5.427-.258-5.427M93.414 393.339c-.14 0-.25 2.428-.25 5.427s.11 5.42.25 5.42.25-2.428.25-5.42-.117-5.427-.25-5.427M88.133 393.339c-.14 0-.25 2.428-.25 5.427s.11 5.42.25 5.42.25-2.428.25-5.42-.117-5.427-.25-5.427M82.875 393.339c-.14 0-.25 2.428-.25 5.427s.11 5.42.25 5.42.25-2.428.25-5.42-.109-5.427-.25-5.427M77.618 393.339c-.14 0-.25 2.428-.25 5.427s.109 5.42.25 5.42c.14 0 .25-2.428.25-5.42s-.11-5.427-.25-5.427M72.359 393.339c-.14 0-.25 2.428-.25 5.427s.11 5.42.25 5.42.25-2.428.25-5.42-.094-5.427-.25-5.427M67.102 393.339c-.14 0-.25 2.428-.25 5.427s.109 5.42.25 5.42c.14 0 .25-2.428.25-5.42s-.11-5.427-.25-5.427M61.852 393.339c-.141 0-.25 2.428-.25 5.427s.109 5.42.25 5.42c.14 0 .25-2.428.25-5.42s-.11-5.427-.25-5.427M56.594 393.339c-.14 0-.25 2.428-.25 5.427s.11 5.42.25 5.42.25-2.428.25-5.42-.109-5.427-.25-5.427M51.336 393.339c-.14 0-.25 2.428-.25 5.427s.11 5.42.25 5.42.25-2.428.25-5.42-.11-5.427-.25-5.427M46.086 393.339c-.14 0-.25 2.428-.25 5.427s.11 5.42.25 5.42.25-2.428.25-5.42-.117-5.427-.25-5.427"/>
    <path fill="#000" d="M101.538 393.167a146 146 0 0 1-55.811 0z" opacity=".3"/>
    <path fill="#263238" d="M44.79 393.19c0 .141 12.884.25 28.776.25s28.784-.109 28.784-.25c0-.14-12.885-.25-28.784-.25-15.9 0-28.777.11-28.777.25"/>
    <path fill="url(#h)" d="M99.17 404.185H41.508v11.183H99.17z"/>
    <path fill="#263238" d="M95.468 404.404c-.14 0-.25 2.428-.25 5.42s.11 5.466.25 5.466.25-2.428.25-5.466-.117-5.42-.25-5.42M90.117 404.404c-.14 0-.25 2.428-.25 5.42s.11 5.466.25 5.466.25-2.428.25-5.466-.109-5.42-.25-5.42M84.828 404.404c-.133 0-.25 2.428-.25 5.42s.117 5.466.25 5.466.25-2.428.25-5.466-.07-5.42-.25-5.42M79.547 404.404c-.14 0-.25 2.428-.25 5.42s.11 5.466.25 5.466.25-2.428.25-5.466-.078-5.42-.25-5.42M74.32 404.404c-.14 0-.25 2.428-.25 5.42s.11 5.466.25 5.466.25-2.428.25-5.466-.11-5.42-.25-5.42M69.063 404.404c-.141 0-.25 2.428-.25 5.42s.109 5.466.25 5.466c.14 0 .25-2.428.25-5.466s-.11-5.42-.25-5.42M63.812 404.404c-.14 0-.25 2.428-.25 5.42s.11 5.466.25 5.466.25-2.428.25-5.466-.133-5.42-.25-5.42M58.555 404.404c-.14 0-.25 2.428-.25 5.42s.109 5.466.25 5.466c.14 0 .25-2.428.25-5.466s-.11-5.42-.25-5.42M53.296 404.404c-.14 0-.25 2.428-.25 5.42s.11 5.466.25 5.466.25-2.428.25-5.466-.109-5.42-.25-5.42M48.047 404.404c-.14 0-.25 2.428-.25 5.42s.11 5.466.25 5.466.25-2.428.25-5.466-.11-5.42-.25-5.42M42.789 404.404c-.14 0-.25 2.428-.25 5.42s.11 5.466.25 5.466.25-2.428.25-5.466-.11-5.42-.25-5.42"/>
    <path fill="#000" d="M98.288 404.201a165 165 0 0 1-55.82 0z" opacity=".3"/>
    <path fill="#263238" d="M41.492 404.225c0 .133 12.885.249 28.785.249 15.899 0 28.776-.117 28.776-.249 0-.133-12.885-.25-28.776-.25s-28.785.109-28.785.25"/>
    <g fill="#000" opacity=".3">
        <path d="M47.857 370.419v11.542h-6.755v11.182h57.662v-11.096h6.755v-11.628zM44.803 404.185h-3.295v11.183H99.17v-11.034h3.296v-11.183H44.803z"/>
    </g>
    <path fill="url(#i)" d="M147.33 335.991H91.617v11.234h55.713z"/>
    <path fill="#263238" d="M143.749 336.179c-.128 0-.241 2.445-.241 5.448s.113 5.447.241 5.447c.129 0 .242-2.437.242-5.447s-.105-5.448-.242-5.448M138.585 336.179c-.136 0-.241 2.445-.241 5.448s.105 5.447.241 5.447c.137 0 .242-2.437.242-5.447s-.113-5.448-.242-5.448M133.484 336.179c-.136 0-.242 2.445-.242 5.448s.106 5.447.242 5.447c.135 0 .241-2.437.241-5.447s-.106-5.448-.241-5.448M128.406 336.179c-.136 0-.242 2.445-.242 5.448s.106 5.447.242 5.447.241-2.437.241-5.447-.098-5.448-.241-5.448M123.327 336.179c-.136 0-.241 2.445-.241 5.448s.105 5.447.241 5.447.242-2.437.242-5.447-.105-5.448-.242-5.448M118.249 336.179c-.136 0-.241 2.445-.241 5.448s.105 5.447.241 5.447c.137 0 .242-2.437.242-5.447s-.106-5.448-.242-5.448M113.171 336.179c-.135 0-.241 2.445-.241 5.448s.106 5.447.241 5.447c.136 0 .242-2.437.242-5.447s-.106-5.448-.242-5.448M108.093 336.179c-.136 0-.241 2.445-.241 5.448s.105 5.447.241 5.447.242-2.437.242-5.447-.106-5.448-.242-5.448M103.015 336.179c-.136 0-.242 2.445-.242 5.448s.106 5.447.242 5.447c.135 0 .242-2.437.242-5.447s-.107-5.448-.242-5.448M97.937 336.179c-.136 0-.242 2.445-.242 5.448s.106 5.447.242 5.447c.135 0 .241-2.437.241-5.447s-.105-5.448-.241-5.448M92.859 336.179c-.136 0-.242 2.445-.242 5.448s.105 5.447.242 5.447c.136 0 .241-2.437.241-5.447s-.113-5.448-.241-5.448"/>
    <path fill="url(#j)" d="M147.108 347.437H89.445v11.628h57.663z"/>
    <path fill="#263238" d="M143.398 347.632c-.133 0-.25 2.53-.25 5.638s.118 5.638.25 5.638c.133 0 .25-2.522.25-5.638s-.109-5.638-.25-5.638M138.055 347.632c-.14 0-.25 2.53-.25 5.638s.109 5.638.25 5.638.25-2.522.25-5.638c-.001-3.116-.117-5.638-.25-5.638M132.766 347.632c-.14 0-.25 2.53-.25 5.638s.109 5.638.25 5.638.25-2.522.25-5.638c-.001-3.116-.11-5.638-.25-5.638M127.515 347.632c-.14 0-.249 2.53-.249 5.638s.109 5.638.249 5.638.25-2.522.25-5.638-.102-5.638-.25-5.638M122.258 347.632c-.14 0-.25 2.53-.25 5.638s.109 5.638.25 5.638c.14 0 .25-2.522.25-5.638s-.109-5.638-.25-5.638M117 347.632c-.14 0-.25 2.53-.25 5.638s.109 5.638.25 5.638c.14 0 .25-2.522.25-5.638s-.11-5.638-.25-5.638M111.749 347.632c-.14 0-.249 2.53-.249 5.638s.109 5.638.249 5.638.251-2.522.251-5.638c-.001-3.116-.11-5.638-.251-5.638M106.492 347.632c-.141 0-.25 2.53-.25 5.638s.109 5.638.25 5.638.25-2.522.25-5.638-.109-5.638-.25-5.638M101.235 347.632c-.141 0-.251 2.53-.251 5.638s.11 5.638.251 5.638c.14 0 .25-2.522.25-5.638s-.109-5.638-.25-5.638M95.977 347.632c-.14 0-.25 2.53-.25 5.638s.109 5.638.25 5.638c.14 0 .25-2.522.25-5.638s-.11-5.638-.25-5.638M90.727 347.632c-.141 0-.25 2.53-.25 5.638s.109 5.638.25 5.638c.14 0 .25-2.522.25-5.638s-.118-5.638-.25-5.638"/>
    <path fill="#000" d="M146.179 347.452a210.4 210.4 0 0 1-55.812 0z" opacity=".3"/>
    <path fill="#263238" d="M89.398 347.476c0 .141 12.885.25 28.777.25 15.891 0 28.784-.109 28.784-.25 0-.14-12.885-.25-28.784-.25s-28.777.109-28.777.25"/>
    <path fill="url(#k)" d="M145.236 313H89.523v11.235h55.713z"/>
    <path fill="#263238" d="M141.648 313.189c-.128 0-.242 2.445-.242 5.448s.114 5.447.242 5.447.241-2.437.241-5.447-.105-5.448-.241-5.448M136.492 313.189c-.136 0-.242 2.445-.242 5.448s.105 5.447.242 5.447c.136 0 .241-2.437.241-5.447s-.113-5.448-.241-5.448M131.382 313.189c-.136 0-.241 2.445-.241 5.448s.105 5.447.241 5.447.242-2.437.242-5.447-.106-5.448-.242-5.448M126.304 313.189c-.135 0-.242 2.445-.242 5.448s.106 5.447.242 5.447.242-2.437.242-5.447-.099-5.448-.242-5.448M121.226 313.189c-.136 0-.242 2.445-.242 5.448s.106 5.447.242 5.447c.135 0 .241-2.437.241-5.447s-.106-5.448-.241-5.448M116.148 313.189c-.136 0-.242 2.445-.242 5.448s.106 5.447.242 5.447c.135 0 .241-2.437.241-5.447s-.106-5.448-.241-5.448M111.07 313.189c-.136 0-.242 2.445-.242 5.448s.105 5.447.242 5.447c.136 0 .241-2.437.241-5.447s-.105-5.448-.241-5.448M105.992 313.189c-.136 0-.242 2.445-.242 5.448s.105 5.447.242 5.447c.136 0 .241-2.437.241-5.447s-.106-5.448-.241-5.448M100.913 313.189c-.136 0-.241 2.445-.241 5.448s.105 5.447.241 5.447c.137 0 .242-2.437.242-5.447s-.105-5.448-.242-5.448M95.835 313.189c-.136 0-.241 2.445-.241 5.448s.105 5.447.241 5.447.242-2.437.242-5.447-.105-5.448-.242-5.448M90.757 313.189c-.136 0-.241 2.445-.241 5.448s.105 5.447.241 5.447.242-2.437.242-5.447-.114-5.448-.242-5.448"/>
    <path fill="url(#l)" d="M145.006 324.446H87.344v11.628h57.662z"/>
    <path fill="#263238" d="M141.296 324.641c-.133 0-.249 2.53-.249 5.638s.117 5.638.249 5.638c.133 0 .251-2.522.251-5.638s-.11-5.638-.251-5.638M135.961 324.641c-.14 0-.25 2.53-.25 5.638s.109 5.638.25 5.638c.14 0 .25-2.522.25-5.638s-.118-5.638-.25-5.638M130.672 324.641c-.141 0-.25 2.53-.25 5.638s.109 5.638.25 5.638c.14 0 .25-2.522.25-5.638s-.11-5.638-.25-5.638M125.414 324.641c-.141 0-.25 2.53-.25 5.638s.109 5.638.25 5.638.25-2.522.25-5.638c-.001-3.116-.102-5.638-.25-5.638M120.164 324.641c-.14 0-.25 2.53-.25 5.638s.109 5.638.25 5.638.251-2.522.251-5.638-.11-5.638-.251-5.638M114.907 324.641c-.141 0-.251 2.53-.251 5.638s.11 5.638.251 5.638c.14 0 .249-2.522.249-5.638.001-3.116-.108-5.638-.249-5.638M109.649 324.641c-.141 0-.251 2.53-.251 5.638s.11 5.638.251 5.638.25-2.522.25-5.638-.109-5.638-.25-5.638M104.391 324.641c-.141 0-.25 2.53-.25 5.638s.109 5.638.25 5.638c.14 0 .249-2.522.249-5.638s-.109-5.638-.249-5.638M99.14 324.641c-.14 0-.25 2.53-.25 5.638s.11 5.638.25 5.638.25-2.522.25-5.638-.11-5.638-.25-5.638M93.883 324.641c-.14 0-.25 2.53-.25 5.638s.11 5.638.25 5.638.25-2.522.25-5.638-.109-5.638-.25-5.638M88.625 324.641c-.14 0-.25 2.53-.25 5.638s.11 5.638.25 5.638.25-2.522.25-5.638-.117-5.638-.25-5.638"/>
    <path fill="#000" d="M144.078 324.462a210.4 210.4 0 0 1-55.812 0zM147.672 336.045a210.4 210.4 0 0 1-55.813 0z" opacity=".3"/>
    <path fill="#263238" d="M87.297 324.485c0 .141 12.885.25 28.776.25s28.785-.109 28.785-.25c0-.14-12.885-.25-28.785-.25-15.899 0-28.776.109-28.776.25M91.672 336.044c0 .141 12.536.25 27.995.25 15.461 0 28.004-.109 28.004-.25 0-.14-12.536-.249-28.004-.249-15.467 0-27.995.109-27.995.249"/>
    <path fill="url(#m)" d="M145.811 358.87H88.148v11.628h57.663z"/>
    <path fill="#263238" d="M142.11 359.072c-.141 0-.251 2.523-.251 5.631s.11 5.638.251 5.638c.14 0 .249-2.523.249-5.638.001-3.116-.116-5.631-.249-5.631M136.757 359.072c-.14 0-.249 2.523-.249 5.631s.109 5.638.249 5.638.251-2.523.251-5.638c0-3.116-.11-5.631-.251-5.631M131.469 359.072c-.133 0-.25 2.523-.25 5.631s.117 5.638.25 5.638.25-2.523.25-5.638c0-3.116-.109-5.631-.25-5.631M126.219 359.072c-.141 0-.25 2.523-.25 5.631s.109 5.638.25 5.638c.14 0 .249-2.523.249-5.638.001-3.116-.108-5.631-.249-5.631M120.961 359.072c-.141 0-.25 2.523-.25 5.631s.109 5.638.25 5.638c.14 0 .25-2.523.25-5.638 0-3.116-.11-5.631-.25-5.631M115.703 359.072c-.14 0-.25 2.523-.25 5.631s.109 5.638.25 5.638.251-2.523.251-5.638c-.001-3.116-.11-5.631-.251-5.631M110.484 359.072c-.14 0-.25 2.523-.25 5.631s.11 5.638.25 5.638.25-2.523.25-5.638c0-3.116-.141-5.631-.25-5.631M105.195 359.072c-.14 0-.25 2.523-.25 5.631s.11 5.638.25 5.638.25-2.523.25-5.638c0-3.116-.109-5.631-.25-5.631M99.937 359.072c-.14 0-.25 2.523-.25 5.631s.11 5.638.25 5.638.25-2.523.25-5.638c0-3.116-.109-5.631-.25-5.631M94.687 359.072c-.14 0-.25 2.523-.25 5.631s.11 5.638.25 5.638.25-2.523.25-5.638c0-3.116-.07-5.631-.25-5.631M89.398 359.072c-.14 0-.25 2.523-.25 5.631s.11 5.638.25 5.638.25-2.523.25-5.638c0-3.116-.078-5.631-.25-5.631"/>
    <path fill="#000" d="M144.89 358.885a210.4 210.4 0 0 1-55.82 0z" opacity=".3"/>
    <path fill="#263238" d="M88.133 358.908c0 .141 12.885.251 28.784.251 15.9 0 28.777-.11 28.777-.251 0-.14-12.877-.249-28.777-.249-15.899 0-28.784.156-28.784.249"/>
    <path fill="url(#n)" d="M151.295 370.122H93.633v11.628h57.662z"/>
    <path fill="#263238" d="M147.585 370.317c-.14 0-.249 2.53-.249 5.638s.109 5.638.249 5.638.251-2.522.251-5.638-.118-5.638-.251-5.638M142.235 370.317c-.141 0-.251 2.53-.251 5.638s.11 5.638.251 5.638.25-2.522.25-5.638-.109-5.638-.25-5.638M136.946 370.317c-.133 0-.251 2.53-.251 5.638s.118 5.638.251 5.638.25-2.522.25-5.638c-.001-3.115-.11-5.638-.25-5.638M131.688 370.317c-.133 0-.25 2.53-.25 5.638s.117 5.638.25 5.638.25-2.522.25-5.638-.109-5.638-.25-5.638M126.437 370.317c-.132 0-.249 2.53-.249 5.638s.117 5.638.249 5.638c.133 0 .25-2.522.25-5.638s-.109-5.638-.25-5.638M121.179 370.317c-.133 0-.249 2.53-.249 5.638s.117 5.638.249 5.638.25-2.522.25-5.638-.109-5.638-.25-5.638M115.945 370.317c-.14 0-.25 2.53-.25 5.638s.11 5.638.25 5.638.25-2.522.25-5.638-.133-5.638-.25-5.638M110.671 370.317c-.14 0-.249 2.53-.249 5.638s.109 5.638.249 5.638.251-2.522.251-5.638-.11-5.638-.251-5.638M105.414 370.317c-.141 0-.25 2.53-.25 5.638s.109 5.638.25 5.638c.14 0 .25-2.522.25-5.638s-.109-5.638-.25-5.638M100.157 370.317c-.141 0-.25 2.53-.25 5.638s.109 5.638.25 5.638c.14 0 .25-2.522.25-5.638s-.079-5.638-.25-5.638M94.907 370.317c-.14 0-.25 2.53-.25 5.638s.109 5.638.25 5.638c.14 0 .249-2.522.249-5.638s-.11-5.638-.25-5.638"/>
    <path fill="#000" d="M150.366 370.138a210.4 210.4 0 0 1-55.82 0z" opacity=".3"/>
    <path fill="#263238" d="M93.61 370.161c0 .14 12.884.25 28.784.25s28.776-.109 28.776-.25c0-.14-12.877-.25-28.776-.25-15.9 0-28.785.118-28.785.25"/>
    <path fill="url(#o)" d="M144.537 381.664H86.875v11.183h57.662z"/>
    <path fill="#263238" d="M140.828 381.859c-.14 0-.25 2.42-.25 5.42 0 2.998.109 5.419.25 5.419s.251-2.428.251-5.419-.141-5.42-.251-5.42M135.468 381.859c-.14 0-.249 2.42-.249 5.42 0 2.998.109 5.419.249 5.419s.25-2.428.25-5.419-.101-5.42-.25-5.42M130.195 381.859c-.132 0-.25 2.42-.25 5.42 0 2.998.118 5.419.25 5.419.133 0 .25-2.428.25-5.419-.001-2.991-.11-5.42-.25-5.42M124.938 381.859c-.133 0-.25 2.42-.25 5.42 0 2.998.117 5.419.25 5.419s.25-2.428.25-5.419-.109-5.42-.25-5.42M119.679 381.859c-.132 0-.249 2.42-.249 5.42 0 2.998.117 5.419.249 5.419.133 0 .25-2.428.25-5.419s-.078-5.42-.25-5.42M114.422 381.859c-.141 0-.25 2.42-.25 5.42 0 2.998.109 5.419.25 5.419.14 0 .25-2.428.25-5.419s-.11-5.42-.25-5.42M109.171 381.859c-.14 0-.249 2.42-.249 5.42 0 2.998.109 5.419.249 5.419s.25-2.428.25-5.419-.109-5.42-.25-5.42M103.914 381.859c-.14 0-.25 2.42-.25 5.42 0 2.998.109 5.419.25 5.419s.251-2.428.251-5.419-.11-5.42-.251-5.42M98.656 381.859c-.14 0-.25 2.42-.25 5.42 0 2.998.11 5.419.25 5.419s.25-2.428.25-5.419-.141-5.42-.25-5.42M93.406 381.859c-.14 0-.25 2.42-.25 5.42 0 2.998.11 5.419.25 5.419s.25-2.428.25-5.419-.11-5.42-.25-5.42M88.148 381.859c-.14 0-.25 2.42-.25 5.42 0 2.998.11 5.419.25 5.419s.25-2.428.25-5.419-.11-5.42-.25-5.42"/>
    <path fill="#000" d="M143.608 381.68a165 165 0 0 1-55.819 0z" opacity=".3"/>
    <path fill="#263238" d="M86.852 381.703c0 .14 12.885.249 28.784.249s28.777-.109 28.777-.249-12.847-.243-28.777-.243c-15.93.001-28.784.103-28.784.243"/>
    <path fill="url(#p)" d="M148.24 392.854H90.578v11.183h57.662z"/>
    <path fill="#263238" d="M144.532 393.042c-.134 0-.251 2.428-.251 5.427s.117 5.42.251 5.42c.132 0 .257-2.428.257-5.42s-.117-5.427-.257-5.427M139.188 393.042c-.14 0-.25 2.428-.25 5.427s.109 5.42.25 5.42.25-2.428.25-5.42-.118-5.427-.25-5.427M133.907 393.042c-.141 0-.251 2.428-.251 5.427s.11 5.42.251 5.42.25-2.428.25-5.42-.117-5.427-.25-5.427M128.649 393.042c-.14 0-.251 2.428-.251 5.427s.11 5.42.251 5.42.25-2.428.25-5.42-.11-5.427-.25-5.427M123.39 393.042c-.14 0-.249 2.428-.249 5.427s.109 5.42.249 5.42.25-2.428.25-5.42-.11-5.427-.25-5.427M118.133 393.042c-.141 0-.25 2.428-.25 5.427s.109 5.42.25 5.42c.14 0 .25-2.428.25-5.42s-.094-5.427-.25-5.427M112.882 393.042c-.14 0-.249 2.428-.249 5.427s.109 5.42.249 5.42.251-2.428.251-5.42-.11-5.427-.251-5.427M107.625 393.042c-.141 0-.25 2.428-.25 5.427s.109 5.42.25 5.42c.14 0 .25-2.428.25-5.42s-.11-5.427-.25-5.427M102.367 393.042c-.141 0-.25 2.428-.25 5.427s.109 5.42.25 5.42.25-2.428.25-5.42-.11-5.427-.25-5.427M97.11 393.042c-.141 0-.25 2.428-.25 5.427s.109 5.42.25 5.42c.14 0 .25-2.428.25-5.42s-.11-5.427-.25-5.427M91.859 393.042c-.14 0-.25 2.428-.25 5.427s.11 5.42.25 5.42.25-2.428.25-5.42-.117-5.427-.25-5.427"/>
    <path fill="#000" d="M147.311 392.87a146 146 0 0 1-55.811 0z" opacity=".3"/>
    <path fill="#263238" d="M90.563 392.894c0 .141 12.885.25 28.776.25s28.784-.109 28.784-.25c0-.14-12.885-.25-28.784-.25s-28.776.109-28.776.25"/>
    <path fill="url(#q)" d="M144.944 403.888H87.281v11.183h57.663z"/>
    <path fill="#263238" d="M141.242 404.108c-.141 0-.25 2.428-.25 5.419s.109 5.467.25 5.467.25-2.429.25-5.467c-.001-3.038-.118-5.419-.25-5.419M135.891 404.108c-.14 0-.25 2.428-.25 5.419s.109 5.467.25 5.467c.14 0 .25-2.429.25-5.467-.001-3.038-.11-5.419-.25-5.419M130.61 404.108c-.133 0-.251 2.428-.251 5.419s.118 5.467.251 5.467.249-2.429.249-5.467-.07-5.419-.249-5.419M125.321 404.108c-.141 0-.251 2.428-.251 5.419s.11 5.467.251 5.467c.14 0 .249-2.429.249-5.467.001-3.038-.078-5.419-.249-5.419M120.094 404.108c-.141 0-.25 2.428-.25 5.419s.109 5.467.25 5.467c.14 0 .25-2.429.25-5.467s-.11-5.419-.25-5.419M114.836 404.108c-.14 0-.25 2.428-.25 5.419s.109 5.467.25 5.467c.14 0 .25-2.429.25-5.467s-.109-5.419-.25-5.419M109.585 404.108c-.14 0-.249 2.428-.249 5.419s.109 5.467.249 5.467.251-2.429.251-5.467-.133-5.419-.251-5.419M104.328 404.108c-.141 0-.25 2.428-.25 5.419s.109 5.467.25 5.467.25-2.429.25-5.467-.109-5.419-.25-5.419M99.07 404.108c-.14 0-.25 2.428-.25 5.419s.11 5.467.25 5.467.25-2.429.25-5.467-.11-5.419-.25-5.419M93.82 404.108c-.14 0-.25 2.428-.25 5.419s.11 5.467.25 5.467.25-2.429.25-5.467-.108-5.419-.25-5.419M88.562 404.108c-.14 0-.25 2.428-.25 5.419s.11 5.467.25 5.467.25-2.429.25-5.467-.109-5.419-.25-5.419"/>
    <path fill="#000" d="M144.062 403.904a165 165 0 0 1-55.82 0z" opacity=".3"/>
    <path fill="#263238" d="M87.266 403.928c0 .133 12.885.25 28.784.25s28.777-.117 28.777-.25-12.885-.25-28.777-.25c-15.891 0-28.784.109-28.784.25"/>
    <path fill="#263238" d="M144.945 415.041v-2.929c0-1.922-.039-4.686-.062-8.098v-.126h3.303l-.133.141v-11.19l.172.172h-3.905v-11.464h6.943l-.188.188v-11.847l.172.18h-5.638v-11.152h1.562l-.125.133v-11.393a1 1 0 0 1 0-.202.8.8 0 0 1 0 .202v.594c0 .546 0 1.304.054 2.28 0 2.023.087 4.912.149 8.511v.133h-1.562l.133-.133c0 3.124 0 6.794.039 10.84l-.172-.164h5.646v12.214h-6.949l.194-.188v11.097l-.179-.18h3.904v11.503h-3.319l.125-.125c0 3.428-.039 6.177-.055 8.098v2.741a.6.6 0 0 1-.109.164"/>
    <g clip-path="url(#r)">
        <path fill="url(#s)" d="M66.772 43.41c10.87-2.234 17.871-12.857 15.638-23.727C80.176 8.813 69.553 1.81 58.683 4.044S40.81 16.901 43.044 27.771 55.901 45.643 66.772 43.41"/>
        <path fill="url(#t)" d="M66.678 42.94c10.61-2.18 17.445-12.55 15.264-23.16-2.18-10.611-12.549-17.445-23.16-15.265-10.61 2.18-17.444 12.55-15.264 23.16s12.55 17.445 23.16 15.265"/>
        <path fill="url(#u)" d="M66.187 40.587A17.1 17.1 0 0 1 53.25 38.1a17.1 17.1 0 0 1-7.387-10.907 17.1 17.1 0 0 1 2.488-12.937 17.1 17.1 0 0 1 10.907-7.387 17.1 17.1 0 0 1 12.937 2.488 17.1 17.1 0 0 1 7.387 10.907A17.1 17.1 0 0 1 77.094 33.2a17.1 17.1 0 0 1-10.907 7.388"/>
        <path fill="url(#v)" d="M72.846 9.807A17.1 17.1 0 0 0 60.581 7.74a17.1 17.1 0 0 0-10.907 7.388 17.1 17.1 0 0 0-2.488 12.936 17.1 17.1 0 0 0 6.736 10.456q-.339-.202-.672-.421a17.1 17.1 0 0 1-7.387-10.907 17.1 17.1 0 0 1 2.488-12.937 17.1 17.1 0 0 1 10.907-7.387 17.1 17.1 0 0 1 13.588 2.94"/>
        <path fill="url(#w)" d="M82.405 19.683c2.233 10.87-4.768 21.493-15.638 23.727-10.265 2.109-20.309-4.016-23.278-13.859q.257.05.533.097c2.986 9.468 12.71 15.333 22.648 13.291 10.61-2.18 17.445-12.55 15.264-23.16C80.18 11.243 73.126 5.151 64.91 4.231q-.102-.27-.196-.504c8.524.845 15.877 7.124 17.692 15.956" opacity=".4"/>
        <path fill="url(#x)" d="M72.85 9.804a17.1 17.1 0 0 0-6.9-2.32 28 28 0 0 0-.192-.71 17.2 17.2 0 0 1 6.937 2.918z" style="mix-blend-mode:saturation"/>
        <path fill="url(#y)" d="M81.609 19.416c2.18 10.61-4.654 20.98-15.265 23.16-9.937 2.042-19.662-3.823-22.648-13.291.77.128 1.649.227 2.636.269a17.08 17.08 0 0 0 7.26 8.6l.004.002a17.1 17.1 0 0 0 12.265 2.067 17.1 17.1 0 0 0 10.907-7.387A17.1 17.1 0 0 0 79.256 19.9 17.1 17.1 0 0 0 72.52 9.444l-.004-.003-.157-.112q-.241-.173-.49-.337a17.2 17.2 0 0 0-6.446-2.582c-.28-.99-.578-1.852-.84-2.542 8.217.92 15.272 7.012 17.026 15.548" opacity=".3"/>
        <path fill="url(#z)" d="M79.589 20.263A17.1 17.1 0 0 1 77.1 33.2a17.1 17.1 0 0 1-10.907 7.387A17.1 17.1 0 0 1 53.93 38.52l-.005-.003a17.06 17.06 0 0 1-6.236-8.577c2.405.005 5.375-.326 8.917-1.303 2.87-.965 8.695-3.804 9.89-11.173.682-3.588.17-7.198-.549-9.98a17.1 17.1 0 0 1 6.902 2.32l.005.003a17.1 17.1 0 0 1 6.736 10.456" opacity=".6"/>
        <g clip-path="url(#A)">
            <path fill="#fff" d="m62.345 19.944-1.455-1.52c-1.095.985-1.743 2.261-1.885 3.562a4.7 4.7 0 0 0 .185 1.942c.198.628.541 1.224 1.026 1.73l2.33 2.435 1.614 1.688 1.728 1.806a4.6 4.6 0 0 0 1.704 1.124c.95.362 1.996.422 3.006.213 1.01-.21 1.99-.69 2.818-1.429 1.104-.986 1.755-2.268 1.897-3.573a4.75 4.75 0 0 0-.185-1.942 4.4 4.4 0 0 0-1.026-1.73l-5.67-5.929a4.6 4.6 0 0 0-1.706-1.125c-.95-.36-1.996-.421-3.006-.213-.339.07-.676.175-1.004.306l1.614 1.688q.236-.039.47-.045c.409-.01.798.056 1.147.188q.523.197.915.602l5.671 5.929c.26.272.44.582.55.929.164.517.163 1.118-.022 1.716a3.75 3.75 0 0 1-1.099 1.678c-.731.654-1.622.98-2.442 1-.41.01-.8-.054-1.148-.187a2.5 2.5 0 0 1-.916-.601l-1.472-1.54-1.455-1.52-2.744-2.87a2.35 2.35 0 0 1-.549-.928c-.165-.518-.163-1.118.021-1.717a3.74 3.74 0 0 1 1.088-1.667"/>
            <g filter="url(#B)">
                <path fill="#fff" d="m64.536 27.125 1.454 1.52c1.097-.985 1.744-2.261 1.887-3.562a4.75 4.75 0 0 0-.185-1.942 4.4 4.4 0 0 0-1.027-1.73l-2.328-2.436-1.615-1.687-1.728-1.806a4.6 4.6 0 0 0-1.704-1.124c-.95-.362-1.997-.422-3.007-.213s-1.99.69-2.818 1.428c-1.104.988-1.754 2.268-1.897 3.574a4.7 4.7 0 0 0 .184 1.942 4.4 4.4 0 0 0 1.027 1.73l5.672 5.93a4.6 4.6 0 0 0 1.705 1.123c.95.361 1.995.422 3.005.213q.51-.107 1.005-.305l-1.615-1.687a4 4 0 0 1-.468.043c-.41.01-.8-.054-1.148-.187a2.5 2.5 0 0 1-.915-.601l-5.672-5.93a2.36 2.36 0 0 1-.55-.929c-.164-.518-.163-1.118.021-1.717a3.75 3.75 0 0 1 1.1-1.677c.732-.654 1.622-.981 2.443-1.001.41-.01.8.055 1.147.187q.526.199.916.602l1.473 1.54 1.454 1.52 2.744 2.87c.26.27.44.582.55.928.164.517.163 1.117-.021 1.717a3.75 3.75 0 0 1-1.089 1.667"/>
            </g>
        </g>
        <path fill="url(#C)" d="m53.587 38.154-.164-.1q-.254-.154-.503-.318a17.1 17.1 0 0 1-6.592-8.181q.494.021 1.023.022a17.06 17.06 0 0 0 6.236 8.577" style="mix-blend-mode:saturation"/>
    </g>
    <g clip-path="url(#D)">
        <path fill="url(#E)" d="M351.177 195.153c.576-11.082-7.941-20.534-19.024-21.11-11.082-.576-20.534 7.941-21.11 19.024-.576 11.082 7.941 20.534 19.024 21.11 11.082.576 20.534-7.941 21.11-19.024"/>
        <path fill="url(#F)" d="M350.7 195.128c.563-10.818-7.751-20.043-18.569-20.606-10.817-.562-20.043 7.751-20.605 18.569s7.751 20.043 18.569 20.605 20.043-7.751 20.605-18.568"/>
        <path fill="url(#G)" d="M348.294 195.007a17.1 17.1 0 0 1-5.666 11.892 17.1 17.1 0 0 1-12.416 4.403 17.1 17.1 0 0 1-11.893-5.666 17.1 17.1 0 0 1-4.402-12.416 17.1 17.1 0 0 1 5.666-11.893 17.1 17.1 0 0 1 12.416-4.403 17.1 17.1 0 0 1 11.893 5.667 17.1 17.1 0 0 1 4.402 12.416"/>
        <path fill="url(#H)" d="M320.184 180.81a17.09 17.09 0 0 0-5.09 11.348 17.1 17.1 0 0 0 4.403 12.417 17.1 17.1 0 0 0 11.893 5.666 17.1 17.1 0 0 0 11.815-3.886q-.282.278-.577.544a17.1 17.1 0 0 1-12.416 4.403 17.1 17.1 0 0 1-11.893-5.666 17.1 17.1 0 0 1-4.402-12.416 17.1 17.1 0 0 1 6.267-12.41"/>
        <path fill="url(#I)" d="M332.153 174.049c11.082.576 19.599 10.027 19.023 21.11-.544 10.465-9.001 18.642-19.274 19.036q.113-.236.228-.491c9.915-.505 18.04-8.439 18.566-18.57.563-10.818-7.751-20.043-18.568-20.606-8.703-.452-16.376 4.841-19.335 12.56q-.287.031-.538.064c2.965-8.036 10.893-13.572 19.898-13.103" opacity=".4"/>
        <path fill="url(#J)" d="M320.188 180.805a17.1 17.1 0 0 0-3.985 6.094q-.376-.001-.734.007a17.2 17.2 0 0 1 4.571-5.978z" style="mix-blend-mode:saturation"/>
        <path fill="url(#K)" d="M331.694 174.752c10.818.562 19.131 9.788 18.569 20.605-.527 10.131-8.652 18.066-18.567 18.571.318-.713.635-1.538.924-2.484a17.08 17.08 0 0 0 10.013-4.725q.07-.066.138-.134l.004-.004a17.09 17.09 0 0 0 5.09-11.348 17.1 17.1 0 0 0-4.403-12.417 17.1 17.1 0 0 0-11.893-5.666 17.1 17.1 0 0 0-11.815 3.886l-.004.003-.147.123q-.228.191-.45.391a17.2 17.2 0 0 0-4.122 5.588 31 31 0 0 0-2.672.171c2.959-7.72 10.632-13.013 19.335-12.56" opacity=".3"/>
        <path fill="url(#L)" d="M332.006 176.916a17.1 17.1 0 0 1 11.893 5.666 17.1 17.1 0 0 1 4.402 12.416 17.1 17.1 0 0 1-5.089 11.349l-.005.004a17.07 17.07 0 0 1-9.87 3.875c.61-2.327 1.037-5.285.984-8.958-.211-3.02-1.491-9.373-8.322-12.386-3.3-1.564-6.923-1.977-9.797-1.983a17.1 17.1 0 0 1 3.985-6.094l.004-.004a17.09 17.09 0 0 1 11.815-3.885" opacity=".6"/>
        <g clip-path="url(#M)">
            <path fill="#fff" d="m327.351 193.524-1.838 1.025c.678 1.308 1.75 2.256 2.973 2.722a4.75 4.75 0 0 0 1.926.309 4.4 4.4 0 0 0 1.933-.557l2.944-1.641 2.039-1.137 2.184-1.217a4.6 4.6 0 0 0 1.517-1.367c.589-.829.91-1.825.962-2.855a6.1 6.1 0 0 0-.673-3.087c-.676-1.317-1.753-2.269-2.98-2.736a4.75 4.75 0 0 0-1.926-.31 4.44 4.44 0 0 0-1.933.557l-7.165 3.995a4.6 4.6 0 0 0-1.518 1.367c-.589.829-.911 1.825-.964 2.855-.017.346-.001.699.043 1.049l2.04-1.137q.022-.24.075-.465c.094-.399.255-.76.471-1.064.217-.303.485-.55.813-.734l7.166-3.995a2.4 2.4 0 0 1 1.038-.298c.542-.028 1.123.124 1.655.454a3.74 3.74 0 0 1 1.347 1.486c.449.873.54 1.817.353 2.615a3 3 0 0 1-.47 1.064 2.5 2.5 0 0 1-.813.735l-1.86 1.037-1.838 1.025-3.468 1.933a2.35 2.35 0 0 1-1.037.297c-.543.029-1.123-.123-1.656-.453a3.7 3.7 0 0 1-1.339-1.472z"/>
            <g filter="url(#N)">
                <path fill="#fff" d="m334.856 193.213 1.838-1.024c-.677-1.309-1.75-2.257-2.972-2.723a4.8 4.8 0 0 0-1.927-.31 4.4 4.4 0 0 0-1.933.558l-2.943 1.64-2.04 1.137-2.183 1.218a4.6 4.6 0 0 0-1.517 1.366c-.589.829-.911 1.826-.963 2.856a6.1 6.1 0 0 0 .673 3.088c.677 1.316 1.752 2.268 2.98 2.736a4.7 4.7 0 0 0 1.926.31 4.4 4.4 0 0 0 1.933-.558l7.167-3.995a4.6 4.6 0 0 0 1.516-1.367c.589-.829.911-1.826.964-2.855a6 6 0 0 0-.042-1.049l-2.04 1.137a3.5 3.5 0 0 1-.076.465 3 3 0 0 1-.47 1.064c-.217.303-.486.55-.813.733l-7.167 3.996a2.36 2.36 0 0 1-1.037.298c-.543.028-1.124-.123-1.657-.453a3.75 3.75 0 0 1-1.346-1.487c-.449-.872-.541-1.817-.353-2.616a3 3 0 0 1 .47-1.063 2.5 2.5 0 0 1 .813-.735l1.861-1.037 1.837-1.025 3.469-1.933a2.35 2.35 0 0 1 1.037-.297c.542-.029 1.122.123 1.656.452a3.75 3.75 0 0 1 1.339 1.473"/>
            </g>
        </g>
        <path fill="url(#O)" d="m342.768 206.587-.138.134a17.092 17.092 0 0 1-10.013 4.726q.146-.472.28-.985a17.06 17.06 0 0 0 9.871-3.875" style="mix-blend-mode:saturation"/>
    </g>
    <g clip-path="url(#P)">
        <path fill="url(#Q)" d="M198.432 127.992c.286-5.499-3.94-10.188-9.44-10.474-5.499-.286-10.188 3.94-10.474 9.439s3.94 10.189 9.439 10.475 10.189-3.94 10.475-9.44"/>
        <path fill="url(#R)" d="M198.194 127.98c.279-5.368-3.847-9.946-9.214-10.225s-9.946 3.847-10.225 9.214 3.846 9.946 9.214 10.225 9.945-3.846 10.225-9.214"/>
        <path fill="url(#S)" d="M197.001 127.92a8.48 8.48 0 0 1-2.811 5.901 8.48 8.48 0 0 1-6.161 2.184 8.48 8.48 0 0 1-5.901-2.811 8.5 8.5 0 0 1-2.185-6.161 8.49 8.49 0 0 1 2.812-5.901 8.5 8.5 0 0 1 6.161-2.185 8.49 8.49 0 0 1 5.901 2.812 8.48 8.48 0 0 1 2.184 6.161"/>
        <path fill="url(#T)" d="M183.053 120.875a8.48 8.48 0 0 0-2.525 5.631 8.48 8.48 0 0 0 2.184 6.161 8.49 8.49 0 0 0 5.901 2.812 8.48 8.48 0 0 0 5.863-1.928 8.484 8.484 0 0 1-6.447 2.454 8.48 8.48 0 0 1-5.901-2.811 8.5 8.5 0 0 1-2.185-6.161 8.49 8.49 0 0 1 3.11-6.158"/>
        <path fill="url(#U)" d="M188.996 117.52c5.499.286 9.725 4.976 9.439 10.475-.27 5.193-4.467 9.25-9.564 9.446q.056-.117.113-.244c4.92-.25 8.952-4.187 9.213-9.214.279-5.368-3.846-9.946-9.214-10.225-4.318-.224-8.125 2.402-9.594 6.233q-.143.015-.266.031c1.471-3.987 5.405-6.734 9.873-6.502" opacity=".4"/>
        <path fill="url(#V)" d="M183.052 120.873a8.5 8.5 0 0 0-1.977 3.024q-.187 0-.364.003a8.5 8.5 0 0 1 2.268-2.966z" style="mix-blend-mode:saturation"/>
        <path fill="url(#W)" d="M188.761 117.869c5.367.279 9.493 4.857 9.214 10.225-.262 5.027-4.293 8.964-9.213 9.214.158-.353.315-.763.458-1.232a8.48 8.48 0 0 0 5.037-2.411l.002-.002a8.47 8.47 0 0 0 2.525-5.631 8.48 8.48 0 0 0-2.184-6.161 8.49 8.49 0 0 0-5.901-2.812 8.48 8.48 0 0 0-5.863 1.928l-.002.002-.073.061q-.113.095-.223.194a8.5 8.5 0 0 0-2.045 2.773 16 16 0 0 0-1.326.085 9.74 9.74 0 0 1 9.594-6.233" opacity=".3"/>
        <path fill="url(#X)" d="M188.919 118.943a8.49 8.49 0 0 1 5.901 2.812 8.49 8.49 0 0 1 2.185 6.161 8.48 8.48 0 0 1-2.526 5.631l-.002.002a8.47 8.47 0 0 1-4.898 1.922c.303-1.154.515-2.622.489-4.444-.105-1.499-.74-4.651-4.129-6.146-1.638-.776-3.436-.981-4.862-.984a8.5 8.5 0 0 1 1.977-3.024l.002-.002a8.48 8.48 0 0 1 5.863-1.928" opacity=".6"/>
        <g clip-path="url(#Y)">
            <path fill="#fff" d="m186.606 127.184-.912.509c.336.649.868 1.119 1.475 1.35.304.116.629.171.956.154s.655-.107.959-.277l1.46-.814 1.012-.564 1.084-.604c.304-.169.558-.404.752-.678a2.67 2.67 0 0 0 .478-1.417 3 3 0 0 0-.334-1.532 2.8 2.8 0 0 0-1.478-1.357 2.3 2.3 0 0 0-.956-.154 2.2 2.2 0 0 0-.959.276l-3.556 1.983a2.3 2.3 0 0 0-.753.678 2.7 2.7 0 0 0-.478 1.417q-.013.258.021.52l1.012-.564q.012-.119.038-.231c.046-.198.126-.377.233-.528q.16-.226.404-.364l3.556-1.982q.244-.135.514-.148a1.43 1.43 0 0 1 .822.225c.264.163.502.413.668.737.223.433.268.902.175 1.298a1.5 1.5 0 0 1-.233.528 1.2 1.2 0 0 1-.403.365l-.924.514-.911.509-1.721.959q-.245.134-.515.147a1.43 1.43 0 0 1-.821-.224 1.85 1.85 0 0 1-.665-.731"/>
            <g filter="url(#Z)">
                <path fill="#fff" d="m190.332 127.03.911-.508a2.8 2.8 0 0 0-1.474-1.351 2.3 2.3 0 0 0-.956-.154 2.2 2.2 0 0 0-.959.276l-1.461.814-1.012.565-1.083.604a2.3 2.3 0 0 0-.753.678 2.7 2.7 0 0 0-.478 1.417 3.03 3.03 0 0 0 .334 1.532c.336.653.87 1.126 1.479 1.357.304.116.629.171.955.154.327-.016.656-.107.96-.276l3.556-1.983c.303-.169.558-.404.752-.678.293-.412.452-.906.478-1.417a3 3 0 0 0-.02-.52l-1.013.564q-.011.119-.037.231a1.5 1.5 0 0 1-.234.527 1.2 1.2 0 0 1-.403.365l-3.556 1.982a1.16 1.16 0 0 1-.515.148 1.43 1.43 0 0 1-.822-.225 1.87 1.87 0 0 1-.668-.738 1.9 1.9 0 0 1-.175-1.298c.046-.198.126-.377.233-.527a1.24 1.24 0 0 1 .404-.365l.923-.514.912-.509 1.721-.959q.244-.135.514-.148c.269-.014.557.061.822.225.262.162.498.409.665.731"/>
            </g>
        </g>
        <path fill="url(#aa)" d="m194.255 133.666-.068.067q-.106.102-.216.201a8.47 8.47 0 0 1-4.752 2.143q.072-.234.139-.488a8.46 8.46 0 0 0 4.897-1.923" style="mix-blend-mode:saturation"/>
    </g>
    <g clip-path="url(#ab)">
        <path fill="url(#ac)" d="M325.405 403.884c.803-15.45-11.071-28.626-26.521-29.43s-28.626 11.071-29.43 26.521 11.071 28.627 26.521 29.43 28.627-11.071 29.43-26.521"/>
        <path fill="url(#ad)" d="M324.736 403.848c.784-15.081-10.806-27.942-25.887-28.726s-27.942 10.806-28.726 25.887 10.806 27.942 25.887 28.726 27.942-10.806 28.726-25.887"/>
        <path fill="url(#ae)" d="M321.39 403.68a23.84 23.84 0 0 1-7.899 16.579c-4.762 4.291-10.909 6.471-17.309 6.138a23.84 23.84 0 0 1-16.58-7.899 23.84 23.84 0 0 1-6.137-17.31 23.83 23.83 0 0 1 7.899-16.579 23.84 23.84 0 0 1 17.309-6.138 23.84 23.84 0 0 1 16.58 7.899 23.84 23.84 0 0 1 6.137 17.31"/>
        <path fill="url(#af)" d="M282.201 383.888c-4.272 4.213-6.781 9.789-7.095 15.821a23.84 23.84 0 0 0 6.137 17.309 23.84 23.84 0 0 0 16.58 7.9c6.032.313 11.838-1.604 16.472-5.417q-.393.387-.804.758c-4.762 4.291-10.909 6.471-17.309 6.138a23.84 23.84 0 0 1-16.58-7.899 23.84 23.84 0 0 1-6.137-17.31 23.83 23.83 0 0 1 7.899-16.579q.412-.372.837-.721"/>
        <path fill="url(#ag)" d="M298.885 374.462c15.45.803 27.324 13.979 26.521 29.429-.758 14.59-12.549 25.99-26.87 26.539q.158-.329.317-.684c13.823-.704 25.15-11.766 25.884-25.889.784-15.081-10.805-27.943-25.886-28.727-12.133-.63-22.83 6.748-26.956 17.511q-.4.042-.748.088c4.132-11.203 15.185-18.92 27.738-18.267" opacity=".4"/>
        <path fill="url(#ah)" d="M282.204 383.881a23.85 23.85 0 0 0-5.555 8.496q-.526-.002-1.024.01a23.95 23.95 0 0 1 6.373-8.335q.102-.086.206-.171" style="mix-blend-mode:saturation"/>
        <path fill="url(#ai)" d="M298.244 375.442c15.081.784 26.671 13.645 25.887 28.726-.735 14.124-12.062 25.186-25.885 25.89.444-.994.885-2.145 1.289-3.463 4.945-.55 9.583-2.624 13.353-6.021a23 23 0 0 0 .798-.753l.006-.005c4.272-4.214 6.781-9.789 7.095-15.821a23.84 23.84 0 0 0-6.137-17.31 23.84 23.84 0 0 0-16.58-7.899c-6.032-.314-11.838 1.604-16.472 5.417l-.006.005a21.57 21.57 0 0 0-.831.715 23.9 23.9 0 0 0-5.747 7.791 44 44 0 0 0-3.725.238c4.125-10.762 14.822-18.14 26.955-17.51" opacity=".3"/>
        <path fill="url(#aj)" d="M298.677 378.459a23.84 23.84 0 0 1 16.58 7.899 23.84 23.84 0 0 1 6.137 17.31c-.313 6.032-2.823 11.608-7.095 15.821l-.006.005a23.78 23.78 0 0 1-13.761 5.402c.852-3.243 1.447-7.366 1.372-12.487-.294-4.211-2.078-13.068-11.601-17.267-4.601-2.181-9.652-2.756-13.658-2.765a23.85 23.85 0 0 1 5.555-8.496l.006-.005c4.633-3.813 10.439-5.73 16.471-5.417" opacity=".6"/>
        <g clip-path="url(#ak)">
            <path fill="#fff" d="m292.19 401.613-2.562 1.428c.944 1.824 2.439 3.146 4.144 3.795a6.6 6.6 0 0 0 2.686.431 6.15 6.15 0 0 0 2.695-.776l4.103-2.287 2.843-1.586 3.044-1.697a6.45 6.45 0 0 0 2.115-1.905c.822-1.156 1.269-2.545 1.342-3.981a8.5 8.5 0 0 0-.938-4.304c-.944-1.835-2.444-3.163-4.155-3.813a6.6 6.6 0 0 0-2.686-.433 6.2 6.2 0 0 0-2.694.777l-9.989 5.569a6.46 6.46 0 0 0-2.116 1.905c-.821 1.156-1.27 2.546-1.344 3.981-.024.483-.001.974.06 1.463l2.844-1.586q.031-.332.105-.648c.13-.556.355-1.059.657-1.483a3.5 3.5 0 0 1 1.132-1.023l9.991-5.569a3.3 3.3 0 0 1 1.446-.416c.756-.04 1.566.172 2.308.632.743.459 1.41 1.16 1.879 2.072.624 1.217.752 2.533.491 3.646a4.2 4.2 0 0 1-.655 1.483 3.45 3.45 0 0 1-1.133 1.025l-2.594 1.446-2.562 1.428-4.835 2.695c-.457.255-.94.388-1.446.414-.756.041-1.565-.171-2.308-.631a5.2 5.2 0 0 1-1.867-2.053z"/>
            <g filter="url(#al)">
                <path fill="#fff" d="m302.652 401.18 2.562-1.428c-.944-1.825-2.439-3.147-4.144-3.796a6.6 6.6 0 0 0-2.685-.432 6.15 6.15 0 0 0-2.695.777l-4.103 2.287-2.844 1.585-3.043 1.697a6.44 6.44 0 0 0-2.115 1.905c-.822 1.156-1.27 2.546-1.343 3.982a8.5 8.5 0 0 0 .938 4.304c.944 1.835 2.443 3.163 4.155 3.814.855.326 1.767.48 2.685.433a6.2 6.2 0 0 0 2.695-.777l9.991-5.571a6.45 6.45 0 0 0 2.114-1.905c.821-1.156 1.27-2.545 1.343-3.981a8.4 8.4 0 0 0-.058-1.462l-2.844 1.586a5 5 0 0 1-.106.648 4.2 4.2 0 0 1-.655 1.483 3.5 3.5 0 0 1-1.133 1.022l-9.992 5.571a3.3 3.3 0 0 1-1.446.415c-.757.04-1.566-.172-2.309-.631a5.2 5.2 0 0 1-1.877-2.074c-.626-1.215-.754-2.532-.493-3.646.13-.557.355-1.06.656-1.482a3.5 3.5 0 0 1 1.133-1.025l2.594-1.446 2.562-1.428 4.835-2.695c.457-.255.94-.388 1.446-.415.756-.04 1.565.171 2.309.631a5.2 5.2 0 0 1 1.867 2.054"/>
            </g>
        </g>
        <path fill="url(#am)" d="M313.682 419.824q-.095.095-.192.187-.298.288-.606.566c-3.77 3.397-8.408 5.471-13.353 6.022q.203-.658.39-1.373a23.78 23.78 0 0 0 13.761-5.402" style="mix-blend-mode:saturation"/>
    </g>
    <defs>
        <linearGradient id="c" x1="32.144" x2="33.832" y1="393.151" y2="406.194" gradientUnits="userSpaceOnUse">
            <stop stop-color="gold"/>
            <stop offset="1" stop-color="#e68d35"/>
        </linearGradient>
        <linearGradient id="d" x1="28.847" x2="30.535" y1="404.185" y2="417.228" gradientUnits="userSpaceOnUse">
            <stop stop-color="gold"/>
            <stop offset="1" stop-color="#e68d35"/>
        </linearGradient>
        <linearGradient id="e" x1="76.691" x2="78.513" y1="370.419" y2="383.963" gradientUnits="userSpaceOnUse">
            <stop stop-color="gold"/>
            <stop offset="1" stop-color="#e68d35"/>
        </linearGradient>
        <linearGradient id="f" x1="69.933" x2="71.621" y1="381.961" y2="395.004" gradientUnits="userSpaceOnUse">
            <stop stop-color="gold"/>
            <stop offset="1" stop-color="#e68d35"/>
        </linearGradient>
        <linearGradient id="g" x1="73.636" x2="75.324" y1="393.151" y2="406.193" gradientUnits="userSpaceOnUse">
            <stop stop-color="gold"/>
            <stop offset="1" stop-color="#e68d35"/>
        </linearGradient>
        <linearGradient id="h" x1="70.339" x2="72.027" y1="404.185" y2="417.228" gradientUnits="userSpaceOnUse">
            <stop stop-color="gold"/>
            <stop offset="1" stop-color="#e68d35"/>
        </linearGradient>
        <linearGradient id="i" x1="119.473" x2="121.235" y1="335.991" y2="349.077" gradientUnits="userSpaceOnUse">
            <stop stop-color="gold"/>
            <stop offset="1" stop-color="#e68d35"/>
        </linearGradient>
        <linearGradient id="j" x1="118.276" x2="120.099" y1="347.437" y2="360.981" gradientUnits="userSpaceOnUse">
            <stop stop-color="gold"/>
            <stop offset="1" stop-color="#e68d35"/>
        </linearGradient>
        <linearGradient id="k" x1="117.38" x2="119.141" y1="313" y2="326.086" gradientUnits="userSpaceOnUse">
            <stop stop-color="gold"/>
            <stop offset="1" stop-color="#e68d35"/>
        </linearGradient>
        <linearGradient id="l" x1="116.175" x2="117.998" y1="324.446" y2="337.99" gradientUnits="userSpaceOnUse">
            <stop stop-color="gold"/>
            <stop offset="1" stop-color="#e68d35"/>
        </linearGradient>
        <linearGradient id="m" x1="116.98" x2="118.803" y1="358.87" y2="372.414" gradientUnits="userSpaceOnUse">
            <stop stop-color="gold"/>
            <stop offset="1" stop-color="#e68d35"/>
        </linearGradient>
        <linearGradient id="n" x1="122.464" x2="124.287" y1="370.122" y2="383.666" gradientUnits="userSpaceOnUse">
            <stop stop-color="gold"/>
            <stop offset="1" stop-color="#e68d35"/>
        </linearGradient>
        <linearGradient id="o" x1="115.706" x2="117.395" y1="381.664" y2="394.707" gradientUnits="userSpaceOnUse">
            <stop stop-color="gold"/>
            <stop offset="1" stop-color="#e68d35"/>
        </linearGradient>
        <linearGradient id="p" x1="119.409" x2="121.098" y1="392.854" y2="405.897" gradientUnits="userSpaceOnUse">
            <stop stop-color="gold"/>
            <stop offset="1" stop-color="#e68d35"/>
        </linearGradient>
        <linearGradient id="q" x1="116.112" x2="117.801" y1="403.888" y2="416.932" gradientUnits="userSpaceOnUse">
            <stop stop-color="gold"/>
            <stop offset="1" stop-color="#e68d35"/>
        </linearGradient>
        <linearGradient id="s" x1="58.683" x2="86.874" y1="4.044" y2="31.911" gradientUnits="userSpaceOnUse">
            <stop stop-color="gold"/>
            <stop offset="1" stop-color="#e68d35"/>
        </linearGradient>
        <linearGradient id="t" x1="58.782" x2="86.3" y1="4.515" y2="31.716" gradientUnits="userSpaceOnUse">
            <stop stop-color="#efcb0a"/>
            <stop offset="1" stop-color="#af661d"/>
        </linearGradient>
        <linearGradient id="u" x1="59.258" x2="83.406" y1="6.868" y2="30.738" gradientUnits="userSpaceOnUse">
            <stop stop-color="gold"/>
            <stop offset="1" stop-color="#e68d35"/>
        </linearGradient>
        <linearGradient id="v" x1="57.057" x2="78.053" y1="7.32" y2="28.074" gradientUnits="userSpaceOnUse">
            <stop stop-color="gold"/>
            <stop offset="1" stop-color="#e68d35"/>
        </linearGradient>
        <linearGradient id="w" x1="58.9" x2="86.369" y1="4.921" y2="32.596" gradientUnits="userSpaceOnUse">
            <stop stop-color="gold"/>
            <stop offset="1" stop-color="#e68d35"/>
        </linearGradient>
        <linearGradient id="x" x1="68.862" x2="71.673" y1="6.136" y2="9.941" gradientUnits="userSpaceOnUse">
            <stop stop-color="gold"/>
            <stop offset="1" stop-color="#e68d35"/>
        </linearGradient>
        <linearGradient id="y" x1="58.692" x2="85.447" y1="5.078" y2="32.066" gradientUnits="userSpaceOnUse">
            <stop stop-color="gold"/>
            <stop offset="1" stop-color="#e68d35"/>
        </linearGradient>
        <linearGradient id="z" x1="60.258" x2="82.962" y1="8.652" y2="31.552" gradientUnits="userSpaceOnUse">
            <stop stop-color="#ebc704"/>
            <stop offset="1" stop-color="#d17315"/>
        </linearGradient>
        <linearGradient id="C" x1="48.963" x2="55.529" y1="29.013" y2="32.443" gradientUnits="userSpaceOnUse">
            <stop stop-color="gold"/>
            <stop offset="1" stop-color="#e68d35"/>
        </linearGradient>
        <linearGradient id="E" x1="311.043" x2="345.112" y1="193.067" y2="172.803" gradientUnits="userSpaceOnUse">
            <stop stop-color="gold"/>
            <stop offset="1" stop-color="#e68d35"/>
        </linearGradient>
        <linearGradient id="F" x1="311.526" x2="344.78" y1="193.091" y2="173.311" gradientUnits="userSpaceOnUse">
            <stop stop-color="#efcb0a"/>
            <stop offset="1" stop-color="#af661d"/>
        </linearGradient>
        <linearGradient id="G" x1="313.917" x2="343.099" y1="193.22" y2="175.862" gradientUnits="userSpaceOnUse">
            <stop stop-color="gold"/>
            <stop offset="1" stop-color="#e68d35"/>
        </linearGradient>
        <linearGradient id="H" x1="313.8" x2="339.173" y1="195.463" y2="180.371" gradientUnits="userSpaceOnUse">
            <stop stop-color="gold"/>
            <stop offset="1" stop-color="#e68d35"/>
        </linearGradient>
        <linearGradient id="I" x1="311.947" x2="345.648" y1="193.078" y2="173.464" gradientUnits="userSpaceOnUse">
            <stop stop-color="gold"/>
            <stop offset="1" stop-color="#e68d35"/>
        </linearGradient>
        <linearGradient id="J" x1="315.633" x2="320.024" y1="183.741" y2="181.98" gradientUnits="userSpaceOnUse">
            <stop stop-color="gold"/>
            <stop offset="1" stop-color="#e68d35"/>
        </linearGradient>
        <linearGradient id="K" x1="312.047" x2="344.903" y1="193.318" y2="174.223" gradientUnits="userSpaceOnUse">
            <stop stop-color="gold"/>
            <stop offset="1" stop-color="#e68d35"/>
        </linearGradient>
        <linearGradient id="L" x1="315.901" x2="343.781" y1="192.699" y2="176.494" gradientUnits="userSpaceOnUse">
            <stop stop-color="#ebc704"/>
            <stop offset="1" stop-color="#d17315"/>
        </linearGradient>
        <linearGradient id="O" x1="332.757" x2="337.73" y1="208.76" y2="203.27" gradientUnits="userSpaceOnUse">
            <stop stop-color="gold"/>
            <stop offset="1" stop-color="#e68d35"/>
        </linearGradient>
        <linearGradient id="Q" x1="178.518" x2="195.423" y1="126.957" y2="116.902" gradientUnits="userSpaceOnUse">
            <stop stop-color="gold"/>
            <stop offset="1" stop-color="#e68d35"/>
        </linearGradient>
        <linearGradient id="R" x1="178.755" x2="195.256" y1="126.969" y2="117.155" gradientUnits="userSpaceOnUse">
            <stop stop-color="#efcb0a"/>
            <stop offset="1" stop-color="#af661d"/>
        </linearGradient>
        <linearGradient id="S" x1="179.943" x2="194.424" y1="127.033" y2="118.42" gradientUnits="userSpaceOnUse">
            <stop stop-color="gold"/>
            <stop offset="1" stop-color="#e68d35"/>
        </linearGradient>
        <linearGradient id="T" x1="179.886" x2="192.476" y1="128.146" y2="120.658" gradientUnits="userSpaceOnUse">
            <stop stop-color="gold"/>
            <stop offset="1" stop-color="#e68d35"/>
        </linearGradient>
        <linearGradient id="U" x1="178.97" x2="195.692" y1="126.963" y2="117.23" gradientUnits="userSpaceOnUse">
            <stop stop-color="gold"/>
            <stop offset="1" stop-color="#e68d35"/>
        </linearGradient>
        <linearGradient id="V" x1="180.793" x2="182.971" y1="122.33" y2="121.456" gradientUnits="userSpaceOnUse">
            <stop stop-color="gold"/>
            <stop offset="1" stop-color="#e68d35"/>
        </linearGradient>
        <linearGradient id="W" x1="179.012" x2="195.315" y1="127.082" y2="117.607" gradientUnits="userSpaceOnUse">
            <stop stop-color="gold"/>
            <stop offset="1" stop-color="#e68d35"/>
        </linearGradient>
        <linearGradient id="X" x1="180.928" x2="194.762" y1="126.775" y2="118.734" gradientUnits="userSpaceOnUse">
            <stop stop-color="#ebc704"/>
            <stop offset="1" stop-color="#d17315"/>
        </linearGradient>
        <linearGradient id="aa" x1="189.288" x2="191.756" y1="134.744" y2="132.02" gradientUnits="userSpaceOnUse">
            <stop stop-color="gold"/>
            <stop offset="1" stop-color="#e68d35"/>
        </linearGradient>
        <linearGradient id="ac" x1="269.454" x2="316.95" y1="400.975" y2="372.725" gradientUnits="userSpaceOnUse">
            <stop stop-color="gold"/>
            <stop offset="1" stop-color="#e68d35"/>
        </linearGradient>
        <linearGradient id="ad" x1="270.123" x2="316.483" y1="401.009" y2="373.434" gradientUnits="userSpaceOnUse">
            <stop stop-color="#efcb0a"/>
            <stop offset="1" stop-color="#af661d"/>
        </linearGradient>
        <linearGradient id="ae" x1="273.465" x2="314.148" y1="401.188" y2="376.99" gradientUnits="userSpaceOnUse">
            <stop stop-color="gold"/>
            <stop offset="1" stop-color="#e68d35"/>
        </linearGradient>
        <linearGradient id="af" x1="273.302" x2="308.675" y1="404.316" y2="383.276" gradientUnits="userSpaceOnUse">
            <stop stop-color="gold"/>
            <stop offset="1" stop-color="#e68d35"/>
        </linearGradient>
        <linearGradient id="ag" x1="270.717" x2="317.699" y1="400.991" y2="373.647" gradientUnits="userSpaceOnUse">
            <stop stop-color="gold"/>
            <stop offset="1" stop-color="#e68d35"/>
        </linearGradient>
        <linearGradient id="ah" x1="275.854" x2="281.975" y1="387.975" y2="385.519" gradientUnits="userSpaceOnUse">
            <stop stop-color="gold"/>
            <stop offset="1" stop-color="#e68d35"/>
        </linearGradient>
        <linearGradient id="ai" x1="270.853" x2="316.658" y1="401.326" y2="374.705" gradientUnits="userSpaceOnUse">
            <stop stop-color="gold"/>
            <stop offset="1" stop-color="#e68d35"/>
        </linearGradient>
        <linearGradient id="aj" x1="276.225" x2="315.092" y1="400.462" y2="377.871" gradientUnits="userSpaceOnUse">
            <stop stop-color="#ebc704"/>
            <stop offset="1" stop-color="#d17315"/>
        </linearGradient>
        <linearGradient id="am" x1="299.726" x2="306.659" y1="422.854" y2="415.2" gradientUnits="userSpaceOnUse">
            <stop stop-color="gold"/>
            <stop offset="1" stop-color="#e68d35"/>
        </linearGradient>
        <clipPath id="r">
            <path fill="#fff" d="m39 8.089 39.366-8.09 8.088 39.366-39.365 8.09z"/>
        </clipPath>
        <clipPath id="A">
            <path fill="#fff" d="m51.766 13.799 24.083.946-.728 18.525-24.083-.946z"/>
        </clipPath>
        <clipPath id="D">
            <path fill="#fff" d="M310 213.134 312.086 173l40.134 2.087-2.086 40.133z"/>
        </clipPath>
        <clipPath id="M">
            <path fill="#fff" d="m318.742 202.216 6.981-23.069 17.745 5.37-6.98 23.07z"/>
        </clipPath>
        <clipPath id="P">
            <path fill="#fff" d="M178 136.914 179.035 117l19.914 1.035-1.035 19.914z"/>
        </clipPath>
        <clipPath id="Y">
            <path fill="#fff" d="m182.336 131.497 3.464-11.447 8.806 2.664-3.464 11.448z"/>
        </clipPath>
        <clipPath id="ab">
            <path fill="#fff" d="m268 428.95 2.909-55.95 55.95 2.908-2.909 55.95z"/>
        </clipPath>
        <clipPath id="ak">
            <path fill="#fff" d="m280.188 413.73 9.733-32.16 24.739 7.486-9.733 32.16z"/>
        </clipPath>
        <filter id="B" width="17.367" height="17.18" x="51.539" y="14.025" color-interpolation-filters="sRGB" filterUnits="userSpaceOnUse">
            <feFlood flood-opacity="0" result="BackgroundImageFix"/>
            <feColorMatrix in="SourceAlpha" result="hardAlpha" values="0 0 0 0 0 0 0 0 0 0 0 0 0 0 0 0 0 0 127 0"/>
            <feOffset dx=".5" dy=".5"/>
            <feGaussianBlur stdDeviation=".25"/>
            <feComposite in2="hardAlpha" operator="out"/>
            <feColorMatrix values="0 0 0 0 0 0 0 0 0 0 0 0 0 0 0 0 0 0 0.1 0"/>
            <feBlend in2="BackgroundImageFix" result="effect1_dropShadow_1265_32394"/>
            <feBlend in="SourceGraphic" in2="effect1_dropShadow_1265_32394" result="shape"/>
        </filter>
        <filter id="N" width="18.172" height="15.921" x="320.211" y="189.15" color-interpolation-filters="sRGB" filterUnits="userSpaceOnUse">
            <feFlood flood-opacity="0" result="BackgroundImageFix"/>
            <feColorMatrix in="SourceAlpha" result="hardAlpha" values="0 0 0 0 0 0 0 0 0 0 0 0 0 0 0 0 0 0 127 0"/>
            <feOffset dx=".5" dy=".5"/>
            <feGaussianBlur stdDeviation=".25"/>
            <feComposite in2="hardAlpha" operator="out"/>
            <feColorMatrix values="0 0 0 0 0 0 0 0 0 0 0 0 0 0 0 0 0 0 0.1 0"/>
            <feBlend in2="BackgroundImageFix" result="effect1_dropShadow_1265_32394"/>
            <feBlend in="SourceGraphic" in2="effect1_dropShadow_1265_32394" result="shape"/>
        </filter>
        <filter id="Z" width="9.523" height="8.404" x="183.062" y="125.014" color-interpolation-filters="sRGB" filterUnits="userSpaceOnUse">
            <feFlood flood-opacity="0" result="BackgroundImageFix"/>
            <feColorMatrix in="SourceAlpha" result="hardAlpha" values="0 0 0 0 0 0 0 0 0 0 0 0 0 0 0 0 0 0 127 0"/>
            <feOffset dx=".5" dy=".5"/>
            <feGaussianBlur stdDeviation=".25"/>
            <feComposite in2="hardAlpha" operator="out"/>
            <feColorMatrix values="0 0 0 0 0 0 0 0 0 0 0 0 0 0 0 0 0 0 0.1 0"/>
            <feBlend in2="BackgroundImageFix" result="effect1_dropShadow_1265_32394"/>
            <feBlend in="SourceGraphic" in2="effect1_dropShadow_1265_32394" result="shape"/>
        </filter>
        <filter id="al" width="24.938" height="21.801" x="282.234" y="395.516" color-interpolation-filters="sRGB" filterUnits="userSpaceOnUse">
            <feFlood flood-opacity="0" result="BackgroundImageFix"/>
            <feColorMatrix in="SourceAlpha" result="hardAlpha" values="0 0 0 0 0 0 0 0 0 0 0 0 0 0 0 0 0 0 127 0"/>
            <feOffset dx=".5" dy=".5"/>
            <feGaussianBlur stdDeviation=".25"/>
            <feComposite in2="hardAlpha" operator="out"/>
            <feColorMatrix values="0 0 0 0 0 0 0 0 0 0 0 0 0 0 0 0 0 0 0.1 0"/>
            <feBlend in2="BackgroundImageFix" result="effect1_dropShadow_1265_32394"/>
            <feBlend in="SourceGraphic" in2="effect1_dropShadow_1265_32394" result="shape"/>
        </filter>
    </defs>
</svg>
