<svg xmlns="http://www.w3.org/2000/svg" width="472" height="427" fill="none"><g clip-path="url(#a)"><g fill="#EBEBEB" opacity=".24"><path d="M366.378 99.043c-.631-1.684-1.274-3.392-2.335-4.843s-2.611-2.64-4.396-2.86c-1.784-.218-3.762.745-4.343 2.447-.256-3.834-.799-7.767-2.718-11.096s-5.5-5.944-9.335-5.71c-3.617.222-6.713 2.908-8.434 6.097-1.72 3.188-2.311 6.846-2.875 10.424-1.371-1.682-4.265-1.153-5.696.478s-1.793 3.912-2.098 6.061h43.149zM207.338 287.485c-.679-1.813-1.372-3.652-2.515-5.215-1.142-1.564-2.812-2.845-4.734-3.08s-4.051.803-4.677 2.634c-.276-4.128-.861-8.365-2.928-11.949-2.066-3.586-5.923-6.401-10.053-6.149-3.894.238-7.229 3.13-9.082 6.565-1.853 3.434-2.489 7.372-3.097 11.226-1.476-1.811-4.593-1.242-6.134.515-1.54 1.757-1.931 4.213-2.259 6.527h46.469zM120.835 203.534c-1.017-2.718-2.056-5.475-3.769-7.818-1.712-2.344-4.215-4.263-7.095-4.616s-6.073 1.202-7.012 3.949c-.413-6.189-1.29-12.539-4.388-17.913-3.099-5.373-8.88-9.595-15.07-9.216-5.838.357-10.836 4.693-13.613 9.84-2.778 5.148-3.731 11.052-4.643 16.829-2.213-2.715-6.885-1.862-9.195.772-2.31 2.633-2.895 6.315-3.386 9.784h69.655zM336.049 223.711c-.623-1.663-1.258-3.349-2.306-4.783-1.047-1.434-2.578-2.608-4.341-2.824-1.762-.215-3.715.736-4.289 2.416-.253-3.787-.79-7.671-2.685-10.958s-5.431-5.871-9.22-5.639c-3.571.218-6.629 2.871-8.328 6.02s-2.283 6.76-2.84 10.295c-1.354-1.661-4.212-1.139-5.625.472s-1.771 3.863-2.071 5.985h42.613zM403.081 173.837c-.623-1.663-1.259-3.35-2.306-4.783s-2.578-2.608-4.341-2.824c-1.762-.215-3.715.736-4.289 2.416-.253-3.787-.79-7.671-2.685-10.959s-5.431-5.87-9.22-5.639c-3.571.219-6.629 2.872-8.328 6.02-1.699 3.149-2.283 6.761-2.84 10.295-1.354-1.661-4.212-1.139-5.626.472-1.413 1.611-1.771 3.864-2.071 5.985h42.614zM404.494 321.083c-.68-1.813-1.372-3.652-2.515-5.215-1.142-1.564-2.811-2.844-4.734-3.08-1.922-.235-4.051.803-4.677 2.635-.276-4.129-.861-8.365-2.927-11.95-2.067-3.585-5.924-6.401-10.054-6.149-3.894.238-7.229 3.131-9.082 6.565-1.852 3.434-2.489 7.373-3.097 11.226-1.476-1.811-4.593-1.241-6.134.515-1.54 1.757-1.93 4.213-2.258 6.527h46.468zM188.171 51.638c-.888-2.37-1.793-4.773-3.287-6.816s-3.675-3.717-6.187-4.025-5.295 1.048-6.114 3.443c-.361-5.396-1.126-10.933-3.827-15.62s-7.742-8.366-13.141-8.037c-5.09.312-9.449 4.093-11.871 8.58-2.421 4.49-3.253 9.637-4.047 14.675-1.93-2.367-6.005-1.624-8.018.673s-2.524 5.507-2.952 8.53h60.738z"/></g><path fill="#191919" d="M-12.826 606.74-51 606.334 23.949 450.75l41.195 29.736 64.403-125.679 40.064 28.264 32.158-61.716h156.329L415 193.5l32 9.5-67.321 151.524H221.888l-40.394 77.522-39.851-28.114-64.596 126.054-38.74-27.965z" opacity=".04"/><path fill="#191919" d="m397.953 189.185 69.125 19.449L450.571 144z" opacity=".04"/><path fill="#E0E0E0" d="M272.92 248.039h-67.826v73.785h67.826z"/><path fill="#FAFAFA" d="M272.906 321.824V244.03l48.108-53.544 47.837 55.31v76.028z"/><path fill="#EBEBEB" d="M368.826 310.858H205.055v10.996h163.771z"/><path fill="#E0E0E0" d="M285.895 315.933h-5.717a1.592 1.592 0 0 1 0-3.184h5.717a1.592 1.592 0 0 1 0 3.184M296.074 315.933h-5.716a1.592 1.592 0 1 1 0-3.184h5.716a1.592 1.592 0 1 1 0 3.184M306.246 315.933h-5.717a1.591 1.591 0 0 1 0-3.184h5.717a1.592 1.592 0 1 1 0 3.184M316.41 315.933h-5.716a1.592 1.592 0 1 1 0-3.184h5.716a1.592 1.592 0 1 1 0 3.184M326.59 315.933h-5.717a1.592 1.592 0 0 1 0-3.184h5.717a1.592 1.592 0 0 1 0 3.184M336.77 315.933h-5.717a1.592 1.592 0 0 1 0-3.184h5.717a1.592 1.592 0 0 1 0 3.184M346.934 315.933h-5.717a1.592 1.592 0 0 1 0-3.184h5.717a1.592 1.592 0 0 1 0 3.184M357.099 315.933h-5.718a1.592 1.592 0 0 1 0-3.184h5.718a1.592 1.592 0 0 1 0 3.184M367.278 315.933h-5.717a1.592 1.592 0 1 1 0-3.184h5.717a1.591 1.591 0 0 1 0 3.184M275.732 315.933h-5.718a1.592 1.592 0 0 1 0-3.184h5.718a1.592 1.592 0 0 1 0 3.184M282.261 320.135h-6.013a1.592 1.592 0 0 1 0-3.184h6.013a1.592 1.592 0 0 1 0 3.184M271.433 320.135h-6.013a1.592 1.592 0 0 1 0-3.184h6.013a1.592 1.592 0 0 1 0 3.184M265.529 315.933h-5.718a1.592 1.592 0 1 1 0-3.184h5.718a1.592 1.592 0 0 1 0 3.184M261.222 320.135h-6.013a1.592 1.592 0 0 1 0-3.184h6.013a1.592 1.592 0 0 1 0 3.184M255.318 315.933H249.6a1.592 1.592 0 1 1 0-3.184h5.717a1.592 1.592 0 0 1 .001 3.184M251.018 320.135h-6.012a1.592 1.592 0 0 1 0-3.184h6.012a1.592 1.592 0 1 1 0 3.184M245.129 315.933h-5.717a1.592 1.592 0 0 1 0-3.184h5.717a1.592 1.592 0 0 1 0 3.184M240.815 320.135h-6.012a1.592 1.592 0 0 1 0-3.184h6.012a1.592 1.592 0 1 1 0 3.184M234.911 315.933h-5.717a1.592 1.592 0 1 1 0-3.184h5.717a1.592 1.592 0 1 1 0 3.184M230.62 320.135h-6.012a1.592 1.592 0 1 1 0-3.184h6.012a1.592 1.592 0 0 1 0 3.184M224.716 315.933h-5.718a1.592 1.592 0 0 1 0-3.184h5.717a1.592 1.592 0 0 1 .001 3.184M220.417 320.135h-6.013a1.592 1.592 0 0 1 0-3.184h6.013a1.592 1.592 0 0 1 0 3.184M214.512 315.933h-5.717a1.592 1.592 0 0 1 0-3.184h5.717a1.592 1.592 0 0 1 0 3.184M210.063 320.135h-2.791a1.592 1.592 0 1 1 0-3.184h2.791a1.592 1.592 0 0 1 0 3.184M293.003 320.135h-6.013a1.592 1.592 0 0 1 0-3.184h6.013a1.592 1.592 0 0 1 0 3.184M303.332 320.135h-6.014a1.591 1.591 0 0 1 0-3.184h6.014a1.592 1.592 0 0 1 0 3.184M313.675 320.135h-6.013a1.592 1.592 0 0 1 0-3.184h6.013a1.592 1.592 0 0 1 0 3.184M324.018 320.135h-6.012a1.592 1.592 0 0 1 0-3.184h6.012a1.592 1.592 0 1 1 0 3.184M334.354 320.135h-6.012a1.592 1.592 0 0 1 0-3.184h6.012a1.592 1.592 0 1 1 0 3.184M344.683 320.135h-6.013a1.592 1.592 0 0 1 0-3.184h6.013a1.591 1.591 0 0 1 0 3.184M355.012 320.135h-6.014a1.592 1.592 0 0 1 0-3.184h6.013a1.592 1.592 0 0 1 .001 3.184M365.354 320.135h-6.012a1.592 1.592 0 0 1 0-3.184h6.012a1.592 1.592 0 1 1 0 3.184"/><path fill="#FF725E" d="m254.382 182.885-56.155 59.19v7.092h74.679l48.109-58.681 47.836 55.31v3.371h10.852a.496.496 0 0 0 .365-.831l-2.789-3.026-55.703-62.988z"/><path fill="#E0E0E0" d="M317.128 221.557h-15.019v32.794h15.019z"/><path fill="#263238" d="M316.377 222.65h-13.283v30.318h13.283z"/><path fill="#455A64" d="M315.322 223.971h-11.189v27.676h11.189z"/><path fill="#000" d="M315.322 223.971h-11.189v1.021h11.189z" opacity=".3"/><path fill="#fff" d="m313.295 223.971-9.162 7.507v5.714l11.189-9.424v-3.797zM304.133 239.475v2.6l11.189-9.226v-2.541z" opacity=".3"/><path fill="#263238" d="M310.003 223.52h-.542v28.577h.542z"/><path fill="#E0E0E0" d="M338.644 221.557h-15.019v32.794h15.019z"/><path fill="#263238" d="M337.893 222.65h-13.284v30.318h13.284z"/><path fill="#455A64" d="M336.837 223.971h-11.189v27.676h11.189z"/><path fill="#000" d="M336.837 223.971h-11.189v1.021h11.189z" opacity=".3"/><path fill="#fff" d="m334.811 223.971-9.163 7.507v5.714l11.189-9.424v-3.797zM325.648 239.475v2.6l11.189-9.226v-2.541z" opacity=".3"/><path fill="#263238" d="M331.518 223.52h-.541v28.577h.541z"/><path fill="#000" d="M262.45 264.218h-18.919v33.789h18.919z" opacity=".2"/><path fill="#263238" d="M261.509 265.748H244.75v31.234h16.759z"/><path fill="#455A64" d="M260.039 267.214h-14.086v28.3h14.086z"/><path fill="#fff" d="m256.413 267.275-10.46 13.136v9.57l14.086-18.962v-3.744zM260.037 284.493l-9.17 11.082h4.035l5.135-6.721z" opacity=".3"/><path fill="#263238" d="M253.524 266.793h-.782v29.143h.782z"/><path fill="#000" d="M233.497 264.218h-18.919v33.789h18.919z" opacity=".2"/><path fill="#263238" d="M232.571 265.748h-16.759v31.234h16.759z"/><path fill="#455A64" d="M231.086 267.214H217v28.3h14.086z"/><path fill="#fff" d="M227.46 267.275 217 280.411v9.57l14.086-18.962v-3.744zM231.084 284.493l-9.17 11.082h4.035l5.135-6.721z" opacity=".3"/><path fill="#263238" d="M224.579 266.793h-.782v29.143h.782z"/><path fill="#E0E0E0" d="M362.169 264.448H343.25v33.134h18.919z"/><path fill="#263238" d="M361.103 265.949h-16.759v30.628h16.759z"/><path fill="#455A64" d="M359.609 267.387h-14.086v27.752h14.086z"/><path fill="#fff" d="m355.983 267.446-10.46 12.881v9.386l14.086-18.596v-3.671zM359.607 284.329l-9.169 10.869h4.034l5.135-6.591z" opacity=".3"/><path fill="#263238" d="M353.103 266.974h-.783v28.578h.783z"/><path fill="#E0E0E0" d="M302.599 264.448H283.68v33.134h18.919z"/><path fill="#263238" d="M301.532 265.949h-16.759v30.628h16.759z"/><path fill="#455A64" d="M300.039 267.387h-14.086v27.752h14.086z"/><path fill="#fff" d="m296.413 267.446-10.46 12.881v9.386l14.086-18.596v-3.671zM300.038 284.329l-9.171 10.869h4.036l5.135-6.591z" opacity=".3"/><path fill="#263238" d="M293.532 266.974h-.782v28.578h.782z"/><path fill="#E0E0E0" d="M337.354 264.777h-29.432v51.606h29.432z"/><path fill="#263238" d="M334.931 267.312h-24.876v54.782h24.876z"/><path fill="#000" d="M272.681 242.075h-74.454v7.092h74.454z" opacity=".2"/><path fill="#000" d="m321.576 182.322-48.894 59.753h-74.455l56.155-59.19z" opacity=".3"/><path fill="#455A64" d="M331.284 271.594h-17.557v6.094h17.557zM321.148 280.294h-7.421v15.939h7.421zM330.992 280.294h-7.422v15.939h7.422z"/><path fill="#fff" d="m330.992 281.252-7.422 6.538v4.729l7.422-6.888zM313.727 289.832v1.915l7.421-6.37v-2.137z" opacity=".3"/><path fill="#E0E0E0" d="M326.39 260.876h-7.499v2.845h7.499z"/><path fill="#455A64" d="M332.224 299.17a1.163 1.163 0 1 1-2.325-.001 1.163 1.163 0 0 1 2.325.001"/><path fill="#000" d="m319.305 192.579 49.554 56.588h2.54l-2.54-3.371-47.838-55.31z" opacity=".3"/><path fill="#F5F5F5" d="M238.892 204.435v-26.33h-2.572v-6.657h24.137v6.657h-2.077l-.332 17.656-7.892 8.674z"/><path fill="#E0E0E0" d="M253.316 178.167h-2.981v26.268h-11.443v-26.33h-2.572v-6.657h16.996z"/><path fill="#000" d="M258.329 178.106h-19.446v1.338h19.446z" opacity=".3"/><path fill="#263238" d="M272.838 321.091c-.071 0-.127-15.447-.127-34.497 0-19.057.057-34.501.127-34.501s.127 15.444.127 34.501c0 19.05-.057 34.497-.127 34.497M368.848 322.081c-.058 0-.106-16.954-.106-37.863 0-20.916.048-37.867.106-37.867.059 0 .106 16.951.106 37.867 0 20.909-.047 37.863-.106 37.863M205.09 322.114c-.058 0-.106-16.331-.106-36.472 0-20.148.048-36.475.106-36.475.059 0 .106 16.327.106 36.475 0 20.14-.047 36.472-.106 36.472M321.584 182.322q.011.011-.222.321l-.698.905-2.725 3.443c-2.407 3.002-5.853 7.299-10.103 12.596l-33.5 41.421-1.25 1.542-.086.107h-.137l-51.954-.088-15.673-.09-4.254-.053-1.106-.028q-.375-.013-.376-.028c0-.01.128-.02.376-.029.278-.008.643-.016 1.106-.027l4.254-.053 15.673-.091 51.954-.086-.222.106 1.25-1.541c13.123-16.123 25.004-30.718 33.631-41.315l10.244-12.482 2.808-3.376.741-.868q.257-.296.269-.286M250.412 199.941c-.159 0-.287-4.802-.287-10.724 0-5.924.129-10.725.287-10.725s.287 4.801.287 10.725c0 5.922-.129 10.724-.287 10.724M253.263 177.949c-.158 0-.286-1.429-.286-3.191s.129-3.19.286-3.19c.159 0 .287 1.429.287 3.19 0 1.762-.129 3.191-.287 3.191"/><path fill="#fff" d="m156.109 78.703-16.764-2.55 7.687 14.416-10.649 10.013 12.904 4.355-5.682 17.662 18.536-9.59 10.481 10.37 4.436-12.596 14.726-.591-7.63-12.728 11.465-12.7-13.109-2.71 2.468-14.211-14.367 6.99-9.667-12.552z"/><path fill="#263238" d="M156.11 78.703s.021-.102.072-.289l.229-.826.91-3.203 3.5-12.14.07-.245.156.201 9.703 12.526-.214-.051 14.354-7.018.358-.174-.067.393-2.449 14.214-.175-.257 13.113 2.697.406.083-.278.309L184.34 97.63l.029-.296 7.636 12.726.222.37-.432.017-14.726.593.233-.173-.93 2.64-3.507 9.957-.135.384-.289-.286-10.476-10.373.295.044-18.543 9.579-.519.268.18-.555 5.699-17.656.14.277-12.898-4.372-.319-.108.246-.23c3.878-3.634 7.421-6.952 10.668-9.993l-.035.209-7.645-14.438-.12-.226.252.04 12.402 1.957 3.23.523c.729.12 1.112.195 1.112.195s-.358-.037-1.077-.137l-3.213-.457-12.491-1.83.132-.186 7.726 14.394.062.117-.097.091-10.629 10.033-.074-.338 12.91 4.336.207.069-.067.208-5.663 17.668-.339-.287 18.53-9.601.164-.084.131.13 10.482 10.367-.423.097 3.505-9.957.93-2.64.058-.166.176-.007 14.727-.587-.21.386-7.626-12.732-.095-.159.124-.137 11.476-12.69.128.391-13.107-2.723-.212-.045.037-.213 2.488-14.208.29.218-14.381 6.963-.128.062-.085-.112-9.632-12.579.226-.042-3.656 12.166-.962 3.16q-.16.509-.251.8-.087.269-.091.261"/><path fill="#FF725E" d="m169.599 83.118-1.427 14.427a2.348 2.348 0 0 1-4.678-.056l-1.09-14.59a1.842 1.842 0 0 1 1.927-1.977l3.526.174a1.843 1.843 0 0 1 1.742 2.022M162.47 105.132a3.537 3.537 0 0 0 4.948 3.177 3.52 3.52 0 0 0 2.119-3.301 3.537 3.537 0 0 0-4.946-3.176 3.52 3.52 0 0 0-2.121 3.3"/><g clip-path="url(#b)"><path fill="url(#c)" d="M230.771 81.41c10.871-2.234 17.872-12.857 15.639-23.727s-12.857-17.872-23.727-15.639-17.872 12.857-15.639 23.727 12.857 17.872 23.727 15.639"/><path fill="url(#d)" d="M230.678 80.94c10.61-2.18 17.445-12.55 15.264-23.16-2.18-10.611-12.549-17.445-23.16-15.265-10.61 2.18-17.444 12.55-15.264 23.16s12.549 17.445 23.16 15.264"/><path fill="url(#e)" d="M230.187 78.587A17.1 17.1 0 0 1 217.25 76.1a17.1 17.1 0 0 1-7.387-10.907 17.1 17.1 0 0 1 2.488-12.937 17.1 17.1 0 0 1 10.907-7.387 17.1 17.1 0 0 1 12.936 2.488 17.1 17.1 0 0 1 7.388 10.907 17.1 17.1 0 0 1-2.488 12.937 17.1 17.1 0 0 1-10.907 7.387"/><path fill="url(#f)" d="M236.846 47.807a17.1 17.1 0 0 0-12.265-2.067 17.1 17.1 0 0 0-10.907 7.388 17.1 17.1 0 0 0-2.488 12.936 17.1 17.1 0 0 0 6.736 10.456q-.339-.202-.672-.421a17.1 17.1 0 0 1-7.387-10.907 17.1 17.1 0 0 1 2.488-12.937 17.1 17.1 0 0 1 10.907-7.387 17.1 17.1 0 0 1 12.936 2.488q.333.22.652.451"/><path fill="url(#g)" d="M246.405 57.683c2.233 10.87-4.768 21.493-15.638 23.727-10.265 2.109-20.309-4.016-23.278-13.859q.257.05.533.097c2.986 9.468 12.711 15.333 22.648 13.291 10.61-2.18 17.445-12.55 15.264-23.16-1.754-8.536-8.808-14.628-17.025-15.548a24 24 0 0 0-.196-.504c8.524.845 15.877 7.124 17.692 15.956" opacity=".4"/><path fill="url(#h)" d="M236.851 47.804a17.1 17.1 0 0 0-6.902-2.32q-.093-.365-.191-.71a17.2 17.2 0 0 1 6.937 2.918z" style="mix-blend-mode:saturation"/><path fill="url(#i)" d="M245.609 57.416c2.18 10.61-4.654 20.98-15.265 23.16-9.937 2.042-19.662-3.823-22.648-13.291.77.128 1.649.227 2.636.269a17.08 17.08 0 0 0 7.26 8.6l.004.002a17.1 17.1 0 0 0 12.265 2.067 17.1 17.1 0 0 0 10.907-7.387 17.1 17.1 0 0 0 2.488-12.936 17.1 17.1 0 0 0-6.736-10.456l-.004-.004-.156-.111a17.18 17.18 0 0 0-6.937-2.919 32 32 0 0 0-.839-2.542c8.216.92 15.271 7.012 17.025 15.548" opacity=".3"/><path fill="url(#j)" d="M243.589 58.263A17.1 17.1 0 0 1 241.1 71.2a17.1 17.1 0 0 1-10.907 7.387 17.09 17.09 0 0 1-12.264-2.067l-.005-.003a17.06 17.06 0 0 1-6.236-8.577c2.405.005 5.375-.326 8.917-1.303 2.869-.965 8.695-3.804 9.89-11.173.683-3.588.17-7.198-.548-9.98a17.1 17.1 0 0 1 6.901 2.32l.005.003a17.09 17.09 0 0 1 6.736 10.456" opacity=".6"/><g clip-path="url(#k)"><path fill="#fff" d="m226.345 57.944-1.455-1.52c-1.095.984-1.743 2.261-1.885 3.562a4.7 4.7 0 0 0 .185 1.942 4.4 4.4 0 0 0 1.026 1.73l2.329 2.435 1.615 1.688 1.728 1.806a4.6 4.6 0 0 0 1.704 1.124c.951.362 1.996.422 3.006.213 1.01-.21 1.99-.69 2.818-1.429 1.104-.986 1.755-2.268 1.897-3.573a4.75 4.75 0 0 0-.185-1.942 4.4 4.4 0 0 0-1.026-1.73l-5.671-5.929a4.6 4.6 0 0 0-1.705-1.125c-.95-.36-1.996-.421-3.006-.213-.339.07-.676.175-1.004.306l1.614 1.688q.237-.039.469-.045c.409-.01.799.056 1.148.188q.524.198.915.602l5.671 5.929c.26.272.44.583.55.929.164.517.163 1.118-.022 1.716a3.74 3.74 0 0 1-1.099 1.678c-.732.654-1.622.98-2.442 1-.41.01-.801-.054-1.148-.187a2.5 2.5 0 0 1-.916-.601l-1.472-1.54-1.455-1.52-2.744-2.87a2.36 2.36 0 0 1-.549-.928c-.165-.518-.163-1.118.021-1.717a3.75 3.75 0 0 1 1.088-1.667"/><g filter="url(#l)"><path fill="#fff" d="m228.536 65.125 1.454 1.52c1.097-.985 1.744-2.261 1.887-3.562a4.8 4.8 0 0 0-.185-1.942 4.4 4.4 0 0 0-1.027-1.73l-2.328-2.436-1.615-1.687-1.728-1.806a4.6 4.6 0 0 0-1.704-1.124c-.951-.362-1.997-.422-3.007-.213a6.1 6.1 0 0 0-2.818 1.428c-1.104.988-1.754 2.268-1.897 3.574a4.7 4.7 0 0 0 .184 1.942 4.4 4.4 0 0 0 1.027 1.73l5.672 5.93a4.6 4.6 0 0 0 1.705 1.123c.95.361 1.995.422 3.005.213a6 6 0 0 0 1.005-.305l-1.615-1.687q-.236.038-.469.043c-.409.01-.8-.054-1.148-.187a2.5 2.5 0 0 1-.914-.601l-5.672-5.93a2.4 2.4 0 0 1-.55-.929c-.164-.518-.163-1.118.021-1.717a3.75 3.75 0 0 1 1.101-1.678c.731-.654 1.621-.98 2.442-1 .41-.01.8.055 1.147.187.349.134.656.332.916.602l1.473 1.54 1.454 1.52 2.744 2.87c.26.27.439.582.55.928.164.517.163 1.117-.021 1.717a3.75 3.75 0 0 1-1.089 1.667"/></g></g><path fill="url(#m)" d="m217.587 76.154-.164-.1q-.254-.154-.503-.318a17.1 17.1 0 0 1-6.592-8.181q.493.022 1.023.022a17.06 17.06 0 0 0 6.236 8.577" style="mix-blend-mode:saturation"/></g><g clip-path="url(#n)"><path fill="url(#o)" d="M405.177 149.153c.576-11.082-7.941-20.534-19.024-21.11-11.082-.576-20.534 7.941-21.11 19.024-.576 11.082 7.941 20.534 19.024 21.11 11.082.576 20.534-7.941 21.11-19.024"/><path fill="url(#p)" d="M404.7 149.128c.563-10.818-7.751-20.043-18.569-20.606-10.817-.562-20.043 7.751-20.605 18.569s7.751 20.043 18.569 20.605 20.043-7.751 20.605-18.568"/><path fill="url(#q)" d="M402.294 149.007a17.1 17.1 0 0 1-5.666 11.892 17.1 17.1 0 0 1-12.416 4.403 17.1 17.1 0 0 1-11.893-5.666 17.1 17.1 0 0 1-4.402-12.416 17.1 17.1 0 0 1 5.666-11.893 17.1 17.1 0 0 1 12.416-4.403 17.1 17.1 0 0 1 11.893 5.667 17.1 17.1 0 0 1 4.402 12.416"/><path fill="url(#r)" d="M374.184 134.81a17.09 17.09 0 0 0-5.09 11.348 17.1 17.1 0 0 0 4.403 12.417 17.1 17.1 0 0 0 11.893 5.666 17.1 17.1 0 0 0 11.815-3.886q-.282.278-.577.544a17.1 17.1 0 0 1-12.416 4.403 17.1 17.1 0 0 1-11.893-5.666 17.1 17.1 0 0 1-4.402-12.416 17.1 17.1 0 0 1 6.267-12.41"/><path fill="url(#s)" d="M386.153 128.049c11.082.576 19.599 10.027 19.023 21.11-.544 10.465-9.001 18.642-19.274 19.036q.113-.236.228-.491c9.915-.505 18.04-8.439 18.566-18.57.563-10.818-7.751-20.043-18.568-20.606-8.703-.452-16.376 4.841-19.335 12.56q-.287.031-.538.064c2.965-8.036 10.893-13.572 19.898-13.103" opacity=".4"/><path fill="url(#t)" d="M374.188 134.805a17.1 17.1 0 0 0-3.985 6.094q-.376-.001-.734.007a17.2 17.2 0 0 1 4.571-5.978z" style="mix-blend-mode:saturation"/><path fill="url(#u)" d="M385.694 128.752c10.818.562 19.131 9.788 18.569 20.605-.527 10.131-8.652 18.066-18.567 18.571.318-.713.635-1.538.924-2.484a17.08 17.08 0 0 0 10.013-4.725q.07-.066.138-.134l.004-.004a17.09 17.09 0 0 0 5.09-11.348 17.1 17.1 0 0 0-4.403-12.417 17.1 17.1 0 0 0-11.893-5.666 17.1 17.1 0 0 0-11.815 3.886l-.004.003-.147.123q-.228.191-.45.391a17.2 17.2 0 0 0-4.122 5.588 31 31 0 0 0-2.672.171c2.959-7.72 10.632-13.013 19.335-12.56" opacity=".3"/><path fill="url(#v)" d="M386.006 130.916a17.1 17.1 0 0 1 11.893 5.666 17.1 17.1 0 0 1 4.402 12.416 17.1 17.1 0 0 1-5.089 11.349l-.005.004a17.07 17.07 0 0 1-9.87 3.875c.61-2.327 1.037-5.285.984-8.958-.211-3.02-1.491-9.373-8.322-12.386-3.3-1.564-6.923-1.977-9.797-1.983a17.1 17.1 0 0 1 3.985-6.094l.004-.004a17.09 17.09 0 0 1 11.815-3.885" opacity=".6"/><g clip-path="url(#w)"><path fill="#fff" d="m381.351 147.524-1.838 1.025c.678 1.308 1.75 2.256 2.973 2.722a4.75 4.75 0 0 0 1.926.309 4.4 4.4 0 0 0 1.933-.557l2.944-1.641 2.039-1.137 2.184-1.217a4.6 4.6 0 0 0 1.517-1.367c.589-.829.91-1.825.962-2.855a6.1 6.1 0 0 0-.673-3.087c-.676-1.317-1.753-2.269-2.98-2.736a4.75 4.75 0 0 0-1.926-.31 4.44 4.44 0 0 0-1.933.557l-7.165 3.995a4.6 4.6 0 0 0-1.518 1.367c-.589.829-.911 1.825-.964 2.855-.017.346-.001.699.043 1.049l2.04-1.137q.023-.24.075-.465c.094-.399.255-.76.471-1.064.217-.303.485-.55.813-.734l7.166-3.995a2.4 2.4 0 0 1 1.038-.298c.542-.028 1.123.124 1.655.454a3.74 3.74 0 0 1 1.347 1.486c.449.873.54 1.817.353 2.615a3 3 0 0 1-.47 1.064 2.5 2.5 0 0 1-.813.735l-1.86 1.037-1.838 1.025-3.468 1.933a2.35 2.35 0 0 1-1.037.297c-.543.029-1.123-.123-1.656-.453a3.7 3.7 0 0 1-1.339-1.472z"/><g filter="url(#x)"><path fill="#fff" d="m388.856 147.213 1.838-1.024c-.677-1.309-1.75-2.257-2.972-2.723a4.8 4.8 0 0 0-1.927-.31 4.4 4.4 0 0 0-1.933.558l-2.943 1.64-2.04 1.137-2.183 1.218a4.6 4.6 0 0 0-1.517 1.366c-.589.829-.911 1.826-.963 2.856a6.1 6.1 0 0 0 .673 3.088c.677 1.316 1.752 2.268 2.98 2.736a4.7 4.7 0 0 0 1.926.31 4.4 4.4 0 0 0 1.933-.558l7.167-3.995a4.6 4.6 0 0 0 1.516-1.367c.589-.829.911-1.826.964-2.855a6 6 0 0 0-.042-1.049l-2.04 1.137a3.5 3.5 0 0 1-.076.465 3 3 0 0 1-.47 1.064c-.217.303-.486.55-.813.733l-7.167 3.996a2.36 2.36 0 0 1-1.037.298c-.543.028-1.124-.123-1.657-.453a3.75 3.75 0 0 1-1.346-1.487c-.449-.872-.541-1.817-.353-2.616a3 3 0 0 1 .47-1.063 2.5 2.5 0 0 1 .813-.735l1.861-1.037 1.837-1.025 3.469-1.933a2.35 2.35 0 0 1 1.037-.297c.542-.029 1.122.123 1.656.452a3.75 3.75 0 0 1 1.339 1.473"/></g></g><path fill="url(#y)" d="m396.768 160.587-.138.134a17.092 17.092 0 0 1-10.013 4.726q.146-.472.28-.985a17.06 17.06 0 0 0 9.871-3.875" style="mix-blend-mode:saturation"/></g><g clip-path="url(#z)"><path fill="url(#A)" d="M303.085 251.564c.803-15.45-11.071-28.626-26.521-29.429s-28.627 11.07-29.43 26.521c-.803 15.45 11.071 28.626 26.521 29.429s28.626-11.07 29.43-26.521"/><path fill="url(#B)" d="M302.415 251.529c.784-15.081-10.806-27.942-25.886-28.726s-27.943 10.806-28.727 25.886 10.806 27.943 25.887 28.727 27.942-10.806 28.726-25.887"/><path fill="url(#C)" d="M299.07 251.36a23.84 23.84 0 0 1-7.899 16.58 23.84 23.84 0 0 1-17.31 6.137 23.83 23.83 0 0 1-16.579-7.899 23.84 23.84 0 0 1-6.138-17.309 23.84 23.84 0 0 1 7.899-16.58 23.84 23.84 0 0 1 17.31-6.137 23.83 23.83 0 0 1 16.579 7.899 23.84 23.84 0 0 1 6.138 17.309"/><path fill="url(#D)" d="M259.881 231.568c-4.272 4.214-6.782 9.789-7.095 15.821a23.84 23.84 0 0 0 6.137 17.31 23.84 23.84 0 0 0 16.58 7.899c6.032.314 11.838-1.604 16.472-5.416q-.393.387-.804.758a23.84 23.84 0 0 1-17.31 6.137 23.83 23.83 0 0 1-16.579-7.899 23.84 23.84 0 0 1-6.138-17.309 23.84 23.84 0 0 1 7.899-16.58q.412-.37.838-.721"/><path fill="url(#E)" d="M276.565 222.142c15.45.803 27.324 13.98 26.521 29.43-.759 14.589-12.549 25.989-26.87 26.539q.158-.33.317-.685c13.823-.704 25.15-11.765 25.884-25.889.784-15.081-10.806-27.942-25.887-28.726-12.133-.631-22.829 6.748-26.955 17.51q-.4.043-.749.088c4.133-11.203 15.186-18.919 27.739-18.267" opacity=".4"/><path fill="url(#F)" d="M259.883 231.561a23.85 23.85 0 0 0-5.554 8.497q-.525-.002-1.024.009a23.9 23.9 0 0 1 6.373-8.334z" style="mix-blend-mode:saturation"/><path fill="url(#G)" d="M275.923 223.123c15.081.784 26.671 13.645 25.887 28.726-.734 14.123-12.061 25.185-25.884 25.889.444-.994.885-2.144 1.289-3.462 4.945-.551 9.583-2.624 13.352-6.021a22 22 0 0 0 .798-.753l.006-.006c4.273-4.213 6.782-9.789 7.096-15.821.332-6.401-1.847-12.548-6.138-17.309a23.84 23.84 0 0 0-16.579-7.9c-6.032-.313-11.838 1.604-16.472 5.417l-.006.005a21.371 21.371 0 0 0-.832.716 24 24 0 0 0-5.747 7.79c-1.434.03-2.702.129-3.725.239 4.126-10.762 14.822-18.141 26.955-17.51" opacity=".3"/><path fill="url(#H)" d="M276.357 226.14a23.83 23.83 0 0 1 16.58 7.899 23.84 23.84 0 0 1 6.137 17.309c-.314 6.032-2.823 11.608-7.095 15.821l-.006.006a23.8 23.8 0 0 1-13.761 5.402c.851-3.244 1.447-7.367 1.372-12.488-.294-4.211-2.079-13.067-11.601-17.267-4.602-2.181-9.652-2.756-13.658-2.764a23.8 23.8 0 0 1 5.554-8.497l.006-.005c4.634-3.812 10.44-5.73 16.472-5.416" opacity=".6"/><g clip-path="url(#I)"><path fill="#fff" d="m269.87 249.293-2.562 1.429c.944 1.824 2.439 3.145 4.144 3.794a6.6 6.6 0 0 0 2.685.432 6.2 6.2 0 0 0 2.695-.776l4.103-2.288 2.844-1.586 3.044-1.697a6.45 6.45 0 0 0 2.115-1.905c.821-1.155 1.269-2.545 1.342-3.98a8.5 8.5 0 0 0-.939-4.305c-.943-1.834-2.443-3.162-4.154-3.813a6.6 6.6 0 0 0-2.686-.432 6.16 6.16 0 0 0-2.694.776l-9.99 5.57a6.44 6.44 0 0 0-2.116 1.905c-.82 1.156-1.27 2.545-1.343 3.981-.024.482-.002.974.06 1.462l2.844-1.585q.031-.333.105-.648c.13-.556.355-1.059.656-1.483a3.5 3.5 0 0 1 1.133-1.024l9.991-5.569c.457-.254.94-.389 1.446-.415.756-.04 1.566.172 2.308.632.743.458 1.41 1.159 1.878 2.072.625 1.216.753 2.533.492 3.645a4.2 4.2 0 0 1-.655 1.484 3.5 3.5 0 0 1-1.133 1.024l-2.595 1.446-2.561 1.429-4.835 2.694c-.457.255-.94.388-1.446.415-.756.041-1.565-.172-2.308-.631-.737-.455-1.4-1.15-1.868-2.053"/><g filter="url(#J)"><path fill="#fff" d="m280.332 248.86 2.562-1.428c-.944-1.825-2.439-3.146-4.144-3.795a6.6 6.6 0 0 0-2.686-.433c-.916.047-1.841.3-2.694.777l-4.103 2.287-2.844 1.586-3.044 1.697a6.5 6.5 0 0 0-2.115 1.905c-.821 1.155-1.27 2.546-1.342 3.982a8.5 8.5 0 0 0 .937 4.304c.945 1.835 2.444 3.163 4.156 3.814a6.6 6.6 0 0 0 2.684.432 6.2 6.2 0 0 0 2.696-.777l9.991-5.57a6.46 6.46 0 0 0 2.114-1.906c.821-1.156 1.27-2.545 1.343-3.98a8.4 8.4 0 0 0-.059-1.463l-2.844 1.586a5 5 0 0 1-.105.648 4.2 4.2 0 0 1-.655 1.483 3.5 3.5 0 0 1-1.133 1.023l-9.992 5.57a3.3 3.3 0 0 1-1.446.416c-.757.039-1.567-.172-2.31-.632a5.2 5.2 0 0 1-1.876-2.073c-.626-1.216-.754-2.533-.493-3.647.13-.557.355-1.059.656-1.482a3.5 3.5 0 0 1 1.133-1.024l2.594-1.446 2.562-1.429 4.835-2.695c.457-.255.94-.388 1.446-.415.756-.04 1.565.172 2.308.631.737.456 1.399 1.15 1.867 2.054z"/></g></g><path fill="url(#K)" d="m291.362 267.505-.192.186q-.298.289-.606.567c-3.77 3.397-8.408 5.47-13.353 6.021q.203-.658.39-1.372a23.8 23.8 0 0 0 13.761-5.402" style="mix-blend-mode:saturation"/></g><path fill="url(#L)" d="M296.514 394.151h-57.662v11.182h57.662z"/><path fill="#263238" d="M292.805 394.339c-.133 0-.25 2.428-.25 5.428 0 2.998.117 5.419.25 5.419s.257-2.428.257-5.419c0-2.992-.116-5.428-.257-5.428M287.461 394.339c-.141 0-.25 2.428-.25 5.428 0 2.998.109 5.419.25 5.419.14 0 .25-2.428.25-5.419 0-2.992-.117-5.428-.25-5.428M282.187 394.339c-.14 0-.249 2.428-.249 5.428 0 2.998.109 5.419.249 5.419s.25-2.428.25-5.419c0-2.992-.118-5.428-.25-5.428M276.922 394.339c-.14 0-.25 2.428-.25 5.428 0 2.998.109 5.419.25 5.419.14 0 .25-2.428.25-5.419 0-2.992-.11-5.428-.25-5.428M271.664 394.339c-.141 0-.25 2.428-.25 5.428 0 2.998.109 5.419.25 5.419s.25-2.428.25-5.419c0-2.992-.109-5.428-.25-5.428M266.406 394.339c-.14 0-.25 2.428-.25 5.428 0 2.998.11 5.419.25 5.419s.25-2.428.25-5.419c0-2.992-.093-5.428-.25-5.428M261.156 394.339c-.14 0-.25 2.428-.25 5.428 0 2.998.11 5.419.25 5.419s.25-2.428.25-5.419c0-2.992-.11-5.428-.25-5.428M255.899 394.339c-.14 0-.251 2.428-.251 5.428 0 2.998.11 5.419.251 5.419.14 0 .249-2.428.249-5.419 0-2.992-.109-5.428-.249-5.428M250.641 394.339c-.14 0-.25 2.428-.25 5.428 0 2.998.109 5.419.25 5.419s.25-2.428.25-5.419c0-2.992-.109-5.428-.25-5.428M245.382 394.339c-.14 0-.249 2.428-.249 5.428 0 2.998.109 5.419.249 5.419s.251-2.428.251-5.419c0-2.992-.11-5.428-.251-5.428M240.133 394.339c-.141 0-.25 2.428-.25 5.428 0 2.998.109 5.419.25 5.419.14 0 .25-2.428.25-5.419 0-2.992-.118-5.428-.25-5.428"/><path fill="#000" d="M295.585 394.167a146 146 0 0 1-55.812 0z" opacity=".3"/><path fill="url(#M)" d="M293.217 405.185h-57.662v11.183h57.662z"/><path fill="#263238" d="M289.515 405.404c-.14 0-.249 2.428-.249 5.42s.109 5.466.249 5.466.25-2.428.25-5.466-.117-5.42-.25-5.42M284.164 405.404c-.14 0-.25 2.428-.25 5.42s.109 5.466.25 5.466.251-2.428.251-5.466-.11-5.42-.251-5.42M278.882 405.404c-.133 0-.249 2.428-.249 5.42s.117 5.466.249 5.466c.133 0 .25-2.428.25-5.466s-.07-5.42-.25-5.42M273.594 405.404c-.14 0-.25 2.428-.25 5.42s.109 5.466.25 5.466c.14 0 .25-2.428.25-5.466s-.078-5.42-.25-5.42M268.367 405.404c-.141 0-.25 2.428-.25 5.42s.109 5.466.25 5.466.25-2.428.25-5.466-.109-5.42-.25-5.42M263.117 405.404c-.141 0-.25 2.428-.25 5.42s.109 5.466.25 5.466c.14 0 .25-2.428.25-5.466s-.11-5.42-.25-5.42M257.859 405.404c-.14 0-.25 2.428-.25 5.42s.11 5.466.25 5.466.25-2.428.25-5.466-.133-5.42-.25-5.42M252.602 405.404c-.141 0-.25 2.428-.25 5.42s.109 5.466.25 5.466c.14 0 .249-2.428.249-5.466s-.109-5.42-.249-5.42M247.343 405.404c-.14 0-.249 2.428-.249 5.42s.109 5.466.249 5.466.251-2.428.251-5.466-.11-5.42-.251-5.42M242.093 405.404c-.14 0-.249 2.428-.249 5.42s.109 5.466.249 5.466.251-2.428.251-5.466-.11-5.42-.251-5.42M236.836 405.404c-.14 0-.25 2.428-.25 5.42s.109 5.466.25 5.466c.14 0 .25-2.428.25-5.466s-.11-5.42-.25-5.42"/><path fill="#000" d="M292.336 405.201a165 165 0 0 1-55.82 0z" opacity=".3"/><path fill="#263238" d="M235.539 405.225c0 .133 12.885.249 28.785.249 15.899 0 28.776-.117 28.776-.249 0-.133-12.885-.25-28.776-.25s-28.785.109-28.785.25"/><path fill="url(#N)" d="M341.061 371.419h-57.663v11.628h57.663z"/><path fill="#263238" d="M337.351 371.614c-.14 0-.249 2.53-.249 5.638s.109 5.638.249 5.638.25-2.522.25-5.638-.118-5.638-.25-5.638M331.999 371.614c-.14 0-.249 2.53-.249 5.638s.109 5.638.249 5.638.251-2.522.251-5.638c-.001-3.115-.11-5.638-.251-5.638M326.711 371.614c-.133 0-.25 2.53-.25 5.638s.117 5.638.25 5.638.25-2.522.25-5.638-.11-5.638-.25-5.638M321.453 371.614c-.133 0-.25 2.53-.25 5.638s.117 5.638.25 5.638.251-2.522.251-5.638c-.001-3.115-.11-5.638-.251-5.638M316.203 371.614c-.133 0-.25 2.53-.25 5.638s.117 5.638.25 5.638.25-2.522.25-5.638c-.001-3.115-.11-5.638-.25-5.638M310.945 371.614c-.133 0-.25 2.53-.25 5.638s.118 5.638.25 5.638c.133 0 .249-2.522.249-5.638.001-3.115-.108-5.638-.249-5.638M305.71 371.614c-.14 0-.249 2.53-.249 5.638s.109 5.638.249 5.638.251-2.522.251-5.638-.133-5.638-.251-5.638M300.437 371.614c-.14 0-.249 2.53-.249 5.638s.109 5.638.249 5.638.25-2.522.25-5.638c-.001-3.115-.11-5.638-.25-5.638M295.179 371.614c-.14 0-.249 2.53-.249 5.638s.109 5.638.249 5.638.25-2.522.25-5.638-.11-5.638-.25-5.638M289.922 371.614c-.141 0-.25 2.53-.25 5.638s.109 5.638.25 5.638c.14 0 .25-2.522.25-5.638s-.078-5.638-.25-5.638M284.664 371.614c-.141 0-.25 2.53-.25 5.638s.109 5.638.25 5.638.251-2.522.251-5.638-.11-5.638-.251-5.638"/><path fill="url(#O)" d="M334.303 382.961h-57.662v11.183h57.662z"/><path fill="#263238" d="M330.594 383.156c-.14 0-.25 2.42-.25 5.42 0 2.998.109 5.419.25 5.419s.249-2.428.249-5.419c0-2.992-.14-5.42-.249-5.42M325.235 383.156c-.141 0-.251 2.42-.251 5.42 0 2.998.11 5.419.251 5.419.14 0 .25-2.428.25-5.419 0-2.992-.102-5.42-.25-5.42M319.961 383.156c-.133 0-.25 2.42-.25 5.42 0 2.998.117 5.419.25 5.419s.25-2.428.25-5.419c0-2.992-.11-5.42-.25-5.42M314.703 383.156c-.133 0-.25 2.42-.25 5.42 0 2.998.117 5.419.25 5.419s.25-2.428.25-5.419c0-2.992-.109-5.42-.25-5.42M309.445 383.156c-.133 0-.25 2.42-.25 5.42 0 2.998.118 5.419.25 5.419s.25-2.428.25-5.419c0-2.992-.078-5.42-.25-5.42M304.188 383.156c-.14 0-.25 2.42-.25 5.42 0 2.998.109 5.419.25 5.419.14 0 .249-2.428.249-5.419 0-2.992-.108-5.42-.249-5.42M298.938 383.156c-.14 0-.25 2.42-.25 5.42 0 2.998.109 5.419.25 5.419s.25-2.428.25-5.419c0-2.992-.109-5.42-.25-5.42M293.679 383.156c-.14 0-.249 2.42-.249 5.42 0 2.998.109 5.419.249 5.419s.25-2.428.25-5.419c0-2.992-.11-5.42-.25-5.42M288.422 383.156c-.141 0-.25 2.42-.25 5.42 0 2.998.109 5.419.25 5.419.14 0 .25-2.428.25-5.419 0-2.992-.141-5.42-.25-5.42M283.172 383.156c-.14 0-.25 2.42-.25 5.42 0 2.998.109 5.419.25 5.419.14 0 .25-2.428.25-5.419 0-2.992-.109-5.42-.25-5.42M277.914 383.156c-.141 0-.25 2.42-.25 5.42 0 2.998.109 5.419.25 5.419.14 0 .249-2.428.249-5.419 0-2.992-.108-5.42-.249-5.42"/><path fill="#000" d="M333.374 382.977a165 165 0 0 1-55.819 0z" opacity=".3"/><path fill="#263238" d="M276.617 383c0 .14 12.885.249 28.785.249 15.899 0 28.776-.109 28.776-.249s-12.846-.243-28.776-.243-28.785.102-28.785.243"/><path fill="url(#P)" d="M338.006 394.151h-57.662v11.182h57.662z"/><path fill="#263238" d="M334.297 394.339c-.133 0-.25 2.428-.25 5.427s.117 5.42.25 5.42.258-2.428.258-5.42-.118-5.427-.258-5.427M328.953 394.339c-.141 0-.25 2.428-.25 5.427s.109 5.42.25 5.42.25-2.428.25-5.42-.117-5.427-.25-5.427M323.672 394.339c-.141 0-.25 2.428-.25 5.427s.109 5.42.25 5.42c.14 0 .25-2.428.25-5.42s-.117-5.427-.25-5.427M318.414 394.339c-.141 0-.25 2.428-.25 5.427s.109 5.42.25 5.42.25-2.428.25-5.42-.109-5.427-.25-5.427M313.157 394.339c-.141 0-.251 2.428-.251 5.427s.11 5.42.251 5.42.25-2.428.25-5.42-.109-5.427-.25-5.427M307.898 394.339c-.14 0-.25 2.428-.25 5.427s.11 5.42.25 5.42.249-2.428.249-5.42-.093-5.427-.249-5.427M302.641 394.339c-.14 0-.25 2.428-.25 5.427s.109 5.42.25 5.42c.14 0 .249-2.428.249-5.42s-.108-5.427-.249-5.427M297.391 394.339c-.141 0-.25 2.428-.25 5.427s.109 5.42.25 5.42c.14 0 .249-2.428.249-5.42s-.108-5.427-.249-5.427M292.133 394.339c-.14 0-.25 2.428-.25 5.427s.109 5.42.25 5.42.25-2.428.25-5.42-.109-5.427-.25-5.427M286.875 394.339c-.14 0-.25 2.428-.25 5.427s.109 5.42.25 5.42c.14 0 .25-2.428.25-5.42s-.11-5.427-.25-5.427M281.625 394.339c-.141 0-.25 2.428-.25 5.427s.109 5.42.25 5.42c.14 0 .25-2.428.25-5.42s-.117-5.427-.25-5.427"/><path fill="#000" d="M337.077 394.167a146 146 0 0 1-55.811 0z" opacity=".3"/><path fill="#263238" d="M280.328 394.19c0 .141 12.885.25 28.777.25 15.891 0 28.784-.109 28.784-.25 0-.14-12.885-.25-28.784-.25-15.9 0-28.777.11-28.777.25"/><path fill="url(#Q)" d="M334.709 405.185h-57.662v11.183h57.662z"/><path fill="#263238" d="M331.007 405.404c-.14 0-.249 2.428-.249 5.42s.109 5.466.249 5.466.251-2.428.251-5.466-.118-5.42-.251-5.42M325.657 405.404c-.141 0-.251 2.428-.251 5.42s.11 5.466.251 5.466c.14 0 .25-2.428.25-5.466s-.11-5.42-.25-5.42M320.367 405.404c-.133 0-.25 2.428-.25 5.42s.117 5.466.25 5.466.25-2.428.25-5.466-.07-5.42-.25-5.42M315.086 405.404c-.141 0-.25 2.428-.25 5.42s.109 5.466.25 5.466c.14 0 .25-2.428.25-5.466s-.078-5.42-.25-5.42M309.859 405.404c-.14 0-.25 2.428-.25 5.42s.11 5.466.25 5.466.25-2.428.25-5.466-.11-5.42-.25-5.42M304.602 405.404c-.141 0-.25 2.428-.25 5.42s.109 5.466.25 5.466c.14 0 .249-2.428.249-5.466s-.109-5.42-.249-5.42M299.351 405.404c-.14 0-.249 2.428-.249 5.42s.109 5.466.249 5.466.25-2.428.25-5.466-.133-5.42-.25-5.42M294.094 405.404c-.14 0-.25 2.428-.25 5.42s.109 5.466.25 5.466c.14 0 .249-2.428.249-5.466s-.108-5.42-.249-5.42M288.835 405.404c-.14 0-.249 2.428-.249 5.42s.109 5.466.249 5.466.251-2.428.251-5.466-.11-5.42-.251-5.42M283.586 405.404c-.141 0-.25 2.428-.25 5.42s.109 5.466.25 5.466c.14 0 .25-2.428.25-5.466s-.11-5.42-.25-5.42M278.328 405.404c-.141 0-.25 2.428-.25 5.42s.109 5.466.25 5.466c.14 0 .25-2.428.25-5.466s-.11-5.42-.25-5.42"/><path fill="#000" d="M333.827 405.201a165 165 0 0 1-55.819 0z" opacity=".3"/><path fill="#263238" d="M277.031 405.225c0 .133 12.885.249 28.785.249 15.899 0 28.776-.117 28.776-.249 0-.133-12.885-.25-28.776-.25s-28.785.109-28.785.25"/><g fill="#000" opacity=".3"><path d="M283.396 371.419v11.542h-6.755v11.182h57.662v-11.096h6.755v-11.628zM280.342 405.185h-3.295v11.183h57.662v-11.034h3.296v-11.183h-57.663z"/></g><path fill="url(#R)" d="M382.869 336.991h-55.713v11.234h55.713z"/><path fill="#263238" d="M379.288 337.179c-.128 0-.241 2.445-.241 5.448s.113 5.447.241 5.447c.129 0 .242-2.437.242-5.447s-.105-5.448-.242-5.448M374.124 337.179c-.136 0-.241 2.445-.241 5.448s.105 5.447.241 5.447c.137 0 .242-2.437.242-5.447s-.113-5.448-.242-5.448M369.023 337.179c-.136 0-.242 2.445-.242 5.448s.106 5.447.242 5.447c.135 0 .241-2.437.241-5.447s-.106-5.448-.241-5.448M363.945 337.179c-.136 0-.242 2.445-.242 5.448s.106 5.447.242 5.447.241-2.437.241-5.447-.098-5.448-.241-5.448M358.867 337.179c-.137 0-.242 2.445-.242 5.448s.105 5.447.242 5.447c.135 0 .241-2.437.241-5.447s-.105-5.448-.241-5.448M353.788 337.179c-.136 0-.241 2.445-.241 5.448s.105 5.447.241 5.447c.137 0 .242-2.437.242-5.447s-.106-5.448-.242-5.448M348.71 337.179c-.135 0-.241 2.445-.241 5.448s.106 5.447.241 5.447c.137 0 .242-2.437.242-5.447s-.105-5.448-.242-5.448M343.632 337.179c-.136 0-.241 2.445-.241 5.448s.105 5.447.241 5.447.242-2.437.242-5.447-.106-5.448-.242-5.448M338.554 337.179c-.136 0-.242 2.445-.242 5.448s.106 5.447.242 5.447c.135 0 .242-2.437.242-5.447s-.107-5.448-.242-5.448M333.476 337.179c-.136 0-.242 2.445-.242 5.448s.106 5.447.242 5.447c.135 0 .242-2.437.242-5.447s-.106-5.448-.242-5.448M328.398 337.179c-.136 0-.242 2.445-.242 5.448s.106 5.447.242 5.447.241-2.437.241-5.447-.113-5.448-.241-5.448"/><path fill="url(#S)" d="M382.647 348.437h-57.663v11.628h57.663z"/><path fill="#263238" d="M378.937 348.632c-.133 0-.249 2.53-.249 5.638s.117 5.638.249 5.638c.133 0 .25-2.522.25-5.638s-.109-5.638-.25-5.638M373.594 348.632c-.14 0-.25 2.53-.25 5.638s.109 5.638.25 5.638.25-2.522.25-5.638c-.001-3.116-.117-5.638-.25-5.638M368.305 348.632c-.14 0-.25 2.53-.25 5.638s.109 5.638.25 5.638.25-2.522.25-5.638c-.001-3.116-.11-5.638-.25-5.638M363.054 348.632c-.14 0-.249 2.53-.249 5.638s.109 5.638.249 5.638.25-2.522.25-5.638-.102-5.638-.25-5.638M357.797 348.632c-.14 0-.25 2.53-.25 5.638s.109 5.638.25 5.638c.14 0 .25-2.522.25-5.638s-.109-5.638-.25-5.638M352.539 348.632c-.14 0-.25 2.53-.25 5.638s.109 5.638.25 5.638.25-2.522.25-5.638-.109-5.638-.25-5.638M347.289 348.632c-.141 0-.25 2.53-.25 5.638s.109 5.638.25 5.638.25-2.522.25-5.638c-.001-3.116-.11-5.638-.25-5.638M342.032 348.632c-.141 0-.251 2.53-.251 5.638s.11 5.638.251 5.638c.14 0 .249-2.522.249-5.638s-.109-5.638-.249-5.638M336.774 348.632c-.14 0-.251 2.53-.251 5.638s.11 5.638.251 5.638c.14 0 .25-2.522.25-5.638s-.109-5.638-.25-5.638M331.516 348.632c-.14 0-.25 2.53-.25 5.638s.109 5.638.25 5.638c.14 0 .249-2.522.249-5.638.001-3.116-.108-5.638-.249-5.638M326.266 348.632c-.141 0-.25 2.53-.25 5.638s.109 5.638.25 5.638c.14 0 .249-2.522.249-5.638s-.117-5.638-.249-5.638"/><path fill="#000" d="M381.718 348.452a210.4 210.4 0 0 1-55.812 0z" opacity=".3"/><path fill="#263238" d="M324.938 348.476c0 .141 12.885.25 28.776.25s28.784-.109 28.784-.25c0-.14-12.885-.25-28.784-.25s-28.776.109-28.776.25"/><path fill="url(#T)" d="M380.775 314h-55.713v11.235h55.713z"/><path fill="#263238" d="M377.187 314.189c-.128 0-.242 2.445-.242 5.448s.114 5.447.242 5.447.241-2.437.241-5.447-.105-5.448-.241-5.448M372.031 314.189c-.136 0-.242 2.445-.242 5.448s.105 5.447.242 5.447c.136 0 .241-2.437.241-5.447s-.113-5.448-.241-5.448M366.921 314.189c-.136 0-.241 2.445-.241 5.448s.105 5.447.241 5.447.242-2.437.242-5.447-.106-5.448-.242-5.448M361.843 314.189c-.135 0-.241 2.445-.241 5.448s.105 5.447.241 5.447.242-2.437.242-5.447-.099-5.448-.242-5.448M356.765 314.189c-.136 0-.242 2.445-.242 5.448s.106 5.447.242 5.447c.135 0 .242-2.437.242-5.447s-.107-5.448-.242-5.448M351.687 314.189c-.136 0-.242 2.445-.242 5.448s.106 5.447.242 5.447c.135 0 .241-2.437.241-5.447s-.106-5.448-.241-5.448M346.609 314.189c-.136 0-.242 2.445-.242 5.448s.106 5.447.242 5.447.241-2.437.241-5.447-.105-5.448-.241-5.448M341.531 314.189c-.136 0-.242 2.445-.242 5.448s.105 5.447.242 5.447c.136 0 .241-2.437.241-5.447s-.106-5.448-.241-5.448M336.453 314.189c-.137 0-.242 2.445-.242 5.448s.105 5.447.242 5.447c.136 0 .241-2.437.241-5.447s-.105-5.448-.241-5.448M331.374 314.189c-.136 0-.241 2.445-.241 5.448s.105 5.447.241 5.447.242-2.437.242-5.447-.105-5.448-.242-5.448M326.296 314.189c-.136 0-.241 2.445-.241 5.448s.105 5.447.241 5.447.242-2.437.242-5.447-.113-5.448-.242-5.448"/><path fill="url(#U)" d="M380.545 325.446h-57.662v11.628h57.662z"/><path fill="#263238" d="M376.835 325.641c-.133 0-.249 2.53-.249 5.638s.117 5.638.249 5.638c.133 0 .251-2.522.251-5.638s-.11-5.638-.251-5.638M371.5 325.641c-.14 0-.25 2.53-.25 5.638s.109 5.638.25 5.638c.14 0 .25-2.522.25-5.638s-.117-5.638-.25-5.638M366.211 325.641c-.141 0-.25 2.53-.25 5.638s.109 5.638.25 5.638c.14 0 .25-2.522.25-5.638s-.11-5.638-.25-5.638M360.953 325.641c-.141 0-.25 2.53-.25 5.638s.109 5.638.25 5.638.25-2.522.25-5.638c-.001-3.116-.102-5.638-.25-5.638M355.703 325.641c-.14 0-.25 2.53-.25 5.638s.109 5.638.25 5.638.251-2.522.251-5.638-.11-5.638-.251-5.638M350.446 325.641c-.141 0-.251 2.53-.251 5.638s.11 5.638.251 5.638c.14 0 .249-2.522.249-5.638.001-3.116-.108-5.638-.249-5.638M345.188 325.641c-.141 0-.25 2.53-.25 5.638s.109 5.638.25 5.638.25-2.522.25-5.638-.109-5.638-.25-5.638M339.93 325.641c-.141 0-.25 2.53-.25 5.638s.109 5.638.25 5.638c.14 0 .249-2.522.249-5.638s-.109-5.638-.249-5.638M334.679 325.641c-.14 0-.249 2.53-.249 5.638s.109 5.638.249 5.638.25-2.522.25-5.638-.11-5.638-.25-5.638M329.422 325.641c-.14 0-.25 2.53-.25 5.638s.109 5.638.25 5.638c.14 0 .25-2.522.25-5.638s-.109-5.638-.25-5.638M324.164 325.641c-.141 0-.25 2.53-.25 5.638s.109 5.638.25 5.638.25-2.522.25-5.638c.001-3.116-.117-5.638-.25-5.638"/><path fill="#000" d="M379.617 325.462a210.4 210.4 0 0 1-55.812 0zM383.211 337.045a210.4 210.4 0 0 1-55.813 0z" opacity=".3"/><path fill="#263238" d="M322.836 325.485c0 .141 12.885.25 28.776.25s28.785-.109 28.785-.25c0-.14-12.885-.25-28.785-.25-15.899 0-28.776.109-28.776.25M327.211 337.044c0 .141 12.536.25 27.996.25s28.003-.109 28.003-.25c0-.14-12.536-.249-28.003-.249s-27.996.109-27.996.249"/><path fill="url(#V)" d="M381.35 359.87h-57.662v11.628h57.662z"/><path fill="#263238" d="M377.649 360.072c-.141 0-.251 2.523-.251 5.631s.11 5.638.251 5.638c.14 0 .249-2.523.249-5.638.001-3.116-.116-5.631-.249-5.631M372.296 360.072c-.14 0-.249 2.523-.249 5.631s.109 5.638.249 5.638.251-2.523.251-5.638c0-3.116-.11-5.631-.251-5.631M367.008 360.072c-.133 0-.25 2.523-.25 5.631s.117 5.638.25 5.638.25-2.523.25-5.638c0-3.116-.109-5.631-.25-5.631M361.758 360.072c-.141 0-.25 2.523-.25 5.631s.109 5.638.25 5.638c.14 0 .25-2.523.25-5.638 0-3.116-.109-5.631-.25-5.631M356.5 360.072c-.141 0-.25 2.523-.25 5.631s.109 5.638.25 5.638c.14 0 .25-2.523.25-5.638 0-3.116-.11-5.631-.25-5.631M351.242 360.072c-.14 0-.25 2.523-.25 5.631s.109 5.638.25 5.638.251-2.523.251-5.638c-.001-3.116-.11-5.631-.251-5.631M346.023 360.072c-.14 0-.25 2.523-.25 5.631s.11 5.638.25 5.638.25-2.523.25-5.638c0-3.116-.141-5.631-.25-5.631M340.734 360.072c-.14 0-.25 2.523-.25 5.631s.11 5.638.25 5.638.25-2.523.25-5.638c0-3.116-.109-5.631-.25-5.631M335.476 360.072c-.14 0-.249 2.523-.249 5.631s.109 5.638.249 5.638.25-2.523.25-5.638c0-3.116-.109-5.631-.25-5.631M330.226 360.072c-.14 0-.249 2.523-.249 5.631s.109 5.638.249 5.638.25-2.523.25-5.638c0-3.116-.07-5.631-.25-5.631M324.937 360.072c-.14 0-.249 2.523-.249 5.631s.109 5.638.249 5.638.25-2.523.25-5.638c0-3.116-.078-5.631-.25-5.631"/><path fill="#000" d="M380.429 359.885a210.4 210.4 0 0 1-55.82 0z" opacity=".3"/><path fill="#263238" d="M323.672 359.908c0 .141 12.885.251 28.784.251 15.9 0 28.777-.11 28.777-.251 0-.14-12.877-.249-28.777-.249-15.899 0-28.784.156-28.784.249"/><path fill="url(#W)" d="M386.834 371.122h-57.662v11.628h57.662z"/><path fill="#263238" d="M383.124 371.317c-.14 0-.249 2.53-.249 5.638s.109 5.638.249 5.638.251-2.522.251-5.638-.117-5.638-.251-5.638M377.774 371.317c-.14 0-.251 2.53-.251 5.638s.11 5.638.251 5.638.25-2.522.25-5.638-.109-5.638-.25-5.638M372.485 371.317c-.133 0-.251 2.53-.251 5.638s.118 5.638.251 5.638.25-2.522.25-5.638c-.001-3.115-.11-5.638-.25-5.638M367.227 371.317c-.133 0-.25 2.53-.25 5.638s.117 5.638.25 5.638.25-2.522.25-5.638-.109-5.638-.25-5.638M361.976 371.317c-.132 0-.249 2.53-.249 5.638s.117 5.638.249 5.638c.133 0 .25-2.522.25-5.638s-.109-5.638-.25-5.638M356.718 371.317c-.133 0-.249 2.53-.249 5.638s.117 5.638.249 5.638.25-2.522.25-5.638-.109-5.638-.25-5.638M351.484 371.317c-.14 0-.25 2.53-.25 5.638s.11 5.638.25 5.638.25-2.522.25-5.638-.133-5.638-.25-5.638M346.21 371.317c-.14 0-.249 2.53-.249 5.638s.109 5.638.249 5.638.251-2.522.251-5.638-.11-5.638-.251-5.638M340.953 371.317c-.141 0-.25 2.53-.25 5.638s.109 5.638.25 5.638c.14 0 .25-2.522.25-5.638s-.109-5.638-.25-5.638M335.696 371.317c-.141 0-.251 2.53-.251 5.638s.11 5.638.251 5.638c.14 0 .25-2.522.25-5.638s-.079-5.638-.25-5.638M330.446 371.317c-.141 0-.251 2.53-.251 5.638s.11 5.638.251 5.638c.14 0 .249-2.522.249-5.638s-.109-5.638-.249-5.638"/><path fill="#000" d="M385.905 371.138a210.4 210.4 0 0 1-55.819 0z" opacity=".3"/><path fill="#263238" d="M329.148 371.161c0 .14 12.885.25 28.785.25 15.899 0 28.776-.109 28.776-.25 0-.14-12.877-.25-28.776-.25-15.9 0-28.785.118-28.785.25"/><path fill="url(#X)" d="M380.076 382.664h-57.662v11.183h57.662z"/><path fill="#263238" d="M376.367 382.859c-.14 0-.25 2.42-.25 5.42 0 2.998.109 5.419.25 5.419s.251-2.428.251-5.419-.141-5.42-.251-5.42M371.007 382.859c-.14 0-.249 2.42-.249 5.42 0 2.998.109 5.419.249 5.419s.251-2.428.251-5.419-.102-5.42-.251-5.42M365.734 382.859c-.132 0-.25 2.42-.25 5.42 0 2.998.118 5.419.25 5.419.133 0 .25-2.428.25-5.419-.001-2.991-.11-5.42-.25-5.42M360.477 382.859c-.133 0-.25 2.42-.25 5.42 0 2.998.117 5.419.25 5.419s.25-2.428.25-5.419-.109-5.42-.25-5.42M355.218 382.859c-.132 0-.249 2.42-.249 5.42 0 2.998.117 5.419.249 5.419.133 0 .251-2.428.251-5.419s-.079-5.42-.251-5.42M349.961 382.859c-.141 0-.25 2.42-.25 5.42 0 2.998.109 5.419.25 5.419.14 0 .25-2.428.25-5.419s-.11-5.42-.25-5.42M344.71 382.859c-.14 0-.249 2.42-.249 5.42 0 2.998.109 5.419.249 5.419s.25-2.428.25-5.419-.109-5.42-.25-5.42M339.453 382.859c-.14 0-.25 2.42-.25 5.42 0 2.998.109 5.419.25 5.419s.251-2.428.251-5.419-.11-5.42-.251-5.42M334.195 382.859c-.14 0-.25 2.42-.25 5.42 0 2.998.11 5.419.25 5.419s.25-2.428.25-5.419-.141-5.42-.25-5.42M328.945 382.859c-.14 0-.25 2.42-.25 5.42 0 2.998.11 5.419.25 5.419s.25-2.428.25-5.419-.109-5.42-.25-5.42M323.687 382.859c-.14 0-.249 2.42-.249 5.42 0 2.998.109 5.419.249 5.419s.25-2.428.25-5.419c-.001-2.991-.11-5.42-.25-5.42"/><path fill="#000" d="M379.147 382.68a165 165 0 0 1-55.819 0z" opacity=".3"/><path fill="#263238" d="M322.391 382.703c0 .14 12.885.249 28.784.249s28.777-.109 28.777-.249-12.847-.243-28.777-.243c-15.93.001-28.784.103-28.784.243"/><path fill="url(#Y)" d="M383.78 393.854h-57.663v11.183h57.663z"/><path fill="#263238" d="M380.071 394.042c-.133 0-.251 2.428-.251 5.427s.118 5.42.251 5.42c.132 0 .257-2.428.257-5.42s-.117-5.427-.257-5.427M374.727 394.042c-.14 0-.25 2.428-.25 5.427s.109 5.42.25 5.42.25-2.428.25-5.42-.118-5.427-.25-5.427M369.446 394.042c-.141 0-.251 2.428-.251 5.427s.11 5.42.251 5.42.25-2.428.25-5.42-.117-5.427-.25-5.427M364.188 394.042c-.14 0-.25 2.428-.25 5.427s.109 5.42.25 5.42.25-2.428.25-5.42-.11-5.427-.25-5.427M358.929 394.042c-.14 0-.249 2.428-.249 5.427s.109 5.42.249 5.42.25-2.428.25-5.42-.11-5.427-.25-5.427M353.672 394.042c-.141 0-.25 2.428-.25 5.427s.109 5.42.25 5.42c.14 0 .25-2.428.25-5.42s-.094-5.427-.25-5.427M348.421 394.042c-.14 0-.249 2.428-.249 5.427s.109 5.42.249 5.42.251-2.428.251-5.42-.11-5.427-.251-5.427M343.164 394.042c-.141 0-.25 2.428-.25 5.427s.109 5.42.25 5.42.25-2.428.25-5.42-.109-5.427-.25-5.427M337.906 394.042c-.14 0-.25 2.428-.25 5.427s.11 5.42.25 5.42.25-2.428.25-5.42-.11-5.427-.25-5.427M332.649 394.042c-.141 0-.251 2.428-.251 5.427s.11 5.42.251 5.42.25-2.428.25-5.42-.109-5.427-.25-5.427M327.398 394.042c-.14 0-.25 2.428-.25 5.427s.11 5.42.25 5.42.25-2.428.25-5.42-.117-5.427-.25-5.427"/><path fill="#000" d="M382.851 393.87a146 146 0 0 1-55.812 0z" opacity=".3"/><path fill="#263238" d="M326.102 393.894c0 .141 12.885.25 28.776.25s28.785-.109 28.785-.25c0-.14-12.885-.25-28.785-.25-15.899 0-28.776.109-28.776.25"/><path fill="url(#Z)" d="M380.483 404.888H322.82v11.183h57.663z"/><path fill="#263238" d="M376.781 405.108c-.14 0-.25 2.428-.25 5.419s.11 5.467.25 5.467.25-2.429.25-5.467c-.001-3.038-.118-5.419-.25-5.419M371.43 405.108c-.14 0-.25 2.428-.25 5.419s.109 5.467.25 5.467c.14 0 .25-2.429.25-5.467-.001-3.038-.11-5.419-.25-5.419M366.149 405.108c-.133 0-.251 2.428-.251 5.419s.118 5.467.251 5.467.249-2.429.249-5.467-.07-5.419-.249-5.419M360.86 405.108c-.141 0-.251 2.428-.251 5.419s.11 5.467.251 5.467c.14 0 .249-2.429.249-5.467.001-3.038-.078-5.419-.249-5.419M355.633 405.108c-.141 0-.25 2.428-.25 5.419s.109 5.467.25 5.467c.14 0 .25-2.429.25-5.467s-.11-5.419-.25-5.419M350.375 405.108c-.14 0-.25 2.428-.25 5.419s.109 5.467.25 5.467c.14 0 .251-2.429.251-5.467s-.11-5.419-.251-5.419M345.124 405.108c-.14 0-.249 2.428-.249 5.419s.109 5.467.249 5.467.251-2.429.251-5.467-.133-5.419-.251-5.419M339.867 405.108c-.141 0-.25 2.428-.25 5.419s.109 5.467.25 5.467.25-2.429.25-5.467-.109-5.419-.25-5.419M334.609 405.108c-.14 0-.25 2.428-.25 5.419s.11 5.467.25 5.467.249-2.429.249-5.467-.109-5.419-.249-5.419M329.36 405.108c-.141 0-.251 2.428-.251 5.419s.11 5.467.251 5.467c.14 0 .25-2.429.25-5.467s-.109-5.419-.25-5.419M324.101 405.108c-.14 0-.249 2.428-.249 5.419s.109 5.467.249 5.467.25-2.429.25-5.467-.109-5.419-.25-5.419"/><path fill="#000" d="M379.601 404.904a165 165 0 0 1-55.82 0z" opacity=".3"/><path fill="#263238" d="M322.805 404.928c0 .133 12.885.25 28.784.25 15.9 0 28.777-.117 28.777-.25s-12.885-.25-28.777-.25c-15.891 0-28.784.109-28.784.25"/><path fill="#263238" d="M380.484 416.041v-2.929c0-1.922-.039-4.686-.062-8.098v-.126h3.303l-.133.141v-11.19l.172.172h-3.905v-11.464h6.943l-.188.188v-11.847l.172.18h-5.638v-11.152h1.562l-.125.133v-11.393a1 1 0 0 1 0-.202.8.8 0 0 1 0 .202v.594c0 .546 0 1.304.054 2.28 0 2.023.087 4.912.149 8.511v.133h-1.562l.133-.133c0 3.124 0 6.794.039 10.84l-.172-.164h5.647v12.214h-6.95l.195-.188v11.097l-.18-.18h3.904v11.503h-3.319l.125-.125c0 3.428-.039 6.177-.054 8.098v2.741a.6.6 0 0 1-.11.164"/><path fill="#FFBF9D" d="M61.882 281.644s-2.32-5.483-2.583-6.797.488-6.158.413-7.387c-.073-1.228 6.707-15.21 6.707-15.21 1.496-2.061 6.333.611 6.333.611s-.96 5.45-1.016 8.3c-.054 2.849-1.165 4.686-.646 7.082.518 2.396.683 4.692-.684 4.818s-2.212-.652-2.54-2.964c-.329-2.31.034-3.628-.57-4.184s-2.39 1.774-2.712 2.996c-.321 1.221-.987 5.876-.987 5.876s2.75 3.512 2.795 4.045c.046.532-.55 1.859-2.723.485 0 0 1.714 2.649.788 3.315s-2.193-.189-2.575-.986"/><path fill="#263238" d="m123.106 388.048-1.036 18.913s18.876 7.405 19.024 10.919l-36.742-.692.405-29.534z"/><path fill="#455A64" d="m104.352 417.185.038-2.86 35.288 1.662s1.622.743 1.416 1.891z"/><path fill="#fff" d="M122.745 406.785c-.009.18-.908.244-1.801.804-.909.537-1.379 1.305-1.542 1.232-.164-.038.124-1.106 1.217-1.765 1.087-.67 2.168-.435 2.126-.271M126.551 408.452c.038.175-.745.465-1.368 1.212-.646.73-.815 1.547-.994 1.535-.169.025-.273-1.028.52-1.943.785-.92 1.842-.976 1.842-.804M128.585 413.106c-.163.035-.396-.867.083-1.84.472-.978 1.326-1.349 1.399-1.199.099.15-.456.667-.838 1.472-.4.796-.465 1.552-.644 1.567"/><path fill="#263238" d="m53.443 385.745-6.175 22.069-9.917 16.045a2.348 2.348 0 0 0 3.051 3.333c4.322-2.189 20.184-10.322 20.545-11.963.418-1.899 8.058-22.845 8.058-22.845z"/><path fill="#455A64" d="m38.227 427.17 23.145-13.42-.282.929a3.53 3.53 0 0 1-1.47 1.947c-1.89 1.211-7.183 4.444-19.177 10.586a2.34 2.34 0 0 1-2.216-.042"/><path fill="#fff" d="M46.162 419.118c-.143.024-.287-1.275-1.402-2.29-1.085-1.048-2.39-1.107-2.377-1.251-.003-.059.326-.146.861-.061.532.08 1.252.378 1.86.946.606.57.95 1.268 1.064 1.794.118.527.053.861-.006.862M43.643 421.579c-.134.063-.62-.864-1.656-1.534-1.02-.693-2.063-.781-2.057-.927-.029-.132 1.168-.275 2.335.509 1.176.769 1.51 1.928 1.377 1.952M50.212 416.242c-.135.073-.876-1.357-2.394-2.54-1.5-1.208-3.06-1.601-3.02-1.749 0-.128 1.72.065 3.333 1.354 1.624 1.274 2.205 2.906 2.08 2.935M52.682 409.69c-.099.114-1.155-.761-2.714-1.298-1.551-.559-2.923-.539-2.929-.69-.027-.126 1.428-.382 3.097.215 1.672.581 2.646 1.693 2.546 1.773M54.661 404.537c-.107.106-1.101-.996-2.788-1.427-1.679-.468-3.09-.01-3.13-.155-.022-.057.301-.259.896-.398.59-.14 1.457-.174 2.363.067.905.244 1.64.706 2.081 1.122.446.416.626.753.578.791"/><path fill="#263238" d="M135.42 224.31c.564.576 12.222 27.265 11.631 41.402s-9.113 63.343-9.113 63.343l-13.622 76.12h-19.782s0-48.662 1.772-61.983c1.771-13.322 3.838-20.662 4.429-30.448.59-9.787.758-30.37 1.349-29.555.59.815-45.638 119.268-45.638 119.268L47 401.169s7.046-40.656 8.522-48.366c1.476-7.709 7.382-31.36 11.81-43.322s8.6-40.849 12.105-54.632c3.546-13.942 7.384-25.226 7.384-25.226zM67.317 121.274c-.377-1.317.115-2.84 1.193-3.685s2.674-.961 3.864-.281c-.61-1.95 1.904-3.696 3.89-3.212 1.984.483 3.347 2.251 4.547 3.905l1.774-.273c2.082-.844 4.637-.354 6.26 1.199 1.622 1.553 2.222 4.085 1.47 6.201 2.058 1.137 3.239 3.671 2.787 5.978s-2.503 4.207-4.837 4.482c1.766 2.604 1.343 6.465-.947 8.625-2.288 2.159-6.167 2.358-8.665.445-1.647 1.239-4.027 1.411-5.835.422s-2.947-3.088-2.79-5.143c-2.176.017-4.314-1.265-5.324-3.194s-.845-4.416.41-6.195c-2.195-.789-3.584-3.353-3.044-5.622.538-2.271 2.931-3.935 5.247-3.652"/><path fill="#263238" d="M78.358 131.958c-2.204-1.617-1.226-6.482.115-8.864-1.4-.992-1.805-2.467-1.131-4.045.674-1.579.514-1.85 1.81-2.975-.272-4.013 3.197-7.895 7.215-8.075 1.124-3.442 5.161-5.1 8.782-5.094.885.002 1.788.073 2.637-.176.623-.183 1.183-.53 1.776-.792 3.264-1.44 7.329-.025 9.569 2.753.358.443 2.319 1.346 2.781 1.682.605.441 1.28.509 1.83 1.018 1.897 1.754.862 3.07 1.377 4.605.437 1.303.889 1.048 1.791 2.085.453.52 1.096.86 1.494 1.422 1.153 1.631-.32 4.065.597 5.839.188.363.464.67.679 1.015.441.707.612 1.578.474 2.399-.107.635-.392 1.269-.25 1.896.107.476.444.862.672 1.294.554 1.057-.615 6.091-1.41 6.982l-28.931 8.657c-2.326.188-4.689-1.284-5.545-3.453-.143-.361-.266-.762-.58-.989-.267-.193-.617-.216-.94-.285-2.159-.463-3.126-2.962-3.54-5.13-.06-.303-.115-.615-.274-.881-.228-.385-.636-.622-.998-.888"/><path fill="#455A64" d="M94.341 103.141s-.985-.151-2.714.221c-.851.205-1.898.561-2.918 1.306-1.025.728-1.957 1.91-2.464 3.411l.158-.121c-1.729.071-3.605.863-5.056 2.325-1.443 1.438-2.513 3.587-2.376 5.94l.077-.185c-.406.36-.843.743-1.136 1.277-.284.53-.43 1.061-.654 1.575-.232.515-.423 1.124-.422 1.743 0 .621.183 1.256.544 1.776a4 4 0 0 0 1.002 1.009l-.068-.302a12.4 12.4 0 0 0-1.44 5.452c-.008.917.116 1.851.543 2.671.198.417.526.76.88 1.045.351.252.695.463.89.757.198.285.24.681.33 1.082q.123.597.3 1.165c.234.757.538 1.475.956 2.104.405.634.96 1.16 1.595 1.486.323.15.663.258.992.314.322.052.607.109.788.29.187.182.293.458.4.73.114.276.238.548.386.792.292.494.645.906 1.012 1.248a5.8 5.8 0 0 0 2.196 1.28c.67.204 1.217.253 1.582.243.182.006.321-.02.415-.027q.14-.016.139-.028c.005-.062-.785.091-2.08-.353a5.8 5.8 0 0 1-2.08-1.296 5.4 5.4 0 0 1-.935-1.209 5.6 5.6 0 0 1-.351-.758c-.105-.271-.205-.587-.46-.849-.267-.27-.647-.335-.954-.393a3.6 3.6 0 0 1-.893-.296 3.9 3.9 0 0 1-1.439-1.38c-.383-.593-.67-1.282-.888-2.014a12 12 0 0 1-.281-1.132c-.086-.374-.114-.821-.38-1.232-.27-.4-.663-.629-.989-.871-.297-.248-.574-.531-.746-.901-.37-.719-.491-1.589-.479-2.461.051-1.749.52-3.589 1.393-5.231l.098-.184-.166-.118a3.5 3.5 0 0 1-.885-.89c-.642-.914-.568-2.097-.082-3.085.225-.527.386-1.083.627-1.53.24-.447.638-.806 1.032-1.158l.084-.075-.006-.11c-.138-2.193.855-4.24 2.219-5.62 1.37-1.405 3.144-2.174 4.78-2.264l.122-.007.037-.114c.466-1.439 1.329-2.575 2.299-3.295.963-.737 1.97-1.111 2.797-1.341 1.683-.424 2.675-.35 2.67-.412"/><path fill="#FFBF9D" d="M86.3 129.635c-1.533-5.121.03-11.94 4.434-15.893 2.775-2.493 5.286-3.209 6.925-3.883 3.67-1.51 7.26-.491 7.26-.491 1.709-.075 9.092 3.651 11.038 9.399 2.161 6.386 4.548 14.268 5.086 19.323 1.081 10.165-6.055 13.42-6.055 13.42l2.45 6.63-7.219 8.609-9.77-7.414z"/><path fill="#263238" d="M116.183 128.152c.201.654-.186 1.364-.865 1.586-.678.223-1.391-.125-1.593-.779s.186-1.364.863-1.586c.68-.223 1.394.125 1.595.779M114.7 123.055c-.111.205-1.247-.241-2.592.126-1.348.347-2.148 1.305-2.339 1.179-.091-.053-.012-.39.333-.82.339-.425.979-.923 1.818-1.146.839-.221 1.627-.103 2.117.104.5.205.719.462.663.557M109.684 135.799c-.027-.075.771-.444 2.079-.983.334-.128.641-.285.635-.534.014-.27-.229-.601-.504-.956q-.82-1.116-1.721-2.342c-2.415-3.343-4.262-6.129-4.127-6.226.135-.096 2.203 2.536 4.618 5.88q.881 1.238 1.683 2.369c.235.355.578.738.542 1.3-.024.282-.226.535-.43.655-.202.126-.394.182-.561.238-1.343.441-2.188.675-2.214.599"/><path fill="#FF9A6C" d="M114.962 151.511s-6.506 2.147-14.056-.005c0 0 5.374 5.904 14.884 2.361z"/><path fill="#263238" d="M112.714 117.497c-.202.36-1.285.231-2.518.448-1.238.178-2.23.638-2.531.357-.135-.138-.03-.481.369-.86.393-.378 1.098-.76 1.947-.896.849-.135 1.634.009 2.121.247.495.237.698.53.612.704M102.823 132.21c.179.66.886 1.053 1.579.878.692-.175 1.108-.85.928-1.51-.179-.661-.886-1.053-1.578-.878-.691.174-1.108.85-.929 1.51M97.263 129.193c.217.082.782-.999 2.036-1.606 1.244-.624 2.478-.426 2.539-.646.034-.1-.247-.303-.788-.399-.536-.099-1.346-.054-2.125.329-.778.385-1.294.991-1.53 1.469-.24.482-.236.82-.132.853M94.73 122.437c.355.22 1.286-.411 2.516-.808 1.217-.437 2.342-.505 2.485-.895.058-.186-.2-.438-.746-.583-.538-.145-1.364-.145-2.205.141-.84.287-1.49.789-1.824 1.231-.34.446-.387.802-.226.914"/><path fill="#FFBF9D" d="M91.56 138.239c-.196-.725-2.714-2.059-3.46-1.977-1.996.217-5.404 1.302-4.125 6.172 1.749 6.657 10.426 2.801 10.387 2.607-.03-.152-2.118-4.297-2.801-6.802"/><path fill="#FF9A6C" d="M89.893 143.788c-.035-.013-.094.112-.267.253a1.2 1.2 0 0 1-.863.246c-.771-.073-1.657-1.035-2.004-2.226a3.95 3.95 0 0 1-.111-1.747c.076-.54.3-.963.639-1.119a.61.61 0 0 1 .768.138c.14.163.13.307.17.309.023.012.113-.149-.012-.41a.77.77 0 0 0-.372-.349.9.9 0 0 0-.686-.001c-.504.171-.842.765-.94 1.352a4.06 4.06 0 0 0 .085 1.961c.394 1.33 1.411 2.404 2.447 2.431.5-.001.853-.245 1.014-.455.163-.218.158-.377.132-.383"/><path fill="#263238" d="M117.408 118.404c-1.569-.476-2.734-1.386-3.079-2.99-.819.506-2.032-.396-2.759-1.025-.728-.631-1.469-.847-1.681-1.786-.041-.185-.082-.382-.211-.521-.204-.219-.542-.216-.84-.227-1.537-.06-3.014-.961-3.768-2.3a9.76 9.76 0 0 1-4.35 1.983 3.8 3.8 0 0 1-2.7 2.394 3.8 3.8 0 0 1-3.462-1.013c-.177.94-.896 1.707-1.73 2.176-.832.469-1.781.685-2.715.895.881 1.678.262 3.985-1.341 4.994-.217.137-.471.281-.52.533-.05.261.147.497.303.713.99 1.363.501 3.551-.976 4.362 1.315.549 1.73 2.528.746 3.559-.202.211-.47.472-.357.742.042.103.135.175.222.244.672.523 1.36 1.108 1.642 1.912s-.024 1.876-.836 2.134c.535.267 1.073.652 1.239 1.227s.359 2.498-.188 2.741c-1.401.62-4.405-1.265-4.604-1.423-2.57-2.044-.968-5.504-1.638-8.719s-.394-6.577.444-9.752c.352-1.332.806-2.647 1.494-3.841.785-1.36 1.856-2.529 2.926-3.678 1.397-1.499 2.84-3.008 4.643-3.982 3.356-1.816 7.434-1.521 11.197-.88 1.43.244 2.87.535 4.184 1.152 1.572.737 2.899 1.908 4.115 3.149 1.757 1.792 3.358 3.804 4.245 6.151"/><path fill="#FF9A6C" d="M106.125 139.02c.465-.732 1.48-1.048 2.285-.728s1.324 1.233 1.204 2.092-.855 1.59-1.712 1.722-1.769-.332-2.182-1.094c-.297-.547-.311-1.302.142-1.727"/><path fill="#263238" d="M120.343 108.036c.473 3.026-1.429 6.255-4.305 7.308s-6.413-.183-8.006-2.799c-.689 1.408-2.35 2.268-3.896 2.019-1.547-.25-2.854-1.588-3.066-3.141-1.638 1.485-4.39 1.295-6.062-.15s-2.3-3.864-1.928-6.042a8.25 8.25 0 0 1 3.886-5.643 8.25 8.25 0 0 1 6.817-.672c2.294-2.705 7.161-2.513 9.234.365 3.64-.213 7.01 3.366 6.58 6.986"/><path fill="#455A64" d="M98.693 103.715c.008-.023-.179-.128-.55-.208a3.9 3.9 0 0 0-1.61-.001 4.67 4.67 0 0 0-2.156 1.05c-.688.596-1.315 1.484-1.408 2.599-.083.853.475 1.776 1.32 1.913l-.155-.324a3.48 3.48 0 0 0-.366 2.115c.082.648.327 1.181.59 1.571.543.788 1.107.987 1.113.956.044-.057-.444-.335-.879-1.101-.426-.727-.754-2.087-.074-3.326l.149-.271-.304-.054c-.557-.1-1.001-.759-.933-1.453.071-.924.617-1.757 1.227-2.306a4.6 4.6 0 0 1 1.947-1.05c1.258-.323 2.075-.017 2.089-.11"/><path fill="#FFBF9D" d="m140.578 106.828-1.612-1.367c-1.655-.878-3.934-.901-5.778-.572-3.005.534-6.174 1.464-9.727 3.024 0 0-.922.421-.601.951 0 0-6.465.829-6.873 1.23s-.424 1.669 1.279 2.087c0 0-4.567.849-4.781.999-.215.15-1.154.03-1.332.524s-.175 2.495 3.276 2.057c3.744-.476 6.455-.912 6.455-.912s2.589 1.308 4.96 1.55c2.37.243 7.812-2.474 7.812-2.474l1.965.995s5.523-7.429 4.957-8.092"/><path fill="#FF9A6C" d="M125.329 111.419c.007.045-.787.215-2.19.449-1.4.229-3.425.516-5.872.532l.044-.004-3.023.649-1.641.348-.82.177c-.203.053-.279.209-.265.388l.004.051-.001.012c-.023.408.121.803.502 1.028.85.492 2.005.448 2.996.35l2.99-.413 5.076-.623a78 78 0 0 0 3.405-.501c.801-.137 1.243-.223 1.253-.185.008.029-.42.181-1.212.379-.793.198-1.953.434-3.394.662-1.44.233-3.161.461-5.065.73l-2.993.443a8.6 8.6 0 0 1-1.643.055c-.558-.045-1.147-.136-1.691-.472-.522-.291-.783-.961-.727-1.485l.003.061a.9.9 0 0 1 .125-.605.88.88 0 0 1 .489-.351c.332-.081.581-.122.871-.185l1.643-.334 3.029-.607.024-.005h.022c2.417.028 4.429-.193 5.837-.348 1.409-.162 2.218-.244 2.224-.196"/><path fill="#FF9A6C" d="M126.049 110.753c.095.103-.701.995-1.778 1.992-1.078.998-2.027 1.723-2.123 1.621-.095-.102.702-.993 1.779-1.992 1.077-.997 2.027-1.723 2.122-1.621M130.836 108.509c.014.07-.44.232-1.174.495-.736.254-1.753.633-2.953.865-1.198.233-2.362.179-3.131-.21-.365-.2-.619-.438-.738-.653-.125-.218-.078-.374-.048-.368.04-.001.063.113.207.251.139.14.391.308.732.445.67.249 1.75.262 2.885.037 1.145-.22 2.179-.543 2.946-.712.767-.177 1.26-.217 1.274-.15"/><path fill="#263238" d="M109.081 141.721c.024.011-.002.147-.157.334-.149.19-.465.4-.893.471a2.74 2.74 0 0 1-1.477-.182 2.4 2.4 0 0 1-.761-.496c-.236-.207-.422-.592-.467-.893-.141-.63-.095-1.307.208-1.829a2.07 2.07 0 0 1 1.194-.926c.85-.24 1.358.072 1.324.114-.014.083-.518-.067-1.203.222-.33.142-.701.41-.907.814-.211.404-.245.951-.123 1.498.073.538.491.854.921 1.071.436.203.883.272 1.245.252.755-.035 1.025-.51 1.096-.45"/><path fill="#EA3934" d="m87.655 195.789-1.518-33.846 12.461-5.589s4.584 4.315 10.451 3.608c5.868-.706 7.187-5.084 7.187-5.084l3.276-.801s13.025 8.348 19.668 26.735c1.757 4.864 1.163 20.97.697 27.009-.178 2.3-.583 11.226.087 13.433l2.769 17.651c-13.096 15.961-39.26 12.233-57.942 1.099-2.78-.754 4.21-15.336 6.772-21.66z"/><path fill="#EA3934" d="M119.262 154.999s-.451-.874 2.275-2.998c1.344-1.047 6.175.671 6.175.671s22.323-14.821 22.173-16.855-18.08-19.343-16.488-21.603c1.593-2.26 3.024-10.058 5.141-9.811s26.469 21.525 30.242 26.776c2.329 3.241-.512 10.477-3.168 14.039-9.078 12.181-30.282 27.526-30.282 27.526z"/><path fill="#263238" d="M129.484 154.076c-.079.115-.607-.112-1.178-.508-.571-.395-.969-.809-.89-.923.08-.115.607.112 1.179.508.571.395.969.809.889.923M153.443 141.777c-.097.093-1.226-.949-2.316-2.487-1.095-1.535-1.709-2.943-1.589-3.005.128-.068.928 1.208 2.002 2.711 1.067 1.508 2.009 2.683 1.903 2.781M155.5 140.335c-.086.109-1.276-.675-2.657-1.754s-2.432-2.041-2.346-2.151 1.275.675 2.658 1.753c1.381 1.078 2.431 2.042 2.345 2.152"/><path fill="#EA3934" d="M89.599 160.795s-13.793 3.116-16.027 14.301c-2.233 11.184-3.34 22.216-3.435 24.722-.094 2.506-.285 3.208-.285 3.208s-2.973 10.404-2.892 12.206c.083 1.803.763 4.854.763 4.854s-6.453 32.673-6.315 35.198c.138 2.526 13.406 3.224 14.042 1.243s7.892-38.235 7.892-38.235l1.146-7.241 5.11-18.789z"/><path fill="#263238" d="M126.551 159.961c.053-.042.672.627 1.607 1.763a88 88 0 0 1 3.484 4.57 87 87 0 0 1 3.19 4.781c.771 1.253 1.203 2.055 1.145 2.092-.06.039-.598-.695-1.443-1.895l-3.304-4.684-3.356-4.645c-.86-1.19-1.379-1.937-1.323-1.982M91.56 182.985c.07.017-.1.95-.367 2.456-.272 1.506-.623 3.59-1.08 5.887s-.992 4.36-1.491 5.816c-.495 1.459-.913 2.318-.97 2.294-.073-.028.226-.926.628-2.398.408-1.47.882-3.523 1.338-5.812.455-2.288.863-4.368 1.225-5.86.359-1.493.652-2.4.716-2.383"/></g><defs><linearGradient id="c" x1="222.683" x2="250.874" y1="42.044" y2="69.911" gradientUnits="userSpaceOnUse"><stop stop-color="gold"/><stop offset="1" stop-color="#E68D35"/></linearGradient><linearGradient id="d" x1="222.782" x2="250.3" y1="42.515" y2="69.716" gradientUnits="userSpaceOnUse"><stop stop-color="#EFCB0A"/><stop offset="1" stop-color="#AF661D"/></linearGradient><linearGradient id="e" x1="223.258" x2="247.406" y1="44.868" y2="68.738" gradientUnits="userSpaceOnUse"><stop stop-color="gold"/><stop offset="1" stop-color="#E68D35"/></linearGradient><linearGradient id="f" x1="221.057" x2="242.053" y1="45.32" y2="66.074" gradientUnits="userSpaceOnUse"><stop stop-color="gold"/><stop offset="1" stop-color="#E68D35"/></linearGradient><linearGradient id="g" x1="222.9" x2="250.369" y1="42.921" y2="70.596" gradientUnits="userSpaceOnUse"><stop stop-color="gold"/><stop offset="1" stop-color="#E68D35"/></linearGradient><linearGradient id="h" x1="232.862" x2="235.673" y1="44.136" y2="47.941" gradientUnits="userSpaceOnUse"><stop stop-color="gold"/><stop offset="1" stop-color="#E68D35"/></linearGradient><linearGradient id="i" x1="222.692" x2="249.447" y1="43.078" y2="70.066" gradientUnits="userSpaceOnUse"><stop stop-color="gold"/><stop offset="1" stop-color="#E68D35"/></linearGradient><linearGradient id="j" x1="224.258" x2="246.962" y1="46.652" y2="69.552" gradientUnits="userSpaceOnUse"><stop stop-color="#EBC704"/><stop offset="1" stop-color="#D17315"/></linearGradient><linearGradient id="m" x1="212.963" x2="219.529" y1="67.013" y2="70.443" gradientUnits="userSpaceOnUse"><stop stop-color="gold"/><stop offset="1" stop-color="#E68D35"/></linearGradient><linearGradient id="o" x1="365.043" x2="399.112" y1="147.067" y2="126.803" gradientUnits="userSpaceOnUse"><stop stop-color="gold"/><stop offset="1" stop-color="#E68D35"/></linearGradient><linearGradient id="p" x1="365.526" x2="398.78" y1="147.091" y2="127.311" gradientUnits="userSpaceOnUse"><stop stop-color="#EFCB0A"/><stop offset="1" stop-color="#AF661D"/></linearGradient><linearGradient id="q" x1="367.917" x2="397.099" y1="147.22" y2="129.862" gradientUnits="userSpaceOnUse"><stop stop-color="gold"/><stop offset="1" stop-color="#E68D35"/></linearGradient><linearGradient id="r" x1="367.8" x2="393.173" y1="149.463" y2="134.371" gradientUnits="userSpaceOnUse"><stop stop-color="gold"/><stop offset="1" stop-color="#E68D35"/></linearGradient><linearGradient id="s" x1="365.947" x2="399.648" y1="147.078" y2="127.464" gradientUnits="userSpaceOnUse"><stop stop-color="gold"/><stop offset="1" stop-color="#E68D35"/></linearGradient><linearGradient id="t" x1="369.633" x2="374.024" y1="137.741" y2="135.98" gradientUnits="userSpaceOnUse"><stop stop-color="gold"/><stop offset="1" stop-color="#E68D35"/></linearGradient><linearGradient id="u" x1="366.047" x2="398.903" y1="147.318" y2="128.223" gradientUnits="userSpaceOnUse"><stop stop-color="gold"/><stop offset="1" stop-color="#E68D35"/></linearGradient><linearGradient id="v" x1="369.901" x2="397.781" y1="146.699" y2="130.494" gradientUnits="userSpaceOnUse"><stop stop-color="#EBC704"/><stop offset="1" stop-color="#D17315"/></linearGradient><linearGradient id="y" x1="386.757" x2="391.73" y1="162.76" y2="157.27" gradientUnits="userSpaceOnUse"><stop stop-color="gold"/><stop offset="1" stop-color="#E68D35"/></linearGradient><linearGradient id="A" x1="247.134" x2="294.63" y1="248.656" y2="220.405" gradientUnits="userSpaceOnUse"><stop stop-color="gold"/><stop offset="1" stop-color="#E68D35"/></linearGradient><linearGradient id="B" x1="247.802" x2="294.163" y1="248.689" y2="221.114" gradientUnits="userSpaceOnUse"><stop stop-color="#EFCB0A"/><stop offset="1" stop-color="#AF661D"/></linearGradient><linearGradient id="C" x1="251.144" x2="291.828" y1="248.869" y2="224.67" gradientUnits="userSpaceOnUse"><stop stop-color="gold"/><stop offset="1" stop-color="#E68D35"/></linearGradient><linearGradient id="D" x1="250.982" x2="286.354" y1="251.997" y2="230.957" gradientUnits="userSpaceOnUse"><stop stop-color="gold"/><stop offset="1" stop-color="#E68D35"/></linearGradient><linearGradient id="E" x1="248.397" x2="295.379" y1="248.671" y2="221.328" gradientUnits="userSpaceOnUse"><stop stop-color="gold"/><stop offset="1" stop-color="#E68D35"/></linearGradient><linearGradient id="F" x1="253.534" x2="259.655" y1="235.655" y2="233.199" gradientUnits="userSpaceOnUse"><stop stop-color="gold"/><stop offset="1" stop-color="#E68D35"/></linearGradient><linearGradient id="G" x1="248.533" x2="294.338" y1="249.006" y2="222.386" gradientUnits="userSpaceOnUse"><stop stop-color="gold"/><stop offset="1" stop-color="#E68D35"/></linearGradient><linearGradient id="H" x1="253.904" x2="292.772" y1="248.143" y2="225.551" gradientUnits="userSpaceOnUse"><stop stop-color="#EBC704"/><stop offset="1" stop-color="#D17315"/></linearGradient><linearGradient id="K" x1="277.406" x2="284.339" y1="270.534" y2="262.88" gradientUnits="userSpaceOnUse"><stop stop-color="gold"/><stop offset="1" stop-color="#E68D35"/></linearGradient><linearGradient id="L" x1="267.683" x2="269.371" y1="394.151" y2="407.194" gradientUnits="userSpaceOnUse"><stop stop-color="gold"/><stop offset="1" stop-color="#E68D35"/></linearGradient><linearGradient id="M" x1="264.386" x2="266.074" y1="405.185" y2="418.228" gradientUnits="userSpaceOnUse"><stop stop-color="gold"/><stop offset="1" stop-color="#E68D35"/></linearGradient><linearGradient id="N" x1="312.23" x2="314.053" y1="371.419" y2="384.963" gradientUnits="userSpaceOnUse"><stop stop-color="gold"/><stop offset="1" stop-color="#E68D35"/></linearGradient><linearGradient id="O" x1="305.472" x2="307.16" y1="382.961" y2="396.004" gradientUnits="userSpaceOnUse"><stop stop-color="gold"/><stop offset="1" stop-color="#E68D35"/></linearGradient><linearGradient id="P" x1="309.175" x2="310.863" y1="394.151" y2="407.193" gradientUnits="userSpaceOnUse"><stop stop-color="gold"/><stop offset="1" stop-color="#E68D35"/></linearGradient><linearGradient id="Q" x1="305.878" x2="307.566" y1="405.185" y2="418.228" gradientUnits="userSpaceOnUse"><stop stop-color="gold"/><stop offset="1" stop-color="#E68D35"/></linearGradient><linearGradient id="R" x1="355.012" x2="356.774" y1="336.991" y2="350.077" gradientUnits="userSpaceOnUse"><stop stop-color="gold"/><stop offset="1" stop-color="#E68D35"/></linearGradient><linearGradient id="S" x1="353.816" x2="355.639" y1="348.437" y2="361.981" gradientUnits="userSpaceOnUse"><stop stop-color="gold"/><stop offset="1" stop-color="#E68D35"/></linearGradient><linearGradient id="T" x1="352.919" x2="354.68" y1="314" y2="327.086" gradientUnits="userSpaceOnUse"><stop stop-color="gold"/><stop offset="1" stop-color="#E68D35"/></linearGradient><linearGradient id="U" x1="351.714" x2="353.537" y1="325.446" y2="338.99" gradientUnits="userSpaceOnUse"><stop stop-color="gold"/><stop offset="1" stop-color="#E68D35"/></linearGradient><linearGradient id="V" x1="352.519" x2="354.342" y1="359.87" y2="373.414" gradientUnits="userSpaceOnUse"><stop stop-color="gold"/><stop offset="1" stop-color="#E68D35"/></linearGradient><linearGradient id="W" x1="358.003" x2="359.826" y1="371.122" y2="384.666" gradientUnits="userSpaceOnUse"><stop stop-color="gold"/><stop offset="1" stop-color="#E68D35"/></linearGradient><linearGradient id="X" x1="351.245" x2="352.934" y1="382.664" y2="395.707" gradientUnits="userSpaceOnUse"><stop stop-color="gold"/><stop offset="1" stop-color="#E68D35"/></linearGradient><linearGradient id="Y" x1="354.948" x2="356.637" y1="393.854" y2="406.897" gradientUnits="userSpaceOnUse"><stop stop-color="gold"/><stop offset="1" stop-color="#E68D35"/></linearGradient><linearGradient id="Z" x1="351.651" x2="353.34" y1="404.888" y2="417.932" gradientUnits="userSpaceOnUse"><stop stop-color="gold"/><stop offset="1" stop-color="#E68D35"/></linearGradient><clipPath id="a"><path fill="#fff" d="M0 0h472v427H0z"/></clipPath><clipPath id="b"><path fill="#fff" d="m203 46.089 39.366-8.09 8.088 39.366-39.365 8.09z"/></clipPath><clipPath id="k"><path fill="#fff" d="m215.766 51.799 24.083.946-.727 18.525-24.084-.946z"/></clipPath><clipPath id="n"><path fill="#fff" d="M364 167.134 366.086 127l40.134 2.087-2.086 40.133z"/></clipPath><clipPath id="w"><path fill="#fff" d="m372.742 156.216 6.981-23.069 17.745 5.37-6.98 23.07z"/></clipPath><clipPath id="z"><path fill="#fff" d="m245.68 276.631 2.909-55.95 55.95 2.908-2.909 55.95z"/></clipPath><clipPath id="I"><path fill="#fff" d="m257.867 261.411 9.733-32.16 24.739 7.486-9.733 32.16z"/></clipPath><filter id="l" width="17.367" height="17.18" x="215.539" y="52.025" color-interpolation-filters="sRGB" filterUnits="userSpaceOnUse"><feFlood flood-opacity="0" result="BackgroundImageFix"/><feColorMatrix in="SourceAlpha" result="hardAlpha" values="0 0 0 0 0 0 0 0 0 0 0 0 0 0 0 0 0 0 127 0"/><feOffset dx=".5" dy=".5"/><feGaussianBlur stdDeviation=".25"/><feComposite in2="hardAlpha" operator="out"/><feColorMatrix values="0 0 0 0 0 0 0 0 0 0 0 0 0 0 0 0 0 0 0.1 0"/><feBlend in2="BackgroundImageFix" result="effect1_dropShadow_4443_33961"/><feBlend in="SourceGraphic" in2="effect1_dropShadow_4443_33961" result="shape"/></filter><filter id="x" width="18.172" height="15.921" x="374.211" y="143.15" color-interpolation-filters="sRGB" filterUnits="userSpaceOnUse"><feFlood flood-opacity="0" result="BackgroundImageFix"/><feColorMatrix in="SourceAlpha" result="hardAlpha" values="0 0 0 0 0 0 0 0 0 0 0 0 0 0 0 0 0 0 127 0"/><feOffset dx=".5" dy=".5"/><feGaussianBlur stdDeviation=".25"/><feComposite in2="hardAlpha" operator="out"/><feColorMatrix values="0 0 0 0 0 0 0 0 0 0 0 0 0 0 0 0 0 0 0.1 0"/><feBlend in2="BackgroundImageFix" result="effect1_dropShadow_4443_33961"/><feBlend in="SourceGraphic" in2="effect1_dropShadow_4443_33961" result="shape"/></filter><filter id="J" width="24.938" height="21.801" x="259.914" y="243.196" color-interpolation-filters="sRGB" filterUnits="userSpaceOnUse"><feFlood flood-opacity="0" result="BackgroundImageFix"/><feColorMatrix in="SourceAlpha" result="hardAlpha" values="0 0 0 0 0 0 0 0 0 0 0 0 0 0 0 0 0 0 127 0"/><feOffset dx=".5" dy=".5"/><feGaussianBlur stdDeviation=".25"/><feComposite in2="hardAlpha" operator="out"/><feColorMatrix values="0 0 0 0 0 0 0 0 0 0 0 0 0 0 0 0 0 0 0.1 0"/><feBlend in2="BackgroundImageFix" result="effect1_dropShadow_4443_33961"/><feBlend in="SourceGraphic" in2="effect1_dropShadow_4443_33961" result="shape"/></filter></defs></svg>