<svg xmlns="http://www.w3.org/2000/svg" width="471" height="515" fill="none"><path fill="#EBEBEB" d="M337.897 244.887 300.617 464h6.261l37.867-219.113zM382.708 244.887 428.936 464h-6.261l-46.816-219.113zM364.114 464h-7.281l-.927-317.02h7.291z"/><path fill="#E0E0E0" d="M414.677 88.388H311.828v65.997h102.849z"/><path fill="#EBEBEB" d="M385.219 243.876h-51.625v6.374h51.625z"/><path fill="#F5F5F5" d="M318.672 145.773s.051.381.072 1.207h-.145c-.103-3.229-.185-13.924-.185-26.589.031-7.642.052-14.563.072-19.658.031-2.465.062-4.486.083-5.961.02-.66.03-1.196.051-1.62.021-.37.031-.567.052-.567s.03.196.051.568c.01.423.031.959.052 1.619.02 1.475.051 3.496.082 5.961.02 5.095.041 12.016.072 19.658 0 12.675-.072 23.36-.185 26.589h-.145c.021-.826.042-1.207.073-1.207M326.32 145.773s.051.381.072 1.207h-.144c-.103-3.229-.186-13.924-.186-26.589.031-7.642.052-14.563.073-19.658.03-2.465.061-4.486.082-5.961.021-.66.031-1.196.051-1.62.021-.37.031-.567.052-.567s.031.196.051.568c.011.423.031.959.052 1.619.021 1.475.051 3.496.082 5.961.021 5.095.042 12.016.072 19.658 0 12.675-.072 23.36-.185 26.589h-.144c.02-.826.041-1.207.072-1.207M333.976 145.773s.052.381.072 1.207h-.144c-.103-3.229-.185-13.924-.185-26.589.031-7.642.051-14.563.072-19.658.031-2.465.062-4.486.082-5.961.021-.66.031-1.196.052-1.62.02-.37.031-.567.051-.567.021 0 .031.196.052.568.01.423.031.959.051 1.619.021 1.475.052 3.496.083 5.961.02 5.095.041 12.016.072 19.658 0 12.675-.083 23.36-.186 26.589h-.144c.021-.826.041-1.207.072-1.207M341.632 145.773s.052.381.073 1.207h-.145c-.103-3.229-.185-13.924-.185-26.589.031-7.642.051-14.563.072-19.658.031-2.465.062-4.486.082-5.961.021-.66.031-1.196.052-1.62.021-.37.031-.567.051-.567.021 0 .031.196.052.568.01.423.031.959.051 1.619.021 1.475.052 3.496.083 5.961.02 5.095.041 12.016.072 19.658 0 12.675-.082 23.36-.185 26.589h-.145c.021-.826.042-1.207.072-1.207M349.289 145.773s.051.381.072 1.207h-.144c-.103-3.229-.186-13.924-.186-26.589.031-7.642.052-14.563.072-19.658.031-2.465.062-4.486.083-5.961.02-.66.031-1.196.051-1.62.021-.37.031-.567.052-.567s.031.196.051.568c.01.423.031.959.052 1.619.02 1.475.051 3.496.082 5.961.021 5.095.041 12.016.072 19.658 0 12.675-.082 23.36-.185 26.589h-.144c.02-.826.041-1.207.072-1.207M356.937 145.773s.052.381.072 1.207h-.144c-.103-3.229-.185-13.924-.185-26.589.031-7.642.051-14.563.072-19.658.031-2.465.062-4.486.082-5.961.021-.66.031-1.196.052-1.62.02-.37.031-.567.051-.567.021 0 .031.196.052.568.01.423.031.959.051 1.619.021 1.475.052 3.496.083 5.961.02 5.095.041 12.016.072 19.658 0 12.675-.072 23.36-.186 26.589h-.144c.021-.826.041-1.207.072-1.207M364.601 145.773s.052.381.072 1.207h-.144c-.103-3.229-.185-13.924-.185-26.589.031-7.642.051-14.563.072-19.658.031-2.465.062-4.486.082-5.961.021-.66.031-1.196.052-1.62.02-.37.031-.567.051-.567.021 0 .031.196.052.568.01.423.031.959.051 1.619.021 1.475.052 3.496.083 5.961.02 5.095.041 12.016.072 19.658 0 12.675-.072 23.36-.186 26.589h-.144c.021-.826.041-1.207.072-1.207M372.25 145.773s.051.381.072 1.207h-.144c-.103-3.229-.186-13.924-.186-26.589.031-7.642.052-14.563.072-19.658.031-2.465.062-4.486.083-5.961.02-.66.031-1.196.051-1.62.021-.37.031-.567.052-.567s.031.196.051.568c.01.423.031.959.052 1.619.02 1.475.051 3.496.082 5.961.021 5.095.041 12.016.072 19.658 0 12.675-.072 23.36-.185 26.589h-.144c.02-.826.041-1.207.072-1.207M379.906 145.773s.051.381.072 1.207h-.144c-.103-3.229-.186-13.924-.186-26.589.031-7.642.052-14.563.073-19.658.03-2.465.061-4.486.082-5.961.021-.66.031-1.196.051-1.62.021-.37.031-.567.052-.567s.031.196.051.568c.011.423.031.959.052 1.619.02 1.475.051 3.496.082 5.961.021 5.095.041 12.016.072 19.658 0 12.675-.082 23.36-.185 26.589h-.144c.02-.826.041-1.207.072-1.207M387.562 145.773s.052.381.072 1.207h-.144c-.103-3.229-.185-13.924-.185-26.589.031-7.642.051-14.563.072-19.658.031-2.465.062-4.486.082-5.961.021-.66.031-1.196.052-1.62.02-.37.031-.567.051-.567.021 0 .031.196.052.568.01.423.031.959.051 1.619.021 1.475.052 3.496.083 5.961.02 5.095.041 12.016.072 19.658 0 12.675-.083 23.36-.186 26.589h-.144c.021-.826.041-1.207.072-1.207M395.218 145.773s.052.381.072 1.207h-.144c-.103-3.229-.185-13.924-.185-26.589.031-7.642.051-14.563.072-19.658.031-2.465.062-4.486.082-5.961.021-.66.031-1.196.052-1.62.021-.37.031-.567.051-.567.021 0 .031.196.052.568.01.423.031.959.051 1.619.021 1.475.052 3.496.083 5.961.02 5.095.041 12.016.072 19.658 0 12.675-.083 23.36-.186 26.589h-.144c.021-.826.041-1.207.072-1.207M402.867 145.773s.051.381.072 1.207h-.144c-.103-3.229-.186-13.924-.186-26.589.031-7.642.052-14.563.072-19.658.031-2.465.062-4.486.083-5.961.02-.66.031-1.196.051-1.62.021-.37.031-.567.052-.567s.031.196.051.568c.011.423.031.959.052 1.619.02 1.475.051 3.496.082 5.961.021 5.095.041 12.016.072 19.658 0 12.675-.082 23.36-.185 26.589h-.144c.02-.826.041-1.207.072-1.207M410.531 145.773s.051.381.072 1.207h-.144c-.103-3.229-.186-13.924-.186-26.589.031-7.642.052-14.563.073-19.658.03-2.465.061-4.486.082-5.961.021-.66.031-1.196.051-1.62.021-.37.031-.567.052-.567s.031.196.051.568c.011.423.031.959.052 1.619.02 1.475.051 3.496.082 5.961.021 5.095.041 12.016.072 19.658 0 12.675-.082 23.36-.185 26.589h-.144c.02-.826.041-1.207.072-1.207"/><path fill="#E0E0E0" d="M63.137 207.306a7.93 7.93 0 0 0 0-11.202 7.9 7.9 0 0 0-11.185 0 7.93 7.93 0 0 0 0 11.202 7.9 7.9 0 0 0 11.185 0M34.057 210.142c4.652 0 8.424-3.777 8.424-8.437s-3.772-8.436-8.424-8.436c-4.653 0-8.424 3.777-8.424 8.436 0 4.66 3.771 8.437 8.424 8.437M22.569 192.854c3.347-3.634 3.119-9.298-.51-12.65a8.93 8.93 0 0 0-12.631.51c-3.347 3.634-3.12 9.298.51 12.65a8.93 8.93 0 0 0 12.63-.51M12.34 173.178c5.16 0 9.341-4.188 9.341-9.355 0-5.166-4.182-9.354-9.34-9.354-5.16 0-9.341 4.188-9.341 9.354 0 5.167 4.182 9.355 9.34 9.355M23.782 153.396c5.33 0 9.65-4.326 9.65-9.664 0-5.337-4.32-9.664-9.65-9.664-5.329 0-9.65 4.327-9.65 9.664 0 5.338 4.321 9.664 9.65 9.664M49.827 145.514c5.365-2.241 7.898-8.414 5.66-13.786-2.238-5.373-8.402-7.911-13.766-5.669s-7.898 8.415-5.66 13.787 8.402 7.91 13.766 5.668M82.534 187.828c.675-4.172-2.155-8.102-6.321-8.777-4.166-.676-8.09 2.158-8.765 6.33-.674 4.173 2.156 8.102 6.322 8.778 4.165.676 8.09-2.158 8.764-6.331M86.17 163.565c0 3.92-3.171 7.096-7.085 7.096-3.913 0-7.085-3.176-7.085-7.096s3.172-7.095 7.085-7.095c3.914 0 7.085 3.176 7.085 7.095M73.768 143.464c0 3.579-2.904 6.487-6.478 6.487s-6.478-2.908-6.478-6.487 2.905-6.487 6.478-6.487 6.478 2.908 6.478 6.487"/><g clip-path="url(#a)"><path fill="url(#b)" d="M60.277 170.213c.396-7.611-5.453-14.101-13.064-14.497s-14.1 5.454-14.497 13.064c-.395 7.611 5.454 14.101 13.064 14.497s14.101-5.453 14.497-13.064"/><path fill="url(#c)" d="M59.945 170.196c.386-7.429-5.323-13.764-12.752-14.151-7.428-.386-13.764 5.323-14.15 12.752s5.323 13.764 12.752 14.15c7.428.386 13.764-5.323 14.15-12.751"/><path fill="url(#d)" d="M58.3 170.113a11.74 11.74 0 0 1-3.892 8.167 11.74 11.74 0 0 1-8.526 3.023 11.74 11.74 0 0 1-8.167-3.891 11.75 11.75 0 0 1-3.023-8.527 11.74 11.74 0 0 1 3.89-8.167 11.74 11.74 0 0 1 8.527-3.023 11.74 11.74 0 0 1 8.167 3.891 11.74 11.74 0 0 1 3.023 8.527"/><path fill="url(#e)" d="M38.996 160.363a11.74 11.74 0 0 0-3.496 7.794 11.74 11.74 0 0 0 3.024 8.526 11.74 11.74 0 0 0 8.166 3.891c2.972.155 5.832-.79 8.114-2.668q-.193.19-.396.374a11.74 11.74 0 0 1-8.526 3.023 11.74 11.74 0 0 1-8.167-3.891 11.75 11.75 0 0 1-3.023-8.527 11.74 11.74 0 0 1 4.304-8.522"/><path fill="url(#f)" d="M47.215 155.72c7.61.396 13.46 6.886 13.064 14.497-.373 7.186-6.181 12.802-13.236 13.072q.078-.161.157-.337c6.808-.346 12.388-5.795 12.75-12.752.386-7.429-5.323-13.764-12.752-14.151-5.976-.31-11.245 3.324-13.278 8.626q-.196.02-.369.043c2.036-5.518 7.48-9.319 13.664-8.998" opacity=".4"/><path fill="url(#g)" d="M38.998 160.36a11.7 11.7 0 0 0-2.736 4.185q-.258-.001-.504.005a11.8 11.8 0 0 1 3.14-4.106z" style="mix-blend-mode:saturation"/><path fill="url(#h)" d="M46.9 156.203c7.43.386 13.138 6.722 12.752 14.15-.361 6.957-5.941 12.406-12.75 12.753.219-.49.436-1.056.635-1.705a11.74 11.74 0 0 0 6.876-3.245l.094-.092.003-.003a11.74 11.74 0 0 0 3.495-7.793 11.74 11.74 0 0 0-3.023-8.527 11.74 11.74 0 0 0-8.167-3.891 11.74 11.74 0 0 0-8.114 2.668l-.003.003-.101.084q-.156.131-.308.268a11.8 11.8 0 0 0-2.831 3.838c-.707.015-1.331.063-1.835.117 2.032-5.301 7.301-8.936 13.278-8.625" opacity=".3"/><path fill="url(#i)" d="M47.113 157.689a11.74 11.74 0 0 1 8.166 3.891 11.74 11.74 0 0 1 3.024 8.527 11.74 11.74 0 0 1-3.495 7.793l-.003.003a11.72 11.72 0 0 1-6.779 2.661c.42-1.598.713-3.629.676-6.152-.145-2.074-1.024-6.437-5.714-8.505-2.267-1.074-4.755-1.358-6.728-1.362a11.75 11.75 0 0 1 2.736-4.185l.003-.003a11.74 11.74 0 0 1 8.113-2.668" opacity=".6"/><g clip-path="url(#j)"><path fill="#fff" d="m43.913 169.094-1.262.704c.465.898 1.202 1.55 2.041 1.869.422.16.87.236 1.323.213a3 3 0 0 0 1.328-.383l2.02-1.126 1.402-.781 1.499-.836c.42-.234.772-.56 1.042-.939a3.7 3.7 0 0 0 .66-1.961 4.2 4.2 0 0 0-.461-2.12c-.465-.904-1.204-1.558-2.047-1.878a3.3 3.3 0 0 0-1.323-.213 3.05 3.05 0 0 0-1.327.382l-4.92 2.744a3.2 3.2 0 0 0-1.043.938 3.7 3.7 0 0 0-.662 1.961q-.016.358.03.721l1.4-.781q.016-.165.052-.32c.064-.274.175-.521.324-.73q.222-.314.558-.504l4.921-2.744q.338-.186.712-.204c.373-.02.772.084 1.138.311s.694.571.925 1.021c.307.599.37 1.247.242 1.795a2.1 2.1 0 0 1-.323.731 1.7 1.7 0 0 1-.558.505l-1.278.712-1.262.704-2.382 1.327a1.6 1.6 0 0 1-.712.204 1.97 1.97 0 0 1-1.137-.311 2.56 2.56 0 0 1-.92-1.011"/><g filter="url(#k)"><path fill="#fff" d="m49.066 168.881 1.262-.704c-.465-.899-1.202-1.549-2.041-1.869a3.3 3.3 0 0 0-1.323-.213 3 3 0 0 0-1.328.383l-2.02 1.126-1.402.781-1.499.836a3.2 3.2 0 0 0-1.042.939 3.7 3.7 0 0 0-.66 1.961 4.2 4.2 0 0 0 .46 2.12c.466.904 1.205 1.558 2.048 1.879.421.16.87.236 1.322.213a3 3 0 0 0 1.328-.383l4.921-2.744c.42-.234.773-.56 1.042-.939a3.7 3.7 0 0 0 .661-1.96 4 4 0 0 0-.029-.721l-1.4.781q-.015.165-.052.32a2.1 2.1 0 0 1-.323.73 1.7 1.7 0 0 1-.558.504l-4.922 2.744a1.6 1.6 0 0 1-.713.205 2 2 0 0 1-1.137-.311 2.6 2.6 0 0 1-.925-1.022 2.65 2.65 0 0 1-.242-1.796c.064-.274.175-.522.323-.73q.223-.314.558-.505l1.278-.712 1.262-.704 2.382-1.327c.225-.126.463-.191.712-.205a2 2 0 0 1 1.137.311c.363.225.69.567.92 1.012"/></g></g><path fill="url(#l)" d="m54.502 178.065-.095.092q-.146.142-.298.279a11.73 11.73 0 0 1-6.578 2.966q.1-.324.192-.676a11.7 11.7 0 0 0 6.779-2.661" style="mix-blend-mode:saturation"/></g><path fill="#F5F5F5" d="M319.085 0h-50.101v13.274h50.101z"/><path fill="#E0E0E0" d="M297.905 27.259s0-.083-.02-.237c0-.176 0-.402-.021-.681 0-.63-.021-1.495-.041-2.61-.021-2.289-.052-5.59-.083-9.735l.155.154c-11.441.02-29.638.062-50.101.103.113-.113-.257.258.247-.257v13.273l-.247-.247c14.263.041 26.755.082 35.704.113 4.459.031 8.043.052 10.535.072 1.215.01 2.173.021 2.853.031.309 0 .556.01.741.02.165 0 .258.011.268.022 0 0-.072.01-.237.02-.185 0-.422 0-.71.02-.67 0-1.607.021-2.791.032-2.482.02-6.045.041-10.484.072-9.001.03-21.544.072-35.879.113h-.247v-13.52c.515-.516.144-.145.257-.259 20.463.042 38.66.073 50.101.104h.155v.154c-.041 4.198-.062 7.519-.083 9.83-.02 1.103-.031 1.959-.041 2.578 0 .268-.01.484-.02.65 0 .144 0 .216-.011.206zM470.843 218.092s0-.082-.021-.237c0-.175 0-.402-.02-.681 0-.629-.021-1.495-.042-2.609-.02-2.29-.051-5.59-.082-9.736l.154.154c-11.441.021-29.638.062-50.1.104.113-.114-.258.257.247-.258v13.273l-.247-.247c14.263.041 26.754.082 35.704.113 4.459.031 8.042.052 10.535.072 1.215.011 2.173.021 2.852.031.309 0 .556.011.742.021.164 0 .257.01.267.021 0 0-.072.01-.236.02-.186 0-.423 0-.711.021-.669 0-1.607.021-2.791.031-2.482.021-6.045.041-10.483.072-9.001.031-21.544.072-35.879.114h-.248v-13.522c.515-.515.145-.144.258-.257 20.462.041 38.659.072 50.101.103h.154v.154c-.041 4.198-.062 7.519-.082 9.829-.021 1.104-.031 1.96-.041 2.579 0 .268-.011.484-.021.649 0 .145 0 .217-.01.207zM69.812 69.41s0-.082-.021-.236c0-.176 0-.403-.02-.681 0-.63-.021-1.496-.042-2.61-.02-2.29-.051-5.59-.082-9.736l.154.155c-11.441.02-29.638.062-50.1.103.113-.113-.258.258.246-.258v13.274000000000001l-.247-.248c14.263.042 26.755.083 35.704.114 4.46.03 8.043.052 10.535.072 1.216.01 2.173.02 2.853.031.309 0 .556.01.741.02.165 0 .258.011.268.021 0 0-.072.01-.237.021-.185 0-.422 0-.71.02-.67 0-1.607.021-2.791.032-2.482.02-6.045.04-10.484.072-9 .03-21.544.072-35.879.113h-.247V56.168l.258-.258c20.462.042 38.66.072 50.1.103h.155v.155c-.041 4.198-.062 7.519-.082 9.829-.021 1.103-.031 1.96-.042 2.578 0 .269-.01.485-.02.65 0 .145 0 .217-.01.206z"/><path fill="#263238" d="M220.016 437.04h-6.766v23.567h6.766zM39.344 437.04h-6.766v23.567h6.766zM416.831 460.658h-6.776v-20.4l6.776-3.197z"/><path fill="#455A64" d="M254.73 267.897c-24.531-2.847-49.061.082-73.705 1.598-32.522 2.001-65.054-3.486-97.637-3.63-4.748-.021-9.918.227-13.522 3.331-2.523 2.176-3.841 5.435-4.655 8.664-6.302 25.134 7.672 48.298 5.17 73.938-.062.629.03 0-.062.629l.072 19.874 299.102-4.868s13.512-89.14 4.913-97.752-98.688.66-119.676-1.784"/><path fill="#263238" d="M376.884 278.2s-.268 0-.782-.031c-.536-.031-1.298-.083-2.297-.144-2.029-.134-5.005-.33-8.815-.588a1052 1052 0 0 0-32.471-1.537c-13.717-.444-30.06-.712-48.195-.598-18.146.103-38.083.67-58.999 1.65-20.926.939-40.874 1.784-59.04 1.712-18.155-.021-34.509-.99-48.144-2.692-13.635-1.681-24.51-4.105-31.966-5.889-3.717-.969-6.57-1.836-8.516-2.372-.958-.279-1.7-.495-2.204-.639a14 14 0 0 1-.752-.238s.258.052.762.186q.773.201 2.225.588c1.956.505 4.82 1.341 8.537 2.279 7.476 1.722 18.341 4.084 31.966 5.724 13.624 1.65 29.957 2.589 48.092 2.579 18.146.041 38.083-.815 59.009-1.754 20.916-.98 40.874-1.526 59.019-1.609 18.146-.092 34.499.217 48.217.712s24.808 1.155 32.47 1.702c3.831.258 6.797.515 8.815.68.999.083 1.761.155 2.287.207.514.051.782.082.782.082z"/><path fill="#455A64" d="M74.665 371.177c-3.543-.031-6.59 2.672-7.909 5.776-1.318 3.094-1.267 6.539-1.195 9.87.217 10.386.443 20.782.66 31.168.103 4.765.236 9.664 2.245 14.037 2.018 4.373 6.415 8.127 11.472 8.086l278.31-1.393s16.868 1.496 15.529-16.048-.741-51.815-4.284-55.24c-3.553-3.424-294.838 3.744-294.838 3.744z"/><path fill="#263238" d="M390.761 382.925s-.237.154-.731.433c-.505.288-1.225.691-2.163 1.227-1.936 1-4.799 2.517-8.65 4.074-7.662 3.187-19.299 6.683-34.098 8.24-7.383.805-15.529 1.145-24.262 1.094-8.733-.052-18.053-.506-27.847-1.032-9.793-.536-20.081-.99-30.75-1.32-10.669-.289-21.719-.474-33.037-.474-45.302-.011-86.248 3.022-115.742 6.178-3.687.35-7.198.907-10.566.866-3.357-.01-6.498-.289-9.433-.619-5.87-.66-10.865-1.64-14.912-2.568-4.047-.938-7.126-1.908-9.175-2.671a23 23 0 0 1-2.297-.949c-.515-.227-.762-.361-.762-.361s.268.093.793.309a31 31 0 0 0 2.317.898c2.06.732 5.139 1.66 9.186 2.568 4.047.897 9.042 1.846 14.891 2.475 2.925.31 6.066.578 9.403.578 3.326.02 6.827-.547 10.524-.908 29.495-3.259 70.461-6.353 115.783-6.343 11.328 0 22.378.186 33.058.485 10.669.351 20.967.804 30.761 1.361 9.793.537 19.103 1.011 27.825 1.073 8.723.072 16.848-.248 24.212-1.021 14.767-1.506 26.394-4.94 34.056-8.055 3.862-1.526 6.725-3.012 8.681-3.981.948-.516 1.679-.908 2.183-1.186.495-.268.752-.392.752-.392z"/><path fill="#263238" d="M171.232 406.79c-.144 0-.175-2.238-.062-4.992.114-2.753.33-4.971.474-4.96.144.01.175 2.238.062 4.991-.113 2.744-.33 4.972-.474 4.961M177.37 407.615c-.154-.02.175-2.702.165-6.012 0-3.311-.319-5.993-.165-6.013.134-.031.711 2.65.701 6.013 0 3.362-.567 6.043-.701 6.012M165.854 289.184c-.144.041-1.009-2.29-1.936-5.219s-1.565-5.342-1.421-5.383 1.009 2.289 1.936 5.229c.927 2.929 1.565 5.342 1.421 5.383zM171.93 297.827c-.083-.031.236-1.083.648-2.816.392-1.722.835-4.146.804-6.838a23.6 23.6 0 0 0-1.133-6.776c-.546-1.681-1.009-2.681-.927-2.723.031-.02.175.217.422.66.247.434.546 1.104.876 1.939.648 1.671 1.277 4.126 1.307 6.89s-.484 5.219-.968 6.941c-.504 1.722-.957 2.743-1.009 2.712z"/><path fill="#455A64" d="M69.63 403.676c-.31 6.807 2.07 19.327.03 25.835-2.039 6.498-2.121 6.838-8.125 10.035-5.294 2.816-11.545 3.074-17.538 3.125a416 416 0 0 1-20.288-.288c-2.646-.104-5.602-.361-7.363-2.342-1.473-1.65-1.689-4.043-1.833-6.25-2.04-31.209-4.068-62.48-2.894-93.73.175-4.548.412-9.138 1.535-13.552 2.657-10.479 17.393-21.586 27.372-25.712 9.969-4.125 21.03-2.836 30.298 2.702l3.305 43.648-3.594 20.286-.896 36.243z"/><path fill="#263238" d="M64.942 313.473s-.093.072-.288.195c-.217.135-.505.32-.865.537a49 49 0 0 0-3.214 2.258c-2.708 2.084-6.436 5.353-10.638 9.788a129 129 0 0 0-3.243 3.538c-.546.629-1.113 1.268-1.659 1.939-.545.588-.617 1.505-.751 2.372-.371 3.548-.247 7.415-.134 11.448.37 8.086.782 16.976 1.215 26.31.834 18.657 1.586 35.551 2.142 47.814.247 6.095.443 11.036.587 14.491.052 1.681.103 3.001.134 3.939 0 .423.02.764.02 1.021 0 .227 0 .351-.01.351 0 0-.02-.113-.04-.351-.022-.257-.042-.598-.073-1.021-.051-.938-.134-2.258-.237-3.939-.185-3.455-.443-8.396-.762-14.481-.587-12.263-1.4-29.146-2.296-47.803-.423-9.334-.865-18.225-1.174-26.321-.103-4.053-.206-7.91.195-11.52.052-.454.134-.897.237-1.341.072-.227.124-.443.227-.66.113-.227.247-.433.391-.588.556-.67 1.122-1.31 1.679-1.939a102 102 0 0 1 3.274-3.517c4.254-4.414 8.033-7.652 10.783-9.695 1.39-1.01 2.502-1.732 3.285-2.186q.556-.309.896-.495c.206-.114.309-.165.319-.155z"/><path fill="#263238" d="M58.875 344.836c.02.072-.782.341-2.11.681-1.33.34-3.183.743-5.253 1.042s-3.965.443-5.334.484c-1.37.052-2.215.011-2.225-.051 0-.165 3.368-.371 7.477-.97 4.109-.598 7.404-1.351 7.445-1.196zM52.022 354.645c-.041.144-1.792-.227-3.903-.826-2.111-.598-3.8-1.206-3.759-1.34.041-.145 1.792.227 3.903.825s3.8 1.206 3.759 1.341M27.563 332.553c-.01-.165 3.758-.433 8.393-.382 2.317.01 4.417.072 5.942.145 1.524.072 2.46.154 2.46.226s-.947.124-2.46.145c-1.525.02-3.615.02-5.942 0-2.215-.021-4.212-.041-5.932-.052-1.514-.02-2.462-.031-2.462-.103zM67.144 272.672s-.02.082-.093.227c-.082.175-.196.381-.32.649a15.7 15.7 0 0 0-.874 2.63c-.618 2.331-1.123 5.807-1.463 10.118a147 147 0 0 0-.37 7.065c-.062 1.269 0 2.568.061 3.929.062 1.352.113 2.754.175 4.177.268 5.714.7 11.995 1.957 18.472.587 3.249 1.421 6.353 2.132 9.396.7 3.042 1.215 6.023 1.483 8.89.566 5.724.34 10.912.257 15.233-.103 4.332-.03 7.829.144 10.242.062 1.207.165 2.145.216 2.774.021.289.042.526.052.722v.248s-.03-.083-.052-.237c-.03-.196-.061-.434-.102-.722-.083-.63-.227-1.568-.32-2.775-.237-2.413-.37-5.93-.319-10.262.03-4.332.216-9.488-.37-15.171-.279-2.836-.804-5.796-1.504-8.818-.71-3.022-1.555-6.158-2.153-9.417-1.266-6.508-1.688-12.83-1.925-18.544-.052-1.433-.103-2.826-.155-4.187a123 123 0 0 0-.072-2.011c-.02-.67.02-1.31.041-1.949.093-2.548.237-4.92.433-7.086.391-4.321.947-7.797 1.637-10.138.33-1.166.69-2.053.978-2.62.145-.258.268-.464.371-.629.083-.144.134-.206.144-.206z"/><path fill="#263238" d="M70.514 367.433c.052.073-1.04.3-2.06 1.805-.504.733-.947 1.743-1.317 2.96-.371 1.217-.66 2.651-.979 4.239a20.2 20.2 0 0 0-.525 5.198c.03 1.888.268 3.899.525 6.023.495 4.25 1.04 8.922 1.607 13.821.556 4.899 1.081 9.571 1.565 13.83.463 4.239.999 8.086.803 11.356-.144 3.259-.978 5.858-1.977 7.384-.978 1.547-1.823 2.145-1.823 2.145-.051-.051.742-.701 1.638-2.248.927-1.537 1.689-4.084 1.781-7.292.145-3.218-.432-7.034-.916-11.283-.495-4.259-1.04-8.921-1.607-13.82-.556-4.899-1.081-9.571-1.565-13.82-.237-2.125-.463-4.157-.474-6.075-.03-1.908.206-3.723.608-5.291.34-1.578.659-3.012 1.06-4.249.402-1.227.896-2.249 1.442-2.991.546-.743 1.123-1.186 1.545-1.413.206-.114.391-.165.505-.217.113-.041.175-.062.175-.051z"/><path fill="#455A64" d="M364.778 401.046c.309 6.807.629 13.696 2.668 20.194s6.024 12.665 12.028 15.862c5.293 2.816 11.544 3.073 17.538 3.125a416 416 0 0 0 20.287-.289c2.647-.103 5.603-.361 7.364-2.341 1.472-1.65 1.689-4.043 1.833-6.25 2.039-31.209 4.068-62.48 2.894-93.73-.176-4.549-.412-9.138-1.535-13.552-2.657-10.479-17.394-21.587-27.373-25.712-9.979-4.126-21.029-2.837-30.297 2.702l-3.306 43.647-2.121 56.333z"/><path fill="#263238" d="M376.065 311.049s.113.041.319.155q.34.185.896.495c.783.453 1.895 1.175 3.285 2.186 2.76 2.042 6.54 5.281 10.783 9.695a112 112 0 0 1 3.274 3.517c.557.629 1.123 1.268 1.679 1.939.144.155.278.361.391.588.103.216.155.443.227.66.103.443.185.887.237 1.341.401 3.62.288 7.467.195 11.52-.298 8.096-.751 16.986-1.174 26.32-.896 18.658-1.709 35.541-2.296 47.804-.319 6.085-.577 11.025-.762 14.48-.103 1.681-.175 3.002-.237 3.94-.031.423-.052.763-.072 1.021-.021.227-.031.351-.041.351s-.011-.124-.011-.351c0-.258.011-.598.021-1.021.031-.938.072-2.259.134-3.94.144-3.455.34-8.395.587-14.49.546-12.263 1.308-29.157 2.142-47.814.432-9.334.834-18.225 1.215-26.31.113-4.033.237-7.901-.144-11.449-.124-.866-.196-1.784-.752-2.372a63 63 0 0 0-1.658-1.939 113 113 0 0 0-3.244-3.537c-4.201-4.435-7.929-7.705-10.638-9.788a52 52 0 0 0-3.213-2.259c-.36-.226-.649-.402-.865-.536-.196-.124-.288-.196-.288-.196z"/><path fill="#263238" d="M382.133 342.413c.041-.155 3.337.598 7.446 1.196 4.109.588 7.487.804 7.476.969 0 .073-.854.104-2.224.052a55 55 0 0 1-5.335-.485 51 51 0 0 1-5.252-1.041c-1.328-.341-2.131-.619-2.111-.681zM388.993 352.211c-.041-.145 1.637-.743 3.759-1.341 2.111-.598 3.862-.97 3.903-.825.041.144-1.638.742-3.759 1.34-2.111.599-3.862.97-3.903.826M413.445 330.119c0 .072-.948.082-2.461.103-1.72.01-3.718.031-5.932.051-2.317.011-4.418.021-5.942 0-1.524-.02-2.462-.072-2.462-.144s.938-.155 2.462-.227 3.614-.134 5.942-.144c4.644-.052 8.413.206 8.393.381zM375.1 270.619s.051.073.134.217c.092.175.206.392.35.66.278.588.607 1.506.885 2.713.598 2.413.968 5.992 1.082 10.416.123 4.435-.124 9.695-.422 15.522-.32 5.838-.989 12.253-2.266 18.885-.618 3.321-1.38 6.528-1.977 9.643s-1.01 6.147-1.319 9.045c-.607 5.796-.71 11.056-.885 15.47-.155 4.415-.392 7.993-.659 10.448-.114 1.227-.258 2.176-.35 2.826-.042.299-.083.536-.114.732a6 6 0 0 1-.051.248v-.258c.02-.196.031-.444.062-.743.051-.649.164-1.598.247-2.836.206-2.455.391-6.023.494-10.437.124-4.415.185-9.685.772-15.512.299-2.908.711-5.961 1.298-9.097.597-3.135 1.359-6.332 1.967-9.643 1.267-6.611 1.957-12.995 2.297-18.812.319-5.827.617-11.077.535-15.491-.062-4.404-.381-7.972-.906-10.376a16.3 16.3 0 0 0-.783-2.712c-.123-.268-.216-.495-.299-.67-.061-.155-.092-.238-.082-.238zM370.494 367.433s.237.052.669.227a5.5 5.5 0 0 1 1.689 1.135c.649.619 1.236 1.578 1.658 2.764a27.4 27.4 0 0 1 1.051 4.136c.546 3.156.082 6.941-.381 11.046-.464 4.135-.979 8.663-1.524 13.418-.557 4.754-1.082 9.282-1.566 13.418-.494 4.125-.999 7.828-.834 10.953.124 3.114.896 5.579 1.813 7.065.885 1.495 1.658 2.134 1.596 2.186 0 0-.814-.578-1.782-2.073-.988-1.475-1.833-3.991-2.008-7.147-.216-3.167.257-6.91.721-11.026.474-4.135.978-8.663 1.524-13.418.556-4.754 1.081-9.282 1.565-13.418.505-4.115.989-7.838.505-10.932a29 29 0 0 0-.958-4.084c-.391-1.166-.927-2.094-1.524-2.723-1.225-1.227-2.265-1.423-2.214-1.506zM369.505 367.433c0 .145-67.083.269-149.809.269s-149.829-.124-149.829-.269c0-.144 67.073-.268 149.829-.268s149.809.124 149.809.268"/><path fill="#000" d="m69.426 335.203-3.893-16.13c-2.74 1.805-4.212 6.023-4.088 9.313.123 3.28 1.184 6.446 1.74 9.685 1.514 8.828-.772 17.801-2.018 26.681-1.247 8.88-.186 19.503 5.17 26.681.03-3.084-.938-6.869-.928-10.551.021-5.672 1.422-11.107 5.119-13.438 0 0-.402-23.072-1.092-32.23zM369.721 367.475v-.031a2.2 2.2 0 0 0-.463 0l.463.041zM378.107 376.489c-.505-4.775-1.957-9.406-2.348-14.192-.258-3.063-.072-6.136-.083-9.2a74.2 74.2 0 0 0-3.635-22.648c-.772 12.335-1.534 24.66-2.307 36.995 1.01.103 2.194.412 2.822 1.227.731.939 1.627 2.228 1.957 3.373 1.668 5.786.958 12.118.041 18.079 3.12-3.64 4.057-8.849 3.553-13.624z" opacity=".3"/><path fill="#FAFAFA" d="m346.909 208.676 6.137-10.83a28.84 28.84 0 0 1-4.284-15.171c0-16.007 12.956-28.971 28.928-28.971s28.928 12.975 28.928 28.971-12.955 28.971-28.928 28.971a28.78 28.78 0 0 1-17.703-6.064l-13.089 3.104z"/><g clip-path="url(#m)"><path fill="url(#n)" d="M381.633 200.474c9.666-2.389 15.569-12.173 13.183-21.854-2.385-9.681-12.155-15.592-21.821-13.203-9.667 2.388-15.569 12.173-13.184 21.854s12.155 15.592 21.822 13.203"/><path fill="url(#o)" d="M381.531 200.056c9.436-2.332 15.197-11.883 12.869-21.332s-11.865-15.22-21.3-12.888-15.197 11.882-12.869 21.332c2.328 9.449 11.865 15.219 21.3 12.888"/><path fill="url(#p)" d="M381.008 197.961a15.32 15.32 0 0 1-11.684-1.778 15.36 15.36 0 0 1-7.007-9.532 15.38 15.38 0 0 1 1.775-11.702 15.34 15.34 0 0 1 9.518-7.018 15.32 15.32 0 0 1 11.684 1.778 15.36 15.36 0 0 1 7.007 9.532 15.38 15.38 0 0 1-1.775 11.702 15.34 15.34 0 0 1-9.518 7.018"/><path fill="url(#q)" d="M385.895 170.091a15.3 15.3 0 0 0-11.068-1.423 15.34 15.34 0 0 0-9.518 7.017 15.38 15.38 0 0 0-1.775 11.702 15.35 15.35 0 0 0 6.407 9.15 15.358 15.358 0 0 1-7.624-9.886 15.38 15.38 0 0 1 1.775-11.702 15.34 15.34 0 0 1 9.518-7.018 15.32 15.32 0 0 1 11.684 1.778q.306.185.601.382"/><path fill="url(#r)" d="M394.808 178.62c2.385 9.681-3.517 19.466-13.184 21.855-9.128 2.255-18.347-2.89-21.355-11.622q.232.036.48.068c3.011 8.396 11.936 13.318 20.772 11.135 9.435-2.332 15.197-11.883 12.869-21.332-1.873-7.603-8.412-12.824-15.81-13.359q-.101-.24-.194-.446c7.671.458 14.484 5.836 16.422 13.701" opacity=".4"/><path fill="url(#s)" d="M385.903 170.088a15.3 15.3 0 0 0-6.269-1.84q-.096-.325-.196-.63a15.4 15.4 0 0 1 6.321 2.375z" style="mix-blend-mode:saturation"/><path fill="url(#t)" d="M394.088 178.409c2.328 9.45-3.433 19-12.869 21.332-8.836 2.184-17.761-2.739-20.771-11.135a19 19 0 0 0 2.372.149 15.34 15.34 0 0 0 6.811 7.465l.004.002a15.31 15.31 0 0 0 11.068 1.424 15.34 15.34 0 0 0 9.518-7.018 15.38 15.38 0 0 0 1.775-11.702 15.36 15.36 0 0 0-6.407-9.15l-.004-.002a13.204 13.204 0 0 0-.596-.38 15.4 15.4 0 0 0-5.87-2.091 28 28 0 0 0-.841-2.253c7.398.536 13.937 5.757 15.81 13.359" opacity=".3"/><path fill="url(#u)" d="M392.313 179.241a15.38 15.38 0 0 1-1.775 11.702 15.34 15.34 0 0 1-9.518 7.018 15.31 15.31 0 0 1-11.068-1.424l-.004-.003a15.32 15.32 0 0 1-5.893-7.48c2.157-.08 4.808-.483 7.948-1.485 2.539-.967 7.661-3.721 8.473-10.38.486-3.245-.101-6.468-.843-8.941 2.178.153 4.309.773 6.269 1.84l.004.003a15.35 15.35 0 0 1 6.407 9.15" opacity=".6"/><g clip-path="url(#v)"><path fill="#fff" d="m376.839 179.562-1.357-1.313c-.948.922-1.483 2.091-1.565 3.264-.041.589.034 1.18.235 1.738.199.556.527 1.08.98 1.517l2.174 2.104 1.507 1.458 1.612 1.561c.452.438.992.755 1.568.949a4.83 4.83 0 0 0 2.702.085 5.5 5.5 0 0 0 2.476-1.382c.955-.925 1.493-2.098 1.575-3.275a4.3 4.3 0 0 0-.234-1.738 4 4 0 0 0-.981-1.517l-5.293-5.122a4.14 4.14 0 0 0-1.568-.95c-.864-.291-1.804-.308-2.702-.086q-.454.115-.89.31l1.507 1.459q.211-.044.419-.056a2.7 2.7 0 0 1 1.035.128q.476.159.842.507l5.293 5.124q.362.353.525.814c.166.459.186.999.041 1.542a3.37 3.37 0 0 1-.926 1.546c-.633.612-1.42.937-2.154.984a2.7 2.7 0 0 1-1.036-.128 2.2 2.2 0 0 1-.842-.508l-1.374-1.33-1.358-1.313-2.561-2.48a2.1 2.1 0 0 1-.524-.814c-.167-.459-.186-.998-.042-1.542.143-.54.447-1.079.917-1.535z"/><g filter="url(#w)"><path fill="#fff" d="m379.059 185.932 1.357 1.314c.948-.923 1.483-2.092 1.565-3.265a4.3 4.3 0 0 0-.234-1.737 4 4 0 0 0-.981-1.517l-2.173-2.105-1.507-1.458-1.613-1.561a4.2 4.2 0 0 0-1.567-.949 4.8 4.8 0 0 0-2.703-.084 5.5 5.5 0 0 0-2.477 1.381c-.954.926-1.492 2.098-1.574 3.276-.042.588.033 1.18.233 1.737.201.557.529 1.08.982 1.517l5.293 5.124a4.15 4.15 0 0 0 1.568.948 4.84 4.84 0 0 0 2.702.086q.454-.115.89-.31l-1.507-1.458q-.21.042-.419.056a2.7 2.7 0 0 1-1.035-.128 2.2 2.2 0 0 1-.841-.507l-5.294-5.124a2.1 2.1 0 0 1-.525-.815 2.6 2.6 0 0 1-.042-1.542 3.37 3.37 0 0 1 .927-1.545c.633-.613 1.42-.938 2.154-.985.368-.024.719.022 1.036.128q.476.16.842.508l1.374 1.33 1.358 1.314 2.561 2.479c.242.235.414.508.525.815.165.459.186.997.042 1.542a3.4 3.4 0 0 1-.917 1.535"/></g></g><path fill="url(#x)" d="M369.631 196.221a21 21 0 0 1-.613-.352 15.34 15.34 0 0 1-6.198-7.113q.444.002.918-.016a15.33 15.33 0 0 0 5.893 7.481" style="mix-blend-mode:saturation"/></g><path fill="#263238" d="M346.906 208.676c.916-.227 4.871-1.197 13.058-3.218l-.072.206v-.01l-.639-.825.824.629a28.8 28.8 0 0 0 13.79 5.724c1.452.175 2.976.289 4.531.206.783-.051 1.576-.072 2.368-.144q1.19-.186 2.41-.371a28.9 28.9 0 0 0 9.619-3.817 28.9 28.9 0 0 0 8.197-7.704c2.276-3.187 3.996-6.951 4.799-11.046a29.3 29.3 0 0 0-.35-12.696c-1.081-4.218-3.1-8.344-6.107-11.737-3.048-3.465-6.817-6.239-10.978-7.859a29.1 29.1 0 0 0-12.78-1.98c-4.222.299-8.269 1.506-11.74 3.455a29.1 29.1 0 0 0-8.702 7.405 29.2 29.2 0 0 0-4.902 9.262c-.999 3.197-1.277 6.374-1.277 9.313.134 5.931 2.091 10.819 4.192 14.274l.041.062-.041.062a5904 5904 0 0 1-6.251 10.767c.432-.783 2.234-4.053 6.024-10.891v.134c-2.152-3.465-4.171-8.395-4.346-14.397-.01-2.981.258-6.199 1.257-9.448a29.51 29.51 0 0 1 13.768-16.986c3.533-1.991 7.642-3.228 11.946-3.538 4.295-.309 8.795.32 13.017 2.001 4.233 1.64 8.074 4.466 11.184 7.993 3.069 3.455 5.129 7.653 6.22 11.954a29.7 29.7 0 0 1 .34 12.933c-.824 4.167-2.585 7.993-4.912 11.231a29.4 29.4 0 0 1-8.362 7.808 29.1 29.1 0 0 1-9.784 3.836c-.823.124-1.647.248-2.451.372-.813.072-1.616.082-2.409.134-1.586.072-3.121-.052-4.593-.237a28.86 28.86 0 0 1-13.903-5.889l.185-.186v.01l.124.165-.206.041-13.12 2.96zM468.971 460.596c0 .145-104.99.269-234.47.269S0 460.741 0 460.596c0-.144 104.97-.268 234.501-.268s234.47.124 234.47.268"/><path fill="#fff" d="M197.184 33.829h-19.083c-2.554-.01-4.634 2.155-4.634 4.837v3.465c0 2.682-2.08 4.848-4.634 4.848l-37.187-.021c-2.554 0-4.634-2.176-4.634-4.858v-3.465c0-2.682-2.07-4.848-4.634-4.858h-6.715l-16.704-.01c-8.29 0-15.025 6.724-15.025 15.037l-.051 241.174c0 8.303 6.714 15.037 15.004 15.037l98.215.062c8.29 0 15.014-6.724 15.025-15.037l.051-241.174c0-8.303-6.714-15.037-15.004-15.037z"/><path fill="#263238" d="M197.182 33.829s.175 0 .515.01c.34.031.855 0 1.524.114 1.328.154 3.357.587 5.633 1.949 1.153.65 2.317 1.588 3.429 2.784a15.2 15.2 0 0 1 2.863 4.487c.742 1.784 1.143 3.878 1.123 6.105v7.086c.01 20.04.031 49.021.051 84.84 0 35.819.011 78.466.021 125.816v22.535c-.021 1.527-.113 3.105-.577 4.59-.432 1.485-1.05 2.939-1.915 4.239a16 16 0 0 1-3.131 3.475c-2.441 1.96-5.499 3.218-8.671 3.373-3.151.093-6.272.021-9.433.041H169.49c-12.863 0-25.952-.01-39.236-.02-6.643 0-13.337 0-20.072-.011h-10.133c-3.399.176-6.93-.722-9.773-2.702-2.863-1.96-4.964-4.94-5.953-8.23-.525-1.64-.628-3.393-.628-5.085V264.05c0-13.305 0-26.424.01-39.306 0-25.773.021-50.629.032-74.309l.03-67.245c0-10.53.01-20.7.021-30.477v-3.651c0-.609.052-1.217.082-1.826.103-.598.155-1.206.31-1.794a15.35 15.35 0 0 1 3.16-6.374 15.5 15.5 0 0 1 5.572-4.167c2.111-.959 4.439-1.289 6.673-1.268 4.47 0 8.836 0 13.09.01h9.381c1.03-.051 2.111.237 2.956.825a5 5 0 0 1 1.833 2.413c.381.97.288 2.012.309 2.97v1.465c0 .485-.021.97.051 1.434a4.8 4.8 0 0 0 1.123 2.517 4.42 4.42 0 0 0 2.296 1.423c.443.113.886.144 1.349.134h6.797l19.793.03c3.038 0 5.953 0 8.733.011.69-.01 1.391.031 2.05-.02a4.26 4.26 0 0 0 1.833-.65 4.74 4.74 0 0 0 2.101-3.032c.134-.599.113-1.217.113-1.826v-1.795c0-.587-.031-1.175.082-1.753a5 5 0 0 1 .567-1.609 4.8 4.8 0 0 1 2.399-2.124c.989-.434 2.039-.3 2.987-.32 3.851 0 7.105.02 9.742.03 2.626.011 4.634.021 5.993.021 1.349 0 2.039.021 2.039.021s-.69.01-2.039.02c-1.349 0-3.357 0-5.993.021-2.637 0-5.891 0-9.742.01-.958.021-1.978-.102-2.935.32a4.55 4.55 0 0 0-2.317 2.063 4.8 4.8 0 0 0-.546 1.568c-.103.557-.062 1.134-.072 1.732v1.795c0 .598.02 1.238-.114 1.856a4.93 4.93 0 0 1-2.173 3.146 4.6 4.6 0 0 1-1.905.68c-.69.063-1.369.022-2.07.032h-35.323c-.453 0-.947-.02-1.41-.134a4.73 4.73 0 0 1-2.431-1.506 5.03 5.03 0 0 1-1.184-2.65c-.072-.496-.052-.98-.052-1.465V39.83c-.01-.98.072-1.97-.288-2.877a4.65 4.65 0 0 0-1.74-2.28 4.53 4.53 0 0 0-2.801-.773H99.595c-2.224-.02-4.479.31-6.549 1.248a15.3 15.3 0 0 0-5.448 4.084 15.1 15.1 0 0 0-3.09 6.24c-.154.577-.195 1.165-.298 1.753-.03.598-.072 1.186-.082 1.795v240.163c0 1.681.093 3.362.607 4.971.958 3.208 3.008 6.095 5.788 8.003 2.78 1.919 6.169 2.795 9.536 2.63h10.134c6.735 0 13.429 0 20.071.011 13.285 0 26.374.02 39.236.031 6.437 0 12.811 0 19.124.01 3.151-.021 6.313.052 9.413-.041 3.089-.155 6.065-1.372 8.434-3.28a15.8 15.8 0 0 0 3.048-3.383c.845-1.268 1.442-2.681 1.864-4.125.453-1.455.546-2.971.567-4.476v-22.536c.03-47.35.051-90.007.072-125.816.03-35.819.061-64.8.082-84.84 0-2.506 0-4.868.01-7.085.031-2.218-.36-4.28-1.091-6.054a14.9 14.9 0 0 0-2.822-4.466c-1.092-1.196-2.255-2.125-3.388-2.774-2.255-1.362-4.274-1.805-5.592-1.98-.659-.135-1.174-.104-1.514-.145-.34-.02-.515-.041-.515-.041z"/><path fill="#263238" d="M200.089 58.18c0 .061-2.482.133-5.541.164-3.058.02-5.54 0-5.54-.072 0-.062 2.482-.134 5.54-.165 3.059-.02 5.541 0 5.541.072M200.112 61.015c0 .062-2.482.135-5.54.165-3.059.021-5.541 0-5.541-.072 0-.062 2.482-.134 5.541-.165 3.058-.02 5.54 0 5.54.072M200.128 63.862c0 .062-2.482.134-5.541.165-3.058.02-5.54 0-5.54-.072 0-.062 2.482-.134 5.54-.165 3.059-.02 5.541 0 5.541.072M99.27 67.1s.082 0 .226-.01c.186 0 .391-.01.639-.02.607-.01 1.4-.031 2.368-.052l-.062.062c0-.526-.02-1.104-.031-1.722 0-.32-.03-.62 0-.99a.91.91 0 0 1 .793-.733c.381 0 .721-.02 1.133 0a.916.916 0 0 1 .773.918c0 .805.02 1.64.031 2.506l-.114-.103c.958 0 1.957-.02 2.987-.03l-.114.113-.03-3.724v-.948c0-.29-.176-.485-.423-.702-.442-.433-.875-.866-1.308-1.289-.432-.423-.844-.835-1.256-1.248-.206-.206-.412-.402-.608-.608-.205-.207-.37-.413-.617-.465a.82.82 0 0 0-.69.135c-.186.154-.371.37-.557.546-.37.371-.72.732-1.071 1.083-.669.701-1.38 1.34-1.884 1.95-.216.33-.134.742-.155 1.113v1.052c0 .65 0 1.217-.01 1.702 0 .433 0 .794-.01 1.083 0 .247 0 .382-.01.392s-.01-.114-.021-.361c0-.289-.02-.64-.031-1.073-.01-.485-.02-1.062-.041-1.712 0-.34-.01-.701-.02-1.073v-.587c0-.217.05-.434.164-.63.556-.68 1.215-1.278 1.895-2 .34-.351.7-.712 1.061-1.094.195-.185.35-.37.576-.567a1.03 1.03 0 0 1 .865-.175c.32.072.526.33.721.516.206.196.402.402.608.598l1.267 1.237c.432.423.865.846 1.307 1.29.103.113.227.206.33.36.093.145.154.33.154.506v.949c0 1.279.021 2.516.031 3.723v.113h-.113c-1.03 0-2.029.01-2.986.021h-.114v-.103c0-.866 0-1.702-.01-2.506a.716.716 0 0 0-.608-.722c-.339-.02-.751 0-1.081 0a.76.76 0 0 0-.649.577c-.031.3 0 .65-.01.96v1.794h-.062c-.988 0-1.792-.01-2.41-.02-.247 0-.453 0-.628-.01-.144 0-.206 0-.206-.011z"/><path fill="#E0E0E0" d="M149.883 228.56c-16.859 0-30.586-13.737-30.586-30.631s13.717-30.632 30.586-30.632c16.868 0 30.585 13.738 30.585 30.632s-13.717 30.631-30.585 30.631m0-60.334c-16.354 0-29.659 13.325-29.659 29.703s13.305 29.703 29.659 29.703 29.659-13.325 29.659-29.703-13.306-29.703-29.659-29.703"/><path fill="#EA3934" d="M149.882 230.407c-17.877 0-32.429-14.563-32.429-32.478s14.541-32.478 32.429-32.478a2.305 2.305 0 0 1 2.307 2.311c0 1.278-1.03 2.31-2.307 2.31-15.334 0-27.815 12.5-27.815 27.857s12.481 27.857 27.815 27.857a2.305 2.305 0 0 1 2.307 2.31 2.305 2.305 0 0 1-2.307 2.311"/><path fill="#263238" d="M198.059 254.571c0 .134-20.854.238-46.569.238-25.714 0-46.568-.104-46.568-.238s20.844-.237 46.568-.237c25.725 0 46.569.103 46.569.237M177.412 260.543c0 .134-13.161.237-29.401.237s-29.402-.103-29.402-.237 13.162-.237 29.402-.237 29.401.103 29.401.237"/><path fill="#E0E0E0" d="M180.428 77.734c0 .134-12.955.33-28.927.443-15.983.114-28.939.093-28.939-.03 0-.135 12.945-.33 28.928-.444 15.973-.114 28.928-.093 28.928.03z"/><path fill="#FAFAFA" d="M283.772 73.237H110.875V197.92h172.897z"/><path fill="#263238" d="M283.769 197.919s-.02-.784-.02-2.28c0-1.506-.011-3.713-.021-6.611-.01-5.786-.031-14.284-.052-25.144-.03-21.7-.061-52.847-.113-90.647l.216.217c-48.36.01-108.213.03-172.886.051h-.011l.268-.268c0 44.679-.02 87.057-.02 124.682l-.248-.248c51.1.052 94.291.093 124.722.124 15.231.031 27.26.051 35.488.062 4.119.01 7.281.02 9.423.031 1.061 0 1.874.01 2.43.01.546 0 .834.01.834.01s-.267 0-.803.011c-.546 0-1.349 0-2.399.01-2.132 0-5.283.021-9.372.031-8.218.01-20.236.041-35.436.062l-124.876.123h-.247v-.247c0-37.624-.021-80.003-.021-124.681v-.269h.278c64.673.02 124.526.042 172.887.052h.216v.216c-.051 37.862-.082 69.05-.113 90.791-.021 10.84-.041 19.318-.052 25.093-.01 2.878-.02 5.075-.02 6.57 0 1.485-.021 2.228-.021 2.228z"/><path fill="#EA3934" d="M186.186 164.729h-48.36c-5.233 0-9.474 4.248-9.474 9.489v1.99c0 5.241 4.241 9.489 9.474 9.489h48.36c5.233 0 9.475-4.248 9.475-9.489v-1.99c0-5.241-4.242-9.489-9.475-9.489"/><path fill="#263238" d="M261.681 185.707s.145-.02.412-.051c.268-.011.68-.052 1.195-.155a9.27 9.27 0 0 0 4.161-1.908 9.44 9.44 0 0 0 3.47-6.209c.082-.701.082-1.444.072-2.217 0-.774.01-1.558-.123-2.352-.227-1.588-.938-3.197-2.07-4.569-1.154-1.351-2.74-2.454-4.614-2.97-.937-.289-1.916-.351-2.935-.34h-3.141c-4.263 0-8.815.02-13.604.02-9.588 0-20.123.011-31.183.021a9.3 9.3 0 0 0-7.003 3.238 9.1 9.1 0 0 0-1.843 3.404c-.381 1.248-.392 2.527-.371 3.836-.134 2.579.711 5.085 2.379 6.9 1.627 1.826 3.954 2.909 6.282 3.033 9.577.03 18.197.061 25.447.082 7.229.031 13.089.062 17.167.083 2.008.02 3.573.041 4.665.051.515.01.917.021 1.215.031.278 0 .412.021.412.031s-.144.021-.412.031c-.298 0-.7.021-1.215.031-1.092.01-2.667.031-4.665.051-4.078.021-9.938.052-17.167.083-7.25.01-15.87.072-25.478.031-2.451-.124-4.912-1.258-6.642-3.187a9.8 9.8 0 0 1-1.978-3.342c-.453-1.237-.566-2.609-.545-3.909-.021-1.289-.011-2.681.391-3.991a9.6 9.6 0 0 1 1.946-3.61c1.792-2.114 4.552-3.444 7.415-3.424 11.06 0 21.595.011 31.183.021 4.789 0 9.341.02 13.604.02h3.141c1.03 0 2.08.073 3.048.372a9.66 9.66 0 0 1 4.799 3.125c1.174 1.433 1.895 3.104 2.111 4.754.134.825.103 1.64.114 2.403 0 .764 0 1.527-.093 2.249a9.63 9.63 0 0 1-3.635 6.332 9.2 9.2 0 0 1-4.274 1.847 7 7 0 0 1-1.215.103h-.412zM186.031 177.621l3.718 19.72 3.048-5.507 6.55 9.828 3.275-2.207-6.55-9.829 6.014-.928z"/><path fill="#EBEBEB" d="M266.269 99.743c4.851 0 8.784-3.939 8.784-8.797 0-4.86-3.933-8.798-8.784-8.798s-8.785 3.939-8.785 8.798c0 4.858 3.933 8.797 8.785 8.797"/><path fill="#263238" d="M261.183 96.7c-.103-.103 2.091-2.475 4.902-5.29s5.18-5.023 5.283-4.91c.103.104-2.09 2.476-4.902 5.291-2.811 2.816-5.18 5.023-5.283 4.91"/><path fill="#263238" d="M261.184 86.49c.103-.103 2.471 2.094 5.283 4.91 2.811 2.815 5.015 5.187 4.902 5.29-.103.103-2.472-2.093-5.283-4.909s-5.015-5.188-4.902-5.29"/><rect width="116" height="7" x="128" y="105" fill="#D9D9D9" rx="3.5"/><rect width="72" height="7" x="128" y="117" fill="#D9D9D9" rx="3.5"/><rect width="49" height="7" x="128" y="129" fill="#D9D9D9" rx="3.5"/><rect width="49" height="7" x="137" y="171" fill="#fff" opacity=".1" rx="3.5"/><rect width="49" height="7" x="214" y="171" fill="#EAEAEA" rx="3.5"/><g clip-path="url(#y)"><path fill="#FFD2AB" d="M277.738 471.54s2.37 11.18 2.82 13.04c.44 1.86 2.58 16.53 0 18.63s-20.98 2.1-21.91 0 5.42-20.52 6.05-22.82-.23-4.42-.23-5.36 13.27-3.49 13.27-3.49"/><path fill="#9B7B53" d="m279.491 497.31 5.01.78.58 4.39s-6.09 7.45-16 8.34c-10.61.51-11.84-7.1-11.84-7.1l-.35-4.48 22.6-1.92z"/><path fill="#583C1C" d="M268.782 507.09c10.05-1.03 15.72-9 15.72-9 .07-5.05-3.84-15.05-4.17-16.12-.34-1.09-.57-5.37-.57-5.37l-15.93.37s-.06 4.31-.09 6.13c-.03 1.84-6.97 15.28-6.85 16.13s1.87 8.9 11.89 7.86"/><path fill="#6B4D2F" d="M268.781 507.09c10.05-1.03 15.72-9 15.72-9s-20.26-11.93-27.61 1.14c.12.85 1.87 8.9 11.89 7.86"/><path fill="#EA3934" d="M322.589 306.77c0 .67-.01 1.35-.01 2.02a275 275 0 0 0 .15 9.65c.05 1.54.11 3.05.17 4.5q.075 1.605.15 3.12c.04.68.07 1.35.11 1.99.39 6.85.83 11.61.83 11.61-8.63 8.39-30.25 8.06-30.25 8.06s-22.43-.35-31.07-8.75c0 0 .41-3.42.86-8.63.06-.64.11-1.31.17-2a329 329 0 0 0 .65-9.68c.13-2.49.24-5.08.3-7.68.02-.67.03-1.34.05-2 .03-2.59.03-5.17-.04-7.67-.02-.68-.05-1.34-.07-2-.12-2.72-.32-5.31-.63-7.67-.04-.35-.09-.69-.14-1.02s-.1-.66-.15-.98c-.05-.29-.1-.57-.15-.85l-.76-2-1.11 2.86-.78 2.01-1.63 4.18-9.63-3.76h-.01l-4.41-1.72-9.65-3.76 1.86-4.28.45-1.03 3.46-7.97.9-2.08 3.44-7.92.9-2.07 3.42-7.88h.01l.12-.29v-.02s.7-.68 2.01-1.8h.01c2.1-1.82 5.73-4.8 10.35-7.98.96-.67 1.98-1.34 3.03-2.02a98 98 0 0 1 8.4-4.87c6.16-3.17 13-5.76 19.84-6.59 7.12.86 14.24 3.64 20.59 6.98 1.7.89 3.34 1.82 4.91 2.77.89.54 1.76 1.08 2.6 1.62 3.82 2.46 7.14 4.91 9.71 6.95.95.75 1.81 1.45 2.54 2.07 1.47 1.22 2.49 2.14 2.97 2.57h.01c.21.19.31.29.31.29l-.15.39 1.12 4.62.5 2.06 1.9 7.81.5 2.06 1.9 7.84.5 2.08 1.91 7.87.37 1.52-1.34.39-21.53 6.26c-.03.36-.06.72-.08 1.09-.06.66-.1 1.34-.14 2.02a173 173 0 0 0-.25 7.7z"/><path fill="#fff" d="M321.839 241.17c-1.8.27-3.69.58-5.65.9-9.38 1.54-21.06 3.46-34.8 1.97-6.03-.65-12.67-.83-18.92-.76.96-.67 1.98-1.34 3.03-2.02 5.4.02 10.98.23 16.11.79 13.46 1.46 24.99-.43 34.26-1.96 1.15-.19 2.27-.37 3.37-.54.89.54 1.76 1.08 2.6 1.62" opacity=".1"/><path fill="#fff" d="M314.328 236.78s-4.65 13.13-19.3 13.13-21.13-13.52-21.13-13.52c6.16-3.17 13-5.76 19.84-6.59 7.12.86 14.24 3.64 20.59 6.98"/><path fill="#fff" d="M334.087 250.19c-2.64-.1-5.25-.08-7.61.11-3.05.25-6.56.83-10.29 1.44-9.38 1.54-21.06 3.47-34.8 1.97-8.32-.9-17.81-.89-25.83-.59-1.88.07-3.68.15-5.36.24-.08 0-.15.01-.22.01l.12-.29v-.02s.7-.68 2.01-1.8h.01c8.71-.41 19.87-.57 29.49.47 13.46 1.46 24.99-.44 34.26-1.96 3.76-.62 7.32-1.2 10.45-1.46 1.66-.14 3.42-.19 5.23-.19.95.75 1.81 1.45 2.54 2.07M338.848 260.13c-1.32-.11-2.68-.19-4.03-.25-2.88-.12-5.77-.12-8.34.09-.73.06-1.49.14-2.27.24-2.48.3-5.18.74-8.02 1.21-9.38 1.54-21.06 3.46-34.8 1.97-6.21-.67-13.07-.84-19.48-.76-2.83.03-5.58.12-8.14.22-3.01.14-5.77.3-8.12.47l.9-2.07c1.95-.13 4.14-.26 6.49-.36 2.52-.11 5.23-.2 8.04-.25 6.72-.1 13.98.05 20.53.76 13.46 1.46 24.99-.44 34.26-1.96 3.46-.57 6.74-1.11 9.68-1.39.26-.03.52-.05.77-.07 2.87-.24 6.07-.23 9.24-.08.94.04 1.87.1 2.79.17zM341.245 270c-3.19-.29-6.71-.52-10.04-.52-1.64 0-3.24.05-4.73.17-2.09.17-4.4.5-6.85.88-1.12.18-2.27.37-3.44.56-9.38 1.54-21.06 3.46-34.8 1.97-5.26-.57-10.99-.78-16.52-.78-2.56 0-5.09.05-7.5.12-6.65.2-12.47.62-16.06.92l.9-2.08c3.51-.29 8.62-.63 14.41-.82 2.48-.08 5.09-.13 7.75-.14 5.76-.01 11.75.2 17.24.79 13.46 1.46 24.99-.43 34.26-1.95 1.56-.26 3.08-.51 4.55-.73 2.08-.32 4.07-.59 5.9-.74 1.78-.15 3.69-.2 5.64-.17 2.95.02 5.98.21 8.79.46zM343.648 279.92c-4.9-.53-11-.98-16.11-.68-.36.03-.71.05-1.06.08-2.11.17-4.45.5-6.92.89-1.1.18-2.22.36-3.37.55-9.38 1.55-21.06 3.47-34.8 1.98-5.33-.58-11.15-.78-16.75-.78-1.24 0-2.46 0-3.67.03-12.63.21-23.3 1.33-23.46 1.35l-.11-1.02.45-1.03c2.32-.23 11.56-1.08 22.37-1.29 1.7-.02 3.44-.04 5.2-.04 5.43.02 11.03.23 16.19.79 13.46 1.46 24.99-.44 34.26-1.96 1.15-.19 2.27-.37 3.37-.55 2.52-.39 4.9-.73 7.08-.91.64-.05 1.31-.1 1.99-.12 4.82-.22 10.29.16 14.84.63zM245.188 290.36c4.38-.31 10.199-.62 16.459-.71l-.779 2.01c-4.05.07-7.901.24-11.26.42h-.011zM345.924 289.31l-1.34.39c-5.37-.61-12.48-1.17-18.11-.71-.84.07-1.71.17-2.61.28s-1.84.25-2.8.39c-1.56.24-3.2.51-4.88.78-9.38 1.54-21.06 3.46-34.8 1.97-5.55-.6-11.62-.8-17.43-.77-.04-.35-.09-.69-.14-1.02s-.1-.66-.15-.98c5.97-.03 12.22.16 17.94.78 13.46 1.46 24.99-.43 34.26-1.96 1.68-.27 3.31-.54 4.89-.77 1.31-.2 2.58-.38 3.8-.52.6-.06 1.19-.12 1.76-.17 6.11-.51 13.73.13 19.24.79zM322.976 297.05c-.06.66-.1 1.34-.14 2.02-2.09.29-4.33.66-6.65 1.04-9.38 1.54-21.06 3.47-34.8 1.98-5.33-.58-11.14-.78-16.73-.78-.02-.68-.05-1.34-.07-2 5.68 0 11.6.2 17.02.79 13.46 1.46 24.99-.44 34.26-1.96 2.48-.41 4.87-.8 7.11-1.09M322.588 306.77c0 .67-.01 1.35-.01 2.02-2.02.28-4.16.63-6.39 1-9.38 1.54-21.06 3.46-34.8 1.97-5.33-.58-11.14-.78-16.74-.78.02-.67.03-1.34.05-2 5.65 0 11.52.21 16.91.79 13.46 1.46 24.99-.44 34.26-1.96 2.34-.39 4.59-.75 6.72-1.04M322.732 318.44c-2.06.29-4.26.65-6.54 1.02-9.38 1.54-21.06 3.46-34.8 1.97-5.46-.59-11.43-.79-17.15-.78.04-.65.08-1.32.11-1.99 5.76-.01 11.76.19 17.26.79 13.46 1.45 24.99-.44 34.26-1.96 2.36-.39 4.65-.77 6.8-1.06zM323.161 328.05c-2.18.29-4.53.68-6.97 1.08-9.38 1.55-21.06 3.47-34.8 1.98-5.69-.62-11.92-.81-17.86-.77.06-.64.11-1.31.17-2 5.95-.03 12.2.16 17.91.78 13.46 1.46 24.99-.44 34.26-1.96 2.51-.41 4.92-.81 7.18-1.1.04.68.07 1.35.11 1.99" opacity=".1"/><path fill="#E3CC98" d="M323.992 339.66c-8.63 8.39-30.25 8.06-30.25 8.06s-22.43-.35-31.07-8.75c0 0 .41-3.42.86-8.63.06-.64.11-1.31.17-2a329 329 0 0 0 .65-9.68c.13-2.49.24-5.08.3-7.68.02-.67.03-1.34.05-2 .03-2.59.03-5.17-.04-7.67-.02-.68-.05-1.34-.07-2-.12-2.72-.32-5.31-.63-7.67-.04-.35-.09-.69-.14-1.02s-.1-.66-.15-.98c-.05-.29-.1-.57-.15-.85l-.76-2 4.52-20v9.5l3.87-3.26-5.13 13.13s2.04 36.13 55.09 36.75l1.79.03q.075 1.605.15 3.12c.04.68.07 1.35.11 1.99.39 6.85.83 11.61.83 11.61M323.058 295.96l-1.95-17.05-5.96-8.38 5.38 3.95-.25-12.95 6.75 32.88z" opacity=".7" style="mix-blend-mode:multiply"/><path fill="#FFD2AB" d="M277.969 234.91s3.95 10.58 16.23 11.04c12.29.47 17.02-9.78 17.02-9.78l-1.3-6.39-2.25-11.03-12.5 1.5-12.35-2.44-.91 3.23-3.94 13.86z"/><path fill="#D4A58E" d="M281.898 221.05c.84 2.45 6.71 16.34 28.01 8.74l-2.25-11.03-12.5 1.5-12.35-2.44z" opacity=".5"/><path fill="#383838" d="M266.109 337.53s82.18-9.09 97.02-3.97c-.16 9.79 10.76 16.1 5 21.82-25.1 24.91-103.52 17.61-103.52 17.61l1.49-35.45z"/><path fill="#383838" d="m266.105 337.53 26.32 33.49-44.87-11.97c0-2.67 12.07-23.17 18.55-21.53z"/><path fill="#FFD2AB" d="M278.359 205.09s-3.42-8.71-9.08-6.79.18 16.39 8.88 13.55l.2-6.77z"/><path fill="#D4A58E" d="M270.908 202.31c4 .06 6.19 3.73 6.28 3.88.09.16.04.36-.12.46-.06.03-.12.05-.18.05a.32.32 0 0 1-.28-.17c-.01-.02-.83-1.39-2.32-2.42-1.41.86-.77 3.21-.76 3.24.05.18-.05.36-.23.41-.03.01-.07.01-.1.01a.33.33 0 0 1-.31-.24c-.03-.12-.71-2.59.78-3.8a5.8 5.8 0 0 0-2.66-.75h-.1c-.17.02-.33-.15-.33-.34 0-.18.15-.33.34-.33z"/><path fill="#FFD2AB" d="m313.286 206.12-.2 6.76c5.66 2.23 10.52-3.27 11.51-7.86.5-2.31 0-4.39-1.84-5.15-3.91-1.59-7.01 2.17-8.49 4.52-.63.98-.97 1.72-.97 1.72z"/><path fill="#D4A58E" d="M320.883 203.79c-4-.17-6.4 3.35-6.5 3.51a.335.335 0 0 0 .56.37c.01-.02.91-1.34 2.46-2.28 1.35.94.57 3.25.57 3.28-.06.17.03.36.2.43.03.01.07.02.1.02.14 0 .28-.08.32-.22.04-.11.86-2.54-.56-3.84.78-.37 1.69-.62 2.7-.59h.1c.16.03.34-.13.35-.32 0-.18-.13-.34-.32-.35z"/><path fill="#FFD2AB" d="M315.151 202.138c.467-15.727-7.756-28.732-18.366-29.047-10.611-.315-19.59 12.179-20.057 27.907s7.756 28.733 18.366 29.048c10.611.315 19.59-12.18 20.057-27.908"/><path fill="#302E2F" d="M314.807 176.67c-4.53-17.2-47.69-8.44-47.69-8.44s2.5 5.43 7.69 10.92c-1.76.32-7.69-.64-7.69-.64 1.58 2.8 3.56 4.93 5.78 6.57-1.17 6.3.37 13.54.37 13.54s3.03 1.59 3.52 4.01c0 0 .85 5.83 2.82 10.79 0 0 .27-8.76-1.22-13.5-1.31-4.18-.16-8.04.13-8.9.38-.83.84-1.68 1.39-2.5 12.86 3.8 28.39-2.33 28.39-2.33.11 3.84 4.49 7.9 5.65 8.9 0 .02.01.05.02.07.06 1.41-.06 3.06-.6 4.75-1.49 4.74-1.22 13.5-1.22 13.5 1.97-4.96 2.68-9.79 2.68-9.79.85-2.07 4.71-3.95 4.71-3.95s1.68-19.85-4.73-23.02z"/><path fill="#302E2F" d="M289.198 205.61c0 2.15-.501 3.9-1.131 3.9s-1.129-1.75-1.129-3.9.499-3.9 1.129-3.9 1.131 1.75 1.131 3.9M303.44 205.61c0 2.15-.5 3.9-1.13 3.9s-1.13-1.75-1.13-3.9.5-3.9 1.13-3.9 1.13 1.75 1.13 3.9"/><path fill="#D4A58E" d="M308.126 208.9c.04.32.86.49 1.83.38s1.74-.46 1.7-.78-.86-.49-1.83-.38-1.74.46-1.7.78M307.91 210.81c.05-.32.88-.44 1.85-.27s1.71.56 1.65.88-.88.44-1.85.27-1.71-.56-1.65-.88M283.266 210.08c-.04-.32-.85-.49-1.83-.38s-1.74.46-1.7.78.86.49 1.83.38 1.74-.46 1.7-.78M283.488 208.17c-.06.32-.88.44-1.85.27s-1.71-.56-1.65-.88c.05-.32.88-.44 1.85-.27s1.71.56 1.65.88M294.967 213.2h.12c.5-.03 1.7-.42 1.91-3.44.35-4.94-.37-7.69-.4-7.81a.34.34 0 0 0-.41-.24c-.18.05-.28.23-.24.41 0 .03.72 2.77.38 7.59-.14 2.03-.76 2.79-1.28 2.82-.77.05-1.89-1.3-2.32-3.54a.34.34 0 0 0-.39-.27c-.18.03-.3.21-.27.39.45 2.37 1.65 4.05 2.89 4.09zM295.028 218.7c5.08.15 8.25-3.66 8.39-3.82.12-.14.1-.35-.05-.47a.326.326 0 0 0-.47.05c-.03.04-3.1 3.72-7.85 3.58-4.73-.14-6.89-3.94-6.91-3.98a.33.33 0 0 0-.45-.13.33.33 0 0 0-.13.45c.09.17 2.37 4.17 7.48 4.32z"/><path fill="#302E2F" d="M285.307 198.28c1.09-.36 2.32-.19 3.66.5.47.24 1.04.06 1.28-.41a.947.947 0 0 0-.41-1.28c-1.82-.93-3.55-1.14-5.14-.61-2.51.83-3.79 4.34-3.32 4.58.09.05 2.2-2.21 3.93-2.78M308.968 202.08c.5-.17-.32-3.82-2.7-4.96-1.51-.73-3.25-.75-5.18-.06a.953.953 0 0 0 .65 1.79c1.42-.51 2.67-.52 3.71-.02 1.65.79 3.43 3.29 3.53 3.25z"/><path fill="#FFD2AB" d="M232.867 316.82c.48-8.69 3.3-19.01 6.66-28.52l17.74 6.76c-2.65 5.66-5.57 11.78-7.99 16.62 8.87 5.17 39.57 32.07 39.57 32.07l-7.06 5.22c-23.53-9.85-42.11-21.11-46.31-25.52-1.17-1.1-2.1-3.19-2.61-6.64z"/><path fill="#D4A58E" d="m238.938 287.93 18.349 7.15-1.69 3.53z" opacity=".6"/><path fill="#FFD2AB" d="m326.226 302.96-2.12-7.3 17.4-5.09c4.62 19.71 5.14 41.64.88 46.41-14.5 7.89-34.87-44.99-34.87-44.99l9.43-2.46c4.12 4.88 9.27 13.43 9.27 13.43z"/><path fill="#4D6088" d="M285.987 257.57h15.84c1.49 0 2.69 1.24 2.69 2.78v32.67c0 1.53-1.21 2.78-2.69 2.78h-15.84c-1.49 0-2.69-1.24-2.69-2.78v-32.67c0-1.53 1.21-2.78 2.69-2.78"/><path fill="#302E2F" d="M286.314 259.2c.73 0 1.33.6 1.33 1.33v2.67c0 .73-.6 1.33-1.33 1.33s-1.33-.6-1.33-1.33v-2.67c0-.73.6-1.33 1.33-1.33"/><path fill="#FFD2AB" d="M317.588 291.16s-3.06-9.31-5.11-13.69c-1.81-3.16-8.77-5.53-10.13-6.07s-6.81 1.71-7.5 2.97.07 1.74 1 1.87c2.43.37 5.7-1.28 5.97-1.2.26.08 5.11 3.7 5.11 3.7s-4.9.2-6.2.36c-1.31.16-6.66 3.21-6.97 4.02s.5 1.88 2.68 1.39c0 0-2.45 1.06-2.91 1.88-.38.59-.54 3.12 5.71.83 0 0-2.87.79-2.53 2.03.33 1.27 6.19-.96 6.19-.96s.52 3.54 4.64 3.7l4.4 5.7 5.66-6.54z"/><path fill="#D4A58E" d="m324.25 295.63 17.29-5.06.72 3.21z" opacity=".6"/><path fill="#383838" d="M280.667 476.63s-2.84-89.96-6.45-101.56c-2.71-13.27-23.5-22.12-29.23-2.02-6.47 22.17 15.89 104 15.89 104s10.81 0 19.79-.42"/><path fill="#FFD2AB" d="M264.752 368.06s-10.06-.21-12.31.63-21.31 12.03-24.55 12.03-2.5-1.65-3.2-2.78-2.67-12.52-.84-14.21 18.63-8.9 21.89-9.6 4.84 2.22 10.59 1.57 7.23-.02 7.23-.02l1.2 12.38z"/><path fill="#9B7B53" d="m247.104 353.06-4.46-.61-15.5 2.87s-7.49 9.08-5.93 18.91c2.09 10.41 9.77 9.75 9.77 9.75l4.43-.75z"/><path fill="#583C1C" d="M224.903 373.61c-1.45-10 4.9-17.44 4.9-17.44 4.88-1.3 15.73-3.25 16.85-3.19 1.13.06 8.99 2.51 8.99 2.51l2.52 14.01s-6.38 1.68-8.14 2.15c-1.78.48-13.74 11.48-14.6 11.57s-9.09.36-10.52-9.62z"/><path fill="#6B4D2F" d="M224.903 373.61c-1.45-10 4.9-17.44 4.9-17.44s16.51 16.74 5.63 27.06c-.85.09-9.09.36-10.52-9.62z"/><path fill="#434244" d="M255.5 354.75s88.57-21.83 100.72-21.86c13.47-1.39 26.25 13.34 8.8 24.84-19.21 12.82-106.64 13.02-106.64 13.02z"/><path fill="#FFD2AB" d="M303.447 354c.31-1.13-1.72-8.28-2.84-8.65-1.12-.38-5.58-2.46-7.71-2.92-1.29-.41-4.53-.8-7.08-1.05-.94-.9-4.03-3.18-5.9-5.07-2.29 2.74-3.45 5.21-5.69 7.99 1.91 1.27 6.31 4.31 6.43 4.51 3.23 5.54 9.54 4.94 9.86 5.32s.5 5.68 2.21 6.06c.83.07 1.52-1.34 1.52-1.34.48 2.49 1.22 2.91 1.88 2.57s.75-2.2.75-2.2c.11 1.9 2.22 3.03 2.93 2.15s-.1-8.93-.75-9.93-4.49-4.29-4.49-4.29l3.96 1.38s1.29 3.95 2.74 7.3c1.35 1.87 2.16.35 2.2-1.82z"/><path fill="#CA7E86" d="M297.018 358.93c.02-.97-.03-1.93-.11-2.89s-.21-1.92-.39-2.87c-.1-.48-.21-.95-.38-1.43l-.16-.36a1.3 1.3 0 0 0-.26-.35c-.19-.18-.39-.32-.59-.46-.81-.55-1.66-1-2.55-1.39.78.57 1.57 1.12 2.3 1.72.18.15.36.31.51.47.12.14.19.32.27.54.14.44.24.9.33 1.36.38 1.86.64 3.77 1.03 5.65zM294.107 358.62c.08-1.07 0-2.12-.16-3.16-.09-.52-.18-1.04-.33-1.55-.16-.5-.27-1.05-.64-1.46.16.5.16 1.03.23 1.54.05.52.13 1.03.2 1.55.17 1.03.36 2.06.69 3.08z" opacity=".6"/></g><g clip-path="url(#z)"><path fill="#FFD2AB" d="m56.593 233.113-3.143 2.972s-13.453 46.092-13.148 56.276c1.657 10.904 9.701 1.988 13.952-2.789 3.457-4.636 14.582-41.72 14.582-41.72l-12.243-14.749z"/><path fill="#D4A58E" d="M44.922 267.672s8.328 2.201 15.467-1.085l-13.89-5.123-1.567 6.208z" opacity=".6"/><path fill="#434244" d="M61.987 207.592s28.229-4.301 51.18 0l-4.871-18.339-43.533 1.957-2.786 16.382z"/><path fill="#FFD2AB" d="m101.829 205.442-.143 16.889s-.59 9.636-12.548 9.636-11.796-8.896-11.796-8.896l-.132-7.973-.133-8.135-.03-1.866.478.071 11.623 1.836 12.091-1.907.6.324z"/><path fill="#D4A58E" d="M101.824 207.734c-5.146 7.374-11.145 12.903-24.65 6.34l-.112-7.09.448-1.786 11.623 1.836 12.701-1.907v2.617z" opacity=".6"/><path fill="#FFD2AB" d="M107.529 187.609c0 15.185-11.165 27.489-18.589 27.489s-18.588-12.304-18.588-27.489c0-15.184 8.318-27.488 18.588-27.488s18.589 12.304 18.589 27.488"/><path fill="#302E2F" d="M76.169 172.912s6.396 5.386 17.246 5.467c0 0-2.96-1.866-4.474-4.22 0 0 7.098 5.275 14.47 5.549 0 0 3.386 15.671.244 34.406 0 0 14.013-4.929 15.854-9.474 1.84-4.544-1.465-36.394-15.162-46.294-18.538-13.796-27.406 3.469-27.406 3.469s-4.81-3.196-11.206 2.211c-6.396 5.406-8.531 32.581-8.114 40.32.416 7.74 17.44 9.758 17.44 9.758s-5.289-22.356-4.079-27.61c0 0 5.014-3.703 5.187-13.593z"/><path fill="#D4A58E" d="M76.93 194.335c-.04.304-.844.446-1.78.314-.935-.132-1.667-.487-1.616-.801s.844-.447 1.78-.315c.935.132 1.667.487 1.616.802M77.094 196.181c-.04-.305-.844-.447-1.78-.315-.935.132-1.667.487-1.616.802.04.304.844.446 1.78.314.935-.132 1.667-.487 1.616-.801M100.94 196.181c.041-.305.844-.447 1.78-.315.935.132 1.667.487 1.616.802-.04.304-.844.446-1.779.314-.936-.132-1.668-.487-1.617-.801M100.776 194.335c.041.304.844.446 1.779.314.936-.132 1.668-.487 1.617-.801s-.844-.447-1.779-.315c-.936.132-1.668.487-1.617.802M89.113 198.646h-.122c-.488-.041-1.627-.457-1.75-3.368-.192-4.767.58-7.405.611-7.516a.323.323 0 0 1 .407-.213c.173.05.264.233.213.405 0 .031-.772 2.658-.58 7.304.082 1.967.651 2.708 1.16 2.759.742.071 1.871-1.197 2.339-3.348a.323.323 0 0 1 .63.142c-.498 2.272-1.708 3.865-2.908 3.865zM89.274 203.88c-4.922 0-7.87-3.764-8.003-3.926a.324.324 0 0 1 .061-.456.325.325 0 0 1 .458.061c.03.04 2.898 3.671 7.484 3.671s6.772-3.6 6.803-3.641a.33.33 0 0 1 .447-.112.326.326 0 0 1 .112.447c-.091.162-2.41 3.956-7.352 3.956z"/><path fill="#302E2F" d="M99.298 181.412c-1.058-.507-2.329-.497-3.773.01a.967.967 0 0 1-1.24-.588.964.964 0 0 1 .59-1.238c1.962-.7 3.742-.669 5.287.081 2.431 1.177 3.244 4.889 2.736 5.062-.102.03-1.922-2.526-3.6-3.327M74.533 184.79c-.102 0 0-3.936 2.43-5.113 1.546-.75 3.315-.771 5.288-.081.508.183.773.73.59 1.238a.97.97 0 0 1-1.24.588c-1.455-.517-2.726-.517-3.784 0-1.678.811-2.867 3.378-3.274 3.378zM81.51 184.79l-3.143.111s.488.954 2.329 1.157c-.214.811-.346 1.937-.346 3.195 0 2.465.519 4.463 1.16 4.463s1.159-1.998 1.159-4.463-.519-4.463-1.16-4.463M99.505 184.911l-3.143-.111c-.64 0-1.159 1.998-1.159 4.463s.519 4.463 1.16 4.463 1.159-1.998 1.159-4.463c0-1.248-.133-2.384-.346-3.195 1.85-.203 2.329-1.157 2.329-1.157"/><path fill="#FFD2AB" d="M126.752 234.371s17.287 49.338 22.25 100.988c0 0-4.261 2.597-9.335.71 0 0-9.305-46.944-22.545-71.968-2.969-5.335-3.152-12.811-2.237-17.152 9.661-21.606 11.877-12.568 11.877-12.568z"/><path fill="#D4A58E" d="m118.976 267.783 1.526 3.328s3.04-6.036 6.681-7.639c3.64-1.602 6.671-4.554 6.854-5.315.183-.771-9.651-1.278-9.651-1.278l-5.948 9.221.528 1.704z" opacity=".6"/><path fill="#D4A58E" d="M146.76 344.661s-2.054 5.863-2.46 6.441-3.6 2.394-3.793 3.347c-.204.954.996 1.938 3.345.67s3.01-1.633 3.427-2.212c.417-.578 2.675-6.704 2.675-6.704l-3.183-1.542z"/><path fill="#D4A58E" d="M147.757 345.99s-1.525 7.11-1.922 7.851c-.396.73-3.833 3.306-3.925 4.442s1.434 2.1 3.986.295c2.553-1.816 3.265-2.333 3.661-3.074.397-.74 2.125-8.175 2.125-8.175L147.757 346z"/><path fill="#FFD2AB" d="M148.969 335.095s3.294 7.77 3.894 10.164-2.704 12.152-3.01 14.992c-.61 2.942-2.999 2.627-2.877-1.349.05-4.28 1.078-11.381 1.078-11.969s-3.417-3.642-3.875-3.784c-.447-.152-2.084 3.094-2.156 3.693-.071.598 1.638 4.402-.539 6.562s-4.128-6.197-3.976-7.84c.153-1.644.122-7.334 2.838-10.702l7.199-.811zM60.94 244.555s-.01.03-.01.04h-.01a37 37 0 0 0-1.18 3.317c-.03.122-.08.244-.111.366-3.905 13.632 4.708 18.126 4.708 18.126s.63 1.897 1.322 4.828c.61 2.567 1.271 5.924 1.586 9.525 0 0 .01.081.02.243.092 1.451.102 10.976-7.097 24.456 1.566 1.562 18.202 1.309 28.036 1.715 10.87.446 21.741.436 32.621.405a34 34 0 0 0-1.535-3.712c-6.823-12.781-7.434-20.52-7.474-22.529.305-3.814.996-7.405 1.637-10.103.132-.548.254-1.055.376-1.521.204-.781.387-1.431.539-1.958.092-.314.163-.578.234-.781.092-.264.142-.446.163-.517 0 0 .01 0 .01-.01.01-.031.01-.041.01-.041s3.457-1.816 4.993-6.614c.315-.963.539-2.049.63-3.276.224-2.353-.02-5.204-1.057-8.622l6.742-14.779s-13.921-13.511-35.439-16.108c-21.517 2.597-34.076 16.108-34.076 16.108l4.78 11.097c-.285.213-.448.345-.448.345z"/><path fill="#D4A58E" d="M116.6 297.808s-26.968 8.622-53.834 2.272l1.627-4.118 50 .112z" opacity=".6"/><path fill="#fff" d="m62.094 228.254 1.25 6.563 4.983.822-2.99-9.687z"/><path fill="#EA3934" d="M138.455 250.469s-.794 6.806-6.753 8.885c-5.959 2.09-11.551 5.447-13.25 9.434l-1.332-4.687s-4.088 15.368-1.037 21.454a91 91 0 0 1 2.756 6.076c1.291 3.154 1.973 5.315 1.973 5.315s-31.168 7.638-59.814-.933c0 0 5.593-16.818 4.749-25.613 0 0-1.14-3.235-5.36-3.813a10.3 10.3 0 0 0-2.267-.051c-6.101.487-15.07-2.688-16.768-6.086 0 0 9.477-20.916 10.321-23.148.854-2.231 4.922-4.189 4.922-4.189s34.157 11.675 53.936-10.265c0 0 12.67 5.772 16.392 10.265 0 0 10.169 15.002 11.532 17.356"/><path fill="#CFD1D2" d="M120.814 296.946s-31.167 7.638-59.813-.933c0 0 5.593-16.818 4.749-25.613 0 0-1.14-3.235-5.36-3.813l3.275-14.445.895 13.197s9.406 32.682 54.271 26.292c1.292 3.154 1.973 5.315 1.973 5.315zM117.119 264.101s1.129-6.299 0-10.103-3.244-7.942-3.244-7.942 4.759 5.873 5.339 9.809c.579 3.936-1.078 11.817-1.078 11.817l-1.017-3.57z" style="mix-blend-mode:multiply"/><path fill="#44B7AE" d="M76.829 487.927s-1.099 1.907-1.434 2.668c-.336.761-2.715 8.246-2.715 8.246h18.11s-1.423-7.11-1.677-7.871c-.265-1.319-1.454-3.54-1.454-3.54s-2.634-1.745-10.84.497z"/><path fill="#FFD2AB" d="M91.36 506.135c-.356 2.028-4.2 4.453-6.833 4.625-2.624.172-11.664-2.211-11.837-4.412-.152-1.887 2.807-11.909 4.556-16.139-.681-3.753-1.698-9.433-2.756-15.59-1.79-10.367-3.712-22.082-4.383-28.229-.905-8.338-2.064-27.672-2.725-39.732-.346-6.107-.57-10.347-.57-10.347h18.345s.305 5.539.702 13.451c.63 12.354 1.495 30.501 1.83 42.48.204 7.476.285 15.408.305 22.377.03 8.906-.447 13.856-.478 16.615 1.607 4.869 4.068 13.623 3.844 14.901"/><path fill="#44B7AE" d="M73.466 496.579s9.874-5.69 16.626-.233c0 0 2.003 7.232 2.39 10.783.386 3.55-4.658 7.871-7.902 7.81-5.206.629-13.83-3.276-14.379-6.441-.63-3.256 3.285-11.908 3.285-11.908z"/><path fill="#FFD2AB" d="M90.523 312.09c-1.19 5.366-2.43 12.639-2.93 16.078 1.73 5.548 2.38 14.15 2.421 23.735.102 25.186-4.047 57.118-4.149 57.859l-3.274-3.601c-3.895-.345-8.013-1.055-11.918-1.116-.875-.01-2.227 2.16-3.061 2.455-.061-.234-.132-.508-.224-.842-2.44-8.46-16.9-48.486-15.63-68.418 0-10.701 3.692-19.546 6.143-27.692.305-1.034 2.023-4.087 2.277-5.092 4.597-1.815 6.488-1.257 10.932-1.44 6.213-.244 12.416 2.252 18.61 2.86a21 21 0 0 0 2.104.142c-.396 1.177-.844 2.983-1.301 5.072"/><path fill="#FFD2AB" d="M159.558 500.12c-1.708 3.783-13.453 5.933-14.958 6.349s-1.241-1.105-1.546-2.86-.854-1.623.224-5.041c1.077-3.429-3.153-18.614-3.804-20.277-.64-1.654-3.803-7.03-3.803-7.03v-.02c-.051-.091-1.973-3.398-4.932-8.541-10.321-17.903-33.323-58.03-34.432-61.997-.823-2.972-4.27-29.558-6.294-48.8-.773-7.334-1.343-13.602-1.485-17.092-.06-1.541-3.417-9.504-5.959-22.792-.315-1.603-.61-3.276-.885-5.031 0-.041 0-.091-.02-.132 2.674 0 5.36.01 8.054.02 10.22.051 20.531.142 30.669-.497a37 37 0 0 1 1.526 3.338c1.23 2.972 2.257 6.238 3.223 9.453 2.329 7.719 3.437 16.636 2.349 27.144-3.549 18.999-9.06 48.608-9.06 48.608s13.555 27.357 14.826 33.25c.783 3.652 5.501 17.355 8.989 27.255 1.007 2.891 1.922 5.458 2.593 7.354 5.817-.01 6.671 2.526 7.2 4.869.569 2.597 1.373 14.323 3.203 16.94 1.831 2.617 6.041 11.746 4.322 15.53"/><path fill="#44B7AE" d="M139.424 483.849s2.715 9.393 2.075 13.146c-.641 3.753-.122 9.829 2.176 11.26s5.074.588 7.403-.619c2.756-1.106 9.589-5.153 9.904-9.931.316-4.777-7.179-30.055-8.297-31.972-1.444-3.296-8.329-4.28-8.329-4.28s6.885 14.424 6.722 18.887c0 0-9.742-2.394-11.664 3.509z"/><path fill="#434244" d="m142.242 455.427-11.501 7.273c-2.248-3.885-5.085-8.835-8.176-14.221-11.115-19.414-25.392-44.672-26.256-47.776-.824-2.972-4.271-29.558-6.295-48.8.102 25.186-4.047 57.118-4.149 57.859.63 12.354 1.495 30.501 1.83 42.48.204 7.476.285 15.408.306 22.377H74.496c-1.79-10.367-3.711-22.082-4.382-28.229-.906-8.338-2.065-27.672-2.726-39.732-2.44-8.46-16.9-48.486-15.63-68.418 0-10.701 3.692-19.546 6.143-27.692l.274.031c.6.061 2.176.213 4.495.405h.112c4.423.376 11.5.853 19.789 1.035 2.542.061 5.206.091 7.952.071 10.189-.03 21.385-.619 31.391-2.373 1.23 2.972 2.258 6.238 3.224 9.453 2.328 7.719 3.437 16.636 2.349 27.144-3.549 18.999-9.061 48.608-9.061 48.608s13.555 27.357 14.826 33.25c.783 3.652 5.502 17.355 8.99 27.255"/><path fill="#CFD1D2" d="M74.496 474.619c-1.79-10.367-3.711-22.082-4.382-28.229-.906-8.338-2.065-27.672-2.726-39.732-2.44-8.46-16.9-48.486-15.63-68.418 0-10.701 3.692-19.546 6.143-27.692l.274.031 4.495.405h.112s-8.593 26.049-2.39 51.063c6.203 25.003 9.528 41.466 10.28 42.998.753 1.531 3.824 69.574 3.824 69.574M122.616 448.55l-.051-.071c-11.114-19.414-25.391-44.672-26.256-47.776-.823-2.972-4.27-29.558-6.294-48.8l-6.132-9.109 10.169 7.486 5.593 49.703z" style="mix-blend-mode:multiply"/><path fill="#434244" d="M100.304 227.656H84.196c-1.515 0-2.735 1.258-2.735 2.82v33.138c0 1.552 1.23 2.82 2.735 2.82h16.108c1.515 0 2.735-1.257 2.735-2.82v-33.138c0-1.552-1.23-2.82-2.735-2.82"/><path fill="#6D6E70" d="M84.79 229.735c-.742 0-1.353.609-1.353 1.349v2.709c0 .74.61 1.349 1.353 1.349.742 0 1.352-.609 1.352-1.349v-2.709c0-.74-.61-1.349-1.352-1.349"/><path fill="#FFD2AB" d="M68.166 261.728s3.112-9.444 5.197-13.887c1.84-3.205 8.918-5.609 10.3-6.157 1.384-.547 6.926 1.735 7.627 3.013.702 1.278-.07 1.765-1.016 1.897-2.471.375-5.797-1.299-6.071-1.217-.275.081-5.196 3.753-5.196 3.753s4.982.202 6.304.365c1.332.162 6.773 3.256 7.088 4.077s-.508 1.907-2.725 1.41c0 0 2.491 1.076 2.959 1.907.386.599.549 3.165-5.807.842 0 0 2.919.802 2.573 2.059-.335 1.289-6.294-.973-6.294-.973s-.53 3.59-4.719 3.753l-4.474 5.781-5.756-6.633z"/><path fill="#FFD2AB" d="m77.147 258.644 1.556 3.611s-10.25 12.984-16.524 26.941c-5.451 10.986-14.766 15.195-19.026 12.903-4.251-2.293-4.332-10.61.477-17.275 3.936-6.136 28.107-29.436 28.107-29.436l5.4 3.256z"/></g><defs><linearGradient id="b" x1="32.716" x2="56.112" y1="168.78" y2="154.864" gradientUnits="userSpaceOnUse"><stop stop-color="gold"/><stop offset="1" stop-color="#E68D35"/></linearGradient><linearGradient id="c" x1="33.043" x2="55.88" y1="168.797" y2="155.214" gradientUnits="userSpaceOnUse"><stop stop-color="#EFCB0A"/><stop offset="1" stop-color="#AF661D"/></linearGradient><linearGradient id="d" x1="34.692" x2="54.732" y1="168.885" y2="156.965" gradientUnits="userSpaceOnUse"><stop stop-color="gold"/><stop offset="1" stop-color="#E68D35"/></linearGradient><linearGradient id="e" x1="34.612" x2="52.036" y1="170.426" y2="160.062" gradientUnits="userSpaceOnUse"><stop stop-color="gold"/><stop offset="1" stop-color="#E68D35"/></linearGradient><linearGradient id="f" x1="33.34" x2="56.483" y1="168.788" y2="155.319" gradientUnits="userSpaceOnUse"><stop stop-color="gold"/><stop offset="1" stop-color="#E68D35"/></linearGradient><linearGradient id="g" x1="35.871" x2="38.886" y1="162.376" y2="161.167" gradientUnits="userSpaceOnUse"><stop stop-color="gold"/><stop offset="1" stop-color="#E68D35"/></linearGradient><linearGradient id="h" x1="33.408" x2="55.971" y1="168.953" y2="155.84" gradientUnits="userSpaceOnUse"><stop stop-color="gold"/><stop offset="1" stop-color="#E68D35"/></linearGradient><linearGradient id="i" x1="36.053" x2="55.198" y1="168.528" y2="157.399" gradientUnits="userSpaceOnUse"><stop stop-color="#EBC704"/><stop offset="1" stop-color="#D17315"/></linearGradient><linearGradient id="l" x1="47.627" x2="51.042" y1="179.557" y2="175.787" gradientUnits="userSpaceOnUse"><stop stop-color="gold"/><stop offset="1" stop-color="#E68D35"/></linearGradient><linearGradient id="n" x1="372.995" x2="399.285" y1="165.417" y2="189.403" gradientUnits="userSpaceOnUse"><stop stop-color="gold"/><stop offset="1" stop-color="#E68D35"/></linearGradient><linearGradient id="o" x1="373.1" x2="398.762" y1="165.836" y2="189.249" gradientUnits="userSpaceOnUse"><stop stop-color="#EFCB0A"/><stop offset="1" stop-color="#AF661D"/></linearGradient><linearGradient id="p" x1="373.61" x2="396.129" y1="167.931" y2="188.477" gradientUnits="userSpaceOnUse"><stop stop-color="gold"/><stop offset="1" stop-color="#E68D35"/></linearGradient><linearGradient id="q" x1="371.653" x2="391.232" y1="168.415" y2="186.279" gradientUnits="userSpaceOnUse"><stop stop-color="gold"/><stop offset="1" stop-color="#E68D35"/></linearGradient><linearGradient id="r" x1="373.217" x2="398.852" y1="166.196" y2="190.036" gradientUnits="userSpaceOnUse"><stop stop-color="gold"/><stop offset="1" stop-color="#E68D35"/></linearGradient><linearGradient id="s" x1="382.198" x2="384.856" y1="166.935" y2="170.249" gradientUnits="userSpaceOnUse"><stop stop-color="gold"/><stop offset="1" stop-color="#E68D35"/></linearGradient><linearGradient id="t" x1="373.039" x2="398.009" y1="166.345" y2="189.594" gradientUnits="userSpaceOnUse"><stop stop-color="gold"/><stop offset="1" stop-color="#E68D35"/></linearGradient><linearGradient id="u" x1="374.575" x2="395.764" y1="169.498" y2="189.225" gradientUnits="userSpaceOnUse"><stop stop-color="#EBC704"/><stop offset="1" stop-color="#D17315"/></linearGradient><linearGradient id="x" x1="365.163" x2="371.173" y1="188.177" y2="191.018" gradientUnits="userSpaceOnUse"><stop stop-color="gold"/><stop offset="1" stop-color="#E68D35"/></linearGradient><clipPath id="a"><path fill="#fff" d="m32 182.561 1.433-27.56 27.56 1.432-1.432 27.56z"/></clipPath><clipPath id="j"><path fill="#fff" d="m38 175.063 4.794-15.842 12.187 3.687-4.795 15.843z"/></clipPath><clipPath id="m"><path fill="#fff" d="m355.492 169.742 35.005-8.65 8.638 35.057-35.005 8.65z"/></clipPath><clipPath id="v"><path fill="#fff" d="M367.141 174.418h21.627v16.656h-21.627z"/></clipPath><clipPath id="y"><path fill="#fff" d="M221 166h152.5v344.84H221z"/></clipPath><clipPath id="z"><path fill="#fff" d="M40 153h121v362H40z"/></clipPath><filter id="k" width="12.789" height="11.246" x="39.008" y="166.091" color-interpolation-filters="sRGB" filterUnits="userSpaceOnUse"><feFlood flood-opacity="0" result="BackgroundImageFix"/><feColorMatrix in="SourceAlpha" result="hardAlpha" values="0 0 0 0 0 0 0 0 0 0 0 0 0 0 0 0 0 0 127 0"/><feOffset dx=".5" dy=".5"/><feGaussianBlur stdDeviation=".25"/><feComposite in2="hardAlpha" operator="out"/><feColorMatrix values="0 0 0 0 0 0 0 0 0 0 0 0 0 0 0 0 0 0 0.1 0"/><feBlend in2="BackgroundImageFix" result="effect1_dropShadow_1598_53545"/><feBlend in="SourceGraphic" in2="effect1_dropShadow_1598_53545" result="shape"/></filter><filter id="w" width="15.852" height="15.373" x="367.141" y="174.417" color-interpolation-filters="sRGB" filterUnits="userSpaceOnUse"><feFlood flood-opacity="0" result="BackgroundImageFix"/><feColorMatrix in="SourceAlpha" result="hardAlpha" values="0 0 0 0 0 0 0 0 0 0 0 0 0 0 0 0 0 0 127 0"/><feOffset dx=".5" dy=".5"/><feGaussianBlur stdDeviation=".25"/><feComposite in2="hardAlpha" operator="out"/><feColorMatrix values="0 0 0 0 0 0 0 0 0 0 0 0 0 0 0 0 0 0 0.1 0"/><feBlend in2="BackgroundImageFix" result="effect1_dropShadow_1598_53545"/><feBlend in="SourceGraphic" in2="effect1_dropShadow_1598_53545" result="shape"/></filter></defs></svg>