<svg width="28" height="29" viewBox="0 0 28 29" fill="none" xmlns="http://www.w3.org/2000/svg">
<g clip-path="url(#clip0_2348_48299)">
<path d="M21.8946 8.666C21.8843 8.666 21.8745 8.66273 21.8638 8.6618C19.4274 8.31366 16.9539 8.31366 14.5175 8.6618C13.722 8.77549 12.935 8.94231 12.1618 9.16113C11.6745 9.29621 11.1972 9.46492 10.7333 9.66607V1.4C10.7333 0.626801 10.1065 0 9.33333 0C5.6522 0.00570157 2.60391 2.86048 2.35713 6.53333H1.4C0.626801 6.53333 0 7.16014 0 7.93333V11.6667C0 12.4399 0.626801 13.0667 1.4 13.0667H2.35713C2.60391 16.7395 5.6522 19.5943 9.33333 19.6C10.0137 19.5983 10.5943 19.1076 10.7095 18.4371C11.0434 18.8323 11.4082 19.2003 11.8006 19.5375L8.58993 25.6018C8.31684 26.1176 8.33965 26.7398 8.64976 27.2342C8.95988 27.7286 9.51019 28.02 10.0934 27.9986C10.6766 27.9773 11.2041 27.6464 11.4772 27.1306L14.5959 21.2399C15.3053 21.5203 16.045 21.7167 16.8 21.8251V25.6667C16.8 26.4399 17.4268 27.0667 18.2 27.0667C18.9732 27.0667 19.6 26.4399 19.6 25.6667V21.8251C20.355 21.7166 21.0947 21.5202 21.8041 21.2399L24.9228 27.1306C25.1959 27.6464 25.7234 27.9773 26.3066 27.9986C26.8898 28.02 27.4401 27.7286 27.7502 27.2342C28.0604 26.7398 28.0832 26.1176 27.8101 25.6018L24.6022 19.5426C26.7662 17.6904 28.0083 14.9818 28 12.1333C28 10.3432 25.2467 9.16207 21.8946 8.666ZM23.7099 14.2912L22.4569 9.69687C22.9236 9.78227 23.3618 9.88353 23.7692 9.99087L25.3727 13.72C24.8346 13.9546 24.2786 14.1456 23.7099 14.2912ZM20.4829 14.8311L19.9659 9.39307C20.4825 9.4276 20.9748 9.47847 21.4471 9.54053L22.8004 14.5026C22.0346 14.6549 21.2609 14.7646 20.4829 14.8311ZM19.0246 9.3478L19.5533 14.8955C19.1147 14.9179 18.6667 14.9333 18.2 14.9333C17.7431 14.9333 17.2923 14.9203 16.8467 14.8974L17.3819 9.3464C17.6538 9.33769 17.9265 9.33333 18.2 9.33333C18.48 9.33333 18.7535 9.3394 19.0246 9.3478ZM13.6001 14.5003L14.9478 9.54427C15.4317 9.47987 15.9311 9.42993 16.4411 9.39493L15.9175 14.833C15.1395 14.7651 14.3658 14.654 13.6001 14.5003ZM12.4171 10.0571C12.8879 9.9204 13.3999 9.8042 13.937 9.7048L12.6905 14.2879C12.0152 14.117 11.3593 13.8768 10.7333 13.5711V10.6983C11.2718 10.429 11.8359 10.2142 12.4171 10.0571ZM0.933333 11.6667V7.93333C0.933333 7.6756 1.14227 7.46667 1.4 7.46667H2.33333V12.1333H1.4C1.14227 12.1333 0.933333 11.9244 0.933333 11.6667ZM9.33333 18.6667C5.98441 18.6628 3.27052 15.9489 3.26667 12.6V7C3.27052 3.65107 5.98441 0.937191 9.33333 0.933333C9.59107 0.933333 9.8 1.14227 9.8 1.4V18.2C9.8 18.4577 9.59107 18.6667 9.33333 18.6667ZM10.6521 26.6933C10.4673 27.0301 10.0483 27.1589 9.7062 26.9841C9.36464 26.8032 9.23429 26.3798 9.415 26.0381L13.1208 19.0381C13.2074 18.8741 13.3559 18.7513 13.5333 18.697C13.6005 18.6767 13.6704 18.6665 13.7405 18.6667C13.9856 18.6671 14.2127 18.7957 14.3391 19.0057C14.4655 19.2157 14.4728 19.4766 14.3584 19.6933L10.6521 26.6933ZM18.2 26.1333C17.9423 26.1333 17.7333 25.9244 17.7333 25.6667V21.9221C17.885 21.9291 18.0395 21.9333 18.2 21.9333C18.3605 21.9333 18.515 21.9291 18.6667 21.9221V25.6667C18.6667 25.9244 18.4577 26.1333 18.2 26.1333ZM27.0354 26.572C26.9813 26.7501 26.8578 26.8989 26.6929 26.985C26.3509 27.1584 25.933 27.0296 25.7479 26.6938L22.0416 19.6938C21.927 19.477 21.9342 19.216 22.0606 19.0058C22.187 18.7957 22.4142 18.667 22.6595 18.6667C22.7294 18.6669 22.7989 18.6775 22.8657 18.6979C23.0434 18.7524 23.1922 18.8753 23.2792 19.0395L26.985 26.0395C27.0723 26.2032 27.0904 26.3949 27.0354 26.572ZM24.1542 18.6965L24.1038 18.6032C23.6815 17.806 22.6929 17.5021 21.8958 17.9244C21.0986 18.3467 20.7947 19.3353 21.217 20.1325L21.3654 20.4125C19.3284 21.1989 17.0716 21.1989 15.0346 20.4125L15.183 20.1325C15.4596 19.6164 15.4388 18.9918 15.1286 18.4953C14.8183 17.9988 14.266 17.7063 13.681 17.7287C13.0959 17.7511 12.5676 18.0849 12.2962 18.6037L12.2495 18.6937C11.6666 18.1676 11.1567 17.5659 10.7333 16.9045V14.602C11.4269 14.896 12.1453 15.1276 12.88 15.2941C12.8864 15.298 12.8931 15.3014 12.9001 15.3043C12.9177 15.3081 12.9357 15.3104 12.9537 15.3113C14.0506 15.5585 15.1649 15.7211 16.2867 15.7976H16.2923C16.3072 15.7976 16.3226 15.7999 16.3389 15.7999C16.9456 15.8424 17.5686 15.8653 18.2005 15.8653C18.8179 15.8653 19.4399 15.8429 20.0559 15.799H20.062C20.0776 15.7992 20.0932 15.7985 20.1087 15.7967C20.1133 15.7967 20.1166 15.7939 20.1213 15.7929C21.2387 15.7153 22.3488 15.554 23.4421 15.3104C23.4631 15.3089 23.484 15.3061 23.5046 15.302C23.5139 15.2992 23.5205 15.2927 23.5298 15.2894C24.7226 15.0529 25.8601 14.5938 26.8828 13.9361C26.5061 15.774 25.5497 17.4426 24.1542 18.6965ZM26.1982 13.2776L24.948 10.3693C26.2887 10.8845 27.0667 11.5239 27.0667 12.1333C27.0667 12.5155 26.7549 12.9094 26.1982 13.2776Z" fill="black"/>
<path d="M4.66589 7.46668C4.92362 7.46668 5.13255 7.25775 5.13255 7.00002C5.13759 5.00593 6.5398 3.28842 8.49255 2.88448C8.73949 2.82784 8.89613 2.5845 8.84544 2.33627C8.79476 2.08804 8.55527 1.92559 8.30589 1.97028C5.91908 2.46356 4.20511 4.56278 4.19922 7.00002C4.19922 7.12379 4.24839 7.24248 4.3359 7.33C4.42342 7.41752 4.54212 7.46668 4.66589 7.46668Z" fill="black"/>
<path d="M14.6389 3.8948C14.2552 4.1411 14.0166 4.55968 14 5.01527C14.017 5.4706 14.2556 5.88884 14.6389 6.13527C14.8722 6.3266 14.9333 6.39287 14.9333 6.53193C14.9333 6.78967 15.1423 6.9986 15.4 6.9986C15.6577 6.9986 15.8667 6.78967 15.8667 6.53193C15.8499 6.07651 15.6113 5.65814 15.2278 5.41193C14.9945 5.22013 14.9333 5.1534 14.9333 5.01433C14.9333 4.87527 14.9926 4.809 15.2278 4.61767C15.6112 4.37115 15.8498 3.9527 15.8667 3.4972C15.8503 3.04155 15.6114 2.62295 15.2273 2.3772C14.994 2.18633 14.9333 2.12007 14.9333 1.98193C14.9333 1.8438 14.9926 1.77753 15.2278 1.5862C15.6115 1.34043 15.8503 0.922056 15.8667 0.466667C15.8667 0.208934 15.6577 0 15.4 0C15.1423 0 14.9333 0.208934 14.9333 0.466667C14.9333 0.606667 14.8741 0.671067 14.6393 0.861933C14.2553 1.10769 14.0163 1.52629 14 1.98193C14.0162 2.43749 14.255 2.85607 14.6389 3.10193C14.8722 3.29327 14.9333 3.35953 14.9333 3.49767C14.9333 3.6358 14.8741 3.70347 14.6389 3.8948Z" fill="black"/>
<path d="M17.4396 3.8948C17.056 4.1411 16.8173 4.55968 16.8008 5.01527C16.8178 5.4706 17.0564 5.88884 17.4396 6.13527C17.673 6.3266 17.7341 6.39287 17.7341 6.53193C17.7341 6.78967 17.943 6.9986 18.2008 6.9986C18.4585 6.9986 18.6674 6.78967 18.6674 6.53193C18.6507 6.07651 18.4121 5.65814 18.0286 5.41193C17.7952 5.22013 17.7341 5.1534 17.7341 5.01433C17.7341 4.87527 17.7934 4.809 18.0286 4.61767C18.412 4.37115 18.6506 3.9527 18.6674 3.4972C18.6511 3.04155 18.4122 2.62295 18.0281 2.3772C17.7948 2.18633 17.7341 2.12007 17.7341 1.98193C17.7341 1.8438 17.7934 1.77753 18.0286 1.5862C18.4123 1.34043 18.6511 0.922056 18.6674 0.466667C18.6674 0.208934 18.4585 0 18.2008 0C17.943 0 17.7341 0.208934 17.7341 0.466667C17.7341 0.606667 17.6748 0.671067 17.4401 0.861933C17.0561 1.10769 16.8171 1.52629 16.8008 1.98193C16.817 2.43749 17.0558 2.85607 17.4396 3.10193C17.673 3.29327 17.7341 3.35953 17.7341 3.49767C17.7341 3.6358 17.6748 3.70347 17.4396 3.8948Z" fill="black"/>
<path d="M20.2365 3.8948C19.8529 4.1411 19.6142 4.55968 19.5977 5.01527C19.6147 5.4706 19.8533 5.88884 20.2365 6.13527C20.4699 6.3266 20.531 6.39287 20.531 6.53193C20.531 6.78967 20.7399 6.9986 20.9977 6.9986C21.2554 6.9986 21.4643 6.78967 21.4643 6.53193C21.4476 6.07651 21.209 5.65814 20.8255 5.41193C20.5921 5.22013 20.531 5.1534 20.531 5.01433C20.531 4.87527 20.5903 4.809 20.8255 4.61767C21.2089 4.37115 21.4474 3.9527 21.4643 3.4972C21.448 3.04155 21.209 2.62295 20.825 2.3772C20.5917 2.18633 20.531 2.12007 20.531 1.98193C20.531 1.8438 20.5903 1.77753 20.8255 1.5862C21.2092 1.34043 21.4479 0.922056 21.4643 0.466667C21.4643 0.208934 21.2554 0 20.9977 0C20.7399 0 20.531 0.208934 20.531 0.466667C20.531 0.606667 20.4717 0.671067 20.237 0.861933C19.853 1.10769 19.614 1.52629 19.5977 1.98193C19.6139 2.43749 19.8527 2.85607 20.2365 3.10193C20.4699 3.29327 20.531 3.35953 20.531 3.49767C20.531 3.6358 20.4717 3.70347 20.2365 3.8948Z" fill="black"/>
</g>
<defs>
<clipPath id="clip0_2348_48299">
<rect width="28" height="28" fill="white"/>
</clipPath>
</defs>
</svg>
