<svg width="28" height="29" viewBox="0 0 28 29" fill="none" xmlns="http://www.w3.org/2000/svg">
<g clip-path="url(#clip0_2348_48201)">
<path d="M20.7957 20.9297C20.421 20.2586 19.5687 20.0168 18.8956 20.3906C18.8953 20.3908 18.8951 20.3909 18.8948 20.391L15.6984 22.1729L14.627 20.2608L17.4074 15.2987C17.5551 15.0352 17.4611 14.7019 17.1977 14.5543C16.9343 14.4066 16.6009 14.5006 16.4533 14.764L14.0002 19.142L11.547 14.764C11.3993 14.5005 11.0661 14.4067 10.8026 14.5542C10.5392 14.7018 10.4452 15.0352 10.5929 15.2986L13.3733 20.2607L12.3019 22.1729L9.10543 20.391C9.10515 20.3908 9.10493 20.3907 9.10466 20.3905C8.4319 20.0167 7.57937 20.2585 7.20525 20.9285L6.54758 22.0997C6.17275 22.7712 6.41453 23.6233 7.08757 23.9998L8.95591 25.0402C9.35841 25.2646 9.7952 25.3711 10.2265 25.3711C11.1431 25.3711 12.0338 24.8899 12.5119 24.0368L14.0002 21.3795L15.4886 24.037C15.9666 24.8901 16.8572 25.3711 17.7738 25.3711C18.2049 25.3711 18.642 25.2646 19.0442 25.0403L20.9137 23.9992C21.5858 23.6233 21.8276 22.7711 21.4521 22.0985L20.7957 20.9297ZM11.5576 23.5024C11.1489 24.2318 10.2206 24.493 9.48829 24.0848L7.62066 23.0447C7.47443 22.9629 7.42149 22.7782 7.50199 22.6341L8.15966 21.4629C8.21424 21.365 8.32 21.3092 8.42757 21.3092C8.47734 21.3092 8.52749 21.3212 8.57321 21.3464L11.7675 23.1271L11.5576 23.5024ZM20.3806 23.0442L18.5119 24.0849C17.7796 24.493 16.8515 24.2317 16.443 23.5027L16.2328 23.1272L19.4269 21.3466C19.5714 21.2666 19.7608 21.3197 19.8413 21.4641L20.4978 22.6329C20.5789 22.7782 20.5259 22.9629 20.3806 23.0442Z" fill="#191919" stroke="#191919" stroke-width="0.25"/>
<path d="M14.0909 13.2957C14.6942 13.2957 15.2974 13.0667 15.7567 12.6086C16.2021 12.1643 16.4475 11.5736 16.4475 10.9451C16.4475 10.3166 16.2022 9.72584 15.7567 9.28162C14.8382 8.36538 13.3436 8.36549 12.4251 9.28162C11.9797 9.72584 11.7344 10.3166 11.7344 10.9451C11.7344 11.5736 11.9796 12.1644 12.4251 12.6086C12.8843 13.0667 13.4876 13.2957 14.0909 13.2957ZM13.1975 10.0559C13.4439 9.81028 13.7674 9.68745 14.091 9.68745C14.4145 9.68745 14.738 9.81028 14.9844 10.0559C15.2226 10.2936 15.3538 10.6093 15.3538 10.9451C15.3538 11.2809 15.2226 11.5966 14.9844 11.8343C14.4917 12.3256 13.6902 12.3255 13.1975 11.8343C12.9594 11.5966 12.8282 11.2809 12.8282 10.9451C12.8282 10.6093 12.9593 10.2936 13.1975 10.0559Z" fill="#191919" stroke="#191919" stroke-width="0.25"/>
<path d="M12.6953 1.37299L12.6954 1.37294L12.6955 1.3728L12.6953 1.37299Z" fill="#191919" stroke="#191919" stroke-width="0.25"/>
<path d="M27.9883 12.3973C27.9302 11.8458 27.661 11.3507 27.2304 11.0031L15.3061 1.37297C14.5371 0.751011 13.4628 0.751011 12.6938 1.37292L0.769654 11.003C0.33899 11.3507 0.0697631 11.8458 0.0116849 12.3973C-0.0464479 12.9491 0.113622 13.4897 0.462966 13.9203C0.873013 14.4244 1.47348 14.6861 2.07876 14.6861C2.5377 14.6861 2.99948 14.5355 3.38295 14.226L3.82264 13.8709V27.5467C3.82264 27.8487 4.06747 28.0936 4.36951 28.0936H23.6305C23.9324 28.0936 24.1773 27.8488 24.1773 27.5467V13.871L24.6171 14.2261C25.5062 14.9438 26.8161 14.8065 27.5375 13.9198C27.8863 13.4897 28.0465 12.949 27.9883 12.3973ZM4.91639 26.9999V12.9874L14.0008 5.65003L23.0836 12.9877V26.9999H4.91639ZM26.6885 13.2301C26.3467 13.6502 25.7256 13.7154 25.3041 13.375L14.3445 4.52166C14.144 4.35962 13.8576 4.35967 13.6572 4.5216L2.69591 13.375C2.27433 13.7152 1.65324 13.6503 1.31188 13.2305C1.14738 13.0278 1.07191 12.7726 1.09936 12.5119C1.12682 12.2515 1.25369 12.0178 1.45675 11.8539L13.3813 2.22358C13.3814 2.22353 13.3815 2.22347 13.3816 2.22336C13.5636 2.0762 13.7817 2.00253 13.9999 2.00253C14.2181 2.00253 14.4364 2.07625 14.6187 2.22358L26.5433 11.854C26.7462 12.0178 26.8731 12.2515 26.9005 12.5119C26.9281 12.7726 26.8526 13.0279 26.6885 13.2301Z" fill="#191919" stroke="#191919" stroke-width="0.25"/>
</g>
<defs>
<clipPath id="clip0_2348_48201">
<rect width="28" height="28" fill="white" transform="translate(0 0.5)"/>
</clipPath>
</defs>
</svg>
