<svg width="28" height="29" viewBox="0 0 28 29" fill="none" xmlns="http://www.w3.org/2000/svg">
<path d="M26.2766 1.66663H1.72596C1.41796 1.66663 1.16797 1.91661 1.16797 2.22461V26.7753C1.16797 27.0833 1.41796 27.3333 1.72596 27.3333H6.1897C6.4977 27.3333 6.74769 27.0833 6.74769 26.7753V26.2173H21.2549V26.7753C21.2549 27.0833 21.5049 27.3333 21.8129 27.3333H26.2766C26.5846 27.3333 26.8346 27.0833 26.8346 26.7753V2.22461C26.8346 1.91661 26.5846 1.66663 26.2766 1.66663ZM25.7187 26.2173H22.3708V25.6593C22.3708 25.3513 22.1208 25.1013 21.8128 25.1013H6.1897C5.8817 25.1013 5.63172 25.3513 5.63172 25.6593V26.2173H2.28389V2.78255H25.7187V26.2173Z" fill="#191919" stroke="#191919" stroke-width="0.25"/>
<path d="M21.8101 7.24646H6.18689C5.87889 7.24646 5.62891 7.49645 5.62891 7.80445V25.6595C5.62891 25.9675 5.87889 26.2175 6.18689 26.2175H21.8101C22.1181 26.2175 22.3681 25.9675 22.3681 25.6595V7.8044C22.368 7.4964 22.1181 7.24646 21.8101 7.24646ZM21.2521 25.1015H6.74488V8.36238H21.2521V25.1015Z" fill="#191919" stroke="#191919" stroke-width="0.25"/>
<path d="M14.0033 7.24646C13.6953 7.24646 13.4453 7.49645 13.4453 7.80445V25.6595C13.4453 25.9675 13.6953 26.2175 14.0033 26.2175C14.3113 26.2175 14.5613 25.9675 14.5613 25.6595V7.8044C14.5613 7.4964 14.3113 7.24646 14.0033 7.24646Z" fill="#191919" stroke="#191919" stroke-width="0.25"/>
<path d="M24.0424 13.942C24.3505 13.942 24.6004 13.6922 24.6004 13.384C24.6004 13.0759 24.3505 12.826 24.0424 12.826C23.7342 12.826 23.4844 13.0759 23.4844 13.384C23.4844 13.6922 23.7342 13.942 24.0424 13.942Z" fill="#191919" stroke="#191919" stroke-width="0.25"/>
<path d="M24.0424 16.174C24.3505 16.174 24.6004 15.9241 24.6004 15.616C24.6004 15.3078 24.3505 15.058 24.0424 15.058C23.7342 15.058 23.4844 15.3078 23.4844 15.616C23.4844 15.9241 23.7342 16.174 24.0424 16.174Z" fill="#191919" stroke="#191919" stroke-width="0.25"/>
<path d="M12.1606 5.17842L11.0447 4.0625C10.8271 3.84489 10.4733 3.84489 10.2557 4.0625L9.13977 5.17842C8.92216 5.39603 8.92216 5.7498 9.13977 5.96741C9.35738 6.18502 9.71115 6.18502 9.92876 5.96741L10.6496 5.24538L11.3705 5.96741C11.4799 6.07564 11.6227 6.13036 11.7656 6.13036C11.9084 6.13036 12.0512 6.07569 12.1606 5.96741C12.3782 5.7498 12.3782 5.39603 12.1606 5.17842Z" fill="#191919" stroke="#191919" stroke-width="0.25"/>
<path d="M18.8599 4.0625C18.6423 3.84489 18.2885 3.84489 18.0709 4.0625L17.35 4.78338L16.628 4.0625C16.4104 3.84489 16.0566 3.84489 15.839 4.0625C15.6214 4.28011 15.6214 4.63388 15.839 4.85149L16.9549 5.96741C17.0643 6.07564 17.2071 6.13035 17.35 6.13035C17.4928 6.13035 17.6356 6.07569 17.7439 5.96741L18.8598 4.85149C19.0775 4.63383 19.0775 4.28011 18.8599 4.0625Z" fill="#191919" stroke="#191919" stroke-width="0.25"/>
</svg>
