<svg width="82" height="82" viewBox="0 0 82 82" fill="none" xmlns="http://www.w3.org/2000/svg">
<path d="M0.423828 49.8927L37.1959 71.1231L74.0364 49.8533L37.2301 28.6823L0.423828 49.8927Z" fill="#FB7C78"/>
<path opacity="0.3" d="M4.57812 49.8945L37.2303 31.0778L69.8776 49.8566L37.1952 68.7259L4.57812 49.8945Z" fill="#FB7C78"/>
<path d="M0.423828 49.8928V57.2132L37.1959 78.4436V71.1232L0.423828 49.8928Z" fill="#FA595C"/>
<path d="M74.0357 49.8533L37.1953 71.1231V78.4435L74.0357 57.1735V49.8533Z" fill="#FA595C"/>
<path d="M56.1063 45.0905L56.4238 44.982C56.4238 44.982 56.1779 41.1625 54.3971 38.2457C52.7448 35.5393 51.4737 34.862 51.4737 34.862L51.1152 35.0605C51.1152 35.0605 54.8951 38.5195 56.1063 45.0905Z" fill="#F04E70"/>
<path d="M51.1152 35.0605C51.1152 35.0605 55.2494 37.8487 56.1065 45.0905C54.3808 43.1835 52.6872 41.6414 51.1152 41.4848V35.0605Z" fill="#C73855"/>
<path d="M53.4133 44.9917C53.4219 46.8911 51.2017 48.441 48.4545 48.4534C45.7063 48.4658 43.4722 46.9363 43.4636 45.0369L43.4023 31.544L53.352 31.4988L53.41 44.8852C53.4122 44.9201 53.4131 44.956 53.4133 44.9917Z" fill="white"/>
<path d="M53.352 31.499C53.352 31.499 51.8483 33.5244 48.385 33.5403C44.9218 33.556 43.4023 31.5442 43.4023 31.5442C43.4023 31.5442 43.8245 24.3719 48.3278 20.5281C52.8657 24.3307 53.352 31.499 53.352 31.499Z" fill="#FB7C78"/>
<path d="M53.352 31.499C53.352 31.499 51.8483 33.5244 48.385 33.5403C44.9218 33.556 43.4023 31.5442 43.4023 31.5442C44.7574 32.6981 49.045 33.7896 50.1343 30.6014C51.2237 27.4122 48.3278 20.5281 48.3278 20.5281C52.8657 24.3307 53.352 31.499 53.352 31.499Z" fill="#FA595C"/>
<path d="M53.4227 47.2297C53.4312 49.1292 51.2111 50.679 48.4638 50.6914C45.7156 50.7039 43.4815 49.1744 43.473 47.2749L43.4629 45.0369C43.4714 46.9364 45.7057 48.4661 48.4537 48.4535C51.1492 48.4412 53.3373 46.9488 53.4102 45.0982L53.4194 47.123C53.4213 47.1581 53.4225 47.194 53.4227 47.2297Z" fill="#C73855"/>
<path d="M53.4184 46.3121C53.4186 46.348 53.4178 46.3837 53.4163 46.4186C53.3431 48.2694 51.155 49.7616 48.4597 49.7738C45.7115 49.7862 43.4774 48.2567 43.4689 46.3573L43.4629 45.0369C43.4714 46.9364 45.7057 48.4661 48.4537 48.4535C51.1492 48.4412 53.3373 46.9488 53.4102 45.0982L53.4153 46.2056C53.4172 46.2405 53.4182 46.2764 53.4184 46.3121Z" fill="#F04E70"/>
<path d="M53.4184 42.9564C53.4186 42.9923 53.4178 43.028 53.4163 43.0629C53.3431 44.9137 51.155 46.4059 48.4597 46.4182C45.7115 46.4306 43.4774 44.9011 43.4689 43.0016L43.4629 41.6813C43.4714 43.5807 45.7057 45.1104 48.4537 45.0978C51.1492 45.0856 53.3373 43.5931 53.4102 41.7426L53.4153 42.8499C53.4172 42.8847 53.4182 42.9205 53.4184 42.9564Z" fill="#DDE3E8"/>
<path d="M53.4184 39.8849C53.4186 39.9208 53.4178 39.9565 53.4163 39.9914C53.3431 41.842 51.155 43.3344 48.4597 43.3466C45.7115 43.3591 43.4774 41.8296 43.4689 39.9301L43.4629 38.6097C43.4714 40.5092 45.7057 42.0389 48.4537 42.0263C51.1492 42.0141 53.3373 40.5216 53.4102 38.671L53.4153 39.7784C53.4172 39.8133 53.4182 39.8492 53.4184 39.8849Z" fill="#DDE3E8"/>
<path d="M47.8539 48.0111C47.8706 51.6823 43.5797 54.6775 38.2701 54.7018C32.9587 54.7258 28.6409 51.7696 28.6242 48.0984L28.5059 22.0207L47.7357 21.9334L47.848 47.8053C47.8515 47.8726 47.8537 47.9418 47.8539 48.0111Z" fill="white"/>
<path d="M47.7357 21.9334C47.7357 21.9334 44.8296 25.8481 38.1358 25.8784C31.4422 25.9089 28.5059 22.0207 28.5059 22.0207C28.5059 22.0207 29.3218 8.15882 38.0252 0.72998C46.7956 8.07948 47.7357 21.9334 47.7357 21.9334Z" fill="#FB7C78"/>
<path d="M47.7357 21.9334C47.7357 21.9334 44.8296 25.8481 38.1358 25.8784C31.4422 25.9089 28.5059 22.0207 28.5059 22.0207C31.1251 24.2511 39.4114 26.3605 41.5167 20.1987C43.622 14.0351 38.0251 0.72998 38.0251 0.72998C46.7956 8.07948 47.7357 21.9334 47.7357 21.9334Z" fill="#FA595C"/>
<path d="M47.8743 52.3363C47.8909 56.0076 43.6001 59.0029 38.2905 59.027C32.9791 59.051 28.6611 56.0949 28.6446 52.4236L28.625 48.0984C28.6417 51.7696 32.9595 54.7258 38.2709 54.7018C43.4802 54.6781 47.7094 51.7939 47.8506 48.2171L47.8684 52.1305C47.8717 52.198 47.8739 52.2673 47.8743 52.3363Z" fill="#C73855"/>
<path d="M47.8663 50.5632C47.8667 50.6324 47.8651 50.7015 47.862 50.769C47.7208 54.3458 43.4916 57.2302 38.2825 57.2536C32.9712 57.2777 28.6531 54.3215 28.6366 50.6503L28.625 48.0984C28.6417 51.7696 32.9595 54.7258 38.2709 54.7018C43.4802 54.6781 47.7094 51.7939 47.8506 48.2171L47.8603 50.3571C47.864 50.4246 47.8659 50.4939 47.8663 50.5632Z" fill="#F04E70"/>
<path d="M47.8429 45.2433C47.8433 45.3125 47.8417 45.3818 47.8386 45.4491C47.6974 49.0259 43.4682 51.9101 38.2591 51.9338C32.9477 51.9578 28.6299 49.0016 28.6132 45.3304L28.6016 42.7785C28.6182 46.4498 32.9361 49.4059 38.2474 49.3819C43.4567 49.3582 47.6859 46.474 47.827 42.8972L47.8367 45.0372C47.8405 45.1049 47.8427 45.174 47.8429 45.2433Z" fill="#DDE3E8"/>
<path d="M47.8157 39.568C47.8161 39.6373 47.8146 39.7064 47.8115 39.7739C47.6702 43.3507 43.4412 46.235 38.2317 46.2585C32.9204 46.2826 28.6025 43.3264 28.5859 39.6551L28.5742 37.1033C28.5909 40.7745 32.9088 43.7307 38.2201 43.7066C43.4294 43.683 47.6586 40.7988 47.7998 37.222L47.8095 39.3622C47.8132 39.4297 47.8153 39.4988 47.8157 39.568Z" fill="#DDE3E8"/>
<path d="M32.5032 52.3225C32.5119 54.222 30.2916 55.7719 27.5443 55.7843C24.7961 55.7967 22.562 54.2672 22.5535 52.3677L22.4922 38.8749L32.4419 38.8297L32.5001 52.216C32.502 52.251 32.503 52.2867 32.5032 52.3225Z" fill="white"/>
<path d="M32.4419 38.8297C32.4419 38.8297 30.9382 40.8552 27.4749 40.8709C24.0116 40.8866 22.4922 38.8749 22.4922 38.8749C22.4922 38.8749 22.9143 31.7025 27.4177 27.8588C31.9555 31.6616 32.4419 38.8297 32.4419 38.8297Z" fill="#FB7C78"/>
<path d="M32.4419 38.8296C32.4419 38.8296 30.9382 40.8552 27.4749 40.8709C24.0116 40.8866 22.4922 38.8749 22.4922 38.8749C23.8473 40.029 28.1349 41.1202 29.2242 37.9322C30.3135 34.743 27.4177 27.8589 27.4177 27.8589C31.9555 31.6615 32.4419 38.8296 32.4419 38.8296Z" fill="#FA595C"/>
<path d="M32.5125 54.5605C32.521 56.46 30.3009 58.0098 27.5537 58.0223C24.8055 58.0347 22.5714 56.5052 22.5628 54.6057L22.5527 52.3677C22.5613 54.2672 24.7956 55.7969 27.5436 55.7843C30.239 55.772 32.4271 54.2796 32.5001 52.429L32.5092 54.4538C32.5111 54.4889 32.5123 54.5246 32.5125 54.5605Z" fill="#C73855"/>
<path d="M32.5082 53.6429C32.5084 53.6788 32.5076 53.7145 32.5061 53.7494C32.433 55.6002 30.2448 57.0924 27.5496 57.1046C24.8014 57.117 22.5673 55.5876 22.5587 53.6881L22.5527 52.3677C22.5613 54.2672 24.7956 55.7969 27.5436 55.7843C30.239 55.772 32.4271 54.2796 32.5001 52.429L32.5051 53.5364C32.5071 53.5713 32.508 53.607 32.5082 53.6429Z" fill="#F04E70"/>
<path d="M32.5082 50.3767C32.5084 50.4124 32.5076 50.4483 32.5061 50.4832C32.433 52.3338 30.2448 53.8262 27.5496 53.8385C24.8014 53.8509 22.5673 52.3214 22.5587 50.4219L22.5527 49.1016C22.5613 51.001 24.7956 52.5307 27.5436 52.5181C30.239 52.5059 32.4271 51.0134 32.5001 49.1629L32.5051 50.2702C32.5071 50.3049 32.508 50.3408 32.5082 50.3767Z" fill="#DDE3E8"/>
<path d="M32.5082 47.4708C32.5084 47.5067 32.5076 47.5424 32.5061 47.5773C32.433 49.4281 30.2448 50.9204 27.5496 50.9326C24.8014 50.945 22.5673 49.4155 22.5587 47.516L22.5527 46.1957C22.5613 48.0951 24.7956 49.6248 27.5436 49.6122C30.239 49.6 32.4271 48.1076 32.5001 46.257L32.5051 47.3643C32.5071 47.3993 32.508 47.435 32.5082 47.4708Z" fill="#DDE3E8"/>
<path d="M42.6919 38.5073C45.0156 38.5073 46.8993 36.0602 46.8993 33.0415C46.8993 30.0228 45.0156 27.5757 42.6919 27.5757C40.3681 27.5757 38.4844 30.0228 38.4844 33.0415C38.4844 36.0602 40.3681 38.5073 42.6919 38.5073Z" fill="#C73855"/>
<path d="M43.1079 38.5073C45.4316 38.5073 47.3153 36.0602 47.3153 33.0415C47.3153 30.0228 45.4316 27.5757 43.1079 27.5757C40.7841 27.5757 38.9004 30.0228 38.9004 33.0415C38.9004 36.0602 40.7841 38.5073 43.1079 38.5073Z" fill="#F04E70"/>
<path d="M46.7892 33.0842C46.7892 35.5916 45.2258 37.6234 43.2951 37.6234C43.2416 37.6234 43.188 37.6219 43.1343 37.617C43.1279 37.6186 43.1217 37.6186 43.1153 37.617C41.2698 37.4956 39.8008 35.5129 39.8008 33.0842C39.8008 30.6555 41.2698 28.6726 43.1153 28.5514C43.1217 28.5498 43.1279 28.5498 43.1343 28.5514C43.1878 28.5467 43.2414 28.545 43.2951 28.545C45.2258 28.545 46.7892 30.5766 46.7892 33.0842Z" fill="#C73855"/>
<path d="M46.4488 33.0842C46.4488 35.5129 44.9798 37.4956 43.1343 37.617C43.1279 37.6186 43.1217 37.6186 43.1153 37.617C43.0458 37.6124 42.9766 37.606 42.9089 37.5933C41.1609 37.346 39.8008 35.4215 39.8008 33.0842C39.8008 30.7469 41.1609 28.8224 42.9089 28.5751C42.9766 28.5625 43.046 28.5561 43.1153 28.5514C43.1217 28.5498 43.1279 28.5498 43.1343 28.5514C44.98 28.6726 46.4488 30.6555 46.4488 33.0842Z" fill="#80B4D6"/>
<path d="M46.0154 33.0842C46.0154 35.4215 44.6552 37.3445 42.9089 37.5934C41.1609 37.346 39.8008 35.4215 39.8008 33.0842C39.8008 30.7469 41.1609 28.8224 42.9089 28.5751C44.6552 28.824 46.0154 30.7469 46.0154 33.0842Z" fill="#9DC8EB"/>
<path d="M19.8265 54.1539L19.4727 54.033C19.4727 54.033 19.747 49.7759 21.7316 46.5248C23.5732 43.5081 24.9898 42.7533 24.9898 42.7533L25.3895 42.9745C25.3895 42.9745 21.1764 46.8298 19.8265 54.1539Z" fill="#F04E70"/>
<path d="M25.3891 42.9745C25.3891 42.9745 20.7814 46.082 19.8262 54.1537C21.7495 52.0281 23.6373 50.3092 25.3891 50.135V42.9745Z" fill="#C73855"/>
<path d="M42.5552 63.2064C42.5822 63.2084 42.61 63.208 42.6379 63.2045C42.8752 63.1764 43.0447 62.9614 43.0168 62.7241L39.1552 29.9938C39.1271 29.7566 38.9123 29.5874 38.6749 29.6149C38.4376 29.6431 38.268 29.858 38.296 30.0953L42.1575 62.8256C42.1824 63.0349 42.3525 63.1917 42.5552 63.2064Z" fill="#28225E"/>
<path d="M48.3516 60.142C48.3786 60.144 48.4063 60.1434 48.4342 60.1401C48.6715 60.1119 48.8411 59.897 48.8131 59.6597L44.9892 27.2485C44.9611 27.0113 44.7463 26.8413 44.5088 26.8697C44.2716 26.8978 44.102 27.1127 44.13 27.35L47.9539 59.7612C47.9787 59.9705 48.1491 60.1271 48.3516 60.142Z" fill="#28225E"/>
<path d="M39.2003 32.414C39.2736 32.4192 39.3491 32.4061 39.4199 32.3719L44.9 29.7186C45.115 29.6144 45.205 29.3558 45.1008 29.1408C44.997 28.9259 44.7382 28.8357 44.5231 28.9401L39.043 31.5934C38.828 31.6976 38.738 31.9562 38.8422 32.1711C38.9118 32.3151 39.0513 32.4031 39.2003 32.414Z" fill="#28225E"/>
<path d="M39.7884 37.1654C39.8615 37.1707 39.9372 37.1575 40.0078 37.1232L45.5471 34.4411C45.762 34.3369 45.8521 34.0783 45.7479 33.8634C45.6439 33.6484 45.3853 33.5582 45.1701 33.6626L39.6309 36.3446C39.4159 36.4488 39.3259 36.7074 39.4301 36.9224C39.4999 37.0667 39.6392 37.1546 39.7884 37.1654Z" fill="#28225E"/>
<path d="M40.3743 41.9169C40.4475 41.9221 40.5231 41.9089 40.5937 41.8746L46.1078 39.2048C46.3228 39.1006 46.4128 38.842 46.3086 38.627C46.2046 38.4121 45.946 38.3219 45.7309 38.4263L40.2168 41.0961C40.0019 41.2003 39.9118 41.4589 40.016 41.6738C40.0859 41.8182 40.2253 41.906 40.3743 41.9169Z" fill="#28225E"/>
<path d="M40.9622 46.6685C41.0354 46.6737 41.111 46.6605 41.1816 46.6262L46.6559 43.9756C46.8709 43.8714 46.9609 43.6128 46.8567 43.3978C46.7527 43.1831 46.4943 43.0925 46.279 43.1971L40.8047 45.8477C40.5897 45.9519 40.4997 46.2105 40.6039 46.4254C40.6736 46.5696 40.813 46.6576 40.9622 46.6685Z" fill="#28225E"/>
<path d="M41.5482 51.42C41.6213 51.4254 41.697 51.412 41.7676 51.3777L47.1992 48.7478C47.4141 48.6436 47.5042 48.385 47.4 48.1701C47.296 47.9553 47.0374 47.8647 46.8222 47.9693L41.3906 50.5991C41.1757 50.7033 41.0857 50.9619 41.1898 51.1769C41.2597 51.321 41.3992 51.4091 41.5482 51.42Z" fill="#28225E"/>
<path d="M42.1361 56.1714C42.2092 56.1767 42.2847 56.1635 42.3555 56.1291L47.7943 53.4958C48.0092 53.3916 48.0992 53.133 47.995 52.9181C47.8911 52.7033 47.6325 52.6127 47.4173 52.7173L41.9785 55.3506C41.7636 55.4548 41.6736 55.7134 41.7777 55.9283C41.8476 56.0727 41.9869 56.1606 42.1361 56.1714Z" fill="#28225E"/>
<path d="M42.7239 60.9231C42.7971 60.9284 42.8727 60.9152 42.9434 60.8808L48.3569 58.2597C48.5719 58.1555 48.6619 57.8969 48.5577 57.682C48.4537 57.467 48.1951 57.3768 47.98 57.4812L42.5664 60.1023C42.3515 60.2065 42.2614 60.4651 42.3656 60.6801C42.4353 60.8242 42.5748 60.9123 42.7239 60.9231Z" fill="#28225E"/>
<path d="M61.1858 64.6407C61.0496 64.6801 60.949 64.7963 60.9233 64.9358C60.901 65.0578 60.8809 65.2324 60.8809 65.4652C60.8809 65.9842 60.8809 66.2581 60.8809 66.2581C60.8809 66.2581 61.032 66.4744 61.4885 66.563L61.6157 66.4887C61.6157 66.4887 62.6424 67.2302 63.126 67.2925C63.7571 67.3738 64.4128 67.1086 63.9082 66.4887C63.4316 65.9033 62.7118 65.652 62.5112 65.1888C62.4878 65.1346 62.4618 65.0809 62.4218 65.0376C62.0825 64.671 61.6832 64.4971 61.1858 64.6407Z" fill="#28225E"/>
<path d="M61.2832 63.634L61.1895 64.9137C61.1895 64.9137 61.6147 65.2704 62.1338 65.0687L62.3406 63.6773C62.3406 63.6773 61.6508 63.4612 61.2832 63.634Z" fill="#FFB591"/>
<path d="M59.4405 52.348L62.8865 55.0667C63.245 55.4144 63.5069 55.958 63.4495 56.454C63.2029 58.5843 62.9802 61.4856 62.7187 62.7486C62.717 62.7555 62.7152 62.7623 62.7135 62.7711C62.6927 62.8679 62.6737 62.9614 62.6547 63.0514C62.6444 63.0981 62.6339 63.1431 62.6252 63.1864C62.5525 63.5255 62.3414 64.5912 62.3414 64.5912C61.8674 64.6897 61.5058 64.6207 61.0092 64.4406C61.0092 64.4406 61.0975 61.785 61.1493 60.5288C61.196 59.3784 61.243 57.6871 61.2915 57.367C59.3976 56.094 57.711 54.9115 57.1992 54.2436C57.9931 53.1539 59.4405 52.348 59.4405 52.348Z" fill="#9DC8EB"/>
<path d="M65.0491 62.6258C64.9129 62.6652 64.8122 62.7814 64.7866 62.9207C64.7643 63.0427 64.7441 63.2175 64.7441 63.4501C64.7441 63.9691 64.7441 64.243 64.7441 64.243C64.7441 64.243 64.8953 64.4593 65.3517 64.548L65.479 64.4737C65.479 64.4737 66.5057 65.2151 66.9893 65.2774C67.6204 65.3587 68.2761 65.0935 67.7715 64.4737C67.2948 63.8882 66.5751 63.637 66.3745 63.1737C66.351 63.1196 66.325 63.0658 66.2851 63.0226C65.9456 62.6561 65.5465 62.4821 65.0491 62.6258Z" fill="#28225E"/>
<path d="M65.1484 61.6192L65.0547 62.8988C65.0547 62.8988 65.4799 63.2556 65.9991 63.0538L66.2059 61.6624C66.2059 61.6624 65.516 61.4461 65.1484 61.6192Z" fill="#FFB591"/>
<path d="M63.1555 49.2667L66.748 53.052C67.1065 53.3996 67.3684 53.9432 67.311 54.4395C67.0644 56.5698 66.8417 59.4711 66.5802 60.734C66.5785 60.741 66.5767 60.7478 66.575 60.7565C66.5542 60.8533 66.5352 60.9468 66.5162 61.0368C66.5059 61.0836 66.4954 61.1286 66.4867 61.1719C66.414 61.511 66.2029 62.5766 66.2029 62.5766C65.7288 62.6752 65.3673 62.6061 64.8707 62.4261C64.8707 62.4261 64.959 59.7704 65.0108 58.5143C65.0575 57.3638 65.185 55.5241 65.2335 55.204C63.2341 53.7044 62.2626 52.5197 61.4922 51.8589C62.286 50.7688 63.1555 49.2667 63.1555 49.2667Z" fill="#9DC8EB"/>
<path d="M57.0097 52.7031V53.807C57.0097 54.238 57.555 54.6309 57.9285 54.4154L62.8782 51.4811C63.0514 51.381 63.238 51.0578 63.238 50.8578V49.7539C63.238 49.3229 62.9011 48.4112 62.5276 48.6268L57.0892 51.2698C56.916 51.3697 57.0097 52.5029 57.0097 52.7031Z" fill="#9DC8EB"/>
<path d="M62.0781 39.0516C62.0781 39.0516 63.4534 39.4127 63.7448 41.7347C64.2286 45.5908 65.1509 49.7661 65.4114 49.7732C65.4114 49.7732 65.147 49.7732 64.4086 50.104C64.4086 50.104 63.2375 47.9015 62.8596 46.5173C61.9864 43.3198 62.1357 40.8116 62.0781 39.0516Z" fill="#C73855"/>
<path d="M63.1581 41.1293V49.2666C63.0673 49.408 62.772 49.5388 62.6131 49.6214C59.1421 51.4272 58.5258 51.6218 57.5309 51.8381C57.088 51.9343 56.8909 51.6953 56.9361 51.0378C57.1171 48.4144 56.5534 41.7603 56.9538 41.1758C57.2721 40.7122 58.1077 40.2745 59.3188 39.5808C60.53 38.8905 61.5696 38.9371 62.1528 39.0738C62.7482 39.2141 63.089 39.5912 63.1581 41.1293Z" fill="#F04E70"/>
<path d="M61.1487 38.5128L60.7661 40.2479C60.0058 40.587 59.4832 40.3938 59.1035 39.8814L59.4861 38.1463C60.1181 37.9153 60.6724 38.0375 61.1487 38.5128Z" fill="#FFB591"/>
<path d="M60.9939 39.2174L60.8389 39.9202C59.7127 39.961 59.4297 38.4049 59.4297 38.4049L60.9939 39.2174Z" fill="#FF8671"/>
<path d="M59.4855 35.1694L59.1462 36.7082C58.952 37.5887 59.286 38.5116 60.0188 39.0371C60.4142 39.3206 60.9007 39.5838 61.4602 39.7204C62.0389 39.8616 62.6201 39.4925 62.7486 38.9106L63.4514 35.7228C63.4514 35.7228 61.1271 33.9415 59.4855 35.1694Z" fill="#FFB591"/>
<path d="M64.2959 35.0309C64.2406 35.8164 63.3721 35.8009 63.3721 35.8009C62.5781 35.3907 61.3029 35.479 61.3029 35.479C61.2509 35.7178 61.0589 35.8527 60.8255 36.0275C60.7909 36.0535 60.7597 36.0897 60.732 36.133C60.732 36.133 60.732 36.1347 60.7302 36.1382C60.706 36.23 60.3168 37.6798 60.4639 38.2144C60.4794 38.268 60.5019 38.3234 60.5331 38.3752C60.7874 37.9843 61.3912 37.7698 61.765 37.7023C62.1976 37.6227 62.6438 37.9393 62.6438 37.9393C62.8827 37.8961 62.9725 38.0086 62.9725 38.0086C63.1075 38.2942 62.8374 38.6228 62.8374 38.6228C62.8374 38.6228 62.7787 38.4377 62.5641 38.4082C62.3843 38.384 62.218 38.3459 61.8358 38.2664C61.5745 38.2127 61.1351 38.5415 60.8825 38.7543C61.2579 39.0414 61.7943 39.225 62.1507 39.1627C62.7009 39.0659 62.7787 38.7718 62.7787 38.7718C62.7787 38.7718 62.8219 40.0417 61.6055 40.0952C60.3876 40.1488 59.6524 38.8998 59.6419 38.4049C59.6316 37.91 60.1713 36.6351 60.1713 36.6351L60.173 36.6333L60.2561 36.3635L59.8945 36.6438C59.3823 37.0919 59.294 38.1525 59.294 38.1525C58.6038 37.6611 58.9792 35.8377 59.0934 35.1248C59.206 34.4103 59.7682 34.3722 59.7682 34.3722C60.5224 33.3272 62.5709 34.0869 63.019 34.0504C63.5 34.0118 64.3512 34.2454 64.2959 35.0309Z" fill="#28225E"/>
<path d="M60.2564 36.363C60.2564 36.363 59.5549 35.7453 59.2629 36.2978C59.0359 36.7276 59.1845 37.702 59.7881 37.684L60.2564 36.363Z" fill="#FFB591"/>
<path d="M61.1083 54.8905L57.989 53.1098C57.8258 53.0167 57.8268 52.7811 57.9905 52.6894L61.6558 50.633C61.7274 50.5928 61.8145 50.5918 61.8868 50.6301L65.0168 52.2853C65.1837 52.3735 65.1895 52.6102 65.0271 52.7066L61.3512 54.8886C61.2765 54.9328 61.1838 54.9338 61.1083 54.8905Z" fill="#88A2CA"/>
<path d="M61.1083 54.5228L57.989 52.7421C57.8258 52.649 57.8268 52.4135 57.9905 52.3217L61.6558 50.2653C61.7274 50.2252 61.8145 50.224 61.8868 50.2624L65.0168 51.9176C65.1837 52.0059 65.1895 52.2426 65.0271 52.339L61.3512 54.5209C61.2765 54.5653 61.1838 54.5661 61.1083 54.5228Z" fill="#C0C8CE"/>
<path d="M57.8691 52.8888V52.5436L61.0944 54.3207L61.2729 54.9908L58.0034 53.1202C57.9204 53.0727 57.8691 52.9844 57.8691 52.8888Z" fill="#DDE3E8"/>
<path d="M61.0938 50.7051V54.6842C61.0938 54.8918 61.2651 55.0389 61.4501 55.0371H62.1369V54.6928L67.1456 51.8018C67.2546 51.7378 67.3221 51.6219 67.3221 51.4957V47.7311H67.6457V47.1636H66.9675C66.9657 47.1636 66.9657 47.1636 66.964 47.1636C66.907 47.1636 66.848 47.1774 66.7927 47.2104L61.2701 50.399C61.1611 50.4612 61.0938 50.5788 61.0938 50.7051Z" fill="#DDE3E8"/>
<path d="M67.4681 47.2108L61.9461 50.399C61.8368 50.462 61.7695 50.5786 61.7695 50.7047V54.6837C61.7695 54.9555 62.0638 55.1254 62.2991 54.9896L67.8212 51.8014C67.9304 51.7383 67.9977 51.6218 67.9977 51.4957V47.5165C67.9979 47.2447 67.7036 47.0748 67.4681 47.2108Z" fill="white"/>
<path d="M64.7344 51.2607C64.733 51.5723 64.9154 51.8258 65.142 51.8268C65.3686 51.8278 65.5533 51.576 65.5548 51.2644C65.5562 50.9528 65.3738 50.6993 65.1472 50.6983C64.9206 50.6971 64.7359 50.949 64.7344 51.2607Z" fill="#C0C8CE"/>
<path d="M56.954 41.176C56.954 41.176 55.3574 45.4822 56.0036 47.7347C56.5515 49.6445 59.2907 51.4867 60.6749 51.8586C60.6749 51.8586 60.9194 51.4318 61.0959 50.9474C61.0959 50.9474 59.0116 49.9987 57.7907 47.0402C57.1637 45.5208 58.3394 43.0896 58.3394 43.0896C58.3394 43.0896 58.5388 41.3381 56.954 41.176Z" fill="#C73855"/>
<path d="M60.6738 51.8586L61.095 52.0646V50.9476L60.6738 51.8586Z" fill="#FFB591"/>
<path d="M67.6479 47.1631H66.9708C66.9689 47.1631 66.9689 47.1631 66.9669 47.1631C66.9087 47.1631 66.8505 47.1766 66.7962 47.2096L61.273 50.399C61.1644 50.4611 61.0965 50.5794 61.0965 50.7055V54.3197L57.4629 50.1584C57.5424 44.9379 60.8172 42.2005 66.0474 40.9783L67.6479 47.1631Z" fill="url(#paint0_linear_1884_37440)"/>
<path opacity="0.5" d="M16.8411 46.448C19.7542 46.448 22.1157 45.621 22.1157 44.6007C22.1157 43.5805 19.7542 42.7535 16.8411 42.7535C13.928 42.7535 11.5664 43.5805 11.5664 44.6007C11.5664 45.621 13.928 46.448 16.8411 46.448Z" fill="#FB7C78"/>
<path d="M13.7188 43.0202C13.5826 43.0596 13.482 43.1758 13.4566 43.3151C13.4342 43.4371 13.4141 43.6117 13.4141 43.8445C13.4141 44.3635 13.4141 44.6374 13.4141 44.6374C13.4141 44.6374 13.5652 44.8537 14.0217 44.9424L14.1489 44.8681C14.1489 44.8681 15.1756 45.6095 15.6592 45.6718C16.2903 45.7531 16.946 45.4879 16.4414 44.8681C15.9648 44.2826 15.245 44.0313 15.0444 43.5681C15.021 43.514 14.995 43.4602 14.955 43.417C14.6153 43.0505 14.2161 42.8767 13.7188 43.0202Z" fill="white"/>
<path d="M13.8183 42.0135L13.7246 43.2932C13.7246 43.2932 14.1499 43.6499 14.669 43.4482L14.8758 42.0568C14.8758 42.0568 14.1859 41.8407 13.8183 42.0135Z" fill="#FFB591"/>
<path d="M13.543 42.8216C14.0412 42.9999 14.4028 43.069 14.8769 42.9704C14.8769 42.9704 15.0862 41.9046 15.159 41.5657C15.1677 41.5224 15.178 41.4774 15.1885 41.4306C15.2075 41.3406 15.2265 41.2473 15.2473 41.1503C15.249 41.1416 15.2507 41.1348 15.2525 41.1278C15.5501 39.6901 15.9825 37.3855 16.2369 35.5707V29.4028C16.2369 29.4028 15.1695 29.1035 14.0656 29.7177V35.4944C14.0171 35.8145 13.73 37.7574 13.6832 38.9079C13.6312 40.1642 13.543 42.8216 13.543 42.8216Z" fill="#28225E"/>
<path d="M17.7268 42.2233C17.5907 42.2627 17.49 42.3789 17.4644 42.5182C17.442 42.6402 17.4219 42.8148 17.4219 43.0476C17.4219 43.5665 17.4219 43.8405 17.4219 43.8405C17.4219 43.8405 17.573 44.0568 18.0295 44.1454L18.1567 44.0711C18.1567 44.0711 19.1834 44.8126 19.667 44.8749C20.2981 44.9562 20.9538 44.691 20.4492 44.0711C19.9726 43.4856 19.2528 43.2344 19.0522 42.7711C19.0288 42.717 19.0028 42.6633 18.9628 42.62C18.6233 42.2535 18.2241 42.0797 17.7268 42.2233Z" fill="white"/>
<path d="M17.8261 41.2166L17.7324 42.4963C17.7324 42.4963 18.1577 42.853 18.6768 42.6513L18.8836 41.2599C18.8836 41.2599 18.1938 41.0436 17.8261 41.2166Z" fill="#FFB591"/>
<path d="M17.5664 42.0673C18.0006 42.2836 18.4384 42.3164 18.8831 42.1728C18.8831 42.1728 19.1219 40.7853 19.1945 40.4462C19.2032 40.403 19.2135 40.3579 19.2239 40.3112C19.2412 40.2247 19.262 40.1312 19.2827 40.0309C19.2845 40.0221 19.2862 40.0153 19.288 40.0084C19.2982 39.9581 19.3087 39.9081 19.3192 39.8561C19.615 38.4113 20.0267 36.2038 20.2725 34.4512V28.2834C20.2725 28.2834 19.2051 27.984 18.1013 28.5982V34.375C18.0528 34.6951 17.7656 36.638 17.7189 37.7884C17.6667 39.0448 17.5664 42.0673 17.5664 42.0673Z" fill="#28225E"/>
<path d="M14.0488 30.1993V31.3032C14.0488 31.7343 14.5941 32.1273 14.9676 31.9116L19.9173 28.9773C20.0906 28.8772 20.2772 28.554 20.2772 28.354V27.2501C20.2772 26.8191 19.9402 25.9075 19.5668 26.123L14.1284 28.7661C13.9549 28.866 14.0488 29.9991 14.0488 30.1993Z" fill="#28225E"/>
<path d="M19.1172 16.548C19.1172 16.548 20.8347 17.076 20.6905 19.4116C20.5464 21.7472 21.5123 22.5465 23.9769 22.4392C23.9769 22.4392 23.7259 22.9211 23.8768 23.506C23.8768 23.506 22.317 23.8385 20.9788 23.3042C18.7781 22.4256 19.1748 18.3079 19.1172 16.548Z" fill="#C73855"/>
<path d="M20.1972 18.6255V26.7629C20.1064 26.9043 19.8111 27.035 19.6522 27.1177C16.1812 28.9234 15.5648 29.118 14.57 29.3343C14.1271 29.4306 13.93 29.1915 13.9752 28.5341C14.1562 25.9106 13.5924 19.2566 13.9928 18.6721C14.3112 18.2084 15.1468 17.7708 16.3579 17.0768C17.569 16.3866 18.6087 16.4333 19.1918 16.5699C19.787 16.7104 20.1279 17.0875 20.1972 18.6255Z" fill="#F04E70"/>
<path d="M18.2924 15.74L18.0407 17.499C17.3078 17.894 16.7724 17.7405 16.3555 17.258L16.6071 15.499C17.2199 15.2212 17.7818 15.3015 18.2924 15.74Z" fill="#FFB591"/>
<path d="M18.1908 16.4541L18.0889 17.1667C17.2053 16.9669 16.5703 15.7612 16.5703 15.7612L18.1908 16.4541Z" fill="#FF8671"/>
<path d="M16.3812 12.5305L16.1581 14.0902C16.0305 14.9828 16.4326 15.8781 17.2028 16.3472C17.6184 16.6002 18.1232 16.8264 18.6912 16.9207C19.2788 17.0183 19.8309 16.6064 19.9151 16.0168L20.3772 12.7854C20.3772 12.7854 17.9262 11.1833 16.3812 12.5305Z" fill="#FFB591"/>
<path d="M20.3054 12.8697C20.3054 12.8697 21.172 12.8189 21.1679 12.0319C21.164 11.2448 20.2976 11.0749 19.8214 11.1492C19.3775 11.2184 17.2772 10.6162 16.6035 11.7141C16.6035 11.7141 16.0461 11.7946 15.9869 12.5143C15.9278 13.2341 15.6901 15.0808 16.4153 15.5184C16.4153 15.5184 16.4231 14.4555 16.9001 13.9701L17.2392 13.663L17.148 14.0638C17.3525 14.0853 17.5413 13.949 17.5814 13.7472C17.6163 13.5716 17.6775 13.3784 17.7826 13.2859C18.0012 13.0936 18.1826 12.9448 18.2174 12.7023C18.2174 12.7023 19.4819 12.519 20.3054 12.8697Z" fill="#28225E"/>
<path d="M17.2384 13.6632C17.2384 13.6632 16.4926 13.0999 16.2427 13.6726C16.0486 14.1182 16.3273 15.2168 16.9349 14.997L17.2384 13.6632Z" fill="#FFB591"/>
<path d="M25.1941 19.8101L23.9331 13.2578C18.7029 14.4782 15.4276 17.2163 15.3496 22.4371L18.7881 26.6907L25.1941 19.8101Z" fill="url(#paint1_linear_1884_37440)"/>
<path d="M25.4996 20.1341C25.5306 20.2369 25.5306 20.3514 25.486 20.4639L23.3093 25.9948C23.2453 26.1578 23.0998 26.2742 22.9272 26.3052L20.6302 26.6913L19.6191 26.8634L19.5708 26.9008L19.5999 27.1142L19.0606 26.9027L19.014 26.8853C18.7812 26.7844 18.6415 26.5089 18.7463 26.2431L20.9385 20.623C21.0044 20.4561 21.1538 20.3358 21.3323 20.3106L24.9504 19.7849C25.0377 19.7732 25.1211 19.7829 25.1948 19.8101C25.2045 19.814 25.2142 19.8179 25.2239 19.8217L25.7613 20.0351L25.4996 20.1341Z" fill="#DDE3E8"/>
<path d="M26.0233 20.6752L23.846 26.2061C23.7818 26.3691 23.6369 26.4866 23.464 26.5159L19.8318 27.1288C19.449 27.1934 19.1419 26.8158 19.283 26.4542L21.4755 20.835C21.5409 20.6674 21.6915 20.5479 21.8694 20.5221L25.4865 19.9975C25.8661 19.9422 26.1637 20.318 26.0233 20.6752Z" fill="white"/>
<path d="M22.4397 23.6412C22.2798 24.0471 22.3543 24.4562 22.6059 24.5553C22.8576 24.6543 23.191 24.4058 23.3507 23.9999C23.5106 23.5941 23.4361 23.1849 23.1844 23.0858C22.9328 22.9869 22.5995 23.2356 22.4397 23.6412Z" fill="#DDE3E8"/>
<path d="M13.9936 18.672C13.9936 18.672 12.4358 21.8004 12.9313 24.6714C13.4268 27.5425 17.9697 26.1567 19.1897 25.5945L18.7878 24.5349C18.7878 24.5349 15.7555 24.9458 15.1763 24.5566C14.7 24.2367 14.9646 22.6152 15.2845 21.5566C15.4607 20.9736 15.4787 20.3489 15.2894 19.77C15.0965 19.1797 14.7215 18.606 13.9936 18.672Z" fill="#C73855"/>
<path d="M18.7871 24.5347C18.7871 24.5347 19.0108 24.1282 19.4 23.8904C19.7893 23.6526 20.038 23.7173 20.0487 23.793C20.0596 23.8687 19.6378 24.0741 19.6378 24.2039C19.6378 24.3337 20.7979 23.8361 21.0111 23.9119C21.2243 23.9878 21.249 25.0905 20.7948 25.3392C20.3407 25.5879 19.1891 25.5943 19.1891 25.5943L18.7871 24.5347Z" fill="#FFB591"/>
<path d="M25.4334 22.6685C25.4683 22.6429 25.5205 22.4561 25.3263 22.4373L25.2246 22.6955C25.2851 22.7236 25.3738 22.7122 25.4334 22.6685Z" fill="#FFB591"/>
<path d="M24.5229 23.9755C24.5363 23.9837 24.5489 23.9895 24.5621 23.9937L24.5599 23.9984C24.6629 24.0519 24.7662 24.0884 24.8632 24.101C25.1724 24.1416 25.581 23.221 25.468 23.0371C25.4291 22.9733 25.3511 22.9275 25.2727 22.891C25.2727 22.891 25.2523 22.8815 25.2201 22.8685C25.1895 22.8563 25.1474 22.8404 25.1029 22.8294C25.0141 22.807 24.914 22.8006 24.8663 22.8625C24.7691 22.9853 24.2573 23.8122 24.5229 23.9755Z" fill="#FFB591"/>
<path d="M17.2401 46.4991C17.2401 46.4991 17.9455 48.1383 17.8002 49.3046C17.6549 50.4709 17.8563 51.9189 18.3075 53.0771C18.7588 54.2353 18.9095 54.9591 18.5745 55.5054C18.2396 56.0519 14.5061 54.7907 13.6478 54.5346C12.7898 54.2785 13.1803 51.3433 13.3101 50.3347C13.4399 49.3261 12.8652 46.5913 12.8652 46.5913L17.2401 46.4991Z" fill="#28225E"/>
<path d="M18.2276 77.2443C18.3639 77.2829 18.4652 77.3987 18.4912 77.538C18.5141 77.6598 18.535 77.8344 18.5362 78.0672C18.5385 78.5862 18.5399 78.8601 18.5399 78.8601C18.5399 78.8601 18.3897 79.077 17.9336 79.1678L17.806 79.0941C17.806 79.0941 16.7828 79.8402 16.2994 79.9046C15.6687 79.9886 15.0118 79.7267 15.5135 79.1044C15.9874 78.5167 16.7062 78.2622 16.9045 77.798C16.9276 77.7438 16.9534 77.6899 16.9931 77.6464C17.3313 77.2786 17.7296 77.1028 18.2276 77.2443Z" fill="white"/>
<path d="M18.1235 76.238L18.223 77.517C18.223 77.517 17.7993 77.8758 17.2794 77.6763L17.0664 76.2859C17.0664 76.2859 17.7551 76.0667 18.1235 76.238Z" fill="#FFB591"/>
<path d="M18.405 77.0446C17.9076 77.2251 17.5464 77.2959 17.0718 77.1995C17.0718 77.1995 16.8577 76.1346 16.7833 75.7959C16.7744 75.7526 16.764 75.7078 16.7533 75.661C16.7339 75.5712 16.7145 75.4779 16.6931 75.3811C16.6914 75.3726 16.6896 75.3656 16.6879 75.3586C16.3837 73.9222 15.9408 71.6198 15.6783 69.8061L15.6504 63.6383C15.6504 63.6383 16.7164 63.3341 17.823 63.9432L17.6466 69.7116C17.6965 70.0315 18.0346 72.0503 18.0864 73.2007C18.1443 74.4567 18.405 77.0446 18.405 77.0446Z" fill="#28225E"/>
<path d="M15.0693 76.4653C15.2056 76.5039 15.3069 76.6198 15.3329 76.759C15.3558 76.8809 15.3768 77.0555 15.3779 77.2883C15.3802 77.8072 15.3816 78.0812 15.3816 78.0812C15.3816 78.0812 15.2314 78.298 14.7754 78.3888L14.6477 78.3151C14.6477 78.3151 13.6244 79.0612 13.1411 79.1257C12.5104 79.2097 11.8535 78.9478 12.3554 78.3254C12.8293 77.7378 13.5481 77.4832 13.7464 77.019C13.7695 76.9649 13.7953 76.9109 13.835 76.8675C14.1728 76.4997 14.5713 76.3241 15.0693 76.4653Z" fill="white"/>
<path d="M14.9653 75.4593L15.0648 76.7384C15.0648 76.7384 14.6411 77.0971 14.1212 76.8976L13.9082 75.5072C13.9082 75.5072 14.5969 75.2878 14.9653 75.4593Z" fill="#FFB591"/>
<path d="M15.2293 76.3086C14.7961 76.5269 14.3585 76.5618 13.9132 76.4202C13.9132 76.4202 13.6682 75.0337 13.5939 74.6949C13.585 74.6517 13.5745 74.6069 13.5638 74.5601C13.5462 74.4738 13.525 74.3803 13.5037 74.2802C13.5019 74.2714 13.5002 74.2646 13.4984 74.2577C13.4878 74.2076 13.4773 74.1574 13.4666 74.1056C13.1642 72.6622 12.7424 70.4566 12.4889 68.7052L12.4609 62.5373C12.4609 62.5373 13.3805 62.2126 14.4871 62.8217L14.6599 68.6191C14.7098 68.939 15.0058 70.8805 15.0578 72.0307C15.1152 73.2867 15.2293 76.3086 15.2293 76.3086Z" fill="#28225E"/>
<path d="M17.8739 63.8703L17.7778 65.4142C17.7798 65.8453 16.3289 65.283 15.9544 65.0691L12.819 63.2296C12.6452 63.1302 12.4572 62.808 12.4562 62.6078L12.4512 61.5039C12.4492 61.0729 12.7821 60.1597 13.1566 60.3737L16.8356 62.2809C17.0096 62.38 17.9375 62.5296 17.8739 63.8703Z" fill="#28225E"/>
<path d="M8.72768 56.7099C8.72768 56.7099 8.15596 56.4488 7.77514 56.7763C7.39412 57.1037 7.67717 57.9657 7.89717 57.9874C8.11716 58.0091 8.83263 57.7765 8.83263 57.7765C8.83263 57.7765 9.13818 57.0923 8.72768 56.7099Z" fill="#FFB591"/>
<path d="M13.226 51.1957C13.226 51.1957 12.2428 51.2298 12.2428 53.6946C12.2428 56.0346 11.1954 56.806 8.73047 56.7099C8.73047 56.7099 8.98383 57.1907 8.83542 57.7764C8.83542 57.7764 10.3965 58.1017 11.7324 57.5614C13.9291 56.6727 13.1764 52.9558 13.226 51.1957Z" fill="#7CA0D1"/>
<path d="M8.05631 56.6998V58.1562C8.05631 58.3991 7.56665 58.596 6.96351 58.596C6.36017 58.596 5.87109 58.3991 5.87109 58.1562V56.6998H8.05631Z" fill="white"/>
<path d="M8.10143 58.0631C7.80422 58.0631 7.5625 57.8252 7.5625 57.5329C7.5625 57.2405 7.80422 57.0027 8.10143 57.0027C8.39864 57.0027 8.64036 57.2405 8.64036 57.5329C8.64036 57.8252 8.39864 58.0631 8.10143 58.0631ZM8.10143 57.2169C7.92237 57.2169 7.77687 57.3587 7.77687 57.5329C7.77687 57.7071 7.92256 57.8489 8.10143 57.8489C8.2803 57.8489 8.42599 57.7071 8.42599 57.5329C8.42599 57.3587 8.28049 57.2169 8.10143 57.2169Z" fill="white"/>
<path d="M8.05631 56.6996C8.05631 56.9427 7.56704 57.1398 6.9637 57.1398C6.36036 57.1398 5.87109 56.9427 5.87109 56.6996C5.87109 56.4566 6.36036 56.2595 6.9637 56.2595C7.56704 56.2595 8.05631 56.4566 8.05631 56.6996Z" fill="#E0E0E0"/>
<path d="M7.91949 56.6998C7.91949 56.715 7.9127 56.7313 7.89854 56.7491C7.81395 56.8574 7.47387 57.0027 6.96365 57.0027C6.45343 57.0027 6.11335 56.8574 6.02876 56.7491C6.0146 56.7313 6.00781 56.7148 6.00781 56.6998C6.00781 56.5929 6.37079 56.3966 6.96365 56.3966C7.55632 56.3966 7.91949 56.5929 7.91949 56.6998Z" fill="#28225E"/>
<path d="M7.89907 56.7492C7.81448 56.8574 7.4744 57.0027 6.96418 57.0027C6.45396 57.0027 6.11388 56.8574 6.0293 56.7492C6.11369 56.6409 6.45396 56.4958 6.96418 56.4958C7.47421 56.4956 7.81448 56.6409 7.89907 56.7492Z" fill="#FA595C"/>
<path d="M8.46451 57.142C8.46451 57.142 8.1349 57.2306 8.20513 57.4468C8.27536 57.6631 8.4259 57.5329 8.4259 57.5329C8.4259 57.5329 8.82069 57.5391 8.88064 57.3822C8.94058 57.2252 8.72932 56.7101 8.72932 56.7101L8.46451 57.142Z" fill="#FFB591"/>
<path d="M12.4902 52.8793L12.5271 61.0166C12.6185 61.1576 12.9135 61.2886 13.0738 61.3689C15.0642 62.3678 16.1202 63.0856 17.116 63.2973C17.5593 63.3915 17.9244 63.3271 17.8761 62.6701C17.6832 60.0474 18.202 52.9648 17.7432 52.2823C17.4293 51.8156 17.0265 51.6336 16.3223 51.3133C15.0534 50.7363 14.0706 50.9854 13.3964 51.1434C12.7032 51.3055 12.5793 51.7921 12.4902 52.8793Z" fill="#9DC8EB"/>
<path d="M14.4258 49.8147L14.4337 51.5593C15.0933 52.0422 15.635 51.965 16.1052 51.5518L16.0973 49.8071C15.5386 49.4546 14.9814 49.4571 14.4258 49.8147Z" fill="#FFB591"/>
<path d="M14.4277 50.5231L14.431 51.2298C15.3174 51.1546 16.0973 50.0672 16.0973 50.0672L14.4277 50.5231Z" fill="#FF8671"/>
<path d="M16.9839 47.2026L16.7779 48.736C16.66 49.6134 16.0407 50.3518 15.1879 50.5893C14.7277 50.7173 14.1727 50.8859 13.6283 50.7334C13.401 50.6696 13.2545 50.3685 13.1532 49.8604C13.0766 49.4761 13.0531 49.0829 13.0657 48.6912L13.14 46.3756C13.14 46.3756 15.884 45.5169 16.9839 47.2026Z" fill="#FFB591"/>
<path d="M16.1761 47.8339C16.608 47.7551 16.6295 48.917 16.1761 49.1869C15.7212 49.4567 15.6847 51.4499 16.1051 51.5519C17.8007 51.9636 17.8733 48.5589 17.3646 46.8408C16.9752 45.5276 15.9821 45.3495 15.5359 45.3391C14.6812 45.045 13.574 45.1747 13.0706 45.6902C13.0654 45.6954 13.0584 45.7005 13.0516 45.7075C12.9425 45.8217 12.8648 45.9548 12.825 46.1054C12.8197 46.1331 12.8163 46.1589 12.813 46.1832C12.6417 46.9219 13.0293 47.9185 13.0758 47.7159C13.1883 47.2108 13.5292 47.1017 13.7401 47.0845C13.9719 47.4253 14.4668 48.0223 15.1033 47.9963C15.2469 47.991 15.3542 47.9548 15.4337 47.896C15.4337 47.896 15.3844 48.6338 15.5286 48.9005C15.5288 48.9009 15.5043 47.9565 16.1761 47.8339Z" fill="#28225E"/>
<path d="M12.8242 46.1055C12.8 46.2025 12.8415 46.0207 12.8242 46.1055V46.1055Z" fill="#28225E"/>
<path d="M17.47 51.9634C17.47 51.9634 19.6312 53.6174 20.9269 53.4422C20.9269 53.4422 22.1095 52.8928 22.9309 52.4187C23.7523 51.9444 24.5656 51.47 24.5656 51.47L24.8773 52.26C24.8773 52.26 22.6199 54.5073 21.3841 54.8542C20.1484 55.2012 17.9381 54.3505 17.9381 54.3505C17.9381 54.3505 16.7025 53.3557 17.47 51.9634Z" fill="#7CA0D1"/>
<path d="M24.5664 51.4701C24.5664 51.4701 24.46 51.2656 24.534 51.1428C24.6079 51.02 24.8133 50.843 24.8783 50.8184C24.9431 50.7938 25.2244 50.8108 25.2027 50.9406C25.2027 50.9406 25.8877 50.4455 26.0605 50.5877C26.1831 50.6886 25.6207 51.1067 25.6207 51.1067C25.6207 51.1067 25.9451 51.3806 25.9308 51.7122C25.9164 52.0437 25.5055 52.0294 25.5055 52.0294C25.5055 52.0294 25.0731 52.3248 24.8783 52.26C24.6835 52.1952 24.5664 51.4701 24.5664 51.4701Z" fill="#FFB591"/>
<path d="M7.73028 31.3084C6.94555 31.4789 6.63108 31.7934 6.46055 32.5781C6.41845 32.7717 6.14258 32.7717 6.10049 32.5781C5.92977 31.7934 5.61529 31.4791 4.83076 31.3084C4.63714 31.2663 4.63714 30.9904 4.83076 30.9483C5.61529 30.7778 5.92977 30.4633 6.10049 29.6786C6.14258 29.485 6.41845 29.485 6.46055 29.6786C6.63108 30.4631 6.94555 30.7776 7.73028 30.9483C7.92389 30.9904 7.92389 31.2663 7.73028 31.3084Z" fill="white"/>
<path d="M9.16635 34.5587C8.75701 34.6477 8.59308 34.8116 8.50404 35.221C8.48212 35.3221 8.33817 35.3221 8.31625 35.221C8.2272 34.8116 8.06327 34.6477 7.65393 34.5587C7.55286 34.5367 7.55286 34.3928 7.65393 34.3709C8.06327 34.2818 8.22739 34.1177 8.31625 33.7086C8.33817 33.6075 8.48212 33.6075 8.50404 33.7086C8.59308 34.1179 8.75701 34.2818 9.16635 34.3709C9.26723 34.3926 9.26723 34.5367 9.16635 34.5587Z" fill="white"/>
<path d="M59.9256 23.5525C59.1411 23.723 58.8266 24.0375 58.6559 24.8222C58.6138 25.0158 58.3379 25.0158 58.2958 24.8222C58.1253 24.0377 57.8108 23.7232 57.0261 23.5525C56.8325 23.5104 56.8325 23.2345 57.0261 23.1924C57.8106 23.0219 58.1251 22.7074 58.2958 21.9227C58.3379 21.7291 58.6138 21.7291 58.6559 21.9227C58.8264 22.7072 59.1409 23.0219 59.9256 23.1924C60.119 23.2345 60.119 23.5104 59.9256 23.5525Z" fill="white"/>
<path d="M57.4359 20.1199C57.0265 20.2089 56.8624 20.3731 56.7736 20.7822C56.7516 20.8833 56.6077 20.8833 56.5858 20.7822C56.4967 20.3729 56.3328 20.2087 55.9235 20.1199C55.8224 20.098 55.8224 19.954 55.9235 19.9321C56.3328 19.843 56.4967 19.6791 56.5858 19.2698C56.6077 19.1687 56.7516 19.1687 56.7736 19.2698C56.8626 19.6791 57.0265 19.843 57.4359 19.9321C57.537 19.954 57.537 20.098 57.4359 20.1199Z" fill="white"/>
<defs>
<linearGradient id="paint0_linear_1884_37440" x1="75.1461" y1="62.113" x2="60.6413" y2="44.1923" gradientUnits="userSpaceOnUse">
<stop stop-color="white"/>
<stop offset="1" stop-color="white" stop-opacity="0"/>
</linearGradient>
<linearGradient id="paint1_linear_1884_37440" x1="32.9458" y1="34.2878" x2="18.5233" y2="16.4688" gradientUnits="userSpaceOnUse">
<stop stop-color="white"/>
<stop offset="1" stop-color="white" stop-opacity="0"/>
</linearGradient>
</defs>
</svg>
