<svg width="447" height="536" viewBox="0 0 447 536" fill="none" xmlns="http://www.w3.org/2000/svg">
<g clip-path="url(#clip0_1018_37443)">
<rect width="447" height="536" fill="#F9F9F9"/>
<g filter="url(#filter0_f_1018_37443)">
<path d="M299.375 -3.19416C165.979 -35.5988 115.818 68.9011 107.413 125.202C105.011 136.793 106.28 161.046 130.572 165.325C160.936 170.675 151.157 243.662 166.082 303.657C181.007 363.651 338.488 305.949 393.04 292.575C447.592 279.2 486.705 290.664 586.546 182.903C686.387 75.1427 559.785 37.3118 535.082 40.3689C510.379 43.4259 466.12 37.3116 299.375 -3.19416Z" fill="white"/>
</g>
<g filter="url(#filter1_f_1018_37443)">
<path d="M511.525 0.463344C360.994 -36.171 304.39 81.9689 294.904 145.618C292.194 158.722 293.627 186.141 321.038 190.979C355.303 197.027 344.268 279.541 361.11 347.366C377.952 415.191 555.662 349.958 617.222 334.838C678.781 319.718 722.918 332.678 835.584 210.852C948.25 89.0252 805.385 46.2564 777.509 49.7125C749.633 53.1686 699.688 46.2562 511.525 0.463344Z" fill="white"/>
</g>
<g filter="url(#filter2_f_1018_37443)">
<path d="M-99.8453 426.857C-137.168 332.054 -85.5734 326.641 -55.1106 335.785C-48.9349 337.232 -35.1123 344.339 -29.2276 361.182C-21.8717 382.237 17.7798 394.815 53.6602 420.028C89.5405 445.241 79.6313 532.297 79.9185 564.167C80.2057 596.037 92.2529 624.343 45.9363 661.091C-0.380287 697.84 -39.7826 606.031 -41.5996 590.822C-43.4166 575.613 -53.1918 545.36 -99.8453 426.857Z" fill="white"/>
</g>
<g filter="url(#filter3_f_1018_37443)">
<path d="M81.6378 522.573C-15.1512 509.96 -12.2111 473.582 1.35756 456.969C3.71918 453.441 12.7121 447.069 29.7908 449.805C51.1392 453.226 69.4496 431.869 99.2811 417.997C129.113 404.125 211.029 445.031 241.635 457.408C272.241 469.785 301.282 472.951 329.222 518.183C357.161 563.415 262.915 553.363 248.045 548.572C233.174 543.781 202.624 538.339 81.6378 522.573Z" fill="white"/>
</g>
<g filter="url(#filter4_f_1018_37443)">
<path d="M365.977 390.044C262.48 369.676 223.563 435.361 217.041 470.749C215.178 478.035 216.162 493.279 235.009 495.969C258.567 499.332 250.981 545.208 262.56 582.918C274.14 620.628 396.323 584.359 438.648 575.953C480.973 567.546 511.319 574.752 588.781 507.018C666.244 439.284 568.018 415.505 548.852 417.426C529.686 419.348 495.347 415.505 365.977 390.044Z" fill="#FFFBD8"/>
</g>
<g filter="url(#filter5_f_1018_37443)">
<path d="M342.697 326.392C239.201 306.023 200.283 371.708 193.762 407.096C191.898 414.382 192.883 429.626 211.73 432.316C235.288 435.679 227.701 481.555 239.281 519.265C250.86 556.976 373.044 520.707 415.368 512.3C457.693 503.893 488.04 511.099 565.502 443.365C642.965 375.631 544.739 351.852 525.573 353.774C506.407 355.695 472.068 351.852 342.697 326.392Z" fill="#FFFBD8"/>
</g>
<path d="M515.742 374.561H481.159V416.56H472.262V392.778H428.282V430.429H422.46V342.075H384.243V366.331H364.648V396.5H358.716V377.526H323.974V434.156H313.806V388.116H282.03V353.152H260.423V333.239H235.426V421.56H227.027V384.705H185.855V437.464H180.158V394.399H138.404V355.604H115V536.297H515.742V374.561Z" fill="#EBEBEB"/>
<path d="M303.077 400.554H308.928V393.855H303.077V400.554Z" fill="white"/>
<path d="M292.934 400.554H298.785V393.855H292.934V400.554Z" fill="white"/>
<path d="M282.794 400.554H288.645V393.855H282.794V400.554Z" fill="white"/>
<path d="M303.077 410.634H308.928V403.935H303.077V410.634Z" fill="white"/>
<path d="M292.934 410.634H298.785V403.935H292.934V410.634Z" fill="white"/>
<path d="M282.794 410.634H288.645V403.935H282.794V410.634Z" fill="white"/>
<path d="M303.077 420.713H308.928V414.014H303.077V420.713Z" fill="white"/>
<path d="M292.934 420.713H298.785V414.014H292.934V420.713Z" fill="white"/>
<path d="M282.794 420.713H288.645V414.014H282.794V420.713Z" fill="white"/>
<path d="M303.077 430.793H308.928V424.094H303.077V430.793Z" fill="white"/>
<path d="M292.934 430.793H298.785V424.094H292.934V430.793Z" fill="white"/>
<path d="M282.794 430.793H288.645V424.094H282.794V430.793Z" fill="white"/>
<path d="M303.077 441.121H308.928V434.422H303.077V441.121Z" fill="white"/>
<path d="M292.934 441.121H298.785V434.422H292.934V441.121Z" fill="white"/>
<path d="M282.794 441.121H288.645V434.422H282.794V441.121Z" fill="white"/>
<path d="M303.077 451.45H308.928V444.751H303.077V451.45Z" fill="white"/>
<path d="M292.934 451.45H298.785V444.751H292.934V451.45Z" fill="white"/>
<path d="M282.794 451.45H288.645V444.751H282.794V451.45Z" fill="white"/>
<path d="M303.077 461.779H308.928V455.08H303.077V461.779Z" fill="white"/>
<path d="M292.934 461.779H298.785V455.08H292.934V461.779Z" fill="white"/>
<path d="M282.794 461.779H288.645V455.08H282.794V461.779Z" fill="white"/>
<path d="M303.077 472.108H308.928V465.409H303.077V472.108Z" fill="white"/>
<path d="M292.934 472.108H298.785V465.409H292.934V472.108Z" fill="white"/>
<path d="M282.794 472.108H288.645V465.409H282.794V472.108Z" fill="white"/>
<path d="M433.58 402.954H467.264V397.932H433.58V402.954Z" fill="white"/>
<path d="M433.58 412.697H467.264V407.675H433.58V412.697Z" fill="white"/>
<path d="M433.58 422.442H467.264V417.42H433.58V422.442Z" fill="white"/>
<path d="M433.58 432.185H467.264V427.163H433.58V432.185Z" fill="white"/>
<path d="M433.58 441.929H467.264V436.907H433.58V441.929Z" fill="white"/>
<path d="M433.58 451.673H467.264V446.651H433.58V451.673Z" fill="white"/>
<path d="M433.58 461.416H467.264V456.394H433.58V461.416Z" fill="white"/>
<path d="M433.58 471.161H467.264V466.139H433.58V471.161Z" fill="white"/>
<path d="M191.08 394.41H222.049V389.388H191.08V394.41Z" fill="white"/>
<path d="M191.08 404.153H222.049V399.131H191.08V404.153Z" fill="white"/>
<path d="M191.08 413.897H222.049V408.875H191.08V413.897Z" fill="white"/>
<path d="M191.08 423.642H222.049V418.62H191.08V423.642Z" fill="white"/>
<path d="M191.08 433.385H222.049V428.363H191.08V433.385Z" fill="white"/>
<path d="M191.08 443.129H222.049V438.107H191.08V443.129Z" fill="white"/>
<path d="M191.08 452.873H222.049V447.851H191.08V452.873Z" fill="white"/>
<path d="M191.08 462.616H222.049V457.594H191.08V462.616Z" fill="white"/>
<path d="M191.08 471.875H222.049V466.853H191.08V471.875Z" fill="white"/>
<path d="M191.08 481.133H222.049V476.111H191.08V481.133Z" fill="white"/>
<path d="M191.08 490.392H222.049V485.37H191.08V490.392Z" fill="white"/>
<path d="M191.08 499.65H222.049V494.628H191.08V499.65Z" fill="white"/>
<path d="M191.08 508.909H222.049V503.887H191.08V508.909Z" fill="white"/>
<path d="M141.006 406.179H173.719V401.157H141.006V406.179Z" fill="white"/>
<path d="M141.006 415.923H173.719V410.901H141.006V415.923Z" fill="white"/>
<path d="M141.006 425.667H173.719V420.645H141.006V425.667Z" fill="white"/>
<path d="M141.006 435.411H173.719V430.389H141.006V435.411Z" fill="white"/>
<path d="M141.006 445.154H173.719V440.132H141.006V445.154Z" fill="white"/>
<path d="M141.006 454.899H173.719V449.877H141.006V454.899Z" fill="white"/>
<path d="M141.006 464.642H173.719V459.62H141.006V464.642Z" fill="white"/>
<path d="M141.006 474.386H173.719V469.364H141.006V474.386Z" fill="white"/>
<path d="M141.006 483.107H173.719V478.085H141.006V483.107Z" fill="white"/>
<path d="M141.006 491.828H173.719V486.806H141.006V491.828Z" fill="white"/>
<path d="M141.006 500.549H173.719V495.527H141.006V500.549Z" fill="white"/>
<path d="M338.148 386.923H348.549V382.073H338.148V386.923Z" fill="white"/>
<path d="M338.148 396.332H348.549V391.482H338.148V396.332Z" fill="white"/>
<path d="M338.148 405.743H348.549V400.893H338.148V405.743Z" fill="white"/>
<path d="M338.148 415.152H348.549V410.302H338.148V415.152Z" fill="white"/>
<path d="M338.148 424.562H348.549V419.713H338.148V424.562Z" fill="white"/>
<path d="M338.148 433.972H348.549V429.122H338.148V433.972Z" fill="white"/>
<path d="M338.148 443.381H348.549V438.531H338.148V443.381Z" fill="white"/>
<path d="M338.148 452.791H348.549V447.941H338.148V452.791Z" fill="white"/>
<path d="M323.994 386.923H334.396V382.073H323.994V386.923Z" fill="white"/>
<path d="M323.994 396.332H334.396V391.482H323.994V396.332Z" fill="white"/>
<path d="M323.994 405.743H334.396V400.893H323.994V405.743Z" fill="white"/>
<path d="M323.994 415.152H334.396V410.302H323.994V415.152Z" fill="white"/>
<path d="M323.994 424.562H334.396V419.713H323.994V424.562Z" fill="white"/>
<path d="M323.994 433.972H334.396V429.122H323.994V433.972Z" fill="white"/>
<path d="M323.994 443.381H334.396V438.531H323.994V443.381Z" fill="white"/>
<path d="M323.994 452.791H334.396V447.941H323.994V452.791Z" fill="white"/>
<path d="M405.83 354.812H416.668V347.164H405.83V354.812Z" fill="white"/>
<path d="M389.675 354.812H400.512V347.164H389.675V354.812Z" fill="white"/>
<path d="M405.83 366.046H416.668V358.398H405.83V366.046Z" fill="white"/>
<path d="M389.675 366.046H400.512V358.398H389.675V366.046Z" fill="white"/>
<path d="M405.83 377.281H416.668V369.633H405.83V377.281Z" fill="white"/>
<path d="M389.675 377.281H400.512V369.633H389.675V377.281Z" fill="white"/>
<path d="M405.83 388.516H416.668V380.868H405.83V388.516Z" fill="white"/>
<path d="M389.675 388.516H400.512V380.868H389.675V388.516Z" fill="white"/>
<path d="M405.83 399.75H416.668V392.102H405.83V399.75Z" fill="white"/>
<path d="M389.675 399.75H400.512V392.102H389.675V399.75Z" fill="white"/>
<path d="M405.83 410.984H416.668V403.336H405.83V410.984Z" fill="white"/>
<path d="M389.675 410.984H400.512V403.336H389.675V410.984Z" fill="white"/>
<path d="M405.83 422.22H416.668V414.572H405.83V422.22Z" fill="white"/>
<path d="M389.675 422.22H400.512V414.572H389.675V422.22Z" fill="white"/>
<path d="M405.83 433.454H416.668V425.806H405.83V433.454Z" fill="white"/>
<path d="M389.675 433.454H400.512V425.806H389.675V433.454Z" fill="white"/>
<path d="M369.649 377.281H380.486V369.633H369.649V377.281Z" fill="white"/>
<path d="M369.649 388.516H380.486V380.868H369.649V388.516Z" fill="white"/>
<path d="M369.649 399.75H380.486V392.102H369.649V399.75Z" fill="white"/>
<path d="M369.649 410.985H380.486V403.337H369.649V410.985Z" fill="white"/>
<path d="M369.649 422.22H380.486V414.572H369.649V422.22Z" fill="white"/>
<path d="M369.649 433.454H380.486V425.806H369.649V433.454Z" fill="white"/>
<path d="M405.83 444.555H416.668V436.907H405.83V444.555Z" fill="white"/>
<path d="M389.675 444.555H400.512V436.907H389.675V444.555Z" fill="white"/>
<path d="M369.649 444.555H380.486V436.907H369.649V444.555Z" fill="white"/>
<path d="M405.83 455.656H416.668V448.008H405.83V455.656Z" fill="white"/>
<path d="M389.675 455.656H400.512V448.008H389.675V455.656Z" fill="white"/>
<path d="M369.649 455.656H380.486V448.008H369.649V455.656Z" fill="white"/>
<path d="M405.83 466.756H416.668V459.108H405.83V466.756Z" fill="white"/>
<path d="M389.675 466.756H400.512V459.108H389.675V466.756Z" fill="white"/>
<path d="M369.649 466.756H380.486V459.108H369.649V466.756Z" fill="white"/>
<path d="M405.83 477.858H416.668V470.21H405.83V477.858Z" fill="white"/>
<path d="M389.675 477.858H400.512V470.21H389.675V477.858Z" fill="white"/>
<path d="M369.649 477.858H380.486V470.21H369.649V477.858Z" fill="white"/>
<path d="M405.83 488.958H416.668V481.31H405.83V488.958Z" fill="white"/>
<path d="M389.675 488.958H400.512V481.31H389.675V488.958Z" fill="white"/>
<path d="M369.649 488.958H380.486V481.31H369.649V488.958Z" fill="white"/>
<path d="M271.766 364.779H277.617V358.08H271.766V364.779Z" fill="white"/>
<path d="M261.626 364.779H267.477V358.08H261.626V364.779Z" fill="white"/>
<path d="M271.766 374.858H277.617V368.159H271.766V374.858Z" fill="white"/>
<path d="M261.626 374.858H267.477V368.159H261.626V374.858Z" fill="white"/>
<path d="M271.766 384.936H277.617V378.237H271.766V384.936Z" fill="white"/>
<path d="M261.626 384.936H267.477V378.237H261.626V384.936Z" fill="white"/>
<path d="M271.766 395.016H277.617V388.317H271.766V395.016Z" fill="white"/>
<path d="M261.626 395.016H267.477V388.317H261.626V395.016Z" fill="white"/>
<path d="M271.766 405.344H277.617V398.645H271.766V405.344Z" fill="white"/>
<path d="M261.626 405.344H267.477V398.645H261.626V405.344Z" fill="white"/>
<path d="M271.766 415.673H277.617V408.974H271.766V415.673Z" fill="white"/>
<path d="M261.626 415.673H267.477V408.974H261.626V415.673Z" fill="white"/>
<path d="M271.766 426.003H277.617V419.304H271.766V426.003Z" fill="white"/>
<path d="M261.626 426.003H267.477V419.304H261.626V426.003Z" fill="white"/>
<path d="M271.766 436.331H277.617V429.632H271.766V436.331Z" fill="white"/>
<path d="M261.626 436.331H267.477V429.632H261.626V436.331Z" fill="white"/>
<path d="M271.766 446.77H277.617V440.071H271.766V446.77Z" fill="white"/>
<path d="M261.626 446.77H267.477V440.071H261.626V446.77Z" fill="white"/>
<path d="M271.766 457.208H277.617V450.509H271.766V457.208Z" fill="white"/>
<path d="M261.626 457.208H267.477V450.509H261.626V457.208Z" fill="white"/>
<path d="M271.766 467.646H277.617V460.947H271.766V467.646Z" fill="white"/>
<path d="M261.626 467.646H267.477V460.947H261.626V467.646Z" fill="white"/>
<path d="M271.766 478.085H277.617V471.386H271.766V478.085Z" fill="white"/>
<path d="M261.626 478.085H267.477V471.386H261.626V478.085Z" fill="white"/>
<path d="M128.887 367.061H134.738V359.169H128.887V367.061Z" fill="white"/>
<path d="M118.747 367.061H124.598V359.169H118.747V367.061Z" fill="white"/>
<path d="M128.887 378.935H134.738V371.043H128.887V378.935Z" fill="white"/>
<path d="M118.747 378.935H124.598V371.043H118.747V378.935Z" fill="white"/>
<path d="M128.887 390.81H134.738V382.918H128.887V390.81Z" fill="white"/>
<path d="M118.747 390.81H124.598V382.918H118.747V390.81Z" fill="white"/>
<path d="M128.887 402.684H134.738V394.792H128.887V402.684Z" fill="white"/>
<path d="M118.747 402.684H124.598V394.792H118.747V402.684Z" fill="white"/>
<path d="M128.887 414.853H134.738V406.961H128.887V414.853Z" fill="white"/>
<path d="M118.747 414.853H124.598V406.961H118.747V414.853Z" fill="white"/>
<path d="M128.887 427.021H134.738V419.129H128.887V427.021Z" fill="white"/>
<path d="M118.747 427.021H124.598V419.129H118.747V427.021Z" fill="white"/>
<path d="M128.887 439.19H134.738V431.298H128.887V439.19Z" fill="white"/>
<path d="M118.747 439.19H124.598V431.298H118.747V439.19Z" fill="white"/>
<path d="M128.887 451.358H134.738V443.466H128.887V451.358Z" fill="white"/>
<path d="M118.747 451.358H124.598V443.466H118.747V451.358Z" fill="white"/>
<path d="M128.887 463.656H134.738V455.764H128.887V463.656Z" fill="white"/>
<path d="M118.747 463.656H124.598V455.764H118.747V463.656Z" fill="white"/>
<path d="M128.887 475.954H134.738V468.062H128.887V475.954Z" fill="white"/>
<path d="M118.747 475.954H124.598V468.062H118.747V475.954Z" fill="white"/>
<path d="M128.887 488.251H134.738V480.359H128.887V488.251Z" fill="white"/>
<path d="M118.747 488.251H124.598V480.359H118.747V488.251Z" fill="white"/>
<path d="M128.887 500.549H134.738V492.657H128.887V500.549Z" fill="white"/>
<path d="M118.747 500.549H124.598V492.657H118.747V500.549Z" fill="white"/>
<path d="M250.079 364.779H255.93V358.08H250.079V364.779Z" fill="white"/>
<path d="M239.938 364.779H245.789V358.08H239.938V364.779Z" fill="white"/>
<path d="M250.079 354.444H255.93V347.745H250.079V354.444Z" fill="white"/>
<path d="M239.938 354.444H245.789V347.745H239.938V354.444Z" fill="white"/>
<path d="M250.079 344.11H255.93V337.411H250.079V344.11Z" fill="white"/>
<path d="M239.938 344.11H245.789V337.411H239.938V344.11Z" fill="white"/>
<path d="M250.079 374.858H255.93V368.159H250.079V374.858Z" fill="white"/>
<path d="M239.938 374.858H245.789V368.159H239.938V374.858Z" fill="white"/>
<path d="M250.079 384.936H255.93V378.237H250.079V384.936Z" fill="white"/>
<path d="M239.938 384.936H245.789V378.237H239.938V384.936Z" fill="white"/>
<path d="M250.079 395.016H255.93V388.317H250.079V395.016Z" fill="white"/>
<path d="M239.938 395.016H245.789V388.317H239.938V395.016Z" fill="white"/>
<path d="M250.079 405.344H255.93V398.645H250.079V405.344Z" fill="white"/>
<path d="M239.938 405.344H245.789V398.645H239.938V405.344Z" fill="white"/>
<path d="M250.079 415.673H255.93V408.974H250.079V415.673Z" fill="white"/>
<path d="M239.938 415.673H245.789V408.974H239.938V415.673Z" fill="white"/>
<path d="M250.079 426.003H255.93V419.304H250.079V426.003Z" fill="white"/>
<path d="M239.938 426.003H245.789V419.304H239.938V426.003Z" fill="white"/>
<path d="M250.079 436.331H255.93V429.632H250.079V436.331Z" fill="white"/>
<path d="M239.938 436.331H245.789V429.632H239.938V436.331Z" fill="white"/>
<path d="M250.079 446.77H255.93V440.071H250.079V446.77Z" fill="white"/>
<path d="M239.938 446.77H245.789V440.071H239.938V446.77Z" fill="white"/>
<path d="M250.079 457.208H255.93V450.509H250.079V457.208Z" fill="white"/>
<path d="M239.938 457.208H245.789V450.509H239.938V457.208Z" fill="white"/>
<path d="M250.079 467.646H255.93V460.947H250.079V467.646Z" fill="white"/>
<path d="M239.938 467.646H245.789V460.947H239.938V467.646Z" fill="white"/>
<path d="M250.079 478.085H255.93V471.386H250.079V478.085Z" fill="white"/>
<path d="M239.938 478.085H245.789V471.386H239.938V478.085Z" fill="white"/>
<path d="M511.486 318.844H403.812C403.812 318.844 414.488 289.684 430.918 289.684C447.348 289.684 452.495 309.811 452.495 309.811C452.495 309.811 463.581 298.876 472.686 298.876C481.792 298.876 489.71 313.327 489.71 313.327C489.71 313.327 502.579 305.556 511.486 318.844Z" fill="#EBEBEB"/>
<path d="M451.218 261.175H400.9C400.9 261.175 412.144 244.885 421.002 244.885C429.86 244.885 432.478 255.745 432.478 255.745C432.478 255.745 438.729 250.677 444.521 251.582C450.313 252.487 451.218 261.175 451.218 261.175Z" fill="#EBEBEB"/>
<path d="M217.268 310.158H119.256C119.256 310.158 132.678 280.193 147.036 278.32C161.394 276.447 168.261 300.586 168.261 300.586C168.261 300.586 177.521 292.054 184.804 292.054C192.087 292.054 197.706 303.291 197.706 303.291C197.706 303.291 212.274 295.592 217.268 310.158Z" fill="#EBEBEB"/>
<path d="M310.417 236.03H244.209C244.209 236.03 255.582 214.32 267.92 214.004C280.258 213.688 286.743 230.434 286.743 230.434C286.743 230.434 305.936 215.032 310.417 236.03Z" fill="#EBEBEB"/>
<g filter="url(#filter6_f_1018_37443)">
<path d="M349.135 230.555C245.638 210.187 206.721 275.871 200.199 311.259C198.336 318.545 199.321 333.789 218.167 336.479C241.725 339.842 234.139 385.719 245.718 423.429C257.298 461.139 379.481 424.87 421.806 416.463C464.131 408.057 494.477 415.262 571.94 347.528C649.402 279.794 551.176 256.015 532.01 257.937C512.844 259.858 478.505 256.015 349.135 230.555Z" fill="white"/>
</g>
<g filter="url(#filter7_f_1018_37443)">
<path d="M379.174 8.12764C275.678 -12.2406 236.76 53.4438 230.238 88.832C228.375 96.1178 229.36 111.362 248.206 114.052C271.764 117.415 264.178 163.292 275.757 201.002C287.337 238.712 409.52 202.443 451.845 194.036C494.17 185.629 524.516 192.835 601.979 125.101C679.441 57.367 581.216 33.5881 562.049 35.5096C542.884 37.4311 508.544 33.5879 379.174 8.12764Z" fill="white"/>
</g>
<g filter="url(#filter8_f_1018_37443)">
<path d="M-95.7206 257.017C-199.217 236.649 -238.135 302.333 -244.656 337.722C-246.52 345.007 -245.535 360.252 -226.688 362.942C-203.13 366.305 -210.717 412.181 -199.137 449.891C-187.558 487.601 -65.3745 451.332 -23.0495 442.926C19.2754 434.519 49.6216 441.725 127.084 373.991C204.547 306.257 106.321 282.478 87.155 284.399C67.989 286.321 33.6499 282.478 -95.7206 257.017Z" fill="white"/>
</g>
<g filter="url(#filter9_f_1018_37443)">
<path d="M445.402 -65.4647C403.885 -150.916 352.111 -114.973 331.414 -86.3205C326.893 -80.7561 319.868 -65.9737 327.93 -51.3589C338.008 -33.0903 311.609 4.61264 298.785 47.0591C285.96 89.5055 364.711 134.403 389.941 153.815C415.171 173.226 426.736 199.426 498.723 186.365C570.709 173.303 533.5 88.0753 523.005 77.5355C512.509 66.9956 497.297 41.3492 445.402 -65.4647Z" fill="white"/>
</g>
<g filter="url(#filter10_f_1018_37443)">
<path d="M394.996 414.316C283.522 397.983 241.604 450.655 234.58 479.032C232.573 484.875 233.634 497.099 253.933 499.256C279.307 501.952 271.136 538.74 283.608 568.979C296.08 599.219 427.681 570.135 473.269 563.394C518.856 556.653 551.542 562.431 634.975 508.116C718.409 453.801 612.612 434.733 591.968 436.274C571.325 437.814 534.339 434.733 394.996 414.316Z" fill="white"/>
</g>
<g filter="url(#filter11_f_1018_37443)">
<path d="M-147.842 102.489C-259.316 86.1562 -301.234 138.828 -308.258 167.205C-310.265 173.047 -309.204 185.272 -288.905 187.429C-263.531 190.125 -271.702 226.913 -259.23 257.152C-246.758 287.391 -115.156 258.308 -69.569 251.567C-23.9815 244.825 8.70383 250.604 92.1375 196.289C175.571 141.974 69.7738 122.906 49.1304 124.446C28.4871 125.987 -8.49899 122.905 -147.842 102.489Z" fill="white"/>
</g>
<g filter="url(#filter12_f_1018_37443)">
<path d="M-47.7129 -50.5635C-159.187 -66.8966 -201.105 -14.2251 -208.129 14.1522C-210.136 19.9946 -209.075 32.2188 -188.776 34.376C-163.402 37.0725 -171.573 73.8603 -159.101 104.1C-146.629 134.339 -15.0275 105.255 30.5599 98.5139C76.1474 91.7727 108.833 97.5509 192.266 43.2359C275.7 -11.0791 169.903 -30.1472 149.259 -28.6063C128.616 -27.0655 91.6299 -30.1473 -47.7129 -50.5635Z" fill="white"/>
</g>
<g filter="url(#filter13_f_1018_37443)">
<path d="M356.594 484.836C253.097 464.468 214.18 530.153 207.658 565.541C205.795 572.827 206.78 588.071 225.626 590.761C249.184 594.124 241.598 640 253.177 677.71C264.757 715.42 386.94 679.151 429.265 670.745C471.59 662.338 501.936 669.544 579.399 601.81C656.861 534.076 558.635 510.297 539.469 512.218C520.303 514.14 485.964 510.297 356.594 484.836Z" fill="white"/>
</g>
<g filter="url(#filter14_f_1018_37443)">
<path d="M384.895 -37.6452C281.398 -58.0134 242.481 7.67095 235.959 43.0592C234.095 50.345 235.08 65.5893 253.927 68.2794C277.485 71.6421 269.899 117.519 281.478 155.229C293.058 192.939 415.241 156.67 457.566 148.263C499.891 139.856 530.237 147.062 607.699 79.3282C685.162 11.5942 586.936 -12.1848 567.77 -10.2632C548.604 -8.3417 514.265 -12.1849 384.895 -37.6452Z" fill="white"/>
</g>
<g clip-path="url(#clip1_1018_37443)">
<path d="M187.539 145.923C185.278 145.727 183.017 145.583 180.756 145.416C180.01 145.359 179.26 145.359 178.515 145.33C176.895 145.267 175.276 145.209 173.657 145.146C172.756 145.111 171.852 145.071 170.951 145.042C170.688 145.036 170.429 145.031 170.167 145.031C169.579 145.031 168.992 145.042 168.404 145.048C165.734 145.048 163.06 145.059 160.389 145.059C159.751 145.059 159.118 145.082 158.48 145.094C156.903 145.123 155.33 145.157 153.757 145.186C151.979 145.221 150.205 145.232 148.428 145.301C145.552 145.405 142.681 145.514 139.805 145.618C138.14 145.681 136.478 145.715 134.812 145.813C131.944 145.986 129.081 146.153 126.213 146.32C124.648 146.412 123.079 146.487 121.513 146.619C118.549 146.866 115.585 147.108 112.621 147.356C111.036 147.488 109.452 147.586 107.871 147.787C104.918 148.161 101.969 148.535 99.0167 148.909C98.379 148.99 97.7414 149.07 97.1037 149.151C95.8283 149.312 94.5607 149.565 93.2892 149.778C93.208 149.796 93.1307 149.813 93.0495 149.824C92.8988 149.888 92.7636 150.003 92.6515 150.17C92.4853 150.417 92.3887 150.762 92.3887 151.113C92.3887 151.464 92.4853 151.81 92.6515 152.063C92.8022 152.287 93.065 152.494 93.2892 152.454C94.8235 152.195 96.3539 151.925 97.8921 151.729C99.3181 151.551 100.74 151.367 102.167 151.188C103.72 150.992 105.274 150.797 106.827 150.601C107.453 150.521 108.08 150.417 108.71 150.365C111.133 150.164 113.556 149.968 115.979 149.772C117.49 149.646 119.001 149.525 120.512 149.398C121.135 149.347 121.761 149.283 122.387 149.243C124.787 149.099 127.191 148.967 129.591 148.834C131.048 148.754 132.501 148.668 133.958 148.587C134.449 148.558 134.936 148.524 135.427 148.506C138.02 148.414 140.613 148.328 143.206 148.242C144.656 148.19 146.101 148.144 147.55 148.092C148.064 148.075 148.582 148.046 149.096 148.04C151.77 148 154.445 147.96 157.12 147.919C158.789 147.891 160.454 147.868 162.124 147.873C164.965 147.885 167.806 147.891 170.642 147.902C171.203 147.902 171.763 147.937 172.323 147.966C173.892 148.035 175.458 148.104 177.027 148.173C178.202 148.224 179.376 148.276 180.555 148.328C181.39 148.363 182.221 148.455 183.056 148.524C185.51 148.719 187.964 148.927 190.414 149.151C191.037 149.209 191.658 149.278 192.281 149.347C192.949 149.416 193.618 149.491 194.283 149.6C194.387 149.623 194.488 149.652 194.592 149.686C194.855 149.767 195.106 149.744 195.342 149.542C195.558 149.352 195.721 149.036 195.79 148.673C195.929 147.914 195.62 147.102 195.11 146.889C194.661 146.705 194.198 146.63 193.738 146.561C193.421 146.515 193.108 146.464 192.791 146.418C192.184 146.325 191.574 146.279 190.967 146.21C189.827 146.084 188.683 146.009 187.539 145.911V145.923Z" fill="#EA3934" stroke="#EA3934"/>
</g>
<path d="M97.4057 111L92.5008 93.3151H95.3073L98.7527 107.011H98.9168L102.5 93.3151H105.281L108.865 107.019H109.029L112.465 93.3151H115.281L110.367 111H107.682L103.96 97.7536H103.822L100.1 111H97.4057ZM121.917 111.268C120.61 111.268 119.484 110.988 118.54 110.43C117.602 109.866 116.877 109.074 116.364 108.055C115.858 107.031 115.604 105.83 115.604 104.454C115.604 103.096 115.858 101.898 116.364 100.862C116.877 99.826 117.59 99.0172 118.506 98.4357C119.427 97.8543 120.503 97.5636 121.735 97.5636C122.484 97.5636 123.209 97.6874 123.911 97.9349C124.614 98.1824 125.244 98.571 125.803 99.1007C126.361 99.6303 126.801 100.318 127.124 101.164C127.446 102.005 127.607 103.027 127.607 104.23V105.145H117.064V103.211H125.077C125.077 102.532 124.939 101.93 124.663 101.406C124.386 100.877 123.998 100.459 123.497 100.154C123.002 99.849 122.42 99.6965 121.753 99.6965C121.027 99.6965 120.394 99.8749 119.853 100.232C119.318 100.583 118.903 101.044 118.609 101.614C118.322 102.178 118.178 102.791 118.178 103.453V104.964C118.178 105.851 118.333 106.605 118.644 107.226C118.961 107.848 119.401 108.323 119.965 108.651C120.529 108.974 121.189 109.135 121.943 109.135C122.432 109.135 122.878 109.066 123.281 108.928C123.684 108.784 124.032 108.571 124.326 108.289C124.62 108.006 124.844 107.658 125 107.244L127.443 107.684C127.248 108.404 126.896 109.034 126.39 109.575C125.889 110.111 125.259 110.528 124.499 110.827C123.745 111.121 122.884 111.268 121.917 111.268ZM139.282 106.501L139.265 103.349H139.714L144.999 97.7363H148.09L142.063 104.126H141.657L139.282 106.501ZM136.908 111V93.3151H139.489V111H136.908ZM145.284 111L140.534 104.696L142.313 102.892L148.453 111H145.284ZM155.614 111.268C154.307 111.268 153.181 110.988 152.237 110.43C151.299 109.866 150.573 109.074 150.061 108.055C149.555 107.031 149.301 105.83 149.301 104.454C149.301 103.096 149.555 101.898 150.061 100.862C150.573 99.826 151.287 99.0172 152.203 98.4357C153.124 97.8543 154.2 97.5636 155.432 97.5636C156.181 97.5636 156.906 97.6874 157.608 97.9349C158.311 98.1824 158.941 98.571 159.499 99.1007C160.058 99.6303 160.498 100.318 160.821 101.164C161.143 102.005 161.304 103.027 161.304 104.23V105.145H150.761V103.211H158.774C158.774 102.532 158.636 101.93 158.36 101.406C158.083 100.877 157.695 100.459 157.194 100.154C156.699 99.849 156.117 99.6965 155.449 99.6965C154.724 99.6965 154.091 99.8749 153.55 100.232C153.014 100.583 152.6 101.044 152.306 101.614C152.018 102.178 151.875 102.791 151.875 103.453V104.964C151.875 105.851 152.03 106.605 152.341 107.226C152.657 107.848 153.098 108.323 153.662 108.651C154.226 108.974 154.885 109.135 155.639 109.135C156.129 109.135 156.575 109.066 156.978 108.928C157.381 108.784 157.729 108.571 158.023 108.289C158.316 108.006 158.541 107.658 158.696 107.244L161.14 107.684C160.944 108.404 160.593 109.034 160.087 109.575C159.586 110.111 158.955 110.528 158.195 110.827C157.441 111.121 156.581 111.268 155.614 111.268ZM169.885 111.268C168.579 111.268 167.453 110.988 166.509 110.43C165.571 109.866 164.845 109.074 164.333 108.055C163.826 107.031 163.573 105.83 163.573 104.454C163.573 103.096 163.826 101.898 164.333 100.862C164.845 99.826 165.559 99.0172 166.475 98.4357C167.396 97.8543 168.472 97.5636 169.704 97.5636C170.452 97.5636 171.178 97.6874 171.88 97.9349C172.583 98.1824 173.213 98.571 173.771 99.1007C174.33 99.6303 174.77 100.318 175.092 101.164C175.415 102.005 175.576 103.027 175.576 104.23V105.145H165.032V103.211H173.046C173.046 102.532 172.908 101.93 172.631 101.406C172.355 100.877 171.967 100.459 171.466 100.154C170.971 99.849 170.389 99.6965 169.721 99.6965C168.996 99.6965 168.363 99.8749 167.822 100.232C167.286 100.583 166.872 101.044 166.578 101.614C166.29 102.178 166.146 102.791 166.146 103.453V104.964C166.146 105.851 166.302 106.605 166.613 107.226C166.929 107.848 167.37 108.323 167.934 108.651C168.498 108.974 169.157 109.135 169.911 109.135C170.401 109.135 170.847 109.066 171.25 108.928C171.653 108.784 172.001 108.571 172.295 108.289C172.588 108.006 172.813 107.658 172.968 107.244L175.412 107.684C175.216 108.404 174.865 109.034 174.358 109.575C173.858 110.111 173.227 110.528 172.467 110.827C171.713 111.121 170.853 111.268 169.885 111.268ZM178.441 115.974V97.7363H180.962V99.8865H181.178C181.328 99.6101 181.544 99.2906 181.826 98.928C182.108 98.5653 182.499 98.2486 183 97.9781C183.501 97.7017 184.163 97.5636 184.986 97.5636C186.057 97.5636 187.013 97.8342 187.853 98.3753C188.694 98.9164 189.353 99.6965 189.831 100.715C190.314 101.734 190.556 102.961 190.556 104.394C190.556 105.827 190.317 107.057 189.839 108.081C189.361 109.1 188.705 109.886 187.87 110.439C187.036 110.986 186.083 111.259 185.012 111.259C184.206 111.259 183.547 111.124 183.035 110.853C182.528 110.583 182.131 110.266 181.843 109.903C181.555 109.541 181.334 109.218 181.178 108.936H181.023V115.974H178.441ZM180.971 104.368C180.971 105.301 181.106 106.118 181.377 106.821C181.647 107.523 182.039 108.073 182.551 108.47C183.064 108.861 183.691 109.057 184.434 109.057C185.205 109.057 185.85 108.853 186.368 108.444C186.886 108.029 187.278 107.468 187.542 106.76C187.813 106.052 187.948 105.255 187.948 104.368C187.948 103.493 187.816 102.707 187.551 102.011C187.292 101.314 186.9 100.764 186.377 100.361C185.858 99.9584 185.211 99.7569 184.434 99.7569C183.685 99.7569 183.052 99.9498 182.534 100.335C182.022 100.721 181.633 101.259 181.368 101.95C181.103 102.641 180.971 103.447 180.971 104.368ZM199.884 111V97.7363H202.466V111H199.884ZM201.188 95.6897C200.739 95.6897 200.353 95.5401 200.031 95.2407C199.714 94.9356 199.556 94.5729 199.556 94.1527C199.556 93.7267 199.714 93.364 200.031 93.0646C200.353 92.7595 200.739 92.607 201.188 92.607C201.637 92.607 202.02 92.7595 202.337 93.0646C202.659 93.364 202.82 93.7267 202.82 94.1527C202.82 94.5729 202.659 94.9356 202.337 95.2407C202.02 95.5401 201.637 95.6897 201.188 95.6897ZM212.131 97.7363V99.8087H204.886V97.7363H212.131ZM206.829 94.5585H209.411V107.106C209.411 107.606 209.486 107.983 209.636 108.237C209.785 108.484 209.978 108.654 210.214 108.746C210.456 108.833 210.718 108.876 211 108.876C211.207 108.876 211.388 108.861 211.544 108.833C211.699 108.804 211.82 108.781 211.907 108.763L212.373 110.896C212.223 110.954 212.01 111.012 211.734 111.069C211.458 111.132 211.112 111.167 210.698 111.173C210.018 111.184 209.385 111.063 208.798 110.81C208.211 110.557 207.736 110.165 207.373 109.636C207.01 109.106 206.829 108.441 206.829 107.641V94.5585ZM227.01 111.268C225.726 111.268 224.621 110.977 223.694 110.396C222.773 109.808 222.065 109 221.569 107.969C221.074 106.939 220.827 105.758 220.827 104.429C220.827 103.081 221.08 101.893 221.587 100.862C222.093 99.826 222.807 99.0172 223.728 98.4357C224.649 97.8543 225.734 97.5636 226.984 97.5636C227.991 97.5636 228.889 97.7507 229.678 98.1249C230.467 98.4933 231.103 99.0114 231.586 99.6792C232.076 100.347 232.366 101.127 232.458 102.019H229.946C229.807 101.398 229.491 100.862 228.996 100.413C228.506 99.9642 227.85 99.7397 227.027 99.7397C226.307 99.7397 225.677 99.9296 225.136 100.31C224.6 100.684 224.183 101.219 223.884 101.916C223.584 102.607 223.435 103.424 223.435 104.368C223.435 105.335 223.581 106.17 223.875 106.872C224.169 107.575 224.583 108.119 225.119 108.504C225.66 108.89 226.296 109.083 227.027 109.083C227.516 109.083 227.959 108.994 228.357 108.815C228.76 108.631 229.096 108.369 229.367 108.029C229.643 107.69 229.836 107.281 229.946 106.803H232.458C232.366 107.661 232.087 108.427 231.621 109.1C231.155 109.774 230.53 110.303 229.747 110.689C228.97 111.075 228.057 111.268 227.01 111.268ZM237.802 93.3151V111H235.22V93.3151H237.802ZM246.992 111.268C245.685 111.268 244.559 110.988 243.615 110.43C242.677 109.866 241.951 109.074 241.439 108.055C240.932 107.031 240.679 105.83 240.679 104.454C240.679 103.096 240.932 101.898 241.439 100.862C241.951 99.826 242.665 99.0172 243.581 98.4357C244.502 97.8543 245.578 97.5636 246.81 97.5636C247.559 97.5636 248.284 97.6874 248.986 97.9349C249.689 98.1824 250.319 98.571 250.877 99.1007C251.436 99.6303 251.876 100.318 252.199 101.164C252.521 102.005 252.682 103.027 252.682 104.23V105.145H242.139V103.211H250.152C250.152 102.532 250.014 101.93 249.738 101.406C249.461 100.877 249.073 100.459 248.572 100.154C248.077 99.849 247.495 99.6965 246.827 99.6965C246.102 99.6965 245.469 99.8749 244.928 100.232C244.392 100.583 243.978 101.044 243.684 101.614C243.396 102.178 243.252 102.791 243.252 103.453V104.964C243.252 105.851 243.408 106.605 243.719 107.226C244.035 107.848 244.476 108.323 245.04 108.651C245.604 108.974 246.263 109.135 247.017 109.135C247.507 109.135 247.953 109.066 248.356 108.928C248.759 108.784 249.107 108.571 249.401 108.289C249.694 108.006 249.919 107.658 250.074 107.244L252.518 107.684C252.322 108.404 251.971 109.034 251.465 109.575C250.964 110.111 250.333 110.528 249.573 110.827C248.819 111.121 247.959 111.268 246.992 111.268ZM259.407 111.294C258.566 111.294 257.806 111.138 257.127 110.827C256.448 110.511 255.91 110.053 255.512 109.454C255.121 108.856 254.925 108.122 254.925 107.252C254.925 106.504 255.069 105.888 255.357 105.404C255.645 104.921 256.033 104.538 256.523 104.256C257.012 103.974 257.559 103.761 258.163 103.617C258.768 103.473 259.384 103.364 260.011 103.289C260.806 103.197 261.451 103.122 261.946 103.064C262.441 103.001 262.8 102.9 263.025 102.762C263.25 102.624 263.362 102.399 263.362 102.088V102.028C263.362 101.274 263.149 100.69 262.723 100.275C262.303 99.8606 261.675 99.6533 260.84 99.6533C259.971 99.6533 259.286 99.8462 258.785 100.232C258.29 100.612 257.947 101.035 257.758 101.501L255.331 100.949C255.619 100.143 256.039 99.4921 256.592 98.997C257.15 98.4962 257.792 98.1335 258.517 97.909C259.243 97.6787 260.006 97.5636 260.806 97.5636C261.335 97.5636 261.897 97.6269 262.49 97.7536C263.088 97.8745 263.647 98.099 264.165 98.4271C264.689 98.7552 265.118 99.2244 265.452 99.8347C265.785 100.439 265.952 101.225 265.952 102.192V111H263.431V109.187H263.327C263.16 109.52 262.91 109.849 262.576 110.171C262.242 110.493 261.813 110.761 261.289 110.974C260.765 111.187 260.138 111.294 259.407 111.294ZM259.968 109.221C260.682 109.221 261.292 109.08 261.799 108.798C262.311 108.516 262.7 108.147 262.965 107.693C263.235 107.232 263.37 106.74 263.37 106.216V104.506C263.278 104.598 263.1 104.685 262.835 104.765C262.576 104.84 262.279 104.906 261.946 104.964C261.612 105.016 261.286 105.065 260.97 105.111C260.653 105.151 260.388 105.186 260.175 105.214C259.675 105.278 259.217 105.384 258.802 105.534C258.394 105.684 258.066 105.899 257.818 106.182C257.576 106.458 257.455 106.826 257.455 107.287C257.455 107.926 257.691 108.409 258.163 108.738C258.635 109.06 259.237 109.221 259.968 109.221ZM271.973 103.125V111H269.391V97.7363H271.87V99.8951H272.034C272.339 99.1928 272.817 98.6286 273.467 98.2026C274.123 97.7766 274.95 97.5636 275.945 97.5636C276.849 97.5636 277.641 97.7536 278.32 98.1335C278.999 98.5077 279.526 99.0661 279.9 99.8087C280.275 100.551 280.462 101.47 280.462 102.563V111H277.88V102.874C277.88 101.913 277.629 101.162 277.128 100.62C276.628 100.074 275.94 99.8001 275.065 99.8001C274.466 99.8001 273.933 99.9296 273.467 100.189C273.007 100.448 272.641 100.828 272.37 101.329C272.106 101.824 271.973 102.422 271.973 103.125ZM108.329 124.315V142H105.1L97.4057 130.869H97.2761V142H93.5371V124.315H96.8185L104.452 135.437H104.607V124.315H108.329ZM117.342 142.259C116.001 142.259 114.841 141.974 113.862 141.404C112.889 140.828 112.138 140.028 111.608 139.004C111.079 137.973 110.814 136.779 110.814 135.42C110.814 134.05 111.079 132.852 111.608 131.828C112.138 130.797 112.889 129.997 113.862 129.427C114.841 128.851 116.001 128.564 117.342 128.564C118.684 128.564 119.841 128.851 120.814 129.427C121.792 129.997 122.546 130.797 123.076 131.828C123.606 132.852 123.87 134.05 123.87 135.42C123.87 136.779 123.606 137.973 123.076 139.004C122.546 140.028 121.792 140.828 120.814 141.404C119.841 141.974 118.684 142.259 117.342 142.259ZM117.36 139.409C117.97 139.409 118.479 139.237 118.888 138.891C119.297 138.54 119.605 138.062 119.812 137.458C120.025 136.853 120.131 136.165 120.131 135.394C120.131 134.623 120.025 133.935 119.812 133.33C119.605 132.726 119.297 132.248 118.888 131.897C118.479 131.546 117.97 131.37 117.36 131.37C116.744 131.37 116.225 131.546 115.805 131.897C115.391 132.248 115.077 132.726 114.864 133.33C114.657 133.935 114.553 134.623 114.553 135.394C114.553 136.165 114.657 136.853 114.864 137.458C115.077 138.062 115.391 138.54 115.805 138.891C116.225 139.237 116.744 139.409 117.36 139.409ZM142.926 132.519L139.559 132.726C139.501 132.438 139.377 132.179 139.187 131.949C138.997 131.713 138.747 131.525 138.436 131.387C138.131 131.243 137.765 131.171 137.339 131.171C136.769 131.171 136.289 131.292 135.897 131.534C135.506 131.77 135.31 132.087 135.31 132.484C135.31 132.801 135.437 133.068 135.69 133.287C135.943 133.506 136.378 133.681 136.994 133.814L139.394 134.297C140.684 134.562 141.645 134.988 142.279 135.575C142.912 136.163 143.228 136.934 143.228 137.89C143.228 138.759 142.972 139.522 142.46 140.178C141.953 140.834 141.257 141.347 140.37 141.715C139.489 142.078 138.473 142.259 137.322 142.259C135.566 142.259 134.167 141.893 133.125 141.162C132.089 140.426 131.482 139.424 131.303 138.157L134.921 137.967C135.031 138.503 135.296 138.911 135.716 139.194C136.136 139.47 136.674 139.608 137.331 139.608C137.975 139.608 138.494 139.484 138.885 139.237C139.282 138.983 139.484 138.658 139.489 138.261C139.484 137.927 139.343 137.654 139.066 137.441C138.79 137.222 138.364 137.055 137.788 136.94L135.491 136.482C134.196 136.223 133.232 135.774 132.599 135.135C131.971 134.496 131.657 133.681 131.657 132.691C131.657 131.839 131.888 131.105 132.348 130.489C132.814 129.873 133.468 129.398 134.308 129.064C135.155 128.731 136.145 128.564 137.279 128.564C138.954 128.564 140.272 128.918 141.234 129.626C142.201 130.334 142.765 131.298 142.926 132.519ZM145.545 146.974V128.736H149.172V130.964H149.336C149.497 130.607 149.73 130.245 150.035 129.876C150.346 129.502 150.749 129.191 151.244 128.944C151.745 128.69 152.367 128.564 153.109 128.564C154.076 128.564 154.969 128.817 155.786 129.323C156.604 129.824 157.257 130.581 157.746 131.595C158.236 132.602 158.48 133.866 158.48 135.385C158.48 136.865 158.242 138.114 157.764 139.133C157.292 140.146 156.647 140.915 155.829 141.439C155.018 141.957 154.108 142.216 153.101 142.216C152.387 142.216 151.78 142.098 151.279 141.862C150.784 141.626 150.378 141.329 150.061 140.972C149.744 140.61 149.503 140.244 149.336 139.876H149.223V146.974H145.545ZM149.146 135.368C149.146 136.157 149.255 136.845 149.474 137.432C149.693 138.019 150.009 138.477 150.424 138.805C150.838 139.127 151.342 139.289 151.935 139.289C152.534 139.289 153.04 139.124 153.455 138.796C153.869 138.462 154.183 138.002 154.396 137.415C154.615 136.822 154.724 136.14 154.724 135.368C154.724 134.602 154.618 133.929 154.405 133.348C154.192 132.766 153.878 132.311 153.463 131.983C153.049 131.655 152.539 131.491 151.935 131.491C151.336 131.491 150.83 131.649 150.415 131.966C150.006 132.282 149.693 132.732 149.474 133.313C149.255 133.894 149.146 134.579 149.146 135.368ZM164.715 142.25C163.869 142.25 163.115 142.104 162.453 141.81C161.791 141.511 161.267 141.07 160.881 140.489C160.501 139.902 160.311 139.171 160.311 138.295C160.311 137.559 160.446 136.94 160.717 136.439C160.988 135.938 161.356 135.535 161.822 135.23C162.289 134.925 162.818 134.695 163.411 134.539C164.01 134.384 164.637 134.274 165.294 134.211C166.065 134.13 166.687 134.056 167.159 133.987C167.631 133.912 167.973 133.802 168.186 133.658C168.399 133.514 168.506 133.301 168.506 133.019V132.968C168.506 132.421 168.333 131.998 167.988 131.698C167.648 131.399 167.165 131.249 166.537 131.249C165.875 131.249 165.348 131.396 164.957 131.69C164.565 131.977 164.306 132.34 164.18 132.778L160.777 132.501C160.95 131.695 161.29 130.999 161.796 130.412C162.303 129.819 162.956 129.364 163.757 129.047C164.563 128.725 165.495 128.564 166.554 128.564C167.291 128.564 167.996 128.65 168.67 128.823C169.349 128.995 169.951 129.263 170.475 129.626C171.004 129.988 171.422 130.455 171.727 131.025C172.032 131.589 172.185 132.265 172.185 133.054V142H168.696V140.161H168.592C168.379 140.575 168.094 140.941 167.737 141.257C167.38 141.568 166.952 141.813 166.451 141.991C165.95 142.164 165.371 142.25 164.715 142.25ZM165.769 139.712C166.31 139.712 166.788 139.605 167.202 139.392C167.617 139.173 167.942 138.88 168.178 138.511C168.414 138.143 168.532 137.726 168.532 137.259V135.852C168.417 135.927 168.258 135.996 168.057 136.059C167.861 136.117 167.64 136.171 167.392 136.223C167.144 136.269 166.897 136.312 166.649 136.353C166.402 136.387 166.177 136.419 165.976 136.448C165.544 136.511 165.167 136.612 164.845 136.75C164.522 136.888 164.272 137.075 164.093 137.311C163.915 137.541 163.826 137.829 163.826 138.175C163.826 138.675 164.007 139.058 164.37 139.323C164.738 139.582 165.204 139.712 165.769 139.712ZM175.039 142V128.736H178.544V131.076H178.7C178.976 130.299 179.437 129.686 180.081 129.237C180.726 128.788 181.498 128.564 182.396 128.564C183.305 128.564 184.08 128.791 184.719 129.246C185.358 129.695 185.784 130.305 185.997 131.076H186.135C186.405 130.317 186.895 129.709 187.603 129.254C188.317 128.794 189.16 128.564 190.133 128.564C191.371 128.564 192.375 128.958 193.147 129.747C193.924 130.53 194.312 131.641 194.312 133.08V142H190.642V133.805C190.642 133.068 190.447 132.516 190.055 132.147C189.664 131.779 189.174 131.595 188.587 131.595C187.919 131.595 187.398 131.808 187.024 132.234C186.65 132.654 186.463 133.209 186.463 133.9V142H182.897V133.727C182.897 133.077 182.709 132.559 182.335 132.173C181.967 131.787 181.48 131.595 180.876 131.595C180.467 131.595 180.099 131.698 179.771 131.905C179.448 132.107 179.192 132.392 179.002 132.76C178.812 133.123 178.717 133.549 178.717 134.038V142H175.039ZM200.845 139.582L200.715 140.523C200.629 141.214 200.482 141.934 200.275 142.682C200.073 143.436 199.863 144.136 199.645 144.781C199.432 145.425 199.256 145.938 199.118 146.318H197.287C197.362 145.961 197.466 145.477 197.598 144.867C197.73 144.262 197.86 143.586 197.987 142.838C198.113 142.089 198.208 141.326 198.272 140.549L198.358 139.582H200.845ZM210.642 128.736H213.223V142.864C213.223 143.75 213.062 144.498 212.74 145.109C212.423 145.719 211.951 146.182 211.324 146.499C210.702 146.816 209.933 146.974 209.018 146.974C208.926 146.974 208.84 146.974 208.759 146.974C208.673 146.974 208.583 146.971 208.491 146.965V144.746C208.572 144.746 208.644 144.746 208.707 144.746C208.765 144.746 208.831 144.746 208.906 144.746C209.516 144.746 209.956 144.582 210.227 144.254C210.503 143.931 210.642 143.462 210.642 142.846V128.736ZM211.92 126.69C211.471 126.69 211.085 126.54 210.762 126.241C210.446 125.936 210.288 125.573 210.288 125.153C210.288 124.727 210.446 124.364 210.762 124.065C211.085 123.76 211.471 123.607 211.92 123.607C212.369 123.607 212.751 123.76 213.068 124.065C213.39 124.364 213.552 124.727 213.552 125.153C213.552 125.573 213.39 125.936 213.068 126.241C212.751 126.54 212.369 126.69 211.92 126.69ZM225.099 136.499V128.736H227.69V142H225.151V139.703H225.013C224.708 140.411 224.218 141.001 223.545 141.473C222.877 141.94 222.045 142.173 221.049 142.173C220.197 142.173 219.443 141.986 218.787 141.611C218.136 141.231 217.624 140.67 217.25 139.928C216.881 139.185 216.697 138.267 216.697 137.173V128.736H219.279V136.862C219.279 137.766 219.529 138.485 220.03 139.021C220.531 139.556 221.182 139.824 221.982 139.824C222.465 139.824 222.946 139.703 223.424 139.461C223.907 139.219 224.308 138.854 224.624 138.365C224.947 137.875 225.105 137.254 225.099 136.499ZM241.098 131.975L238.758 132.389C238.66 132.09 238.505 131.805 238.292 131.534C238.084 131.264 237.802 131.042 237.445 130.869C237.088 130.696 236.642 130.61 236.107 130.61C235.376 130.61 234.765 130.774 234.276 131.102C233.787 131.425 233.542 131.842 233.542 132.354C233.542 132.798 233.706 133.155 234.034 133.425C234.363 133.696 234.892 133.917 235.623 134.09L237.73 134.574C238.951 134.856 239.86 135.29 240.459 135.878C241.058 136.465 241.357 137.228 241.357 138.166C241.357 138.96 241.127 139.668 240.666 140.29C240.211 140.906 239.575 141.39 238.758 141.741C237.946 142.092 237.005 142.268 235.934 142.268C234.449 142.268 233.237 141.951 232.299 141.318C231.36 140.679 230.785 139.772 230.572 138.598L233.067 138.218C233.223 138.868 233.542 139.36 234.026 139.694C234.509 140.023 235.14 140.187 235.917 140.187C236.763 140.187 237.44 140.011 237.946 139.66C238.453 139.303 238.706 138.868 238.706 138.356C238.706 137.941 238.551 137.593 238.24 137.311C237.935 137.029 237.465 136.816 236.832 136.672L234.587 136.18C233.349 135.898 232.434 135.449 231.841 134.833C231.254 134.217 230.96 133.437 230.96 132.493C230.96 131.71 231.179 131.025 231.617 130.437C232.054 129.85 232.659 129.393 233.43 129.064C234.201 128.731 235.085 128.564 236.081 128.564C237.514 128.564 238.643 128.874 239.466 129.496C240.289 130.112 240.833 130.938 241.098 131.975ZM250.387 128.736V130.809H243.142V128.736H250.387ZM245.085 125.559H247.667V138.106C247.667 138.606 247.742 138.983 247.892 139.237C248.041 139.484 248.234 139.654 248.47 139.746C248.712 139.833 248.974 139.876 249.256 139.876C249.463 139.876 249.645 139.861 249.8 139.833C249.956 139.804 250.076 139.781 250.163 139.763L250.629 141.896C250.479 141.954 250.266 142.012 249.99 142.069C249.714 142.132 249.368 142.167 248.954 142.173C248.275 142.184 247.641 142.063 247.054 141.81C246.467 141.557 245.992 141.165 245.629 140.636C245.267 140.106 245.085 139.441 245.085 138.641V125.559ZM268.081 136.499V128.736H270.672V142H268.133V139.703H267.995C267.689 140.411 267.2 141.001 266.527 141.473C265.859 141.94 265.027 142.173 264.031 142.173C263.179 142.173 262.425 141.986 261.769 141.611C261.118 141.231 260.606 140.67 260.232 139.928C259.863 139.185 259.679 138.267 259.679 137.173V128.736H262.261V136.862C262.261 137.766 262.511 138.485 263.012 139.021C263.513 139.556 264.163 139.824 264.964 139.824C265.447 139.824 265.928 139.703 266.406 139.461C266.889 139.219 267.289 138.854 267.606 138.365C267.928 137.875 268.087 137.254 268.081 136.499ZM274.141 146.974V128.736H276.662V130.886H276.878C277.028 130.61 277.244 130.291 277.526 129.928C277.808 129.565 278.199 129.249 278.7 128.978C279.201 128.702 279.863 128.564 280.686 128.564C281.757 128.564 282.713 128.834 283.553 129.375C284.394 129.916 285.053 130.696 285.531 131.715C286.014 132.734 286.256 133.961 286.256 135.394C286.256 136.827 286.017 138.057 285.539 139.081C285.061 140.1 284.405 140.886 283.57 141.439C282.736 141.986 281.783 142.259 280.712 142.259C279.906 142.259 279.247 142.124 278.735 141.853C278.228 141.583 277.831 141.266 277.543 140.903C277.255 140.541 277.033 140.218 276.878 139.936H276.723V146.974H274.141ZM276.671 135.368C276.671 136.301 276.806 137.118 277.077 137.821C277.347 138.523 277.739 139.073 278.251 139.47C278.763 139.861 279.391 140.057 280.134 140.057C280.905 140.057 281.55 139.853 282.068 139.444C282.586 139.029 282.977 138.468 283.242 137.76C283.513 137.052 283.648 136.255 283.648 135.368C283.648 134.493 283.516 133.707 283.251 133.011C282.992 132.314 282.6 131.764 282.076 131.361C281.558 130.958 280.911 130.757 280.134 130.757C279.385 130.757 278.752 130.95 278.234 131.335C277.721 131.721 277.333 132.259 277.068 132.95C276.803 133.641 276.671 134.447 276.671 135.368ZM294.114 142.259C293.043 142.259 292.088 141.986 291.247 141.439C290.412 140.886 289.756 140.1 289.278 139.081C288.806 138.057 288.57 136.827 288.57 135.394C288.57 133.961 288.809 132.734 289.287 131.715C289.77 130.696 290.432 129.916 291.273 129.375C292.113 128.834 293.066 128.564 294.131 128.564C294.954 128.564 295.617 128.702 296.117 128.978C296.624 129.249 297.015 129.565 297.292 129.928C297.574 130.291 297.793 130.61 297.948 130.886H298.103V124.315H300.685V142H298.164V139.936H297.948C297.793 140.218 297.568 140.541 297.274 140.903C296.987 141.266 296.589 141.583 296.083 141.853C295.576 142.124 294.92 142.259 294.114 142.259ZM294.684 140.057C295.427 140.057 296.054 139.861 296.566 139.47C297.084 139.073 297.476 138.523 297.741 137.821C298.011 137.118 298.147 136.301 298.147 135.368C298.147 134.447 298.014 133.641 297.749 132.95C297.485 132.259 297.096 131.721 296.584 131.335C296.071 130.95 295.438 130.757 294.684 130.757C293.907 130.757 293.259 130.958 292.741 131.361C292.223 131.764 291.831 132.314 291.567 133.011C291.308 133.707 291.178 134.493 291.178 135.368C291.178 136.255 291.31 137.052 291.575 137.76C291.84 138.468 292.231 139.029 292.75 139.444C293.273 139.853 293.918 140.057 294.684 140.057ZM308.23 142.294C307.39 142.294 306.63 142.138 305.951 141.827C305.271 141.511 304.733 141.053 304.336 140.454C303.944 139.856 303.749 139.122 303.749 138.252C303.749 137.504 303.893 136.888 304.181 136.404C304.468 135.921 304.857 135.538 305.346 135.256C305.836 134.974 306.382 134.761 306.987 134.617C307.591 134.473 308.207 134.364 308.835 134.289C309.629 134.197 310.274 134.122 310.769 134.064C311.264 134.001 311.624 133.9 311.849 133.762C312.073 133.624 312.185 133.399 312.185 133.088V133.028C312.185 132.274 311.972 131.69 311.546 131.275C311.126 130.861 310.499 130.653 309.664 130.653C308.795 130.653 308.11 130.846 307.609 131.232C307.114 131.612 306.771 132.035 306.581 132.501L304.155 131.949C304.442 131.143 304.863 130.492 305.415 129.997C305.974 129.496 306.616 129.134 307.341 128.909C308.066 128.679 308.829 128.564 309.629 128.564C310.159 128.564 310.72 128.627 311.313 128.754C311.912 128.874 312.47 129.099 312.988 129.427C313.512 129.755 313.941 130.224 314.275 130.835C314.609 131.439 314.776 132.225 314.776 133.192V142H312.254V140.187H312.151C311.984 140.52 311.733 140.849 311.4 141.171C311.066 141.493 310.637 141.761 310.113 141.974C309.589 142.187 308.962 142.294 308.23 142.294ZM308.792 140.221C309.506 140.221 310.116 140.08 310.622 139.798C311.135 139.516 311.523 139.147 311.788 138.693C312.059 138.232 312.194 137.74 312.194 137.216V135.506C312.102 135.598 311.923 135.685 311.659 135.765C311.4 135.84 311.103 135.906 310.769 135.964C310.435 136.016 310.11 136.065 309.793 136.111C309.477 136.151 309.212 136.186 308.999 136.214C308.498 136.278 308.04 136.384 307.626 136.534C307.217 136.684 306.889 136.899 306.642 137.182C306.4 137.458 306.279 137.826 306.279 138.287C306.279 138.926 306.515 139.409 306.987 139.738C307.459 140.06 308.061 140.221 308.792 140.221ZM324.406 128.736V130.809H317.161V128.736H324.406ZM319.104 125.559H321.686V138.106C321.686 138.606 321.761 138.983 321.911 139.237C322.06 139.484 322.253 139.654 322.489 139.746C322.731 139.833 322.993 139.876 323.275 139.876C323.482 139.876 323.664 139.861 323.819 139.833C323.975 139.804 324.095 139.781 324.182 139.763L324.648 141.896C324.498 141.954 324.285 142.012 324.009 142.069C323.733 142.132 323.387 142.167 322.973 142.173C322.294 142.184 321.66 142.063 321.073 141.81C320.486 141.557 320.011 141.165 319.648 140.636C319.286 140.106 319.104 139.441 319.104 138.641V125.559ZM332.836 142.268C331.53 142.268 330.404 141.988 329.46 141.43C328.522 140.866 327.796 140.074 327.284 139.055C326.777 138.031 326.524 136.83 326.524 135.454C326.524 134.096 326.777 132.898 327.284 131.862C327.796 130.826 328.51 130.017 329.426 129.436C330.347 128.854 331.423 128.564 332.655 128.564C333.404 128.564 334.129 128.687 334.831 128.935C335.534 129.182 336.164 129.571 336.722 130.101C337.281 130.63 337.721 131.318 338.044 132.164C338.366 133.005 338.527 134.027 338.527 135.23V136.145H327.983V134.211H335.997C335.997 133.532 335.859 132.93 335.582 132.406C335.306 131.877 334.918 131.459 334.417 131.154C333.922 130.849 333.34 130.696 332.672 130.696C331.947 130.696 331.314 130.875 330.773 131.232C330.237 131.583 329.823 132.044 329.529 132.614C329.241 133.178 329.097 133.791 329.097 134.453V135.964C329.097 136.851 329.253 137.605 329.564 138.226C329.88 138.848 330.321 139.323 330.885 139.651C331.449 139.974 332.108 140.135 332.862 140.135C333.352 140.135 333.798 140.066 334.201 139.928C334.604 139.784 334.952 139.571 335.246 139.289C335.539 139.006 335.764 138.658 335.919 138.244L338.363 138.684C338.167 139.404 337.816 140.034 337.31 140.575C336.809 141.111 336.178 141.528 335.418 141.827C334.664 142.121 333.804 142.268 332.836 142.268ZM351.331 131.975L348.991 132.389C348.893 132.09 348.738 131.805 348.525 131.534C348.317 131.264 348.035 131.042 347.678 130.869C347.321 130.696 346.875 130.61 346.34 130.61C345.609 130.61 344.999 130.774 344.509 131.102C344.02 131.425 343.775 131.842 343.775 132.354C343.775 132.798 343.939 133.155 344.267 133.425C344.596 133.696 345.125 133.917 345.856 134.09L347.963 134.574C349.184 134.856 350.093 135.29 350.692 135.878C351.291 136.465 351.59 137.228 351.59 138.166C351.59 138.96 351.36 139.668 350.899 140.29C350.444 140.906 349.808 141.39 348.991 141.741C348.179 142.092 347.238 142.268 346.167 142.268C344.682 142.268 343.47 141.951 342.532 141.318C341.593 140.679 341.018 139.772 340.805 138.598L343.3 138.218C343.456 138.868 343.775 139.36 344.259 139.694C344.742 140.023 345.373 140.187 346.15 140.187C346.996 140.187 347.673 140.011 348.179 139.66C348.686 139.303 348.939 138.868 348.939 138.356C348.939 137.941 348.784 137.593 348.473 137.311C348.168 137.029 347.698 136.816 347.065 136.672L344.82 136.18C343.582 135.898 342.667 135.449 342.074 134.833C341.487 134.217 341.193 133.437 341.193 132.493C341.193 131.71 341.412 131.025 341.85 130.437C342.287 129.85 342.892 129.393 343.663 129.064C344.434 128.731 345.318 128.564 346.314 128.564C347.747 128.564 348.876 128.874 349.699 129.496C350.522 130.112 351.066 130.938 351.331 131.975ZM356.13 142.164C355.658 142.164 355.252 141.997 354.912 141.663C354.573 141.324 354.403 140.915 354.403 140.437C354.403 139.965 354.573 139.562 354.912 139.228C355.252 138.888 355.658 138.719 356.13 138.719C356.602 138.719 357.008 138.888 357.348 139.228C357.687 139.562 357.857 139.965 357.857 140.437C357.857 140.754 357.776 141.044 357.615 141.309C357.46 141.568 357.253 141.775 356.994 141.931C356.734 142.086 356.447 142.164 356.13 142.164Z" fill="#191919"/>
<g clip-path="url(#clip2_1018_37443)">
<path d="M85.6902 542.9C87.2102 544.44 88.7702 545.93 90.3702 547.38C98.8702 555.16 108.29 561.84 118.36 567.14C119.87 567.93 121.38 568.69 122.92 569.41C125.12 570.46 127.34 571.44 129.59 572.36L134.84 542.66V542.61L134.85 542.6L135.7 537.39L135.95 542.6V542.7L137.55 575.29C138.86 575.73 140.16 576.14 141.48 576.51C142.17 576.72 142.87 576.91 143.57 577.1C145.18 577.54 146.79 577.93 148.42 578.3C150.69 578.82 152.98 579.27 155.27 579.63C158.63 580.19 162.01 580.58 165.42 580.81C165.73 580.85 166.05 580.86 166.36 580.88C167.33 580.94 168.31 580.99 169.27 581.03C172.16 581.15 175.04 581.15 177.91 581.08C177.11 568.3 176.23 554.72 175.42 542.62C175.35 541.22 175.25 539.84 175.17 538.5C174.63 530.26 174.13 522.88 173.74 517.18H85.7502L85.7702 518.76L85.9002 534.28L85.6902 542.61L85.6802 542.9H85.6902Z" fill="#414C5B"/>
<path d="M135.691 537.4L135.941 542.61V542.71L137.541 575.3C138.851 575.74 140.151 576.15 141.471 576.52L138.631 542.63L137.251 526.18L135.691 537.41V537.4Z" fill="#343C4B"/>
<path d="M85.6902 542.9C87.2102 544.44 88.7702 545.93 90.3702 547.38L90.4202 542.62L90.6602 517.18H85.7502L85.7702 518.76L85.9002 534.28L85.6902 542.61L85.6802 542.9H85.6902Z" fill="#343C4B"/>
<path d="M228.18 419C228.18 419 225.85 413.49 222.89 413.28C219.92 413.07 224.16 427.27 224.16 427.27L228.18 419Z" fill="#F69D98"/>
<path d="M228.481 451.48L243.131 440.4L246.5 427.27H224.161L221.091 437.58L216.291 442.45L228.481 451.48Z" fill="#F69D98"/>
<path d="M244.22 403.56L250.74 408.15L249.59 409.45L243.13 404.57L244.22 403.56Z" fill="#414C5B"/>
<path d="M231.52 451.92L217.15 441L187.62 467.99L187.02 456.09L167.3 457.55L167.06 495.83C167.06 495.83 170.31 506.46 184.07 504C194.84 502.07 231.52 451.92 231.52 451.92Z" fill="white"/>
<path d="M160.857 395.58C160.857 395.58 170.037 402.3 175.807 408.82C181.577 415.34 191.047 459.22 191.047 459.22L167.257 463.67L160.857 395.58Z" fill="#EA3934"/>
<path d="M79.1063 401.63C79.3463 408.27 80.3463 437.16 81.3763 466.98C82.0163 485.75 82.6863 504.88 83.1563 519.09C83.5763 531.72 83.8563 540.45 83.8563 541.52V541.64C84.0763 541.87 84.3063 542.1 84.5463 542.33H175.486C175.386 536.52 174.056 521.18 172.236 502.48C171.056 490.33 169.666 476.76 168.256 463.48C168.156 462.61 168.076 461.74 167.976 460.87C167.856 459.64 167.726 458.4 167.586 457.18C167.076 452.43 166.586 447.74 166.086 443.22C163.516 419.32 161.316 399.7 160.916 396.15C160.876 395.78 160.856 395.58 160.856 395.58C157.976 393.97 139.436 387 139.436 387L133.916 387.08L117.246 387.33L105.936 387.5L105.146 387.87L87.0363 396.42H87.0263C86.7563 396.6 83.3563 398.69 79.0963 401.62L79.1063 401.63Z" fill="#EA3934"/>
<path d="M114.091 384.56L105.801 387.79C105.801 387.79 116.311 405.6 129.861 412.5L136.321 403.17L144.541 408.5L140.341 387.28L134.641 383.13L114.111 384.56H114.091Z" fill="white"/>
<path d="M114.091 384.56C114.571 385.04 135.441 400.48 135.441 400.48C135.441 400.48 134.961 390.96 134.731 386.01C134.661 384.47 134.621 383.38 134.621 383.13C134.621 381.15 136.311 372.56 136.311 372.56L115.241 362.93C115.241 362.93 114.911 367.27 114.581 372.07C114.191 377.85 113.821 384.3 114.081 384.56H114.091Z" fill="#F69D98"/>
<path opacity="0.4" d="M114.591 372.08C120.441 376.33 133.331 385.63 134.621 385.99C134.661 385.99 134.701 386.01 134.731 386.01C134.661 384.47 134.621 383.38 134.621 383.13C134.621 381.15 136.311 372.56 136.311 372.56L115.241 362.93C115.241 362.93 114.911 367.27 114.581 372.07L114.591 372.08Z" fill="#A04F39"/>
<path d="M112.36 363.67C112.36 363.67 112.89 365.19 115.24 367.27C115.72 367.7 116.28 368.15 116.93 368.62C119.4 370.39 142.54 380.31 146.1 379.83C149.66 379.35 153.02 367.1 153.21 365.82C154.36 357.92 157.51 333.49 157.51 333.49C148.72 306.87 117.35 320.66 113.78 323.27C110.21 325.88 112.35 363.67 112.35 363.67H112.36Z" fill="#F69D98"/>
<path opacity="0.4" d="M115.251 367.28C115.731 367.71 116.291 368.16 116.941 368.63C119.411 370.4 142.551 380.32 146.111 379.84C149.671 379.36 153.031 367.11 153.221 365.83C151.001 371.21 148.491 378.65 145.971 378.41C142.171 378.05 118.061 368.76 115.251 367.28Z" fill="#E1836C"/>
<path d="M153.711 340.78C153.711 340.78 152.321 333.8 149.201 334.81C146.081 335.82 146.951 336.5 146.951 336.5L153.711 340.78Z" fill="#343C4B"/>
<path d="M121.51 334.01C121.51 334.01 130.79 326.42 133.42 330.13C134.95 332.3 133.45 333.34 133.45 333.34L121.51 334.01Z" fill="#343C4B"/>
<path d="M151.852 348.23C151.852 350.08 150.912 351.59 149.762 351.59C148.612 351.59 147.672 350.09 147.672 348.23C147.672 346.37 148.612 344.87 149.762 344.87C150.912 344.87 151.852 346.37 151.852 348.23Z" fill="#343C4B"/>
<path d="M134.23 348.17C133.13 346.44 131.14 345.16 128.92 344.75C126.7 344.34 124.29 344.81 122.49 346.01C123.83 343.79 126.66 342.29 129.47 342.8C132.28 343.31 134.01 345.67 134.23 348.18V348.17Z" fill="#343C4B"/>
<path d="M153.641 346.6C153.641 346.6 152.911 347.59 151.701 348.08C150.501 348.57 149.281 348.37 149.281 348.37C149.281 348.37 150.011 347.38 151.221 346.89C152.421 346.4 153.641 346.6 153.641 346.6Z" fill="white"/>
<path opacity="0.4" d="M131.01 367.34C133.11 368.4 135.68 368.47 137.84 367.54C137.09 368.63 136.04 369.28 134.72 369.23C133.4 369.18 131.91 368.32 131.01 367.34Z" fill="#A04F39"/>
<path d="M149.79 358.5C150.15 359.47 152.26 359.59 154.49 358.75C156.72 357.91 158.24 356.45 157.87 355.47C157.51 354.5 155.4 354.38 153.17 355.22C150.94 356.06 149.42 357.52 149.79 358.5Z" fill="#F9B1AD"/>
<path d="M121.71 353.95C121.33 355.42 123.75 357.32 127.11 358.19C130.48 359.06 133.51 358.58 133.89 357.11C134.27 355.64 131.85 353.74 128.49 352.87C125.12 352 122.09 352.48 121.71 353.95Z" fill="#F9B1AD"/>
<path opacity="0.4" d="M126.071 360.74C126.071 360.74 126.221 360.94 126.471 361.29C126.721 361.65 127.141 362.12 127.721 362.67C128.861 363.75 130.751 365 133.131 365.6C135.511 366.19 137.771 365.99 139.281 365.57C140.041 365.36 140.641 365.14 141.031 364.95C141.421 364.76 141.641 364.66 141.641 364.66C141.641 364.66 141.401 364.7 140.981 364.78C140.561 364.87 139.941 364.95 139.191 365.01C137.681 365.13 135.601 365.04 133.411 364.49C131.221 363.93 129.341 363.04 128.071 362.21C127.431 361.8 126.931 361.44 126.601 361.16C126.271 360.89 126.071 360.74 126.071 360.74Z" fill="#A04F39"/>
<path d="M143.711 355.05C142.411 355.73 140.931 356.07 139.461 356.02C138.441 355.99 137.331 355.7 136.761 354.85C136.351 355.72 136.721 356.86 137.451 357.49C138.181 358.11 139.191 358.32 140.161 358.29C141.091 358.26 142.031 358 142.781 357.44C143.531 356.88 143.701 355.98 143.711 355.05Z" fill="#F9B1AD"/>
<path opacity="0.4" d="M141.67 344.02C140.56 345.34 139.93 347.06 139.92 348.79C139.92 350.52 140.52 352.24 141.62 353.58C142.12 354.19 142.75 354.78 142.89 355.56C143.08 356.68 142.12 357.74 141.03 358.06C139.94 358.38 138.77 358.16 137.65 357.94C138.66 358.33 139.69 358.64 140.77 358.6C141.85 358.56 142.95 358.18 143.7 357.39C144.44 356.6 144.77 355.39 144.35 354.39C144.01 353.58 143.28 353.03 142.69 352.38C140.76 350.27 140.17 346.45 141.68 344.02H141.67Z" fill="#A04F39"/>
<path d="M104.08 333.67C104.18 335.47 104.501 337.48 105.001 339.48C105.511 341.64 106.21 343.8 106.99 345.56C109.98 346.99 112.44 349.48 113.84 352.49C112.58 344.78 113.54 336.61 116.87 329.54C123.89 328.94 131.08 326.77 137.36 323.62C146.66 326.5 154.63 333.46 158.75 342.28C160.16 338.91 161.31 335.36 161.86 331.76C162.11 330.14 162.22 328.53 162.19 326.9C162.08 321.61 160.24 316.16 156.35 312.57C150.79 307.43 142.87 309.09 142.87 309.09C142.87 309.09 136.85 304.75 128.37 304.75C123.04 304.75 115.15 308.78 112.71 313.52C111.28 312.05 110.71 310.2 110.53 308.2C108.83 308.75 107.34 310.19 107.16 311.76C106.71 315.65 107.93 317.38 109.11 318.57C106.55 319.79 104.81 320.73 104.12 323.49C105.53 323.17 107.01 323.19 108.42 323.54C105.31 325.58 103.881 329.95 104.09 333.67H104.08Z" fill="#343C4B"/>
<path d="M104.08 333.67C104.18 335.47 104.501 337.48 105.001 339.48C105.361 339.58 105.74 339.67 106.11 339.74C106.07 337.73 106.84 335.71 108.21 334.22C108.5 335.71 109.36 337.1 110.58 338C109.35 334.77 109.59 331 111.24 327.96C112.88 324.9 115.9 322.63 119.28 321.88C118.21 323.17 117.14 324.44 116.07 325.73C125.21 325.17 134.13 321.47 141 315.41C149.17 319.03 156.39 324.71 161.86 331.77C162.11 330.15 162.22 328.54 162.19 326.91C162.15 325.2 161.94 323.47 161.53 321.8C160.68 318.29 158.98 315 156.35 312.58C152.34 308.88 147.11 308.7 144.5 308.89C143.49 308.96 142.87 309.1 142.87 309.1C142.87 309.1 141.42 308.06 138.92 306.99C136.36 305.88 132.69 304.76 128.37 304.76C123.04 304.76 115.15 308.79 112.71 313.53C111.28 312.06 110.71 310.21 110.53 308.21C108.83 308.76 107.34 310.2 107.16 311.77C106.71 315.66 107.93 317.39 109.11 318.58C106.55 319.8 104.81 320.74 104.12 323.5C105.53 323.18 107.01 323.2 108.42 323.55C106.41 324.88 105.1 327.18 104.49 329.65C104.15 330.98 104.021 332.38 104.09 333.68L104.08 333.67Z" fill="#414C5B"/>
<path d="M144.49 308.88C148.61 314.83 154.68 319.44 161.52 321.79C160.67 318.28 158.97 314.99 156.34 312.57C152.33 308.87 147.1 308.69 144.49 308.88Z" fill="#495969"/>
<path d="M104.47 329.64C105.18 329.24 105.91 328.89 106.65 328.57C106.75 329.54 106.84 330.52 106.94 331.49C110.27 322.61 117.4 315.21 126.15 311.54C126.01 313.98 125.44 316.39 124.48 318.64C130.1 315.93 135.07 311.9 138.91 306.98C136.35 305.87 132.68 304.75 128.36 304.75C123.03 304.75 115.14 308.78 112.7 313.52C111.27 312.05 110.7 310.2 110.52 308.2C108.82 308.75 107.33 310.19 107.15 311.76C106.7 315.65 107.92 317.38 109.1 318.57C106.54 319.79 104.8 320.73 104.11 323.49C105.52 323.17 107 323.19 108.41 323.54C106.4 324.87 105.09 327.17 104.48 329.64H104.47Z" fill="#495969"/>
<path d="M115.77 364.61C111 364.23 107.54 361.41 105.68 359.04C105.26 358.51 104.93 358 104.68 357.54C103.32 355.07 102.93 346.51 106.43 344.52C108.89 343.13 110.67 345.15 111.52 346.48C111.88 347.05 112.07 347.5 112.07 347.5L115.77 364.6V364.61Z" fill="#E1836C"/>
<path d="M115.77 364.61C111 364.23 107.54 361.41 105.68 359.04C105.52 358.8 105.38 358.57 105.26 358.35C103.9 355.88 103.51 347.32 107.01 345.34C109 344.21 110.55 345.32 111.52 346.49C111.88 347.06 112.07 347.51 112.07 347.51L115.77 364.61Z" fill="#F69D98"/>
<path d="M105.319 351.33C105.139 352.01 105.259 352.73 105.479 353.4C106.439 356.27 109.309 358.46 112.049 360.5C111.219 359.11 110.919 357.53 111.089 356C111.149 355.47 111.259 354.94 111.269 354.4C111.289 352.25 106.359 347.28 105.319 351.32V351.33Z" fill="#F9B1AD"/>
<path opacity="0.4" d="M113.429 361.32C113.429 361.32 113.379 361.29 113.269 361.23C113.169 361.17 113.009 361.09 112.829 360.97C112.459 360.72 111.949 360.33 111.479 359.75C110.999 359.17 110.569 358.39 110.369 357.47C110.179 356.55 110.219 355.48 110.719 354.45C110.769 354.32 110.849 354.2 110.919 354.07L110.969 353.98C110.969 353.98 110.969 353.98 110.969 353.97C110.969 353.97 110.969 353.97 110.969 353.95L110.919 353.87L110.829 353.71C110.769 353.6 110.699 353.49 110.639 353.39C110.379 352.97 110.099 352.57 109.809 352.21C109.519 351.84 109.219 351.5 108.929 351.2C108.629 350.89 108.349 350.61 108.059 350.39C107.779 350.17 107.459 350.04 107.169 350C106.879 349.97 106.599 350.03 106.409 350.13C106.219 350.22 106.119 350.35 106.069 350.44C106.019 350.53 106.029 350.59 106.019 350.58C106.019 350.58 106.009 350.53 106.019 350.43C106.039 350.33 106.109 350.18 106.299 350.04C106.489 349.9 106.779 349.78 107.169 349.77C107.559 349.77 107.969 349.9 108.349 350.11C108.729 350.32 109.059 350.59 109.419 350.88C109.769 351.17 110.129 351.5 110.479 351.87C110.819 352.24 111.159 352.64 111.459 353.08C111.539 353.19 111.609 353.3 111.679 353.41L111.789 353.58L111.929 353.82L112.029 353.99C112.009 354.05 111.969 354.1 111.939 354.16L111.799 354.4C111.739 354.51 111.669 354.61 111.629 354.73C111.199 355.62 111.109 356.56 111.189 357.4C111.289 358.24 111.569 358.99 111.919 359.58C112.269 360.17 112.659 360.61 112.959 360.9C113.109 361.05 113.239 361.15 113.319 361.22C113.399 361.29 113.449 361.33 113.449 361.33L113.429 361.32Z" fill="#A04F39"/>
<path opacity="0.18" d="M158.7 406.14C158.43 405.14 156.9 405.56 157.15 406.57C161.65 424.38 164.91 442.45 167.67 460.6C167.82 461.57 169.51 461.35 169.39 460.37C167.27 442.01 163.47 423.99 158.69 406.15L158.7 406.14Z" fill="#191919"/>
<path d="M125.021 474.22L126.941 477.19L133.301 487.06L137.851 483.76L141.951 484.17C144.911 484.07 169.231 470.59 168.821 468.78C168.721 468.29 168.551 467.77 168.371 467.26C168.081 466.49 167.771 465.78 167.551 465.3C167.371 464.96 167.261 464.75 167.261 464.75C167.261 464.75 167.371 463.72 167.341 462.52C167.341 462.16 167.331 461.79 167.291 461.44C167.251 461.07 167.191 460.71 167.131 460.38C166.981 459.68 166.711 459.11 166.281 458.9C165.861 458.69 164.121 459 161.871 459.52C156.311 460.82 147.621 463.45 147.821 462.81C148.111 461.92 165.251 451.53 165.251 451.53C165.251 451.53 165.391 450.91 165.241 450.1C165.141 449.62 164.951 449.06 164.571 448.51C163.561 447.06 137.661 458.18 136.891 458.5C138.881 454.36 139.431 449.51 138.371 445.02C138.361 444.98 138.341 444.94 138.341 444.9C138.241 444.61 138.121 444.3 137.901 444.12C137.861 444.09 137.821 444.07 137.781 444.04C137.741 444.01 137.681 444 137.641 443.99C137.451 443.95 137.261 443.98 137.081 444.03C135.891 444.36 134.931 445.22 134.241 446.28C134.011 446.62 133.821 446.99 133.641 447.36C133.561 447.55 133.481 447.73 133.411 447.92C133.411 447.92 133.421 447.92 133.411 447.93C133.251 448.31 133.121 448.7 133.011 449.08C132.761 449.87 132.571 450.67 132.341 451.45C132.291 451.66 132.231 451.85 132.161 452.04C132.041 452.42 131.901 452.78 131.751 453.15C131.281 454.23 130.691 455.23 130.041 456.19C130.041 456.19 130.051 456.19 130.041 456.2C129.151 457.49 128.141 458.69 127.131 459.9C126.811 460.28 126.541 460.72 126.341 461.19C126.121 461.66 125.941 462.15 125.821 462.67C125.341 464.55 125.401 466.7 125.611 468.56C125.651 468.83 125.681 469.09 125.721 469.35C125.761 469.69 125.821 470.02 125.881 470.32C125.881 470.39 125.891 470.46 125.911 470.51C125.991 470.98 126.091 471.4 126.171 471.77C126.181 471.82 126.201 471.89 126.211 471.95C126.311 472.32 126.371 472.64 126.441 472.84C126.491 473.07 126.541 473.2 126.541 473.2C126.541 473.2 126.531 473.2 126.511 473.21C126.371 473.31 125.781 473.69 125.031 474.21L125.021 474.22Z" fill="#F69D98"/>
<path d="M167.332 462.52C166.852 462.73 166.362 462.94 165.862 463.13C162.932 464.28 160.152 464.97 158.122 465.36C156.212 465.72 154.962 465.84 154.812 465.85C154.942 465.78 156.052 465.18 157.782 464.35C159.642 463.46 162.192 462.28 165.072 461.15C165.772 460.88 166.452 460.63 167.112 460.38C167.262 461.03 167.322 461.8 167.322 462.51L167.332 462.52Z" fill="#E89189"/>
<path d="M168.352 467.26C163.732 469.18 159.702 469.91 159.442 469.95C159.652 469.79 162.962 467.36 167.532 465.3C167.752 465.77 168.072 466.48 168.352 467.26Z" fill="#E89189"/>
<path opacity="0.4" d="M125.02 474.22L126.94 477.19C126.94 477.19 126.97 477.18 126.98 477.16C127.35 476.91 127.73 476.65 128.08 476.35C128.34 476.09 128.59 475.83 128.77 475.5C129.24 474.62 129.14 473.57 129 472.6C128.59 469.41 127.89 466.15 128.67 463.02C129.59 459.35 132.42 456.47 134.01 453.02C135.15 450.51 135.71 447.62 137.59 445.61C137.81 445.38 138.07 445.14 138.33 444.9C138.23 444.61 138.11 444.3 137.89 444.12C137.85 444.09 137.81 444.07 137.77 444.04C137.73 444.01 137.67 444 137.63 443.99C137.44 443.95 137.25 443.98 137.07 444.03C135.88 444.36 134.92 445.22 134.23 446.28C134.01 446.62 133.81 446.99 133.64 447.36C133.56 447.54 133.48 447.73 133.39 447.92C133.39 447.92 133.4 447.92 133.39 447.93C133.25 448.3 133.12 448.68 132.99 449.08C132.76 449.87 132.55 450.67 132.32 451.45C132.27 451.66 132.21 451.85 132.14 452.04C132.02 452.42 131.88 452.78 131.73 453.15C131.28 454.22 130.69 455.22 130.02 456.19C130.02 456.19 130.03 456.19 130.02 456.2C129.14 457.49 128.13 458.69 127.13 459.9C126.81 460.28 126.54 460.72 126.32 461.19C126.1 461.66 125.94 462.15 125.8 462.67C125.33 464.55 125.38 466.7 125.59 468.56C125.63 468.83 125.66 469.09 125.7 469.35C125.75 469.69 125.81 470.02 125.86 470.32C125.86 470.39 125.87 470.46 125.89 470.51C125.99 470.98 126.07 471.4 126.15 471.77C126.16 471.82 126.18 471.89 126.19 471.95C126.29 472.32 126.35 472.64 126.42 472.84C126.47 473.07 126.52 473.2 126.52 473.2C126.52 473.2 126.51 473.2 126.49 473.21C126.35 473.31 125.76 473.69 125.01 474.21L125.02 474.22Z" fill="#D47E72"/>
<path d="M97.1875 464.95L81.3875 466.99L60.6975 469.68C60.6975 469.68 58.5975 423.8 61.6875 416.86C63.4575 412.87 72.3475 406.24 79.1175 401.64C83.3675 398.72 86.7775 396.62 87.0375 396.46H87.0475L93.0475 440.24L97.1875 464.96V464.95Z" fill="#EA3934"/>
<path opacity="0.18" d="M89.1508 415.66C89.0808 415.45 88.7808 415.54 88.8208 415.75C91.6908 431.86 93.8508 447.88 93.5808 464.28C93.5608 465.62 95.6308 465.62 95.6608 464.28C95.9308 447.84 94.3308 431.34 89.1508 415.66Z" fill="#191919"/>
<path d="M89.5405 466.34L88.8205 488.83L124.221 470.84L136.311 490.2C136.311 490.2 82.2005 527.88 70.3805 520.35C62.8105 515.04 64.1105 469.64 64.1105 469.64L89.5405 466.34Z" fill="white"/>
<path d="M285.909 377.778H245.671H244.371L259.603 391.555V405.233H260.902H285.909H287.209V377.778H285.909Z" fill="#476CA3"/>
<path d="M247.904 377.778V380.974L248.162 381.207V377.778H247.904Z" fill="white"/>
<path d="M287.209 381.832V381.574H283.423V377.778H283.166V381.574H279.508V377.778H279.251V381.574H275.587V377.778H275.329V381.574H271.672V377.778H271.414V381.574H267.757V377.778H267.499V381.574H263.835V377.778H263.578V381.574H259.914V377.778H259.656V381.574H255.999V377.778H255.741V381.574H252.084V377.778H251.826V381.574H248.568L248.854 381.832H251.827V384.521L252.084 384.754V381.832H255.742V385.499H252.908L253.193 385.757H255.742V388.062L255.999 388.295V385.757H259.657V389.431H257.255L257.54 389.689H259.657V393.362H259.604V393.62H259.657V397.287H259.604V397.545H259.657V401.212H259.604V401.471H259.657V405.233H259.914V401.471H263.578V405.233H263.836V401.471H267.5V405.233H267.757V401.471H271.415V405.233H271.672V401.471H275.33V405.233H275.587V401.471H279.251V405.233H279.509V401.471H283.166V405.233H283.424V401.471H287.21V401.212H283.424V397.545H287.21V397.287H283.424V393.62H287.21V393.362H283.424V389.689H287.21V389.431H283.424V385.757H287.21V385.499H283.424V381.832H287.209ZM259.657 385.499H255.999V381.832H259.657V385.499ZM263.578 401.212H259.914V397.545H263.578V401.212ZM263.578 397.287H259.914V393.62H263.578V397.287ZM263.578 393.362H259.914V389.689H263.578V393.362ZM263.578 389.431H259.914V385.757H263.578V389.431ZM263.578 385.499H259.914V381.832H263.578V385.499ZM267.5 401.212H263.836V397.545H267.5V401.212ZM267.5 397.287H263.836V393.62H267.5V397.287ZM267.5 393.362H263.836V389.689H267.5V393.362ZM267.5 389.431H263.836V385.757H267.5V389.431ZM267.5 385.499H263.836V381.832H267.5V385.499ZM271.414 401.212H267.757V397.545H271.414V401.212ZM271.414 397.287H267.757V393.62H271.414V397.287ZM271.414 393.362H267.757V389.689H271.414V393.362ZM271.414 389.431H267.757V385.757H271.414V389.431ZM271.414 385.499H267.757V381.832H271.414V385.499ZM275.329 401.212H271.672V397.545H275.329V401.212ZM275.329 397.287H271.672V393.62H275.329V397.287ZM275.329 393.362H271.672V389.689H275.329V393.362ZM275.329 389.431H271.672V385.757H275.329V389.431ZM275.329 385.499H271.672V381.832H275.329V385.499ZM279.251 401.212H275.587V397.545H279.251V401.212ZM279.251 397.287H275.587V393.62H279.251V397.287ZM279.251 393.362H275.587V389.689H279.251V393.362ZM279.251 389.431H275.587V385.757H279.251V389.431ZM279.251 385.499H275.587V381.832H279.251V385.499ZM283.166 401.212H279.508V397.545H283.166V401.212ZM283.166 397.287H279.508V393.62H283.166V397.287ZM283.166 393.362H279.508V389.689H283.166V393.362ZM283.166 389.431H279.508V385.757H283.166V389.431ZM283.166 385.499H279.508V381.832H283.166V385.499Z" fill="white"/>
<path d="M228.084 363.046L196.572 391.241V433.334H228.088H259.603V391.555L228.084 363.046Z" fill="#E6E7E8"/>
<path d="M221.227 376.645V393.535H234.557V376.645H221.227Z" fill="white"/>
<path d="M233.427 377.778H222.357V392.401H233.427V377.778Z" fill="#476CA3"/>
<path d="M192.505 394.879L191 393.188L228.091 360L264.788 393.192L263.273 394.875L228.083 363.046L192.505 394.879Z" fill="#36478A"/>
<path d="M223.488 391.268V378.912H232.296H233.427V377.778H222.357V392.401H223.488V391.268Z" fill="#36478A"/>
<path d="M234.557 382.52H221.227V383.654H234.557V382.52Z" fill="white"/>
<path d="M233.427 383.653H222.357V384.787H233.427V383.653Z" fill="#36478A"/>
<path d="M259.603 414.793H196.572V433.333H259.603V414.793Z" fill="#D1D3D4"/>
<path d="M228.084 363.046L196.572 391.241V393.2L228.084 365.004L259.603 393.514V391.555L228.084 363.046Z" fill="#D1D3D4"/>
<path d="M205.857 405.233V422.123H219.188V405.233H205.857Z" fill="white"/>
<path d="M218.058 406.366H206.988V420.99H218.058V406.366Z" fill="#476CA3"/>
<path d="M208.119 419.856V407.5H216.927H218.058V406.366H206.988V420.99H208.119V419.856Z" fill="#36478A"/>
<path d="M218.058 412.242H206.988V413.375H218.058V412.242Z" fill="#36478A"/>
<path d="M219.188 411.108H205.857V412.242H219.188V411.108Z" fill="white"/>
<path d="M236.982 405.233V422.123H250.313V405.233H236.982Z" fill="white"/>
<path d="M249.183 406.366H238.113V420.99H249.183V406.366Z" fill="#476CA3"/>
<path d="M239.244 419.856V407.5H248.052H249.183V406.366H238.113V420.99H239.244V419.856Z" fill="#36478A"/>
<path d="M249.183 412.242H238.113V413.375H249.183V412.242Z" fill="#36478A"/>
<path d="M250.313 411.108H236.982V412.242H250.313V411.108Z" fill="white"/>
<path d="M259.603 429.482H196.572V433.334H259.603V429.482Z" fill="#BCBEC0"/>
<path d="M273.278 405.233H259.604V433.334H273.278V405.233Z" fill="#D1D3D4"/>
<path d="M283.927 405.233H281.453V433.334H283.927V405.233Z" fill="#D1D3D4"/>
<path d="M284.564 429.482H259.604V433.334H284.564V429.482Z" fill="#BCBEC0"/>
<path d="M284.564 420.99H259.604V422.123H284.564V420.99Z" fill="#BCBEC0"/>
<path d="M260.855 425.326H259.604V433.334H260.855V425.326Z" fill="#BCBEC0"/>
<path d="M265.597 425.326H264.346V433.334H265.597V425.326Z" fill="#BCBEC0"/>
<path d="M270.339 425.326H269.088V433.334H270.339V425.326Z" fill="#BCBEC0"/>
<path d="M275.079 425.326H273.828V433.334H275.079V425.326Z" fill="#BCBEC0"/>
<path d="M279.822 425.326H278.57V433.334H279.822V425.326Z" fill="#BCBEC0"/>
<path d="M284.562 425.326H283.311V433.334H284.562V425.326Z" fill="#BCBEC0"/>
<path d="M260.562 420.99H259.893V428.998H260.562V420.99Z" fill="#BCBEC0"/>
<path d="M265.304 420.99H264.635V428.998H265.304V420.99Z" fill="#BCBEC0"/>
<path d="M270.046 420.99H269.377V428.998H270.046V420.99Z" fill="#BCBEC0"/>
<path d="M274.789 420.99H274.119V428.998H274.789V420.99Z" fill="#BCBEC0"/>
<path d="M279.521 420.99H278.852V428.998H279.521V420.99Z" fill="#BCBEC0"/>
<path d="M284.263 420.99H283.594V428.998H284.263V420.99Z" fill="#BCBEC0"/>
<path d="M204.714 433.334C205.57 432.192 206.079 430.772 206.079 429.234C206.079 425.464 203.031 422.408 199.271 422.408C195.511 422.408 192.463 425.464 192.463 429.234C192.463 430.772 192.971 432.192 193.828 433.334H204.714Z" fill="#79C89F"/>
<path d="M207.8 433.334C208.371 432.573 208.71 431.627 208.71 430.601C208.71 428.089 206.679 426.053 204.173 426.053C201.668 426.053 199.637 428.09 199.637 430.601C199.637 431.627 199.975 432.573 200.547 433.334H207.8Z" fill="#98D09E"/>
<path d="M286.2 433.334C286.654 432.728 286.924 431.974 286.924 431.158C286.924 429.157 285.306 427.535 283.311 427.535C281.315 427.535 279.697 429.157 279.697 431.158C279.697 431.974 279.967 432.728 280.422 433.334H286.2Z" fill="#98D09E"/>
<path d="M265.972 433.334C267.136 431.782 267.827 429.853 267.827 427.762C267.827 422.638 263.685 418.485 258.575 418.485C253.465 418.485 249.322 422.638 249.322 427.762C249.322 429.853 250.013 431.782 251.178 433.334H265.972Z" fill="#98D09E"/>
<path d="M254.847 433.334C255.536 432.416 255.945 431.275 255.945 430.038C255.945 427.008 253.495 424.552 250.472 424.552C247.45 424.552 245 427.008 245 430.038C245 431.275 245.409 432.416 246.097 433.334H254.847Z" fill="#79C89F"/>
<path d="M287.209 405.233H259.604V406.524H287.209V405.233Z" fill="#36478A"/>
<path d="M240.43 442.07C240.43 442.07 244.731 440.767 243.5 437.554C242.28 434.332 239.212 430.662 237.864 431.346C236.516 432.03 236.561 441.503 236.561 441.503L240.429 442.08L240.43 442.07Z" fill="#F69D98"/>
<path d="M243.616 439.635C243.616 439.635 248.836 437.452 247.615 434.241C246.395 431.019 243.327 427.349 241.979 428.033C240.631 428.717 240.676 438.19 240.676 438.19L243.614 439.645L243.616 439.635Z" fill="#F69D98"/>
<path d="M247.493 435.505C247.493 435.505 252.713 433.322 251.492 430.11C250.272 426.889 247.204 423.219 245.856 423.903C244.508 424.587 244.553 434.059 244.553 434.059L247.491 435.515L247.493 435.505Z" fill="#F69D98"/>
<path d="M249.191 433.482C249.191 433.482 254.85 429.45 254.599 427.159C254.359 424.87 251.121 421.581 250.083 422.204C249.047 422.817 249.907 430.489 249.907 430.489L248.125 432.357L249.191 433.482Z" fill="#F69D98"/>
</g>
<path d="M331.781 213H200.255C197.357 213 195 215.357 195 218.256V266.471C195 269.369 197.357 271.726 200.255 271.726H331.781C334.68 271.726 337.037 269.369 337.037 266.471V218.256C337.037 215.357 334.68 213 331.781 213Z" fill="white"/>
<path d="M241.265 255.642C249.089 247.819 249.089 235.134 241.265 227.31C233.441 219.486 220.756 219.486 212.932 227.31C205.108 235.134 205.108 247.819 212.932 255.642C220.756 263.466 233.441 263.466 241.265 255.642Z" fill="#F67773"/>
<path d="M227.097 239.959C220.766 239.959 215.639 245.094 215.639 251.417H238.563C238.563 245.086 233.428 239.959 227.105 239.959H227.097Z" fill="white"/>
<path d="M233.059 235.004C233.059 238.299 230.393 240.965 227.098 240.965C223.803 240.965 221.137 238.299 221.137 235.004C221.137 231.709 223.803 229.043 227.098 229.043C230.393 229.043 233.059 231.709 233.059 235.004Z" fill="white"/>
<path d="M262.455 235.202V237.671H260.313V235.185C258.799 234.978 257.328 234.342 256.244 233.456L257.388 231.15C258.549 232.148 260.304 232.862 261.483 232.862C262.352 232.862 262.902 232.535 262.902 231.942C262.902 230.023 256.95 231.185 256.95 227.185C256.95 225.396 258.24 224.148 260.304 223.813V221.439H262.446V223.796C263.771 223.942 265.027 224.389 265.982 225.008L264.872 227.348C263.676 226.669 262.162 226.135 261.225 226.135C260.511 226.135 260.046 226.393 260.046 226.91C260.046 228.785 265.999 227.718 265.999 231.778C265.999 233.765 264.485 234.927 262.446 235.202H262.455Z" fill="#0CC3BE"/>
<path d="M277.017 235.202V237.671H274.875V235.185C273.361 234.978 271.891 234.342 270.807 233.456L271.951 231.15C273.112 232.148 274.867 232.862 276.045 232.862C276.914 232.862 277.465 232.535 277.465 231.942C277.465 230.023 271.512 231.185 271.512 227.185C271.512 225.396 272.802 224.148 274.867 223.813V221.439H277.009V223.796C278.333 223.942 279.589 224.389 280.544 225.008L279.435 227.348C278.239 226.669 276.725 226.135 275.787 226.135C275.073 226.135 274.609 226.393 274.609 226.91C274.609 228.785 280.561 227.718 280.561 231.778C280.561 233.765 279.047 234.927 277.009 235.202H277.017Z" fill="#0CC3BE"/>
<path d="M291.59 235.202V237.671H289.448V235.185C287.934 234.978 286.463 234.342 285.379 233.456L286.523 231.15C287.684 232.148 289.439 232.862 290.618 232.862C291.486 232.862 292.037 232.535 292.037 231.942C292.037 230.023 286.084 231.185 286.084 227.185C286.084 225.396 287.375 224.148 289.439 223.813V221.439H291.581V223.796C292.906 223.942 294.162 224.389 295.116 225.008L294.007 227.348C292.811 226.669 291.297 226.135 290.36 226.135C289.654 226.135 289.181 226.393 289.181 226.91C289.181 228.785 295.134 227.718 295.134 231.778C295.134 233.765 293.62 234.927 291.581 235.202H291.59Z" fill="#0CC3BE"/>
<path d="M306.154 235.202V237.671H304.012V235.185C302.498 234.978 301.027 234.342 299.943 233.456L301.087 231.15C302.249 232.148 304.004 232.862 305.182 232.862C306.051 232.862 306.601 232.535 306.601 231.942C306.601 230.023 300.649 231.185 300.649 227.185C300.649 225.396 301.939 224.148 304.004 223.813V221.439H306.145V223.796C307.47 223.942 308.726 224.389 309.681 225.008L308.571 227.348C307.376 226.669 305.862 226.135 304.924 226.135C304.219 226.135 303.745 226.393 303.745 226.91C303.745 228.785 309.698 227.718 309.698 231.778C309.698 233.765 308.184 234.927 306.145 235.202H306.154Z" fill="#DFDEEE"/>
<path d="M320.726 235.202V237.671H318.584V235.185C317.07 234.978 315.599 234.342 314.516 233.456L315.66 231.15C316.821 232.148 318.576 232.862 319.754 232.862C320.623 232.862 321.174 232.535 321.174 231.942C321.174 230.023 315.221 231.185 315.221 227.185C315.221 225.396 316.511 224.148 318.576 223.813V221.439H320.718V223.796C322.042 223.942 323.298 224.389 324.253 225.008L323.144 227.348C321.948 226.669 320.434 226.135 319.496 226.135C318.791 226.135 318.318 226.393 318.318 226.91C318.318 228.785 324.27 227.718 324.27 231.778C324.27 233.765 322.756 234.927 320.718 235.202H320.726Z" fill="#DFDEEE"/>
<path d="M306.721 244.312H256.244V248.114H306.721V244.312Z" fill="#343C4B"/>
<path d="M284.923 257.714H256.244V261.516H284.923V257.714Z" fill="#343C4B"/>
<path d="M324.278 251.013H256.244V254.815H324.278V251.013Z" fill="#343C4B"/>
<path d="M221.606 283.855H353.123C356.026 283.855 358.379 286.208 358.379 289.111V337.326C358.379 340.229 356.026 342.582 353.123 342.582H221.606C218.703 342.582 216.35 340.229 216.35 337.326V289.111C216.35 286.208 218.703 283.855 221.606 283.855Z" fill="white"/>
<path d="M247.635 341.498L238.826 361.627L230.018 341.498H247.635Z" fill="white"/>
<path d="M269.897 315.518C271.656 304.594 264.227 294.312 253.303 292.553C242.38 290.793 232.098 298.223 230.338 309.146C228.579 320.07 236.008 330.352 246.932 332.112C257.855 333.871 268.137 326.442 269.897 315.518Z" fill="#EA3934"/>
<path d="M250.114 310.814C243.783 310.814 238.656 315.95 238.656 322.272H261.581C261.581 315.941 256.445 310.814 250.123 310.814H250.114Z" fill="white"/>
<path d="M256.077 305.859C256.077 309.154 253.41 311.821 250.116 311.821C246.821 311.821 244.154 309.154 244.154 305.859C244.154 302.565 246.821 299.898 250.116 299.898C253.41 299.898 256.077 302.565 256.077 305.859Z" fill="white"/>
<path d="M285.463 306.057V308.526H283.321V306.04C281.807 305.833 280.336 305.197 279.252 304.311L280.396 302.005C281.557 303.003 283.312 303.717 284.491 303.717C285.359 303.717 285.91 303.39 285.91 302.797C285.91 300.879 279.957 302.04 279.957 298.04C279.957 296.251 281.248 295.003 283.312 294.668V292.294H285.454V294.651C286.779 294.797 288.035 295.244 288.99 295.864L287.88 298.203C286.684 297.524 285.17 296.99 284.233 296.99C283.519 296.99 283.054 297.248 283.054 297.765C283.054 299.64 289.007 298.573 289.007 302.633C289.007 304.62 287.493 305.782 285.454 306.057H285.463Z" fill="#0CC3BE"/>
<path d="M300.035 306.057V308.526H297.893V306.04C296.379 305.833 294.908 305.197 293.824 304.311L294.968 302.005C296.13 303.003 297.884 303.717 299.063 303.717C299.932 303.717 300.482 303.39 300.482 302.797C300.482 300.879 294.53 302.04 294.53 298.04C294.53 296.251 295.82 295.003 297.884 294.668V292.294H300.026V294.651C301.351 294.797 302.607 295.244 303.562 295.864L302.452 298.203C301.256 297.524 299.742 296.99 298.805 296.99C298.091 296.99 297.626 297.248 297.626 297.765C297.626 299.64 303.579 298.573 303.579 302.633C303.579 304.62 302.065 305.782 300.026 306.057H300.035Z" fill="#0CC3BE"/>
<path d="M314.607 306.057V308.526H312.465V306.04C310.951 305.833 309.48 305.197 308.396 304.311L309.541 302.005C310.702 303.003 312.457 303.717 313.635 303.717C314.504 303.717 315.054 303.39 315.054 302.797C315.054 300.879 309.102 302.04 309.102 298.04C309.102 296.251 310.392 295.003 312.457 294.668V292.294H314.599V294.651C315.923 294.797 317.179 295.244 318.134 295.864L317.024 298.203C315.829 297.524 314.315 296.99 313.377 296.99C312.663 296.99 312.199 297.248 312.199 297.765C312.199 299.64 318.151 298.573 318.151 302.633C318.151 304.62 316.637 305.782 314.599 306.057H314.607Z" fill="#0CC3BE"/>
<path d="M329.17 306.057V308.526H327.028V306.04C325.514 305.833 324.043 305.197 322.959 304.311L324.103 302.005C325.264 303.003 327.019 303.717 328.198 303.717C329.066 303.717 329.617 303.39 329.617 302.797C329.617 300.879 323.664 302.04 323.664 298.04C323.664 296.251 324.955 295.003 327.019 294.668V292.294H329.161V294.651C330.486 294.797 331.742 295.244 332.697 295.864L331.587 298.203C330.391 297.524 328.877 296.99 327.94 296.99C327.226 296.99 326.761 297.248 326.761 297.765C326.761 299.64 332.714 298.573 332.714 302.633C332.714 304.62 331.2 305.782 329.161 306.057H329.17Z" fill="#0CC3BE"/>
<path d="M343.742 306.057V308.526H341.6V306.04C340.086 305.833 338.615 305.197 337.531 304.311L338.675 302.005C339.837 303.003 341.591 303.717 342.77 303.717C343.639 303.717 344.189 303.39 344.189 302.797C344.189 300.879 338.237 302.04 338.237 298.04C338.237 296.251 339.527 295.003 341.591 294.668V292.294H343.733V294.651C345.058 294.797 346.314 295.244 347.269 295.864L346.159 298.203C344.963 297.524 343.449 296.99 342.512 296.99C341.798 296.99 341.333 297.248 341.333 297.765C341.333 299.64 347.286 298.573 347.286 302.633C347.286 304.62 345.772 305.782 343.733 306.057H343.742Z" fill="#0CC3BE"/>
<path d="M302.685 315.167H279.262V318.969H302.685V315.167Z" fill="#343C4B"/>
<path d="M347.296 328.56H279.262V332.362H347.296V328.56Z" fill="#343C4B"/>
<path d="M335.373 321.868H279.262V325.67H335.373V321.868Z" fill="#343C4B"/>
</g>
<defs>
<filter id="filter0_f_1018_37443" x="-34.6129" y="-150.475" width="800.159" height="622.075" filterUnits="userSpaceOnUse" color-interpolation-filters="sRGB">
<feFlood flood-opacity="0" result="BackgroundImageFix"/>
<feBlend mode="normal" in="SourceGraphic" in2="BackgroundImageFix" result="shape"/>
<feGaussianBlur stdDeviation="70.5887" result="effect1_foregroundBlur_1018_37443"/>
</filter>
<filter id="filter1_f_1018_37443" x="152.77" y="-147.614" width="866.673" height="666.417" filterUnits="userSpaceOnUse" color-interpolation-filters="sRGB">
<feFlood flood-opacity="0" result="BackgroundImageFix"/>
<feBlend mode="normal" in="SourceGraphic" in2="BackgroundImageFix" result="shape"/>
<feGaussianBlur stdDeviation="70.5887" result="effect1_foregroundBlur_1018_37443"/>
</filter>
<filter id="filter2_f_1018_37443" x="-224.569" y="220.957" width="417.788" height="560.431" filterUnits="userSpaceOnUse" color-interpolation-filters="sRGB">
<feFlood flood-opacity="0" result="BackgroundImageFix"/>
<feBlend mode="normal" in="SourceGraphic" in2="BackgroundImageFix" result="shape"/>
<feGaussianBlur stdDeviation="55.842" result="effect1_foregroundBlur_1018_37443"/>
</filter>
<filter id="filter3_f_1018_37443" x="-117.276" y="303.478" width="563.327" height="361.197" filterUnits="userSpaceOnUse" color-interpolation-filters="sRGB">
<feFlood flood-opacity="0" result="BackgroundImageFix"/>
<feBlend mode="normal" in="SourceGraphic" in2="BackgroundImageFix" result="shape"/>
<feGaussianBlur stdDeviation="55.842" result="effect1_foregroundBlur_1018_37443"/>
</filter>
<filter id="filter4_f_1018_37443" x="104.699" y="274.524" width="625.112" height="436.902" filterUnits="userSpaceOnUse" color-interpolation-filters="sRGB">
<feFlood flood-opacity="0" result="BackgroundImageFix"/>
<feBlend mode="normal" in="SourceGraphic" in2="BackgroundImageFix" result="shape"/>
<feGaussianBlur stdDeviation="55.842" result="effect1_foregroundBlur_1018_37443"/>
</filter>
<filter id="filter5_f_1018_37443" x="81.4194" y="210.871" width="625.112" height="436.902" filterUnits="userSpaceOnUse" color-interpolation-filters="sRGB">
<feFlood flood-opacity="0" result="BackgroundImageFix"/>
<feBlend mode="normal" in="SourceGraphic" in2="BackgroundImageFix" result="shape"/>
<feGaussianBlur stdDeviation="55.842" result="effect1_foregroundBlur_1018_37443"/>
</filter>
<filter id="filter6_f_1018_37443" x="87.8569" y="115.034" width="625.112" height="436.902" filterUnits="userSpaceOnUse" color-interpolation-filters="sRGB">
<feFlood flood-opacity="0" result="BackgroundImageFix"/>
<feBlend mode="normal" in="SourceGraphic" in2="BackgroundImageFix" result="shape"/>
<feGaussianBlur stdDeviation="55.842" result="effect1_foregroundBlur_1018_37443"/>
</filter>
<filter id="filter7_f_1018_37443" x="117.896" y="-107.393" width="625.112" height="436.902" filterUnits="userSpaceOnUse" color-interpolation-filters="sRGB">
<feFlood flood-opacity="0" result="BackgroundImageFix"/>
<feBlend mode="normal" in="SourceGraphic" in2="BackgroundImageFix" result="shape"/>
<feGaussianBlur stdDeviation="55.842" result="effect1_foregroundBlur_1018_37443"/>
</filter>
<filter id="filter8_f_1018_37443" x="-356.999" y="141.497" width="625.112" height="436.902" filterUnits="userSpaceOnUse" color-interpolation-filters="sRGB">
<feFlood flood-opacity="0" result="BackgroundImageFix"/>
<feBlend mode="normal" in="SourceGraphic" in2="BackgroundImageFix" result="shape"/>
<feGaussianBlur stdDeviation="55.842" result="effect1_foregroundBlur_1018_37443"/>
</filter>
<filter id="filter9_f_1018_37443" x="185.699" y="-230.548" width="467.962" height="532.107" filterUnits="userSpaceOnUse" color-interpolation-filters="sRGB">
<feFlood flood-opacity="0" result="BackgroundImageFix"/>
<feBlend mode="normal" in="SourceGraphic" in2="BackgroundImageFix" result="shape"/>
<feGaussianBlur stdDeviation="55.842" result="effect1_foregroundBlur_1018_37443"/>
</filter>
<filter id="filter10_f_1018_37443" x="122.187" y="299.556" width="656.079" height="394.598" filterUnits="userSpaceOnUse" color-interpolation-filters="sRGB">
<feFlood flood-opacity="0" result="BackgroundImageFix"/>
<feBlend mode="normal" in="SourceGraphic" in2="BackgroundImageFix" result="shape"/>
<feGaussianBlur stdDeviation="55.842" result="effect1_foregroundBlur_1018_37443"/>
</filter>
<filter id="filter11_f_1018_37443" x="-420.651" y="-12.2712" width="656.079" height="394.598" filterUnits="userSpaceOnUse" color-interpolation-filters="sRGB">
<feFlood flood-opacity="0" result="BackgroundImageFix"/>
<feBlend mode="normal" in="SourceGraphic" in2="BackgroundImageFix" result="shape"/>
<feGaussianBlur stdDeviation="55.842" result="effect1_foregroundBlur_1018_37443"/>
</filter>
<filter id="filter12_f_1018_37443" x="-320.522" y="-165.324" width="656.079" height="394.598" filterUnits="userSpaceOnUse" color-interpolation-filters="sRGB">
<feFlood flood-opacity="0" result="BackgroundImageFix"/>
<feBlend mode="normal" in="SourceGraphic" in2="BackgroundImageFix" result="shape"/>
<feGaussianBlur stdDeviation="55.842" result="effect1_foregroundBlur_1018_37443"/>
</filter>
<filter id="filter13_f_1018_37443" x="95.3159" y="369.316" width="625.112" height="436.902" filterUnits="userSpaceOnUse" color-interpolation-filters="sRGB">
<feFlood flood-opacity="0" result="BackgroundImageFix"/>
<feBlend mode="normal" in="SourceGraphic" in2="BackgroundImageFix" result="shape"/>
<feGaussianBlur stdDeviation="55.842" result="effect1_foregroundBlur_1018_37443"/>
</filter>
<filter id="filter14_f_1018_37443" x="123.617" y="-153.166" width="625.112" height="436.902" filterUnits="userSpaceOnUse" color-interpolation-filters="sRGB">
<feFlood flood-opacity="0" result="BackgroundImageFix"/>
<feBlend mode="normal" in="SourceGraphic" in2="BackgroundImageFix" result="shape"/>
<feGaussianBlur stdDeviation="55.842" result="effect1_foregroundBlur_1018_37443"/>
</filter>
<clipPath id="clip0_1018_37443">
<rect width="447" height="536" fill="white"/>
</clipPath>
<clipPath id="clip1_1018_37443">
<rect width="104" height="8" fill="white" transform="translate(92.2578 145)"/>
</clipPath>
<clipPath id="clip2_1018_37443">
<rect width="307.55" height="346.13" fill="white" transform="matrix(-1 0 0 1 364.551 235)"/>
</clipPath>
</defs>
</svg>
