<svg width="75" height="69" viewBox="0 0 75 69" fill="none" xmlns="http://www.w3.org/2000/svg">
<g clip-path="url(#clip0_2370_36375)">
<path d="M53.1587 24.2163C54.2716 24.4094 55.6788 24.3424 56.6964 25.0077C57.8264 25.7465 58.0559 27.8095 58.3155 29.0134C58.8943 31.6963 59.2823 34.4642 59.6514 37.1832C59.9005 39.0187 60.4708 41.6981 59.5166 43.4014C58.1217 45.8913 53.4841 46.1754 51.0571 45.4901C47.9011 44.5989 47.6214 41.0454 47.6434 38.3006C47.6146 38.2232 47.6182 38.3508 47.582 38.3677L53.1587 24.2163Z" fill="#140F0E"/>
<path d="M54.863 45.7455C54.8596 45.8286 54.8558 45.9129 54.8521 45.9983C54.6552 50.5595 54.2205 57.855 54.3422 63.6788C54.4263 67.6972 54.0931 71.3019 53.8616 73.1574L51.4285 73.2425C51.0299 71.0941 50.3559 67.2402 50.5847 63.7908C50.892 59.1576 50.0056 54.0391 49.5283 49.207C49.4728 48.6468 49.4231 48.0907 49.3811 47.5397V47.5393C49.3751 47.4579 49.369 47.3764 49.3633 47.2952L49.3679 47.1546L49.3687 47.1283C49.3687 47.128 49.3687 47.128 49.3687 47.128L49.3763 46.902L49.5087 42.8597L49.5257 42.3397L54.9202 42.0625C54.9711 42.6956 54.9362 44.0066 54.863 45.7455Z" fill="#176E82"/>
<path d="M40.4102 72.9748L42.7287 73.1518C42.8297 72.8935 42.9407 72.6054 43.0579 72.2921C43.8693 70.128 44.995 66.7617 45.3687 63.7639C46.0189 58.5553 47.9305 53.0604 49.3256 47.8589C49.3291 47.8452 49.3327 47.8315 49.3366 47.8178L49.3807 47.5395V47.5392L49.4426 47.15L49.4834 46.8945L49.4855 46.88L50.0508 43.3257L50.1154 42.9177L49.5082 42.8597L44.6879 42.3984C44.5397 42.9347 44.3946 43.9507 44.2355 45.297C44.2262 45.38 44.2158 45.4644 44.2062 45.5501C43.7126 49.8079 43.0772 57.0919 41.7975 63.0624C41.4256 64.7969 41.1909 66.6235 41.0098 68.2582C40.8266 69.9107 40.6981 71.3671 40.5393 72.3344C40.4989 72.5816 40.4562 72.7965 40.4102 72.9748Z" fill="#176E82"/>
<path d="M46.4482 42.5926C46.4444 42.6309 46.4404 42.6707 46.4363 42.7113C46.3658 43.4349 46.2588 44.528 45.6432 45.0681C45.227 45.4332 44.7396 45.5506 44.2411 45.5506C44.2299 45.5506 44.2183 45.5506 44.207 45.5503C44.2168 45.4646 44.227 45.3804 44.2365 45.2972C44.682 45.2966 45.112 45.1945 45.4686 44.8811C46.0094 44.4071 46.1106 43.3725 46.1774 42.6876C46.1814 42.6468 46.1855 42.607 46.1892 42.5684L46.4482 42.5926Z" fill="#BACAE0"/>
<path d="M40.5391 72.3349C41.0035 72.2966 41.5146 72.3188 41.9564 72.2747C42.1741 72.2531 42.6219 72.2849 43.0576 72.2925C43.869 70.1284 44.9946 66.7621 45.3684 63.7643C46.0185 58.5556 47.9302 53.0608 49.3253 47.8593C49.3288 47.8456 49.3324 47.8319 49.3362 47.8182L49.3804 47.5399V47.5396L49.4423 47.1504L49.4831 46.8949L49.4852 46.8804H48.4472C47.8647 47.6294 47.6703 49.3136 47.4655 50.3358C47.2204 51.5589 46.8498 52.7242 46.4135 53.9653C45.5575 56.4008 44.8383 58.7111 44.5836 61.26C44.3762 63.3318 43.992 69.1361 41.0096 68.2587C40.8264 69.9112 40.6979 71.3676 40.5391 72.3349Z" fill="#125A66"/>
<path d="M54.8628 45.7458C54.8593 45.829 54.8556 45.9132 54.8518 45.9986C54.2821 45.9975 53.7257 45.8814 53.2511 45.5224C52.5366 44.9826 52.4123 43.8869 52.3299 43.1616C52.3254 43.121 52.3207 43.0813 52.3164 43.0429L52.5747 43.0146C52.5793 43.0533 52.584 43.0933 52.5886 43.1342C52.6661 43.8171 52.7834 44.8492 53.411 45.3236C53.8321 45.6417 54.3382 45.7456 54.8628 45.7458Z" fill="#BACAE0"/>
<path d="M48.4822 47.1819L48.4499 47.0985C48.1443 46.309 48.5174 44.1437 48.8167 43.4956L49.0541 43.5986C48.7771 44.1982 48.443 46.147 48.6656 46.9263C49.0678 46.9178 49.3489 46.9068 49.502 46.8937L49.5248 47.1447C49.3515 47.1596 49.0405 47.1712 48.5742 47.1803L48.4822 47.1819Z" fill="#1C92A5"/>
<path d="M50.1607 43.351C49.6997 45.3028 49.6014 47.1579 49.528 49.2075H49.5266C49.4711 48.6472 49.4214 48.0911 49.3794 47.5401L49.3352 47.8184C49.3315 47.8321 49.328 47.8456 49.3242 47.8593C49.3364 47.6227 49.3497 47.3883 49.3652 47.1551C49.3658 47.1462 49.3664 47.1375 49.367 47.1288C49.367 47.1285 49.367 47.1285 49.367 47.1285C49.3719 47.053 49.3774 46.9773 49.3829 46.902C49.4714 45.6926 49.619 44.5138 49.9069 43.2949L50.0494 43.3263L50.1607 43.351Z" fill="#1C92A5"/>
<path d="M56.5305 31.2409C56.2011 33.4703 55.3444 36.7796 55.2969 37.7887C55.2961 37.8078 55.2951 37.8272 55.2945 37.8465C55.2212 39.4928 55.2953 41.8684 55.2217 43.4343C54.9059 44.4546 49.3707 44.1425 46.36 43.6325C46.3419 43.6296 46.3242 43.6264 46.3064 43.6233C46.2889 43.6201 46.2711 43.6172 46.2536 43.614C46.2247 43.6088 46.1962 43.6037 46.1676 43.5988C45.2288 43.4309 44.573 43.2447 44.4629 43.0793C44.4629 43.079 44.4626 43.079 44.4626 43.079C44.4588 43.0729 44.4552 43.0669 44.4528 43.0609C44.4502 43.0548 44.4481 43.0486 44.4472 43.0427C44.3429 42.4344 44.8435 40.6927 44.965 40.0799C45.2761 38.5131 44.9794 34.7094 44.9411 33.9418C44.931 33.7393 44.9096 33.5307 44.8787 33.3195C44.8094 32.8414 44.6924 32.3507 44.552 31.892C44.5153 31.7709 44.4765 31.652 44.4367 31.5364C44.1801 30.7912 43.7413 29.9272 43.6661 29.1624C43.5923 28.4132 44.2264 25.5332 44.3461 24.7563C44.4606 24.0162 46.8629 24.0717 47.3657 23.4987L48.6511 24.0837C49.113 23.9549 49.7645 24.1578 50.2779 24.0644C50.6831 23.9907 51.0877 23.8037 51.478 23.6882C51.8293 23.5845 52.2026 23.2826 52.5332 23.2305C53.1897 23.1271 56.0011 23.7053 56.6098 23.9198C56.614 23.9212 56.6181 23.9229 56.6222 23.9243C56.7486 23.9702 56.8444 24.1006 56.9155 24.2959C57.3878 25.6003 56.742 29.8085 56.5305 31.2409Z" fill="#3F2935"/>
<path d="M46.8906 23.7761C47.0906 24.5595 47.9683 25.9115 49.1374 25.9583C50.2617 26.0032 52.2571 24.6618 52.9619 23.2961C52.5656 23.208 52.141 23.3998 51.9488 22.8553C51.8346 22.5324 51.7378 22.4008 51.6898 22.0581C51.6895 22.0554 51.6891 22.053 51.6886 22.0504C51.6769 21.9655 51.6652 21.8816 51.6538 21.7985C51.6034 21.4352 51.5977 21.0355 51.6037 20.6385C51.6101 20.193 51.6307 19.7505 51.6187 19.367C51.6169 19.3094 51.6142 19.2531 51.6106 19.1982L48.6994 20.6385L47.4252 21.269C47.4245 21.3104 47.4264 21.3545 47.4306 21.4013C47.4435 21.559 47.4797 21.7452 47.5223 21.9461C47.5844 22.2402 47.6165 22.5166 47.5958 22.766C47.5595 23.1984 47.3643 23.55 46.8906 23.7761Z" fill="#FFB278"/>
<path d="M47.422 21.2692C47.4214 21.3105 47.4232 21.3546 47.4274 21.4014C47.4403 21.5592 47.4766 21.7453 47.5192 21.9462C47.5812 22.2404 47.6133 22.5167 47.5926 22.7662C48.2808 23.4568 48.9004 23.4968 49.4001 23.3769C50.6446 23.0782 51.5946 21.0356 51.6006 20.6387H48.6962L47.422 21.2692Z" fill="#E5804E"/>
<path d="M56.5272 31.2409C56.1977 33.4702 55.341 36.7796 55.2936 37.7887C55.2927 37.8077 55.2918 37.8271 55.2912 37.8465C55.2179 39.4927 55.292 41.8683 55.2184 43.4343C55.1679 44.5079 49.4394 44.1632 46.3567 43.6325C46.3386 43.6296 46.3208 43.6264 46.303 43.6233C46.2856 43.6201 46.2678 43.6172 46.2502 43.614C46.2213 43.6088 46.1928 43.6036 46.1642 43.5987C45.2265 43.4285 44.5707 43.2421 44.4596 43.0793C44.4596 43.0789 44.4593 43.079 44.4593 43.079C44.4554 43.0729 44.4519 43.0669 44.4495 43.0608C44.4468 43.0548 44.4448 43.0485 44.4439 43.0427C44.3396 42.4343 44.8402 40.6926 44.9617 40.0799C45.2727 38.5131 44.9761 34.7094 44.9378 33.9417C44.9276 33.7392 44.9062 33.5306 44.8753 33.3195C44.806 32.8413 44.6891 32.3507 44.5487 31.892C45.2883 32.3165 48.2099 33.0506 49.3175 33.1847C53.2941 33.6658 55.2318 31.1226 55.5514 30.0996C56.0797 28.4086 56.4858 26.1695 56.9121 24.2959C57.3844 25.6002 56.7387 29.8085 56.5272 31.2409Z" fill="#23161E"/>
<path d="M55.6744 30.2896C56.449 31.6026 56.7023 32.0837 56.9578 32.5887C57.4591 33.5793 57.9682 34.6611 58.3237 35.5527C58.3301 35.5688 58.3366 35.5848 58.3427 35.6006C58.6133 36.2839 58.8244 37.5888 59.5575 38.0295C59.8087 38.1806 60.1218 38.2301 60.5193 38.1179C60.5197 38.1179 60.5199 38.1179 60.5199 38.1179C60.54 38.1122 60.5601 38.1062 60.5805 38.0996C61.5678 37.7872 61.9011 36.8515 61.8589 35.6599C61.7534 32.6516 58.1945 24.8161 56.7554 23.9766C56.7554 23.9766 54.4549 27.027 54.4767 28.234C54.4876 28.8288 55.6744 30.2896 55.6744 30.2896Z" fill="#D8250E"/>
<path d="M50.1602 47.6024C51.1202 47.9355 52.7294 47.6402 53.7745 47.5455C54.3001 47.4981 54.776 47.3428 55.3171 47.3626C55.7833 47.3796 56.5805 47.69 56.9961 47.6024C57.026 47.2246 56.2444 36.0205 56.3365 35.01C56.6039 32.0805 57.4158 28.354 57.354 24.878C57.348 24.5317 56.806 23.8988 56.4564 23.7968C55.9339 23.6445 55.2454 23.5155 54.5801 23.4136C53.7089 23.28 52.8777 23.1918 52.5129 23.1558C52.3891 23.1435 52.3189 23.1372 52.3189 23.1372C52.3234 23.1819 52.3165 23.3462 52.2998 23.6133C52.2263 24.7898 51.9622 27.9578 51.6426 31.6239C51.0602 38.308 50.2936 46.6496 50.1602 47.6024Z" fill="#D8250E"/>
<path d="M47.569 47.7876C46.7693 48.0769 45.4698 47.722 44.6211 47.5869C44.1943 47.5192 43.8133 47.3474 43.3706 47.3452C42.9892 47.3434 42.3233 47.6168 41.9883 47.5141C41.9821 47.1412 43.4347 24.6518 44.4049 24.147C44.8057 23.9384 46.9863 23.6299 46.9863 23.6299C46.9804 23.6737 46.9781 23.8356 46.979 24.0991C46.9822 25.2595 47.0452 28.387 47.1293 32.0069C47.2824 38.6068 47.5061 46.8448 47.569 47.7876Z" fill="#D8250E"/>
<path d="M39.4782 47.1836C39.2258 47.1474 39.0506 46.9134 39.0868 46.6611L39.8477 41.3604C39.8839 41.1081 40.1179 40.9328 40.3702 40.9691L48.169 42.0886C48.4213 42.1248 48.5966 42.3588 48.5603 42.6112L47.7994 47.9118C47.7632 48.1641 47.5293 48.3393 47.2768 48.3031L39.4782 47.1836Z" fill="#E25B00"/>
<path d="M39.5328 46.8014C39.2804 46.7652 39.1053 46.5313 39.1415 46.2789L39.9023 40.9782C39.9385 40.7258 40.1725 40.5506 40.4249 40.5868L48.2236 41.7063C48.4759 41.7425 48.6512 41.9764 48.6149 42.2288L47.854 47.5295C47.8178 47.7819 47.5839 47.9571 47.3314 47.9209L39.5328 46.8014Z" fill="#E59E00"/>
<path d="M47.236 42.0904C47.1403 42.0767 47.0739 41.988 47.0878 41.8923C47.1015 41.7967 47.1901 41.7302 47.2859 41.744C47.3816 41.7577 47.448 41.8464 47.4342 41.9421C47.4204 42.0377 47.3318 42.1042 47.236 42.0904Z" fill="#69999E"/>
<path d="M46.3807 41.9684C46.285 41.9547 46.2186 41.8659 46.2323 41.7703C46.2461 41.6746 46.3347 41.6081 46.4304 41.6219C46.5261 41.6356 46.5926 41.7243 46.5788 41.82C46.5651 41.9157 46.4764 41.9822 46.3807 41.9684Z" fill="#69999E"/>
<path d="M45.5252 41.8459C45.4295 41.8321 45.3631 41.7434 45.3768 41.6478C45.3906 41.5521 45.4792 41.4857 45.575 41.4993C45.6707 41.5131 45.7372 41.6018 45.7233 41.6974C45.7096 41.7933 45.6209 41.8597 45.5252 41.8459Z" fill="#69999E"/>
<path d="M44.6737 41.7234C44.5779 41.7096 44.5115 41.6209 44.5252 41.5252C44.539 41.4296 44.6277 41.3631 44.7234 41.3768C44.8191 41.3906 44.8855 41.4792 44.8718 41.575C44.858 41.6707 44.7694 41.7372 44.6737 41.7234Z" fill="#69999E"/>
<path d="M43.822 41.6007C43.7263 41.5869 43.6599 41.4982 43.6737 41.4026C43.6874 41.307 43.7761 41.2405 43.8718 41.2542C43.9674 41.2679 44.0339 41.3567 44.0202 41.4523C44.0064 41.548 43.9177 41.6145 43.822 41.6007Z" fill="#69999E"/>
<path d="M42.9705 41.4787C42.8748 41.4649 42.8083 41.3763 42.8221 41.2806C42.8359 41.1849 42.9246 41.1185 43.0203 41.1322C43.1159 41.1459 43.1824 41.2346 43.1687 41.3303C43.1549 41.4261 43.0662 41.4925 42.9705 41.4787Z" fill="#69999E"/>
<path d="M42.1151 41.3562C42.0194 41.3424 41.9529 41.2537 41.9667 41.158C41.9804 41.0623 42.069 40.9958 42.1647 41.0096C42.2604 41.0234 42.327 41.1121 42.3132 41.2078C42.2994 41.3034 42.2106 41.3699 42.1151 41.3562Z" fill="#69999E"/>
<path d="M41.2634 41.2336C41.1677 41.2198 41.1013 41.1311 41.1151 41.0354C41.1288 40.9398 41.2175 40.8733 41.3132 40.8871C41.4088 40.9008 41.4753 40.9894 41.4616 41.0851C41.4478 41.1809 41.3591 41.2473 41.2634 41.2336Z" fill="#69999E"/>
<path d="M47.2565 41.9251C47.1976 41.9167 47.1567 41.8621 47.1652 41.8032L47.2614 41.1329C47.2698 41.0741 47.3244 41.0332 47.3833 41.0416C47.4422 41.0501 47.483 41.1047 47.4746 41.1635L47.3784 41.8337C47.37 41.8927 47.3154 41.9336 47.2565 41.9251Z" fill="white"/>
<path d="M46.4049 41.803C46.3461 41.7945 46.3051 41.7399 46.3136 41.681L46.4098 41.0109C46.4182 40.952 46.4729 40.9111 46.5318 40.9196C46.5906 40.928 46.6315 40.9826 46.6231 41.0415L46.5269 41.7117C46.5184 41.7705 46.4639 41.8114 46.4049 41.803Z" fill="white"/>
<path d="M45.5534 41.6805C45.4945 41.6721 45.4536 41.6174 45.462 41.5586L45.5582 40.8883C45.5667 40.8294 45.6213 40.7886 45.6802 40.797C45.739 40.8054 45.78 40.86 45.7716 40.919L45.6754 41.5892C45.6669 41.648 45.6124 41.6889 45.5534 41.6805Z" fill="white"/>
<path d="M44.7017 41.558C44.6429 41.5496 44.6019 41.4949 44.6105 41.4361L44.7066 40.7658C44.715 40.707 44.7697 40.666 44.8286 40.6744C44.8875 40.6829 44.9284 40.7375 44.9199 40.7964L44.8237 41.4665C44.8153 41.5255 44.7607 41.5665 44.7017 41.558Z" fill="white"/>
<path d="M43.8463 41.4353C43.7874 41.4268 43.7465 41.3722 43.755 41.3134L43.8512 40.6432C43.8597 40.5843 43.9143 40.5434 43.9732 40.5519C44.0322 40.5603 44.073 40.6149 44.0645 40.6737L43.9683 41.344C43.9598 41.4029 43.9052 41.4437 43.8463 41.4353Z" fill="white"/>
<path d="M42.9908 41.3129C42.932 41.3044 42.891 41.2498 42.8996 41.1909L42.9957 40.5207C43.0043 40.4617 43.0588 40.421 43.1177 40.4293C43.1766 40.4378 43.2175 40.4923 43.209 40.5512L43.1128 41.2214C43.1044 41.2804 43.0498 41.3213 42.9908 41.3129Z" fill="white"/>
<path d="M42.1393 41.1902C42.0804 41.1818 42.0396 41.1273 42.048 41.0683L42.1442 40.3981C42.1526 40.3392 42.2072 40.2984 42.2661 40.3068C42.325 40.3153 42.3658 40.3698 42.3574 40.4287L42.2612 41.0989C42.2529 41.1578 42.1982 41.1987 42.1393 41.1902Z" fill="white"/>
<path d="M41.2878 41.0681C41.2289 41.0597 41.188 41.0051 41.1964 40.9462L41.2925 40.2759C41.301 40.2171 41.3556 40.1763 41.4145 40.1847C41.4733 40.1931 41.5143 40.2477 41.5059 40.3066L41.4096 40.9768C41.4013 41.0356 41.3467 41.0766 41.2878 41.0681Z" fill="white"/>
<path d="M55.5586 29.6406L55.5757 29.6891C55.5662 29.6711 55.5607 29.655 55.5586 29.6406Z" fill="#BA562F"/>
<path d="M46.0319 14.9219L47.1413 15.5515C46.9245 16.0832 46.6688 16.5491 46.6017 17.1405C46.5378 17.704 46.5136 18.2743 46.6022 18.8239C46.3561 18.451 46.1455 18.0384 46.0019 17.5603C45.7974 16.8796 45.7335 15.5788 46.0319 14.9219Z" fill="#1E1714"/>
<path d="M51.9592 18.6332C51.9509 18.805 52.0246 19.2431 52.0159 19.4753C51.995 20.0478 51.9255 20.9642 51.656 21.2979C50.6111 22.5921 49.4083 23.0246 48.5978 22.8969C47.5246 22.7278 46.9783 21.6825 46.8189 21.3979C46.6514 21.099 46.592 20.6097 46.5374 19.9447C46.3974 18.2346 46.529 15.5814 46.6317 14.7931L47.3548 14.4186C48.0158 14.2165 48.4681 14.0847 49.1627 14.1565C50.2388 14.2677 51.6033 14.5173 51.8957 15.7312C52.0423 16.3394 51.9892 18.0098 51.9592 18.6332Z" fill="#FFB278"/>
<path d="M45.9802 17.8709C46.3536 17.8958 46.533 18.4563 46.5884 18.7451L46.6168 19.9205C45.967 20.6802 45.5481 19.1768 45.4901 18.7138C45.4493 18.3864 45.5241 17.8403 45.9802 17.8709Z" fill="#FFB278"/>
<path d="M46.2862 18.6848C45.9569 18.8026 46.0712 19.2962 46.3295 19.4117C46.3476 19.3946 45.9778 19.4501 45.9024 19.1894C45.8248 18.9219 45.8923 18.6811 46.0674 18.4904C45.9828 18.3318 45.7637 18.2231 45.6953 18.4184C45.8179 17.803 46.302 18.2225 46.2862 18.6848Z" fill="#E5804E"/>
<path d="M49.9062 18.6096C49.9521 18.6379 50.0073 18.463 50.052 18.4847C50.3854 18.6455 50.6879 18.6357 50.9056 18.587C51.1197 18.5392 51.2424 18.6525 51.2424 18.6525C51.0958 18.478 51.0175 18.1658 50.8836 18.106C50.8053 18.0715 50.7113 18.0547 50.5804 18.0547C50.3417 18.0547 50.2015 18.0981 50.0583 18.2402C50.0121 18.2863 49.9562 18.5414 49.9062 18.6096Z" fill="#E5804E"/>
<path d="M49.9062 18.6095C49.9521 18.6378 49.998 18.6622 50.0427 18.6839C50.3761 18.8447 50.6785 18.8349 50.8963 18.7862C51.1104 18.7384 51.2424 18.6524 51.2424 18.6524C51.0958 18.478 51.0082 18.365 50.8743 18.3053C50.796 18.2707 50.702 18.2539 50.5711 18.2539C50.3325 18.2539 50.1922 18.2973 50.049 18.4394C50.0029 18.4855 49.9562 18.5413 49.9062 18.6095Z" fill="white"/>
<path d="M50.0391 18.586C50.0391 18.6193 50.0409 18.652 50.0443 18.6839C50.3777 18.8447 50.6801 18.8349 50.8979 18.7862C50.912 18.7233 50.9198 18.656 50.9198 18.586C50.9198 18.4855 50.9038 18.3902 50.8758 18.3053C50.7975 18.2707 50.7035 18.2539 50.5726 18.2539C50.334 18.2539 50.1937 18.2973 50.0505 18.4394C50.0431 18.4864 50.0391 18.5356 50.0391 18.586Z" fill="#2D221E"/>
<path d="M50.25 18.5428C50.25 18.604 50.2751 18.6535 50.3059 18.6535C50.3368 18.6535 50.3618 18.604 50.3618 18.5428C50.3618 18.4817 50.3368 18.4321 50.3059 18.4321C50.2751 18.4321 50.25 18.4816 50.25 18.5428Z" fill="white"/>
<path d="M46.7266 18.6511C46.7718 18.6761 46.8147 18.4977 46.8585 18.5163C47.1845 18.6533 47.4717 18.6225 47.6763 18.5585C47.8773 18.4958 48.0002 18.6004 48.0002 18.6004C47.8512 18.4365 47.7597 18.1304 47.6289 18.0802C47.5525 18.0512 47.4622 18.041 47.3377 18.0501C47.1106 18.0669 46.9795 18.1201 46.8511 18.2719C46.8096 18.3211 46.7704 18.5795 46.7266 18.6511Z" fill="#E5804E"/>
<path d="M46.7266 18.6508C46.7718 18.6759 46.8168 18.6969 46.8605 18.7155C47.1865 18.8526 47.4738 18.8217 47.6783 18.7578C47.8793 18.6951 48.0002 18.6001 48.0002 18.6001C47.8512 18.4363 47.7617 18.3296 47.631 18.2794C47.5546 18.2504 47.4642 18.2402 47.3397 18.2494C47.1127 18.2661 46.9816 18.3192 46.8531 18.4711C46.8117 18.5203 46.7704 18.5792 46.7266 18.6508Z" fill="white"/>
<path d="M46.8531 18.6181C46.8549 18.6513 46.8584 18.6839 46.8634 18.7154C47.1894 18.8525 47.4767 18.8216 47.6812 18.7577C47.6912 18.694 47.695 18.6263 47.6911 18.5564C47.6857 18.4561 47.6652 18.3622 47.6339 18.2794C47.5575 18.2504 47.4671 18.2402 47.3426 18.2494C47.1156 18.2661 46.9845 18.3192 46.856 18.4711C46.8515 18.5184 46.8503 18.5677 46.8531 18.6181Z" fill="#2D221E"/>
<path d="M47.055 18.5481C47.0583 18.6091 47.0849 18.6568 47.1143 18.6546C47.1437 18.6524 47.1648 18.6012 47.1615 18.5402C47.1581 18.4792 47.1315 18.4315 47.1021 18.4337C47.0728 18.4357 47.0517 18.4871 47.055 18.5481Z" fill="white"/>
<path d="M47.3831 17.6962C47.5787 17.7348 47.7949 17.7429 47.9974 17.79C48.2702 17.8532 48.1056 18.1996 48.1056 18.1996C48.061 18.2423 47.4647 18.1808 47.2926 18.1717C47.0549 18.1594 46.6704 18.0203 46.457 18.1384C46.7259 17.7182 46.8747 17.5958 47.3831 17.6962Z" fill="#2D221E"/>
<path d="M50.4833 17.6466C50.266 17.6816 50.0258 17.6857 49.8007 17.7291C49.4975 17.7874 49.6787 18.137 49.6787 18.137C49.7281 18.1805 50.3906 18.1299 50.5817 18.1241C50.8458 18.1162 51.2733 17.984 51.5097 18.1062C51.213 17.6808 51.0484 17.5556 50.4833 17.6466Z" fill="#2D221E"/>
<path d="M49.8805 20.8237C49.8805 20.8237 49.8735 20.8269 49.8603 20.8329C49.8475 20.8394 49.8281 20.8478 49.8048 20.8603C49.7814 20.8734 49.7517 20.8862 49.7191 20.9013C49.703 20.909 49.6859 20.9171 49.6678 20.9258C49.6493 20.9336 49.6298 20.942 49.6095 20.9506C49.5697 20.9692 49.5252 20.9857 49.4789 21.0037C49.456 21.0133 49.4319 21.0215 49.4071 21.0296C49.3823 21.0373 49.3578 21.0475 49.3321 21.0551C49.3062 21.0621 49.2801 21.07 49.2539 21.0779C49.2408 21.0821 49.2275 21.0858 49.2138 21.0885C49.2004 21.0918 49.1869 21.095 49.1733 21.0982C49.1462 21.1051 49.1189 21.1118 49.0912 21.1163C49.0635 21.1212 49.0358 21.1272 49.008 21.1316C48.9522 21.1386 48.8964 21.147 48.8411 21.1492C48.7858 21.155 48.7316 21.1518 48.6784 21.1534C48.626 21.1486 48.5739 21.15 48.5259 21.1415C48.5014 21.1386 48.4777 21.1357 48.4547 21.133C48.4318 21.1285 48.4098 21.1242 48.3887 21.12C48.3453 21.1137 48.3071 21.1022 48.2723 21.0933C48.2546 21.089 48.2381 21.085 48.2229 21.0813C48.2079 21.0764 48.1942 21.0719 48.1819 21.0678C48.1572 21.0593 48.1366 21.054 48.123 21.0496C48.109 21.0457 48.1016 21.0436 48.1016 21.0436C48.1016 21.0436 48.1072 21.0488 48.1177 21.0585C48.1285 21.0678 48.1439 21.0825 48.1649 21.0994C48.1754 21.108 48.1871 21.1176 48.1998 21.128C48.2131 21.1374 48.2281 21.1466 48.2439 21.1569C48.2601 21.1669 48.2773 21.1776 48.2954 21.1888C48.3134 21.2009 48.3344 21.2083 48.3555 21.219C48.377 21.2288 48.3994 21.2389 48.4226 21.2494C48.4465 21.2578 48.4716 21.2656 48.4975 21.2741C48.5489 21.2927 48.6057 21.3007 48.6642 21.3125C48.6936 21.3164 48.7238 21.3184 48.7543 21.3211C48.7696 21.3221 48.785 21.3243 48.8005 21.3243C48.8159 21.3241 48.8315 21.3239 48.8471 21.3237C48.8627 21.3235 48.8784 21.3233 48.8941 21.323L48.9178 21.3225L48.9413 21.32C48.9726 21.3165 49.0041 21.3129 49.0356 21.3093C49.0975 21.2968 49.1601 21.2867 49.2189 21.2665C49.2788 21.2502 49.3349 21.2263 49.389 21.2036C49.4158 21.1917 49.4414 21.1782 49.4664 21.1652C49.4914 21.1522 49.516 21.1399 49.5382 21.1249C49.5608 21.1106 49.5827 21.0966 49.6039 21.0831C49.6249 21.0693 49.6438 21.054 49.6623 21.04C49.6806 21.0256 49.6983 21.0124 49.7146 20.9988C49.7303 20.9844 49.7452 20.9707 49.7592 20.9578C49.7871 20.9322 49.8097 20.9089 49.8267 20.8885C49.8445 20.8688 49.8575 20.852 49.8668 20.8411C49.8756 20.8297 49.8805 20.8237 49.8805 20.8237Z" fill="#E5804E"/>
<path d="M48.4506 18.9297C48.3943 19.415 48.3644 19.9437 48.5682 20.207C48.9062 20.2171 49.2984 20.2023 49.2984 20.2023C49.0106 20.416 48.4174 20.5887 48.1953 20.289C48.2001 20.2899 48.281 19.3094 48.4506 18.9297Z" fill="#E5804E"/>
<path d="M49.25 18.9295C49.25 18.4859 49.7575 18.125 50.3815 18.125C51.0054 18.125 51.513 18.4859 51.513 18.9295C51.513 19.3731 51.0054 19.734 50.3815 19.734C49.7575 19.7341 49.25 19.3731 49.25 18.9295ZM49.3919 18.9295C49.3919 19.2904 49.8358 19.5841 50.3814 19.5841C50.927 19.5841 51.3709 19.2904 51.3709 18.9295C51.3709 18.5685 50.927 18.2749 50.3814 18.2749C49.8358 18.275 49.3919 18.5685 49.3919 18.9295Z" fill="white"/>
<path d="M46.2031 18.9096C46.2031 18.4659 46.6979 18.105 47.3062 18.105C47.9144 18.105 48.4092 18.4659 48.4092 18.9096C48.4092 19.3532 47.9144 19.714 47.3062 19.714C46.6979 19.714 46.2031 19.3532 46.2031 18.9096ZM46.3452 18.9096C46.3452 19.2705 46.7763 19.5642 47.3062 19.5642C47.8361 19.5642 48.2673 19.2705 48.2673 18.9096C48.2673 18.5486 47.8361 18.2549 47.3062 18.2549C46.7763 18.2549 46.3452 18.5486 46.3452 18.9096Z" fill="white"/>
<path d="M49.2677 18.8438L49.3822 18.7551C49.2757 18.6018 49.1237 18.5076 48.9428 18.4826C48.7158 18.4512 48.4533 18.535 48.2578 18.701L48.3469 18.8178C48.5133 18.6765 48.7345 18.6049 48.9244 18.6312C49.0679 18.651 49.1834 18.7226 49.2677 18.8438Z" fill="white"/>
<path d="M46.5028 15.7614C47.3123 16.301 49.9807 16.3631 50.5203 16.1212C51.3898 15.7314 51.9445 16.5799 51.9895 17.0506C52.0225 17.3954 51.6464 19.6099 52.2592 19.3593C52.2592 19.3593 53.3686 17.3804 53.4285 15.4017C53.4444 14.8764 53.1521 14.438 52.6874 14.0843C51.5415 13.2118 49.3486 12.8532 48.1517 12.9732C47.3605 13.0523 46.1636 13.4387 45.7459 14.2555C45.7445 14.2584 45.743 14.2615 45.7418 14.2648C45.4978 14.7653 46.134 15.5155 46.5028 15.7614Z" fill="#2D221E"/>
<path d="M46.5027 15.7615C47.3122 16.3012 49.9806 16.3633 50.5203 16.1214C51.3897 15.7316 51.9445 16.5801 51.9894 17.0508C52.0224 17.3956 51.6464 19.6101 52.2592 19.3595C52.2592 19.3595 53.3686 17.3806 53.4285 15.4019C53.4443 14.8765 53.152 14.4382 52.6874 14.0845C52.6847 14.1154 52.6817 14.1465 52.6784 14.1783C52.6184 14.7434 52.2523 15.2505 51.6839 15.3773C51.5031 15.4177 51.4102 15.3467 51.2398 15.3215C51.014 15.288 50.74 15.3233 50.5152 15.3464C50.0417 15.3947 49.5848 15.5413 49.106 15.5809C47.9307 15.6774 46.5435 15.1615 45.7418 14.265C45.4978 14.7655 46.134 15.5157 46.5027 15.7615Z" fill="#1E1714"/>
<path d="M52.8866 18.235C52.4304 18.1888 52.1863 18.7738 52.0643 19.0726L51.7266 20.3084C52.3676 21.2502 53.1604 19.7199 53.3186 19.2347C53.4306 18.8916 53.444 18.2915 52.8866 18.235Z" fill="#FFB278"/>
<path d="M52.3632 19.0474C52.739 19.2381 52.5068 19.7451 52.1725 19.8184C52.1538 19.7966 52.5904 19.9283 52.7314 19.6636C52.876 19.3919 52.8403 19.1204 52.6649 18.8817C52.7974 18.7282 53.083 18.6544 53.1285 18.8773C53.0975 18.1934 52.4321 18.5486 52.3632 19.0474Z" fill="#E5804E"/>
<path d="M51.3359 28.541V28.5689L51.3365 28.5986L51.3378 28.6583C51.3387 28.6982 51.3395 28.7381 51.3404 28.7779C51.3423 28.8579 51.3439 28.938 51.3458 29.0184C51.3497 29.097 51.3533 29.1758 51.3572 29.2546C51.3611 29.3334 51.3645 29.4126 51.3693 29.4917C51.3753 29.5709 51.3812 29.6503 51.3872 29.7298C51.4354 30.3594 51.5203 30.9959 51.6417 31.6237C51.6429 31.6294 51.6438 31.6351 51.645 31.6408C51.7691 32.274 51.931 32.8982 52.1232 33.4997C52.1472 33.5747 52.1715 33.6497 52.1958 33.7245C52.2201 33.7992 52.2471 33.8727 52.2725 33.9464C52.2986 34.0202 52.3244 34.0937 52.3501 34.1668C52.3777 34.2394 52.405 34.3116 52.4326 34.3839C52.4601 34.4558 52.4869 34.5278 52.515 34.5989C52.5441 34.6699 52.5728 34.7404 52.6017 34.8109C52.6161 34.8459 52.6304 34.881 52.6448 34.9158L52.6662 34.9683L52.6715 34.9814L52.6767 34.9937L52.6794 35L52.6904 35.0249C52.7048 35.0582 52.7195 35.0915 52.7342 35.1247L52.7558 35.1744L52.7806 35.2284C52.8466 35.3736 52.911 35.5079 52.9797 35.6413C53.0136 35.7082 53.0478 35.7741 53.0831 35.8389C53.1005 35.8716 53.1179 35.904 53.1352 35.9364C53.1533 35.9684 53.171 36.0002 53.1889 36.032C53.3316 36.2866 53.4807 36.5285 53.6327 36.7585C53.937 37.2184 54.2525 37.6301 54.561 37.9932C54.7151 38.1745 54.8674 38.3443 55.0152 38.5023C55.1638 38.6594 55.3078 38.8057 55.4457 38.94C55.7222 39.208 55.974 39.4296 56.1856 39.6062C56.3974 39.7828 56.5692 39.9147 56.6869 40.0035C56.806 40.091 56.8692 40.1378 56.8692 40.1378L58.0145 41.0064L57.3009 39.5553C57.3009 39.5553 57.0469 39.3389 56.9906 39.2888C56.9058 39.2132 56.8053 39.1218 56.6923 39.0141C56.5046 38.8352 56.2822 38.6115 56.0399 38.3434C55.9191 38.2091 55.793 38.0637 55.6638 37.9075C55.5355 37.7509 55.4039 37.5834 55.2716 37.405C55.0067 37.0487 54.7401 36.6482 54.4891 36.2093C54.3638 35.9898 54.2426 35.7605 54.1287 35.5224C54.1143 35.4927 54.1003 35.4631 54.0859 35.433C54.072 35.4031 54.0583 35.3727 54.0444 35.3425C54.0166 35.2819 53.9899 35.2208 53.9635 35.1593C53.9102 35.0367 53.8592 34.9089 53.8133 34.7878L53.7956 34.7419L53.7771 34.6909C53.7644 34.6567 53.7521 34.6226 53.7399 34.5881L53.7303 34.5626L53.7288 34.5578L53.7282 34.556C53.7282 34.5557 53.7282 34.5557 53.7282 34.5557L53.724 34.5431L53.7072 34.4928C53.6958 34.4594 53.6847 34.4259 53.6733 34.3923C53.6508 34.3252 53.6281 34.2577 53.6055 34.19C53.5836 34.1222 53.5633 34.0535 53.5419 33.9851C53.5207 33.9165 53.4996 33.8478 53.4784 33.7789C53.459 33.7096 53.4394 33.6397 53.4199 33.5702C53.4007 33.5003 53.38 33.4307 53.362 33.3603C53.344 33.2896 53.3264 33.2191 53.3084 33.1484C53.1671 32.5817 53.0559 31.9995 52.9797 31.4136C52.9047 30.8278 52.8646 30.2386 52.8577 29.6587C52.8571 29.5865 52.8562 29.5142 52.8556 29.442C52.8556 29.3697 52.8574 29.2978 52.8583 29.2258C52.8595 29.1542 52.8607 29.0828 52.8619 29.0114C52.8649 28.9419 52.8679 28.8723 52.8709 28.8031C52.8723 28.7686 52.8736 28.7341 52.8751 28.6997L52.8772 28.6481L52.8784 28.6223L52.8802 28.5944C52.885 28.5204 52.8898 28.4469 52.8946 28.3735C52.897 28.3366 52.8994 28.3 52.9018 28.2634L52.9054 28.2085L52.9061 28.202V28.2052L52.907 28.193L52.909 28.1684C52.9145 28.1027 52.921 28.0368 52.9279 27.9711C52.9855 27.444 53.0859 26.9262 53.2068 26.4469C53.3282 25.9668 53.4712 25.5222 53.625 25.1286C53.7785 24.7346 53.9428 24.3913 54.1035 24.1086C54.2642 23.8256 54.4213 23.6043 54.5559 23.4415C54.5637 23.4319 54.5714 23.4226 54.579 23.4136C53.7078 23.2799 52.8766 23.1917 52.5118 23.1558C52.5003 23.1776 52.4896 23.1998 52.4785 23.222C52.417 23.3467 52.357 23.4775 52.2986 23.6132C52.1781 23.8924 52.0641 24.1946 51.9601 24.5163C51.8054 24.9946 51.6711 25.5157 51.5644 26.0718C51.4585 26.6285 51.3782 27.2186 51.3464 27.847C51.3428 27.9259 51.3395 28.0051 51.3377 28.085L51.3362 28.1543V28.2095C51.3359 28.246 51.3359 28.2826 51.3359 28.3195C51.3363 28.3929 51.3363 28.4669 51.3359 28.541Z" fill="#140F0E"/>
<path d="M56.1066 34.4128C55.7993 34.4984 52.8575 32.3504 52.5312 32.315C52.3382 32.2942 51.8681 32.1668 51.473 31.9686C50.9943 31.7293 50.625 31.3863 50.9892 31.0041C50.5616 30.722 50.5828 30.1263 51.0174 30.0108C50.5865 29.6562 50.7204 29.4184 51.1498 29.1582C50.5444 28.3543 51.2867 28.4503 51.9303 28.5586C52.2068 28.605 52.4648 28.6536 52.59 28.6342C53.0837 28.5572 52.6553 28.3437 52.6692 27.7536C52.678 27.3728 52.8302 27.0793 53.2262 27.1879C53.4194 27.5829 53.4773 28.1557 54.0569 28.8961C54.3439 29.263 54.9805 31.4343 54.9805 31.4343C54.5284 31.6641 56.5926 34.2775 56.1066 34.4128Z" fill="#FFB278"/>
<path d="M51.473 31.9686C50.9943 31.7293 50.625 31.3863 50.9892 31.0041C50.5616 30.722 50.5828 30.1264 51.0174 30.0108C50.5865 29.6562 50.7204 29.4184 51.1498 29.1582C50.5444 28.3544 51.2867 28.4503 51.9303 28.5586C52.0189 28.7506 51.8333 29.0073 51.6006 29.1335C51.9413 29.3707 51.8962 29.9237 51.4838 30.0778C51.7135 30.2545 51.7073 30.622 51.4284 30.7505C51.784 31.0614 51.736 31.6401 51.473 31.9686Z" fill="#E5804E"/>
<path d="M54.3086 33.7832C54.4246 33.8838 55.7984 36.7474 58.9875 37.8436C59.1998 37.9165 59.3884 37.9797 59.5604 38.0292C59.9367 38.1369 60.2338 38.1797 60.5222 38.1176C60.5226 38.1176 60.5228 38.1176 60.5228 38.1176C60.5429 38.1119 60.563 38.1059 60.5834 38.0993C61.5707 37.7869 61.9041 36.8512 61.8618 35.6596C61.7893 35.576 61.7062 35.4869 61.612 35.3916C60.4256 34.1881 55.561 32.1558 54.9829 31.2197L54.3086 33.7832Z" fill="#D8250E"/>
<path d="M41.8144 44.0366L43.8054 44.1179C44.0085 44.7681 44.7744 45.1735 45.0013 45.4345C45.5588 46.0756 46.0569 46.2253 46.3742 46.4645C46.4025 46.8344 46.116 46.919 45.7767 46.8615C45.2508 46.7727 45.1349 46.3559 44.9819 46.7807C44.9432 46.8883 44.942 47.1255 44.9357 47.3788C44.9213 47.9683 44.879 48.6433 44.2698 47.9683C43.9653 48.3045 43.7313 48.3825 43.4908 47.9394C43.3137 48.3052 42.7816 48.2217 42.6048 47.7939C42.2032 48.0514 41.9622 47.665 41.8321 47.1992C41.7242 46.8147 41.6918 46.3758 41.7065 46.201C41.718 46.0626 42.1244 44.7965 41.8144 44.0366Z" fill="#FFB278"/>
<path d="M41.832 47.1991C41.9621 47.6649 42.2031 48.0512 42.6047 47.7938C42.7815 48.2216 43.3136 48.3051 43.4907 47.9393C43.7312 48.3825 43.9652 48.3045 44.2697 47.9682C44.8789 48.6432 44.9211 47.9681 44.9356 47.3787C44.7805 47.2672 44.5209 47.3877 44.369 47.5726C44.2171 47.2297 43.7188 47.1748 43.5114 47.5141C43.394 47.2801 43.0669 47.2225 42.9052 47.4478C42.6902 47.079 42.1686 47.0222 41.832 47.1991Z" fill="#E5804E"/>
<path d="M41.8279 44.5653L43.5249 44.3351L44.0058 44.2698C43.8322 43.6932 43.9881 42.043 44.1527 40.2933C44.3071 38.658 44.4687 36.9362 44.3767 35.9219C44.3635 35.7744 44.3446 35.6418 44.3197 35.5267C44.2897 35.3876 44.2592 35.2629 44.2274 35.1513C44.2262 35.1508 44.225 35.1499 44.2238 35.1493C44.0708 35.0629 43.9186 34.9886 43.7668 34.9283C42.9495 34.6036 42.1607 34.6851 41.4969 35.4409C41.4807 35.4595 41.4648 35.4779 41.4493 35.4964C41.4493 35.4964 41.4493 35.4967 41.4489 35.497C41.2433 35.7713 41.1212 36.0999 41.0116 36.5388C40.9615 36.7397 40.9144 36.9636 40.8625 37.2164C40.7945 37.5505 40.6674 37.0103 40.6351 37.3359C40.2977 40.7149 41.8072 44.4155 41.8279 44.5653Z" fill="#D8250E"/>
<path d="M42.4877 27.2147C42.7581 26.3913 42.842 25.8312 43.2672 25.1159C43.7036 24.3818 43.9661 24.3397 44.7306 24.0249L44.8205 34.1433C44.8614 34.905 44.3554 36.0372 44.0121 36.7089C43.7191 37.2822 43.3224 37.9843 42.7868 38.3729C42.2099 38.7916 41.056 38.9719 40.7282 38.2357C40.1829 37.0111 42.1377 28.2812 42.4877 27.2147Z" fill="#D8250E"/>
<path d="M57.4792 32.4916C57.0001 31.6814 56.2756 29.8316 56.16 29.0137C56.9755 30.9941 57.7689 32.1047 58.0789 33.1512C56.7596 32.6115 55.8093 32.4704 55.1406 31.1723C56.0076 31.5788 56.7597 32.2517 57.4792 32.4916Z" fill="#AA160B"/>
<path d="M43.4453 43.2247C43.4448 43.4877 43.4987 43.9497 43.5263 44.335L44.0072 44.2696C43.8336 43.6931 44.2248 31.7717 44.6179 29.4844C43.6252 31.7717 43.4453 40 43.4453 41.246C43.4453 41.9055 43.4471 42.5651 43.4453 43.2247Z" fill="#AA160B"/>
<path d="M15.6834 31.4305C15.3836 29.3617 16.3208 23.8263 16.6129 22.5558C17.2125 19.9474 17.8421 20.3971 18.7116 20.1572L21.7997 22.1361C22.2828 22.8358 22.2775 23.9088 22.2795 24.7145C22.2818 25.6715 23.1349 24.8724 23.059 25.8238C22.9956 26.6186 23.232 31.7739 23.5687 31.9402C23.2075 32.1918 15.881 32.7938 15.6834 31.4305Z" fill="#301F23"/>
<path d="M14.8125 32.51C15.1029 31.5275 14.8513 30.2725 15.8509 30.1271C16.2371 30.0708 16.933 29.9592 17.4885 29.7671C17.4857 29.7592 17.4826 29.7512 17.4798 29.7433C17.5006 29.7464 17.5205 29.7481 17.5402 29.7488C17.6712 29.7016 17.793 29.6495 17.9002 29.5922C18.3696 29.0956 18.3623 27.5664 18.4102 27.1347C18.4175 27.0709 18.4247 27.0019 18.4316 26.9291C18.4833 26.3622 18.5089 25.5564 18.2596 25.1309L21.0406 26.4577L21.3796 26.6191C21.3641 26.6581 21.3492 26.6984 21.3355 26.7405C21.201 27.144 21.1373 27.6753 21.1548 28.1201C21.1552 28.1246 21.1552 28.1291 21.1558 28.1336C21.1558 28.1374 21.1562 28.1411 21.1568 28.1453C21.1568 28.1463 21.1568 28.147 21.1572 28.1477C21.1659 28.2308 21.1993 28.4073 21.2537 28.6253C21.2972 28.7977 21.3538 28.996 21.4217 29.1943L21.4341 29.1932C21.7854 29.8606 22.7816 29.9897 23.5538 30.4356C23.9187 30.6464 23.6984 31.7973 23.7473 32.27C23.9271 34.009 15.9815 33.6293 14.8125 32.51Z" fill="#FFB278"/>
<path d="M21.1554 28.1478C21.164 28.2308 21.1974 28.4074 21.2519 28.6254C20.5972 29.8116 18.7406 28.8097 18.3487 27.2631C18.312 27.1187 18.4912 27.0712 18.4299 26.9291C18.4815 26.3622 18.5071 25.5564 18.2578 25.1309L21.0389 26.4577L21.3338 26.7405C21.1993 27.144 21.1355 27.6753 21.153 28.1201C21.1534 28.1246 21.1534 28.1291 21.1541 28.1336C21.1541 28.1377 21.1544 28.1415 21.155 28.1453C21.155 28.1464 21.155 28.147 21.1554 28.1478Z" fill="#E5804E"/>
<path d="M10.629 35.7527C10.8653 35.7671 11.0544 36.5922 10.9887 37.5067C10.7108 41.3752 11.8318 45.4429 13.288 45.5235C14.2931 45.5789 15.2192 45.2977 16.1867 45.2036C16.5741 45.1661 16.9536 45.1563 17.33 45.1427C17.8439 45.1241 18.3515 45.098 18.8654 44.9841C18.9418 44.9671 19.0597 44.9343 19.1352 44.9136L17.6957 30.4312C17.073 29.976 17.0478 29.7431 16.2054 29.7266C15.4984 29.7125 14.4325 29.8528 13.7321 30.0414C13.2635 30.1676 12.8177 30.313 12.4328 30.5057C11.8575 30.7939 11.4176 31.1875 11.2392 31.7803C10.9294 32.8085 10.584 34.0887 10.629 35.7527Z" fill="#601E13"/>
<path d="M10.629 35.7527C10.8653 35.7671 11.0544 36.5922 10.9887 37.5067C10.7108 41.3753 11.8318 45.4429 13.288 45.5235C14.2931 45.5789 15.2192 45.2978 16.1867 45.2036C16.5741 45.1662 16.9536 45.1563 17.33 45.1428C17.5216 44.7194 17.5624 44.3015 17.3468 43.9468C17.1216 43.5768 16.5385 43.3669 16.2059 43.1085C15.8178 42.8072 15.466 42.4498 15.1161 42.1056C13.5972 40.611 13.5541 38.3806 13.5541 36.334C13.5541 34.8785 13.5429 33.299 13.1943 31.8938C13.0533 31.3262 12.9055 30.821 12.4328 30.5059C11.8575 30.794 11.4176 31.1876 11.2392 31.7804C10.9294 32.8086 10.584 34.0888 10.629 35.7527Z" fill="#822316"/>
<path d="M23.5931 50.5314C23.6429 50.0951 23.4991 49.5845 23.3911 49.1584C22.713 49.2744 23.2208 48.0169 23.3606 47.7593C23.3416 47.6772 23.3108 47.7474 23.2651 47.7152L24.0296 47.4004C24.3027 47.9575 24.6438 48.7249 24.6942 49.3341C24.7277 49.7388 24.3922 51.0637 24.1195 51.3173C23.8731 51.216 23.4749 51.3731 23.2519 51.2362C23.0946 51.1398 22.9094 50.6729 22.8672 50.5122C23.1029 50.4175 23.3612 50.4614 23.5931 50.5314Z" fill="#FFB278"/>
<path d="M21.9557 30.3421C22.6115 29.7096 24.2081 30.0503 24.2957 33.2132C24.3065 33.6045 24.01 40.0146 24.0059 40.5003C23.985 42.9467 24.2183 47.4503 24.3031 48.2997C23.8554 48.2443 23.666 48.3602 23.2166 48.3214C22.9131 46.8302 20.4993 31.7467 21.9557 30.3421Z" fill="#FFB278"/>
<path d="M14.3918 33.2894C14.4342 33.4702 14.5676 34.9846 14.673 36.9031C14.7593 38.4706 14.827 40.3081 14.8116 41.9088C14.8029 42.8219 14.7667 43.658 14.6916 44.3227L22.6668 44.2028C22.3924 43.8372 22.3355 43.0484 22.3862 41.6572C22.4059 41.1199 22.4415 40.493 22.4869 39.7656C22.5653 38.511 22.8016 37.7053 23.0689 37.0292C23.1195 36.901 23.1713 36.7775 23.2233 36.6567C23.4548 36.1177 23.6911 35.6275 23.8565 34.9946C23.908 34.7977 23.9526 34.5868 23.9879 34.3565C24.2259 32.8096 24.2859 30.5911 23.8061 30.3511L21.7074 29.5117C21.6362 30.3484 20.7798 31.0476 20.2083 31.0109C19.069 30.9375 18.5292 30.1712 17.8993 29.5922C17.741 29.4468 16.194 29.692 14.401 30.528C14.2007 30.6213 13.7923 31.1307 14.3918 33.2894Z" fill="#F5DFD4"/>
<path d="M22.1523 37.1385C22.4739 37.1268 22.7913 37.1015 23.0695 37.0293C23.4965 36.9183 23.8317 36.6969 23.9489 36.2431C24.0045 36.0289 24.0117 35.7632 23.9569 35.433C23.9407 35.3351 23.9049 35.1832 23.8572 34.9948C23.6573 34.203 23.2481 32.7683 23.2063 32.0195L22.2431 36.6977L22.1523 37.1385Z" fill="#F5DFD4"/>
<path d="M23.3029 31.5518L23.2066 32.0196C23.1929 31.7748 23.2182 31.6033 23.3029 31.5518Z" fill="#F5DFD4"/>
<path d="M14.4916 41.8955C14.5981 41.8976 14.7046 41.9024 14.8114 41.9089C15.6262 41.9587 16.4415 42.1211 17.2603 42.1778C18.8194 42.2854 20.0781 42.1824 21.6035 41.8338C21.8834 41.7697 22.1499 41.7237 22.386 41.6572C22.4057 41.1198 22.4413 40.4929 22.4867 39.7656C22.5651 38.511 22.8014 37.7053 23.0687 37.0291C23.4957 36.9182 23.8309 36.6967 23.9481 36.2429C23.8262 36.3626 23.6973 36.483 23.5784 36.5359C23.4634 36.5869 23.3445 36.6268 23.2232 36.6567C22.9086 36.7347 16.7283 37.9239 14.9067 35.6787C14.8131 36.0837 14.7356 36.4918 14.6728 36.9032C14.4263 38.5195 14.405 40.1854 14.4916 41.8955Z" fill="#E2C5B7"/>
<path d="M23.1569 29.505C23.8706 29.9139 24.1671 30.3738 24.2167 30.6721C24.4351 31.9826 24.302 33.4117 24.1602 34.6484C24.0226 35.8474 23.7455 37.044 23.3796 38.0179C23.194 38.5122 22.8532 39.0692 22.5274 39.4658C22.5482 38.8122 22.6344 38.3206 22.6474 37.6669C23.0141 36.6955 23.2652 35.3479 23.3559 34.5565C23.4912 33.3776 23.8562 31.9544 23.4185 30.8178C23.0291 29.8065 21.7074 29.7416 21.539 29.3968C21.5295 29.3772 21.4417 29.1412 21.4375 29.1198C22.1285 28.9565 22.6789 29.2312 23.1569 29.505Z" fill="#822316"/>
<path d="M11.1713 70.2902C15.2488 71.2496 21.5922 71.5464 26.112 70.272C26.2124 68.2943 25.6856 63.2118 24.999 57.8016C24.0417 50.2591 22.7735 42.0796 22.4593 40.7896C22.4593 40.7896 21.1706 41.3787 19.671 41.4192C18.4669 41.4519 16.432 41.3251 15.3992 41.2522C15.0046 41.2246 14.7563 41.2047 14.7563 41.2047C11.7582 48.8801 11.0838 66.0117 11.1713 70.2902Z" fill="#617695"/>
<path d="M14.3451 41.4904C14.8973 41.4904 15.3972 41.3123 15.8373 40.9578C16.5004 40.4236 16.9976 39.5042 17.315 38.225C17.5593 37.2411 17.6884 36.0525 17.6786 34.8781C17.6685 33.6669 17.6263 32.271 17.2497 31.0313C17.1639 30.749 16.8825 30.0589 16.1242 29.7488C15.4451 29.4711 14.616 29.5947 13.6602 30.116L14.0479 30.8267C14.7692 30.4332 15.3813 30.3195 15.8177 30.4981C16.2668 30.6818 16.4344 31.1328 16.4751 31.2666C16.8204 32.4031 16.8596 33.7302 16.8692 34.8849C16.8852 36.8104 16.4916 39.3912 15.3295 40.3273C14.921 40.6564 14.4473 40.7539 13.8814 40.6257L13.7025 41.4152C13.9238 41.4654 14.1381 41.4904 14.3451 41.4904Z" fill="#822316"/>
<path d="M11.1713 70.2905C15.2488 71.2499 21.5922 71.5467 26.112 70.2722C26.2124 68.2946 25.6856 63.2121 24.999 57.8018C24.7912 57.9914 24.5763 58.1727 24.337 58.298C23.6001 58.6839 22.665 58.9806 21.8305 59.0158C19.4039 59.1178 17.7849 56.6802 17.095 54.6382C16.069 51.6013 15.6357 48.4014 15.3578 45.223C15.2562 44.0615 15.2426 42.8443 15.3425 41.6866C15.3502 41.5973 15.3716 41.4395 15.3992 41.2525C15.0046 41.2249 14.7563 41.2051 14.7563 41.2051C11.7582 48.8804 11.0838 66.012 11.1713 70.2905Z" fill="#4F6177"/>
<path d="M23.6779 25.5674C23.6851 25.1752 23.4528 24.8124 23.1786 24.9223C22.3744 25.2445 22.5418 26.2734 22.5418 26.2734C22.5602 26.6681 22.989 26.7 23.1824 26.5758C23.4273 26.4181 23.6706 25.946 23.6779 25.5674Z" fill="#FFB278"/>
<path d="M23.0326 25.3028C22.9381 25.4748 22.765 25.8663 22.765 25.8663C22.7186 26.1753 23.1766 26.1563 23.2182 25.7879C23.2369 25.6232 23.1189 25.4684 23.2685 25.3708C23.3715 25.3039 23.4654 25.4178 23.5081 25.5453C23.5512 25.1932 23.1811 25.0322 23.0326 25.3028Z" fill="#E5804E"/>
<path d="M21.9195 21.143C20.0409 19.4287 17.8627 21.0375 17.51 23.2599C17.51 23.2599 17.2445 25.328 17.6563 26.3204C17.9682 27.0721 19.3798 28.7403 20.6598 28.6721C21.2682 28.6398 22.4254 27.3615 22.7332 26.4914C23.2517 25.026 23.4117 22.5045 21.9195 21.143Z" fill="#FFB278"/>
<path d="M21.2987 24.203C21.331 24.0125 21.6899 23.947 21.997 23.9553C22.286 23.9631 22.4821 24.112 22.5245 24.2747C22.3833 24.1415 22.12 24.1241 21.9414 24.1545C21.7562 24.1861 21.2634 24.3559 21.2987 24.203Z" fill="#301F23"/>
<path d="M19.7625 24.3333C19.8025 24.1506 19.5108 24.0136 19.2381 23.9556C18.9813 23.9009 18.7558 23.9963 18.6602 24.1374C18.8319 24.0447 19.0695 24.0848 19.2153 24.1511C19.3668 24.2199 19.7387 24.4821 19.7625 24.3333Z" fill="#301F23"/>
<path d="M20.8863 27.1688C20.6657 27.2722 20.4073 27.2745 20.1759 27.1641C20.1082 27.3557 20.3415 27.508 20.5956 27.4987C20.9146 27.4871 20.98 27.1742 20.8863 27.1688Z" fill="#F72828"/>
<path d="M20.7949 27.1154C20.6972 27.1045 20.6883 27.1838 20.5806 27.1859C20.4606 27.1796 20.4517 27.0744 20.3282 27.135C20.1912 27.1967 20.032 27.1098 20.0352 27.1084C20.2814 27.3756 20.7737 27.4538 21.0886 27.1128C20.9349 27.1824 20.8554 27.1173 20.7949 27.1154Z" fill="#E52323"/>
<path d="M20.2969 26.3567C20.2969 26.3567 20.3094 26.3581 20.3302 26.3628C20.3405 26.3656 20.3533 26.3668 20.3669 26.37C20.3803 26.3732 20.3963 26.3755 20.413 26.379C20.4296 26.3829 20.448 26.3854 20.4667 26.3895C20.4853 26.3928 20.5051 26.3964 20.5253 26.3999C20.5456 26.4027 20.5662 26.4067 20.5871 26.4089C20.608 26.4121 20.6287 26.4133 20.6497 26.4153C20.66 26.4161 20.6701 26.4161 20.6804 26.4166C20.6907 26.4172 20.7008 26.4174 20.7106 26.4167C20.7203 26.4159 20.7306 26.4167 20.7399 26.4156C20.7493 26.4145 20.7586 26.4132 20.7681 26.4127C20.7776 26.4122 20.7855 26.4088 20.7946 26.4076C20.8034 26.4062 20.8121 26.4045 20.8198 26.4013C20.828 26.3987 20.836 26.3962 20.8436 26.3938C20.8512 26.3909 20.8578 26.3869 20.8649 26.3837C20.8796 26.3779 20.8914 26.3696 20.9027 26.3622C20.9084 26.3583 20.9138 26.3548 20.9188 26.3515C20.9234 26.3476 20.9275 26.3439 20.9313 26.3407C20.9467 26.3273 20.9573 26.3193 20.9573 26.3193C20.9573 26.3193 20.9561 26.3314 20.9509 26.353C20.9495 26.3584 20.948 26.3644 20.9463 26.371C20.9441 26.3774 20.9404 26.3834 20.9369 26.3905C20.9331 26.3977 20.9292 26.4053 20.925 26.4132C20.9209 26.4215 20.9138 26.4276 20.9077 26.4357C20.901 26.4433 20.8942 26.4515 20.8862 26.4589C20.8778 26.4657 20.8686 26.4723 20.8592 26.4794C20.8499 26.4869 20.8393 26.492 20.8282 26.4973C20.8172 26.5025 20.8059 26.5086 20.7939 26.5123C20.7701 26.5198 20.7448 26.527 20.7191 26.5289C20.6932 26.5334 20.6676 26.5312 20.6419 26.531C20.6165 26.528 20.591 26.5258 20.5672 26.5194C20.543 26.5146 20.5201 26.5065 20.4983 26.4987C20.4766 26.4904 20.4563 26.481 20.4375 26.4713C20.4191 26.4608 20.4017 26.4513 20.3868 26.4403C20.3717 26.4298 20.3582 26.4195 20.3469 26.4092C20.3355 26.3995 20.3258 26.3905 20.3189 26.3825C20.3043 26.3668 20.2969 26.3567 20.2969 26.3567Z" fill="#E5804E"/>
<path d="M22.3346 24.8533C22.2368 24.831 22.0954 24.8073 21.8798 24.8359C21.6954 24.859 21.512 24.9352 21.4014 25.0166C21.362 25.0454 21.3245 25.0847 21.2988 25.1153C21.2537 25.1681 21.2553 25.2611 21.2539 25.2736C21.3231 25.2779 21.3793 25.2073 21.4524 25.2069C21.594 25.2072 21.7574 25.1873 21.8653 25.1608C22.0002 25.1279 22.0988 25.0924 22.209 25.046C22.2963 25.0102 22.4115 25.038 22.5655 24.9896C22.5465 24.9163 22.4318 24.8774 22.3346 24.8533Z" fill="#E5804E"/>
<path d="M22.5655 24.9903C22.4115 25.0388 22.3139 25.0843 22.2265 25.1201C22.1164 25.1666 22.0179 25.202 21.8828 25.235C21.7749 25.2614 21.6117 25.2813 21.4699 25.281C21.3969 25.2814 21.3231 25.2787 21.2539 25.2744C21.2545 25.2737 21.2712 25.2423 21.3165 25.1895C21.3422 25.1589 21.3795 25.1195 21.4191 25.0909C21.5296 25.0094 21.713 24.9332 21.8975 24.9101C22.1131 24.8815 22.2544 24.9052 22.3521 24.9275C22.4493 24.9515 22.5087 24.9756 22.5655 24.9903Z" fill="white"/>
<path d="M22.2269 25.1197C22.1169 25.1662 22.0183 25.2016 21.8833 25.2346C21.7754 25.261 21.6121 25.2809 21.4704 25.2806C21.4382 25.2639 21.38 25.119 21.4196 25.0904C21.5301 25.0089 21.7135 24.9327 21.8979 24.9097C22.1136 24.8811 22.2549 24.9047 22.3526 24.927C22.3535 24.9652 22.253 25.0937 22.2269 25.1197Z" fill="#3F1411"/>
<path d="M22.1086 25.0463C22.1081 25.0787 22.0834 25.1097 22.0534 25.1157C22.0233 25.1217 21.9994 25.1002 22 25.0679C22.0006 25.0356 22.0252 25.0045 22.0553 24.9986C22.0853 24.9926 22.1091 25.014 22.1086 25.0463Z" fill="white"/>
<path d="M19.4714 25.0482C19.3902 24.9894 19.2695 24.9122 19.0598 24.8541C18.881 24.8031 18.6824 24.8014 18.5488 24.8331C18.5012 24.844 18.4514 24.8656 18.4158 24.8837C18.3535 24.9146 18.3188 25.0009 18.3125 25.0118C18.3744 25.043 18.4538 24.9999 18.5213 25.0281C18.6515 25.0838 18.8096 25.1295 18.9191 25.1473C19.0564 25.1699 19.1609 25.1758 19.2804 25.1762C19.3749 25.1774 19.4699 25.2482 19.6306 25.2639C19.6417 25.1891 19.5512 25.1083 19.4714 25.0482Z" fill="#E5804E"/>
<path d="M19.6306 25.2638C19.4699 25.2481 19.3623 25.2518 19.2678 25.2505C19.1484 25.2501 19.0438 25.2443 18.9066 25.2216C18.7971 25.2038 18.6389 25.1582 18.5087 25.1023C18.4412 25.0741 18.3744 25.0427 18.3125 25.0116C18.3134 25.0112 18.3411 24.9888 18.4033 24.9579C18.439 24.9399 18.4888 24.9183 18.5364 24.9073C18.67 24.8756 18.8686 24.8773 19.0474 24.9284C19.257 24.9864 19.3778 25.0636 19.459 25.1224C19.5389 25.1826 19.5841 25.2281 19.6306 25.2638Z" fill="white"/>
<path d="M19.2653 25.2509C19.1459 25.2505 19.0413 25.2447 18.9041 25.222C18.7946 25.2042 18.6364 25.1586 18.5062 25.1028C18.483 25.0748 18.4862 24.9187 18.5338 24.9078C18.6674 24.8761 18.866 24.8778 19.0448 24.9288C19.2544 24.9869 19.3752 25.0641 19.4565 25.1229C19.4422 25.1583 19.2995 25.2372 19.2653 25.2509Z" fill="#3F1411"/>
<path d="M19.1876 25.1383C19.1745 25.168 19.1396 25.1868 19.1096 25.1806C19.0796 25.1743 19.0661 25.1452 19.0792 25.1157C19.0924 25.0861 19.1274 25.0672 19.1573 25.0735C19.1873 25.0797 19.2008 25.1088 19.1876 25.1383Z" fill="white"/>
<path d="M16.698 25.619C16.6675 25.2278 16.8996 24.8482 17.2048 24.9375C18.0991 25.1994 17.9761 26.2394 17.9761 26.2394C17.9788 26.635 17.5135 26.6988 17.2958 26.5892C17.0199 26.4499 16.7276 25.9966 16.698 25.619Z" fill="#FFB278"/>
<path d="M17.3866 25.3063C17.4994 25.471 17.7104 25.8491 17.7104 25.8491C17.7787 26.1543 17.2789 26.1694 17.2123 25.8046C17.1824 25.6416 17.302 25.4781 17.1336 25.3918C17.0175 25.3327 16.9217 25.4534 16.8826 25.5839C16.8155 25.2355 17.2093 25.0471 17.3866 25.3063Z" fill="#E5804E"/>
<path d="M19.9375 21.272L20.5671 20.1928C21.8422 19.8777 22.9481 20.4643 23.5076 21.6264C24.0321 22.7155 23.4276 24.6745 22.908 25.7339C23.0031 24.9534 23.0321 22.8799 22.3996 22.3175C21.5888 21.5964 19.9698 23.4853 19.9375 21.272Z" fill="#1E1316"/>
<path d="M17.6313 25.974C17.8382 25.3444 17.7269 24.8668 17.9248 24.1956C18.0948 23.6202 18.4909 23.0359 19.6101 23.0158C20.1965 23.0053 21.0876 23.0104 21.5736 21.815C21.5788 21.8024 21.5838 21.7895 21.5889 21.7766C21.88 21.0316 21.7898 20.103 20.8094 19.8578C20.2698 19.7229 19.0105 19.8578 19.0105 19.8578C18.1363 19.934 17.5882 20.2961 17.2422 20.7974C17.0425 21.0868 16.9103 21.4229 16.8219 21.7766C16.5135 23.0101 17.4064 24.7502 17.6313 25.974Z" fill="#301F23"/>
<path d="M17.6312 25.974C17.8381 25.3444 17.7269 24.8668 17.9247 24.1955C18.0947 23.6201 18.4908 23.0358 19.6101 23.0157C20.1964 23.0052 21.0875 23.0103 21.5736 21.8149L21.4389 21.3868C21.2929 21.6878 21.251 21.9235 20.8993 22.0455C20.5689 22.16 20.1586 22.1115 19.8139 22.0764C19.4182 22.0362 19.048 22.0377 18.6821 22.1963C18.3748 22.3298 18.2749 22.5726 18.027 22.763C17.9182 22.4568 18.095 22.1516 18.1656 21.8704C17.7957 22.0617 17.6415 22.5084 17.5654 22.8835C17.249 22.5447 17.2035 21.8737 17.1817 21.4243C17.1705 21.1979 17.1975 20.994 17.2422 20.7974C17.0425 21.0867 16.9104 21.4228 16.8219 21.7766C16.5134 23.01 17.4064 24.7501 17.6312 25.974Z" fill="#1E1316"/>
<path d="M21.0703 25.2262C21.0703 24.6992 21.4991 24.2705 22.0261 24.2705C22.5531 24.2705 22.9819 24.6992 22.9819 25.2262C22.9819 25.7532 22.5531 26.182 22.0261 26.182C21.4991 26.182 21.0703 25.7532 21.0703 25.2262ZM21.2151 25.2262C21.2151 25.6734 21.5789 26.0372 22.0261 26.0372C22.4733 26.0372 22.8371 25.6735 22.8371 25.2262C22.8371 24.7791 22.4733 24.4153 22.0261 24.4153C21.5789 24.4153 21.2151 24.7791 21.2151 25.2262Z" fill="white"/>
<path d="M18.3633 25.2116C18.3633 24.6846 18.792 24.2559 19.3191 24.2559C19.8461 24.2559 20.2748 24.6846 20.2748 25.2116C20.2748 25.7386 19.8461 26.1673 19.3191 26.1673C18.7921 26.1673 18.3633 25.7386 18.3633 25.2116ZM18.5081 25.2116C18.5081 25.6587 18.8719 26.0226 19.3191 26.0226C19.7662 26.0226 20.1301 25.6588 20.1301 25.2116C20.1301 24.7644 19.7662 24.4006 19.3191 24.4006C18.8719 24.4006 18.5081 24.7644 18.5081 25.2116Z" fill="white"/>
<path d="M20.2507 25.2362C20.3486 25.0839 20.4686 24.9995 20.6075 24.9853C20.7649 24.9692 20.942 25.049 21.0938 25.2042L21.1973 25.1029C21.0117 24.9133 20.7971 24.8205 20.5927 24.8412C20.4105 24.8598 20.25 24.9693 20.1289 25.1578L20.2507 25.2362Z" fill="white"/>
<path d="M14.628 52.0938C14.7693 52.216 15.0447 52.267 15.2223 52.3291C15.3982 52.3907 15.5811 52.477 15.7562 52.5234C15.6637 52.7492 15.3717 52.9299 15.1467 53.0013C14.9866 53.0522 14.5794 53.2448 14.4922 53.0631L14.628 52.0938Z" fill="#FFB278"/>
<path d="M18.6195 46.5334L11.5761 45.1929L11.5547 48.1885L18.3923 47.4934L18.6195 46.5334Z" fill="#2F4C1C"/>
<path d="M11.746 45.3418L18.4977 46.5417L18.5514 46.5996L18.1221 47.3278L11.7031 45.8383L11.746 45.3418Z" fill="#E8E2DD"/>
<path d="M17.6033 46.5335L11.0815 45.3584L11.0703 52.0093L18.0633 53.5465L17.6033 46.5335Z" fill="#47722B"/>
<path d="M17.6033 46.5332C17.6184 46.5478 17.6345 46.5617 17.6526 46.5746C17.7541 46.6476 17.9006 46.6933 18.0633 46.6933C18.2168 46.6933 18.3553 46.6528 18.456 46.5873C18.4805 46.5711 18.5027 46.5538 18.5221 46.5349C18.5227 46.5344 18.5232 46.5338 18.5237 46.5332H18.6187V53.1834C18.6187 53.2837 18.5566 53.3746 18.4561 53.4402C18.3553 53.5057 18.2168 53.5461 18.0633 53.5461C17.7567 53.5461 17.5078 53.3841 17.5078 53.1834V46.5332H17.6033Z" fill="#6BAA43"/>
<path d="M17.6523 46.5749V53.0348C17.6523 53.2376 17.8472 53.4017 18.0871 53.4017C18.2071 53.4017 18.3157 53.3607 18.3946 53.2945C18.4732 53.228 18.5218 53.1361 18.5218 53.0348V46.5352C18.5024 46.5541 18.4802 46.5714 18.4557 46.5875C18.3549 46.6531 18.2164 46.6935 18.063 46.6935C17.9003 46.6935 17.7538 46.6479 17.6523 46.5749Z" fill="#FFFBF8"/>
<path d="M13.6267 46.5814V51.7091L12.3699 51.4159L12.3672 51.3227V46.3398L13.6267 46.5814Z" fill="#F72E1E"/>
<path d="M12.7282 50.1775C12.7897 49.9423 12.8403 49.6726 12.8724 49.4351L14.0333 49.8745C14.1975 50.4255 14.9248 50.8818 14.9825 51.544C15.0183 51.9531 15.2168 52.3493 15.065 52.4078C14.6633 52.5627 14.6665 51.7076 14.5218 51.5711C14.5464 51.8007 14.7318 53.0375 14.6684 53.0965C14.5366 53.219 14.2871 53.1721 14.1691 53.0239C14.099 53.0857 13.9884 53.1224 13.8885 53.1178C13.7999 53.1136 13.7109 53.0299 13.6345 53.0318C13.5294 53.0343 13.4431 53.1136 13.2991 53.0712C13.2032 53.0429 13.1271 52.9695 13.043 52.921C12.7471 53.0542 12.754 52.6568 12.6885 52.4631C12.6167 52.2511 12.5883 50.7124 12.7282 50.1775Z" fill="#FFB278"/>
<path d="M13.6229 44.8999C13.8457 44.9494 14.218 44.9911 14.5345 44.9494C14.3487 46.8232 14.0787 49.6666 14.1617 50.7038C13.8288 50.7336 13.2908 50.689 12.7734 50.6792C12.7734 49.8889 12.8282 46.6847 12.7734 44.5542C13.1464 44.7024 13.2149 44.8094 13.6229 44.8999Z" fill="#FFB278"/>
<path d="M14.2549 30.7455C14.998 30.2182 16.5257 30.7938 16.1392 33.9343C16.0914 34.3227 15.5396 36.7401 15.4628 37.2197C15.0763 39.6354 14.1942 48.1014 14.1511 48.9539C13.7168 48.8322 13.2514 48.8168 12.8129 48.7112C12.7358 47.1914 12.6049 31.9166 14.2549 30.7455Z" fill="#FFB278"/>
<path d="M40.776 37.4542C39.4746 37.8995 38.0134 37.8952 36.8359 37.224L38.7331 27.8145C41.7294 29.3611 40.2125 34.7575 40.776 37.4542Z" fill="#3B3348"/>
<path d="M26.459 49.6756C26.3641 47.5217 26.607 44.9895 27.1983 41.9633C27.8542 38.6064 28.8286 35.1267 30.0947 31.6212L30.1209 31.5488C30.5696 30.306 30.9935 29.1322 31.6063 27.9777C31.6965 27.8076 31.9739 27.372 32.2823 26.9773C32.8072 26.3056 33.5043 25.7077 33.5043 25.7077C33.3742 25.5402 33.1849 25.4638 32.9714 25.4928C32.7578 25.5218 32.3977 25.6572 31.7393 26.4946C31.3702 26.9641 31.07 27.4455 30.9675 27.6385C30.3268 28.8455 29.8931 30.0465 29.434 31.3179L29.4079 31.3903C28.1272 34.9359 27.1413 38.4568 26.4773 41.8554C25.8852 44.8861 25.6357 47.4408 25.7186 49.6314C25.9657 49.6432 26.213 49.6565 26.459 49.6756Z" fill="#68300B"/>
<path d="M28.9464 73.2325L31.4942 73.1815C31.5783 71.0037 31.7459 68.3921 31.9738 65.3262C32.2673 61.3737 32.8312 54.6424 33.7955 50.5667C33.8472 50.3476 33.9004 50.1362 33.9543 49.9333C33.9765 49.85 33.999 49.7681 34.0215 49.6876C34.0253 49.6741 34.0292 49.661 34.0329 49.6478C34.0472 49.5991 34.0611 49.5509 34.0748 49.5033C34.0836 49.5407 34.0926 49.5786 34.1017 49.6172C34.1077 49.6432 34.1138 49.6695 34.12 49.6961C34.132 49.7489 34.1449 49.8028 34.1578 49.8576C34.8452 52.8058 36.1641 58.6879 35.9913 64.8466C35.9143 67.5894 36.564 70.104 37.0189 71.7573C37.1917 72.3845 37.3366 72.8876 37.4032 73.2324L39.7691 73.1814C39.6855 71.5527 39.4925 68.4222 39.2892 64.7866C39.0702 60.8571 39.098 53.7945 38.7248 48.1424C38.718 48.0389 38.7111 47.9362 38.7043 47.8338C38.6024 46.3686 38.4727 45.0058 38.3031 43.8269L29.3077 43.6406C29.1913 43.6916 29.1919 45.266 29.1774 47.7426C29.1766 47.842 29.176 47.9427 29.1755 48.0446C29.1494 52.1792 29.0705 58.6241 28.3761 64.7266C27.9399 68.5592 28.9355 71.8793 28.9464 73.2325Z" fill="#086A97"/>
<path d="M34.9421 49.2437L34.1016 49.6172C34.1076 49.6432 34.1137 49.6695 34.1199 49.6961C34.1319 49.749 34.1448 49.8029 34.1577 49.8577C34.8451 52.8058 36.164 58.6879 35.9912 64.8466C35.9143 67.5894 36.5639 70.1041 37.0188 71.7573C37.0221 71.7623 37.0254 71.767 37.0287 71.7718C36.854 71.1953 36.8652 70.5603 36.8041 69.9482C36.4577 66.4857 36.6949 62.8109 36.6949 59.2124C36.6948 56.0569 36.2802 51.9027 34.9421 49.2437Z" fill="#084B63"/>
<path d="M33.8906 49.6656C33.9341 49.6753 33.9797 49.6825 34.0267 49.6878C34.0588 49.6914 34.0918 49.6942 34.1251 49.6962C34.1406 49.6974 34.1563 49.698 34.1722 49.699C34.2612 49.7032 34.3527 49.7035 34.4429 49.7041C34.6006 49.705 34.7494 49.7058 34.8665 49.7257L35 49.7482L35.032 49.6361C35.2065 49.0202 35.16 48.3268 35.1153 47.6561C35.1087 47.5562 35.1025 47.4575 35.0965 47.3601C35.0725 46.9554 34.9847 46.5162 34.9001 46.0916C34.8155 45.6677 34.7355 45.2671 34.7247 44.9346L34.4413 44.9411C34.4528 45.2904 34.5344 45.6991 34.6206 46.1317C34.7043 46.5494 34.7904 46.9812 34.8134 47.3721C34.8194 47.4701 34.8257 47.5694 34.8323 47.6695C34.8736 48.2835 34.9159 48.9174 34.784 49.4741C34.6752 49.4655 34.5585 49.4648 34.4446 49.4642C34.3552 49.4639 34.265 49.4635 34.1808 49.4591C34.0717 49.4537 33.9727 49.4421 33.8992 49.416C33.8975 49.4996 33.8949 49.5829 33.8906 49.6656Z" fill="#0B8BB7"/>
<path d="M33.8915 49.6658C33.8771 49.9749 33.8483 50.2771 33.8015 50.5671C33.8747 50.2579 33.9499 49.9641 34.0276 49.688C34.0596 49.6916 34.0926 49.6943 34.126 49.6964C34.1382 49.7492 34.1509 49.8031 34.1637 49.858C34.1673 49.8053 34.1703 49.7522 34.173 49.6991C34.1768 49.6196 34.1799 49.5396 34.1816 49.4592C34.2129 48.2648 34.0479 46.9935 33.8744 45.9111L33.5938 45.9435C33.7637 47.0049 33.9259 48.2494 33.9002 49.416C33.8984 49.4997 33.8957 49.5831 33.8915 49.6658Z" fill="#0B8BB7"/>
<path d="M29.1797 48.0448C29.4528 48.0738 29.7049 48.0883 29.9358 48.0883C30.6595 48.0883 31.1741 47.9467 31.4718 47.6637C31.756 47.3942 31.9413 46.8524 31.9806 46.1772C32.0164 45.5574 31.921 44.9747 31.7312 44.6562L31.4737 44.8097C31.6295 45.0712 31.7129 45.6138 31.6811 46.1598C31.6469 46.7507 31.4914 47.2317 31.2656 47.4464C30.9436 47.7522 30.215 47.8532 29.1819 47.7428C29.1808 47.8421 29.1802 47.9429 29.1797 48.0448Z" fill="#0B8BB7"/>
<path d="M37.2614 46.267C37.3003 46.9422 37.4856 47.4839 37.7699 47.7535C37.9813 47.9544 38.302 48.0842 38.7296 48.1423C38.7227 48.0389 38.7158 47.936 38.7089 47.8338C38.3785 47.7823 38.1305 47.6827 37.9762 47.5361C37.7504 47.3215 37.5948 46.8405 37.5606 46.2497C37.5289 45.7037 37.6122 45.161 37.7681 44.8996L37.5105 44.7461C37.3208 45.0644 37.2254 45.6472 37.2614 46.267Z" fill="#0B8BB7"/>
<path d="M33.9531 49.9334C33.9753 49.8501 33.9977 49.7682 34.0202 49.6877C34.0241 49.6742 34.0279 49.6611 34.0317 49.6479L33.955 49.6819C33.9545 49.7658 33.9537 49.8496 33.9531 49.9334Z" fill="#095E7C"/>
<path d="M28.4276 32.3137C28.5995 33.2752 28.728 34.3135 28.8222 35.3721C28.8756 35.9685 28.9179 36.5711 28.9508 37.1704C28.9769 37.643 28.9973 38.1131 29.0126 38.5763C29.015 38.653 29.0174 38.7297 29.0199 38.8062C29.0207 38.8377 29.0216 38.8692 29.0225 38.9007C29.027 39.0521 29.0306 39.2026 29.0339 39.3522C29.0352 39.4035 29.0363 39.4545 29.0372 39.5055C29.039 39.6014 29.0408 39.6968 29.0424 39.7915C29.0433 39.8518 29.0441 39.9115 29.0451 39.9715C29.046 40.0326 29.0465 40.0935 29.0472 40.154C29.0481 40.2271 29.0489 40.2997 29.0493 40.372C29.0499 40.4244 29.0501 40.4769 29.0505 40.5294C29.0508 40.5708 29.051 40.6118 29.051 40.6529C29.0522 40.852 29.0522 41.0477 29.0516 41.2399C29.0513 41.3095 29.051 41.3784 29.0504 41.4471C29.0504 41.457 29.0504 41.4668 29.0501 41.4765C29.0501 41.5145 29.0498 41.5526 29.0495 41.59C29.0489 41.6392 29.0485 41.6884 29.048 41.737C29.0459 41.9697 29.0423 42.1957 29.0381 42.4142C29.0366 42.4928 29.0352 42.5705 29.0333 42.6472C29.033 42.6613 29.0328 42.6757 29.0321 42.6897C29.0303 42.7716 29.0282 42.8519 29.0261 42.9314C29.0239 43.0069 29.0219 43.0813 29.0199 43.1545C29.0187 43.1962 29.0171 43.2372 29.0159 43.278C29.0039 43.6486 28.9896 43.9886 28.9736 44.2911C28.9724 44.3121 28.9715 44.3328 28.9704 44.3534C28.9614 44.5189 28.9523 44.6724 28.9427 44.8134C28.9391 44.8662 28.9355 44.9168 28.932 44.966C28.926 45.0481 28.92 45.1249 28.914 45.1965C28.9131 45.2049 28.9125 45.2133 28.912 45.2217C28.911 45.2301 28.9104 45.2385 28.9099 45.2469C28.9072 45.2766 28.9045 45.3051 28.9018 45.3327C28.9 45.354 28.8979 45.3747 28.8958 45.3948C28.8934 45.4191 28.891 45.4424 28.8886 45.4646C28.8838 45.5093 28.879 45.5504 28.8742 45.5876C28.8725 45.602 28.8707 45.616 28.8689 45.6293C28.8683 45.6344 28.8677 45.6392 28.8668 45.644C28.8659 45.6512 28.8647 45.6581 28.8638 45.665C28.8614 45.6808 28.8593 45.6956 28.8569 45.7094C28.8696 45.7147 28.8822 45.7202 28.8947 45.725C28.9043 45.7289 28.9139 45.7325 28.9233 45.736C28.9454 45.7448 28.9676 45.7525 28.9898 45.7597C28.9998 45.763 29.0099 45.7664 29.0198 45.7694C29.0279 45.7723 29.036 45.7747 29.044 45.7769C29.0545 45.7802 29.0647 45.7832 29.0752 45.7859C29.0896 45.7897 29.1037 45.7936 29.1181 45.7972C29.1322 45.8008 29.1466 45.8041 29.1609 45.8075C29.1727 45.8102 29.1844 45.8129 29.1963 45.8153C29.2149 45.8189 29.2335 45.8225 29.2522 45.8258C29.2627 45.8276 29.2728 45.8294 29.2833 45.8309C29.2875 45.8318 29.2914 45.8324 29.2953 45.833C29.3066 45.8348 29.3178 45.8362 29.3288 45.8378C29.3762 45.8441 29.4236 45.8489 29.4707 45.8524C29.4869 45.8536 29.5031 45.8548 29.5189 45.8554C29.5469 45.8569 29.5747 45.8581 29.6023 45.8587C29.6125 45.859 29.623 45.8593 29.6331 45.8593C30.3069 45.8683 30.9668 45.6567 31.4936 45.9576C35.6911 48.3562 37.5706 47.0079 38.5693 46.4373C38.5711 46.4297 38.5729 46.4223 38.5747 46.4145C38.5786 46.3987 38.5819 46.3824 38.5855 46.365C38.6104 46.243 38.6317 46.0832 38.6493 45.8937C38.6512 45.8739 38.6529 45.8535 38.6547 45.8331C38.659 45.7858 38.6629 45.7369 38.6667 45.6862C38.6679 45.6679 38.6694 45.6496 38.6706 45.631C38.6742 45.5773 38.6779 45.5219 38.6811 45.465C38.6829 45.4332 38.6851 45.4008 38.6866 45.3681C38.6892 45.3189 38.692 45.2689 38.6941 45.2179C38.6956 45.1906 38.6968 45.163 38.698 45.1352C38.7007 45.0683 38.7034 45 38.7058 44.9304C38.707 44.9025 38.7079 44.8747 38.7089 44.8462C38.7089 44.8431 38.7089 44.8401 38.7092 44.8371C38.7101 44.8032 38.7113 44.7691 38.7121 44.7349C38.7133 44.6974 38.7142 44.6599 38.7151 44.6219C38.7157 44.6026 38.716 44.5838 38.7166 44.5646C38.7175 44.5289 38.7181 44.4932 38.719 44.4572C38.7196 44.4276 38.7202 44.3979 38.7208 44.3679C38.7211 44.3485 38.7217 44.3287 38.722 44.3089C38.7226 44.2783 38.7229 44.2474 38.7234 44.2163V44.213C38.7231 44.1896 38.7234 44.1665 38.7243 44.1437C38.7246 44.132 38.7246 44.1203 38.725 44.1083C38.7258 44.0429 38.7265 43.977 38.727 43.9104C38.7273 43.89 38.7276 43.8697 38.7276 43.849C38.7282 43.7671 38.7288 43.6847 38.7291 43.6016C38.7294 43.581 38.7294 43.5602 38.7294 43.5392C38.731 43.0058 38.7256 42.4557 38.7157 41.9361C38.7097 41.6087 38.7016 41.2933 38.6923 41.0016C38.6806 40.6295 38.6668 40.2961 38.6524 40.0254C38.6365 39.7303 38.6245 39.4494 38.6159 39.1817C38.6015 38.7434 38.5957 38.3398 38.5976 37.9674C38.6011 37.2382 38.6332 36.6278 38.6839 36.104C38.9148 33.7025 39.5288 33.1286 39.5288 31.3264C39.5288 29.4912 39.7609 28.3339 37.9697 27.1889C37.6177 26.9637 37.1788 26.6432 36.7891 26.4229C36.7438 26.3971 36.6994 26.3728 36.6557 26.3503L33.4072 25.1807C33.4459 25.3045 33.3526 25.4364 33.1731 25.5705C32.4172 26.135 30.1344 26.7433 29.7239 26.9892C29.1282 27.3463 28.7625 27.6299 28.5016 28.2985C28.4192 28.5096 28.3403 28.7377 28.2824 29.019C28.1473 29.6735 28.1248 30.617 28.4276 32.3137Z" fill="#3B3348"/>
<path d="M38.6909 22.1549C38.7045 21.9184 38.771 21.6138 38.771 21.6138C38.8786 21.0909 39.4701 20.6952 39.7544 20.9865C40.0398 21.2789 40.035 21.8058 39.9299 22.1254C39.8261 22.4412 39.4796 22.9962 39.0554 22.8916C38.6931 22.8024 38.6763 22.4083 38.6909 22.1549Z" fill="#FFB278"/>
<path d="M38.9579 21.6659C38.9645 21.6086 39.0925 21.4195 39.1239 21.3696C39.3632 20.9893 39.7685 21.1191 39.7886 21.5411C39.6435 21.1715 39.3859 21.4573 39.2298 21.6518C39.3624 21.6541 39.42 21.9138 39.3913 22.0158C39.3407 22.1955 39.1912 22.2312 39.0358 22.2557L39.0375 22.2411C39.0646 22.1076 39.2238 21.9366 39.1211 21.7629C39.0648 21.6678 38.9458 21.7726 38.9579 21.6659Z" fill="#E5804E"/>
<path d="M39.1323 17.248C39.6361 17.6189 39.852 18.2923 39.8254 18.9231C39.8012 19.499 39.4707 21.1291 39.0361 21.4837C39.0031 21.007 38.9524 19.4386 38.729 19.0034C38.5795 18.7121 38.2941 18.299 38.0156 18.1145L39.1323 17.248Z" fill="#260F0E"/>
<path d="M33.561 21.8422C33.6713 22.3956 33.6821 22.9842 33.6442 23.5765C33.5952 24.3574 33.4346 24.9864 33.1719 25.5699C33.3893 26.0018 33.7664 26.5614 34.5748 27.1255C35.0418 27.4513 35.7078 27.7205 36.2823 27.6415C36.9606 27.5482 37.0761 27.0041 36.7909 26.4282C36.6365 26.1162 36.6269 26.1238 36.6419 25.7727C36.6435 25.7337 36.6454 25.6925 36.6474 25.6495C36.6628 25.3264 36.6884 24.9084 36.6996 24.6999L33.567 21.7086L33.5224 21.666C33.5368 21.7243 33.5495 21.7831 33.561 21.8422Z" fill="#FFB278"/>
<path d="M33.5625 21.8426C33.6728 22.396 33.7318 22.367 33.6938 22.9593C34.0728 25.9101 36.4399 25.8744 36.6489 25.6498C36.6643 25.3268 36.6899 24.9088 36.7012 24.7003L33.5685 21.709C33.5665 21.7531 33.5644 21.7978 33.5625 21.8426Z" fill="#E5804E"/>
<path d="M39.2658 19.7873C39.3785 17.9128 37.6808 15.8209 35.5331 16.4501C35.078 16.5834 34.3709 17.0509 34.0964 17.48C34.0964 17.48 33.7505 18.5798 33.5867 20.5052C33.4981 21.5475 33.5733 21.7326 33.6566 23.0316C33.7565 24.5906 36.1359 25.6813 37.1344 25.4701C38.1738 25.2502 38.6735 23.9492 38.9437 23.3479C39.3239 22.5024 39.2114 20.6913 39.2658 19.7873Z" fill="#FFB278"/>
<path d="M35.8882 20.589C35.8076 20.4388 35.6861 20.3245 35.5431 20.3427C35.3678 20.3652 35.1809 20.4857 35.0608 20.6084C35.0079 20.6624 34.9254 20.7782 34.867 20.8779C34.7488 21.0797 34.7872 21.2048 34.7872 21.2048C34.8286 21.2155 34.8597 21.0523 34.9088 21.0613C35.1745 21.1115 35.5369 21.1361 35.8217 21.089C35.88 21.0794 35.9352 21.0668 35.9857 21.0509C36.0081 20.9258 35.9688 20.7396 35.8882 20.589Z" fill="#E5804E"/>
<path d="M36.002 21.2366C35.9515 21.2493 35.8963 21.2595 35.838 21.2671C35.5533 21.3048 35.1909 21.2851 34.9251 21.2449C34.8761 21.2378 34.8304 21.2297 34.7891 21.2211C34.7891 21.2211 34.8298 21.1656 34.8833 21.0981C34.9451 21.0199 35.0242 20.9255 35.077 20.8823C35.1972 20.784 35.3841 20.6875 35.5593 20.6695C35.7023 20.6549 35.8239 20.7466 35.9045 20.8668C35.9849 20.9873 36.0243 21.1364 36.002 21.2366Z" fill="white"/>
<path d="M35.9055 20.9204C35.9055 21.0466 35.8809 21.1649 35.8377 21.2671C35.5529 21.3048 35.1905 21.2851 34.9247 21.2449C34.9068 21.1989 34.8927 21.1496 34.8828 21.0981C34.9447 21.0199 35.0238 20.9255 35.0766 20.8823C35.1967 20.784 35.3836 20.6875 35.5589 20.6695C35.7019 20.6549 35.8235 20.7466 35.9041 20.8668C35.905 20.8843 35.9055 20.9023 35.9055 20.9204Z" fill="#260F0E"/>
<path d="M35.2911 21.0668C35.2911 21.1094 35.2608 21.1439 35.2237 21.1439C35.1864 21.1439 35.1562 21.1093 35.1562 21.0668C35.1562 21.0242 35.1864 20.9897 35.2237 20.9897C35.2608 20.9897 35.2911 21.0243 35.2911 21.0668Z" fill="white"/>
<path d="M38.7749 20.5461C38.7009 20.3959 38.5893 20.2816 38.4579 20.2998C38.2968 20.3223 38.1251 20.4427 38.0147 20.5655C37.9661 20.6195 37.8903 20.7352 37.8366 20.8349C37.728 21.0367 37.7633 21.1618 37.7633 21.1618C37.8013 21.1725 37.8299 21.0093 37.875 21.0183C38.1192 21.0685 38.4522 21.0931 38.7139 21.046C38.7674 21.0365 38.8181 21.0238 38.8646 21.0079C38.8851 20.8828 38.849 20.6966 38.7749 20.5461Z" fill="#E5804E"/>
<path d="M38.8802 21.1936C38.8337 21.2063 38.7831 21.2165 38.7295 21.2241C38.4678 21.2618 38.1348 21.2421 37.8907 21.2019C37.8456 21.1948 37.8037 21.1867 37.7656 21.1781C37.7656 21.1781 37.803 21.1226 37.8521 21.0551C37.9089 20.9769 37.9817 20.8825 38.0302 20.8393C38.1406 20.741 38.3123 20.6446 38.4734 20.6265C38.6048 20.6119 38.7165 20.7035 38.7905 20.8238C38.8645 20.9442 38.9006 21.0935 38.8802 21.1936Z" fill="white"/>
<path d="M38.7913 20.8774C38.7913 21.0037 38.7688 21.1219 38.729 21.2241C38.4672 21.2618 38.1343 21.2421 37.8901 21.2019C37.8737 21.1559 37.8606 21.1067 37.8516 21.0551C37.9084 20.9769 37.9811 20.8825 38.0296 20.8393C38.14 20.741 38.3118 20.6446 38.4729 20.6265C38.6042 20.6119 38.716 20.7035 38.7899 20.8238C38.7908 20.8413 38.7913 20.8594 38.7913 20.8774Z" fill="#260F0E"/>
<path d="M38.2254 21.0243C38.2254 21.0669 38.1977 21.1015 38.1635 21.1015C38.1293 21.1015 38.1016 21.0669 38.1016 21.0243C38.1016 20.9818 38.1293 20.9473 38.1635 20.9473C38.1977 20.9472 38.2254 20.9817 38.2254 21.0243Z" fill="white"/>
<path d="M37.2894 21.6108C37.2369 21.7116 37.3005 22.5189 37.352 22.6746C37.2268 22.7708 36.9204 22.7619 36.7891 22.8533C37.0129 22.8725 37.2605 22.896 37.5637 22.766L37.2894 21.6108Z" fill="#E5804E"/>
<path d="M34.4524 20.434C34.8391 20.3114 35.2855 20.3638 35.6973 20.4119C35.8737 20.4325 36.1709 20.5462 36.2194 20.3298C36.4415 19.3392 34.1559 19.7305 34.4524 20.434Z" fill="#260F0E"/>
<path d="M39.2752 20.4471C38.9371 20.3307 38.5477 20.3778 38.1885 20.4211C38.0347 20.4396 37.7758 20.5448 37.7326 20.3419C37.5346 19.4137 39.5308 19.7897 39.2752 20.4471Z" fill="#260F0E"/>
<path d="M35.668 23.0435C36.1106 23.6978 36.6305 23.9289 36.9193 23.9289C37.0989 23.9289 37.2572 23.8917 37.3941 23.8218C37.6121 23.7103 37.7753 23.5157 37.8818 23.2552C37.8818 23.2552 37.7253 23.3002 37.4607 23.3239C37.0567 23.36 36.4012 23.3462 35.668 23.0435Z" fill="#E5804E"/>
<path d="M35.668 23.0435C36.1106 23.6978 36.6305 23.9289 36.9193 23.9289C37.0989 23.9289 37.2572 23.8917 37.3941 23.8218C37.399 23.6523 37.4256 23.4876 37.4608 23.3239C37.0567 23.36 36.4012 23.3462 35.668 23.0435Z" fill="white"/>
<path d="M32.9447 17.8698C32.4717 19.3037 33.306 20.9798 33.4683 21.8595C33.6398 21.5476 33.8651 21.3562 33.935 20.999C34.0413 20.4533 33.9274 19.8951 34.3199 19.6758C34.8759 19.3658 34.7548 19.3013 34.9552 18.7251C35.039 18.4835 35.5184 18.0813 35.7252 18.1855C36.1546 18.4029 36.6788 18.5325 37.1845 18.6091C38.1751 18.7586 39.0946 18.7042 39.0946 18.7042C39.371 18.6205 40.789 18.2081 40.7572 16.3342C40.4915 16.7404 40.1378 16.9048 39.6641 16.8703C39.8561 16.453 40.184 15.5927 39.9841 15.166C39.8504 16.2073 38.3233 15.7921 37.7084 15.7065C34.2704 15.2292 33.6273 16.3158 33.4386 16.794C33.4075 16.8727 33.3886 16.9351 33.3719 16.971C33.0725 16.7546 32.7524 16.7484 32.4186 16.8253C32.5781 16.9599 32.7343 17.0994 32.8841 17.2461C32.6961 17.3094 32.4709 17.3079 32.3438 17.5137C32.616 17.4295 33.0431 17.5712 32.9447 17.8698Z" fill="#3F1616"/>
<path d="M32.9448 17.8696C32.4718 19.3035 33.3061 20.9796 33.4683 21.8593C33.6399 21.5474 33.8652 21.356 33.935 20.9988C34.0413 20.453 33.9275 19.8949 34.32 19.6756C34.8759 19.3655 34.7549 19.3011 34.9553 18.7249C35.039 18.4833 35.5185 18.0811 35.7253 18.1853C36.1547 18.4027 36.6789 18.5323 37.1846 18.6089C36.8291 18.3484 36.4357 17.9189 36.1692 17.8116C35.6095 17.5868 35.1228 17.6298 34.5843 17.8001C34.6336 17.5762 34.82 17.3911 34.8939 17.1901C34.5641 17.206 34.2839 17.4751 34.037 17.6776C34.0231 17.4614 34.0393 17.2543 33.9663 17.0651C33.8695 17.1411 33.7835 17.2651 33.6896 17.337C33.6342 17.116 33.5476 16.9401 33.4386 16.7938C33.4075 16.8725 33.3886 16.9348 33.3719 16.9708C33.0725 16.7544 32.7524 16.7482 32.4186 16.8251C32.5781 16.9597 32.7343 17.0992 32.8841 17.2459C32.6961 17.3092 32.4709 17.3076 32.3438 17.5135C32.6161 17.4292 33.0432 17.571 32.9448 17.8696Z" fill="#160808"/>
<path d="M33.8312 21.9511C33.8167 21.6985 33.7457 21.3732 33.7457 21.3732C33.6308 20.8147 32.999 20.3921 32.6954 20.7032C32.3906 21.0155 32.3957 21.5783 32.5079 21.9197C32.6188 22.2569 32.9889 22.8497 33.442 22.738C33.8289 22.6427 33.8467 22.2217 33.8312 21.9511Z" fill="#FFB278"/>
<path d="M33.5474 21.4294C33.5404 21.3681 33.4036 21.1662 33.3701 21.113C33.1146 20.7068 32.6817 20.8454 32.6602 21.2962C32.8152 20.9014 33.0902 21.2067 33.257 21.4143C33.1153 21.4168 33.0539 21.6941 33.0846 21.8031C33.1386 21.995 33.2982 22.0331 33.4643 22.0594L33.4624 22.0437C33.4335 21.9011 33.2634 21.7185 33.3731 21.533C33.4332 21.4313 33.5604 21.5433 33.5474 21.4294Z" fill="#E5804E"/>
<path d="M29.0156 38.5765C29.018 38.6533 29.0204 38.73 29.0229 38.8065C29.0238 38.838 29.0247 38.8695 29.0256 38.901C29.03 39.0524 29.0336 39.2029 29.0369 39.3525C29.0382 39.4038 29.0393 39.4547 29.0403 39.5058C29.0421 39.6017 29.0438 39.6971 29.0454 39.7918C29.0463 39.8521 29.0472 39.9117 29.0481 39.9717C29.049 40.0329 29.0496 40.0937 29.0502 40.1543C29.0511 40.2274 29.052 40.3 29.0523 40.3723C29.4999 40.3342 29.9541 40.3354 30.4318 40.428C31.5738 40.6496 32.711 40.9857 33.835 41.2207C35.5015 41.5691 37.1714 41.5568 38.6951 41.0019C38.6834 40.6298 38.6696 40.2964 38.6552 40.0256C38.6393 39.7306 38.6273 39.4497 38.6187 39.182C37.0797 39.7576 35.5221 39.7744 33.835 39.4218C32.711 39.1868 31.5738 38.8507 30.4318 38.6291C29.9412 38.534 29.475 38.5352 29.0156 38.5765Z" fill="#A18BBC"/>
<path d="M28.8203 35.3722C28.8737 35.9685 28.916 36.5712 28.9489 37.1705C29.2463 37.1726 29.5488 37.1954 29.8603 37.2497C31.1354 37.4712 32.4052 37.8073 33.6602 38.0424C35.343 38.3575 37.0295 38.3776 38.5952 37.9674C38.5987 37.2382 38.6308 36.6278 38.6815 36.104C37.067 36.5798 35.4273 36.5741 33.6602 36.2434C32.4052 36.0084 31.1354 35.6722 29.8603 35.4507C29.5038 35.389 29.1591 35.3677 28.8203 35.3722Z" fill="#A18BBC"/>
<g opacity="0.4">
<path d="M28.4277 32.3137C28.5995 33.2752 28.7281 34.3135 28.8223 35.3721C28.8756 35.9685 28.9179 36.5711 28.9509 37.1704C28.977 37.643 28.9973 38.1131 29.0126 38.5763C29.015 38.653 29.0174 38.7297 29.0199 38.8062C29.0208 38.8377 29.0217 38.8692 29.0225 38.9007C29.027 39.0521 29.0306 39.2026 29.0339 39.3522C29.0352 39.4035 29.0363 39.4545 29.0373 39.5055C29.039 39.6014 29.0408 39.6968 29.0424 39.7915C29.0433 39.8518 29.0442 39.9115 29.0451 39.9714C29.046 40.0326 29.0466 40.0934 29.0472 40.154C29.0481 40.2271 29.049 40.2997 29.0493 40.372C29.0499 40.4244 29.0502 40.4769 29.0505 40.5294C29.0508 40.5708 29.0511 40.6118 29.0511 40.6529C29.0523 40.852 29.0523 41.0477 29.0516 41.2399C29.0513 41.3095 29.0511 41.3784 29.0504 41.4471C29.0504 41.457 29.0504 41.4668 29.0502 41.4765C29.0502 41.5145 29.0499 41.5526 29.0495 41.59C29.0489 41.6392 29.0486 41.6884 29.048 41.737C29.0459 41.9697 29.0423 42.1957 29.0382 42.4142C29.0366 42.4928 29.0352 42.5705 29.0334 42.6472C29.033 42.6613 29.0328 42.6757 29.0322 42.6897C29.0303 42.7716 29.0282 42.8519 29.0262 42.9314C29.024 43.0069 29.022 43.0813 29.0199 43.1545C29.0187 43.1961 29.0172 43.2372 29.016 43.278C29.004 43.6486 28.9896 43.9885 28.9737 44.2911C28.9725 44.3121 28.9715 44.3328 28.9704 44.3534C28.9614 44.5189 28.9524 44.6724 28.9428 44.8134C28.9392 44.8662 28.9356 44.9168 28.932 44.966C28.926 45.0481 28.9201 45.1249 28.914 45.1965C28.9131 45.2049 28.9126 45.2133 28.912 45.2217C28.911 45.2301 28.9105 45.2385 28.9099 45.2469C28.9072 45.2766 28.9046 45.3051 28.9018 45.3327C28.9001 45.354 28.8979 45.3747 28.8958 45.3948C28.8934 45.4191 28.891 45.4424 28.8887 45.4646C28.8839 45.5093 28.8791 45.5503 28.8743 45.5876C28.8725 45.602 28.8707 45.616 28.8689 45.6292C28.8683 45.6344 28.8677 45.6392 28.8668 45.644C28.8659 45.6512 28.8647 45.6581 28.8639 45.665C28.8615 45.6808 28.8594 45.6956 28.857 45.7094C28.8696 45.7147 28.8822 45.7202 28.8948 45.725C28.9043 45.7289 28.9139 45.7325 28.9233 45.736C28.9455 45.7448 28.9677 45.7525 28.9899 45.7597C28.9998 45.763 29.01 45.7664 29.0198 45.7694C29.0279 45.7723 29.036 45.7747 29.044 45.7769C29.0546 45.7802 29.0648 45.7832 29.0753 45.7859C29.0897 45.7897 29.1037 45.7936 29.1181 45.7972C29.1322 45.8008 29.1466 45.8041 29.161 45.8075C29.1727 45.8102 29.1844 45.8129 29.1964 45.8153C29.215 45.8189 29.2335 45.8225 29.2522 45.8257C29.2627 45.8276 29.2729 45.8294 29.2834 45.8309C29.2875 45.8318 29.2915 45.8324 29.2953 45.833C29.3067 45.8348 29.3178 45.8362 29.3289 45.8378C29.3763 45.8441 29.4236 45.8489 29.4707 45.8524C29.4869 45.8536 29.5031 45.8548 29.519 45.8554C29.5469 45.8569 29.5747 45.8581 29.6023 45.8587C29.6125 45.859 29.623 45.8593 29.6332 45.8593C30.3069 45.8683 30.9669 45.6566 31.4936 45.9576C35.6911 48.3562 37.5706 47.0079 38.5694 46.4373C38.5711 46.4297 38.573 46.4223 38.5747 46.4145C38.5786 46.3987 38.5819 46.3824 38.5855 46.365C38.6105 46.243 38.6318 46.0832 38.6494 45.8937C38.6512 45.8739 38.653 45.8535 38.6547 45.8331C38.659 45.7858 38.6629 45.7369 38.6668 45.6862C38.668 45.6679 38.6695 45.6496 38.6707 45.631C38.6743 45.5773 38.6779 45.5219 38.6812 45.465C38.6829 45.4332 38.6851 45.4008 38.6866 45.3681C38.6893 45.3189 38.6921 45.2689 38.6942 45.2179C38.6957 45.1906 38.6968 45.163 38.6981 45.1352C38.7007 45.0683 38.7035 44.9999 38.7059 44.9304C38.7071 44.9025 38.7079 44.8747 38.7089 44.8461C38.7089 44.8431 38.7089 44.8401 38.7092 44.8371C38.7101 44.8032 38.7113 44.7691 38.7122 44.7349C38.7134 44.6974 38.7143 44.6599 38.7151 44.6219C38.7157 44.6026 38.716 44.5838 38.7167 44.5646C38.7176 44.5289 38.7182 44.4932 38.7191 44.4572C38.7196 44.4276 38.7203 44.3979 38.7208 44.3679C38.7212 44.3485 38.7217 44.3287 38.722 44.3089C38.7226 44.2783 38.7229 44.2474 38.7235 44.2163V44.213C38.7232 44.1896 38.7235 44.1665 38.7244 44.1437C38.7247 44.132 38.7247 44.1203 38.725 44.1083C38.7259 44.0429 38.7265 43.977 38.7271 43.9104C38.7273 43.89 38.7276 43.8697 38.7276 43.849C38.7282 43.7671 38.7288 43.6847 38.7292 43.6016C38.7295 43.581 38.7295 43.5602 38.7295 43.5392C38.731 43.0058 38.7256 42.4557 38.7157 41.9361C38.612 42.0206 38.5046 42.101 38.3925 42.1759C37.0274 43.0894 34.4469 43.5644 33.0831 42.4512C31.9191 41.5014 31.2708 39.9443 30.8931 38.4967C30.0836 35.3937 31.7935 33.545 30.7141 30.307C30.3381 29.1792 28.6082 30.3502 28.2822 29.019C28.1473 29.6735 28.1249 30.617 28.4277 32.3137Z" fill="#3B3348"/>
</g>
<path d="M28.8828 45.3023L29.8531 44.9131C30.4513 46.0374 32.2702 47.0967 31.1681 47.6621C30.6646 47.9205 29.966 48.0671 29.6686 47.7997C29.1524 47.3357 28.9181 45.9758 28.8828 45.3023Z" fill="#FFB278"/>
<path d="M25.5407 37.7426C26.2816 37.612 27.4426 38.3852 27.7489 38.96C28.7955 40.9234 28.9924 43.5723 30.19 45.4276L29.1288 46.1863C27.5305 44.3566 25.7721 42.0803 25.0265 39.7667C24.8233 39.1367 24.6385 37.9017 25.5407 37.7426Z" fill="#FFB278"/>
<path d="M25.593 34.0882C25.8172 33.1969 26.1189 32.6133 26.4649 31.7615C26.7166 31.1416 26.9585 30.0748 27.5021 29.6538L29.6402 32.7712C29.2585 33.2028 27.3809 39.2604 26.8307 39.6683C26.2181 40.1225 25.5352 40.569 25.1327 40C24.3263 38.8593 25.2791 35.3369 25.593 34.0882Z" fill="#FFB278"/>
<path d="M31.0653 45.8425C31.3409 46.0268 31.6633 46.335 32.0326 46.4053C32.5714 46.508 32.2747 46.9506 31.8216 46.9506C31.505 46.9506 30.8714 46.5148 30.7838 46.5461L29.8867 45.479C30.1803 45.6052 30.7729 45.6471 31.0653 45.8425Z" fill="#FFB278"/>
<path d="M30.4434 49.3768C30.7636 48.8288 30.8196 48.2541 30.601 47.7585C30.374 47.2437 29.8708 46.8686 29.2206 46.7292C27.8245 46.4301 27.5829 47.07 27.2771 47.8802C27.2168 48.0397 27.1545 48.2045 27.0781 48.3807L27.5181 48.5717C27.5992 48.3849 27.6665 48.2067 27.7259 48.0496C28.0183 47.2752 28.1277 46.9855 29.1201 47.1982C29.6181 47.3049 29.9979 47.5797 30.1621 47.952C30.317 48.3031 30.2697 48.7231 30.0293 49.1346L30.4434 49.3768Z" fill="#68300B"/>
<path d="M23.0549 55.8256C25.1327 57.1445 27.6763 58.1884 30.115 58.0296L32.0939 49.2149C31.7362 49.0362 31.147 48.8449 30.4581 48.6675C30.2438 48.6123 30.0195 48.5584 29.7898 48.5068C29.0073 48.3305 28.1588 48.1788 27.4015 48.0831C27.1464 48.051 26.8989 48.0467 26.6736 48.0067C26.2787 47.9365 25.7391 48.0565 25.4992 48.2963C24.3509 49.9062 22.8693 54.4015 23.0549 55.8256Z" fill="#68300B"/>
<path d="M30.6692 50.275C31.1881 49.2853 32.19 48.4812 32.6195 50.0351C32.9549 51.2489 32.1045 56.9311 31.4321 58.0703C31.4321 58.0703 29.6348 58.4114 29.2735 57.8904C28.4877 56.7575 30.1091 51.3433 30.6692 50.275Z" fill="#AD4B14"/>
<path d="M27.8242 53.422L28.4508 53.4844C28.5612 52.3753 28.783 51.535 29.2168 50.584C29.5376 49.8809 29.9148 49.3835 30.3519 48.8079C30.387 48.7617 30.4223 48.7149 30.4581 48.6675C30.2437 48.6123 30.0194 48.5584 29.7897 48.5068C29.3715 49.0588 28.9776 49.5913 28.6439 50.3228C28.1855 51.3277 27.9405 52.2545 27.8242 53.422Z" fill="#AD4B14"/>
<path d="M25.0078 52.5227L25.6344 52.5851C25.7448 51.476 25.9666 50.6356 26.4005 49.6846C26.6883 49.0535 27.0216 48.5882 27.4033 48.0833C27.1482 48.0511 26.9036 48.0251 26.6754 48.0068C26.3687 48.4281 26.0809 48.8685 25.8275 49.4235C25.3691 50.4285 25.1241 51.3553 25.0078 52.5227Z" fill="#AD4B14"/>
<path d="M31.0123 51.1022C30.9198 51.4202 31.1026 51.753 31.4206 51.8454L31.4782 51.8621C31.7962 51.9546 32.129 51.7718 32.2215 51.4538L32.4558 50.6477C32.5484 50.3297 32.3655 49.997 32.0475 49.9045L31.9899 49.8878C31.6719 49.7953 31.3391 49.9782 31.2467 50.2961L31.0123 51.1022Z" fill="#441E08"/>
<path d="M31.2773 50.6432C32.456 48.7852 33.5043 46.4347 34.4706 43.4846C35.5425 40.212 36.373 36.6816 36.9391 32.9916L36.9508 32.9153C37.1516 31.6072 37.3413 30.3717 37.3413 29.0647C37.3413 28.8721 37.2975 28.3574 37.2033 27.8641C37.043 27.0247 36.6816 26.1698 36.6816 26.1698C36.8902 26.0829 37.1089 26.1042 37.2974 26.2299C37.486 26.3556 37.7604 26.6441 37.964 27.6924C38.0782 28.2802 38.1207 28.8461 38.1207 29.0647C38.1207 30.4311 37.9267 31.6953 37.7213 33.0336L37.7096 33.1098C37.137 36.8419 36.2966 40.4142 35.2113 43.7273C34.2435 46.6819 33.1902 49.0555 32.0044 50.9513C31.7633 50.8458 31.5213 50.7415 31.2773 50.6432Z" fill="#68300B"/>
<path d="M27.7451 29.0675C28.3114 28.0994 29.8987 25.8575 30.9315 27.6592C31.3215 28.3394 31.2703 29.5182 31.1221 30.25C30.8896 31.3983 30.6021 32.6695 30.0535 33.7368L29.13 36.1008C28.1163 35.8905 26.2639 35.3285 25.3164 34.8566C25.8678 32.8623 26.7436 30.78 27.7451 29.0675Z" fill="#3B3348"/>
<path d="M43.0878 40.1557C42.8693 40.7827 42.0209 40.8297 41.6487 40.7638C41.1581 40.6771 40.6344 40.3 40.2695 39.6582L43.0878 40.1557Z" fill="#FFB278"/>
<path d="M31.5234 39.9018C31.5234 40.1148 31.6961 40.2875 31.9092 40.2875H46.7862C46.9993 40.2875 47.1719 40.1148 47.1719 39.9018C47.1719 39.6888 46.9993 39.5161 46.7862 39.5161H31.9092C31.6961 39.5161 31.5234 39.6887 31.5234 39.9018Z" fill="#BABABA"/>
<path d="M38.5873 32.5951L37.2509 39.4392C37.2014 39.693 37.3668 39.8985 37.6206 39.8985H46.8074C47.0611 39.8985 47.3107 39.693 47.365 39.4392L48.8287 32.5951C48.8829 32.3413 48.7184 32.1357 48.461 32.1357H39.1429C38.8856 32.1357 38.6369 32.3413 38.5873 32.5951Z" fill="#BABABA"/>
<path d="M39.0541 32.5951L37.712 39.4392C37.6622 39.693 37.8274 39.8985 38.0812 39.8985H46.8086C47.0624 39.8985 47.3119 39.693 47.3662 39.4392L48.8299 32.5951C48.8841 32.3413 48.7196 32.1357 48.4622 32.1357H39.6101C39.3527 32.1357 39.1039 32.3413 39.0541 32.5951Z" fill="#E2E2E2"/>
<path d="M42.8457 34.9838C42.7784 35.3136 43.066 35.5809 43.4879 35.5809C43.9097 35.5809 44.3071 35.3136 44.3752 34.9838C44.4434 34.654 44.1559 34.3867 43.733 34.3867C43.3102 34.3867 42.9129 34.6541 42.8457 34.9838Z" fill="#BABABA"/>
<path d="M42.3507 39.7583C42.1547 39.344 42.3433 38.5263 42.9328 39.1866C43.4871 39.8074 42.7653 40.5148 42.5646 40.6392C42.2571 40.8297 41.2303 40.6806 42.3507 39.7583Z" fill="#FFB278"/>
<path d="M43.0809 39.6607C42.9145 39.1859 43.0737 38.2487 43.5738 39.0059C44.0441 39.718 43.4329 40.5281 43.2628 40.6705C43.0024 40.8887 42.132 40.7171 43.0809 39.6607Z" fill="#FFB278"/>
<path d="M43.6434 39.7028C43.4769 39.2279 43.6362 38.2907 44.1363 39.048C44.6066 39.76 43.9954 40.5701 43.8253 40.7126C43.5649 40.9308 42.6945 40.759 43.6434 39.7028Z" fill="#FFB278"/>
<path d="M44.2136 39.7013C44.0473 39.2264 44.2065 38.2892 44.7067 39.0465C45.177 39.7585 44.5657 40.5686 44.3957 40.7111C44.1353 40.9293 43.2649 40.7575 44.2136 39.7013Z" fill="#FFB278"/>
</g>
<defs>
<clipPath id="clip0_2370_36375">
<rect width="74" height="51" fill="white" transform="translate(0.5 6.5)"/>
</clipPath>
</defs>
</svg>
