<svg width="68" height="69" viewBox="0 0 68 69" fill="none" xmlns="http://www.w3.org/2000/svg">
<g clip-path="url(#clip0_2370_36670)">
<path d="M31.9067 35.6963C31.9067 35.6963 34.432 40.4347 34.6691 40.5897C34.9065 40.7447 39.2009 42.2499 39.2009 42.2499V41.2452C39.2009 41.2452 35.9132 39.0606 35.8831 38.7988C35.8533 38.5366 33.5615 33.4175 33.5615 33.4175L31.9062 35.6968L31.9067 35.6963Z" fill="#F4A27A"/>
<path d="M29.8438 27.8003C29.8438 27.8003 31.4714 28.1381 32.5781 29.3394C33.2931 30.1161 34.2993 35.6246 34.2993 35.6246C34.2993 35.6246 33.6895 37.0581 32.0313 36.9791L30.3036 33.6349L29.8438 27.8003Z" fill="#F26B6A"/>
<path d="M32.6253 33.9662C32.5085 32.6607 30.3882 29.6025 30.3882 29.6025L29.9922 30.773L30.3007 33.6349L32.0284 36.9792C32.3801 36.9961 32.6839 36.9445 32.9455 36.8529C32.908 36.5568 32.7296 35.1302 32.6257 33.9662H32.6253Z" fill="#E55A58"/>
<path d="M36.5995 24.9833C36.5995 24.9833 35.4967 25.2022 35.0631 25.6841C34.6296 26.1655 32.3167 32.7733 31.9047 33.6338C31.4927 34.4947 29.8426 36.1215 29.8426 36.1215L29.1367 39.7371C29.1367 39.7371 32.4464 37.7604 33.4005 37.2199C34.3547 36.6789 36.2711 32.6248 36.896 31.8338C37.5204 31.0428 36.5995 24.9829 36.5995 24.9829V24.9833Z" fill="#0E3251"/>
<path d="M37.0834 31.1348L36.6465 30.4462C36.6465 30.4462 36.2142 30.388 35.5518 31.6987C34.8895 33.0094 34.109 36.6211 33.3863 36.8543C32.6942 37.0774 30.2934 37.4873 29.4496 38.135L29.1367 39.7375C29.1367 39.7375 32.4464 37.7608 33.4005 37.2203C34.3547 36.6793 36.2711 32.6252 36.896 31.8342C36.9921 31.7122 37.0515 31.4651 37.0834 31.1348Z" fill="#00263F"/>
<path d="M50.4791 51.0767C50.4791 51.0767 49.993 51.4358 49.9465 51.3937C49.8999 51.3515 49.828 50.9026 50.2417 50.699C50.2417 50.699 50.2817 50.4242 50.374 49.9914L50.171 48.9815L50.4317 48.9155L51.1036 49.8272L50.4796 51.0767H50.4791Z" fill="#C77350"/>
<path d="M50.2614 51.6629C50.2614 51.6629 49.9865 51.7862 49.9296 51.7758C49.8718 51.7654 49.6628 51.484 50.4226 50.9496C50.4226 50.9496 50.5265 50.2332 50.5411 49.9571C50.5411 49.9571 50.3002 49.4405 49.9042 48.7406C49.8003 48.557 50.1576 48.4775 50.1576 48.4775L50.9337 50.0657L50.6027 51.5062L50.2619 51.6629H50.2614Z" fill="#DF8A64"/>
<path d="M49.7924 46.5142C49.7924 46.5142 49.6382 47.2331 49.458 47.6199C49.458 47.6199 49.2309 48.0771 49.1947 48.4835C49.1585 48.8898 49.0435 49.9483 49.1025 50.1997C49.1615 50.4506 49.3529 50.9282 49.3529 50.9282C49.3529 50.9282 49.7511 50.7892 49.6683 50.1723C49.586 49.5554 49.8804 49.1946 50.073 48.8408C50.073 48.8408 50.6673 49.6288 50.7367 50.2301C50.7367 50.2301 50.6281 50.8952 50.5535 51.2121C50.5535 51.2121 49.711 51.8021 50.0148 52.2328C50.0148 52.2328 50.825 51.6888 51.1521 51.5073C51.3913 51.3745 51.4921 49.4638 51.5033 49.2606C51.5141 49.057 51.2266 46.7638 51.1926 46.591L49.7924 46.5146V46.5142Z" fill="#F4A27A"/>
<path d="M47.6864 25.1762C47.6864 25.1762 49.1331 25.7128 49.6895 26.5025C50.3118 27.386 50.5139 32.4608 50.6846 33.6956C50.8552 34.9303 51.0009 35.1782 50.8169 36.5119C50.8169 36.5119 51.2405 37.1814 51.1922 37.622C51.144 38.0631 51.1758 38.3501 51.1858 39.0803C51.1965 39.8727 51.4659 44.4265 51.3556 45.3482C51.2681 46.0802 49.4025 45.5262 49.4025 45.5262C49.4025 45.5262 48.9728 42.1524 48.7095 40.4349C48.5147 39.1654 48.2208 37.4284 48.1243 36.7715C48.0282 36.1147 47.146 32.4604 46.6875 32.4496L47.686 25.1758L47.6864 25.1762Z" fill="#0E3251"/>
<path d="M51.3564 45.3487C51.3599 45.3209 51.3629 45.2897 51.3655 45.2554C51.0371 45.2458 50.7052 44.6337 50.4251 44.5108C50.1222 44.3775 49.9011 44.9488 49.5787 45.0187C49.2564 45.0886 49.9558 43.9312 50.0274 43.6724C50.0989 43.4137 49.5451 42.9461 49.4279 42.6188C49.3107 42.2918 49.1581 41.5251 49.1663 41.3793C49.1741 41.2338 50.4514 42.7911 50.5311 42.5328C50.6113 42.2745 49.387 41.0411 49.1551 40.5031C48.9233 39.9657 48.7315 39.2263 48.953 39.1508C49.1745 39.0752 50.9634 41.3311 51.0336 41.1018C51.1039 40.8722 48.7974 38.5299 48.7974 38.5299C48.7974 38.5299 49.4038 37.4836 49.5042 37.2266C49.605 36.9696 48.4087 36.0583 48.2786 35.7887C48.148 35.5191 48.5712 34.1129 48.7686 33.1317C48.9664 32.1505 47.149 29.8643 47.149 29.8643C47.0478 29.8877 47.0585 30.2372 46.981 30.3123L46.6875 32.4496C47.146 32.4605 48.0282 36.1147 48.1243 36.7716C48.2208 37.4289 48.5147 39.1655 48.7095 40.435C48.9728 42.1525 49.4025 45.5263 49.4025 45.5263C49.4025 45.5263 51.2681 46.0802 51.3556 45.3483L51.3564 45.3487Z" fill="#00263F"/>
<path d="M37.0023 77.1425C37.0023 77.1425 37.7194 77.9336 39.5186 77.3748L41.5566 51.6526C41.6018 51.6518 42.2383 51.6518 42.284 51.6526L44.322 77.3748C46.1212 77.9336 46.8383 77.1425 46.8383 77.1425C46.8383 77.1425 47.5748 54.149 47.4951 50.5377C47.4399 48.0457 47.2438 44.3402 47.2438 44.3402L41.9203 44.6754L36.7778 44.1006C36.7778 44.1006 36.4011 48.0462 36.346 50.5382C36.3024 52.4953 36.4989 60.1477 36.6886 66.7459C36.6886 66.7459 36.7851 72.3387 36.633 72.7316C36.633 72.7316 36.4593 72.9282 36.6114 73.2777C36.7631 73.6272 36.7851 73.955 36.7851 73.955C36.7851 73.955 36.405 74.3922 36.5033 74.6323C36.6011 74.8728 36.8502 75.1997 36.8502 75.1997C36.8502 75.1997 36.4817 75.4185 36.5033 75.6152C36.5248 75.8119 36.8717 76.2052 36.8286 76.3359C36.7855 76.467 36.5386 76.859 37.0032 77.1425H37.0023Z" fill="#523932"/>
<path d="M37.0023 77.1425C37.0023 77.1425 37.7194 77.9336 39.5186 77.3748L41.5566 51.6526C41.6018 51.6518 42.2383 51.6518 42.284 51.6526L44.322 77.3748C46.1212 77.9336 47.1094 77.0062 47.1094 77.0062C47.1094 77.0062 47.5748 54.149 47.4951 50.5377C47.4399 48.0457 47.2438 44.3402 47.2438 44.3402L41.9203 44.6754L36.7778 44.1006C36.7778 44.1006 36.4011 48.0462 36.346 50.5382C36.3024 52.4953 36.4989 60.1477 36.6886 66.7459C36.6886 66.7459 36.7851 72.3387 36.633 72.7316C36.633 72.7316 36.4593 72.9282 36.6114 73.2777C36.7631 73.6272 36.7851 73.955 36.7851 73.955C36.7851 73.955 36.405 74.3922 36.5033 74.6323C36.6011 74.8728 36.8502 75.1997 36.8502 75.1997C36.8502 75.1997 36.4817 75.4185 36.5033 75.6152C36.5248 75.8119 36.8717 76.2052 36.8286 76.3359C36.7855 76.467 36.5386 76.859 37.0032 77.1425H37.0023Z" fill="#0E3251"/>
<path opacity="0.6" d="M47.3856 47.3584C47.3714 47.0367 47.327 46.0399 47.3141 45.7651C45.6385 46.0377 39.6229 46.8921 36.6403 45.6626C36.6248 45.8532 36.6084 46.0572 36.5916 46.2695C36.5894 46.2956 36.5873 46.3221 36.5856 46.3486C36.5826 46.3837 36.58 46.4189 36.5769 46.4549C36.5731 46.5049 36.5692 46.5556 36.5653 46.606C36.5636 46.6295 36.5619 46.6525 36.5601 46.6755C36.5601 46.6755 36.5601 46.6755 36.5601 46.6759C36.4658 47.9176 36.371 49.3833 36.346 50.5377C36.3024 52.4948 36.4989 60.1472 36.6886 66.7454C36.6886 66.7454 36.7851 72.3382 36.633 72.7311C36.633 72.7311 36.4593 72.9277 36.6114 73.2772C36.7631 73.6267 36.7851 73.9545 36.7851 73.9545C36.7851 73.9545 36.405 74.3917 36.5033 74.6318C36.6011 74.8723 36.8502 75.1992 36.8502 75.1992C36.8502 75.1992 36.4817 75.418 36.5033 75.6147C36.5248 75.8114 36.8717 76.2047 36.8286 76.3354C36.7993 76.4244 36.6769 76.6332 36.7455 76.8468C37.2518 76.8607 37.6914 77.0943 38.0646 76.9693C38.5847 76.7947 36.8286 76.3354 37.1859 75.8769C37.5431 75.418 38.368 76.2264 38.4981 75.8769C38.6283 75.5274 37.2837 74.7408 36.8989 74.4351C36.514 74.129 37.1536 73.6923 37.472 73.2994C37.7909 72.906 37.1536 70.3285 36.8989 69.5418C36.6442 68.7555 37.11 66.7897 37.4436 66.3091C37.7771 65.8285 36.9803 65.3045 36.8989 64.7362C36.8174 64.1679 37.3703 63.3816 37.472 62.5515C37.5742 61.7214 36.9364 59.9301 36.6489 59.5806C36.361 59.2311 36.9364 54.6873 37.1855 54.2505C37.4341 53.8138 36.9799 53.2021 36.8989 52.4597C36.8174 51.7168 38.1077 49.8383 38.2814 48.8909C38.4016 48.2345 43.4204 50.3223 47.386 47.358L47.3856 47.3584Z" fill="#002037"/>
<path opacity="0.6" d="M44.87 76.096C44.48 75.79 44.6097 75.4843 45.0001 74.217C45.3906 72.9502 45.2173 71.7706 45.0001 71.4649C44.7833 71.1593 43.5569 67.756 44.0516 67.664C44.5463 67.5723 45.8676 69.9797 46.3623 69.7175C46.8566 69.4553 43.422 66.0489 44.0516 65.8726C44.6816 65.6968 45.7375 68.0139 46.0753 67.7078C46.4132 67.4022 44.133 64.8246 43.8727 64.0813C43.6125 63.3385 44.523 63.5135 44.6252 63.0333C44.7269 62.5527 43.9594 60.9359 43.5538 59.7563C43.1483 58.5772 44.87 56.9604 44.8269 55.562C44.7838 54.164 42.2812 51.6533 42.2812 51.6533L44.1654 77.385C45.3358 77.7489 46.2016 77.5309 46.5567 77.3416C46.5938 77.24 46.6123 77.1289 46.605 77.0069C46.5804 76.591 45.2608 76.4021 44.8704 76.0965L44.87 76.096Z" fill="#002037"/>
<path d="M47.3296 46.1042C47.2818 45.0722 47.243 44.3402 47.243 44.3402L41.9195 44.6754L36.777 44.1006C36.777 44.1006 36.6946 44.9624 36.6016 46.135C38.1353 46.5249 42.6719 47.4431 47.3296 46.1046V46.1042Z" fill="#000814"/>
<path d="M47.7672 25.5541C47.7198 25.3344 47.6693 25.1998 47.6241 25.1751C47.306 25.0005 43.7214 23.9521 43.7214 23.9521C43.5189 23.6026 43.5055 21.7969 43.5055 21.7969L41.9799 21.2226V21.2139L41.9687 21.2182L41.9575 21.2139V21.2226L40.432 21.7969C40.432 21.7969 40.4186 23.6026 40.2165 23.9521C40.2165 23.9521 36.884 24.9337 36.5659 25.1086C36.5207 25.1334 36.4181 25.3453 36.375 25.5654L41.9252 25.8749L47.7672 25.5541Z" fill="#E98E66"/>
<path d="M42.6886 23.6893C43.0368 23.6212 43.3458 23.431 43.5776 23.2474C43.513 22.607 43.5065 21.7964 43.5065 21.7964L41.9809 21.2221V21.2134L41.9697 21.2177L41.9585 21.2134V21.2221L40.433 21.7964C40.433 21.7964 40.43 22.1907 40.4062 22.6461C40.9212 23.0125 42.1137 23.8014 42.6881 23.6889L42.6886 23.6893Z" fill="#C66A42"/>
<path d="M45.679 17.2363C45.679 17.2363 46.066 16.552 46.6685 16.5425C47.0262 16.5369 46.9206 18.0169 46.5521 18.3994C46.1833 18.7814 45.6467 18.6542 45.5273 18.3156L45.6795 17.2363H45.679Z" fill="#F4A27A"/>
<path opacity="0.4" d="M45.7617 18.2669C45.7617 18.2669 46.2116 18.4263 46.4056 18.0481C46.5995 17.6709 46.7882 17.2167 46.6378 16.8833C46.6378 16.8833 46.2228 16.9806 45.8393 17.7607C45.8393 17.7607 46.1207 18.1124 45.7617 18.2665V18.2669Z" fill="#CF6244"/>
<path d="M46.6996 17.3588C46.6953 17.2876 46.6918 17.216 46.6836 17.1456C46.6746 17.0757 46.666 17.0037 46.644 16.942C46.6375 16.9268 46.6302 16.9147 46.6229 16.9064C46.6138 16.9051 46.6186 16.9003 46.6044 16.9086C46.5716 16.9242 46.5423 16.9424 46.5164 16.9633C46.4634 17.0006 46.407 17.0471 46.3557 17.0927C46.251 17.1856 46.1579 17.2911 46.0721 17.4005C46.0256 17.453 45.9937 17.5151 45.9532 17.572C45.9325 17.6002 45.9209 17.6332 45.9045 17.664L45.8584 17.7573L45.8528 17.7226C45.8898 17.7721 45.9174 17.8233 45.939 17.8798C45.9597 17.9358 45.9726 17.997 45.9644 18.0587C45.9575 18.1207 45.9204 18.1772 45.8735 18.2115C45.8278 18.2497 45.7726 18.2688 45.7188 18.2844C45.7692 18.2592 45.82 18.2332 45.8575 18.1937C45.8976 18.1563 45.9196 18.1055 45.9222 18.0539C45.9269 17.9497 45.8679 17.8464 45.8015 17.7669L45.7877 17.7504L45.7959 17.7326L45.842 17.6332C45.8584 17.6006 45.8704 17.565 45.8911 17.5351C45.9312 17.4747 45.9644 17.4083 46.0109 17.3527C46.0967 17.2355 46.2001 17.1326 46.3092 17.038C46.3354 17.0132 46.3656 16.9924 46.3936 16.9698C46.4216 16.9472 46.4514 16.9255 46.4845 16.9068C46.5169 16.8856 46.5492 16.8691 46.5815 16.8561C46.5979 16.8435 46.6427 16.8465 46.6604 16.8682C46.6759 16.8873 46.6841 16.9068 46.6905 16.9255C46.7117 16.9998 46.7134 17.0723 46.713 17.1443C46.7121 17.2164 46.7086 17.2876 46.7 17.3592L46.6996 17.3588Z" fill="#91554A"/>
<path d="M46.5719 17.426C46.5719 17.426 46.5448 17.3996 46.5034 17.3735C46.4806 17.3626 46.4573 17.3492 46.4284 17.3427C46.4021 17.3305 46.3707 17.3288 46.3392 17.3275C46.3091 17.3179 46.2754 17.3275 46.2453 17.3266C46.2147 17.3257 46.1854 17.3297 46.1599 17.334C46.1087 17.3401 46.0703 17.3388 46.0703 17.3388C46.0703 17.3388 46.0988 17.3162 46.1479 17.2906C46.1724 17.2793 46.2005 17.2602 46.2362 17.2571C46.2711 17.2545 46.3073 17.2398 46.3466 17.2472C46.3853 17.2528 46.4228 17.2598 46.456 17.278C46.4913 17.2901 46.5129 17.321 46.534 17.3392C46.5694 17.387 46.5724 17.4252 46.5724 17.4252L46.5719 17.426Z" fill="#91554A"/>
<path d="M42.4994 22.7854C42.4994 22.7854 44.3211 21.9046 44.9481 20.9138C45.4635 20.2192 45.8884 16.6774 45.9475 16.1273C45.9496 16.1091 45.9518 16.0908 45.9535 16.0726C45.9552 16.0552 45.9561 16.0457 45.9561 16.0457H45.9552C45.9651 15.9324 45.9712 15.8177 45.9712 15.7014C45.9712 13.5806 44.2646 11.8613 42.1594 11.8613C40.0542 11.8613 38.3477 13.5806 38.3477 15.7014C38.3477 15.8395 38.355 15.9753 38.3692 16.1095C38.3692 16.1095 38.8062 20.1532 39.3712 20.9138C40.0348 22.0487 41.8198 22.7854 41.8198 22.7854C41.8198 22.7854 42.1422 22.9044 42.4994 22.7854Z" fill="#F4A27A"/>
<path d="M40.2216 13.5568C40.2216 13.5568 39.4248 13.7586 39.3489 13.8407C39.2731 13.9227 40.0376 12.4427 41.0835 13.3327L40.2216 13.5568Z" fill="black"/>
<path d="M38.6003 17.3979C38.6003 17.3979 38.2133 16.7137 37.6109 16.7041C37.2532 16.6985 37.3592 18.1785 37.7276 18.561C38.0961 18.9435 38.6326 18.8158 38.752 18.4772L38.6003 17.3979Z" fill="#F4A27A"/>
<path opacity="0.4" d="M38.5165 18.4291C38.5165 18.4291 38.067 18.5879 37.8727 18.2102C37.6787 17.8325 37.49 17.3788 37.6404 17.0454C37.6404 17.0454 38.0549 17.1431 38.4389 17.9228C38.4389 17.9228 38.1579 18.2741 38.5165 18.4286V18.4291Z" fill="#CF6244"/>
<path d="M37.5832 17.5204C37.5746 17.4492 37.5707 17.3775 37.5703 17.3055C37.5703 17.2334 37.572 17.1613 37.5927 17.0866C37.5983 17.068 37.6069 17.0484 37.6229 17.0293C37.6406 17.0076 37.6854 17.0046 37.7018 17.0172C37.7341 17.0302 37.7664 17.0463 37.7987 17.0675C37.8319 17.0866 37.8621 17.1084 37.8896 17.1309C37.9181 17.1535 37.9483 17.1739 37.9741 17.1991C38.0831 17.2937 38.1866 17.3966 38.2723 17.5139C38.3193 17.5694 38.3521 17.6359 38.3921 17.6962C38.4128 17.7262 38.4245 17.7618 38.4413 17.7939L38.4874 17.8933L38.4956 17.9111L38.4818 17.928C38.4154 18.0079 38.3564 18.1108 38.3611 18.215C38.3633 18.2667 38.3857 18.3175 38.4257 18.3548C38.4632 18.3947 38.5141 18.4204 38.5649 18.446C38.5106 18.4299 38.4555 18.4108 38.4098 18.3726C38.3628 18.3383 38.3258 18.2819 38.3189 18.2198C38.3103 18.1581 38.3236 18.0965 38.3443 18.0409C38.3658 17.9845 38.3934 17.9332 38.4305 17.8838L38.4249 17.918L38.3788 17.8247C38.362 17.7943 38.3508 17.7613 38.3301 17.7327C38.29 17.6758 38.2577 17.6133 38.2111 17.5612C38.1254 17.4513 38.0327 17.3463 37.928 17.2534C37.8767 17.2078 37.8203 17.1609 37.7673 17.124C37.7418 17.1031 37.7121 17.0849 37.6793 17.0693C37.6647 17.061 37.6694 17.0658 37.6608 17.0671C37.6531 17.0754 37.6457 17.0875 37.6397 17.1027C37.6173 17.1648 37.6091 17.2369 37.5996 17.3063C37.5919 17.3767 37.588 17.4483 37.5837 17.5195L37.5832 17.5204Z" fill="#91554A"/>
<path d="M37.7114 17.5881C37.7114 17.5881 37.7144 17.5494 37.7497 17.5021C37.7708 17.4839 37.7928 17.4531 37.8277 17.4409C37.8609 17.4222 37.8988 17.4153 37.9376 17.4101C37.9768 17.4031 38.013 17.4175 38.0479 17.4205C38.0833 17.4231 38.1113 17.4422 38.1359 17.4535C38.185 17.4791 38.213 17.5017 38.213 17.5017C38.213 17.5017 38.1746 17.5034 38.1234 17.4969C38.0979 17.4926 38.0682 17.4887 38.0376 17.4895C38.0074 17.4904 37.9738 17.4804 37.9437 17.4904C37.9122 17.4917 37.8807 17.4934 37.8544 17.5056C37.8256 17.5117 37.8019 17.5256 37.7795 17.536C37.7381 17.5616 37.7109 17.5885 37.7109 17.5885L37.7114 17.5881Z" fill="#91554A"/>
<path d="M42.6263 18.9336C42.6263 18.9336 42.6263 19.6109 42.4892 19.6834C42.3518 19.7563 42.4966 19.29 42.6263 18.9336Z" fill="#5F221B"/>
<path d="M39.7266 18.5764C39.7266 18.5764 39.7813 18.4905 39.8533 18.4227C39.9231 18.3524 40.0101 18.3003 40.0101 18.3003C40.0101 18.3003 39.9554 18.3863 39.883 18.454C39.8132 18.5243 39.7261 18.5764 39.7266 18.5764Z" fill="#85453E"/>
<path d="M40.0718 18.3579C40.0718 18.3579 40.0218 18.4964 39.9494 18.6223C39.88 18.7499 39.7891 18.8654 39.7891 18.8654C39.7891 18.8654 39.8395 18.7269 39.9119 18.601C39.9808 18.4734 40.0718 18.3579 40.0718 18.3579Z" fill="#85453E"/>
<path d="M40.2436 18.4385C40.2436 18.4385 40.2216 18.5231 40.1776 18.5952C40.1367 18.669 40.0742 18.7298 40.0742 18.7298C40.0742 18.7298 40.0966 18.6451 40.1402 18.5731C40.1811 18.4993 40.2436 18.4385 40.2432 18.4385H40.2436Z" fill="#85453E"/>
<path d="M44.5809 18.7512C44.5809 18.7512 44.4938 18.6991 44.424 18.6287C44.3516 18.561 44.2969 18.4746 44.2969 18.4746C44.2969 18.4746 44.3839 18.5267 44.4537 18.597C44.5257 18.6648 44.5804 18.7507 44.5804 18.7507L44.5809 18.7512Z" fill="#85453E"/>
<path d="M44.2344 18.5332C44.2344 18.5332 44.3253 18.6487 44.3943 18.7763C44.4662 18.9027 44.5166 19.0412 44.5166 19.0412C44.5166 19.0412 44.4257 18.9257 44.3568 18.7976C44.2848 18.6713 44.2344 18.5332 44.2344 18.5332Z" fill="#85453E"/>
<path d="M44.0664 18.6133C44.0664 18.6133 44.1289 18.6741 44.1698 18.7479C44.2138 18.8199 44.2358 18.9046 44.2358 18.9046C44.2358 18.9046 44.1733 18.8438 44.1323 18.77C44.0888 18.6979 44.0664 18.6133 44.0664 18.6133Z" fill="#85453E"/>
<path d="M41.282 16.0357C41.282 16.0357 40.5593 15.2369 39.5505 15.487C39.5505 15.487 39.2208 15.8026 39.2031 15.9628C39.2031 15.9628 39.9952 15.7878 41.2816 16.0357H41.282Z" fill="#231114"/>
<path d="M43.1094 16.0352C43.1094 16.0352 43.9889 15.2932 44.6681 15.4695C44.6681 15.4695 45.0728 15.6054 45.1878 15.9627C45.1878 15.9627 44.3958 15.7877 43.1094 16.0356V16.0352Z" fill="#231114"/>
<path d="M41.8179 22.7854C41.8179 22.7854 42.0696 22.8779 42.3747 22.8179C39.8213 21.9592 38.7422 18.73 38.7422 18.73C38.9124 19.676 39.1292 20.5916 39.3692 20.9142C40.0329 22.0491 41.8179 22.7858 41.8179 22.7858V22.7854Z" fill="#E38A62"/>
<path d="M37.0013 45.2456C37.0013 45.2456 36.8496 46.2915 36.9147 46.3679C36.9793 46.4447 37.2508 46.532 37.3266 46.4881C37.4025 46.4447 37.4676 45.3767 37.4676 45.3767C37.4676 45.3767 37.4947 45.2456 37.4133 45.213C37.2689 45.1548 37.0224 45.0737 37.0013 45.2456Z" fill="#316C8E"/>
<path d="M39.0251 45.653C39.0251 45.653 38.873 46.6989 38.9381 46.7757C39.0027 46.8521 39.2742 46.9394 39.3501 46.8955C39.4259 46.8521 39.491 45.7841 39.491 45.7841C39.491 45.7841 39.5181 45.653 39.4371 45.6204C39.2923 45.5623 39.0462 45.4806 39.0251 45.653Z" fill="#316C8E"/>
<path d="M46.5484 45.3857C46.5484 45.3857 46.7 46.4316 46.635 46.508C46.5699 46.5844 46.2988 46.6717 46.2234 46.6283C46.1471 46.5848 46.0825 45.5173 46.0825 45.5173C46.0825 45.5173 46.0553 45.3862 46.1364 45.3532C46.2812 45.295 46.5277 45.2138 46.5484 45.3857Z" fill="#316C8E"/>
<path d="M44.5253 45.7934C44.5253 45.7934 44.677 46.8393 44.6119 46.9157C44.5473 46.9921 44.2758 47.0794 44.2 47.036C44.1241 46.9926 44.059 45.9246 44.059 45.9246C44.059 45.9246 44.0319 45.7934 44.1133 45.7609C44.2581 45.7027 44.5046 45.6215 44.5253 45.7934Z" fill="#316C8E"/>
<path d="M42.8472 45.7715H40.7976C40.7497 45.7715 40.7109 45.8106 40.7109 45.8587V46.8799C40.7109 46.9281 40.7497 46.9671 40.7976 46.9671H42.8472C42.895 46.9671 42.9338 46.9281 42.9338 46.8799V45.8587C42.9338 45.8106 42.895 45.7715 42.8472 45.7715Z" fill="#91AFB8"/>
<path d="M40.7114 46.54V46.8791C40.7114 46.9273 40.7502 46.9664 40.798 46.9664H42.8472C42.895 46.9664 42.9338 46.9273 42.9338 46.8791V46.54H40.7109H40.7114Z" fill="#74969D"/>
<path d="M42.9294 45.9065V45.8583C42.9294 45.8101 42.8902 45.771 42.8428 45.771H40.7937C40.7458 45.771 40.707 45.8096 40.707 45.8583V45.9065H42.9299H42.9294Z" fill="#D5E5E9"/>
<path d="M49.5032 46.7795L49.2852 45.336L51.4498 45.2461L51.4076 46.7187L49.5032 46.7795Z" fill="#7ED2F1"/>
<path d="M46.5553 24.7953L43.6727 23.8271C43.6727 23.8271 43.6735 25.45 42.0286 25.8499C41.7933 25.9072 40.3488 25.1231 40.2665 23.8271L37.1016 24.8261V46.9787H46.5557V24.7953H46.5553Z" fill="#7ED2F1"/>
<path d="M45.0177 46.979C45.2858 46.2535 46.0451 44.1483 46.5558 42.2394V38.6828C46.1925 38.7449 45.6047 39.2112 44.7126 40.2497C39.5783 46.2266 38.0786 36.123 38.0786 36.123L37.8398 46.9794H45.0177V46.979Z" fill="#5AB6CA"/>
<path d="M40.9297 26.2477C40.9297 26.2477 41.5908 27.6691 41.6989 27.581C41.8075 27.4929 42.3061 27.581 42.3061 27.581C42.3061 27.581 42.6315 26.7283 42.7617 26.1822L42.0295 25.8496L40.9297 26.2482V26.2477Z" fill="#0E3251"/>
<path d="M40.2733 23.9121C40.178 23.9338 40.1056 23.9616 40.0634 23.9968C39.6445 24.345 39.8755 27.6389 40.0634 27.5807C40.2517 27.5225 42.0272 25.8497 42.0272 25.8497C41.7975 25.9057 40.412 25.1568 40.2728 23.9125L40.2733 23.9121Z" fill="#C9EAF6"/>
<path d="M43.6611 23.9761C43.6154 24.3868 43.3676 25.5234 42.0273 25.8494L44.1403 27.5813C44.2123 27.0724 43.8727 23.9965 43.8727 23.9965C43.8727 23.9965 43.7942 23.9887 43.6611 23.9761Z" fill="#C9EAF6"/>
<path d="M47.802 25.2139L43.7812 23.8633V47.7321C45.1366 47.6309 46.5139 47.4234 47.7693 47.0478C47.7693 47.0478 47.7693 46.4999 47.5016 41.7998C47.4258 40.4674 47.7861 37.4375 47.5016 35.3318C47.5016 35.3318 47.8804 31.7605 48.0093 29.974C48.1468 28.0737 47.802 25.2139 47.802 25.2139Z" fill="#0E3251"/>
<path d="M40.2259 23.8408L36.2357 25.0999C36.2357 25.0999 35.8009 28.8904 36.6038 34.0907C36.6038 34.0907 36.3706 38.8238 36.3413 39.9014C36.3146 40.9034 35.7311 47.1218 36.0625 47.4161C36.0625 47.4161 37.8358 47.7039 40.2259 47.789V23.8408Z" fill="#0E3251"/>
<path d="M40.3495 23.3647C40.3495 23.3647 39.6186 23.6742 39.2058 24.2512C38.7933 24.8282 38.0547 31.7746 38.0547 31.7746L39.3389 32.5609L38.7541 34.5706C38.7541 34.5706 39.9647 38.9394 40.2245 38.8956L40.3495 23.3643V23.3647Z" fill="#2B557A"/>
<path d="M43.5746 23.3647C43.5746 23.3647 44.3055 23.6742 44.7184 24.2512C45.1308 24.8282 45.8699 31.7746 45.8699 31.7746L44.5857 32.5609L45.17 34.5706C45.17 34.5706 44.0375 38.9833 43.7772 38.9394L43.5742 23.3643L43.5746 23.3647Z" fill="#2B557A"/>
<path d="M41.6314 27.2969L41.1328 35.4685L41.8262 36.6264L42.4334 35.4029L42.2817 27.2969H41.6314Z" fill="#0E3251"/>
<path d="M41.3578 17.6089C41.3578 17.6089 41.1875 17.0584 40.8092 16.7493C40.2679 16.3073 39.2862 16.4797 39.3379 17.308C39.3379 17.308 39.3754 18.0717 40.0615 18.1715C40.6165 18.2523 41.1518 18.0044 41.3582 17.6085L41.3578 17.6089Z" fill="white"/>
<path d="M40.8079 16.7493C40.5515 16.54 40.196 16.4684 39.8986 16.5391C39.7284 16.7323 39.6172 17.0389 39.6172 17.3853C39.6172 17.6536 39.684 17.898 39.793 18.0847C39.8693 18.1251 39.9563 18.1564 40.0602 18.1716C40.3459 18.2132 40.626 18.1672 40.8592 18.0591C40.9592 17.8759 41.0195 17.6415 41.0195 17.3853C41.0195 17.1947 40.9855 17.0163 40.9273 16.8617C40.8898 16.8218 40.8506 16.784 40.8079 16.7493Z" fill="#231114"/>
<path d="M41.3577 17.6089C41.3577 17.6089 41.2805 17.4313 41.1241 17.1978C41.0831 17.1409 41.0396 17.0788 40.9883 17.0189C40.9366 16.9586 40.8806 16.8978 40.8151 16.8439C40.7828 16.8122 40.7552 16.7905 40.7147 16.7658C40.6763 16.7376 40.6384 16.7176 40.6018 16.6998C40.5281 16.6603 40.4406 16.6316 40.3548 16.6121C40.2686 16.5913 40.1799 16.5843 40.0928 16.5843C40.0062 16.5904 39.9204 16.5986 39.842 16.6243C39.7644 16.6499 39.6894 16.6807 39.6295 16.7263C39.5977 16.7467 39.5692 16.7697 39.5455 16.7966C39.5188 16.8205 39.4951 16.8457 39.4779 16.8748C39.4356 16.9273 39.4149 16.9863 39.3886 17.0367C39.3753 17.091 39.358 17.1383 39.3524 17.1787C39.3421 17.2616 39.3365 17.3089 39.3365 17.3089C39.3365 17.3089 39.3322 17.2607 39.3244 17.1765C39.3227 17.134 39.3318 17.0827 39.3365 17.0224C39.3537 16.9651 39.3662 16.8952 39.4076 16.83C39.4231 16.7949 39.4464 16.7628 39.4731 16.7311C39.4977 16.6968 39.5283 16.6677 39.5632 16.6399C39.6287 16.5808 39.7119 16.5357 39.8011 16.5027C39.8903 16.4693 39.9877 16.4506 40.0872 16.4437C40.1863 16.4419 40.2876 16.4476 40.3863 16.4701C40.485 16.4944 40.5785 16.5266 40.6686 16.5769C40.7155 16.6008 40.7582 16.6269 40.7922 16.6555L40.85 16.6994L40.9004 16.7493C40.9702 16.8122 41.0245 16.8843 41.0737 16.9533C41.1232 17.0215 41.1607 17.0923 41.1952 17.1561C41.2607 17.2868 41.2999 17.401 41.3249 17.4817C41.3499 17.5625 41.3577 17.6098 41.3577 17.6098V17.6089Z" fill="#231114"/>
<path d="M42.957 17.6089C42.957 17.6089 43.1273 17.0584 43.5061 16.7493C44.0473 16.3073 45.029 16.4797 44.9773 17.308C44.9773 17.308 44.9398 18.0717 44.2538 18.1715C43.6987 18.2523 43.163 18.0044 42.957 17.6085V17.6089Z" fill="white"/>
<path d="M43.5035 16.7491C43.3552 16.8702 43.2389 17.0282 43.1523 17.1759C43.1449 17.2375 43.1406 17.3009 43.1406 17.3656C43.1406 17.5796 43.1829 17.7785 43.2553 17.9447C43.5164 18.1314 43.8793 18.2256 44.2512 18.1714C44.2697 18.1688 44.2861 18.164 44.3033 18.1601C44.4494 17.966 44.5425 17.6825 44.5425 17.3651C44.5425 17.0165 44.43 16.7083 44.2576 16.5155C43.9982 16.4964 43.7164 16.5746 43.5031 16.7491H43.5035Z" fill="#231114"/>
<path d="M42.9575 17.6088C42.9575 17.6088 42.9652 17.5615 42.9902 17.4807C43.0148 17.4004 43.0544 17.2858 43.1199 17.1551C43.1544 17.0913 43.1915 17.0205 43.2415 16.9524C43.2906 16.8833 43.3445 16.8117 43.4147 16.7483L43.4647 16.6984L43.5224 16.6545C43.5565 16.6259 43.5987 16.5998 43.6457 16.576C43.7362 16.5256 43.8301 16.4935 43.9284 16.4692C44.0271 16.4466 44.1279 16.4409 44.227 16.4427C44.3266 16.4496 44.4236 16.4683 44.5132 16.5017C44.6024 16.5347 44.6851 16.5803 44.7506 16.6389C44.7851 16.6667 44.8161 16.6958 44.8407 16.7301C44.8674 16.7618 44.8907 16.7939 44.9066 16.8291C44.9476 16.8938 44.9601 16.9637 44.9778 17.021C44.9825 17.0813 44.9915 17.133 44.9898 17.1755C44.9821 17.2597 44.9778 17.3079 44.9778 17.3079C44.9778 17.3079 44.9722 17.2606 44.9618 17.1777C44.9562 17.1373 44.939 17.0896 44.9256 17.0357C44.8998 16.9858 44.8791 16.9263 44.8364 16.8738C44.8196 16.8451 44.7955 16.8195 44.7692 16.7956C44.7455 16.7687 44.717 16.7457 44.6851 16.7253C44.6252 16.6802 44.5507 16.6489 44.4727 16.6233C44.3942 16.5977 44.3089 16.5899 44.2219 16.5833C44.1348 16.5833 44.046 16.5903 43.9599 16.6111C43.8745 16.6302 43.7866 16.6593 43.7133 16.6988C43.6763 16.7166 43.6388 16.7366 43.6 16.7648C43.5595 16.7896 43.5319 16.8113 43.4996 16.843C43.4341 16.8968 43.3781 16.9576 43.3264 17.0179C43.2755 17.0783 43.2315 17.1404 43.191 17.1972C43.0342 17.4308 42.957 17.6084 42.957 17.6084L42.9575 17.6088Z" fill="#231114"/>
<path d="M40.1566 17.1191C40.1661 17.1972 40.036 17.2771 39.8653 17.298C39.6946 17.3188 39.549 17.2728 39.5395 17.1946C39.5305 17.1169 39.6606 17.0366 39.8313 17.0158C40.0015 16.9949 40.1476 17.0409 40.1566 17.1186V17.1191Z" fill="white"/>
<path d="M44.8193 17.1909C44.8025 17.2673 44.6526 17.2986 44.4849 17.2608C44.3173 17.223 44.1953 17.1305 44.2126 17.0537C44.2294 16.9773 44.3793 16.946 44.547 16.9838C44.7146 17.0216 44.8366 17.1145 44.8193 17.1909Z" fill="white"/>
<path d="M43.4743 20.1943C43.4743 20.1943 43.1442 20.7843 42.1931 20.7843C41.9087 20.7843 41.5118 20.7066 41.2188 20.1943C41.2188 20.1943 43.1378 20.2382 43.4739 20.1943H43.4743Z" fill="white"/>
<path d="M38.2131 16.9464L38.2808 17.0185L38.5152 17.2681C38.5152 17.2681 38.9974 16.2392 38.9229 15.0201C38.9229 15.0201 39.7684 12.8575 40.2239 13.5565C40.2239 13.5565 40.3558 13.0542 40.5609 13.2287C40.7656 13.4033 43.4427 15.4833 45.5302 15.2297C45.5302 15.2297 45.8633 16.7775 45.7646 17.1222L46.2301 16.6737C46.2301 16.6737 46.7735 15.5007 46.7037 14.6271C46.7037 14.6271 45.7646 10.171 40.9289 10.5205C40.9289 10.5205 40.3657 10.5861 40.0132 11.0228C40.0132 11.0228 39.2392 10.9052 38.7535 11.2112C38.2678 11.5169 36.8504 15.0161 37.9627 16.7879L38.2135 16.9473L38.2131 16.9464Z" fill="#231114"/>
<path d="M45.2492 12.0099C44.7722 12.385 44.0645 12.715 43.144 12.5296C41.9891 12.2969 39.8572 10.9302 38.2592 11.9778C38.1825 12.1454 38.1054 12.3347 38.0312 12.5396C38.4665 12.2131 39.2724 11.7616 40.0106 12.1801C40.9708 12.725 45.4449 15.4011 46.6188 14.3287C46.4667 13.846 46.0779 12.8604 45.2488 12.0099H45.2492Z" fill="#382526"/>
<path d="M24.1447 26.3658C24.1447 26.3658 21.8059 26.2129 20.9781 25.0004C20.1502 23.7878 20.8772 21.0713 20.8772 21.0713L24.0861 24.1993L24.1443 26.3653L24.1447 26.3658Z" fill="#611F0F"/>
<path d="M29.9312 21.5684C29.9312 21.5684 29.4964 25.197 30.0808 26.0327C30.0808 26.0327 28.5285 27.0105 26.0742 26.9996V24.5753L28.619 21.1455L29.9312 21.5688V21.5684Z" fill="#611F0F"/>
<path d="M30.2772 46.9756L25.1096 47.0811L19.9417 46.9756C19.9417 46.9756 19.2526 48.4474 19.25 51.928C19.2474 55.2483 20.6842 58.3781 21.2531 66.8732C21.581 71.7682 22.2878 75.3964 22.2878 75.3964C22.2878 75.3964 23.0001 76.3316 24.0172 75.3964L24.7782 54.4304C24.7782 54.4304 24.9144 54.4391 25.1096 54.4373C25.3044 54.4386 25.441 54.4304 25.441 54.4304L26.2805 75.3964C27.2976 76.3316 28.0099 75.3964 28.0099 75.3964C28.0099 75.3964 28.6378 71.7682 28.9658 66.8732C29.5346 58.3781 30.9714 55.2483 30.9684 51.928C30.9658 48.4474 30.2767 46.9756 30.2767 46.9756H30.2772Z" fill="#001D2F"/>
<path d="M19.9417 46.9756C19.9417 46.9756 19.2526 48.4474 19.25 51.928C19.2474 55.2483 20.6842 58.3781 21.2531 66.8732C21.581 71.7682 22.2878 75.3964 22.2878 75.3964C22.2878 75.3964 23.0001 76.3316 24.0172 75.3964L24.2813 68.1235C19.8926 63.0796 20.2218 50.5673 20.4149 46.9856L19.9421 46.976L19.9417 46.9756Z" fill="#001325"/>
<path d="M29.3896 27.655C28.3385 27.3364 27.1254 26.9882 27.1254 26.9882C26.507 26.1177 26.6384 24.8331 26.6384 24.8331L25.3839 24.2582V24.25L25.3727 24.2543L25.3615 24.25V24.2582L24.1087 24.8331C24.1087 24.8331 24.1066 26.4203 23.62 26.9882C23.62 26.9882 20.0354 28.0362 19.7169 28.2108C19.6717 28.2355 19.6247 28.3701 19.582 28.5898L25.6821 31.8333L29.3892 29.6426V27.6546L29.3896 27.655Z" fill="#E98E66"/>
<path d="M17.6524 33.1347L19.9256 34.5704C19.4822 36.2176 18.9138 39.4238 18.9138 39.4238C18.8465 42.5284 17.5476 48.3404 17.5476 48.3404L16.8047 48.303C17.0762 42.524 17.4171 39.3929 17.4171 39.3929C17.536 38.5785 17.558 36.808 17.6532 33.1338L17.6524 33.1347Z" fill="#F4A27A"/>
<path d="M19.6269 35.8098C19.5515 35.7165 19.4989 35.6609 19.4989 35.6609L17.5959 35.3691C17.5713 36.3616 17.5506 37.1496 17.5273 37.7735C18.0316 37.8603 18.6332 37.8959 19.2227 37.7687C19.3412 37.1591 19.4826 36.4593 19.6265 35.8098H19.6269Z" fill="#E38A62"/>
<path d="M20.9195 27.8008C20.9195 27.8008 18.9079 28.1598 18.1705 29.388C17.6262 30.2945 17.1875 36.0944 17.1875 36.0944C17.1875 36.0944 17.952 37.4507 19.5909 37.1867L20.9385 33.6696L20.9195 27.8008Z" fill="#F26B6A"/>
<path d="M19.591 37.186L20.9386 33.669L20.9248 29.4369C20.8895 29.255 20.8632 29.1855 20.8507 29.2649C20.7464 29.9071 20.044 30.1545 19.0631 32.5102C18.1672 34.6623 18.6046 36.8127 18.6869 37.1678C18.9515 37.2255 19.2523 37.2407 19.591 37.186Z" fill="#E55A58"/>
<path d="M24.0273 25.8343C24.6078 26.2294 25.5874 26.8246 26.0916 26.726C26.3674 26.6722 26.6178 26.5415 26.8259 26.3982C26.557 25.6333 26.6385 24.8336 26.6385 24.8336L25.384 24.2587V24.2505L25.3728 24.2548L25.3616 24.2505V24.2587L24.1088 24.8336C24.1088 24.8336 24.1079 25.3103 24.0273 25.8347V25.8343Z" fill="#C66A42"/>
<path d="M20.9789 41.3369C20.8207 42.9072 20.2273 45.4344 19.9563 47.1767C19.9563 47.1767 21.5327 48.5165 25.3763 48.5165C29.541 48.5165 30.4732 47.1767 30.4732 47.1767C30.3577 46.4668 30.2124 45.5013 30.0806 44.4098C29.747 41.6556 29.7578 39.0337 30.2698 37.2207C30.2698 37.2207 30.908 35.2158 31.0373 33.4293C31.1743 31.5286 30.0806 27.8821 30.0806 27.8821L28.3404 27.2891C28.3404 27.2891 26.7222 30.8738 25.5116 30.8956C24.8359 30.9077 23.1311 28.4491 22.5682 27.3008L20.7811 27.8456C20.7811 27.8456 18.6608 32.5744 20.2222 36.8999C20.2222 36.8999 21.144 39.6967 20.9793 41.3378L20.9789 41.3369Z" fill="#F26B6A"/>
<path d="M17.701 49.166C17.7122 49.3423 17.7531 50.1785 17.9565 50.4381C18.1957 50.7437 18.4569 51.1249 18.2879 51.2052C18.119 51.2855 17.7307 50.9591 17.4243 50.4411C17.3136 50.2536 17.1985 49.9783 17.0977 49.6844L17.7014 49.1665L17.701 49.166Z" fill="#CF6744"/>
<path d="M17.5806 49.2666C17.5922 49.4424 17.7345 50.4505 17.9374 50.7102C18.1766 51.0158 18.4378 51.3965 18.2688 51.4769C18.0999 51.5572 17.7116 51.2303 17.4052 50.7128C17.2945 50.5252 17.1794 50.25 17.0781 49.956L17.5806 49.2666Z" fill="#DB7B58"/>
<path d="M17.5723 48.2533C17.5723 48.2533 18.3014 49.1138 18.4462 49.4537C18.4462 49.4537 18.8931 50.0858 19.0121 50.1865C19.1314 50.2873 18.9121 50.5347 18.4329 50.0385C17.9537 49.5427 17.624 49.4359 17.5365 49.4789C17.5365 49.4789 17.5697 50.5039 17.786 50.8261C18.2187 51.4716 18.5385 51.8216 18.3631 51.8867C18.1877 51.9514 17.3525 51.1261 17.0926 50.5834C16.8328 50.0402 16.7548 48.6071 16.8095 48.1934L17.5727 48.2533H17.5723Z" fill="#F4A27A"/>
<path d="M29.0549 20.3989C29.0549 20.3989 29.444 19.7107 30.05 19.7012C30.4098 19.6955 30.3034 21.1838 29.9327 21.568C29.5621 21.9527 29.0226 21.8246 28.9023 21.4842L29.0553 20.3989H29.0549Z" fill="#F4A27A"/>
<path opacity="0.4" d="M29.1367 21.4355C29.1367 21.4355 29.5892 21.5957 29.784 21.2158C29.9788 20.8359 30.1688 20.3792 30.0176 20.0444C30.0176 20.0444 29.6004 20.1421 29.2147 20.9266C29.2147 20.9266 29.4974 21.28 29.1367 21.4355Z" fill="#CF6244"/>
<path d="M30.0806 20.5217C30.0767 20.4496 30.0729 20.378 30.0647 20.3072C30.0556 20.2369 30.047 20.1644 30.0246 20.1023C30.0186 20.0871 30.0108 20.0745 30.0035 20.0663C29.9944 20.0654 29.9992 20.0602 29.9845 20.0689C29.9518 20.0845 29.922 20.1032 29.8962 20.124C29.8427 20.1614 29.7863 20.2087 29.7346 20.2543C29.6294 20.3476 29.5359 20.4535 29.4497 20.5638C29.4027 20.6164 29.3704 20.6789 29.3299 20.7362C29.3092 20.7644 29.2976 20.7978 29.2808 20.8287L29.2342 20.9224L29.2286 20.8877C29.2657 20.9376 29.2933 20.9893 29.3153 21.0457C29.3359 21.1017 29.3493 21.1634 29.3407 21.2255C29.3338 21.288 29.2967 21.3444 29.2493 21.3792C29.2036 21.4174 29.148 21.4365 29.0938 21.4525C29.1446 21.4269 29.1955 21.4013 29.2334 21.3609C29.2739 21.3236 29.2959 21.2724 29.298 21.2207C29.3028 21.1161 29.2433 21.0123 29.1765 20.932L29.1627 20.915L29.1713 20.8972L29.2174 20.7974C29.2342 20.7648 29.2459 20.7292 29.2666 20.6988C29.3071 20.6381 29.3398 20.5712 29.3872 20.5156C29.4734 20.3975 29.5773 20.2942 29.6872 20.1991C29.7135 20.174 29.7441 20.1535 29.7725 20.1305C29.8005 20.108 29.8302 20.0858 29.8639 20.0672C29.8962 20.0454 29.9285 20.0289 29.9613 20.0164C29.9772 20.0038 30.0229 20.0064 30.0405 20.0281C30.0565 20.0476 30.0647 20.0672 30.0707 20.0858C30.0918 20.1609 30.0936 20.233 30.0931 20.3059C30.0923 20.3784 30.0888 20.4501 30.0802 20.5221L30.0806 20.5217Z" fill="#91554A"/>
<path d="M29.9495 20.5898C29.9495 20.5898 29.9219 20.5629 29.881 20.5373C29.8582 20.5264 29.8345 20.5125 29.8056 20.5065C29.7793 20.4939 29.7474 20.4926 29.7159 20.4913C29.6858 20.4813 29.6522 20.4913 29.6216 20.4904C29.5905 20.4895 29.5608 20.4934 29.5354 20.4978C29.4837 20.5039 29.4453 20.5026 29.4453 20.5026C29.4453 20.5026 29.4738 20.48 29.5229 20.4539C29.5479 20.4426 29.5759 20.4235 29.6117 20.4205C29.6466 20.4175 29.6832 20.4031 29.7224 20.4101C29.7612 20.4157 29.7996 20.4227 29.8327 20.4413C29.8681 20.4539 29.8901 20.4848 29.9112 20.503C29.9469 20.5512 29.9495 20.5898 29.9495 20.5898Z" fill="#91554A"/>
<path d="M25.8556 25.9799C25.8556 25.9799 27.5854 25.0938 28.1866 24.0983C28.6809 23.3997 29.2631 19.8375 29.3226 19.2844C29.3247 19.2662 29.3269 19.248 29.3286 19.2293C29.3303 19.2119 29.3312 19.2024 29.3312 19.2024H29.3303C29.3403 19.0886 29.3463 18.9731 29.3463 18.8559C29.3463 16.7234 27.6302 14.9941 25.513 14.9941C23.3957 14.9941 21.6797 16.7229 21.6797 18.8559C21.6797 18.9948 21.6874 19.1316 21.7017 19.2662H21.7012C21.7012 19.2662 22.2985 23.3329 22.8402 24.0979C23.4767 25.2392 25.1717 25.9795 25.1717 25.9795C25.1717 25.9795 25.4962 26.0989 25.8552 25.9795L25.8556 25.9799Z" fill="#F4A27A"/>
<path d="M25.0686 15.8586C25.0686 15.8586 24.3097 15.7497 23.8253 16.0262C23.3409 16.3028 24.4252 14.4533 24.8372 14.9265C25.2492 15.3997 25.1117 15.7349 25.0686 15.8582V15.8586Z" fill="#742D17"/>
<path d="M21.9979 20.5615C21.9979 20.5615 21.6088 19.8733 21.0029 19.8638C20.643 19.8581 20.7495 21.3468 21.1205 21.7311C21.4911 22.1157 22.0307 21.9877 22.1509 21.6468L21.9984 20.561L21.9979 20.5615Z" fill="#F4A27A"/>
<path opacity="0.4" d="M21.9161 21.5985C21.9161 21.5985 21.464 21.7587 21.2688 21.3789C21.0736 20.999 20.884 20.5423 21.0352 20.2075C21.0352 20.2075 21.4524 20.3056 21.8381 21.0897C21.8381 21.0897 21.5554 21.4431 21.9161 21.5985Z" fill="#CF6244"/>
<path d="M20.9739 20.6849C20.9652 20.6133 20.9614 20.5412 20.9609 20.4687C20.9609 20.3962 20.9622 20.3237 20.9833 20.249C20.9894 20.2303 20.9976 20.2108 21.0135 20.1913C21.0316 20.1696 21.0769 20.1669 21.0928 20.1791C21.1256 20.1921 21.1579 20.2086 21.1902 20.2299C21.2242 20.249 21.254 20.2711 21.2816 20.2933C21.31 20.3159 21.3406 20.3367 21.3669 20.3619C21.4764 20.457 21.5802 20.5603 21.6668 20.6784C21.7138 20.7344 21.747 20.8008 21.7875 20.8616C21.8082 20.892 21.8203 20.9276 21.8366 20.9601L21.8827 21.06L21.8909 21.0778L21.8771 21.0947C21.8103 21.175 21.7509 21.2788 21.7556 21.3839C21.7578 21.4355 21.7802 21.4868 21.8203 21.5241C21.8582 21.564 21.909 21.5901 21.9599 21.6157C21.9056 21.5996 21.85 21.5805 21.8043 21.5419C21.7569 21.5072 21.7194 21.4507 21.7129 21.3882C21.7043 21.3261 21.7177 21.2645 21.7384 21.2085C21.7599 21.152 21.7879 21.1004 21.825 21.0504L21.8194 21.0852L21.7728 20.9914C21.756 20.9606 21.7448 20.9271 21.7242 20.8989C21.6836 20.8416 21.6513 20.7791 21.6043 20.7266C21.5182 20.6163 21.4246 20.5104 21.3195 20.417C21.2678 20.3714 21.2113 20.3241 21.1579 20.2868C21.1325 20.2659 21.1023 20.2477 21.0695 20.2316C21.0549 20.223 21.0596 20.2282 21.0506 20.229C21.0428 20.2377 21.0355 20.2499 21.0295 20.2651C21.007 20.3272 20.9989 20.3997 20.9894 20.47C20.9816 20.5412 20.9777 20.6128 20.9734 20.6845L20.9739 20.6849Z" fill="#91554A"/>
<path d="M21.1024 20.7529C21.1024 20.7529 21.1054 20.7143 21.1408 20.6661C21.1619 20.6478 21.1839 20.6166 21.2192 20.6044C21.2524 20.5858 21.2907 20.5788 21.3295 20.5732C21.3692 20.5662 21.4054 20.5805 21.4403 20.5836C21.4761 20.5862 21.5041 20.6057 21.5291 20.617C21.5782 20.6426 21.6066 20.6656 21.6066 20.6656C21.6066 20.6656 21.5683 20.6674 21.5166 20.6609C21.4911 20.6565 21.4614 20.6526 21.4304 20.6535C21.4002 20.6544 21.3662 20.6444 21.336 20.6544C21.3045 20.6557 21.2726 20.6574 21.2459 20.6695C21.2171 20.6756 21.1934 20.6895 21.1705 20.7004C21.1291 20.726 21.1016 20.7529 21.1016 20.7529H21.1024Z" fill="#91554A"/>
<path d="M26.0735 22.2139C26.0735 22.2139 26.0783 22.7192 25.9404 22.7922C25.802 22.8655 25.8835 22.5087 26.0735 22.2139Z" fill="#5F221B"/>
<path d="M23.0664 21.7471C23.0664 21.7471 23.1216 21.6608 23.194 21.5926C23.2638 21.5223 23.3517 21.4697 23.3517 21.4697C23.3517 21.4697 23.2965 21.5561 23.2241 21.6243C23.1539 21.6946 23.0664 21.7471 23.0664 21.7471Z" fill="#85453E"/>
<path d="M23.4168 21.5273C23.4168 21.5273 23.3664 21.6667 23.294 21.7935C23.2246 21.922 23.1328 22.0383 23.1328 22.0383C23.1328 22.0383 23.1832 21.899 23.2561 21.7722C23.3254 21.6437 23.4172 21.5273 23.4168 21.5273Z" fill="#85453E"/>
<path d="M23.5843 21.6084C23.5843 21.6084 23.5619 21.6935 23.5179 21.7656C23.477 21.8398 23.4141 21.901 23.4141 21.901C23.4141 21.901 23.4365 21.8159 23.4804 21.7439C23.5214 21.6696 23.5843 21.6084 23.5843 21.6084Z" fill="#85453E"/>
<path d="M27.9454 21.9229C27.9454 21.9229 27.858 21.8703 27.7877 21.7996C27.7153 21.7314 27.6602 21.645 27.6602 21.645C27.6602 21.645 27.7476 21.6971 27.8179 21.7679C27.8903 21.836 27.9454 21.9224 27.9454 21.9224V21.9229Z" fill="#85453E"/>
<path d="M27.5981 21.7031C27.5981 21.7031 27.6894 21.8195 27.7588 21.9476C27.8312 22.0743 27.8817 22.2137 27.8817 22.2137C27.8817 22.2137 27.7903 22.0978 27.7209 21.9688C27.6485 21.8421 27.5977 21.7031 27.5977 21.7031H27.5981Z" fill="#85453E"/>
<path d="M27.4297 21.7837C27.4297 21.7837 27.4926 21.8449 27.5335 21.9187C27.5775 21.9908 27.5999 22.0759 27.5999 22.0759C27.5999 22.0759 27.537 22.0147 27.4961 21.9409C27.4521 21.8688 27.4301 21.7837 27.4297 21.7837Z" fill="#85453E"/>
<path d="M24.5944 19.024C24.5944 19.024 23.6972 18.5047 23.0137 18.6819C23.0137 18.6819 22.5216 18.7891 22.5039 18.9506C22.5039 18.9506 23.3003 18.7748 24.594 19.024H24.5944Z" fill="#8E4327"/>
<path d="M26.5625 19.024C26.5625 19.024 27.4709 18.5047 28.1544 18.6819C28.1544 18.6819 28.6354 18.7891 28.653 18.9506C28.653 18.9506 27.8566 18.7748 26.5625 19.024Z" fill="#8E4327"/>
<g opacity="0.3">
<path d="M20.4622 24.5271C20.4721 24.5861 20.4777 24.6178 20.4777 24.6178C20.4713 24.5792 20.4665 24.5401 20.4609 24.5015C20.4609 24.5101 20.4618 24.5184 20.4618 24.5271H20.4622Z" fill="#9D4325"/>
</g>
<path d="M20.9381 44.3944C20.9381 43.5722 22.0388 41.773 22.3853 41.1179C22.7322 40.4628 20.9381 38.1909 20.9381 38.1909C21.7031 38.1909 23.0791 37.5353 23.8165 36.8802C24.5538 36.2246 27.1555 35.8286 27.1555 35.8286C26.2884 35.4761 24.8137 36.1812 22.7507 36.4873C21.1605 36.723 20.1792 35.7909 19.8125 35.3511C19.9039 35.8668 20.0366 36.3857 20.2219 36.8988C20.2219 36.8988 21.1437 39.6956 20.9791 41.3367C20.8209 42.907 20.2275 45.4342 19.9564 47.1765C19.9564 47.1765 21.5329 48.5163 25.3765 48.5163C26.7224 48.5163 27.7291 48.376 28.4776 48.1868C22.4534 48.205 20.9386 45.3561 20.9386 44.3949L20.9381 44.3944Z" fill="#E55A58"/>
<path d="M22.8004 20.465C22.8004 20.465 22.5815 20.2657 22.5625 20.0529C22.5625 20.0529 22.9146 19.7334 23.3266 19.6787C23.3266 19.6787 22.8969 19.878 22.8 20.465H22.8004Z" fill="#000718"/>
<path d="M28.3821 20.465C28.3821 20.465 28.601 20.2657 28.62 20.0529C28.62 20.0529 28.2675 19.7334 27.8555 19.6787C27.8555 19.6787 28.2851 19.878 28.3821 20.465Z" fill="#000718"/>
<path d="M24.7723 20.7646C24.7723 20.7646 24.602 20.2146 24.2232 19.905C23.682 19.463 22.7003 19.6354 22.752 20.4642C22.752 20.4642 22.7895 21.2279 23.4755 21.3277C24.0306 21.4085 24.5663 21.1606 24.7723 20.7646Z" fill="white"/>
<path d="M24.2215 19.9052C23.9651 19.6959 23.61 19.6247 23.3127 19.6955C23.1424 19.8887 23.0312 20.1952 23.0312 20.5416C23.0312 20.8099 23.098 21.0544 23.2071 21.241C23.2834 21.2814 23.3704 21.3131 23.4738 21.3279C23.7596 21.3695 24.0401 21.3235 24.2732 21.2154C24.3732 21.0322 24.4336 20.7978 24.4336 20.5416C24.4336 20.351 24.3995 20.1726 24.3413 20.018C24.3038 19.9785 24.2646 19.9403 24.222 19.9056L24.2215 19.9052Z" fill="#231114"/>
<path d="M24.7709 20.7647C24.7709 20.7647 24.6937 20.5872 24.5369 20.3536C24.4959 20.2967 24.4524 20.2346 24.4015 20.1747C24.3498 20.1144 24.2938 20.0536 24.2283 19.9998C24.1955 19.9681 24.1684 19.9464 24.1279 19.9216C24.0895 19.8934 24.0516 19.8734 24.015 19.8556C23.9417 19.8161 23.8538 19.7875 23.7685 19.7684C23.6823 19.7475 23.5935 19.7406 23.506 19.7401C23.4198 19.7467 23.3341 19.7545 23.2556 19.7801C23.1781 19.8057 23.1031 19.8365 23.0432 19.8821C23.0113 19.9025 22.9828 19.9255 22.9591 19.9524C22.9324 19.9763 22.9087 20.0019 22.8919 20.0306C22.8493 20.0831 22.8286 20.1422 22.8027 20.1925C22.7893 20.2464 22.7721 20.2941 22.7665 20.3345C22.7562 20.4174 22.7506 20.4647 22.7506 20.4647C22.7506 20.4647 22.7463 20.4166 22.7385 20.3323C22.7368 20.2898 22.7458 20.2385 22.751 20.1778C22.7682 20.1205 22.7807 20.0506 22.8217 19.9854C22.8376 19.9503 22.8609 19.9181 22.8876 19.8865C22.9117 19.8522 22.9428 19.8231 22.9772 19.7953C23.0427 19.7362 23.1259 19.6911 23.2151 19.6581C23.3043 19.6247 23.4017 19.606 23.5008 19.599C23.6 19.5969 23.7012 19.603 23.7999 19.6255C23.8986 19.6498 23.9921 19.6815 24.0826 19.7319C24.1296 19.7558 24.1718 19.7818 24.2059 19.8105L24.2636 19.8543L24.314 19.9043C24.3839 19.9672 24.4377 20.0393 24.4869 20.1083C24.5364 20.1765 24.5739 20.2472 24.6084 20.3111C24.6739 20.4417 24.7131 20.5559 24.7381 20.6367C24.7631 20.7174 24.7709 20.7647 24.7709 20.7647Z" fill="#231114"/>
<path d="M26.3715 20.7646C26.3715 20.7646 26.5418 20.2146 26.9201 19.905C27.4614 19.463 28.4431 19.6354 28.3918 20.4642C28.3918 20.4642 28.3543 21.2279 27.6678 21.3277C27.1128 21.4085 26.5771 21.1606 26.3711 20.7646H26.3715Z" fill="white"/>
<path d="M26.9175 19.9053C26.7693 20.0265 26.6534 20.1845 26.5668 20.3321C26.559 20.3937 26.5547 20.4571 26.5547 20.5218C26.5547 20.7359 26.5974 20.9347 26.6698 21.1014C26.9309 21.2881 27.2938 21.3819 27.6657 21.3276C27.6842 21.325 27.7006 21.3202 27.7183 21.3163C27.8643 21.1222 27.9574 20.8387 27.9574 20.5218C27.9574 20.1732 27.845 19.8645 27.6726 19.6717C27.4127 19.6526 27.1313 19.7312 26.9175 19.9053Z" fill="#231114"/>
<path d="M26.3715 20.7647C26.3715 20.7647 26.3793 20.7174 26.4043 20.6367C26.4288 20.5559 26.4685 20.4417 26.534 20.3111C26.5685 20.2472 26.606 20.1765 26.6555 20.1083C26.7046 20.0393 26.7585 19.9676 26.8288 19.9043L26.8788 19.8543L26.9365 19.8105C26.9705 19.7818 27.0128 19.7558 27.0598 19.7319C27.1503 19.6815 27.2438 19.6498 27.3425 19.6255C27.4411 19.603 27.542 19.5969 27.6411 19.599C27.7402 19.606 27.8376 19.6247 27.9273 19.6581C28.0165 19.6911 28.0992 19.7362 28.1651 19.7953C28.1996 19.8226 28.2306 19.8522 28.2548 19.8865C28.2815 19.9181 28.3048 19.9503 28.3207 19.9854C28.3621 20.0501 28.3741 20.1205 28.3914 20.1778C28.3961 20.2381 28.4052 20.2898 28.4039 20.3323C28.3961 20.4166 28.3918 20.4647 28.3918 20.4647C28.3918 20.4647 28.3858 20.4174 28.3759 20.3345C28.3707 20.2937 28.353 20.2464 28.3397 20.1925C28.3138 20.1422 28.2927 20.0831 28.2505 20.0306C28.2332 20.0019 28.2095 19.9763 28.1828 19.9524C28.1591 19.9255 28.1307 19.903 28.0988 19.8821C28.0389 19.837 27.9643 19.8057 27.8863 19.7801C27.8079 19.7545 27.7221 19.7467 27.6355 19.7401C27.5484 19.7401 27.4597 19.7471 27.3735 19.7684C27.2882 19.7875 27.2002 19.8161 27.127 19.8556C27.0903 19.8734 27.0524 19.8934 27.0141 19.9216C26.9731 19.9464 26.9464 19.9681 26.9137 19.9998C26.8482 20.0536 26.7921 20.1144 26.7408 20.1747C26.6896 20.2351 26.646 20.2972 26.6051 20.354C26.4482 20.5876 26.3711 20.7647 26.3711 20.7647H26.3715Z" fill="#231114"/>
<path d="M23.5712 20.2754C23.5806 20.3531 23.4501 20.4334 23.2794 20.4543C23.1092 20.4751 22.9631 20.4291 22.9536 20.3514C22.9441 20.2732 23.0747 20.1933 23.2454 20.1725C23.416 20.1517 23.5617 20.1977 23.5712 20.2754Z" fill="white"/>
<path d="M28.2334 20.3467C28.2166 20.4231 28.0666 20.4548 27.899 20.4166C27.7313 20.3788 27.6094 20.2863 27.6266 20.2095C27.6434 20.1331 27.7934 20.1018 27.961 20.1396C28.1287 20.1773 28.2506 20.2702 28.2334 20.3467Z" fill="white"/>
<path d="M26.6688 23.373C26.6688 23.373 26.3744 23.8992 25.5255 23.8992C25.36 23.8992 24.9174 23.8298 24.6562 23.373C24.6562 23.373 26.3688 23.4117 26.6688 23.373Z" fill="white"/>
<path d="M25.3792 15.8587C25.3792 15.8587 28.3933 16.1357 29.1824 20.2167C29.1824 20.2167 30.2727 19.0245 30.2727 20.3135C30.2727 20.3135 30.6127 17.0639 29.6987 15.1015C29.0341 13.6745 25.7361 12.3052 25.0733 13.9367C24.9255 14.3001 25.1134 15.3173 25.0733 15.8591H25.3788L25.3792 15.8587Z" fill="#742D17"/>
<path d="M27.3815 14.9938C28.7562 15.7149 30.5012 17.6734 30.2883 20.1207C30.3439 19.3978 30.4796 16.7795 29.6979 15.1011C29.0333 13.674 25.7353 12.3047 25.0725 13.9362C25.0643 13.9562 25.0574 13.9792 25.0514 14.0031C25.0428 14.0495 25.0346 14.0964 25.0272 14.1451C24.9772 14.5996 25.107 15.3997 25.0725 15.8591C25.0725 15.8591 25.9749 14.2571 27.3811 14.9947L27.3815 14.9938Z" fill="#8E4327"/>
<path d="M25.0693 15.8584C25.0693 15.8584 25.1322 15.2067 24.5953 15.472C23.5791 15.9743 21.5588 23.6023 23.1296 26.6497C23.1296 26.6497 20.8408 26.1656 20.3638 24.5597C19.8867 22.9542 19.894 16.4554 21.3537 14.9115C21.3537 14.9115 23.208 12.6253 24.6513 13.3386C25.7528 13.883 26.0726 14.0232 25.3292 15.8584H25.0689H25.0693Z" fill="#8E4327"/>
<path d="M30.2734 20.256C30.2765 20.2252 30.2799 20.1822 30.2842 20.1279C30.2803 20.1744 30.2769 20.2165 30.2734 20.256Z" fill="#8E4327"/>
<path d="M20.926 15.5879C20.7398 15.9943 20.589 16.5018 20.4688 17.0688C21.2397 17.3935 22.2404 17.7513 23.388 18.0131C23.5453 17.473 23.7129 16.9902 23.8797 16.5925C22.8885 16.4892 21.8874 16.184 20.926 15.5879Z" fill="#9F563E"/>
<path d="M28.5317 15.8372C29.1014 16.379 29.6276 17.0914 29.9564 17.9237C30.0693 17.8903 30.1826 17.8547 30.2956 17.8169C30.2357 16.9686 30.09 16.043 29.7745 15.2793C29.3944 15.4708 28.9773 15.6614 28.5312 15.8367L28.5317 15.8372Z" fill="#9F563E"/>
</g>
<defs>
<clipPath id="clip0_2370_36670">
<rect width="35" height="46" fill="white" transform="translate(16.5 10.5)"/>
</clipPath>
</defs>
</svg>
