<svg width="68" height="69" viewBox="0 0 68 69" fill="none" xmlns="http://www.w3.org/2000/svg">
<g clip-path="url(#clip0_2370_35965)">
<path d="M45.4425 44.9242C46.4551 51.3895 47.4676 57.8537 48.4802 64.3189C43.2257 64.2735 37.9713 64.2281 32.7169 64.1827C31.2956 57.621 30.4093 50.9431 30.0703 44.2374C35.1309 43.6248 40.2955 43.8906 45.4425 44.9242Z" fill="#919EBD"/>
<path d="M45.6326 38.9198L46.2275 45.918C40.7283 46.6591 35.1758 46.9361 30.5728 46.3633C30.739 43.0897 30.8741 39.9346 31.0082 36.7806C31.0315 35.4158 31.0591 34.0709 31.088 32.7382C30.4498 32.3925 29.7885 32.0901 29.1094 31.8331C29.3952 30.661 29.6888 29.4712 30.2859 28.4232C30.8708 27.3962 31.7959 26.5066 32.9402 26.2253C32.9447 26.223 32.9491 26.2219 32.9535 26.2197C35.0617 25.3456 37.2552 24.5879 39.4487 23.7061C41.1891 24.5558 42.8099 25.4897 44.4683 26.5687C46.1577 27.6687 47.4904 29.233 48.3047 31.0775C49.0835 32.8401 49.7958 34.6458 50.4395 36.5114C48.5528 37.4054 47.4417 37.966 45.6326 38.9198Z" fill="#5471A1"/>
<path d="M40.3878 24.2271C39.4461 24.7998 38.2962 25.4856 37.3679 26.0594C37.2383 26.3884 37.1873 26.6842 37.1352 26.9789C36.7563 26.5369 36.4129 26.065 36.1094 25.5698C36.1626 25.2086 36.198 24.8464 36.2179 24.4841C36.2545 23.8183 36.2346 23.1525 36.1592 22.4922C37.4299 22.6207 38.6518 22.4756 39.8306 22.171C39.9812 22.1322 40.133 22.0912 40.2826 22.0469C40.2826 22.0812 40.2814 22.1156 40.2826 22.1499C40.2803 22.387 40.2814 22.6163 40.2859 22.8323C40.297 23.4405 40.3313 23.9424 40.3878 24.2271Z" fill="#FFC5A3"/>
<path d="M40.2868 22.8323C39.816 23.4239 39.1934 23.8969 38.4932 24.1861C37.7776 24.4808 36.9855 24.5816 36.2189 24.4841C36.2554 23.8183 36.2355 23.1525 36.1602 22.4922C37.4308 22.6207 38.6528 22.4756 39.8315 22.171C39.981 22.1632 40.1317 22.1565 40.2835 22.1499C40.2813 22.387 40.2824 22.6163 40.2868 22.8323Z" fill="#402037"/>
<path d="M37.1379 26.979C37.1291 26.6123 37.1678 26.2822 37.2963 25.8679C38.3034 25.2508 39.3115 24.6338 40.3307 24.0333C40.3274 23.7763 40.2963 23.6024 40.3008 23.27C40.3107 23.2711 40.3218 23.2722 40.3318 23.2733C40.9211 23.3409 41.4507 23.66 41.7875 24.1485C41.8584 24.2516 41.9282 24.3557 41.9968 24.462C42.0988 24.6194 42.1143 24.8188 42.0312 24.9871C41.5338 25.9853 40.8835 26.9092 40.1202 27.7323C39.6339 26.9513 38.8495 26.362 38.0297 26.1138C37.6686 26.3863 37.3639 26.681 37.1379 26.979Z" fill="#6E95BA"/>
<path d="M33.832 27.2459C34.0115 26.3729 34.2885 25.4756 34.705 24.6747C34.921 24.2592 35.2977 23.949 35.7497 23.8316C35.9181 23.7873 36.0842 23.7496 36.2349 23.7075C36.2349 24.1351 36.2139 24.6647 36.1961 25.1266C36.1873 25.3493 36.2327 25.572 36.3357 25.7692C36.5706 26.2145 36.8675 26.528 37.1345 26.98C36.6758 26.6111 36.1718 26.3829 35.6777 26.0838C35.0241 26.2899 34.4225 26.6632 33.832 27.2459Z" fill="#6E95BA"/>
<path d="M44.7107 28.1157C43.2296 29.2479 42.566 31.201 42.5549 33.0655C42.5427 34.93 43.0955 36.7457 43.6417 38.5271" stroke="#303C6B" stroke-width="0.110783" stroke-miterlimit="10" stroke-linecap="round" stroke-linejoin="round"/>
<path d="M41.2578 31.2012C41.2611 32.7278 41.7165 34.1413 42.7645 35.2536" stroke="#303C6B" stroke-width="0.110783" stroke-miterlimit="10" stroke-linecap="round" stroke-linejoin="round"/>
<path d="M37.0363 27.0654C36.7959 27.5916 36.4735 28.0813 36.1002 28.5267C36.0814 29.6079 35.9695 30.6869 35.7656 31.7482" stroke="#303C6B" stroke-width="0.110783" stroke-miterlimit="10" stroke-linecap="round" stroke-linejoin="round"/>
<path d="M50.8969 40.7421C50.1868 43.4308 49.1333 46.0276 47.7684 48.4504C47.0971 47.614 46.4258 46.7765 45.8984 45.981C46.3626 44.8743 46.9376 43.1672 47.24 41.9574C46.9265 40.7277 46.8877 40.0132 46.428 38.8455C46.3859 38.7403 46.3405 38.6295 46.2906 38.5154C47.702 37.8164 48.3445 37.4973 49.87 36.7783C49.9919 37.1594 50.1049 37.5438 50.2101 37.9294C50.4682 38.861 50.6887 39.8027 50.8969 40.7421Z" fill="#FFC5A3"/>
<path d="M50.2086 37.9294C48.9478 38.2351 47.6871 38.5398 46.4264 38.8455C46.3843 38.7403 46.3389 38.6295 46.2891 38.5154C47.7004 37.8164 48.343 37.4973 49.8684 36.7783C49.9903 37.1594 50.1033 37.5438 50.2086 37.9294Z" fill="#402037"/>
<path d="M33.8293 18.6742C34.4011 18.6133 34.9262 19.1409 35.002 19.8528C35.0778 20.5646 34.6756 21.1911 34.1038 21.252C33.5319 21.313 33.0068 20.7853 32.931 20.0734C32.8553 19.3616 33.2574 18.7352 33.8293 18.6742Z" fill="#F29F83"/>
<path d="M33.2812 19.4507C33.4098 19.413 33.5493 19.454 33.6557 19.5337C33.762 19.6135 33.8396 19.7298 33.9038 19.8495C34.0102 20.0489 34.0844 20.2671 34.1221 20.492" stroke="#D1524B" stroke-width="0.110783" stroke-miterlimit="10" stroke-linecap="round"/>
<path d="M33.3398 20.3969C33.4684 20.1698 33.6788 19.9948 33.917 19.915" stroke="#D1524B" stroke-width="0.110783" stroke-miterlimit="10" stroke-linecap="round"/>
<path d="M33.9453 20.1535V17.6055C33.9453 15.525 35.6314 13.8389 37.7119 13.8389C39.7924 13.8389 41.4785 15.525 41.4785 17.6055V20.1535C41.4785 22.234 39.7924 23.9201 37.7119 23.9201C35.6314 23.9201 33.9453 22.2329 33.9453 20.1535Z" fill="#FFC5A3"/>
<path d="M33.1589 14.4082C32.9374 14.2819 32.7513 14.0935 32.6261 13.8709C33.0482 13.564 33.56 13.3801 34.0818 13.3491L33.7694 13.0056C34.1637 12.8904 34.5825 12.8572 34.9902 12.9093C34.927 12.7675 34.7697 12.6002 34.6135 12.4318C36.1833 11.8446 38.0112 11.9964 39.4625 12.8361L39.4292 12.4706C39.8967 12.6777 40.2391 13.1452 40.2945 13.6537C40.5493 13.2837 40.9315 13.0865 41.3159 13.0921L41.06 13.461C41.4333 13.3413 41.851 13.3657 42.2077 13.5296C41.9795 13.5795 41.7679 13.7002 41.6094 13.872C41.9518 13.9296 42.2575 14.1678 42.3971 14.4857C42.2597 14.4824 42.1224 14.4791 41.9861 14.4757C42.1512 14.4879 42.3661 14.6552 42.458 14.8601C42.55 15.0651 42.5467 15.2977 42.5411 15.5215C42.5134 16.626 42.4647 17.7505 42.0958 18.7907C41.8166 19.0976 41.5917 19.3457 41.3679 19.5939C41.0699 19.1408 40.8384 18.5614 40.6113 17.9731C40.577 17.8834 40.5216 17.8036 40.4894 17.7128C40.1925 16.8542 40.0696 16.1485 39.8281 15.2335C38.266 15.1061 36.3595 15.2423 34.8561 15.3697C34.5947 15.7431 34.4861 16.235 34.3177 16.759C34.2103 17.0913 34.1405 17.4336 34.1039 17.7815C34.0485 18.3121 33.9965 18.7121 33.961 19.3557C33.2675 17.7084 33.0116 16.7335 32.3813 15.7309L33.231 15.5824C32.9185 15.3033 32.5585 15.0773 32.1719 14.9178C32.4389 14.7228 32.7424 14.5754 33.1589 14.4082Z" fill="#402037"/>
<path d="M42.7513 20.021C42.8271 19.3092 42.4249 18.6827 41.853 18.6218C41.2811 18.5609 40.756 19.0886 40.6802 19.8005C40.6044 20.5123 41.0066 21.1387 41.5785 21.1996C42.1504 21.2605 42.6755 20.7329 42.7513 20.021Z" fill="#FFC5A3"/>
<path d="M42.4033 19.4023C42.2748 19.3646 42.1352 19.4056 42.0289 19.4854C41.9225 19.5652 41.845 19.6815 41.7807 19.8011C41.6744 20.0005 41.6002 20.2188 41.5625 20.4437" stroke="#D1524B" stroke-width="0.110783" stroke-miterlimit="10" stroke-linecap="round"/>
<path d="M42.3428 20.3481C42.2143 20.121 42.0038 19.946 41.7656 19.8662" stroke="#D1524B" stroke-width="0.110783" stroke-miterlimit="10" stroke-linecap="round"/>
<path d="M37.9336 17.1938C38.2083 16.9579 38.5861 16.846 38.945 16.8936C39.304 16.9412 39.6385 17.1484 39.8424 17.4486C39.2718 17.1573 38.6049 17.0598 37.9336 17.1938Z" fill="#3E1F35"/>
<path d="M36.2631 17.2494C36.0039 17.0034 35.6782 16.8095 35.3226 16.783C34.967 16.7564 34.5837 16.9281 34.4297 17.2505C34.9891 17.0178 35.6494 17.0344 36.2631 17.2494Z" fill="#3E1F35"/>
<path d="M36.5586 17.4922C36.7358 17.6894 36.8699 17.9242 36.9818 18.2477C36.943 18.8892 36.82 19.5262 36.6328 20.1476C36.8976 20.3393 37.2632 20.3814 37.5656 20.2562" stroke="#D1524B" stroke-width="0.110783" stroke-miterlimit="10" stroke-linecap="round" stroke-linejoin="round"/>
<path d="M39.0193 20.832C38.1618 21.0647 37.27 21.1334 36.4037 21.1023C36.3694 21.3904 36.5067 21.6828 36.7117 21.8623C36.9166 22.0429 37.1792 22.1249 37.4395 22.1515C37.8051 22.1891 38.1884 22.1193 38.4931 21.8911C38.7977 21.6629 39.0104 21.2641 39.0193 20.832Z" fill="#911F34"/>
<path d="M38.1055 19.1733C38.2052 18.8986 38.4544 18.6825 38.7403 18.6227C39.0272 18.5629 39.3407 18.6615 39.5423 18.8742C39.0449 18.7955 38.5176 18.9119 38.1055 19.1733Z" fill="#402037"/>
<path d="M36.304 19.1845C36.201 18.912 35.9551 18.6993 35.6704 18.6372C35.3857 18.5752 35.0732 18.6672 34.8672 18.8732C35.0843 18.8067 35.3192 18.8245 35.5385 18.8843C35.7579 18.9441 35.9662 18.9685 36.304 19.1845Z" fill="#402037"/>
<path d="M38.1039 35.9819C37.6087 36.5469 37.5223 37.3579 37.5289 38.109C37.5356 38.8601 37.6098 39.6367 37.3561 40.3434C37.18 40.8331 36.8565 41.2596 36.6803 41.7493C36.5042 42.2389 36.5219 42.8649 36.9285 43.1895C36.8786 42.9723 36.9429 42.7319 37.0947 42.5669C37.0592 43.5683 37.5478 44.5742 38.3587 45.1636C39.1685 45.753 40.2763 45.9092 41.218 45.5668C41.1006 44.3183 41.1803 43.051 41.454 41.8268C41.5382 41.4513 41.639 41.0513 41.5038 40.6913C41.4285 40.4908 41.2856 40.3235 41.1449 40.1607C40.2752 39.1536 39.4067 38.1455 38.1039 35.9819Z" fill="#402037"/>
<path d="M49.2103 53.417C50.2461 55.903 51.2831 58.3889 52.4164 61.0831C49.084 63.0396 45.0781 63.8239 41.2539 63.2711C41.3658 60.6156 41.4777 57.9602 41.5896 55.3036C44.2096 55.2648 46.8218 54.8306 49.2103 53.417Z" fill="#F7C859"/>
<path d="M41.1977 55.9787L40.3845 47.5592C40.0965 47.4517 39.8949 47.4096 39.6933 47.3675C39.6124 46.3007 39.7653 45.2893 40.0777 44.3365C40.3303 43.5666 40.9329 42.9551 41.7051 42.7091C42.4274 42.4787 43.2826 42.3347 44.2597 42.3081C46.831 45.7966 48.5559 49.9344 49.7279 54.1785C47.1312 55.5876 44.1423 56.2711 41.1977 55.9787Z" fill="#F2575C"/>
<path d="M38.8086 50.8661C39.5885 51.3702 40.4116 51.8067 41.2669 52.1711C41.7111 52.3606 42.2262 52.1445 42.3935 51.6914C42.8023 50.5858 42.8943 49.4149 43.1302 48.2561C42.1487 47.5659 41.4175 47.3576 40.2632 47.516C40.2831 48.1508 40.2432 48.8344 40.2632 49.4658L38.8684 48.7668C38.8518 49.3894 38.8363 50.012 38.8086 50.8661Z" fill="#FFB898"/>
<path d="M43.1562 43.9453C43.6825 45.3511 43.7423 46.9265 43.3235 48.3678" stroke="#80263D" stroke-width="0.110783" stroke-miterlimit="10" stroke-linecap="round" stroke-linejoin="round"/>
<path d="M43.5 47.5169C43.9398 47.1325 44.2544 46.6052 44.3818 46.0347" stroke="#80263D" stroke-width="0.110783" stroke-miterlimit="10" stroke-linecap="round" stroke-linejoin="round"/>
<path d="M38.3966 36.6904C38.1152 37.878 37.969 39.0988 38.0421 40.3008C38.1064 41.3533 38.811 42.275 39.8213 42.5774C40.1403 42.6727 40.4727 42.7303 40.8028 42.7524C41.0432 42.7691 41.2825 42.7691 41.5229 42.7569C42.9143 42.6827 44.0687 41.6745 44.3634 40.313C44.6536 38.9714 44.7844 37.5944 44.75 36.2218C43.5857 35.4076 42.1511 34.9855 40.7308 35.0387C40.2223 35.0575 39.7016 35.1417 39.2641 35.4009C38.8243 35.6601 38.5296 36.1321 38.3966 36.6904Z" fill="#FFB898"/>
<path d="M41.4297 39.7589C41.5615 39.5462 41.7997 39.4022 42.0501 39.3867C42.3004 39.3712 42.5552 39.4831 42.7114 39.678C42.3148 39.6481 41.9127 39.6758 41.4297 39.7589Z" fill="#402037"/>
<path d="M39.7704 39.5937C39.6353 39.3943 39.4746 39.196 39.252 39.1052C39.0282 39.0144 38.7291 39.0709 38.6172 39.2847C38.9927 39.3135 39.3616 39.4242 39.7704 39.5937Z" fill="#402037"/>
<path d="M41.5938 38.3821C41.8131 38.247 42.0889 38.196 42.336 38.268C42.583 38.34 42.7946 38.545 42.85 38.7965C42.6196 38.4641 42.1809 38.2913 41.5938 38.3821Z" fill="#402037"/>
<path d="M39.8108 38.2646C39.6967 38.1571 39.5815 38.0497 39.4475 37.9677C39.3134 37.8868 39.1583 37.8325 39.0021 37.8425C38.8459 37.8525 38.6897 37.9344 38.6133 38.0718C38.9733 37.9477 39.3899 38.0009 39.8108 38.2646Z" fill="#402037"/>
<path d="M40.175 39.625C40.1662 39.748 40.0997 39.8665 40 39.9396C40.0244 40.046 40.0942 40.1424 40.1883 40.1977" stroke="#D1524B" stroke-width="0.110783" stroke-miterlimit="10" stroke-linecap="round" stroke-linejoin="round"/>
<path d="M41.6928 40.8647C41.0791 40.9933 40.4332 40.9755 39.8383 40.9279C39.7674 41.1184 39.8494 41.3411 40.0001 41.4818C40.1507 41.6225 40.3568 41.6923 40.5617 41.7255C40.8542 41.7732 41.171 41.7521 41.4236 41.6003C41.6751 41.4475 41.8457 41.1461 41.6928 40.8647Z" fill="#911F34"/>
<g opacity="0.5608">
<path d="M42.7073 40.7415C43.0591 40.7415 43.3443 40.5555 43.3443 40.3261C43.3443 40.0966 43.0591 39.9106 42.7073 39.9106C42.3555 39.9106 42.0703 40.0966 42.0703 40.3261C42.0703 40.5555 42.3555 40.7415 42.7073 40.7415Z" fill="#F58682"/>
<path d="M38.0305 39.8148C38.0652 39.588 38.3753 39.4473 38.723 39.5005C39.0708 39.5537 39.3246 39.7808 39.2898 40.0075C39.2551 40.2343 38.945 40.375 38.5973 40.3218C38.2496 40.2687 37.9958 40.0417 38.0305 39.8148Z" fill="#F58682"/>
</g>
<path d="M40.5858 35.9522C41.245 37.2938 41.9905 38.1967 43.6412 38.5279C43.6412 39.4208 44.0566 41.0039 42.2819 43.2229C42.6663 43.2672 43.2878 43.1088 43.6944 43.0645C43.6445 43.8233 43.9425 44.5966 44.4876 45.1272C45.0326 45.6568 45.8148 45.9326 46.5714 45.8628C46.7376 44.9212 46.9037 43.9806 47.0699 43.039C47.0666 43.4179 47.4233 43.7591 47.8011 43.7414C47.3303 42.299 47.1962 40.7713 46.8949 39.2835C46.5936 37.7956 46.0906 36.2868 45.0348 35.1967C43.9791 34.1066 42.2564 33.5482 40.8262 34.2783C39.9854 34.1996 39.1168 34.5021 38.5075 35.0859C37.8982 35.6697 37.5581 36.525 37.6013 37.368C37.7575 37.2262 37.9148 37.0844 38.071 36.9426C38.0821 37.3869 38.0223 37.573 38.3713 37.8488C38.913 37.0279 39.5777 36.3134 40.5858 35.9522Z" fill="#402037"/>
<path d="M46.7617 45.7812C46.1258 45.9851 45.4767 46.1435 44.8319 46.3407C44.617 46.4061 44.4165 46.5146 44.2447 46.6598L42.562 48.0855C42.4611 48.1708 42.3482 48.2827 42.4224 48.4278C42.4667 48.5132 42.562 48.5619 42.6572 48.5597C43.2078 48.5442 43.7529 48.3769 44.2182 48.0833L42.86 51.8499C42.8145 51.9751 42.8345 52.1202 42.9287 52.2144C43.1081 52.395 43.3795 52.2166 43.5424 52.0416C44.0697 51.471 44.5095 50.8185 44.8396 50.1151C44.72 50.7554 44.5195 51.2162 44.2935 51.7624C44.2038 51.9806 44.2603 52.2432 44.4508 52.3828C44.5826 52.4792 44.7555 52.4858 45.0656 52.1756C44.997 52.3551 45.2252 52.4703 45.4235 52.4304C45.6218 52.3905 45.953 52.19 45.984 51.9895C46.1591 52.0925 46.3917 52.0427 46.5535 51.9208C46.7152 51.799 46.8216 51.6184 46.9157 51.4389C47.4818 50.3688 47.8153 49.1778 47.8851 47.9692C47.5693 47.2702 47.2525 46.5745 46.7617 45.7812Z" fill="#FFC5A3"/>
<path d="M45.1719 52.0661C45.5098 51.4646 45.7756 50.8242 45.964 50.1606" stroke="#D1524B" stroke-width="0.110783" stroke-miterlimit="10" stroke-linecap="round"/>
<path d="M46.0625 51.8422C46.3948 51.3271 46.6264 50.7466 46.7405 50.145" stroke="#D1524B" stroke-width="0.110783" stroke-miterlimit="10" stroke-linecap="round"/>
<path d="M33.528 65.5252C33.0173 58.7043 32.5077 51.8835 31.8939 45.1999C28.2159 45.1479 24.538 45.0969 20.7104 44.9795C19.8507 51.0603 19.9582 57.2764 21.0261 63.324C21.1037 63.7627 21.2012 64.2302 21.5191 64.5415C21.8847 64.9004 22.442 64.9591 22.9538 64.9979C26.172 65.2416 29.3891 65.4831 33.528 65.5252Z" fill="#6E95BA"/>
<path d="M21.2483 29.3515C21.204 27.5801 21.8343 25.7987 22.9831 24.4494C22.4746 24.3829 22.0182 24.0838 21.8111 23.5842C22.992 23.3294 24.1729 23.0746 25.5345 22.8408C26.2147 25.0343 26.6866 27.291 26.9436 29.5731C25.0869 29.6407 23.2269 29.572 21.2483 29.3515Z" fill="#402037"/>
<path d="M32.3868 46.0831L31.6434 40.0665C31.578 39.538 31.5747 39.0052 31.6323 38.4756C31.7575 37.3368 31.8949 36.0949 32.0356 34.8253C32.1364 33.9202 32.0378 33.003 31.7431 32.1411C31.2922 30.8216 30.8945 29.5787 30.5101 28.3567C30.2376 27.4904 29.5751 26.8036 28.721 26.4934C27.4425 26.0303 26.1353 25.8043 24.8203 25.7622C23.9097 26.2364 23.0013 26.7626 22.105 27.3143C20.8255 28.1042 19.8251 29.2751 19.2612 30.6699C18.7937 31.8276 18.3561 33.0284 17.9219 34.3047C18.7195 35.1023 19.988 36.0628 21.3019 36.4184C21.3019 40.031 20.9097 42.0295 20.4666 45.7075C24.1733 47.0214 28.6789 47.3493 32.3868 46.0831Z" fill="#9D91BA"/>
<path d="M22.2446 29.1279C23.3358 31.4965 23.3158 34.3502 22.1914 36.7032" stroke="#41395E" stroke-width="0.110783" stroke-miterlimit="10" stroke-linecap="round" stroke-linejoin="round"/>
<path d="M24.1211 32.2397C23.9716 33.1858 23.5218 34.0821 22.8516 34.7667" stroke="#41395E" stroke-width="0.110783" stroke-miterlimit="10" stroke-linecap="round" stroke-linejoin="round"/>
<path d="M28.0589 27.9299C28.0245 28.4805 27.8041 29.0698 27.3155 29.3246C26.8812 29.5528 26.3495 29.4609 25.8886 29.2958C24.7099 28.8737 23.6475 27.9664 23.0703 26.8564C23.3916 26.5628 23.7627 26.3291 24.0142 26.0167C24.043 25.7785 24.0629 25.5536 24.0729 25.3365V25.3353C24.0917 24.9653 24.0829 24.6197 24.0518 24.2807C24.0474 24.2242 24.0419 24.1688 24.0352 24.1123C24.197 24.1821 24.3587 24.2464 24.5205 24.3073C25.2959 24.5964 26.0814 24.7914 26.8668 24.9864C26.9732 25.013 27.0884 25.044 27.1582 25.1304C27.2656 25.2644 27.2147 25.4594 27.2236 25.6311C27.2346 25.8527 27.3709 26.0543 27.5581 26.1695C27.6877 26.2072 27.7686 26.2216 27.9414 26.2726C28.0666 26.9461 28.0921 27.3804 28.0589 27.9299Z" fill="#FFC5A3"/>
<path d="M27.561 26.1691C26.3534 26.3508 25.0717 26.0417 24.0757 25.336V25.3349C24.0946 24.9649 24.0857 24.6193 24.0547 24.2803C24.2109 24.2925 24.3671 24.3013 24.5233 24.3069C25.2988 24.596 26.0842 24.791 26.8697 24.986C26.976 25.0125 27.0912 25.0436 27.161 25.13C27.2685 25.264 27.2175 25.459 27.2264 25.6307C27.2375 25.8523 27.3737 26.0539 27.561 26.1691Z" fill="#402037"/>
<path d="M21.4251 36.4039C21.4052 36.4704 21.3841 36.538 21.3642 36.6055C21.0307 37.72 20.7206 38.9165 20.3993 39.96C20.0503 42.179 19.8011 43.9238 19.7922 46.1772C19.0832 46.4408 18.3731 46.7034 17.6242 47.0823C17.3461 44.8611 17.1146 42.9368 17.098 40.8275C17.0891 39.713 17.273 38.6063 17.6253 37.5483C17.8291 36.9379 18.0418 36.3242 18.2335 35.7082C18.3288 35.4024 18.4196 35.0945 18.4994 34.7876C19.3546 35.5852 20.3572 36.0406 21.4251 36.4039Z" fill="#FFC5A3"/>
<path d="M21.426 36.4039C21.4061 36.4704 21.385 36.538 21.3651 36.6055C20.275 36.5213 19.2026 36.2145 18.2344 35.7082C18.3296 35.4024 18.4205 35.0945 18.5003 34.7876C19.3555 35.5852 20.3581 36.0406 21.426 36.4039Z" fill="#402037"/>
<path d="M29.7621 20.0429C30.3353 19.996 30.8472 20.5365 30.9055 21.25C30.9638 21.9634 30.5463 22.5798 29.973 22.6265C29.3998 22.6734 28.8879 22.1329 28.8296 21.4195C28.7714 20.706 29.1889 20.0896 29.7621 20.0429Z" fill="#F29F83"/>
<path d="M30.4455 20.7048C30.3125 20.6915 30.1829 20.758 30.0932 20.8566C30.0034 20.9552 29.9492 21.0837 29.9082 21.2133C29.8406 21.4282 29.8085 21.6564 29.8129 21.8858" stroke="#D1524B" stroke-width="0.110783" stroke-miterlimit="10" stroke-linecap="round"/>
<path d="M30.5632 21.6454C30.3948 21.4471 30.1555 21.313 29.9062 21.2798" stroke="#D1524B" stroke-width="0.110783" stroke-miterlimit="10" stroke-linecap="round"/>
<path d="M22.5029 22.8085L22.0277 20.3048C21.6399 18.2609 22.9815 16.29 25.0254 15.9012C27.0694 15.5135 29.0402 16.855 29.4291 18.899L29.9043 21.4027C30.292 23.4466 28.9505 25.4174 26.9065 25.8063C24.8626 26.194 22.8907 24.8524 22.5029 22.8085Z" fill="#FFC5A3"/>
<path d="M22.2925 22.4353C23.12 22.1362 23.6208 21.2942 23.9188 20.4667C24.2168 19.6391 24.3885 18.7495 24.8737 18.0151C25.3589 17.2817 26.1865 16.71 27.1525 17.1033C27.2345 16.9227 27.3896 16.7278 27.7729 16.9416C28.0476 17.0945 28.8176 17.9552 29.7559 20.6184C30.3087 19.422 30.3087 17.8323 29.6894 16.669C29.3449 16.0232 28.8187 15.4571 28.1496 15.1602C27.4804 14.8633 26.664 14.8622 25.9804 15.2987C24.8948 14.716 23.4911 14.778 22.4609 15.4549C21.517 16.0753 20.9287 17.1354 20.6684 18.2344C20.4081 19.3334 20.4435 20.48 20.5233 21.6066C20.5477 21.9501 20.5776 22.3012 20.7249 22.6114C20.8722 22.9216 21.1625 23.1886 21.5048 23.2085C21.702 22.9936 21.8017 22.6125 22.2925 22.4353Z" fill="#402037"/>
<path d="M21.7135 21.7664C22.264 21.5999 22.8784 22.0203 23.0856 22.7055C23.2929 23.3907 23.0147 24.0812 22.4643 24.2477C21.9138 24.4142 21.2994 23.9938 21.0921 23.3086C20.8847 22.6234 21.1629 21.9329 21.7135 21.7664Z" fill="#FFC5A3"/>
<path d="M21.3203 22.6334C21.4388 22.5725 21.584 22.5858 21.7036 22.6456C21.8233 22.7043 21.9208 22.804 22.0061 22.9093C22.1479 23.0854 22.2609 23.2859 22.3406 23.4998" stroke="#D1524B" stroke-width="0.110783" stroke-miterlimit="10" stroke-linecap="round"/>
<path d="M21.5547 23.5518C21.6389 23.3048 21.8128 23.0932 22.0322 22.9702" stroke="#D1524B" stroke-width="0.110783" stroke-miterlimit="10" stroke-linecap="round"/>
<path d="M27.6373 23.1643C26.9782 23.2684 26.2969 23.2219 25.5823 23.0059C25.5214 23.3692 25.6975 23.757 25.9933 23.9553C26.2891 24.1536 26.6857 24.1624 27.0003 23.9985C27.315 23.8356 27.5432 23.511 27.6373 23.1643Z" fill="#911F34"/>
<path d="M26.8867 21.5605C27.0717 21.8109 27.1238 22.1444 27.0219 22.4335" stroke="#D1524B" stroke-width="0.110783" stroke-miterlimit="10" stroke-linecap="round"/>
<path d="M25.4275 20.0891C25.1572 19.8875 24.7706 19.8554 24.4715 20.0094C24.1712 20.1634 23.9729 20.4968 23.9807 20.8336C24.2864 20.4436 24.7761 20.2032 25.4275 20.0891Z" fill="#3E1F35"/>
<path d="M27.4922 19.8665C27.5996 19.5629 27.901 19.3369 28.2234 19.3203C28.5457 19.3037 28.8681 19.4965 29.0066 19.7878C28.5214 19.6183 27.9697 19.646 27.4922 19.8665Z" fill="#3E1F35"/>
<g opacity="0.549">
<path d="M24.4417 23.3359C24.8345 23.3359 25.1529 23.1127 25.1529 22.8374C25.1529 22.5621 24.8345 22.3389 24.4417 22.3389C24.0489 22.3389 23.7305 22.5621 23.7305 22.8374C23.7305 23.1127 24.0489 23.3359 24.4417 23.3359Z" fill="#F58682"/>
<path d="M28.6109 21.647C28.9821 21.5188 29.356 21.6257 29.446 21.8859C29.5359 22.1461 29.308 22.4611 28.9367 22.5894C28.5655 22.7176 28.1916 22.6107 28.1016 22.3505C28.0117 22.0903 28.2397 21.7753 28.6109 21.647Z" fill="#F58682"/>
</g>
<path d="M27.5236 21.5493C27.517 21.2945 27.6699 21.0419 27.8981 20.93C28.1274 20.8181 28.4199 20.8514 28.6171 21.012C28.2349 21.0497 27.8671 21.2291 27.5236 21.5493Z" fill="#402037"/>
<path d="M25.6979 21.7689C25.5483 21.637 25.3799 21.5163 25.185 21.4376C24.99 21.359 24.7629 21.3257 24.5535 21.3711C24.3441 21.4166 24.1558 21.5484 24.0938 21.7245C24.5236 21.6215 24.9966 21.6492 25.6979 21.7689Z" fill="#402037"/>
<path d="M41.0679 65.5034C37.0564 65.1887 33.5768 65.1212 30.1292 64.7489C30.0783 62.0248 30.0251 59.3006 29.9741 56.5765C29.9641 56.0724 29.9553 55.5684 29.9453 55.0643C33.1924 54.866 36.3663 55.2017 39.3286 56.1799C39.5047 56.7947 39.6654 57.404 39.8127 58.0089C40.4298 60.5569 40.7998 63.0252 41.0679 65.5034Z" fill="#423336"/>
<path d="M39.8127 58.0089C36.4815 58.2393 33.1026 57.7464 29.9741 56.5765C29.9641 56.0724 29.9553 55.5684 29.9453 55.0643C33.1924 54.866 36.3663 55.2017 39.3286 56.1799C39.5047 56.7947 39.6654 57.404 39.8127 58.0089Z" fill="#291E22"/>
<path d="M40.0252 57.5345C39.571 57.5656 39.1112 57.5157 38.6736 57.3894L38.1109 56.2517C37.9414 56.7114 37.8572 57.0427 37.773 57.3728C35.1098 57.457 32.4344 57.1557 29.8553 56.4832C29.6039 52.8717 29.3601 49.3023 29.1918 45.7395C29.1264 44.3558 29.8177 43.0442 30.9986 42.3197C31.28 42.1468 31.5636 41.984 31.8439 41.8311C32.718 41.3514 33.7172 41.1454 34.7098 41.2428C35.2061 41.2916 35.7102 41.3614 36.2242 41.4578C37.5237 41.7004 38.6105 42.5877 39.1278 43.8041C39.6541 45.0438 40.0473 46.3521 40.3033 47.7137C39.849 47.8676 39.3948 48.0205 38.9207 48.2133C39.5843 51.2487 39.9454 54.3495 40.0252 57.5345Z" fill="#E8A343"/>
<path d="M36.6775 42.7075C36.0782 44.6595 36.1901 46.8209 36.9888 48.6998" stroke="#A85220" stroke-width="0.110783" stroke-miterlimit="10" stroke-linecap="round" stroke-linejoin="round"/>
<path d="M31.7729 43.1836C31.7042 43.3387 31.6367 43.4938 31.5547 43.7109C31.6245 44.1906 31.6932 44.6703 31.763 45.1511" stroke="#A85220" stroke-width="0.110783" stroke-miterlimit="10" stroke-linecap="round" stroke-linejoin="round"/>
<path d="M34.5727 41.4035C33.7462 42.0937 32.8201 42.6642 31.8308 43.0885C31.6369 42.8592 31.36 42.5756 31.4641 41.9984C31.4818 41.8987 31.4973 41.7979 31.5084 41.6971C31.566 41.2218 31.5538 40.7388 31.4752 40.2669C31.4663 40.2159 31.4564 40.1638 31.4464 40.1129C32.4368 40.0486 33.3275 39.8082 34.1938 39.498C34.2049 39.5734 34.2182 39.6509 34.2326 39.7296C34.2603 39.8869 34.2924 40.0509 34.3267 40.2215C34.3998 40.5837 34.4874 40.977 34.5727 41.4035Z" fill="#FFB898"/>
<path d="M34.3281 40.2214C34.019 40.6523 33.6136 41.0146 33.1483 41.2683C32.6486 41.5408 32.0803 41.6881 31.5098 41.697C31.5674 41.2217 31.5552 40.7387 31.4766 40.2668C32.3817 40.1449 33.2901 39.9776 34.2339 39.7295C34.2616 39.8868 34.2938 40.0508 34.3281 40.2214Z" fill="#402037"/>
<path d="M31.8438 43.0929C32.0033 42.7782 32.1617 42.4636 32.2448 42.19C32.8918 41.9828 33.5033 41.6615 34.0395 41.245C34.2488 41.0833 34.466 40.8484 34.3829 40.5825C35.0299 40.6579 35.6369 41.0268 35.9405 41.4943C35.5051 42.4005 34.8072 43.1793 33.9298 43.7155C33.7836 43.2358 33.4379 42.8192 33.0125 42.5489C32.7223 42.8225 32.3578 43.0164 31.8438 43.0929Z" fill="#FFE896"/>
<path d="M31.8317 43.1241C31.4849 42.6355 31.5425 41.8601 31.5425 41.2209C31.3431 41.1688 31.1459 41.2729 30.9089 41.3815C30.2419 41.9952 29.7667 42.815 29.6094 43.6503C29.8808 43.3224 30.2386 43.0654 30.6496 42.8527C31.0529 42.9158 31.4473 43.0377 31.8317 43.1241Z" fill="#FFE896"/>
<path d="M28.5375 38.1481C28.9865 37.9579 29.5425 38.2568 29.7792 38.8157C30.0159 39.3746 29.8438 39.9818 29.3948 40.172C28.9458 40.3622 28.3899 40.0633 28.1531 39.5044C27.9164 38.9455 28.0885 38.3382 28.5375 38.1481Z" fill="#F29F83"/>
<path d="M28.2812 38.9168C28.3754 38.8548 28.4995 38.8537 28.6058 38.8924C28.7122 38.9312 28.8041 39.0054 28.885 39.0874C29.0202 39.2226 29.1343 39.3821 29.2207 39.5549" stroke="#D1524B" stroke-width="0.110783" stroke-miterlimit="10" stroke-linecap="round"/>
<path d="M28.5625 39.6702C28.6112 39.4542 28.7386 39.2603 28.9126 39.1362" stroke="#D1524B" stroke-width="0.110783" stroke-miterlimit="10" stroke-linecap="round"/>
<path d="M28.1328 35.5761C28.2702 36.705 28.5073 37.8206 28.8773 38.9317C29.378 40.4328 30.909 41.3512 32.4666 41.0698C32.7957 41.01 33.1214 40.9236 33.4382 40.8117C34.7288 40.3531 35.491 39.0159 35.2617 37.6655C35.0401 36.3594 34.7244 35.0599 34.2979 33.7626C33.2753 33.1456 32.0047 32.9539 30.8448 33.2408C29.6871 33.5289 28.6535 34.2922 28.1328 35.5761Z" fill="#FFB898"/>
<path d="M35.7532 37.4319C35.761 36.672 35.7676 35.9043 35.6081 35.1609C35.4486 34.4176 35.1063 33.6897 34.5224 33.2034C33.9763 32.7481 33.2673 32.5387 32.5682 32.4091C31.6654 32.2429 30.7049 32.1986 29.8563 32.5498C28.795 32.9885 28.035 34.0354 27.8467 35.1687C27.6584 36.302 28.0129 37.6413 28.7617 38.5675C28.6233 37.6768 28.5668 36.6243 28.6188 35.6583C29.7809 35.6018 30.8921 34.9039 31.4671 33.8692C31.6964 34.381 32.2082 34.7543 32.7643 34.8175C32.6281 34.5904 32.545 34.3323 32.5228 34.0686C32.751 34.5029 33.1731 34.8308 33.583 34.9748C33.9353 36.0006 34.487 36.9578 35.1971 37.7765C35.3334 37.6591 35.4696 37.5405 35.7532 37.4319Z" fill="#402037"/>
<path d="M34.6709 37.5551C34.77 36.9564 35.2404 36.5355 35.7215 36.6151C36.2027 36.6948 36.5122 37.2448 36.413 37.8436C36.3139 38.4424 35.8435 38.8633 35.3624 38.7836C34.8812 38.704 34.5716 38.1539 34.6709 37.5551Z" fill="#FFB898"/>
<path d="M36.1472 37.3035C36.0409 37.2647 35.9201 37.2924 35.8259 37.3555C35.7318 37.4187 35.6598 37.5117 35.5999 37.6103C35.5002 37.7732 35.4271 37.9549 35.3828 38.1443" stroke="#D1524B" stroke-width="0.110783" stroke-miterlimit="10" stroke-linecap="round"/>
<path d="M36.0512 38.101C35.9537 37.9027 35.7842 37.7443 35.5859 37.6646" stroke="#D1524B" stroke-width="0.110783" stroke-miterlimit="10" stroke-linecap="round"/>
<path d="M32.2148 37.1892C32.2525 36.9743 32.3954 36.7804 32.5882 36.6785C32.7821 36.5777 33.0224 36.5721 33.2208 36.663C32.8651 36.7704 32.5317 36.951 32.2148 37.1892Z" fill="#402037"/>
<path d="M30.4392 37.6568C30.2719 37.5172 30.0647 37.423 29.8553 37.4418C29.646 37.4607 29.441 37.6147 29.3867 37.8384C29.6692 37.6856 29.9927 37.6235 30.4392 37.6568Z" fill="#402037"/>
<path d="M31.8438 35.6139C31.9523 35.3813 32.1949 35.2173 32.4508 35.204C32.7067 35.1907 32.966 35.327 33.0989 35.5463C32.7234 35.4123 32.2991 35.4278 31.8438 35.6139Z" fill="#402037"/>
<path d="M30.0475 36.1235C29.8115 36.0371 29.5379 36.015 29.3185 36.1346C29.0981 36.2543 28.964 36.5456 29.0748 36.7694C29.3086 36.4548 29.6642 36.2321 30.0475 36.1235Z" fill="#402037"/>
<path d="M31.0745 37.4785C30.843 37.6846 30.8796 38.1144 31.1521 38.2629" stroke="#D1524B" stroke-width="0.110783" stroke-miterlimit="10" stroke-linecap="round"/>
<path d="M31.1758 39.1347C31.7795 39.251 32.4398 38.9862 32.7943 38.4844" stroke="#D1524B" stroke-width="0.110783" stroke-miterlimit="10" stroke-linecap="round"/>
<path d="M26.0663 64.2932C25.7594 61.8061 25.3506 59.3313 24.8045 57.1876C22.6364 56.4609 20.3455 56.0886 17.9836 55.9092C17.5582 58.8383 17.9304 61.8737 19.0526 64.6211C21.3713 64.8283 23.7121 64.7784 26.0663 64.2932Z" fill="#3A5385"/>
<path d="M21.0156 57.1465C21.112 59.7355 21.5441 62.3123 22.2952 64.7927" stroke="#252E57" stroke-width="0.110783" stroke-miterlimit="10"/>
<path d="M24.2911 45.0003C24.2512 45.4423 24.239 45.8877 24.2534 46.3308C23.1998 45.9054 22.1452 45.4811 21.1094 44.7777C21.332 44.3644 21.4927 43.9169 21.6611 43.4372C21.6943 43.343 21.7275 43.2477 21.7608 43.1503C21.7763 43.107 21.7918 43.0638 21.8073 43.0195C22.2549 43.1436 22.7035 43.2666 23.1655 43.3962C23.5854 43.5136 24.0152 43.6366 24.4672 43.7673C24.3852 44.175 24.3254 44.5871 24.2911 45.0003Z" fill="#FFB898"/>
<path d="M24.4663 43.7675C24.3843 44.1751 24.3245 44.5872 24.2901 45.0005C23.3108 44.6858 22.4046 44.1463 21.6602 43.4373C21.6934 43.3432 21.7266 43.2479 21.7599 43.1504C22.2096 43.2988 22.6827 43.3686 23.1646 43.3963C23.5845 43.5138 24.0143 43.6367 24.4663 43.7675Z" fill="#402037"/>
<path d="M33.8491 51.3451C33.8525 51.5013 33.8624 51.6586 33.8779 51.8137C31.4019 52.4075 29.0877 52.5726 26.7956 52.4086C26.4599 52.2546 26.1575 52.0884 25.8761 51.9079C25.6091 51.7362 25.3621 51.5511 25.125 51.3528C25.6091 50.7535 26.0855 50.1996 26.5607 49.6501C26.6449 49.5537 26.728 49.4562 26.8122 49.3599C26.8366 49.3754 26.861 49.3898 26.8853 49.4064C27.0294 49.4961 27.1678 49.5914 27.3041 49.6878C27.6143 49.9049 27.92 50.1298 28.2823 50.3359C30.0991 50.6017 31.9403 50.7059 33.8491 50.6195C33.8591 50.6195 33.8691 50.6184 33.879 50.6184C33.8536 50.8599 33.8436 51.1025 33.8491 51.3451Z" fill="#F29F83"/>
<path d="M33.6758 51.1423C33.7855 50.379 34.4756 49.7409 35.2456 49.69C35.4095 49.6789 35.6178 49.7276 35.6488 49.8894C35.6809 50.0578 35.4893 50.1785 35.3242 50.2206C35.1592 50.2627 34.9598 50.2993 34.89 50.4555C35.2921 50.5109 35.702 50.5076 36.1041 50.4466C36.0742 50.9728 35.7264 51.468 35.2411 51.6741C34.7559 51.879 34.1577 51.786 33.6758 51.1423Z" fill="#F29F83"/>
<path d="M27.3041 49.6876C27.0039 50.5218 26.5109 51.2873 25.8761 51.9077C25.6091 51.736 25.3621 51.551 25.125 51.3527C25.6091 50.7534 26.0855 50.1995 26.5607 49.65C26.6693 49.5669 26.7779 49.4849 26.8853 49.4062L27.3041 49.6876Z" fill="#402037"/>
<path d="M25.2272 58.0144C22.6958 57.8726 20.1821 57.4195 17.8125 56.5232C18.1072 52.9715 18.6434 49.2559 19.7523 45.7707C20.1389 44.5565 21.5071 43.9483 22.6659 44.4789C22.6725 44.4823 22.6792 44.4856 22.6869 44.4889C23.3671 44.8024 23.9288 45.322 24.4561 45.8537C25.5263 46.9339 26.5067 48.1037 27.5436 49.401C27.0396 50.2341 26.4026 50.9874 25.492 51.6676C25.4033 53.809 25.3158 55.9505 25.2272 58.0144Z" fill="white"/>
<path d="M25.5152 51.702C25.2183 51.9723 25.0477 52.2038 24.6334 52.4475C23.3494 51.2311 22.1696 49.9051 21.1094 48.4893" stroke="#BD99A1" stroke-width="0.110783" stroke-miterlimit="10" stroke-linecap="round" stroke-linejoin="round"/>
<path d="M25.9152 40.869C26.0874 40.287 26.6061 39.9274 27.0737 40.0658C27.5413 40.2041 27.7807 40.7881 27.6085 41.37C27.4364 41.9519 26.9177 42.3117 26.4501 42.1733C25.9825 42.035 25.743 41.4511 25.9152 40.869Z" fill="#F29F83"/>
<path d="M27.4127 40.7993C27.3119 40.7483 27.1889 40.7605 27.0881 40.8115C26.9873 40.8624 26.9042 40.9466 26.8322 41.0375C26.7136 41.187 26.6184 41.3576 26.5508 41.5404" stroke="#D1524B" stroke-width="0.110783" stroke-miterlimit="10" stroke-linecap="round"/>
<path d="M27.2202 41.5801C27.1482 41.3719 26.9997 41.1924 26.8125 41.0894" stroke="#D1524B" stroke-width="0.110783" stroke-miterlimit="10" stroke-linecap="round"/>
<path d="M26.5749 37.0896C26.8175 38.7769 26.8175 40.4973 26.5849 42.1912C26.442 43.2325 25.6011 44.0479 24.5531 44.1354C24.1853 44.1664 23.8153 44.1786 23.4475 44.172C21.8434 44.1465 20.504 42.9102 20.3866 41.3105C20.2924 40.0199 20.4464 38.655 20.792 37.371C22.5081 36.806 24.3759 36.7108 26.5749 37.0896Z" fill="#FFB898"/>
<path d="M19.5425 40.412C19.4239 39.5678 19.3796 39.0328 19.5502 38.1963C19.7208 37.361 20.2382 36.5446 21.253 36.1524C21.7426 35.5021 22.6001 35.2218 23.4143 35.2041C24.767 35.1742 26.1473 35.8256 26.8741 36.9667C27.6008 38.1077 27.5775 39.7163 26.7965 40.7765C26.7168 39.5955 26.4465 38.4268 25.9978 37.3311C25.8095 37.8906 25.3298 38.3437 24.7603 38.501C25.014 38.1753 25.2001 37.7975 25.3032 37.3976C24.5709 38.0113 23.5827 38.3082 22.6344 38.2019C22.9391 37.9515 23.1761 37.6181 23.3113 37.2469C22.692 37.9349 21.942 38.5043 21.2629 38.8444C20.8619 39.6177 20.5417 40.7233 20.3612 41.5763C20.1474 41.3525 19.7341 40.8662 19.5425 40.412Z" fill="#402037"/>
<path d="M19.6079 40.3805C20.0569 40.1903 20.6128 40.4892 20.8494 41.0481C21.0862 41.607 20.914 42.2142 20.465 42.4044C20.016 42.5946 19.4601 42.2957 19.2234 41.7368C18.9867 41.1779 19.1589 40.5707 19.6079 40.3805Z" fill="#FFB898"/>
<path d="M19.3516 41.1473C19.4457 41.0852 19.5698 41.0841 19.6762 41.1229C19.7825 41.1617 19.8745 41.2359 19.9553 41.3179C20.0905 41.453 20.2046 41.6126 20.291 41.7854" stroke="#D1524B" stroke-width="0.110783" stroke-miterlimit="10" stroke-linecap="round"/>
<path d="M19.6328 41.9007C19.6816 41.6846 19.809 41.4908 19.9829 41.3667" stroke="#D1524B" stroke-width="0.110783" stroke-miterlimit="10" stroke-linecap="round"/>
<path d="M23.2776 39.0074C23.138 38.7271 22.82 38.5466 22.5076 38.5687C22.1952 38.5909 21.9072 38.8158 21.8086 39.1138C22.2019 38.8612 22.7192 38.8147 23.2776 39.0074Z" fill="#402037"/>
<path d="M25.1133 39.0694C25.285 38.8245 25.5974 38.6872 25.8932 38.727C26.189 38.7658 26.4549 38.9807 26.5568 39.261C26.1735 39.0228 25.6894 38.9519 25.1133 39.0694Z" fill="#402037"/>
<path d="M23.423 40.4943C23.248 40.2495 22.9888 40.0866 22.714 40.0467C22.4393 40.0069 22.1524 40.0922 21.9297 40.2794C22.3019 40.2229 22.8891 40.2428 23.423 40.4943Z" fill="#402037"/>
<path d="M24.8672 40.5916C25.0943 40.462 25.3292 40.3302 25.5884 40.2992C25.8476 40.2681 26.1401 40.3634 26.2642 40.5938C25.8343 40.4875 25.3447 40.513 24.8672 40.5916Z" fill="#402037"/>
<path d="M24.3937 40.4009C24.5278 40.6291 24.4823 40.9337 24.2852 41.121" stroke="#D1524B" stroke-width="0.110783" stroke-miterlimit="10" stroke-linecap="round"/>
<path d="M24.7651 41.7768C24.3098 41.7569 23.8589 41.6594 23.4357 41.4899C23.2629 41.4212 23.0602 41.3414 22.9029 41.4389C22.7533 41.532 22.7278 41.7436 22.7655 41.9153C22.8541 42.3174 23.2053 42.6343 23.6052 42.734C24.0041 42.8337 24.4372 42.7351 24.7884 42.5202C24.9313 42.4327 25.0709 42.3152 25.1075 42.1524C25.144 41.9895 25.0244 41.7879 24.7651 41.7768Z" fill="#911F34"/>
<path d="M40.135 50.7346C40.1284 51.0647 39.9024 51.3505 39.5855 51.4447C37.864 51.9532 36.097 52.3077 34.3123 52.5016C34.1893 52.0141 34.0863 51.5433 33.9844 51.0725C35.162 50.6238 36.2909 50.0488 37.3455 49.3587C37.3632 49.1526 37.3389 48.9598 37.3134 48.7682C37.3112 48.7549 37.3101 48.7405 37.3079 48.7272C38.1443 48.4137 38.9984 48.1101 39.8802 47.8564C39.9101 48.0138 39.9378 48.1711 39.9622 48.3295C40.0885 49.1149 40.1505 49.9137 40.135 50.7346Z" fill="#FFB898"/>
<path d="M39.9629 48.3295C39.0878 48.5145 38.2037 48.6618 37.3141 48.7682C37.3119 48.7549 37.3108 48.7405 37.3086 48.7272C38.145 48.4137 38.9991 48.1101 39.881 47.8564C39.9109 48.0138 39.9386 48.1711 39.9629 48.3295Z" fill="#402037"/>
<path d="M34.2397 51.2144C33.976 51.1314 33.76 50.9441 33.5473 50.7658C33.3357 50.5874 33.1075 50.4102 32.8372 50.3525C32.5668 50.2949 32.2411 50.3969 32.1282 50.6528C32.2844 50.7314 32.4406 50.809 32.6976 50.994C32.3386 51.6531 31.7194 52.165 31.0048 52.3921C30.9084 52.4231 30.801 52.4552 30.7511 52.5427C30.6669 52.6867 30.8132 52.8773 30.9782 52.9017C31.1433 52.926 31.3039 52.8418 31.4502 52.761C31.5632 52.9759 31.8678 53.0612 32.0761 52.936C32.7519 53.0833 34.4136 52.5006 34.4136 52.5006C34.4136 52.5006 34.1256 51.6299 34.2397 51.2144Z" fill="#FFB898"/>
<path d="M19.4964 45.8428C20.2087 46.1751 20.5832 46.9561 20.8424 47.6973C21.1016 48.4384 21.3243 49.2383 21.8971 49.7756C21.9779 49.852 22.0721 49.9329 22.0832 50.0448C22.0976 50.1899 21.9525 50.3129 21.8062 50.3239C21.66 50.335 21.5215 50.2652 21.3974 50.1877C21.0584 49.9772 20.7615 49.6991 20.5344 49.3668C20.8158 50.253 21.0983 51.1393 21.3797 52.0244C21.4362 52.2028 21.4783 52.4321 21.3299 52.5462C21.2313 52.6216 21.0861 52.6038 20.9809 52.5385C20.8757 52.4731 20.8025 52.3679 20.6918 52.2737C20.5389 52.5185 20.1522 52.5706 19.9406 52.3734C19.7867 52.6437 19.328 52.6504 19.1652 52.3845C19.0156 52.4986 18.7885 52.4487 18.65 52.3213C18.5116 52.1939 18.4407 52.0112 18.3786 51.8339C17.8158 50.2375 17.5278 48.5326 17.6818 46.8509C18.2379 46.5429 18.7929 46.2338 19.4964 45.8428Z" fill="#FFC5A3"/>
<path d="M20.6363 52.1333C20.1965 51.5196 19.8918 50.8095 19.75 50.0684" stroke="#D1524B" stroke-width="0.110783" stroke-miterlimit="10" stroke-linecap="round"/>
<path d="M19.8193 52.3037C19.426 51.6523 19.1479 50.9322 19.0039 50.1855" stroke="#D1524B" stroke-width="0.110783" stroke-miterlimit="10" stroke-linecap="round"/>
<path d="M19.0546 52.2702C18.7876 51.6842 18.6048 51.0605 18.5117 50.4224" stroke="#D1524B" stroke-width="0.110783" stroke-miterlimit="10" stroke-linecap="round"/>
</g>
<defs>
<clipPath id="clip0_2370_35965">
<rect width="55.3913" height="49" fill="white" transform="translate(5.80469 8.5)"/>
</clipPath>
</defs>
</svg>
