<svg width="75" height="68" viewBox="0 0 75 68" fill="none" xmlns="http://www.w3.org/2000/svg">
<g clip-path="url(#clip0_2370_34759)">
<path d="M41.0089 24.4136C42.5315 24.6777 44.4568 24.5861 45.8491 25.4963C47.3952 26.5071 47.7092 29.3297 48.0644 30.9769C48.8562 34.6477 49.3871 38.4347 49.8922 42.1548C50.233 44.6661 51.0133 48.3321 49.7077 50.6625C47.7992 54.0692 41.454 54.4579 38.1334 53.5202C33.8154 52.3009 33.4327 47.4391 33.4629 43.6836C33.4235 43.5777 33.4283 43.7523 33.3789 43.7754L41.0089 24.4136Z" fill="#140F0E"/>
<path d="M43.3411 53.8691C43.3364 53.9829 43.3313 54.0982 43.3261 54.215C43.0567 60.4557 42.462 70.4373 42.6285 78.4053C42.7436 83.9033 42.2877 88.8352 41.9709 91.374L38.642 91.4904C38.0966 88.5509 37.1745 83.278 37.4876 78.5586C37.908 72.2195 36.6952 65.2164 36.0422 58.6052C35.9662 57.8387 35.8983 57.0778 35.8408 56.3239V56.3235C35.8325 56.212 35.8242 56.1005 35.8164 55.9894L35.8228 55.7971L35.8239 55.7611C35.8239 55.7607 35.8239 55.7607 35.8239 55.7607L35.8342 55.4515L36.0153 49.9208L36.0387 49.2094L43.4194 48.8301C43.489 49.6963 43.4412 51.49 43.3411 53.8691Z" fill="#176E82"/>
<path d="M23.5703 91.1245L26.7425 91.3666C26.8807 91.0132 27.0325 90.619 27.1929 90.1904C28.3031 87.2295 29.8432 82.6237 30.3546 78.5221C31.2441 71.3957 33.8596 63.8777 35.7683 56.761C35.7732 56.7422 35.7781 56.7235 35.7834 56.7047L35.8437 56.324V56.3235L35.9285 55.7911L35.9842 55.4415L35.9872 55.4217L36.7605 50.5588L36.849 50.0005L36.0182 49.9211L29.4231 49.29C29.2204 50.0237 29.0218 51.4138 28.8041 53.2559C28.7914 53.3694 28.7771 53.4848 28.764 53.6021C28.0887 59.4276 27.2194 69.3935 25.4685 77.5624C24.9596 79.9354 24.6385 82.4346 24.3908 84.6712C24.1401 86.9322 23.9643 88.9248 23.747 90.2482C23.6917 90.5865 23.6333 90.8805 23.5703 91.1245Z" fill="#176E82"/>
<path d="M31.8281 49.5556C31.8229 49.6081 31.8174 49.6624 31.8117 49.718C31.7153 50.708 31.569 52.2036 30.7267 52.9426C30.1572 53.4422 29.4904 53.6027 28.8083 53.6027C28.793 53.6027 28.7772 53.6027 28.7617 53.6024C28.7751 53.4851 28.789 53.3698 28.802 53.2561C29.4115 53.2553 29.9999 53.1156 30.4878 52.6868C31.2277 52.0382 31.3661 50.6226 31.4575 49.6857C31.463 49.6298 31.4686 49.5753 31.4737 49.5225L31.8281 49.5556Z" fill="#BACAE0"/>
<path d="M23.7422 90.2487C24.3776 90.1962 25.0769 90.2265 25.6813 90.1663C25.9792 90.1367 26.5919 90.1802 27.188 90.1906C28.2982 87.2297 29.8383 82.6239 30.3497 78.5224C31.2392 71.3959 33.8547 63.8779 35.7634 56.7612C35.7682 56.7424 35.7732 56.7237 35.7784 56.705L35.8388 56.3242V56.3238L35.9236 55.7913L35.9793 55.4417L35.9823 55.4219H34.5621C33.7651 56.4467 33.4991 58.751 33.2189 60.1495C32.8835 61.823 32.3765 63.4173 31.7796 65.1155C30.6083 68.4477 29.6244 71.6086 29.2758 75.096C28.9922 77.9306 28.4664 85.8721 24.386 84.6715C24.1353 86.9325 23.9595 88.9252 23.7422 90.2487Z" fill="#125A66"/>
<path d="M43.3433 53.8696C43.3386 53.9834 43.3334 54.0986 43.3283 54.2155C42.5488 54.2139 41.7876 54.055 41.1382 53.5639C40.1607 52.8253 39.9906 51.3262 39.8779 50.3339C39.8717 50.2784 39.8652 50.224 39.8594 50.1715L40.2128 50.1328C40.2191 50.1856 40.2255 50.2404 40.2318 50.2963C40.3378 51.2308 40.4983 52.6428 41.3569 53.2919C41.9331 53.7271 42.6255 53.8693 43.3433 53.8696Z" fill="#BACAE0"/>
<path d="M34.6142 55.8342L34.57 55.72C34.1519 54.6398 34.6623 51.6772 35.0719 50.7905L35.3967 50.9315C35.0177 51.7518 34.5606 54.4181 34.865 55.4844C35.4153 55.4727 35.7999 55.4577 36.0095 55.4397L36.0407 55.7832C35.8035 55.8036 35.3781 55.8195 34.74 55.8319L34.6142 55.8342Z" fill="#1C92A5"/>
<path d="M36.9101 50.5928C36.2793 53.2633 36.1448 55.8014 36.0444 58.6056H36.0425C35.9665 57.8391 35.8986 57.0782 35.8411 56.3243L35.7806 56.7052C35.7756 56.7239 35.7708 56.7423 35.7656 56.7611C35.7823 56.4374 35.8005 56.1166 35.8217 55.7976C35.8225 55.7854 35.8234 55.7735 35.8242 55.7616C35.8242 55.7612 35.8242 55.7612 35.8242 55.7612C35.8308 55.6578 35.8384 55.5544 35.846 55.4512C35.967 53.7966 36.1689 52.1838 36.5628 50.5161L36.7578 50.5591L36.9101 50.5928Z" fill="#1C92A5"/>
<path d="M45.6209 34.0244C45.1701 37.0746 43.998 41.6024 43.9331 42.9831C43.9319 43.0091 43.9306 43.0357 43.9298 43.0622C43.8295 45.3145 43.9309 48.5648 43.8302 50.7074C43.398 52.1033 35.8249 51.6763 31.7057 50.9785C31.6809 50.9746 31.6566 50.9702 31.6323 50.9659C31.6084 50.9615 31.584 50.9576 31.56 50.9532C31.5205 50.9461 31.4815 50.9391 31.4423 50.9324C30.1579 50.7026 29.2606 50.4479 29.1101 50.2216C29.1101 50.2212 29.1096 50.2212 29.1096 50.2212C29.1044 50.2129 29.0995 50.2046 29.0962 50.1964C29.0926 50.1881 29.0898 50.1795 29.0886 50.1715C28.9459 49.3392 29.6308 46.9562 29.797 46.1179C30.2226 43.9742 29.8168 38.77 29.7644 37.7197C29.7504 37.4426 29.7212 37.1572 29.6789 36.8683C29.5841 36.2141 29.4241 35.5428 29.2319 34.9153C29.1817 34.7495 29.1287 34.5869 29.0742 34.4286C28.7231 33.4092 28.1228 32.227 28.0199 31.1806C27.9188 30.1555 28.7864 26.2151 28.9503 25.1522C29.1069 24.1396 32.3937 24.2156 33.0816 23.4316L34.8403 24.232C35.4723 24.0558 36.3636 24.3334 37.0661 24.2055C37.6204 24.1048 38.174 23.8488 38.7081 23.6908C39.1887 23.5489 39.6994 23.1359 40.1517 23.0647C41.05 22.9231 44.8965 23.7143 45.7293 24.0078C45.7351 24.0096 45.7407 24.0119 45.7463 24.0138C45.9192 24.0766 46.0503 24.255 46.1476 24.5223C46.7937 26.3069 45.9103 32.0646 45.6209 34.0244Z" fill="#3F2935"/>
<path d="M32.4297 23.8112C32.7032 24.8831 33.9041 26.7329 35.5037 26.7969C37.0419 26.8584 39.772 25.023 40.7364 23.1545C40.1941 23.0339 39.6132 23.2964 39.3503 22.5515C39.194 22.1097 39.0615 21.9296 38.9959 21.4608C38.9954 21.457 38.995 21.4537 38.9942 21.4501C38.9782 21.3341 38.9622 21.2192 38.9467 21.1055C38.8777 20.6084 38.8699 20.0616 38.8782 19.5184C38.8868 18.9089 38.9151 18.3034 38.8987 17.7788C38.8961 17.7 38.8925 17.6229 38.8876 17.5479L34.9044 19.5184L33.161 20.3811C33.1602 20.4376 33.1627 20.498 33.1685 20.562C33.1861 20.7778 33.2357 21.0325 33.294 21.3074C33.3789 21.7099 33.4228 22.088 33.3945 22.4293C33.3448 23.0208 33.0777 23.5019 32.4297 23.8112Z" fill="#FFB278"/>
<path d="M33.1642 20.3812C33.1634 20.4378 33.1659 20.4981 33.1717 20.5622C33.1893 20.778 33.2389 21.0327 33.2972 21.3075C33.3821 21.71 33.426 22.0881 33.3977 22.4294C34.3392 23.3744 35.187 23.429 35.8707 23.265C37.5734 22.8563 38.8731 20.0616 38.8813 19.5186H34.9076L33.1642 20.3812Z" fill="#E5804E"/>
<path d="M45.6221 34.0241C45.1713 37.0742 43.9991 41.6021 43.9343 42.9827C43.933 43.0088 43.9317 43.0353 43.931 43.0618C43.8307 45.3142 43.9321 48.5645 43.8313 50.707C43.7623 52.176 35.9245 51.7044 31.7068 50.9782C31.6821 50.9742 31.6577 50.9698 31.6334 50.9656C31.6095 50.9612 31.5852 50.9572 31.5612 50.9528C31.5216 50.9457 31.4826 50.9387 31.4435 50.932C30.1605 50.6991 29.2632 50.4441 29.1112 50.2213C29.1112 50.2208 29.1108 50.2208 29.1108 50.2208C29.1055 50.2125 29.1007 50.2043 29.0974 50.1961C29.0938 50.1877 29.0909 50.1792 29.0897 50.1712C28.947 49.3389 29.6319 46.9559 29.7982 46.1176C30.2238 43.9738 29.8179 38.7696 29.7655 37.7193C29.7516 37.4423 29.7223 37.1569 29.68 36.868C29.5852 36.2138 29.4252 35.5425 29.2331 34.9149C30.245 35.4957 34.2423 36.5001 35.7577 36.6836C41.1986 37.3419 43.8497 33.8622 44.2869 32.4625C45.0097 30.1489 45.5654 27.0855 46.1487 24.522C46.7949 26.3066 45.9114 32.0642 45.6221 34.0241Z" fill="#23161E"/>
<path d="M44.4553 32.7229C45.515 34.5194 45.8617 35.1776 46.2112 35.8685C46.8971 37.2238 47.5937 38.704 48.0801 39.9238C48.0888 39.9459 48.0977 39.9678 48.106 39.9895C48.4763 40.9243 48.7651 42.7096 49.7681 43.3126C50.1118 43.5193 50.5402 43.587 51.0841 43.4336C51.0845 43.4336 51.0849 43.4336 51.0849 43.4336C51.1124 43.4257 51.1399 43.4176 51.1677 43.4085C52.5185 42.9811 52.9747 41.7008 52.9168 40.0706C52.7725 35.9546 47.9032 25.234 45.9343 24.0854C45.9343 24.0854 42.7868 28.2591 42.8166 29.9104C42.8315 30.7242 44.4553 32.7229 44.4553 32.7229Z" fill="#D8250E"/>
<path d="M36.9062 56.4102C38.2198 56.8659 40.4214 56.4619 41.8514 56.3322C42.5704 56.2675 43.2216 56.055 43.9619 56.082C44.5998 56.1054 45.6905 56.5299 46.2591 56.4102C46.3001 55.8933 45.2307 40.5638 45.3566 39.1813C45.7226 35.1732 46.8334 30.0746 46.7489 25.3187C46.7407 24.8449 45.999 23.979 45.5207 23.8394C44.8058 23.6311 43.8639 23.4546 42.9536 23.3152C41.7616 23.1323 40.6244 23.0116 40.1253 22.9624C39.9558 22.9456 39.8598 22.937 39.8598 22.937C39.866 22.9982 39.8565 23.223 39.8336 23.5885C39.7331 25.1981 39.3718 29.5325 38.9345 34.5485C38.1377 43.6936 37.0888 55.1065 36.9062 56.4102Z" fill="#D8250E"/>
<path d="M33.3621 56.6632C32.2679 57.0591 30.49 56.5735 29.3288 56.3887C28.7448 56.2961 28.2236 56.061 27.6178 56.058C27.096 56.0555 26.1849 56.4296 25.7266 56.2891C25.718 55.7789 27.7055 25.009 29.033 24.3183C29.5813 24.033 32.5648 23.6108 32.5648 23.6108C32.5568 23.6708 32.5536 23.8923 32.5548 24.2528C32.5592 25.8405 32.6454 30.1195 32.7605 35.0723C32.97 44.1022 33.276 55.3734 33.3621 56.6632Z" fill="#D8250E"/>
<path d="M22.292 55.8373C21.9467 55.7878 21.7069 55.4676 21.7565 55.1224L22.7976 47.87C22.8471 47.5248 23.1672 47.285 23.5125 47.3346L34.1827 48.8663C34.5279 48.9158 34.7677 49.236 34.7181 49.5813L33.6771 56.8336C33.6276 57.1788 33.3075 57.4185 32.9621 57.369L22.292 55.8373Z" fill="#E25B00"/>
<path d="M22.3662 55.314C22.0209 55.2644 21.7812 54.9444 21.8307 54.5991L22.8717 47.3467C22.9212 47.0013 23.2413 46.7616 23.5867 46.8112L34.2568 48.3429C34.602 48.3925 34.8418 48.7125 34.7922 49.0578L33.7511 56.3102C33.7016 56.6556 33.3815 56.8953 33.0362 56.8457L22.3662 55.314Z" fill="#E59E00"/>
<path d="M32.9046 48.8696C32.7736 48.8508 32.6828 48.7294 32.7017 48.5985C32.7205 48.4677 32.8418 48.3767 32.9728 48.3955C33.1037 48.4143 33.1946 48.5356 33.1757 48.6666C33.1569 48.7974 33.0356 48.8884 32.9046 48.8696Z" fill="#69999E"/>
<path d="M31.7368 48.7021C31.6059 48.6833 31.515 48.5619 31.5337 48.431C31.5527 48.3002 31.6739 48.2092 31.8048 48.2281C31.9357 48.2468 32.0267 48.3681 32.0078 48.4991C31.9891 48.63 31.8678 48.7209 31.7368 48.7021Z" fill="#69999E"/>
<path d="M30.5688 48.5347C30.4378 48.5158 30.347 48.3945 30.3657 48.2636C30.3846 48.1327 30.5059 48.0418 30.6369 48.0606C30.7678 48.0794 30.8588 48.2007 30.8399 48.3316C30.8211 48.4627 30.6998 48.5535 30.5688 48.5347Z" fill="#69999E"/>
<path d="M29.4048 48.3668C29.2738 48.348 29.1829 48.2266 29.2017 48.0957C29.2205 47.9648 29.3418 47.8738 29.4728 47.8926C29.6037 47.9114 29.6946 48.0328 29.6758 48.1637C29.6569 48.2947 29.5357 48.3857 29.4048 48.3668Z" fill="#69999E"/>
<path d="M28.2367 48.1991C28.1057 48.1803 28.0149 48.059 28.0337 47.9281C28.0525 47.7972 28.1738 47.7063 28.3048 47.7251C28.4356 47.7439 28.5266 47.8653 28.5078 47.9962C28.4889 48.127 28.3676 48.218 28.2367 48.1991Z" fill="#69999E"/>
<path d="M27.0687 48.0318C26.9379 48.0129 26.8469 47.8917 26.8658 47.7607C26.8846 47.6297 27.0059 47.5389 27.1369 47.5576C27.2678 47.5765 27.3587 47.6978 27.3399 47.8288C27.321 47.9597 27.1997 48.0506 27.0687 48.0318Z" fill="#69999E"/>
<path d="M25.9009 47.8643C25.7699 47.8454 25.6789 47.7241 25.6978 47.5931C25.7166 47.4623 25.8378 47.3713 25.9688 47.3902C26.0997 47.409 26.1908 47.5303 26.1719 47.6613C26.1531 47.7921 26.0316 47.883 25.9009 47.8643Z" fill="#69999E"/>
<path d="M24.7366 47.6968C24.6057 47.678 24.5149 47.5566 24.5337 47.4257C24.5525 47.2948 24.6738 47.2038 24.8048 47.2227C24.9356 47.2414 25.0266 47.3628 25.0078 47.4936C24.989 47.6247 24.8676 47.7156 24.7366 47.6968Z" fill="#69999E"/>
<path d="M32.935 48.6424C32.8545 48.6309 32.7986 48.5561 32.8101 48.4756L32.9417 47.5586C32.9532 47.478 33.028 47.4221 33.1085 47.4336C33.1891 47.4452 33.245 47.5199 33.2335 47.6004L33.1019 48.5173C33.0903 48.5981 33.0157 48.654 32.935 48.6424Z" fill="white"/>
<path d="M31.771 48.4753C31.6904 48.4638 31.6344 48.389 31.6461 48.3085L31.7777 47.3916C31.7892 47.311 31.8639 47.2551 31.9446 47.2666C32.025 47.2781 32.0811 47.3529 32.0694 47.4334L31.9378 48.3505C31.9262 48.4309 31.8517 48.4869 31.771 48.4753Z" fill="white"/>
<path d="M30.603 48.3079C30.5225 48.2964 30.4666 48.2217 30.4781 48.1411L30.6097 47.2241C30.6212 47.1435 30.6959 47.0876 30.7766 47.0992C30.8571 47.1107 30.9131 47.1854 30.9016 47.2661L30.7699 48.183C30.7584 48.2635 30.6838 48.3194 30.603 48.3079Z" fill="white"/>
<path d="M29.435 48.1401C29.3544 48.1286 29.2984 48.0538 29.3101 47.9733L29.4417 47.0562C29.4532 46.9757 29.5279 46.9197 29.6085 46.9312C29.6891 46.9428 29.745 47.0174 29.7334 47.098L29.6018 48.0149C29.5904 48.0957 29.5156 48.1517 29.435 48.1401Z" fill="white"/>
<path d="M28.2671 47.9729C28.1864 47.9613 28.1305 47.8866 28.1422 47.8061L28.2738 46.8892C28.2854 46.8085 28.36 46.7526 28.4407 46.7642C28.5214 46.7757 28.5773 46.8505 28.5656 46.9309L28.434 47.8479C28.4223 47.9285 28.3477 47.9844 28.2671 47.9729Z" fill="white"/>
<path d="M27.1029 47.8051C27.0225 47.7935 26.9664 47.7188 26.9781 47.6382L27.1096 46.7213C27.1214 46.6406 27.196 46.5848 27.2765 46.5962C27.3571 46.6078 27.4131 46.6825 27.4015 46.763L27.2699 47.6799C27.2584 47.7607 27.1836 47.8166 27.1029 47.8051Z" fill="white"/>
<path d="M25.935 47.6375C25.8545 47.626 25.7986 47.5514 25.8101 47.4707L25.9417 46.5537C25.9532 46.4731 26.028 46.4172 26.1085 46.4287C26.1891 46.4404 26.245 46.515 26.2335 46.5956L26.1018 47.5126C26.0904 47.5931 26.0157 47.6491 25.935 47.6375Z" fill="white"/>
<path d="M24.7672 47.4699C24.6865 47.4584 24.6306 47.3838 24.6421 47.3031L24.7736 46.3861C24.7853 46.3057 24.8599 46.2498 24.9406 46.2613C25.021 46.2728 25.077 46.3475 25.0655 46.4281L24.9339 47.345C24.9225 47.4255 24.8477 47.4815 24.7672 47.4699Z" fill="white"/>
<path d="M44.293 31.8345L44.3161 31.9C44.3033 31.8758 44.2958 31.854 44.293 31.8345Z" fill="#BA562F"/>
<path d="M31.2632 11.6973L32.781 12.5587C32.4844 13.2862 32.1346 13.9237 32.0428 14.7328C31.9553 15.5037 31.9222 16.284 32.0434 17.036C31.7067 16.5258 31.4186 15.9613 31.2222 15.3071C30.9424 14.3758 30.8549 12.5961 31.2632 11.6973Z" fill="#1E1714"/>
<path d="M39.3763 16.7751C39.3649 17.0102 39.4658 17.6096 39.4539 17.9272C39.4253 18.7105 39.3302 19.9643 38.9615 20.4209C37.5319 22.1917 35.8862 22.7834 34.7773 22.6087C33.3089 22.3774 32.5615 20.9472 32.3433 20.5577C32.1143 20.1488 32.0329 19.4793 31.9582 18.5695C31.7667 16.2297 31.9468 12.5996 32.0872 11.5211L33.0767 11.0088C33.981 10.7321 34.5999 10.5519 35.5502 10.6502C37.0224 10.8023 38.8893 11.1437 39.2895 12.8047C39.4901 13.6367 39.4174 15.9222 39.3763 16.7751Z" fill="#FFB278"/>
<path d="M31.1916 15.7317C31.7024 15.7659 31.9479 16.5327 32.0237 16.9278L32.0626 18.536C31.1735 19.5754 30.6004 17.5185 30.5211 16.885C30.4652 16.437 30.5675 15.6899 31.1916 15.7317Z" fill="#FFB278"/>
<path d="M31.6132 16.8452C31.1625 17.0064 31.3189 17.6817 31.6724 17.8397C31.6972 17.8164 31.1912 17.8922 31.088 17.5356C30.9819 17.1697 31.0742 16.8401 31.3138 16.5792C31.198 16.3622 30.8983 16.2135 30.8047 16.4807C30.9724 15.6388 31.6348 16.2127 31.6132 16.8452Z" fill="#E5804E"/>
<path d="M36.5625 16.7426C36.6252 16.7814 36.7008 16.542 36.762 16.5717C37.2181 16.7917 37.632 16.7783 37.9299 16.7117C38.2227 16.6463 38.3906 16.8013 38.3906 16.8013C38.19 16.5626 38.0829 16.1354 37.8997 16.0537C37.7925 16.0064 37.664 15.9834 37.4849 15.9834C37.1583 15.9834 36.9665 16.0428 36.7705 16.2372C36.7074 16.3002 36.6308 16.6493 36.5625 16.7426Z" fill="#E5804E"/>
<path d="M36.5625 16.7429C36.6252 16.7817 36.688 16.815 36.7493 16.8447C37.2054 17.0646 37.6191 17.0513 37.9171 16.9846C38.21 16.9192 38.3906 16.8016 38.3906 16.8016C38.19 16.5629 38.0701 16.4084 37.887 16.3266C37.7798 16.2794 37.6513 16.2563 37.4722 16.2563C37.1457 16.2563 36.9538 16.3157 36.7578 16.5102C36.6947 16.5732 36.6308 16.6496 36.5625 16.7429Z" fill="white"/>
<path d="M36.7422 16.7107C36.7422 16.7562 36.7447 16.8011 36.7493 16.8447C37.2055 17.0646 37.6192 17.0513 37.9172 16.9846C37.9366 16.8986 37.9472 16.8065 37.9472 16.7107C37.9472 16.5732 37.9253 16.4429 37.8871 16.3266C37.7799 16.2794 37.6513 16.2563 37.4722 16.2563C37.1457 16.2563 36.9538 16.3157 36.7579 16.5102C36.7478 16.5744 36.7422 16.6417 36.7422 16.7107Z" fill="#2D221E"/>
<path d="M37.0312 16.6515C37.0312 16.7352 37.0656 16.8029 37.1077 16.8029C37.1501 16.8029 37.1842 16.7351 37.1842 16.6515C37.1842 16.5678 37.1499 16.5 37.1077 16.5C37.0656 16.5 37.0312 16.5677 37.0312 16.6515Z" fill="white"/>
<path d="M32.207 16.8003C32.269 16.8346 32.3276 16.5905 32.3875 16.6158C32.8336 16.8034 33.2265 16.7612 33.5064 16.6737C33.7815 16.5879 33.9497 16.7309 33.9497 16.7309C33.7458 16.5068 33.6205 16.0879 33.4417 16.0192C33.3371 15.9795 33.2136 15.9656 33.0432 15.9781C32.7325 16.001 32.5531 16.0738 32.3775 16.2814C32.3207 16.3488 32.267 16.7024 32.207 16.8003Z" fill="#E5804E"/>
<path d="M32.207 16.8003C32.269 16.8346 32.3304 16.8634 32.3903 16.8888C32.8363 17.0763 33.2294 17.0342 33.5092 16.9467C33.7842 16.8609 33.9497 16.7309 33.9497 16.7309C33.7458 16.5068 33.6233 16.3609 33.4445 16.2922C33.34 16.2525 33.2163 16.2385 33.0459 16.2511C32.7353 16.274 32.556 16.3466 32.3802 16.5544C32.3235 16.6217 32.267 16.7024 32.207 16.8003Z" fill="white"/>
<path d="M32.3771 16.7556C32.3796 16.8009 32.3844 16.8455 32.3912 16.8887C32.8373 17.0762 33.2303 17.034 33.5101 16.9466C33.5238 16.8593 33.5289 16.7667 33.5237 16.6712C33.5162 16.5339 33.4882 16.4055 33.4454 16.2922C33.3409 16.2525 33.2172 16.2385 33.0468 16.2511C32.7362 16.274 32.5569 16.3466 32.3811 16.5544C32.3749 16.6191 32.3732 16.6866 32.3771 16.7556Z" fill="#2D221E"/>
<path d="M32.6567 16.6586C32.6612 16.7421 32.6976 16.8073 32.7378 16.8043C32.7781 16.8014 32.8069 16.7312 32.8024 16.6478C32.7978 16.5643 32.7614 16.4991 32.7212 16.502C32.6811 16.5049 32.6521 16.5752 32.6567 16.6586Z" fill="white"/>
<path d="M33.1108 15.4931C33.3784 15.5459 33.6743 15.557 33.9513 15.6213C34.3245 15.7079 34.0993 16.1818 34.0993 16.1818C34.0383 16.2402 33.2224 16.1561 32.987 16.1437C32.6617 16.1268 32.1357 15.9364 31.8438 16.0981C32.2116 15.5231 32.4152 15.3557 33.1108 15.4931Z" fill="#2D221E"/>
<path d="M37.354 15.425C37.0567 15.4729 36.7281 15.4785 36.4201 15.5378C36.0053 15.6176 36.2532 16.0959 36.2532 16.0959C36.3207 16.1555 37.2272 16.0862 37.4887 16.0783C37.85 16.0675 38.4349 15.8866 38.7583 16.0538C38.3524 15.4718 38.1272 15.3005 37.354 15.425Z" fill="#2D221E"/>
<path d="M36.5237 19.7715C36.5237 19.7715 36.5142 19.7759 36.4962 19.7841C36.4787 19.7929 36.4521 19.8045 36.4201 19.8216C36.3882 19.8394 36.3476 19.857 36.303 19.8776C36.2809 19.8881 36.2575 19.8993 36.2327 19.9111C36.2074 19.9219 36.1808 19.9333 36.1529 19.9451C36.0986 19.9705 36.0376 19.9931 35.9743 20.0178C35.9429 20.0308 35.91 20.0421 35.8761 20.0532C35.8421 20.0637 35.8087 20.0777 35.7735 20.088C35.738 20.0977 35.7024 20.1084 35.6664 20.1192C35.6486 20.125 35.6304 20.13 35.6116 20.1337C35.5932 20.1382 35.5748 20.1427 35.5562 20.1471C35.5191 20.1565 35.4818 20.1656 35.4438 20.1717C35.4059 20.1785 35.3681 20.1866 35.3301 20.1927C35.2537 20.2023 35.1774 20.2137 35.1017 20.2168C35.026 20.2247 34.9518 20.2204 34.8791 20.2226C34.8074 20.216 34.7361 20.2179 34.6704 20.2063C34.637 20.2023 34.6044 20.1984 34.573 20.1946C34.5417 20.1885 34.5116 20.1826 34.4827 20.1769C34.4234 20.1682 34.3711 20.1524 34.3234 20.1403C34.2993 20.1344 34.2767 20.1289 34.2559 20.1238C34.2354 20.1172 34.2166 20.111 34.1998 20.1054C34.1659 20.0938 34.1378 20.0865 34.1192 20.0806C34.1 20.0752 34.0898 20.0723 34.0898 20.0723C34.0898 20.0723 34.0975 20.0795 34.1119 20.0927C34.1267 20.1054 34.1478 20.1255 34.1765 20.1486C34.1909 20.1605 34.2069 20.1736 34.2242 20.1879C34.2424 20.2007 34.2629 20.2132 34.2846 20.2273C34.3067 20.241 34.3303 20.2556 34.3551 20.271C34.3797 20.2875 34.4085 20.2977 34.4373 20.3124C34.4666 20.3257 34.4973 20.3395 34.5291 20.3539C34.5618 20.3654 34.5962 20.376 34.6316 20.3876C34.702 20.4131 34.7797 20.424 34.8597 20.4403C34.8999 20.4455 34.9412 20.4483 34.983 20.452C35.0039 20.4534 35.0249 20.4564 35.0461 20.4564C35.0673 20.4561 35.0885 20.4558 35.1099 20.4556C35.1313 20.4553 35.1527 20.4549 35.1742 20.4546L35.2065 20.454L35.2388 20.4504C35.2816 20.4456 35.3247 20.4408 35.3678 20.4359C35.4525 20.4188 35.5382 20.4049 35.6185 20.3772C35.7005 20.355 35.7773 20.3222 35.8513 20.2912C35.888 20.275 35.923 20.2565 35.9572 20.2387C35.9914 20.2208 36.025 20.2041 36.0555 20.1836C36.0863 20.164 36.1163 20.1448 36.1454 20.1264C36.1741 20.1075 36.2 20.0865 36.2253 20.0674C36.2503 20.0477 36.2745 20.0296 36.2967 20.0111C36.3182 19.9913 36.3386 19.9726 36.3578 19.955C36.396 19.9199 36.4269 19.888 36.4502 19.8601C36.4745 19.8332 36.4923 19.8102 36.505 19.7953C36.5171 19.7797 36.5237 19.7715 36.5237 19.7715Z" fill="#E5804E"/>
<path d="M34.5719 17.1802C34.4949 17.8442 34.454 18.5676 34.7328 18.9277C35.1952 18.9415 35.7318 18.9214 35.7318 18.9214C35.3381 19.2138 34.5266 19.45 34.2227 19.04C34.2292 19.0412 34.3399 17.6997 34.5719 17.1802Z" fill="#E5804E"/>
<path d="M35.6641 17.1803C35.6641 16.5733 36.3585 16.0796 37.2121 16.0796C38.0658 16.0796 38.7602 16.5733 38.7602 17.1803C38.7602 17.7872 38.0658 18.281 37.2121 18.281C36.3585 18.2811 35.6641 17.7872 35.6641 17.1803ZM35.8583 17.1803C35.8583 17.6741 36.4656 18.0759 37.212 18.0759C37.9585 18.0759 38.5658 17.6741 38.5658 17.1803C38.5658 16.6864 37.9585 16.2846 37.212 16.2846C36.4656 16.2848 35.8583 16.6864 35.8583 17.1803Z" fill="white"/>
<path d="M31.4922 17.1531C31.4922 16.5461 32.1692 16.0522 33.0014 16.0522C33.8336 16.0522 34.5105 16.5461 34.5105 17.1531C34.5105 17.76 33.8336 18.2538 33.0014 18.2538C32.1692 18.2538 31.4922 17.76 31.4922 17.1531ZM31.6865 17.1531C31.6865 17.6469 32.2764 18.0487 33.0015 18.0487C33.7265 18.0487 34.3163 17.6469 34.3163 17.1531C34.3163 16.6592 33.7265 16.2574 33.0015 16.2574C32.2764 16.2574 31.6865 16.6592 31.6865 17.1531Z" fill="white"/>
<path d="M35.6825 17.0631L35.8392 16.9418C35.6935 16.732 35.4855 16.6032 35.238 16.569C34.9274 16.526 34.5683 16.6406 34.3008 16.8678L34.4227 17.0276C34.6503 16.8343 34.953 16.7363 35.2128 16.7723C35.4092 16.7994 35.5672 16.8973 35.6825 17.0631Z" fill="white"/>
<path d="M31.9045 12.8456C33.0121 13.5839 36.6629 13.6689 37.4013 13.3379C38.5909 12.8046 39.3499 13.9654 39.4114 14.6095C39.4565 15.0813 38.9421 18.1111 39.7805 17.7682C39.7805 17.7682 41.2983 15.0608 41.3803 12.3535C41.402 11.6347 41.0021 11.035 40.3663 10.551C38.7985 9.35724 35.7982 8.86668 34.1606 9.03075C33.0781 9.13903 31.4405 9.66773 30.869 10.7852C30.867 10.7893 30.8649 10.7934 30.8633 10.7979C30.5296 11.4828 31.4 12.5092 31.9045 12.8456Z" fill="#2D221E"/>
<path d="M31.9044 12.8453C33.012 13.5837 36.6629 13.6686 37.4012 13.3377C38.5908 12.8044 39.3498 13.9652 39.4113 14.6093C39.4564 15.0811 38.942 18.1109 39.7804 17.768C39.7804 17.768 41.2983 15.0606 41.3802 12.3532C41.4019 11.6345 41.002 11.0348 40.3662 10.5508C40.3626 10.5931 40.3584 10.6356 40.354 10.6791C40.2719 11.4523 39.771 12.1461 38.9933 12.3196C38.7459 12.3749 38.6188 12.2777 38.3857 12.2433C38.0768 12.1974 37.7019 12.2457 37.3942 12.2774C36.7465 12.3435 36.1214 12.5441 35.4663 12.5982C33.8582 12.7303 31.9602 12.0243 30.8633 10.7978C30.5295 11.4826 31.3999 12.509 31.9044 12.8453Z" fill="#1E1714"/>
<path d="M40.638 16.2301C40.0137 16.1669 39.6798 16.9673 39.5129 17.3761L39.0508 19.067C39.9278 20.3555 41.0126 18.2617 41.2291 17.5979C41.3823 17.1285 41.4006 16.3074 40.638 16.2301Z" fill="#FFB278"/>
<path d="M39.9219 17.342C40.4361 17.6028 40.1184 18.2966 39.661 18.3968C39.6354 18.367 40.2328 18.5472 40.4256 18.185C40.6236 17.8132 40.5747 17.4418 40.3347 17.1152C40.516 16.9052 40.9068 16.8043 40.969 17.1092C40.9266 16.1735 40.0162 16.6595 39.9219 17.342Z" fill="#E5804E"/>
<path d="M38.5156 30.3305V30.3687L38.5164 30.4093L38.5181 30.491C38.5193 30.5456 38.5206 30.6001 38.5218 30.6546C38.5243 30.7641 38.5266 30.8737 38.5291 30.9836C38.5345 31.0911 38.5394 31.199 38.5448 31.3068C38.55 31.4147 38.5546 31.523 38.5612 31.6312C38.5694 31.7395 38.5775 31.8482 38.5858 31.957C38.6517 32.8184 38.7679 33.6893 38.934 34.5482C38.9356 34.556 38.9368 34.5638 38.9385 34.5716C39.1082 35.4379 39.3297 36.2919 39.5928 37.1149C39.6255 37.2175 39.6588 37.3201 39.6921 37.4226C39.7254 37.5247 39.7623 37.6252 39.7971 37.7261C39.8328 37.8271 39.8681 37.9276 39.9033 38.0276C39.941 38.1269 39.9783 38.2258 40.016 38.3247C40.0537 38.4231 40.0903 38.5216 40.1288 38.6188C40.1686 38.716 40.2079 38.8125 40.2474 38.9088C40.2671 38.9568 40.2867 39.0048 40.3065 39.0524L40.3356 39.1242L40.343 39.1422L40.35 39.159L40.3537 39.1676L40.3688 39.2017C40.3886 39.2473 40.4086 39.2927 40.4288 39.3382L40.4583 39.4063L40.4922 39.4802C40.5824 39.6788 40.6707 39.8626 40.7646 40.045C40.811 40.1365 40.8578 40.2267 40.9061 40.3154C40.9299 40.3601 40.9536 40.4044 40.9774 40.4488C41.0021 40.4926 41.0263 40.5361 41.0509 40.5797C41.2461 40.928 41.45 41.259 41.658 41.5736C42.0744 42.2028 42.506 42.766 42.9281 43.2629C43.1389 43.511 43.3473 43.7432 43.5495 43.9595C43.7529 44.1744 43.9499 44.3745 44.1386 44.5583C44.5168 44.925 44.8614 45.2282 45.151 45.4699C45.4406 45.7114 45.6757 45.8919 45.8368 46.0134C45.9997 46.1331 46.0862 46.1972 46.0862 46.1972L47.6532 47.3855L46.6769 45.4001C46.6769 45.4001 46.3294 45.104 46.2523 45.0355C46.1363 44.9322 45.9988 44.807 45.8442 44.6597C45.5874 44.4149 45.283 44.1089 44.9515 43.742C44.7862 43.5583 44.6138 43.3593 44.437 43.1456C44.2615 42.9314 44.0814 42.7021 43.9004 42.4581C43.5379 41.9707 43.1731 41.4227 42.8298 40.8222C42.6584 40.5219 42.4925 40.2081 42.3367 39.8824C42.3169 39.8417 42.2978 39.8012 42.278 39.7601C42.2591 39.7191 42.2403 39.6776 42.2214 39.6362C42.1832 39.5534 42.1467 39.4697 42.1107 39.3856C42.0377 39.2178 41.9679 39.043 41.9052 38.8773L41.881 38.8145L41.8555 38.7448C41.8382 38.698 41.8215 38.6513 41.8047 38.604L41.7915 38.5692L41.7896 38.5626L41.7887 38.5602C41.7887 38.5598 41.7887 38.5597 41.7887 38.5597L41.783 38.5425L41.76 38.4736C41.7444 38.428 41.7292 38.3821 41.7136 38.3362C41.6828 38.2443 41.6517 38.152 41.6209 38.0593C41.5909 37.9666 41.563 37.8727 41.5339 37.7791C41.5048 37.6852 41.476 37.5912 41.447 37.4969C41.4203 37.4022 41.3936 37.3065 41.3668 37.2114C41.3406 37.1158 41.3124 37.0205 41.2877 36.9242C41.263 36.8274 41.2389 36.731 41.2143 36.6342C41.0211 35.8589 40.8689 35.0623 40.7646 34.2607C40.662 33.4592 40.6071 32.6531 40.5977 31.8598C40.5969 31.7609 40.5957 31.662 40.5948 31.5632C40.5948 31.4643 40.5972 31.3659 40.5986 31.2674C40.6002 31.1694 40.6018 31.0717 40.6035 30.9741C40.6075 30.879 40.6117 30.7837 40.6158 30.689C40.6177 30.6419 40.6195 30.5947 40.6215 30.5475L40.6243 30.4769L40.6261 30.4417L40.6285 30.4035C40.635 30.3022 40.6416 30.2017 40.6482 30.1012C40.6515 30.0508 40.6548 30.0007 40.6581 29.9506L40.663 29.8756L40.6639 29.8666V29.8711L40.6651 29.8543L40.6679 29.8207C40.6754 29.7308 40.6844 29.6406 40.6938 29.5507C40.7726 28.8296 40.9099 28.1211 41.0753 27.4653C41.2415 26.8084 41.4371 26.2002 41.6475 25.6616C41.8575 25.1226 42.0823 24.6529 42.3022 24.2661C42.522 23.8789 42.7369 23.576 42.9212 23.3533C42.9318 23.3402 42.9424 23.3275 42.9527 23.3152C41.7607 23.1323 40.6235 23.0116 40.1244 22.9624C40.1087 22.9923 40.0941 23.0227 40.0788 23.053C39.9948 23.2237 39.9127 23.4026 39.8327 23.5883C39.6678 23.9703 39.5119 24.3837 39.3696 24.8239C39.158 25.4782 38.9742 26.1912 38.8282 26.9521C38.6833 27.7138 38.5734 28.5211 38.53 29.381C38.525 29.4889 38.5206 29.5972 38.518 29.7066L38.516 29.8014V29.8769C38.5156 29.9269 38.5156 29.977 38.5156 30.0274C38.5161 30.1279 38.5161 30.2291 38.5156 30.3305Z" fill="#140F0E"/>
<path d="M45.0422 38.3645C44.6218 38.4817 40.5969 35.5428 40.1504 35.4944C39.8864 35.466 39.2432 35.2916 38.7026 35.0204C38.0476 34.6931 37.5424 34.2238 38.0407 33.7008C37.4556 33.3149 37.4846 32.4999 38.0792 32.3417C37.4896 31.8566 37.6729 31.5312 38.2603 31.1753C37.4321 30.0754 38.4478 30.2067 39.3283 30.3549C39.7065 30.4184 40.0596 30.4849 40.2308 30.4583C40.9063 30.3529 40.3202 30.0609 40.3392 29.2535C40.3513 28.7325 40.5595 28.331 41.1013 28.4795C41.3656 29.02 41.4449 29.8036 42.2378 30.8167C42.6306 31.3186 43.5015 34.2894 43.5015 34.2894C42.883 34.6038 45.7072 38.1795 45.0422 38.3645Z" fill="#FFB278"/>
<path d="M38.7026 35.0204C38.0476 34.6931 37.5424 34.2238 38.0407 33.7007C37.4556 33.3148 37.4846 32.4999 38.0792 32.3417C37.4896 31.8566 37.6729 31.5312 38.2603 31.1753C37.4321 30.0754 38.4478 30.2067 39.3283 30.3549C39.4495 30.6176 39.1956 30.9688 38.8772 31.1415C39.3433 31.466 39.2816 32.2226 38.7174 32.4335C39.0316 32.6752 39.0232 33.1781 38.6415 33.3538C39.128 33.7792 39.0624 34.571 38.7026 35.0204Z" fill="#E5804E"/>
<path d="M42.582 37.5029C42.7407 37.6406 44.6203 41.5586 48.9837 43.0583C49.2741 43.1581 49.5321 43.2445 49.7675 43.3123C50.2823 43.4596 50.6888 43.5182 51.0835 43.4333C51.0839 43.4333 51.0843 43.4333 51.0843 43.4333C51.1118 43.4254 51.1393 43.4173 51.1671 43.4082C52.5179 42.9807 52.9741 41.7005 52.9162 40.0702C52.817 39.9558 52.7034 39.8339 52.5745 39.7035C50.9513 38.0569 44.2956 35.2763 43.5046 33.9956L42.582 37.5029Z" fill="#D8250E"/>
<path d="M25.4959 51.5317L28.22 51.643C28.498 52.5325 29.5458 53.0872 29.8563 53.4442C30.619 54.3215 31.3005 54.5263 31.7346 54.8536C31.7734 55.3596 31.3814 55.4753 30.9172 55.3967C30.1977 55.2752 30.0391 54.705 29.8298 55.2862C29.7768 55.4333 29.7752 55.758 29.7666 56.1045C29.7468 56.9111 29.689 57.8346 28.8555 56.9111C28.4389 57.3711 28.1187 57.4778 27.7896 56.8715C27.5473 57.3719 26.8193 57.2577 26.5775 56.6724C26.0279 57.0247 25.6982 56.496 25.5203 55.8587C25.3725 55.3326 25.3282 54.7321 25.3483 54.493C25.3641 54.3037 25.9201 52.5714 25.4959 51.5317Z" fill="#FFB278"/>
<path d="M25.5195 55.8586C25.6975 56.4959 26.0272 57.0245 26.5767 56.6723C26.8186 57.2577 27.5466 57.3719 27.7889 56.8714C28.118 57.4778 28.4382 57.3711 28.8547 56.911C29.6882 57.8345 29.746 56.9109 29.7658 56.1045C29.5535 55.9519 29.1984 56.1167 28.9906 56.3697C28.7827 55.9005 28.101 55.8254 27.8172 56.2897C27.6566 55.9695 27.2091 55.8906 26.9878 56.1989C26.6937 55.6943 25.9801 55.6166 25.5195 55.8586Z" fill="#E5804E"/>
<path d="M25.5079 52.2547L27.8297 51.9397L28.4876 51.8503C28.2501 51.0615 28.4634 48.8037 28.6886 46.4097C28.8998 44.1723 29.121 41.8165 28.9951 40.4288C28.977 40.227 28.9512 40.0456 28.9171 39.8881C28.876 39.6978 28.8343 39.5272 28.7908 39.3745C28.7891 39.3738 28.7875 39.3726 28.7858 39.3717C28.5766 39.2535 28.3683 39.1518 28.1607 39.0693C27.0425 38.6251 25.9632 38.7367 25.055 39.7707C25.0328 39.7962 25.011 39.8213 24.9898 39.8466C24.9898 39.8466 24.9898 39.847 24.9893 39.8475C24.708 40.2227 24.541 40.6724 24.3909 41.2729C24.3224 41.5478 24.258 41.8541 24.187 42.2C24.0939 42.657 23.9201 41.918 23.8758 42.3634C23.4143 46.9866 25.4795 52.0497 25.5079 52.2547Z" fill="#D8250E"/>
<path d="M26.409 28.5156C26.7789 27.389 26.8937 26.6227 27.4755 25.6441C28.0726 24.6397 28.4316 24.5821 29.4776 24.1514L29.6007 37.9953C29.6566 39.0374 28.9643 40.5865 28.4947 41.5056C28.0937 42.29 27.551 43.2505 26.8182 43.7822C26.0288 44.355 24.4501 44.6018 24.0016 43.5944C23.2555 41.919 25.93 29.9748 26.409 28.5156Z" fill="#D8250E"/>
<path d="M46.9184 35.7355C46.2629 34.627 45.2717 32.0962 45.1135 30.9771C46.2292 33.6867 47.3148 35.2061 47.7388 36.6379C45.9339 35.8996 44.6336 35.7065 43.7188 33.9305C44.9049 34.4866 45.934 35.4074 46.9184 35.7355Z" fill="#AA160B"/>
<path d="M27.7188 50.4211C27.718 50.7808 27.7917 51.413 27.8296 51.9401L28.4875 51.8507C28.25 51.0619 28.7853 34.7511 29.3231 31.6216C27.9648 34.7511 27.7188 46.009 27.7188 47.7138C27.7188 48.6161 27.7212 49.5185 27.7188 50.4211Z" fill="#AA160B"/>
</g>
<defs>
<clipPath id="clip0_2370_34759">
<rect width="74" height="51" fill="white" transform="translate(0.375 6)"/>
</clipPath>
</defs>
</svg>
