<svg xmlns="http://www.w3.org/2000/svg" width="29" height="29" fill="none" viewBox="0 0 29 29">
    <path fill="#066c33" fill-rule="evenodd" d="M16.828 8.804a3.36 3.36 0 0 1 3.365 3.365.907.907 0 0 0 1.813 0 5.17 5.17 0 0 0-5.178-5.178.907.907 0 0 0 0 1.813" clip-rule="evenodd"/>
    <path fill="#066c33" fill-rule="evenodd" d="M16.832 4.531a7.57 7.57 0 0 1 5.401 2.233 7.57 7.57 0 0 1 2.233 5.401.906.906 0 0 0 1.813.009 9.37 9.37 0 0 0-2.765-6.69 9.37 9.37 0 0 0-6.69-2.765.907.907 0 0 0 .008 1.812M15.62 20.038a20.4 20.4 0 0 1-6.662-6.66c.568-.68 1.587-1.904 2.17-2.604a2.11 2.11 0 0 0 .371-2.043c-.584-1.708-.913-3.42-.944-5.134A2.113 2.113 0 0 0 8.44 1.51h-4.75c-1.123 0-2.05.878-2.112 1.999l-.071 1.324c0 12.504 10.152 22.657 22.656 22.657l1.324-.072a2.115 2.115 0 0 0 1.999-2.112c0-1.288 0-3.375-.007-4.711a2.107 2.107 0 0 0-2.141-2.103c-1.676.014-3.352-.307-5.027-.95a2.12 2.12 0 0 0-2.115.347zm-.754 1.664.002.002c.551.33 1.251.276 1.744-.135l2.744-2.285c.085-.07.2-.09.303-.05l.004.001q2.844 1.092 5.69 1.07h.013a.3.3 0 0 1 .213.083.3.3 0 0 1 .088.212v.005c.007 1.334.007 3.415.007 4.701 0 .16-.125.294-.285.302l-1.25.069C12.662 25.664 3.343 16.351 3.32 4.873l.07-1.265a.3.3 0 0 1 .301-.285H8.44c.166 0 .3.134.302.3v.008c.035 1.897.395 3.793 1.043 5.69l.001.004c.035.099.015.209-.053.29h-.001c-.632.763-1.781 2.142-2.305 2.77a1.51 1.51 0 0 0-.135 1.744l.003.004a22.2 22.2 0 0 0 7.57 7.569" clip-rule="evenodd"/>
</svg>
