<svg xmlns="http://www.w3.org/2000/svg" fill="none" viewBox="0 0 16 16">
    <g clip-path="url(#a)">
        <path fill="currentColor" d="M8 0a8 8 0 1 0 8 8 8.01 8.01 0 0 0-8-8"/>
        <path fill="#fff" fill-rule="evenodd" d="M4.646 4.647a.5.5 0 0 1 .707 0L8 7.293l2.646-2.646a.5.5 0 1 1 .707.707L8.707 8l2.646 2.646a.5.5 0 0 1-.707.707L8 8.708l-2.647 2.646a.5.5 0 0 1-.707-.707L7.293 8 4.646 5.354a.5.5 0 0 1 0-.707" clip-rule="evenodd"/>
    </g>
    <defs>
        <clipPath id="a">
            <path fill="#fff" d="M0 0h16v16H0z"/>
        </clipPath>
    </defs>
</svg>
