<svg xmlns="http://www.w3.org/2000/svg" width="189" height="187" fill="none" viewBox="0 0 189 187">
    <path fill="#fef2f2" d="M30.552 116.657S23.967 77.99 40.2 58.32s33.374-16.614 50.872-15.778c17.499.835 42.066-7.953 56.155 4.664s17.579 22.263 12.823 37.714c-4.757 15.452-.464 32.666-20.436 52.018-22.569 14.231-42.58-2.157-62.701 9.754-20.121 11.912-28.127 3.63-36.444-8.23s-9.918-21.805-9.918-21.805" opacity=".7"/>
    <g clip-path="url(#a)">
        <path fill="#000" d="M133.923 136.865h-31.552v6.112h31.552z"/>
        <path fill="#191919" d="M127.411 80.055c1.822-3.03 3.65-7.6 3.563-9.526-.086-1.93-1.654-4.215-5.331-6.195 1.111-.638 1.468-1.12.517-1.548-.951-.431-3.63-1.248-7.433-1.205.734-1.266.39-1.678-1.642-1.206-2.032.475-8.311 1.156-7.416 7.65.634 4.59 7.073 11.279 11.61 12.186s6.132-.156 6.132-.156"/>
        <path fill="#fbc8c7" d="M112.011 69.197c-.527-.063-.747-1.083-.747-1.448 0-.419-.007-1.093.04-1.379-.584.472-1.732 1.196-2.472 4.431-.788 3.455-1.362 9.36-.648 11.732.905 3.006 5.726 3.547 7.894 3.76-.197 2.102-.027 3.74-1.451 3.8.057 2.178-1.648 5.373 1.454 6.254 3.103.877 10.2-2.478 11.12-6.105-1.544-.548-2.535-.957-2.535-3.451 0-1.435.257-3.12.257-3.12s.75-.265 1.561-1.424c1.468-2.106 1.441-5.191-.684-5.955-1.655-.592-2.826.358-3.39 1.687-.22.518-.887.81-1.327.359-.344-.352-.281-.89-.284-1.339-.007-.545-.274-.81-.657-1.176-1.515-1.451-2.049-3.83-1.298-5.782.244-.635.607-1.22.904-1.83.17-.35.314-.771.124-1.107-.097-.169-.264-.285-.434-.382-2.389-1.371-5.478.32-7.06 2.19-.11.129-.207.315-.374.292z"/>
        <path fill="url(#b)" d="M116.081 86.296c1.774-.034 3.212-.416 5.254-2.618-.357 2.627-2.409 4.026-5.355 3.973l.101-1.359z"/>
        <path fill="#18185e" d="M115.316 74.143c-.067.428-.4.734-.741.68-.343-.052-.563-.444-.497-.873.067-.428.401-.734.741-.68.344.052.564.444.497.873M110.12 73.598c-.064.405-.377.694-.701.644s-.534-.422-.47-.827c.063-.405.377-.694.7-.644.324.05.534.421.471.827M116.161 72.718c-.034-.054-.057-.114-.097-.167a4 4 0 0 0-.184-.229 1.3 1.3 0 0 0-.603-.395 1.4 1.4 0 0 0-.427-.067c-.151 0-.284.03-.431.057-.11.02-.223-.027-.26-.14-.037-.112.027-.215.133-.255q-.155.104-.05.02l.05-.02a1.058 1.058 0 0 1 .211-.053c.103-.017.21-.027.313-.027.21 0 .434.037.627.12.261.116.494.322.631.57.04.077.077.15.083.237.01.11.03.239.017.349 0 .013-.017.006-.02 0zM108.653 71.884c.03-.183.124-.369.247-.502.167-.18.377-.296.617-.345.394-.083.818.03 1.151.239.09.056.107.196.05.279-.066.093-.183.1-.273.043q-.022-.014-.044-.026-.04-.02-.083-.04a1.4 1.4 0 0 0-.23-.083c-.144-.04-.3-.057-.451-.044-.18.014-.377.073-.54.15-.083.04-.164.093-.237.146-.08.056-.127.136-.193.203-.01.01-.017-.014-.014-.02"/>
        <path fill="#fb929c" d="M124.928 83.669c-1.461.455-2.469-.2-2.739-.97-.19.853 1.241 2.052 2.739.97M126.437 78.34c-.247-.44-.884-.5-1.328-.391-.45.113-.854.379-1.158.724-.28.319-.477.707-.574 1.12-.093.385-.146.93.117 1.261.037.047.13.067.147-.01.04-.179 0-.378 0-.56q0-.28.06-.549a2.5 2.5 0 0 1 .474-.993l.06-.066.003.003c.297.233.554.511.724.85.174.352.224.748.214 1.136 0 .027.036.087.063.047.247-.376.167-.894-.01-1.282-.173-.382-.454-.708-.774-.974.19-.162.407-.299.647-.378.437-.15.851-.05 1.248.16.07.036.13-.034.09-.1z"/>
        <path fill="#191919" d="M120.588 76c-.01 1.753-.794 2.889-2.209 3.812-1.114.728-2.622.452-4.074-.312-1.047-.551-2.105-.704-3.393-.807-1.077-.087-2.465.17-3.076.707-.297 1.073-.303 4.441.844 5.55 1.148 1.11 3.413 1.681 6.219 1.615s5.208-.907 6.116-2.325c1.578-2.465 1.041-5.464 1.468-6.414l-1.895-1.83z"/>
        <path fill="#fb929c" d="M111.655 72.837c-.044.335-.184.661-.291.98-.106.329-.216.654-.323.983a36 36 0 0 0-.564 1.943c-.08.309-.177.621-.227.937-.053.328.027.59.337.747.28.14.607.206.914.246q.247.034.497.03c.117 0 .254-.03.364.016.043.017.027.09-.01.11-.187.09-.417.076-.617.073a3.4 3.4 0 0 1-.864-.126c-.447-.123-.898-.332-.894-.86 0-.243.073-.482.133-.715a37 37 0 0 1 .747-2.574c.201-.61.397-1.265.731-1.816.023-.04.07-.01.063.026zM113.909 80.5c-.113.033-.21.106-.32.15-.127.049-.261.085-.391.122-.207.056-.423.09-.637.1a2.6 2.6 0 0 1-.584-.037c-.107-.016-.207-.016-.287.06-.083.08-.03.196.054.252.086.057.22.06.323.073q.14.015.281.02c.2.004.403-.006.6-.046.204-.04.4-.097.587-.186.117-.053.231-.12.331-.203.06-.05.163-.13.153-.219-.007-.05-.05-.103-.103-.09z"/>
        <path fill="#fff" d="M129.114 68.469c-.487-.398-1.058-.704-1.625-.98a13 13 0 0 0-1.712-.677 12.5 12.5 0 0 0-3.563-.592c-.684-.01-1.424-.006-2.088.176-.037.01-.03.087.01.087.584-.014 1.164-.08 1.751-.073.601.006 1.198.046 1.792.133 1.211.172 2.395.514 3.506 1.02.661.298 1.265.68 1.899 1.029.08.043.076-.08.03-.12z" opacity=".56"/>
        <path fill="#fff" d="M129.746 70.621c-1.701-1.903-4.224-3.032-6.746-3.301a10 10 0 0 0-1.048-.053c-.357 0-.74-.004-1.09.086-.037.01-.034.096.006.096.327.02.654-.01.981-.006a11.388 11.388 0 0 1 2.809.379c1.198.318 2.346.836 3.373 1.524.601.402 1.158.843 1.688 1.335.027.027.044-.043.027-.063zM127.994 72.618c-.557-.96-1.371-1.79-2.245-2.468a10.4 10.4 0 0 0-3.04-1.628c-.587-.196-1.211-.375-1.831-.401-.057 0-.044.096 0 .106.56.13 1.121.236 1.671.412.531.172 1.048.388 1.541.64.985.506 1.882 1.17 2.663 1.954.444.445.827.93 1.201 1.431.027.037.05-.026.037-.05z" opacity=".56"/>
        <path fill="#d18080" d="M72.351 117.757c-.437.561-.77 1.557-.844 2.647-.103 1.544.15 2.684.644 4.152 0 0 .507.016 1.191.016s1.064.14 1.385.239c.847.266 1.087.522 1.818 1.027.657.455 5.912 3.042 6.9 3.215.89.156 1.348.286 1.835.232.724-.079 1.788-.431 1.15-1.484 1.198.711 2.546.292 2.453-.847.64.538 1.745.604 2.315-.017.244-.272.114-.8-.016-1.129-1.876-4.813-2.963-4.773-8.154-7.125-1.712-.777-2.946-1.189-4.725-1.219-1.488-.026-5.124.117-5.948.293z"/>
        <path fill="#fbc8c7" d="M82.51 129.199c.231-.11.465-.226.641-.405.177-.183.29-.449.224-.691-.204-.754-1.325-.645-1.902-.572l.324-.322c.197-.196.404-.422.407-.697 0-.213-.127-.409-.297-.535s-.38-.186-.59-.223a3 3 0 0 0-.671-.039c-.043 0-.41.006-.417.016.177-.189.34-.395.424-.641.22-.654-.39-1.156-1.018-1.119-.33.02-.64.156-.934.299-.941.461-2.042 1.023-2.596 1.94-.153.252-.27.594-.083.85.207.285.567.452.91.505.444.069.891-.02 1.332-.107-.204.223-.234.572-.114.847.304.701 1.195.635 1.835.545-.06.193.064.405.237.512.738.451 1.575.179 2.292-.166zM88.638 117.354c-1.328-.395-2.64-.893-4.017-1.056-.41-.05-.83-.066-1.225.053-.43.13-.794.409-1.14.695a22 22 0 0 0-3.147 3.185c-.053.07-.11.139-.14.219-.067.186.013.402.16.538.147.133.344.199.54.229.832.133 1.662-.252 2.343-.744.394-.285.774-.618 1.244-.75.554-.153 1.148 0 1.692.186 1.371.468 2.592 1.023 3.393 1.621.384.285.99 1.205 1.615 2.212.4.647 1.224 2.062 1.224 2.062l3.33-1.242c-.2-1.588-.404-3.182-.758-4.743-.126-.558-.473-2.119-.473-2.119s-1.035.119-1.645.076c-.871-.06-2.162-.172-2.996-.422"/>
        <path fill="url(#c)" d="m95.09 116.312-2.54 1.023 1.85 8.443 2.972-.944z"/>
        <path fill="#7f2222" d="m103.807 111.539-9.522 4.759 2.426 9.583 6.646-2.276z"/>
        <path fill="url(#d)" d="m114.631 90.092-5.975 2.627s-3.187 11.582-3.707 23.642c-.521 12.061-.207 20.504-.207 20.504 5.458 2.096 16.338 1.049 27.225 0V93.586l-5.942-4.344s-8.725 3.643-10.193 3.477c-1.465-.166-1.204-2.627-1.204-2.627z"/>
        <path fill="#f3dbe0" d="m131.968 104.627-13.82 3.066c-1.774 11.037-2.182 22.855-3.453 24.784-2.065 3.143-5.221 3.73-10.015 1.525.026 1.84.063 2.863.063 2.863 5.458 2.096 16.338 1.05 27.225 0z" opacity=".6"/>
        <path fill="url(#e)" d="M114.632 90.092c-1.935 2.448-3.923 5.318-5.518 11.851s-2.489 16.916-2.489 22.291c0 5.374-.177 14.355-.177 14.355l-4.077-1.724c.267-10.861.904-27.495 3.617-39.064 1.051-4.484 2.035-5.75 4.771-7.091s4.68-2.016 4.68-2.016z"/>
        <path fill="url(#f)" d="m115.836 91.364-.577-.249s-1.481.505-1.732 2.033.247 3.341.247 3.341l1.648.29s1.178-1.778 1.572-2.382-1.154-3.03-1.154-3.03z"/>
        <path fill="url(#g)" d="M113.771 96.486c-1.628 4.524-5.695 20.394-5.548 22.878.146 2.488 1.087 10.822 2.268 11.041s3.804-8.191 4.074-10.018c.267-1.827.851-23.615.851-23.615l-1.648-.29z"/>
        <path fill="#f5eaea" d="M115.26 91.115c.134-.996.357-1.341.578-2.125 0-.472.12-1.003.12-1.003s-.207-.073-.514.249c-.764.8-2.656 2.753-3.05 4.019-.87 2.773-.4 4.457-.4 4.457s1.248-3.282 3.273-5.597zM115.836 91.364s5.205-.461 8.871-5.563l.044-.588s.507-.319.684.455c.176.774 3.099 3.577 3.099 3.577s-3.413 6.653-11.354 8.337c-.106-3.158-1.344-6.218-1.344-6.218"/>
        <path fill="url(#h)" d="M126.62 87.89c-.45 1.95-3.956 5.447-6.339 12.392-2.382 6.946-3.059 10.725-3.416 20.092-.334 8.742.163 18.61.163 18.61l16.896-2.116s-1.895-13.804-1.465-19.822c.43-6.019 1.338-25.682 1.338-25.682s-4.384-1.033-7.173-3.474z"/>
        <path fill="#fff" d="M126.986 90.331c.027 1.236.074 3.707.09 4.943-1.428 1.51-2.996 2.972-4.487 4.45l.043-.1c-.06 3.123-.22 9.404-.317 12.523-1.584 2.79-3.373 5.527-4.624 8.499 1.078-2.896 2.919-6.068 4.351-8.506.06-3.152.213-9.43.307-12.582 1.454-1.371 3.229-3.142 4.55-4.288.017-1.225.064-3.713.091-4.942z" opacity=".4"/>
        <path fill="#7f2222" d="M133.795 91.361c2.326 1.063 3.984 3.242 4.998 6.218s6.219 20.334 6.826 22.556 1.148 4.106-1.554 8.075-8.501 14.767-8.501 14.767h-10.673s5.371-13.19 6.522-15.611c1.148-2.421 1.398-5.228-.394-10.605-1.601-4.807-2.458-7.789-2.805-10.144s.82-11.785 5.578-15.256z"/>
        <path fill="#fc5555" d="M63.523 94.576c3.023.874 3.964 2.697 4.645 5.195s1.367 7.254 1.367 7.254l-6.008-12.449z"/>
        <path fill="#191919" d="M38.838 81.954c-.634.552-1.121 1.22-1.341 1.983-.264.917-.217 1.894-.087 2.84.127.927.32 1.917-.093 2.754-.554 1.126-1.952 1.511-2.943 2.285-1.154.9-1.765 2.444-1.538 3.886.24 1.531 1.324 2.866 1.385 4.411.06 1.588-.34 3.252.587 4.693.917 1.428 2.382 2.216 4.05 2.551 2.95.591 4.828-1.88 7.413-2.624 2.723-.784 5.792.83 8.378-.614a3.98 3.98 0 0 0 1.905-2.525c.21-.883.11-1.83.427-2.68.53-1.415 2.042-2.186 3.006-3.352 1.371-1.657 1.525-4.105.72-6.098-.803-1.993-2.442-3.564-4.287-4.676-1.845-1.116-3.903-1.82-5.942-2.521-2.338-.8-4.717-1.99-7.24-1.987-1.434 0-3.189.618-4.403 1.674z"/>
        <path fill="#9dc4fc" d="M36.897 100.82c.067-.481.13-.973.06-1.461a3.6 3.6 0 0 0-.34-1.033c-.354-.72-.874-1.372-1.104-2.15a2.92 2.92 0 0 1 .433-2.514c.801-1.112 2.179-1.607 3.15-2.537.49-.472.85-1.05.957-1.73.117-.745-.023-1.499-.173-2.226-.174-.85-.39-1.73-.214-2.597.217-1.057 1.101-1.728 2.066-2.09.033-.013.016-.1-.02-.09-.775.22-1.525.672-1.952 1.37-.41.663-.44 1.437-.347 2.195.187 1.524.887 3.218-.177 4.583-.877 1.12-2.332 1.588-3.286 2.634-.554.608-.875 1.389-.838 2.216.037.867.494 1.594.938 2.311.25.402.494.818.63 1.273.174.574.114 1.169.037 1.753-.123.927-.25 1.957.41 2.724.064.073.094-.047.054-.1-.55-.721-.4-1.697-.284-2.527zm4.821-12.81c-.314-1.037-.57-2.322.144-3.256.01-.013 0-.053-.017-.033-.63.71-.604 1.68-.427 2.561.22 1.096.777 2.212.55 3.351-.357 1.787-2.512 2.153-3.373 3.594-.644 1.083-.27 2.385.23 3.441.017.033.044-.003.034-.03-.38-.973-.637-2.165-.137-3.145.374-.73 1.105-1.19 1.755-1.65.634-.45 1.285-.954 1.555-1.712.363-1.02-.014-2.135-.31-3.122z" opacity=".3"/>
        <path fill="#191919" d="M62.703 76.165c1.445-1.986 2.576-7.254 0-9.948-2.575-2.693-5.455-1.61-5.455-1.61s-2.989-1.462-6.682-1.136c-3.694.325-7.784 2.776-8.915 5.304-1.111 2.481-1.591 10.536 5.942 14.95l15.11-7.556z"/>
        <path fill="#d18080" d="M58.317 69.167c.464-.402.86-.884 1.191-1.402.968.834 1.939 2.883 2.542 5.34.825 3.342 1.312 6.98 1.315 9.009 0 1.62-.11 2.132-.29 2.803-.694 2.551-3.267 3.242-5.308 3.235.09 2.518.127 5.44 1.551 5.404 1.358 2.74 6.269 9.762 3.233 10.848s-14.96-7.593-16.128-11.15c1.485-1.481 2.142-2.232 1.852-4.71-.23-1.966-.678-4.82-.678-4.82s-1.864.605-3.44-1.272c-1.65-1.966-1.958-4.603.108-5.51 1.608-.704 3.102.582 3.756 1.874.254.501.944.747 1.352.265.316-.375.216-.907.19-1.355-.03-.545.216-.827.573-1.219.804-.883 1.121-2.04.704-3.182-.253-.694-1.064-1.757-.747-2.53.214-.519.894-.635 1.451-.595 1.859.132 3.79.554 5.565-.246.444-.2.848-.468 1.215-.787z"/>
        <path fill="url(#i)" d="M57.767 88.149c-1.771.09-5.311-.492-7.376-3.322.967 3.956 4.524 5.57 7.46 5.318l-.087-1.996z"/>
        <path fill="#18185e" d="M54.822 76.952c.096.422.447.705.787.628.337-.076.534-.481.437-.903s-.447-.704-.787-.628c-.337.076-.534.482-.437.903M60.511 75.926c.09.402.424.668.744.595s.504-.456.414-.857c-.09-.402-.424-.668-.744-.595s-.504.455-.414.857M53.875 75.59c.03-.056.05-.116.087-.172a6 6 0 0 1 .166-.243c.137-.192.35-.348.574-.435a1.4 1.4 0 0 1 .42-.096c.15-.01.284.01.434.026.114.014.224-.04.25-.159.03-.113-.043-.212-.15-.246q.16.095.05.017l-.05-.017a.986.986 0 0 0-.217-.037 2 2 0 0 0-.316-.006c-.21.017-.43.067-.618.163-.253.133-.47.355-.59.614a.6.6 0 0 0-.067.243c0 .11-.013.239.007.349 0 .013.017.003.02 0M61.854 73.704a.97.97 0 0 0-.284-.485c-.18-.17-.397-.27-.64-.303-.397-.053-.811.087-1.131.32-.087.062-.094.202-.03.282.07.09.19.086.277.026l.043-.03.08-.046a1.4 1.4 0 0 1 .674-.173 1.55 1.55 0 0 1 .794.242c.083.05.137.127.207.19.01.01.013-.013.013-.02z"/>
        <path fill="#b55d5d" d="M46.707 83.814c1.521-.166 2.182-1.169 2.119-1.983.52.708-.307 2.375-2.119 1.983M44.036 78.829c.217-.459.847-.562 1.298-.482.457.083.877.319 1.204.645.304.298.524.674.65 1.076.12.378.211.92-.03 1.269-.033.05-.126.073-.146 0-.053-.177-.023-.38-.037-.562a2.5 2.5 0 0 0-.1-.545 2.4 2.4 0 0 0-.544-.956c-.02-.023-.043-.04-.063-.063q0 0-.003.006c-.277.253-.52.548-.664.897-.15.365-.174.76-.137 1.146 0 .027-.03.09-.06.053-.274-.359-.227-.88-.077-1.279.147-.395.404-.734.707-1.026-.2-.15-.427-.269-.67-.335-.447-.117-.851.006-1.235.245-.066.044-.13-.023-.096-.093zM58.77 75.205c.087.33.267.632.41.937q.226.468.447.937.429.915.808 1.857c.12.295.253.594.343.9.097.318.047.59-.24.783-.26.173-.577.28-.877.36q-.241.063-.487.092c-.114.013-.257.004-.36.063-.04.023-.017.093.023.107.196.063.423.023.624-.007.29-.043.573-.12.84-.233.427-.179.848-.441.778-.966-.034-.24-.134-.468-.224-.694q-.166-.428-.347-.85-.343-.812-.727-1.608c-.277-.581-.554-1.203-.958-1.71-.026-.037-.07 0-.06.036zM55.977 82.177c-.03.1.033.186.08.276.06.116.153.206.25.288.17.15.367.26.574.353.387.176.8.282 1.22.319.208.016.428.03.631.006.114-.013.254-.093.294-.21.057-.155-.13-.301-.27-.308-.204-.01-.404.01-.608-.013a4.128 4.128 0 0 1-1.248-.349c-.15-.067-.3-.133-.443-.213-.057-.033-.117-.053-.174-.083-.076-.036-.133-.086-.213-.12-.04-.016-.08.014-.093.05z"/>
        <path fill="#000" d="M38.467 136.865c-1.028 2.641-1.361 6.112-1.361 6.112h35.018v-6.112z"/>
        <path fill="url(#j)" d="m47.72 91.929 14.574 10.741-3.347-9.31 3.55.947s5.465 9.655 6.693 14.754c1.228 5.098 2.049 27.804 2.049 27.804-3.444 3.016-18.167 1.269-31.759 0 0 0 3.63-8.772 4.04-12.037s-3.416-18.222-4.03-21.214c-.614-2.993-.82-4.827 0-5.983s8.227-5.702 8.227-5.702z"/>
        <path fill="#feb2b2" d="M71.172 135.081c-3.39 1.233-7.93 1.133-8.537.073-.778-1.355 0-4.739 0-4.739l8.144-3.75a443 443 0 0 0-.244-4.209l-17.366 1.767-9.648-.754c.04.558.043 1.027 0 1.362-.41 3.265-4.04 12.037-4.04 12.037 13.588 1.269 28.315 3.016 31.758 0 0 0-.023-.661-.07-1.783z" opacity=".4"/>
        <path fill="url(#k)" d="M47.722 91.929s5.618 6.088 8.818 12.565c2.759 5.59 3.32 6.971 4.04 16.982.717 10.015.35 18.444.35 18.444-8.537.618-16.174-.166-22.46-3.055 0 0 2.339-8.085 3.216-11.423s-.16-7.559-1.675-13.435c-1.518-5.876-2.315-11.874-2.155-13.306s3.877-2.787 9.869-6.772z"/>
        <path fill="url(#l)" d="M58.949 93.364c3.596 4.085 7.413 10.987 8.27 16.029.858 5.042 1.559 29.78 1.559 29.78 1.754-.518 3.076-1.205 3.35-2.305 0 0-.998-19.952-1.622-25.844s-6.983-16.445-6.983-16.445l-4.578-1.215z"/>
        <path fill="url(#m)" d="m69.078 118.022 3.386-.276s-.697 1.624-.6 3.74.6 3.414.6 3.414l-3.283.635s-.507-1.139-.627-3.518c-.12-2.381.524-3.992.524-3.992z"/>
        <path fill="url(#n)" d="M38.43 97.827c-1.391 1.412-1.525 3.568 0 11.167s6.476 17.405 7.347 19.361c.87 1.953 2.182 3.112 6.252 2.242 4.07-.867 17.662-4.497 17.662-4.497-.824-2.442-1.07-5.557-.58-8.241l-14.393 1.88s-2.369-9.433-3.216-12.293c-1.655-5.58-6.903-13.166-13.072-9.622z"/>
        <path fill="#ea3934" d="M54.879 119.583c-.858-3.278-1.672-6.573-2.613-9.828-.844-2.923-1.915-5.883-3.866-8.271-1.035-1.265-2.273-2.381-3.717-3.162-.017-.01-.02.03-.007.04 2.446 1.492 4.16 3.85 5.388 6.391 1.442 2.982 2.192 6.241 3.036 9.426.47 1.784.948 3.564 1.422 5.348.006.019-.007.043-.03.046-1.548.289-3.09.598-4.594 1.056-.03.01-.024.08.013.077 1.234-.196 2.455-.442 3.683-.681.427-.083.891-.166 1.331-.253 0 0-.026-.136-.04-.189z" opacity=".46"/>
        <path fill="#ea3934" d="M60.386 119.002c-.243 0-5.05.465-5.895.571-.077.01.294.226.354.216.323-.053 5.545-.787 5.541-.787M65.933 124.828a17 17 0 0 1-.337-2.913c-.013-.512.044-1.033-.013-1.542-.007-.053-.087-.109-.107-.036-.13.465-.1.99-.093 1.471q.009.749.09 1.492c.053.505.137 1.009.24 1.508.107.508.227 1.003.454 1.471.026.053.07.027.063-.027-.053-.484-.193-.949-.293-1.424z" opacity=".46"/>
        <path fill="#f67773" d="M89.029 43.027c0-7.387-6.98-13.376-15.59-13.376-8.612 0-15.591 5.989-15.591 13.376 0 5.736 4.207 10.625 10.115 12.529-.086 1.757-1.374 3.593-3.403 4.39-.153.06-.11.27.054.28 3.336.195 5.918-.127 9.288-3.83 8.39-.213 15.12-6.115 15.12-13.366z"/>
        <path fill="#ea3934" d="M79.473 50.44c0-7.386 6.98-13.375 15.59-13.375 8.611 0 15.591 5.989 15.591 13.376 0 5.736-4.207 10.625-10.116 12.528.087 1.757 1.375 3.594 3.403 4.391.154.06.11.27-.053.279-3.336.196-5.919-.126-9.288-3.83-8.391-.212-15.12-6.114-15.12-13.365z"/>
        <path fill="#faa9a7" d="M89.028 43.027c0 5.241-3.513 9.775-8.628 11.97a11.6 11.6 0 0 1-.927-4.557c0-5.244 3.513-9.782 8.627-11.974.6 1.425.928 2.96.928 4.56"/>
    </g>
    <path fill="#000" d="m43.941 142.976 3.716-1.857h24.427l.189 7.895c-.774.929-4.18 2.973-11.611 3.716s-14.243-6.193-16.72-9.754"/>
    <path fill="#fff" d="m38.366 134.616-7.432 6.967-3.715 13.933c6.347.929 19.135 2.787 19.506 2.787.465 0 10.683-4.18 3.252-9.289-3.992-2.744-9.754-10.992-11.611-14.398M101.996 142.512l-5.11 8.824 72.919 2.787v-28.796c-5.109-3.87-16.813-8.731-22.758 2.787s-32.511 14.398-45.051 14.398"/>
    <defs>
        <linearGradient id="b" x1="119.767" x2="118.181" y1="87.033" y2="85.056" gradientUnits="userSpaceOnUse">
            <stop stop-color="#fbc8c7"/>
            <stop offset=".99" stop-color="#fb929c"/>
        </linearGradient>
        <linearGradient id="c" x1="95.26" x2="94.648" y1="124.917" y2="117.039" gradientUnits="userSpaceOnUse">
            <stop stop-color="#ebf7ff"/>
            <stop offset=".98" stop-color="#fff"/>
        </linearGradient>
        <linearGradient id="d" x1="120.8" x2="117.774" y1="93.895" y2="136.203" gradientUnits="userSpaceOnUse">
            <stop offset=".02" stop-color="#fff"/>
            <stop offset="1" stop-color="#ebf7ff"/>
        </linearGradient>
        <linearGradient id="e" x1="108.67" x2="109.229" y1="88.76" y2="146.873" gradientUnits="userSpaceOnUse">
            <stop stop-color="#aa4848"/>
            <stop offset=".31" stop-color="#a64444"/>
            <stop offset=".6" stop-color="#9b3a3a"/>
            <stop offset=".88" stop-color="#882a2a"/>
            <stop offset=".99" stop-color="#7f2222"/>
        </linearGradient>
        <linearGradient id="f" x1="113.454" x2="117.054" y1="93.945" y2="93.945" gradientUnits="userSpaceOnUse">
            <stop stop-color="#fd8181"/>
            <stop offset=".32" stop-color="#fc7d7d"/>
            <stop offset=".61" stop-color="#fc7272"/>
            <stop offset=".89" stop-color="#fc5f5f"/>
            <stop offset="1" stop-color="#fc5656"/>
        </linearGradient>
        <linearGradient id="g" x1="108.219" x2="115.419" y1="113.449" y2="113.449" gradientUnits="userSpaceOnUse">
            <stop stop-color="#fd8181"/>
            <stop offset=".32" stop-color="#fc7d7d"/>
            <stop offset=".61" stop-color="#fc7272"/>
            <stop offset=".89" stop-color="#fc5f5f"/>
            <stop offset="1" stop-color="#fc5656"/>
        </linearGradient>
        <linearGradient id="h" x1="125.069" x2="125.631" y1="88.677" y2="147.012" gradientUnits="userSpaceOnUse">
            <stop stop-color="#aa4848"/>
            <stop offset=".31" stop-color="#a64444"/>
            <stop offset=".6" stop-color="#9b3a3a"/>
            <stop offset=".88" stop-color="#882a2a"/>
            <stop offset=".99" stop-color="#7f2222"/>
        </linearGradient>
        <linearGradient id="i" x1="53.487" x2="54.351" y1="89.735" y2="86.64" gradientUnits="userSpaceOnUse">
            <stop stop-color="#d18080"/>
            <stop offset=".99" stop-color="#b55d5d"/>
        </linearGradient>
        <linearGradient id="j" x1="55.231" x2="55.013" y1="94.941" y2="132.69" gradientUnits="userSpaceOnUse">
            <stop offset=".02" stop-color="#fff"/>
            <stop offset="1" stop-color="#ebf7ff"/>
        </linearGradient>
        <linearGradient id="k" x1="51.492" x2="47.838" y1="92.218" y2="139.69" gradientUnits="userSpaceOnUse">
            <stop stop-color="#fd8181"/>
            <stop offset=".32" stop-color="#fc7d7d"/>
            <stop offset=".61" stop-color="#fc7272"/>
            <stop offset=".89" stop-color="#fc5f5f"/>
            <stop offset="1" stop-color="#fc5e56"/>
        </linearGradient>
        <linearGradient id="l" x1="58.949" x2="72.127" y1="116.268" y2="116.268" gradientUnits="userSpaceOnUse">
            <stop stop-color="#fd8181"/>
            <stop offset=".32" stop-color="#fc7d7d"/>
            <stop offset=".61" stop-color="#fc7272"/>
            <stop offset=".89" stop-color="#fc5f5f"/>
            <stop offset="1" stop-color="#fc5656"/>
        </linearGradient>
        <linearGradient id="m" x1="68.541" x2="72.464" y1="121.639" y2="121.639" gradientUnits="userSpaceOnUse">
            <stop stop-color="#ebf7ff"/>
            <stop offset=".98" stop-color="#fff"/>
        </linearGradient>
        <linearGradient id="n" x1="37.336" x2="69.691" y1="113.903" y2="113.903" gradientUnits="userSpaceOnUse">
            <stop stop-color="#fd8181"/>
            <stop offset=".32" stop-color="#fc7d7d"/>
            <stop offset=".61" stop-color="#fc7272"/>
            <stop offset=".89" stop-color="#fc5f5f"/>
            <stop offset="1" stop-color="#fc5656"/>
        </linearGradient>
        <clipPath id="a">
            <path fill="#fff" d="M32.793 29.651h113.325v113.325H32.793z"/>
        </clipPath>
    </defs>
</svg>
