<svg xmlns="http://www.w3.org/2000/svg" fill="none" viewBox="0 0 16 16">
    <g clip-path="url(#a)">
        <path fill="currentColor" d="M12.444 16H3.556c-.95 0-1.843-.37-2.515-1.041A3.53 3.53 0 0 1 0 12.444v-.889a.889.889 0 1 1 1.778 0v.89c0 .474.185.92.52 1.256.336.336.783.521 1.258.521h8.888c.475 0 .922-.185 1.257-.52.336-.336.521-.783.521-1.258v-.889a.889.889 0 0 1 1.778 0v.89c0 .95-.37 1.842-1.041 2.514A3.53 3.53 0 0 1 12.444 16M8 12.444a.89.89 0 0 1-.621-.252l-.002-.002-.002-.002v-.001l-.002-.001-.002-.002L3.816 8.63A.889.889 0 0 1 5.073 7.37L7.111 9.41V.889a.889.889 0 1 1 1.778 0v8.52l2.038-2.038a.889.889 0 0 1 1.257 1.258L8.63 12.184l-.002.002h-.001l-.001.002-.002.002-.002.002a.9.9 0 0 1-.275.182l-.002.001a.9.9 0 0 1-.344.07"/>
    </g>
    <defs>
        <clipPath id="a">
            <path fill="#fff" d="M0 0h16v16H0z"/>
        </clipPath>
    </defs>
</svg>
