<svg xmlns="http://www.w3.org/2000/svg" width="166" height="166" fill="none" viewBox="0 0 166 166">
    <path fill="#ebebeb" d="M166 126.956H0v.083h166zM78.691 112.15H14.583a1.9 1.9 0 0 1-1.896-1.895V20.139c0-1.045.85-1.895 1.896-1.895H78.69c1.045 0 1.895.85 1.895 1.895v90.116c0 1.044-.85 1.895-1.895 1.895M14.583 18.327c-1 0-1.812.813-1.812 1.813v90.115c0 .999.812 1.812 1.812 1.812H78.69c1 0 1.812-.813 1.812-1.812V20.139c0-.999-.813-1.812-1.812-1.812zM150.503 112.15H86.395a1.9 1.9 0 0 1-1.895-1.895V20.139c0-1.045.85-1.895 1.895-1.895h64.108c1.045 0 1.895.85 1.895 1.895v90.116a1.897 1.897 0 0 1-1.895 1.895M86.395 18.327c-1 0-1.812.813-1.812 1.813v90.115c0 .999.813 1.812 1.812 1.812h64.108c1 0 1.812-.813 1.812-1.812V20.139c0-.999-.812-1.812-1.812-1.812zM149.365 132.3h-8.631v.083h8.631zM118.199 133.201H103.25v.083h14.949zM140.402 129.217h-20.183v.083h20.183zM23.8 129.775h-6.386v.083H23.8zM45.115 129.775H26.758v.083h18.357zM81.051 131.177H56.328v.083h24.723z"/>
    <path fill="#f0f0f0" d="M125.697 125.256h2.655V76.102h-2.655z"/>
    <path fill="#f0f0f0" d="M112.944 126.951h14.704v-1.696h-14.704z"/>
    <path fill="#f5f5f5" d="M125.693 76.102h-13.451v49.153h13.451z"/>
    <path fill="#f0f0f0" d="M124.255 101.697h-10.583v8.777h10.583zM124.255 113.185h-10.583v8.777h10.583z"/>
    <path fill="#f5f5f5" d="M117.555 106.687h2.82a.39.39 0 0 0 .391-.391v-.421a.39.39 0 0 0-.391-.391h-2.82a.39.39 0 0 0-.391.391v.421c0 .215.176.391.391.391M117.555 118.175h2.82a.39.39 0 0 0 .391-.391v-.422a.39.39 0 0 0-.391-.391h-2.82a.39.39 0 0 0-.391.391v.422c0 .215.176.391.391.391"/>
    <path fill="#f0f0f0" d="M124.255 78.813h-10.583v8.777h10.583zM124.255 90.21h-10.583v8.777h10.583z"/>
    <path fill="#f5f5f5" d="M117.555 83.803h2.82a.39.39 0 0 0 .391-.391v-.422a.39.39 0 0 0-.391-.39h-2.82a.39.39 0 0 0-.391.39v.422c0 .215.176.39.391.39M117.555 95.2h2.82a.39.39 0 0 0 .391-.391v-.421a.39.39 0 0 0-.391-.392h-2.82a.39.39 0 0 0-.391.392v.42c0 .215.176.392.391.392"/>
    <path fill="#f0f0f0" d="M140.416 125.256h7.967V76.102h-7.967z"/>
    <path fill="#f0f0f0" d="M127.66 126.951h19.902v-1.696H127.66z"/>
    <path fill="#f5f5f5" d="M140.412 76.102h-13.451v49.153h13.451z"/>
    <path fill="#f0f0f0" d="M138.973 101.697h-10.582v8.777h10.582zM138.973 113.185h-10.582v8.777h10.582z"/>
    <path fill="#f5f5f5" d="M132.282 106.687h2.819a.39.39 0 0 0 .391-.391v-.421a.39.39 0 0 0-.391-.391h-2.819a.39.39 0 0 0-.391.391v.421a.39.39 0 0 0 .391.391M132.282 118.175h2.819a.39.39 0 0 0 .391-.391v-.422a.39.39 0 0 0-.391-.391h-2.819a.39.39 0 0 0-.391.391v.422a.39.39 0 0 0 .391.391"/>
    <path fill="#f0f0f0" d="M138.973 78.813h-10.582v8.777h10.582zM138.973 90.21h-10.582v8.777h10.582z"/>
    <path fill="#f5f5f5" d="M132.282 83.803h2.819a.39.39 0 0 0 .391-.391v-.422a.39.39 0 0 0-.391-.39h-2.819a.39.39 0 0 0-.391.39v.422a.39.39 0 0 0 .391.39M132.282 95.2h2.819a.39.39 0 0 0 .391-.391v-.421a.39.39 0 0 0-.391-.392h-2.819a.39.39 0 0 0-.391.392v.42a.39.39 0 0 0 .391.392"/>
    <path fill="#e6e6e6" d="M97.158 65.843h44.725V26.58H97.158zM92.366 25.053h52.412a.444.444 0 0 1 0 .887H92.366a.444.444 0 1 1 0-.888"/>
    <path fill="#f0f0f0" d="M95.257 65.843h45.735V26.58H95.257z"/>
    <path fill="#e6e6e6" d="M97.151 65.842h44.725V67.1H95.844z"/>
    <path fill="#f0f0f0" d="M92.097 65.842h45.735l-1.308 1.258H90.789z"/>
    <path fill="#fafafa" d="M138.336 63.186v-33.95H97.914v33.95z"/>
    <path fill="#fff" d="m129.158 63.186-15.594-33.95h-7.361l15.594 33.95zM120.214 63.186l-15.594-33.95h-2.87l15.594 33.95z"/>
    <path fill="#e6e6e6" d="M98.25 63.186v-33.95h-.337v33.95z"/>
    <g opacity=".4">
        <path fill="#f0f0f0" d="M138.302 56.658h4.573v-32.4h-4.573z"/>
        <path fill="#e6e6e6" d="M136.524 56.658h3.562v-32.4h-3.562z"/>
        <path fill="#f0f0f0" d="M133.732 56.658h4.573v-32.4h-4.573z"/>
        <path fill="#e6e6e6" d="M131.945 56.658h3.563v-32.4h-3.563z"/>
        <path fill="#f0f0f0" d="M129.154 56.658h4.573v-32.4h-4.573z"/>
    </g>
    <g opacity=".4">
        <path fill="#f0f0f0" d="M99.615 56.658h2.635v-32.4h-2.635z"/>
        <path fill="#e6e6e6" d="M98.588 56.658h2.053v-32.4h-2.053z"/>
        <path fill="#f0f0f0" d="M96.982 56.658h2.635v-32.4h-2.635z"/>
        <path fill="#e6e6e6" d="M95.955 56.658h2.053v-32.4h-2.053z"/>
        <path fill="#f0f0f0" d="M94.342 56.658h2.635v-32.4H94.34z"/>
    </g>
    <path fill="#f5f5f5" d="M54.516 50.363h6.33L60.1 34.314h-5.583zM64.425 51.231l1.365 7.13h-1.365l-8.37-7.13z"/>
    <path fill="#e6e6e6" d="M65.792 51.231v7.13l-8.37-7.13z"/>
    <path fill="#f5f5f5" d="m31.597 51.231 1.365 7.13h-1.365l-8.37-7.13z"/>
    <path fill="#e6e6e6" d="M32.964 51.231v7.13l-8.37-7.13zM71.931 50.388h-9.103v1.028h9.103z"/>
    <path fill="#f5f5f5" d="M17.57 51.416h45.258v-1.028H17.57z"/>
    <path fill="#e6e6e6" d="M45.219 50.363h13.587l1.68-19.447H46.899z"/>
    <path fill="#f0f0f0" d="M44.516 50.363h13.587l1.68-19.447H46.196z"/>
    <path fill="#fff" d="m56.966 48.21 1.536-15.142h-11.16L45.804 48.21z"/>
    <path fill="#e0e0e0" d="M39.14 50.363h4.36l-.515-11.05H39.14z"/>
    <path fill="#f0f0f0" d="M32.734 50.363h9.356l1.156-13.39h-9.355z"/>
    <path fill="#f5f5f5" d="M32.25 50.363h9.355l1.157-13.39h-9.355z"/>
    <path fill="#e0e0e0" d="m40.818 48.88 1.058-10.425H34.19L33.133 48.88zM87.108 78.498a1.881 1.881 0 1 1-3.75.308 1.881 1.881 0 0 1 3.75-.308"/>
    <path fill="#e0e0e0" d="M90.6 79.482a1.881 1.881 0 1 1-3.75.309 1.881 1.881 0 0 1 3.75-.309"/>
    <path fill="#e0e0e0" d="M93.131 78.358a1.881 1.881 0 1 1-3.75.309 1.881 1.881 0 0 1 3.75-.309"/>
    <path fill="#e0e0e0" d="M95.796 79.055a1.881 1.881 0 1 1-3.75.308 1.881 1.881 0 0 1 3.75-.308"/>
    <path fill="#f0f0f0" d="M98.19 79.359s-.22 5.225-8.615 5.225-8.614-5.225-8.614-5.225z"/>
    <path fill="#e6e6e6" d="M19.88 126.956h3.05V84.584h-3.05z"/>
    <path fill="#f0f0f0" d="M19.063 126.956h1.796V84.584h-1.796z"/>
    <path fill="#f0f0f0" d="M61.82 84.584H18.508v3.178h43.311z"/>
    <path fill="#e6e6e6" d="M102.841 126.956h3.05V84.584h-3.05z"/>
    <path fill="#f0f0f0" d="M102.266 126.956h1.796V84.584h-1.796z"/>
    <path fill="#e6e6e6" d="M106.437 84.584H63.125v3.178h43.312z"/>
    <path fill="#e6e6e6" d="M62.083 126.956h3.05V84.584h-3.05z"/>
    <path fill="#f0f0f0" d="M61.266 126.956h1.797V84.584h-1.797z"/>
    <path fill="#e6e6e6" d="M72.096 70.49H49.481l-4.028 13.355h22.615zM68.067 83.845l-.091.738H45.358l.092-.738z"/>
    <path fill="#f0f0f0" d="M71.4 70.49H48.787l-4.028 13.355h22.615z"/>
    <path fill="#fff" d="M66.93 83.235 70.59 71.1H49.23l-3.66 12.134z"/>
    <path fill="#f0f0f0" d="m61.48 83.845-.092.738H36.484l.092-.738z"/>
    <path fill="#f5f5f5" d="M82.996 141.95c35.551 0 64.371-1.683 64.371-3.759s-28.82-3.759-64.37-3.759c-35.552 0-64.372 1.683-64.372 3.759s28.82 3.759 64.371 3.759"/>
    <path fill="#ea3934" d="m46.644 72.083 69.412-.504 1.934 47.191-71.873-.666z"/>
    <path fill="#ea3934" d="m46.648 72.084 35.24-28.515 34.172 28.01"/>
    <path fill="#000" d="m46.648 72.084 35.24-28.515 34.172 28.01" opacity=".3"/>
    <path fill="#263238" d="M46.001 117.999c-.083-.076 5.223-5.733 11.849-12.636 6.628-6.904 12.066-12.438 12.149-12.362s-5.222 5.732-11.85 12.637c-6.626 6.902-12.065 12.437-12.148 12.361M117.993 118.77c-.089.079-5.501-5.865-12.086-13.276-6.587-7.413-11.854-13.484-11.765-13.563.088-.078 5.5 5.865 12.086 13.278 6.586 7.41 11.854 13.483 11.765 13.561"/>
    <path fill="#000" d="M116.06 71.579 81.205 99.423l-34.557-27.34" opacity=".5"/>
    <path fill="#ebebeb" d="m50.14 74.662-.1-20.192 60.792-1.487.664 22.091-30.298 23.984z"/>
    <path fill="#ea3934" d="M82.046 91.805q-.863 0-1.733-.1A15.02 15.02 0 0 1 70.186 86.1a15.03 15.03 0 0 1-3.197-11.124c.938-8.287 8.444-14.266 16.73-13.325a15.02 15.02 0 0 1 10.127 5.605 15.03 15.03 0 0 1 3.198 11.125 15.02 15.02 0 0 1-5.606 10.127 15 15 0 0 1-9.392 3.297m-.04-29.73c-7.322 0-13.655 5.515-14.5 12.96a14.5 14.5 0 0 0 3.088 10.742 14.5 14.5 0 0 0 9.778 5.411 14.5 14.5 0 0 0 10.742-3.087 14.5 14.5 0 0 0 5.412-9.778c.44-3.876-.657-7.69-3.087-10.741a14.5 14.5 0 0 0-9.779-5.412 15 15 0 0 0-1.654-.094"/>
    <path fill="#ea3934" d="m71.734 78.779 2.528-3.097 5.912 4.27 9.608-11.324 2.897 2.548-12.357 14.241z"/>
</svg>
