<svg xmlns="http://www.w3.org/2000/svg" fill="none" viewBox="0 0 25 25">
    <path fill="currentColor" d="M22.11 4.297H2.88c-1.133 0-2.05.923-2.05 2.05v12.305c0 1.134.924 2.051 2.05 2.051H22.11c1.123 0 2.05-.913 2.05-2.05V6.348c0-1.126-.914-2.051-2.05-2.051m-.287 1.367-7.878 7.837c-.387.388-.902.6-1.45.6a2.04 2.04 0 0 1-1.452-.601L3.166 5.664zM2.195 18.374V6.627l5.908 5.877zm.972.962 5.906-5.868 1.005 1a3.4 3.4 0 0 0 2.417 1.001c.913 0 1.771-.355 2.415-1l1.007-1.001 5.906 5.868zm19.627-.962-5.908-5.87 5.908-5.877z"/>
</svg>
