<svg xmlns="http://www.w3.org/2000/svg" fill="none" viewBox="0 0 40 40">
    <rect width="40" height="40" fill="#fff" rx="20"/>
    <path fill="currentColor" d="M20.265 16.21h-4.069a.508.508 0 1 0 0 1.017h4.069a.509.509 0 0 0 0-1.017M20.265 18.931h-4.069a.508.508 0 1 0 0 1.017h4.069a.509.509 0 1 0 0-1.017M20.265 21.713h-4.069a.508.508 0 1 0 0 1.017h4.069a.509.509 0 1 0 0-1.017"/>
    <path fill="currentColor" d="M25.018 12.37h-10.04A1.98 1.98 0 0 0 13 14.364v12.405a.717.717 0 0 0 1.088.615l1.872-1.124a.18.18 0 0 1 .188 0l2.08 1.246c.11.07.237.107.366.107.131 0 .26-.036.372-.102l2.09-1.251a.18.18 0 0 1 .188 0l1.862 1.124a.71.71 0 0 0 .722 0 .72.72 0 0 0 .361-.62v-8.575h1.597a1.216 1.216 0 0 0 1.21-1.21v-2.615a1.984 1.984 0 0 0-1.978-1.994m-1.846 13.865-1.404-.845a1.21 1.21 0 0 0-1.236 0L18.6 26.55l-1.928-1.165a1.21 1.21 0 0 0-1.251.005l-1.404.85V14.364a.96.96 0 0 1 .961-.977h8.402a1.8 1.8 0 0 0-.208.83v12.018m2.807-9.257a.194.194 0 0 1-.193.194h-1.597v-2.94a.83.83 0 0 1 .83-.844.96.96 0 0 1 .96.96z"/>
</svg>
