<svg xmlns="http://www.w3.org/2000/svg" fill="none" viewBox="0 0 40 40">
    <rect width="40" height="40" fill="#fff" rx="20"/>
    <path fill="currentColor" d="M13.52 12.639v-.067q-.002-.01.007-.02v-.007c0-.006 0-.006.006-.013 0-.007.007-.013.007-.027V12.5l.892-2.589c.08-.24.34-.36.579-.28.24.08.359.34.28.58l-.447 1.297a10.86 10.86 0 0 1 5.61-1.537c6.063 0 10.995 4.931 10.995 10.994 0 2.476-.806 4.812-2.323 6.762a.45.45 0 0 1-.36.173.5.5 0 0 1-.279-.094.455.455 0 0 1-.08-.638 10 10 0 0 0 2.137-6.203c0-5.564-4.526-10.082-10.083-10.082-1.943 0-3.793.539-5.41 1.57l1.697.413a.45.45 0 0 1 .332.546.454.454 0 0 1-.545.332l-2.669-.645c-.007 0-.007 0-.013-.007-.007 0-.014-.006-.027-.006-.007 0-.013-.007-.013-.007-.007 0-.014-.007-.02-.007h-.007c-.007 0-.007-.006-.013-.006-.007-.007-.014-.007-.02-.014h-.007c-.007 0-.007-.007-.013-.007-.007-.006-.014-.006-.02-.013 0 0-.007 0-.007-.006l-.013-.014c-.007-.006-.013-.006-.013-.013 0 0-.007 0-.007-.007l-.007-.006-.006-.007-.014-.013-.006-.007-.007-.007-.007-.006-.006-.007-.007-.007c0-.006-.007-.006-.007-.013l-.006-.007c0-.006-.007-.006-.007-.013s-.007-.013-.007-.013c-.006-.007-.006-.014-.013-.02 0-.007-.007-.007-.007-.014-.006-.006-.006-.02-.013-.026 0-.007 0-.007-.007-.013-.006-.007-.006-.02-.006-.027q.002-.01-.007-.02.002-.01-.006-.02v-.06q-.009-.039-.007-.046m-.406 10.142 1.204.333c.08.226.174.446.273.652l-.612 1.085a.47.47 0 0 0 .033.499c.68.892 1.158 1.37 2.05 2.05.147.113.34.126.5.033l1.084-.612q.32.152.659.272l.333 1.205a.45.45 0 0 0 .379.326c.566.073 1.012.113 1.45.113.44 0 .88-.04 1.452-.113a.47.47 0 0 0 .379-.326l.333-1.205c.22-.08.439-.166.652-.272l1.085.612c.16.086.352.073.499-.033.865-.66 1.384-1.178 2.05-2.05a.44.44 0 0 0 .033-.5l-.54-.951-.072-.133q.152-.32.272-.659l1.205-.333a.45.45 0 0 0 .326-.38c.153-1.137.153-1.756 0-2.894a.47.47 0 0 0-.326-.38l-1.205-.332c-.08-.22-.166-.44-.272-.652l.612-1.085a.47.47 0 0 0-.033-.5c-.666-.864-1.178-1.383-2.05-2.049a.44.44 0 0 0-.5-.033l-1.084.612a7 7 0 0 0-.652-.273l-.333-1.204a.45.45 0 0 0-.38-.326c-1.098-.147-1.803-.147-2.894 0a.47.47 0 0 0-.38.326l-.332 1.204c-.22.08-.44.167-.66.273l-1.084-.612a.47.47 0 0 0-.5.033c-.891.679-1.37 1.158-2.049 2.05a.44.44 0 0 0-.033.499l.612 1.085c-.1.206-.193.432-.273.652l-1.204.333a.45.45 0 0 0-.327.379c-.153 1.138-.153 1.757 0 2.895.02.193.147.34.32.386m.539-2.855 1.145-.32a.46.46 0 0 0 .313-.299c.1-.326.246-.672.399-.965a.45.45 0 0 0-.007-.44l-.585-1.03a8.2 8.2 0 0 1 1.457-1.458l1.032.585c.133.074.299.08.432.007.313-.166.639-.3.958-.4a.48.48 0 0 0 .306-.312l.32-1.145a8.2 8.2 0 0 1 2.063 0l.32 1.145c.04.146.153.266.299.313q.51.16.958.4c.14.072.3.072.433-.008l1.031-.585c.593.472.992.872 1.458 1.457l-.586 1.032a.45.45 0 0 0-.006.432q.25.47.399.959c.046.146.166.26.313.306l1.144.32a7.7 7.7 0 0 1 0 2.062l-1.144.32a.45.45 0 0 0-.313.306q-.15.497-.4.965c-.073.14-.066.3.007.433l.193.346c.133.232.26.459.393.692a8.4 8.4 0 0 1-1.458 1.457l-1.031-.585a.45.45 0 0 0-.433-.007c-.306.16-.632.3-.965.4a.46.46 0 0 0-.3.312l-.319 1.145a7.7 7.7 0 0 1-2.063 0l-.32-1.145a.46.46 0 0 0-.299-.313 5.6 5.6 0 0 1-.965-.4.44.44 0 0 0-.432.008l-1.032.585a8.2 8.2 0 0 1-1.457-1.457l.585-1.032c.074-.133.08-.3.007-.433a6 6 0 0 1-.4-.964.44.44 0 0 0-.312-.3l-1.145-.32a8 8 0 0 1 .007-2.07m6.801 4.965a3.937 3.937 0 0 0 3.934-3.934 3.937 3.937 0 0 0-3.934-3.933 3.937 3.937 0 0 0-3.933 3.933 3.945 3.945 0 0 0 3.933 3.934m0-6.955a3.03 3.03 0 0 1 3.029 3.028 3.025 3.025 0 1 1-3.029-3.028"/>
</svg>
