<svg xmlns="http://www.w3.org/2000/svg" fill="none" viewBox="0 0 25 25">
    <path fill="currentColor" d="M19.283 14.454c-.478-.497-1.054-.763-1.664-.763-.606 0-1.187.26-1.685.758L14.378 16q-.193-.102-.38-.197c-.176-.088-.344-.172-.487-.26-1.457-.926-2.782-2.133-4.053-3.694-.615-.778-1.029-1.433-1.33-2.098.405-.37.779-.754 1.143-1.123l.414-.418c1.034-1.035 1.034-2.374 0-3.408L8.34 3.457c-.153-.152-.31-.31-.458-.468-.296-.305-.606-.62-.926-.916-.478-.472-1.05-.724-1.65-.724s-1.182.252-1.674.724l-.01.01-1.675 1.69c-.63.63-.99 1.398-1.068 2.29-.119 1.437.305 2.777.63 3.653C2.308 11.87 3.5 13.863 5.277 16c2.157 2.576 4.753 4.61 7.717 6.043 1.133.537 2.645 1.172 4.334 1.28.103.005.212.01.31.01 1.138 0 2.093-.409 2.842-1.221.005-.01.015-.015.02-.025.256-.31.551-.59.861-.891.212-.202.429-.414.64-.635.488-.508.744-1.099.744-1.704 0-.611-.26-1.197-.758-1.69zm1.763 5.186c-.005 0-.005.005 0 0-.192.206-.389.394-.6.6-.32.306-.646.626-.951.985-.498.532-1.084.783-1.852.783-.074 0-.152 0-.226-.005-1.463-.093-2.822-.664-3.842-1.152-2.787-1.35-5.234-3.265-7.268-5.693-1.68-2.024-2.803-3.895-3.546-5.904-.458-1.227-.626-2.182-.552-3.083a2.26 2.26 0 0 1 .68-1.463l1.68-1.68c.24-.226.497-.349.748-.349.31 0 .561.187.719.345l.015.015c.3.28.586.57.886.881q.23.235.468.478l1.344 1.344c.522.522.522 1.005 0 1.527-.143.143-.28.286-.423.423A26 26 0 0 1 7.09 8.894c-.01.01-.02.015-.025.025-.424.423-.345.837-.256 1.118l.015.044c.35.847.842 1.645 1.59 2.595l.005.005c1.36 1.675 2.793 2.98 4.373 3.98.202.127.41.23.606.33.177.088.345.172.488.26.02.01.04.025.059.035.167.083.325.123.487.123.409 0 .665-.256.749-.34l1.684-1.684c.168-.168.434-.37.744-.37.305 0 .556.192.709.36l.01.01 2.713 2.713c.507.503.507 1.02.005 1.542M13.454 5.55a6.25 6.25 0 0 1 3.398 1.763 6.28 6.28 0 0 1 1.762 3.398.66.66 0 0 0 .656.552c.039 0 .073-.005.113-.01a.665.665 0 0 0 .546-.768 7.6 7.6 0 0 0-2.132-4.112 7.6 7.6 0 0 0-4.112-2.133.67.67 0 0 0-.768.542c-.064.36.172.71.537.768M24.149 10.293a12.5 12.5 0 0 0-3.512-6.772 12.5 12.5 0 0 0-6.771-3.51.66.66 0 0 0-.763.54.67.67 0 0 0 .546.77 11.2 11.2 0 0 1 6.053 3.136 11.16 11.16 0 0 1 3.137 6.052.66.66 0 0 0 .655.552c.04 0 .073-.005.113-.01a.65.65 0 0 0 .542-.758"/>
</svg>
