<svg xmlns="http://www.w3.org/2000/svg" fill="none" viewBox="0 0 20 20">
    <path fill="currentColor" d="M17.034 13.64c-.492-.412-3.375-2.238-3.855-2.154-.225.04-.397.231-.857.78a6.6 6.6 0 0 1-.7.759 6 6 0 0 1-1.336-.495A8.27 8.27 0 0 1 6.47 8.713a6 6 0 0 1-.495-1.336q.352-.38.758-.7c.55-.46.741-.631.781-.857.084-.48-1.743-3.363-2.154-3.855-.172-.203-.328-.34-.529-.34-.58 0-3.206 3.247-3.206 3.668 0 .034.056 3.414 4.325 7.757 4.343 4.269 7.723 4.325 7.757 4.325.421 0 3.668-2.626 3.668-3.206 0-.2-.137-.357-.341-.529M13.438 8.938h1.124a4.505 4.505 0 0 0-4.5-4.5v1.125a3.38 3.38 0 0 1 3.376 3.375"/>
    <path fill="currentColor" d="M16.25 8.938h1.125a7.32 7.32 0 0 0-7.312-7.313V2.75a6.195 6.195 0 0 1 6.187 6.188"/>
</svg>
