<svg xmlns="http://www.w3.org/2000/svg" fill="none" viewBox="0 0 14 14">
    <g clip-path="url(#a)">
        <path fill="currentColor" d="M7 .875A6.13 6.13 0 0 0 .875 7 6.13 6.13 0 0 0 7 13.125 6.13 6.13 0 0 0 13.125 7 6.13 6.13 0 0 0 7 .875m3.09 5.44-1.21 1.18.286 1.665a.462.462 0 0 1-.67.487L7 8.86l-1.496.787a.462.462 0 0 1-.67-.487l.286-1.666-1.21-1.18a.462.462 0 0 1 .255-.787l1.673-.243.748-1.516a.462.462 0 0 1 .828 0l.748 1.516 1.673.243a.462.462 0 0 1 .255.787"/>
    </g>
    <defs>
        <clipPath id="a">
            <path fill="#fff" d="M0 0h14v14H0z"/>
        </clipPath>
    </defs>
</svg>
