<svg xmlns="http://www.w3.org/2000/svg" width="22" height="22" fill="none" viewBox="0 0 22 22">
    <path fill="currentColor" stroke="currentColor" d="M16.32 11.125a.687.687 0 1 0-.967.977 6.15 6.15 0 0 1 1.835 4.398c0 .84-2.41 2.063-6.188 2.063s-6.187-1.223-6.187-2.064a6.15 6.15 0 0 1 1.811-4.375.688.688 0 1 0-.972-.972A7.51 7.51 0 0 0 3.438 16.5c0 2.233 3.896 3.438 7.562 3.438s7.563-1.205 7.563-3.438a7.5 7.5 0 0 0-2.244-5.375Z"/>
    <path fill="currentColor" stroke="currentColor" d="M11 11.688a4.812 4.812 0 1 0 0-9.624 4.812 4.812 0 0 0 0 9.624Zm0-8.25a3.438 3.438 0 1 1 0 6.875 3.438 3.438 0 0 1 0-6.876Z"/>
</svg>
