<svg xmlns="http://www.w3.org/2000/svg" fill="none" viewBox="0 0 40 40">
    <path stroke="currentColor" stroke-opacity=".3" d="M29.873 2.5c.597.03 1.308.082 1.816.137l.43.056c.622.11 1.25.332 1.768.59.642.339 1.16.71 1.64 1.19a6.3 6.3 0 0 1 1.187 1.63c.253.507.443 1.14.6 1.845l.001.012.004.012c.046.166.083.488.114.909l.068 1.24v19.464c-.04.796-.118 1.8-.192 2.248a6.7 6.7 0 0 1-.595 1.783 6.6 6.6 0 0 1-1.187 1.63 6.3 6.3 0 0 1-1.63 1.187c-.506.253-1.14.443-1.844.6l-.012.001-.012.004c-.166.045-.488.083-.909.113-.402.03-.846.049-1.246.069H10.409c-.798-.04-1.8-.12-2.246-.194a6.7 6.7 0 0 1-1.778-.593 6.6 6.6 0 0 1-1.63-1.187 6.3 6.3 0 0 1-1.187-1.63c-.253-.506-.442-1.14-.598-1.844l-.006-.024-.033-.152a8 8 0 0 1-.081-.757c-.03-.4-.049-.84-.069-1.24V10.12c.04-.796.12-1.794.194-2.238l-.001-.001a6.7 6.7 0 0 1 .59-1.767c.34-.641.71-1.16 1.19-1.64a6.3 6.3 0 0 1 1.63-1.187c.507-.253 1.14-.442 1.845-.599l.024-.005c.166-.046.488-.084.91-.115.4-.029.845-.048 1.245-.068z"/>
    <path fill="currentColor" d="M26.64 21.76c-.32-.16-1.92-.92-2.2-1.04s-.52-.16-.72.16-.84 1.04-1 1.24c-.2.2-.36.24-.68.08s-1.36-.48-2.6-1.56c-.96-.84-1.6-1.88-1.8-2.2s0-.48.16-.64.32-.36.48-.56.2-.32.32-.52.04-.4-.04-.56-.72-1.72-1-2.36c-.28-.6-.52-.52-.72-.56h-.6c-.2 0-.56.08-.84.4s-1.12 1.08-1.12 2.64 1.16 3.04 1.32 3.28c.16.2 2.28 3.4 5.48 4.76.76.32 1.36.52 1.84.68.76.24 1.48.2 2.04.12.6-.08 1.92-.76 2.16-1.48.28-.72.28-1.36.2-1.48-.16-.16-.36-.24-.68-.4M20.52 30c-1.92 0-3.76-.52-5.4-1.48l-.4-.24-4 1.04 1.08-3.88-.24-.4c-1.04-1.68-1.6-3.6-1.6-5.6 0-5.8 4.76-10.52 10.6-10.52C23.32 8.92 26 10 28 12s3.08 4.64 3.08 7.44c0 5.8-4.76 10.56-10.56 10.56m9-19.52c-2.4-2.4-5.6-3.72-9-3.72-7 0-12.72 5.68-12.72 12.68 0 2.24.6 4.4 1.68 6.32l-1.8 6.56 6.72-1.76c1.84 1 3.96 1.56 6.08 1.56 7 0 12.72-5.68 12.72-12.68.04-3.36-1.28-6.56-3.68-8.96"/>
</svg>
