<svg xmlns="http://www.w3.org/2000/svg" xml:space="preserve" width="82" height="82" viewBox="0 0 82 82">
    <path fill="#875744" d="M124.869 95.665v4.365L75.018 129v-4.365z"/>
    <path fill="#9e6a4d" d="M75.018 124.635V129L5.637 88.942v-4.365z"/>
    <path fill="#637b8d" d="m124.869 95.665-49.851 28.97L5.637 84.577 55.49 55.604z"/>
    <path fill="#8fb545" d="M124.869 91.302v4.362l-49.851 28.97v-4.363z"/>
    <path fill="#9fc14c" d="M75.018 120.271v4.364L5.637 84.577v-4.363z"/>
    <path fill="#b2cc5e" d="m124.869 91.302-49.851 28.97L5.637 80.213l49.854-28.97z"/>
    <path fill="#ddccac" d="m55.85 68.705-.03 10.573-6.226 3.618.03-10.573z"/>
    <path fill="#ead9b5" d="m49.624 72.324-.03 10.572L27.603 70.2l.03-10.573zM71.062 77.487l-.03 10.573-15.211-8.782.03-10.573z"/>
    <path fill="#ead9b5" d="m91.065 96.25-.03 10.572-26.23-15.144.03-10.572z"/>
    <path fill="#ddccac" d="m119.176 79.913-.03 10.573-28.111 16.336.03-10.573z"/>
    <path fill="#b7805a" d="m55.85 68.705-.003 1.162-6.226 3.618.003-1.162z"/>
    <path fill="#d49b6e" d="m49.624 72.324-.003 1.161L27.63 60.79l.003-1.162zM71.062 77.487l-.004 1.162-15.21-8.782.003-1.162zM91.065 96.25l-.004 1.161-26.23-15.144.004-1.161z"/>
    <path fill="#b7805a" d="m119.176 79.913-.004 1.162-28.11 16.336.003-1.162z"/>
    <path fill="#f7e4ba" d="M119.176 79.913 91.065 96.249l-26.23-15.143 6.227-3.62-15.211-8.781-6.227 3.618-21.991-12.696 28.11-16.336z"/>
    <path fill="#ddccac" d="m55.85 58.132-.03 10.573-6.226 3.618.03-10.572z"/>
    <path fill="#ead9b5" d="m49.624 61.75-.03 10.573-21.991-12.696.03-10.573zM71.062 66.914l-.03 10.573-15.211-8.782.03-10.573z"/>
    <path fill="#ead9b5" d="m91.065 85.677-.03 10.572-26.23-15.143.03-10.573z"/>
    <path fill="#ddccac" d="m119.176 69.34-.03 10.573-28.111 16.336.03-10.572z"/>
    <path fill="#b7805a" d="m55.85 58.132-.003 1.162-6.226 3.619.003-1.162z"/>
    <path fill="#d49b6e" d="m49.624 61.75-.003 1.163L27.63 50.216l.003-1.162zM71.062 66.914l-.004 1.162-15.21-8.782.003-1.162zM91.065 85.677l-.004 1.162-26.23-15.144.004-1.162z"/>
    <path fill="#b7805a" d="m119.176 69.34-.004 1.162-28.11 16.337.003-1.162z"/>
    <path fill="#f7e4ba" d="M119.176 69.34 91.065 85.677l-26.23-15.144 6.227-3.619-15.211-8.782-6.227 3.619-21.991-12.697 28.11-16.336z"/>
    <path fill="#ddccac" d="m55.85 47.56-.03 10.572-6.226 3.619.03-10.573z"/>
    <path fill="#ead9b5" d="m49.624 51.178-.03 10.573-21.991-12.697.03-10.572zM71.062 56.342l-.03 10.572-15.211-8.782.03-10.572z"/>
    <path fill="#ead9b5" d="m91.065 75.104-.03 10.573-26.23-15.144.03-10.573z"/>
    <path fill="#ddccac" d="m119.176 58.768-.03 10.572-28.111 16.337.03-10.573z"/>
    <path fill="#b7805a" d="m55.85 47.56-.003 1.161-6.226 3.619.003-1.162z"/>
    <path fill="#d49b6e" d="m49.624 51.178-.003 1.162L27.63 39.644l.003-1.162zM71.062 56.342l-.004 1.161-15.21-8.782.003-1.161zM91.065 75.104l-.004 1.162-26.23-15.144.004-1.162z"/>
    <path fill="#b7805a" d="m119.176 58.768-.004 1.161-28.11 16.337.003-1.162z"/>
    <path fill="#f7e4ba" d="M119.176 58.768 91.065 75.104 64.835 59.96l6.227-3.618L55.85 47.56l-6.227 3.618-21.991-12.696 28.11-16.337z"/>
    <path fill="#ddccac" d="m55.85 36.987-.03 10.572-6.226 3.62.03-10.574z"/>
    <path fill="#ead9b5" d="m49.624 40.605-.03 10.573-21.991-12.696.03-10.573zM71.062 45.769l-.03 10.573L55.82 47.56l.03-10.573z"/>
    <path fill="#ead9b5" d="m91.065 64.531-.03 10.573-26.23-15.144.03-10.572z"/>
    <path fill="#ddccac" d="m119.176 48.195-.03 10.573-28.111 16.336.03-10.573z"/>
    <path fill="#b7805a" d="m55.85 36.987-.003 1.162-6.226 3.618.003-1.162z"/>
    <path fill="#d49b6e" d="m49.624 40.605-.003 1.162L27.63 29.071l.003-1.162zM71.062 45.769l-.004 1.162-15.21-8.782.003-1.162zM91.065 64.531l-.004 1.162-26.23-15.144.004-1.161z"/>
    <path fill="#b7805a" d="m119.176 48.195-.004 1.162-28.11 16.336.003-1.162z"/>
    <path fill="#f7e4ba" d="M119.176 48.195 91.065 64.531l-26.23-15.144 6.227-3.618-15.211-8.782-6.227 3.618L27.633 27.91l28.11-16.336z"/>
    <path fill="#ddccac" d="m55.85 26.414-.03 10.573-6.226 3.618.03-10.572z"/>
    <path fill="#ead9b5" d="m49.624 30.033-.03 10.572L27.603 27.91l.03-10.573zM71.062 35.196l-.03 10.573-15.211-8.782.03-10.573z"/>
    <path fill="#5f6269" d="m59.588 36.768 2.23 1.24v-4.632l-2.23-1.242z"/>
    <path fill="#78c2ff" d="m59.588 36.768 2.23 1.24v-4.632l-2.23-1.242z"/>
    <path fill="#c1c1c1" d="M59.822 36.655V32.26l-.234-.126v4.634z"/>
    <path fill="#fff" d="m61.818 37.74-1.996-1.085-.234.113 2.23 1.24z"/>
    <path fill="#4c525d" d="M59.252 31.521v5.41l2.902 1.691v-5.41zm.336 1.916 1.097.621v.966l-1.097-.619zm1.23.696 1 .566v.963l-1-.564zm1 .413-1-.566v-1.16l1 .556zm-1.133-1.8v1.16l-1.097-.622v-1.15zm-1.097 1.812 1.097.619v2.202l-1.097-.611zm1.23 2.894v-2.2l1 .563v2.193z"/>
    <path fill="#5f6269" d="m66.377 40.632 2.23 1.24V37.24l-2.23-1.241z"/>
    <path fill="#78c2ff" d="m66.377 40.632 2.23 1.24V37.24l-2.23-1.241z"/>
    <path fill="#c1c1c1" d="M66.61 40.519v-4.394l-.233-.126v4.633z"/>
    <path fill="#fff" d="m68.607 41.604-1.996-1.085-.234.113 2.23 1.24z"/>
    <path fill="#4c525d" d="M66.04 35.386v5.41l2.903 1.69v-5.409zm.337 1.915 1.097.621v.966l-1.097-.618zm1.23.696 1 .566v.963l-1-.563zm1 .413-1-.565v-1.162l1 .557zm-1.133-1.8v1.16l-1.097-.621v-1.15zm-1.097 1.812 1.097.619v2.202l-1.097-.61zm1.23 2.894v-2.2l1 .563v2.194z"/>
    <path fill="#ead9b5" d="m91.065 53.959-.03 10.572-26.23-15.144.03-10.572z"/>
    <path fill="#ddccac" d="m119.176 37.622-.03 10.573-28.111 16.336.03-10.572z"/>
    <path fill="#b7805a" d="m55.85 26.414-.003 1.162-6.226 3.619.003-1.162z"/>
    <path fill="#d49b6e" d="m49.624 30.033-.003 1.162L27.63 18.498l.003-1.162zM71.062 35.196l-.004 1.162-15.21-8.782.003-1.162zM91.065 53.959l-.004 1.161-26.23-15.143.004-1.162z"/>
    <path fill="#b7805a" d="m119.176 37.622-.004 1.162-28.11 16.337.003-1.162z"/>
    <path fill="#f7e4ba" d="M119.176 37.622 91.065 53.96l-26.23-15.144 6.227-3.619-15.211-8.782-6.227 3.619-21.991-12.697L55.743 1z"/>
    <path fill="#93624a" d="M31.765 18.65 49.62 28.953l6.232-3.614 17.065 9.855-2.264 1.314 2.264 1.313-3.95 2.3 22.096 12.762 23.986-13.944-59.3-34.233z"/>
    <path fill="#5f6269" d="m30.546 59.174 2.23 1.24v-4.632l-2.23-1.241z"/>
    <path fill="#78c2ff" d="m30.546 59.174 2.23 1.24v-4.632l-2.23-1.241z"/>
    <path fill="#c1c1c1" d="M30.78 59.06v-4.394l-.234-.125v4.633z"/>
    <path fill="#fff" d="m32.775 60.145-1.996-1.084-.233.113 2.23 1.24z"/>
    <path fill="#4c525d" d="M30.21 53.928v5.409l2.901 1.691v-5.41zm.336 1.915 1.097.621v.966l-1.097-.619zm1.23.696 1 .566v.963l-1-.564zm1 .413-1-.566v-1.16l1 .556zm-1.133-1.8v1.16l-1.097-.622v-1.15zm-1.097 1.812 1.097.619v2.202l-1.097-.611zm1.23 2.894v-2.2l1 .563v2.194z"/>
    <path fill="#5f6269" d="m37.335 63.038 2.23 1.24v-4.632l-2.23-1.241z"/>
    <path fill="#78c2ff" d="m37.335 63.038 2.23 1.24v-4.632l-2.23-1.241z"/>
    <path fill="#c1c1c1" d="M37.568 62.925v-4.394l-.233-.126v4.633z"/>
    <path fill="#fff" d="m39.564 64.01-1.996-1.085-.233.113 2.23 1.24z"/>
    <path fill="#4c525d" d="M36.999 57.792v5.41l2.902 1.69v-5.409zm.336 1.916 1.097.62v.966l-1.097-.618zm1.23.696 1 .566v.963l-1-.564zm1 .412-1-.565V59.09l1 .556zm-1.133-1.8v1.16l-1.097-.621v-1.15zm-1.097 1.813 1.097.618v2.202l-1.097-.61zm1.23 2.893v-2.2l1 .563v2.194z"/>
    <path fill="#5f6269" d="m44.124 66.903 2.23 1.24V63.51l-2.23-1.24z"/>
    <path fill="#78c2ff" d="m44.124 66.903 2.23 1.24V63.51l-2.23-1.24z"/>
    <path fill="#c1c1c1" d="M44.358 66.79v-4.395l-.234-.126v4.634z"/>
    <path fill="#fff" d="m46.354 67.874-1.996-1.084-.234.113 2.23 1.24z"/>
    <path fill="#4c525d" d="M43.788 61.656v5.41l2.902 1.69v-5.408zm.336 1.916 1.097.62v.967l-1.097-.619zm1.23.696 1 .566v.963l-1-.564zm1 .412-1-.565v-1.161l1 .556zm-1.133-1.8v1.16l-1.097-.62v-1.15zm-1.097 1.813 1.097.618v2.202l-1.097-.61zm1.23 2.894v-2.2l1 .563v2.193z"/>
    <path fill="#5f6269" d="m30.546 48.468 2.23 1.24v-4.632l-2.23-1.241z"/>
    <path fill="#78c2ff" d="m30.546 48.468 2.23 1.24v-4.632l-2.23-1.241z"/>
    <path fill="#c1c1c1" d="M30.78 48.355V43.96l-.234-.126v4.633z"/>
    <path fill="#fff" d="m32.775 49.44-1.996-1.085-.233.113 2.23 1.24z"/>
    <path fill="#4c525d" d="M30.21 43.222v5.409l2.901 1.691v-5.41zm.336 1.915 1.097.621v.966l-1.097-.618zm1.23.696 1 .566v.963l-1-.563zm1 .413-1-.565v-1.162l1 .557zm-1.133-1.8v1.16l-1.097-.621v-1.15zm-1.097 1.812 1.097.619v2.202l-1.097-.611zm1.23 2.894v-2.2l1 .563v2.194z"/>
    <path fill="#5f6269" d="m37.335 52.332 2.23 1.241V48.94l-2.23-1.241z"/>
    <path fill="#78c2ff" d="m37.335 52.332 2.23 1.241V48.94l-2.23-1.241z"/>
    <path fill="#c1c1c1" d="M37.568 52.22v-4.395l-.233-.126v4.633z"/>
    <path fill="#fff" d="m39.564 53.304-1.996-1.085-.233.113 2.23 1.241z"/>
    <path fill="#4c525d" d="M36.999 47.086v5.41l2.902 1.69v-5.409zm.336 1.916 1.097.62v.967l-1.097-.62zm1.23.696 1 .566v.963l-1-.564zm1 .412-1-.565v-1.161l1 .556zm-1.133-1.8v1.16l-1.097-.621v-1.15zm-1.097 1.813 1.097.618v2.202l-1.097-.61zm1.23 2.894v-2.2l1 .562v2.194z"/>
    <path fill="#5f6269" d="m44.124 56.197 2.23 1.24v-4.632l-2.23-1.242z"/>
    <path fill="#78c2ff" d="m44.124 56.197 2.23 1.24v-4.632l-2.23-1.242z"/>
    <path fill="#c1c1c1" d="M44.358 56.084v-4.395l-.234-.126v4.634z"/>
    <path fill="#fff" d="m46.354 57.168-1.996-1.084-.234.113 2.23 1.24z"/>
    <path fill="#4c525d" d="M43.788 50.95v5.41l2.902 1.691v-5.41zm.336 1.916 1.097.621v.966l-1.097-.619zm1.23.696 1 .566v.963l-1-.564zm1 .413-1-.566v-1.16l1 .556zm-1.133-1.8v1.16l-1.097-.622v-1.15zm-1.097 1.812 1.097.619v2.202l-1.097-.611zm1.23 2.894v-2.2l1 .563v2.193z"/>
    <path fill="#5f6269" d="m30.546 37.762 2.23 1.24V34.37l-2.23-1.241z"/>
    <path fill="#78c2ff" d="m30.546 37.762 2.23 1.24V34.37l-2.23-1.241z"/>
    <path fill="#c1c1c1" d="M30.78 37.65v-4.395l-.234-.126v4.633z"/>
    <path fill="#fff" d="m32.775 38.734-1.996-1.085-.233.113 2.23 1.24z"/>
    <path fill="#4c525d" d="M30.21 32.516v5.41l2.901 1.69v-5.409zm.336 1.916 1.097.62v.966l-1.097-.618zm1.23.695 1 .566v.964l-1-.564zm1 .413-1-.565v-1.161l1 .556zm-1.133-1.8v1.16l-1.097-.621v-1.15zm-1.097 1.812 1.097.619v2.202l-1.097-.61zm1.23 2.894v-2.2l1 .563v2.194z"/>
    <path fill="#5f6269" d="m37.335 41.627 2.23 1.24v-4.633l-2.23-1.24z"/>
    <path fill="#78c2ff" d="m37.335 41.627 2.23 1.24v-4.633l-2.23-1.24z"/>
    <path fill="#c1c1c1" d="M37.568 41.513V37.12l-.233-.126v4.633z"/>
    <path fill="#fff" d="m39.564 42.598-1.996-1.085-.233.114 2.23 1.24z"/>
    <path fill="#4c525d" d="M36.999 36.38v5.41l2.902 1.69v-5.409zm.336 1.916 1.097.62v.967l-1.097-.619zm1.23.696 1 .566v.963l-1-.564zm1 .412-1-.565v-1.161l1 .556zm-1.133-1.8v1.16l-1.097-.621v-1.15zm-1.097 1.813 1.097.618v2.202l-1.097-.61zm1.23 2.894v-2.2l1 .563v2.193z"/>
    <path fill="#5f6269" d="m44.124 45.49 2.23 1.241V42.1l-2.23-1.241z"/>
    <path fill="#78c2ff" d="m44.124 45.49 2.23 1.241V42.1l-2.23-1.241z"/>
    <path fill="#c1c1c1" d="M44.358 45.378v-4.395l-.234-.125v4.633z"/>
    <path fill="#fff" d="m46.354 46.462-1.996-1.084-.234.113 2.23 1.24z"/>
    <path fill="#4c525d" d="M43.788 40.244v5.41l2.902 1.691v-5.41zm.336 1.916 1.097.621v.966l-1.097-.619zm1.23.696 1 .566v.963l-1-.564zm1 .413-1-.566v-1.16l1 .556zm-1.133-1.8v1.16l-1.097-.622v-1.15zm-1.097 1.812 1.097.619v2.202l-1.097-.611zm1.23 2.894v-2.2l1 .563v2.194z"/>
    <path fill="#5f6269" d="m30.546 27.056 2.23 1.24v-4.632l-2.23-1.241z"/>
    <path fill="#78c2ff" d="m30.546 27.056 2.23 1.24v-4.632l-2.23-1.241z"/>
    <path fill="#c1c1c1" d="M30.78 26.943V22.55l-.234-.126v4.633z"/>
    <path fill="#fff" d="m32.775 28.028-1.996-1.085-.233.113 2.23 1.24z"/>
    <path fill="#4c525d" d="M30.21 21.81v5.41l2.901 1.69v-5.409zm.336 1.916 1.097.62v.966l-1.097-.618zm1.23.696 1 .566v.963l-1-.564zm1 .412-1-.565v-1.161l1 .556zm-1.133-1.8v1.16l-1.097-.621v-1.15zm-1.097 1.813 1.097.618v2.202l-1.097-.61zm1.23 2.893v-2.2l1 .563v2.194z"/>
    <path fill="#5f6269" d="m37.335 30.92 2.23 1.241V27.53l-2.23-1.242z"/>
    <path fill="#78c2ff" d="m37.335 30.92 2.23 1.241V27.53l-2.23-1.242z"/>
    <path fill="#c1c1c1" d="M37.568 30.808v-4.395l-.233-.126v4.634z"/>
    <path fill="#fff" d="m39.564 31.892-1.996-1.084-.233.113 2.23 1.24z"/>
    <path fill="#4c525d" d="M36.999 25.674v5.41l2.902 1.69v-5.409zm.336 1.916 1.097.621v.966l-1.097-.619zm1.23.696 1 .566v.963l-1-.564zm1 .413-1-.566v-1.161l1 .557zm-1.133-1.8v1.16l-1.097-.622v-1.15zm-1.097 1.812 1.097.619v2.201l-1.097-.61zm1.23 2.894v-2.2l1 .563v2.193z"/>
    <path fill="#5f6269" d="m44.124 34.785 2.23 1.24v-4.632l-2.23-1.241z"/>
    <path fill="#78c2ff" d="m44.124 34.785 2.23 1.24v-4.632l-2.23-1.241z"/>
    <path fill="#c1c1c1" d="M44.358 34.672v-4.394l-.234-.126v4.633z"/>
    <path fill="#fff" d="m46.354 35.756-1.996-1.084-.234.113 2.23 1.24z"/>
    <path fill="#4c525d" d="M43.788 29.539v5.409l2.902 1.691v-5.41zm.336 1.915 1.097.621v.966l-1.097-.618zm1.23.696 1 .566v.963l-1-.563zm1 .413-1-.566v-1.16l1 .556zm-1.133-1.8v1.16l-1.097-.621v-1.15zm-1.097 1.812 1.097.619v2.202l-1.097-.611zm1.23 2.894v-2.2l1 .563v2.194z"/>
    <path fill="#5f6269" d="m70.766 83.06 2.23 1.241v-4.633l-2.23-1.24z"/>
    <path fill="#78c2ff" d="m70.766 83.06 2.23 1.241v-4.633l-2.23-1.24z"/>
    <path fill="#c1c1c1" d="M71 82.948v-4.395l-.234-.126v4.634z"/>
    <path fill="#fff" d="M72.995 84.032 71 82.948l-.233.113 2.23 1.24z"/>
    <path fill="#4c525d" d="M70.43 77.814v5.41l2.901 1.691v-5.41zm.336 1.916 1.097.621v.966l-1.097-.619zm1.23.696 1 .566v.963l-1-.564zm1 .413-1-.566v-1.161l1 .557zm-1.133-1.8v1.16l-1.097-.622v-1.15zm-1.097 1.812 1.097.619v2.202l-1.097-.611zm1.23 2.894v-2.2l1 .563V84.3z"/>
    <path fill="#5f6269" d="m77.555 86.925 2.23 1.24v-4.632l-2.23-1.241z"/>
    <path fill="#78c2ff" d="m77.555 86.925 2.23 1.24v-4.632l-2.23-1.241z"/>
    <path fill="#c1c1c1" d="M77.788 86.812v-4.394l-.233-.126v4.633z"/>
    <path fill="#fff" d="m79.784 87.896-1.996-1.084-.233.113 2.23 1.24z"/>
    <path fill="#4c525d" d="M77.219 81.679v5.409l2.901 1.691V83.37zm.336 1.915 1.097.621v.966l-1.097-.618zm1.23.696 1 .566v.963l-1-.563zm1 .413-1-.565v-1.162l1 .557zm-1.133-1.8v1.16l-1.097-.621v-1.15zm-1.097 1.812 1.097.619v2.202l-1.097-.611zm1.23 2.894v-2.2l1 .563v2.194z"/>
    <path fill="#5f6269" d="m84.344 90.79 2.23 1.24v-4.633l-2.23-1.241z"/>
    <path fill="#78c2ff" d="m84.344 90.79 2.23 1.24v-4.633l-2.23-1.241z"/>
    <path fill="#c1c1c1" d="M84.577 90.676v-4.394l-.233-.126v4.633z"/>
    <path fill="#fff" d="m86.573 91.76-1.996-1.084-.233.113 2.23 1.241z"/>
    <path fill="#4c525d" d="M84.008 85.543v5.41l2.901 1.69v-5.409zm.336 1.916 1.097.62v.967l-1.097-.62zm1.23.696 1 .566v.963l-1-.564zm1 .412-1-.565V86.84l1 .556zm-1.133-1.8v1.16l-1.097-.621v-1.15zm-1.097 1.813 1.097.618V91.4l-1.097-.61zm1.23 2.894v-2.2l1 .563v2.193z"/>
    <path fill="#5f6269" d="m70.766 72.355 2.23 1.24v-4.632l-2.23-1.241z"/>
    <path fill="#78c2ff" d="m70.766 72.355 2.23 1.24v-4.632l-2.23-1.241z"/>
    <path fill="#c1c1c1" d="M71 72.242v-4.395l-.234-.125v4.633z"/>
    <path fill="#fff" d="M72.995 73.326 71 72.242l-.233.113 2.23 1.24z"/>
    <path fill="#4c525d" d="M70.43 67.108v5.41l2.901 1.691V68.8zm.336 1.916 1.097.621v.966l-1.097-.619zm1.23.696 1 .566v.963l-1-.564zm1 .413-1-.566v-1.16l1 .556zm-1.133-1.8v1.16l-1.097-.622v-1.15zm-1.097 1.812 1.097.619v2.202l-1.097-.611zm1.23 2.894v-2.2l1 .563v2.194z"/>
    <path fill="#5f6269" d="m77.555 76.22 2.23 1.24v-4.633l-2.23-1.241z"/>
    <path fill="#78c2ff" d="m77.555 76.22 2.23 1.24v-4.633l-2.23-1.241z"/>
    <path fill="#c1c1c1" d="M77.788 76.106v-4.394l-.233-.126v4.633z"/>
    <path fill="#fff" d="m79.784 77.19-1.996-1.084-.233.113 2.23 1.24z"/>
    <path fill="#4c525d" d="M77.219 70.973v5.41l2.901 1.69v-5.409zm.336 1.916 1.097.62v.966l-1.097-.618zm1.23.696 1 .566v.963l-1-.564zm1 .412-1-.565V72.27l1 .556zm-1.133-1.8v1.16l-1.097-.621v-1.15zm-1.097 1.812 1.097.619v2.202l-1.097-.61zm1.23 2.894v-2.2l1 .563v2.194z"/>
    <path fill="#5f6269" d="m84.344 80.084 2.23 1.24v-4.633l-2.23-1.24z"/>
    <path fill="#78c2ff" d="m84.344 80.084 2.23 1.24v-4.633l-2.23-1.24z"/>
    <path fill="#c1c1c1" d="M84.577 79.97v-4.394l-.233-.126v4.634z"/>
    <path fill="#fff" d="m86.573 81.055-1.996-1.085-.233.114 2.23 1.24z"/>
    <path fill="#4c525d" d="M84.008 74.837v5.41l2.901 1.69v-5.409zm.336 1.916 1.097.62v.967l-1.097-.619zm1.23.696 1 .566v.963l-1-.564zm1 .413-1-.566v-1.161l1 .556zM85.44 76.06v1.16l-1.097-.62v-1.15zm-1.097 1.813 1.097.618v2.202l-1.097-.61zm1.23 2.894v-2.2l1 .563v2.193z"/>
    <path fill="#5f6269" d="m70.766 61.649 2.23 1.24v-4.632l-2.23-1.241z"/>
    <path fill="#78c2ff" d="m70.766 61.649 2.23 1.24v-4.632l-2.23-1.241z"/>
    <path fill="#c1c1c1" d="M71 61.536v-4.394l-.234-.126v4.633z"/>
    <path fill="#fff" d="M72.995 62.62 71 61.536l-.233.113 2.23 1.24z"/>
    <path fill="#4c525d" d="M70.43 56.403v5.409l2.901 1.691v-5.41zm.336 1.915 1.097.621v.966l-1.097-.619zm1.23.696 1 .566v.963l-1-.563zm1 .413-1-.566v-1.16l1 .556zm-1.133-1.8v1.16l-1.097-.622v-1.15zm-1.097 1.812 1.097.619v2.202l-1.097-.611zm1.23 2.894v-2.2l1 .563v2.194z"/>
    <path fill="#5f6269" d="m77.555 65.513 2.23 1.241v-4.633l-2.23-1.241z"/>
    <path fill="#78c2ff" d="m77.555 65.513 2.23 1.241v-4.633l-2.23-1.241z"/>
    <path fill="#c1c1c1" d="M77.788 65.4v-4.394l-.233-.126v4.633z"/>
    <path fill="#fff" d="M79.784 66.485 77.788 65.4l-.233.113 2.23 1.241z"/>
    <path fill="#4c525d" d="M77.219 60.267v5.41l2.901 1.69v-5.409zm.336 1.916 1.097.62v.966l-1.097-.618zm1.23.696 1 .566v.963l-1-.564zm1 .412-1-.565v-1.161l1 .556zm-1.133-1.8v1.16l-1.097-.621v-1.15zm-1.097 1.813 1.097.618v2.202l-1.097-.61zm1.23 2.894v-2.2l1 .563v2.193z"/>
    <path fill="#5f6269" d="m84.344 69.378 2.23 1.24v-4.632l-2.23-1.242z"/>
    <path fill="#78c2ff" d="m84.344 69.378 2.23 1.24v-4.632l-2.23-1.242z"/>
    <path fill="#c1c1c1" d="M84.577 69.265V64.87l-.233-.126v4.634z"/>
    <path fill="#fff" d="m86.573 70.349-1.996-1.084-.233.113 2.23 1.24z"/>
    <path fill="#4c525d" d="M84.008 64.131v5.41l2.901 1.691v-5.41zm.336 1.916 1.097.621v.966l-1.097-.619zm1.23.696 1 .566v.963l-1-.564zm1 .413-1-.566V65.43l1 .557zm-1.133-1.8v1.16l-1.097-.622v-1.15zm-1.097 1.812 1.097.618v2.202l-1.097-.61zm1.23 2.894v-2.2l1 .563v2.193z"/>
    <path fill="#5f6269" d="m70.766 50.943 2.23 1.24v-4.632l-2.23-1.241z"/>
    <path fill="#78c2ff" d="m70.766 50.943 2.23 1.24v-4.632l-2.23-1.241z"/>
    <path fill="#c1c1c1" d="M71 50.83v-4.394l-.234-.126v4.633z"/>
    <path fill="#fff" d="M72.995 51.915 71 50.83l-.233.113 2.23 1.24z"/>
    <path fill="#4c525d" d="M70.43 45.697v5.41l2.901 1.69v-5.409zm.336 1.915 1.097.621v.966l-1.097-.618zm1.23.696 1 .566v.963l-1-.563zm1 .413-1-.565v-1.162l1 .557zm-1.133-1.8v1.16l-1.097-.621v-1.15zm-1.097 1.812 1.097.619v2.202l-1.097-.611zm1.23 2.894v-2.2l1 .563v2.194z"/>
    <path fill="#5f6269" d="m77.555 54.808 2.23 1.24v-4.633l-2.23-1.24z"/>
    <path fill="#78c2ff" d="m77.555 54.808 2.23 1.24v-4.633l-2.23-1.24z"/>
    <path fill="#c1c1c1" d="M77.788 54.694V50.3l-.233-.126v4.633z"/>
    <path fill="#fff" d="m79.784 55.779-1.996-1.085-.233.113 2.23 1.241z"/>
    <path fill="#4c525d" d="M77.219 49.561v5.41l2.901 1.69v-5.409zm.336 1.916 1.097.62v.967l-1.097-.619zm1.23.696 1 .566v.963l-1-.564zm1 .412-1-.565v-1.161l1 .556zm-1.133-1.8v1.16l-1.097-.621v-1.15zm-1.097 1.813 1.097.618v2.202l-1.097-.61zm1.23 2.894v-2.2l1 .563v2.193z"/>
    <path fill="#5f6269" d="m84.344 58.672 2.23 1.24V55.28l-2.23-1.242z"/>
    <path fill="#78c2ff" d="m84.344 58.672 2.23 1.24V55.28l-2.23-1.242z"/>
    <path fill="#c1c1c1" d="M84.577 58.559v-4.395l-.233-.126v4.634z"/>
    <path fill="#fff" d="m86.573 59.643-1.996-1.084-.233.113 2.23 1.24z"/>
    <path fill="#4c525d" d="M84.008 53.425v5.41l2.901 1.691v-5.41zm.336 1.916 1.097.621v.966l-1.097-.619zm1.23.696 1 .566v.963l-1-.564zm1 .413-1-.566v-1.16l1 .556zm-1.133-1.8v1.16l-1.097-.622v-1.15zm-1.097 1.812 1.097.619v2.202l-1.097-.611zm1.23 2.894v-2.2l1 .563v2.194z"/>
    <path fill="#5f6269" d="m109.984 94.357-2.23 1.24v-4.632l2.23-1.241z"/>
    <path fill="#78c2ff" d="m109.984 94.357-2.23 1.24v-4.632l2.23-1.241z"/>
    <path fill="#c1c1c1" d="M109.75 94.244V89.85l.234-.126v4.633z"/>
    <path fill="#fff" d="m107.755 95.328 1.996-1.084.233.113-2.23 1.24z"/>
    <path fill="#4c525d" d="M107.418 90.802v5.41l2.902-1.692v-5.41zm2.566 1.192-1.097.619v-.966l1.097-.62zm-1.23.694-1 .563v-.963l1-.566zm-1-1.723 1-.557v1.161l-1 .566zm2.23-1.241v1.15l-1.097.62v-1.16zm0 4.633-1.097.61v-2.201l1.097-.619zm-2.23 1.24v-2.193l1-.563v2.2z"/>
    <path fill="#5f6269" d="m103.195 98.221-2.23 1.241v-4.633l2.23-1.241z"/>
    <path fill="#78c2ff" d="m103.195 98.221-2.23 1.241v-4.633l2.23-1.241z"/>
    <path fill="#c1c1c1" d="M102.962 98.108v-4.394l.233-.126v4.633z"/>
    <path fill="#fff" d="m100.966 99.193 1.996-1.085.233.113-2.23 1.241z"/>
    <path fill="#4c525d" d="M100.63 94.666v5.41l2.901-1.692v-5.409zm2.565 1.193-1.097.618v-.966l1.097-.62zm-1.23.693-1 .564v-.963l1-.566zm-1-1.723 1-.556v1.16l-1 .566zm2.23-1.241v1.15l-1.097.62v-1.16zm0 4.633-1.097.611V96.63l1.097-.618zm-2.23 1.241v-2.193l1-.564v2.2z"/>
    <path fill="#5f6269" d="m96.406 102.086-2.23 1.24v-4.632l2.23-1.242z"/>
    <path fill="#78c2ff" d="m96.406 102.086-2.23 1.24v-4.632l2.23-1.242z"/>
    <path fill="#c1c1c1" d="M96.173 101.973v-4.395l.233-.126v4.634z"/>
    <path fill="#fff" d="m94.176 103.057 1.996-1.084.234.113-2.23 1.24z"/>
    <path fill="#4c525d" d="M93.84 98.53v5.41l2.902-1.691v-5.41zm2.566 1.193-1.097.619v-.966l1.097-.62zm-1.23.693-1 .564v-.963l1-.566zm-1-1.722 1-.557v1.161l-1 .566zm2.23-1.242v1.15l-1.097.621v-1.16zm0 4.634-1.097.61v-2.201l1.097-.619zm-2.23 1.24v-2.193l1-.563v2.2z"/>
    <path fill="#5f6269" d="m109.984 83.651-2.23 1.24V80.26l2.23-1.241z"/>
    <path fill="#78c2ff" d="m109.984 83.651-2.23 1.24V80.26l2.23-1.241z"/>
    <path fill="#c1c1c1" d="M109.75 83.538v-4.394l.234-.126v4.633z"/>
    <path fill="#fff" d="m107.755 84.622 1.996-1.084.233.113-2.23 1.24z"/>
    <path fill="#4c525d" d="M107.418 80.096v5.41l2.902-1.692v-5.41zm2.566 1.192-1.097.62v-.967l1.097-.62zm-1.23.694-1 .563v-.963l1-.566zm-1-1.723 1-.557v1.161l-1 .566zm2.23-1.241v1.15l-1.097.62v-1.16zm0 4.633-1.097.61V82.06l1.097-.619zm-2.23 1.24v-2.193l1-.563v2.2z"/>
    <path fill="#5f6269" d="m103.195 87.515-2.23 1.241v-4.633l2.23-1.24z"/>
    <path fill="#78c2ff" d="m103.195 87.515-2.23 1.241v-4.633l2.23-1.24z"/>
    <path fill="#c1c1c1" d="M102.962 87.402v-4.394l.233-.126v4.633z"/>
    <path fill="#fff" d="m100.966 88.487 1.996-1.085.233.113-2.23 1.241z"/>
    <path fill="#4c525d" d="M100.63 83.96v5.41l2.901-1.692V82.27zm2.565 1.193-1.097.618v-.965l1.097-.621zm-1.23.693-1 .564v-.963l1-.566zm-1-1.723 1-.556v1.16l-1 .566zm2.23-1.24v1.149l-1.097.62v-1.16zm0 4.632-1.097.611v-2.202l1.097-.618zm-2.23 1.241v-2.193l1-.564v2.2z"/>
    <path fill="#5f6269" d="m96.406 91.38-2.23 1.24v-4.632l2.23-1.242z"/>
    <path fill="#78c2ff" d="m96.406 91.38-2.23 1.24v-4.632l2.23-1.242z"/>
    <path fill="#c1c1c1" d="M96.173 91.267v-4.395l.233-.126v4.634z"/>
    <path fill="#fff" d="m94.176 92.351 1.996-1.084.234.113-2.23 1.24z"/>
    <path fill="#4c525d" d="M93.84 87.825v5.41l2.902-1.692v-5.41zm2.566 1.192-1.097.619v-.966l1.097-.62zm-1.23.693-1 .564v-.963l1-.566zm-1-1.722 1-.557v1.161l-1 .566zm2.23-1.242v1.15l-1.097.621v-1.16zm0 4.634-1.097.61V89.79l1.097-.619zm-2.23 1.24v-2.193l1-.563v2.2z"/>
    <path fill="#5f6269" d="m109.984 72.945-2.23 1.24v-4.632l2.23-1.241z"/>
    <path fill="#78c2ff" d="m109.984 72.945-2.23 1.24v-4.632l2.23-1.241z"/>
    <path fill="#c1c1c1" d="M109.75 72.832v-4.394l.234-.126v4.633z"/>
    <path fill="#fff" d="m107.755 73.917 1.996-1.085.233.113-2.23 1.24z"/>
    <path fill="#4c525d" d="M107.418 69.39v5.41l2.902-1.692v-5.41zm2.566 1.193-1.097.618v-.966l1.097-.62zm-1.23.693-1 .564v-.964l1-.565zm-1-1.723 1-.556v1.16l-1 .566zm2.23-1.241v1.15l-1.097.62v-1.16zm0 4.633-1.097.611v-2.202l1.097-.618zm-2.23 1.24v-2.193l1-.563v2.2z"/>
    <path fill="#5f6269" d="m103.195 76.81-2.23 1.24v-4.633l2.23-1.24z"/>
    <path fill="#78c2ff" d="m103.195 76.81-2.23 1.24v-4.633l2.23-1.24z"/>
    <path fill="#c1c1c1" d="M102.962 76.697v-4.395l.233-.126v4.634z"/>
    <path fill="#fff" d="m100.966 77.78 1.996-1.084.233.114-2.23 1.24z"/>
    <path fill="#4c525d" d="M100.63 73.255v5.409l2.901-1.691v-5.41zm2.565 1.192-1.097.619V74.1l1.097-.621zm-1.23.693-1 .564v-.963l1-.566zm-1-1.723 1-.556v1.161l-1 .566zm2.23-1.24v1.15l-1.097.62v-1.16zm0 4.633-1.097.61v-2.202l1.097-.618zm-2.23 1.24v-2.193l1-.563v2.2z"/>
    <path fill="#5f6269" d="m96.406 80.674-2.23 1.24v-4.632l2.23-1.242z"/>
    <path fill="#78c2ff" d="m96.406 80.674-2.23 1.24v-4.632l2.23-1.242z"/>
    <path fill="#c1c1c1" d="M96.173 80.56v-4.394l.233-.126v4.634z"/>
    <path fill="#fff" d="m94.176 81.645 1.996-1.084.234.113-2.23 1.24z"/>
    <path fill="#4c525d" d="M93.84 77.119v5.41l2.902-1.692v-5.41zm2.566 1.192-1.097.619v-.966l1.097-.62zm-1.23.693-1 .564v-.963l1-.566zm-1-1.722 1-.557v1.161l-1 .566zm2.23-1.242v1.15l-1.097.621v-1.16zm0 4.634-1.097.61v-2.201l1.097-.619zm-2.23 1.24v-2.193l1-.563v2.2z"/>
    <path fill="#5f6269" d="m109.984 62.24-2.23 1.24v-4.633l2.23-1.241z"/>
    <path fill="#78c2ff" d="m109.984 62.24-2.23 1.24v-4.633l2.23-1.241z"/>
    <path fill="#c1c1c1" d="M109.75 62.126v-4.394l.234-.126v4.633z"/>
    <path fill="#fff" d="m107.755 63.21 1.996-1.084.233.113-2.23 1.241z"/>
    <path fill="#4c525d" d="M107.418 58.684v5.41l2.902-1.692v-5.41zm2.566 1.193-1.097.618v-.965l1.097-.621zm-1.23.693-1 .564v-.963l1-.566zm-1-1.723 1-.556v1.16l-1 .566zm2.23-1.241v1.15l-1.097.62v-1.16zm0 4.633-1.097.611v-2.202l1.097-.618zm-2.23 1.241v-2.193l1-.564v2.2z"/>
    <path fill="#5f6269" d="m103.195 66.104-2.23 1.24v-4.632l2.23-1.242z"/>
    <path fill="#78c2ff" d="m103.195 66.104-2.23 1.24v-4.632l2.23-1.242z"/>
    <path fill="#c1c1c1" d="M102.962 65.99v-4.394l.233-.126v4.634z"/>
    <path fill="#fff" d="m100.966 67.075 1.996-1.084.233.113-2.23 1.24z"/>
    <path fill="#4c525d" d="M100.63 62.549v5.409l2.901-1.691v-5.41zm2.565 1.192-1.097.619v-.966l1.097-.62zm-1.23.693-1 .564v-.963l1-.566zm-1-1.722 1-.557v1.161l-1 .566zm2.23-1.242v1.15l-1.097.621v-1.16zm0 4.634-1.097.61v-2.201l1.097-.619zm-2.23 1.24v-2.193l1-.563v2.2z"/>
    <path fill="#5f6269" d="m96.406 69.968-2.23 1.24v-4.632l2.23-1.241z"/>
    <path fill="#78c2ff" d="m96.406 69.968-2.23 1.24v-4.632l2.23-1.241z"/>
    <path fill="#c1c1c1" d="M96.173 69.855v-4.394l.233-.126v4.633z"/>
    <path fill="#fff" d="m94.176 70.94 1.996-1.085.234.113-2.23 1.24z"/>
    <path fill="#4c525d" d="M93.84 66.413v5.41l2.902-1.692v-5.41zm2.566 1.193-1.097.618v-.966l1.097-.62zm-1.23.693-1 .563V67.9l1-.566zm-1-1.723 1-.557v1.161l-1 .566zm2.23-1.241v1.15l-1.097.62v-1.16zm0 4.633-1.097.61v-2.201l1.097-.619zm-2.23 1.24v-2.193l1-.563v2.2z"/>
    <path fill="#5f6269" d="m109.984 51.534-2.23 1.24v-4.633l2.23-1.24z"/>
    <path fill="#78c2ff" d="m109.984 51.534-2.23 1.24v-4.633l2.23-1.24z"/>
    <path fill="#c1c1c1" d="M109.75 51.42v-4.394l.234-.126v4.633z"/>
    <path fill="#fff" d="m107.755 52.505 1.996-1.085.233.113-2.23 1.241z"/>
    <path fill="#4c525d" d="M107.418 47.978v5.41l2.902-1.691v-5.41zm2.566 1.193-1.097.619v-.966l1.097-.621zm-1.23.693-1 .564v-.963l1-.566zm-1-1.723 1-.556v1.16l-1 .566zm2.23-1.24v1.149l-1.097.62v-1.16zm0 4.632-1.097.611v-2.202l1.097-.618zm-2.23 1.241v-2.193l1-.564v2.2z"/>
    <path fill="#5f6269" d="m103.195 55.398-2.23 1.24v-4.632l2.23-1.242z"/>
    <path fill="#78c2ff" d="m103.195 55.398-2.23 1.24v-4.632l2.23-1.242z"/>
    <path fill="#c1c1c1" d="M102.962 55.285V50.89l.233-.126v4.634z"/>
    <path fill="#fff" d="m100.966 56.37 1.996-1.085.233.113-2.23 1.24z"/>
    <path fill="#4c525d" d="M100.63 51.843v5.41l2.901-1.692v-5.41zm2.565 1.192-1.097.619v-.966l1.097-.62zm-1.23.693-1 .564v-.963l1-.566zm-1-1.722 1-.557v1.161l-1 .566zm2.23-1.242v1.15l-1.097.621v-1.16zm0 4.634-1.097.61v-2.201l1.097-.619zm-2.23 1.24v-2.193l1-.563v2.2z"/>
    <path fill="#5f6269" d="m96.406 59.262-2.23 1.24V55.87l2.23-1.241z"/>
    <path fill="#78c2ff" d="m96.406 59.262-2.23 1.24V55.87l2.23-1.241z"/>
    <path fill="#c1c1c1" d="M96.173 59.15v-4.395l.233-.126v4.633z"/>
    <path fill="#fff" d="m94.176 60.234 1.996-1.085.234.113-2.23 1.24z"/>
    <path fill="#4c525d" d="M93.84 55.707v5.41l2.902-1.692v-5.41zm2.566 1.193-1.097.618v-.966l1.097-.62zm-1.23.693-1 .563v-.962l1-.567zm-1-1.723 1-.556v1.16l-1 .566zm2.23-1.241v1.15l-1.097.62v-1.16zm0 4.633-1.097.611v-2.202l1.097-.619zm-2.23 1.24V58.31l1-.563v2.2z"/>
    <path fill="#5f6269" d="m116.779 90.484-2.23 1.241v-4.633l2.23-1.241z"/>
    <path fill="#78c2ff" d="m116.779 90.484-2.23 1.241v-4.633l2.23-1.241z"/>
    <path fill="#c1c1c1" d="M116.545 90.371v-4.394l.233-.126v4.633z"/>
    <path fill="#fff" d="m114.549 91.456 1.996-1.085.233.113-2.23 1.241z"/>
    <path fill="#4c525d" d="M114.213 86.93v5.409l2.902-1.692v-5.409zm2.565 1.192-1.097.618v-.965l1.097-.621zm-1.23.693-1 .564v-.963l1-.566zm-1-1.723 1-.556v1.16l-1 .566zm2.23-1.241v1.15l-1.097.62v-1.16zm0 4.633-1.097.611v-2.202l1.097-.618zm-2.23 1.241v-2.193l1-.564v2.2z"/>
    <path fill="#5f6269" d="m116.779 79.779-2.23 1.24v-4.633l2.23-1.24z"/>
    <path fill="#78c2ff" d="m116.779 79.779-2.23 1.24v-4.633l2.23-1.24z"/>
    <path fill="#c1c1c1" d="M116.545 79.665v-4.394l.233-.126v4.633z"/>
    <path fill="#fff" d="m114.549 80.75 1.996-1.085.233.113-2.23 1.241z"/>
    <path fill="#4c525d" d="M114.213 76.223v5.41l2.902-1.691v-5.41zm2.565 1.193-1.097.618v-.965l1.097-.621zm-1.23.693-1 .564v-.963l1-.566zm-1-1.723 1-.556v1.161l-1 .566zm2.23-1.24v1.15l-1.097.62v-1.16zm0 4.632-1.097.611v-2.202l1.097-.618zm-2.23 1.241v-2.193l1-.563v2.2z"/>
    <path fill="#5f6269" d="m116.779 69.073-2.23 1.24V65.68l2.23-1.24z"/>
    <path fill="#78c2ff" d="m116.779 69.073-2.23 1.24V65.68l2.23-1.24z"/>
    <path fill="#c1c1c1" d="M116.545 68.96v-4.395l.233-.126v4.634z"/>
    <path fill="#fff" d="m114.549 70.044 1.996-1.084.233.113-2.23 1.24z"/>
    <path fill="#4c525d" d="M114.213 65.518v5.409l2.902-1.691v-5.41zm2.565 1.192-1.097.619v-.966l1.097-.621zm-1.23.693-1 .564v-.963l1-.566zm-1-1.723 1-.556v1.161l-1 .566zm2.23-1.24v1.15l-1.097.62v-1.16zm0 4.633-1.097.61v-2.201l1.097-.619zm-2.23 1.24V68.12l1-.563v2.2z"/>
    <path fill="#5f6269" d="m116.779 58.367-2.23 1.24v-4.632l2.23-1.242z"/>
    <path fill="#78c2ff" d="m116.779 58.367-2.23 1.24v-4.632l2.23-1.242z"/>
    <path fill="#c1c1c1" d="M116.545 58.254v-4.395l.233-.126v4.634z"/>
    <path fill="#fff" d="m114.549 59.338 1.996-1.084.233.113-2.23 1.24z"/>
    <path fill="#4c525d" d="M114.213 54.812v5.41l2.902-1.692v-5.41zm2.565 1.192-1.097.619v-.966l1.097-.62zm-1.23.693-1 .564v-.963l1-.566zm-1-1.722 1-.557v1.161l-1 .566zm2.23-1.242v1.15l-1.097.621v-1.16zm0 4.634-1.097.61v-2.201l1.097-.619zm-2.23 1.24v-2.193l1-.563v2.2z"/>
    <path fill="#5f6269" d="m116.779 47.66-2.23 1.242v-4.633l2.23-1.241z"/>
    <path fill="#78c2ff" d="m116.779 47.66-2.23 1.242v-4.633l2.23-1.241z"/>
    <path fill="#c1c1c1" d="M116.545 47.548v-4.395l.233-.125v4.633z"/>
    <path fill="#fff" d="m114.549 48.632 1.996-1.084.233.113-2.23 1.24z"/>
    <path fill="#4c525d" d="M114.213 44.106v5.41l2.902-1.692v-5.41zm2.565 1.192-1.097.619v-.966l1.097-.62zm-1.23.693-1 .564v-.963l1-.566zm-1-1.722 1-.557v1.161l-1 .566zm2.23-1.241v1.15l-1.097.62v-1.16zm0 4.633-1.097.61V46.07l1.097-.619zm-2.23 1.24v-2.193l1-.563v2.2z"/>
    <path fill="#5f6269" d="m53.947 35.829-2.23 1.24v-4.632l2.23-1.241z"/>
    <path fill="#78c2ff" d="m53.947 35.829-2.23 1.24v-4.632l2.23-1.241z"/>
    <path fill="#c1c1c1" d="M53.714 35.716V31.32l.233-.126v4.634z"/>
    <path fill="#fff" d="m51.718 36.8 1.996-1.084.233.113-2.23 1.24z"/>
    <path fill="#4c525d" d="M51.382 32.274v5.41l2.901-1.692v-5.41zm2.565 1.192-1.097.619v-.966l1.097-.62zm-1.23.693-1 .564v-.963l1-.566zm-1-1.722 1-.557v1.161l-1 .566zm2.23-1.241v1.15l-1.097.62v-1.16zm0 4.633-1.097.61v-2.201l1.097-.619zm-2.23 1.24v-2.193l1-.563v2.2z"/>
    <path fill="#5f6269" d="m53.947 46.388-2.23 1.24v-4.633l2.23-1.24z"/>
    <path fill="#78c2ff" d="m53.947 46.388-2.23 1.24v-4.633l2.23-1.24z"/>
    <path fill="#c1c1c1" d="M53.714 46.274V41.88l.233-.126v4.634z"/>
    <path fill="#fff" d="m51.718 47.359 1.996-1.085.233.114-2.23 1.24z"/>
    <path fill="#4c525d" d="M51.382 42.832v5.41l2.901-1.691v-5.41zm2.565 1.193-1.097.619v-.966l1.097-.621zm-1.23.693-1 .564v-.963l1-.566zm-1-1.723 1-.556V43.6l-1 .566zm2.23-1.24v1.149l-1.097.62v-1.16zm0 4.633-1.097.61v-2.202l1.097-.618zm-2.23 1.24v-2.193l1-.564v2.2z"/>
    <path fill="#5f6269" d="m53.947 56.946-2.23 1.24v-4.632l2.23-1.241z"/>
    <path fill="#78c2ff" d="m53.947 56.946-2.23 1.24v-4.632l2.23-1.241z"/>
    <path fill="#c1c1c1" d="M53.714 56.833v-4.394l.233-.126v4.633z"/>
    <path fill="#fff" d="m51.718 57.918 1.996-1.085.233.113-2.23 1.24z"/>
    <path fill="#4c525d" d="M51.382 53.391v5.41l2.901-1.692V51.7zm2.565 1.193-1.097.618v-.966l1.097-.62zm-1.23.693-1 .563v-.963l1-.566zm-1-1.723 1-.557v1.161l-1 .566zm2.23-1.241v1.15l-1.097.62v-1.16zm0 4.633-1.097.61v-2.201l1.097-.619zm-2.23 1.24v-2.193l1-.563v2.2z"/>
    <path fill="#5f6269" d="m53.947 67.505-2.23 1.24v-4.632l2.23-1.242z"/>
    <path fill="#78c2ff" d="m53.947 67.505-2.23 1.24v-4.632l2.23-1.242z"/>
    <path fill="#c1c1c1" d="M53.714 67.392v-4.395l.233-.126v4.634z"/>
    <path fill="#fff" d="m51.718 68.476 1.996-1.084.233.113-2.23 1.24z"/>
    <path fill="#4c525d" d="M51.382 63.95v5.409l2.901-1.691v-5.41zm2.565 1.192-1.097.619v-.966l1.097-.62zm-1.23.693-1 .564v-.963l1-.566zm-1-1.722 1-.557v1.161l-1 .566zm2.23-1.242v1.15l-1.097.621v-1.16zm0 4.634-1.097.61v-2.201l1.097-.619zm-2.23 1.24v-2.193l1-.563v2.2z"/>
    <path fill="#5f6269" d="m53.947 78.063-2.23 1.241v-4.633l2.23-1.241z"/>
    <path fill="#78c2ff" d="m53.947 78.063-2.23 1.241v-4.633l2.23-1.241z"/>
    <path fill="#c1c1c1" d="M53.714 77.95v-4.394l.233-.126v4.633z"/>
    <path fill="#fff" d="m51.718 79.035 1.996-1.085.233.113-2.23 1.241z"/>
    <path fill="#4c525d" d="M51.382 74.508v5.41l2.901-1.692v-5.409zm2.565 1.193-1.097.618v-.965l1.097-.621zm-1.23.693-1 .564v-.963l1-.566zm-1-1.723 1-.556v1.16l-1 .566zm2.23-1.241v1.15l-1.097.62v-1.16zm0 4.633-1.097.611v-2.202l1.097-.618zm-2.23 1.241v-2.193l1-.564v2.2z"/>
    <path fill="#5f6269" d="m59.57 47.507 2.23 1.24v-4.632l-2.23-1.241z"/>
    <path fill="#78c2ff" d="m59.57 47.507 2.23 1.24v-4.632l-2.23-1.241z"/>
    <path fill="#c1c1c1" d="M59.804 47.394V43l-.233-.126v4.633z"/>
    <path fill="#fff" d="m61.8 48.479-1.996-1.085-.233.113 2.23 1.24z"/>
    <path fill="#4c525d" d="M59.234 42.26v5.41l2.902 1.691v-5.409zm.337 1.916 1.097.621v.966l-1.097-.618zm1.23.696 1 .566v.963l-1-.563zm1 .413-1-.565v-1.161l1 .556zm-1.133-1.8v1.16l-1.097-.621v-1.15zm-1.097 1.812 1.097.619v2.202l-1.097-.61zm1.23 2.894v-2.2l1 .563v2.194z"/>
    <path fill="#5f6269" d="m59.57 58.066 2.23 1.24v-4.632l-2.23-1.242z"/>
    <path fill="#78c2ff" d="m59.57 58.066 2.23 1.24v-4.632l-2.23-1.242z"/>
    <path fill="#c1c1c1" d="M59.804 57.953v-4.395l-.233-.126v4.634z"/>
    <path fill="#fff" d="m61.8 59.037-1.996-1.084-.233.113 2.23 1.24z"/>
    <path fill="#4c525d" d="M59.234 52.82v5.409l2.902 1.691v-5.41zm.337 1.915 1.097.621v.966l-1.097-.619zm1.23.696 1 .566v.963l-1-.564zm1 .413-1-.566v-1.16l1 .556zm-1.133-1.8v1.16l-1.097-.622v-1.15zm-1.097 1.812 1.097.619v2.202l-1.097-.611zm1.23 2.894v-2.2l1 .563v2.193z"/>
    <path fill="#5f6269" d="m59.57 68.624 2.23 1.241v-4.633l-2.23-1.241z"/>
    <path fill="#78c2ff" d="m59.57 68.624 2.23 1.241v-4.633l-2.23-1.241z"/>
    <path fill="#c1c1c1" d="M59.804 68.511v-4.394l-.233-.126v4.633z"/>
    <path fill="#fff" d="m61.8 69.596-1.996-1.085-.233.113 2.23 1.241z"/>
    <path fill="#4c525d" d="M59.234 63.378v5.41l2.902 1.69V65.07zm.337 1.916 1.097.62v.967l-1.097-.62zm1.23.696 1 .566v.963l-1-.564zm1 .412-1-.565v-1.161l1 .556zm-1.133-1.8v1.16l-1.097-.621v-1.15zm-1.097 1.813 1.097.618v2.202l-1.097-.61zm1.23 2.893v-2.2l1 .563v2.194z"/>
    <path fill="#5f6269" d="m59.57 79.183 2.23 1.24v-4.632l-2.23-1.241z"/>
    <path fill="#78c2ff" d="m59.57 79.183 2.23 1.24v-4.632l-2.23-1.241z"/>
    <path fill="#c1c1c1" d="M59.804 79.07v-4.394l-.233-.126v4.633z"/>
    <path fill="#fff" d="m61.8 80.154-1.996-1.084-.233.113 2.23 1.24z"/>
    <path fill="#4c525d" d="M59.234 73.937v5.409l2.902 1.691v-5.41zm.337 1.915 1.097.621v.966l-1.097-.618zm1.23.696 1 .566v.963l-1-.564zm1 .413-1-.566v-1.16l1 .556zm-1.133-1.8v1.16l-1.097-.622v-1.15zm-1.097 1.812 1.097.619v2.202l-1.097-.611zm1.23 2.894v-2.2l1 .563v2.194z"/>
    <path fill="#ddccac" d="m29.492 17.337 2.273 1.313L55.75 4.706V2.08z"/>
    <path fill="#ead9b5" d="M55.75 2.08v2.626l59.3 34.233 2.263-1.314z"/>
    <path fill="#ddccac" d="m72.918 35.194-6.222 3.614 2.273 1.314 3.95-2.301z"/>
    <path fill="#5f656f" d="m41.367 69.775-.024 8.362-3.667-2.116-3.667-2.119.023-8.362 3.668 2.12z"/>
    <path fill="#5f656f" d="m37.3 73.05-.008 2.305-1.164-.672.007-2.306z"/>
    <path fill="#4c525d" d="m34.343 71.272 1.284.74-.007 2.446-1.284-.74zm1.217 3.083.007-2.306-1.164-.672-.007 2.306z"/>
    <path fill="#4b82bf" d="m39.177 68.806 1.932 1.115-.008 2.987z"/>
    <path fill="#5f656f" d="m39.233 74.166-.006 2.306-1.165-.672.007-2.306z"/>
    <path fill="#4c525d" d="m38.01 73.388 1.283.741-.007 2.446-1.284-.741zm1.217 3.084.006-2.306-1.164-.672-.007 2.306z"/>
    <path fill="#4b82bf" d="m37.944 72.832.007-2.521 2.024 3.694z"/>
    <path fill="#5f656f" d="m40.965 75.166-.006 2.306-1.164-.672.006-2.306z"/>
    <path fill="#6195ce" d="m37.952 69.712 2.505 4.571-.482-.278-2.024-3.694z"/>
    <path fill="#4b82bf" d="m37.952 69.712.004-1.314 3.084 6.222-.583-.337z"/>
    <path fill="#6195ce" d="m39.177 68.806 1.924 4.102-.005 1.744-.056-.032-3.084-6.222.001-.296z"/>
    <path fill="#4c525d" d="m39.742 74.388 1.283.741-.007 2.446-1.283-.741zm1.217 3.084.006-2.306-1.164-.672-.006 2.306z"/>
    <path fill="#5f656f" d="m37.7 67.658 3.666 2.117-.024 8.362-3.666-2.117zm3.401 5.25.009-2.986-1.933-1.116-1.22-.704-.013 4.73 3.152 1.82zm-1.815 3.667.007-2.446-1.284-.74-.007 2.445zm1.733 1 .006-2.446-1.283-.74-.007 2.445zM35.567 72.049l-.007 2.306-1.164-.672.007-2.306z"/>
    <path fill="#4b82bf" d="m34.275 70.714.008-2.52 2.026 3.694z"/>
    <path fill="#4c525d" d="m36.075 72.272 1.284.74-.007 2.447-1.284-.742zm1.217 3.083.007-2.306-1.164-.672-.007 2.306z"/>
    <path fill="#6195ce" d="m35.51 66.69 1.923 4.1-.005 1.744-.054-.031-3.086-6.223v-.296z"/>
    <path fill="#4b82bf" d="m34.284 67.594.004-1.314 3.086 6.223-.583-.337zM35.51 66.69l1.931 1.114-.008 2.986z"/>
    <path fill="#5f656f" d="m34.034 65.542-.024 8.361 3.666 2.117.024-8.361zm1.586 8.916-1.284-.74.007-2.447 1.284.742zm1.732 1-1.284-.74.007-2.446 1.284.74zm.08-4.669-.004 1.744-3.153-1.82.01-3.12v-.442l.004-1.168 1.222.705 1.93 1.115z"/>
    <path fill="#6195ce" d="m34.283 68.193 2.026 3.695.482.278-2.507-4.572z"/>
    <path fill="#cc4e4e" d="m41.882 69.735-.002.568-2.831 1.645.001-.568z"/>
    <path fill="#e25656" d="m39.05 71.38-.001.568-7.503-4.332.001-.568z"/>
    <path fill="#f06260" d="M41.882 69.735 39.05 71.38l-7.503-4.332 2.832-1.645z"/>
    <path fill="#ebebeb" d="M41.343 78.138 21.756 89.52l-7.33-4.232 19.586-11.382z"/>
    <path fill="#5f656f" d="m81.286 92.819-.023 8.361-3.667-2.116-3.668-2.118.024-8.362 3.667 2.119z"/>
    <path fill="#5f656f" d="m77.219 96.092-.007 2.307-1.164-.673.006-2.306z"/>
    <path fill="#4c525d" d="m74.263 94.315 1.283.741-.007 2.446-1.283-.741zm1.217 3.083.006-2.306-1.164-.672-.006 2.306z"/>
    <path fill="#4b82bf" d="m79.097 91.85 1.932 1.115-.008 2.987z"/>
    <path fill="#5f656f" d="m79.153 97.209-.007 2.306-1.164-.672.007-2.306z"/>
    <path fill="#4c525d" d="m77.929 96.432 1.284.74-.007 2.446-1.284-.74zm1.217 3.083.007-2.306-1.165-.672-.006 2.306z"/>
    <path fill="#4b82bf" d="m77.863 95.875.007-2.52 2.024 3.693z"/>
    <path fill="#5f656f" d="m80.885 98.21-.007 2.305-1.164-.672.007-2.306z"/>
    <path fill="#6195ce" d="m77.872 92.755 2.504 4.571-.482-.278-2.024-3.694z"/>
    <path fill="#4b82bf" d="m77.872 92.755.004-1.314 3.083 6.222-.583-.337z"/>
    <path fill="#6195ce" d="m79.097 91.85 1.924 4.102-.005 1.743-.056-.032-3.084-6.222v-.296z"/>
    <path fill="#4c525d" d="m79.661 97.432 1.284.74-.007 2.447-1.284-.742zm1.217 3.083.007-2.306-1.164-.672-.007 2.306z"/>
    <path fill="#5f656f" d="m77.62 90.702 3.666 2.117-.024 8.361-3.666-2.117zm3.4 5.25.009-2.987-1.932-1.116-1.22-.704-.014 4.73 3.153 1.82zm-1.814 3.666.007-2.445-1.284-.742-.007 2.446zm1.732 1 .007-2.445-1.284-.741-.007 2.445zM75.486 95.092l-.006 2.306-1.164-.672.006-2.306z"/>
    <path fill="#4b82bf" d="m74.195 93.757.007-2.52 2.026 3.694z"/>
    <path fill="#4c525d" d="m75.995 95.315 1.284.741-.007 2.446-1.284-.741zm1.217 3.084.007-2.307-1.165-.672-.006 2.306z"/>
    <path fill="#6195ce" d="m75.43 89.733 1.922 4.1-.005 1.745-.054-.032-3.086-6.223.001-.296z"/>
    <path fill="#4b82bf" d="m74.204 90.637.003-1.314 3.086 6.223-.583-.336zM75.43 89.733l1.93 1.114-.008 2.987z"/>
    <path fill="#5f656f" d="m73.953 88.585-.024 8.361 3.667 2.117.023-8.361zm1.586 8.917-1.283-.741.007-2.446 1.283.741zm1.733 1-1.284-.741.007-2.446 1.284.741zm.08-4.668-.005 1.743-3.152-1.82.009-3.12.001-.442.003-1.168 1.222.706 1.93 1.114z"/>
    <path fill="#6195ce" d="m74.202 91.236 2.026 3.695.482.279-2.506-4.573z"/>
    <path fill="#cc4e4e" d="m81.801 92.778-.001.568-2.832 1.645.002-.567z"/>
    <path fill="#e25656" d="m78.97 94.424-.002.567-7.503-4.332.002-.567z"/>
    <path fill="#f06260" d="m81.801 92.778-2.831 1.646-7.503-4.332 2.831-1.646z"/>
    <path fill="#ebebeb" d="m81.262 101.181-19.59 11.385-7.33-4.232 19.59-11.385z"/>
    <path fill="#dadada" d="m49.053 11.767 5.372-3.121 8.594-1.09-5.372 3.12z"/>
    <path fill="#c1c1c1" d="m60.508 12.329 5.372-3.122-.021 7.366-5.371 3.122z"/>
    <path fill="#5f656f" d="m61.365 12.823 3.653-2.123-.015 6.37-3.654 2.124z"/>
    <path fill="#ebebeb" d="m57.647 10.677 5.372-3.122 2.86 1.652-5.37 3.122z"/>
    <path fill="#ccc" d="m60.508 12.329-.02 7.366-11.439-6.604.004-1.324 8.594-1.09zM95.13 44.527l-.926-.538.006 2.283.927.539z"/>
    <path fill="#ebebeb" d="m98.342 42.673-.927-.538-3.211 1.854.926.538z"/>
    <path fill="#c1c1c1" d="m95.13 44.527.007 2.284 3.211-1.854-.006-2.284z"/>
    <path fill="#4c525d" d="M97.34 43.47c-.451.26-.817.895-.816 1.414s.37.729.822.468c.453-.262.818-.895.816-1.414-.001-.519-.368-.73-.822-.468"/>
    <path fill="#ebebeb" d="M97.308 43.681a.04.04 0 0 0-.017.024v.011l.002.601v.012l-.026-.002-.018-.002q-.01.001-.012-.01l-.031-.086q-.004-.01-.013-.008l-.35.066-.008.003a.04.04 0 0 0-.013.013l-.058.095q-.013.025.003.03l.101.009.1.008.099.009.114.01.047.004h.006l-.05.063-.006.004-.097.033-.005.003a.1.1 0 0 0-.018.018l-.161.255-.114.182q-.01.018-.006.03l.016.072q.005.016.017.01l.011-.01.054-.068.121-.151.181-.224.102-.128.005-.005v.036q.004.033-.018.069-.026.047-.051.096a.03.03 0 0 0-.004.021l.07.366.004.014.011.006.083-.019a.04.04 0 0 0 .017-.028v-.007l-.002-.612.019.001q.008.002.017.002c.015-.003.02.007.023.02l.024.067.002.006q.003.013.015.01.04-.007.08-.015.034-.005.067-.012l.073-.014.09-.016q.02-.003.041-.008l.007-.002a.04.04 0 0 0 .013-.014l.056-.094c.01-.017.009-.03-.003-.03l-.062-.006-.1-.009-.143-.012-.129-.01q-.014-.003-.032-.003l.02-.027.029-.035.008-.005.075-.027.025-.008.004-.002a.04.04 0 0 0 .013-.014l.275-.436q.013-.022.008-.039l-.017-.069c-.001-.008-.01-.012-.017-.007l-.008.007-.079.099-.121.15-.085.107-.077.094-.099.123-.005.006v-.045q-.002-.025.015-.053l.055-.104.004-.02q-.005-.035-.013-.069l-.031-.158-.018-.097-.011-.056q-.003-.01-.012-.008l-.078.017z"/>
    <path fill="#ccc" d="m90.262 47.361-.927-.539.007 2.284.927.538z"/>
    <path fill="#ebebeb" d="m93.473 45.507-.926-.539-3.212 1.854.927.539z"/>
    <path fill="#c1c1c1" d="m90.262 47.361.007 2.283 3.21-1.854-.006-2.283z"/>
    <path fill="#4c525d" d="M92.472 46.304c-.451.26-.817.894-.816 1.413.001.52.37.73.821.469.454-.262.818-.895.817-1.414-.002-.52-.368-.73-.822-.468"/>
    <path fill="#ebebeb" d="M92.44 46.515a.04.04 0 0 0-.017.024v.01l.001.602v.011q-.013 0-.026-.002-.007-.002-.018 0-.01-.001-.011-.011l-.032-.087q-.003-.009-.012-.007l-.35.065-.009.003a.04.04 0 0 0-.013.014l-.057.095c-.01.015-.008.028.003.03l.101.008.1.009.099.008.114.01.047.004.006.001-.05.063-.006.004-.097.033-.005.002a.1.1 0 0 0-.018.02l-.275.435q-.011.02-.006.031l.016.072q.004.016.017.009l.011-.01.053-.067.122-.151.18-.225.103-.127.005-.005v.036q.004.032-.018.069-.028.047-.051.095a.03.03 0 0 0-.004.022l.07.366.004.014.01.006.083-.019a.04.04 0 0 0 .017-.028v-.007l-.001-.613.019.002.017.002c.015-.003.019.007.023.02l.024.067.002.006q.003.012.015.01l.08-.015.067-.012.073-.014q.045-.007.09-.017l.041-.007.007-.002a.04.04 0 0 0 .013-.014l.056-.094c.01-.017.009-.03-.004-.03l-.06-.006-.1-.009-.145-.012-.128-.011-.032-.003.02-.026q.016-.018.028-.035l.009-.006.075-.026.025-.008.004-.002a.04.04 0 0 0 .013-.014l.274-.436q.014-.022.009-.039l-.017-.07q-.005-.011-.018-.006l-.007.007-.079.098-.121.15-.085.107-.077.095-.1.123-.004.005v-.044q-.003-.025.014-.053.03-.052.056-.105l.004-.02-.013-.068-.031-.158-.019-.098-.01-.055q-.003-.01-.012-.008-.039.008-.078.017z"/>
    <path fill="#dadada" d="m61.506 85.448-.002.698-2.319-1.338.002-.699z"/>
    <path fill="#ccc" d="m59.187 84.11-.002.698-2.303 1.338.002-.698z"/>
    <path fill="#dadada" d="m59.204 87.137-.002.698-2.925-1.689.002-.698z"/>
    <path fill="#ccc" d="m62.112 85.447-.002.698-2.908 1.69.002-.698z"/>
    <path fill="#ebebeb" d="m59.187 83.758 2.925 1.69-2.908 1.689-2.925-1.689zm.015 3.029 2.304-1.339-2.319-1.338-2.303 1.338z"/>
    <path fill="#ebebeb" d="m59.187 83.758-2.908 1.691.707.407.3-.174-.403-.233 2.304-1.34 2.319 1.34-.403.233.302.176.707-.411z"/>
    <path fill="#9e6a4d" d="m61.103 85.682-1.901 1.105-1.916-1.105 1.901-1.106z"/>
    <path fill="#875744" d="M59.822 85.68a.7.7 0 0 0 .003-.162c-.022-.188-.352-1.365-.532-2.66-.18-1.297.397-3.324.343-3.316-.054.007-.662-.159-.662-.159-.13.231-.138 1.683-.238 2.3s.188 1.851.087 2.63a27 27 0 0 0-.142 1.526c.043.311 1.185.153 1.141-.158"/>
    <path fill="#603f22" d="M59.343 80.086q.094-.098.16-.217a.38.38 0 0 1-.16.217M58.944 80.208c.083-.027.178-.019.247-.072.075-.042.134-.11.203-.165-.064.06-.117.132-.192.181-.076.05-.174.035-.258.056M59.347 79.844a.3.3 0 0 0 .072-.145M59.109 79.817a.4.4 0 0 0 .136-.032M59.142 79.96a.5.5 0 0 0 .194-.103"/>
    <path fill="#8fb545" d="m62.563 78.893 1.214.099c-2.053-1.327-3.859-.187-4.767.627l.061-.008.07.51c.292-.007.552.011.552.011l-.083-.247.875-.17-.197-.27.838-.07-.184-.15 1.124-.067-.19-.247.789.206z"/>
    <path fill="#81aa40" d="m62.1 76.41.498-.333c-2.846-1.297-3.541 2.51-3.693 3.793l.386-.054.34-.37-.112-.196.615-.468-.19-.263.838-.515-.26-.228 1.003-.547-.406-.105 1.12-.512z"/>
    <path fill="#8fb545" d="M59.469 80.374s-.981-1.461-3.109-1.472c-2.127-.01-3.294 2.194-3.41 2.46l.916-.613.016.22 1.255-.674-.423.461 1.527-.615-.475.386 1.77-.565-.482.33s2.025-.322 2.415.082"/>
    <path fill="#81aa40" d="m59.23 80.072-.001-.004-.95-3.04.074.54-.913-1.504.099.714-1.284-1.475.054.39-1.31-.7s.06.74.626 1.169l-.446.128.887.515-.256.058.677.59-.194.191.915.567-.212.052 1.028.742-.128.19s.775.49 1.122.906z"/>
    <path fill="#8fb545" d="m58.498 75.235-.325-.014.327.702-.215.107.372 1.028-.239-.069.398 1.211-.233-.027s.192 1.012.303 1.623l.243-.034c.363-1.304 1.065-4.418-.16-5.484-.224-.199-.286-.403-1.098-.435l.436.688-.344-.029z"/>
    <path fill="#8fb545" d="M58.766 79.895s3.289-1.332 3.501 2.001l-.367-.644-.236.2-.58-.767-.07.287-.545-.467.03.22-.992-.6.043.314z"/>
    <path fill="#dadada" d="m53.08 90.162-.002.698-2.318-1.338.002-.699z"/>
    <path fill="#ccc" d="m50.762 88.823-.002.699-2.303 1.338.002-.698z"/>
    <path fill="#dadada" d="m50.78 91.85-.003.699-2.925-1.689.002-.698z"/>
    <path fill="#ccc" d="m53.687 90.161-.002.698-2.908 1.69.002-.698z"/>
    <path fill="#ebebeb" d="m50.762 88.472 2.925 1.69-2.908 1.689-2.925-1.689zm.015 3.029 2.303-1.339-2.318-1.338-2.303 1.338z"/>
    <path fill="#ebebeb" d="m50.762 88.472-2.908 1.69.707.408.3-.174-.403-.233 2.304-1.34 2.319 1.34-.403.233.302.176.707-.411z"/>
    <path fill="#9e6a4d" d="m52.678 90.396-1.901 1.105-1.916-1.105 1.9-1.106z"/>
    <path fill="#875744" d="M51.397 90.395a.7.7 0 0 0 .003-.163c-.022-.188-.352-1.365-.532-2.66-.18-1.297.396-3.324.342-3.316-.054.007-.662-.159-.662-.159-.13.231-.137 1.683-.237 2.3s.188 1.851.087 2.63a27 27 0 0 0-.142 1.526c.043.311 1.184.153 1.141-.158"/>
    <path fill="#603f22" d="M50.917 84.8q.095-.098.162-.217a.38.38 0 0 1-.162.217M50.52 84.922c.082-.027.177-.019.246-.073.075-.041.134-.11.202-.164-.064.06-.117.132-.192.181-.075.05-.173.035-.257.055M50.921 84.558a.3.3 0 0 0 .073-.145M50.684 84.531a.4.4 0 0 0 .135-.032M50.717 84.675a.5.5 0 0 0 .194-.104"/>
    <path fill="#8fb545" d="m54.138 83.607 1.214.099c-2.054-1.327-3.86-.187-4.767.627l.06-.008.071.51c.292-.007.551.011.551.011l-.083-.247.876-.17-.198-.27.839-.07-.184-.15 1.123-.067-.19-.247.79.206z"/>
    <path fill="#81aa40" d="m53.674 81.124.498-.333c-2.845-1.297-3.54 2.51-3.692 3.792l.386-.053.34-.37-.113-.196.616-.468-.19-.263.838-.515-.26-.228 1.003-.547-.406-.105 1.119-.512z"/>
    <path fill="#8fb545" d="M51.044 85.088s-.981-1.461-3.109-1.472-3.294 2.194-3.41 2.46l.916-.613.016.22 1.254-.674-.422.461 1.527-.615-.475.386 1.77-.565-.482.33s2.025-.322 2.415.082"/>
    <path fill="#81aa40" d="M50.804 84.786v-.005l-.951-3.04.075.54-.914-1.503.1.713-1.285-1.474.054.39-1.308-.7s.058.74.624 1.169l-.445.128.887.515-.256.058.676.59-.193.191.915.567-.213.052 1.029.742-.128.19s.774.49 1.122.906z"/>
    <path fill="#8fb545" d="m50.073 79.95-.325-.015.327.702-.215.107.372 1.027-.239-.068.398 1.211-.234-.027s.192 1.012.304 1.623l.243-.034c.363-1.305 1.065-4.418-.16-5.485-.224-.198-.286-.402-1.098-.434l.436.688-.344-.029z"/>
    <path fill="#8fb545" d="M50.34 84.609s3.29-1.332 3.502 2.001l-.367-.644-.237.2-.579-.767-.07.287-.546-.468.03.22-.992-.598.044.313z"/>
    <path fill="#dadada" d="m44.252 95.123-.002.698-2.318-1.338.002-.699z"/>
    <path fill="#ccc" d="m41.934 93.785-.002.698-2.304 1.338.002-.698z"/>
    <path fill="#dadada" d="m41.95 96.812-.001.698-2.926-1.689.002-.698z"/>
    <path fill="#ccc" d="m44.858 95.122-.002.698-2.907 1.69.002-.698z"/>
    <path fill="#ebebeb" d="m41.933 93.433 2.925 1.69-2.907 1.69-2.926-1.69zm.016 3.029 2.303-1.339-2.318-1.338-2.304 1.338z"/>
    <path fill="#ebebeb" d="m41.933 93.433-2.907 1.691.706.407.3-.173-.402-.234 2.303-1.34 2.32 1.34-.403.234.302.175.706-.411z"/>
    <path fill="#9e6a4d" d="m43.85 95.358-1.902 1.104-1.916-1.105 1.901-1.106z"/>
    <path fill="#875744" d="M42.569 95.356a.7.7 0 0 0 .002-.163c-.021-.188-.352-1.365-.531-2.66-.18-1.297.396-3.323.342-3.316s-.662-.158-.662-.158c-.13.23-.137 1.682-.237 2.299s.187 1.851.087 2.63a27 27 0 0 0-.143 1.526c.043.312 1.185.153 1.142-.158"/>
    <path fill="#603f22" d="M42.089 89.76q.095-.097.161-.216a.38.38 0 0 1-.161.217M41.69 89.883c.084-.027.179-.019.248-.072.075-.042.133-.11.202-.165-.064.06-.117.132-.192.182-.076.05-.174.034-.257.055M42.093 89.519a.3.3 0 0 0 .073-.145M41.855 89.492a.4.4 0 0 0 .136-.032M41.888 89.636a.5.5 0 0 0 .195-.104"/>
    <path fill="#8fb545" d="m45.31 88.568 1.213.099c-2.053-1.327-3.859-.187-4.766.627l.06-.008.071.51c.292-.007.551.011.551.011l-.083-.247.875-.17-.197-.27.838-.07-.184-.15 1.124-.067-.19-.247.789.206z"/>
    <path fill="#81aa40" d="m44.846 86.085.498-.333c-2.846-1.297-3.54 2.51-3.692 3.793l.385-.054.34-.37-.112-.196.615-.468-.19-.263.839-.515-.261-.228 1.003-.547-.405-.105 1.119-.512z"/>
    <path fill="#8fb545" d="M42.215 90.05s-.98-1.462-3.108-1.473c-2.127-.01-3.294 2.194-3.41 2.46l.915-.613.017.22 1.254-.674-.422.461 1.526-.614-.474.385 1.77-.565-.483.33s2.025-.322 2.415.082"/>
    <path fill="#81aa40" d="M41.976 89.747v-.004l-.951-3.04.075.54-.914-1.504.099.714L39 84.979l.054.389-1.309-.7s.059.74.625 1.169l-.446.128.888.516-.257.057.677.59-.194.191.916.567-.213.052 1.028.742-.128.19s.775.49 1.122.906z"/>
    <path fill="#8fb545" d="m41.244 84.91-.325-.014.327.702-.214.107.372 1.028-.24-.07.398 1.212-.233-.027s.192 1.012.303 1.623l.243-.034c.364-1.305 1.065-4.418-.16-5.485-.223-.198-.285-.402-1.097-.434l.435.688-.344-.029z"/>
    <path fill="#8fb545" d="M41.512 89.57s3.289-1.332 3.501 2.001l-.367-.644-.236.2-.58-.767-.07.288-.545-.468.03.22-.992-.6.043.314z"/>
    <path fill="#dadada" d="m22.112 74.764-.002.698-2.319-1.338.002-.698z"/>
    <path fill="#ccc" d="m19.793 73.426-.002.698-2.303 1.338.002-.698z"/>
    <path fill="#dadada" d="m19.81 76.453-.002.698-2.925-1.689.002-.698z"/>
    <path fill="#ccc" d="m22.718 74.763-.002.698-2.908 1.69.002-.698z"/>
    <path fill="#ebebeb" d="m19.793 73.074 2.925 1.69-2.908 1.69-2.925-1.69zm.015 3.029 2.304-1.339-2.319-1.338-2.303 1.338z"/>
    <path fill="#ebebeb" d="m19.793 73.074-2.907 1.691.706.407.3-.173-.403-.234 2.304-1.34 2.319 1.34-.403.234.302.175.707-.41z"/>
    <path fill="#9e6a4d" d="m21.71 74.999-1.902 1.104L17.892 75l1.901-1.107z"/>
    <path fill="#875744" d="M20.429 74.997a.7.7 0 0 0 .002-.163c-.021-.188-.352-1.365-.532-2.66-.18-1.297.397-3.324.343-3.316s-.662-.158-.662-.158c-.13.23-.138 1.682-.237 2.299-.1.617.187 1.851.086 2.63a27 27 0 0 0-.142 1.526c.043.312 1.185.153 1.142-.158"/>
    <path fill="#603f22" d="M19.949 69.402q.094-.098.161-.217a.38.38 0 0 1-.161.217M19.55 69.524c.083-.027.178-.019.247-.072.076-.042.134-.11.203-.165-.064.06-.117.132-.192.182-.076.05-.174.035-.258.055M19.953 69.16a.3.3 0 0 0 .073-.144M19.715 69.133a.4.4 0 0 0 .136-.031M19.748 69.277a.5.5 0 0 0 .194-.104"/>
    <path fill="#8fb545" d="m23.169 68.21 1.214.098c-2.053-1.327-3.859-.187-4.767.628l.061-.009.07.51c.292-.007.552.012.552.012l-.083-.248.875-.17-.197-.27.838-.07-.184-.15 1.124-.067-.19-.247.789.206z"/>
    <path fill="#81aa40" d="m22.706 65.726.498-.333c-2.846-1.297-3.541 2.51-3.692 3.793l.385-.054.34-.37-.112-.196.615-.468-.19-.263.839-.515-.261-.228 1.003-.547-.406-.105 1.12-.512z"/>
    <path fill="#8fb545" d="M20.075 69.69s-.981-1.461-3.108-1.472-3.294 2.194-3.41 2.46l.915-.613.017.22 1.254-.674-.423.462 1.527-.615-.475.385 1.77-.565-.482.33s2.025-.322 2.415.083"/>
    <path fill="#81aa40" d="m19.836 69.388-.001-.004-.95-3.04.074.54-.913-1.504.099.714-1.284-1.474.054.389-1.309-.7s.059.74.625 1.169l-.446.128.888.516-.257.057.677.59-.194.191.915.567-.212.052 1.028.742-.128.19s.775.49 1.122.906z"/>
    <path fill="#8fb545" d="m19.104 64.551-.325-.014.327.703-.215.106.372 1.028-.239-.069.398 1.211-.233-.027s.192 1.012.303 1.623l.243-.034c.363-1.304 1.065-4.418-.16-5.484-.223-.199-.286-.403-1.098-.435l.436.688-.344-.029z"/>
    <path fill="#8fb545" d="M19.372 69.211s3.289-1.332 3.501 2.001l-.367-.644-.236.2-.58-.767-.07.288-.545-.468.03.22-.992-.6.043.314z"/>
    <path fill="#dadada" d="m13.687 79.478-.002.698-2.319-1.338.002-.698z"/>
    <path fill="#ccc" d="m11.368 78.14-.002.698-2.303 1.338.002-.698z"/>
    <path fill="#dadada" d="m11.385 81.167-.002.698-2.925-1.689.002-.698z"/>
    <path fill="#ccc" d="m14.293 79.477-.002.698-2.908 1.69.002-.698z"/>
    <path fill="#ebebeb" d="m11.368 77.788 2.925 1.69-2.908 1.69-2.925-1.69zm.015 3.029 2.304-1.339-2.319-1.338-2.303 1.338z"/>
    <path fill="#ebebeb" d="M11.368 77.788 8.46 79.479l.707.407.3-.173-.403-.234 2.304-1.34 2.319 1.34-.403.234.302.175.707-.411z"/>
    <path fill="#9e6a4d" d="m13.284 79.713-1.901 1.104-1.916-1.104 1.9-1.107z"/>
    <path fill="#875744" d="M12.003 79.71a.7.7 0 0 0 .003-.162c-.022-.188-.352-1.365-.532-2.66-.18-1.297.397-3.323.342-3.316s-.662-.158-.662-.158c-.13.23-.137 1.682-.237 2.299s.188 1.851.087 2.63a27 27 0 0 0-.142 1.526c.043.312 1.185.153 1.141-.158"/>
    <path fill="#603f22" d="M11.524 74.116q.094-.098.16-.217a.38.38 0 0 1-.16.217M11.125 74.238c.083-.027.178-.019.247-.072.075-.042.134-.11.202-.165-.064.06-.117.132-.192.182s-.173.035-.257.055M11.528 73.874a.3.3 0 0 0 .072-.144M11.29 73.847a.4.4 0 0 0 .136-.031M11.323 73.99a.5.5 0 0 0 .194-.103"/>
    <path fill="#8fb545" d="m14.744 72.923 1.214.099c-2.053-1.327-3.859-.187-4.767.627l.06-.008.072.51c.291-.007.55.011.55.011l-.082-.247.875-.17-.197-.27.838-.07-.184-.15 1.124-.067-.19-.247.788.206z"/>
    <path fill="#81aa40" d="m14.28 70.44.498-.333c-2.845-1.297-3.54 2.51-3.692 3.793l.386-.054.34-.37-.112-.196.615-.468-.19-.263.838-.515-.26-.228 1.003-.547-.406-.105 1.12-.512z"/>
    <path fill="#8fb545" d="M11.65 74.405s-.981-1.462-3.109-1.473-3.294 2.194-3.41 2.46l.916-.613.016.22 1.255-.674-.423.461 1.527-.614-.475.385 1.77-.565-.482.33s2.025-.322 2.415.082"/>
    <path fill="#81aa40" d="M11.41 74.102v-.004l-.95-3.04.074.54-.914-1.504.1.713-1.285-1.474.054.39-1.308-.7s.058.74.624 1.169l-.445.128.887.516-.256.057.676.59-.193.191.915.567-.213.052 1.029.742-.128.19s.774.49 1.122.906z"/>
    <path fill="#8fb545" d="m10.679 69.265-.325-.014.327.703-.215.106.372 1.028-.239-.069.398 1.211-.233-.027s.191 1.012.303 1.623l.243-.034c.363-1.304 1.065-4.418-.16-5.484-.224-.199-.286-.403-1.098-.435l.436.688-.344-.029z"/>
    <path fill="#8fb545" d="M10.947 73.925s3.289-1.332 3.5 2.001l-.366-.644-.237.2-.578-.767-.072.287-.545-.467.031.22-.993-.6.044.314z"/>
    <path fill="#dadada" d="m86.139 110.828-.002.698-2.318-1.338.002-.699z"/>
    <path fill="#ccc" d="m83.82 109.49-.001.698-2.304 1.338.002-.698z"/>
    <path fill="#dadada" d="m83.838 112.517-.002.698-2.926-1.689.002-.698z"/>
    <path fill="#ccc" d="m86.745 110.827-.002.698-2.907 1.69.002-.698z"/>
    <path fill="#ebebeb" d="m83.82 109.138 2.925 1.69-2.907 1.689-2.926-1.689zm.016 3.028 2.303-1.338-2.318-1.338-2.304 1.338z"/>
    <path fill="#ebebeb" d="m83.82 109.138-2.907 1.69.706.408.3-.174-.402-.233 2.303-1.34 2.32 1.34-.403.233.302.176.706-.411z"/>
    <path fill="#9e6a4d" d="m85.737 111.062-1.902 1.105-1.916-1.105 1.901-1.106z"/>
    <path fill="#875744" d="M84.456 111.06a.7.7 0 0 0 .002-.162c-.021-.188-.352-1.365-.531-2.66-.18-1.297.396-3.324.342-3.316-.054.007-.662-.159-.662-.159-.13.231-.137 1.683-.237 2.3s.187 1.851.087 2.63a27 27 0 0 0-.143 1.526c.043.311 1.185.153 1.142-.158"/>
    <path fill="#603f22" d="M83.976 105.466q.094-.098.161-.217a.38.38 0 0 1-.161.217M83.578 105.588c.083-.027.178-.019.247-.072.075-.042.133-.11.202-.165-.064.06-.117.132-.192.181-.076.05-.174.035-.257.056M83.98 105.224a.3.3 0 0 0 .073-.145M83.742 105.197a.4.4 0 0 0 .136-.032M83.775 105.34a.5.5 0 0 0 .195-.103"/>
    <path fill="#8fb545" d="m87.196 104.273 1.215.099c-2.054-1.327-3.86-.187-4.767.627l.06-.008.071.509c.292-.007.551.012.551.012l-.083-.247.876-.17-.198-.27.838-.07-.184-.15 1.124-.067-.19-.247.789.206z"/>
    <path fill="#81aa40" d="m86.733 101.79.498-.333c-2.846-1.297-3.54 2.51-3.692 3.792l.385-.053.34-.37-.112-.196.615-.468-.19-.263.839-.515-.261-.228 1.003-.547-.405-.105 1.119-.512z"/>
    <path fill="#8fb545" d="M84.102 105.754s-.98-1.461-3.108-1.472c-2.127-.01-3.294 2.194-3.41 2.46l.915-.613.017.22 1.254-.674-.422.461 1.526-.615-.474.386 1.77-.565-.483.33s2.025-.322 2.415.082"/>
    <path fill="#81aa40" d="M83.863 105.452v-.005l-.952-3.04.076.54-.914-1.503.099.713-1.284-1.474.054.39-1.309-.7s.059.74.625 1.169l-.446.128.888.515-.257.058.677.59-.194.191.916.567-.213.052 1.028.742-.128.19s.775.49 1.122.906z"/>
    <path fill="#8fb545" d="m83.131 100.615-.325-.014.327.702-.214.107.372 1.027-.24-.068.398 1.211-.233-.027s.192 1.012.303 1.623l.243-.034c.364-1.305 1.065-4.418-.16-5.485-.223-.198-.285-.402-1.097-.434l.435.688-.344-.029z"/>
    <path fill="#8fb545" d="M83.4 105.275s3.288-1.332 3.5 2l-.367-.643-.236.2-.579-.767-.071.287-.545-.468.03.22-.992-.598.043.313z"/>
    <path fill="#dadada" d="m77.714 115.542-.002.698-2.319-1.338.002-.699z"/>
    <path fill="#ccc" d="m75.395 114.203-.002.698-2.303 1.339.002-.698z"/>
    <path fill="#dadada" d="m75.413 117.23-.002.699-2.926-1.689.002-.698z"/>
    <path fill="#ccc" d="m78.32 115.541-.002.698-2.907 1.69.001-.698z"/>
    <path fill="#ebebeb" d="m75.395 113.852 2.925 1.69-2.907 1.689-2.926-1.69zm.016 3.028 2.303-1.338-2.319-1.339-2.303 1.339z"/>
    <path fill="#ebebeb" d="m75.395 113.852-2.907 1.69.706.408.3-.174-.403-.233 2.304-1.34 2.319 1.34-.403.233.302.176.707-.411z"/>
    <path fill="#9e6a4d" d="m77.311 115.776-1.9 1.105-1.917-1.105 1.901-1.107z"/>
    <path fill="#875744" d="M76.03 115.775a.7.7 0 0 0 .003-.163c-.021-.188-.352-1.365-.531-2.66-.18-1.297.396-3.324.342-3.316-.054.007-.662-.159-.662-.159-.13.231-.138 1.683-.237 2.3-.1.616.187 1.851.086 2.63a27 27 0 0 0-.142 1.526c.043.311 1.185.153 1.142-.159"/>
    <path fill="#603f22" d="M75.55 110.18q.095-.099.162-.217a.38.38 0 0 1-.161.217M75.153 110.302c.083-.027.178-.019.247-.073.075-.041.133-.11.202-.164-.064.06-.117.132-.192.181-.076.05-.174.035-.257.056M75.555 109.938a.3.3 0 0 0 .072-.145M75.317 109.911a.4.4 0 0 0 .136-.032M75.35 110.055a.5.5 0 0 0 .194-.104"/>
    <path fill="#8fb545" d="m78.771 108.987 1.214.099c-2.053-1.327-3.859-.187-4.767.627l.061-.008.07.509c.292-.007.552.012.552.012l-.083-.247.875-.17-.197-.27.838-.07-.184-.15 1.124-.067-.19-.247.789.206z"/>
    <path fill="#81aa40" d="m78.308 106.504.498-.333c-2.846-1.297-3.54 2.51-3.692 3.792l.385-.053.34-.37-.112-.196.615-.468-.19-.263.839-.516-.261-.227 1.003-.547-.405-.105 1.119-.513z"/>
    <path fill="#8fb545" d="M75.677 110.468s-.981-1.461-3.108-1.472-3.294 2.194-3.41 2.46l.915-.613.017.22 1.254-.674-.422.461 1.526-.615-.475.386 1.77-.565-.482.33s2.025-.322 2.415.082"/>
    <path fill="#81aa40" d="m75.438 110.166-.001-.005-.95-3.04.074.54-.913-1.503.099.713-1.284-1.474.054.39-1.309-.7s.059.74.625 1.169l-.446.128.888.515-.257.058.677.59-.194.191.915.567-.212.052 1.028.742-.128.19s.775.49 1.122.906z"/>
    <path fill="#8fb545" d="m74.706 105.329-.325-.014.327.702-.215.107.373 1.027-.24-.068.398 1.21-.233-.026s.192 1.012.303 1.623l.243-.034c.363-1.305 1.065-4.418-.16-5.485-.223-.198-.286-.402-1.097-.434l.435.687-.344-.028z"/>
    <path fill="#8fb545" d="M74.974 109.989s3.289-1.332 3.501 2l-.367-.643-.236.2-.58-.768-.07.288-.545-.468.03.22-.992-.598.043.313z"/>
</svg>
