<svg xmlns="http://www.w3.org/2000/svg" width="28" height="29" fill="none" viewBox="0 0 28 29">
    <g fill="#191919" stroke="#191919" stroke-width=".25" clip-path="url(#a)">
        <path d="M20.796 20.93a1.4 1.4 0 0 0-1.901-.539l-3.197 1.782-1.071-1.912 2.78-4.962a.547.547 0 1 0-.954-.535L14 19.142l-2.453-4.378a.547.547 0 0 0-.954.535l2.78 4.962-1.071 1.912-3.197-1.782a1.4 1.4 0 0 0-1.9.538l-.657 1.17a1.4 1.4 0 0 0 .54 1.9l1.868 1.041a2.616 2.616 0 0 0 3.556-1.003L14 21.38l1.489 2.657a2.616 2.616 0 0 0 3.555 1.003l1.87-1.04a1.4 1.4 0 0 0 .538-1.901zm-9.238 2.572c-.41.73-1.337.991-2.07.583l-1.867-1.04a.303.303 0 0 1-.119-.41l.658-1.172a.307.307 0 0 1 .413-.117l3.194 1.781zm8.823-.458-1.87 1.04a1.524 1.524 0 0 1-2.068-.581l-.21-.376 3.194-1.78a.31.31 0 0 1 .414.117l.657 1.169a.303.303 0 0 1-.117.411ZM14.09 13.296a2.351 2.351 0 0 0 1.667-4.014 2.363 2.363 0 0 0-3.332 0 2.33 2.33 0 0 0-.69 1.663 2.351 2.351 0 0 0 2.356 2.35Zm-.893-3.24c.247-.246.57-.369.894-.369a1.26 1.26 0 0 1 1.263 1.258c0 .336-.131.652-.37.89a1.27 1.27 0 0 1-1.787 0 1.25 1.25 0 0 1-.369-.89c0-.336.131-.651.37-.89ZM12.695 1.373Z"/>
        <path d="M27.988 12.397a2.06 2.06 0 0 0-.758-1.394l-11.924-9.63a2.06 2.06 0 0 0-2.612 0L.77 11.003c-.431.348-.7.843-.758 1.394a2.06 2.06 0 0 0 .451 1.523c.41.504 1.01.766 1.616.766.459 0 .92-.15 1.304-.46l.44-.355v13.676c0 .302.244.547.547.547h19.26a.547.547 0 0 0 .547-.547V13.87l.44.355c.89.718 2.2.58 2.92-.306.35-.43.51-.971.451-1.523ZM4.916 27V12.987l9.085-7.337 9.083 7.338V27zM26.69 13.23a.99.99 0 0 1-1.385.145l-10.96-8.853a.55.55 0 0 0-.687 0L2.696 13.375a.99.99 0 0 1-1.384-.145.97.97 0 0 1-.213-.718.97.97 0 0 1 .358-.658l11.924-9.63a.98.98 0 0 1 1.238 0l11.924 9.63a.97.97 0 0 1 .358.658.97.97 0 0 1-.212.718Z"/>
    </g>
    <defs>
        <clipPath id="a">
            <path fill="#fff" d="M0 .5h28v28H0z"/>
        </clipPath>
    </defs>
</svg>
