<svg xmlns="http://www.w3.org/2000/svg" width="28" height="28" fill="none" viewBox="0 0 28 28">
    <g fill="#154e8d" clip-path="url(#a)">
        <path d="M27.616 21.165a.657.657 0 0 0-.06-.927l-.84-.738v-3.245a2.084 2.084 0 0 0-4.132-.389l-.718-.631a2.214 2.214 0 0 0-2.915 0l-5.687 5.003a.654.654 0 0 0 .837 1.003V25.9a1.883 1.883 0 0 0 1.881 1.881h8.855a1.88 1.88 0 0 0 1.88-1.881v-4.66a.65.65 0 0 0 .899-.075m-3.763-4.91a.773.773 0 1 1 1.546 0v2.09l-1.546-1.359zm-2.292 10.212h-2.188v-1.53a.97.97 0 0 1 .971-.97h.25a.97.97 0 0 1 .97.97zm3.675-.167a.56.56 0 0 1-.402.167h-1.96v-1.53a2.287 2.287 0 0 0-2.285-2.283h-.25a2.286 2.286 0 0 0-2.283 2.284v1.527H15.98a.57.57 0 0 1-.569-.569v-5.8l4.407-3.875a.9.9 0 0 1 1.182 0l4.404 3.872V25.9a.56.56 0 0 1-.166.4z"/>
        <path d="M20.411 17.588a1.942 1.942 0 1 0-.001 3.884 1.942 1.942 0 0 0 .001-3.885m0 2.57a.63.63 0 1 1-.001-1.255.63.63 0 0 1 .001 1.253zM3.306 27.778h8.054a.656.656 0 1 0 0-1.313H3.306A1.77 1.77 0 0 1 1.53 24.7V5.981a1.767 1.767 0 0 1 1.775-1.755h2.88v.864a.656.656 0 0 0 .656.656h8.16a.656.656 0 0 0 .657-.656v-.864h2.88a1.766 1.766 0 0 1 1.774 1.755v5.994a.656.656 0 0 0 1.313 0V5.981a3.08 3.08 0 0 0-3.087-3.067H15.65A2.764 2.764 0 0 0 12.894.22H8.95a2.765 2.765 0 0 0-2.758 2.694H3.306A3.08 3.08 0 0 0 .219 5.98v18.72a3.086 3.086 0 0 0 3.087 3.077M7.498 2.986A1.455 1.455 0 0 1 8.95 1.533h3.944a1.454 1.454 0 0 1 1.454 1.453v1.448h-6.85z"/>
        <path d="M17.356 10.209a.657.657 0 0 0-.657-.657H5.15a.656.656 0 1 0 0 1.313h11.55a.657.657 0 0 0 .657-.656M6.977 14.467h7.9a.657.657 0 0 0 0-1.312h-7.9a.656.656 0 1 0 0 1.312"/>
    </g>
    <defs>
        <clipPath id="a">
            <path fill="#fff" d="M0 0h28v28H0z"/>
        </clipPath>
    </defs>
</svg>
