<svg xmlns="http://www.w3.org/2000/svg" fill="none" viewBox="0 0 100 70">
    <g fill="#EA3934" clip-path="url(#a)">
        <path d="M4.876 36.736a33 33 0 0 0 3.285-3.793c.5-.671 1.216-1.26 1.784-1.782.608-.63 1.176-1.152 1.784-1.782 2.46-2.264 4.878-4.42 7.62-6.453 5.148-3.826 10.74-6.87 16.938-8.58 5.968-1.428 12.325-1.603 18.127.345 6.125 2.07 11.572 6.586 13.561 12.742.915 2.802 1.235 5.871.61 8.828-.665 3.065-2.194 5.803-4.29 8.081-2.094 2.279-4.688 4.246-7.619 5.471-1.486.667-3.106 1.036-4.78.895-1.632-.249-3.129-1.183-3.991-2.492-1.441-2.387-.304-5.396 1.238-7.515 1.582-2.227 3.73-3.994 5.973-5.357 4.633-2.792 10.438-3.79 15.674-3.284 5.858.495 11.24 2.898 15.919 6.51 4.854 3.8 8.748 8.835 11.454 14.402.27.593.606 1.335.835 2.035.093.404.228.7.322 1.105.094.404.188.808.323 1.104.228.7-.812 1.167-1.04.467-.27-.593-.755-1.268-1.024-1.861-.377-.634-.754-1.268-1.09-2.01a38 38 0 0 0-2.196-3.654 43.6 43.6 0 0 0-5.323-6.803c-3.828-3.904-8.561-7.044-13.945-8.466-4.696-1.284-10.027-1.212-14.726.45-2.296.851-4.524 1.851-6.443 3.337-1.919 1.485-3.81 3.226-4.448 5.564-.366.967-.367 1.95.145 2.88.687 1.12 2.13 1.542 3.372 1.52 1.499-.047 2.836-.647 4.065-1.288 1.229-.64 2.39-1.43 3.444-2.259 2.149-1.767 4.095-3.978 5.179-6.517 1.083-2.538 1.477-5.213 1.036-7.96-.91-5.748-5.075-10.393-10.31-12.863-5.125-2.43-10.983-2.925-16.64-1.994-5.696 1.04-11.152 3.398-16.015 6.472-2.621 1.711-5.175 3.57-7.553 5.619-1.243 1.004-2.378 2.048-3.662 3.16-1.135 1.044-2.31 2.196-3.513 3.093-1.243 1.004-2.446 1.9-3.621 3.052-.379.348-1.012-.26-.634-.608z"/>
        <path d="m.002 41.156 2.398-6.34 2.397-6.34.57 7.953 7.867 1.378-6.67 1.654z"/>
    </g>
    <defs>
        <clipPath id="a">
            <path fill="#fff" d="M15.563 0 0 41.156 92.602 76.17l15.562-41.156z"/>
        </clipPath>
    </defs>
</svg>
