<svg xmlns="http://www.w3.org/2000/svg" width="28" height="28" fill="none" viewBox="0 0 28 28">
    <path fill="#222" stroke="#fff" stroke-width=".5" d="M22.75 1.75a.88.88 0 0 1 .805.534l.035.105 1.75 6.125a.874.874 0 0 1-.744 1.102l-.096.009h-2.625V14h5.25v1.75h-1.75v11.375h-1.75v-2.222c-.462.268-.98.427-1.514.463l-.236.009H6.125a3.5 3.5 0 0 1-1.75-.473v2.223h-1.75V15.75H.875V14H5.25v-3.5a.875.875 0 0 1 .77-.875h.315L5.329 7.35l1.592-.7 1.33 2.975H10.5a.875.875 0 0 1 .875.77V14h8.75V9.625H17.5a.875.875 0 0 1-.866-1.015l.026-.096 1.75-6.125a.88.88 0 0 1 .735-.63l.105-.009zm.875 14H4.375v6.125a1.75 1.75 0 0 0 1.487 1.733l.132.008.131.009h15.75a1.75 1.75 0 0 0 1.75-1.619zm-14-4.375H7V14h2.625zM22.085 3.5h-2.179l-1.251 4.375h4.681z"/>
</svg>
