<svg xmlns="http://www.w3.org/2000/svg" width="29" height="29" fill="none" viewBox="0 0 29 29">
    <path fill="#154e8d" d="M25.71 12.177c1.773-1.552 2.026-4.297.314-6.007a4.04 4.04 0 0 0-5.7 0l-.043.043a12.1 12.1 0 0 0-3.374-1.22V3.662h.595a.62.62 0 0 0 .62-.62V.62a.62.62 0 0 0-.62-.62h-5.715a.62.62 0 0 0-.62.62v2.422c0 .342.278.62.62.62h.596v1.276c-1.304.23-2.536.666-3.661 1.275l-.044-.043a4.04 4.04 0 0 0-5.699 0c-1.713 1.71-1.459 4.455.314 6.007a12 12 0 0 0-.952 4.7C2.341 23.562 7.796 29 14.501 29c6.623 0 12.16-5.492 12.16-12.123 0-1.666-.338-3.254-.951-4.7m-1.252 5.288h.948a10.82 10.82 0 0 1-2.706 6.593l-.68-.644a.62.62 0 0 0-.851.9l.66.626a10.9 10.9 0 0 1-6.603 2.796v-.933a.62.62 0 0 0-1.24 0v.945a10.9 10.9 0 0 1-6.66-2.672l.7-.7a.62.62 0 0 0-.877-.876l-.71.71a10.83 10.83 0 0 1-2.836-6.64H4.65a.62.62 0 1 0 0-1.24H3.594A10.82 10.82 0 0 1 6.35 9.645l.726.726q.438.363.876 0a.62.62 0 0 0 0-.877l-.725-.725a10.9 10.9 0 0 1 6.656-2.757v.982a.62.62 0 1 0 1.24 0v-.982a10.9 10.9 0 0 1 6.612 2.719l-.664.702a.62.62 0 0 0 .024.876q.444.35.877-.025l.645-.682a10.82 10.82 0 0 1 2.786 6.625h-.944a.62.62 0 0 0 0 1.24m.69-10.419c1.12 1.12.97 2.831-.014 3.954a12.2 12.2 0 0 0-3.756-4.116 2.797 2.797 0 0 1 3.77.162M12.407 1.24h4.476v1.183h-4.476zm1.215 2.423h2.046V4.81a12 12 0 0 0-2.046-.024zm-9.767 7.325c-1.076-1.075-1.076-2.866 0-3.94a2.797 2.797 0 0 1 3.77-.163A12.2 12.2 0 0 0 3.868 11z"/>
    <path fill="#154e8d" d="m19.623 11.136-3.934 3.929a2.172 2.172 0 0 0-3.361 1.812c0 1.196.974 2.169 2.17 2.169a2.172 2.172 0 0 0 1.993-3.03l4.008-4.003a.62.62 0 1 0-.876-.877m-5.124 6.67a.93.93 0 0 1-.932-.93.932.932 0 0 1 1.863 0c0 .513-.418.93-.931.93"/>
</svg>
