<svg xmlns="http://www.w3.org/2000/svg" width="42" height="42" fill="none" viewBox="0 0 42 42">
    <path fill="#fdbf9a" d="M26.568 19.125C26.531 20.798 21 24.927 21 24.927s-5.53-4.129-5.568-5.802c-4.67.426-8.329 4.353-8.329 9.135 0 4.569 3.339 4.792 7.709 4.792h.31v-.002c.001-1.57.613-3.046 1.723-4.154a5.84 5.84 0 0 1 4.154-1.722c1.57 0 3.045.612 4.154 1.722a5.84 5.84 0 0 1 1.722 4.154v.002h.311c4.371 0 7.71-.223 7.71-4.792a9.173 9.173 0 0 0-8.328-9.135"/>
    <path fill="#fdbf9a" d="M21.002 20.325c4.225 0 7.65-6.352 7.65-10.577a7.65 7.65 0 0 0-7.65-7.648 7.65 7.65 0 0 0-7.648 7.648c0 4.225 3.425 10.577 7.648 10.577M24.656 35.028a4.14 4.14 0 0 0 .499-1.978c0-1.11-.433-2.154-1.217-2.938a4.13 4.13 0 0 0-2.939-1.217c-1.11 0-2.154.432-2.939 1.217a4.13 4.13 0 0 0-1.217 2.938 4.16 4.16 0 0 0 6.134 3.658l2.844 2.843a1.183 1.183 0 0 0 1.68 0 1.187 1.187 0 0 0 0-1.678zm-2.062-.382a2.259 2.259 0 0 1-3.851-1.596c0-.602.234-1.169.66-1.595A2.24 2.24 0 0 1 21 30.794c.603 0 1.169.236 1.595.661.427.426.66.992.66 1.595s-.234 1.17-.66 1.596"/>
</svg>
