<svg xmlns="http://www.w3.org/2000/svg" width="41" height="41" fill="none" viewBox="0 0 41 41">
    <path fill="#95baee" d="m36.794 21.98-1.281-1.08v-7.38h1.281zm3.514-10.635-2.085-4.871a.65.65 0 0 0-.59-.388h-2.96a.64.64 0 0 0-.585.388l-2.086 4.871a.642.642 0 0 0 .59.894h7.127a.642.642 0 0 0 .59-.894M10.346 18.77v-.685a1.72 1.72 0 0 1 1.717-1.717h4.065a1.72 1.72 0 0 1 1.717 1.717v.685h2.748v-.685a1.72 1.72 0 0 1 1.717-1.717h4.065a1.72 1.72 0 0 1 1.716 1.717v.685h3.3v-3.35a3.54 3.54 0 0 0-3.533-3.533H10.58a3.54 3.54 0 0 0-3.533 3.533v3.35zm25.052 5.382h1.992l-.596-.5-1.281-1.076-3.004-2.524H5.929l-4.882 4.1zM3.523 32.765h-1.28v1.508a.643.643 0 0 0 .64.641h3.12a.643.643 0 0 0 .64-.64v-1.51zm29.553 0h-1.282v1.508a.643.643 0 0 0 .64.641h3.12a.643.643 0 0 0 .641-.64v-1.51zM1.921 25.433H.64v5.41a.643.643 0 0 0 .64.64h35.875a.64.64 0 0 0 .64-.64v-5.41z"/>
</svg>
