<svg xmlns="http://www.w3.org/2000/svg" width="28" height="29" fill="none" viewBox="0 0 28 29">
    <path fill="#000" d="M9.931 9.538a.653.653 0 0 0-.372-.854.653.653 0 0 0-.853.372 5.7 5.7 0 0 0-.393 2.1v14.657a1.96 1.96 0 0 0 1.968 1.968h7.438a1.96 1.96 0 0 0 1.968-1.968V11.156c0-3.128-2.559-5.687-5.687-5.687a6 6 0 0 0-1.86.306c-.35.11-.524.481-.415.831s.481.525.831.416c.46-.153.94-.24 1.422-.24a4.39 4.39 0 0 1 4.375 4.374v14.657a.645.645 0 0 1-.656.656H10.28a.645.645 0 0 1-.656-.657V11.157c0-.547.11-1.094.306-1.619"/>
    <path fill="#000" d="M5.906 11.813a.645.645 0 0 0 .657-.657c0-4.09 3.346-7.437 7.437-7.437h4.484c.241.765.941 1.356 1.794 1.443l6.781.744h.066a.65.65 0 0 0 .438-.175.7.7 0 0 0 .218-.481V.875a.63.63 0 0 0-.218-.481.83.83 0 0 0-.504-.175l-6.78.744a2.13 2.13 0 0 0-1.795 1.443h-3.828V.875A.644.644 0 0 0 14 .219a.644.644 0 0 0-.656.656v1.553c-4.528.35-8.094 4.135-8.094 8.728 0 .372.284.656.656.656m14.503-9.56 6.06-.656v2.91l-6.06-.657c-.415-.022-.721-.372-.721-.788 0-.415.306-.765.721-.809"/>
</svg>
