<svg xmlns="http://www.w3.org/2000/svg" fill="none" viewBox="0 0 31 31"><rect width="31" height="31" fill="#ef4a50" rx="4.502"/><path stroke="#fff" stroke-linecap="round" stroke-linejoin="round" stroke-width="1.125" d="M16.978 20.153h2.584M12.547 20.153h2.215"/><rect width="2.215" height="2.163" x="17.715" y="13.665" fill="#fff" rx="1.081"/><rect width="2.215" height="2.163" x="11.81" y="13.665" fill="#fff" rx="1.081"/><path stroke="#fff" stroke-linecap="round" stroke-linejoin="round" stroke-width="1.876" d="M12.547 17.48v7.344a.375.375 0 0 1-.375.375H6.279a.375.375 0 0 1-.375-.375V13.303c0-.117.055-.227.147-.298l9.253-7.101a.375.375 0 0 1 .447-.008l9.925 7.11c.099.07.157.184.157.304v11.514a.375.375 0 0 1-.375.375h-5.893a.375.375 0 0 1-.375-.375v-7.343"/></svg>
