<svg xmlns="http://www.w3.org/2000/svg" fill="none" viewBox="0 0 20 21"><mask id="a" width="16" height="16" x="2" y="3" maskUnits="userSpaceOnUse" style="mask-type:luminance"><path fill="#fff" d="M18 3H2v16h16z"/></mask><g mask="url(#a)"><path fill="currentColor" fill-rule="evenodd" d="M18 19h-3.2v-5.6c0-1.535-.678-2.392-1.893-2.392-1.322 0-2.107.893-2.107 2.393V19H7.6V8.6h3.2v1.17s1.004-1.762 3.266-1.762c2.264 0 3.934 1.38 3.934 4.239zM3.954 6.937A1.96 1.96 0 0 1 2 4.968C2 3.882 2.874 3 3.954 3a1.96 1.96 0 0 1 1.952 1.968 1.96 1.96 0 0 1-1.952 1.969M2 19h4V8.6H2z" clip-rule="evenodd"/></g></svg>