<svg xmlns="http://www.w3.org/2000/svg" width="38" height="38" fill="none" viewBox="0 0 38 38">
    <g fill="#c8d892" clip-path="url(#a)">
        <path d="M23.783 31.345v.205A6.56 6.56 0 0 0 30.334 38a6.56 6.56 0 0 0 6.553-6.553 6.56 6.56 0 0 0-6.553-6.552 6.56 6.56 0 0 0-6.551 6.45m10.221-1.01v2.226h-2.555v2.555h-2.227v-2.555h-2.555v-2.227h2.555V27.78h2.227v2.555zM13.562 20.856h7.994v12.035h-7.994zM17.559 5.185l16.445 9.867V9.867L17.559 0 13.56 2.398V0H6.224v6.8l-5.11 3.067v5.185z"/>
        <path d="M11.335 18.63h12.448v6.98a8.76 8.76 0 0 1 7.665-2.871v-6.623l-13.89-8.334-13.89 8.334V32.89h7.667zm0-4.926h12.448v2.226H11.335z"/>
    </g>
    <defs>
        <clipPath id="a">
            <path fill="#fff" d="M0 0h38v38H0z"/>
        </clipPath>
    </defs>
</svg>
