<svg xmlns="http://www.w3.org/2000/svg" fill="none" viewBox="0 0 40 40">
    <rect width="40" height="40" fill="#fff" rx="20"/>
    <g fill="#000" clip-path="url(#a)">
        <path d="M22.208 11.938c-1.026 0-1.853 0-2.503.087-.675.09-1.244.285-1.695.736-.394.394-.593.878-.697 1.446-.102.553-.121 1.229-.125 2.04a.563.563 0 0 0 1.125.006c.004-.82.025-1.401.106-1.842.078-.426.204-.672.386-.854.208-.208.5-.343 1.05-.417.566-.076 1.317-.078 2.394-.078h.75c1.076 0 1.827.002 2.394.078.55.074.841.21 1.049.417s.343.499.417 1.05c.076.566.077 1.316.077 2.393v6c0 1.077-.001 1.827-.077 2.394-.074.55-.21.842-.417 1.05-.208.207-.499.342-1.05.416-.566.076-1.317.078-2.393.078h-.75c-1.077 0-1.828-.002-2.394-.078-.55-.074-.842-.21-1.05-.417-.182-.182-.308-.428-.386-.854-.08-.44-.102-1.022-.107-1.842a.563.563 0 1 0-1.125.006c.005.811.024 1.487.126 2.04.104.568.303 1.052.697 1.446.451.451 1.02.645 1.695.736.65.087 1.477.087 2.503.087h.832c1.026 0 1.852 0 2.503-.087.675-.09 1.243-.285 1.695-.736.45-.452.645-1.02.736-1.695.087-.65.087-1.477.087-2.503V16.96c0-1.026 0-1.853-.087-2.503-.09-.675-.285-1.243-.736-1.695-.452-.451-1.02-.645-1.695-.736-.65-.088-1.477-.088-2.503-.088z"/>
        <path d="M22.25 19.438a.563.563 0 0 1 0 1.125h-8.23l1.471 1.26a.562.562 0 1 1-.732.854l-2.625-2.25a.563.563 0 0 1 0-.854l2.625-2.25a.563.563 0 0 1 .732.854l-1.47 1.26z"/>
    </g>
    <defs>
        <clipPath id="a">
            <path fill="#fff" d="M11 11h18v18H11z"/>
        </clipPath>
    </defs>
</svg>
