<svg xmlns="http://www.w3.org/2000/svg" width="29" height="29" fill="none" viewBox="0 0 29 29">
    <path fill="#000" stroke="#fff" stroke-width=".25" d="M5.59 19.287a.67.67 0 0 0-.239-1.292H1.633a.67.67 0 0 0-.238 1.292L.8 24.764a.67.67 0 0 0 1.33.144l.605-5.575H4.25l.604 5.575a.669.669 0 1 0 1.331-.144zM28.2 24.764l-.595-5.477a.67.67 0 0 0-.238-1.292h-3.718a.67.67 0 0 0-.239 1.292l-.594 5.476a.67.67 0 0 0 1.33.145l.605-5.575h1.513l.604 5.575a.669.669 0 1 0 1.331-.144ZM16.394 10.64q.002.008.005.015a.7.7 0 0 0 .064.199q.008.015.017.03.05.09.127.16.012.01.024.02a.7.7 0 0 0 .18.109l.02.007c.071.025.147.042.227.042s.155-.017.226-.042l.02-.007a.7.7 0 0 0 .18-.11q.013-.009.024-.019.075-.07.128-.16l.016-.03a.7.7 0 0 0 .065-.199q.002-.007.005-.014c.165-.16.849-.43 1.896-.43s1.73.27 1.895.43l.005.014q.017.106.065.199l.016.03q.051.09.128.16l.023.02a.7.7 0 0 0 .18.109l.021.007c.071.025.146.042.226.042.37 0 .67-.3.67-.67 0-3.891-3.745-7.057-8.348-7.057-4.602 0-8.347 3.166-8.347 7.057a.67.67 0 0 0 .896.628l.02-.007a.7.7 0 0 0 .18-.11l.025-.019a.67.67 0 0 0 .208-.39q.002-.006.004-.013c.166-.16.85-.43 1.897-.43s1.73.27 1.896.43q.001.008.004.014a.7.7 0 0 0 .081.229q.052.09.128.16l.024.02a.7.7 0 0 0 .18.109l.02.007a.7.7 0 0 0 .227.042c.08 0 .155-.017.226-.042l.02-.007a.7.7 0 0 0 .18-.11q.014-.009.024-.019a.67.67 0 0 0 .21-.39q.001-.006.003-.013c.128-.122.56-.308 1.227-.39v5.216H7.416a.67.67 0 1 0 0 1.339h1.9l-2.7 7.812a.67.67 0 1 0 1.265.437l1.348-3.9h10.539l1.348 3.9a.67.67 0 0 0 1.265-.437l-2.7-7.812h1.9a.67.67 0 0 0 0-1.339h-6.413v-5.215c.665.08 1.1.266 1.226.389Zm2.911 9.177H9.692l1.04-3.012h7.532zm-6.63-10.678c.249-2.666 1.163-4.306 1.823-4.306s1.575 1.64 1.824 4.306a6 6 0 0 0-1.823-.266c-.63 0-1.275.087-1.824.266Zm8.59-.054a6.2 6.2 0 0 0-1.648-.213c-.676 0-1.374.1-1.948.307-.13-1.557-.484-3.022-1.05-4.077 2.267.589 4.03 2.096 4.646 3.983Zm-13.533 0c.615-1.887 2.38-3.394 4.646-3.983-.566 1.055-.92 2.52-1.05 4.078-.574-.207-1.272-.307-1.948-.307-.562 0-1.139.07-1.648.212Z"/>
</svg>
