<svg xmlns="http://www.w3.org/2000/svg" fill="none" viewBox="0 0 52 52">
    <path fill="#EA3934" d="M16.792 43.277a.677.677 0 0 1-.667-.785.68.68 0 0 1 .268-.44l3.383-2.414a.64.64 0 0 1 .392-.129h9.47l16.067-6.907a1.677 1.677 0 0 0-.995-3.186L28.367 32.69a.689.689 0 1 1-.264-1.353l16.344-3.274a3.038 3.038 0 0 1 1.792 5.764l-16.181 6.98a.7.7 0 0 1-.264.055h-9.437l-3.152 2.286a.68.68 0 0 1-.413.13"/>
    <path fill="#EA3934" d="M25.774 33.982h-9.47a.676.676 0 1 1 0-1.353h9.47a2.27 2.27 0 0 0 1.9-.994c.272-.398.414-.87.406-1.353 0-1.062-.777-1.603-2.306-1.603H17.29a4.9 4.9 0 0 0-1.664.284c-2.706.954-4.607 2.192-5.926 3.802a.676.676 0 1 1-1.042-.86c1.475-1.799 3.605-3.179 6.508-4.214a6.3 6.3 0 0 1 2.124-.338h8.483c2.293 0 3.66 1.103 3.66 2.956a3.8 3.8 0 0 1-.643 2.104 3.67 3.67 0 0 1-3.017 1.57"/>
    <path fill="#EA3934" d="M13.78 47.992h-.121a1.9 1.9 0 0 1-1.407-.764l-7.955-10.73a1.91 1.91 0 0 1 .162-2.462l2.3-2.367a1.88 1.88 0 0 1 1.488-.575 1.9 1.9 0 0 1 1.407.764l7.956 10.709a1.91 1.91 0 0 1-.156 2.455l-2.28 2.382a1.88 1.88 0 0 1-1.393.588M8.126 32.433a.54.54 0 0 0-.399.17l-2.293 2.374a.55.55 0 0 0-.047.676l7.955 10.763a.51.51 0 0 0 .406.216.56.56 0 0 0 .433-.162l2.293-2.388a.55.55 0 0 0 .047-.676L8.565 32.663a.56.56 0 0 0-.406-.223zM44.895 17.26a.64.64 0 0 1-.412-.142L29.54 5.544 14.59 17.118a.68.68 0 0 1-1.074-.352.68.68 0 0 1 .242-.717L29.12 4.15a.68.68 0 0 1 .832 0l15.363 11.9a.676.676 0 0 1-.42 1.21"/>
    <path fill="#EA3934" d="M16.88 28.706a.676.676 0 0 1-.677-.677V14.581a.677.677 0 0 1 1.353 0V28.03a.676.676 0 0 1-.676.677M42.239 29.903a.677.677 0 0 1-.676-.676V14.58a.677.677 0 0 1 1.352 0v14.646a.676.676 0 0 1-.676.676M30.528 32.237a.676.676 0 0 1-.676-.676v-7.59a4.525 4.525 0 0 1 9.044 0v6.027a.676.676 0 1 1-1.353 0V23.97a3.173 3.173 0 0 0-3.166-3.166 3.186 3.186 0 0 0-3.173 3.166v7.59a.677.677 0 0 1-.676.676M29.536 12.47a2.335 2.335 0 1 1-.013-4.669 2.335 2.335 0 0 1 .013 4.67m0-3.307a.981.981 0 1 0 .974.98.98.98 0 0 0-.974-.994zM39.318 12.944a.68.68 0 0 1-.42-.142l-2.814-2.185a.68.68 0 0 1-.264-.534V4.67a.677.677 0 0 1 .677-.677h2.82a.676.676 0 0 1 .677.677v7.597a.676.676 0 0 1-.676.676m-2.145-3.18 1.468 1.137v-5.54h-1.468z"/>
    <path fill="#EA3934" d="M40.629 5.36h-5.453a.677.677 0 0 1 0-1.352h5.453a.677.677 0 0 1 0 1.353"/>
</svg>
