<svg xmlns="http://www.w3.org/2000/svg" width="40" height="40" fill="none" viewBox="0 0 40 40">
    <g fill="#000" clip-path="url(#a)">
        <path d="M25.945 25.61a.586.586 0 0 0-.586.586v.882a.586.586 0 1 0 1.172 0v-.882a.586.586 0 0 0-.586-.586M4.688 16.305h1.719a.586.586 0 1 0 0-1.172H4.688c-.884 0-1.604.739-1.604 1.647v.052c0 .909.72 1.647 1.604 1.647h.699a.477.477 0 0 1 0 .95H3.668a.586.586 0 1 0 0 1.173h1.719c.884 0 1.604-.74 1.604-1.647 0-.908-.72-1.648-1.604-1.648h-.699a.455.455 0 0 1-.432-.475v-.052a.456.456 0 0 1 .432-.475M15.055 19.43h-2.149v-3.711a.586.586 0 1 0-1.172 0v4.297a.586.586 0 0 0 .586.586h2.735a.586.586 0 0 0 0-1.172M19.379 16.305a.586.586 0 1 0 0-1.172h-2.735a.586.586 0 0 0-.585.586v4.297a.586.586 0 0 0 .585.586h2.735a.586.586 0 0 0 0-1.172H17.23v-.977h2.149a.586.586 0 1 0 0-1.172H17.23v-.976zM9.91 15.519a.586.586 0 0 0-1.101 0l-1.563 4.297a.586.586 0 1 0 1.102.4l.239-.657h1.546l.234.657a.585.585 0 1 0 1.102-.4zm-.897 2.868.346-.953.347.953z"/>
        <path d="M39.414 34.344h-3.329V15.719l1.475.846a.586.586 0 0 0 .877-.513v-3.371a.59.59 0 0 0-.294-.51L24.031 4.078a.59.59 0 0 0-.584 0l-12.124 6.954H1.758A1.76 1.76 0 0 0 0 12.789v10.156a1.76 1.76 0 0 0 1.758 1.758h7.617v9.64H.585a.586.586 0 1 0 0 1.173h38.83a.586.586 0 1 0 0-1.172m-4.5 0h-6.62v-13a.586.586 0 0 0-.586-.586h-4.661v-7.969a1.76 1.76 0 0 0-1.758-1.758h-1.73l4.18-2.397 11.172 6.406zm-15.73-9.64v9.64h-5.512v-9.64zm1.171 0h.934a1.76 1.76 0 0 0 1.758-1.759V21.93h4.075v12.414h-6.767zM23.74 5.261l13.527 7.761v2.022L24.03 7.45a.59.59 0 0 0-.584 0l-6.244 3.581h-3.525zM1.172 22.945V12.79a.586.586 0 0 1 .586-.586h19.531a.586.586 0 0 1 .586.586v10.156a.586.586 0 0 1-.586.586H1.758a.586.586 0 0 1-.586-.586m9.375 1.758H12.5v9.64h-1.953z"/>
    </g>
    <defs>
        <clipPath id="a">
            <path fill="#fff" d="M0 0h40v40H0z"/>
        </clipPath>
    </defs>
</svg>
