<svg xmlns="http://www.w3.org/2000/svg" fill="none" viewBox="0 0 40 40">
    <rect width="40" height="40" fill="#fff" rx="20"/>
    <g fill="currentColor" clip-path="url(#a)">
        <path d="M18.273 18.87a.527.527 0 1 1-1.054 0 .527.527 0 0 1 1.054 0"/>
        <path d="M25.93 14.954h-1.449v-.885A3.067 3.067 0 0 0 21.412 11H14.07A3.067 3.067 0 0 0 11 14.07v9.884c0 .44.517.695.865.405l3.242-2.702h.412v1.45a3.067 3.067 0 0 0 3.069 3.069h6.305l3.242 2.702a.526.526 0 0 0 .865-.405v-10.45a3.067 3.067 0 0 0-3.07-3.069m-11.014 5.648a.53.53 0 0 0-.337.122l-2.524 2.104v-8.759c0-1.113.9-2.014 2.014-2.014h7.343c1.113 0 2.015.9 2.015 2.014v4.519c0 1.11-.904 2.014-2.015 2.014zm13.03 6.745-2.525-2.104a.53.53 0 0 0-.337-.122h-6.496c-.538 0-1.044-.21-1.425-.59a2 2 0 0 1-.59-1.424v-1.45h4.839c.66 0 1.271-.21 1.773-.565h2.463a.527.527 0 1 0 0-1.054h-1.531c.195-.364.32-.772.354-1.205h1.177a.527.527 0 1 0 0-1.055h-1.167v-1.77h1.45c.538 0 1.044.21 1.424.59.38.381.59.887.59 1.425z"/>
        <path d="M16.852 15.198c0-.236.092-.458.259-.625a.886.886 0 1 1 .626 1.51.527.527 0 0 0-.528.528v.565a.527.527 0 0 0 1.055 0v-.11a1.94 1.94 0 0 0 1.412-1.867 1.942 1.942 0 0 0-3.311-1.372 1.93 1.93 0 0 0-.568 1.371.527.527 0 1 0 1.055 0M25.65 22.297H18.87a.527.527 0 0 0 0 1.055h6.778a.527.527 0 0 0 0-1.055"/>
    </g>
    <defs>
        <clipPath id="a">
            <path fill="#fff" d="M11 11h18v18H11z"/>
        </clipPath>
    </defs>
</svg>
